/* XPM */
static char *chest_2[] = {
/* columns rows colors chars-per-pixel */
"64 64 234 2 ",
"   c #000000",
".  c None",
"X  c #010000",
"o  c #060000",
"O  c #070000",
"+  c #080000",
"@  c #0A0100",
"#  c #080200",
"$  c #0B0200",
"%  c #0F0100",
"&  c #0F0400",
"*  c #030B00",
"=  c #0C000C",
"-  c #150200",
";  c #170600",
":  c #1A0100",
">  c #130900",
",  c #180800",
"<  c #190B00",
"1  c #1F0A00",
"2  c #1A0F00",
"3  c #191000",
"4  c #200000",
"5  c #220000",
"6  c #210200",
"7  c #260100",
"8  c #2C0100",
"9  c #2E0200",
"0  c #2E0400",
"q  c #2D0007",
"w  c #2F0006",
"e  c #200800",
"r  c #270A00",
"t  c #280A00",
"y  c #330100",
"u  c #330001",
"i  c #350100",
"p  c #340500",
"a  c #390100",
"s  c #3B0002",
"d  c #370900",
"f  c #360F00",
"g  c #201300",
"h  c #281200",
"j  c #2E1600",
"k  c #3B1500",
"l  c #321900",
"z  c #371800",
"x  c #3C1A00",
"c  c #0B3E00",
"v  c #0D0036",
"b  c #430000",
"n  c #430002",
"m  c #450000",
"M  c #490000",
"N  c #4E0300",
"B  c #4D0003",
"V  c #4E0B00",
"C  c #500000",
"Z  c #570000",
"A  c #540300",
"S  c #5A0100",
"D  c #5B0400",
"F  c #5D0400",
"G  c #491400",
"H  c #4B1600",
"J  c #411900",
"K  c #421A00",
"L  c #451A00",
"P  c #471B00",
"I  c #4E1B00",
"U  c #551200",
"Y  c #541500",
"T  c #591600",
"R  c #660400",
"E  c #600900",
"W  c #600D00",
"Q  c #6E0800",
"!  c #680E00",
"~  c #700000",
"^  c #7F0000",
"/  c #710D00",
"(  c #691000",
")  c #6A1100",
"_  c #681500",
"`  c #681B00",
"'  c #6A1C00",
"]  c #761300",
"[  c #781000",
"{  c #781600",
"}  c #7D1700",
"|  c #711900",
" . c #412300",
".. c #432300",
"X. c #4C2400",
"o. c #4F2500",
"O. c #422C00",
"+. c #532000",
"@. c #502400",
"#. c #522400",
"$. c #582100",
"%. c #502900",
"&. c #582900",
"*. c #5A3000",
"=. c #632000",
"-. c #682700",
";. c #622D00",
":. c #632E00",
">. c #642D00",
",. c #712400",
"<. c #702900",
"1. c #613000",
"2. c #643200",
"3. c #6A3000",
"4. c #6C3100",
"5. c #6E3100",
"6. c #6D3800",
"7. c #733C00",
"8. c #7E3800",
"9. c #154A00",
"0. c #794000",
"q. c #7E4200",
"w. c #715300",
"e. c #697400",
"r. c #3B0072",
"t. c #820E00",
"y. c #9A0000",
"u. c #900C00",
"i. c #980D00",
"p. c #821100",
"a. c #831300",
"s. c #871400",
"d. c #851900",
"f. c #8A1E00",
"g. c #911800",
"h. c #951F00",
"j. c #A80000",
"k. c #BE0000",
"l. c #B8000C",
"z. c #A31E00",
"x. c #A41C00",
"c. c #802200",
"v. c #8C2000",
"b. c #922700",
"n. c #972700",
"m. c #9B2700",
"M. c #922800",
"N. c #972E00",
"B. c #9C2800",
"V. c #813000",
"C. c #863700",
"Z. c #A22200",
"A. c #A52300",
"S. c #AD2E00",
"D. c #AE2F00",
"F. c #B72400",
"G. c #B02800",
"H. c #BD2A00",
"J. c #BF2F00",
"K. c #AB3500",
"L. c #AD3E00",
"P. c #D80000",
"I. c #F10000",
"U. c #DD2600",
"Y. c #DE3D00",
"T. c #F72A00",
"R. c #FF3333",
"E. c #864500",
"W. c #824800",
"Q. c #924100",
"!. c #944700",
"~. c #975000",
"^. c #9D5100",
"/. c #905900",
"(. c #BA4500",
"). c #B14E00",
"_. c #BA4A00",
"`. c #A15300",
"'. c #C44100",
"]. c #C14800",
"[. c #C34900",
"{. c #D34D00",
"}. c #E64500",
"|. c #E54600",
" X c #FE4600",
".X c #F04D00",
"XX c #F64E00",
"oX c #FF5003",
"OX c #F55A00",
"+X c #CF6000",
"@X c #DE6B00",
"#X c #EE6200",
"$X c #E96500",
"%X c #FF640E",
"&X c #F27400",
"*X c #FF7818",
"=X c #FF5E2D",
"-X c #FF6521",
";X c #FF662D",
":X c #FF7D32",
">X c #FF3D40",
",X c #FF7A51",
"<X c #FF9013",
"1X c #FF8326",
"2X c #FF832D",
"3X c #FF892A",
"4X c #FF9024",
"5X c #FFBA3F",
"6X c #FF8145",
"7X c #FF8A46",
"8X c #FF8F47",
"9X c #FF9953",
"0X c #FFA240",
"qX c #FFB142",
"wX c #FFB94E",
"eX c #FFAB58",
"rX c #FFA166",
"tX c #FFBD60",
"yX c #FFBB78",
"uX c #FFC547",
"iX c #FFD161",
"pX c #FFD571",
"aX c #FFD673",
"sX c #48008E",
"dX c #7B0097",
"fX c #BF00AD",
"gX c #FF48CC",
"hX c #FFB182",
"jX c #FFA5A5",
"kX c #FFD9B3",
"lX c #FFF3E5",
"zX c #FFF7F7",
"xX c #FFFCFC",
"cX c #FFFFFF",
/* pixels */
"                                                                                                                                ",
"                                                                                                                                ",
"                                                                                                                                ",
"                                                O.O.+.O.$.Y                                                                     ",
"                                        t i b b M b +.f.A.oXA.Y                                                                 ",
"                              +.+.+.O.=.c.8 D ~ y.^ Q ( | D.6X8XY                                                               ",
"                    g a i i i i u k | ` A.oXa.} S._.y.^ ) L.XX6XkX'                                                             ",
"            1 k l k G w M b Z ~ R b n A.J.U.8Xi.s.{ F. X2X'.|.'.f.'                                                             ",
"          > t , Y =.' M.XX[ Q v.G.u.F V .X-X=X9X%X8X8XY.,.P %.`                                                                 ",
"        , y y : , | V.f.T.8Xt.[ t.h.H.Y.|.cX^.cXb.V e J J                                                                       ",
"        - y b M 9 3 V.XX,XrX;XY.8XeX9XY.i.;XV n.z < z X.C.#.                                                                    ",
"        y M y 7 : h ' 7XkXyX9X|.T.a.n w 4 < # - r ; r I 6.OX;.                                                                  ",
"      2 y : - $ , G 5.(.>Xl.8 4 4 $ & - ; : > > O O $ X . ).3X:.                                                                ",
"      2 4 , d U @.z j $ % < & & : . . . c iX$ C.c O . sXzX. W.3X!.                                                              ",
"      1 $.T J < & < J a - X . . . gX. cX9.e.. . e.. gXsXgXfX1.!.rX!.                                                            ",
"      , j # & r < i k.r o dXxX  . r.cXcXcX. 9.c Z Z P.Z . . 1.@XcXwXC.                                                          ",
"      7 1.%.%.z $ 7 6 ; -.C.$ r.X R.Q cXc K.c aXt.P.xXo ^.<X5X@X@XiXC.                                                          ",
"      2 j + X.C.a y k.jXv $ -.j.R.xXI.M N -.. c , ^.@XwX#XK.K.( J.wX8.                                                          ",
"      2 d @ o 0.|.$ $ sXO j.O Q ^ . . . Z Z 3.`.1X0XN.<.! / N W D.wX3.                                                          ",
"      2 V m @ + W.:X. . . tXY.zX(.=.$X+X%X[.Q.H.0XeXI M W z.g._ A.<X+.                                                          ",
"      2 T B m + + E.:X. Y.K.. 5.5.xX$.Y.} M E ~.uXpXE / p.x.Z._ m.$X+.                                                          ",
"      2 { 8 u u o # E.uXcX2XOX).U p xXA E ] E 8.4XqXW / p.p.z.W c.+Xo.                                                          ",
"      2 <.8 w.& 7 o z 1Xd.m.{.`.4 s }.W p.z.F 6.&X&XC E W [ Z.F ,.].P                                                           ",
"      2 o.w k *X/.8 : XX .,.{.`.4 f lXW g.Z.F *.XX&XN A F D g.S =.M.K                                                           ",
"      = >.q : l o.q 6 +Xh o.(.`.5 X.(.E s.h.N &.(.}.A D S A D E =.c.k                                                           ",
"        @ 4.7 : 5 s : ).h o.L.q.: &.hXy } g.N o.L.J.A M N F. X7X'.H 2                                                           ",
"          + -.s B n 4 ).0 L L.2., 4X8.Z Q ] S  .B.D.%.F. X7X'.7.-.                                                              ",
"            o 4.n m : ^.0 K m.%.; (.*.F Z Z C  .M.D.F. X7.7.                                                                    ",
"              @ -.n 8 Q.0 x V. .8 tXn N S 7.F. .M.M.0...                                                                        ",
"                * 2.6 8.m k ,.L 5 (.H F. XF.7.q.6.                                                                              ",
"                  @ @.<.p k ' L 5 tX7.7.a.a.                                                                                    ",
"                    o 6.s  .' L 8 7.tX0.                                                                                        ",
"                      - 0 k 6.%. .  0.                                                                                          ",
"                        6.%. .                                                                                                  ",
"                                                                                                                                ",
"                                                                                                                                ",
"                                                                                                                                ",
"                                                                                                                                ",
"                                                                                                                                ",
"                                                                                                                                ",
"                                                                                                                                ",
"                                                                                                                                ",
"                                                                                                                                ",
"                                                                                                                                ",
"                                                                                                                                ",
"                                                                                                                                ",
"                                                                                                                                ",
"                                                                                                                                ",
"                                                                                                                                ",
"                                                                                                                                ",
"                                                                                                                                ",
"                                                                                                                                ",
"                                                                                                                                ",
"                                                                                                                                ",
"                                                                                                                                ",
"                                                                                                                                ",
"                                                                                                                                ",
"                                                                                                                                ",
"                                                                                                                                ",
"                                                                                                                                ",
"                                                                                                                                ",
"                                                                                                                                ",
"                                                                                                                                ",
"                                                                                                                                "
};
