/* XPM */
static char *chest_6[] = {
/* columns rows colors chars-per-pixel */
"64 64 236 2 ",
"   c #000000",
".  c black",
"X  c #010000",
"o  c #060000",
"O  c #070000",
"+  c #080000",
"@  c #0A0100",
"#  c #080200",
"$  c #0B0200",
"%  c #0F0400",
"&  c #030B00",
"*  c #0C000C",
"=  c #150200",
"-  c #170600",
";  c #1A0100",
":  c #130900",
">  c #180800",
",  c #190B00",
"<  c #1F0A00",
"1  c #1A0F00",
"2  c #191000",
"3  c #200000",
"4  c #220000",
"5  c #210200",
"6  c #260100",
"7  c #2C0100",
"8  c #2E0200",
"9  c #2E0400",
"0  c #2D0007",
"q  c #2F0006",
"w  c #200800",
"e  c #270A00",
"r  c #280A00",
"t  c #330100",
"y  c #330001",
"u  c #350100",
"i  c #340500",
"p  c #390100",
"a  c #3B0002",
"s  c #370900",
"d  c #201300",
"f  c #281200",
"g  c #2E1600",
"h  c #3B1500",
"j  c #321900",
"k  c #371800",
"l  c #3C1A00",
"z  c #0B3E00",
"x  c #430000",
"c  c #430002",
"v  c #450000",
"b  c #490000",
"n  c #4E0300",
"m  c #4D0003",
"M  c #4E0B00",
"N  c #500000",
"B  c None",
"V  c #540300",
"C  c #5A0100",
"Z  c #5B0400",
"A  c #5D0400",
"S  c #491400",
"D  c #4B1600",
"F  c #411900",
"G  c #421A00",
"H  c #451A00",
"J  c #471B00",
"K  c #4E1B00",
"L  c #551200",
"P  c #541500",
"I  c #591600",
"U  c #660400",
"Y  c #600900",
"T  c #600D00",
"R  c #6E0800",
"E  c #680E00",
"W  c #700000",
"Q  c #7F0000",
"!  c #710D00",
"~  c #691000",
"^  c #6A1100",
"/  c #681500",
"(  c #681B00",
")  c #6A1C00",
"_  c #761300",
"`  c #781000",
"'  c #781600",
"]  c #7D1700",
"[  c #711900",
"{  c #412300",
"}  c #432300",
"|  c #4C2400",
" . c #4F2500",
".. c #422C00",
"X. c #532000",
"o. c #502400",
"O. c #522400",
"+. c #582100",
"@. c #502900",
"#. c #582900",
"$. c #5A3000",
"%. c #632000",
"&. c #682700",
"*. c #622D00",
"=. c #632E00",
"-. c #642D00",
";. c #712400",
":. c #702900",
">. c #613000",
",. c #643200",
"<. c #6A3000",
"1. c #6C3100",
"2. c #6E3100",
"3. c #6D3800",
"4. c #733C00",
"5. c #7E3800",
"6. c #154A00",
"7. c #794000",
"8. c #7E4200",
"9. c #715300",
"0. c #697400",
"q. c #820E00",
"w. c #9A0000",
"e. c #900C00",
"r. c #980D00",
"t. c #821100",
"y. c #831300",
"u. c #871400",
"i. c #851900",
"p. c #8A1E00",
"a. c #911800",
"s. c #951F00",
"d. c #BE0000",
"f. c #B8000C",
"g. c #A31E00",
"h. c #A41C00",
"j. c #802200",
"k. c #8C2000",
"l. c #882B00",
"z. c #922700",
"x. c #972700",
"c. c #9B2700",
"v. c #922800",
"b. c #972E00",
"n. c #9C2800",
"m. c #813000",
"M. c #863700",
"N. c #9B3000",
"B. c #A22200",
"V. c #A52300",
"C. c #AD2E00",
"Z. c #AE2F00",
"A. c #B72400",
"S. c #BD2300",
"D. c #B02800",
"F. c #BD2A00",
"G. c #BF2F00",
"H. c #AB3500",
"J. c #AD3E00",
"K. c #D80000",
"L. c #F10000",
"P. c #DD2600",
"I. c #DE3D00",
"U. c #F72A00",
"Y. c #EE3700",
"T. c #FF3333",
"R. c #874300",
"E. c #864500",
"W. c #824800",
"Q. c #924100",
"!. c #944700",
"~. c #975000",
"^. c #9D5100",
"/. c #905900",
"(. c #BA4500",
"). c #B14E00",
"_. c #BA4A00",
"`. c #A15300",
"'. c #C44100",
"]. c #C14800",
"[. c #C34900",
"{. c #D34600",
"}. c #D34D00",
"|. c #E64500",
" X c #E54600",
".X c #FE4600",
"XX c #F04D00",
"oX c #F64E00",
"OX c #FF5003",
"+X c #F55A00",
"@X c #CF6000",
"#X c #DE6B00",
"$X c #EE6200",
"%X c #E96500",
"&X c #FF640E",
"*X c #F27400",
"=X c #FF7818",
"-X c #FF5E2D",
";X c #FF6521",
":X c #FF662D",
">X c #FF7D32",
",X c #FF3D40",
"<X c #FF7A51",
"1X c #FF9013",
"2X c #FF8326",
"3X c #FF832D",
"4X c #FF892A",
"5X c #FF9024",
"6X c #FFBA3F",
"7X c #FF8145",
"8X c #FF8A46",
"9X c #FF8F47",
"0X c #FF844F",
"qX c #FF9953",
"wX c #FFA240",
"eX c #FFB142",
"rX c #FFB94E",
"tX c #FFAB58",
"yX c #FFA166",
"uX c #FFBD60",
"iX c #FFBB78",
"pX c #FFC547",
"aX c #FFD161",
"sX c #FFD571",
"dX c #FFD673",
"fX c #48008E",
"gX c #BF00AD",
"hX c #FF48CC",
"jX c #FFB182",
"kX c #FFA5A5",
"lX c #FFC3A7",
"zX c #FFD9B3",
"xX c #FFF3E5",
"cX c #FFF7F7",
"vX c #FFFCFC",
"bX c white",
/* pixels */
"                                                                                                                                ",
"                                                                                                                                ",
"                                                                                                                                ",
"                                                ....X...+.P                                                                     ",
"                                        r u x x b x X.p.V.OXV.P                                                                 ",
"                              X.X.X...%.j.7 Z W w.Q R ~ [ Z.7X9XP                                                               ",
"                    d p u u u u y h [ ( V.OXy.] C._.w.Q ^ J.oX7XzX)                                                             ",
"            < h j h S q b x B W U x c V.G.P.9Xr.u.' A..X3X'. X'.p.)                                                             ",
"          : r > P %.) v.oX` R k.D.e.A M XX;X-XqX&X9X9XI.;.J @.(                                                                 ",
"        > t t ; > [ m.p.U.9Xq.` q.s.F.I. XbX^.bXz.M w F F                                                                       ",
"        = t x b 8 2 m.oX<XyX:XI.9XtXqXI.r.:XM x.k , k | M.O.                                                                    ",
"        t b t 6 ; f ) 8XzXiXqX XU.y.c q 3 , # = e - e K 3.+X*.                                                                  ",
"      1 t ; = $ > S 2.(.,Xf.7 3 3 $ % = - ; : : O O $ X . ).4X=.                                                                ",
"      1 3 > s L o.k g $ R., % % ; . . . z aX$ M.z O . fXcX. W.4X!.                                                              ",
"      < +.I F , % , F p Y.N.. . . hX. z 6.0.. . 0.. hXfXhXgX>.!.yX!.                                                            ",
"      > g # % e , u d.e N.jXcX  l.{.R.dX. . 6.z B B K.B . . >.#XbXrXM.                                                          ",
"      6 >.@.@.k $ 6 5 - &.vXbXbX0Xl.R z z H.z dXq.K.vXo ^.1X6X#X#XaXM.                                                          ",
"      1 g + | M.p t d.kXl.bXbXbXT.vXL.b n &.. z > ^.#XrX$XH.H.~ G.rX5.                                                          ",
"      1 s @ o 7. X$ $ Y.lXbXbXbXQ . . . B B <.`.2XwXb.:.E ! n T Z.rX<.                                                          ",
"      1 M v @ + W.>X{.0XS.uXI.jXS.%.#X@X&X[.Q.F.wXtXK b T g.a./ V.1XX.                                                          ",
"      1 I m v + + R.l..  XH.. S.Y.vX+.I.] b Y ~.pXsXY ! t.h.B./ c.%XX.                                                          ",
"      1 ' 7 y y o @ E.pXbX3X+X).{.i vXV Y _ Y 5.5XeXT ! t.t.g.T j.@X .                                                          ",
"      1 :.7 9.% 6 o k 2Xi.c.}./.4 R.|.T t.g.A 3.*X*XN Y T ` B.A ;.].J                                                           ",
"      1  .q h =X/.7 ; oX{ ;.}.`.3 c xXT a.B.A $.oX*Xn V A Z a.C %.v.G                                                           ",
"      * -.0 ; j  .0 5 @Xf  .(.`.4 o.(.Y u.s.n #.(.|.V Z C V Z Y %.j.h                                                           ",
"        @ 1.6 ; 4 a ; ).f  .J.8.; #.jXt ] a.n  .J.G.V b n A..X8X'.D 1                                                           ",
"          + &.a m c 3 ).9 H J.,.> 5X5.B R _ C { n.Z.@.A..X8X'.4.&.                                                              ",
"            o 1.c v ; ^.9 G c.@.- (.$.A B B N { v.Z.A..X4.4.                                                                    ",
"              @ &.c 7 Q.9 l m.{ 7 uXc n C 4.A.{ v.v.7.}                                                                         ",
"                & ,.5 5.v h ;.H 4 (.D A..XA.4.8.3.                                                                              ",
"                  @ o.:.i h ) H 4 uX4.4.y.y.                                                                                    ",
"                    o 3.a { ) H 7 4.uX7.                                                                                        ",
"                      = 9 h 3.@.{   7.                                                                                          ",
"                        3.@.{                                                                                                   ",
"                                                                                                                                ",
"                                                                                                                                ",
"                                                                                                                                ",
"                                                                                                                                ",
"                                                                                                                                ",
"                                                                                                                                ",
"                                                                                                                                ",
"                                                                                                                                ",
"                                                                                                                                ",
"                                                                                                                                ",
"                                                                                                                                ",
"                                                                                                                                ",
"                                                                                                                                ",
"                                                                                                                                ",
"                                                                                                                                ",
"                                                                                                                                ",
"                                                                                                                                ",
"                                                                                                                                ",
"                                                                                                                                ",
"                                                                                                                                ",
"                                                                                                                                ",
"                                                                                                                                ",
"                                                                                                                                ",
"                                                                                                                                ",
"                                                                                                                                ",
"                                                                                                                                ",
"                                                                                                                                ",
"                                                                                                                                ",
"                                                                                                                                ",
"                                                                                                                                "
};
