/* XPM */
static char *result[] = {
/* columns rows colors chars-per-pixel */
"64 64 234 2 ",
"   c black",
".  c #010000",
"X  c #060000",
"o  c #070000",
"O  c #080000",
"+  c #0A0100",
"@  c #080200",
"#  c #0B0200",
"$  c #0F0100",
"%  c #0F0400",
"&  c #030B00",
"*  c #0C000C",
"=  c #150200",
"-  c #170600",
";  c #1A0100",
":  c #130900",
">  c #180800",
",  c #190B00",
"<  c #1F0A00",
"1  c #1A0F00",
"2  c #191000",
"3  c #200000",
"4  c #220000",
"5  c #210200",
"6  c #260100",
"7  c #2C0100",
"8  c #2E0200",
"9  c #2E0400",
"0  c #2D0007",
"q  c #2F0006",
"w  c #200800",
"e  c #270A00",
"r  c #280A00",
"t  c #330100",
"y  c #330001",
"u  c #350100",
"i  c #340500",
"p  c #390100",
"a  c #3B0002",
"s  c #370900",
"d  c #360F00",
"f  c #201300",
"g  c #281200",
"h  c #2E1600",
"j  c #3B1500",
"k  c #321900",
"l  c #371800",
"z  c #3C1A00",
"x  c #0B3E00",
"c  c #0D0036",
"v  c #430000",
"b  c #430002",
"n  c #450000",
"m  c #490000",
"M  c #4E0300",
"N  c #4D0003",
"B  c #4E0B00",
"V  c #500000",
"C  c #570000",
"Z  c #540300",
"A  c #5A0100",
"S  c #5B0400",
"D  c #5D0400",
"F  c #491400",
"G  c #4B1600",
"H  c #411900",
"J  c #421A00",
"K  c #451A00",
"L  c #471B00",
"P  c #4E1B00",
"I  c #551200",
"U  c #541500",
"Y  c #591600",
"T  c #660400",
"R  c #600900",
"E  c #600D00",
"W  c #6E0800",
"Q  c #680E00",
"!  c #700000",
"~  c #7F0000",
"^  c #710D00",
"/  c #691000",
"(  c #6A1100",
")  c #681500",
"_  c #681B00",
"`  c #6A1C00",
"'  c #761300",
"]  c #781000",
"[  c #781600",
"{  c #7D1700",
"}  c #711900",
"|  c #412300",
" . c #432300",
".. c #4C2400",
"X. c #4F2500",
"o. c #422C00",
"O. c #532000",
"+. c #502400",
"@. c #522400",
"#. c #582100",
"$. c #502900",
"%. c #582900",
"&. c #5A3000",
"*. c #632000",
"=. c #682700",
"-. c #622D00",
";. c #632E00",
":. c #642D00",
">. c #712400",
",. c #702900",
"<. c #613000",
"1. c #643200",
"2. c #6A3000",
"3. c #6C3100",
"4. c #6E3100",
"5. c #6D3800",
"6. c #733C00",
"7. c #7E3800",
"8. c #154A00",
"9. c #794000",
"0. c #7E4200",
"q. c #715300",
"w. c #697400",
"e. c #3B0072",
"r. c #820E00",
"t. c #9A0000",
"y. c #900C00",
"u. c #980D00",
"i. c #821100",
"p. c #831300",
"a. c #871400",
"s. c #851900",
"d. c #8A1E00",
"f. c #911800",
"g. c #951F00",
"h. c #A80000",
"j. c #BE0000",
"k. c #B8000C",
"l. c #A31E00",
"z. c #A41C00",
"x. c #802200",
"c. c #8C2000",
"v. c #922700",
"b. c #972700",
"n. c #9B2700",
"m. c #922800",
"M. c #972E00",
"N. c #9C2800",
"B. c #813000",
"V. c #863700",
"C. c #A22200",
"Z. c #A52300",
"A. c #AD2E00",
"S. c #AE2F00",
"D. c #B72400",
"F. c #B02800",
"G. c #BD2A00",
"H. c #BF2F00",
"J. c #AB3500",
"K. c #AD3E00",
"L. c #D80000",
"P. c #F10000",
"I. c #DD2600",
"U. c #DE3D00",
"Y. c #F72A00",
"T. c #FF3333",
"R. c #864500",
"E. c #824800",
"W. c #924100",
"Q. c #944700",
"!. c #975000",
"~. c #9D5100",
"^. c #905900",
"/. c #BA4500",
"(. c #B14E00",
"). c #BA4A00",
"_. c #A15300",
"`. c #C44100",
"'. c #C14800",
"]. c #C34900",
"[. c #D34D00",
"{. c #E64500",
"}. c #E54600",
"|. c #FE4600",
" X c #F04D00",
".X c #F64E00",
"XX c #FF5003",
"oX c #F55A00",
"OX c #CF6000",
"+X c #DE6B00",
"@X c #EE6200",
"#X c #E96500",
"$X c #FF640E",
"%X c #F27400",
"&X c #FF7818",
"*X c #FF5E2D",
"=X c #FF6521",
"-X c #FF662D",
";X c #FF7D32",
":X c #FF3D40",
">X c #FF7A51",
",X c #FF9013",
"<X c #FF8326",
"1X c #FF832D",
"2X c #FF892A",
"3X c #FF9024",
"4X c #FFBA3F",
"5X c #FF8145",
"6X c #FF8A46",
"7X c #FF8F47",
"8X c #FF9953",
"9X c #FFA240",
"0X c #FFB142",
"qX c #FFB94E",
"wX c #FFAB58",
"eX c #FFA166",
"rX c #FFBD60",
"tX c #FFBB78",
"yX c #FFC547",
"uX c #FFD161",
"iX c #FFD571",
"pX c #FFD673",
"aX c #48008E",
"sX c #7B0097",
"dX c #BF00AD",
"fX c #FF48CC",
"gX c #FFB182",
"hX c #FFA5A5",
"jX c #FFD9B3",
"kX c #FFF3E5",
"lX c #FFF7F7",
"zX c #FFFCFC",
"xX c white",
"cX c None",
/* pixels */
"cXcXcXcXcXcXcXcXcXcXcXcXcXcXcXcXcXcXcXcXcXcXcXcXcXcXcXcXcXcXcXcXcXcXcXcXcXcXcXcXcXcXcXcXcXcXcXcXcXcXcXcXcXcXcXcXcXcXcXcXcXcXcXcX",
"cXcXcXcXcXcXcXcXcXcXcXcXcXcXcXcXcXcXcXcXcXcXcXcXcXcXcXcXcXcXcXcXcXcXcXcXcXcXcXcXcXcXcXcXcXcXcXcXcXcXcXcXcXcXcXcXcXcXcXcXcXcXcXcX",
"cXcXcXcXcXcXcXcXcXcXcXcXcXcXcXcXcXcXcXcXcXcXcXcXcXcXcXcXcXcXcXcXcXcXcXcXcXcXcXcXcXcXcXcXcXcXcXcXcXcXcXcXcXcXcXcXcXcXcXcXcXcXcXcX",
"cXcXcXcXcXcXcXcXcXcXcXcXcXcXcXcXcXcXcXcXcXcXcXcXo.o.O.o.#.U cXcXcXcXcXcXcXcXcXcXcXcXcXcXcXcXcXcXcXcXcXcXcXcXcXcXcXcXcXcXcXcXcXcX",
"cXcXcXcXcXcXcXcXcXcXcXcXcXcXcXcXcXcXcXcXr u v v m v O.d.Z.XXZ.U cXcXcXcXcXcXcXcXcXcXcXcXcXcXcXcXcXcXcXcXcXcXcXcXcXcXcXcXcXcXcXcX",
"cXcXcXcXcXcXcXcXcXcXcXcXcXcXcXO.O.O.o.*.x.7 S ! t.~ W / } S.5X7XU cXcXcXcXcXcXcXcXcXcXcXcXcXcXcXcXcXcXcXcXcXcXcXcXcXcXcXcXcXcXcX",
"cXcXcXcXcXcXcXcXcXcXf p u u u u y j } _ Z.XXp.{ A.).t.~ ( K..X5XjX` cXcXcXcXcXcXcXcXcXcXcXcXcXcXcXcXcXcXcXcXcXcXcXcXcXcXcXcXcXcX",
"cXcXcXcXcXcX< j k j F q m v C ! T v b Z.H.I.7Xu.a.[ D.|.1X`.}.`.d.` cXcXcXcXcXcXcXcXcXcXcXcXcXcXcXcXcXcXcXcXcXcXcXcXcXcXcXcXcXcX",
"cXcXcXcXcX: r > U *.` m..X] W c.F.y.D B  X=X*X8X$X7X7XU.>.L $._ cXcXcXcXcXcXcXcXcXcXcXcXcXcXcXcXcXcXcXcXcXcXcXcXcXcXcXcXcXcXcXcX",
"cXcXcXcX> t t ; > } B.d.Y.7Xr.] r.g.G.U.}.xX~.xXv.B w H H cXcXcXcXcXcXcXcXcXcXcXcXcXcXcXcXcXcXcXcXcXcXcXcXcXcXcXcXcXcXcXcXcXcXcX",
"cXcXcXcX= t v m 8 2 B..X>XeX-XU.7XwX8XU.u.-XB b.l , l ..V.@.cXcXcXcXcXcXcXcXcXcXcXcXcXcXcXcXcXcXcXcXcXcXcXcXcXcXcXcXcXcXcXcXcXcX",
"cXcXcXcXt m t 6 ; g ` 6XjXtX8X}.Y.p.b q 3 , @ = xX- e P 5.oX-.cXcXcXcXcXcXcXcXcXcXcXcXcXcXcXcXcXcXcXcXcXcXcXcXcXcXcXcXcXcXcXcXcX",
"cXcXcX1 t ; = # > F 4./.:Xk.7 3 3 # % = - ; : xXxXxX# .   (.2X;.cXcXcXcXcXcXcXcXcXcXcXcXcXcXcXcXcXcXcXcXcXcXcXcXcXcXcXcXcXcXcXcX",
"cXcXcX1 3 > s I +.l h # $ , % % ;       x uX# V.xXo   aXlX  E.2XQ.cXcXcXcXcXcXcXcXcXcXcXcXcXcXcXcXcXcXcXcXcXcXcXcXcXcXcXcXcXcXcX",
"cXcXcX< #.Y H , % , H p = .       fX  x 8.w.    w.  fXaXfXdX<.Q.eXQ.cXcXcXcXcXcXcXcXcXcXcXcXcXcXcXcXcXcXcXcXcXcXcXcXcXcXcXcXcXcX",
"cXcXcX> h @ % e , u j.e X sXzXcX  e.  pX    8.x C C L.C     <.+XxXqXV.cXcXcXcXcXcXcXcXcXcXcXcXcXcXcXcXcXcXcXcXcXcXcXcXcXcXcXcXcX",
"cXcXcX6 <.$.$.l # 6 5 - =.V.# e.. T.W x x J.x pXr.L.zXX ~.,X4X+X+XuXV.cXcXcXcXcXcXcXcXcXcXcXcXcXcXcXcXcXcXcXcXcXcXcXcXcXcXcXcXcX",
"cXcXcX1 h O ..V.p t j.hXc # =.h.T.zXP.m M =.  x > ~.+XqX@XJ.J./ H.qX7.cXcXcXcXcXcXcXcXcXcXcXcXcXcXcXcXcXcXcXcXcXcXcXcXcXcXcXcXcX",
"cXcXcX1 s + X 9.}.# # aXo h.o W ~       C C 2._.<X9XM.,.Q ^ M E S.qX2.cXcXcXcXcXcXcXcXcXcXcXcXcXcXcXcXcXcXcXcXcXcXcXcXcXcXcXcXcX",
"cXcXcX1 B n + O E.;X      rXU.lX/.*.#XOX$X].W.G.9XwXP m E l.f.) Z.,XO.cXcXcXcXcXcXcXcXcXcXcXcXcXcXcXcXcXcXcXcXcXcXcXcXcXcXcXcXcX",
"cXcXcX1 Y N n O O R.;X  U.J.  4.4.zX#.U.{ m R !.yXiXR ^ i.z.C.) n.#XO.cXcXcXcXcXcXcXcXcXcXcXcXcXcXcXcXcXcXcXcXcXcXcXcXcXcXcXcXcX",
"cXcXcX1 [ 7 y y X @ R.yXxX1XoX(.I i zXZ R ' R 7.3X0XE ^ i.i.l.E x.OXX.cXcXcXcXcXcXcXcXcXcXcXcXcXcXcXcXcXcXcXcXcXcXcXcXcXcXcXcXcX",
"cXcXcX1 ,.7 q.% 6 X l <Xs.n.[._.3 a {.E i.l.D 5.%X%XV R E ] C.D >.'.L cXcXcXcXcXcXcXcXcXcXcXcXcXcXcXcXcXcXcXcXcXcXcXcXcXcXcXcXcX",
"cXcXcX1 X.q j &X^.7 ; .X| >.[._.3 d kXE f.C.D &..X%XM Z D S f.A *.m.J cXcXcXcXcXcXcXcXcXcXcXcXcXcXcXcXcXcXcXcXcXcXcXcXcXcXcXcXcX",
"cXcXcX* :.0 ; k X.0 5 OXg X./._.4 ../.R a.g.M %./.{.Z S A Z S R *.x.j cXcXcXcXcXcXcXcXcXcXcXcXcXcXcXcXcXcXcXcXcXcXcXcXcXcXcXcXcX",
"cXcXcXcX+ 3.6 ; 4 a ; (.g X.K.0.; %.gXt { f.M X.K.H.Z m M D.|.6X`.G 1 cXcXcXcXcXcXcXcXcXcXcXcXcXcXcXcXcXcXcXcXcXcXcXcXcXcXcXcXcX",
"cXcXcXcXcXO =.a N b 3 (.9 K K.1.> 3X7.C W ' A | N.S.$.D.|.6X`.6.=.cXcXcXcXcXcXcXcXcXcXcXcXcXcXcXcXcXcXcXcXcXcXcXcXcXcXcXcXcXcXcX",
"cXcXcXcXcXcXX 3.b n ; ~.9 J n.$.- /.&.D C C V | m.S.D.|.6.6.cXcXcXcXcXcXcXcXcXcXcXcXcXcXcXcXcXcXcXcXcXcXcXcXcXcXcXcXcXcXcXcXcXcX",
"cXcXcXcXcXcXcX+ =.b 7 W.9 z B.| 7 rXb M A 6.D.| m.m.9. .cXcXcXcXcXcXcXcXcXcXcXcXcXcXcXcXcXcXcXcXcXcXcXcXcXcXcXcXcXcXcXcXcXcXcXcX",
"cXcXcXcXcXcXcXcX& 1.5 7.n j >.K 4 /.G D.|.D.6.0.5.cXcXcXcXcXcXcXcXcXcXcXcXcXcXcXcXcXcXcXcXcXcXcXcXcXcXcXcXcXcXcXcXcXcXcXcXcXcXcX",
"cXcXcXcXcXcXcXcXcX+ +.,.i j ` K 4 rX6.6.p.p.cXcXcXcXcXcXcXcXcXcXcXcXcXcXcXcXcXcXcXcXcXcXcXcXcXcXcXcXcXcXcXcXcXcXcXcXcXcXcXcXcXcX",
"cXcXcXcXcXcXcXcXcXcXX 5.a | ` K 7 6.rX9.cXcXcXcXcXcXcXcXcXcXcXcXcXcXcXcXcXcXcXcXcXcXcXcXcXcXcXcXcXcXcXcXcXcXcXcXcXcXcXcXcXcXcXcX",
"cXcXcXcXcXcXcXcXcXcXcX= 9 j 5.$.| cX9.cXcXcXcXcXcXcXcXcXcXcXcXcXcXcXcXcXcXcXcXcXcXcXcXcXcXcXcXcXcXcXcXcXcXcXcXcXcXcXcXcXcXcXcXcX",
"cXcXcXcXcXcXcXcXcXcXcXcX5.$.| cXcXcXcXcXcXcXcXcXcXcXcXcXcXcXcXcXcXcXcXcXcXcXcXcXcXcXcXcXcXcXcXcXcXcXcXcXcXcXcXcXcXcXcXcXcXcXcXcX",
"cXcXcXcXcXcXcXcXcXcXcXcXcXcXcXcXcXcXcXcXcXcXcXcXcXcXcXcXcXcXcXcXcXcXcXcXcXcXcXcXcXcXcXcXcXcXcXcXcXcXcXcXcXcXcXcXcXcXcXcXcXcXcXcX",
"cXcXcXcXcXcXcXcXcXcXcXcXcXcXcXcXcXcXcXcXcXcXcXcXcXcXcXcXcXcXcXcXcXcXcXcXcXcXcXcXcXcXcXcXcXcXcXcXcXcXcXcXcXcXcXcXcXcXcXcXcXcXcXcX",
"cXcXcXcXcXcXcXcXcXcXcXcXcXcXcXcXcXcXcXcXcXcXcXcXcXcXcXcXcXcXcXcXcXcXcXcXcXcXcXcXcXcXcXcXcXcXcXcXcXcXcXcXcXcXcXcXcXcXcXcXcXcXcXcX",
"cXcXcXcXcXcXcXcXcXcXcXcXcXcXcXcXcXcXcXcXcXcXcXcXcXcXcXcXcXcXcXcXcXcXcXcXcXcXcXcXcXcXcXcXcXcXcXcXcXcXcXcXcXcXcXcXcXcXcXcXcXcXcXcX",
"cXcXcXcXcXcXcXcXcXcXcXcXcXcXcXcXcXcXcXcXcXcXcXcXcXcXcXcXcXcXcXcXcXcXcXcXcXcXcXcXcXcXcXcXcXcXcXcXcXcXcXcXcXcXcXcXcXcXcXcXcXcXcXcX",
"cXcXcXcXcXcXcXcXcXcXcXcXcXcXcXcXcXcXcXcXcXcXcXcXcXcXcXcXcXcXcXcXcXcXcXcXcXcXcXcXcXcXcXcXcXcXcXcXcXcXcXcXcXcXcXcXcXcXcXcXcXcXcXcX",
"cXcXcXcXcXcXcXcXcXcXcXcXcXcXcXcXcXcXcXcXcXcXcXcXcXcXcXcXcXcXcXcXcXcXcXcXcXcXcXcXcXcXcXcXcXcXcXcXcXcXcXcXcXcXcXcXcXcXcXcXcXcXcXcX",
"cXcXcXcXcXcXcXcXcXcXcXcXcXcXcXcXcXcXcXcXcXcXcXcXcXcXcXcXcXcXcXcXcXcXcXcXcXcXcXcXcXcXcXcXcXcXcXcXcXcXcXcXcXcXcXcXcXcXcXcXcXcXcXcX",
"cXcXcXcXcXcXcXcXcXcXcXcXcXcXcXcXcXcXcXcXcXcXcXcXcXcXcXcXcXcXcXcXcXcXcXcXcXcXcXcXcXcXcXcXcXcXcXcXcXcXcXcXcXcXcXcXcXcXcXcXcXcXcXcX",
"cXcXcXcXcXcXcXcXcXcXcXcXcXcXcXcXcXcXcXcXcXcXcXcXcXcXcXcXcXcXcXcXcXcXcXcXcXcXcXcXcXcXcXcXcXcXcXcXcXcXcXcXcXcXcXcXcXcXcXcXcXcXcXcX",
"cXcXcXcXcXcXcXcXcXcXcXcXcXcXcXcXcXcXcXcXcXcXcXcXcXcXcXcXcXcXcXcXcXcXcXcXcXcXcXcXcXcXcXcXcXcXcXcXcXcXcXcXcXcXcXcXcXcXcXcXcXcXcXcX",
"cXcXcXcXcXcXcXcXcXcXcXcXcXcXcXcXcXcXcXcXcXcXcXcXcXcXcXcXcXcXcXcXcXcXcXcXcXcXcXcXcXcXcXcXcXcXcXcXcXcXcXcXcXcXcXcXcXcXcXcXcXcXcXcX",
"cXcXcXcXcXcXcXcXcXcXcXcXcXcXcXcXcXcXcXcXcXcXcXcXcXcXcXcXcXcXcXcXcXcXcXcXcXcXcXcXcXcXcXcXcXcXcXcXcXcXcXcXcXcXcXcXcXcXcXcXcXcXcXcX",
"cXcXcXcXcXcXcXcXcXcXcXcXcXcXcXcXcXcXcXcXcXcXcXcXcXcXcXcXcXcXcXcXcXcXcXcXcXcXcXcXcXcXcXcXcXcXcXcXcXcXcXcXcXcXcXcXcXcXcXcXcXcXcXcX",
"cXcXcXcXcXcXcXcXcXcXcXcXcXcXcXcXcXcXcXcXcXcXcXcXcXcXcXcXcXcXcXcXcXcXcXcXcXcXcXcXcXcXcXcXcXcXcXcXcXcXcXcXcXcXcXcXcXcXcXcXcXcXcXcX",
"cXcXcXcXcXcXcXcXcXcXcXcXcXcXcXcXcXcXcXcXcXcXcXcXcXcXcXcXcXcXcXcXcXcXcXcXcXcXcXcXcXcXcXcXcXcXcXcXcXcXcXcXcXcXcXcXcXcXcXcXcXcXcXcX",
"cXcXcXcXcXcXcXcXcXcXcXcXcXcXcXcXcXcXcXcXcXcXcXcXcXcXcXcXcXcXcXcXcXcXcXcXcXcXcXcXcXcXcXcXcXcXcXcXcXcXcXcXcXcXcXcXcXcXcXcXcXcXcXcX",
"cXcXcXcXcXcXcXcXcXcXcXcXcXcXcXcXcXcXcXcXcXcXcXcXcXcXcXcXcXcXcXcXcXcXcXcXcXcXcXcXcXcXcXcXcXcXcXcXcXcXcXcXcXcXcXcXcXcXcXcXcXcXcXcX",
"cXcXcXcXcXcXcXcXcXcXcXcXcXcXcXcXcXcXcXcXcXcXcXcXcXcXcXcXcXcXcXcXcXcXcXcXcXcXcXcXcXcXcXcXcXcXcXcXcXcXcXcXcXcXcXcXcXcXcXcXcXcXcXcX",
"cXcXcXcXcXcXcXcXcXcXcXcXcXcXcXcXcXcXcXcXcXcXcXcXcXcXcXcXcXcXcXcXcXcXcXcXcXcXcXcXcXcXcXcXcXcXcXcXcXcXcXcXcXcXcXcXcXcXcXcXcXcXcXcX",
"cXcXcXcXcXcXcXcXcXcXcXcXcXcXcXcXcXcXcXcXcXcXcXcXcXcXcXcXcXcXcXcXcXcXcXcXcXcXcXcXcXcXcXcXcXcXcXcXcXcXcXcXcXcXcXcXcXcXcXcXcXcXcXcX",
"cXcXcXcXcXcXcXcXcXcXcXcXcXcXcXcXcXcXcXcXcXcXcXcXcXcXcXcXcXcXcXcXcXcXcXcXcXcXcXcXcXcXcXcXcXcXcXcXcXcXcXcXcXcXcXcXcXcXcXcXcXcXcXcX",
"cXcXcXcXcXcXcXcXcXcXcXcXcXcXcXcXcXcXcXcXcXcXcXcXcXcXcXcXcXcXcXcXcXcXcXcXcXcXcXcXcXcXcXcXcXcXcXcXcXcXcXcXcXcXcXcXcXcXcXcXcXcXcXcX",
"cXcXcXcXcXcXcXcXcXcXcXcXcXcXcXcXcXcXcXcXcXcXcXcXcXcXcXcXcXcXcXcXcXcXcXcXcXcXcXcXcXcXcXcXcXcXcXcXcXcXcXcXcXcXcXcXcXcXcXcXcXcXcXcX",
"cXcXcXcXcXcXcXcXcXcXcXcXcXcXcXcXcXcXcXcXcXcXcXcXcXcXcXcXcXcXcXcXcXcXcXcXcXcXcXcXcXcXcXcXcXcXcXcXcXcXcXcXcXcXcXcXcXcXcXcXcXcXcXcX",
"cXcXcXcXcXcXcXcXcXcXcXcXcXcXcXcXcXcXcXcXcXcXcXcXcXcXcXcXcXcXcXcXcXcXcXcXcXcXcXcXcXcXcXcXcXcXcXcXcXcXcXcXcXcXcXcXcXcXcXcXcXcXcXcX",
"cXcXcXcXcXcXcXcXcXcXcXcXcXcXcXcXcXcXcXcXcXcXcXcXcXcXcXcXcXcXcXcXcXcXcXcXcXcXcXcXcXcXcXcXcXcXcXcXcXcXcXcXcXcXcXcXcXcXcXcXcXcXcXcX",
"cXcXcXcXcXcXcXcXcXcXcXcXcXcXcXcXcXcXcXcXcXcXcXcXcXcXcXcXcXcXcXcXcXcXcXcXcXcXcXcXcXcXcXcXcXcXcXcXcXcXcXcXcXcXcXcXcXcXcXcXcXcXcXcX",
"cXcXcXcXcXcXcXcXcXcXcXcXcXcXcXcXcXcXcXcXcXcXcXcXcXcXcXcXcXcXcXcXcXcXcXcXcXcXcXcXcXcXcXcXcXcXcXcXcXcXcXcXcXcXcXcXcXcXcXcXcXcXcXcX",
"cXcXcXcXcXcXcXcXcXcXcXcXcXcXcXcXcXcXcXcXcXcXcXcXcXcXcXcXcXcXcXcXcXcXcXcXcXcXcXcXcXcXcXcXcXcXcXcXcXcXcXcXcXcXcXcXcXcXcXcXcXcXcXcX"
};
