/* XPM */
static char *chest_5[] = {
/* columns rows colors chars-per-pixel */
"64 64 239 2 ",
"   c None",
".  c black",
"X  c #010000",
"o  c #060000",
"O  c #070000",
"+  c #080000",
"@  c #0A0100",
"#  c #080200",
"$  c #0B0200",
"%  c #0F0100",
"&  c #0F0400",
"*  c #030B00",
"=  c #0C000C",
"-  c #150200",
";  c #170600",
":  c #1A0100",
">  c #130900",
",  c #180800",
"<  c #190B00",
"1  c #1F0A00",
"2  c #1A0F00",
"3  c #191000",
"4  c #200000",
"5  c #220000",
"6  c #210200",
"7  c #260100",
"8  c #2C0100",
"9  c #2E0200",
"0  c #2E0400",
"q  c #2D0007",
"w  c #2F0006",
"e  c #200800",
"r  c #270A00",
"t  c #280A00",
"y  c #330100",
"u  c #330001",
"i  c #350100",
"p  c #340500",
"a  c #390100",
"s  c #3B0002",
"d  c #370900",
"f  c #360F00",
"g  c #201300",
"h  c #281200",
"j  c #2E1600",
"k  c #3B1500",
"l  c #321900",
"z  c #371800",
"x  c #3C1A00",
"c  c #0B3E00",
"v  c #0D0036",
"b  c #430000",
"n  c #430002",
"m  c #450000",
"M  c #490000",
"N  c #4E0300",
"B  c #4D0003",
"V  c #4E0B00",
"C  c #500000",
"Z  c #570000",
"A  c #540300",
"S  c #5A0100",
"D  c #5B0400",
"F  c #5D0400",
"G  c #491400",
"H  c #4B1600",
"J  c #411900",
"K  c #421A00",
"L  c #451A00",
"P  c #471B00",
"I  c #4E1B00",
"U  c #551200",
"Y  c #541500",
"T  c #591600",
"R  c #660400",
"E  c #600900",
"W  c #600D00",
"Q  c #6E0800",
"!  c #680E00",
"~  c #700000",
"^  c #7F0000",
"/  c #710D00",
"(  c #691000",
")  c #6A1100",
"_  c #681500",
"`  c #681B00",
"'  c #6A1C00",
"]  c #761300",
"[  c #781000",
"{  c #781600",
"}  c #7D1700",
"|  c #711900",
" . c #412300",
".. c #432300",
"X. c #4C2400",
"o. c #4F2500",
"O. c #422C00",
"+. c #532000",
"@. c #502400",
"#. c #522400",
"$. c #582100",
"%. c #502900",
"&. c #582900",
"*. c #5A3000",
"=. c #632000",
"-. c #682700",
";. c #622D00",
":. c #632E00",
">. c #642D00",
",. c #712400",
"<. c #702900",
"1. c #613000",
"2. c #643200",
"3. c #6A3000",
"4. c #6C3100",
"5. c #6E3100",
"6. c #6D3800",
"7. c #733C00",
"8. c #7E3800",
"9. c #154A00",
"0. c #794000",
"q. c #7E4200",
"w. c #715300",
"e. c #697400",
"r. c #3B0072",
"t. c #820E00",
"y. c #9A0000",
"u. c #900C00",
"i. c #980D00",
"p. c #821100",
"a. c #831300",
"s. c #871400",
"d. c #851900",
"f. c #8A1E00",
"g. c #911800",
"h. c #951F00",
"j. c #A80000",
"k. c #BE0000",
"l. c #B8000C",
"z. c #A31E00",
"x. c #A41C00",
"c. c #802200",
"v. c #8C2000",
"b. c #882B00",
"n. c #922700",
"m. c #972700",
"M. c #9B2700",
"N. c #922800",
"B. c #972E00",
"V. c #9C2800",
"C. c #813000",
"Z. c #863700",
"A. c #9B3000",
"S. c #A22200",
"D. c #A52300",
"F. c #AD2E00",
"G. c #AE2F00",
"H. c #B72400",
"J. c #BD2300",
"K. c #B02800",
"L. c #BD2A00",
"P. c #BF2F00",
"I. c #AB3500",
"U. c #AD3E00",
"Y. c #D80000",
"T. c #F10000",
"R. c #DD2600",
"E. c #DE3D00",
"W. c #F72A00",
"Q. c #EE3700",
"!. c #874300",
"~. c #864500",
"^. c #824800",
"/. c #924100",
"(. c #944700",
"). c #9D5100",
"_. c #905900",
"`. c #BA4500",
"'. c #B14E00",
"]. c #BA4A00",
"[. c #A15300",
"{. c #C44100",
"}. c #C14800",
"|. c #D34600",
" X c #D34D00",
".X c #E64500",
"XX c #E54600",
"oX c #FE4600",
"OX c #F04D00",
"+X c #F64E00",
"@X c #FF5003",
"#X c #F55A00",
"$X c #CF6000",
"%X c #DE6B00",
"&X c #EE6200",
"*X c #E96500",
"=X c #FF640E",
"-X c #F27400",
";X c #FF7818",
":X c #FF5E2D",
">X c #FF6521",
",X c #FF662D",
"<X c #FF7D32",
"1X c #FF3D40",
"2X c #FF7A51",
"3X c #FF9013",
"4X c #FF8326",
"5X c #FF832D",
"6X c #FF892A",
"7X c #FF9024",
"8X c #FFBA3F",
"9X c #FF8145",
"0X c #FF8A46",
"qX c #FF8F47",
"wX c #FF844F",
"eX c #FF9953",
"rX c #FFA240",
"tX c #FFB142",
"yX c #FFB94E",
"uX c #FFAB58",
"iX c #FFA166",
"pX c #FFBD60",
"aX c #FFBB78",
"sX c #FFC547",
"dX c #FFD161",
"fX c #FFD571",
"gX c #FFD673",
"hX c #48008E",
"jX c #7B0097",
"kX c #BF00AD",
"lX c #FF48CC",
"zX c #FFB182",
"xX c #FFA5A5",
"cX c #FFC3A7",
"vX c #FFD9B3",
"bX c #FFF3E5",
"nX c #FFF7F7",
"mX c #FFFCFC",
"MX c white",
/* pixels */
"                                                                                                                                ",
"                                                                                                                                ",
"                                                                                                                                ",
"                                                O.O.+.O.$.Y                                                                     ",
"                                        t i b b M b +.f.D.@XD.Y                                                                 ",
"                              +.+.+.O.=.c.8 D ~ y.^ Q ( | G.9XqXY                                                               ",
"                    g a i i i i u k | ` D.@Xa.} F.].y.^ ) U.+X9XvX'                                                             ",
"            1 k l k G w M b Z ~ R b n D.P.R.qXi.s.{ H.oX5X{.XX{.f.'                                                             ",
"          > t , Y =.' N.+X[ Q v.K.u.F V OX>X:XeX=XqXqXE.,.P %.`                                                                 ",
"        , y y : , | C.f.W.qXt.[ t.h.L.E.XXMX).MXn.V e J J                                                                       ",
"        - y b M 9 3 C.+X2XiX,XE.qXuXeXE.i.,XV m.z < z X.Z.#.                                                                    ",
"        y M y 7 : h ' 0XvXaXeXXXW.A.n w 4 < # - r ; r I 6.#X;.                                                                  ",
"      2 y : - $ , G 5.`.1Xl.8 4 4 |.A.- ; : > > O O $ X . '.6X:.                                                                ",
"      2 4 , d U @.z j $ % < & & : A.zX. c b.|.!.c O . hXnX. ^.6X(.                                                              ",
"      1 $.T J < & < J a - X . . . lXmXMXMXwXb.. e.. lXhXlXkX1.(.iX(.                                                            ",
"      , j # & r < i k.r o jXmX  . b.MXMXMX. 9.c Z Z Y.Z . . 1.%XMXyXZ.                                                          ",
"      7 1.%.%.z $ 7 6 ; -.Z.$ r.Q.cXMXMXMXB.c gXt.Y.mXo ).3X8X%X%XdXZ.                                                          ",
"      2 j + X.Z.a y k.xXv $ -.|.wXJ.T.M zXJ.. c , ).%XyX&XI.I.( P.yX8.                                                          ",
"      2 d @ o 0.XX$ $ hXO j.!.b.^ . . . J.Q.3.[.4XrXB.<.! / N W G.yX3.                                                          ",
"      2 V m @ + ^.<X. . . pXXXmX`.=.*X$X=X|./.L.rXuXI M W z.g._ D.3X+.                                                          ",
"      2 T B m + + ~.<X. E.I.. 3.5.mX$.E.] M !.(.sXfXE / p.x.S._ M.*X+.                                                          ",
"      2 { 8 u u o # ~.sXMX5X#X'.U p mXA E ] E 8.7XtXW / p.p.z.W c.$Xo.                                                          ",
"      2 <.8 w.& 7 o z 4Xd.M. X[.4 s .XW p.z.F 6.-X-XC E W [ S.F ,.}.P                                                           ",
"      2 o.w k ;X_.8 : +X .,. X[.4 f bXW g.S.F *.+X-XN A F D g.S =.N.K                                                           ",
"      = >.q : l o.q 6 $Xh o.`.[.5 X.`.E s.h.N &.`..XA D S A D E =.c.k                                                           ",
"        @ 4.7 : 5 s : '.h o.U.q.: &.zXy } g.N o.U.P.A M N H.oX0X{.H 2                                                           ",
"          + -.s B n 4 '.0 L U.2., 7X8.Z Q ] S  .V.G.%.H.oX0X{.7.-.                                                              ",
"            o 4.n m : ).0 K M.%.; `.*.F Z Z C  .N.G.H.oX7.7.                                                                    ",
"              @ -.n 8 /.0 x C. .8 pXn N S 7.H. .N.N.0...                                                                        ",
"                * 2.6 8.m k ,.L 5 `.H H.oXH.7.q.6.                                                                              ",
"                  @ @.<.p k ' L 5 pX7.7.a.a.                                                                                    ",
"                    o 6.s  .' L 8 7.pX0.                                                                                        ",
"                      - 0 k 6.%. .  0.                                                                                          ",
"                        6.%. .                                                                                                  ",
"                                                                                                                                ",
"                                                                                                                                ",
"                                                                                                                                ",
"                                                                                                                                ",
"                                                                                                                                ",
"                                                                                                                                ",
"                                                                                                                                ",
"                                                                                                                                ",
"                                                                                                                                ",
"                                                                                                                                ",
"                                                                                                                                ",
"                                                                                                                                ",
"                                                                                                                                ",
"                                                                                                                                ",
"                                                                                                                                ",
"                                                                                                                                ",
"                                                                                                                                ",
"                                                                                                                                ",
"                                                                                                                                ",
"                                                                                                                                ",
"                                                                                                                                ",
"                                                                                                                                ",
"                                                                                                                                ",
"                                                                                                                                ",
"                                                                                                                                ",
"                                                                                                                                ",
"                                                                                                                                ",
"                                                                                                                                ",
"                                                                                                                                ",
"                                                                                                                                "
};
