/* XPM */
static char *result[] = {
/* columns rows colors chars-per-pixel */
"64 64 240 2 ",
"   c black",
".  c #010000",
"X  c #060000",
"o  c #070000",
"O  c #080000",
"+  c #0A0100",
"@  c #080200",
"#  c #0B0200",
"$  c #0F0100",
"%  c #0F0400",
"&  c #030B00",
"*  c #0C000C",
"=  c #150200",
"-  c #170600",
";  c #1A0100",
":  c #130900",
">  c #180800",
",  c #190B00",
"<  c #1F0A00",
"1  c #1A0F00",
"2  c #191000",
"3  c #200000",
"4  c #220000",
"5  c #210200",
"6  c #260100",
"7  c #2C0100",
"8  c #2E0200",
"9  c #2E0400",
"0  c #2D0007",
"q  c #2F0006",
"w  c #200800",
"e  c #270A00",
"r  c #280A00",
"t  c #330100",
"y  c #330001",
"u  c #350100",
"i  c #340500",
"p  c #390100",
"a  c #3B0002",
"s  c #370900",
"d  c #360F00",
"f  c #201300",
"g  c #281200",
"h  c #2E1600",
"j  c #3B1500",
"k  c #321900",
"l  c #371800",
"z  c #3C1A00",
"x  c #0B3E00",
"c  c #0D0036",
"v  c #430000",
"b  c #430002",
"n  c #450000",
"m  c #490000",
"M  c #4E0300",
"N  c #4D0003",
"B  c #4E0B00",
"V  c #500000",
"C  c #570000",
"Z  c #540300",
"A  c #5A0100",
"S  c #5B0400",
"D  c #5D0400",
"F  c #491400",
"G  c #4B1600",
"H  c #411900",
"J  c #421A00",
"K  c #451A00",
"L  c #471B00",
"P  c #4E1B00",
"I  c #551200",
"U  c #541500",
"Y  c #591600",
"T  c #660400",
"R  c #600900",
"E  c #600D00",
"W  c #6E0800",
"Q  c #680E00",
"!  c #700000",
"~  c #7F0000",
"^  c #710D00",
"/  c #691000",
"(  c #6A1100",
")  c #681500",
"_  c #681B00",
"`  c #6A1C00",
"'  c #761300",
"]  c #781000",
"[  c #781600",
"{  c #7D1700",
"}  c #711900",
"|  c #412300",
" . c #432300",
".. c #4C2400",
"X. c #4F2500",
"o. c #422C00",
"O. c #532000",
"+. c #502400",
"@. c #522400",
"#. c #582100",
"$. c #502900",
"%. c #582900",
"&. c #5A3000",
"*. c #632000",
"=. c #682700",
"-. c #622D00",
";. c #632E00",
":. c #642D00",
">. c #712400",
",. c #702900",
"<. c #613000",
"1. c #643200",
"2. c #6A3000",
"3. c #6C3100",
"4. c #6E3100",
"5. c #6D3800",
"6. c #733C00",
"7. c #7E3800",
"8. c #154A00",
"9. c #794000",
"0. c #7E4200",
"q. c #715300",
"w. c #697400",
"e. c #3B0072",
"r. c #820E00",
"t. c #9A0000",
"y. c #900C00",
"u. c #980D00",
"i. c #821100",
"p. c #831300",
"a. c #871400",
"s. c #851900",
"d. c #8A1E00",
"f. c #911800",
"g. c #951F00",
"h. c #A80000",
"j. c #BE0000",
"k. c #B8000C",
"l. c #A31E00",
"z. c #A41C00",
"x. c #802200",
"c. c #8C2000",
"v. c #882B00",
"b. c #922700",
"n. c #9B2700",
"m. c #922800",
"M. c #972E00",
"N. c #9C2800",
"B. c #813000",
"V. c #863700",
"C. c #9B3000",
"Z. c #A22200",
"A. c #A52300",
"S. c #AD2E00",
"D. c #AE2F00",
"F. c #B72400",
"G. c #BD2300",
"H. c #B02800",
"J. c #BD2A00",
"K. c #BF2F00",
"L. c #AB3500",
"P. c #AD3E00",
"I. c #D80000",
"U. c #F10000",
"Y. c #DD2600",
"T. c #DE3D00",
"R. c #F72A00",
"E. c #EE3700",
"W. c #FF3333",
"Q. c #874300",
"!. c #864500",
"~. c #824800",
"^. c #924100",
"/. c #944700",
"(. c #975000",
"). c #9D5100",
"_. c #905900",
"`. c #BA4500",
"'. c #B14E00",
"]. c #BA4A00",
"[. c #A15300",
"{. c #C44100",
"}. c #C14800",
"|. c #C34900",
" X c #D34600",
".X c #D34D00",
"XX c #E64500",
"oX c #E54600",
"OX c #FE4600",
"+X c #F04D00",
"@X c #F64E00",
"#X c #FF5003",
"$X c #F55A00",
"%X c #CF6000",
"&X c #DE6B00",
"*X c #EE6200",
"=X c #E96500",
"-X c #FF640E",
";X c #F27400",
":X c #FF7818",
">X c #FF6521",
",X c #FF662D",
"<X c #FF7D32",
"1X c #FF3D40",
"2X c #FF7A51",
"3X c #FF9013",
"4X c #FF8326",
"5X c #FF832D",
"6X c #FF892A",
"7X c #FF9024",
"8X c #FFBA3F",
"9X c #FF8145",
"0X c #FF8A46",
"qX c #FF8F47",
"wX c #FF844F",
"eX c #FF9953",
"rX c #FFA240",
"tX c #FFB142",
"yX c #FFB94E",
"uX c #FFAB58",
"iX c #FFA166",
"pX c #FFBD60",
"aX c #FFBB78",
"sX c #FFC547",
"dX c #FFD161",
"fX c #FFD571",
"gX c #FFD673",
"hX c #48008E",
"jX c #7B0097",
"kX c #BF00AD",
"lX c #FF48CC",
"zX c #FFB182",
"xX c #FFA5A5",
"cX c #FFC3A7",
"vX c #FFD9B3",
"bX c #FFF3E5",
"nX c #FFF7F7",
"mX c #FFFCFC",
"MX c white",
"NX c None",
/* pixels */
"NXNXNXNXNXNXNXNXNXNXNXNXNXNXNXNXNXNXNXNXNXNXNXNXNXNXNXNXNXNXNXNXNXNXNXNXNXNXNXNXNXNXNXNXNXNXNXNXNXNXNXNXNXNXNXNXNXNXNXNXNXNXNXNX",
"NXNXNXNXNXNXNXNXNXNXNXNXNXNXNXNXNXNXNXNXNXNXNXNXNXNXNXNXNXNXNXNXNXNXNXNXNXNXNXNXNXNXNXNXNXNXNXNXNXNXNXNXNXNXNXNXNXNXNXNXNXNXNXNX",
"NXNXNXNXNXNXNXNXNXNXNXNXNXNXNXNXNXNXNXNXNXNXNXNXNXNXNXNXNXNXNXNXNXNXNXNXNXNXNXNXNXNXNXNXNXNXNXNXNXNXNXNXNXNXNXNXNXNXNXNXNXNXNXNX",
"NXNXNXNXNXNXNXNXNXNXNXNXNXNXNXNXNXNXNXNXNXNXNXNXo.o.O.o.#.U NXNXNXNXNXNXNXNXNXNXNXNXNXNXNXNXNXNXNXNXNXNXNXNXNXNXNXNXNXNXNXNXNXNX",
"NXNXNXNXNXNXNXNXNXNXNXNXNXNXNXNXNXNXNXNXr u v v m v O.d.A.#XA.U NXNXNXNXNXNXNXNXNXNXNXNXNXNXNXNXNXNXNXNXNXNXNXNXNXNXNXNXNXNXNXNX",
"NXNXNXNXNXNXNXNXNXNXNXNXNXNXNXO.O.O.o.*.x.7 S ! t.~ W / } D.9XqXU NXNXNXNXNXNXNXNXNXNXNXNXNXNXNXNXNXNXNXNXNXNXNXNXNXNXNXNXNXNXNX",
"NXNXNXNXNXNXNXNXNXNXf p u u u u y j } _ A.#Xp.{ S.].t.~ ( P.@X9XvX` NXNXNXNXNXNXNXNXNXNXNXNXNXNXNXNXNXNXNXNXNXNXNXNXNXNXNXNXNXNX",
"NXNXNXNXNXNX< j k j F q m v C ! T v b A.K.Y.qXu.a.[ F.OX5X{.oX{.d.` NXNXNXNXNXNXNXNXNXNXNXNXNXNXNXNXNXNXNXNXNXNXNXNXNXNXNXNXNXNX",
"NXNXNXNXNX: r > U *.` m.@X] W c.H.y.D B +X>XQ.iX-XqXqXT.>.L $._ NXNXNXNXNXNXNXNXNXNXNXNXNXNXNXNXNXNXNXNXNXNXNXNXNXNXNXNXNXNXNXNX",
"NXNXNXNX> t t ; > } B.d.R.qXr.] r.g.J.T.oXMXE.C.b.B w H H NXNXNXNXNXNXNXNXNXNXNXNXNXNXNXNXNXNXNXNXNXNXNXNXNXNXNXNXNXNXNXNXNXNXNX",
"NXNXNXNX= t v m 8 2 B.@X2XiX,XT.qXuXeXT.u.,XC.zXh , v. XQ.@.NXNXNXNXNXNXNXNXNXNXNXNXNXNXNXNXNXNXNXNXNXNXNXNXNXNXNXNXNXNXNXNXNXNX",
"NXNXNXNXt m t 6 ; g ` 0XvXaXeXoXR.p.b q 3 , X mXMXMXwXv.5.$X-.NXNXNXNXNXNXNXNXNXNXNXNXNXNXNXNXNXNXNXNXNXNXNXNXNXNXNXNXNXNXNXNXNX",
"NXNXNX1 t ; = # > F 4.`.1Xk.7 3 3 # % = - ; v.MXMXMXo .   '.6X;.NXNXNXNXNXNXNXNXNXNXNXNXNXNXNXNXNXNXNXNXNXNXNXNXNXNXNXNXNXNXNXNX",
"NXNXNX1 3 > s I +.l h # $ , % % ;       x E.cXMXMXMX  hXnX  ~.6X/.NXNXNXNXNXNXNXNXNXNXNXNXNXNXNXNXNXNXNXNXNXNXNXNXNXNXNXNXNXNXNX",
"NXNXNX< #.Y H , % , H p = .       lX  x  XwXG.  w.zXG.hXlXkX<./.iX/.NXNXNXNXNXNXNXNXNXNXNXNXNXNXNXNXNXNXNXNXNXNXNXNXNXNXNXNXNXNX",
"NXNXNX> h @ % e , u j.e X jXmXNX  e.  Q.v.  8.x C G.E.A     <.&XMXyXV.NXNXNXNXNXNXNXNXNXNXNXNXNXNXNXNXNXNXNXNXNXNXNXNXNXNXNXNXNX",
"NXNXNX6 <.$.$.l # 6 5 - =.V.# e.. W.W x x L.x gXr.I. X. ).3X8X&X&XdXV.NXNXNXNXNXNXNXNXNXNXNXNXNXNXNXNXNXNXNXNXNXNXNXNXNXNXNXNXNX",
"NXNXNX1 h O ..V.p t j.xXc # =.h.W.mXU.m M =.  x > ).&XQ.*XL.L./ K.yX7.NXNXNXNXNXNXNXNXNXNXNXNXNXNXNXNXNXNXNXNXNXNXNXNXNXNXNXNXNX",
"NXNXNX1 s + X 9.oX# # hXo h.o W ~       C C 2.[.4XrXM.,.Q ^ M E D.yX2.NXNXNXNXNXNXNXNXNXNXNXNXNXNXNXNXNXNXNXNXNXNXNXNXNXNXNXNXNX",
"NXNXNX1 B n + O ~.<X      pXT.nX`.*.=X%X-X|.^.J.rXuXP m E l.f.) A.3XO.NXNXNXNXNXNXNXNXNXNXNXNXNXNXNXNXNXNXNXNXNXNXNXNXNXNXNXNXNX",
"NXNXNX1 Y N n O O !.<X  T.L.  4.4.mX#.T.{ m R (.sXfXR ^ i.z.Z.) n.=XO.NXNXNXNXNXNXNXNXNXNXNXNXNXNXNXNXNXNXNXNXNXNXNXNXNXNXNXNXNX",
"NXNXNX1 [ 7 y y X @ !.sXMX5X$X'.I i mXZ R ' R 7.7XtXE ^ i.i.l.E x.%XX.NXNXNXNXNXNXNXNXNXNXNXNXNXNXNXNXNXNXNXNXNXNXNXNXNXNXNXNXNX",
"NXNXNX1 ,.7 q.% 6 X l 4Xs.n..X[.3 a XXE i.l.D 5.;X;XV R E ] Z.D >.}.L NXNXNXNXNXNXNXNXNXNXNXNXNXNXNXNXNXNXNXNXNXNXNXNXNXNXNXNXNX",
"NXNXNX1 X.q j :X_.7 ; @X| >..X[.3 d bXE f.Z.D &.@X;XM Z D S f.A *.m.J NXNXNXNXNXNXNXNXNXNXNXNXNXNXNXNXNXNXNXNXNXNXNXNXNXNXNXNXNX",
"NXNXNX* :.0 ; k X.0 5 %Xg X.`.[.4 ..`.R a.g.M %.`.XXZ S A Z S R *.x.j NXNXNXNXNXNXNXNXNXNXNXNXNXNXNXNXNXNXNXNXNXNXNXNXNXNXNXNXNX",
"NXNXNXNX+ 3.6 ; 4 a ; '.g X.P.0.; %.zXt { f.M X.P.K.Z m M F.OX0X{.G 1 NXNXNXNXNXNXNXNXNXNXNXNXNXNXNXNXNXNXNXNXNXNXNXNXNXNXNXNXNX",
"NXNXNXNXNXO =.a N b 3 '.9 K P.1.> 7X7.C W ' A | N.D.$.F.OX0X{.6.=.NXNXNXNXNXNXNXNXNXNXNXNXNXNXNXNXNXNXNXNXNXNXNXNXNXNXNXNXNXNXNX",
"NXNXNXNXNXNXX 3.b n ; ).9 J n.$.- `.&.D C C V | m.D.F.OX6.6.NXNXNXNXNXNXNXNXNXNXNXNXNXNXNXNXNXNXNXNXNXNXNXNXNXNXNXNXNXNXNXNXNXNX",
"NXNXNXNXNXNXNX+ =.b 7 ^.9 z B.| 7 pXb M A 6.F.| m.m.9. .NXNXNXNXNXNXNXNXNXNXNXNXNXNXNXNXNXNXNXNXNXNXNXNXNXNXNXNXNXNXNXNXNXNXNXNX",
"NXNXNXNXNXNXNXNX& 1.5 7.n j >.K 4 `.G F.OXF.6.0.5.NXNXNXNXNXNXNXNXNXNXNXNXNXNXNXNXNXNXNXNXNXNXNXNXNXNXNXNXNXNXNXNXNXNXNXNXNXNXNX",
"NXNXNXNXNXNXNXNXNX+ +.,.i j ` K 4 pX6.6.p.p.NXNXNXNXNXNXNXNXNXNXNXNXNXNXNXNXNXNXNXNXNXNXNXNXNXNXNXNXNXNXNXNXNXNXNXNXNXNXNXNXNXNX",
"NXNXNXNXNXNXNXNXNXNXX 5.a | ` K 7 6.pX9.NXNXNXNXNXNXNXNXNXNXNXNXNXNXNXNXNXNXNXNXNXNXNXNXNXNXNXNXNXNXNXNXNXNXNXNXNXNXNXNXNXNXNXNX",
"NXNXNXNXNXNXNXNXNXNXNX= 9 j 5.$.| NX9.NXNXNXNXNXNXNXNXNXNXNXNXNXNXNXNXNXNXNXNXNXNXNXNXNXNXNXNXNXNXNXNXNXNXNXNXNXNXNXNXNXNXNXNXNX",
"NXNXNXNXNXNXNXNXNXNXNXNX5.$.| NXNXNXNXNXNXNXNXNXNXNXNXNXNXNXNXNXNXNXNXNXNXNXNXNXNXNXNXNXNXNXNXNXNXNXNXNXNXNXNXNXNXNXNXNXNXNXNXNX",
"NXNXNXNXNXNXNXNXNXNXNXNXNXNXNXNXNXNXNXNXNXNXNXNXNXNXNXNXNXNXNXNXNXNXNXNXNXNXNXNXNXNXNXNXNXNXNXNXNXNXNXNXNXNXNXNXNXNXNXNXNXNXNXNX",
"NXNXNXNXNXNXNXNXNXNXNXNXNXNXNXNXNXNXNXNXNXNXNXNXNXNXNXNXNXNXNXNXNXNXNXNXNXNXNXNXNXNXNXNXNXNXNXNXNXNXNXNXNXNXNXNXNXNXNXNXNXNXNXNX",
"NXNXNXNXNXNXNXNXNXNXNXNXNXNXNXNXNXNXNXNXNXNXNXNXNXNXNXNXNXNXNXNXNXNXNXNXNXNXNXNXNXNXNXNXNXNXNXNXNXNXNXNXNXNXNXNXNXNXNXNXNXNXNXNX",
"NXNXNXNXNXNXNXNXNXNXNXNXNXNXNXNXNXNXNXNXNXNXNXNXNXNXNXNXNXNXNXNXNXNXNXNXNXNXNXNXNXNXNXNXNXNXNXNXNXNXNXNXNXNXNXNXNXNXNXNXNXNXNXNX",
"NXNXNXNXNXNXNXNXNXNXNXNXNXNXNXNXNXNXNXNXNXNXNXNXNXNXNXNXNXNXNXNXNXNXNXNXNXNXNXNXNXNXNXNXNXNXNXNXNXNXNXNXNXNXNXNXNXNXNXNXNXNXNXNX",
"NXNXNXNXNXNXNXNXNXNXNXNXNXNXNXNXNXNXNXNXNXNXNXNXNXNXNXNXNXNXNXNXNXNXNXNXNXNXNXNXNXNXNXNXNXNXNXNXNXNXNXNXNXNXNXNXNXNXNXNXNXNXNXNX",
"NXNXNXNXNXNXNXNXNXNXNXNXNXNXNXNXNXNXNXNXNXNXNXNXNXNXNXNXNXNXNXNXNXNXNXNXNXNXNXNXNXNXNXNXNXNXNXNXNXNXNXNXNXNXNXNXNXNXNXNXNXNXNXNX",
"NXNXNXNXNXNXNXNXNXNXNXNXNXNXNXNXNXNXNXNXNXNXNXNXNXNXNXNXNXNXNXNXNXNXNXNXNXNXNXNXNXNXNXNXNXNXNXNXNXNXNXNXNXNXNXNXNXNXNXNXNXNXNXNX",
"NXNXNXNXNXNXNXNXNXNXNXNXNXNXNXNXNXNXNXNXNXNXNXNXNXNXNXNXNXNXNXNXNXNXNXNXNXNXNXNXNXNXNXNXNXNXNXNXNXNXNXNXNXNXNXNXNXNXNXNXNXNXNXNX",
"NXNXNXNXNXNXNXNXNXNXNXNXNXNXNXNXNXNXNXNXNXNXNXNXNXNXNXNXNXNXNXNXNXNXNXNXNXNXNXNXNXNXNXNXNXNXNXNXNXNXNXNXNXNXNXNXNXNXNXNXNXNXNXNX",
"NXNXNXNXNXNXNXNXNXNXNXNXNXNXNXNXNXNXNXNXNXNXNXNXNXNXNXNXNXNXNXNXNXNXNXNXNXNXNXNXNXNXNXNXNXNXNXNXNXNXNXNXNXNXNXNXNXNXNXNXNXNXNXNX",
"NXNXNXNXNXNXNXNXNXNXNXNXNXNXNXNXNXNXNXNXNXNXNXNXNXNXNXNXNXNXNXNXNXNXNXNXNXNXNXNXNXNXNXNXNXNXNXNXNXNXNXNXNXNXNXNXNXNXNXNXNXNXNXNX",
"NXNXNXNXNXNXNXNXNXNXNXNXNXNXNXNXNXNXNXNXNXNXNXNXNXNXNXNXNXNXNXNXNXNXNXNXNXNXNXNXNXNXNXNXNXNXNXNXNXNXNXNXNXNXNXNXNXNXNXNXNXNXNXNX",
"NXNXNXNXNXNXNXNXNXNXNXNXNXNXNXNXNXNXNXNXNXNXNXNXNXNXNXNXNXNXNXNXNXNXNXNXNXNXNXNXNXNXNXNXNXNXNXNXNXNXNXNXNXNXNXNXNXNXNXNXNXNXNXNX",
"NXNXNXNXNXNXNXNXNXNXNXNXNXNXNXNXNXNXNXNXNXNXNXNXNXNXNXNXNXNXNXNXNXNXNXNXNXNXNXNXNXNXNXNXNXNXNXNXNXNXNXNXNXNXNXNXNXNXNXNXNXNXNXNX",
"NXNXNXNXNXNXNXNXNXNXNXNXNXNXNXNXNXNXNXNXNXNXNXNXNXNXNXNXNXNXNXNXNXNXNXNXNXNXNXNXNXNXNXNXNXNXNXNXNXNXNXNXNXNXNXNXNXNXNXNXNXNXNXNX",
"NXNXNXNXNXNXNXNXNXNXNXNXNXNXNXNXNXNXNXNXNXNXNXNXNXNXNXNXNXNXNXNXNXNXNXNXNXNXNXNXNXNXNXNXNXNXNXNXNXNXNXNXNXNXNXNXNXNXNXNXNXNXNXNX",
"NXNXNXNXNXNXNXNXNXNXNXNXNXNXNXNXNXNXNXNXNXNXNXNXNXNXNXNXNXNXNXNXNXNXNXNXNXNXNXNXNXNXNXNXNXNXNXNXNXNXNXNXNXNXNXNXNXNXNXNXNXNXNXNX",
"NXNXNXNXNXNXNXNXNXNXNXNXNXNXNXNXNXNXNXNXNXNXNXNXNXNXNXNXNXNXNXNXNXNXNXNXNXNXNXNXNXNXNXNXNXNXNXNXNXNXNXNXNXNXNXNXNXNXNXNXNXNXNXNX",
"NXNXNXNXNXNXNXNXNXNXNXNXNXNXNXNXNXNXNXNXNXNXNXNXNXNXNXNXNXNXNXNXNXNXNXNXNXNXNXNXNXNXNXNXNXNXNXNXNXNXNXNXNXNXNXNXNXNXNXNXNXNXNXNX",
"NXNXNXNXNXNXNXNXNXNXNXNXNXNXNXNXNXNXNXNXNXNXNXNXNXNXNXNXNXNXNXNXNXNXNXNXNXNXNXNXNXNXNXNXNXNXNXNXNXNXNXNXNXNXNXNXNXNXNXNXNXNXNXNX",
"NXNXNXNXNXNXNXNXNXNXNXNXNXNXNXNXNXNXNXNXNXNXNXNXNXNXNXNXNXNXNXNXNXNXNXNXNXNXNXNXNXNXNXNXNXNXNXNXNXNXNXNXNXNXNXNXNXNXNXNXNXNXNXNX",
"NXNXNXNXNXNXNXNXNXNXNXNXNXNXNXNXNXNXNXNXNXNXNXNXNXNXNXNXNXNXNXNXNXNXNXNXNXNXNXNXNXNXNXNXNXNXNXNXNXNXNXNXNXNXNXNXNXNXNXNXNXNXNXNX",
"NXNXNXNXNXNXNXNXNXNXNXNXNXNXNXNXNXNXNXNXNXNXNXNXNXNXNXNXNXNXNXNXNXNXNXNXNXNXNXNXNXNXNXNXNXNXNXNXNXNXNXNXNXNXNXNXNXNXNXNXNXNXNXNX",
"NXNXNXNXNXNXNXNXNXNXNXNXNXNXNXNXNXNXNXNXNXNXNXNXNXNXNXNXNXNXNXNXNXNXNXNXNXNXNXNXNXNXNXNXNXNXNXNXNXNXNXNXNXNXNXNXNXNXNXNXNXNXNXNX",
"NXNXNXNXNXNXNXNXNXNXNXNXNXNXNXNXNXNXNXNXNXNXNXNXNXNXNXNXNXNXNXNXNXNXNXNXNXNXNXNXNXNXNXNXNXNXNXNXNXNXNXNXNXNXNXNXNXNXNXNXNXNXNXNX",
"NXNXNXNXNXNXNXNXNXNXNXNXNXNXNXNXNXNXNXNXNXNXNXNXNXNXNXNXNXNXNXNXNXNXNXNXNXNXNXNXNXNXNXNXNXNXNXNXNXNXNXNXNXNXNXNXNXNXNXNXNXNXNXNX",
"NXNXNXNXNXNXNXNXNXNXNXNXNXNXNXNXNXNXNXNXNXNXNXNXNXNXNXNXNXNXNXNXNXNXNXNXNXNXNXNXNXNXNXNXNXNXNXNXNXNXNXNXNXNXNXNXNXNXNXNXNXNXNXNX",
"NXNXNXNXNXNXNXNXNXNXNXNXNXNXNXNXNXNXNXNXNXNXNXNXNXNXNXNXNXNXNXNXNXNXNXNXNXNXNXNXNXNXNXNXNXNXNXNXNXNXNXNXNXNXNXNXNXNXNXNXNXNXNXNX",
"NXNXNXNXNXNXNXNXNXNXNXNXNXNXNXNXNXNXNXNXNXNXNXNXNXNXNXNXNXNXNXNXNXNXNXNXNXNXNXNXNXNXNXNXNXNXNXNXNXNXNXNXNXNXNXNXNXNXNXNXNXNXNXNX"
};
