/* XPM */
static char *result[] = {
/* columns rows colors chars-per-pixel */
"64 64 172 2 ",
"   c #030303",
".  c #090705",
"X  c #060806",
"o  c #0A0906",
"O  c #060609",
"+  c #090708",
"@  c #060A09",
"#  c #0C0B0A",
"$  c #150E03",
"%  c #110E0C",
"&  c #0F100F",
"*  c #161003",
"=  c #191305",
"-  c #13110D",
";  c #19140D",
":  c #1B190E",
">  c #0E0F11",
",  c #0E1011",
"<  c #141413",
"1  c #1A1612",
"2  c #171915",
"3  c #1B1A15",
"4  c #171718",
"5  c #191718",
"6  c #161818",
"7  c #1C1B1A",
"8  c #201711",
"9  c #221C15",
"0  c #281D17",
"q  c #221E1B",
"w  c #2A1E19",
"e  c #1E201D",
"r  c #2A2008",
"t  c #372B0D",
"y  c #3F2F0E",
"u  c #3E310E",
"i  c #252117",
"p  c #2A2417",
"a  c #24221C",
"s  c #2B261C",
"d  c #26291F",
"f  c #2E281D",
"g  c #302B1E",
"h  c #3F3110",
"j  c #1F1F20",
"k  c #211F20",
"l  c #1F2020",
"z  c #242423",
"x  c #292624",
"c  c #272A25",
"v  c #2A2925",
"b  c #2A2729",
"n  c #272928",
"m  c #2C2B2A",
"M  c #302721",
"N  c #322D22",
"B  c #312E2C",
"V  c #392F28",
"C  c #2F302B",
"Z  c #353124",
"A  c #3A3326",
"S  c #32312D",
"D  c #3C352B",
"F  c #3F382F",
"G  c #302F30",
"H  c #343433",
"J  c #3A3532",
"K  c #363837",
"L  c #3B3835",
"P  c #393738",
"I  c #3B3B3B",
"U  c #41330E",
"Y  c #413410",
"T  c #473A14",
"R  c #40372C",
"E  c #41392D",
"W  c #413731",
"Q  c #433C33",
"!  c #423D3B",
"~  c #483D36",
"^  c #604F1D",
"/  c #52482F",
"(  c #474033",
")  c #4A4236",
"_  c #43413D",
"`  c #4B433A",
"'  c #544A30",
"]  c #51463A",
"[  c #534A3C",
"{  c #5A4E3E",
"}  c #6F5B22",
"|  c #725C24",
" . c #756025",
".. c #3F3E40",
"X. c #444341",
"o. c #4A4543",
"O. c #4C4944",
"+. c #4B4748",
"@. c #564C43",
"#. c #5A4E42",
"$. c #544D4A",
"%. c #584F48",
"&. c #565040",
"*. c #5D5445",
"=. c #5E5349",
"-. c #615646",
";. c #655A47",
":. c #6B5D46",
">. c #635649",
",. c #655A4C",
"<. c #695D4E",
"1. c #675D50",
"2. c #6A5E51",
"3. c #6E6140",
"4. c #6C614F",
"5. c #706145",
"6. c #7D6B45",
"7. c #73644D",
"8. c #77694F",
"9. c #786A4F",
"0. c #676050",
"q. c #6C6253",
"w. c #6E6658",
"e. c #6F6958",
"r. c #726555",
"t. c #746956",
"y. c #7A6B53",
"u. c #716659",
"i. c #746A5A",
"p. c #796D5B",
"a. c #7C725E",
"s. c #7D7056",
"d. c #7E7461",
"f. c #836C2B",
"g. c #987E36",
"h. c #8C7549",
"j. c #8E7A4C",
"k. c #887346",
"l. c #90794C",
"z. c #927B44",
"x. c #816E56",
"c. c #8D7D53",
"v. c #927E51",
"b. c #837763",
"n. c #847865",
"m. c #9E843F",
"M. c #A2853F",
"N. c #A3883F",
"B. c #9E8341",
"V. c #9A885B",
"C. c #A18542",
"Z. c #A38942",
"A. c #AB8E4C",
"S. c #AC914E",
"D. c #B4974A",
"F. c #AD9351",
"G. c #BDA154",
"H. c #BEA35D",
"J. c #B29E69",
"K. c #BBA56C",
"L. c #C0A357",
"P. c #C2A55C",
"I. c #C4A85F",
"U. c #C5A660",
"Y. c #C5A961",
"T. c #C0A96F",
"R. c #CCB16F",
"E. c #CDB167",
"W. c #C0A970",
"Q. c #CCB271",
"!. c #D2B771",
"~. c #D3BA78",
/* pixels */
"                                                                                                                                ",
"        . o o . .   O o             X X                 O O                       . . # % # + O   .       O                     ",
"# # o # % 1 9 q q q q 7 7 7 7 7 e 2 2 e 7 4 < 6 4 4 < 4 6 6 7 6 < < < < 4 4 < < 1 7 q k q q 7 5 2 < < < 6 , < 6 < < < < < < < < ",
"# # # - 1 z B J W W W L D S H S H H C C m m m b n G m m m m m m m b m m n n m n B G ! W J G G G m m b b m n n m z b m m m m b z ",
"- & & 2 a G ! O.@.$.$.O.O.o._ o._ X.X.....P ..I P ..I I I I I P P H P P P P ..K ! X.+.+.+.X...I I I P I P I K K K K K K K K I K ",
"o # ; 7 m L o.$.$.%.&.&.O.O.O.O.O.o.X.X.........I .._ _ ..I I I ................X.+.$.$.+.X.X.X..._ I I I I ..............K I ..",
"o o : z H I o.+.o.` ) _ _ _ _ _ ! I ! I P P I P H H P K K H H H H H K K K K H P ! ! o.o...I ! ! I K K H H H H K G H K K H H H K ",
". # 3 c H P I P H B S S Z C C c m C C m C m B m n b m m c n n n z n b n n n b b V H V H B B B B m m n n n n l l l l n l l n c n ",
"  + 5 x G P H b z 7 q 9 7 q 9 7 7 7 7 e a a l 7 e e e 3 7 < 2 2 6 6 j 7 7 7 7 q q w k k q q q q l 7 6 4 6 6 6 4 l 6 6 6 6 6 7 7 ",
". O < z b m z 7 < > % % > > # # # # & < 2 2 < < - : - & # o X @ > + > > % > > < > % - - % < 1 < < > # + # + > + @ @ @ # , , - - ",
". o < k b b k 5 # O O O + O O       O > < < > # @ & # o X       . + + + % % - # O   . . o $ & o @       O   O O O   O O o # o # ",
"o o < k m b z 5 > O . O O O O       O > , , + @ X X o o o   X . + + + + % % % o O       . # o $ #               O     O   o o # ",
"o % < z m m v 7 < o     O O O     O @ + > @ @   X X   . # $ o o O O o # - < # o         + # & # # .                       . . . ",
"o # 3 z B S v q <           O     O @ o O O     X   X . # # & o + + o % % % > o         o % - & # .                           . ",
"o - 7 z m B x 7 # o           O X o @ @       X X     . # - # o # O O # # < # @         o - ; ; * .                         . . ",
"# < q m J H b 7 > O     . . O o   X O @   O X       X X # - # o . . . O + # o o O       @ - : : &                         . o o ",
"o 5 s B ! J b 7 % + + % % % % + . . o o O               # # o o                           $ ; - * X                         # * ",
"o 1 x J ! J b 7 % % ; 8 8 ; % % .       O o             X                                 . % $ o .                         o & ",
"o 1 w B J J b 5 % ; 8 0 w w 8 % .         .           X                                     o .                             . . ",
". ; q m G G x 5 - ; 8 w w w 8 % O     . o # $ * * * * = * * * * $ $ $ $ $ $ $ $ $ $ $ $ $ = * * = * * * * * * * $ $ $ $ $ * * * ",
"  % 7 b B m z < - 1 1 8 9 8 ; %       . = r t U u Y Y Y U U U U u Y U Y y u u h y h h U U U U U U U Y Y Y Y u u U Y Y Y u y U U ",
"  o < k b b j 4 % % ; 1 5 % % # .     $ r T ^ }  . . . . . . . .|  . . .| | } } | | | | | | |  . . . . . . . .} | | | | | } } } ",
"O o > 7 z z 7 < % 1 1 1 ; % # #       $ t ^ f.g.m.m.Z.N.Z.Z.N.Z.Z.Z.Z.m.m.m.B.C.C.z.C.C.M.M.N.N.N.N.N.Z.N.m.m.m.z.z.z.g.g.g.g.g.",
"O o > 6 z z 7 < > ; ; 1 - % # # X     $ U } g.D.G.I.I.I.I.I.I.Y.I.H.I.I.P.H.H.P.P.P.P.P.P.P.P.H.I.I.I.H.I.H.I.H.U.U.U.U.U.U.U.U.",
"o o > 6 l l j < < ; - - < # # # o .   * U | M.L.E.!.!.!.Q.Q.Q.Q.R.R.E.R.R.R.R.R.R.R.R.R.R.Q.R.R.R.R.Q.Q.Q.R.R.R.R.R.R.R.R.R.R.R.",
"O O # 7 l z 7 4 < < - # + # # % - # o * U f.M.L.!.!.Q.T.K.K.K.K.K.K.K.K.K.K.K.K.K.K.K.K.K.K.K.K.K.K.K.K.K.K.K.K.J.T.W.J.J.W.K.K.",
"  X , 7 z z 7 4 1 < & o + + % - ; - $ * U | M.I.~.~.J.V.v.c.v.v.V.c.c.c.k.V.c.c.j.c.j.V.c.c.c.c.c.c.c.c.c.c.c.c.v.v.c.c.c.c.c.c.",
"  O , 7 z z j 5 3 3 < # o # % < 1 < $ * U | M.I.Q.K.V. .' / / / / / / / / / / ( / / / / / / / / / / / / / / / / ' / / / / / / / ",
"    , j z z j 7 1 3 < % # # > < < % o * Y | Z.I.Q.K.c.' s 9 w p s p f p d f f f s s s p s s s s f s s f f g g N N N M x M w x s ",
"    > 7 z n l 6 1 < < - # - # < - # @ * U | g.U.Q.K.c./ 9 9 M R R A A R A F E R R A R R D D D D D D F F E W Q ) ` ` ~ W W R D R ",
"    > j n n j 6 < < < > > > < < < ; o * U | C.P.Q.K.c./ p f W ~ ] ] ] ] [ { { { { { [ { [ [ ] ] ] [ @.[ { &.=.,.1.1.=.$.@.@.@.[ ",
"    > 7 z z j 6 < < < # # < < 3 i 3 ; = Y | C.P.Q.K.c.) s V ~ *.*.-.{ -.;.;.4.3.7.3.0.;.-.*.>.=.>.>.,.,.,.<.q.u.i.w.2.,.,.,.,.,.",
"  O < 7 n n e 7 2 2 < < > # 1 q f p 9 = h | C.H.Q.K.c./ w R ] =.-.-.>.>.<.:.7.7.x.y.7.,.,.>.>.:.1.<.<.,.<.<.x.u.x.u.q.2.2.2.r.2.",
"    < a v m z e 7 a 7 < % # < i g g i : h | B.H.Q.K.c./ s R { >.>.,.>.>.>.<.<.x.x.x.7.<.<.:.,.<.2.2.<.<.<.r.r.x.u.u.q.2.2.u.u.u.",
"  # < z C C n a d s a 7 < # < 9 f s 3 : h | m.H.Q.K.c./ s W #.>.>.>.,.>.<.<.7.y.x.y.7.,.<.<.<.4.2.2.<.<.<.2.r.y.u.r.r.<.4.2.r.t.",
"# # 2 d S S v a a d i 7 < # % 1 i i 2 = h | m.H.R.J.v./ f W @.>.,.>.<.<.<.2.2.y.y.r.7.<.<.<.<.2.2.2.2.<.<.2.r.y.x.2.2.<.<.2.r.u.",
"# % 7 v S S n a 9 7 e 3 < > # - 1 1 % = u | m.H.Q.K.v./ f W @.>.<.<.2.2.2.7.r.r.r.7.7.<.<.<.2.r.r.<.2.2.r.r.r.r.r.r.<.,.:.2.2.r.",
"% % q v S S c 3 1 3 1 2 > > > > > % o * U | m.P.Q.K.c./ M W #.<.<.2.2.2.r.r.r.r.r.r.r.q.r.r.r.r.2.<.2.2.q.u.u.u.4.<.<.,.,.2.2.r.",
"o < q v S C v 2 2 2 < & > > > > > o   * U | M.P.Q.K.c./ M Q %.2.r.2.2.2.2.r.u.u.r.r.r.r.7.y.8.2.<.<.<.2.u.u.2.2.<.<.<.,.<.2.q.u.",
"X ; 7 v S m c i e 2 < # O O @ + O O   $ U | M.P.R.K.c./ M ~ ,.r.r.r.7.r.2.r.u.u.u.r.t.y.u.y.r.<.<.>.>.7.q.u.2.2.<.<.1.2.0.w.i.p.",
"  & 3 z m m m v d e e @ @ @ > @ O     $ u | M.P.R.K.c./ v ) ,.r.u.u.r.2.r.2.u.u.u.u.r.u.y.r.r.:.,.>.,.<.q.2.2.2.<.2.2.u.w.u.d.d.",
"  # 3 n m S v v d e : @ O O + @ O     * u | M.P.R.K.c./ N ) ,.r.x.2.2.r.2.u.u.u.u.u.u.y.r.r.<.,.>.>.>.,.2.<.<.<.2.2.2.w.u.p.a.b.",
"  o < z G C m c z e 2 + O O @ #       * U | M.L.R.K.c./ g ( -.r.u.r.r.2.r.2.u.u.u.r.r.2.q.<.,.,.>.-.>.,.,.<.,.<.2.2.u.u.u.i.p.a.",
"  o < z G H m a e 7 , o O O @ @ @     * U | C.L.R.K.c./ g ( *.q.u.u.r.r.2.r.r.u.r.r.2.2.<.,.,.,.>.-.-.,.,.<.<.<.2.2.2.u.u.u.u.u.",
"  o 1 z C m b z a e < # @ @ # @ o   . $ U f.g.U.R.K.c./ f Q *.q.u.x.u.u.u.u.r.2.q.4.,.1.,.,.>.>.>.-.-.-.-.>.,.<.1.2.q.q.u.u.w.r.",
"  o 6 z C H v v v d i - # # & # # O . $ U | g.L.R.K.c./ g Q *.q.u.u.p.u.u.u.u.2.0.<.,.,.,.,.>.>.-.-.-.-.-.-.;.,.<.2.q.q.w.q.q.0.",
"  + 3 z S S B N Z Z s 3 1 < ; & # @ . $ y f.g.U.Q.K.V./ g ( *.e.u.u.u.u.u.u.u.u.0.<.,.,.,.>.>.=.-.-.-.-.-.-.>.>.,.<.2.q.q.q.w.q.",
"O + < x S S S Z Z v s i p i 2 , , # . $ y f.g.U.Q.K.k./ N ( ;.r.x.u.u.p.u.u.u.2.2.<.,.,.>.,.>.>.-.>.>.>.-.-.>.>.<.,.2.2.q.0.w.0.",
"  @ < z m S Z v f a i p f g p : - # . $ U | g.U.R.K.v./ g ) 0.r.p.i.i.i.i.u.r.q.0.1.,.,.,.>.>.=.,.=.0.*.>.-.>.,.,.0.<.0.0.q.q.q.",
"  O < 7 n C v d i 1 : i g g d 2 - # . $ U } z.P.R.K.v./ Z ' 4.y.p.p.i.i.u.q.r.q.2.1.,.,.,.,.>.,.0.0.0.0.<.,.,.,.,.,.<.1.q.q.q.w.",
"  O < l n m b a 2 1 1 e i p i 3 2 - X * y | z.H.R.K.c.' g [ 4.a.p.p.i.i.r.q.q.0.2.2.<.,.,.,.>.,.0.0.0.0.0.<.<.1.0.0.0.1.1.q.q.w.",
"  @ < l m m v a e 2 3 3 1 3 8 : 1 - o * y } C.H.Q.K.c./ A [ e.d.b.a.i.i.q.2.0.0.2.2.0.0.,.,.>.<.0.4.0.4.0.0.0.0.q.q.0.0.1.0.q.q.",
"    < z B C v z i e e 3 ; - < 1 2 - o * u | m.H.Q.K.v./ V #.i.d.p.p.i.i.w.0.<.0.1.2.2.2.<.<.0.q.0.2.1.2.2.2.0.q.q.q.q.q.w.w.w.e.",
"  @ < x B S x d a d i 1 < & < < : & o = h | m.H.R.K.v.' D &.p.x.d.i.u.u.w.0.2.<.0.0.2.2.2.0.w.r.q.2.1.1.2.2.<.0.q.7.e.e.w.w.t.t.",
"  O 1 z B B v i d f a 3 1 < < , & & @ * u } m.H.R.K.c.' D *.p.b.a.t.e.w.w.0.1.1.4.q.2.2.<.q.u.t.q.2.1.1.1.,.>.<.7.8.8.8.y.8.y.s.",
"    < z B m x a a a a a a 7 2 < & X X * u } m.H.R.K.c.~ A &.p.b.x.i.w.0.0.0.0.2.0.0.0.<.2.q.r.r.q.q.1.1.,.>.;.3.6.k.h.j.j.j.j.V.",
"  o < z m m c 7 e e i s s z 9 > # O   $ h } m.H.T.K.V.' A { p.x.n.a.w.q.0.1.1.q.q.q.2.2.2.q.r.e.w.q.0.<.;.;.;.6.B.B.D.F.F.F.F.F.",
"    < z m b a 3 - : 3 i s a 7 % o     $ u | m.H.R.K.j./ A { p.n.b.d.e.w.q.q.q.q.q.2.2.1.2.q.q.w.e.e.w.4.,.>.:.k.B.F.G.Y.H.Y.H.E.",
"    < l b m z < - - ; 3 9 9 1 # O     $ u } m.H.R.K.c./ A { i.n.b.p.i.e.w.q.q.q.2.2.2.2.q.q.r.r.e.i.w.q.<.<.7.k.S.H.E.!.~.!.!.!.",
"    < e m m z 6 & & & - < 5 - + o     * u | m.H.R.K.c./ A @.t.b.b.d.i.u.w.w.q.w.r.r.r.r.u.r.w.w.e.i.t.q.4.4.8.h.F.H.!.~.Q.K.K.K.",
"    < z C C z 6 & # X X % % > % o     * u | m.P.R.K.c./ Z [ w.d.n.d.i.w.q.0.q.4.r.8.r.r.t.r.r.e.e.e.q.r.2.r.8.l.F.Y.~.Q.J.V.V.c.",
"    < z C C v 7 & X . . + - 1 1 - o   * U  .N.P.R.K.V./ N ) 0.a.n.n.a.w.w.0.q.7.r.r.r.r.t.r.e.q.w.e.e.t.q.r.8.l.F.H.!.K.V.3.' ( ",
"    < z S H n 7 # X . . # < 7 7 < o   $ U  .M.P.E.K.j.( g ( ,.a.d.n.d.w.q.0.2.4.r.7.7.t.t.t.r.q.w.w.e.w.q.q.8.l.S.I.R.K.V.' p : ",
"  X < z H S n 2 @ X X   # 3 a a 1 .   $ U  .m.H.R.J.V./ v I =.a.n.n.d.i.q.1.2.2.<.4.7.t.i.t.w.0.w.w.w.w.u.q.8.h.S.Y.R.K.k./ : X "
};
