/* XPM */
static char *result[] = {
/* columns rows colors chars-per-pixel */
"64 64 181 2 ",
"   c #040404",
".  c #080706",
"X  c #060806",
"o  c #0A0906",
"O  c #070708",
"+  c #090709",
"@  c #070908",
"#  c #0B0B0A",
"$  c #150F03",
"%  c #110E0C",
"&  c #0F110D",
"*  c #161104",
"=  c #181205",
"-  c #13110D",
";  c #19150D",
":  c #1D180D",
">  c #0F0F10",
",  c #100F10",
"<  c #0F1010",
"1  c #141312",
"2  c #1A1613",
"3  c #171815",
"4  c #1C1A15",
"5  c #171718",
"6  c #181719",
"7  c #17191A",
"8  c #1C1C1B",
"9  c #221C16",
"0  c #221E1A",
"q  c #1F201E",
"w  c #26200F",
"e  c #3F2F0D",
"r  c #3F310E",
"t  c #282016",
"y  c #24221C",
"u  c #2C251D",
"i  c #2E281D",
"p  c #30261F",
"a  c #30291F",
"s  c #1F1F22",
"d  c #1F2222",
"f  c #242423",
"g  c #2A2622",
"h  c #262927",
"j  c #2C2A25",
"k  c #272A2A",
"l  c #2C2C2B",
"z  c #322C23",
"x  c #322E2B",
"c  c #382E28",
"v  c #2E302D",
"b  c #373022",
"n  c #34322D",
"m  c #3C362D",
"M  c #3E382E",
"N  c #2F3030",
"B  c #333332",
"V  c #3B3732",
"C  c #353937",
"Z  c #3C3A35",
"A  c #383639",
"S  c #373A3A",
"D  c #3C3C3C",
"F  c #41320E",
"G  c #483B18",
"H  c #443716",
"J  c #413923",
"K  c #42392F",
"L  c #443A29",
"P  c #433C33",
"I  c #423F3C",
"U  c #3D403F",
"Y  c #4E442A",
"T  c #51472E",
"R  c #52482F",
"E  c #504325",
"W  c #494136",
"Q  c #44413D",
"!  c #4A443B",
"~  c #464035",
"^  c #544C3E",
"/  c #574C38",
"(  c #5E5038",
")  c #735C23",
"_  c #655632",
"`  c #766129",
"'  c #7A642D",
"]  c #7D6937",
"[  c #403E41",
"{  c #3F4141",
"}  c #444342",
"|  c #494643",
" . c #4C4A44",
".. c #4D4B49",
"X. c #554D42",
"o. c #5A4D42",
"O. c #524F4B",
"+. c #575042",
"@. c #5C5346",
"#. c #55524C",
"$. c #5C554A",
"%. c #5F584A",
"&. c #565350",
"*. c #5A5651",
"=. c #5C5953",
"-. c #635646",
";. c #675847",
":. c #635649",
">. c #685748",
",. c #645B4D",
"<. c #695D4E",
"1. c #655D52",
"2. c #6A5E52",
"3. c #645E58",
"4. c #68604F",
"5. c #746642",
"6. c #7E6C43",
"7. c #72644C",
"8. c #776A4F",
"9. c #6C6354",
"0. c #6E6559",
"q. c #6F695B",
"w. c #646059",
"e. c #716555",
"r. c #726956",
"t. c #796C53",
"y. c #716659",
"u. c #736A5A",
"i. c #796E5C",
"p. c #7C715C",
"a. c #756E61",
"s. c #7C7463",
"d. c #7F7866",
"f. c #7F7A69",
"g. c #7B7668",
"h. c #836C39",
"j. c #87723B",
"k. c #8B7446",
"l. c #86764B",
"z. c #8B754B",
"x. c #8D794D",
"c. c #807055",
"v. c #8D7D53",
"b. c #82745D",
"n. c #85785F",
"m. c #8B7751",
"M. c #927E55",
"N. c #807968",
"B. c #9F833F",
"V. c #A2843F",
"C. c #99804F",
"Z. c #9F884D",
"A. c #948253",
"S. c #9B8959",
"D. c #A48944",
"F. c #A68C4D",
"G. c #AB8D4D",
"H. c #A78A44",
"J. c #AB914E",
"K. c #B2974F",
"L. c #A78D52",
"P. c #A88E51",
"I. c #AB9054",
"U. c #A69158",
"Y. c #AB955C",
"T. c #BD9E52",
"R. c #B09155",
"E. c #BFA25C",
"W. c #B39D65",
"Q. c #BCA361",
"!. c #BBA56C",
"~. c #C2A45C",
"^. c #C3A85F",
"/. c #C3A661",
"(. c #C5A961",
"). c #C9AC63",
"_. c #C6AD6C",
"`. c #CCB16F",
"'. c #CCB270",
"]. c #D4BA75",
"[. c #D2B875",
/* pixels */
"        X o X                                                                                       X     .   . . o ; ; - - % % ",
"    o ; : : ; & o o + +   .           O O O # @ O O o   O O   o     O           o # o O # O # - 2 1 - 2 , ; % % % 9 0 0 p 0 9 ; ",
"7 7 8 u z b j y 8 8 7 8 0 8 2 1 5 1 1 s 8 8 8 8 8 8 8 8 7 8 8 7 7 6 6 6 7 7 1 1 7 8 8 0 y f g j l l k j j g g f g g c K c c p 9 ",
"l v C Z ~ ! ! U V v l n B B x l k k k l N B B B N B n B B N B B l l l N l k l l l B C A Z Q |  . .| ! Q [ I [ [ Z K P P P P c 0 ",
"D Q | ..O.#.&.#.| [ D I [ [ [ I S S S S { { } } { } Q } } U D D D D D [ U U S U I } } | O.3.3.3.1.=.*.&.#.*.&.O. .I P W ^ P K z ",
"} | ..O.#.*.%.&...| } |  .| [ I D D U U { } } } | } } } | | } { [ [ [ [ { { { [ } } | O.*.3.3.3.0.3.3.=.=.=.=.&.| | P I ^ I V x ",
"[ | | |  . ...O.| Q I I I I I A C C C C S [ [ { { U U D U Z D Z A A A A D S S D S D Q  .#.3.3.3.=.*.#.#.O.O.O.| [ I Z I ! Q Z x ",
"Z Z Z Z V Z Z Z Z V V c B x x l k k k k v N C C B N v v v v l k k k l l l l n B x l n I  .O.o. . .! | Q [ I I K B l x I ! ! V j ",
"x c x j g g l l j g y y f f g y 0 8 8 8 d h l l h f q q 8 q 8 7 s s 6 8 0 y g g g s g l c P A A V V V V B x l z y s z Z I I K l ",
"x g g u 0 0 0 0 y 4 2 ; 2 1 8 9 3 2 1 1 1 8 s s y 4 2 1 ; - 1 < # , , , - 2 9 0 9 0 4 8 s s 0 u z z c z z z g s 9 9 g V I P V z ",
"l z z z 0 4 9 0 y 4 ; # # % 2 2 2 ; - - 2 9 0 9 4 3 & # # # & # # % % # % % ; 9 p 9 9 1 2 2 2 0 u j z z z g u 0 4 6 0 c K K c g ",
"V c c z 0 9 2 9 y w 2 # . # % ; ; ; - ; 2 9 9 9 8 3 2 - - & # # + + # % + # % 9 p j 0 2 6 8 9 0 y i z z z z z z 9 2 y x V V c g ",
"Z m x g y 9 6 9 0 9 2 % # + % % - - - ; 4 9 9 9 9 8 4 3 ; & # # # # # # # # % 9 p p p 0 s u y y y y i i j p 0 0 9 2 0 l c V x u ",
"V x j 0 9 9 2 9 9 9 9 % # + $ % # & - ; 4 8 9 y y 9 9 9 3 1 1 # + # # # # # % 9 u p 0 s y y y y 9 y y y 0 0 0 9 2 2 0 g B B x s ",
"g f 9 2 2 2 ; 2 9 9 2 ; % # % % 2 2 1 1 ; 2 4 y 0 9 4 4 3 ; 1 & % # # # # # % 2 9 9 2 9 6 6 6 2 : q y t 0 9 2 2 , - 0 g x B x s ",
"2 2 % % % - , ; 9 9 2 ; % # # 2 4 4 3 2 # - 3 y 8 9 4 2 3 3 1 1 1 % ; # # + # % ; 2 , , , 2 2 2 3 4 q q 2 ; , % % , 0 g B B x u ",
". .     o % % , : 3 3 3 & o & : y y q & & * 3 : 4 4 2 ; 2 & < 1 1 2 % # # O o o # > # % > , 1 6 4 8 4 3 - & # @ @ # 7 h n B n j ",
"          . # % & & & & o X & : y y 4 & o & & 3 ; ; - - & # & 1 2 2 % #       o + + + + > > > 1 3 3 3 1 & @ X   O # 7 f x B n x ",
"          . . . X X & & X   X & : : & X X X o * $ o o $ o X @ # # % o .         .     . O # > # > < & # # X O     @ 1 f v n x j ",
"$ $ $ $ $ $ $ $ * * * = * * * * : = : * * * * * * * * = * $ $ * * = * * $ = * = = - #       O # # # # # @ @ O O   O 1 y j n j f ",
"F F F F F F F F F r F r r r r r F F F F r F F F F F F F F F F F F F F F F F F G L b u -     o + + + # O # # # @     < 8 k k f y ",
") ) ) h.) ) ) ) ) ) ) ) ` ) ) ` ) ) ) ) ) ) ) ) ) ) ) ) ) ) ) ) ) ) ) ) ) ) ` ] k.] R i #     # > + O O @ # O @     > 8 f f y 7 ",
"j.V.V.V.V.V.x.V.V.V.B.B.B.B.B.B.B.B.V.V.V.V.V.V.V.V.V.V.j.V.V.x.V.V.H.x.B.V.V.P.Y.S.] J *     o O + + O @ @ O o   @ < 8 f f 8 6 ",
"~.T.~.~.T.~.~.).^.E.^.E.^.E.E.E.E.E.~.~.~.~.~.^.~.~.~.~.T.~.E.~.~.~.~.~.E.T.E.E._.W.m.Y ;       O + O   X @ O X   X < 8 f h 8 1 ",
"`.'.'.'.'.'.'.'.`.`.`.`.`.`.`.`.`.`.`.`.`.`.`.`.`.`.`.`.`.`.`.`.`.`.`.`.`.).~.).`.!.v.T :     o o o X   O + +     O < q h f q 1 ",
"(./.W._.!.!.!.!.!.!.!.!.!.!.!.!.!.!.!.!.!.!.!.!.!.!.!.!.!.!.!.!./.(.!.!.Q.W.~.).'.!.v.R :     X X X X             o 1 q h k y 3 ",
"M.m.M.M.v.v.v.v.v.v.M.v.v.v.v.A.v.v.x.v.v.v.M.M.v.v.v.v.v.v.v.v.M.M.m.M.M.H.K.^.'.!.v.T :     o X X X             O 2 q k k f 1 ",
"R R R R R R R R R R T T R R R R R R R R R R R R R R R R R R R R R R R R _ j.H.~.`.!.v.T :       X           . +   O 1 q k k f 1 ",
"g j u u z 0 u u u i i i i i a a i u u u p a z z a a z j p a i i i j i c E ' H.~.`.!.v.T ;           @   X O O + +   1 s g h s 1 ",
"K K K V K K K V m m M M K ~ P P K K K m K K W W W W P P P P P Z P P P W ( h.G.~.`.!.v.T ;           @ @ # # # O   O % 8 h f s 1 ",
"o.o.o.X.o.o.O.o.^ ^ ^ ^ @.@.@.-.o.X.^ o.@.-.,.>.,.:.$.$.-.@.@.@.@.@.:.,.7.k.G./.'.!.x.T :         O @ # < # # O   + > 6 s s 6 1 ",
"<.<.,.,.:.:.>.,.,.,.4.4.4.9.4.4.>.>.-.>.4.e.u.u.r.9.9.9.9.2.2.2.w.0.y.y.c.M.R./.'.!.v.T :       O   O @ # # #       > 8 f s s 1 ",
"2.2.e.2.2.<.<.<.4.9.9.9.e.2.2.2.>.>.>.<.e.u.i.i.i.y.y.y.y.e.9.9.y.u.q.i.p.S.I.(.'.!.m.T :                           < 7 h f 7 1 ",
"<.2.2.2.9.4.4.4.9.e.e.9.2.7.<.<.>.-.-.<.e.i.b.b.i.u.y.y.y.y.9.0.q.u.u.i.p.A.R.(.'.!.v.R :                           < 8 d h s < ",
"<.<.e.<.2.<.<.<.9.e.9.9.2.<.>.>.>.-.>.>.e.y.i.i.a.i.u.y.y.2.9.9.q.y.y.i.c.M.R./.'.!.v.T ;                           # 8 f f 8 > ",
"<.2.<.e.e.4.9.<.4.4.9.9.9.<.2.>.>.-.>.<.e.y.i.s.a.u.u.y.y.y.0.9.0.q.y.y.i.M.R./.'.!.v.T :                           < 8 d f 8 1 ",
"<.2.e.7.7.9.9.4.9.9.9.9.9.2.2.>.<.<.<.7.e.i.s.i.i.u.a.y.q.9.9.9.9.0.q.y.t.M.P.^.'.!.v.T :                           @ s s s s > ",
"<.2.7.e.e.9.9.9.e.9.9.r.e.e.e.2.<.2.e.e.e.i.i.s.i.u.a.y.q.9.9.9.9.9.0.y.i.M.P./.`.!.v.T : .                         > 7 s s s > ",
"2.2.2.e.9.7.e.q.r.q.q.q.e.y.e.e.e.e.e.e.y.u.a.a.a.a.0.0.0.9.9.9.9.q.0.r.i.M.R./.`.!.M.T :         X X               # 7 s s 5 > ",
"2.2.e.e.9.9.e.q.r.r.r.r.y.y.e.e.e.e.r.e.y.y.y.a.y.0.a.a.0.9.9.9.9.q.r.u.p.M.Y./.`.!.m.T :         X X X             # 5 s s 5 > ",
"y.y.y.e.e.e.e.y.u.i.u.u.u.r.y.y.y.i.y.e.e.y.y.u.a.y.a.y.0.2.9.9.e.e.q.r.p.A.I./.'.!.v.R :     X X X X X             < 7 d d s < ",
"u.u.u.y.e.e.e.e.u.u.u.r.r.y.e.r.i.y.y.y.e.e.q.u.y.y.0.0.y.3.e.e.q.q.r.r.t.v.I.Q.'.!.v.T :       X X X               < 7 d d d < ",
"y.t.u.t.e.2.2.e.u.u.u.y.r.0.9.e.y.y.e.2.9.9.0.0.q.0.0.0.y.y.y.y.q.u.u.q.t.m.L.~.'.!.v.T :       X X @ @ @ X         > 7 d d 7 5 ",
"2.e.t.y.e.e.2.e.y.u.y.y.e.0.4.4.e.e.e.e.9.9.0.w.3.0.0.0.y.y.y.y.r.u.q.r.t.m.L./.'.!.v.T : .   . @ @ @ @             > 7 d d q 5 ",
"7.e.e.y.e.9.2.e.y.y.y.y.y.2.2.7.4.e.9.9.9.9.4.3.2.3.y.y.u.y.u.u.u.q.y.q.e.m.P./.'.!.v.T :     . @ @ @ @           @ < 7 d k d 5 ",
"2.2.2.9.9.2.2.e.y.y.y.y.y.e.e.e.e.9.0.9.0.9.2.1.2.e.y.y.y.u.u.u.y.q.0.0.t.m.L./.'.!.v.T :     . @ @ @             @ < s d k q 5 ",
"2.2.2.2.2.2.2.e.e.y.u.u.i.y.r.e.e.<.e.9.e.3.2.2.3.y.0.y.u.u.u.y.q.q.0.y.r.m.P./.'.!.v.T :       @ @                 < 8 f h 7 1 ",
"e.2.9.2.3.2.2.e.y.y.u.u.i.i.i.e.e.e.e.9.2.2.2.9.3.0.q.y.y.a.u.u.q.9.3.3.e.x.L./.'.!.v.Y :       X                   < 8 f f 8 5 ",
"7.e.2.2.2.9.2.0.e.y.u.u.i.i.q.r.e.e.9.9.9.2.9.9.0.0.y.y.u.i.u.u.0.9.4.9.7.l.F./.`.!.v.T ;                           & 8 f g 8 3 ",
"e.2.2.2.1.1.3.0.q.i.i.i.i.u.r.9.9.e.9.9.9.0.0.q.0.0.u.y.u.i.u.q.9.9.3.1.7.z.F.Q.`.!.v.T ;                           1 8 f g y 4 ",
"r.9.9.,.,.1.9.9.u.i.i.i.p.r.r.9.e.e.0.9.q.0.e.r.q.q.q.y.q.r.q.q.4.4.4.<.7.l.F./.`.!.v.T :         @     X @ X       < q h j y 9 ",
"r.0.9.9.<.<.9.r.i.p.s.s.s.i.q.4.4.9.9.0.q.y.y.u.y.u.y.q.9.9.4.4.4.4.2.<.4.k.F.~.`.!.v.T ;               o O o       < 8 g j y 9 ",
"q.q.e.e.e.e.r.i.p.p.g.f.g.i.q.4.<.9.9.9.q.u.u.u.i.u.r.r.4.4.4.4.4.1.1.1.7.l.F.Q.`.!.v.Y :             @ O O .     o - 8 h j f q ",
"e.e.e.r.r.r.i.p.s.d.f.f.g.a.q.4.9.,.9.9.e.q.u.u.i.i.q.9.9.4.4.4.4.4.1.2.7.z.F./.'.!.v.T :             @ o # .       # 8 g g y q ",
"8.8.8.t.t.t.b.N.n.p.s.g.g.a.q.4.,.4.4.9.e.q.i.i.i.i.q.9.4.4.4.4.4.2.9.2.8.z.P./.'.!.v.T :     o     O @ O # o .     # 8 f g y y ",
"k.x.x.x.A.A.A.v.t.r.0.q.q.q.9.1.4.4.4.4.9.e.y.u.i.i.q.e.4.4.4.9.9.9.2.9.r.x.I.Q.'.!.v.T :       @ @ O   # # o .     # 7 y u y y ",
"J.J.J.J.J.I.P.C.6.-.^ @.,.4.4.%.,.,.1.9.9.q.y.i.u.i.u.e.9.9.9.2.9.4.4.4.8.k.G.(.'.!.v.T :       X X o O o o         # 8 y y y t ",
"(.(.E.^.Q.Q.E.U.] R m ~ +.%.%.%.:.1.1.1.9.9.y.y.u.t.i.i.y.y.9.e.9.9.4.<.7.k.G.^.`.!.v.T :       X X @ o o .       . - 7 f f u 9 ",
"'.'.[.'.].].'.W.l.Y i m ^ @.%.,.:.:.1.1.0.q.q.y.e.i.i.i.i.y.y.2.9.4.4.4.7.k.G.^.`.!.v.T :   . o X X o O           O 2 8 f s 9 9 ",
"!.!.!._.'.].].!.v.R i m ^ %.,.,.,.,.1.2.9.9.9.e.r.u.i.s.a.y.y.y.<.<.,.,.7.k.G.~.'.!.v.T : . . X X X X .           % 7 f g s 4 ; ",
"A.A.A.U.E.'.].!.A.T i m ^ %.,.,.%.1.1.2.0.9.e.0.0.t.p.p.i.u.y.2.<.,.,.<.7.k.G.~.'.!.v.T :   O                   X 1 8 h h f 8 , ",
"T T _ ] J.).[.!.v.T i m +.%.4.%.,.1.1.2.4.9.9.9.0.r.p.p.p.u.2.2.4.9.<.2.7.k.G.(.'.!.v.T : X O O                 X - q f h f 7 , ",
": w G ' D.^.'.!.v.T u m X.%.%.,.,.,.,.,.4.9.9.4.q.i.p.n.p.u.0.4.4.9.2.2.c.z.G.(.'.!.v.T : o @ +                   # 1 d f f 7 1 ",
"X = r ` Z.E.'.!.A.T u m ^ %.%.1.,.,.,.,.,.w.9.4.e.t.b.n.p.y.0.4.w.9.2.7.7.k.R./.'.!.v.R : . + O                   o 1 8 8 d 6 % "
};
