/* XPM */
static char *result[] = {
/* columns rows colors chars-per-pixel */
"64 64 157 2 ",
"   c #050404",
".  c #090606",
"X  c #070806",
"o  c #0B0906",
"O  c #060608",
"+  c #090708",
"@  c #070808",
"#  c #0C0B0A",
"$  c #120D05",
"%  c #110E0B",
"&  c #0F100B",
"*  c #14120D",
"=  c #1A140E",
"-  c #1D180E",
";  c #0E1010",
":  c #151412",
">  c #1A1613",
",  c #161817",
"<  c #1C1A14",
"1  c #171818",
"2  c #1C1B1A",
"3  c #211704",
"4  c #21170D",
"5  c #201713",
"6  c #221C14",
"7  c #291E14",
"8  c #221E1B",
"9  c #242116",
"0  c #2B2115",
"q  c #23211D",
"w  c #29241D",
"e  c #2E291D",
"r  c #322B1B",
"t  c #1F1F20",
"y  c #252424",
"u  c #2A2623",
"i  c #2C2924",
"p  c #252528",
"a  c #282728",
"s  c #2C2C2B",
"d  c #312C24",
"f  c #322E2D",
"g  c #353126",
"h  c #3B3425",
"j  c #33312E",
"k  c #3B352C",
"l  c #3E392E",
"z  c #302E30",
"x  c #333332",
"c  c #3B3631",
"v  c #3C3A35",
"b  c #393639",
"n  c #3C3C3B",
"m  c #43330F",
"M  c #403622",
"N  c #423A25",
"B  c #41372D",
"V  c #423A2C",
"C  c #423D33",
"Z  c #4A3D33",
"A  c #423F3A",
"S  c #594417",
"D  c #4E452C",
"F  c #51472E",
"G  c #52482F",
"H  c #474237",
"J  c #4B4335",
"K  c #44423D",
"L  c #4A443C",
"P  c #4F493C",
"I  c #544A30",
"U  c #52453C",
"Y  c #544B3D",
"T  c #594D3E",
"R  c #765D24",
"E  c #7F6427",
"W  c #413F41",
"Q  c #444442",
"!  c #4B4641",
"~  c #4B4945",
"^  c #4E4D49",
"/  c #544D43",
"(  c #5A4F42",
")  c #524E4B",
"_  c #565145",
"`  c #5B5246",
"'  c #55524C",
"]  c #5A544B",
"[  c #565451",
"{  c #5C5552",
"}  c #5C5951",
"|  c #625647",
" . c #625649",
".. c #655B4C",
"X. c #695D4E",
"o. c #705F46",
"O. c #655C51",
"+. c #695E51",
"@. c #685E59",
"#. c #6A604F",
"$. c #716047",
"%. c #756844",
"&. c #73654D",
"*. c #79674F",
"=. c #75684E",
"-. c #796A4F",
";. c #666053",
":. c #6C6353",
">. c #6F6857",
",. c #6D6458",
"<. c #6F6958",
"1. c #726655",
"2. c #786750",
"3. c #746955",
"4. c #7B6A52",
"5. c #726759",
"6. c #746959",
"7. c #796D5D",
"8. c #756C62",
"9. c #786E61",
"0. c #797164",
"q. c #947630",
"w. c #8A7246",
"e. c #81714E",
"r. c #8B754A",
"t. c #87784F",
"y. c #8D794C",
"u. c #91774C",
"i. c #927B4D",
"p. c #8D7D53",
"a. c #A4843F",
"s. c #9F8D5E",
"d. c #A68740",
"f. c #AF8F44",
"g. c #A68C4D",
"h. c #AB8D4D",
"j. c #AC914F",
"k. c #B5994F",
"l. c #A78D50",
"z. c #AB8E50",
"x. c #AB9151",
"c. c #BD9D50",
"v. c #BFA356",
"b. c #B5A16B",
"n. c #BBA56C",
"m. c #C3A45E",
"M. c #C4A95F",
"N. c #C3A560",
"B. c #C5A961",
"V. c #CAAC63",
"C. c #CCB066",
"Z. c #CCB16F",
"A. c #D2B66F",
"S. c #CDB270",
"D. c #CDB578",
"F. c #D2B770",
"G. c #D1B877",
/* pixels */
"  $ m R a.m.A.n.p.F e B (  . . . .X.| X.#.1.>.>.:.#.;... .O.....+.+.:.#.&.r.h.m.Z.n.p.G < * < 2 : # X * : : * X X X % 8 a u 8 , ",
"$ 3 m R a.m.Z.n.p.F i B /  .o.| | X.X.X.#.#.&.>.:.#.....O. .X.X.X.+.#.:.&.r.h.m.Z.n.p.D - * > , & # X & * : & # X X : 2 u u 8 : ",
"r m S q.a.m.S.n.p.F e B T | ......X...#.:.:.>.>.:.#.;.#.X.O.X...O.+.:.#.&.w.h.m.Z.n.p.F - & : : # @ X o & & & # X # : q a i q : ",
"R R R q.f.M.D.n.p.F e B ( ......X.X.#.#.:.:.#.5.3.>.#.;.+.X.+.X.X.X.#.#.=.w.g.m.Z.n.p.F - # & & # @ @ X @ @ & & # # ; t a i 2 : ",
"a.a.a.f.c.V.D.n.p.G e l ( ..#.#.#.:.:.>.>.:.5.5.5.6.1.:.:.+.+.:.:.#.#.#.&.r.g.m.Z.n.p.F < # # * # + + + + # & * & X & t u u t & ",
"m.m.m.m.V.A.D.n.p.I e C _ ..#.:.#.:.5.>.>.>.>.3.3.5.5.1.1.+.+.@.:.#.:.#.=.r.g.m.Z.n.p.F - % : > : # + O @ # & $ o # ; 2 y y t : ",
"V.Z.Z.A.F.G.D.b.t.D e v _ ;.#.#.:.>.>.<.>.>.>.:.5.1.:.:.+.+.+.:.:.#.#.3.-.y.j.m.Z.n.p.G - * > < > ; # O   . # * & o & t y y t ; ",
"N.n.n.n.n.n.b.l.%.N w l _ ....:.#.>.5.5.3.>.>.:.:.:.1.:.+.+.+.:.:.:.#.>.-.y.j.m.Z.n.p.G 4 % < < > : # + @ o $ $ $ # : t a a y 1 ",
"t.s.p.p.p.p.t.%.I r 8 k /  .X.+.:.,.5.5.6.1.:.>.>.>.5.,.>.#.:...;.:.:.#.-.u.h.B.S.n.p.F - * - < 2 : : % % $ * = * * : t a s p 2 ",
"D G G G I G D N r < 6 k U | ..+.:.:.>.1.3.1.:.:.>.5.5.5.>.,.:.:.X.;.#.#.*.u.h.N.F.n.p.F - * : < > 2 > > % % * > * % > t s s a t ",
"i d d e e i e w 9 9 w k U `  .O.:.:.:.:.:.:.#.:.#.>.5.1.:.:.:.;.+.O.X.X.*.r.z.N.Z.n.p.F < # : : 2 8 q 8 > $ $ $ % % , q s s p 2 ",
"L H C C C C l l l l B Z U `  .....+.+.:.:.:.X.....+.:.:.>.:.:.:.:.:.X.#.*.u.h.N.Z.n.p.F - + % > 8 8 7 8 5 % o o o % , y s f y 2 ",
"O.} ] ] _ ` _ _ ( ( T T ( | | ..O.O.+.:.:.:.:...O.+.+.:.:.:.:.:.;.:.+.:.2.y.z.N.Z.n.p.F > . # > 5 8 w 8 > * # . o & , w j f u 1 ",
"8.8.:.:.:.:.;.;....... ...........O.+.:.>.>.O.O.O.O.+.:.:.;.;.;.:.:.:.:.2.p.z.N.Z.n.p.F -   o > 5 8 8 8 > : * # & & < u j j a 1 ",
"0.8.<.,.>.>.:.,.:.:.:.:.X.......O.X.+.:.,.:.+...O.+.+.+.:.:.:.:.,.>.:.:.4.u.z.N.Z.n.p.F -   o : 5 8 5 2 > > : : & * 2 i j s y , ",
"0.8.5.5.:.>.:.;.,.,.:.:.@.X.X.X...+.+.@.,.+.O.O...O.+.:.:.:.:.,.>.>.>.>.3.p.l.N.Z.n.p.F - . # % > 2 > > > : : : # * < y s a t : ",
"0.9.6.5.:.:.+.;.O.:.:.:.O.O...O...O.:.O.:.O.....O.+.:.+.1.:.:.,.6.6.6.>.4.t.x.m.S.n.p.F > + # % : > < 2 > : ; % + % 5 t a p t : ",
"9.9.7.3.:.:.......X.O.+.+.....O.X.+.+.#.X.#.#.O.+.+.1.1.3.1.5.5.6.6.6.3.3.r.x.n.Z.n.p.F 4 # ; : : < 8 8 5 * % % + % > t p p 1 : ",
"9.7.7.7.3.:.:.....X.O.O..... . ...+.:.:.#.X.#.O.+.+.5.6.5.5.5.5.6.6.>.#.-.y.x.B.S.n.p.F 4 # % > > 8 w u 8 > % % % ; 5 t p p t : ",
"6.7.7.7.6.>.:.O.O.O.X.X... . ... .....X.X.:.X...X.:.3.6.7.5.6.5.5.5.>.:.&.y.x.B.S.n.p.F - % = < 5 7 u 8 5 = 5 = : > 1 p p p t 1 ",
"3.5.6.7.6.1.1.+.+......... . .|  . .....X.......O.:.5.3.5.5.+.5.1.5.+.:.=.y.j.B.S.n.s.D 4 * = < 8 8 8 2 < > > = * 5 8 y p u 8 5 ",
"3.3.3.5.5.3.5.1.:.X... . .| ` ]  . ... ..... .....:.1.5.1.1.@.1.:.:.+.:.=.y.j.B.S.n.t.D - $ > 8 q y 2 < : > > 5 > : 8 p u p t 5 ",
"5.3.>.:.1.5.5.1.:.X... . . .`  .` |  . . . ... .O.+.>.1.1.:.+.+.:.@.+.:.=.y.j.B.Z.n.p.D - o : 9 u u 9 : % ; % % % * 5 t p p t : ",
"1.1.>.:.>.1.6.5.:.X... . . .| ` | |  . .........O.:.:.5.1.:.+.+.+.+.+.+.=.y.j.B.Z.n.p.G < . * 2 u w q , % # % # + % 5 8 p p 2 : ",
":.>.1.>.>.,.5.1.:...X..... . . ...` | |  .........;.>.5.1.>.+.+.+.+.+.:.2.u.j.B.S.n.p.F - @ # > 9 9 < > : ; * % % % > t p p 8 % ",
"5.5.5.1.5.:.>.:.:.X.#.#...} ..}  .| | | | o...#.;.:.>.5.5.:.:.:.X.O.X.1.2.u.j.N.S.n.p.G -   . % : < < < > > < < : % > t p p 8 ; ",
"1.5.5.6.5.>.:.+.:.#.:...O..... . . .| .. .....#.:.:.1.>.1.1.1.#.X...+.:.2.u.j.N.S.n.p.F -     o * * > > > 8 w 8 5 ; > t a p t % ",
"5.5.5.6.5.5.+.X.X.X.:...........|  .| | o...#.#.1.1.1.1.1.:.#.X.X.X.X.+.2.u.j.N.S.n.p.F -     o * * * = > 8 w w 5 ; : t a p t ; ",
"1.1.5.5.>.:.X...X.X.....#......... .|  .X.X.X.:.1.5.:.:.X.:.#.X.......X.&.u.z.N.S.n.p.F -     . $ * * = > < 9 < > ; , q a a t : ",
"1.:.>.5.:.O.X. ...| ......#.:.:.+. . .X.X.X.#.:.:.1.#.X.X.X.#.X.X.X. .X.&.r.z.N.S.n.p.D -     . % * * * : : : * % * > y s a t : ",
">.:.>.:.:.O...| |  .o.....#.4.5.1.X.X.X.#.&.:.:.+.X.X...X...#...X. . .X.&.r.z.N.Z.n.y.F -       $ * = = * * % % # * 2 y s a y , ",
":.1.:.#.O.....|  ... .....#.4.3.1.:.1.+.1.#.:.#.X.............#.X.o.X.X.o.e.l.N.Z.n.p.F =     + % > > 4 : : # # # : 5 p f s y > ",
">.:.>.#.;.| ..| .. . ...X.o.5.2.1.2.1.1.:.1.+.1.X.| |  .| .. .X.X.X.X.X.o.w.l.N.Z.n.s.G - X   O : 1 8 6 : * & # # ; 5 i z f u 2 ",
">.>.:.:.#.#.#.#.X.X.X.X.X.+.+.1.4.1.2.1.1.o.1.+...| .. . .| X.X.X.X.X.X.o.u.l.N.Z.n.-.D - X O # : > 8 6 < * & @ @ * 2 u j f p > ",
">.;.;.#.#.#.#...@.+.+.+.+.X.+.&.1.4.2.5.1.1.1.X...|  . . .......X.+.+.X.*.y.l.m.S.n.s.G -   X # > 5 6 8 < * & & # & < y f f u > ",
">.>.#.;...#.;.#.+.:.1.1.+.+.+.o.5.4.1.2.&.1.&.+.o... . .| ....X.X.+.*.1.4.y.l.N.C.n.-.G - X X # : > 5 6 < - & & o & < y i d p 2 ",
"&.=.&.&.#.&.&.&.*.-.2.2.2.*.*.*.e.e.e.5.e.e.2.o.o.o.o.o.o.o.o.o.&.&.&.&.-.t.x.B.S.n.s.G - o & * : > > 6 6 9 2 - * * , q i d p t ",
"r.r.w.w.w.r.w.t.u.r.y.i.u.u.u.u.u.u.u.u.i.u.u.e.w.w.w.w.w.w.u.w.r.r.y.g.g.d.k.B.F.n.-.G - & , , > : = < 9 e d e w > > y i s u u ",
"j.j.g.g.g.g.g.h.l.h.z.z.j.h.h.h.c.i.i.c.j.j.h.h.f.i.g.h.h.h.h.h.j.h.j.j.j.k.v.C.F.n.s.G 9 - < 9 > : > < 9 g l l e < , 2 a i u 8 ",
"M.M.n.v.m.n.v.n.N.N.N.N.N.N.N.N.V.N.N.V.N.N.m.m.m.m.m.m.m.m.m.m.m.m.B.M.M.V.C.S.F.n.-.G - * 9 9 < < < 8 i k V l i < < q p u w 7 ",
"A.Z.A.C.Z.Z.Z.Z.Z.Z.Z.Z.Z.S.S.S.D.Z.Z.Z.Z.Z.Z.Z.Z.Z.Z.Z.Z.Z.Z.Z.Z.Z.Z.Z.Z.Z.F.G.D.b.t.F - $ * < , 9 9 w d k V h e < < t a y q < ",
"n.n.b.b.b.n.n.n.n.b.n.n.n.n.n.n.n.n.n.Z.n.n.n.n.n.n.n.n.n.n.n.n.n.n.n.n.n.n.n.n.b.s.%.N *   o * , , q w g k V M e < < t y y t < ",
"s.t.s.t.-.s.s.-.p.p.s.y.p.p.p.p.u.u.u.i.p.p.p.p.p.p.p.p.p.p.p.p.p.p.s.t.p.p.p.y.s.E I e .     # & - < w e h N N r 4 < q a a t 1 ",
"D D D D F G D G D D D F D F F F U U Z I G G G Z F F F F F F F F G F D D F G G F l h r =       O & : , 9 0 h N h r 6 < y s i p 1 ",
"- - - - - - - - = - = = - - - - - - - - 5 = 4 - - - - 4 - = - - - - * - = - = = * * .         O & ; , , 2 r r r 0 < < y s z y 1 ",
"        X X   X               . .   .           O .   .                         X X           # & ; > , < 6 0 7 9 : 1 y x z p 1 ",
"      . o + . X             X # $ $ $ .         O + $ $ o                       X @           O & : : , > 6 7 0 - * 2 a j j i 2 ",
"X . # % % $ % $ .           # * - - $ o         O + $ $ $ o .                   X X   @       # ; , : = : - 7 7 < = < i x j s y ",
"X o * * * * * = $ o .     . * - 9 9 - $ X @ @ @ @ o # % * # o X           O + + .         @ o % ; : : & : > = 4 = % 2 s l C x s ",
"X $ * * : = = = * $ # $ # * = 6 0 9 - #   @ @ X @ . # % & # # X O     O   O O + O @       o % % : & # # % % $ * $ : 9 k H H l d ",
"X o * * > * = = * $ * * * - 4 9 6 - * o     @ X X X # # # # # @ O O O     O + + . . @   X # * = $ # # # $ # $ o % * q l P P H i ",
"o & * * * : : * * * - 4 < - 6 4 < = # X @           @ # # # @ # # @ + + # + + # # # O @ X * > * % . . o # $ # . # * q C T T J g ",
"& & & * * * * * & = < 6 9 9 < > = * * # X O O   X   X . o X @ # # # # # % = > * ; # # + # % : : #   . o $ % o . o * w C T T P l ",
"& & # o # & * * & * = 6 9 9 < > : : # # @ O O   X X # # # o @ @ # # # : 5 5 5 7 > : # # % ; % # . . . # % % # + o * w B Y Y D l ",
"X X X X # $ # o # # * - - 6 , > : : # O O X   O X # * & o X O O X # & : 5 7 0 7 8 % # ; > = % . O O . % * * % # # = w k H L H g ",
"        X . o o   @ $ & > - * * # # O O         . # * # o X   O   X # * 5 7 0 7 5 % + % % % # O O O . $ % $ # # & * w j A H k g ",
"              X       . # $ $ # o .               @ # o       O     X @ % = 4 4 $ o @ o o o @       @ . o . o X # > u f Z Z x i ",
"      X .   X X       X o o o # # # o         @ O @ @ @ O O   O       O o # $ $ * & # # # o @ O   @ . # # # # # * 8 d c A A f w ",
": < < 2 < < , : : : 1 2 < 2 2 8 q q 8 2 , 1 1 1 , , 1 1 1 1 , , : : , , 1 1 2 q w i i y q 2 2 2 , 1 2 2 8 t 8 y u f k H L H k 8 ",
"j s l x x j s s a a s z z j x c v v v x j s s x z s z z z z s s a a a s s s j n P ~ L K n x x x z x c v n n b n K ! / _ ] ! c u ",
"W K L ! P K K n n n n n K Q K ~ _ ' ^ ! W Q W W W n W Q W W n n n x n n n n Q ^ ..;.O.[ ^ Q Q Q Q Q ~ ) ) ) ^ ) [ { O.@.O.] H s ",
"Q Q / / _ ^ Q n n n K K Q Q ! ^ ' ] ] ' ^ Q W W Q Q Q Q Q Q W n n n n n n n Q ) ;.>.;.[ [ ^ ~ Q Q ~ ) [ [ [ [ ) [ O.@.@.,.} ~ v ",
"n A ! ( _ _ K b x x v n n n n A L / _ / ~ W n n n n n n n n n x x x x x x x n K _ ' ^ ^ Q Q A n n Q ~ ^ ) ^ ) ) ) [ { O.O.' ^ Q ",
"s k J Y _ P C j s a a s s j s z x Z P Y L v x z x x x z x z s s s p a a a s s x v A v v n b x x x b A A K A K ! ! ! / ) ' ' ^ ~ "
};
