/* XPM */
static char *crystal_7[] = {
/* columns rows colors chars-per-pixel */
"64 64 154 2 ",
"   c black",
".  c black",
"X  c #020000",
"o  c None",
"O  c #0B0000",
"+  c #0F0000",
"@  c #140000",
"#  c #180000",
"$  c #1C0000",
"%  c #220000",
"&  c #260000",
"*  c #290000",
"=  c #2F0000",
"-  c #320000",
";  c #360000",
":  c #3D0000",
">  c #410000",
",  c #440000",
"<  c #4B0000",
"1  c #520000",
"2  c #560000",
"3  c #5C0000",
"4  c #5F0000",
"5  c #660000",
"6  c #690000",
"7  c #6F0000",
"8  c #730000",
"9  c #790000",
"0  c #7B0000",
"q  c #7C4200",
"w  c #830000",
"e  c #860000",
"r  c #8C0000",
"t  c #900000",
"y  c #910000",
"u  c #940000",
"i  c #960000",
"p  c #980000",
"a  c #9A0000",
"s  c #9C0000",
"d  c #9E0000",
"f  c #9F0000",
"g  c #900C00",
"h  c #A10000",
"j  c #A20000",
"k  c #A50000",
"l  c #A70000",
"z  c #A90000",
"x  c #AA0000",
"c  c #AC0000",
"v  c #AD0000",
"b  c #B00000",
"n  c #B20000",
"m  c #B30000",
"M  c #B40000",
"N  c #B60000",
"B  c #B90000",
"V  c #BA0000",
"C  c #BD0000",
"Z  c #BE0000",
"A  c #BF0000",
"S  c #892500",
"D  c #8F2D00",
"F  c #853000",
"G  c #A22400",
"H  c #AB2200",
"J  c #A02D00",
"K  c #BB2B00",
"L  c #C20000",
"P  c #C40000",
"I  c #C60000",
"U  c #CC0000",
"Y  c #CE0000",
"T  c #D80000",
"R  c #DA0000",
"E  c #DF0000",
"W  c #D41E00",
"Q  c #E10000",
"!  c #E30000",
"~  c #E70000",
"^  c #EA0000",
"/  c #EE0000",
"(  c #F30000",
")  c #F50000",
"_  c #F80000",
"`  c #FA0000",
"'  c red",
"]  c #FF0202",
"[  c #FF0707",
"{  c #FF0C0C",
"}  c #FF0E0E",
"|  c #FF1818",
" . c #FF1B1B",
".. c #FF1E1E",
"X. c #DD2900",
"o. c #FF2323",
"O. c #FF2727",
"+. c #FF3333",
"@. c #FF3737",
"#. c #FF3939",
"$. c #FF3C3C",
"%. c #FF3F3F",
"&. c #864000",
"*. c #974600",
"=. c #9B4100",
"-. c #B34300",
";. c #BE4500",
":. c #DA4400",
">. c #E14700",
",. c #FF4800",
"<. c #FF723B",
"1. c #FF4141",
"2. c #FF4444",
"3. c #FF4747",
"4. c #FF4848",
"5. c #FF5050",
"6. c #FF5151",
"7. c #FF5252",
"8. c #FF5858",
"9. c #FF5959",
"0. c #FF5C5C",
"q. c #FF5D5D",
"w. c #FF6363",
"e. c #FF6464",
"r. c #FF6969",
"t. c #FF6A6A",
"y. c #FF6C6C",
"u. c #FF6E6E",
"i. c #FF7171",
"p. c #FF7373",
"a. c #FF7474",
"s. c #FF7A7A",
"d. c #FF7B7B",
"f. c #FF8047",
"g. c #FF9867",
"h. c #FF8282",
"j. c #FF8484",
"k. c #FF8787",
"l. c #FF8888",
"z. c #FF8E8E",
"x. c #FF9191",
"c. c #FF9696",
"v. c #FF9898",
"b. c #FF9A9A",
"n. c #FFAB83",
"m. c #FFA4A4",
"M. c #FFB0B0",
"N. c #FFB6B6",
"B. c #FFC3A7",
"V. c #FFD7D7",
"C. c #FFE7E7",
"Z. c #FFF6F6",
"A. c #FFFDFD",
"S. c white",
/* pixels */
"                                                                                                                                ",
"                                                                                                                                ",
"                                                                                                                                ",
"                                                                                                                                ",
"                                                                                                                                ",
"                                                                                                                                ",
"                                                                                                                                ",
"                                                                                                                                ",
"                                                                                                                                ",
"                                                                                                                                ",
"                                                                                                                                ",
"                                                                                                                                ",
"                                                                                                                                ",
"                                                                                                                                ",
"                                                                                                                                ",
"                                                                                                                                ",
"                                                                                                                                ",
"                                                                                                                                ",
"                                                                                                                                ",
"                                                                                                                                ",
"                                                                                                                                ",
"                                                                                                                                ",
"                                                                                                                                ",
"                                                                                                                                ",
"                                                                                                                                ",
"                                                                                                                                ",
"                                                                                                                                ",
"                                                                                                                                ",
"                                                                                                                                ",
"                                              @ .                                                                               ",
"                                            @ m.S..                                                                             ",
"                                          @ m.S.y.1..                                                                           ",
"                                        @ m.S.S.a.B S..                                                                         ",
"                                        @ S.S.m.% . N P .                                                                       ",
"                                      @ S.+.+.i.: . . , o                                                                       ",
"      @ T                             @ l.+.+.w.w X O & o                                                                       ",
"      @ S.T                     T     @ k.A B r.l . i 1 o     @ @                                                               ",
"      @ m.S.T                 =.m.O   @ S.l c y.h 9 B a o   @ m.y                                                               ",
"      9 0 S.m.T               >.J + O @ Z.z ` d.i f B v o @ S.m.; ~                                                             ",
"      9 = N.S.-             @ G g.5 + S ;.&./ m.; b B f o 7.S.+.6 Z                                                             ",
"      9 = u.s.x.+           ( S.S.S.S.f.D 9 b m.; x B . o m.S.+.< 6.o                                                           ",
"      9 Z % e.V.j +         m g S.S.S.@ m., i ..> n N + N S.m./ @ l.+                                                           ",
"      9 # # z.S.e.+   + +   X.B.S.S.S.@ m.< x $., c 8 o m.S.m.o c @                                                             ",
"      # 9 # C S.m.+   + 9.:.<.W S.L n.H m.l 1 0.; a : N S.m.@ ` A @                                                             ",
"      @ 9 # # S.S.e.+ k.*.F @ m.S.( K ,.m.o.S.8.@ o o 7.S.) @ z n o                                                             ",
"      @ 9 M # S.S.m.+ h.f + + x V m.. -.m.S.m.A 1 . o m.S.+ X s .                                                               ",
"        @ ; S.S.S.S.Q 0.U { S.m.. T . @.q m.~ 7 = X N M.x.. 4 h .                                                               ",
"        . + ; S.j.N.e.! S.m.@.m.S.. M A @ m.| - . # | b.8 . u M . A U                                                           ",
"        . + ; = N p.N.k m.2.i . S.. L _ . M o.2 . % { ^ . t . . S.m.~                                                           ",
"          . o u * 4.c.j e.e.. . S.S.Y @.. y ^ = o [ R N o X x.S.m.- z                                                           ",
"          . o o = A 6.s o.8 . . ) S.S.~ . O f S.@  .m.+ * i m.m., . .                                                           ",
"          . . o . 8 ` S.#.7.. . 1 r.P i . . e m.& I z m.m.B > > . m..                                                           ",
"            . + o . 8 * 8 t.4 X : 3.P + . + 0 4 A M o . S.i 7 + v.S..                                                           ",
"            . + o . m.. o k 5.# 3 O.= . S.< * o I d O . v.3 - q.A.: .                                                           ",
"              . + k ^ b E p S.M ' ..# S.S.S.$ . $.j . S.S.a . C.M . o                                                           ",
"          . . + + & # 6 | e u | S.{ d & S.. & %.%.. V S.] . 6.y.P .                                                             ",
"          . r r > 6 P ` ) . & B S.R A u k.w X r . + 0 Y m . q.0 -                                                               ",
"          X 4 @ $ + t p S.. - I 4.+ . 5 S.V * # . . . p . c X & .                                                               ",
"            X . . . . o i . o k 7.; . t m.S.u - . . X . . O % .                                                                 ",
"              * o o o . , e % 7 f } h . @ 2.o + X . . . . 5                                                                     ",
"                      o X = - $ 2 < 8 6 6 o o o @                                                                               ",
"                                                                                                                                ",
"                                                                                                                                ",
"                                                                                                                                "
};
