/* XPM */
static char *result[] = {
/* columns rows colors chars-per-pixel */
"64 64 231 2 ",
"   c #010301",
".  c #020C02",
"X  c #0B0E07",
"o  c #021302",
"O  c #041B04",
"+  c #0C140B",
"@  c #0C1C0C",
"#  c #091807",
"$  c #161807",
"%  c #141D14",
"&  c #0C1511",
"*  c #311D05",
"=  c #042204",
"-  c #0B240C",
";  c #0C2B0C",
":  c #072608",
">  c #0C340C",
",  c #0B350B",
"<  c #0F2711",
"1  c #0E2A10",
"2  c #132B13",
"3  c #1C2B1B",
"4  c #182416",
"5  c #133314",
"6  c #133B14",
"7  c #1B331B",
"8  c #1B3C1B",
"9  c #183918",
"0  c #142C0A",
"q  c #29270A",
"w  c #292A13",
"e  c #372C13",
"r  c #22331C",
"t  c #273B1B",
"y  c #3B3213",
"u  c #3C3919",
"i  c #343518",
"p  c #322606",
"a  c #1B1F23",
"s  c #1E2423",
"d  c #1E2B23",
"f  c #1E3821",
"g  c #222C25",
"h  c #252B29",
"j  c #223523",
"k  c #273A26",
"l  c #2C3B25",
"z  c #29362A",
"x  c #333D28",
"c  c #2A3433",
"v  c #33393B",
"b  c #482A07",
"n  c #5A370D",
"m  c #423716",
"M  c #513C15",
"N  c #643E0E",
"B  c #0C470D",
"V  c #0C570B",
"C  c #1B421C",
"Z  c #174717",
"A  c #1F581B",
"S  c #234D1F",
"D  c #37411D",
"F  c #11730B",
"G  c #0F6608",
"H  c #1E4020",
"J  c #224422",
"K  c #2B4B25",
"L  c #2C412B",
"P  c #2C492A",
"I  c #284823",
"U  c #344E2D",
"Y  c #35452D",
"T  c #2B552D",
"R  c #32542C",
"E  c #3F592F",
"W  c #2D4131",
"Q  c #314434",
"!  c #334B33",
"~  c #354A3A",
"^  c #384839",
"/  c #3B543C",
"(  c #375937",
")  c #2D5E30",
"_  c #3D7B2B",
"`  c #38653A",
"'  c #267820",
"]  c #48451D",
"[  c #55451A",
"{  c #784A13",
"}  c #795416",
"|  c #704A13",
" . c #5E6A1F",
".. c #6D671D",
"X. c #5A4C25",
"o. c #4A5521",
"O. c #535327",
"+. c #434D35",
"@. c #4B5C3E",
"#. c #465537",
"$. c #515C3F",
"%. c #655229",
"&. c #4B613E",
"*. c #42623F",
"=. c #5B6F20",
"-. c #3B3D45",
";. c #373B45",
":. c #3B4444",
">. c #3F484A",
",. c #3B5141",
"<. c #42444D",
"1. c #404B4C",
"2. c #44574B",
"3. c #454955",
"4. c #4A4B53",
"5. c #474B57",
"6. c #4A5555",
"7. c #4C535A",
"8. c #4D5C5A",
"9. c #475652",
"0. c #53525D",
"q. c #595B5A",
"w. c #504F59",
"e. c #446444",
"r. c #496947",
"t. c #48684B",
"y. c #516545",
"u. c #576B47",
"i. c #467446",
"p. c #58744A",
"a. c #4D6453",
"s. c #4D6954",
"d. c #546C5B",
"f. c #566956",
"g. c #527255",
"h. c #55725A",
"j. c #597B59",
"k. c #4F7051",
"l. c #6F734B",
"z. c #545C65",
"x. c #4E5661",
"c. c #586962",
"v. c #5C7762",
"b. c #686F6B",
"n. c #875415",
"m. c #8A5816",
"M. c #955D17",
"N. c #87641A",
"B. c #996B1A",
"V. c #8D771A",
"C. c #AB731E",
"Z. c #905B23",
"A. c #997322",
"S. c #8B6B34",
"D. c #8C722E",
"F. c #BA7B22",
"G. c #AC7F2E",
"H. c #AE7D5B",
"J. c #218E13",
"K. c #3C883C",
"L. c #508B1E",
"P. c #64AD18",
"I. c #79B31D",
"U. c #478737",
"Y. c #48953C",
"T. c #569C24",
"R. c #659D31",
"E. c #7BBB3D",
"W. c #5E845C",
"Q. c #549153",
"!. c #57944C",
"~. c #658C5D",
"^. c #60875E",
"/. c #74895D",
"(. c #669D58",
"). c #5BA64D",
"_. c #5EA051",
"`. c #65A154",
"'. c #73AE50",
"]. c #6A9963",
"[. c #76A869",
"{. c #AC8C1F",
"}. c #938733",
"|. c #AC8827",
" X c #B68726",
".X c #B59B29",
"XX c #AE9929",
"oX c #92AE35",
"OX c #BBA829",
"+X c #BAAF33",
"@X c #C9982B",
"#X c #C4A32A",
"$X c #C8B433",
"%X c #D2AD38",
"&X c #D0C237",
"*X c #99914E",
"=X c #AD9D53",
"-X c #80AC4B",
";X c #B7A44D",
":X c #B5A258",
">X c #849272",
",X c #B39675",
"<X c #8EAA73",
"1X c #90A370",
"2X c #A6BC76",
"3X c #CB9841",
"4X c #9FC34F",
"5X c #9AC35C",
"6X c #A7C742",
"7X c #A1D34F",
"8X c #97C078",
"9X c #BBD674",
"0X c #C8D647",
"qX c #CBD54D",
"wX c #E2DD50",
"eX c #DBC868",
"rX c #D0DD6A",
"tX c #DEE070",
"yX c #858883",
"uX c #95978D",
"iX c #918E93",
"pX c #A8B78B",
"aX c #B7B8B7",
"sX c #A8A8A1",
"dX c #C0A78C",
"fX c #E5E4A8",
"gX c #CACAC6",
"hX c #DEDEDB",
"jX c #D9DEC6",
"kX c #DAE8D7",
"lX c None",
/* pixels */
"lXlXlXlXlXlXlXlXlXlXlXlXlXlXlXlXlXlXlXlXlXlXlXlXlXlXlXlXlXlXlXlXlXlXlXlXlXlXlXlXlXlXlXlXlXlXlXlXlXlXlXlXlXlXlXlXlXlXlXlXlXlXlXlX",
"lXlXlXlXlXlXlXlXlXlXlXlXlXlXlXlXlXlXlXlXlXlXlXlXlXlXlXlXlXlXlXlXlXlXlXlXlXlXlXlXlXlXlXlXlXlXlXlXlXlXlXlXlXlXlXlXlXlXlXlXlXlXlXlX",
"lXlXlXlXlXlXlXlXlXlXlXlXlXlXlXlXlXlXlXlXlXlXlXlXlXlXlXlXlXlXlXlXlXlXlXlXlXlXlXlXlXlXlXlXlXlXlXlXlXlXlXlXlXlXlXlXlXlXlXlXlXlXlXlX",
"lXlXlXlXlXlXlXlXlXlXlXlXlXlXlXlXlXlXlXlXlXlXlXlXlXlXlXlXlXlXlXlXlXlXlXlXlXlXlXlXlXlXlXlXlXlXlXlXlXlXlXlXlXlXlXlXlXlXlXlXlXlXlXlX",
"lXlXlXlXlXlXlXlXlXlXlXlXlXlXlXlXlXlXlXlXlXlXlXlXlXlXlXlXlXlXlXlXlXlXlXlXlXlXlXlXlXlXlXlXlXlXlXlXlXlXlXlXlXlXlXlXlXlXlXlXlXlXlXlX",
"lXlXlXlXlXlXlXlXlXlXlXlXlXlXlXlXlXlXlXlXlXlXlXlXlXlXlXlXlXlXlXlXlXlXlXlXlXlXlXlXlXlXlXlXlXlXlXlXlXlXlXlXlXlXlXlXlXlXlXlXlXlXlXlX",
"lXlXlXlXlXlXlXlXlXlXlXlXlXlXlXlXlXlXlXlXlXlXlXlXlXlXlXlXlXlXlXlXlXlXlXlXlXlXlXlXlXlXlXlXlXlXlXlXlXlXlXlXlXlXlXlXlXlXlXlXlXlXlXlX",
"lXlXlXlXlXlXlXlXlXlXlXlXlXlXlXlXlXlXlXlXlXlXlXlXlXlXlXlXlXlXlXlXlXlXlXlXlXlXlXlXlXlXlXlXlXlXlXlXlXlXlXlXlXlXlXlXlXlXlXlXlXlXlXlX",
"lXlXlXlXlXlXlXlXlXlXlXlXlXlXlXlXlXlXlXlXlXlXlXlXlXlXlXlXlXlXlXlXlXlXlXlXlXlXlXlXlXlXlXlXlXlXlXlXlXlXlXlXlXlXlXlXlXlXlXlXlXlXlXlX",
"lXlXlXlXlXlXlXlXlXlXlXlXlXlXlXlXlXlXlXlXlXlXlXlXlXlXlXlXlXlXlXlXlXlXlXlXlXlXlXlXlXlXlXlXlXlXlXlXlXlXlXlXlXlXlXlXlXlXlXlXlXlXlXlX",
"lXlXlXlXlXlXlXlXlXlXlXlXlXlXlXlXlXlXlXlXlXlXlXlXlXlXlXlXlXlXlXlXlXlXlXlXlXlXlXlXlXlXlXlXlXlXlXlXlXlXlXlXlXlXlXlXlXlXlXlXlXlXlXlX",
"lXlXlXlXlXlXlXlXlXlXlXlXlXlXlXlXlXlXlXlXlXlXlXlXlXlXlXlXlXlXlXlXlXlXlXlXlXlXlXlXlXlXlXlXlXlXlXlXlXlXlXlXlXlXlXlXlXlXlXlXlXlXlXlX",
"lXlXlXlXlXlXlXlXlXlXlXlXlXlXlXlXlXlXlXlXlXlXlXlX    lXlXlXlXlXlXlXlXlXlXlXlXlXlXlXlXlXlXlXlXlXlXlXlXlXlXlXlXlXlXlXlXlXlXlXlXlXlX",
"lXlXlXlXlXlXlXlXlXlXlXlXlXlXlXlXlXlXlXlXlXlXlXlXlXlXh % X   lXlXlXlXlXlXlXlXlXlXlXlXlXlXlXlXlXlXlXlXlXlXlXlXlXlXlXlXlXlXlXlXlXlX",
"lXlXlXlXlXlXlXlXlXlXlXlXlXlXlXlXlXlXlXlXlXlXlXlXlXlXlXh h g % + . lXlXlXlXlXlXlXlXlXlXlXlXlXlXlXlXlXlXlXlXlXlXlXlXlXlXlXlXlXlXlX",
"lXlXlXlXlXlXlXlXlXlXlXlXlXlXlXlXlXlXlXlXlXlXlXlXlXlXlXa h h k k j & lXlXlXlXlXlXlXlXlXlXlXlXlXlXlXlXlXlXlXlXlXlXlXlXlXlXlXlXlXlX",
"lXlXlXlXlXlXlXlX+ + % 4 @ 3 h g g g d 7 j 7 4 ; : : lXa g h j W ( #.k o lXlXlXlXlXlXlXlXlXlXlXlXlXlXlXlXlXlXlXlXlXlXlXlXlXlXlXlX",
"lXlXlXlXlXlXlXlXlXlXlXlXlXlXlXlX-.;.v ~ ^ a.s./ k ( 2 9 3 3 3 3 j Y ! % lXlXlXlXlXlXlXlXlXlXlXlXlXlXlXlXlXlXlXlXlXlXlXlXlXlXlXlX",
"lXlXlXlXlXlXlXlXlXlXlXlXlXlXlXlX;.x.:.8.s.d.e.W.k.W.r.p.l 0 ; r k k 4 @ O lXlXlXlXlXlXlXlXlXlXlXlXlXlXlXlXlXlXlXlXlXlXlXlXlXlXlX",
"lXlXlXlXlXlXlXlXlXlXlXlXlXlXlXlXlX3.8.8.v.h.g.j.~.].[.<X/.j.x 9 R *.@.x . ; lXlXlXlXlXlXlXlXlXlXlXlXlXlXlXlXlXlXlXlXlXlXlXlXlXlX",
"lXlXlXlXlXlXlXlXlXlXlXlXlXlXlXlXlX>.x.9.c.h.j.e.e.P P ( R Y t 0 5 K @.y.k O lXlXlXlXlXlXlXlXlXlXlXlXlXlXlXlXlXlXlXlXlXlXlXlXlXlX",
"lXlXlXlXlXlXlXlXlXlXlXlXlXlXlXlXb.5.z.v f d z W / W ! ( Y x z - , Z p.$.$ 2 lXlXlXlXlXlXlXlXlXlXlXlXlXlXlXlXlXlXlXlXlXlXlXlXlXlX",
"lXlXlXlXlXlXlXlXlXlXlXlXlXlXlXq.x.c c c ;.,.2.,.~ Q / ^ #.Q #.+.w #.1X#.k lXlXlXlXlXlXlXlXlXlXlXlXlXlXlXlXlXlXlXlXlXlXlXlXlXlXlX",
"lXlXlXlXlXlXlXlXlXlXlXlXlX4 s @ c -.>.>.>.>.:.:.1.2.d.d.r.#.@.Y S >X1Xt lXlXlXlXlXlXlX#X*X,XpX|.lXlXlXlXlXlXlXlXlXlXlXlXlXlXlXlX",
"lXlXlXlXlXlXlXlXlXlXlXX + lXlXlXlXlXlXlX<.:.;.5.7.8.a.g.k.&.#.4 u.8X/.6 lXlXlXlXlXB.m.n.| ,XZ.F.%XlXlXlXlXlXlXlXlXlXlXlXlXlXlXlX",
"lXlXlXlXlXlXlXlXlXlXlXlXlXlXlXlXlXlXlXlXlX<.q.5.6.c.W.j.k.y.#.: W.1X#.9 lXlXlXlXC.| N $ o y.uXS.C.A.lXlXlXlXlXlXlXlXlXlXlXlXlXlX",
"lXlXlXlXlXlXlXlXlXlXlXlXlXlXlXlXlXlXlXlXlX4.5.0.6.a.d.g.r.u.+.> &.p.% 0 lXlXlXB.n.b = , 6 C yXuXX.N.} lXlXlXlXlXlXlXlXlXlXlXlXlX",
"lXlXlXlXlXlXlXlXlXlXlXlXlXlXlXlXlXlXlXlXlX0.<.7.9.c.a./ *.y.@.5 8 $ o : lXlXXXM.p o ; I O.o.D S.O.t [ lXlXlXlXlXlXlXlXlXlXlXlXlX",
"lXlXlXlXlXlXlXlXlXlXlXlXlXlXlXlXlXlXlXlXlXlX5.5.c.2.,.,.T k 4 : C $.t O lXlXlXn X O t D.S... X@X}.=.=.A lXlXlXlXlXlXlXlXlXlXlXlX",
"lXlXlXlXlXlXlXlXlXlXlXlXlXlXlXlXlXlXlXlXlXz.5.6.~ z d f L Q ! & , $.u.O lXOXM.| o 5 %.eXlXlX XF.A.] (.U._ O.lXlXG lXlXlXlXlXlXlX",
"lXlXlXlXlXlXlXlXlXlXlXlXlXlXlXlXlXlXlXlXlX0.c d d c v ,.,.g.W.k = S /.+.0 lXlXp = 8 }.eXlXlX X XD.H.fXjXpXl.lXV lXlXlXlXlXlXlXlX",
"lXlXlXlXlXlXlXlXlXlXlXlXlXlXlXlXlXlXlXlX+ $ v v :.-.-.>.a.d.j.e.4 > K u.q n.n . ; Y :XeXlXlXOX|.$X%.3XwXoX~.A lXlXlXlXlXlXlXlXlX",
"lXlXlXlXlXlXlXlXlXlXlXlXlXlXlXlXlXlXlXX lXlXlXlXlXlX<.5.9.j.h.j.g.4 > 8 $ # @ = C  .eXlXlXlXlXlXlXl H.2X&X4X).lX`.`.lXlXV lXlXlX",
"lXlXlXlXlXlXlXlXlXlXlXlXlXlXlXlXlXlXlXlXlXlXlXlXlX  w.3.7.d.d.h.^.Y O 8 Z O 6 8 R ;X;X> lXlXlXlXlXlXgXhX0XwX6XP.!.'.Q.T lXlXlXlX",
"lXlXlXlXlXlXlXlXlXlXlXlXlXlXlXlXlXlXlXlXlXlXlXlXlXlXlX7.7.8.d.h.g.t.l - : . 7 ( ) ;X*XI lXlXlXlXlXlXY u.4XtX0XE.lXlXlXlXlXlXlXlX",
"lXlXlXlXlXlXlXlXlXlXlXlXlXlXlXlXlXlXlXlXlXlXlXlXlXlXlX7.7.7.z.d.s.r.# o = o O K i.*X/.6 Z lXlXlXlXlXlXlXlX9XrX9XY.'.lXlXlXlXlXlX",
"lXlXlXlXlXlXlXlXlXlXlXlXlXlXlXlXlXlXlXlXlXlXlXlXlXlXlXlX0.5.7.8./ o O O 1 - . 5 ` }.] ; ) ` lXlXlX= , 8 lXlX5XrX8XU.lXlXlXlXlXlX",
"lXlXlXlXlXlXlXlXlXlXlXlXlXlXlXlXlXlXlXlXlXlXlXlXlXlXlXlXlX0.5.3.# O = : 2 7 @ - T p.lX. = 6 8 1 O = : f.lX-X).4X7XJ.lXlXlXlXlXlX",
"lXlXlXlXlXlXlXlXlXlXlXlXlXlXlXlXlXlXlXlXlXlXlXlXlXlXlXlXN.e ;.& o - : 2 r i M o f i.lX  - ; C J ; lXc.uXkXR.(.!.oXP.L.lXlXlXlXlX",
"lXlXlXlXlXlXlXlXlXlXlXlXlXlXlXlXlXlXlXlXlXlXlXlXlXlXlXA.N + 1 1 - - 3 w m M X.q 5 ` lX          lXlXgXlXlXlXlXlXI.T._ K.lXlXlXlX",
"lXlXlXlXlXlXlXlXlXlXlXlXlXlXlXlXlXlXlXlXlXlXlXlXlXlXlXn * . @ 2 f f t M M x lXlX@ ) *.lXlXlXlXlXlXlXlXlXB lXlXL.).[._.F V lXlXlX",
"lXlXlXlXlXlXlXlXlXlXlXlXlXlXlXlXlXlXlXlXlXlXlXlXlXlXV.| *   o < 8 ) #.X.l 6 8   . 8 K lXlXlXlXlXlXlXlXlXlXlXlXlX).Y.F G lXlXlXlX",
"lXlXlXlXlXlXlXlXlXlXlXlXlXlXlXlXlXlXlXlXlXlXlXlXlX#Xn.n   . . o 2 f ` ( - < %     + Z > 8 J ` lXlXlXlXlXlXlX' lXlXV B lXlXlXlXlX",
"lXlXlXlXlXlXlXlXlXlXlXlXlXlXlXlXlXlXlXlXlXlXlXlX#Xn.b   . o   . o - 8 i.J # . lXlX  . # 2 J / b.lXlXlXlXlXlXlXlXlXB lXlXlXlXlXlX",
"lXlXlXlXlXlXlXlXlXlXlXlXlXlXlXlXlXlXlXlXlXlX Xm.b $ . . X $ $ $ X O # 8 5 o lXlXlXlXlXlXlXP yXaXlXlXlXlXlXlXlXlXlXlXlXlXlXlXlXlX",
"lXlXlX$X+X%X%X%X#X XlXlXlXlXlXlXlXlX@XF.| } p # O O = @ q m q o - 2 < = # lXlXlXlXlXlXlXlXiXlXlXlXlXlXlXlXlXlXlXlXlXlXlXlXlXlXlX",
"lXlXlXlX X|..X$XOXOX.XXX|.V.N.m.{ | u u S 8 0 > - 2 i y y lX. . < - o : - 1 5 >XlXlXlXlXlXlXlXlXlXlXlXlXlXlXlXlXlXlXlXlXlXlXlXlX",
"lXlXlXlXlX$X@X#X$XF.D.o.I K K K R R R U D t u y y e e lXlXlXlX  2 J - # : = = g.hXlXlXlXlXlXlXlXlXlXlXlXlXlXlXlXlXlXlXlXlXlXlXlX",
"lXlXlXlXlXlXlXlXlX%XlXlXlXlXi i i m e y y lXlXlXlXlXlXlXlXlXlXlX. < 2 6 ! aXlXq.sXlXlXlXlXlXlXlXlXlXlXlXlXlXlXlXlXlXlXlXlXlXlXlX",
"lXlXlXlXlXlXlXlXlXlXlXlXlXlXlXlXlXlXlXlXlXlXlXlXlXlXlXlXlXlXlXlXlX. z v.yXaXlXlXlXlXlXlXlXlXlXlXlXlXlXlXlXlXlXlXlXlXlXlXlXlXlXlX",
"lXlXlXlXlXlXlXlXlXlXlXlXlXlXlXlXlXlXlXlXlXlXlXlXlXlXlXlXlXlXlXlXlXlXlXlXlXlXlXlXlXlXlXlXlXlXlXlXlXlXlXlXlXlXlXlXlXlXlXlXlXlXlXlX",
"lXlXlXlXlXlXlXlXlXlXlXlXlXlXlXlXlXlXlXlXlXlXlXlXlXlXlXlXlXlXlXlXlXlXlXlXlXlXlXlXlXlXlXlXlXlXlXlXlXlXlXlXlXlXlXlXlXlXlXlXlXlXlXlX",
"lXlXlXlXlXlXlXlXlXlXlXlXlXlXlXlXlXlXlXlXlXlXlXlXlXlXlXlXlXlXlXlXlXlXlXlXlXlXlXlXlXlXlXlXlXlXlXlXlXlXlXlXlXlXlXlXlXlXlXlXlXlXlXlX",
"lXlXlXlXlXlXlXlXlXlXlXlXlXlXlXlXlXlXlXlXlXlXlXlXlXlXlXlXlXlXlXlXlXlXlXlXlXlXlXlXlXlXlXlXlXlXlXlXlXlXlXlXlXlXlXlXlXlXlXlXlXlXlXlX",
"lXlXlXlXlXlXlXlXlXlXlXlXlXlXlXlXlXlXlXlXlXlXlXlXlXlXlXlXlXlXlXlXlXlXlXlXlXlXlXlXlXlXlXlXlXlXlXlXlXlXlXlXlXlXlXlXlXlXlXlXlXlXlXlX",
"lXlXlXlXlXlXlXlXlXlXlXlXlXlXlXlXlXlXlXlXlXlXlXlXlXlXlXlXlXlXlXlXlXlXlXlXlXlXlXlXlXlXlXlXlXlXlXlXlXlXlXlXlXlXlXlXlXlXlXlXlXlXlXlX",
"lXlXlXlXlXlXlXlXlXlXlXlXlXlXlXlXlXlXlXlXlXlXlXlXlXlXlXlXlXlXlXlXlXlXlXlXlXlXlXlXlXlXlXlXlXlXlXlXlXlXlXlXlXlXlXlXlXlXlXlXlXlXlXlX",
"lXlXlXlXlXlXlXlXlXlXlXlXlXlXlXlXlXlXlXlXlXlXlXlXlXlXlXlXlXlXlXlXlXlXlXlXlXlXlXlXlXlXlXlXlXlXlXlXlXlXlXlXlXlXlXlXlXlXlXlXlXlXlXlX",
"lXlXlXlXlXlXlXlXlXlXlXlXlXlXlXlXlXlXlXlXlXlXlXlXlXlXlXlXlXlXlXlXlXlXlXlXlXlXlXlXlXlXlXlXlXlXlXlXlXlXlXlXlXlXlXlXlXlXlXlXlXlXlXlX",
"lXlXlXlXlXlXlXlXlXlXlXlXlXlXlXlXlXlXlXlXlXlXlXlXlXlXlXlXlXlXlXlXlXlXlXlXlXlXlXlXlXlXlXlXlXlXlXlXlXlXlXlXlXlXlXlXlXlXlXlXlXlXlXlX",
"lXlXlXlXlXlXlXlXlXlXlXlXlXlXlXlXlXlXlXlXlXlXlXlXlXlXlXlXlXlXlXlXlXlXlXlXlXlXlXlXlXlXlXlXlXlXlXlXlXlXlXlXlXlXlXlXlXlXlXlXlXlXlXlX",
"lXlXlXlXlXlXlXlXlXlXlXlXlXlXlXlXlXlXlXlXlXlXlXlXlXlXlXlXlXlXlXlXlXlXlXlXlXlXlXlXlXlXlXlXlXlXlXlXlXlXlXlXlXlXlXlXlXlXlXlXlXlXlXlX",
"lXlXlXlXlXlXlXlXlXlXlXlXlXlXlXlXlXlXlXlXlXlXlXlXlXlXlXlXlXlXlXlXlXlXlXlXlXlXlXlXlXlXlXlXlXlXlXlXlXlXlXlXlXlXlXlXlXlXlXlXlXlXlXlX",
"lXlXlXlXlXlXlXlXlXlXlXlXlXlXlXlXlXlXlXlXlXlXlXlXlXlXlXlXlXlXlXlXlXlXlXlXlXlXlXlXlXlXlXlXlXlXlXlXlXlXlXlXlXlXlXlXlXlXlXlXlXlXlXlX"
};
