/* XPM */
static char *result[] = {
/* columns rows colors chars-per-pixel */
"64 64 219 2 ",
"   c #010501",
".  c #010B02",
"X  c #0A0D03",
"o  c #080A08",
"O  c #140F04",
"+  c #031403",
"@  c #041B05",
"#  c #0A140A",
"$  c #061A08",
"%  c #0B1C0B",
"&  c #081505",
"*  c #141305",
"=  c #1C1D07",
"-  c #121B0D",
";  c #171909",
":  c #0E1F11",
">  c #131C14",
",  c #181B15",
"<  c #2D1B04",
"1  c #261C09",
"2  c #052406",
"3  c #0B240C",
"4  c #0C2B0C",
"5  c #082309",
"6  c #13220C",
"7  c #18260E",
"8  c #0F2511",
"9  c #0E2A12",
"0  c #122512",
"q  c #1D2314",
"w  c #132C14",
"e  c #1A2A14",
"r  c #1B2B1C",
"t  c #19251A",
"y  c #123314",
"u  c #1B321A",
"i  c #1B391B",
"p  c #183817",
"a  c #0C340D",
"s  c #29270B",
"d  c #392407",
"f  c #222C1D",
"g  c #282B13",
"h  c #26321D",
"j  c #393614",
"k  c #3A3712",
"l  c #1D3120",
"z  c #1C2425",
"x  c #212D22",
"c  c #242A2A",
"v  c #352B25",
"b  c #233323",
"n  c #2A3523",
"m  c #243C24",
"M  c #2A372C",
"N  c #333B24",
"B  c #2B2E34",
"V  c #2D3E33",
"C  c #2C3635",
"Z  c #323C3C",
"A  c #30323C",
"S  c #412907",
"D  c #452908",
"F  c #532F0A",
"G  c #5C3B0C",
"H  c #57370C",
"J  c #433514",
"K  c #423719",
"L  c #483B1A",
"P  c #573D12",
"I  c #41370A",
"U  c #6E3512",
"Y  c #1A4216",
"T  c #394B1B",
"R  c #2B432B",
"E  c #264828",
"W  c #32432E",
"Q  c #304A27",
"!  c #2E4433",
"~  c #3B4B34",
"^  c #35483D",
"/  c #374736",
"(  c #3B5A3D",
")  c #385437",
"_  c #5E430F",
"`  c #574913",
"'  c #475C19",
"]  c #50551B",
"[  c #67440F",
"{  c #644D0E",
"}  c #664915",
"|  c #704912",
" . c #7F4E14",
".. c #715B13",
"X. c #7B5A18",
"o. c #6D5613",
"O. c #756414",
"+. c #7B6418",
"@. c #7A7817",
"#. c #6E6C19",
"$. c #484924",
"%. c #574A21",
"&. c #464936",
"*. c #534935",
"=. c #435639",
"-. c #685429",
";. c #6A4E3C",
":. c #48643C",
">. c #79672F",
",. c #7E7026",
"<. c #746336",
"1. c #6C6431",
"2. c #393D49",
"3. c #384445",
"4. c #3D424B",
"5. c #3A4747",
"6. c #3C5442",
"7. c #3E5B44",
"8. c #414F4A",
"9. c #465D43",
"0. c #435B4B",
"q. c #495549",
"w. c #434A54",
"e. c #4A4D5E",
"r. c #434755",
"t. c #455156",
"y. c #4A525A",
"u. c #4B595C",
"i. c #475957",
"p. c #725C4D",
"a. c #426345",
"s. c #486443",
"d. c #45634A",
"f. c #4A654C",
"g. c #496A4A",
"h. c #596A4A",
"j. c #4D714D",
"k. c #5D704C",
"l. c #4E645B",
"z. c #4C6653",
"x. c #51655D",
"c. c #526C5D",
"v. c #4F7157",
"b. c #517554",
"n. c #54735B",
"m. c #567A56",
"M. c #63734D",
"N. c #767946",
"B. c #687D55",
"V. c #62675E",
"C. c #4E5362",
"Z. c #535566",
"A. c #5C5B64",
"S. c #565C6C",
"D. c #5A5D6B",
"F. c #545A68",
"G. c #5B5D74",
"H. c #625F6D",
"J. c #5C606C",
"K. c #586865",
"L. c #5B7B64",
"P. c #5A7569",
"I. c #5D7A69",
"U. c #577266",
"Y. c #5F7473",
"T. c #676968",
"R. c #636170",
"E. c #62786C",
"W. c #875717",
"Q. c #88671B",
"!. c #98671D",
"~. c #887C1B",
"^. c #97751C",
"/. c #A06D19",
"(. c #9E6821",
"). c #8C7330",
"_. c #9A7832",
"`. c #8F752D",
"'. c #A06B22",
"]. c #897851",
"[. c #5B835E",
"{. c #69815A",
"}. c #5F8765",
"|. c #648C68",
" X c #768E61",
".X c #679365",
"XX c #6F9076",
"oX c #7C8E70",
"OX c #7FAA78",
"+X c #86831B",
"@X c #A0881E",
"#X c #998C2A",
"$X c #AC9727",
"%X c #BE8E32",
"&X c #B0922D",
"*X c #B7A92C",
"=X c #81814E",
"-X c #AF9C51",
";X c #BCAE51",
":X c #839076",
">X c #8EA16F",
",X c #BDA660",
"<X c #D2AF53",
"1X c #C3BA66",
"2X c #CDBF74",
"3X c #DBC969",
"4X c #CDC66E",
"5X c #E2D36D",
"6X c #6E6E82",
"7X c #8B8E8C",
"8X c #9C9D99",
"9X c #8D9292",
"0X c #AFA08B",
"qX c #A0A09F",
"wX c #ADADAC",
"eX c #B7B2A1",
"rX c #C6C6C4",
"tX c #EAEBE7",
"yX c None",
/* pixels */
"yXyXyXyXyXyXyXyXyXyXyXyXyXyXyXyXyXyXyXyXyXyXyXyXyXyXyXyXyXyXyXyXyXyXyXyXyXyXyXyXyXyXyXyXyXyXyXyXyXyXyXyXyXyXyXyXyXyXyXyXyXyXyXyX",
"yXyXyXyXyXyXyXyXyXyXyXyXyXyXyXyXyXyXyXyXyXyXyXyXyXyXyXyXyXyXyXyXyXyXyXyXyXyXyXyXyXyXyXyXyXyXyXyXyXyXyXyXyXyXyXyXyXyXyXyXyXyXyXyX",
"yXyXyXyXyXyXyXyXyXyXyXyXyXyXyXyXyXyXyXyXyXyXyXyXyXyXyXyXyXyXyXyXyXyXyXyXyXyXyXyXyXyXyXyXyXyXyXyXyXyXyXyXyXyXyXyXyXyXyXyXyXyXyXyX",
"yXyXyXyXyXyXyXyXyXyXyXyXyXyXyXyXyXyXyXyXyXyXyXyXyXyXyXyXyXyXyXyXyXyXyXyXyXyXyXyXyXyXyXyXyXyXyXyXyXyXyXyXyXyXyXyXyXyXyXyXyXyXyXyX",
"yXyXyXyXyXyXyXyXyXyXyXyXyXyXyXyXyXyXyXyXyXyXyXyXyXyXyXyXyXyXyXyXyXyXyXyXyXyXyXyXyXyXyXyXyXyXyXyXyXyXyXyXyXyXyXyXyXyXyXyXyXyXyXyX",
"yXyXyXyXyXyXyXyXyXyXyXyXyXyXyXyXyXyXyXyXyXyXyXyXyXyXyXyXyXyXyXyXyXyXyXyXyXyXyXyXyXyXyXyXyXyXyXyXyXyXyXyXyXyXyXyXyXyXyXyXyXyXyXyX",
"yXyXyXyXyXyXyXyXyXyXyXyXyXyXyXyXyXyXyXyXyXyXyXyXyXyXyXyXyXyXyXyXyXyXyXyXyXyXyXyXyXyXyXyXyXyXyXyXyXyXyXyXyXyXyXyXyXyXyXyXyXyXyXyX",
"yXyXyXyXyXyXyXyXyXyXyXyXyXyXyXyXyXyXyXyXyXyXyXyXyXyXyXyXyXyXyXyXyXyXyXyXyXyXyXyXyXyXyXyXyXyXyXyXyXyXyXyXyXyXyXyXyXyXyXyXyXyXyXyX",
"yXyXyXyXyXyXyXyXyXyXyXyXyXyXyXyXyXyXyXyXyXyXyXyXyXyXyXyXyXyXyXyXyXyXyXyXyXyXyXyXyXyXyXyXyXyXyXyXyXyXyXyXyXyXyXyXyXyXyXyXyXyXyXyX",
"yXyXyXyXyXyXyXyXyXyXyXyXyXyXyXyXyXyXyXyXyXyXyXyXyXyXyXyXyXyXyXyXyXyXyXyXyXyXyXyXyXyXyXyXyXyXyXyXyXyXyXyXyXyXyXyXyXyXyXyXyXyXyXyX",
"yXyXyXyXyXyXyXyXyXyXyXyXyXyXyXyXyXyXyXyXyXyXyXyXyXyXyXyXyXyXyXyXyXyXyXyXyXyXyXyXyXyXyXyXyXyXyXyXyXyXyXyXyXyXyXyXyXyXyXyXyXyXyXyX",
"yXyXyXyXyXyXyXyXyXyXyXyXyXyXyXyXyXyXyXyXyXyXyXyXyXyXyXyXyXyXyXyXyXyXyXyXyXyXyXyXyXyXyXyXyXyXyXyXyXyXyXyXyXyXyXyXyXyXyXyXyXyXyXyX",
"yXyXyXyXyXyXyXyXyXyXyXyXyXyXyXyXyXyXyXyXyXyXyXyXyXyXyXyXyXyXyXyXyXyXyXyXyXyXyXyXyXyXyXyXyXyXyXyXyXyXyXyXyXyXyXyXyXyXyXyXyXyXyXyX",
"yXyXyXyXyXyXyXyXyXyXyXyXyXyXyXyXyXyXyXyXyXyXyXyXyXyXyXyXyXyXyXyXyXyXyXyXyXyXyXyXyXyXyXyXyXyXyXyXyXyXyXyXyXyXyXyXyXyXyXyXyXyXyXyX",
"yXyXyXyXyXyXyXyXyXyXyXyXyXyXyXyXyXyXyXyXyXyXyXyXyXyXyXyXyXyXyXyX*X!.W.yXyXyXyXyXyXyXyXyXyXyXyXyXyXyXyXyXyXyXyXyXyXyXyXyXyXyXyXyX",
"yXyXyXyXyXyXyXyXyXyXyXyXyXyXyXyXyXyXyXyXyXyXyXyXyXyXyXyXtXT.:X_.W. .P g yXyX7 yXyXyXyXyXyXyXyXyXyXyXyXyXyXyXyXyXyXyXyXyXyXyXyXyX",
"yXyXyXyXyXyXyXyXyXyXyXyXyXyXyXyXyXyXyXyXyXyXyXyXyXyXyXyXyXeX0X].&.j T ' Y Y ` Q yXyXyXyXyXyXyXyXyXyXyXyXyXyXyXyXyXyXyXyXyXyXyXyX",
"yXyXyXyXyXyXyXyXyXyXyXyXyXyXyXyXyXyXyXyXyXyXyXyXyXyXyXyX+XG *.q.p.).T ' =.E.8XyXyXyXyXyXyXyXyXyXyXyXyXyXyXyXyXyXyXyXyXyXyXyXyXyX",
"yXyXyXyXyXyXyXyXyXyXyXyXyXyXyXyXyXyXyXyXyXyXyXyXyXyXyXyX+. .d s (.(.` N <.;.U rXyXyXyXyXyXyXyXyXyXyXyXyXyXyXyXyXyXyXyXyXyXyXyXyX",
"yXyXyXyXyXyXyXyXyXyXyXyXyXyXyXyXyX        . . . yXyXyXyXQ.[ & k >.(.W...%., v T.yXyXyXyXyXyXyXyXyXyXyXyXyXyXyXyXyXyXyXyXyXyXyXyX",
"yXyXyXyXyXyXyXyXyXyXyXyXyX    o o 0 h m W W b &   . yXyX^.G + w ).%XX.$XyXyXyXyXyXyXyXyXyXyXyXyXyXyXyXyXyXyXyXyXyXyXyXyXyXyXyXyX",
"yXyXyXyXyXyXyXyXyXyXo o o # > > x b x R ! n > - X   . yX$XH + u `.%X&XyXyXyXyXyXyXyXyXyXyXyXyXyXyXyXyXyXyXyXyXyXyXyXyXyXyXyXyXyX",
"yXyXyXyXyXyXyX      yX> 0 9 w e w 4 4 4 a 2 u ~ &.N . yX^.G + 4 $.,X3XyXyXyXyXyXyXyXyXyXyXyXyXyXyXyXyXyXyXyXyXyXyXyXyXyXyXyXyXyX",
"yXyXyXyXyXyXyXyX@ 4 w r m 7.g.m. Xk.W 6 4 4 a ~ h.=.% yX*XW.< + w ,.5X<XyXyXyXyXyXyXyXyXyXyXyXyXyXyXyXyXyXyXyXyXyXyXyXyXyXyXyXyX",
"yXyXyXyXyXyX3 w u V z.d.j..X.XOX>Xm w r n n 0 s.M.B.h # yX^.F X $ u <.<X2XyXyXyXyXyXyXyXyXyXyXyXyXyXyXyXyXyXyXyXyXyXyXyXyXyXyXyX",
"yXyXyXyX5 r x C ^ z.6.|.|..Xj.E ) 6.9.) &.&.e ~ h. XM.& yXyX .D + @ m #X3X<XyXyXyXyXyXyXyXyXyXyXyXyXyXyXyXyXyXyXyXyXyXyXyXyXyXyX",
"yXyX0 r c B Z 8.l.L.XXL.b.( 7.a.( ( g.f.~ / , w M.>X>X6 yXyXyXW.S + 4 W -X3XyXyXyXyXyXb 9XwXyXyXyXyXyXyXyXyXyXyXyXyXyXyXyXyXyXyX",
"% t c A 2.Z.w.8.x.P.I.n.E 6.v.a.^ 0.d.b.9.~ b @ s.{.{.h + yXyX@XF   @ r 1.4XN.5 yXyX. 5 yXyXyXyXyXyXyXyXyXyXyXyXyXyXyXyXyXyXyXyX",
"yXyXyXyXyXyXJ.4.Y.K.E.M 6.U.U.6.6.I.L.j.j.a.N % i s.m.e   . yX@X[ X % 3 4 ).-Xa yXyX. + yXyXyXyXyXyXyXyXyXyXyXyXyXyXyXyXyXyXyXyX",
"yXyXyXyXyXyX6Xw.D.t.^ ^ l.0.U.3.l.q.U.m.m.g.^ n 6 w N - f f q *     8 w u p 1X=X2 yX@ yXyXyXyXyXyXyXyXyXyXyXyXyXyXyXyXyXyXyXyXyX",
"yXyXyXyXyXyXyXG.w.K.C t.3.F.i.2.t.U.n.L.[.d.=.=.t > @ 4 0 r h 0 i $ + + : E ;X;Xp 9 / 8XyXyXyXyXyXyXyXyXyXyXyXyXyXyXyXyXyXyXyXyX",
"yXyXyXyXyXyXyXyXR.Z e.r.Z.C.r.4.F.l.P.I.b.d.) m ( a.R r 6 % @ w y 3 . . % R N.<.3 V T.qXyXyXyXyXyXyXyXyXyXyXyXyXyXyXyXyXyXyXyXyX",
"yXyXyXyXyXyXyXyXK.e.D.r.S.R.A.2.S.C.U.I.z.6.E v.}.v.n.f.m.a.m b + + % # . E 1X].+ M r yXyXyXyXyXyXyXyXyXyXyXyXyXyXyXyXyXyXyXyXyX",
"yXyXyXyXyXyXyXV.x yXyXyXyXyXyXT.S.S.Y.l.7.! d.P.U.z.c.c.n.n.n.6.. + 3 3 + u _.s 8 w yXyXyXyXyXyXyXyXyXyXyXyXyXyXyXyXyXyXyXyXyXyX",
"yXyXyXyXyXyXyXC yXyXyXyXyXyXyXyXe.S.G.U.5.! F.K.t.t.y.u.x.l.8.t + @ 3 0 . $ @ @ % yXyXyXyXyXyXyXyXyXyXyXyXyXyXyXyXyXyXyXyXyXyXyX",
"yXyXyXyXyXyX> yXyXyXyXyXyXyXyXyXyXG.S.4.M 4.Z.4.2.e.Z.D.y.u.^ + + 5 9 0 O = . + yXyXyXyXyXyXyXyXyXyXyXyXyXyXyXyXyXyXyXyXyXyXyXyX",
"yXyXyXyXyXyX% yXyXyX..yXyXyXyXyXyXyXC.2.4.A.,   yXyXyXyXv r.z . 3 8 e %.*.L yXyXyXyXyXyXyXyXyXyXyXyXyXyXyXyXyXyXyXyXyXyXyXyXyXyX",
"yXyXyXyXyXyXyXyXyXyX..*XyXyXyXyXyXyXD.Z A.yXo yXyXyXyXO.1 % 5 2 % w J -.>.yXyXyXyXyXyXyXyXyXyXyXyXyXyXyXyXyXyXyXyXyXyXyXyXyXyXyX",
"yXyXyXyXyXyXyXyXyXyX{ X.yXyXyXyXyXyXB , yXyX# yXyXyX@.{   # 9 y 9 g -.-.j yXyXyXyXyXyXyXyXyXyXyXyXyXyXyXyXyXyXyXyXyXyXyXyXyXyXyX",
"yXyXyXyXyXyXyXyXyXyX#X} /.yXyXyXyXyX# yXyXyXyXyXyXyX} S o . % w E %.>.$.Y yXyXyXyXyXyXyXyXyXyXyXyXyXyXyXyXyXyXyXyXyXyXyXyXyXyXyX",
"yXyXyXyXyXyXyXyXyXyX@XW.'.yXyXyXyXyX# yXyXyXyXyXyXyX[ D     . 8 E :.1.: 4 y yXyXyXyXyXyXyXyXyXyXyXyXyXyXyXyXyXyXyXyXyXyXyXyXyXyX",
"yXyXyXyXyXyXyXyXyXyX+.o.Q.`.yXyXyXyXyXyXyXyXyXyXyX@.U s   .   # w 7.) + % 8 yXyXyXyXyXyXyXyXyXyXyXyXyXyXyXyXyXyXyXyXyXyXyXyXyXyX",
"yXyXyXyXyXyXyXyXyXyXyX+X#.+.yXyXyXyXyXyXyXyXyXyXyX@.H X . % O   $ p a.4 5 # yXyXyXyXyXyXyXyXyXyXyXyXyXyXyXyXyXyXyXyXyXyXyXyXyXyX",
"yXyXyXyXyXyXyXyXyXyXyXyX{ k ` yXyXyXyXyXyXyXyXyX~.[ *   . s K *   + p 9 @ # yXyXyXyXyXyXyXyXyXyXyXyXyXyXyXyXyXyXyXyXyXyXyXyXyXyX",
"yXyXyXyXyXyXyXyXyXyXyXyX!.P e I +XyXyXyXyXyXyXyXO.d   + - L -.yX$ 8 @ + + yXyXyXyXyXyXyXyXyXyXyXyXyXyXyXyXyXyXyXyXyXyXyXyXyXyXyX",
"yXyXyXyXyXyXyXyXyXyXyXyXyXyXs e s _ yXyXyXyXyX+.S   + 6 j j * . 9 3 @ 8 @ yXyXyXyXyXyXyXyXyXyXyXyXyXyXyXyXyXyXyXyXyXyXyXyXyXyXyX",
"yXyXyXyXyXyXyXyXyXyXyXyXyXyXyX- 7 6 D O.| | H < . + > J J yX  . 8 @   % 5 4 3 yXyXyXyXyXyXyXyXyXyXyXyXyXyXyXyXyXyXyXyXyXyXyXyXyX",
"yXyXyXyXyXyXyXyXyXyXyXyXyXyXyXyX= 6 2 @ & & + + @ q J j yXyX  . w 3 + $ @ + 2 d.rXyXyXyXyXyXyXyXyXyXyXyXyXyXyXyXyXyXyXyXyXyXyXyX",
"yXyXyXyXyXyXyXyXyXyXyXyXyXyXyXyXyXyXg - 6 6 - 7 g J yXyXyXyXyX@ . > 4 y ^ 8XyXT.7XyXyXyXyXyXyXyXyXyXyXyXyXyXyXyXyXyXyXyXyXyXyXyX",
"yXyXyXyXyXyXyXyXyXyXyXyXyXyXyXyXyXyXyXyXyX= 1 s yXyXyXyXyXyXyXyXyX  x K.7XwXyXyXyXyXyXyXyXyXyXyXyXyXyXyXyXyXyXyXyXyXyXyXyXyXyXyX",
"yXyXyXyXyXyXyXyXyXyXyXyXyXyXyXyXyXyXyXyXyXyXyXyXyXyXyXyXyXyXyXyXyXyXyXyXyXyXyXyXyXyXyXyXyXyXyXyXyXyXyXyXyXyXyXyXyXyXyXyXyXyXyXyX",
"yXyXyXyXyXyXyXyXyXyXyXyXyXyXyXyXyXyXyXyXyXyXyXyXyXyXyXyXyXyXyXyXyXyXyXyXyXyXyXyXyXyXyXyXyXyXyXyXyXyXyXyXyXyXyXyXyXyXyXyXyXyXyXyX",
"yXyXyXyXyXyXyXyXyXyXyXyXyXyXyXyXyXyXyXyXyXyXyXyXyXyXyXyXyXyXyXyXyXyXyXyXyXyXyXyXyXyXyXyXyXyXyXyXyXyXyXyXyXyXyXyXyXyXyXyXyXyXyXyX",
"yXyXyXyXyXyXyXyXyXyXyXyXyXyXyXyXyXyXyXyXyXyXyXyXyXyXyXyXyXyXyXyXyXyXyXyXyXyXyXyXyXyXyXyXyXyXyXyXyXyXyXyXyXyXyXyXyXyXyXyXyXyXyXyX",
"yXyXyXyXyXyXyXyXyXyXyXyXyXyXyXyXyXyXyXyXyXyXyXyXyXyXyXyXyXyXyXyXyXyXyXyXyXyXyXyXyXyXyXyXyXyXyXyXyXyXyXyXyXyXyXyXyXyXyXyXyXyXyXyX",
"yXyXyXyXyXyXyXyXyXyXyXyXyXyXyXyXyXyXyXyXyXyXyXyXyXyXyXyXyXyXyXyXyXyXyXyXyXyXyXyXyXyXyXyXyXyXyXyXyXyXyXyXyXyXyXyXyXyXyXyXyXyXyXyX",
"yXyXyXyXyXyXyXyXyXyXyXyXyXyXyXyXyXyXyXyXyXyXyXyXyXyXyXyXyXyXyXyXyXyXyXyXyXyXyXyXyXyXyXyXyXyXyXyXyXyXyXyXyXyXyXyXyXyXyXyXyXyXyXyX",
"yXyXyXyXyXyXyXyXyXyXyXyXyXyXyXyXyXyXyXyXyXyXyXyXyXyXyXyXyXyXyXyXyXyXyXyXyXyXyXyXyXyXyXyXyXyXyXyXyXyXyXyXyXyXyXyXyXyXyXyXyXyXyXyX",
"yXyXyXyXyXyXyXyXyXyXyXyXyXyXyXyXyXyXyXyXyXyXyXyXyXyXyXyXyXyXyXyXyXyXyXyXyXyXyXyXyXyXyXyXyXyXyXyXyXyXyXyXyXyXyXyXyXyXyXyXyXyXyXyX",
"yXyXyXyXyXyXyXyXyXyXyXyXyXyXyXyXyXyXyXyXyXyXyXyXyXyXyXyXyXyXyXyXyXyXyXyXyXyXyXyXyXyXyXyXyXyXyXyXyXyXyXyXyXyXyXyXyXyXyXyXyXyXyXyX",
"yXyXyXyXyXyXyXyXyXyXyXyXyXyXyXyXyXyXyXyXyXyXyXyXyXyXyXyXyXyXyXyXyXyXyXyXyXyXyXyXyXyXyXyXyXyXyXyXyXyXyXyXyXyXyXyXyXyXyXyXyXyXyXyX",
"yXyXyXyXyXyXyXyXyXyXyXyXyXyXyXyXyXyXyXyXyXyXyXyXyXyXyXyXyXyXyXyXyXyXyXyXyXyXyXyXyXyXyXyXyXyXyXyXyXyXyXyXyXyXyXyXyXyXyXyXyXyXyXyX",
"yXyXyXyXyXyXyXyXyXyXyXyXyXyXyXyXyXyXyXyXyXyXyXyXyXyXyXyXyXyXyXyXyXyXyXyXyXyXyXyXyXyXyXyXyXyXyXyXyXyXyXyXyXyXyXyXyXyXyXyXyXyXyXyX",
"yXyXyXyXyXyXyXyXyXyXyXyXyXyXyXyXyXyXyXyXyXyXyXyXyXyXyXyXyXyXyXyXyXyXyXyXyXyXyXyXyXyXyXyXyXyXyXyXyXyXyXyXyXyXyXyXyXyXyXyXyXyXyXyX"
};
