/* XPM */
static char *result[] = {
/* columns rows colors chars-per-pixel */
"64 64 226 2 ",
"   c #000400",
".  c #010B01",
"X  c #0C0801",
"o  c #031303",
"O  c #041B03",
"+  c #0B150A",
"@  c #061B09",
"#  c #0D1B0B",
"$  c #091806",
"%  c #10190C",
"&  c #181805",
"*  c #131D14",
"=  c #0F1E10",
"-  c #261904",
";  c #321E04",
":  c #052305",
">  c #072309",
",  c #0B230C",
"<  c #0B2B0B",
"1  c #082806",
"2  c #13240B",
"3  c #1A270D",
"4  c #102A0F",
"5  c #0D340C",
"6  c #0E3A0D",
"7  c #10380F",
"8  c #0D2D11",
"9  c #0F2711",
"0  c #122B13",
"q  c #1B2A15",
"w  c #1B2A1C",
"e  c #182419",
"r  c #0F3611",
"t  c #133415",
"y  c #143C15",
"u  c #173219",
"i  c #1B331C",
"p  c #193919",
"a  c #2C260E",
"s  c #26240B",
"d  c #37290A",
"f  c #2A2B12",
"g  c #342D11",
"h  c #25381B",
"j  c #373616",
"k  c #343B05",
"l  c #1D1E21",
"z  c #1E3C20",
"x  c #232C27",
"c  c #223424",
"v  c #28372B",
"b  c #313B29",
"n  c #292D32",
"m  c #2E3C33",
"M  c #2E3233",
"N  c #343839",
"B  c #482D09",
"V  c #542D08",
"C  c #57360A",
"Z  c #463917",
"A  c #683C0E",
"S  c #1C411B",
"D  c #184217",
"F  c #145213",
"G  c #24481E",
"H  c #304013",
"J  c #18710F",
"K  c #297716",
"L  c #296614",
"P  c #214423",
"I  c #2B412C",
"U  c #284828",
"Y  c #37492A",
"T  c #2B512C",
"R  c #285924",
"E  c #325B2C",
"W  c #364837",
"Q  c #3C553C",
"!  c #3D5B3C",
"~  c #365535",
"^  c #2F4A34",
"/  c #376638",
"(  c #39753A",
")  c #367528",
"_  c #564B1E",
"`  c #4B4D11",
"'  c #664815",
"]  c #764711",
"[  c #7B5916",
"{  c #675214",
"}  c #786616",
"|  c #7C7A1A",
" . c #464B29",
".. c #59582A",
"X. c #4B5A3D",
"o. c #435639",
"O. c #4D4C37",
"+. c #604B22",
"@. c #48653D",
"#. c #4B772B",
"$. c #686827",
"%. c #6B7538",
"&. c #383C42",
"*. c #3D434B",
"=. c #3E4E46",
"-. c #3E5545",
";. c #3F4250",
":. c #3F6D41",
">. c #415C44",
",. c #48594A",
"<. c #4E4E5C",
"1. c #454A53",
"2. c #485656",
"3. c #4C5857",
"4. c #53585D",
"5. c #4E4C4A",
"6. c #476646",
"7. c #556644",
"8. c #467747",
"9. c #58724C",
"0. c #4D6354",
"q. c #566B5C",
"w. c #506B54",
"e. c #537355",
"r. c #5C755F",
"t. c #587956",
"y. c #68754E",
"u. c #697C53",
"i. c #4F4F60",
"p. c #535664",
"a. c #565A68",
"s. c #5E5E72",
"d. c #505162",
"f. c #5A6D63",
"g. c #5A6568",
"h. c #5C7462",
"j. c #5E7965",
"k. c #647869",
"l. c #656977",
"z. c #687873",
"x. c #606B6C",
"c. c #875A16",
"v. c #9A5C1A",
"b. c #A05D1C",
"n. c #9D651A",
"m. c #90611F",
"M. c #9B7C1D",
"N. c #837218",
"B. c #A9711D",
"V. c #917432",
"C. c #A97A22",
"Z. c #AD6F2F",
"A. c #85764E",
"S. c #368B29",
"D. c #539517",
"F. c #6B9B1A",
"G. c #448734",
"H. c #599730",
"J. c #76852F",
"K. c #6CAF3C",
"L. c #478448",
"P. c #5A845A",
"I. c #5D9959",
"U. c #648456",
"Y. c #72885B",
"T. c #6FA45F",
"R. c #668A67",
"E. c #689466",
"W. c #7B9363",
"Q. c #6C8873",
"!. c #749876",
"~. c #738E60",
"^. c #79A968",
"/. c #87871A",
"(. c #92AF1F",
"). c #BA8A26",
"_. c #B59E29",
"`. c #B4843B",
"'. c #AE9C2D",
"]. c #96B220",
"[. c #BBA528",
"{. c #B6AD2E",
"}. c #C7942C",
"|. c #C98C2F",
" X c #C7A12F",
".X c #C8B836",
"XX c #C9AE30",
"oX c #C3C926",
"OX c #908A4D",
"+X c #A9884D",
"@X c #94BA47",
"#X c #BCA642",
"$X c #A8A54D",
"%X c #8B9668",
"&X c #8E9D7F",
"*X c #B99671",
"=X c #8BAD78",
"-X c #99AD71",
";X c #8AB776",
":X c #95B174",
">X c #A7B87A",
",X c #CBB453",
"<X c #D5BD67",
"1X c #B4C84E",
"2X c #AFC66A",
"3X c #DAD653",
"4X c #CECD6C",
"5X c #E4E07B",
"6X c #787583",
"7X c #696981",
"8X c #7A8485",
"9X c #909488",
"0X c #9FB290",
"qX c #9F9EA2",
"wX c #A5AAA3",
"eX c #BBBCB9",
"rX c #C2AF96",
"tX c #BCD68C",
"yX c #AECD8C",
"uX c #D3CE83",
"iX c #E6E682",
"pX c #D3C7A1",
"aX c #D9D9D6",
"sX c #C7C8C6",
"dX c gray95",
"fX c None",
/* pixels */
"fXfXfXfXfXfXfXfXfXfXfXfXfXfXfXfXfXfXfXfXfXfXfXfXfXfXfXfXfXfXfXfXfXfXfXfXfXfXfXfXfXfXfXfXfXfXfXfXfXfXfXfXfXfXfXfXfXfXfXfXfXfXfXfX",
"fXfXfXfXfXfXfXfXfXfXfXfXfXfXfXfXfXfXfXfXfXfXfXfXfXfXfXfXfXfXfXfXfXfXfXfXfXfXfXfXfXfXfXfXfXfXfXfXfXfXfXfXfXfXfXfXfXfXfXfXfXfXfXfX",
"fXfXfXfXfXfXfXfXfXfXfXfXfXfXfXfXfXfXfXfXfXfXfXfXfXfXfXfXfXfXfXfXfXfXfXfXfXfXfXfXfXfXfXfXfXfXfXfXfXfXfXfXfXfXfXfXfXfXfXfXfXfXfXfX",
"fXfXfXfXfXfXfXfXfXfXfXfXfXfXfXfXfXfXfXfXfXfXfXfXfXfXfXfXfXfXfXfXfXfXfXfXfXfXfXfXfXfXfXfXfXfXfXfXfXfXfXfXfXfXfXfXfXfXfXfXfXfXfXfX",
"fXfXfXfXfXfXfXfXfXfXfXfXfXfXfXfXfXfXfXfXfXfXfXfXfXfXfXfXfXfXfXfXfXfXfXfXfXfXfXfXfXfXfXfXfXfXfXfXfXfXfXfXfXfXfXfXfXfXfXfXfXfXfXfX",
"fXfXfXfXfXfXfXfXfXfXfXfXfXfXfXfXfXfXfXfXfXfXfXfXfXfXfXfXfXfXfXfXfXfXfXfXfXfXfXfXfXfXfXfXfXfXfXfXfXfXfXfXfXfXfXfXfXfXfXfXfXfXfXfX",
"fXfXfXfXfXfXfXfXfXfXfXfXfXfXfXfXfXfXfXfXfXfXfXfXfXfXfXfXfXfXfXfXfXfXfXfXfXfXfXfXfXfXfXfXfXfXfXfXfXfXfXfXfXfXfXfXfXfXfXfXfXfXfXfX",
"fXfXfXfXfXfXfXfXfXfXfXfXfXfXfXfXfXfXfXfXfXfXfXfXfXfXfXfXfXfXfXfXfXfXfXfXfXfXfXfXfXfXfXfXfXfXfXfXfXfXfXfXfXfXfXfXfXfXfXfXfXfXfXfX",
"fXfXfXfXfXfXfXfXfXfXfXfXfXfXfXfXfXfXfXfXfXfXfXfXfXfXfXfXfXfXfXfXfXfXfXfXfXfXfXfXfXfXfXfXfXfXfXfXfXfXfXfXfXfXfXfXfXfXfXfXfXfXfXfX",
"fXfXfXfXfXfXfXfXfXfXfXfXfXfXfXfXfXfXfXfXfXfXfXfXfXfXfXfXfXfXfXfXfXfXfXfXfXfXfXfXfXfXfXfXfXfXfXfXfXfXfXfXfXfXfXfXfXfXfXfXfXfXfXfX",
"fXfXfXfXfXfXfXfXfXfXfXfXfXfXfXfXfXfXfXfXfXfXfXfXfXfXfXfXfXfXfXfXfXfXfXfXfXfXfXfXfXfXfXfXfXfXfXfXfXfXfXfXfXfXfXfXfXfXfXfXfXfXfXfX",
"fXfXfXfXfXfXfXfXfXfXfXfXfXfXfXfXfXfXfXfX  . + fXfXfXfXfXfXfXfXfXfXfXfXfXfXfXfXfXfXfXfXfXfXfXfXfXfXfXfXfXfXfXfXfXfXfXfXfXfXfXfXfX",
"fXfXfXfXfXfX% * % # = # fXfXfXfXfXfXfXfXfXfXfXn * + . fXfXfXfXfXfXfXfXfXfXfXfXfXfXfXfXfXfXfXfXfXfXfXfXfXfXfXfXfXfXfXfXfXfXfXfXfX",
"fXfXfXfXfXfXfXfXfXfXfXx x i w e 3 4 < < 1 fXfXN M M n w $ . fXfXfXfXfXfXfXfXfXfXfXfXfXfXfXfXfXfXfXfXfXfXfXfXfXfXfXfXfXfXfXfXfXfX",
"fXfXfXfXfXfXfXfXfXfXfXfXfXM n n v v c v c 0 < i x M ^ m I I e . fXfXfXfXfXfXfXfXfXfXfXfXfXfXfXfXfXfXfXfXfXfXfXfXfXfXfXfXfXfXfXfX",
"fXfXfXfXfXfXfXfXfXfXfXfXfXfXi.*.N 3.,.k.e.! I I 0 u w x c ^ X.~ % fXfXfXfXfXfXfXfXfXfXfXfXfXfXfXfXfXfXfXfXfXfXfXfXfXfXfXfXfXfXfX",
"fXfXfXfXfXfXfXfXfXfXfXfXfXfX1.g.5.f.h.j.w.U.8.E.6.o.p u c I Y ~ b o fXfXfXfXfXfXfXfXfXfXfXfXfXfXfXfXfXfXfXfXfXfXfXfXfXfXfXfXfXfX",
"fXfXfXfXfXfXfXfXfXfXfXfXfXfXl.g.z.f.Q.Q.R.!.E.^.=XyXY.Y 5 4 q q w + O fXfXfXfXfXfXfXfXfXfXfXfXfXfXfXfXfXfXfXfXfXfXfXfXfXfXfXfXfX",
"fXfXfXfXfXfXfXfXfXfXfXfXfXfX7X1.x.k.Q.!.!.Q.E.P.~.=XW.W. .5 T t.9.h . 1 fXfXfXfXfXfXfXfXfXfXfXfXfXfXfXfXfXfXfXfXfXfXfXfXfXfXfXfX",
"fXfXfXfXfXfXfXfXfXfXfXfXfXfX6Xs.8X-.0.v I I ! ~ ~ Y i , t r 6 ! 7.u.Y 4 fXfXfXfXfXfXfXfXfXfXfXfXfXfXfXfXfXfXfXfXfXfXfXfXfXfXfXfX",
"fXfXfXfXfXfXfXfXfXfXfXfXfXfXqX3.I m ^ W 6.6.e.-.>.o.6.o.o.q < D Y.%X9.2 fXfXfXfXfXfX9XfXfXfXfXfXfXfXfXfXfXfXfXfXfXfXfXfXfXfXfXfX",
"fXfXfXfXfXfXfXfXfXfXfXfXN N W &.&.*.;.2.f.q.-.^ >.~ ! o.X.X.j ~ -XyX .p fXfXfXfXfXpXA.*X}. X[.fXfXfXfXfXfXfXfXfXfXfXfXfXfXfXfXfX",
"fXfXfXfXfXfXfXfXfXfX+ e * fXfXfX4.<.i.p.2.=.0.2.r.q.o.,.X.X.G U.>X-XG fXfXfXfX.XM.Z.rX`.`.B.n.m._ fXfXfXfXfXfXfXfXfXfXfXfXfXfXfX",
"fXfXfXfXfXfXfXfXfX+ fXfXfXfXfXfXfXfXs.i.*.2.4.z.q.w.t.9.X.Y D :XtX-XU fXfXfX_.b.b.; N eX9XO. ._ H fXfXfXfXfXfXfXfXfXfXfXfXfXfXfX",
"fXfXfXfXfXfXfXfXfXfXfXfXfXfXfXfXfXfXfXa.<.1.l.4.f.Q.P.t.o.b G :X>Xy.U fXfXfXn.] o : 6 y  .+XJ.J.#.S.) $.R J H.fXfXfXfXfXfXfXfXfX",
"fXfXfXfXfXfXfXfXfXfXfXfXfXfXfXfXfXfXfXfXd.i.<.f.Q.R.E.t.X.b y Y.%Xh P fXfXC.v.d 1 t Y _ ).|._.E %X9X0X%XE fXF.fXfX/ fXfXfXfXfXfX",
"fXfXfXfXfXfXfXfXfXfXfXfXfXfXfXfXfXfXfXfXa.i.g.z.z.R.P.6.7.b 5 t.X.O 9 fXfXn.' . 8 $.`.$.{.}. XA.<XiX2X].D.F.].fX) fXfXfXfXfXfXfX",
"fXfXfXfXfXfXfXfXfXfXfXfXfXfXfXfXfXfXfXfXs.i.a.x.Q.P.6.@.@.o., U  .2 < fXoXB.C o p +X4XfX'.}.Z..XV.|.3X3X3XK.fXJ J ^.^.fXfXfXfXfX",
"fXfXfXfXfXfXfXfXfXfXfXfXfXfXfXfXfXfXfXfXfXp.g.z.j.6.-.T u q $ G %X7.1 fX{.fX- 1 T #XiXfXfXoX).fXf Z.*X$X2X1XK.S.G.S.S.L.fXfXfXfX",
"fXfXfXfXfXfXfXfXfXfXfXfXfXfXfXfXfXfXfXfXfXs.x.,.W z m ~ -.! e 5 y.>X ./.[.n.B 1 ^ #X5XfXfXfXfXfXfX9XaXfXI.tXtX;X;XK fXfXfXfXfXfX",
"fXfXfXfXfXfXfXfXfXfXfXfXfXfXfXfXfXfXfXfX6X;.m c n *.-.0.e.E.6.$ D %X%XH fX- o 5 E ,XpXfXfXfXfXfXfXfXfXF L.=XT.S.H.H.I.fXfXfXfXfX",
"fXfXfXfXfXfXfXfXfXfXfXfXfXfXfXfXfXfXfXfXM m &.&.&.<.=.0.r.e.P.v O R Y.j ' B o r @.,X4XfXfXfXfXfXfXfXfXfXfXfXE.].G.I.L.fXfXfXfXfX",
"fXfXfXfXfXfXfXfXfXfXfXfXfXfXfXfXfXfXfX+ fXfXfXfXl a.p.2.f.R.e.E.~ O T p O , u D Y.4X%.fXfXfXfXfXfXfXfXdXfXfXfXG.fX( fXfXfXfXfXfX",
"fXfXfXfXfXfXfXfXfXfXfXfXfXfXfXfXfXfXfXfXfXfXfXfXfXfX<.p.j.j.h.t.e.= u D 7 O P R ..5X$.E fXfXfXfXfXt Q wXaXfXfXL.8.fXfXfXfXfXfXfX",
"fXfXfXfXfXfXfXfXfXfXfXfXfXfXfXfXfXfXfXfXfXfXfXfXfXfXp.a.a.f.r.r.r.Q + > O o 0 ~ ( 4XR G R fXfXfX: O o.sXfXfXfXfXfXfXfXfXfXfXfXfX",
"fXfXfXfXfXfXfXfXfXfXfXfXfXfXfXfXfXfXfXfXfXfXfXfXfXfXfXp.g.4.3.k.6.z o O > o > u @.$X3 y ( / 1 P 5 fXfXfXfXfXfXfXfXfXfXfXfXfXfXfX",
"fXfXfXfXfXfXfXfXfXfXfXfXfXfXfXfXfXfXfXfXfXfXfXfXfXfXfXfXa.p.4.2.= O O , t 9 o 9 ^ OXX.O 1 7 / U fXfXfXfXfXfXfXfXfXfXfXfXfXfXfXfX",
"fXfXfXfXfXfXfXfXfXfXfXfXfXfXfXfXfXfXfXfXfXfXfXfXfXfXfXfX5.<.5.x O : < < u h & @ 0 ( fX  , 0 > fXfXfXfXfXfXfXfXfXfXfXfXfXfXfXfXfX",
"fXfXfXfXfXfXfXfXfXfXfXfXfXfXfXfXfXfXfXfXfXfXfXfXfXfXfX/.{ w x o O 9 , w j ' +.s @ :.6.fX.   fXfXfXfXfXfXfXfXfXfXfXfXfXfXfXfXfXfX",
"fXfXfXfXfXfXfXfXfXfXfXfXfXfXfXfXfXfXfXfXfXfXfXfXfXfX/.] V @ t y u 9 h Z Z Z Z fXo T L.fXfX, t r.aXfXfXfXfXfXfXfXfXfXfXfXfXfXfXfX",
"fXfXfXfXfXfXfXfXfXfXfXfXfXfXfXfXfXfXfXfXfXfXfXfXfXfX/.' - X 9 e T U Z _ Y R fXfX  $ < 6 > 0 I wXeXfXfXfXfXfXfXfXfXfXfXfXfXfXfXfX",
"fXfXfXfXfXfXfXfXfXfXfXfXfXfXfXfXfXfXfXfXfXfXfXfXfXfXc.C X . o 9 P :.@.j 0 T D fX. . o : o i wXfXfXfXfXfXfXfXfXfXfXfXfXfXfXfXfXfX",
"fXfXfXfXfX XfXfXfXfXfXfXfXfXfXfXfXfXfXfXfXfXfXfXfXN.V - . . . $ 9 z 8.@.0 , fXfXfXfX    fXfXfXfXfXfXfXfXfXfXfXfXfXfXfXfXfXfXfXfX",
"fXfXfXfXfXv.C.}.fXfXfXfXfXfXfXfXfXfXfXfXfXfXfXM.} V X . . $   . o # P 8.< $ fXfXfXfXfXfXfXfXfXfXfXfXfXfXfXfXfXfXfXfXfXfXfXfXfXfX",
"fXfXfXfXfXfX' [ Z.fXfXfXfXfXfXfXfXfXfXfXfXfXN.} ; . . . + - - & $ 0 > u @ . fXfXfXfXfXfXfXfXfXfXfXfXfXfXfXfXfXfXfXfXfXfXfXfXfXfX",
"fXfXfXfXfXfX{.c./.}.[.fXfXfXfXfXfXfXc.c.C C & o o O O % f g % O 9 0 O 1 o fXfXfXfXfXfXfXfXfXfXfXfXfXfXfXfXfXfXfXfXfXfXfXfXfXfXfX",
"fXfXfXfXfXfXfX).c.N.{ ` d B B d j - - $ O O O O @ q f g g fX. O u > . < < y E fXfXfXfXfXfXfXfXfXfXfXfXfXfXfXfXfXfXfXfXfXfXfXfXfX",
"fXfXfXfXfXfXfXfXfX/.} B 2 3 2 2 2 2 < 2 3 q s f a d g fXfXfXfX. z D 9 , 1 O 6 wXaXfXfXfXfXfXfXfXfXfXfXfXfXfXfXfXfXfXfXfXfXfXfXfX",
"fXfXfXfXfXfXfXfXfXfXfXfXfXfXfXfXfXfXZ a - fXfXfXfXfXfXfXfXfXfXfXo 9 u S k.sXfXk.wXfXfXfXfXfXfXfXfXfXfXfXfXfXfXfXfXfXfXfXfXfXfXfX",
"fXfXfXfXfXfXfXfXfXfXfXfXfXfXfXfXfXfXfXfXfXfXfXfXfXfXfXfXfXfXfXfXfX. 5.9XeXfXfXfXfXfXfXfXfXfXfXfXfXfXfXfXfXfXfXfXfXfXfXfXfXfXfXfX",
"fXfXfXfXfXfXfXfXfXfXfXfXfXfXfXfXfXfXfXfXfXfXfXfXfXfXfXfXfXfXfXfXfXfXfXfXfXfXfXfXfXfXfXfXfXfXfXfXfXfXfXfXfXfXfXfXfXfXfXfXfXfXfXfX",
"fXfXfXfXfXfXfXfXfXfXfXfXfXfXfXfXfXfXfXfXfXfXfXfXfXfXfXfXfXfXfXfXfXfXfXfXfXfXfXfXfXfXfXfXfXfXfXfXfXfXfXfXfXfXfXfXfXfXfXfXfXfXfXfX",
"fXfXfXfXfXfXfXfXfXfXfXfXfXfXfXfXfXfXfXfXfXfXfXfXfXfXfXfXfXfXfXfXfXfXfXfXfXfXfXfXfXfXfXfXfXfXfXfXfXfXfXfXfXfXfXfXfXfXfXfXfXfXfXfX",
"fXfXfXfXfXfXfXfXfXfXfXfXfXfXfXfXfXfXfXfXfXfXfXfXfXfXfXfXfXfXfXfXfXfXfXfXfXfXfXfXfXfXfXfXfXfXfXfXfXfXfXfXfXfXfXfXfXfXfXfXfXfXfXfX",
"fXfXfXfXfXfXfXfXfXfXfXfXfXfXfXfXfXfXfXfXfXfXfXfXfXfXfXfXfXfXfXfXfXfXfXfXfXfXfXfXfXfXfXfXfXfXfXfXfXfXfXfXfXfXfXfXfXfXfXfXfXfXfXfX",
"fXfXfXfXfXfXfXfXfXfXfXfXfXfXfXfXfXfXfXfXfXfXfXfXfXfXfXfXfXfXfXfXfXfXfXfXfXfXfXfXfXfXfXfXfXfXfXfXfXfXfXfXfXfXfXfXfXfXfXfXfXfXfXfX",
"fXfXfXfXfXfXfXfXfXfXfXfXfXfXfXfXfXfXfXfXfXfXfXfXfXfXfXfXfXfXfXfXfXfXfXfXfXfXfXfXfXfXfXfXfXfXfXfXfXfXfXfXfXfXfXfXfXfXfXfXfXfXfXfX",
"fXfXfXfXfXfXfXfXfXfXfXfXfXfXfXfXfXfXfXfXfXfXfXfXfXfXfXfXfXfXfXfXfXfXfXfXfXfXfXfXfXfXfXfXfXfXfXfXfXfXfXfXfXfXfXfXfXfXfXfXfXfXfXfX",
"fXfXfXfXfXfXfXfXfXfXfXfXfXfXfXfXfXfXfXfXfXfXfXfXfXfXfXfXfXfXfXfXfXfXfXfXfXfXfXfXfXfXfXfXfXfXfXfXfXfXfXfXfXfXfXfXfXfXfXfXfXfXfXfX",
"fXfXfXfXfXfXfXfXfXfXfXfXfXfXfXfXfXfXfXfXfXfXfXfXfXfXfXfXfXfXfXfXfXfXfXfXfXfXfXfXfXfXfXfXfXfXfXfXfXfXfXfXfXfXfXfXfXfXfXfXfXfXfXfX",
"fXfXfXfXfXfXfXfXfXfXfXfXfXfXfXfXfXfXfXfXfXfXfXfXfXfXfXfXfXfXfXfXfXfXfXfXfXfXfXfXfXfXfXfXfXfXfXfXfXfXfXfXfXfXfXfXfXfXfXfXfXfXfXfX",
"fXfXfXfXfXfXfXfXfXfXfXfXfXfXfXfXfXfXfXfXfXfXfXfXfXfXfXfXfXfXfXfXfXfXfXfXfXfXfXfXfXfXfXfXfXfXfXfXfXfXfXfXfXfXfXfXfXfXfXfXfXfXfXfX",
"fXfXfXfXfXfXfXfXfXfXfXfXfXfXfXfXfXfXfXfXfXfXfXfXfXfXfXfXfXfXfXfXfXfXfXfXfXfXfXfXfXfXfXfXfXfXfXfXfXfXfXfXfXfXfXfXfXfXfXfXfXfXfXfX",
"fXfXfXfXfXfXfXfXfXfXfXfXfXfXfXfXfXfXfXfXfXfXfXfXfXfXfXfXfXfXfXfXfXfXfXfXfXfXfXfXfXfXfXfXfXfXfXfXfXfXfXfXfXfXfXfXfXfXfXfXfXfXfXfX"
};
