/* XPM */
static char *result[] = {
/* columns rows colors chars-per-pixel */
"64 64 218 2 ",
"   c #010301",
".  c #010C02",
"X  c #0F0A02",
"o  c #021302",
"O  c #0C1306",
"+  c #041B04",
"@  c #071708",
"#  c #0B140A",
"$  c #071D09",
"%  c #0B1B0B",
"&  c #121403",
"*  c #1B1E0B",
"=  c #161706",
"-  c #141E12",
";  c #131509",
":  c #281E04",
">  c #361C04",
",  c #052306",
"<  c #072408",
"1  c #0B230C",
"2  c #0D2B0D",
"3  c #072A07",
"4  c #15250C",
"5  c #112D0F",
"6  c #0C320C",
"7  c #0E390E",
"8  c #0E2410",
"9  c #0F2B11",
"0  c #152314",
"q  c #1C2212",
"w  c #122C13",
"e  c #1C2D1C",
"r  c #1B251B",
"t  c #0F3014",
"y  c #143515",
"u  c #1D341B",
"i  c #1C3A1C",
"p  c #163B18",
"a  c #13330E",
"s  c #2A230D",
"d  c #392506",
"f  c #232D1C",
"g  c #272E15",
"h  c #332D13",
"j  c #253914",
"k  c #27391B",
"l  c #3A3517",
"z  c #1D2D21",
"x  c #1E3521",
"c  c #223423",
"v  c #2C3624",
"b  c #24322B",
"n  c #2A3D2B",
"m  c #273925",
"M  c #2D3432",
"N  c #2F3D36",
"B  c #363A3F",
"V  c #32373B",
"C  c #363C2C",
"Z  c #4C2E09",
"A  c #57380C",
"S  c #423514",
"D  c #443916",
"F  c #4A3C19",
"G  c #4A3912",
"H  c #643E11",
"J  c #403A27",
"K  c #7A3825",
"L  c #1C491A",
"P  c #1E411F",
"I  c #21401B",
"U  c #3A4319",
"Y  c #15640C",
"T  c #157910",
"R  c #1B4D20",
"E  c #244926",
"W  c #294B2B",
"Q  c #274428",
"!  c #3D4828",
"~  c #2A532D",
"^  c #275128",
"/  c #3B5427",
"(  c #2E4532",
")  c #334C34",
"_  c #394B32",
"`  c #364638",
"'  c #3E5A3C",
"]  c #365637",
"[  c #2D5A31",
"{  c #2E6121",
"}  c #3A633B",
"|  c #564516",
" . c #4F4E1A",
".. c #6A430F",
"X. c #7A4E13",
"o. c #794B14",
"O. c #6E5818",
"+. c #795417",
"@. c #71480F",
"#. c #746C1C",
"$. c #4B4E25",
"%. c #484C25",
"&. c #574825",
"*. c #58582B",
"=. c #4C5A3C",
"-. c #445A38",
";. c #595D32",
":. c #434D2F",
">. c #725123",
",. c #715732",
"<. c #40603D",
"1. c #527426",
"2. c #736F21",
"3. c #69633B",
"4. c #74763A",
"5. c #363C42",
"6. c #3A4745",
"7. c #3D5642",
"8. c #45474B",
"9. c #465C47",
"0. c #444753",
"q. c #444B53",
"w. c #484B57",
"e. c #4A5E54",
"r. c #4A535B",
"t. c #4C5A5B",
"y. c #485653",
"u. c #54535E",
"i. c #585A5B",
"p. c #466446",
"a. c #536546",
"s. c #586C4A",
"d. c #536A4B",
"f. c #4F734C",
"g. c #54734D",
"h. c #5D734C",
"j. c #4A6353",
"k. c #4D6A53",
"l. c #506D55",
"z. c #536E5A",
"x. c #556356",
"c. c #517554",
"v. c #577B5A",
"b. c #58785A",
"n. c #60724D",
"m. c #707C40",
"M. c #6F7559",
"N. c #4B4F61",
"B. c #4F5262",
"V. c #515E63",
"C. c #5A5A63",
"Z. c #525567",
"A. c #5D5D75",
"S. c #566867",
"D. c #5C746A",
"F. c #5B7666",
"G. c #617F6C",
"H. c #686971",
"J. c #7C7C77",
"K. c #6D6C6C",
"L. c #814F16",
"P. c #845314",
"I. c #875B17",
"U. c #915A17",
"Y. c #8D651B",
"T. c #97631B",
"R. c #98771C",
"E. c #A4671C",
"W. c #A6741F",
"Q. c #825F20",
"!. c #9D6E22",
"~. c #9F7C2F",
"^. c #82602A",
"/. c #A87324",
"(. c #826C47",
"). c #A07059",
"_. c #2A8E13",
"`. c #578059",
"'. c #5D8362",
"]. c #689566",
"[. c #7A9061",
"{. c #6D8772",
"}. c #96871E",
"|. c #949A1E",
" X c #9B8121",
".X c #9E9D25",
"XX c #A78D22",
"oX c #B88626",
"OX c #A89227",
"+X c #B99624",
"@X c #AEB223",
"#X c #BAB230",
"$X c #BDA92C",
"%X c #C58D25",
"&X c #C5952A",
"*X c #C0A72D",
"=X c #978C49",
"-X c #A68D59",
";X c #B09E54",
":X c #AA974C",
">X c #B9A750",
",X c #829A6C",
"<X c #988873",
"1X c #92B07F",
"2X c #D3BC57",
"3X c #C7B765",
"4X c #8D908B",
"5X c #AF9D9A",
"6X c #AEAE8A",
"7X c #B3B6B3",
"8X c #ADAFA9",
"9X c #A1C088",
"0X c #BBC1B9",
"qX c #C3C5BF",
"wX c #CACAC5",
"eX c #D1CECC",
"rX c #DEDDE0",
"tX c None",
/* pixels */
"tXtXtXtXtXtXtXtXtXtXtXtXtXtXtXtXtXtXtXtXtXtXtXtXtXtXtXtXtXtXtXtXtXtXtXtXtXtXtXtXtXtXtXtXtXtXtXtXtXtXtXtXtXtXtXtXtXtXtXtXtXtXtXtX",
"tXtXtXtXtXtXtXtXtXtXtXtXtXtXtXtXtXtXtXtXtXtXtXtXtXtXtXtXtXtXtXtXtXtXtXtXtXtXtXtXtXtXtXtXtXtXtXtXtXtXtXtXtXtXtXtXtXtXtXtXtXtXtXtX",
"tXtXtXtXtXtXtXtXtXtXtXtXtXtXtXtXtXtXtXtXtXtXtXtXtXtXtXtXtXtXtXtXtXtXtXtXtXtXtXtXtXtXtXtXtXtXtXtXtXtXtXtXtXtXtXtXtXtXtXtXtXtXtXtX",
"tXtXtXtXtXtXtXtXtXtXtXtXtXtXtXtXtXtXtXtXtXtXtXtXtXtXtXtXtXtXtXtXtXtXtXtXtXtXtXtXtXtXtXtXtXtXtXtXtXtXtXtXtXtXtXtXtXtXtXtXtXtXtXtX",
"tXtXtXtXtXtXtXtXtXtXtXtXtXtXtXtXtXtXtXtXtXtXtXtXtXtXtXtXtXtXtXtXtXtXtXtXtXtXtXtXtXtXtXtXtXtXtXtXtXtXtXtXtXtXtXtXtXtXtXtXtXtXtXtX",
"tXtXtXtXtXtXtXtXtXtXtXtXtXtXtXtXtXtXtXtXtXtXtXtXtXtXtXtXtXtXtXtXtXtXtXtXtXtXtXtXtXtXtXtXtXtXtXtXtXtXtXtXtXtXtXtXtXtXtXtXtXtXtXtX",
"tXtXtXtXtXtXtXtXtXtXtXtXtXtXtXtXtXtXtXtXtXtXtXtXtXtXtXtXtXtXtXtXtXtXtXtXtXtXtXtXtXtXtXtXtXtXtXtXtXtXtXtXtXtXtXtXtXtXtXtXtXtXtXtX",
"tXtXtXtXtXtXtXtXtXtXtXtXtXtXtXtXtXtXtXtXtXtXtXtXtXtXtXtXtXtXtXtXtXtXtXtXtXtXtXtXtXtXtXtXtXtXtXtXtXtXtXtXtXtXtXtXtXtXtXtXtXtXtXtX",
"tXtXtXtXtXtXtXtXtXtXtXtXtXtXtXtXtXtXtXtXtXtXtXtXtXtXtXtXtXtXtXtXtXtXtXtXtXtXtXtXtXtXtXtXtXtXtXtXtXtXtXtXtXtXtXtXtXtXtXtXtXtXtXtX",
"tXtXtXtXtXtXtXtXtXtXtXtXtXtXtXtXtXtXtXtXtXtXtXtXtXtXtXtXtXtXtXtXtXtXtXtXtXtXtXtXtXtXtXtXtXtXtXtXtXtXtXtXtXtXtXtXtXtXtXtXtXtXtXtX",
"tXtXtXtXtXtXtXtXtXtXtXtXtXtXtXtXtXtXtXtXtXtXtXtXtXtXtXtXtXtXtXtXtXtXtXtXtXtXtXtXtXtXtXtXtXtXtXtXtXtXtXtXtXtXtXtXtXtXtXtXtXtXtXtX",
"tXtXtXtXtXtXtXtXtXtXtXtXtXtXtXtXtXtXtXtXtXtXtXtXtXtXtXtXtXtXtXtXtXtXtXtXtXtXtXtXtXtXtXtXtXtXtXtXtXtXtXtXtXtXtXtXtXtXtXtXtXtXtXtX",
"tXtXtXtXtXtXtXtXtXtXtXtXtXtXtXtXtXtXtXtXtXtXtXtXtXtXtXtXtXtXtXtXtXtXtXtXtXtXtXtXtXtXtXtXtXtXtXtXtXtXtXtXtXtXtXtXtXtXtXtXtXtXtXtX",
"tXtXtXtXtXtXtXtXtXtXtXtXtXtXtXtXtXtXtXtXtXtXtXtXtXtXtXtXtXtXtXtXtXtXtXtXtXtXtXtXtXtXtXtXtXtXtXtXtXtXtXtXtXtXtXtXtXtXtXtXtXtXtXtX",
"tXtXtXtXtXtXtXtXtXtXtXtXtXtXtXtXtXtXtXtXtXtXtXtXtXtXtXtXtXtXtXtXtXtXtXtXtXtXtXtXtXtXtXtXtXtXtXtXtXtXtXtXtXtXtXtXtXtXtXtXtXtXtXtX",
"tXtXtXtXtXtXtXtXtXtXtXtXtXtXtXtXtXtXtXtXtXtXtXtXtXtXtXtXtXtXtXtXtXtXtXtXtXtXtXtXtXtXtXtXtXtXtXtXtXtXtXtXtXtXtXtXtXtXtXtXtXtXtXtX",
"tXtXtXtXtXtXtXtXtXtXtXtXtXtXtXtXtXtXtXtXtXtXtXtXtXtXtXtXtXtXtXtXtXtXtXtXtXtXtXtXtXtXtXtXtXtXtXtXtXtXtXtXtXtXtXtXtXtXtXtXtXtXtXtX",
"tXtXtXtXtXtXtXtXtXtXtXtXtXtXtXtXtXtXtXtXtXtXtXtXtXtXtX          tXtXtXtXtXtXtXtXtXtXtXtXtXtXtXtXtXtXtXtXtXtXtXtXtXtXtXtXtXtXtXtX",
"tXtXtXtXtXtXtXtXtXtXtXtXtXtXtXtXtXtXtXtXtXtXtX.     . # - z c c ; . tXtXtXtXtXtXtXtXtXtXtXtXtXtXtXtXtXtXtXtXtXtXtXtXtXtXtXtXtXtX",
"tXtXtXtXtXtXtXtXtXtXtXtXtXtXtXtXtXtXtXtXtX  o % < 2 w 2 w x k 0 #   o tXtXtXtXtXtXtXtXtXwXtXtXtXtXtXtXtXtXtXtXtXtXtXtXtXtXtXtXtX",
"tXtXtXtXtXtXtXtXtXtXtXtXtXtXtXtXtXtXtX, 9 e x p.' b.s.d.=.u 6 6 2 f ; . tXtXtXtXtXtXtXtX4XtXtXtXtXtXtXtXtXtXtXtXtXtXtXtXtXtXtXtX",
"tXtXtXtXtXtXtXtXtXtXtXtXtXtXtXtXtX9 x ( p.c.c.].'.9X9Xh.-.2 2 2 k _ % tXtXtXtXtXtXtX}.=X(.6XtXtXtXtXtXtXtXtXtXtXtXtXtXtXtXtXtXtX",
"tXtXtXtXtXtXtXtXtXtXtXtXtXtX$ w c N 6.z.z.'.].].].g.W m _ _ v w h.=.z tXtXtXtXtX}.+.@.>.<X-X!.!.OXtXtXtXtXtXtXtXtXtXtXtXtXtXtXtX",
"tXtXtXtXtXtXtXtXtXtXtXtX# e b V 6.r.j.{.G.'.v.} Q ( ] ' a.a.C j [.! tXtXtXtXtXtXP.P.Z = J.<XQ.o.+.+.tXtXtXtXtXtXtXtXtXtXtXtXtXtX",
"tXtXtXtXtXtXtXtXtXtX# - b B q.w.B.V.S.F.z.p.Q 7.` j.j.p.a.a.g _ ,Xv tXtXtXtX@XI...& + 6 P {.x.D O.O.tXtXtXtXtXtXtXtXtXtXtXtXtXtX",
"tXtXtXtXtXtXtXtX# - - tXtXtXtXA.N.Z.t.j.n ` j.6.V.S.v.f.g.n.r <.[.r tXtXtXtXY.@.: , 2 I k +.~.$.U j tXtXtXtXtXtXtXtXtXtXtXtXtXtX",
"tXtXtXtXtXtXtX# tXtXtXtXtXtXtXtXC.r.6.5.5.r.0.r.D.{.'.f.g.s.- Q n.O tXtXtXtXX.A o w *.^.2./.oX2.1.1./ L tXtXtXtXtXtXtXtXtXtXtXtX",
"tXtXtXtXtXtXtXtXtXtXtXtXtXtXtXtXH.6.5.w.r.0.B.S.G.F.c.} g.a.v 2 r . + tXtX|.I.Z o I ;X-XtX/./.O.&.M.<./ %.tXtXtXtXtXtXtXtXtXtXtX",
"tXtXtXtXtXtXtXtXtXtXtXtXtXtXtXi.b tXtXtXH.u.Z.V.D.S.7.7.' i 8 @ f v o tXtXOXX.& , ^ 2XtXXXoX/.#.C K 5X6X:.tXtXtXtXtXtXtXtXtXtXtX",
"tXtXtXtXtXtXtXtXtXtXtXtXtXtXM r tXtXtXtXtXu.N.V.j.7.7.) x ) n o w =.k o tXR.X.d 2 ! 2XtXtX#XoXtXtXs ).eXtXtXtXtXtXtXtXtXtXtXtXtX",
"tXtXtXtXtXtXtXtXtXtXtXtXtX% tXtXtXtXtXtXtXH.B.r.y.c x ` p.`.c.w + k =.q | U.: o y ;.3XtXtXtXtXtXtXtX,.M.tXtXtXtXtXtXtXtXtXtXtXtX",
"tXtXtXtXtXtXtXtXtXtXtXtXO tXtXtXtXtXtXtXtXC.w.6.e M 6.6.j.z.v.7.r + i g . s & o L ,.2XtXtXtXtXtXtXtXtXtXtXtXtXtXtXtXtXtXtXtXtXtX",
"tXtXtXtXtXtXtXtXtXtXtXtXtXtXtXtXtXtXtXtXtXi.b M V 8.0.r.e.b.k.v.c.0 $ i a o w 6 [ :X=XtXtXtXtXtXtXtXtXtXtXY tXtXtXtXtXtXtXtXtXtX",
"tXtXtXtXtXtXtXtXtXtXtXtXtXtXtXtXtXtXtXtXtX# tXtXtXtXq.w.t.e.j.l.v.) % 2 3 o 8 Q E >X3.6 tXtXtXtXtXtXtXtXtXtXtXtXtXtXtXtXtXtXtXtX",
"tXtXtXtXtXtXtXtXtXtXtXtXtXtXtXtXtXtXtXtX# tXtXtXtXtX  0.B.y.e.k.k.k.m o + . @ x } =X;.7 tXtXtXtXtXx.qXtXtXtXtXtXtXT tXtXtXtXtXtX",
"tXtXtXtXtXtXtXtXtXtXtXtXtXtXtXtXtXtXtXtXtXtXtXtXtXtX  0.r.6.y.y.e.( o o < $ . 8 ~ 4.%.p R tXtXtX+ < 4XtXtXtXtXtXtXtXtXtXtXtXtXtX",
"tXtXtXtXtXtXtXtXtXtXtXtXtXtXtXtXtXtXtXtXtXtXtXtXtXtXtXtXi.0.0.y.( o o + 2 0 o 1 Q m.l p ~ tX. o o _ 7XtXtXtXtXtXtXtXtXtXtXtXtXtX",
"tXtXtXtXtXtXtXtXtXtXtXtXtXtXtXtXtXtXtXtXtXtXtXtXtXtXtXtX3.8.8.5.o + < 1 w u s + Q ^   o , y i o tXtXtXtXtXtXtXtXtX_.tXtXtXtXtXtX",
"tXtXtXtXtXtXtXtXtXtXtXtXtXtXtXtXtXtXtXtXtXtXtXtXtXtXtXO.I.> z 8 o 1 8 0 g l G * Q ^   # % 1 9.tXtXtXtXtXtXtXtXtXtXtXtXtXtXtXtXtX",
"tXtXtXtXtXtXtXtXtXtXtXtXtXtXtXtXtXtXtXtXtXtXtXtXtXtXtXY...X % w 9 1 w h G F h O w [ tX  1 W 8XeXtXtXtXtXtXtXtXtXtXtXtXtXtXtXtXtX",
"tXtXtXtXtXtXtXtXtXtXtXtXtXtXtXtXtXtXtXtXtXtXtXtXtXtXR.X.Z   % 1 i E k F F f %   $ y + . - f 0XtXtXtXtXtXtXtXtXtXtXtXtXtXtXtXtXtX",
"tXtXtXtXtXtXtXtXtXtXtXtXtXtXtXtXtXtXtXtXtXtXtXtXtXtXE.P.X   . # w W } $.* @ 8   . $ 2 @ # {.tXtXtXtXtXtXtXtXtXtXtXtXtXtXtXtXtXtX",
"tXtXtXtXtXtXtXtXtXtXtXtXtXtXtXtXtXtXtXtXtXtXtXtXtX XE.d   o   . % w ( <.9 % . tXtX  . . tXtXtXtXtXtXtXtXtXtXtXtXtXY tXtXtXtXtXtX",
"tXtXtXtXtXtXtXtXtXtXtXtXtXtXtXtXtXtXtXtXtXtXtXtX+XL.> . . $ O . . $ 1 ] Q # . tXtXtXtXtXtXtXtXtXtXtXtXtXtXtXtXtXtXtXtXtXtXtXtXtX",
"tXtXtXtXtXtXtXtXtXtXtXtXtXtXtXtXtXtXtXtXtXtX%XW.Z : o o % s s = & < 1 8 8 o tXtXtXtXtXtXtXtXtXtXtXtXtXtXtXtXtXtXtXtXtXtXtXtXtXtX",
"tXtXtXtXtXtXtXtXtXtXtXtXtXtXtXtXtXtXtXtX*X!.H 4 9 < 2 5 h l O . % 9 1 + + tXtXtXtXtXtXtXtXtXtXtXtXtXtXtXtXtXtXtXtXtXtXtXtXtXtXtX",
"tXtXtXtXtXtXtXtXtXtXtXtX&X%XE.tXtX&XoXY. .P W <.R u l D h tX  . 8 w . @ < 2 < 9.7XtXtXtXtXtXtXtXtXtXtXtXtXtXtXtXtXtXtXtXtXtXtXtX",
"tXtXtXtXtXtXtXtXtXtXtXtX/.$XOXA ..S j L ^ / %. .| S h tXtXtXtX  @ y 8 8 9 ` o 9.8XtXtXtXtXtXtXtXtXtXtXtXtXtXtXtXtXtXtXtXtXtXtXtX",
"tXtXtXtXtXtXtXtXtXtXtXtXtXT.T.$.! ! %.$.;.&.S tXtXtXtXtXtXtXtXtX  % 8 ( x.7XtXtXtXtXtXtXtXtXtXtXtXtXtXtXtXtXtXtXtXtXtXtXtXtXtXtX",
"tXtXtXtXtXtXtXtXtXtXtXtXtXtXtXtXtXtXtXtXtXtXtXtXtXtXtXtXtXtXtXtXtXtX% J.).rXtXtXtXtXtXtXtXtXtXtXtXtXtXtXtXtXtXtXtXtXtXtXtXtXtXtX",
"tXtXtXtXtXtXtXtXtXtXtXtXtXtXtXtXtXtXtXtXtXtXtXtXtXtXtXtXtXtXtXtXtXtXtXtXtXtXtXtXtXtXtXtXtXtXtXtXtXtXtXtXtXtXtXtXtXtXtXtXtXtXtXtX",
"tXtXtXtXtXtXtXtXtXtXtXtXtXtXtXtXtXtXtXtXtXtXtXtXtXtXtXtXtXtXtXtXtXtXtXtXtXtXtXtXtXtXtXtXtXtXtXtXtXtXtXtXtXtXtXtXtXtXtXtXtXtXtXtX",
"tXtXtXtXtXtXtXtXtXtXtXtXtXtXtXtXtXtXtXtXtXtXtXtXtXtXtXtXtXtXtXtXtXtXtXtXtXtXtXtXtXtXtXtXtXtXtXtXtXtXtXtXtXtXtXtXtXtXtXtXtXtXtXtX",
"tXtXtXtXtXtXtXtXtXtXtXtXtXtXtXtXtXtXtXtXtXtXtXtXtXtXtXtXtXtXtXtXtXtXtXtXtXtXtXtXtXtXtXtXtXtXtXtXtXtXtXtXtXtXtXtXtXtXtXtXtXtXtXtX",
"tXtXtXtXtXtXtXtXtXtXtXtXtXtXtXtXtXtXtXtXtXtXtXtXtXtXtXtXtXtXtXtXtXtXtXtXtXtXtXtXtXtXtXtXtXtXtXtXtXtXtXtXtXtXtXtXtXtXtXtXtXtXtXtX",
"tXtXtXtXtXtXtXtXtXtXtXtXtXtXtXtXtXtXtXtXtXtXtXtXtXtXtXtXtXtXtXtXtXtXtXtXtXtXtXtXtXtXtXtXtXtXtXtXtXtXtXtXtXtXtXtXtXtXtXtXtXtXtXtX",
"tXtXtXtXtXtXtXtXtXtXtXtXtXtXtXtXtXtXtXtXtXtXtXtXtXtXtXtXtXtXtXtXtXtXtXtXtXtXtXtXtXtXtXtXtXtXtXtXtXtXtXtXtXtXtXtXtXtXtXtXtXtXtXtX",
"tXtXtXtXtXtXtXtXtXtXtXtXtXtXtXtXtXtXtXtXtXtXtXtXtXtXtXtXtXtXtXtXtXtXtXtXtXtXtXtXtXtXtXtXtXtXtXtXtXtXtXtXtXtXtXtXtXtXtXtXtXtXtXtX",
"tXtXtXtXtXtXtXtXtXtXtXtXtXtXtXtXtXtXtXtXtXtXtXtXtXtXtXtXtXtXtXtXtXtXtXtXtXtXtXtXtXtXtXtXtXtXtXtXtXtXtXtXtXtXtXtXtXtXtXtXtXtXtXtX",
"tXtXtXtXtXtXtXtXtXtXtXtXtXtXtXtXtXtXtXtXtXtXtXtXtXtXtXtXtXtXtXtXtXtXtXtXtXtXtXtXtXtXtXtXtXtXtXtXtXtXtXtXtXtXtXtXtXtXtXtXtXtXtXtX",
"tXtXtXtXtXtXtXtXtXtXtXtXtXtXtXtXtXtXtXtXtXtXtXtXtXtXtXtXtXtXtXtXtXtXtXtXtXtXtXtXtXtXtXtXtXtXtXtXtXtXtXtXtXtXtXtXtXtXtXtXtXtXtXtX",
"tXtXtXtXtXtXtXtXtXtXtXtXtXtXtXtXtXtXtXtXtXtXtXtXtXtXtXtXtXtXtXtXtXtXtXtXtXtXtXtXtXtXtXtXtXtXtXtXtXtXtXtXtXtXtXtXtXtXtXtXtXtXtXtX",
"tXtXtXtXtXtXtXtXtXtXtXtXtXtXtXtXtXtXtXtXtXtXtXtXtXtXtXtXtXtXtXtXtXtXtXtXtXtXtXtXtXtXtXtXtXtXtXtXtXtXtXtXtXtXtXtXtXtXtXtXtXtXtXtX",
"tXtXtXtXtXtXtXtXtXtXtXtXtXtXtXtXtXtXtXtXtXtXtXtXtXtXtXtXtXtXtXtXtXtXtXtXtXtXtXtXtXtXtXtXtXtXtXtXtXtXtXtXtXtXtXtXtXtXtXtXtXtXtXtX"
};
