/* XPM */
static char *result[] = {
/* columns rows colors chars-per-pixel */
"64 64 215 2 ",
"   c #000500",
".  c #020B02",
"X  c #0B0C02",
"o  c #070905",
"O  c #130D04",
"+  c #031303",
"@  c #051B05",
"#  c #061709",
"$  c #0B130A",
"%  c #0B1C0B",
"&  c #081605",
"*  c #171807",
"=  c #0D1F10",
"-  c #131D13",
";  c #171B1B",
":  c #211302",
">  c #341E04",
",  c #042105",
"<  c #072109",
"1  c #0B230C",
"2  c #0B2B0C",
"3  c #0E2107",
"4  c #132A0E",
"5  c #0D310E",
"6  c #0E2511",
"7  c #0E2A11",
"8  c #142513",
"9  c #122B13",
"0  c #1D2A11",
"q  c #1B2B1A",
"w  c #162D18",
"e  c #133314",
"r  c #1A341A",
"t  c #1E3615",
"y  c #37290B",
"u  c #352D17",
"i  c #26361A",
"p  c #353412",
"a  c #3A3211",
"s  c #353C17",
"d  c #323113",
"f  c #1F3921",
"g  c #242E25",
"h  c #282D2C",
"j  c #233B24",
"k  c #253C2A",
"l  c #2C3B2C",
"z  c #283426",
"x  c #313A27",
"c  c #273A30",
"v  c #2E3136",
"b  c #383A3C",
"n  c #492E08",
"m  c #44310B",
"M  c #58350C",
"N  c #4A3C19",
"B  c #473A16",
"V  c #633B0E",
"C  c #443D24",
"Z  c #763D29",
"A  c #1E461B",
"S  c #24411F",
"D  c #334519",
"F  c #1F4124",
"G  c #2B452D",
"H  c #32452B",
"J  c #39492A",
"K  c #3F5123",
"L  c #2F4139",
"P  c #314E32",
"I  c #374A35",
"U  c #325434",
"Y  c #39593B",
"T  c #395439",
"R  c #2E5426",
"E  c #46421A",
"W  c #5E4A17",
"Q  c #524911",
"!  c #6B4410",
"~  c #694B18",
"^  c #774D14",
"/  c #755618",
"(  c #6B4C15",
")  c #757318",
"_  c #4E4525",
"`  c #474825",
"'  c #554922",
"]  c #5C592D",
"[  c #415334",
"{  c #44543B",
"}  c #595C36",
"|  c #5B4531",
" . c #674C21",
".. c #685728",
"X. c #586036",
"o. c #736733",
"O. c #6C6D2D",
"+. c #313240",
"@. c #3B4746",
"#. c #3D4C50",
"$. c #3C5840",
"%. c #3F6443",
"&. c #454A44",
"*. c #495B41",
"=. c #465848",
"-. c #444B55",
";. c #444857",
":. c #465552",
">. c #495B58",
",. c #55575B",
"<. c #6C554E",
"1. c #4C6144",
"2. c #4C634A",
"3. c #4B6A4D",
"4. c #44674A",
"5. c #576845",
"6. c #496354",
"7. c #4D6B54",
"8. c #4F635C",
"9. c #4E6858",
"0. c #56695C",
"q. c #4E7153",
"w. c #527655",
"e. c #53755D",
"r. c #577B5A",
"t. c #53704B",
"y. c #667251",
"u. c #4A4F63",
"i. c #4D5362",
"p. c #4E5C61",
"a. c #545C65",
"s. c #52566A",
"d. c #565A6F",
"f. c #595A6A",
"g. c #5B5D77",
"h. c #4E6160",
"j. c #586668",
"k. c #547265",
"l. c #5D7869",
"z. c #5B6474",
"x. c #5F6978",
"c. c #5F7E70",
"v. c #6C7869",
"b. c #616374",
"n. c #656B79",
"m. c #617C71",
"M. c #647677",
"N. c #845A17",
"B. c #925819",
"V. c #8A6319",
"C. c #886B1C",
"Z. c #99671D",
"A. c #86741A",
"S. c #997A1E",
"D. c #A7791E",
"F. c #A86C1B",
"G. c #906821",
"H. c #927829",
"J. c #8D742F",
"K. c #A17728",
"L. c #9D7D40",
"P. c #816E50",
"I. c #88774B",
"U. c #5D885F",
"Y. c #6D885F",
"T. c #5D8762",
"R. c #668667",
"E. c #67936A",
"W. c #698778",
"Q. c #718571",
"!. c #6D9574",
"~. c #74977A",
"^. c #7E966B",
"/. c #78A478",
"(. c #88871B",
"). c #90821A",
"_. c #A58F1F",
"`. c #9A8336",
"'. c #A28A21",
"]. c #AB8925",
"[. c #BA9D2B",
"{. c #AF9326",
"}. c #9FA32C",
"|. c #B7A727",
" X c #BAB42F",
".X c #C49B3D",
"XX c #C9AB2F",
"oX c #C4BB31",
"OX c #AB9352",
"+X c #B19F57",
"@X c #B29643",
"#X c #B2A658",
"$X c #8E8067",
"%X c #8C8F6B",
"&X c #8CA777",
"*X c #D6BB55",
"=X c #C7AB56",
"-X c #C6BC6D",
";X c #BEC179",
":X c #DDC95F",
">X c #DCC864",
",X c #6A6B83",
"<X c #787982",
"1X c #677881",
"2X c #7F8687",
"3X c #9F948E",
"4X c #8D9294",
"5X c #949696",
"6X c #88898D",
"7X c #84AE80",
"8X c #A4A5A3",
"9X c #BBB8B8",
"0X c #C9CBCB",
"qX c #E4E7D8",
"wX c None",
/* pixels */
"wXwXwXwXwXwXwXwXwXwXwXwXwXwXwXwXwXwXwXwXwXwXwXwXwXwXwXwXwXwXwXwXwXwXwXwXwXwXwXwXwXwXwXwXwXwXwXwXwXwXwXwXwXwXwXwXwXwXwXwXwXwXwXwX",
"wXwXwXwXwXwXwXwXwXwXwXwXwXwXwXwXwXwXwXwXwXwXwXwXwXwXwXwXwXwXwXwXwXwXwXwXwXwXwXwXwXwXwXwXwXwXwXwXwXwXwXwXwXwXwXwXwXwXwXwXwXwXwXwX",
"wXwXwXwXwXwXwXwXwXwXwXwXwXwXwXwXwXwXwXwXwXwXwXwXwXwXwXwXwXwXwXwXwXwXwXwXwXwXwXwXwXwXwXwXwXwXwXwXwXwXwXwXwXwXwXwXwXwXwXwXwXwXwXwX",
"wXwXwXwXwXwXwXwXwXwXwXwXwXwXwXwXwXwXwXwXwXwXwXwXwXwXwXwXwXwXwXwXwXwXwXwXwXwXwXwXwXwXwXwXwXwXwXwXwXwXwXwXwXwXwXwXwXwXwXwXwXwXwXwX",
"wXwXwXwXwXwXwXwXwXwXwXwXwXwXwXwXwXwXwXwXwXwXwXwXwXwXwXwXwXwXwXwXwXwXwXwXwXwXwXwXwXwXwXwXwXwXwXwXwXwXwXwXwXwXwXwXwXwXwXwXwXwXwXwX",
"wXwXwXwXwXwXwXwXwXwXwXwXwXwXwXwXwXwXwXwXwXwXwXwXwXwXwXwXwXwXwXwXwXwXwXwXwXwXwXwXwXwXwXwXwXwXwXwXwXwXwXwXwXwXwXwXwXwXwXwXwXwXwXwX",
"wXwXwXwXwXwXwXwXwXwXwXwXwXwXwXwXwXwXwXwXwXwXwXwXwXwXwXwXwXwXwXwXwXwXwXwXwXwXwXwXwXwXwXwXwXwXwXwXwXwXwXwXwXwXwXwXwXwXwXwXwXwXwXwX",
"wXwXwXwXwXwXwXwXwXwXwXwXwXwXwXwXwXwXwXwXwXwXwXwXwXwXwXwXwXwXwXwXwXwXwXwXwXwXwXwXwXwXwXwXwXwXwXwXwXwXwXwXwXwXwXwXwXwXwXwXwXwXwXwX",
"wXwXwXwXwXwXwXwXwXwXwXwXwXwXwXwXwXwXwXwXwXwXwXwXwXwXwXwXwXwXwXwXwXwXwXwXwXwXwXwXwXwXwXwXwXwXwXwXwXwXwXwXwXwXwXwXwXwXwXwXwXwXwXwX",
"wXwXwXwXwXwXwXwXwXwXwXwXwXwXwXwXwXwXwXwXwXwXwXwXwXwXwXwXwXwXwXwXwXwXwXwXwXwXwXwXwXwXwXwXwXwXwXwXwXwXwXwXwXwXwXwXwXwXwXwXwXwXwXwX",
"wXwXwXwXwXwXwXwXwXwXwXwXwXwXwXwXwXwXwXwXwXwXwXwXwXwXwXwXwXwXwXwXwXwXwXwXwXwXwXwXwXwXwXwXwXwXwXwXwXwXwXwXwXwXwXwXwXwXwXwXwXwXwXwX",
"wXwXwXwXwXwXwXwXwXwXwXwXwXwXwXwXwXwXwXwXwXwXwXwXwXwXwXwXwXwXwXwXwXwXwXwXwXwXwXwXwXwXwXwXwXwXwXwXwXwXwXwXwXwXwXwXwXwXwXwXwXwXwXwX",
"wXwXwXwXwXwXwXwXwXwXwXwXwXwXwXwXwXwXwXwXwXwXwXwXwXwXwXwXwXwXwXwXwXwXwXwXwXwXwXwXwXwXwXwXwXwXwXwXwXwXwXwXwXwXwXwXwXwXwXwXwXwXwXwX",
"wXwXwXwXwXwXwXwXwXwXwXwXwXwXwXwXwXwXwXwXwXwXwXwXwXwXwXwXwXwXwXwXwXwXwXwXwXwXwXwXwXwXwXwXwXwXwXwXwXwXwXwXwXwXwXwXwXwXwXwXwXwXwXwX",
"wXwXwXwXwXwXwXwXwXwXwXwXwXwXwXwXwXwXwXwXwXwXwXwXwXwXwXwXwXwXwXwX8XwXwXwXwXwXwXwXwXwXwXwXwXwXwXwXwXwXwXwXwXwXwXwXwXwXwXwXwXwXwXwX",
"wXwXwXwXwXwXwXwXwXwXwXwXwXwXwXwXwXwXwXwXwXwXwXwXwXwXwXwXwXwXwXqXwX9XwXwXwXwXwXwXwXwXwXwXwXwXwXwXwXwXwXwXwXwXwXwXwXwXwXwXwXwXwXwX",
"wXwXwXwXwXwXwXwXwXwXwXwXwXwXwXwXwXwXwXwXwXwXwXwXwXwXwXwXwXwX(.o.3XI.L.N.A.wXwXwXwXwXwXwXwXwXwXwXwXwXwXwXwXwXwXwXwXwXwXwXwXwXwXwX",
"wXwXwXwXwXwXwXwXwXwXwXwXwXwXwXwXwXwXwXwXwXwXwXwXwXwXwXwXwXwXwXwX<.3XP. .( ~ wXwXwXwXwXwXwXwXwXwXwXwXwXwXwXwXwXwXwXwXwXwXwXwXwXwX",
"wXwXwXwXwXwXwXwXwXwXwXwXwXwXwXwXwXwXwXwXwXwXwXwXwXwXwXwXwX(.N.^ y h *.i 0 a 2 wXwXwXwXwXwXwXwXwXwXwXwXwXwXwXwXwXwXwXwXwXwXwXwXwX",
"wXwXwXwXwXwXwXwXwXwXwXwXwXwXwXwXwXwXwXwXwXwXwXwXwXwXwXwXwXwXwXn + W Z.C.R Q S S t wXwXwXwXwXwXwXwXwXwXwXwXwXwXwXwXwXwXwXwXwXwXwX",
"wXwXwXwXwXwXwXwXwXwXwXwXwXwXwXwXwXwXwXwXwXwXwXwXwXwXwXwXwXN.! O 3 ( V./ 2 I [ R B wXwXwXwXwXwXwXwXwXwXwXwXwXwXwXwXwXwXwXwXwXwXwX",
"wXwXwXwXwXwXwXwXwXwXwXwXwXwXwXwXwXwXwXwX  . o     . + wXwXA.^ + 1 ..G.V.s | Z 9XQ.wXwXwXwXwXwXwXwXwXwXwXwXwXwXwXwXwXwXwXwXwXwXwX",
"wXwXwXwXwXwXwXwXwXwXwXwXwXwXwXwXwXwX  o 8 j r % o - o + wXV.n + 6  .`.H.wXwXm <.0XwXwXwXwXwXwXwXwXwXwXwXwXwXwXwXwXwXwXwXwXwXwXwX",
"wXwXwXwXwXwXwXwXwXwXwXwXwXwXwXwX  + 2 4 e 2 5 2 x x + + wXwXV X % i [.*XwXwXwXb wXwXwXwXwXwXwXwXwXwXwXwXwXwXwXwXwXwXwXwXwXwXwXwX",
"wXwXwXwXwXwXwXwXwXwXwXwXwXwX  @ r J *.T 9 9 x 3 J 5.[ $ wXwXN.> . 1 ` =X*XwXwXwXwXwXwXwXwXwXwXwXwXwXwXwXwXwXwXwXwXwXwXwXwXwXwXwX",
"wXwXwXwXwXwXwXwXwXwXwXwXwX+ e Y R.&Xv.t I *.I 3 t.y.5.& wXwX_.! * + 1 H OX;XwXwXwXwXwXwXwXwXwXwXwXwXwXwXwXwXwXwXwXwXwXwXwXwXwXwX",
"wXwXwXwXwXwXwXwXwXwXwXo 2 F U./.&X&XP 2.=.*.{ % T y.^.x wXwXwXwX! X + r J.:X@XwXwXwXwXwXwXwXwXwXwXwXwXwXwXwXwXwXwXwXwXwXwXwXwXwX",
"wXwXwXwXwXwXwXwXwXwX+ f R U.E./.R.%.t.w.r.*.{ q i Y.%X[ + wXwXwXN.M . < I #X-XwXwXwXwX, 2X4XwXwXwXwXwXwXwXwXwXwXwXwXwXwXwXwXwXwX",
"wXwXwXwXwXwXwXwXwX@ G =.r./.2XE.4.e.7.q.3.w.*.J , H t.1.. . wXwXH.M   @ r o.-X` wXwXwX% ,.wXwXwXwXwXwXwXwXwXwXwXwXwXwXwXwXwXwXwX",
"wXwXwXwXwXwXwXwX1 G >.9.~.~.~.Y T.4.6.6.q.U.1.{ z < H z & X . X Q : + 6 9 4 `.X., wX. . wXwXwXwXwXwXwXwXwXwXwXwXwXwXwXwXwXwXwXwX",
"wXwXwXwXwXwXwX@ c p.h.m.W.~.9.9.W.>.6.6.E.U.4.3.1.7 @ 7 8 q 8 % . @ . = 8 e K OXi wX. % wXwXwXwXwXwXwXwXwXwXwXwXwXwXwXwXwXwXwXwX",
"wXwXwXwXwXwX@ c p.:.j.m.2XT.P h.c.j.8.k.E.T.4.3.j { H - + @ @ 6 S e + + + w R >X] . :.4XwXwXwXwXwXwXwXwXwXwXwXwXwXwXwXwXwXwXwXwX",
"wXwXwXwXwX@ k i.i.a.>.n.M.6.>.h.M.p.h.c.E.T.3.Y w.E.T.w.$.%.q % % < + . + 1 P I.i g 0.5XwXwXwXwXwXwXwXwXwXwXwXwXwXwXwXwXwXwXwXwX",
"wXwXwXwX. v u.b.s.b.a.b.6X@.i.;.x.i.u.l.W.l.6.U !.!.e.k.7.r.7.$.q . @ 6 . w o.+X# g 0.wXwXwXwXwXwXwXwXwXwXwXwXwXwXwXwXwXwXwXwXwX",
"wXwXwXo h wXwXwXwXwX,Xg.n.-.u.s.d.s.d.c.M.l.I 6.W.T.k.h.8.6.6.*.# + @ 1 + 7 ~ E # 9 wXwXwXwXwXwXwXwXwXwXwXwXwXwXwXwXwXwXwXwXwXwX",
"wXwXwX- wXwXwXwXwXwXwX5Xj.d.g.g.,Xb.g.x.z.0.c k.1Xx.s.i.-.:.:.h + @ 1 7 o # @ # % wXwXwXwXwXwXwXwXwXwXwXwXwXwXwXwXwXwXwXwXwXwXwX",
"wXwX- wXwXwXwXwXwXwXwX4X&.wXwXwXz.b.,Xg.z.:.L z.g.+.+.f.b ;.@.+ @ % 1 8 o * o o wXwXwXwXwXwXwXwXwXwXwXwXwXwXwXwXwXwXwXwXwXwXwXwX",
"wX& wXwXwXwXwXwXwXwXwXn.8 wXwXwXwXwXwX,X<Xh.#.i.; wXwXC.> ; ; . % 6 8 a ] C wXwXwXwXwXwXwXwXwXwXwXwXwXwXwXwXwXwXwXwXwXwXwXwXwXwX",
"wXwXwXwXwXwXwXwXwXwXwX&.wXwXwXwXwXwXwXwXb.v b.v $ wX) V > # 7 5 < 9 u  ._ wXwXwXwXwXwXwXwXwXwXwXwXwXwXwXwXwXwXwXwXwXwXwXwXwXwXwX",
"wXwXwXwXwXwX|.wXwXwXwXq wXwXwXwXwXwXwXwX2Xv ,.wXwXwX/ M O . % 9 r 0 ~ ] r wXwXwXwXwXwXwXwXwXwXwXwXwXwXwXwXwXwXwXwXwXwXwXwXwXwXwX",
"wXwXwXwXwXwX{.oXwXwX$ wXwXwXwXwXwXwXwXwXwX; wXwXwXwX! M     o 6 f U _ u 9 5 wXwXwXwXwXwXwXwXwXwXwXwXwXwXwXwXwXwXwXwXwXwXwXwXwXwX",
"wXwXwXwXwXwXG.C.V.wX$ wXwXwXwXwXwXwXwXwXwX% wXwXwX(.N.n   .   + e Y U + + 6 . wXwXwXwXwXwXwXwXwXwXwXwXwXwXwXwXwXwXwXwXwXwXwXwXwX",
"wXwXwXwXwXwXwXK.^ XXwXwXwXwXwXwXwXwXwXwXwX$ wXwXwX).M o . & .   1 w %.r 1 % wXwXwXwXwXwXwXwXwXwXwXwXwXwXwXwXwXwXwXwXwXwXwXwXwXwX",
"wXwXwXwXwXwXwXS.[.XXD.wXwXwXwXwXwXwXwXwXwXwXwXwX_.C.* . . - a O . # F F + & wXwXwXwXwXwXwXwXwXwXwXwXwXwXwXwXwXwXwXwXwXwXwXwXwXwX",
"wXwXwXwXwXwXwXB.D. XXXV.wXwXwXwXwXwXwXwXwXwXwXoXS.y . + - B _ wX. = # < # . wXwXwXwXwXwXwXwXwXwXwXwXwXwXwXwXwXwXwXwXwXwXwXwXwXwX",
"wXwXwXwXwXwXwXwX].|.}.'. XwXwXwXwXwXwXwXwXwXwX`.y & @ 3 a _ * . 1 7 @ 7 + wXwXwXwXwXwXwXwXwXwXwXwXwXwXwXwXwXwXwXwXwXwXwXwXwXwXwX",
"wXwXwXwXwXwXwXwXwXD.[.O.E A.F.wXwXwXwXwXwX.XH./ + + 6 N B wX  . 6 @   % < , wXwXwXwXwXwXwXwXwXwXwXwXwXwXwXwXwXwXwXwXwXwXwXwXwXwX",
"wXwXwXwXwXwXwXwXwXwXwXB.' J s C.H.].{.].K./ a @ 2 0 N N wXwX  . w < + + < + @ G 8XwXwXwXwXwXwXwXwXwXwXwXwXwXwXwXwXwXwXwXwXwXwXwX",
"wXwXwXwXwXwXwXwXwXwXwXwXwXwX` ` G i a p A P U H E E N wXwXwXwXwX. % 1 8 c 5XC ,.6XwXwXwXwXwXwXwXwXwXwXwXwXwXwXwXwXwXwXwXwXwXwXwX",
"wXwXwXwXwXwXwXwXwXwXwXwXwXwXwXp _ X.X.X.y.5.] ' B wXwXwXwXwXwXwXwXo q =.M.5XwXwXwXwXwXwXwXwXwXwXwXwXwXwXwXwXwXwXwXwXwXwXwXwXwXwX",
"wXwXwXwXwXwXwXwXwXwXwXwXwXwXwXwXwXwXwXa wXwXwXwXwXwXwXwXwXwXwXwXwXwXwXwXwXwXwXwXwXwXwXwXwXwXwXwXwXwXwXwXwXwXwXwXwXwXwXwXwXwXwXwX",
"wXwXwXwXwXwXwXwXwXwXwXwXwXwXwXwXwXwXwXwXwXwXwXwXwXwXwXwXwXwXwXwXwXwXwXwXwXwXwXwXwXwXwXwXwXwXwXwXwXwXwXwXwXwXwXwXwXwXwXwXwXwXwXwX",
"wXwXwXwXwXwXwXwXwXwXwXwXwXwXwXwXwXwXwXwXwXwXwXwXwXwXwXwXwXwXwXwXwXwXwXwXwXwXwXwXwXwXwXwXwXwXwXwXwXwXwXwXwXwXwXwXwXwXwXwXwXwXwXwX",
"wXwXwXwXwXwXwXwXwXwXwXwXwXwXwXwXwXwXwXwXwXwXwXwXwXwXwXwXwXwXwXwXwXwXwXwXwXwXwXwXwXwXwXwXwXwXwXwXwXwXwXwXwXwXwXwXwXwXwXwXwXwXwXwX",
"wXwXwXwXwXwXwXwXwXwXwXwXwXwXwXwXwXwXwXwXwXwXwXwXwXwXwXwXwXwXwXwXwXwXwXwXwXwXwXwXwXwXwXwXwXwXwXwXwXwXwXwXwXwXwXwXwXwXwXwXwXwXwXwX",
"wXwXwXwXwXwXwXwXwXwXwXwXwXwXwXwXwXwXwXwXwXwXwXwXwXwXwXwXwXwXwXwXwXwXwXwXwXwXwXwXwXwXwXwXwXwXwXwXwXwXwXwXwXwXwXwXwXwXwXwXwXwXwXwX",
"wXwXwXwXwXwXwXwXwXwXwXwXwXwXwXwXwXwXwXwXwXwXwXwXwXwXwXwXwXwXwXwXwXwXwXwXwXwXwXwXwXwXwXwXwXwXwXwXwXwXwXwXwXwXwXwXwXwXwXwXwXwXwXwX",
"wXwXwXwXwXwXwXwXwXwXwXwXwXwXwXwXwXwXwXwXwXwXwXwXwXwXwXwXwXwXwXwXwXwXwXwXwXwXwXwXwXwXwXwXwXwXwXwXwXwXwXwXwXwXwXwXwXwXwXwXwXwXwXwX",
"wXwXwXwXwXwXwXwXwXwXwXwXwXwXwXwXwXwXwXwXwXwXwXwXwXwXwXwXwXwXwXwXwXwXwXwXwXwXwXwXwXwXwXwXwXwXwXwXwXwXwXwXwXwXwXwXwXwXwXwXwXwXwXwX",
"wXwXwXwXwXwXwXwXwXwXwXwXwXwXwXwXwXwXwXwXwXwXwXwXwXwXwXwXwXwXwXwXwXwXwXwXwXwXwXwXwXwXwXwXwXwXwXwXwXwXwXwXwXwXwXwXwXwXwXwXwXwXwXwX",
"wXwXwXwXwXwXwXwXwXwXwXwXwXwXwXwXwXwXwXwXwXwXwXwXwXwXwXwXwXwXwXwXwXwXwXwXwXwXwXwXwXwXwXwXwXwXwXwXwXwXwXwXwXwXwXwXwXwXwXwXwXwXwXwX",
"wXwXwXwXwXwXwXwXwXwXwXwXwXwXwXwXwXwXwXwXwXwXwXwXwXwXwXwXwXwXwXwXwXwXwXwXwXwXwXwXwXwXwXwXwXwXwXwXwXwXwXwXwXwXwXwXwXwXwXwXwXwXwXwX",
"wXwXwXwXwXwXwXwXwXwXwXwXwXwXwXwXwXwXwXwXwXwXwXwXwXwXwXwXwXwXwXwXwXwXwXwXwXwXwXwXwXwXwXwXwXwXwXwXwXwXwXwXwXwXwXwXwXwXwXwXwXwXwXwX",
"wXwXwXwXwXwXwXwXwXwXwXwXwXwXwXwXwXwXwXwXwXwXwXwXwXwXwXwXwXwXwXwXwXwXwXwXwXwXwXwXwXwXwXwXwXwXwXwXwXwXwXwXwXwXwXwXwXwXwXwXwXwXwXwX"
};
