/* XPM */
static char *result[] = {
/* columns rows colors chars-per-pixel */
"64 64 226 2 ",
"   c #000400",
".  c #010B01",
"X  c #0C0801",
"o  c #031303",
"O  c #041B03",
"+  c #0B150A",
"@  c #061B09",
"#  c #0D1B0B",
"$  c #091806",
"%  c #10190C",
"&  c #181805",
"*  c #131D14",
"=  c #0F1E10",
"-  c #261904",
";  c #321E04",
":  c #052305",
">  c #072309",
",  c #0B230C",
"<  c #0B2B0B",
"1  c #082806",
"2  c #13240B",
"3  c #1A270D",
"4  c #102A0F",
"5  c #0D340C",
"6  c #0E3A0D",
"7  c #10380F",
"8  c #0D2D11",
"9  c #0F2711",
"0  c #122B13",
"q  c #1B2A15",
"w  c #1B2A1C",
"e  c #182419",
"r  c #0F3611",
"t  c #133415",
"y  c #143C15",
"u  c #173219",
"i  c #1B331C",
"p  c #193919",
"a  c #2C260E",
"s  c #26240B",
"d  c #37290A",
"f  c #2A2B12",
"g  c #342D11",
"h  c #25381B",
"j  c #373616",
"k  c #343B05",
"l  c #1D1E21",
"z  c #1E3C20",
"x  c #232C27",
"c  c #223424",
"v  c #28372B",
"b  c #313B29",
"n  c #292D32",
"m  c #2E3C33",
"M  c #2E3233",
"N  c #343839",
"B  c #482D09",
"V  c #542D08",
"C  c #57360A",
"Z  c #463917",
"A  c #683C0E",
"S  c #1C411B",
"D  c #184217",
"F  c #145213",
"G  c #24481E",
"H  c #304013",
"J  c #18710F",
"K  c #297716",
"L  c #296614",
"P  c #214423",
"I  c #2B412C",
"U  c #284828",
"Y  c #37492A",
"T  c #2B512C",
"R  c #285924",
"E  c #325B2C",
"W  c #364837",
"Q  c #3C553C",
"!  c #3D5B3C",
"~  c #365535",
"^  c #2F4A34",
"/  c #376638",
"(  c #39753A",
")  c #367528",
"_  c #564B1E",
"`  c #4B4D11",
"'  c #664815",
"]  c #764711",
"[  c #7B5916",
"{  c #675214",
"}  c #786616",
"|  c #7C7A1A",
" . c #464B29",
".. c #59582A",
"X. c #4B5A3D",
"o. c #435639",
"O. c #4D4C37",
"+. c #604B22",
"@. c #48653D",
"#. c #4B772B",
"$. c #686827",
"%. c #6B7538",
"&. c #383C42",
"*. c #3D434B",
"=. c #3E4E46",
"-. c #3E5545",
";. c #3F4250",
":. c #3F6D41",
">. c #415C44",
",. c #48594A",
"<. c #4E4E5C",
"1. c #454A53",
"2. c #485656",
"3. c #4C5857",
"4. c #53585D",
"5. c #4E4C4A",
"6. c #476646",
"7. c #556644",
"8. c #467747",
"9. c #58724C",
"0. c #4D6354",
"q. c #566B5C",
"w. c #506B54",
"e. c #537355",
"r. c #5C755F",
"t. c #587956",
"y. c #68754E",
"u. c #697C53",
"i. c #4F4F60",
"p. c #535664",
"a. c #565A68",
"s. c #5E5E72",
"d. c #505162",
"f. c #5A6D63",
"g. c #5A6568",
"h. c #5C7462",
"j. c #5E7965",
"k. c #647869",
"l. c #656977",
"z. c #687873",
"x. c #606B6C",
"c. c #875A16",
"v. c #9A5C1A",
"b. c #A05D1C",
"n. c #9D651A",
"m. c #90611F",
"M. c #9B7C1D",
"N. c #837218",
"B. c #A9711D",
"V. c #917432",
"C. c #A97A22",
"Z. c #AD6F2F",
"A. c #85764E",
"S. c #368B29",
"D. c #539517",
"F. c #6B9B1A",
"G. c #448734",
"H. c #599730",
"J. c #76852F",
"K. c #6CAF3C",
"L. c #478448",
"P. c #5A845A",
"I. c #5D9959",
"U. c #648456",
"Y. c #72885B",
"T. c #6FA45F",
"R. c #668A67",
"E. c #689466",
"W. c #7B9363",
"Q. c #6C8873",
"!. c #749876",
"~. c #738E60",
"^. c #79A968",
"/. c #87871A",
"(. c #92AF1F",
"). c #BA8A26",
"_. c #B59E29",
"`. c #B4843B",
"'. c #AE9C2D",
"]. c #96B220",
"[. c #BBA528",
"{. c #B6AD2E",
"}. c #C7942C",
"|. c #C98C2F",
" X c #C7A12F",
".X c #C8B836",
"XX c #C9AE30",
"oX c #C3C926",
"OX c #908A4D",
"+X c #A9884D",
"@X c #94BA47",
"#X c #BCA642",
"$X c #A8A54D",
"%X c #8B9668",
"&X c #8E9D7F",
"*X c #B99671",
"=X c #8BAD78",
"-X c #99AD71",
";X c #8AB776",
":X c #95B174",
">X c #A7B87A",
",X c #CBB453",
"<X c #D5BD67",
"1X c #B4C84E",
"2X c #AFC66A",
"3X c #DAD653",
"4X c #CECD6C",
"5X c #E4E07B",
"6X c #787583",
"7X c #696981",
"8X c #7A8485",
"9X c #909488",
"0X c #9FB290",
"qX c #9F9EA2",
"wX c #A5AAA3",
"eX c #BBBCB9",
"rX c #C2AF96",
"tX c #BCD68C",
"yX c #AECD8C",
"uX c #D3CE83",
"iX c #E6E682",
"pX c #D3C7A1",
"aX c #D9D9D6",
"sX c #C7C8C6",
"dX c gray95",
"fX c None",
/* pixels */
"fXfXfXfXfXfXfXfXfXfXfXfXfXfXfXfXfXfXfXfXfXfXfXfXfXfXfXfXfXfXfXfXfXfXfXfXfXfXfXfXfXfXfXfXfXfXfXfXfXfXfXfXfXfXfXfXfXfXfXfXfXfXfXfX",
"fXfXfXfXfXfXfXfXfXfXfXfXfXfXfXfXfXfXfXfXfXfXfXfXfXfXfXfXfXfXfXfXfXfXfXfXfXfXfXfXfXfXfXfXfXfXfXfXfXfXfXfXfXfXfXfXfXfXfXfXfXfXfXfX",
"fXfXfXfXfXfXfXfXfXfXfXfXfXfXfXfXfXfXfXfXfXfXfXfXfXfXfXfXfXfXfXfXfXfXfXfXfXfXfXfXfXfXfXfXfXfXfXfXfXfXfXfXfXfXfXfXfXfXfXfXfXfXfXfX",
"fXfXfXfXfXfXfXfXfXfXfXfXfXfXfXfXfXfXfXfXfXfXfXfXfXfXfXfXfXfXfXfXfXfXfXfXfXfXfXfXfXfXfXfXfXfXfXfXfXfXfXfXfXfXfXfXfXfXfXfXfXfXfXfX",
"fXfXfXfXfXfXfXfXfXfXfXfXfXfXfXfXfXfXfXfXfXfXfXfXfXfXfXfXfXfXfXfXfXfXfXfXfXfXfXfXfXfXfXfXfXfXfXfXfXfXfXfXfXfXfXfXfXfXfXfXfXfXfXfX",
"fXfXfXfXfXfXfXfXfXfXfXfXfXfXfXfXfXfXfXfXfXfXfXfXfXfXfXfXfXfXfXfXfXfXfXfXfXfXfXfXfXfXfXfXfXfXfXfXfXfXfXfXfXfXfXfXfXfXfXfXfXfXfXfX",
"fXfXfXfXfXfXfXfXfXfXfXfXfXfXfXfXfXfXfXfXfXfXfXfXfXfXfXfXfXfXfXfXfXfXfXfXfXfXfXfXfXfXfXfXfXfXfXfXfXfXfXfXfXfXfXfXfXfXfXfXfXfXfXfX",
"fXfXfXfXfXfXfXfXfXfXfXfXfXfXfXfXfXfXfXfXfXfXfXfXfXfXfXfXfXfXfXfXfXfXfXfXfXfXfXfXfXfXfXfXfXfXfXfXfXfXfXfXfXfXfXfXfXfXfXfXfXfXfXfX",
"fXfXfXfXfXfXfXfXfXfXfXfXfXfXfXfXfXfXfXfXfXfXfXfXfXfXfXfXfXfXfXfXfXfXfXfXfXfXfXfXfXfXfXfXfXfXfXfXfXfXfXfXfXfXfXfXfXfXfXfXfXfXfXfX",
"fXfXfXfXfXfXfXfXfXfXfXfXfXfXfXfXfXfXfXfXfXfXfXfXfXfXfXfXfXfXfXfXfXfXfXfXfXfXfXfXfXfXfXfXfXfXfXfXfXfXfXfXfXfXfXfXfXfXfXfXfXfXfXfX",
"fXfXfXfXfXfXfXfXfXfXfXfXfXfXfXfXfXfXfXfXfXfXfXfXfXfXfXfXfXfXfXfXfXfXfXfXfXfXfXfXfXfXfXfXfXfXfXfXfXfXfXfXfXfXfXfXfXfXfXfXfXfXfXfX",
"fXfXfXfXfXfXfXfXfXfXfXfXfXfXfXfXfXfXfXfXfXfXfXfXfXfXfXfXfXfXfXfXfXfXfXfXfXfXfXfXfX%     fXfXfXfXfXfXfXfXfXfXfXfXfXfXfXfXfXfXfXfX",
"fXfXfXfXfXfXfXfXfXfXfXfXfXfXfXfXfXfXfXfXfXfXfXfXfXfXfXfXfXfXfXfXfXfXfXfXfX. + * n fXfXfXfXfXfXfXfXfXfXfX# # % % * % fXfXfXfXfXfX",
"fXfXfXfXfXfXfXfXfXfXfXfXfXfXfXfXfXfXfXfXfXfXfXfXfXfXfXfXfXfXfXfXfXfX. + w v M n N fXfX1 < < 4 e q w z x x fXfXfXfXfXfXfXfXfXfXfX",
"fXfXfXfXfXfXfXfXfXfXfXfXfXfXfXfXfXfXfXfXfXfXfXfXfXfXfXfXfXfXfXfXo 0 I I m m M x z < q z v v v v n n n fXfXfXfXfXfXfXfXfXfXfXfXfX",
"fXfXfXfXfXfXfXfXfXfXfXfXfXfXfXfXfXfXfXfXfXfXfXfXfXfXfXfXfXfXfX% ~ X.^ v x w t t v I -.e.k.,.,.N *.d.fXfXfXfXfXfXfXfXfXfXfXfXfXfX",
"fXfXfXfXfXfXfXfXfXfXfXfXfXfXfXfXfXfXfXfXfXfXfXfXfXfXfXfXfXfXo b ~ Y I v t i X.6.R.8.R.w.R.j.f.=.s.1.fXfXfXfXfXfXfXfXfXfXfXfXfXfX",
"fXfXfXfXfXfXfXfXfXfXfXfXfXfXfXfXfXfXfXfXfXfXfXfXfXfXfXfXfXO % e q e 8 5 Y U.yX;X^.T.!.R.Q.Q.f.k.g.l.fXfXfXfXfXfXfXfXfXfXfXfXfXfX",
"fXfXfXfXfXfXfXfXfXfXfXfXfXfXfXfXfXfXfXfXfXfXfXfXfXfXfXfX1 . c y.t.T 5  .W.W.=X~.P.R.Q.!.Q.Q.z.l.1.7XfXfXfXfXfXfXfXfXfXfXfXfXfXfX",
"fXfXfXfXfXfXfXfXfXfXfXfXfXfXfXfXfXfXfXfXfXfXfXfXfXfXfXfX< Y u.7./ 7 5 t 1 i Y ~ ~ ! I U v 0.-.8Xs.6XfXfXfXfXfXfXfXfXfXfXfXfXfXfX",
"fXfXfXfXfXfXfXfXfXfXfXfXfXfXfXfXfXfXfXfXfX9XfXfXfXfXfXfX1 y.W.Y.y < q Y o.6.o.-.! e.0.,.W W M I 3.qXfXfXfXfXfXfXfXfXfXfXfXfXfXfX",
"fXfXfXfXfXfXfXfXfXfXfXfXfXfXfXfXfX X X|.*XA.pXfXfXfXfXfXp O.>X-Xo.b X.X.o.Q Q -.^ -.q.q.2.*.*.&.&.W W M fXfXfXfXfXfXfXfXfXfXfXfX",
"fXfXfXfXfXfXfXfXfXfXfXfXfXfXfX_ m.n.Z.`.+XrXZ.)..XfXfXfXfXG -X>XU.h X.X.X.! e.h.,.0.=.2.p.d.<.4.fXfXfX* e % fXfXfXfXfXfXfXfXfXfX",
"fXfXfXfXfXfXfXfXfXfXfXfXfXfXfXH `  .O.9XwXN ; b.b._.fXfXfXU -XtX>XS  .X.e.e.w.f.z.4.2.*.<.s.fXfXfXfXfXfXfXfX+ fXfXfXfXfXfXfXfXfX",
"fXfXfXfXfXfXfXfXfXH.J R $.) ( #.J.J.+XO.D 6 : o ] n.fXfXfXU u.>X;XS b o.t.P.Q.r.4.l.1.<.a.fXfXfXfXfXfXfXfXfXfXfXfXfXfXfXfXfXfXfX",
"fXfXfXfXfXfX/ fXfXF.fXE %X0X&X%XR '.|.)._  .r : ; v.C.fXfXP h W.Y.D b X.t.I.~.Q.h.<.i.d.fXfXfXfXfXfXfXfXfXfXfXfXfXfXfXfXfXfXfXfX",
"fXfXfXfXfXfXfXK fX].F.D.].2XuX<XA. X}.{.$.`.$.0 . ] n.fXfX9 : 7.P.5 b 7.8.j.Q.k.k.a.i.s.fXfXfXfXfXfXfXfXfXfXfXfXfXfXfXfXfXfXfXfX",
"fXfXfXfXfX^.T.S.K fXK.4X3X3X|.V..XZ.}._.fX<XOXp O C B.oXfX< 2  .U 1 o.X.6.6.P.Q.x.a.i.s.fXfXfXfXfXfXfXfXfXfXfXfXfXfXfXfXfXfXfXfX",
"fXfXfXfXL.S.S.G.S.K.1X2X1X*XZ.h fX|..XfXfXiX,XP : - fX{.fX1 7.Y.G $ q u ^ 6.,.h.z.x.d.fXfXfXfXfXfXfXfXfXfXfXfXfXfXfXfXfXfXfXfXfX",
"fXfXfXfXfXfXK ;X;XtXyXI.fXaX9XfXfXfXfXfXfX5X{.T 1 B n.[./. .>XU.< e ! -.~ v c ^ ,.x.s.fXfXfXfXfXfXfXfXfXfXfXfXfXfXfXfXfXfXfXfXfX",
"fXfXfXfXfXI.H.H.S.T.^.P.F fXfXfXfXfXfXfXfXuX*XT 5 . - fXk %X-XD $ 6.R.e.0.-.W m c m *.6XfXfXfXfXfXfXfXfXfXfXfXfXfXfXfXfXfXfXfXfX",
"fXfXfXfXfXL.I.) ].I.fXfXfXfXfXfXfXfXfXfXfX4X3X@.r o B ' j Y.G : v P.e.j.0.1.1.&.&.&.m M fXfXfXfXfXfXfXfXfXfXfXfXfXfXfXfXfXfXfXfX",
"fXfXfXfXfXfX:.fXG.fXfXfXdXfXfXfXfXfXfXfXfXJ.4XY.D y 9 O p T @ ~ E.t.R.q.2.d.a.l fXfXfXfX+ fXfXfXfXfXfXfXfXfXfXfXfXfXfXfXfXfXfXfX",
"fXfXfXfXfXfXfX#.L.fXfXaXwXW t fXfXfXfXfXE $.4X..R c @ 5 D u = t.t.h.j.z.d.<.fXfXfXfXfXfXfXfXfXfXfXfXfXfXfXfXfXfXfXfXfXfXfXfXfXfX",
"fXfXfXfXfXfXfXfXfXfXfXfXsXX.: : fXfXfXR R U uX:./ 9 o O > $ Q t.j.j.f.0.a.a.fXfXfXfXfXfXfXfXfXfXfXfXfXfXfXfXfXfXfXfXfXfXfXfXfXfX",
"fXfXfXfXfXfXfXfXfXfXfXfXfXfXfX8 P : / ( D 3 $X:.u @ o : O O w 0.j.3.g.p.p.fXfXfXfXfXfXfXfXfXfXfXfXfXfXfXfXfXfXfXfXfXfXfXfXfXfXfX",
"fXfXfXfXfXfXfXfXfXfXfXfXfXfXfXfXT ~ 6 5 o ..OXT 9 o , 0 > O O # ,.4.a.p.fXfXfXfXfXfXfXfXfXfXfXfXfXfXfXfXfXfXfXfXfXfXfXfXfXfXfXfX",
"fXfXfXfXfXfXfXfXfXfXfXfXfXfXfXfXfX, 9 ,   fX:.8 > & h i 9 < : O w 1.<.5.fXfXfXfXfXfXfXfXfXfXfXfXfXfXfXfXfXfXfXfXfXfXfXfXfXfXfXfX",
"fXfXfXfXfXfXfXfXfXfXfXfXfXfXfXfXfXfX  . fX:.:.# - ' ' j q , 9 @ o x e [ /.fXfXfXfXfXfXfXfXfXfXfXfXfXfXfXfXfXfXfXfXfXfXfXfXfXfXfX",
"fXfXfXfXfXfXfXfXfXfXfXfXfXfXfXaXh.y , fXfXL.^ o fX .j Z Z h 9 u y u # V ] /.fXfXfXfXfXfXfXfXfXfXfXfXfXfXfXfXfXfXfXfXfXfXfXfXfXfX",
"fXfXfXfXfXfXfXfXfXfXfXfXfXfXfXeXwXI 0 > 6 < @   fXfXR Y ' Z T T u 9 o - A /.fXfXfXfXfXfXfXfXfXfXfXfXfXfXfXfXfXfXfXfXfXfXfXfXfXfX",
"fXfXfXfXfXfXfXfXfXfXfXfXfXfXfXfXfXwXu o O o   . fXS R 0 j @.:.P 9 o   X C [ fXfXfXfXfXfXfXfXfXfXfXfXfXfXfXfXfXfXfXfXfXfXfXfXfXfX",
"fXfXfXfXfXfXfXfXfXfXfXfXfXfXfXfXfXfXfXfX    fXfXfXfX, 0 :.8.z 9 o .     - V N.fXfXfXfXfXfXfXfXfXfXfXfXfXfXfXfXfXfXfX XfXfXfXfXfX",
"fXfXfXfXfXfXfXfXfXfXfXfXfXfXfXfXfXfXfXfXfXfXfXfXfXfX@ , 6.P , o   . + o . X C } C.fXfXfXfXfXfXfXfXfXfXfXfXfXfXfX).C.v.fXfXfXfXfX",
"fXfXfXfXfXfXfXfXfXfXfXfXfXfXfXfXfXfXfXfXfXfXfXfXfXfX. @ u > 2 $ & - & + . o . ; } N.fXfXfXfXfXfXfXfXfXfXfXfXfXC.[ { fXfXfXfXfXfX",
"fXfXfXfXfXfXfXfXfXfXfXfXfXfXfXfXfXfXfXfXfXfXfXfXfXfXfXO > : 0 9 @ % g a % @ O o . & C C c.[ fXfXfXfXfXfXfX'.}./.c.{.fXfXfXfXfXfX",
"fXfXfXfXfXfXfXfXfXfXfXfXfXfXfXfXfXfXfXfXfXfXfXfXfXE D < < o > u @ . fXg g g q > : O O O & - - j d B V d _ { N.m./.fXfXfXfXfXfXfX",
"fXfXfXfXfXfXfXfXfXfXfXfXfXfXfXfXfXfXfXfXfXfXfXaXwX5 O 1 , , S c . fXfXfXfXa d a f s 3 3 2 , 4 2 2 3 3 % Z } M.fXfXfXfXfXfXfXfXfX",
"fXfXfXfXfXfXfXfXfXfXfXfXfXfXfXfXfXfXfXfXfXfXfXwXk.fXsXk.p u 8 o fXfXfXfXfXfXfXfXfXfXfX& d Z fXfXfXfXfXfXfXfXfXfXfXfXfXfXfXfXfXfX",
"fXfXfXfXfXfXfXfXfXfXfXfXfXfXfXfXfXfXfXfXfXfXfXfXfXfXfXeX&X5.  fXfXfXfXfXfXfXfXfXfXfXfXfXfXfXfXfXfXfXfXfXfXfXfXfXfXfXfXfXfXfXfXfX",
"fXfXfXfXfXfXfXfXfXfXfXfXfXfXfXfXfXfXfXfXfXfXfXfXfXfXfXfXfXfXfXfXfXfXfXfXfXfXfXfXfXfXfXfXfXfXfXfXfXfXfXfXfXfXfXfXfXfXfXfXfXfXfXfX",
"fXfXfXfXfXfXfXfXfXfXfXfXfXfXfXfXfXfXfXfXfXfXfXfXfXfXfXfXfXfXfXfXfXfXfXfXfXfXfXfXfXfXfXfXfXfXfXfXfXfXfXfXfXfXfXfXfXfXfXfXfXfXfXfX",
"fXfXfXfXfXfXfXfXfXfXfXfXfXfXfXfXfXfXfXfXfXfXfXfXfXfXfXfXfXfXfXfXfXfXfXfXfXfXfXfXfXfXfXfXfXfXfXfXfXfXfXfXfXfXfXfXfXfXfXfXfXfXfXfX",
"fXfXfXfXfXfXfXfXfXfXfXfXfXfXfXfXfXfXfXfXfXfXfXfXfXfXfXfXfXfXfXfXfXfXfXfXfXfXfXfXfXfXfXfXfXfXfXfXfXfXfXfXfXfXfXfXfXfXfXfXfXfXfXfX",
"fXfXfXfXfXfXfXfXfXfXfXfXfXfXfXfXfXfXfXfXfXfXfXfXfXfXfXfXfXfXfXfXfXfXfXfXfXfXfXfXfXfXfXfXfXfXfXfXfXfXfXfXfXfXfXfXfXfXfXfXfXfXfXfX",
"fXfXfXfXfXfXfXfXfXfXfXfXfXfXfXfXfXfXfXfXfXfXfXfXfXfXfXfXfXfXfXfXfXfXfXfXfXfXfXfXfXfXfXfXfXfXfXfXfXfXfXfXfXfXfXfXfXfXfXfXfXfXfXfX",
"fXfXfXfXfXfXfXfXfXfXfXfXfXfXfXfXfXfXfXfXfXfXfXfXfXfXfXfXfXfXfXfXfXfXfXfXfXfXfXfXfXfXfXfXfXfXfXfXfXfXfXfXfXfXfXfXfXfXfXfXfXfXfXfX",
"fXfXfXfXfXfXfXfXfXfXfXfXfXfXfXfXfXfXfXfXfXfXfXfXfXfXfXfXfXfXfXfXfXfXfXfXfXfXfXfXfXfXfXfXfXfXfXfXfXfXfXfXfXfXfXfXfXfXfXfXfXfXfXfX",
"fXfXfXfXfXfXfXfXfXfXfXfXfXfXfXfXfXfXfXfXfXfXfXfXfXfXfXfXfXfXfXfXfXfXfXfXfXfXfXfXfXfXfXfXfXfXfXfXfXfXfXfXfXfXfXfXfXfXfXfXfXfXfXfX",
"fXfXfXfXfXfXfXfXfXfXfXfXfXfXfXfXfXfXfXfXfXfXfXfXfXfXfXfXfXfXfXfXfXfXfXfXfXfXfXfXfXfXfXfXfXfXfXfXfXfXfXfXfXfXfXfXfXfXfXfXfXfXfXfX",
"fXfXfXfXfXfXfXfXfXfXfXfXfXfXfXfXfXfXfXfXfXfXfXfXfXfXfXfXfXfXfXfXfXfXfXfXfXfXfXfXfXfXfXfXfXfXfXfXfXfXfXfXfXfXfXfXfXfXfXfXfXfXfXfX",
"fXfXfXfXfXfXfXfXfXfXfXfXfXfXfXfXfXfXfXfXfXfXfXfXfXfXfXfXfXfXfXfXfXfXfXfXfXfXfXfXfXfXfXfXfXfXfXfXfXfXfXfXfXfXfXfXfXfXfXfXfXfXfXfX",
"fXfXfXfXfXfXfXfXfXfXfXfXfXfXfXfXfXfXfXfXfXfXfXfXfXfXfXfXfXfXfXfXfXfXfXfXfXfXfXfXfXfXfXfXfXfXfXfXfXfXfXfXfXfXfXfXfXfXfXfXfXfXfXfX",
"fXfXfXfXfXfXfXfXfXfXfXfXfXfXfXfXfXfXfXfXfXfXfXfXfXfXfXfXfXfXfXfXfXfXfXfXfXfXfXfXfXfXfXfXfXfXfXfXfXfXfXfXfXfXfXfXfXfXfXfXfXfXfXfX"
};
