/* XPM */
static char *result[] = {
/* columns rows colors chars-per-pixel */
"64 64 212 2 ",
"   c #010400",
".  c #020C02",
"X  c #0A0B01",
"o  c #041304",
"O  c #0C1404",
"+  c #041C04",
"@  c #091907",
"#  c #061409",
"$  c #0C130C",
"%  c #071F09",
"&  c #0C1D0D",
"*  c #161304",
"=  c #131C0D",
"-  c #191707",
";  c #0D0F12",
":  c #131D11",
">  c #1A1F1A",
",  c #211705",
"<  c #251905",
"1  c #281D05",
"2  c #221D1B",
"3  c #052306",
"4  c #072309",
"5  c #0B230C",
"6  c #0C2A0C",
"7  c #092305",
"8  c #17260C",
"9  c #0F340F",
"0  c #0D3809",
"q  c #0E2510",
"w  c #0F2C10",
"e  c #122315",
"r  c #1B2413",
"t  c #132C14",
"y  c #1A261A",
"u  c #1C2E1C",
"i  c #1A2E19",
"p  c #143015",
"a  c #1D3214",
"s  c #153319",
"d  c #1C341B",
"f  c #1A3B1C",
"g  c #29250A",
"h  c #352407",
"j  c #22320E",
"k  c #252B19",
"l  c #332E15",
"z  c #2D3413",
"x  c #2D381A",
"c  c #2B311A",
"v  c #333D1E",
"b  c #3E3616",
"n  c #323308",
"m  c #1F3822",
"M  c #232928",
"N  c #2A3B25",
"B  c #263826",
"V  c #2F2F38",
"C  c #2A3D35",
"Z  c #4C370B",
"A  c #54330B",
"S  c #5A390C",
"D  c #4B3B15",
"F  c #4A3716",
"G  c #523F16",
"H  c #422B09",
"J  c #4E3420",
"K  c #753E2D",
"L  c #26481B",
"P  c #36401A",
"I  c #244627",
"U  c #2B452C",
"Y  c #274A29",
"T  c #284625",
"R  c #364729",
"E  c #2E4C32",
"W  c #2E4134",
"Q  c #344A39",
"!  c #38573D",
"~  c #2A5722",
"^  c #4F411F",
"/  c #574717",
"(  c #564D12",
")  c #644412",
"_  c #6D4712",
"`  c #6E4C14",
"'  c #704511",
"]  c #7A4C13",
"[  c #724A14",
"{  c #7A5616",
"}  c #6B6B19",
"|  c #454C3A",
" . c #47573A",
".. c #5B5737",
"X. c #63592A",
"o. c #655132",
"O. c #765F27",
"+. c #4B6325",
"@. c #7A6F38",
"#. c #393E47",
"$. c #3D454B",
"%. c #394C45",
"&. c #3F554C",
"*. c #3B5640",
"=. c #3F4C50",
"-. c #3F6743",
";. c #444943",
":. c #444A4C",
">. c #445846",
",. c #585A43",
"<. c #414B52",
"1. c #484A56",
"2. c #465355",
"3. c #4A545C",
"4. c #4A5A54",
"5. c #5B5F5F",
"6. c #4A6E4B",
"7. c #436645",
"8. c #586747",
"9. c #4C724D",
"0. c #51754F",
"q. c #4C6554",
"w. c #4D6C53",
"e. c #4D675C",
"r. c #507257",
"t. c #557959",
"y. c #606F4D",
"u. c #667B55",
"i. c #636F4F",
"p. c #484F60",
"a. c #4E5362",
"s. c #545766",
"d. c #595A72",
"f. c #5A646D",
"g. c #566866",
"h. c #5B7766",
"j. c #5E6478",
"k. c #5F6575",
"l. c #626668",
"z. c #616D79",
"x. c #676978",
"c. c #637D74",
"v. c #6A7875",
"b. c #727579",
"n. c #617668",
"m. c #925D17",
"M. c #835513",
"N. c #83621C",
"B. c #8D601C",
"V. c #816816",
"C. c #9C661A",
"Z. c #8A791A",
"A. c #98701C",
"S. c #A57F1E",
"D. c #8B6826",
"F. c #877F20",
"G. c #9E7921",
"H. c #896F35",
"J. c #8C7937",
"K. c #B47D23",
"L. c #A97B24",
"P. c #876841",
"I. c #AD794E",
"U. c #807570",
"Y. c #5C8259",
"T. c #6A875F",
"R. c #61875D",
"E. c #5F8564",
"W. c #5D8465",
"Q. c #648E6B",
"!. c #668B65",
"~. c #6C9C6E",
"^. c #6A8875",
"/. c #7E827F",
"(. c #6F9E72",
"). c #739C78",
"_. c #76846B",
"`. c #79A972",
"'. c #8E821B",
"]. c #94801F",
"[. c #8E991C",
"{. c #9D8921",
"}. c #9B8338",
"|. c #A99B28",
" X c #B19C2E",
".X c #A98627",
"XX c #9CA720",
"oX c #A7A725",
"OX c #C3993D",
"+X c #CEBB33",
"@X c #C7B22C",
"#X c #AC9950",
"$X c #AD9246",
"%X c #A29777",
"&X c #8FB87F",
"*X c #92B37C",
"=X c #CBB45E",
"-X c #DCBE5D",
";X c #DEC75C",
":X c #CEC464",
">X c #D7C671",
",X c #717083",
"<X c #979693",
"1X c #9C9B9D",
"2X c #9C9E94",
"3X c #86888A",
"4X c #AD9B89",
"5X c #AFB29C",
"6X c #AAA9A9",
"7X c #BABBBE",
"8X c #C3C5BF",
"9X c None",
/* pixels */
"9X9X9X9X9X9X9X9X9X9X9X9X9X9X9X9X9X9X9X9X9X9X9X9X9X9X9X9X9X9X9X9X9X9X9X9X9X9X9X9X9X9X9X9X9X9X9X9X9X9X9X9X9X9X9X9X9X9X9X9X9X9X9X9X",
"9X9X9X9X9X9X9X9X9X9X9X9X9X9X9X9X9X9X9X9X9X9X9X9X9X9X9X9X9X9X9X9X9X9X9X9X9X9X9X9X9X9X9X9X9X9X9X9X9X9X9X9X9X9X9X9X9X9X9X9X9X9X9X9X",
"9X9X9X9X9X9X9X9X9X9X9X9X9X9X9X9X9X9X9X9X9X9X9X9X9X9X9X9X9X9X9X9X9X9X9X9X9X9X9X9X9X9X9X9X9X9X9X9X9X9X9X9X9X9X9X9X9X9X9X9X9X9X9X9X",
"9X9X9X9X9X9X9X9X9X9X9X9X9X9X9X9X9X9X9X9X9X9X9X9X9X9X9X9X9X9X9X9X9X9X9X9X9X9X9X9X9X9X9X9X9X9X9X9X9X9X9X9X9X9X9X9X9X9X9X9X9X9X9X9X",
"9X9X9X9X9X9X9X9X9X9X9X9X9X9X9X9X9X9X9X9X9X9X9X9X9X9X9X9X9X9X9X9X9X9X9X9X9X9X9X9X9X9X9X9X9X9X9X9X9X9X9X9X9X9X9X9X9X9X9X9X9X9X9X9X",
"9X9X9X9X9X9X9X9X9X9X9X9X9X9X9X9X9X9X9X9X9X9X9X9X9X9X9X9X9X9X9X9X9X9X9X9X9X9X9X9X9X9X9X9X9X9X9X9X9X9X9X9X9X9X9X9X9X9X9X9X9X9X9X9X",
"9X9X9X9X9X9X9X9X9X9X9X9X9X9X9X9X9X9X9X9X9X9X9X9X9X9X9X9X9X9X9X9X9X9X9X9X9X9X9X9X9X9X9X9X9X9X9X9X9X9X9X9X9X9X9X9X9X9X9X9X9X9X9X9X",
"9X9X9X9X9X9X9X9X9X9X9X9X9X9X9X9X9X9X9X9X9X9X9X9X9X9X9X9X9X9X9X9X9X9X9X9X9X9X9X9X9X9X9X9X9X9X9X9X9X9X9X9X9X9X9X9X9X9X9X9X9X9X9X9X",
"9X9X9X9X9X9X9X9X9X9X9X9X9X9X9X9X9X9X9X9X9X9X9X9X9X9X9X9X9X9X9X9X9X9X9X9X9X9X9X9X9X9X9X9X9X9X9X9X9X9X9X9X9X9X9X9X9X9X9X9X9X9X9X9X",
"9X9X9X9X9X9X9X9X9X9X9X9X9X9X9X9X9X9X9X9X9X9X9X9X9X9X9X9X9X9X9X9X9X9X9X9X9X9X9X9X9X9X9X9X9X9X9X9X9X9X9X9X9X9X9X9X9X9X9X9X9X9X9X9X",
"9X9X9X9X9X9X9X9X9X9X9X9X9X9X9X9X9X9X9X9X9X9X9X9X9X9X9X9X9X9X9X9X9X9X9X9X9X9X9X9X9X9X9X9X9X9X9X9X9X9X9X9X9X9X9X9X9X9X9X9X9X9X9X9X",
"9X9X9X9X9X9X9X9X9X9X9X9X9X9X9X9X9X9X9X9X9X9X9X9X9X9X9X9X9X9X9X9X9X9X9X9X9X9X9X9X9X9X9X9X9X9X9X9X9X9X9X9X9X9X9X9X9X9X9X9X9X9X9X9X",
"9X9X9X9X9X9X9X9X9X9X9X9X9X9X9X9X9X9X9X9X9X9X9X9X9X9X9X9X9X9X9X9X9X9X9X9X9X9X9X9X9X9X9X9X9X9X9X9X9X9X9X9X9X9X9X9X9X9X9X9X9X9X9X9X",
"9X9X9X9X9X9X9X9X9X9X9X9X9X9X9X9X9X9X9X9X9X9X9X9X9X9X9X9X9X9X9X9X9X9X9X9X9X9X9X9X9X9X9X9X9X9X9X9X9X9X9X9X9X9X9X9X9X9X9X9X9X9X9X9X",
"9X9X9X9X9X9X9X9X9X9X9X9X9X9X9X9X9X9X9X9X9X9X9X9X9X9X9X9X9X9X9X9X9X9X9X9X9X9X9X9X9X9X9X9X9X9X9X9X9X9X9X9X9X9X9X9X9X9X9X9X9X9X9X9X",
"9X9X9X9X9X9X9X9X9X9X9X9X9X9X9X9X9X9X9X9X9X9X9X9X9X9X9X9X9X9X9X9X9X9X9X9X9X9X9X9X9X9X9X9X9X9X9X9X9X9X9X9X9X9X9X9X9X9X9X9X9X9X9X9X",
"9X9X9X9X9X9X9X9X9X9X9X9X9X9X9X9X9X9X9X9X9X9X9X9X9X9X9X9X9X9X9X9X9X9X9X9X9X9X9X9X9X9X9X9X9X9X9X9X9X9X9X9X9X9X9X9X9X9X9X9X9X9X9X9X",
"9X9X9X9X9X9X9X9X9X9X9X9X9X9X9X9X9X9X9X9X9X9X9X9X9X9X9X9X9X9X9X9X9X9X9X9X9X9X9X9X9X9X9X9X9X9X9X9X9X9X9X9X9X9X9X9X9X9X9X9X9X9X9X9X",
"9X9X9X9X9X9X9X9X9X9X9X9X9X9X9X9X9X9X9X9X9X9X9X9X9X9X9X9X9X9X9X9X9X9X9X9X9X9X9X9X9X9X9X9X9X9X9X9X9X9X9X9X9X9X9X9X9X9X9X9X9X9X9X9X",
"9X9X9X9X9X9X9X9X9X9X9X9X9X9X9X9X9X9X9X9X9X9X9X9X9X9X9X9X9X9X9X9X9X9X9X9X9X9X9X9X9X5X9X9X9X9X9X9X9X9X9X9X9X9X9X9X9X9X9X9X9X9X9X9X",
"9X9X9X9X9X9X9X9X9X9X9X9X9X9X9X9X9X9X9X9X9X9X9X9X9X9X9X9X9X9X9X9X9X9X9X9X9X9X9X'.%XP.I.|.9X9X9X9X9X9X9X9X9X9X9X9X9X9X9X9X9X9X9X9X",
"9X9X9X9X9X9X9X9X9X9X9X9X9X9X9X9X9X9X9X9X9X9X9X9X9X9X9X3 0 6 + .   9X9X9X9X9X9X] o.4XD.B._ [ 9X9X9X9X9X9X9X9X9X9X9X9X9X9X9X9X9X9X",
"9X9X9X9X9X9X9X9X9X9X9X9X9X9X9X9X9X9X9X9X9X9X9X9X+ 6 d U d 6 @ . . 9X9X9X9X].m.' h ;.<X| / ( / 9X9X9X9X9X9X9X9X9X9X9X9X9X9X9X9X9X",
"9X9X9X9X9X9X9X9X9X9X9X9X9X9X9X9X9X9X9X9X9X9X9Xt  .R._.N w 6 | y 9X9X9X9X'.m.' * + w c o.P x z 9 9X9X9X9X9X9X9X9X9X9X9X9X9X9X9X9X",
"9X9X9X9X9X9X9X9X9X9X9X9X9X9X9X9X9X9X9X9X9Xo m R.&X*XE  . .6  .5 9X9X9X9X9XM.1 + 6 x D..X} +.+.~ ~ a 9X9X9X9X9X9X9X9X9X9X9X9X9X9X",
"9X9X9X9X9X9X9X9X9X9X9X9X9X9X9X9X9X9X9X9X+ I !.`.&X6.7.y.| 6 8.@ 9X9X9X9XZ.S o 5 b @.B.C.B.k ,.i._...9X9X9X9X9X9X9X9X9X9X9X9X9X9X",
"9X9X9X9X9X9X9X9X9X9X9X9X9X9X9X9X9X9X9X3 E Y.~.`. .0.R.u. .+ y.= 9X9X9XXX{ A . t H.$X.XB.B.( J K 9X2X9X9X9X9X9X9X9X9X9X9X9X9X9X9X",
"9X9X9X9X9X9X9X9X9X9X9X9X9X9X9X9X9X9X3 Q r.).(.6.! R.R.T. .6 8.k % 9X9X9XV.A . t }.:X XG.|.9X9Xr b.9X9X9X9X9X9X9X9X9X9X9X9X9X9X9X",
"9X9X9X9X9X9X9X9X9X9X9X9X9X9X9X9X9X9XU e.).Q.9.%.E.~.0.T.u.i N = . 9X9X9XZ._ o 5 O.;X9X9X9X9X9X9X9X9X9X9X9X9X9X9X9X9X9X9X9X9X9X9X",
"9X9X9X9X9X9X9X9X9X9X9X9X9X9X9X9X9Xs 4.^.^.h.%.e.E.E.9.t.R 8 % @ . . 9X9XZ.] g 7 ^ $X9X9X9X9X9X9X9X9X9X9X9X9X9X9X9X9X9X9X9X9X9X9X",
"9X9X9X9X9X9X9X9X9X9X9X9X9X9X9X9X% %.f.c.^.%.4.g.Q.r.6.7.U U # 4 y = . } V.A X % v -X>X9X9X9X9X9X9X9X9X9X9X9X9X9X9X9X9X9X9X9X9X9X",
"9X9X9X9X9X9X9X9X9X9X9X9X9X9X9X9XC 2.2.z.4.$.g.^.^.q.7.! h.t.d o w k = . , H . 5 R OX9X9X9X9X9X9X9X9X9X9X9X9X9X9X9X9X9X9X9X9X9X9X",
"9X9X9X9X9X9X9X9X9X9X9X9X9X9X9Xu =.1.d.z.<.p.j.f.h.&.E W.h.Q.9.I . 4 t q O 5 6 6 X.=XL 9X9X9X9X9X9X9X9X9X9X9X9X9X9X9X9X9X9X9X9X9X",
"9X9X9X9X9X9X9X9X9X9X9X9X9X9X# <.j.9X,Xs.s.z.j.v.n.W e.c.h.r.t.E.Q # t 9 3 # t f X.#X7 9X9X9X+ 6X9X9X9X9X9X9X9X9X9X9X9X9X9X9X9X9X",
"9X9X9X9X9X9X9X9X9X9X9X9X9X9XB 9X9X9Xs.&.9X3Xd.x.Q :.j.j.g.q.q.6.9.Q e % o o 5 B Y J.4 9X9X. + | 1X9X9X9X9X9X9X9X9X9X9X9X9X9X9X9X",
"9X9X9X9X9X9X9X9X9X9X9X9X9X: 9X9X9X9Xa.9X9X9X,Xl.C k.l.s.p.2.4.q.w.*.o o + o # t I @.w 3 9X  o l.8X9X9X9X9X9X9X9X9X9X9X9X9X9X9X9X",
"9X9X9X9X9X9X9X9X9X9X9X9X= B 9X9X9XV $.9X9X9X,X;.f.9X9X1.1.<.1.4.Q & o + 4 & o t Y @.p 5 9X. . 9X9X9X9X9X9X9X9X9X9X9X9X9X9X9X9X9X",
"9X9X9X9X9X9X9X9X9X9X9X9Xy 9X9X9X9XV 9X9X9X9X5.M 9X9X9X; :.<.$.:.y o + 5 6 i o q I @ 5 + >.b.9X9X9X9X9X9X9X9X9X9X9X9X9X9X9X9X9X9X",
"9X9X9X9X9X9X9X9X9X9X9X= 9X9X9X9X9Xy 9X9X9X9X$ $ 9X9X9X* S 2 #.M o @ 7 q u g - t s # # 4 s.6X9X9X9X9X9X9X9X9X9X9X9X9X9X9X9X9X9X9X",
"9X9X9X9X9X9X9X9X9X9X9X# 9X9X9X9X9X9X9X9X9X9X$ 9X9X9X[.Z A < 5 4 + 5 q r l D - 5 m .   & %X9X9X9X9X9X9X9X9X9X9X9X9X9X9X9X9X9X9X9X",
"9X9X9X9X9X9X9X9X9X9X9X9X9X9X9X9X9X9X9X9X9X9X9X9X9X9XZ.' H   q t t q i F F k   # 3 % . @ 9X9X9X9X9X9X9X9X9X9X9X9X9X9X9X9X9X9X9X9X",
"9X9X9X9X9X9X9X9X9X9X9X9X9X9X9X9X9X9X9X9X9X9X9X9X9XoX] [ -   # & s Y v ^ l # @   . . . 9X9X9X9X9X9X9X9X9X9X9X9X9X9X9X9X9X9X9X9X9X",
"9X9X9X9X9X9X9X9X9X9X9X9X9X9X9X9X9X9X9X9X9X9X9X9X9XZ.L.{   .   o t T ! R .   # 9X9X9X9X9X9X9X9X9X9X9X9X9X9X9X9X9X9X9X9X9X9X9X9X9X",
"9X9X9X9X9X9X9X9X9X9X9X9X9X9X9X9X9X9X9X9X9X9X9X9X+XG.D.  . + . . o 5 T -.q & . 9X9X9X9X9X9X9X9X9X9X9X9X9X9X9X9X9X9X9X9X9X9X9X9X9X",
"9X9X9X9X9X9X9X9X9X9X9X9X9X9X9X9X9X9X9X9X9X9X9X@XC.M.  o # & 1 X . # & E s o 9X9X9X9X9X9X9X9X9X9X9X9X9X9X9X9X9X9X9X9X9X9X9X9X9X9X",
"9X9X9X9X9X9X9X9X9X9X9X9X9X9X9X9X9X9X9X9X9X9X.X` Z + 3 % r F g O # q 5 4 #   9X9X9X9X9X9X9X9X9X9X9X9X9X9X9X9X9X9X9X9X9X9X9X9X9X9X",
"9X9X9X9X9X9X9X9X9X9X9X9X9X9X9X9X9X9X9X9X9X].{ n p T x l D z . . 5 5 @ + + + 9X9X9X9X9X9X9X9X9X9X9X9X9X9X9X9X9X9X9X9X9X9X9X9X9X9X",
"9X9X9X9X9X9X9X9X9X9X9X9X9X9X9X9X9X9X9X9X) g w 8 8 x ^ G / 9X  . t 4   # 4 3 3 Q 7X9X9X9X9X9X9X9X9X9X9X9X9X9X9X9X9X9X9X9X9X9X9X9X",
"9X9X9X9X9X9X9X9X9X9X9X9X9X9X9X9X9X9X9X9X  % 8 * - g h Z 9X9X9X  o t 5 t x 3X> 4.<X9X9X9X9X9X9X9X9X9X9X9X9X9X9X9X9X9X9X9X9X9X9X9X",
"9X9X9X9X9X9X9X9X9X9X9X9X9X9X9X9X9X9X9X9X    X h < - h 9X9X9X9X9X  . u Q v.1X9X9X9X9X9X9X9X9X9X9X9X9X9X9X9X9X9X9X9X9X9X9X9X9X9X9X",
"9X9X9X9X9X9X9X9X9X9X9X9X9X9X9X9X9X9X9X9X  9X9X< 9X9X9X9X9X9X9X9X9X9X9X6X9X9X9X9X9X9X9X9X9X9X9X9X9X9X9X9X9X9X9X9X9X9X9X9X9X9X9X9X",
"9X9X9X9X9X9X9X9X9X9X9X9X9X9X9X9X9X9X9X9X9X9X9X9X9X9X9X9X9X9X9X9X9X9X9X9X9X9X9X9X9X9X9X9X9X9X9X9X9X9X9X9X9X9X9X9X9X9X9X9X9X9X9X9X",
"9X9X9X9X9X9X9X9X9X9X9X9X9X9X9X9X9X9X9X9X9X9X9X9X9X9X9X9X9X9X9X9X9X9X9X9X9X9X9X9X9X9X9X9X9X9X9X9X9X9X9X9X9X9X9X9X9X9X9X9X9X9X9X9X",
"9X9X9X9X9X9X9X9X9X9X9X9X9X9X9X9X9X9X9X9X9X9X9X9X9X9X9X9X9X9X9X9X9X9X9X9X9X9X9X9X9X9X9X9X9X9X9X9X9X9X9X9X9X9X9X9X9X9X9X9X9X9X9X9X",
"9X9X9X9X9X9X9X9X9X9X9X9X9X9X9X9X9X9X9X9X9X9X9X9X9X9X9X9X9X9X9X9X9X9X9X9X9X9X9X9X9X9X9X9X9X9X9X9X9X9X9X9X9X9X9X9X9X9X9X9X9X9X9X9X",
"9X9X9X9X9X9X9X9X9X9X9X9X9X9X9X9X9X9X9X9X9X9X9X9X9X9X9X9X9X9X9X9X9X9X9X9X9X9X9X9X9X9X9X9X9X9X9X9X9X9X9X9X9X9X9X9X9X9X9X9X9X9X9X9X",
"9X9X9X9X9X9X9X9X9X9X9X9X9X9X9X9X9X9X9X9X9X9X9X9X9X9X9X9X9X9X9X9X9X9X9X9X9X9X9X9X9X9X9X9X9X9X9X9X9X9X9X9X9X9X9X9X9X9X9X9X9X9X9X9X",
"9X9X9X9X9X9X9X9X9X9X9X9X9X9X9X9X9X9X9X9X9X9X9X9X9X9X9X9X9X9X9X9X9X9X9X9X9X9X9X9X9X9X9X9X9X9X9X9X9X9X9X9X9X9X9X9X9X9X9X9X9X9X9X9X",
"9X9X9X9X9X9X9X9X9X9X9X9X9X9X9X9X9X9X9X9X9X9X9X9X9X9X9X9X9X9X9X9X9X9X9X9X9X9X9X9X9X9X9X9X9X9X9X9X9X9X9X9X9X9X9X9X9X9X9X9X9X9X9X9X",
"9X9X9X9X9X9X9X9X9X9X9X9X9X9X9X9X9X9X9X9X9X9X9X9X9X9X9X9X9X9X9X9X9X9X9X9X9X9X9X9X9X9X9X9X9X9X9X9X9X9X9X9X9X9X9X9X9X9X9X9X9X9X9X9X",
"9X9X9X9X9X9X9X9X9X9X9X9X9X9X9X9X9X9X9X9X9X9X9X9X9X9X9X9X9X9X9X9X9X9X9X9X9X9X9X9X9X9X9X9X9X9X9X9X9X9X9X9X9X9X9X9X9X9X9X9X9X9X9X9X",
"9X9X9X9X9X9X9X9X9X9X9X9X9X9X9X9X9X9X9X9X9X9X9X9X9X9X9X9X9X9X9X9X9X9X9X9X9X9X9X9X9X9X9X9X9X9X9X9X9X9X9X9X9X9X9X9X9X9X9X9X9X9X9X9X",
"9X9X9X9X9X9X9X9X9X9X9X9X9X9X9X9X9X9X9X9X9X9X9X9X9X9X9X9X9X9X9X9X9X9X9X9X9X9X9X9X9X9X9X9X9X9X9X9X9X9X9X9X9X9X9X9X9X9X9X9X9X9X9X9X",
"9X9X9X9X9X9X9X9X9X9X9X9X9X9X9X9X9X9X9X9X9X9X9X9X9X9X9X9X9X9X9X9X9X9X9X9X9X9X9X9X9X9X9X9X9X9X9X9X9X9X9X9X9X9X9X9X9X9X9X9X9X9X9X9X"
};
