/* XPM */
static char *result[] = {
/* columns rows colors chars-per-pixel */
"64 64 228 2 ",
"   c #020501",
".  c #020B02",
"X  c #090C04",
"o  c #130F04",
"O  c #031303",
"+  c #041B04",
"@  c #0A1C05",
"#  c #0C150A",
"$  c #0B1B0B",
"%  c #081806",
"&  c #1C1B09",
"*  c #151707",
"=  c #0F0F11",
"-  c #101513",
";  c #241904",
":  c #251C07",
">  c #331A05",
",  c #052405",
"<  c #0B240C",
"1  c #0B290C",
"2  c #072808",
"3  c #10240C",
"4  c #1C240B",
"5  c #0D360C",
"6  c #0E2511",
"7  c #0F2B10",
"8  c #152414",
"9  c #112C12",
"0  c #1A251B",
"q  c #1B2A1C",
"w  c #1B2716",
"e  c #123214",
"r  c #143B14",
"t  c #163118",
"y  c #1A341A",
"u  c #1C391C",
"i  c #173718",
"p  c #0F3413",
"a  c #23220D",
"s  c #2B260F",
"d  c #332206",
"f  c #382907",
"g  c #222D1A",
"h  c #262715",
"j  c #23331B",
"k  c #273719",
"l  c #3B3113",
"z  c #353013",
"x  c #1E2B23",
"c  c #252C2D",
"v  c #212825",
"b  c #233423",
"n  c #243B23",
"m  c #2B3A25",
"M  c #2A332E",
"N  c #263D28",
"B  c #2C3B2B",
"V  c #283328",
"C  c #343B2B",
"Z  c #2A2D33",
"A  c #2E3D32",
"S  c #2E3137",
"D  c #323B35",
"F  c #353A3C",
"G  c #34353A",
"H  c #4A2E08",
"J  c #493108",
"K  c #57390C",
"L  c #473916",
"P  c #633A0A",
"I  c #0C560A",
"U  c #184619",
"Y  c #34481A",
"T  c #2C4E1C",
"R  c #0E680A",
"E  c #246F1F",
"W  c #1D4221",
"Q  c #224324",
"!  c #2D432D",
"~  c #294928",
"^  c #394B29",
"/  c #295528",
"(  c #314433",
")  c #344B33",
"_  c #3A4C33",
"`  c #394D3C",
"'  c #394339",
"]  c #345234",
"[  c #3B543D",
"{  c #3B583A",
"}  c #2F4E31",
"|  c #386638",
" . c #2D6A24",
".. c #584919",
"X. c #525211",
"o. c #55470F",
"O. c #75420E",
"+. c #674B17",
"@. c #794912",
"#. c #675418",
"$. c #6E420F",
"%. c #77751C",
"&. c #455739",
"*. c #4E562E",
"=. c #695F28",
"-. c #745825",
";. c #714E2B",
":. c #48613C",
">. c #53653C",
",. c #5C752C",
"<. c #716031",
"1. c #76672B",
"2. c #353C41",
"3. c #383C44",
"4. c #3A4544",
"5. c #3D4349",
"6. c #3D4B44",
"7. c #3D5343",
"8. c #3E5942",
"9. c #3E6840",
"0. c #42464D",
"q. c #424B4C",
"w. c #474749",
"e. c #405445",
"r. c #445E45",
"t. c #455A4C",
"y. c #465647",
"u. c #444752",
"i. c #444A52",
"p. c #4A4D54",
"a. c #4E4E5A",
"s. c #4A5356",
"d. c #4B5C54",
"f. c #4C535B",
"g. c #4D5C5A",
"h. c #455152",
"j. c #55555C",
"k. c #565C5A",
"l. c #54524E",
"z. c #486849",
"x. c #586848",
"c. c #4A784C",
"v. c #58744E",
"b. c #4C6352",
"n. c #4F6B52",
"m. c #536C5B",
"M. c #526558",
"N. c #527354",
"B. c #56725A",
"V. c #567A58",
"C. c #62724D",
"Z. c #6A7B54",
"A. c #63664D",
"S. c #565966",
"D. c #5D7765",
"F. c #576D60",
"G. c #676766",
"H. c #6D7768",
"J. c #855818",
"K. c #935C1D",
"L. c #8D791E",
"P. c #9A791C",
"I. c #A4641B",
"U. c #A17B1D",
"Y. c #8D6535",
"T. c #8F7728",
"R. c #AD7E20",
"E. c #C07F25",
"W. c #9A7249",
"Q. c #7F881A",
"!. c #678128",
"~. c #66A53C",
"^. c #53954E",
"/. c #6A8455",
"(. c #77915F",
"). c #74B85C",
"_. c #73A042",
"`. c #708F62",
"'. c #7E9667",
"]. c #649063",
"[. c #7AB56B",
"{. c #808118",
"}. c #9A8D28",
"|. c #B68725",
" X c #B69728",
".X c #AA9428",
"XX c #B4A52D",
"oX c #BFB432",
"OX c #C28326",
"+X c #C39828",
"@X c #C28E30",
"#X c #CCB539",
"$X c #D4CD39",
"%X c #988C48",
"&X c #8E8951",
"*X c #AF8F47",
"=X c #BAA956",
"-X c #80827A",
";X c #B39F79",
":X c #96AD6D",
">X c #A5B678",
",X c #AFBB6F",
"<X c #C5905C",
"1X c #CCB24C",
"2X c #C5BD6C",
"3X c #9AC04F",
"4X c #B9C84C",
"5X c #C7D742",
"6X c #D4C760",
"7X c #E5D96E",
"8X c #93958D",
"9X c #A39C81",
"0X c #99A093",
"qX c #AEB486",
"wX c #B9BAB5",
"eX c #AEBAA4",
"rX c #D5BEAC",
"tX c #D8D98B",
"yX c #CED796",
"uX c #CAC38A",
"iX c #E8EE9A",
"pX c #C2C3BD",
"aX c #CAC7A9",
"sX c #DEE1A0",
"dX c #C7C9C4",
"fX c #D1D6CB",
"gX c #EFEFEF",
"hX c None",
/* pixels */
"hXhXhXhXhXhXhXhXhXhXhXhXhXhXhXhXhXhXhXhXhXhXhXhXhXhXhXhXhXhXhXhXhXhXhXhXhXhXhXhXhXhXhXhXhXhXhXhXhXhXhXhXhXhXhXhXhXhXhXhXhXhXhXhX",
"hXhXhXhXhXhXhXhXhXhXhXhXhXhXhXhXhXhXhXhXhXhXhXhXhXhXhXhXhXhXhXhXhXhXhXhXhXhXhXhXhXhXhXhXhXhXhXhXhXhXhXhXhXhXhXhXhXhXhXhXhXhXhXhX",
"hXhXhXhXhXhXhXhXhXhXhXhXhXhXhXhXhXhXhXhXhXhXhXhXhXhXhXhXhXhXhXhXhXhXhXhXhXhXhXhXhXhXhXhXhXhXhXhXhXhXhXhXhXhXhXhXhXhXhXhXhXhXhXhX",
"hXhXhXhXhXhXhXhXhXhXhXhXhXhXhXhXhXhXhXhXhXhXhXhXhXhXhXhXhXhXhXhXhXhXhXhXhXhXhXhXhXhXhXhXhXhXhXhXhXhXhXhXhXhXhXhXhXhXhXhXhXhXhXhX",
"hXhXhXhXhXhXhXhXhXhXhXhXhXhXhXhXhXhXhXhXhXhXhXhXhXhXhXhXhXhXhXhXhXhXhXhXhXhXhXhXhXhXhXhXhXhXhXhXhXhXhXhXhXhXhXhXhXhXhXhXhXhXhXhX",
"hXhXhXhXhXhXhXhXhXhXhXhXhXhXhXhXhXhXhXhXhXhXhXhXhXhXhXhXhXhXhXhXhXhXhXhXhXhXhXhXhXhXhXhXhXhXhXhXhXhXhXhXhXhXhXhXhXhXhXhXhXhXhXhX",
"hXhXhXhXhXhXhXhXhXhXhXhXhXhXhXhXhXhXhXhXhXhXhXhXhXhXhXhXhXhXhXhXhXhXhXhXhXhXhXhXhXhXhXhXhXhXhXhXhXhXhXhXhXhXhXhXhXhXhXhXhXhXhXhX",
"hXhXhXhXhXhXhXhXhXhXhXhXhXhXhXhXhXhXhXhXhXhXhXhXhXhXhXhXhXhXhXhXhXhXhXhXhXhXhXhXhXhXhXhXhXhXhXhXhXhXhXhXhXhXhXhXhXhXhXhXhXhXhXhX",
"hXhXhXhXhXhXhXhXhXhXhXhXhXhXhXhXhXhXhXhXhXhXhXhXhXhXhXhXhXhXhXhXhXhXhXhXhXhXhXhXhXhXhXhXhXhXhXhXhXhXhXhXhXhXhXhXhXhXhXhXhXhXhXhX",
"hXhXhXhXhXhXhXhXhXhXhXhXhXhXhXhXhXhXhXhXhXhXhXhXhXhXhXhXhXhXhXhXhXhXhXhXhXhXhXhXhXhXhXhXhXhXhXhXhXhXhXhXhXhXhXhXhXhXhXhXhXhXhXhX",
"hXhXhXhXhXhXhXhXhXhXhXhXhXhXhXhXhXhXhXhXhXhXhXhXhXhXhXhXhXhXhXhXhXhXhXhXhXhXhXhXhXhXhXhXhXhXhXhXhXhXhXhXhXhXhXhXhXhXhXhXhXhXhXhX",
"hXhXhXhXhXhXhXhXhXhXhXhXhXhXhXhXhXhXhXhXhXhXhXhXhXhXhXhXhXhXhXhXhXhXhXhXhXhXhXhXhXhXhXhXhXhXhXhXhXhXhXhXhXhXhXhXhXhXhXhXhXhXhXhX",
"hXhXhXhXhXhXhXhXhXhXhXhXhXhXhXhXhXhXhXhXhXhXhXhXhXhXhXhXhXhXhXhXhXhXhXhXhXhXhXhXhXhXhXhXhXhXhXhXhXhXhXhXhXhXhXhXhXhXhXhXhXhXhXhX",
"hXhXhXhXhXhXhXhXhXhXhXhXhXhXhXhXhXhXhXhXhXhXhXhXhXhXhXhXhXhXhXhXhXhXhXhXhXhXhXhXhXhXhXhXhXhXhXhXhXhXhXhXhXhXhXhXhXhXhXhXhXhXhXhX",
"hXhXhXhXhXhXhXhXhXhXhXhXhXhXhXhXhXhXhXhXhXhXhXhXhXhXhXhXhXhXhXhXhXhXhXhXhXhXhXhXhXhXhX. . . X - - X . hXhXhXhXhXhXhXhXhXhXhXhXhX",
"hXhXhXhXhXhXhXhXhXhXhXhXhXhXhXhXhXhXhXhXhXhXhXhXhXhXhXhXhXhXhXhXhXhXhXhXhXhX. O $ 8 0 x x v c S hXhXhXhXhXhXhXhXhXhXhXhXhXhXhXhX",
"hXhXhXhXhXhXhXhXhXhXhXhXhXhXhXhXhXhXhXhXhXhXhXhXhXhXhXhXgXhXhXhXhXhXhXhXO j _ { ) } ( M M Z Z hXhXhXhXhXhXhXhXhXhXhXhXhXhXhXhXhX",
"hXhXhXhXhXhXhXhXhXhXhXhXhXhXhXhXhXhXhXhXhXhXI.|.|.+X;XuXaXhXhXhXhXhX+ O B &.{ ] N c b M x x q < 1 < < hXhXhXhXhXhXhXhXhXhXhXhXhX",
"hXhXhXhXhXhXhXhXhXhXhXhXhXhXhXhXhXhXhXhXhX+.J.-.Y.<XrX;XP.hXhXhXhX+ X # w g m m ! u y u y n q ! B B x q 0 0 0 8 8 - $ # # hXhXhX",
"hXhXhXhXhXhXhXhXhXhXhXhXhXhXhXhXhXhXhXhXU Y ~ X.M.8Xq.P I.R.hXhX, + g y.v.:.r 1 m _ '.v.N.c.V.N.8.e.7.D c 2.S Z hXhXhXhXhXhXhXhX",
"hXhXhXhXhXhXhXhXhXhXhXhXhXhXI hXR T #./  .!.,.L.@X+., O J.I.hXhX@ j Z.&.Q 5 1 e _ x.`./.V.].c.n.B.D.t.d.p.5.hXhXhXhXhXhXhXhXhXhX",
"hXhXhXhXhXhXhXhXhXhXhXhXhXhXE :XhX:.>XeX>X%Xk  XE.T.k , ; K. XhXt < C._ 5 2 4 q m j Q n N n } r.M.m.d.f.u.S.hXhXhXhXhXhXhXhXhXhX",
"hXhXhXhXhXhXhXhXhXhXhXhXhXc.hX).].~.5X4X1XW.J.@X+X1X-.1 O P |.hXb &.,X/.8 C ( ( ( ( ( ! 8.[ 6.b b b.6.S.3.S.hXhXhXhXhXhXhXhXhXhX",
"hXhXhXhXhXhXhXhXhXhXhXhXhXhX^.).).3XqX*XJ.h #XOX X6X*Xy % K  XhXy C >XZ.* C _ ] ( 7.t.! ( t.t.6.A c A 5.a.hXhXhXhXhXhXhXhXhXhXhX",
"hXhXhXhXhXhXhXhXhXhXhXhXhXhXhX[.~.R fX8X# hXhX{.1XtX%Xk O K U.hXhXA.yX'., m _ :.{ m.7.7.4.4.q.5.0.2.S Z w.G.hXhXhXhXhXhXhXhXhXhX",
"hXhXhXhXhXhXhXhXhXhXhXhXhXhXR E hXhXhXhXhXhXhXhXhX7X=.1 . $.hXhX+ *.>X(.O V _ z.n.b.g.g.5.2.2.u.a.p.w.w.D 0 ' hXhXhXhXhXhXhXhXhX",
"hXhXhXhXhXhXhXhXhXhXhXhXhXhXhXhXhXhXhXhXhXhXhXhX7X=X^ 2 o K.$XhX+ w '.&.@ C { z.N.m.M.5.S.2.w.k.hXhXhXhXhXhXhX# hXhXhXhXhXhXhXhX",
"hXhXhXhXhXhXhXhXhXhXhXhXhXhXhXhXhXhXhXhXhXhXhXhXiX&Xu + H  X$XhXO O &.1 m ` ] { n.m.b.s.f.p.hXhXhXhXhXhXhXhXhXhXhX. hXhXhXhXhXhX",
"hXhXhXhXhXhXhXhXhXhXhXhXhXhXhXfXhXhXhXhXhXhXhX6X1X>.9 O J |.hXO 4 _ 6 O w m ) ] 7.m.f.5.i.j.hXhXhXhXhXhXhXhXhXhXhXhXhXhXhXhXhXhX",
"hXhXhXhXhXhXhXhXhXhXhXhXhXhXdX0Xj hXhXhXhXhXU =X2X>.6 O H .XX.*.C.~ + 8 ( ! n N ( e.g.p.u.hXhXhXhXhXhXhXhXhXhXhXhXhXhXhXhXhXhXhX",
"hXhXhXhXhXhXhXhXhXhXhXhXhXhXhXhX@ O hXhXhXhXU tX=Xr 1 < o ; *.x.! O q z.r.6.6.! q N F f.j.hXhXhXhXhXhXhXhXhXhXhXhXhXhXhXhXhXhXhX",
"hXhXhXhXhXhXhXhXhXhXhXhXhXhXhXhXhX+ . hXhXU { tXY / u $ X e u 9 $ ) 8.b.b.7.3.2.2.M q F u.hXhXhXhXhXhXhXhXhXhXhXhXhXhXhXhXhXhXhX",
"hXhXhXhXhXhXhXhXhXhXhXhXhXhXhXhXhXi e , } / (.=X| y < O , r i . &.n.b.N.t.5.5.q.w.G F M S hXhXhXhXhXhXhXhXhXhXhXhXhXhXhXhXhXhXhX",
"hXhXhXhXhXhXhXhXhXhXhXhXhXhXhXhXhXhXe ] p r %X:X] 6 O O + < 8 ` B.B.F.F.h.u.p.w.= hXhXhX. X hXhXhXhXhXhXhXhXhXhXhXhXhXhXhXhXhXhX",
"hXhXhXhXhXhXhXhXhXhXhXhXhXhXhXhXgXpX` u 7 + ..:.e @ O 6 , O O z.n.F.m.f.p.j.l.hX    hXhXhXhX. hXhXhXhXhXhXhXhXhXhXhXhXhXhXhXhXhX",
"hXhXhXhXhXhXhXhXhXhXhXhXhXhXhXhXhXpXb.+ # + hX| 6 . k y 1 + O # d.M.S.a.j.hXhXhXhX. hXhXhXhXhXhXhXhXhXhXhXhXhXhXhXhXhXhXhXhXhXhX",
"hXhXhXhXhXhXhXhXhXhXhXhXhXhXhXhXhXhXdX( . O n ] $ Y.+.j 9 < @ + c a.S.G.hXhXhXhXhXhXhXhXhXhXhXhXhXhXhXhXhXhXhXhXhXhXhXhXhXhXhXhX",
"hXhXhXhXhXhXhXhXhXhXhXhXhXhXhXhXhXhXhX9 # O + + * ..-.L j < 6 @ . 0.3...hXhXhXhXhXhXhXhXhXhXhXhXhXhXhXhXhXhXhXhXhXhXhXhXhXhXhXhX",
"hXhXhXhXhXhXhXhXhXhXhXhXhXhXhXhXhXhXhXhXhX. .     hX;.-.J j 9 < 1 9 % $.{.hXhXhXhXhXhXhXhXhXhXhXhXhXhXhXXXhXhXhXhXhXhXhXhXhXhXhX",
"hXhXhXhXhXhXhXhXhXhXhXhXhXhXhXhXhXhXhXhXhXhXhXhXhXhXY *.-.L y W i 6 O f @.hXhXhXhXhXhXhXhXhXhXhXhXhXhX#X}.%.hXhXhXhXhXhXhXhXhXhX",
"hXhXhXhXhXhXhXhXhXhXhXhXhXhXhXhXhXhXhXhXhXhXhXhXhXhX/ / <.1.| Q 8 O   > O.hXhXhXhXhXhXhXhXhXhXhXhXhXhX.XT.sXhXhXhXhXhXhXhXhXhXhX",
"hXhXhXhXhXhXhXhXhXhXhXhXhXhXhXhXhXhXhXhXhXhXhXhXhXhXW < *./.9.y $ .     H +.hXhXhXhXhXhXhXhXhXhXhXhXhX}.@.hXhXhXhXhXhXhXhXhXhXhX",
"hXhXhXhXhXhXhXhXhXhXhXhXhXhXhXhXhXhXhXhXhXhXhXhXhX@ 6 < z.c.y $ .   .   d +.{.hXhXhXhXhXhXhXhXhXhXhXXXL.@.hXhXhXhXhXhXhXhXhXhXhX",
"hXhXhXhXhXhXhXhXhXhXhXhXhXhXhXhXhXhXhXhXhXhXhXhXhXhX$ 2 | u % . X & % .   f J.hXhXhXhXhXhXhXhXhXhXd X.J.hXhXhXhXhXhXhXhXhXhXhXhX",
"hXhXhXhXhXhXhXhXhXhXhXhXhXhXhXhXhXhXhXhXhXhXhXhXhXhX+ + e + 6 . : L a . .   d +.hXhXhXhXhXhXhXo.f @ O.hXhXhXhXhXhXhXhXhXhXhXhXhX",
"hXhXhXhXhXhXhXhXhXhXhXhXhXhXhXhXhXhXhXhXhXhXhXhXhXhXhX% 7 < t + O l L 4 $ . . ; K o.X.hXhXK J * + X hXhXhXhXhXhXhXhXhXhXhXhXhXhX",
"hXhXhXhXhXhXhXhXhXhXhXhXhXhXhXhXhXhXhXhXhXhXhXhXhXr e 2 6 O 2 6 . . a l z 6 O . X o ; > : % O O hXhXhXhXhXhXhXhXhXhXhXhXhXhXhXhX",
"hXhXhXhXhXhXhXhXhXhXhXhXhXhXhXhXhXhXhXhXhXhXhXdX9.5 2 1 + hXQ 8   hXhXhXz z a $ X O . O O O 4 hXhXhXhXhXhXhXhXhXhXhXhXhXhXhXhXhX",
"hXhXhXhXhXhXhXhXhXhXhXhXhXhXhXhXhXhXhXhXhXhXhXdXG.G.0Xn i e 9 . hXhXhXhXhXhXs & & : : o hXhXhXhXhXhXhXhXhXhXhXhXhXhXhXhXhXhXhXhX",
"hXhXhXhXhXhXhXhXhXhXhXhXhXhXhXhXhXhXhXhXhXhXhXhXhXhXwXH.M.6   hXhXhXhXhXhXhXhXhXhXhXhXhXhXhXhXhXhXhXhXhXhXhXhXhXhXhXhXhXhXhXhXhX",
"hXhXhXhXhXhXhXhXhXhXhXhXhXhXhXhXhXhXhXhXhXhXhXhXhXhXhXhX-XhXhXhXhXhXhXhXhXhXhXhXhXhXhXhXhXhXhXhXhXhXhXhXhXhXhXhXhXhXhXhXhXhXhXhX",
"hXhXhXhXhXhXhXhXhXhXhXhXhXhXhXhXhXhXhXhXhXhXhXhXhXhXhXhXhXhXhXhXhXhXhXhXhXhXhXhXhXhXhXhXhXhXhXhXhXhXhXhXhXhXhXhXhXhXhXhXhXhXhXhX",
"hXhXhXhXhXhXhXhXhXhXhXhXhXhXhXhXhXhXhXhXhXhXhXhXhXhXhXhXhXhXhXhXhXhXhXhXhXhXhXhXhXhXhXhXhXhXhXhXhXhXhXhXhXhXhXhXhXhXhXhXhXhXhXhX",
"hXhXhXhXhXhXhXhXhXhXhXhXhXhXhXhXhXhXhXhXhXhXhXhXhXhXhXhXhXhXhXhXhXhXhXhXhXhXhXhXhXhXhXhXhXhXhXhXhXhXhXhXhXhXhXhXhXhXhXhXhXhXhXhX",
"hXhXhXhXhXhXhXhXhXhXhXhXhXhXhXhXhXhXhXhXhXhXhXhXhXhXhXhXhXhXhXhXhXhXhXhXhXhXhXhXhXhXhXhXhXhXhXhXhXhXhXhXhXhXhXhXhXhXhXhXhXhXhXhX",
"hXhXhXhXhXhXhXhXhXhXhXhXhXhXhXhXhXhXhXhXhXhXhXhXhXhXhXhXhXhXhXhXhXhXhXhXhXhXhXhXhXhXhXhXhXhXhXhXhXhXhXhXhXhXhXhXhXhXhXhXhXhXhXhX",
"hXhXhXhXhXhXhXhXhXhXhXhXhXhXhXhXhXhXhXhXhXhXhXhXhXhXhXhXhXhXhXhXhXhXhXhXhXhXhXhXhXhXhXhXhXhXhXhXhXhXhXhXhXhXhXhXhXhXhXhXhXhXhXhX",
"hXhXhXhXhXhXhXhXhXhXhXhXhXhXhXhXhXhXhXhXhXhXhXhXhXhXhXhXhXhXhXhXhXhXhXhXhXhXhXhXhXhXhXhXhXhXhXhXhXhXhXhXhXhXhXhXhXhXhXhXhXhXhXhX",
"hXhXhXhXhXhXhXhXhXhXhXhXhXhXhXhXhXhXhXhXhXhXhXhXhXhXhXhXhXhXhXhXhXhXhXhXhXhXhXhXhXhXhXhXhXhXhXhXhXhXhXhXhXhXhXhXhXhXhXhXhXhXhXhX",
"hXhXhXhXhXhXhXhXhXhXhXhXhXhXhXhXhXhXhXhXhXhXhXhXhXhXhXhXhXhXhXhXhXhXhXhXhXhXhXhXhXhXhXhXhXhXhXhXhXhXhXhXhXhXhXhXhXhXhXhXhXhXhXhX",
"hXhXhXhXhXhXhXhXhXhXhXhXhXhXhXhXhXhXhXhXhXhXhXhXhXhXhXhXhXhXhXhXhXhXhXhXhXhXhXhXhXhXhXhXhXhXhXhXhXhXhXhXhXhXhXhXhXhXhXhXhXhXhXhX",
"hXhXhXhXhXhXhXhXhXhXhXhXhXhXhXhXhXhXhXhXhXhXhXhXhXhXhXhXhXhXhXhXhXhXhXhXhXhXhXhXhXhXhXhXhXhXhXhXhXhXhXhXhXhXhXhXhXhXhXhXhXhXhXhX",
"hXhXhXhXhXhXhXhXhXhXhXhXhXhXhXhXhXhXhXhXhXhXhXhXhXhXhXhXhXhXhXhXhXhXhXhXhXhXhXhXhXhXhXhXhXhXhXhXhXhXhXhXhXhXhXhXhXhXhXhXhXhXhXhX",
"hXhXhXhXhXhXhXhXhXhXhXhXhXhXhXhXhXhXhXhXhXhXhXhXhXhXhXhXhXhXhXhXhXhXhXhXhXhXhXhXhXhXhXhXhXhXhXhXhXhXhXhXhXhXhXhXhXhXhXhXhXhXhXhX"
};
