/* XPM */
static char *result[] = {
/* columns rows colors chars-per-pixel */
"64 64 228 2 ",
"   c #020501",
".  c #020B02",
"X  c #090C04",
"o  c #130F04",
"O  c #031303",
"+  c #041B04",
"@  c #0A1C05",
"#  c #0C150A",
"$  c #0B1B0B",
"%  c #081806",
"&  c #1C1B09",
"*  c #151707",
"=  c #0F0F11",
"-  c #101513",
";  c #241904",
":  c #251C07",
">  c #331A05",
",  c #052405",
"<  c #0B240C",
"1  c #0B290C",
"2  c #072808",
"3  c #10240C",
"4  c #1C240B",
"5  c #0D360C",
"6  c #0E2511",
"7  c #0F2B10",
"8  c #152414",
"9  c #112C12",
"0  c #1A251B",
"q  c #1B2A1C",
"w  c #1B2716",
"e  c #123214",
"r  c #143B14",
"t  c #163118",
"y  c #1A341A",
"u  c #1C391C",
"i  c #173718",
"p  c #0F3413",
"a  c #23220D",
"s  c #2B260F",
"d  c #332206",
"f  c #382907",
"g  c #222D1A",
"h  c #262715",
"j  c #23331B",
"k  c #273719",
"l  c #3B3113",
"z  c #353013",
"x  c #1E2B23",
"c  c #252C2D",
"v  c #212825",
"b  c #233423",
"n  c #243B23",
"m  c #2B3A25",
"M  c #2A332E",
"N  c #263D28",
"B  c #2C3B2B",
"V  c #283328",
"C  c #343B2B",
"Z  c #2A2D33",
"A  c #2E3D32",
"S  c #2E3137",
"D  c #323B35",
"F  c #353A3C",
"G  c #34353A",
"H  c #4A2E08",
"J  c #493108",
"K  c #57390C",
"L  c #473916",
"P  c #633A0A",
"I  c #0C560A",
"U  c #184619",
"Y  c #34481A",
"T  c #2C4E1C",
"R  c #0E680A",
"E  c #246F1F",
"W  c #1D4221",
"Q  c #224324",
"!  c #2D432D",
"~  c #294928",
"^  c #394B29",
"/  c #295528",
"(  c #314433",
")  c #344B33",
"_  c #3A4C33",
"`  c #394D3C",
"'  c #394339",
"]  c #345234",
"[  c #3B543D",
"{  c #3B583A",
"}  c #2F4E31",
"|  c #386638",
" . c #2D6A24",
".. c #584919",
"X. c #525211",
"o. c #55470F",
"O. c #75420E",
"+. c #674B17",
"@. c #794912",
"#. c #675418",
"$. c #6E420F",
"%. c #77751C",
"&. c #455739",
"*. c #4E562E",
"=. c #695F28",
"-. c #745825",
";. c #714E2B",
":. c #48613C",
">. c #53653C",
",. c #5C752C",
"<. c #716031",
"1. c #76672B",
"2. c #353C41",
"3. c #383C44",
"4. c #3A4544",
"5. c #3D4349",
"6. c #3D4B44",
"7. c #3D5343",
"8. c #3E5942",
"9. c #3E6840",
"0. c #42464D",
"q. c #424B4C",
"w. c #474749",
"e. c #405445",
"r. c #445E45",
"t. c #455A4C",
"y. c #465647",
"u. c #444752",
"i. c #444A52",
"p. c #4A4D54",
"a. c #4E4E5A",
"s. c #4A5356",
"d. c #4B5C54",
"f. c #4C535B",
"g. c #4D5C5A",
"h. c #455152",
"j. c #55555C",
"k. c #565C5A",
"l. c #54524E",
"z. c #486849",
"x. c #586848",
"c. c #4A784C",
"v. c #58744E",
"b. c #4C6352",
"n. c #4F6B52",
"m. c #536C5B",
"M. c #526558",
"N. c #527354",
"B. c #56725A",
"V. c #567A58",
"C. c #62724D",
"Z. c #6A7B54",
"A. c #63664D",
"S. c #565966",
"D. c #5D7765",
"F. c #576D60",
"G. c #676766",
"H. c #6D7768",
"J. c #855818",
"K. c #935C1D",
"L. c #8D791E",
"P. c #9A791C",
"I. c #A4641B",
"U. c #A17B1D",
"Y. c #8D6535",
"T. c #8F7728",
"R. c #AD7E20",
"E. c #C07F25",
"W. c #9A7249",
"Q. c #7F881A",
"!. c #678128",
"~. c #66A53C",
"^. c #53954E",
"/. c #6A8455",
"(. c #77915F",
"). c #74B85C",
"_. c #73A042",
"`. c #708F62",
"'. c #7E9667",
"]. c #649063",
"[. c #7AB56B",
"{. c #808118",
"}. c #9A8D28",
"|. c #B68725",
" X c #B69728",
".X c #AA9428",
"XX c #B4A52D",
"oX c #BFB432",
"OX c #C28326",
"+X c #C39828",
"@X c #C28E30",
"#X c #CCB539",
"$X c #D4CD39",
"%X c #988C48",
"&X c #8E8951",
"*X c #AF8F47",
"=X c #BAA956",
"-X c #80827A",
";X c #B39F79",
":X c #96AD6D",
">X c #A5B678",
",X c #AFBB6F",
"<X c #C5905C",
"1X c #CCB24C",
"2X c #C5BD6C",
"3X c #9AC04F",
"4X c #B9C84C",
"5X c #C7D742",
"6X c #D4C760",
"7X c #E5D96E",
"8X c #93958D",
"9X c #A39C81",
"0X c #99A093",
"qX c #AEB486",
"wX c #B9BAB5",
"eX c #AEBAA4",
"rX c #D5BEAC",
"tX c #D8D98B",
"yX c #CED796",
"uX c #CAC38A",
"iX c #E8EE9A",
"pX c #C2C3BD",
"aX c #CAC7A9",
"sX c #DEE1A0",
"dX c #C7C9C4",
"fX c #D1D6CB",
"gX c #EFEFEF",
"hX c None",
/* pixels */
"hXhXhXhXhXhXhXhXhXhXhXhXhXhXhXhXhXhXhXhXhXhXhXhXhXhXhXhXhXhXhXhXhXhXhXhXhXhXhXhXhXhXhXhXhXhXhXhXhXhXhXhXhXhXhXhXhXhXhXhXhXhXhXhX",
"hXhXhXhXhXhXhXhXhXhXhXhXhXhXhXhXhXhXhXhXhXhXhXhXhXhXhXhXhXhXhXhXhXhXhXhXhXhXhXhXhXhXhXhXhXhXhXhXhXhXhXhXhXhXhXhXhXhXhXhXhXhXhXhX",
"hXhXhXhXhXhXhXhXhXhXhXhXhXhXhXhXhXhXhXhXhXhXhXhXhXhXhXhXhXhXhXhXhXhXhXhXhXhXhXhXhXhXhXhXhXhXhXhXhXhXhXhXhXhXhXhXhXhXhXhXhXhXhXhX",
"hXhXhXhXhXhXhXhXhXhXhXhXhXhXhXhXhXhXhXhXhXhXhXhXhXhXhXhXhXhXhXhXhXhXhXhXhXhXhXhXhXhXhXhXhXhXhXhXhXhXhXhXhXhXhXhXhXhXhXhXhXhXhXhX",
"hXhXhXhXhXhXhXhXhXhXhXhXhXhXhXhXhXhXhXhXhXhXhXhXhXhXhXhXhXhXhXhXhXhXhXhXhXhXhXhXhXhXhXhXhXhXhXhXhXhXhXhXhXhXhXhXhXhXhXhXhXhXhXhX",
"hXhXhXhXhXhXhXhXhXhXhXhXhXhXhXhXhXhXhXhXhXhXhXhXhXhXhXhXhXhXhXhXhXhXhXhXhXhXhXhXhXhXhXhXhXhXhXhXhXhXhXhXhXhXhXhXhXhXhXhXhXhXhXhX",
"hXhXhXhXhXhXhXhXhXhXhXhXhXhXhXhXhXhXhXhXhXhXhXhXhXhXhXhXhXhXhXhXhXhXhXhXhXhXhXhXhXhXhXhXhXhXhXhXhXhXhXhXhXhXhXhXhXhXhXhXhXhXhXhX",
"hXhXhXhXhXhXhXhXhXhXhXhXhXhXhXhXhXhXhXhXhXhXhXhXhXhXhXhXhXhXhXhXhXhXhXhXhXhXhXhXhXhXhXhXhXhXhXhXhXhXhXhXhXhXhXhXhXhXhXhXhXhXhXhX",
"hXhXhXhXhXhXhXhXhXhXhXhXhXhXhXhXhXhXhXhXhXhXhXhXhXhXhXhXhXhXhXhXhXhXhXhXhXhXhXhXhXhXhXhXhXhXhXhXhXhXhXhXhXhXhXhXhXhXhXhXhXhXhXhX",
"hXhXhXhXhXhXhXhXhXhXhXhXhXhXhXhXhXhXhXhXhXhXhXhXhXhXhXhXhXhXhXhXhXhXhXhXhXhXhXhXhXhXhXhXhXhXhXhXhXhXhXhXhXhXhXhXhXhXhXhXhXhXhXhX",
"hXhXhXhXhXhXhXhXhXhXhXhXhXhXhXhXhXhXhXhXhXhXhXhXhXhXhXhXhXhXhXhXhXhXhXhXhXhXhXhXhXhXhXhXhXhXhXhXhXhXhXhXhXhXhXhXhXhXhXhXhXhXhXhX",
"hXhXhXhXhXhXhXhXhXhXhXhXhXhXhXhXhXhXhXhXhXhXhXhXhXhXhXhXhXhXhXhXhXhXhXhXhXhXhXhXhXhXhXhXhXhXhXhXhXhXhXhXhXhXhXhXhXhXhXhXhXhXhXhX",
"hXhXhXhXhXhXhXhXhXhXhXhXhXhXhXhXhXhXhXhXhXhXhXhXhXhXhXhXhXhXhXhXhXhXhXhXhXhXhXhXhXhXhXhXhXhXhXhXhXhXhXhXhXhXhXhXhXhXhXhXhXhXhXhX",
"hXhXhXhXhXhXhXhXhXhXhXhXhXhXhXhXhXhXhXhXhXhXhXhXhXhXhXhXhXhXhXhXhXhXhXhXhXhXhXhXhXhXhXhXhXhXhXhXhXhXhXhXhXhXhXhXhXhXhXhXhXhXhXhX",
"hXhXhXhXhXhXhXhXhXhXhXhXhX. . - - X . . . hXhXhXhXhXhXhXhXhXhXhXhXhXhXhXhXhXhXhXhXhXhXhXhXhXhXhXhXhXhXhXhXhXhXhXhXhXhXhXhXhXhXhX",
"hXhXhXhXhXhXhXhXhXhXhXhXhXhXhXhXS c v v x 0 8 - O . hXhXhXhXhXhXhXhXhXhXhXhXhXhXhXhXhXhXhXhXhXhXhXhXhXhXhXhXhXhXhXhXhXhXhXhXhXhX",
"hXhXhXhXhXhXhXhXhXhXhXhXhXhXhXhXhXZ Z M M ( ( } { _ j O hXhXhXhXhXhXhXgXhXhXhXhXhXhXhXhXhXhXhXhXhXhXhXhXhXhXhXhXhXhXhXhXhXhXhXhX",
"hXhXhXhXhXhXhXhXhXhXhXhXhX2 2 2 1 q x x M V V N ) { r.C O + hXhXhXhXhXaXuX;X+XR.|.I.hXhXhXhXhXhXhXhXhXhXhXhXhXhXhXhXhXhXhXhXhXhX",
"hXhXhX# # $ $ 8 8 x 0 0 x v B B ! q n y u y y ! m Q j 8 # . + hXhXhXhXP.9XrX<XY.@.K.#.hXhXhXhXhXhXhXhXhXhXhXhXhXhXhXhXhXhXhXhXhX",
"hXhXhXhXhXhXhXhXc S G c D 7.e.8.N.V.c.v.v.'._ N 1 r &.C.&.g + , hXhXR.I.P l.8XG.^ T T U hXhXhXhXhXhXhXhXhXhXhXhXhXhXhXhXhXhXhXhX",
"hXhXhXhXhXhXhXhXhXhXu.a.d.h.D.B.n.N.].V./.`.x.] 9 1 5 Q &.Z.b @ hXhXI.@.O , #.@X}.,.!. . .#.T I hXI hXhXhXhXhXhXhXhXhXhXhXhXhXhX",
"hXhXhXhXhXhXhXhXhXhXS.u.g.d.m.b.z.~ n N n N b m g 8 2 5 ^ C.< 9 hX XK.; , u R.R.|.k %X>XeX>X:.hX:XE hXhXhXhXhXhXhXhXhXhXhXhXhXhX",
"hXhXhXhXhXhXhXhXhXhXS.3.S.4.M.b b ` 7.8.! ! ( ! C ( C w /.,X&.b hX|.O.+ < =.1X+XR.Y.W.1X4X5X_.].).hXc.hXhXhXhXhXhXhXhXhXhXhXhXhX",
"hXhXhXhXhXhXhXhXhXhXhXp.4.A V D 4.t.t.( ( r.e.( _ _ C 8 Z.>XC y hX XK + b *X1X XE.#Xh J.*XqX3X).).^.hXhXhXhXhXhXhXhXhXhXhXhXhXhX",
"hXhXhXhXhXhXhXhXhXhXG.w.M S 2.u.4.h.' 4.7.6.F.{ z._ m + &XyXv.hXhXU.K O u %XtX#X}.hXhX# 8XdXR ~.[.hXhXhXhXhXhXhXhXhXhXhXhXhXhXhX",
"hXhXhXhXhXhXhXhXhX' 0 D w.w.u.a.5.3.2.6.g.g.b.n.z.) b + `.>X_ $ hXhX$.. < =.7XhXhXhXhXhXhXhXhXhXE R hXhXhXhXhXhXhXhXhXhXhXhXhXhX",
"hXhXhXhXhXhXhXhX- hXhXhXhXhXhXhXk.p.2.S.5.M.B.B.z.&.C % &.'.g @ hX$XK.o , ! =X7XhXhXhXhXhXhXhXhXhXhXhXhXhXhXhXhXhXhXhXhXhXhXhXhX",
"hXhXhXhXhXhXX hXhXhXhXhXhXhXhXhXhXhXu.a.h.b.n.n.[ ] _ m 1 &.O + hX$X XH + u %XiXhXhXhXhXhXhXhXhXhXhXhXhXhXhXhXhXhXhXhXhXhXhXhXhX",
"hXhXhXhXhXhXhXhXhXhXhXhXhXhXhXhXhXhXj.u.i.d.m.7.] ) B w + 6 ^ 4 O hX|.H O e >.1X6XhXhXhXhXhXhXhXfXhXhXhXhXhXhXhXhXhXhXhXhXhXhXhX",
"hXhXhXhXhXhXhXhXhXhXhXhXhXhXhXhXhXhXhXu.p.g.7.( N n ! ! 0 + ~ C.^ X.|.H . 1 z.6X,X5 hXhXhXhXhXj 0XdXhXhXhXhXhXhXhXhXhXhXhXhXhXhX",
"hXhXhXhXhXhXhXhXhXhXhXhXhXhXhXhXhXhXhXa.f.F N x A 7.` t.r.q + ! x.*.a & $ 1 t =XtXU hXhXhXhXO , hXhXhXhXhXhXhXhXhXhXhXhXhXhXhXhX",
"hXhXhXhXhXhXhXhXhXhXhXhXhXhXhXhXhXhXhXp.G x c 2.2.3.7.b.b.8.) $ e u 9 . 6 u / T yX*.U hXhX. + hXhXhXhXhXhXhXhXhXhXhXhXhXhXhXhXhX",
"hXhXhXhXhXhXhXhXhXhXhXhXhXhXhXhXhXhXhXS M F G w.0.0.6.t.B.b.n.8.. i r , O 1 q | ,X&XQ / $ p i hXhXhXhXhXhXhXhXhXhXhXhXhXhXhXhXhX",
"hXhXhXhXhXhXhXhXhXhXhXhXhXhXhXhXhXhX. X hXhXhX- w.p.u.s.m.F.B.B.[ 8 , + O O 6 / :X&XU p ] e hXhXhXhXhXhXhXhXhXhXhXhXhXhXhXhXhXhX",
"hXhXhXhXhXhXhXhXhXhXhXhXhXhXhXhXhX. hXhXhXhX  . hXl.j.u.s.M.D.b.b.O O < 6 + @ t :...+ 7 r ` rXgXhXhXhXhXhXhXhXhXhXhXhXhXhXhXhXhX",
"hXhXhXhXhXhXhXhXhXhXhXhXhXhXhXhXhXhXhXhXhXhX. hXhXhXhXS.f.S.b.d.# O + 1 y j . 6 { hX% % < b.wXhXhXhXhXhXhXhXhXhXhXhXhXhXhXhXhXhX",
"hXhXhXhXhXhXhXhXhXhXhXhXhXhXhXhXhXhXhXhXhXhXhXhXhXhXhXhXG.S.f.c + + 2 9 j +.Y.* ] Q . . ' dXhXhXhXhXhXhXhXhXhXhXhXhXhXhXhXhXhXhX",
"hXhXhXhXhXhXhXhXhXhXhXhXhXhXhXhXhXhXhXhXhXhXhXhXhXhXhXhX+.F 3.= + 8 < g L -...* + + O + 7 hXhXhXhXhXhXhXhXhXhXhXhXhXhXhXhXhXhXhX",
"hXhXhXhXhXhXhXhXhXhXhXXXhXhXhXhXhXhXhXhXhXhXhXhXhXhXhX{.$.# 1 5 2 8 j L -.;.hX  . . . hXhXhXhXhXhXhXhXhXhXhXhXhXhXhXhXhXhXhXhXhX",
"hXhXhXhXhXhXhXhXhXhX%.}.#XhXhXhXhXhXhXhXhXhXhXhXhXhXhX@.d . 6 i U y L -.*.Y hXhXhXhXhXhXhXhXhXhXhXhXhXhXhXhXhXhXhXhXhXhXhXhXhXhX",
"hXhXhXhXhXhXhXhXhXhXsXY..XhXhXhXhXhXhXhXhXhXhXhXhXhXhXO.>   O 8 ~ { <.<./ / hXhXhXhXhXhXhXhXhXhXhXhXhXhXhXhXhXhXhXhXhXhXhXhXhXhX",
"hXhXhXhXhXhXhXhXhXhXhXJ.}.hXhXhXhXhXhXhXhXhXhXhXhXhX#.J       $ y 9./.*.1 W hXhXhXhXhXhXhXhXhXhXhXhXhXhXhXhXhXhXhXhXhXhXhXhXhXhX",
"hXhXhXhXhXhXhXhXhXhXhXJ.L.XXhXhXhXhXhXhXhXhXhXhXhX{.+.d   O     < t c.:.< < + hXhXhXhXhXhXhXhXhXhXhXhXhXhXhXhXhXhXhXhXhXhXhXhXhX",
"hXhXhXhXhXhXhXhXhXhXhXhX@.X.d hXhXhXhXhXhXhXhXhXhXJ.>     $ & X . $ u | 2 $ hXhXhXhXhXhXhXhXhXhXhXhXhXhXhXhXhXhXhXhXhXhXhXhXhXhX",
"hXhXhXhXhXhXhXhXhXhXhXhXhXO.@ f o.hXhXhXhXhXhXhX+.f   . O a L :   6 < p + + hXhXhXhXhXhXhXhXhXhXhXhXhXhXhXhXhXhXhXhXhXhXhXhXhXhX",
"hXhXhXhXhXhXhXhXhXhXhXhXhXhXX O * J K hXhX..K K ; . . % 8 L l O + t < 9 % hXhXhXhXhXhXhXhXhXhXhXhXhXhXhXhXhXhXhXhXhXhXhXhXhXhXhX",
"hXhXhXhXhXhXhXhXhXhXhXhXhXhXhXhXO + % ; > ; o X O O 8 z l a . . 6 1 O < 2 p U hXhXhXhXhXhXhXhXhXhXhXhXhXhXhXhXhXhXhXhXhXhXhXhXhX",
"hXhXhXhXhXhXhXhXhXhXhXhXhXhXhXhXhX4 O O O O O O $ : l z hXhXhX  6 Q hX+ 1 1 2 9.dXhXhXhXhXhXhXhXhXhXhXhXhXhXhXhXhXhXhXhXhXhXhXhX",
"hXhXhXhXhXhXhXhXhXhXhXhXhXhXhXhXhXhXhXhXo : & & & s hXhXhXhXhXhX  8 e i N 0XG.G.dXhXhXhXhXhXhXhXhXhXhXhXhXhXhXhXhXhXhXhXhXhXhXhX",
"hXhXhXhXhXhXhXhXhXhXhXhXhXhXhXhXhXhXhXhXhXhXhXhXhXhXhXhXhXhXhXhXhX. 1 M.H.wXhXhXhXhXhXhXhXhXhXhXhXhXhXhXhXhXhXhXhXhXhXhXhXhXhXhX",
"hXhXhXhXhXhXhXhXhXhXhXhXhXhXhXhXhXhXhXhXhXhXhXhXhXhXhXhXhXhXhXhXhXhXhX-XhXhXhXhXhXhXhXhXhXhXhXhXhXhXhXhXhXhXhXhXhXhXhXhXhXhXhXhX",
"hXhXhXhXhXhXhXhXhXhXhXhXhXhXhXhXhXhXhXhXhXhXhXhXhXhXhXhXhXhXhXhXhXhXhXhXhXhXhXhXhXhXhXhXhXhXhXhXhXhXhXhXhXhXhXhXhXhXhXhXhXhXhXhX",
"hXhXhXhXhXhXhXhXhXhXhXhXhXhXhXhXhXhXhXhXhXhXhXhXhXhXhXhXhXhXhXhXhXhXhXhXhXhXhXhXhXhXhXhXhXhXhXhXhXhXhXhXhXhXhXhXhXhXhXhXhXhXhXhX",
"hXhXhXhXhXhXhXhXhXhXhXhXhXhXhXhXhXhXhXhXhXhXhXhXhXhXhXhXhXhXhXhXhXhXhXhXhXhXhXhXhXhXhXhXhXhXhXhXhXhXhXhXhXhXhXhXhXhXhXhXhXhXhXhX",
"hXhXhXhXhXhXhXhXhXhXhXhXhXhXhXhXhXhXhXhXhXhXhXhXhXhXhXhXhXhXhXhXhXhXhXhXhXhXhXhXhXhXhXhXhXhXhXhXhXhXhXhXhXhXhXhXhXhXhXhXhXhXhXhX",
"hXhXhXhXhXhXhXhXhXhXhXhXhXhXhXhXhXhXhXhXhXhXhXhXhXhXhXhXhXhXhXhXhXhXhXhXhXhXhXhXhXhXhXhXhXhXhXhXhXhXhXhXhXhXhXhXhXhXhXhXhXhXhXhX",
"hXhXhXhXhXhXhXhXhXhXhXhXhXhXhXhXhXhXhXhXhXhXhXhXhXhXhXhXhXhXhXhXhXhXhXhXhXhXhXhXhXhXhXhXhXhXhXhXhXhXhXhXhXhXhXhXhXhXhXhXhXhXhXhX",
"hXhXhXhXhXhXhXhXhXhXhXhXhXhXhXhXhXhXhXhXhXhXhXhXhXhXhXhXhXhXhXhXhXhXhXhXhXhXhXhXhXhXhXhXhXhXhXhXhXhXhXhXhXhXhXhXhXhXhXhXhXhXhXhX",
"hXhXhXhXhXhXhXhXhXhXhXhXhXhXhXhXhXhXhXhXhXhXhXhXhXhXhXhXhXhXhXhXhXhXhXhXhXhXhXhXhXhXhXhXhXhXhXhXhXhXhXhXhXhXhXhXhXhXhXhXhXhXhXhX",
"hXhXhXhXhXhXhXhXhXhXhXhXhXhXhXhXhXhXhXhXhXhXhXhXhXhXhXhXhXhXhXhXhXhXhXhXhXhXhXhXhXhXhXhXhXhXhXhXhXhXhXhXhXhXhXhXhXhXhXhXhXhXhXhX",
"hXhXhXhXhXhXhXhXhXhXhXhXhXhXhXhXhXhXhXhXhXhXhXhXhXhXhXhXhXhXhXhXhXhXhXhXhXhXhXhXhXhXhXhXhXhXhXhXhXhXhXhXhXhXhXhXhXhXhXhXhXhXhXhX",
"hXhXhXhXhXhXhXhXhXhXhXhXhXhXhXhXhXhXhXhXhXhXhXhXhXhXhXhXhXhXhXhXhXhXhXhXhXhXhXhXhXhXhXhXhXhXhXhXhXhXhXhXhXhXhXhXhXhXhXhXhXhXhXhX",
"hXhXhXhXhXhXhXhXhXhXhXhXhXhXhXhXhXhXhXhXhXhXhXhXhXhXhXhXhXhXhXhXhXhXhXhXhXhXhXhXhXhXhXhXhXhXhXhXhXhXhXhXhXhXhXhXhXhXhXhXhXhXhXhX",
"hXhXhXhXhXhXhXhXhXhXhXhXhXhXhXhXhXhXhXhXhXhXhXhXhXhXhXhXhXhXhXhXhXhXhXhXhXhXhXhXhXhXhXhXhXhXhXhXhXhXhXhXhXhXhXhXhXhXhXhXhXhXhXhX"
};
