/* XPM */
static char *result[] = {
/* columns rows colors chars-per-pixel */
"64 64 231 2 ",
"   c #010301",
".  c #020C02",
"X  c #0B0E07",
"o  c #021302",
"O  c #041B04",
"+  c #0C140B",
"@  c #0C1C0C",
"#  c #091807",
"$  c #161807",
"%  c #141D14",
"&  c #0C1511",
"*  c #311D05",
"=  c #042204",
"-  c #0B240C",
";  c #0C2B0C",
":  c #072608",
">  c #0C340C",
",  c #0B350B",
"<  c #0F2711",
"1  c #0E2A10",
"2  c #132B13",
"3  c #1C2B1B",
"4  c #182416",
"5  c #133314",
"6  c #133B14",
"7  c #1B331B",
"8  c #1B3C1B",
"9  c #183918",
"0  c #142C0A",
"q  c #29270A",
"w  c #292A13",
"e  c #372C13",
"r  c #22331C",
"t  c #273B1B",
"y  c #3B3213",
"u  c #3C3919",
"i  c #343518",
"p  c #322606",
"a  c #1B1F23",
"s  c #1E2423",
"d  c #1E2B23",
"f  c #1E3821",
"g  c #222C25",
"h  c #252B29",
"j  c #223523",
"k  c #273A26",
"l  c #2C3B25",
"z  c #29362A",
"x  c #333D28",
"c  c #2A3433",
"v  c #33393B",
"b  c #482A07",
"n  c #5A370D",
"m  c #423716",
"M  c #513C15",
"N  c #643E0E",
"B  c #0C470D",
"V  c #0C570B",
"C  c #1B421C",
"Z  c #174717",
"A  c #1F581B",
"S  c #234D1F",
"D  c #37411D",
"F  c #11730B",
"G  c #0F6608",
"H  c #1E4020",
"J  c #224422",
"K  c #2B4B25",
"L  c #2C412B",
"P  c #2C492A",
"I  c #284823",
"U  c #344E2D",
"Y  c #35452D",
"T  c #2B552D",
"R  c #32542C",
"E  c #3F592F",
"W  c #2D4131",
"Q  c #314434",
"!  c #334B33",
"~  c #354A3A",
"^  c #384839",
"/  c #3B543C",
"(  c #375937",
")  c #2D5E30",
"_  c #3D7B2B",
"`  c #38653A",
"'  c #267820",
"]  c #48451D",
"[  c #55451A",
"{  c #784A13",
"}  c #795416",
"|  c #704A13",
" . c #5E6A1F",
".. c #6D671D",
"X. c #5A4C25",
"o. c #4A5521",
"O. c #535327",
"+. c #434D35",
"@. c #4B5C3E",
"#. c #465537",
"$. c #515C3F",
"%. c #655229",
"&. c #4B613E",
"*. c #42623F",
"=. c #5B6F20",
"-. c #3B3D45",
";. c #373B45",
":. c #3B4444",
">. c #3F484A",
",. c #3B5141",
"<. c #42444D",
"1. c #404B4C",
"2. c #44574B",
"3. c #454955",
"4. c #4A4B53",
"5. c #474B57",
"6. c #4A5555",
"7. c #4C535A",
"8. c #4D5C5A",
"9. c #475652",
"0. c #53525D",
"q. c #595B5A",
"w. c #504F59",
"e. c #446444",
"r. c #496947",
"t. c #48684B",
"y. c #516545",
"u. c #576B47",
"i. c #467446",
"p. c #58744A",
"a. c #4D6453",
"s. c #4D6954",
"d. c #546C5B",
"f. c #566956",
"g. c #527255",
"h. c #55725A",
"j. c #597B59",
"k. c #4F7051",
"l. c #6F734B",
"z. c #545C65",
"x. c #4E5661",
"c. c #586962",
"v. c #5C7762",
"b. c #686F6B",
"n. c #875415",
"m. c #8A5816",
"M. c #955D17",
"N. c #87641A",
"B. c #996B1A",
"V. c #8D771A",
"C. c #AB731E",
"Z. c #905B23",
"A. c #997322",
"S. c #8B6B34",
"D. c #8C722E",
"F. c #BA7B22",
"G. c #AC7F2E",
"H. c #AE7D5B",
"J. c #218E13",
"K. c #3C883C",
"L. c #508B1E",
"P. c #64AD18",
"I. c #79B31D",
"U. c #478737",
"Y. c #48953C",
"T. c #569C24",
"R. c #659D31",
"E. c #7BBB3D",
"W. c #5E845C",
"Q. c #549153",
"!. c #57944C",
"~. c #658C5D",
"^. c #60875E",
"/. c #74895D",
"(. c #669D58",
"). c #5BA64D",
"_. c #5EA051",
"`. c #65A154",
"'. c #73AE50",
"]. c #6A9963",
"[. c #76A869",
"{. c #AC8C1F",
"}. c #938733",
"|. c #AC8827",
" X c #B68726",
".X c #B59B29",
"XX c #AE9929",
"oX c #92AE35",
"OX c #BBA829",
"+X c #BAAF33",
"@X c #C9982B",
"#X c #C4A32A",
"$X c #C8B433",
"%X c #D2AD38",
"&X c #D0C237",
"*X c #99914E",
"=X c #AD9D53",
"-X c #80AC4B",
";X c #B7A44D",
":X c #B5A258",
">X c #849272",
",X c #B39675",
"<X c #8EAA73",
"1X c #90A370",
"2X c #A6BC76",
"3X c #CB9841",
"4X c #9FC34F",
"5X c #9AC35C",
"6X c #A7C742",
"7X c #A1D34F",
"8X c #97C078",
"9X c #BBD674",
"0X c #C8D647",
"qX c #CBD54D",
"wX c #E2DD50",
"eX c #DBC868",
"rX c #D0DD6A",
"tX c #DEE070",
"yX c #858883",
"uX c #95978D",
"iX c #918E93",
"pX c #A8B78B",
"aX c #B7B8B7",
"sX c #A8A8A1",
"dX c #C0A78C",
"fX c #E5E4A8",
"gX c #CACAC6",
"hX c #DEDEDB",
"jX c #D9DEC6",
"kX c #DAE8D7",
"lX c None",
/* pixels */
"lXlXlXlXlXlXlXlXlXlXlXlXlXlXlXlXlXlXlXlXlXlXlXlXlXlXlXlXlXlXlXlXlXlXlXlXlXlXlXlXlXlXlXlXlXlXlXlXlXlXlXlXlXlXlXlXlXlXlXlXlXlXlXlX",
"lXlXlXlXlXlXlXlXlXlXlXlXlXlXlXlXlXlXlXlXlXlXlXlXlXlXlXlXlXlXlXlXlXlXlXlXlXlXlXlXlXlXlXlXlXlXlXlXlXlXlXlXlXlXlXlXlXlXlXlXlXlXlXlX",
"lXlXlXlXlXlXlXlXlXlXlXlXlXlXlXlXlXlXlXlXlXlXlXlXlXlXlXlXlXlXlXlXlXlXlXlXlXlXlXlXlXlXlXlXlXlXlXlXlXlXlXlXlXlXlXlXlXlXlXlXlXlXlXlX",
"lXlXlXlXlXlXlXlXlXlXlXlXlXlXlXlXlXlXlXlXlXlXlXlXlXlXlXlXlXlXlXlXlXlXlXlXlXlXlXlXlXlXlXlXlXlXlXlXlXlXlXlXlXlXlXlXlXlXlXlXlXlXlXlX",
"lXlXlXlXlXlXlXlXlXlXlXlXlXlXlXlXlXlXlXlXlXlXlXlXlXlXlXlXlXlXlXlXlXlXlXlXlXlXlXlXlXlXlXlXlXlXlXlXlXlXlXlXlXlXlXlXlXlXlXlXlXlXlXlX",
"lXlXlXlXlXlXlXlXlXlXlXlXlXlXlXlXlXlXlXlXlXlXlXlXlXlXlXlXlXlXlXlXlXlXlXlXlXlXlXlXlXlXlXlXlXlXlXlXlXlXlXlXlXlXlXlXlXlXlXlXlXlXlXlX",
"lXlXlXlXlXlXlXlXlXlXlXlXlXlXlXlXlXlXlXlXlXlXlXlXlXlXlXlXlXlXlXlXlXlXlXlXlXlXlXlXlXlXlXlXlXlXlXlXlXlXlXlXlXlXlXlXlXlXlXlXlXlXlXlX",
"lXlXlXlXlXlXlXlXlXlXlXlXlXlXlXlXlXlXlXlXlXlXlXlXlXlXlXlXlXlXlXlXlXlXlXlXlXlXlXlXlXlXlXlXlXlXlXlXlXlXlXlXlXlXlXlXlXlXlXlXlXlXlXlX",
"lXlXlXlXlXlXlXlXlXlXlXlXlXlXlXlXlXlXlXlXlXlXlXlXlXlXlXlXlXlXlXlXlXlXlXlXlXlXlXlXlXlXlXlXlXlXlXlXlXlXlXlXlXlXlXlXlXlXlXlXlXlXlXlX",
"lXlXlXlXlXlXlXlXlXlXlXlXlXlXlXlXlXlXlXlXlXlXlXlXlXlXlXlXlXlXlXlXlXlXlXlXlXlXlXlXlXlXlXlXlXlXlXlXlXlXlXlXlXlXlXlXlXlXlXlXlXlXlXlX",
"lXlXlXlXlXlXlXlXlXlXlXlXlXlXlXlXlXlXlXlXlXlXlXlXlXlXlXlXlXlXlXlXlXlXlXlXlXlXlXlXlXlXlXlXlXlXlXlXlXlXlXlXlXlXlXlXlXlXlXlXlXlXlXlX",
"lXlXlXlXlXlXlXlXlXlXlXlXlXlXlXlXlXlXlXlXlXlXlXlXlXlXlXlXlXlXlXlXlXlXlXlXlXlXlXlXlXlXlXlXlXlXlXlXlXlXlXlXlXlXlXlXlXlXlXlXlXlXlXlX",
"lXlXlXlXlXlXlXlXlXlXlXlXlXlXlXlXlXlXlXlXlXlXlXlXlXlXlXlXlXlXlXlXlXlXlXlXlXlX    lXlXlXlXlXlXlXlXlXlXlXlXlXlXlXlXlXlXlXlXlXlXlXlX",
"lXlXlXlXlXlXlXlXlXlXlXlXlXlXlXlXlXlXlXlXlXlXlXlXlXlXlXlXlXlXlXlXlXlX  X % h lXlXlXlXlXlXlXlXlXlXlXlXlXlXlXlXlXlXlXlXlXlXlXlXlXlX",
"lXlXlXlXlXlXlXlXlXlXlXlXlXlXlXlXlXlXlXlXlXlXlXlXlXlXlXlXlXlXlX. + % d h h lXlXlXlXlXlXlXlXlXlXlXlXlXlXlXlXlXlXlXlXlXlXlXlXlXlXlX",
"lXlXlXlXlXlXlXlXlXlXlXlXlXlXlXlXlXlXlXlXlXlXlXlXlXlXlXlXlXlX@ r k z h h a lXlXlXlXlXlXlXlXlXlXlXlXlXlXlXlXlXlXlXlXlXlXlXlXlXlXlX",
"lXlXlXlXlXlXlXlXlXlXlXlXlXlXlXlXlXlXlXlXlXlXlXlXlXlXlXlXo k / ( L g h g s lX; : < 2 f 7 7 d h s h h 3 @ 4 % & + lXlXlXlXlXlXlXlX",
"lXlXlXlXlXlXlXlXlXlXlXlXlXlXlXlXlXlXlXlXlXlXlXlXlXlXlXlX% ! ! r 3 3 3 3 9 < ( k / t.a.:.:.v ;.;.lXlXlXlXlXlXlXlXlXlXlXlXlXlXlXlX",
"lXlXlXlXlXlXlXlXlXlXlXlXlXlXlXlXlXlXlXlXlXlXlXlXlXlXlXo @ 4 l k j ; 0 L p.t.W.i.^.e.h.s.9.>.z.;.lXlXlXlXlXlXlXlXlXlXlXlXlXlXlXlX",
"lXlXlXlXlXlXlXlXlXlXlXlXlXlXlXlXlXlXlXlXlXlXlXlXlXlX; X x @.@.R 9 x j./.<X[.].~.j.h.h.c.a.8.3.lXlXlXlXlXlXlXlXlXlXlXlXlXlXlXlXlX",
"lXlXlXlXlXlXlXlXlXlXlXlXlXlXlXlXlXlXlXlXlXlXlXlXlXlX@ r $.@.P 5 ; t Y U ( P P *.e.j.d.c.9.7.<.lXlXlXlXlXlXlXlXlXlXlXlXlXlXlXlXlX",
"lXlXlXlXlXlXlXlXlXlXlXlXlXlXlXlXlXlXlXlXlXlXlXlXlXlX2 - $.p.Z , - l x Y ( ! ! ,.W k f f Q z.5.b.lXlXlXlXlXlXlXlXlXlXlXlXlXlXlXlX",
"lXlXlXlXlXlXlXlXlXlXlXlXlXlXlXlXlXlXlXlXlXlXlXlXlXlXlXr #.1X#.w +.#.^ #.~ ,.Q ~ e.>.>.v c c c 6.q.lXlXlXlXlXlXlXlXlXlXlXlXlXlXlX",
"lXlXlXlXlXlXlXlXlXlXlXlXlXlXlXlX{.dX,X*XOXlXlXlXlXlXlXlXS 1X[.t x @.+.r.h.c.,.>.:.:.>.>.<.<.<.c @ 3 4 lXlXlXlXlXlXlXlXlXlXlXlXlX",
"lXlXlXlXlXlXlXlXlXlXlXlXlXlXlX%XF.Z.,XN n.n.B.lXlXlXlXlX6 /.2Xp.3 #.@.p.g.a.x.7.5.;.-.4.lXlXlXlXlXlXlX+ X lXlXlXlXlXlXlXlXlXlXlX",
"lXlXlXlXlXlXlXlXlXlXlXlXlXlXB.A.S.uXf.O $ n { C.lXlXlXlX7 #.1Xj.- #.r.p.j.W.c.9.5.q.<.lXlXlXlXlXlXlXlXlXlXlXlXlXlXlXlXlXlXlXlXlX",
"lXlXlXlXlXlXlXlXlXlXlXlXlX} N.X.uXyXS 6 ; O b { B.lXlXlX5 $ p.*.> +.y.r.k.d.a.8.7.5.4.lXlXlXlXlXlXlXlXlXlXlXlXlXlXlXlXlXlXlXlXlX",
"lXlXlXlXlXlXlXlXlXlXlXlXlXX.t O.S.D o.[ S > o b M.XXlXlX= o 4 t 5 @.y.*./ s.c.9.7.<.0.lXlXlXlXlXlXlXlXlXlXlXlXlXlXlXlXlXlXlXlXlX",
"lXlXlXlXlXlXlXlXlXlXlXlXA =.=.}.@X|...S.D.k = X n lXlXlXO l $.Z - 2 j ! / ,.2.c.7.3.lXlXlXlXlXlXlXlXlXlXlXlXlXlXlXlXlXlXlXlXlXlX",
"lXlXlXlXlXlXlXG lXlXo.*.U.(.] A.F. XlXlXeX%.5 o | M.OXlXO u.$.> + ! ! L f f c Q 6.7.q.lXlXlXlXlXlXlXlXlXlXlXlXlXlXlXlXlXlXlXlXlX",
"lXlXlXlXlXlXlXlXV lXl.pXjXfXH.A. X|.lXlXeX}.8 = p lXlX0 +./.S O k W.g.,.,.v c d g h 0.lXlXlXlXlXlXlXlXlXlXlXlXlXlXlXlXlXlXlXlXlX",
"lXlXlXlXlXlXlXlXlXA ^.oXwX3X%.$X X$XlXlXeX:XU ; . n n.q u.K , 4 e.j.d.a.>.;.;.:.v v @ + lXlXlXlXlXlXlXlXlXlXlXlXlXlXlXlXlXlXlXlX",
"lXlXlXV lXlX`.`.lX`.oX0X:X,Xi lXlXlXlXlXlXeX%.J = @ # $ 9 6 < g.v.g.v.9.5.<.lXlXlXlXlXlXX lXlXlXlXlXlXlXlXlXlXlXlXlXlXlXlXlXlXlX",
"lXlXlXlXT Q.'.!.P.6XwX0XhXgXlXlXlXlXlXlX, =X=X) 8 9 O Z 8 o Q W.h.h.s.6.5.4.  lXlXlXlXlXlXlXlXlXlXlXlXlXlXlXlXlXlXlXlXlXlXlXlXlX",
"lXlXlXlXlXlXlXlXE.0XtX4Xk.L lXlXlXlXlXlXA *X;X) ` 7 . : : L a.h.v.d.8.7.x.lXlXlXlXlXlXlXlXlXlXlXlXlXlXlXlXlXlXlXlXlXlXlXlXlXlXlX",
"lXlXlXlXlXlX[.Y.9XqX9XlXlXlXlXlXlXlXlXZ 6 /.*Xi.I O o O o O e.s.d.z.6.7.w.lXlXlXlXlXlXlXlXlXlXlXlXlXlXlXlXlXlXlXlXlXlXlXlXlXlXlX",
"lXlXlXlXlXlXU.8XrX5XlXlXC ; = lXlXlX` ) 1 ] }.` 2 . ; < O O o / 8.0.5.0.lXlXlXlXlXlXlXlXlXlXlXlXlXlXlXlXlXlXlXlXlXlXlXlXlXlXlXlX",
"lXlXlXlXlXlXJ.7X5X'.'.lXf.; = O 0 8 6 : . lXp.T - @ 7 2 : - O o 1.5.x.lXlXlXlXlXlXlXlXlXlXlXlXlXlXlXlXlXlXlXlXlXlXlXlXlXlXlXlXlX",
"lXlXlXlXlXL.P.oX!.`.R.kXuXc.lX; J 8 ; @   lXi.f O n i r 2 - - O & ;.e N.lXlXlXlXlXlXlXlXlXlXlXlXlXlXlXlXlXlXlXlXlXlXlXlXlXlXlXlX",
"lXlXlXlXU.J.T.oXlXlXlXlXlXgXlXlX      .   lX` 1 q [ [ m w 2 - - ; ; X N A.lXlXlXlXlXlXlXlXlXlXlXlXlXlXlXlXlXlXlXlXlXlXlXlXlXlXlX",
"lXlXlXV F !.[.).L.lXlXB lXlXlXlXlXlXlXlXlXi.) O lXlXD [ [ w f J 2 < . * N lXlXlXlXlXlXlXlXlXlXlXlXlXlXlXlXlXlXlXlXlXlXlXlXlXlXlX",
"lXlXlXlXG F Y.).lXlXlXlXlXlXlXlXlXlXlXlXlXI 8 o   8 9 i [ #.) 7 % o   * N V.lXlXlXlXlXlXlXlXlXlXlXlXlXlXlXlXlXlXlXlXlXlXlXlXlXlX",
"lXlXlXlXlXB V lXlX' lXlXlXlXlXlXlX` I C > f #     & < @ ` ` f < X .     n n.OXlXlXlXlXlXlXlXlXlXlXlXlXlXlXlXlXlXlXlXlXlXlXlXlXlX",
"lXlXlXlXlXlXB lXlXlXlXlXlXlXlXlXb./ J 2 #     lXlXo O J i.f < o . . o .   b n.#XlXlXlXlXlXlXlXlXlXlXlXlXlXlXlXlXlXlXlXlXlXlXlXlX",
"lXlXlXlXlXlXlXlXlXlXlXlXlXlXlXlXaXyXP lXlXlXlXlXlXlXo 5 8 # O X $ $ @ + . . $ b m. XlXlXlXlXlXlXlXlXlXlXlXlXlXlXlXlXlXlXlXlXlXlX",
"lXlXlXlXlXlXlXlXlXlXlXlXlXlXlXlXlXlXiXlXlXlXlXlXlXlXlX# = 2 2 @ X q e q @ = O o # p } { F.@XlXlXlXlXlXlXlXlX X@X%X%X%XOX$XlXlXlX",
"lXlXlXlXlXlXlXlXlXlXlXlXlXlXlXlXlXlXlXlXlXlXlXlX>X5 > - : . - < . . lXm y i 0 ; ; > 6 I D y | { n.B.V.|.|..X+X+X&X.X|. XlXlXlXlX",
"lXlXlXlXlXlXlXlXlXlXlXlXlXlXlXlXlXlXlXlXlXlXlXhXh.= = - O - J 2   lXlXlXlXe e y u u i D U R T R K I I I o.D.|.%X#X@X$XlXlXlXlXlX",
"lXlXlXlXlXlXlXlXlXlXlXlXlXlXlXlXlXlXlXlXlXlXlXsXq.lXaX! 9 2 < . lXlXlXlXlXlXlXlXlXlXlXy e e u u i i lXlXlXlX$XlXlXlXlXlXlXlXlXlX",
"lXlXlXlXlXlXlXlXlXlXlXlXlXlXlXlXlXlXlXlXlXlXlXlXlXlXaXyXc.x . lXlXlXlXlXlXlXlXlXlXlXlXlXlXlXlXlXlXlXlXlXlXlXlXlXlXlXlXlXlXlXlXlX",
"lXlXlXlXlXlXlXlXlXlXlXlXlXlXlXlXlXlXlXlXlXlXlXlXlXlXlXlXlXlXlXlXlXlXlXlXlXlXlXlXlXlXlXlXlXlXlXlXlXlXlXlXlXlXlXlXlXlXlXlXlXlXlXlX",
"lXlXlXlXlXlXlXlXlXlXlXlXlXlXlXlXlXlXlXlXlXlXlXlXlXlXlXlXlXlXlXlXlXlXlXlXlXlXlXlXlXlXlXlXlXlXlXlXlXlXlXlXlXlXlXlXlXlXlXlXlXlXlXlX",
"lXlXlXlXlXlXlXlXlXlXlXlXlXlXlXlXlXlXlXlXlXlXlXlXlXlXlXlXlXlXlXlXlXlXlXlXlXlXlXlXlXlXlXlXlXlXlXlXlXlXlXlXlXlXlXlXlXlXlXlXlXlXlXlX",
"lXlXlXlXlXlXlXlXlXlXlXlXlXlXlXlXlXlXlXlXlXlXlXlXlXlXlXlXlXlXlXlXlXlXlXlXlXlXlXlXlXlXlXlXlXlXlXlXlXlXlXlXlXlXlXlXlXlXlXlXlXlXlXlX",
"lXlXlXlXlXlXlXlXlXlXlXlXlXlXlXlXlXlXlXlXlXlXlXlXlXlXlXlXlXlXlXlXlXlXlXlXlXlXlXlXlXlXlXlXlXlXlXlXlXlXlXlXlXlXlXlXlXlXlXlXlXlXlXlX",
"lXlXlXlXlXlXlXlXlXlXlXlXlXlXlXlXlXlXlXlXlXlXlXlXlXlXlXlXlXlXlXlXlXlXlXlXlXlXlXlXlXlXlXlXlXlXlXlXlXlXlXlXlXlXlXlXlXlXlXlXlXlXlXlX",
"lXlXlXlXlXlXlXlXlXlXlXlXlXlXlXlXlXlXlXlXlXlXlXlXlXlXlXlXlXlXlXlXlXlXlXlXlXlXlXlXlXlXlXlXlXlXlXlXlXlXlXlXlXlXlXlXlXlXlXlXlXlXlXlX",
"lXlXlXlXlXlXlXlXlXlXlXlXlXlXlXlXlXlXlXlXlXlXlXlXlXlXlXlXlXlXlXlXlXlXlXlXlXlXlXlXlXlXlXlXlXlXlXlXlXlXlXlXlXlXlXlXlXlXlXlXlXlXlXlX",
"lXlXlXlXlXlXlXlXlXlXlXlXlXlXlXlXlXlXlXlXlXlXlXlXlXlXlXlXlXlXlXlXlXlXlXlXlXlXlXlXlXlXlXlXlXlXlXlXlXlXlXlXlXlXlXlXlXlXlXlXlXlXlXlX",
"lXlXlXlXlXlXlXlXlXlXlXlXlXlXlXlXlXlXlXlXlXlXlXlXlXlXlXlXlXlXlXlXlXlXlXlXlXlXlXlXlXlXlXlXlXlXlXlXlXlXlXlXlXlXlXlXlXlXlXlXlXlXlXlX",
"lXlXlXlXlXlXlXlXlXlXlXlXlXlXlXlXlXlXlXlXlXlXlXlXlXlXlXlXlXlXlXlXlXlXlXlXlXlXlXlXlXlXlXlXlXlXlXlXlXlXlXlXlXlXlXlXlXlXlXlXlXlXlXlX",
"lXlXlXlXlXlXlXlXlXlXlXlXlXlXlXlXlXlXlXlXlXlXlXlXlXlXlXlXlXlXlXlXlXlXlXlXlXlXlXlXlXlXlXlXlXlXlXlXlXlXlXlXlXlXlXlXlXlXlXlXlXlXlXlX",
"lXlXlXlXlXlXlXlXlXlXlXlXlXlXlXlXlXlXlXlXlXlXlXlXlXlXlXlXlXlXlXlXlXlXlXlXlXlXlXlXlXlXlXlXlXlXlXlXlXlXlXlXlXlXlXlXlXlXlXlXlXlXlXlX",
"lXlXlXlXlXlXlXlXlXlXlXlXlXlXlXlXlXlXlXlXlXlXlXlXlXlXlXlXlXlXlXlXlXlXlXlXlXlXlXlXlXlXlXlXlXlXlXlXlXlXlXlXlXlXlXlXlXlXlXlXlXlXlXlX"
};
