/* XPM */
static char *result[] = {
/* columns rows colors chars-per-pixel */
"64 64 210 2 ",
"   c #020401",
".  c #020C01",
"X  c #0A0C04",
"o  c #110D02",
"O  c #031403",
"+  c #041A05",
"@  c #0B150B",
"#  c #071D09",
"$  c #0A1C0C",
"%  c #0A1404",
"&  c #1D1C05",
"*  c #16180A",
"=  c #0F1F11",
"-  c #271C05",
";  c #0B230B",
":  c #0C2A0D",
">  c #052105",
",  c #19270D",
"<  c #0D2410",
"1  c #0E2B11",
"2  c #122513",
"3  c #132C15",
"4  c #1A2915",
"5  c #1B251A",
"6  c #1B2B1B",
"7  c #182310",
"8  c #143314",
"9  c #1C3B1D",
"0  c #1B3819",
"q  c #25280B",
"w  c #2A2609",
"e  c #322406",
"r  c #382908",
"t  c #2A330C",
"y  c #38390D",
"u  c #252911",
"i  c #22261B",
"p  c #382E15",
"a  c #26331A",
"s  c #2C3614",
"d  c #363616",
"f  c #1E3920",
"g  c #222929",
"h  c #252723",
"j  c #322A21",
"k  c #233422",
"l  c #273F24",
"z  c #323F32",
"x  c #313E39",
"c  c #323C27",
"v  c #432E0E",
"b  c #48360B",
"n  c #55370D",
"m  c #483915",
"M  c #553D12",
"N  c #592C05",
"B  c #623F0F",
"V  c #533722",
"C  c #184316",
"Z  c #38431A",
"A  c #274F1D",
"S  c #224324",
"D  c #284A26",
"F  c #384828",
"G  c #34522D",
"H  c #314C31",
"J  c #3E4839",
"K  c #335435",
"L  c #3A553A",
"P  c #2F5B27",
"I  c #3F603C",
"U  c #50480E",
"Y  c #444917",
"T  c #49441C",
"R  c #5D4413",
"E  c #574719",
"W  c #454C0E",
"Q  c #68440F",
"!  c #60461A",
"~  c #6A4716",
"^  c #744611",
"/  c #774D13",
"(  c #695B15",
")  c #7F5517",
"_  c #7D591B",
"`  c #7F7D17",
"'  c #4A4722",
"]  c #464827",
"[  c #514F25",
"{  c #4D4835",
"}  c #5A5A37",
"|  c #455B3A",
" . c #675925",
".. c #755C20",
"X. c #7B483D",
"o. c #526E2B",
"O. c #48623C",
"+. c #7C6327",
"@. c #787C21",
"#. c #363D44",
"$. c #384A41",
"%. c #3E5842",
"&. c #414B43",
"*. c #455A47",
"=. c #424B51",
"-. c #464C5A",
";. c #574E50",
":. c #495857",
">. c #595F5E",
",. c #595146",
"<. c #635D4C",
"1. c #4B6741",
"2. c #4E704E",
"3. c #4A6353",
"4. c #4D6C52",
"5. c #536E59",
"6. c #5D645F",
"7. c #4E7651",
"8. c #527654",
"9. c #55775A",
"0. c #5C6C47",
"q. c #79774A",
"w. c #7D6856",
"e. c #647D55",
"r. c #727F57",
"t. c #7C6D44",
"y. c #4D4F63",
"u. c #4D5361",
"i. c #55586C",
"p. c #5B6D69",
"a. c #556965",
"s. c #5B7C64",
"d. c #5C6172",
"f. c #726E66",
"g. c #6B776E",
"h. c #656A77",
"j. c #747E7B",
"k. c #7D7C79",
"l. c #6D7A6F",
"z. c #814E13",
"x. c #845A1C",
"c. c #895B1A",
"v. c #945A16",
"b. c #8A6417",
"n. c #87661C",
"m. c #94671F",
"M. c #87781B",
"N. c #935E28",
"B. c #9A6622",
"V. c #9E7D21",
"C. c #916A30",
"Z. c #9C7A33",
"A. c #A67824",
"S. c #5D825C",
"D. c #548054",
"F. c #678C5F",
"G. c #66905E",
"H. c #5E8761",
"J. c #678961",
"K. c #6B9869",
"L. c #759568",
"P. c #6C8C77",
"I. c #749E78",
"U. c #77A875",
"Y. c #76A56E",
"T. c #94861D",
"R. c #988C22",
"E. c #898D26",
"W. c #AA8A24",
"Q. c #B78D2C",
"!. c #A59825",
"~. c #B6993A",
"^. c #ADAC30",
"/. c #BEAF3B",
"(. c #BEB433",
"). c #CC9D36",
"_. c #C48726",
"`. c #C2BD2F",
"'. c #C2AC32",
"]. c #CBAA30",
"[. c #CED334",
"{. c #CAC735",
"}. c #948155",
"|. c #AD9253",
" X c #A8914D",
".X c #B5A254",
"XX c #80AA75",
"oX c #87B27A",
"OX c #B8A267",
"+X c #D7BF59",
"@X c #CEAE43",
"#X c #D2D452",
"$X c #D4C46A",
"%X c #E1D46E",
"&X c #707583",
"*X c #6D8381",
"=X c #838387",
"-X c #8E928E",
";X c #939481",
":X c #8F8D90",
">X c #9A9D96",
",X c #A49988",
"<X c #A79E97",
"1X c #89B580",
"2X c #B2A29E",
"3X c #B8B9B7",
"4X c #A4A3A3",
"5X c #BFC0BA",
"6X c #D0D4C2",
"7X c None",
/* pixels */
"7X7X7X7X7X7X7X7X7X7X7X7X7X7X7X7X7X7X7X7X7X7X7X7X7X7X7X7X7X7X7X7X7X7X7X7X7X7X7X7X7X7X7X7X7X7X7X7X7X7X7X7X7X7X7X7X7X7X7X7X7X7X7X7X",
"7X7X7X7X7X7X7X7X7X7X7X7X7X7X7X7X7X7X7X7X7X7X7X7X7X7X7X7X7X7X7X7X7X7X7X7X7X7X7X7X7X7X7X7X7X7X7X7X7X7X7X7X7X7X7X7X7X7X7X7X7X7X7X7X",
"7X7X7X7X7X7X7X7X7X7X7X7X7X7X7X7X7X7X7X7X7X7X7X7X7X7X7X7X7X7X7X7X7X7X7X7X7X7X7X7X7X7X7X7X7X7X7X7X7X7X7X7X7X7X7X7X7X7X7X7X7X7X7X7X",
"7X7X7X7X7X7X7X7X7X7X7X7X7X7X7X7X7X7X7X7X7X7X7X7X7X7X7X7X7X7X7X7X7X7X7X7X7X7X7X7X7X7X7X7X7X7X7X7X7X7X7X7X7X7X7X7X7X7X7X7X7X7X7X7X",
"7X7X7X7X7X7X7X7X7X7X7X7X7X7X7X7X7X7X7X7X7X7X7X7X7X7X7X7X7X7X7X7X7X7X7X7X7X7X7X7X7X7X7X7X7X7X7X7X7X7X7X7X7X7X7X7X7X7X7X7X7X7X7X7X",
"7X7X7X7X7X7X7X7X7X7X7X7X7X7X7X7X7X7X7X7X7X7X7X7X7X7X7X7X7X7X7X7X7X7X7X7X7X7X7X7X7X7X7X7X7X7X7X7X7X7X7X7X7X7X7X7X7X7X7X7X7X7X7X7X",
"7X7X7X7X7X7X7X7X7X7X7X7X7X7X7X7X7X7X7X7X7X7X7X7X7X7X7X7X7X7X7X7X7X7X7X7X7X7X7X7X7X7X7X7X7X7X7X7X7X7X7X7X7X7X7X7X7X7X7X7X7X7X7X7X",
"7X7X7X7X7X7X7X7X7X7X7X7X7X7X7X7X7X7X7X7X7X7X7X7X7X7X7X7X7X7X7X7X7X7X7X7X7X7X7X7X7X7X7X7X7X7X7X7X7X7X7X7X7X7X7X7X7X7X7X7X7X7X7X7X",
"7X7X7X7X7X7X7X7X7X7X7X7X7X7X7X7X7X7X7X7X7X7X7X7X7X7X7X7X7X7X7X7X7X7X7X7X7X7X7X7X7X7X7X7X7X7X7X7X7X7X7X7X7X7X7X7X7X7X7X7X7X7X7X7X",
"7X7X7X7X7X7X7X7X7X7X7X7X7X7X7X7X7X7X7X7X7X7X7X7X7X7X7X7X7X7X7X7X7X7X7X7X7X7X7X7X7X7X7X7X7X7X7X7X7X7X7X7X7X7X7X7X7X7X7X7X7X7X7X7X",
"7X7X7X7X7X7X7X7X7X7X7X7X7X7X7X7X7X7X7X7X7X7X7X7X7X7X7X7X7X7X7X7X7X7X7X7X7X7X7X7X7X7X7X7X7X7X7X7X7X7X7X7X7X7X7X7X7X7X7X7X7X7X7X7X",
"7X7X7X7X7X7X7X7X7X7X7X7X7X7X7X7X7X7X7X7X7X7X7X7X7X7X7X7X7X7X7X7X7X7X7X7X7X7X7X7X7X7X7X7X7X7X7X7X7X7X7X7X7X7X7X7X7X7X7X7X7X7X7X7X",
"7X7X7X7X7X7X7X7X7X7X7X7X7X7X7X7X7X7X7X7X7X7X7X7X7X7X7X7X7X7X7X7X7X7X7X7X7X7X7X7X7X7X7X7X7X7X7X7X7X7X7X7X7X7X7X7X7X7X7X7X7X7X7X7X",
"7X7X7X7X7X7X7X7X7X7X7X7X7X7X7X7X7X7X7X7X7X7X7X7X7X7X7X7X7X7X7X7X7X7X7X7X7X7X7X7X7X7X7X7X7X7X7X7X7X7X7X7X7X7X7X7X7X7X7X7X7X7X7X7X",
"7X7X7X7X7X7X7X7X7X7X7X7X7X7X7X7X7X7X7X7X7X7X7X7X7X7X7X7X7X7X7X7X7X7X7X7X7X7X7X7X7X7X7X7X7X7X7X7X7X7X7X7X7X7X7X7X7X7X7X7X7X7X7X7X",
"7X7X7X7X7X7X7X7X7X7X7X7X7X7X7X7X7X7X7X7X7X7X7X7X7X7X3X7X7X7X7X7X7X7X7X7X7X7X7X7X7X7X7X7X7X7X7X7X7X7X7X7X7X7X7X7X7X7X7X7X7X7X7X7X",
"7X7X7X7X7X7X7X7X7X7X7X7X7X7X7X7X7X7X7X7X7X7X7XQ.^.7X;X6X7X7X7X7X7X7X7X7X7X7X7X7X7X7X7X7X7X7X7X7X7X7X7X7X7X7X7X7X7X7X7X7X7X7X7X7X",
"7X7X7X7X7X7X7X7X7X7X7X7X7X7X7X7X7X7X7X7X7Xc.c._ C. X,X,X7X7X7X7X7X7X7X7X7X7X7X7X7X7X7X7X7X7X7X7X7X7X7X7X7X7X7X7X7X7X7X7X7X7X7X7X",
"7X7X7X7X7X7X7X7X7X7X7X7X7X7X7X7X7X7X7X7X8 ! E ! w.<Xf.n n.W.7X7X7X7X7X7X7X7X7X7X7X7X7X7X7X7X7X7X7X7X7X7X7X7X7X7X7X7X7X7X7X7X7X7X",
"7X7X7X7X7X7X7X7X7X7X7X7X7X7X7X7X7X7X7XC 0 W a [ { 5 . B / 7X7X7X7X7X7X7Xa 1 7X7X7X7X7X7X7X7X7X7X7X7X7X7X7X7X7X7X7X7X7X7X7X7X7X7X",
"7X7X7X7X7X7X7X7X7X7X7X7X7X7X7X7X7Xy Y A P o.A A.A.E > % Q v.7X7X7X7X7X  : | 8 7X7X7X7X7X7X7X7X7X7X7X7X7X7X7X7X7X7X7X7X7X7X7X7X7X",
"7X7X7X7X7X7X7X7X7X7X7X7X7X7X7X7X7XJ.7X>Xw.] b A.m. .8 + b c.R.7X7X7X7X# ; *.O.3 7X7X7X7X7X7X7X7X7X7X7X7X7X7X7X7X7X7X7X7X7X7X7X7X",
"7X7X7X7X7X7X7X7X7X7X7X7X7X7X7X7X7X7X2XX.V d n.B.A.Z.d > e z.!.7X7X7X7Xc s 3 L.O.> 7X7X7X7X7X7X7X7X7X7X7X7X7X7X7X7X7X7X7X7X7X7X7X",
"7X7X7X7X7X7X7X7X7X7X7X7X7X7X7X7X7X7Xk.i 7X7X(.n.~..X] ; - ^ M.7X7X7X7Xi 0 | 9.oXD 7X7X7X7X7X7X7X7X7X7X7X7X7X7X7X7X7X7X7X7X7X7X7X",
"7X7X7X7X7X7X7X7X7X7X7X7X7X7X7X7X7X7X7X7X7X7X7X7X+X|.8 % r / 7X7X7X7X+ a 3 0.e.1XG.> 7X7X7X7X7X7X7X7X7X7X7X7X7X7X7X7X7X7X7X7X7X7X",
"7X7X7X7X7X7X7X7X7X7X7X7X7X7X7X7X7X7X7X7X7X7X7X+X$XF ; X n 7X7X7X7X7X% a 8 e.F.U.Y.8 7X7X7X7X7X7X7X7X7X7X7X7X7X7X7X7X7X7X7X7X7X7X",
"7X7X7X7X7X7X7X7X7X7X7X7X7X7X7X7X7X7X7X7X7X7X7XOXq.9 O - ^ {.7X7X7XO 5 8 | L.L.K.U.L 7X7X7X7X7X7X7X7X7X7X7X7X7X7X7X7X7X7X7X7X7X7X",
"7X7X7X7X7X7X7X7X7X7X7X7X7X7X7X7X7X7X7X7X7X7X7X%X .; O Q _ R.7X7X  O ; 1 0 L.K.D.U.L 7X7X7X7X7X7X7X7X7X7X7X7X7X7X7X7X7X7X7X7X7X7X",
"7X7X7X7X7X7X7X7X7X7X7X7X7X7X7X7X7X7X7X7X7X7X7X@XF ; O e ` W O   + : # x H F.S.7.I.2.+ 7X7X7X7X7X7X7X7X7X7X7X7X7X7X7X7X7X7X7X7X7X",
"7X7X7X7X7X7X7X7X7X7X7X7X7X7X7X7X7X7X7X7X7X7Xq.$X' ; ; $   . $ : ; O k J.9.F.S.8.P.9.# 7X7X7X7X7X7X7X7X7X7X7X7X7X7X7X7X7X7X7X7X7X",
"7X7X7X7X7X7X7X7X7X7X7X7X7X7X7X7X7X7X4Xk.< 7Xt |.Z 8 8 O 1 0 9 $ = K 7.K.K.4.s.2.P.5.3 7X7X7X7X7X7X7X7X7X7X7X7X7X7X7X7X7X7X7X7X7X",
"7X7X7X7X7X7X7X7X7X7X7X7X7X7X7X7X7X7X:X&.O 7XT ~.D f < . + 1 $ 6 8.H.9.s.U.*.5.9.p.3.; 7X7X7X7X7X7X7X7X7X7X7X7X7X7X7X7X7X7X7X7X7X",
"7X7X7X7X7X7X7X7X7X7X7X7X7X7X7X7X7X7X=X7Xi @ }  XS < O O + O f 4.s.3.3.p.P.L g.a.-.3.+ 7X7X7X7X7X7X7X7X7X7X7X7X7X7X7X7X7X7X7X7X7X",
"7X7X7X7X7X7X7X7X7X7X7X7X7X7X7X7X7X7X7X7X:X3.t..XS 3 O $ # O . *.4.3.:.d.*X%.g.p.u.a.O 7X7X7X7X7X7X7X7X7X7X7X7X7X7X7X7X7X7X7X7X7X",
"7X7X7X7X7X7X7X7X7X7X7X7X7X7X7X7X7X7X7X7X=X{ 5 }.G 2 . < ; + O $ *.-.-.i.&X$.*Xa.u.:.. 7X7X7X7X7X7X7X7X7X7X7X7X7X7X7X7X7X7X7X7X7X",
"7X7X7X7X7X7X7X7X7X7X7X7X7X7X7X7X7X7X7X7X3Xa.@ m } 9 O 3 < ; # O g $.-.i.d.$.&Xd.i.-.  7X7X7X7X7X7X7X7X7X7X7X7X7X7X7X7X7X7X7X7X7X",
"7X7X7X7X7X7X7X7X7X7X7X7X7X7X7X7X7X7X7X7X#X7X= . d < . 2 3 $ ; + . g g j ,.=.&X>.y.#.7X7X7X7X7X7X7X7X7X7X7X7X7X7X7X7X7X7X7X7X7X7X",
"7X7X7X7X7X7X7X7X7X7X7X7X7X7X7X7X7X7X7X7X[.7X@ O @ + X p u 4 < # ; 1 # o h ;.<.x -.g 7X7X7X7X7X7X7X7X7X7X7X7X7X7X7X7X7X7X7X7X7X7X",
"7X7X7X7X7X7X7X7X7X7X7X7X7X7X7X7X7X7X7X7X7X'.{.W.N   * m M i 3 9 8 < %   * N.z.$.#.7 7X7X7X7X7X7X7X7X7X7X7X7X7X7X7X7X7X7X7X7X7X7X",
"7X7X7X7X7X7X7X7X7X7X7X7X7X7X7X7X7X7X7X7X7X7X]._._.B.s d  .E K S < # .   * ^ v.p 7X5 7X7X7X7X7X7X7X7X7X7X7X7X7X7X7X7X7X7X7X7X7X7X",
"7X7X7X7X7X7X7X7X7X7X7X7X7X7X7X7X7X7X7X7X7X7XB.).).b.B.~ R L H 8 @   . +   ( n._ E.* 7X7X7X7X7X7X7X7X7X7X7X7X7X7X7X7X7X7X7X7X7X7X",
"7X7X7X7X7X7X7X7X7X7X7X7X7X7X7X7X7X7X7X7X7X7X7X7X~.@X/.!.+.+.d $   . $ # O   n v.(.Z 7X7X7X7X7X7X7X7X7X7X7X7X7X7X7X7X7X7X7X7X7X7X",
"7X7X7X7X7X7X7X7X7X7X7X7X7X7X7X7X7X7X7X7X7X7X7X7X7Xm.W.M.E.R.( w @ w p 7 + + O R z.@.7X7X7X7X7X7X7X7X7X7X7X7X7X7X7X7X7X7X7X7X7X7X",
"7X7X7X7X7X7X7X7X7X7X7X7X7X7X7X7X7X7X7X7X7X7X7X7X7X7Xn.V.!.E.@.( - * M m 4 8 G ; r y M.7X7X7X7X7X7X7X7X7X7X7X7X7X7X7X7X7X7X7X7X7X",
"7X7X7X7X7X7X7X7X7X7X7X7X7X7X7X7X7X7X7X7X7X7X7X7X7Xz + y v ~ ..a p & R ! m ' O.G s , r 7X7X7X7X7X7X7X7X7X7X7X7X7X7X7X7X7X7X7X7X7X",
"7X7X7X7X7X7X7X7X7X7X7X7X7X7X7X7X7X7X7X7X7X7X7X=X>Xl O O O # b p w , t U v ( R Y d b - 7X7X7X7X7X7X7X7X7X7X7X7X7X7X7X7X7X7X7X7X7X",
"7X7X7X7X7X7X7X7X7X7X7X7X7X7X7X7X7X7X7X7X7X7X7X7X&X7X3Xf.l < # O   7X7Xd q , q t % ,   7X7X7X7X7X7X7X7X7X7X7X7X7X7X7X7X7X7X7X7X7X",
"7X7X7X7X7X7X7X7X7X7X7X7X7X7X7X7X7X7X7X7X7X7X7X7X7X7X7X5Xg.l.% 7X7X7X7X7X7X7X7Xo     7X7X7X7X7X7X7X7X7X7X7X7X7X7X7X7X7X7X7X7X7X7X",
"7X7X7X7X7X7X7X7X7X7X7X7X7X7X7X7X7X7X7X7X7X7X7X7X7X7X7X7X7X7X7X7X7X7X7X7X7X7X7X7X7X7X7X7X7X7X7X7X7X7X7X7X7X7X7X7X7X7X7X7X7X7X7X7X",
"7X7X7X7X7X7X7X7X7X7X7X7X7X7X7X7X7X7X7X7X7X7X7X7X7X7X7X7X7X7X7X7X7X7X7X7X7X7X7X7X7X7X7X7X7X7X7X7X7X7X7X7X7X7X7X7X7X7X7X7X7X7X7X7X",
"7X7X7X7X7X7X7X7X7X7X7X7X7X7X7X7X7X7X7X7X7X7X7X7X7X7X7X7X7X7X7X7X7X7X7X7X7X7X7X7X7X7X7X7X7X7X7X7X7X7X7X7X7X7X7X7X7X7X7X7X7X7X7X7X",
"7X7X7X7X7X7X7X7X7X7X7X7X7X7X7X7X7X7X7X7X7X7X7X7X7X7X7X7X7X7X7X7X7X7X7X7X7X7X7X7X7X7X7X7X7X7X7X7X7X7X7X7X7X7X7X7X7X7X7X7X7X7X7X7X",
"7X7X7X7X7X7X7X7X7X7X7X7X7X7X7X7X7X7X7X7X7X7X7X7X7X7X7X7X7X7X7X7X7X7X7X7X7X7X7X7X7X7X7X7X7X7X7X7X7X7X7X7X7X7X7X7X7X7X7X7X7X7X7X7X",
"7X7X7X7X7X7X7X7X7X7X7X7X7X7X7X7X7X7X7X7X7X7X7X7X7X7X7X7X7X7X7X7X7X7X7X7X7X7X7X7X7X7X7X7X7X7X7X7X7X7X7X7X7X7X7X7X7X7X7X7X7X7X7X7X",
"7X7X7X7X7X7X7X7X7X7X7X7X7X7X7X7X7X7X7X7X7X7X7X7X7X7X7X7X7X7X7X7X7X7X7X7X7X7X7X7X7X7X7X7X7X7X7X7X7X7X7X7X7X7X7X7X7X7X7X7X7X7X7X7X",
"7X7X7X7X7X7X7X7X7X7X7X7X7X7X7X7X7X7X7X7X7X7X7X7X7X7X7X7X7X7X7X7X7X7X7X7X7X7X7X7X7X7X7X7X7X7X7X7X7X7X7X7X7X7X7X7X7X7X7X7X7X7X7X7X",
"7X7X7X7X7X7X7X7X7X7X7X7X7X7X7X7X7X7X7X7X7X7X7X7X7X7X7X7X7X7X7X7X7X7X7X7X7X7X7X7X7X7X7X7X7X7X7X7X7X7X7X7X7X7X7X7X7X7X7X7X7X7X7X7X",
"7X7X7X7X7X7X7X7X7X7X7X7X7X7X7X7X7X7X7X7X7X7X7X7X7X7X7X7X7X7X7X7X7X7X7X7X7X7X7X7X7X7X7X7X7X7X7X7X7X7X7X7X7X7X7X7X7X7X7X7X7X7X7X7X",
"7X7X7X7X7X7X7X7X7X7X7X7X7X7X7X7X7X7X7X7X7X7X7X7X7X7X7X7X7X7X7X7X7X7X7X7X7X7X7X7X7X7X7X7X7X7X7X7X7X7X7X7X7X7X7X7X7X7X7X7X7X7X7X7X",
"7X7X7X7X7X7X7X7X7X7X7X7X7X7X7X7X7X7X7X7X7X7X7X7X7X7X7X7X7X7X7X7X7X7X7X7X7X7X7X7X7X7X7X7X7X7X7X7X7X7X7X7X7X7X7X7X7X7X7X7X7X7X7X7X",
"7X7X7X7X7X7X7X7X7X7X7X7X7X7X7X7X7X7X7X7X7X7X7X7X7X7X7X7X7X7X7X7X7X7X7X7X7X7X7X7X7X7X7X7X7X7X7X7X7X7X7X7X7X7X7X7X7X7X7X7X7X7X7X7X",
"7X7X7X7X7X7X7X7X7X7X7X7X7X7X7X7X7X7X7X7X7X7X7X7X7X7X7X7X7X7X7X7X7X7X7X7X7X7X7X7X7X7X7X7X7X7X7X7X7X7X7X7X7X7X7X7X7X7X7X7X7X7X7X7X",
"7X7X7X7X7X7X7X7X7X7X7X7X7X7X7X7X7X7X7X7X7X7X7X7X7X7X7X7X7X7X7X7X7X7X7X7X7X7X7X7X7X7X7X7X7X7X7X7X7X7X7X7X7X7X7X7X7X7X7X7X7X7X7X7X",
"7X7X7X7X7X7X7X7X7X7X7X7X7X7X7X7X7X7X7X7X7X7X7X7X7X7X7X7X7X7X7X7X7X7X7X7X7X7X7X7X7X7X7X7X7X7X7X7X7X7X7X7X7X7X7X7X7X7X7X7X7X7X7X7X"
};
