/* XPM */
static char *result[] = {
/* columns rows colors chars-per-pixel */
"64 64 210 2 ",
"   c #020401",
".  c #020C01",
"X  c #0A0C04",
"o  c #110D02",
"O  c #031403",
"+  c #041A05",
"@  c #0B150B",
"#  c #071D09",
"$  c #0A1C0C",
"%  c #0A1404",
"&  c #1D1C05",
"*  c #16180A",
"=  c #0F1F11",
"-  c #271C05",
";  c #0B230B",
":  c #0C2A0D",
">  c #052105",
",  c #19270D",
"<  c #0D2410",
"1  c #0E2B11",
"2  c #122513",
"3  c #132C15",
"4  c #1A2915",
"5  c #1B251A",
"6  c #1B2B1B",
"7  c #182310",
"8  c #143314",
"9  c #1C3B1D",
"0  c #1B3819",
"q  c #25280B",
"w  c #2A2609",
"e  c #322406",
"r  c #382908",
"t  c #2A330C",
"y  c #38390D",
"u  c #252911",
"i  c #22261B",
"p  c #382E15",
"a  c #26331A",
"s  c #2C3614",
"d  c #363616",
"f  c #1E3920",
"g  c #222929",
"h  c #252723",
"j  c #322A21",
"k  c #233422",
"l  c #273F24",
"z  c #323F32",
"x  c #313E39",
"c  c #323C27",
"v  c #432E0E",
"b  c #48360B",
"n  c #55370D",
"m  c #483915",
"M  c #553D12",
"N  c #592C05",
"B  c #623F0F",
"V  c #533722",
"C  c #184316",
"Z  c #38431A",
"A  c #274F1D",
"S  c #224324",
"D  c #284A26",
"F  c #384828",
"G  c #34522D",
"H  c #314C31",
"J  c #3E4839",
"K  c #335435",
"L  c #3A553A",
"P  c #2F5B27",
"I  c #3F603C",
"U  c #50480E",
"Y  c #444917",
"T  c #49441C",
"R  c #5D4413",
"E  c #574719",
"W  c #454C0E",
"Q  c #68440F",
"!  c #60461A",
"~  c #6A4716",
"^  c #744611",
"/  c #774D13",
"(  c #695B15",
")  c #7F5517",
"_  c #7D591B",
"`  c #7F7D17",
"'  c #4A4722",
"]  c #464827",
"[  c #514F25",
"{  c #4D4835",
"}  c #5A5A37",
"|  c #455B3A",
" . c #675925",
".. c #755C20",
"X. c #7B483D",
"o. c #526E2B",
"O. c #48623C",
"+. c #7C6327",
"@. c #787C21",
"#. c #363D44",
"$. c #384A41",
"%. c #3E5842",
"&. c #414B43",
"*. c #455A47",
"=. c #424B51",
"-. c #464C5A",
";. c #574E50",
":. c #495857",
">. c #595F5E",
",. c #595146",
"<. c #635D4C",
"1. c #4B6741",
"2. c #4E704E",
"3. c #4A6353",
"4. c #4D6C52",
"5. c #536E59",
"6. c #5D645F",
"7. c #4E7651",
"8. c #527654",
"9. c #55775A",
"0. c #5C6C47",
"q. c #79774A",
"w. c #7D6856",
"e. c #647D55",
"r. c #727F57",
"t. c #7C6D44",
"y. c #4D4F63",
"u. c #4D5361",
"i. c #55586C",
"p. c #5B6D69",
"a. c #556965",
"s. c #5B7C64",
"d. c #5C6172",
"f. c #726E66",
"g. c #6B776E",
"h. c #656A77",
"j. c #747E7B",
"k. c #7D7C79",
"l. c #6D7A6F",
"z. c #814E13",
"x. c #845A1C",
"c. c #895B1A",
"v. c #945A16",
"b. c #8A6417",
"n. c #87661C",
"m. c #94671F",
"M. c #87781B",
"N. c #935E28",
"B. c #9A6622",
"V. c #9E7D21",
"C. c #916A30",
"Z. c #9C7A33",
"A. c #A67824",
"S. c #5D825C",
"D. c #548054",
"F. c #678C5F",
"G. c #66905E",
"H. c #5E8761",
"J. c #678961",
"K. c #6B9869",
"L. c #759568",
"P. c #6C8C77",
"I. c #749E78",
"U. c #77A875",
"Y. c #76A56E",
"T. c #94861D",
"R. c #988C22",
"E. c #898D26",
"W. c #AA8A24",
"Q. c #B78D2C",
"!. c #A59825",
"~. c #B6993A",
"^. c #ADAC30",
"/. c #BEAF3B",
"(. c #BEB433",
"). c #CC9D36",
"_. c #C48726",
"`. c #C2BD2F",
"'. c #C2AC32",
"]. c #CBAA30",
"[. c #CED334",
"{. c #CAC735",
"}. c #948155",
"|. c #AD9253",
" X c #A8914D",
".X c #B5A254",
"XX c #80AA75",
"oX c #87B27A",
"OX c #B8A267",
"+X c #D7BF59",
"@X c #CEAE43",
"#X c #D2D452",
"$X c #D4C46A",
"%X c #E1D46E",
"&X c #707583",
"*X c #6D8381",
"=X c #838387",
"-X c #8E928E",
";X c #939481",
":X c #8F8D90",
">X c #9A9D96",
",X c #A49988",
"<X c #A79E97",
"1X c #89B580",
"2X c #B2A29E",
"3X c #B8B9B7",
"4X c #A4A3A3",
"5X c #BFC0BA",
"6X c #D0D4C2",
"7X c None",
/* pixels */
"7X7X7X7X7X7X7X7X7X7X7X7X7X7X7X7X7X7X7X7X7X7X7X7X7X7X7X7X7X7X7X7X7X7X7X7X7X7X7X7X7X7X7X7X7X7X7X7X7X7X7X7X7X7X7X7X7X7X7X7X7X7X7X7X",
"7X7X7X7X7X7X7X7X7X7X7X7X7X7X7X7X7X7X7X7X7X7X7X7X7X7X7X7X7X7X7X7X7X7X7X7X7X7X7X7X7X7X7X7X7X7X7X7X7X7X7X7X7X7X7X7X7X7X7X7X7X7X7X7X",
"7X7X7X7X7X7X7X7X7X7X7X7X7X7X7X7X7X7X7X7X7X7X7X7X7X7X7X7X7X7X7X7X7X7X7X7X7X7X7X7X7X7X7X7X7X7X7X7X7X7X7X7X7X7X7X7X7X7X7X7X7X7X7X7X",
"7X7X7X7X7X7X7X7X7X7X7X7X7X7X7X7X7X7X7X7X7X7X7X7X7X7X7X7X7X7X7X7X7X7X7X7X7X7X7X7X7X7X7X7X7X7X7X7X7X7X7X7X7X7X7X7X7X7X7X7X7X7X7X7X",
"7X7X7X7X7X7X7X7X7X7X7X7X7X7X7X7X7X7X7X7X7X7X7X7X7X7X7X7X7X7X7X7X7X7X7X7X7X7X7X7X7X7X7X7X7X7X7X7X7X7X7X7X7X7X7X7X7X7X7X7X7X7X7X7X",
"7X7X7X7X7X7X7X7X7X7X7X7X7X7X7X7X7X7X7X7X7X7X7X7X7X7X7X7X7X7X7X7X7X7X7X7X7X7X7X7X7X7X7X7X7X7X7X7X7X7X7X7X7X7X7X7X7X7X7X7X7X7X7X7X",
"7X7X7X7X7X7X7X7X7X7X7X7X7X7X7X7X7X7X7X7X7X7X7X7X7X7X7X7X7X7X7X7X7X7X7X7X7X7X7X7X7X7X7X7X7X7X7X7X7X7X7X7X7X7X7X7X7X7X7X7X7X7X7X7X",
"7X7X7X7X7X7X7X7X7X7X7X7X7X7X7X7X7X7X7X7X7X7X7X7X7X7X7X7X7X7X7X7X7X7X7X7X7X7X7X7X7X7X7X7X7X7X7X7X7X7X7X7X7X7X7X7X7X7X7X7X7X7X7X7X",
"7X7X7X7X7X7X7X7X7X7X7X7X7X7X7X7X7X7X7X7X7X7X7X7X7X7X7X7X7X7X7X7X7X7X7X7X7X7X7X7X7X7X7X7X7X7X7X7X7X7X7X7X7X7X7X7X7X7X7X7X7X7X7X7X",
"7X7X7X7X7X7X7X7X7X7X7X7X7X7X7X7X7X7X7X7X7X7X7X7X7X7X7X7X7X7X7X7X7X7X7X7X7X7X7X7X7X7X7X7X7X7X7X7X7X7X7X7X7X7X7X7X7X7X7X7X7X7X7X7X",
"7X7X7X7X7X7X7X7X7X7X7X7X7X7X7X7X7X7X7X7X7X7X7X7X7X7X7X7X7X7X7X7X7X7X7X7X7X7X7X7X7X7X7X7X7X7X7X7X7X7X7X7X7X7X7X7X7X7X7X7X7X7X7X7X",
"7X7X7X7X7X7X7X7X7X7X7X7X7X7X7X7X7X7X7X7X7X7X7X7X7X7X7X7X7X7X7X7X7X7X7X7X7X7X7X7X7X7X7X7X7X7X7X7X7X7X7X7X7X7X7X7X7X7X7X7X7X7X7X7X",
"7X7X7X7X7X7X7X7X7X7X7X7X7X7X7X7X7X7X7X7X7X7X7X7X7X7X7X7X7X7X7X7X7X7X7X7X7X7X7X7X7X7X7X7X7X7X7X7X7X7X7X7X7X7X7X7X7X7X7X7X7X7X7X7X",
"7X7X7X7X7X7X7X7X7X7X7X7X7X7X7X7X7X7X7X7X7X7X7X7X7X7X7X7X7X7X7X7X7X7X7X7X7X7X7X7X7X7X7X7X7X7X7X7X7X7X7X7X7X7X7X7X7X7X7X7X7X7X7X7X",
"7X7X7X7X7X7X7X7X7X7X7X7X7X7X7X7X7X7X7X7X7X7X7X7X7X7X7X7X7X7X7X7X7X7X7X7X7X7X7X7X7X7X7X7X7X7X7X7X7X7X7X7X7X7X7X7X7X7X7X7X7X7X7X7X",
"7X7X7X7X7X7X7X7X7X7X7X7X7X7X7X7X7X7X7X7X7X7X7X7X7X7X7X7X7X7X7X7X7X7X7X7X7X3X7X7X7X7X7X7X7X7X7X7X7X7X7X7X7X7X7X7X7X7X7X7X7X7X7X7X",
"7X7X7X7X7X7X7X7X7X7X7X7X7X7X7X7X7X7X7X7X7X7X7X7X7X7X7X7X7X7X7X7X7X7X7X7X6X;X7X^.Q.7X7X7X7X7X7X7X7X7X7X7X7X7X7X7X7X7X7X7X7X7X7X7X",
"7X7X7X7X7X7X7X7X7X7X7X7X7X7X7X7X7X7X7X7X7X7X7X7X7X7X7X7X7X7X7X7X7X7X7X7X>X,X XC.x.c.b.7X7X7X7X7X7X7X7X7X7X7X7X7X7X7X7X7X7X7X7X7X",
"7X7X7X7X7X7X7X7X7X7X7X7X7X7X7X7X7X7X7X7X7X7X7X7X7X7X7X7X7X7X7X7X7X7XW.b.N f.<Xw.E ! ! 8 7X7X7X7X7X7X7X7X7X7X7X7X7X7X7X7X7X7X7X7X",
"7X7X7X7X7X7X7X7X7X7X7X7X7X7X7X7X7X7X7X7X7X7X7X7X7X7X: a 7X7X7X7X7X7X7X/ Q . 5 { [ a W 0 C 7X7X7X7X7X7X7X7X7X7X7X7X7X7X7X7X7X7X7X",
"7X7X7X7X7X7X7X7X7X7X7X7X7X7X7X7X7X7X7X7X7X7X7X7X7X8 | < . 7X7X7X7X7Xb.^ % > U A.W.S o.P A Y d 7X7X7X7X7X7X7X7X7X7X7X7X7X7X7X7X7X",
"7X7X7X7X7X7X7X7X7X7X7X7X7X7X7X7X7X7X7X7X7X7X7X7X8 O.O.; @ 7X7X7X7XT.z.b + 8  .B.A.b { w.>X7XJ.7X7X7X7X7X7X7X7X7X7X7X7X7X7X7X7X7X",
"7X7X7X7X7X7X7X7X7X7X7X7X7X7X7X7X7X7X7X7X7X7X7X+ O.F.4 l c 7X7X7X7X!.z.e # d Z.A.m.n.p V X.2X7X7X7X7X7X7X7X7X7X7X7X7X7X7X7X7X7X7X",
"7X7X7X7X7X7X7X7X7X7X7X7X7X7X7X7X7X7X7X7X7X7X7XD oX9.| 0 i 7X7X7X7XM.^ e > T .X.Xn.(.7X7Xh k.7X7X7X7X7X7X7X7X7X7X7X7X7X7X7X7X7X7X",
"7X7X7X7X7X7X7X7X7X7X7X7X7X7X7X7X7X7X7X7X7X7X+ G.oXe.0.1 a O 7X7X7X7X/ r O 3 |.#X7X7X7X7X7X7X7X7X7X7X7X7X7X7X7X7X7X7X7X7X7X7X7X7X",
"7X7X7X7X7X7X7X7X7X7X7X7X7X7X7X7X7X7X7X7X7X7X8 Y.XXL.F.8 k % 7X7X7X7X7Xn X ; m $X+X7X7X7X7X7X7X7X7X7X7X7X7X7X7X7X7X7X7X7X7X7X7X7X",
"7X7X7X7X7X7X7X7X7X7X7X7X7X7X7X7X7X7X7X7X7X7XK U.K.L.L.F 3 6 O 7X7X7X`./ - O f q.OX7X7X7X7X7X7X7X7X7X7X7X7X7X7X7X7X7X7X7X7X7X7X7X",
"7X7X7X7X7X7X7X7X7X7X7X7X7X7X7X7X7X7X7X7X7X7X*.Y.7.L.K.l < : .   7X7XR._ Q O 2  .%X7X7X7X7X7X7X7X7X7X7X7X7X7X7X7X7X7X7X7X7X7X7X7X",
"7X7X7X7X7X7X7X7X7X7X7X7X7X7X7X7X7X7X7X7X7X> 4.I.7.G.J.H z # : + . . W ` e . ; F @X7X7X7X7X7X7X7X7X7X7X7X7X7X7X7X7X7X7X7X7X7X7X7X",
"7X7X7X7X7X7X7X7X7X7X7X7X7X7X7X7X7X7X7X7X7X; 8.P.7.S.S.S.J.f + $ : > O   $ ; : T $Xq.7X7X7X7X7X7X7X7X7X7X7X7X7X7X7X7X7X7X7X7X7X7X",
"7X7X7X7X7X7X7X7X7X7X7X7X7X7X7X7X7X7X7X7X7X3 5.P.4.s.4.K.K.8.K = $ 9 9 1 @ 1 8 Z |.t 7X$ j.4X7X7X7X7X7X7X7X7X7X7X7X7X7X7X7X7X7X7X",
"7X7X7X7X7X7X7X7X7X7X7X7X7X7X7X7X7X7X7X7X7X; 3.p.9.5.%.U.s.9.H.8.5 @ 1 + O ; f D ~.T 7XO &.:X7X7X7X7X7X7X7X7X7X7X7X7X7X7X7X7X7X7X",
"7X7X7X7X7X7X7X7X7X7X7X7X7X7X7X7X7X7X7X7X7X# :.:.a.g.L P.p.3.4.9.4.k O # . O 1 S  X} * 5 7X=X7X7X7X7X7X7X7X7X7X7X7X7X7X7X7X7X7X7X",
"7X7X7X7X7X7X7X7X7X7X7X7X7X7X7X7X7X7X7X7X7X+ 3.u.p.g.%.*Xd.:.3.3.*.. O + $ O 3 S .Xt.:.-X7X7X7X7X7X7X7X7X7X7X7X7X7X7X7X7X7X7X7X7X",
"7X7X7X7X7X7X7X7X7X7X7X7X7X7X7X7X7X7X7X7X7XO :.u.a.*X$.&Xi.-.:.:.$ O + ; < . 3 H }.q =.&X7X7X7X7X7X7X7X7X7X7X7X7X7X7X7X7X7X7X7X7X",
"7X7X7X7X7X7X7X7X7X7X7X7X7X7X7X7X7X7X7X7X7X  -.i.d.&X$.d.y.-.$.g + + ; : 5 O 0 } m $ 6.5X7X7X7X7X7X7X7X7X7X7X7X7X7X7X7X7X7X7X7X7X",
"7X7X7X7X7X7X7X7X7X7X7X7X7X7X7X7X7X7X7X7X7X7X#.y.6.&X$.;.j g g O + < $ 6 2 . < d . $ 7X#X7X7X7X7X7X7X7X7X7X7X7X7X7X7X7X7X7X7X7X7X",
"7X7X7X7X7X7X7X7X7X7X7X7X7X7X7X7X7X7X7X7X7X7Xg -.x <.;.j o $ 1 ; # < 4 u r X # # O + 7X[.7X7X7X7X7X7X7X7X7X7X7X7X7X7X7X7X7X7X7X7X",
"7X7X7X7X7X7X7X7X7X7X7X7X7X7X7X7X7X7X7X7X7X7X7 #.#.) N.&   O < 3 9 3 u M m *   N Q.{.'.7X7X7X7X7X7X7X7X7X7X7X7X7X7X7X7X7X7X7X7X7X",
"7X7X7X7X7X7X7X7X7X7X7X7X7X7X7X7X7X7X7X7X7X7X5 7Xp v.~ * . . @ 2 S K E  .j s B._._.].7X7X7X7X7X7X7X7X7X7X7X7X7X7X7X7X7X7X7X7X7X7X",
"7X7X7X7X7X7X7X7X7X7X7X7X7X7X7X7X7X7X7X7X7X7X= E._ n.( . O . . @ 3 K I E ~ C.x.].).B.7X7X7X7X7X7X7X7X7X7X7X7X7X7X7X7X7X7X7X7X7X7X",
"7X7X7X7X7X7X7X7X7X7X7X7X7X7X7X7X7X7X7X7X7X7XY '.v.n . . + $   . $ d +...!.'.@XQ.7X7X7X7X7X7X7X7X7X7X7X7X7X7X7X7X7X7X7X7X7X7X7X7X",
"7X7X7X7X7X7X7X7X7X7X7X7X7X7X7X7X7X7X7X7X7X7X` / R O O # 7 v w o w ( W.E.M.W.B.7X7X7X7X7X7X7X7X7X7X7X7X7X7X7X7X7X7X7X7X7X7X7X7X7X",
"7X7X7X7X7X7X7X7X7X7X7X7X7X7X7X7X7X7X7X7X7XM.y e ; G 3 5 m T * & ( @.E.!.T.n.7X7X7X7X7X7X7X7X7X7X7X7X7X7X7X7X7X7X7X7X7X7X7X7X7X7X",
"7X7X7X7X7X7X7X7X7X7X7X7X7X7X7X7X7X7X7X7X7Xr * s G 1.' M ! M - y a +.Q v y + z 7X7X7X7X7X7X7X7X7X7X7X7X7X7X7X7X7X7X7X7X7X7X7X7X7X",
"7X7X7X7X7X7X7X7X7X7X7X7X7X7X7X7X7X7X7X7X7X- b Z Y U ( y U t 7 w t b @ @ O O k >X:X7X7X7X7X7X7X7X7X7X7X7X7X7X7X7X7X7X7X7X7X7X7X7X",
"7X7X7X7X7X7X7X7X7X7X7X7X7X7X7X7X7X7X7X7X7X  , % t w q q d 7X7X  . $ 1 l g.3X7Xk.7X7X7X7X7X7X7X7X7X7X7X7X7X7X7X7X7X7X7X7X7X7X7X7X",
"7X7X7X7X7X7X7X7X7X7X7X7X7X7X7X7X7X7X7X7X7X7X    X 7X7X7X7X7X7X7X7XO l.g.3X7X7X7X7X7X7X7X7X7X7X7X7X7X7X7X7X7X7X7X7X7X7X7X7X7X7X7X",
"7X7X7X7X7X7X7X7X7X7X7X7X7X7X7X7X7X7X7X7X7X7X7X7X7X7X7X7X7X7X7X7X7X7X7X7X7X7X7X7X7X7X7X7X7X7X7X7X7X7X7X7X7X7X7X7X7X7X7X7X7X7X7X7X",
"7X7X7X7X7X7X7X7X7X7X7X7X7X7X7X7X7X7X7X7X7X7X7X7X7X7X7X7X7X7X7X7X7X7X7X7X7X7X7X7X7X7X7X7X7X7X7X7X7X7X7X7X7X7X7X7X7X7X7X7X7X7X7X7X",
"7X7X7X7X7X7X7X7X7X7X7X7X7X7X7X7X7X7X7X7X7X7X7X7X7X7X7X7X7X7X7X7X7X7X7X7X7X7X7X7X7X7X7X7X7X7X7X7X7X7X7X7X7X7X7X7X7X7X7X7X7X7X7X7X",
"7X7X7X7X7X7X7X7X7X7X7X7X7X7X7X7X7X7X7X7X7X7X7X7X7X7X7X7X7X7X7X7X7X7X7X7X7X7X7X7X7X7X7X7X7X7X7X7X7X7X7X7X7X7X7X7X7X7X7X7X7X7X7X7X",
"7X7X7X7X7X7X7X7X7X7X7X7X7X7X7X7X7X7X7X7X7X7X7X7X7X7X7X7X7X7X7X7X7X7X7X7X7X7X7X7X7X7X7X7X7X7X7X7X7X7X7X7X7X7X7X7X7X7X7X7X7X7X7X7X",
"7X7X7X7X7X7X7X7X7X7X7X7X7X7X7X7X7X7X7X7X7X7X7X7X7X7X7X7X7X7X7X7X7X7X7X7X7X7X7X7X7X7X7X7X7X7X7X7X7X7X7X7X7X7X7X7X7X7X7X7X7X7X7X7X",
"7X7X7X7X7X7X7X7X7X7X7X7X7X7X7X7X7X7X7X7X7X7X7X7X7X7X7X7X7X7X7X7X7X7X7X7X7X7X7X7X7X7X7X7X7X7X7X7X7X7X7X7X7X7X7X7X7X7X7X7X7X7X7X7X",
"7X7X7X7X7X7X7X7X7X7X7X7X7X7X7X7X7X7X7X7X7X7X7X7X7X7X7X7X7X7X7X7X7X7X7X7X7X7X7X7X7X7X7X7X7X7X7X7X7X7X7X7X7X7X7X7X7X7X7X7X7X7X7X7X",
"7X7X7X7X7X7X7X7X7X7X7X7X7X7X7X7X7X7X7X7X7X7X7X7X7X7X7X7X7X7X7X7X7X7X7X7X7X7X7X7X7X7X7X7X7X7X7X7X7X7X7X7X7X7X7X7X7X7X7X7X7X7X7X7X",
"7X7X7X7X7X7X7X7X7X7X7X7X7X7X7X7X7X7X7X7X7X7X7X7X7X7X7X7X7X7X7X7X7X7X7X7X7X7X7X7X7X7X7X7X7X7X7X7X7X7X7X7X7X7X7X7X7X7X7X7X7X7X7X7X",
"7X7X7X7X7X7X7X7X7X7X7X7X7X7X7X7X7X7X7X7X7X7X7X7X7X7X7X7X7X7X7X7X7X7X7X7X7X7X7X7X7X7X7X7X7X7X7X7X7X7X7X7X7X7X7X7X7X7X7X7X7X7X7X7X",
"7X7X7X7X7X7X7X7X7X7X7X7X7X7X7X7X7X7X7X7X7X7X7X7X7X7X7X7X7X7X7X7X7X7X7X7X7X7X7X7X7X7X7X7X7X7X7X7X7X7X7X7X7X7X7X7X7X7X7X7X7X7X7X7X",
"7X7X7X7X7X7X7X7X7X7X7X7X7X7X7X7X7X7X7X7X7X7X7X7X7X7X7X7X7X7X7X7X7X7X7X7X7X7X7X7X7X7X7X7X7X7X7X7X7X7X7X7X7X7X7X7X7X7X7X7X7X7X7X7X",
"7X7X7X7X7X7X7X7X7X7X7X7X7X7X7X7X7X7X7X7X7X7X7X7X7X7X7X7X7X7X7X7X7X7X7X7X7X7X7X7X7X7X7X7X7X7X7X7X7X7X7X7X7X7X7X7X7X7X7X7X7X7X7X7X",
"7X7X7X7X7X7X7X7X7X7X7X7X7X7X7X7X7X7X7X7X7X7X7X7X7X7X7X7X7X7X7X7X7X7X7X7X7X7X7X7X7X7X7X7X7X7X7X7X7X7X7X7X7X7X7X7X7X7X7X7X7X7X7X7X",
"7X7X7X7X7X7X7X7X7X7X7X7X7X7X7X7X7X7X7X7X7X7X7X7X7X7X7X7X7X7X7X7X7X7X7X7X7X7X7X7X7X7X7X7X7X7X7X7X7X7X7X7X7X7X7X7X7X7X7X7X7X7X7X7X"
};
