/* XPM */
static char *result[] = {
/* columns rows colors chars-per-pixel */
"64 64 213 2 ",
"   c #010500",
".  c #020C02",
"X  c #0D0E03",
"o  c #170F02",
"O  c #021303",
"+  c #041B05",
"@  c #071708",
"#  c #0D1509",
"$  c #071E08",
"%  c #0A1C0C",
"&  c #091704",
"*  c #111303",
"=  c #1C1404",
"-  c #131B0C",
";  c #1D1E06",
":  c #0F1D11",
">  c #131D11",
",  c #241C05",
"<  c #062306",
"1  c #0A220B",
"2  c #0D2B0D",
"3  c #072209",
"4  c #19260B",
"5  c #0F300E",
"6  c #0E2410",
"7  c #0F2C12",
"8  c #152414",
"9  c #142C14",
"0  c #192E16",
"q  c #1C2B1D",
"w  c #172918",
"e  c #143214",
"r  c #163219",
"t  c #1B351C",
"y  c #1C3919",
"u  c #28260A",
"i  c #372708",
"p  c #3C320D",
"a  c #252A19",
"s  c #223214",
"d  c #283A1B",
"f  c #3A3612",
"g  c #273205",
"h  c #1F3621",
"j  c #252B23",
"k  c #382D27",
"l  c #253D22",
"z  c #283629",
"x  c #353F23",
"c  c #2D3F39",
"v  c #31383D",
"b  c #412D0A",
"n  c #482C08",
"m  c #433F0E",
"M  c #57390D",
"N  c #463716",
"B  c #533E17",
"V  c #6A3D0E",
"C  c #633D10",
"Z  c #194215",
"A  c #1B451C",
"S  c #3E421B",
"D  c #3C4816",
"F  c #234423",
"G  c #2C4325",
"H  c #2B482A",
"J  c #364929",
"K  c #2E512F",
"L  c #3A522E",
"P  c #34453C",
"I  c #334733",
"U  c #2D5132",
"Y  c #355635",
"T  c #3E613B",
"R  c #5B420E",
"E  c #494918",
"W  c #5E4413",
"Q  c #544319",
"!  c #5E5319",
"~  c #64480D",
"^  c #654411",
"/  c #6B4613",
"(  c #614D15",
")  c #694D16",
"_  c #6C5C13",
"`  c #6A5419",
"'  c #7D5215",
"]  c #776417",
"[  c #7D741A",
"{  c #4A4022",
"}  c #41532A",
"|  c #414B31",
" . c #504F36",
".. c #475637",
"X. c #5B512A",
"o. c #476628",
"O. c #44603A",
"+. c #737D2D",
"@. c #6F693B",
"#. c #786A31",
"$. c #3C4848",
"%. c #3E5544",
"&. c #48564C",
"*. c #4A5E55",
"=. c #4C5259",
"-. c #475553",
";. c #545A52",
":. c #4B4D4E",
">. c #486549",
",. c #566444",
"<. c #4E744C",
"1. c #4B6554",
"2. c #516D5B",
"3. c #51635C",
"4. c #4F7151",
"5. c #547B54",
"6. c #54735B",
"7. c #58795D",
"8. c #62734F",
"9. c #616550",
"0. c #627952",
"q. c #786557",
"w. c #4D5363",
"e. c #535965",
"r. c #586464",
"t. c #5A7464",
"y. c #5E6775",
"u. c #656765",
"i. c #636A79",
"p. c #69717B",
"a. c #637C78",
"s. c #637E72",
"d. c #707572",
"f. c #8E5715",
"g. c #8B5B17",
"h. c #84571B",
"j. c #9D5B17",
"k. c #87671D",
"l. c #96641D",
"z. c #97691C",
"x. c #907D1D",
"c. c #956B21",
"v. c #867A26",
"b. c #8E7835",
"n. c #A96E21",
"m. c #A47A24",
"M. c #8C7C46",
"N. c #957044",
"B. c #85675B",
"V. c #5A855E",
"C. c #6A875D",
"Z. c #728157",
"A. c #5E8364",
"S. c #658E64",
"D. c #64866C",
"F. c #668E6A",
"G. c #688E6C",
"H. c #7A8767",
"J. c #6A956B",
"K. c #6C9367",
"L. c #789668",
"P. c #6B837B",
"I. c #6B8A75",
"U. c #78927A",
"Y. c #73A16F",
"T. c #76A473",
"R. c #7AA675",
"E. c #7FB17D",
"W. c #A78E1F",
"Q. c #988922",
"!. c #9E9824",
"~. c #B09231",
"^. c #B88F30",
"/. c #BDA529",
"(. c #B1B127",
"). c #BEB93B",
"_. c #BAA332",
"`. c #9E9044",
"'. c #958C53",
"]. c #B69948",
"[. c #A79A54",
"{. c #B29350",
"}. c #B6A253",
"|. c #9C8F6C",
" X c #858B76",
".X c #86A775",
"XX c #87B27E",
"oX c #B8AB73",
"OX c #D4B852",
"+X c #CFBF67",
"@X c #E2CF6A",
"#X c #686B80",
"$X c #6D7783",
"%X c #757A88",
"&X c #758486",
"*X c #7A9982",
"=X c #7CA881",
"-X c #888889",
";X c #92938F",
":X c #848492",
">X c #8A8794",
",X c #979996",
"<X c #A79C94",
"1X c #95BD88",
"2X c #86B686",
"3X c #AAA491",
"4X c #AFB0AC",
"5X c gray71",
"6X c #D5CD80",
"7X c #D8D3BA",
"8X c #D0D0CE",
"9X c #C7C7C4",
"0X c None",
/* pixels */
"0X0X0X0X0X0X0X0X0X0X0X0X0X0X0X0X0X0X0X0X0X0X0X0X0X0X0X0X0X0X0X0X0X0X0X0X0X0X0X0X0X0X0X0X0X0X0X0X0X0X0X0X0X0X0X0X0X0X0X0X0X0X0X0X",
"0X0X0X0X0X0X0X0X0X0X0X0X0X0X0X0X0X0X0X0X0X0X0X0X0X0X0X0X0X0X0X0X0X0X0X0X0X0X0X0X0X0X0X0X0X0X0X0X0X0X0X0X0X0X0X0X0X0X0X0X0X0X0X0X",
"0X0X0X0X0X0X0X0X0X0X0X0X0X0X0X0X0X0X0X0X0X0X0X0X0X0X0X0X0X0X0X0X0X0X0X0X0X0X0X0X0X0X0X0X0X0X0X0X0X0X0X0X0X0X0X0X0X0X0X0X0X0X0X0X",
"0X0X0X0X0X0X0X0X0X0X0X0X0X0X0X0X0X0X0X0X0X0X0X0X0X0X0X0X0X0X0X0X0X0X0X0X0X0X0X0X0X0X0X0X0X0X0X0X0X0X0X0X0X0X0X0X0X0X0X0X0X0X0X0X",
"0X0X0X0X0X0X0X0X0X0X0X0X0X0X0X0X0X0X0X0X0X0X0X0X0X0X0X0X0X0X0X0X0X0X0X0X0X0X0X0X0X0X0X0X0X0X0X0X0X0X0X0X0X0X0X0X0X0X0X0X0X0X0X0X",
"0X0X0X0X0X0X0X0X0X0X0X0X0X0X0X0X0X0X0X0X0X0X0X0X0X0X0X0X0X0X0X0X0X0X0X0X0X0X0X0X0X0X0X0X0X0X0X0X0X0X0X0X0X0X0X0X0X0X0X0X0X0X0X0X",
"0X0X0X0X0X0X0X0X0X0X0X0X0X0X0X0X0X0X0X0X0X0X0X0X0X0X0X0X0X0X0X0X0X0X0X0X0X0X0X0X0X0X0X0X0X0X0X0X0X0X0X0X0X0X0X0X0X0X0X0X0X0X0X0X",
"0X0X0X0X0X0X0X0X0X0X0X0X0X0X0X0X0X0X0X0X0X0X0X0X0X0X0X0X0X0X0X0X0X0X0X0X0X0X0X0X0X0X0X0X0X0X0X0X0X0X0X0X0X0X0X0X0X0X0X0X0X0X0X0X",
"0X0X0X0X0X0X0X0X0X0X0X0X0X0X0X0X0X0X0X0X0X0X0X0X0X0X0X0X0X0X0X0X0X0X0X0X0X0X0X0X0X0X0X0X0X0X0X0X0X0X0X0X0X0X0X0X0X0X0X0X0X0X0X0X",
"0X0X0X0X0X0X0X0X0X0X0X0X0X0X0X0X0X0X0X0X0X0X0X0X0X0X0X0X0X0X0X0X0X0X0X0X0X0X0X0X0X0X0X0X0X0X0X0X0X0X0X0X0X0X0X0X0X0X0X0X0X0X0X0X",
"0X0X0X0X0X0X0X0X0X0X0X0X0X0X0X0X0X0X0X0X0X0X0X0X0X0X0X0X0X0X0X0X0X0X0X0X0X0X0X0X0X0X0X0X0X0X0X0X0X0X0X0X0X0X0X0X0X0X0X0X0X0X0X0X",
"0X0X0X0X0X0X0X0X0X0X0X0X0X0X0X0X0X0X0X0X0X0X0X0X0X0X0X0X0X0X0X0X0X0X0X0X0X0X0X0X0X0X0X0X0X0X0X0X0X0X0X0X0X0X0X0X0X0X0X0X0X0X0X0X",
"0X0X0X0X0X0X0X0X0X0X0X0X0X0X0X0X0X0X0X0X0X0X0X0X0X0X0X0X0X0X0X0X0X0X0X0X0X0X0X0X0X0X0X0X0X0X0X0X0X0X0X0X0X0X0X0X0X0X0X0X0X0X0X0X",
"0X0X0X0X0X0X0X0X0X0X0X0X0X0X0X0X0X0X0X0X0X0X0X0X0X0X0X0X0X0X0X0X0X0X0X0X0X0X0X0X0X0X0X0X0X0X0X0X0X0X0X0X0X0X0X0X0X0X0X0X0X0X0X0X",
"0X0X0X0X0X0X0X0X0X0X0X0X0X0X0X0X0X0X0X0X0X0X0X0X0X0X0X0X0X0X0X0X0X0X0X0X0X0X0X0X0X0X0X0X0X0X0X0X0X0X0X0X0X0X0X0X0X0X0X0X0X0X0X0X",
"0X0X0X0X0X0X0X0X0X0X0X0X0X0X0X0X0X0X0X0X0X0X0X0X0X0X0X0X0X0X0X0X0X0X0X0X0X0X0X0X0X0X0X0X0X0X0X0X0X0X0X0X0X0X0X0X0X0X0X0X0X0X0X0X",
"0X0X0X0X0X0X0X0X0X0X0X0X0X0X0X0X0X0X0X0X0X0X0X0X0X0X0X0X0X0X0X0X0X5X0X0X)./.~.0X0X0X0X0X0X0X0X0X0X0X0X0X0X0X0X0X0X0X0X0X0X0X0X0X",
"0X0X0X0X0X0X0X0X0X0X0X0X0X0X0X0X0X0X0X0X0X0X0X0X0X0X0X0X0X0X0X0X0X7X3XN.c.c.h./ s 0X0X0X0X0X0X0X0X0X0X0X0X0X0X0X0X0X0X0X0X0X0X0X",
"0X0X0X0X0X0X0X0X0X0X0X0X0X0X0X0X0X0X0X0X0X0X0X0X0X0X0X0X0X0X0X0X0Xj.q.<X|.;.x } E Z Z S 0X0X0X0X0X0X0X0X0X0X0X0X0X0X0X0X0X0X0X0X",
"0X0X0X0X0X0X0X0X0X0X0X0X0X0X0X0X0X0X0X0X0X0X0X0X0X0X0X0X0X0X0X0XW.f.C o j b.v.o.o.O. XH.Z.0X0X0X0X0X0X0X0X0X0X0X0X0X0X0X0X0X0X0X",
"0X0X0X0X0X0X0X0X0X0X0X0X0X0X0X0X0X0X0X0X0X0X0X0X5 3     0X0X0X0Xg.f., + ` c.n.m  .B.B.0X8X0X0X0X0X0X0X0X0X0X0X0X0X0X0X0X0X0X0X0X",
"0X0X0X0X0X0X0X0X0X0X0X0X0X0X0X0X0X0X0X0X0X0X< F l <   O 0X0X0X0Xz.C O r X.c.l.k.! a k ;. X0X0X0X0X0X0X0X0X0X0X0X0X0X0X0X0X0X0X0X",
"0X0X0X0X0X0X0X0X0X0X0X0X0X0X0X0X0X0X0X0X0X2 G >.2 7 a > 0X0X0X0Xf.n < y {.v.W.z.0X0X0X0X0X0X0X0X0X0X0X0X0X0X0X0X0X0X0X0X0X0X0X0X",
"0X0X0X0X0X0X0X0X0X0X0X0X0X0X0X0X0X0X0X0X+ L L.J ..l 8.> 0X0X0X(.h.i 3 d }.Q.OX!.0X0X0X0X0X0X0X0X0X0X0X0X0X0X0X0X0X0X0X0X0X0X0X0X",
"0X0X0X0X0X0X0X0X0X0X0X0X0X0X0X0X0X0X0X0XK XX.XZ.O.e ..a 0X0X0X0Xl.M O t {.@X0X0X0X0X0X0X0X0X0X0X0X0X0X0X0X0X0X0X0X0X0X0X0X0X0X0X",
"0X0X0X0X0X0X0X0X0X0X0X0X0X0X0X0X0X0X0X3 L.1XH.L.Z.r ..| O 0X0X0XQ.V X $ G +X@X0X0X0X0X0X0X0X0X0X0X0X0X0X0X0X0X0X0X0X0X0X0X0X0X0X",
"0X0X0X0X0X0X0X0X0X0X0X0X0X0X0X0X0X0X0XY XX1XS.J.L.d d O.# 0X0X0X0Xf.n O 8 @.}.0X0X0X0X0X0X0X0X0X0X0X0X0X0X0X0X0X0X0X0X0X0X0X0X0X",
"0X0X0X0X0X0X0X0X0X0X0X0X0X0X0X0X0X0X1 5.E.Y.R.J..X0.9 J # . 0X0X0Xx./ u $ G OX6X0X0X0X0X0X0X0X0X0X0X0X0X0X0X0X0X0X0X0X0X0X0X0X0X",
"0X0X0X0X0X0X0X0X0X0X0X0X0X0X0X0X0X0XH G.2X5.R.J.R.O.h $ $ .     0X[ / = + F b.OX0X0X0X0X0X0X0X0X0X0X0X0X0X0X0X0X0X0X0X0X0X0X0X0X",
"0X0X0X0X0X0X0X0X0X0X0X0X0X0X0X0X0X0X>.I.T.>.R.F.T.K >.j < 2 1 O   g u & + l ].[.0X0X0X0X0X0X0X0X0X0X0X0X0X0X0X0X0X0X0X0X0X0X0X0X",
"0X0X0X0X0X0X0X0X0X0X0X0X0X0X0X0X0X< 2.I.t.6.=XG.S.<.K.5.q @ $ 2 9 9 O 6 2 r M.M.< 0X0X+ ,X5X0X0X0X0X0X0X0X0X0X0X0X0X0X0X0X0X0X0X",
"0X0X0X0X0X0X0X0X0X0X0X0X0X0X0X0X0Xt 6.P.6.A.*Xt.6.S.F.J.V.>.8 @ y 5 O % 0 F #.#.< 0X0XO q -X0X0X0X0X0X0X0X0X0X0X0X0X0X0X0X0X0X0X",
"0X0X0X0X0X0X0X0X0X0X0X0X0X0X0X0X0XF r.$X1.s.*Xt.1.D.D.t.7.A.4.I 6 1 . O % r J b.< 0X  . q -X0X0X0X0X0X0X0X0X0X0X0X0X0X0X0X0X0X0X",
"0X0X0X0X0X0X0X0X0X0X0X0X0X0X0X0X0XP 3.y.1.&Xa.t.%.D.a.3.2.4.7.%.. O $ O O 9 L '.7 0X. . 0X0X0X0X0X0X0X0X0X0X0X0X0X0X0X0X0X0X0X0X",
"0X0X0X0X0X0X0X0X0X0X0X0X0X0X0X0X0X$.e.i.*.%X&XP.$.a.y.w.$.1.%.q O + 1 6 O w L E 3 < u.;X0X0X0X0X0X0X0X0X0X0X0X0X0X0X0X0X0X0X0X0X",
"0X0X0X0X0X0X0X0X0X0X0X0X0X0X0X0X0Xw.#Xp.=.#X#Xp.I y.w.w.$.-.z O + 3 6 0 X t l @ O 2 d.5X0X0X0X0X0X0X0X0X0X0X0X0X0X0X0X0X0X0X0X0X",
"0X0X0X0X0X0X0X0X0X0X0X0X0X0X0X0X0Xe.%X$X*.>X:X:X$.i.:.:.$.v . $ $ 6 w i # 9 6 . . v 9X0X0X0X0X0X0X0X0X0X0X0X0X0X0X0X0X0X0X0X0X0X",
"0X0X0X0X0X0X0X0X0X0X0X0X0X0X0X0X@ u.0Xu.$.0X0X:X$.u. .k : 1 O % 6 w f N X @ + O O 0X0X0X0X0X0X0X0X0X0X0X0X0X0X0X0X0X0X0X0X0X0X0X",
"0X0X0X0X0X0X0X0X0X0X0X0X0X0X0X0X# 0X0X0X$.0X0X0X9./ M   % 8 2 7 8 f B N X   . . . 0X0X0X0X0X0X0X0X0X0X0X0X0X0X0X0X0X0X0X0X0X0X0X",
"0X0X0X0X0X0X0X0X0X0X0X0X0X0X0X0X> 0X0X0Xz 0X0X0X] ^ o   O % 9 F l Q { % : 0X0X0X0X0X0X0X0X0X0X0X0X0X0X0X0X0X0X0X0X0X0X0X0X0X0X0X",
"0X0X0X0X0X0X0X0X0X0X0X0X0X0X0X0Xw 0X0X0Xw 0X0X_.^.B   O   . 6 t U L % O % 0X0X0X0X0X0X0X0X0X0X0X0X0X0X0X0X0X0X0X0X0X0X0X0X0X0X0X",
"0X0X0X0X0X0X0X0X0X0X0X0X0X0X0X0X> 0X0X0X> 0XQ.m.c.u . & O   . % r Y H D % 0X0X0X0X0X0X0X0X0X0X0X0X0X0X0X0X0X0X0X0X0X0X0X0X0X0X0X",
"0X0X0X0X0X0X0X0X0X0X0X0X0X0X0X0Xw 0X0X0X0X0X^.j.i   + % u = i E D S +.4 O 0X0X0X0X0X0X0X0X0X0X0X0X0X0X0X0X0X0X0X0X0X0X0X0X0X0X0X",
"0X0X0X0X0X0X0X0X0X0X0X0X0X0X0X0X# 0X0X0X0XoXf.u + & s M ^ ^ W i ) ] u O 0X0X0X0X0X0X0X0X0X0X0X0X0X0X0X0X0X0X0X0X0X0X0X0X0X0X0X0X",
"0X0X0X0X0X0X0X0X0X0X0X0X0X0X0X0X0X0X0X/.j.~ O y U f ! ( _ [ k._ B + < + 3 0X0X0X0X0X0X0X0X0X0X0X0X0X0X0X0X0X0X0X0X0X0X0X0X0X0X0X",
"0X0X0X0X0X0X0X0X0X0X0X0X0X0X0X0X0X0X0X_ i e A T L Q E ) / M p a + 0X@ 3 3 3 I 4X0X0X0X0X0X0X0X0X0X0X0X0X0X0X0X0X0X0X0X0X0X0X0X0X",
"0X0X0X0X0X0X0X0X0X0X0X0X0X0X0X0X0X0X0Xo 4 d s s ; i ^ / ( p   > 9 2 2 9 :.O ;.,X0X0X0X0X0X0X0X0X0X0X0X0X0X0X0X0X0X0X0X0X0X0X0X0X",
"0X0X0X0X0X0X0X0X0X0X0X0X0X0X0X0X0X0X0X= o ; & * = n N 0X0X0X    O 0 h ;.;X0X0X0X0X0X0X0X0X0X0X0X0X0X0X0X0X0X0X0X0X0X0X0X0X0X0X0X",
"0X0X0X0X0X0X0X0X0X0X0X0X0X0X0X0X0X0X0X=     0X0X0X0X0X0X0X0X0X0X0Xz ;Xd.0X0X0X0X0X0X0X0X0X0X0X0X0X0X0X0X0X0X0X0X0X0X0X0X0X0X0X0X",
"0X0X0X0X0X0X0X0X0X0X0X0X0X0X0X0X0X0X0X0X0X0X0X0X0X0X0X0X0X0X0X0X0X0X0X0X0X0X0X0X0X0X0X0X0X0X0X0X0X0X0X0X0X0X0X0X0X0X0X0X0X0X0X0X",
"0X0X0X0X0X0X0X0X0X0X0X0X0X0X0X0X0X0X0X0X0X0X0X0X0X0X0X0X0X0X0X0X0X0X0X0X0X0X0X0X0X0X0X0X0X0X0X0X0X0X0X0X0X0X0X0X0X0X0X0X0X0X0X0X",
"0X0X0X0X0X0X0X0X0X0X0X0X0X0X0X0X0X0X0X0X0X0X0X0X0X0X0X0X0X0X0X0X0X0X0X0X0X0X0X0X0X0X0X0X0X0X0X0X0X0X0X0X0X0X0X0X0X0X0X0X0X0X0X0X",
"0X0X0X0X0X0X0X0X0X0X0X0X0X0X0X0X0X0X0X0X0X0X0X0X0X0X0X0X0X0X0X0X0X0X0X0X0X0X0X0X0X0X0X0X0X0X0X0X0X0X0X0X0X0X0X0X0X0X0X0X0X0X0X0X",
"0X0X0X0X0X0X0X0X0X0X0X0X0X0X0X0X0X0X0X0X0X0X0X0X0X0X0X0X0X0X0X0X0X0X0X0X0X0X0X0X0X0X0X0X0X0X0X0X0X0X0X0X0X0X0X0X0X0X0X0X0X0X0X0X",
"0X0X0X0X0X0X0X0X0X0X0X0X0X0X0X0X0X0X0X0X0X0X0X0X0X0X0X0X0X0X0X0X0X0X0X0X0X0X0X0X0X0X0X0X0X0X0X0X0X0X0X0X0X0X0X0X0X0X0X0X0X0X0X0X",
"0X0X0X0X0X0X0X0X0X0X0X0X0X0X0X0X0X0X0X0X0X0X0X0X0X0X0X0X0X0X0X0X0X0X0X0X0X0X0X0X0X0X0X0X0X0X0X0X0X0X0X0X0X0X0X0X0X0X0X0X0X0X0X0X",
"0X0X0X0X0X0X0X0X0X0X0X0X0X0X0X0X0X0X0X0X0X0X0X0X0X0X0X0X0X0X0X0X0X0X0X0X0X0X0X0X0X0X0X0X0X0X0X0X0X0X0X0X0X0X0X0X0X0X0X0X0X0X0X0X",
"0X0X0X0X0X0X0X0X0X0X0X0X0X0X0X0X0X0X0X0X0X0X0X0X0X0X0X0X0X0X0X0X0X0X0X0X0X0X0X0X0X0X0X0X0X0X0X0X0X0X0X0X0X0X0X0X0X0X0X0X0X0X0X0X",
"0X0X0X0X0X0X0X0X0X0X0X0X0X0X0X0X0X0X0X0X0X0X0X0X0X0X0X0X0X0X0X0X0X0X0X0X0X0X0X0X0X0X0X0X0X0X0X0X0X0X0X0X0X0X0X0X0X0X0X0X0X0X0X0X",
"0X0X0X0X0X0X0X0X0X0X0X0X0X0X0X0X0X0X0X0X0X0X0X0X0X0X0X0X0X0X0X0X0X0X0X0X0X0X0X0X0X0X0X0X0X0X0X0X0X0X0X0X0X0X0X0X0X0X0X0X0X0X0X0X",
"0X0X0X0X0X0X0X0X0X0X0X0X0X0X0X0X0X0X0X0X0X0X0X0X0X0X0X0X0X0X0X0X0X0X0X0X0X0X0X0X0X0X0X0X0X0X0X0X0X0X0X0X0X0X0X0X0X0X0X0X0X0X0X0X",
"0X0X0X0X0X0X0X0X0X0X0X0X0X0X0X0X0X0X0X0X0X0X0X0X0X0X0X0X0X0X0X0X0X0X0X0X0X0X0X0X0X0X0X0X0X0X0X0X0X0X0X0X0X0X0X0X0X0X0X0X0X0X0X0X",
"0X0X0X0X0X0X0X0X0X0X0X0X0X0X0X0X0X0X0X0X0X0X0X0X0X0X0X0X0X0X0X0X0X0X0X0X0X0X0X0X0X0X0X0X0X0X0X0X0X0X0X0X0X0X0X0X0X0X0X0X0X0X0X0X",
"0X0X0X0X0X0X0X0X0X0X0X0X0X0X0X0X0X0X0X0X0X0X0X0X0X0X0X0X0X0X0X0X0X0X0X0X0X0X0X0X0X0X0X0X0X0X0X0X0X0X0X0X0X0X0X0X0X0X0X0X0X0X0X0X"
};
