/* XPM */
static char *result[] = {
/* columns rows colors chars-per-pixel */
"64 64 227 2 ",
"   c #010401",
".  c #020B02",
"X  c #080C06",
"o  c #160F03",
"O  c #031303",
"+  c #041B04",
"@  c #0D140C",
"#  c #071C09",
"$  c #0B1C0B",
"%  c #061906",
"&  c #151507",
"*  c #121B14",
"=  c #2C1A05",
"-  c #391E06",
";  c #052206",
":  c #0B230C",
">  c #0C2B0C",
",  c #082208",
"<  c #1B280F",
"1  c #18330D",
"2  c #0E2B11",
"3  c #0D2710",
"4  c #112412",
"5  c #132C13",
"6  c #1B281A",
"7  c #133214",
"8  c #163319",
"9  c #19341A",
"0  c #1A3C1C",
"q  c #163D18",
"w  c #0F3010",
"e  c #392C0C",
"r  c #31290D",
"t  c #28340B",
"y  c #252417",
"u  c #21351D",
"i  c #383617",
"p  c #222203",
"a  c #1D2323",
"s  c #1F3A21",
"d  c #242B2B",
"f  c #242C27",
"g  c #233324",
"h  c #253329",
"j  c #28332D",
"k  c #2B3C2E",
"l  c #273C26",
"z  c #2B3332",
"x  c #2C3B35",
"c  c #2C3138",
"v  c #363D39",
"b  c #2F3031",
"n  c #45350D",
"m  c #563C0E",
"M  c #44391A",
"N  c #6A3E0E",
"B  c #513823",
"V  c #1B4815",
"C  c #214323",
"Z  c #294829",
"A  c #32452E",
"S  c #3A452F",
"D  c #2D4333",
"F  c #2F4933",
"G  c #334B32",
"H  c #3C4B35",
"J  c #374938",
"K  c #39513C",
"L  c #3E5B3C",
"P  c #355535",
"I  c #345130",
"U  c #574618",
"Y  c #464C19",
"T  c #624A14",
"R  c #734C16",
"E  c #695815",
"W  c #735815",
"Q  c #736719",
"!  c #464626",
"~  c #544E24",
"^  c #554A26",
"/  c #445B3E",
"(  c #455339",
")  c #5B5625",
"_  c #66582B",
"`  c #624D34",
"'  c #4B673A",
"]  c #7A6828",
"[  c #776936",
"{  c #6E753B",
"}  c #353943",
"|  c #3B4445",
" . c #3B4D44",
".. c #3D414E",
"X. c #3B5342",
"o. c #3E5546",
"O. c #3E4450",
"+. c #3F6043",
"@. c #464747",
"#. c #44544B",
"$. c #455B47",
"%. c #454A57",
"&. c #4B5355",
"*. c #465C52",
"=. c #49525C",
"-. c #485756",
";. c #545858",
":. c #504F54",
">. c #685A47",
",. c #446343",
"<. c #45614B",
"1. c #4B6A4B",
"2. c #496647",
"3. c #526C4B",
"4. c #5B6E4D",
"5. c #566546",
"6. c #4B714C",
"7. c #4A6353",
"8. c #4D635A",
"9. c #4C6D51",
"0. c #536959",
"q. c #5A7553",
"w. c #557C56",
"e. c #587757",
"r. c #4D7050",
"t. c #796848",
"y. c #61724F",
"u. c #646F5D",
"i. c #677951",
"p. c #545463",
"a. c #5B5D6A",
"s. c #4F5960",
"d. c #5A686C",
"f. c #5A7565",
"g. c #656369",
"h. c #67796B",
"j. c #636674",
"k. c #636A75",
"l. c #6A6B7A",
"z. c #6C7C7E",
"x. c #667576",
"c. c #7B7B7B",
"v. c #74737C",
"b. c #8B5716",
"n. c #85741C",
"m. c #85692C",
"M. c #977A2D",
"N. c #846E33",
"B. c #967C3B",
"V. c #8D7C37",
"C. c #A4792C",
"Z. c #857751",
"A. c #259614",
"S. c #31892E",
"D. c #69C135",
"F. c #5E885F",
"G. c #61825C",
"H. c #6B8B47",
"J. c #52A44B",
"K. c #5E8465",
"L. c #648668",
"P. c #778D62",
"I. c #689367",
"U. c #759C67",
"Y. c #6A8776",
"T. c #6E9278",
"R. c #769871",
"E. c #73867F",
"W. c #7CA97B",
"Q. c #79A779",
"!. c #73A26D",
"~. c #AB801C",
"^. c #97843E",
"/. c #B69635",
"(. c #AFAC2A",
"). c #C0963B",
"_. c #C5BF32",
"`. c #978451",
"'. c #B59A46",
"]. c #A49657",
"[. c #B59C56",
"{. c #A99148",
"}. c #8FA95F",
"|. c #B9A853",
" X c #BCA14E",
".X c #89986A",
"XX c #8FAD71",
"oX c #B2B373",
"OX c #C09D4E",
"+X c #C8B55B",
"@X c #D8BC57",
"#X c #D2AF52",
"$X c #CDB963",
"%X c #85CF52",
"&X c #86C96C",
"*X c #DED653",
"=X c #D6C468",
"-X c #D7CB77",
";X c #CAC266",
":X c #E4D16C",
">X c #6C6D83",
",X c #6E7283",
"<X c #727D84",
"1X c #797889",
"2X c #7E7E90",
"3X c #778D86",
"4X c #759481",
"5X c #7B9B87",
"6X c #7DA482",
"7X c #878789",
"8X c #8A8792",
"9X c #8D9692",
"0X c #A19899",
"qX c #82AB83",
"wX c #84AB89",
"eX c #9CBF96",
"rX c #92B489",
"tX c #A7A8A5",
"yX c #AFB0AD",
"uX c #98C484",
"iX c #BBD193",
"pX c #BFC3AB",
"aX c #CBE59D",
"sX c #C1D3A6",
"dX c #D3E9AD",
"fX c #C5C6C0",
"gX c None",
/* pixels */
"gXgXgXgXgXgXgXgXgXgXgXgXgXgXgXgXgXgXgXgXgXgXgXgXgXgXgXgXgXgXgXgXgXgXgXgXgXgXgXgXgXgXgXgXgXgXgXgXgXgXgXgXgXgXgXgXgXgXgXgXgXgXgXgX",
"gXgXgXgXgXgXgXgXgXgXgXgXgXgXgXgXgXgXgXgXgXgXgXgXgXgXgXgXgXgXgXgXgXgXgXgXgXgXgXgXgXgXgXgXgXgXgXgXgXgXgXgXgXgXgXgXgXgXgXgXgXgXgXgX",
"gXgXgXgXgXgXgXgXgXgXgXgXgXgXgXgXgXgXgXgXgXgXgXgXgXgXgXgXgXgXgXgXgXgXgXgXgXgXgXgXgXgXgXgXgXgXgXgXgXgXgXgXgXgXgXgXgXgXgXgXgXgXgXgX",
"gXgXgXgXgXgXgXgXgXgXgXgXgXgXgXgXgXgXgXgXgXgXgXgXgXgXgXgXgXgXgXgXgXgXgXgXgXgXgXgXgXgXgXgXgXgXgXgXgXgXgXgXgXgXgXgXgXgXgXgXgXgXgXgX",
"gXgXgXgXgXgXgXgXgXgXgXgXgXgXgXgXgXgXgXgXgXgXgXgXgXgXgXgXgXgXgXgXgXgXgXgXgXgXgXgXgXgXgXgXgXgXgXgXgXgXgXgXgXgXgXgXgXgXgXgXgXgXgXgX",
"gXgXgXgXgXgXgXgXgXgXgXgXgXgXgXgXgXgXgXgXgXgXgXgXgXgXgXgXgXgXgXgXgXgXgXgXgXgXgXgXgXgXgXgXgXgXgXgXgXgXgXgXgXgXgXgXgXgXgXgXgXgXgXgX",
"gXgXgXgXgXgXgXgXgXgXgXgXgXgXgXgXgXgXgXgXgXgXgXgXgXgXgXgXgXgXgXgXgXgXgXgXgXgXgXgXgXgXgXgXgXgXgXgXgXgXgXgXgXgXgXgXgXgXgXgXgXgXgXgX",
"gXgXgXgXgXgXgXgXgXgXgXgXgXgXgXgXgXgXgXgXgXgXgXgXgXgXgXgXgXgXgXgXgXgXgXgXgXgXgXgXgXgXgXgXgXgXgXgXgXgXgXgXgXgXgXgXgXgXgXgXgXgXgXgX",
"gXgXgXgXgXgXgXgXgXgXgXgXgXgXgXgXgXgXgXgXgXgXgXgXgXgXgXgXgXgXgXgXgXgXgXgXgXgXgXgXgXgXgXgXgXgXgXgXgXgXgXgXgXgXgXgXgXgXgXgXgXgXgXgX",
"gXgXgXgXgXgXgXgXgXgXgXgXgXgXgXgXgXgXgXgXgXgXgXgXgXgXgXgXgXgXgXgXgXgXgXgXgXgXgXgXgXgXgXgXgXgXgXgXgXgXgXgXgXgXgXgXgXgXgXgXgXgXgXgX",
"gXgXgXgXgXgXgXgXgXgXgXgXgXgXgXgXgXgXgXgXgXgXgXgXgXgXgXgXgXgXgXgXgXgXgXgXgXgXgXgXgXgXgXgXgXgXgXgXgXgXgXgXgXgXgXgXgXgXgXgXgXgXgXgX",
"gXgXgXgXgXgXgXgXgXgXgXgXgXgXgXgXgXgXgXgXgXgXgXgXgXgXgXgXgXgXgXgXgXgXgXgXgXgXgXgXgXgXgXgXgXgXgXgXgXgXgXgXgXgXgXgXgXgXgXgXgXgXgXgX",
"gXgXgXgXgXgXgXgXgXgXgXgXgXgXgXgXgXgXgXgXgXgXgXgXgXgXgXgXgXgXgXgXgXgXgXgXgXgXgXgXgXgXgXgXgXgXgXgXgXgXgXgXgXgXgXgXgXgXgXgXgXgXgXgX",
"gXgXgXgXgXgXgXgXgXgXgXgXgXgXgXgXgXgXgXgXgXgXgXgXgXgXgXgXgXgXgXgXgXgXgXgXgXgXgXgXgXgXgXgXgXgXgXgXgXgXgXgXgXgXgXgXgXgXgXgXgXgXgXgX",
"gXgXgXgXgXgXgXgXgXgXgXgXgXgXgXgXgXgXgXgXgXgXgXgXgXgXgXgXS.gXgXgXgXgXgXgXgXgXgXgXgXgXgXgXgXgXgXgXgXgXgXgXgXgXgXgXgXgXgXgXgXgXgXgX",
"gXgXgXgXgXgXgXgXgXgXgXgXgXgXgXgXgXgXgXgXgXgXgXgXJ.&X&XD.gXgXgXgXgXgXgXgXgXgXgXgXgXgXgXgXgXgXgXgXgXgXgXgXgXgXgXgXgXgXgXgXgXgXgXgX",
"gXgXgXgXgXgXgXgXgXgXgXgXgXgXgXgXgXgXgXgXgXgXgXgXA.J.%XaX%XU.gXgXgXgXgXgXgXgXgXgXgXgXgXgXgXgXgXgXgXgXgXgXgXgXgXgXgXgXgXgXgXgXgXgX",
"gXgXgXgXgXgXgXgXgXgXgXgXgXgXgXgXgXgXgXgXgXgXgXgXgXV }.sXdX7XyXgXgXgXgXgXgXgXgXgXgXgXgXgXgXgXgXgXgXgXgXgXgXgXgXgXgXgXgXgXgXgXgXgX",
"gXgXgXgXgXgXgXgXgXgXgXgXgXgXgXgXgXgXgXgXgXgXgXgXgXY { XXpX0X7X] gXgXgXgXgXgXgXgXgXgXgXgXgXgXgXgXgXgXgXgXgXgXgXgXgXgXgXgXgXgXgXgX",
"gXgXgXgXgXgXgXgXgXgXgXgXgXgXgXgXgXgXgXgXgXgXgXgXgXgXu.H.U.B ` R Q gXgXgXgXgXgXgXgXgXgXgXgXgXgXgXgXgXgXgXgXgXgXgXgXgXgXgXgXgXgXgX",
"gXgXgXgXgXgXgXgXgXgXgXgXgXgXgXgX  X * $ @ X   gXgXgX< Y ' U ] gXgXgXgXgXgXgXgXgXgXgXgXgXgXgXgXgXgXgXgXgXgXgXgXgXgXgXgXgXgXgXgXgX",
"gXgXgXgXgXgXgXgX. . X X * a d j j D K K L P A *   & < [ t U ;X'.gXgXgXgXgXgXgXgXgXgXgXgXgXgXgXgXgXgXgXgXgXgXgXgXgXgXgXgXgXgXgXgX",
"gXgXgXgXgXgX# ; > > w > 5 j d j k J 2.$.F A u @     & ].e e M.*XgXgXgXgXgXgXgXgXgXgXgXgXgXgXgXgXgXgXgXgXgXgXgXgXgXgXgXgXgXgXgXgX",
"gX; ; 4 6 6 9 l G G / ( S 5 7 q C F g u A / $.S f @ . [ >.M r OX:XgXgXgXgXgXgXgXgXgXgXgXgXgXgXgXgXgXgXgXgXgXgXgXgXgXgXgXgXgXgXgX",
"6 a h h X.K +.o.6.6.3.3.u > > w q q l k / ' 4.i.5.$ O gXZ.j.X ) @X).gXgXgXgXgXgXgXgXgXgXgXgXgXgXgXgXgXgXgXgXgXgXgXgXgXgXgXgXgXgX",
"c z c  .<.o.<.9.+.C 9 I J L $.5./ S 6 J 3.w.P.P.P.9 $ gX9XgX  6 Z.{.gXgXgXgXgXgXgXgXgXgXgXgXgXgXgXgXgXgXgXgXgXgXgXgXgXgXgXgXgXgX",
"....| *.o.8.o.D 9 F ,.w.,.q.4.y.i.5.5 A 3.G.XXrXoX: gXgXgXgX  , n.-XgXgXgXgXgXgXgXgXgXgXgXgXgXgXgXgXgXgXgXgXgXgXgXgXgXgXgXgXgXgX",
"gX%.| -.o.o.h C <.1.w.,.6.G.w.4.y.5.u 0 6.!.uXaXiX# gXgXgXgX  + l +XgXgXgXgXgXgXgXv.7X7XgXgXgXgXgXgXgXgXgXgXgXgXgXgXgXgXgXgXgXgX",
"gX%.} =.v g D 7.0.<.9.K $.<.1.q.5.4.H 6 Z !.uXiXU.O gXgXgXgX= O w V.#XgXgXgXgXgXgXz , ;.gXgXgXgXgXgXgXgXgXgXgXgXgXgXgXgXgXgXgXgX",
"gXgX..c d D *.8.o.0.*. .7.Y.f.w.L.q.( ! 7 Z w..Xl + gXgXgXb.R O 7 m.;XgXgXgXgXgXgX+ % gXgXgXgXgXgXgXgXgXgXgXgXgXgXgXgXgXgXgXgXgX",
"gXgXgXz x -.=.| =.8.o. .*.*.Y.f.I.I.3./ ( l w > $ + O gX_.~.E O > S '.gXgXgXgXgXX , gXgXgXgXgXgXgXgXgXgXgXgXgXgXgXgXgXgXgXgXgXgX",
"gXgX@.x O.=.O.=.O.=.| | f.f.8.h.wXQ.w.1.1.u ( 6 > 7 , t gXb.o 4 9 7 i # ; gXgX+ : 9 gXgXgXgXgXgXgXgXgXgXgXgXgXgXgXgXgXgXgXgXgXgX",
"gX@.a %.a.g.:.p.p.p.c %.;.x.z.Y.wX6XK.r.P G.G.2.A $ > 7 1 t O ; w 7 q 7 C 9 + 0 C + gXgXgXgXgXgXgXgXgXgXgXgXgXgXgXgXgXgXgXgXgXgX",
"gX* gXgXgXgXgXgXgXgX:.=.O.k.j.3X4X5XL.1.6.W.Q.qXrXR.A > 0 q O + + + > < 0 0 4 8 + . gXgXgXgXgXgXgXgXgXgXgXgXgXgXgXgXgXgXgXgXgXgX",
"@ gXgXgXgXgXgXgXgXgXgXgX;.k.l.<X5X4Xf.X.T.Q.T.6XeXeXW.1.l : : 2 5 n i O V Z # O $ $ :.h.0XgXgXgXgXgXgXgXgXgXgXgXgXgXgXgXgXgXgXgX",
"gXgXgXgXgXgXgXgXgXgXgXgXgXv.>X<X<X3X0.F T.Y.Y.T.rX6X6XF.4 + w s H /.=Xv # 0 s , : 6 4 1XtXgXgXgXgXgXgXgXgXgXgXgXgXgXgXgXgXgXgXgX",
"gXgXgXgXgXgXgXgXgXgXgXgXgXgX2X>X>X<Xo.7.3Xk.d.x.3X4XL.D + > 7 L M.=X@X! . . . O gXgXgXgXgXgXgXgXgXgXgXgXgXgXgXgXgXgXgXgXgXgXgXgX",
"gXgXgXgXgXgXgXgXgXgXgXgXgXgX  v.,X<Xv k.2Xl.j.l.3X<X7.# : 7 I ]  X:X`.gXgXgXgXgXgXgXgXgXgXgXgXgXgXgXgXgXgXgXgXgXgXgXgXgXgXgXgXgX",
"gXgXgXgXgXgXgXgXgXgXgXgXgXgXgXgX8Xl.x 3X8XgXv.l.>Xa.6 : 7 F _ |.:X[.gXgXgXgXgXgXgXgXgXgXgXgXgXgXgXgXgXgXgXgXgXgXgXgXgXgXgXgXgXgX",
"gXgXgXgXgXgXgXgXgXgXgXgXgXgXgXgXgX,X=.gXgXgXd z O.d # 8 9 ~ '.=X[.t.gXgXgXgXgXgXgXgXgXgXgXgXgXgXgXgXgXgXgXgXgXgXgXgXgXgXgXgXgXgX",
"gXgXgXgXgXgXgXgXgXgXgXgXgXgXgXgXgX@.b gXgXgXgXE @ O * 8 8 Z |.oXt.gXgXgXgXgXgXgXgXgXgXgXgXgXgXgXgXgXgXgXgXgXgXgXgXgXgXgXgXgXgXgX",
"gXgXgXgXgXgXgXgXgXgXgXgX(.gXgXgXgXX gXgXgXgXgX&   O O : : 4 P ~ # $ gXgXgXgXgXgXgXgXgXgXgXgXgXgXgXgXgXgXgXgXgXgXgXgXgXgXgXgXgXgX",
"gXgXgXgXgXgXgXgXgXgXgXgXn.gXgXgXgXX gXgXgXgXN o . . . O + , C > $ 4 gXgXgXgXgXgXgXgXgXgXgXgXgXgXgXgXgXgXgXgXgXgXgXgXgXgXgXgXgXgX",
"gXgXgXgXgXgXgXgXgXgXgXQ Q gXgXgXgXgXgXgXgX(.- X : $   . . : C q # 5 gXgXgXgXgXgXgXgXgXgXgXgXgXgXgXgXgXgXgXgXgXgXgXgXgXgXgXgXgXgX",
"gXgXgXgXgXgXgXgXgXgXgXT T gXgXgXgXgXgXgXgXW   : i B m.C.B 5 Z q 4 : gX. J h.gXgXgXgXgXgXgXgXgXgXgXgXgXgXgXgXgXgXgXgXgXgXgXgXgXgX",
"gXgXgXgXgXgXgXgXgXgXm T E gXgXgXgXgXgXgXW p $ ! '.N.[ m.^ . q 8 > > : O $ ;.yXgXgXgXgXgXgXgXgXgXgXgXgXgXgXgXgXgXgXgXgXgXgXgXgXgX",
"gXgXgXgXgXgXgXgXgXgXU U E gXgXgXgXgXgXgXe 4 ~ +X=X[ y y X   # 0 2 8 4 : , tXgXgXgXgXgXgXgXgXgXgXgXgXgXgXgXgXgXgXgXgXgXgXgXgXgXgX",
"gXgXgXgXgXgXgXgXgXgXm n ) gXgXgXgXgXgX. i ^.$X$XZ.gXgXgXgX    @ O s &.7XsXgXgXgXgXgXgXgXgXgXgXgXgXgXgXgXgXgXgXgXgXgXgXgXgXgXgXgX",
"gXgXgXgXgXgXgXgXgXgXgXgXm [ {.gXgXX Y ^.$X-X]._ gXgXgXgXgXgXgXgXgXgXgXgXgXgXgXgXgXgXgXgXgXgXgXgXgXgXgXgXgXgXgXgXgXgXgXgXgXgXgXgX",
"gXgXgXgXgXgXgXgXgXgXgXgXn.n n B.N.{.=XoX].t.gXgXgXgXgXgXgXgXgXgXgXgXgXgXgXgXgXgXgXgXgXgXgXgXgXgXgXgXgXgXgXgXgXgXgXgXgXgXgXgXgXgX",
"gXgXgXgXgXgXgXgXgXgXgXgXgXgX= & ~ N.gXgXgXgXgXgXgXgXgXgXgXgXgXgXgXgXgXgXgXgXgXgXgXgXgXgXgXgXgXgXgXgXgXgXgXgXgXgXgXgXgXgXgXgXgXgX",
"gXgXgXgXgXgXgXgXgXgXgXgXgXgXgXgXgXgXgXgXgXgXgXgXgXgXgXgXgXgXgXgXgXgXgXgXgXgXgXgXgXgXgXgXgXgXgXgXgXgXgXgXgXgXgXgXgXgXgXgXgXgXgXgX",
"gXgXgXgXgXgXgXgXgXgXgXgXgXgXgXgXgXgXgXgXgXgXgXgXgXgXgXgXgXgXgXgXgXgXgXgXgXgXgXgXgXgXgXgXgXgXgXgXgXgXgXgXgXgXgXgXgXgXgXgXgXgXgXgX",
"gXgXgXgXgXgXgXgXgXgXgXgXgXgXgXgXgXgXgXgXgXgXgXgXgXgXgXgXgXgXgXgXgXgXgXgXgXgXgXgXgXgXgXgXgXgXgXgXgXgXgXgXgXgXgXgXgXgXgXgXgXgXgXgX",
"gXgXgXgXgXgXgXgXgXgXgXgXgXgXgXgXgXgXgXgXgXgXgXgXgXgXgXgXgXgXgXgXgXgXgXgXgXgXgXgXgXgXgXgXgXgXgXgXgXgXgXgXgXgXgXgXgXgXgXgXgXgXgXgX",
"gXgXgXgXgXgXgXgXgXgXgXgXgXgXgXgXgXgXgXgXgXgXgXgXgXgXgXgXgXgXgXgXgXgXgXgXgXgXgXgXgXgXgXgXgXgXgXgXgXgXgXgXgXgXgXgXgXgXgXgXgXgXgXgX",
"gXgXgXgXgXgXgXgXgXgXgXgXgXgXgXgXgXgXgXgXgXgXgXgXgXgXgXgXgXgXgXgXgXgXgXgXgXgXgXgXgXgXgXgXgXgXgXgXgXgXgXgXgXgXgXgXgXgXgXgXgXgXgXgX",
"gXgXgXgXgXgXgXgXgXgXgXgXgXgXgXgXgXgXgXgXgXgXgXgXgXgXgXgXgXgXgXgXgXgXgXgXgXgXgXgXgXgXgXgXgXgXgXgXgXgXgXgXgXgXgXgXgXgXgXgXgXgXgXgX",
"gXgXgXgXgXgXgXgXgXgXgXgXgXgXgXgXgXgXgXgXgXgXgXgXgXgXgXgXgXgXgXgXgXgXgXgXgXgXgXgXgXgXgXgXgXgXgXgXgXgXgXgXgXgXgXgXgXgXgXgXgXgXgXgX",
"gXgXgXgXgXgXgXgXgXgXgXgXgXgXgXgXgXgXgXgXgXgXgXgXgXgXgXgXgXgXgXgXgXgXgXgXgXgXgXgXgXgXgXgXgXgXgXgXgXgXgXgXgXgXgXgXgXgXgXgXgXgXgXgX",
"gXgXgXgXgXgXgXgXgXgXgXgXgXgXgXgXgXgXgXgXgXgXgXgXgXgXgXgXgXgXgXgXgXgXgXgXgXgXgXgXgXgXgXgXgXgXgXgXgXgXgXgXgXgXgXgXgXgXgXgXgXgXgXgX",
"gXgXgXgXgXgXgXgXgXgXgXgXgXgXgXgXgXgXgXgXgXgXgXgXgXgXgXgXgXgXgXgXgXgXgXgXgXgXgXgXgXgXgXgXgXgXgXgXgXgXgXgXgXgXgXgXgXgXgXgXgXgXgXgX",
"gXgXgXgXgXgXgXgXgXgXgXgXgXgXgXgXgXgXgXgXgXgXgXgXgXgXgXgXgXgXgXgXgXgXgXgXgXgXgXgXgXgXgXgXgXgXgXgXgXgXgXgXgXgXgXgXgXgXgXgXgXgXgXgX",
"gXgXgXgXgXgXgXgXgXgXgXgXgXgXgXgXgXgXgXgXgXgXgXgXgXgXgXgXgXgXgXgXgXgXgXgXgXgXgXgXgXgXgXgXgXgXgXgXgXgXgXgXgXgXgXgXgXgXgXgXgXgXgXgX"
};
