/* XPM */
static char *result[] = {
/* columns rows colors chars-per-pixel */
"64 64 220 2 ",
"   c #000300",
".  c #090701",
"X  c #010C01",
"o  c #0D0C03",
"O  c #080F09",
"+  c #031303",
"@  c #0B1304",
"#  c #041A04",
"$  c #061A09",
"%  c #0B1C0B",
"&  c #0B1509",
"*  c #1C1502",
"=  c #171908",
"-  c #141F14",
";  c #141619",
":  c #271F08",
">  c #231E10",
",  c #0B230C",
"<  c #0D2A0D",
"1  c #072507",
"2  c #17290C",
"3  c #0E2B11",
"4  c #0F2610",
"5  c #142413",
"6  c #132D14",
"7  c #1A2C15",
"8  c #1B2C1C",
"9  c #182B17",
"0  c #1A321A",
"q  c #1B3A1C",
"w  c #153515",
"e  c #0A340A",
"r  c #212207",
"t  c #352707",
"y  c #272E17",
"u  c #332912",
"i  c #25331E",
"p  c #24371B",
"a  c #363A1A",
"s  c #283609",
"d  c #1C3C20",
"f  c #212525",
"g  c #262D27",
"h  c #213A23",
"j  c #293B25",
"k  c #2B312C",
"l  c #293C2D",
"z  c #27392A",
"x  c #2E3839",
"c  c #343F3B",
"v  c #353B35",
"b  c #343F2A",
"n  c #493D16",
"m  c #46350E",
"M  c #413822",
"N  c #1A431D",
"B  c #304214",
"V  c #1E4520",
"C  c #2E482E",
"Z  c #274627",
"A  c #32422B",
"S  c #3A4928",
"D  c #2D4133",
"F  c #334D35",
"G  c #35433C",
"H  c #344935",
"J  c #39563A",
"K  c #3C5A3B",
"L  c #375535",
"P  c #55451C",
"I  c #5B5416",
"U  c #4B480F",
"Y  c #6B4915",
"T  c #685218",
"R  c #755A15",
"E  c #484926",
"W  c #47593A",
"Q  c #595336",
"!  c #414E34",
"~  c #765E29",
"^  c #7A622B",
"/  c #696438",
"(  c #76693A",
")  c #797323",
"_  c #373A41",
"`  c #3E434D",
"'  c #3A4545",
"]  c #3D5445",
"[  c #3E5B44",
"{  c #465D4D",
"}  c #465847",
"|  c #505F43",
" . c #434653",
".. c #444952",
"X. c #4B4C59",
"o. c #4C5552",
"O. c #495C55",
"+. c #4A535B",
"@. c #4E5A5D",
"#. c #4D534E",
"$. c #675F54",
"%. c #446543",
"&. c #4C6141",
"*. c #4A654E",
"=. c #4B6C4C",
"-. c #466A47",
";. c #516243",
":. c #526C4B",
">. c #5B6A48",
",. c #4C6556",
"<. c #52665D",
"1. c #537154",
"2. c #56735C",
"3. c #597A56",
"4. c #4F744D",
"5. c #62724D",
"6. c #7B7040",
"7. c #657952",
"8. c #545965",
"9. c #585A69",
"0. c #55586B",
"q. c #5A6B6C",
"w. c #586767",
"e. c #5A7465",
"r. c #5E7E68",
"t. c #5B6671",
"y. c #656B66",
"u. c #617A6F",
"i. c #676B78",
"p. c #647C73",
"a. c #6C7978",
"s. c #74737C",
"d. c #797B77",
"f. c #895A1A",
"g. c #956A1A",
"h. c #927834",
"j. c #8E7428",
"k. c #AB6321",
"l. c #86734B",
"z. c #39B61A",
"x. c #40CB26",
"c. c #5D855B",
"v. c #5E9658",
"b. c #6B825B",
"n. c #668559",
"m. c #5E8164",
"M. c #65856C",
"N. c #668C66",
"B. c #788B63",
"V. c #699668",
"C. c #739666",
"Z. c #6D8A7A",
"A. c #6B8C74",
"S. c #72927B",
"D. c #769C7B",
"F. c #74A86C",
"G. c #76A379",
"H. c #7CA876",
"J. c #83831D",
"K. c #958926",
"L. c #9A8136",
"P. c #A98737",
"I. c #BA9533",
"U. c #BBAB2E",
"Y. c #BBE038",
"T. c #CFCE39",
"R. c #928347",
"E. c #B59B4B",
"W. c #A99D5B",
"Q. c #A98E51",
"!. c #8DB74F",
"~. c #B3A553",
"^. c #948060",
"/. c #809260",
"(. c #A99B65",
"). c #88AC75",
"_. c #93A677",
"`. c #82B17C",
"'. c #90A969",
"]. c #BCAE63",
"[. c #C7AC52",
"{. c #D0AF53",
"}. c #C9AE53",
"|. c #CAB964",
" X c #D0BA69",
".X c #97D754",
"XX c #ABDA54",
"oX c #99D368",
"OX c #B5E266",
"+X c #D7C65A",
"@X c #D5C965",
"#X c #D5C971",
"$X c #DCD67A",
"%X c #E4D068",
"&X c #6B6F80",
"*X c #747682",
"=X c #797B88",
"-X c #6A7482",
";X c #7E848F",
":X c #748085",
">X c #779286",
",X c #7FA684",
"<X c #87898C",
"1X c #898A94",
"2X c #879793",
"3X c #978F8F",
"4X c #85A88C",
"5X c #8BB789",
"6X c #91BE8E",
"7X c #8CAC94",
"8X c #91A897",
"9X c #99BC96",
"0X c #B2B2B1",
"qX c #9BC584",
"wX c #AFCE89",
"eX c #DDD787",
"rX c #D5E392",
"tX c #D0D0CF",
"yX c #CCCBCB",
"uX c None",
/* pixels */
"uXuXuXuXuXuXuXuXuXuXuXuXuXuXuXuXuXuXuXuXuXuXuXuXuXuXuXuXuXuXuXuXuXuXuXuXuXuXuXuXuXuXuXuXuXuXuXuXuXuXuXuXuXuXuXuXuXuXuXuXuXuXuXuX",
"uXuXuXuXuXuXuXuXuXuXuXuXuXuXuXuXuXuXuXuXuXuXuXuXuXuXuXuXuXuXuXuXuXuXuXuXuXuXuXuXuXuXuXuXuXuXuXuXuXuXuXuXuXuXuXuXuXuXuXuXuXuXuXuX",
"uXuXuXuXuXuXuXuXuXuXuXuXuXuXuXuXuXuXuXuXuXuXuXuXuXuXuXuXuXuXuXuXuXuXuXuXuXuXuXuXuXuXuXuXuXuXuXuXuXuXuXuXuXuXuXuXuXuXuXuXuXuXuXuX",
"uXuXuXuXuXuXuXuXuXuXuXuXuXuXuXuXuXuXuXuXuXuXuXuXuXuXuXuXuXuXuXuXuXuXuXuXuXuXuXuXuXuXuXuXuXuXuXuXuXuXuXuXuXuXuXuXuXuXuXuXuXuXuXuX",
"uXuXuXuXuXuXuXuXuXuXuXuXuXuXuXuXuXuXuXuXuXuXuXuXuXuXuXuXuXuXuXuXuXuXuXuXuXuXuXuXuXuXuXuXuXuXuXuXuXuXuXuXuXuXuXuXuXuXuXuXuXuXuXuX",
"uXuXuXuXuXuXuXuXuXuXuXuXuXuXuXuXuXuXuXuXuXuXuXuXuXuXuXuXuXuXuXuXuXuXuXuXuXuXuXuXuXuXuXuXuXuXuXuXuXuXuXuXuXuXuXuXuXuXuXuXuXuXuXuX",
"uXuXuXuXuXuXuXuXuXuXuXuXuXuXuXuXuXuXuXuXuXuXuXuXuXuXuXuXuXuXuXuXuXuXuXuXuXuXuXuXuXuXuXuXuXuXuXuXuXuXuXuXuXuXuXuXuXuXuXuXuXuXuXuX",
"uXuXuXuXuXuXuXuXuXuXuXuXuXuXuXuXuXuXuXuXuXuXuXuXuXuXuXuXuXuXuXuXuXuXuXuXuXuXuXuXuXuXuXuXuXuXuXuXuXuXuXuXuXuXuXuXuXuXuXuXuXuXuXuX",
"uXuXuXuXuXuXuXuXuXuXuXuXuXuXuXuXuXuXuXuXuXuXuXuXuXuXuXuXuXuXuXuXuXuXuXuXuXuXuXuXuXuXuXuXuXuXuXuXuXuXuXuXuXuXuXuXuXuXuXuXuXuXuXuX",
"uXuXuXuXuXuXuXuXuXuXuXuXuXuXuXuXuXuXuXuXuXuXuXuXuXuXuXuXuXuXuXuXuXuXuXuXuXuXuXuXuXuXuXuXuXuXuXuXuXuXuXuXuXuXuXuXuXuXuXuXuXuXuXuX",
"uXuXuXuXuXuXuXuXuXuXuXuXuXuXuXuXuXuXuXuXuXuXuXuXuXuXuXuXuXuXuXuXuXuXuXuXuXuXuXuXuXuXuXuXuXuXuXuXuXuXuXuXuXuXuXuXuXuXuXuXuXuXuXuX",
"uXuXuXuXuXuXuXuXuXuXuXuXuXuXuXuXuXuXuXuXuXuXuXuXuXuXuXuXuXuXuXuXuXuXuXuXuXuXuXuXuXuXuXuXuXuXuXuXuXuXuXuXuXuXuXuXuXuXuXuXuXuXuXuX",
"uXuXuXuXuXuXuXuXuXuXuXuXuXuXuXuXuXuXuXuXuXuXuXuXuXuXuXuXuXuXuXuXuXuXuXuXuXuXuXuXuXuXuXuXuXuXuXuXuXuXuXuXuXuXuXuXuXuXuXuXuXuXuXuX",
"uXuXuXuXuXuXuXuXuXuXuXuXuXuXuXuXuXuXuXuXuXuXuXuXuXuXuXuXuXuXuXuXuXuXuXuXuXuXuXuXuXuXuXuXuXuXuXuXuXuXuXuXuXuXuXuXuXuXuXuXuXuXuXuX",
"uXuXuXuXuXuXuXuXuXuXuXuXuXuXuXuXuXuXuXuXuXuXuXuXuXuXuXuXuXuXuXuXuXuXuXuXuXuXuXuXuXuXuXuXuXuXuXuXuXuXuXuXuXuXuXuXuXuXuXuXuXuXuXuX",
"uXuXuXuXuXuXuXuXuXuXuXuXuXuXuXuXuXuXuXuXuXuXuXuXuXuXuXuXuXuXuXuXuXuXuXuXuXuXuXuXuXuXuXuXuXuXuXuXuXuXuXuXuXuXuXuXuXuXuXuXuXuXuXuX",
"uXuXuXuXuXuXuXuXuXuXuXuXuXuXuXuXuXuXuXuXuXuXuXuXuXuXuXuXuXuXuXuXuXuXuXuXuXuXuXuXuXuXuXuXuXuXuXuXuXuXuXuXuXuXuXuXuXuXuXuXuXuXuXuX",
"O % uXuXuXuXuXuXuXuXuXuXuXuXuXuXuXuXuXuXuXuXuXuXuXuXuXuXuXuXuXuXuXuXuXuXuXuXuXuXuXuXuXuXuXuXuXuXuXuXuXuXuXuXuXuXuXuXuXuXuXuXuXuX",
"_ x z 8 5 3 , uXuXuXuXuXuXuXuXuXuXuXuXuXuXuXuXuXuXuXuXuXuXuXuXuXuXuXuXuXuXuXuXuXuXuXuXuXuXuXuXuXuXuXuXuXuXuXuXuXuXuXuXuXuXuXuXuX",
"uX.._ ' ' G D l 0 , # uXuXuXuXuXuXuXuXuXuXuXuXuXuXuXuXuXuXuXuXuXuXuXuXuXuXuXuXuXuXuXuXuXuXuXuXuXuXuXuXuXuXuXuXuXuXuXuXuXuXuXuXuX",
"uXuX+.` O.] { ] %.F C q 1 uXuXuXuXuXuXuXuXuXuXuXuXuXuXuXXXz.x.uXuXuXuXuXuXuXuXuXuXuXuXuXuXuXuXuXuXuXuXuXuXuXuXuXuXuXuXuXuXuXuXuX",
"uXuXuXX.` ' { ] ,.%.L %.L j < # & O X uXuXuXuXuXuXuXuXF..X.XOXoXuXuXuXuXuXuXuXuXuXuXuXuXuXuXuXuXuXuXuXuXuXuXuXuXuXuXuXuXuXuXuXuX",
"uXuXuXX.@.,.w.M.3.V.N.V.n.n.5.p 0 z l z 8 % X uXuXuXuXuXv.OXY.@Xn.uXuXuXuXuXuXuXuXuXuXuXuXuXuXuXuXuXuXuXuXuXuXuXuXuXuXuXuXuXuXuX",
"uXuXuXuX` q.<.e.2.[ F L L K &.! 6 < l H [ %.J 9 # uXuXuXK '.OXeX~.uXuXuXuXuXuXuXuXuXuXuXuXuXuXuXuXuXuXuXuXuXuXuXuXuXuXuXuXuXuXuX",
"uXuXuXuX` +.' D d C J %.-.4.%.j , 1 e h F J %.:.j X uXuXS '.!.#Xk.yXuXuXuXuXuXuXuXuXuXuXuXuXuXuXuXuXuXuXuXuXuXuXuXuXuXuXuXuXuXuX",
"uXuXuX9._ l F [ ,.M.c.V.V.V.3.n.&.A q N 5 5 5 - y O X uXuX_.!.l.3X$.T I uXuXuXuXuXuXuXuXuXuXuXuXuXuXuXuXuXuXuXuXuXuXuXuXuXuXuXuX",
"uXuXv c } O.<.u.Z.Z.2.V.c.4.:.;.5.5.5.7 F -.-.1.A . X uXO U ! 2 / y.uXuXuXuXuXuXuXuXuXuXuXuXuXuXuXuXuXuXuXuXuXuXuXuXuXuXuXuXuXuX",
"k v  .8.0.i.:Xw.u.e.M.2.*.*.-.J W >.W 7 C W =.:.;.A X # uXn U m I.}.uXuXuXuXuXuXuXuXuXuXuXuXuXuXuXuXuXuXuXuXuXuXuXuXuXuXuXuXuXuX",
"uXuXuXuX1X1X9.&Xw.p.e.} { 2.*.1.>.7.S 9 H =.%.b.B.7.i - uXP ~ n h.+XuXuXuXuXuXuXuXuXuXuXuXuXuXuXuXuXuXuXuXuXuXuXuXuXuXuXuXuXuXuX",
"uXuXuXuXuXuXuX;X&X0.` O.e.O.e.c.7.b.! , ] J 4.B.B.>.$ $ uXuXP M U +XuXuXuXuXuXuXuXuXuXuXuXuXuXuXuXuXuXuXuXuXuXuXuXuXuXuXuXuXuXuX",
"uXuXuXuXuXuXuXuXuX.. .@.p.<.e.V.C.3.W < h J c.`.)./.5 uXuXuXg f a #XuXuXuXuXuXuXuXuXuXuXuXuXuXuXuXuXuXuXuXuXuXuXuXuXuXuXuXuXuXuX",
"uXuXuXuXuXuXuXuXuXuXX.+.t.q.M.G.5X3.;.y w %.F.qXwX_.2 uXuXuX; $ a [.uXuXuXuXuXuXuXuXuXuXuXuXuXuXuXuXuXuXuXuXuXuXuXuXuXuXuXuXuXuX",
"uXuXuXuXuXuXuXuXuXuXi.0.-Xe.4X5X`.4.:.b.6 Z C.wXrXB.# uXuXuX* 1 B #XuXuXuXuXuXuXuXuXuXuXuXuXuXuXuXuXuXuXuXuXuXuXuXuXuXuXuXuXuXuX",
"uXuXuXuXuXuXuXuXuXuXuX*Xi.2X7X9XG.c.n.L W p w 3._.j uXuXuXf.= 1 S }.uXuXuXuXuXuXuXuXuXuXuXuXuXuXuXuXuXuXuXuXuXuXuXuXuXuXuXuXuXuX",
"uXuXuXuXuXuXuXuXuXuXuXuX1X2X7X8Xc.c.%.N.B.&.h 3 w , = T.I.g.# 3 E P.uXuXuXuXuXuXuXuXuXuXuXuXuXuXuXuXuXuXuXuXuXuXuXuXuXuXuXuXuXuX",
"uXuXuXuXuXuXuXuXuXuXuXuX=X;X8XS.e.=.H.H.).H.n.C , 6 1 s B = 6 w 0 ^ uXuXuXuXuXuXuXuXuXuXuXuXuXuXuXuXuXuXuXuXuXuXuXuXuXuXuXuXuXuX",
"uXuXuXuXuXuXuXuXuXuXuXuX1X1X>Xw.] D.G.5XqX6X6X5X3.6 3 V 1 + # # 3 6 3 uXuXuXuXuXuXuXuXuXuXuXuXuXuXuXuXuXuXuXuXuXuXuXuXuXuXuXuXuX",
"uXuXuXuXuXuXuXuXuXuXuXuX3X1X-X] Z.>X>X4XS.,X>XG.V.%.C 6 , , 1 @ # # q Z uXuXuXuXuXuXuXuXuXuXuXuXuXuXuXuXuXuXuXuXuXuXuXuXuXuXuXuX",
"uXuXuXuXuXuXuXuXuXuXuXuX3X;X' i.=X-X:XB.u.Z.S.M.N.N.l + < q A g.E.u 3 Z d , 6 , v c y.uXuXuXuXuXuXuXuXuXuXuXuXuXuXuXuXuXuXuXuXuX",
"uXuXuXuXuXuXuXuXuXuXuXuX*X` +.9.=X*X*Xl.t.q.M.r.e.C # < q C j.[.%XQ $ 0 Z 6 6 4 - a.uXuXuXuXuXuXuXuXuXuXuXuXuXuXuXuXuXuXuXuXuXuX",
"uXuXuXuXuXuXuXuXuXuXuXuXk - & uXuXuXR.Q.0.0.i.w.D % 6 w E L.{.$X@XQ X X + $ & % G s.tXuXuXuXuXuXuXuXuXuXuXuXuXuXuXuXuXuXuXuXuXuX",
"uXuXuXuXuXuXuXuXuXuXuXuX5 uXuXuXuXR g.K.f _  .f % 6 6 Z P.+X$X#Xl.uXuX  + .   X uXuXuXuXuXuXuXuXuXuXuXuXuXuXuXuXuXuXuXuXuXuXuXuX",
"uXuXuXuXuXuXuXuXuXuXuXuXuXuXuXuXuXT j.uXg ; X O # , < q / $X|.6.uXuXuXuXuXuXuXuXuXuXuXuXuXuXuXuXuXuXuXuXuXuXuXuXuXuXuXuXuXuXuXuX",
"uXuXuXuXuXuXuXuXuXuXuXuXuXuXuXuXY T f.uXj.o X X + + $ q q Q.Q uXuXuXuXuXuXuXuXuXuXuXuXuXuXuXuXuXuXuXuXuXuXuXuXuXuXuXuXuXuXuXuXuX",
"uXuXuXuXuXuXuXuXuXuXuXuXuXuXuXuXR I uXuXX + $ X X o 3 N q E uXuXuXuXuXuXuXuXuXuXuXuXuXuXuXuXuXuXuXuXuXuXuXuXuXuXuXuXuXuXuXuXuXuX",
"uXuXuXuXuXuXuXuXuXuXuXuXuXuXuXuX: U U.I @ 7 a ~ T ~ 7 q 3 + + uXuXuXuXuXuXuXuXuXuXuXuXuXuXuXuXuXuXuXuXuXuXuXuXuXuXuXuXuXuXuXuXuX",
"uXuXuXuXuXuXuXuXuXuXuXuXuXuXuXuX: ) K.2 7 h.~.[.E.~ , q , $ # uX8 #.uXuXuXuXuXuXuXuXuXuXuXuXuXuXuXuXuXuXuXuXuXuXuXuXuXuXuXuXuXuX",
"uXuXuXuXuXuXuXuXuXuXuXuXuXuXuXuX: y @ y h.+X X( Q > X @ % + ..y.@.k <XuXuXuXuXuXuXuXuXuXuXuXuXuXuXuXuXuXuXuXuXuXuXuXuXuXuXuXuXuX",
"uXuXuXuXuXuXuXuXuXuXuXuXuXuXuXm r - a E.%XeX(.M > . .     + % c y.g d.uXuXuXuXuXuXuXuXuXuXuXuXuXuXuXuXuXuXuXuXuXuXuXuXuXuXuXuXuX",
"uXuXuXuXuXuXuXuXuXuXuXuXuXuXt t u R.#XeXW.( uXuXuXuX          X 8 o.0XuXuXuXuXuXuXuXuXuXuXuXuXuXuXuXuXuXuXuXuXuXuXuXuXuXuXuXuXuX",
"uXuXuXuXuXuXuXuXuXuXuXuXuX. : * P ].W.6.uXuXuXuXuXuXuXuXuXuXuXuXuXuXuXuXuXuXuXuXuXuXuXuXuXuXuXuXuXuXuXuXuXuXuXuXuXuXuXuXuXuXuXuX",
"uXuXuXuXuXuXuXuXuXuXuXuXuXuX* . o uXuXuXuXuXuXuXuXuXuXuXuXuXuXuXuXuXuXuXuXuXuXuXuXuXuXuXuXuXuXuXuXuXuXuXuXuXuXuXuXuXuXuXuXuXuXuX",
"uXuXuXuXuXuXuXuXuXuXuXuXuXuXuXuXuXuXuXuXuXuXuXuXuXuXuXuXuXuXuXuXuXuXuXuXuXuXuXuXuXuXuXuXuXuXuXuXuXuXuXuXuXuXuXuXuXuXuXuXuXuXuXuX",
"uXuXuXuXuXuXuXuXuXuXuXuXuXuXuXuXuXuXuXuXuXuXuXuXuXuXuXuXuXuXuXuXuXuXuXuXuXuXuXuXuXuXuXuXuXuXuXuXuXuXuXuXuXuXuXuXuXuXuXuXuXuXuXuX",
"uXuXuXuXuXuXuXuXuXuXuXuXuXuXuXuXuXuXuXuXuXuXuXuXuXuXuXuXuXuXuXuXuXuXuXuXuXuXuXuXuXuXuXuXuXuXuXuXuXuXuXuXuXuXuXuXuXuXuXuXuXuXuXuX",
"uXuXuXuXuXuXuXuXuXuXuXuXuXuXuXuXuXuXuXuXuXuXuXuXuXuXuXuXuXuXuXuXuXuXuXuXuXuXuXuXuXuXuXuXuXuXuXuXuXuXuXuXuXuXuXuXuXuXuXuXuXuXuXuX",
"uXuXuXuXuXuXuXuXuXuXuXuXuXuXuXuXuXuXuXuXuXuXuXuXuXuXuXuXuXuXuXuXuXuXuXuXuXuXuXuXuXuXuXuXuXuXuXuXuXuXuXuXuXuXuXuXuXuXuXuXuXuXuXuX",
"uXuXuXuXuXuXuXuXuXuXuXuXuXuXuXuXuXuXuXuXuXuXuXuXuXuXuXuXuXuXuXuXuXuXuXuXuXuXuXuXuXuXuXuXuXuXuXuXuXuXuXuXuXuXuXuXuXuXuXuXuXuXuXuX",
"uXuXuXuXuXuXuXuXuXuXuXuXuXuXuXuXuXuXuXuXuXuXuXuXuXuXuXuXuXuXuXuXuXuXuXuXuXuXuXuXuXuXuXuXuXuXuXuXuXuXuXuXuXuXuXuXuXuXuXuXuXuXuXuX",
"uXuXuXuXuXuXuXuXuXuXuXuXuXuXuXuXuXuXuXuXuXuXuXuXuXuXuXuXuXuXuXuXuXuXuXuXuXuXuXuXuXuXuXuXuXuXuXuXuXuXuXuXuXuXuXuXuXuXuXuXuXuXuXuX",
"uXuXuXuXuXuXuXuXuXuXuXuXuXuXuXuXuXuXuXuXuXuXuXuXuXuXuXuXuXuXuXuXuXuXuXuXuXuXuXuXuXuXuXuXuXuXuXuXuXuXuXuXuXuXuXuXuXuXuXuXuXuXuXuX",
"uXuXuXuXuXuXuXuXuXuXuXuXuXuXuXuXuXuXuXuXuXuXuXuXuXuXuXuXuXuXuXuXuXuXuXuXuXuXuXuXuXuXuXuXuXuXuXuXuXuXuXuXuXuXuXuXuXuXuXuXuXuXuXuX",
"uXuXuXuXuXuXuXuXuXuXuXuXuXuXuXuXuXuXuXuXuXuXuXuXuXuXuXuXuXuXuXuXuXuXuXuXuXuXuXuXuXuXuXuXuXuXuXuXuXuXuXuXuXuXuXuXuXuXuXuXuXuXuXuX",
"uXuXuXuXuXuXuXuXuXuXuXuXuXuXuXuXuXuXuXuXuXuXuXuXuXuXuXuXuXuXuXuXuXuXuXuXuXuXuXuXuXuXuXuXuXuXuXuXuXuXuXuXuXuXuXuXuXuXuXuXuXuXuXuX"
};
