/* XPM */
static char *result[] = {
/* columns rows colors chars-per-pixel */
"64 64 220 2 ",
"   c #000300",
".  c #090701",
"X  c #010C01",
"o  c #0D0C03",
"O  c #080F09",
"+  c #031303",
"@  c #0B1304",
"#  c #041A04",
"$  c #061A09",
"%  c #0B1C0B",
"&  c #0B1509",
"*  c #1C1502",
"=  c #171908",
"-  c #141F14",
";  c #141619",
":  c #271F08",
">  c #231E10",
",  c #0B230C",
"<  c #0D2A0D",
"1  c #072507",
"2  c #17290C",
"3  c #0E2B11",
"4  c #0F2610",
"5  c #142413",
"6  c #132D14",
"7  c #1A2C15",
"8  c #1B2C1C",
"9  c #182B17",
"0  c #1A321A",
"q  c #1B3A1C",
"w  c #153515",
"e  c #0A340A",
"r  c #212207",
"t  c #352707",
"y  c #272E17",
"u  c #332912",
"i  c #25331E",
"p  c #24371B",
"a  c #363A1A",
"s  c #283609",
"d  c #1C3C20",
"f  c #212525",
"g  c #262D27",
"h  c #213A23",
"j  c #293B25",
"k  c #2B312C",
"l  c #293C2D",
"z  c #27392A",
"x  c #2E3839",
"c  c #343F3B",
"v  c #353B35",
"b  c #343F2A",
"n  c #493D16",
"m  c #46350E",
"M  c #413822",
"N  c #1A431D",
"B  c #304214",
"V  c #1E4520",
"C  c #2E482E",
"Z  c #274627",
"A  c #32422B",
"S  c #3A4928",
"D  c #2D4133",
"F  c #334D35",
"G  c #35433C",
"H  c #344935",
"J  c #39563A",
"K  c #3C5A3B",
"L  c #375535",
"P  c #55451C",
"I  c #5B5416",
"U  c #4B480F",
"Y  c #6B4915",
"T  c #685218",
"R  c #755A15",
"E  c #484926",
"W  c #47593A",
"Q  c #595336",
"!  c #414E34",
"~  c #765E29",
"^  c #7A622B",
"/  c #696438",
"(  c #76693A",
")  c #797323",
"_  c #373A41",
"`  c #3E434D",
"'  c #3A4545",
"]  c #3D5445",
"[  c #3E5B44",
"{  c #465D4D",
"}  c #465847",
"|  c #505F43",
" . c #434653",
".. c #444952",
"X. c #4B4C59",
"o. c #4C5552",
"O. c #495C55",
"+. c #4A535B",
"@. c #4E5A5D",
"#. c #4D534E",
"$. c #675F54",
"%. c #446543",
"&. c #4C6141",
"*. c #4A654E",
"=. c #4B6C4C",
"-. c #466A47",
";. c #516243",
":. c #526C4B",
">. c #5B6A48",
",. c #4C6556",
"<. c #52665D",
"1. c #537154",
"2. c #56735C",
"3. c #597A56",
"4. c #4F744D",
"5. c #62724D",
"6. c #7B7040",
"7. c #657952",
"8. c #545965",
"9. c #585A69",
"0. c #55586B",
"q. c #5A6B6C",
"w. c #586767",
"e. c #5A7465",
"r. c #5E7E68",
"t. c #5B6671",
"y. c #656B66",
"u. c #617A6F",
"i. c #676B78",
"p. c #647C73",
"a. c #6C7978",
"s. c #74737C",
"d. c #797B77",
"f. c #895A1A",
"g. c #956A1A",
"h. c #927834",
"j. c #8E7428",
"k. c #AB6321",
"l. c #86734B",
"z. c #39B61A",
"x. c #40CB26",
"c. c #5D855B",
"v. c #5E9658",
"b. c #6B825B",
"n. c #668559",
"m. c #5E8164",
"M. c #65856C",
"N. c #668C66",
"B. c #788B63",
"V. c #699668",
"C. c #739666",
"Z. c #6D8A7A",
"A. c #6B8C74",
"S. c #72927B",
"D. c #769C7B",
"F. c #74A86C",
"G. c #76A379",
"H. c #7CA876",
"J. c #83831D",
"K. c #958926",
"L. c #9A8136",
"P. c #A98737",
"I. c #BA9533",
"U. c #BBAB2E",
"Y. c #BBE038",
"T. c #CFCE39",
"R. c #928347",
"E. c #B59B4B",
"W. c #A99D5B",
"Q. c #A98E51",
"!. c #8DB74F",
"~. c #B3A553",
"^. c #948060",
"/. c #809260",
"(. c #A99B65",
"). c #88AC75",
"_. c #93A677",
"`. c #82B17C",
"'. c #90A969",
"]. c #BCAE63",
"[. c #C7AC52",
"{. c #D0AF53",
"}. c #C9AE53",
"|. c #CAB964",
" X c #D0BA69",
".X c #97D754",
"XX c #ABDA54",
"oX c #99D368",
"OX c #B5E266",
"+X c #D7C65A",
"@X c #D5C965",
"#X c #D5C971",
"$X c #DCD67A",
"%X c #E4D068",
"&X c #6B6F80",
"*X c #747682",
"=X c #797B88",
"-X c #6A7482",
";X c #7E848F",
":X c #748085",
">X c #779286",
",X c #7FA684",
"<X c #87898C",
"1X c #898A94",
"2X c #879793",
"3X c #978F8F",
"4X c #85A88C",
"5X c #8BB789",
"6X c #91BE8E",
"7X c #8CAC94",
"8X c #91A897",
"9X c #99BC96",
"0X c #B2B2B1",
"qX c #9BC584",
"wX c #AFCE89",
"eX c #DDD787",
"rX c #D5E392",
"tX c #D0D0CF",
"yX c #CCCBCB",
"uX c None",
/* pixels */
"uXuXuXuXuXuXuXuXuXuXuXuXuXuXuXuXuXuXuXuXuXuXuXuXuXuXuXuXuXuXuXuXuXuXuXuXuXuXuXuXuXuXuXuXuXuXuXuXuXuXuXuXuXuXuXuXuXuXuXuXuXuXuXuX",
"uXuXuXuXuXuXuXuXuXuXuXuXuXuXuXuXuXuXuXuXuXuXuXuXuXuXuXuXuXuXuXuXuXuXuXuXuXuXuXuXuXuXuXuXuXuXuXuXuXuXuXuXuXuXuXuXuXuXuXuXuXuXuXuX",
"uXuXuXuXuXuXuXuXuXuXuXuXuXuXuXuXuXuXuXuXuXuXuXuXuXuXuXuXuXuXuXuXuXuXuXuXuXuXuXuXuXuXuXuXuXuXuXuXuXuXuXuXuXuXuXuXuXuXuXuXuXuXuXuX",
"uXuXuXuXuXuXuXuXuXuXuXuXuXuXuXuXuXuXuXuXuXuXuXuXuXuXuXuXuXuXuXuXuXuXuXuXuXuXuXuXuXuXuXuXuXuXuXuXuXuXuXuXuXuXuXuXuXuXuXuXuXuXuXuX",
"uXuXuXuXuXuXuXuXuXuXuXuXuXuXuXuXuXuXuXuXuXuXuXuXuXuXuXuXuXuXuXuXuXuXuXuXuXuXuXuXuXuXuXuXuXuXuXuXuXuXuXuXuXuXuXuXuXuXuXuXuXuXuXuX",
"uXuXuXuXuXuXuXuXuXuXuXuXuXuXuXuXuXuXuXuXuXuXuXuXuXuXuXuXuXuXuXuXuXuXuXuXuXuXuXuXuXuXuXuXuXuXuXuXuXuXuXuXuXuXuXuXuXuXuXuXuXuXuXuX",
"uXuXuXuXuXuXuXuXuXuXuXuXuXuXuXuXuXuXuXuXuXuXuXuXuXuXuXuXuXuXuXuXuXuXuXuXuXuXuXuXuXuXuXuXuXuXuXuXuXuXuXuXuXuXuXuXuXuXuXuXuXuXuXuX",
"uXuXuXuXuXuXuXuXuXuXuXuXuXuXuXuXuXuXuXuXuXuXuXuXuXuXuXuXuXuXuXuXuXuXuXuXuXuXuXuXuXuXuXuXuXuXuXuXuXuXuXuXuXuXuXuXuXuXuXuXuXuXuXuX",
"uXuXuXuXuXuXuXuXuXuXuXuXuXuXuXuXuXuXuXuXuXuXuXuXuXuXuXuXuXuXuXuXuXuXuXuXuXuXuXuXuXuXuXuXuXuXuXuXuXuXuXuXuXuXuXuXuXuXuXuXuXuXuXuX",
"uXuXuXuXuXuXuXuXuXuXuXuXuXuXuXuXuXuXuXuXuXuXuXuXuXuXuXuXuXuXuXuXuXuXuXuXuXuXuXuXuXuXuXuXuXuXuXuXuXuXuXuXuXuXuXuXuXuXuXuXuXuXuXuX",
"uXuXuXuXuXuXuXuXuXuXuXuXuXuXuXuXuXuXuXuXuXuXuXuXuXuXuXuXuXuXuXuXuXuXuXuXuXuXuXuXuXuXuXuXuXuXuXuXuXuXuXuXuXuXuXuXuXuXuXuXuXuXuXuX",
"uXuXuXuXuXuXuXuXuXuXuXuXuXuXuXuXuXuXuXuXuXuXuXuXuXuXuXuXuXuXuXuXuXuXuXuXuXuXuXuXuXuXuXuXuXuXuXuXuXuXuXuXuXuXuXuXuXuXuXuXuXuXuXuX",
"uXuXuXuXuXuXuXuXuXuXuXuXuXuXuXuXuXuXuXuXuXuXuXuXuXuXuXuXuXuXuXuXuXuXuXuXuXuXuXuXuXuXuXuXuXuXuXuXuXuXuXuXuXuXuXuXuXuXuXuXuXuXuXuX",
"uXuXuXuXuXuXuXuXuXuXuXuXuXuXuXuXuXuXuXuXuXuXuXuXuXuXuXuXuXuXuXuXuXuXuXuXuXuXuXuXuXuXuXuXuXuXuXuXuXuXuXuXuXuXuXuXuXuXuXuXuXuXuXuX",
"uXuXuXuXuXuXuXuXuXuXuXuXuXuXuXuXuXuXuXuXuXuXuXuXuXuXuXuXuXuXuXuXuXuXuXuXuXuXuXuXuXuXuXuXuXuXuXuXuXuXuXuXuXuXuXuXuXuXuXuXuXuXuXuX",
"uXuXuXuXuXuXuXuXuXuXuXuXuXuXuXuXuXuXuXuXuXuXuXuXuXuXuXuXuXuXuXuXuXuXuXuXuXuXuXuXuXuXuXuXuXuXuXuXuXuXuXuXuXuXuXuXuXuXuXuXuXuXuXuX",
"uXuXuXuXuXuXuXuXuXuXuXuXuXuXuXuXuXuXuXuXuXuXuXuXuXuXuXuXuXuXuXuXuXuXuXuXuXuXuXuXuXuXuXuXuXuXuXuXuXuXuXuXuXuXuXuXuXuXuXuXuXuXuXuX",
"uXuXuXuXuXuXuXuXuXuXuXuXuXuXuXuXuXuXuXuXuXuXuXuXuXuXuXuXuXuXuXuXuXuXuXuXuXuXuXuXuXuXuXuXuXuXuXuXuXuXuXuXuXuXuXuXuXuXuXuXuXuX% O ",
"uXuXuXuXuXuXuXuXuXuXuXuXuXuXuXuXuXuXuXuXuXuXuXuXuXuXuXuXuXuXuXuXuXuXuXuXuXuXuXuXuXuXuXuXuXuXuXuXuXuXuXuXuXuXuXuXuX1 , 6 8 k x _ ",
"uXuXuXuXuXuXuXuXuXuXuXuXuXuXuXuXuXuXuXuXuXuXuXuXuXuXuXuXuXuXuXuXuXuXuXuXuXuXuXuXuXuXuXuXuXuXuXuXuXuXuXuXuX# , 8 D D G ' ' ' ..uX",
"uXuXuXuXuXuXuXuXuXuXuXuXuXuXuXuXuXuXuXuXuXuXuXuXuXuXuXuXuXuXuXuXuXx.z.XXuXuXuXuXuXuXuXuXuXuXuXuXuXuXuX1 p C F %.] { ] @.` X.uXuX",
"uXuXuXuXuXuXuXuXuXuXuXuXuXuXuXuXuXuXuXuXuXuXuXuXuXuXuXuXuXuXuXuXoXOX.X.XF.uXuXuXuXuXuXuXuXX + & # < j L %.J -.*.] { G ` X.uXuXuX",
"uXuXuXuXuXuXuXuXuXuXuXuXuXuXuXuXuXuXuXuXuXuXuXuXuXuXuXuXuXuXuXn.@XY.OXv.uXuXuXuXuXX % g z l z 9 i 1.n.c.V.N.N.2.M.q.O.8. .uXuXuX",
"uXuXuXuXuXuXuXuXuXuXuXuXuXuXuXuXuXuXuXuXuXuXuXuXuXuXuXuXuXuXuX~.eXOX'.K uXuXuX+ 9 L %.[ F l < 6 W &.K L L L K 2.e.<.q...uXuXuXuX",
"uXuXuXuXuXuXuXuXuXuXuXuXuXuXuXuXuXuXuXuXuXuXuXuXuXuXuXuXuXuXyXk.+X.X'.S uXuX+ j :.&.K H q e 1 2 Z K 4.-.%.[ C h Z ' ` ` uXuXuXuX",
"uXuXuXuXuXuXuXuXuXuXuXuXuXuXuXuXuXuXuXuXuXuXuXuXuXuXuXuXI T $.3Xl.!._.uXuXX O y 5 5 % 9 q q A | n.3.V.V.V.3.M.*.{ F D _ w.uXuXuX",
"uXuXuXuXuXuXuXuXuXuXuXuXuXuXuXuXuXuXuXuXuXuXuXuXuXuXuXuXuXuXy./ 9 W m + uXX   A 1.-.-.F 7 5.5.7.;.:.4.c.N.m.A.Z.u.,.O.] c c uXuX",
"uXuXuXuXuXuXuXuXuXuXuXuXuXuXuXuXuXuXuXuXuXuXuXuXuXuXuXuXuXuX}.I.u U U uX# X b ;.:.=.[ D 0 W >.W J -.*.-.2.M.e.p.w.:X&X0.0. .x k ",
"uXuXuXuXuXuXuXuXuXuXuXuXuXuXuXuXuXuXuXuXuXuXuXuXuXuXuXuXuXuX+Xh.n ~ P uX- i 7.B.n.-.=.H 7 S 7.:.1.*.2.{ } e.a.9.-X0.3X1XuXuXuXuX",
"uXuXuXuXuXuXuXuXuXuXuXuXuXuXuXuXuXuXuXuXuXuXuXuXuXuXuXuXuXuX+XP M n uXuX$ # >.B.B.:.J ] , ! b.3.3.r.O.e.O...8.i.=XuXuXuXuXuXuXuX",
"uXuXuXuXuXuXuXuXuXuXuXuXuXuXuXuXuXuXuXuXuXuXuXuXuXuXuXuXuXuX#Xy g k uXuXuX9 /._.`.c.L h < W 7.C.V.e.O.p.@. ...uXuXuXuXuXuXuXuXuX",
"uXuXuXuXuXuXuXuXuXuXuXuXuXuXuXuXuXuXuXuXuXuXuXuXuXuXuXuXuXuX[.a + ; uXuXuX5 '.wXqXF.%.w y ;.3.5XH.M.q.t.+.X.uXuXuXuXuXuXuXuXuXuX",
"uXuXuXuXuXuXuXuXuXuXuXuXuXuXuXuXuXuXuXuXuXuXuXuXuXuXuXuXuXuX#XB , * uXuXuX# /.rXwXC.Z 6 b.:.4.H.6X,Xp.-X9.i.uXuXuXuXuXuXuXuXuXuX",
"uXuXuXuXuXuXuXuXuXuXuXuXuXuXuXuXuXuXuXuXuXuXuXuXuXuXuXuXuXuX}.S < o f.uXuXuXl _.7.w 0 ;.L n.c.G.9X7X2Xi.*XuXuXuXuXuXuXuXuXuXuXuX",
"uXuXuXuXuXuXuXuXuXuXuXuXuXuXuXuXuXuXuXuXuXuXuXuXuXuXuXuXuXuXP.E 3 # g.I.T.@ , 3 4 i ;.N.b.-.c.m.8X7X2X1XuXuXuXuXuXuXuXuXuXuXuXuX",
"uXuXuXuXuXuXuXuXuXuXuXuXuXuXuXuXuXuXuXuXuXuXuXuXuXuXuXuXuXuX^ 0 0 6 2 B s 1 9 4 l N.).H.H.H.-.e.>X8X;X;XuXuXuXuXuXuXuXuXuXuXuXuX",
"uXuXuXuXuXuXuXuXuXuXuXuXuXuXuXuXuXuXuXuXuXuXuXuXuXuXuXuXuX3 w < # # + 1 V 3 5 3.5XqX6X6X5XD.D.} <.>X1X<XuXuXuXuXuXuXuXuXuXuXuXuX",
"uXuXuXuXuXuXuXuXuXuXuXuXuXuXuXuXuXuXuXuXuXuXuXuXuXuXuXuXZ q # # @ , 1 , 6 C %.V.G.D.,XS.,X>X>XZ.[ -X1X3XuXuXuXuXuXuXuXuXuXuXuXuX",
"uXuXuXuXuXuXuXuXuXuXuXuXuXuXuXuXuXuXuXuXuXy.c v 4 3 < d Z 3 u ~.j.Z q e + Z N.V.M.S.A.u.B.=X*X=Xi.' ;X1XuXuXuXuXuXuXuXuXuXuXuXuX",
"uXuXuXuXuXuXuXuXuXuXuXuXuXuXuXuXuXuXuXuXuXuXa.- 4 6 9 Z 0 + / %X[.j.C q 3 # D 2.r.p.q.w.^.s.=X=X0.+.` s.uXuXuXuXuXuXuXuXuXuXuXuX",
"uXuXuXuXuXuXuXuXuXuXuXuXuXuXuXuXuXuXuXuXuXtXs.G % % $ O     Q  X$X{.h.E 0 6 1 v w.t.t.0.l.Q.uXuXuX& - k uXuXuXuXuXuXuXuXuXuXuXuX",
"uXuXuXuXuXuXuXuXuXuXuXuXuXuXuXuXuXuXuXuXuXuXuXuXX   X O   uXuXl.%X$X+XP.Z 6 6 % f ` _ f K.f.R uXuXuXuX5 uXuXuXuXuXuXuXuXuXuXuXuX",
"uXuXuXuXuXuXuXuXuXuXuXuXuXuXuXuXuXuXuXuXuXuXuXuXuXuXuXuXuXuXuXuX6.|.$X/ q 3 , + O X ; g uXK.T uXuXuXuXuXuXuXuXuXuXuXuXuXuXuXuXuX",
"uXuXuXuXuXuXuXuXuXuXuXuXuXuXuXuXuXuXuXuXuXuXuXuXuXuXuXuXuXuXuXuXuXQ Q.q q # + + X X O J.uXf.Y Y uXuXuXuXuXuXuXuXuXuXuXuXuXuXuXuX",
"uXuXuXuXuXuXuXuXuXuXuXuXuXuXuXuXuXuXuXuXuXuXuXuXuXuXuXuXuXuXuXuXuXuXE V N 4 o X X $ + o uXuXI R uXuXuXuXuXuXuXuXuXuXuXuXuXuXuXuX",
"uXuXuXuXuXuXuXuXuXuXuXuXuXuXuXuXuXuXuXuXuXuXuXuXuXuXuXuXuXuXuXuXuXX + 3 w y ~ T ^ a 7 o I U.U : uXuXuXuXuXuXuXuXuXuXuXuXuXuXuXuX",
"uXuXuXuXuXuXuXuXuXuXuXuXuXuXuXuXuXuXuXuXuXuXuXuXuXuXuXuXuXuX#.8 uX# # 1 q , ^ E.[.E.h.p : K.) : uXuXuXuXuXuXuXuXuXuXuXuXuXuXuXuX",
"uXuXuXuXuXuXuXuXuXuXuXuXuXuXuXuXuXuXuXuXuXuXuXuXuXuXuXuXuX<Xk <.y...+ % + X > Q /  X@Xh.y + s : uXuXuXuXuXuXuXuXuXuXuXuXuXuXuXuX",
"uXuXuXuXuXuXuXuXuXuXuXuXuXuXuXuXuXuXuXuXuXuXuXuXuXuXuXuXuXd.g y.c & + .     o > M (.eX%X~.a = r m uXuXuXuXuXuXuXuXuXuXuXuXuXuXuX",
"uXuXuXuXuXuXuXuXuXuXuXuXuXuXuXuXuXuXuXuXuXuXuXuXuXuXuXuXuX0Xo.8 X           uXuXuXuX( W.eX#XR.u t t uXuXuXuXuXuXuXuXuXuXuXuXuXuX",
"uXuXuXuXuXuXuXuXuXuXuXuXuXuXuXuXuXuXuXuXuXuXuXuXuXuXuXuXuXuXuXuXuXuXuXuXuXuXuXuXuXuXuXuX( W.].P * * o uXuXuXuXuXuXuXuXuXuXuXuXuX",
"uXuXuXuXuXuXuXuXuXuXuXuXuXuXuXuXuXuXuXuXuXuXuXuXuXuXuXuXuXuXuXuXuXuXuXuXuXuXuXuXuXuXuXuXuXuXuXo . : uXuXuXuXuXuXuXuXuXuXuXuXuXuX",
"uXuXuXuXuXuXuXuXuXuXuXuXuXuXuXuXuXuXuXuXuXuXuXuXuXuXuXuXuXuXuXuXuXuXuXuXuXuXuXuXuXuXuXuXuXuXuXuXuXuXuXuXuXuXuXuXuXuXuXuXuXuXuXuX",
"uXuXuXuXuXuXuXuXuXuXuXuXuXuXuXuXuXuXuXuXuXuXuXuXuXuXuXuXuXuXuXuXuXuXuXuXuXuXuXuXuXuXuXuXuXuXuXuXuXuXuXuXuXuXuXuXuXuXuXuXuXuXuXuX",
"uXuXuXuXuXuXuXuXuXuXuXuXuXuXuXuXuXuXuXuXuXuXuXuXuXuXuXuXuXuXuXuXuXuXuXuXuXuXuXuXuXuXuXuXuXuXuXuXuXuXuXuXuXuXuXuXuXuXuXuXuXuXuXuX",
"uXuXuXuXuXuXuXuXuXuXuXuXuXuXuXuXuXuXuXuXuXuXuXuXuXuXuXuXuXuXuXuXuXuXuXuXuXuXuXuXuXuXuXuXuXuXuXuXuXuXuXuXuXuXuXuXuXuXuXuXuXuXuXuX",
"uXuXuXuXuXuXuXuXuXuXuXuXuXuXuXuXuXuXuXuXuXuXuXuXuXuXuXuXuXuXuXuXuXuXuXuXuXuXuXuXuXuXuXuXuXuXuXuXuXuXuXuXuXuXuXuXuXuXuXuXuXuXuXuX",
"uXuXuXuXuXuXuXuXuXuXuXuXuXuXuXuXuXuXuXuXuXuXuXuXuXuXuXuXuXuXuXuXuXuXuXuXuXuXuXuXuXuXuXuXuXuXuXuXuXuXuXuXuXuXuXuXuXuXuXuXuXuXuXuX",
"uXuXuXuXuXuXuXuXuXuXuXuXuXuXuXuXuXuXuXuXuXuXuXuXuXuXuXuXuXuXuXuXuXuXuXuXuXuXuXuXuXuXuXuXuXuXuXuXuXuXuXuXuXuXuXuXuXuXuXuXuXuXuXuX",
"uXuXuXuXuXuXuXuXuXuXuXuXuXuXuXuXuXuXuXuXuXuXuXuXuXuXuXuXuXuXuXuXuXuXuXuXuXuXuXuXuXuXuXuXuXuXuXuXuXuXuXuXuXuXuXuXuXuXuXuXuXuXuXuX",
"uXuXuXuXuXuXuXuXuXuXuXuXuXuXuXuXuXuXuXuXuXuXuXuXuXuXuXuXuXuXuXuXuXuXuXuXuXuXuXuXuXuXuXuXuXuXuXuXuXuXuXuXuXuXuXuXuXuXuXuXuXuXuXuX",
"uXuXuXuXuXuXuXuXuXuXuXuXuXuXuXuXuXuXuXuXuXuXuXuXuXuXuXuXuXuXuXuXuXuXuXuXuXuXuXuXuXuXuXuXuXuXuXuXuXuXuXuXuXuXuXuXuXuXuXuXuXuXuXuX",
"uXuXuXuXuXuXuXuXuXuXuXuXuXuXuXuXuXuXuXuXuXuXuXuXuXuXuXuXuXuXuXuXuXuXuXuXuXuXuXuXuXuXuXuXuXuXuXuXuXuXuXuXuXuXuXuXuXuXuXuXuXuXuXuX",
"uXuXuXuXuXuXuXuXuXuXuXuXuXuXuXuXuXuXuXuXuXuXuXuXuXuXuXuXuXuXuXuXuXuXuXuXuXuXuXuXuXuXuXuXuXuXuXuXuXuXuXuXuXuXuXuXuXuXuXuXuXuXuXuX"
};
