/* XPM */
static char *result[] = {
/* columns rows colors chars-per-pixel */
"64 64 207 2 ",
"   c #010200",
".  c #020D03",
"X  c #0B0B04",
"o  c #021302",
"O  c #0B1105",
"+  c #041A04",
"@  c #061408",
"#  c #061D09",
"$  c #0A1D0B",
"%  c #0C150C",
"&  c #13130A",
"*  c #1B1806",
"=  c #0F1B13",
"-  c #111D10",
";  c #151917",
":  c #211B06",
">  c #042304",
",  c #0C220D",
"<  c #0B2C0C",
"1  c #042B04",
"2  c #16280E",
"3  c #0D2610",
"4  c #142514",
"5  c #122C13",
"6  c #1C251C",
"7  c #152C18",
"8  c #192D14",
"9  c #143113",
"0  c #1B321B",
"q  c #163A1A",
"w  c #1B3719",
"e  c #242106",
"r  c #27270B",
"t  c #2B360D",
"y  c #332C14",
"u  c #24371B",
"i  c #3A3513",
"p  c #2B2C11",
"a  c #1F2325",
"s  c #232C22",
"d  c #282A2B",
"f  c #2C3D2B",
"g  c #263626",
"h  c #2D3434",
"j  c #313435",
"k  c #343A38",
"l  c #3E3B27",
"z  c #443B14",
"x  c #42371A",
"c  c #473A1A",
"v  c #56390D",
"b  c #443827",
"n  c #384418",
"m  c #2C4328",
"M  c #204521",
"N  c #34442B",
"B  c #38492D",
"V  c #2F4833",
"C  c #394E3E",
"Z  c #364737",
"A  c #3E5A3B",
"S  c #365637",
"D  c #59500F",
"F  c #44431B",
"G  c #574616",
"H  c #6E511D",
"J  c #684A1E",
"K  c #5D6310",
"L  c #6B6914",
"P  c #4B4623",
"I  c #4B4B20",
"U  c #544624",
"Y  c #544E27",
"T  c #515320",
"R  c #424436",
"E  c #48573C",
"W  c #604E25",
"Q  c #745B28",
"!  c #635A34",
"~  c #4C613E",
"^  c #51633F",
"/  c #68622F",
"(  c #7D672F",
")  c #6E6433",
"_  c #776332",
"`  c #373B41",
"'  c #3C4446",
"]  c #3C5444",
"[  c #40414B",
"{  c #44484F",
"}  c #4D534D",
"|  c #435C4B",
" . c #40544A",
".. c #444A54",
"X. c #4C4D55",
"o. c #4A5254",
"O. c #465853",
"+. c #4B515B",
"@. c #4E5A5C",
"#. c #475852",
"$. c #54595A",
"%. c #49664F",
"&. c #476645",
"*. c #556B49",
"=. c #4B724B",
"-. c #5A724B",
";. c #4E6E52",
":. c #536D5C",
">. c #50625A",
",. c #527354",
"<. c #5B7C56",
"1. c #577758",
"2. c #686847",
"3. c #7E6F49",
"4. c #667A52",
"5. c #667E58",
"6. c #6A7D57",
"7. c #7A7146",
"8. c #5C5D6C",
"9. c #565A68",
"0. c #5D5D73",
"q. c #5B6D6A",
"w. c #546764",
"e. c #5A7663",
"r. c #5C7A63",
"t. c #5B7765",
"y. c #64656C",
"u. c #67676A",
"i. c #61796D",
"p. c #666979",
"a. c #70747A",
"s. c #6A796F",
"d. c #8F7331",
"f. c #9A7A2B",
"g. c #817F4D",
"h. c #9B7D4A",
"j. c #44853E",
"k. c #538153",
"l. c #5A835C",
"z. c #5C8A5B",
"x. c #6D8051",
"c. c #75905D",
"v. c #74A551",
"b. c #5F8960",
"n. c #658E6A",
"m. c #658B67",
"M. c #718D63",
"N. c #6A9969",
"B. c #7F9C6C",
"V. c #719868",
"C. c #6A8877",
"Z. c #74877E",
"A. c #6D9474",
"S. c #769879",
"D. c #79A477",
"F. c #80871E",
"G. c #88921C",
"H. c #93902A",
"J. c #8B8040",
"K. c #AF9647",
"L. c #B1AA5B",
"P. c #959262",
"I. c #818779",
"U. c #A29461",
"Y. c #B09677",
"T. c #8CA06D",
"R. c #89A974",
"E. c #9CAC7D",
"W. c #87B67E",
"Q. c #9FBF7C",
"!. c #B4AB6B",
"~. c #C4A852",
"^. c #D8AC41",
"/. c #C1B66D",
"(. c #D4BD69",
"). c #E1CE5E",
"_. c #C5C275",
"`. c #DBD479",
"'. c #D7C96E",
"]. c #6D6E83",
"[. c #6E7B83",
"{. c #777988",
"}. c #7C848D",
"|. c #788688",
" X c #7C9B87",
".X c #7AA084",
"XX c #8D8F8E",
"oX c #878788",
"OX c #838393",
"+X c #8F929A",
"@X c #969895",
"#X c #A69D8A",
"$X c #81AC83",
"%X c #92BF87",
"&X c #88A193",
"*X c #8DB690",
"=X c #96B799",
"-X c #96A297",
";X c #A6A481",
":X c #A5A5A4",
">X c #90C088",
",X c #9BC396",
"<X c #D8D299",
"1X c #E4DD88",
"2X c #E7DC94",
"3X c #DCDEDC",
"4X c None",
/* pixels */
"4X4X4X4X4X4X4X4X4X4X4X4X4X4X4X4X4X4X4X4X4X4X4X4X4X4X4X4X4X4X4X4X4X4X4X4X4X4X4X4X4X4X4X4X4X4X4X4X4X4X4X4X4X4X4X4X4X4X4X4X4X4X4X4X",
"4X4X4X4X4X4X4X4X4X4X4X4X4X4X4X4X4X4X4X4X4X4X4X4X4X4X4X4X4X4X4X4X4X4X4X4X4X4X4X4X4X4X4X4X4X4X4X4X4X4X4X4X4X4X4X4X4X4X4X4X4X4X4X4X",
"4X4X4X4X4X4X4X4X4X4X4X4X4X4X4X4X4X4X4X4X4X4X4X4X4X4X4X4X4X4X4X4X4X4X4X4X4X4X4X4X4X4X4X4X4X4X4X4X4X4X4X4X4X4X4X4X4X4X4X4X4X4X4X4X",
"4X4X4X4X4X4X4X4X4X4X4X4X4X4X4X4X4X4X4X4X4X4X4X4X4X4X4X4X4X4X4X4X4X4X4X4X4X4X4X4X4X4X4X4X4X4X4X4X4X4X4X4X4X4X4X4X4X4X4X4X4X4X4X4X",
"4X4X4X4X4X4X4X4X4X4X4X4X4X4X4X4X4X4X4X4X4X4X4X4X4X4X4X4X4X4X4X4X4X4X4X4X4X4X4X4X4X4X4X4X4X4X4X4X4X4X4X4X4X4X4X4X4X4X4X4X4X4X4X4X",
"4X4X4X4X4X4X4X4X4X4X4X4X4X4X4X4X4X4X4X4X4X4X4X4X4X4X4X4X4X4X4X4X4X4X4X4X4X4X4X4X4X4X4X4X4X4X4X4X4X4X4X4X4X4X4X4X4X4X4X4X4X4X4X4X",
"4X4X4X4X4X4X4X4X4X4X4X4X4X4X4X4X4X4X4X4X4X4X4X4X4X4X4X4X4X4X4X4X4X4X4X4X4X4X4X4X4X4X4X4X4X4X4X4X4X4X4X4X4X4X4X4X4X4X4X4X4X4X4X4X",
"4X4X4X4X4X4X4X4X4X4X4X4X4X4X4X4X4X4X4X4X4X4X4X4X4X4X4X4X4X4X4X4X4X4X4X4X4X4X4X4X4X4X4X4X4X4X4X4X4X4X4X4X4X4X4X4X4X4X4X4X4X4X4X4X",
"4X4X4X4X4X4X4X4X4X4X4X4X4X4X4X4X4X4X4X4X4X4X4X4X4X4X4X4X4X4X4X4X4X4X4X4X4X4X4X4X4X4X4X4X4X4X4X4X4X4X4X4X4X4X4X4X4X4X4X4X4X4X4X4X",
"4X4X4X4X4X4X4X4X4X4X4X4X4X4X4X4X4X4X4X4X4X4X4X4X4X4X4X4X4X4X4X4X4X4X4X4X4X4X4X4X4X4X4X4X4X4X4X4X4X4X4X4X4X4X4X4X4X4X4X4X4X4X4X4X",
"4X4X4X4X4X4X4X4X4X4X4X4X4X4X4X4X4X4X4X4X4X4X4X4X4X4X4X4X4X4X4X4X4X4X4X4X4X4X4X4X4X4X4X4X4X4X4X4X4X4X4X4X4X4X4X4X4X4X4X4X4X4X4X4X",
"4X4X4X4X4X4X4X4X4X4X4X4X4X4X4X4X4X4X4X4X4X4X4X4X4X4X4X4X4X4X4X4X4X4X4X4X4X4X4X4X4X4X4X4X4X4X4X4X4X4X4X4X4X4X4X4X4X4X4X4X4X4X4X4X",
"4X4X4X4X4X4X4X4X4X4X4X4X4X4X4X4X4X4X4X4X4X4X4X4X4X4X4X4X4X4X4X4X4X4X4X4X4X4X4X4X4X4X4X4X4X4X4X4X4X4X4X4X4X4X4X4X4X4X4X4X4X4X4X4X",
"4X4X4X4X4X4X4X4X4X4X4X4X4X4X4X4X4X4X4X4X4X4X4X4X4X4X4X4X4X4X4X4X4X4X4X4X4X4X4X4X4X4X4X4X4X4X4X4X4X4X4X4X4X4X4X4X4X4X4X4X4X4X4X4X",
"4X4X4X4X4X4X4X4X4X4X4X4X4X4X4X4X4X4X4X4X4X4X4X4X4X4X4X4X4X4X4X4X4X4X4X4X4X4X4X4X4X4X4X4X4X4X4X4X4X4X4X4X4X4X4X4X4X4X4X4X4X4X4X4X",
"4X4X4X4X4X4X4X4X4X4X4X4X4X4X4X4X4X4X4X4X4X4X4X4X4X4X4X4X4X4X4X4X4X4X4X4X4X4X4X4X4X4X4X4X4X4X4X4X4X4X4X4X4X4X4X4X4X4X4X4X4X4X4X4X",
"4X4X4X4X4X4X4X4X4X4X4X4X4X4X4X4X4X4X4X4X4X4X4X4X4X4X4X4X4X4X4X4X4X4X4X4X4X4X4X4X4X4X4X4X4X4X4X4X4X4X4X4X4X4X4X4X4X4X4X4X4X4X4X4X",
"4X4X4X4X4X4X4X4X4X4X4X4X4X4X4X4X4X4X4X4X4X4X4X4X4X4X4X4X4X4X4X4X4X4X4X4X4X4X4X4X4X4X4X4X4X4X4X4X4X4X4X4X4X4X4X4X4X4X@   4X4X4X4X",
"4X4X4X4X4X4X4X4X4X4X4X4X4X4X4X4X4X4X4X4X4X4X4X4X4X4X4X4X4X4X4X4X4X4X4X4X4X4X4X4X4X4X4X4X4X4X4X4X4X4X4X4X4X4X4XO % X 4X4X4X4X4X4X",
"4X4X4X4X4X4X4X4X4X4X4X4X4X4X4X4X4X4X4X4X4X4X4X4X4X4X4X4X4X4X4X4X4X4X4X4X4X4X4X4X4X4X4X4X4X4X4X4X4X4X4X4X4X$ ; k 4X4X4X4X4X4X4X4X",
"4X4X4X4X4X4X4X4X4X4X4X4X4X4X4X4X4X4X4X4X4X4X4X4X4X4X4X4X4X4X4X4X4X4X4X4X4X4X4X4X4X4X4X4X4X4X4X4X4X4X4X4X7 ' ..y.4X4X4X4X4X4X4X4X",
"4X4X4X4X4X4X4X4X4X4X4X4X4X4X4X4X4X4X4X4X4X4X4X4X4X4X4X4X4X4X4X4X4X4X4X4X4X4X4X4X4X4X4X4X4X4X4X4X4X4X0 C O.o.8.4X4X4X4X4X4X4X4X4X",
"4X4X4X4X4X4X4X4X4X4X4X4X4X4X4X4X4X4X4X4X4X4X4X4X4X4X4X4X4X4X4X4X4X4X4X4X4X4X4X4X4X4X4X4X4X4X4X4X4 V %.#.@.9.p.4X4X4X4X4X4X4X4X4X",
"4X4X4X4X4X4X4X4X4X4X4X4X4X4X4X4X4X4X4X4X4X4X4X4X4X4X4X4X4X4X4X4X4X4X4X4X4X4X4X4X4X4X4X4X4X4X4XM &.1.:.#...' 4X4X4X4X4X4X4X4X4X4X",
"4X4X4X4X4X4X4X4X4X4X4X4X4X4X4X4X4X4X4X4X4X4X4X4X4X4X4X4X4X4X4X4X4X4X4X4X4X4X4X4X4X4X4X4X4X> B =.;.] ] O.+...$.4X4X4X4X- 4X4X4X4X",
"4X4X4X4X4X4X4X4X4X4X4X4X4X4X4X4X4X4X4X4X4X4X4X4X4X4X4X4X4X4X4X4X4X4X4X4X4X4X4X4X4X4X4X4X, E =.=.;.;.%.' C ] ] $.+.u.4X4X4X4X4X4X",
"4X4X4X4X4X4X4X4X4X4X4X4X4X4X4X4X4X4X4X4X4X4X4X4X4X4X4X4X4X4X4X4X4X4X4X4X4X4X4X4X4X4X4X2 &.,.=.S S ] e.m.C.Z.}.{.{.j 4X4X4X4X4X4X",
"4X4X4X4X4X4X4X4X4X4X4X4X4X4X4X4X4X4X4X4X4X4X4X4X4X4X4X4X4X4X4X4X4X4X4X4X4X4X4X4X4X4X> m B m =.z.N..XA. Xi.[.{.OX4X4X4X4X4X4X4X4X",
"4X4X4X4X4X4X4X4X4X4X4X4X4X4X4X4X4X4X4X4X4X4X4X4X4X4X4X4X4X4X4X4X4X4X4X4X4X4X4X4X4X> > 0 -.N.N.N.n.C.e.w.9.y.4X4X4X4X4X4X4X4X4X4X",
"4X4X4X4X4X4X4X4X4X4X4X4X4X4X4X4X4X4X4X4X4X4X4X4X4X4X4X4X4Xv.4X4X4X4X4X4X4X4X4X4X1 < B 4.x.l.k.b.l.b.q.p.a.4X4X4X4X4X4X4X4X4X4X4X",
"4X4X4X4X4X4X4X4X4X4X4X4X4X4X4X4X4X4X4X4X4X4X4X4X4X4X4X<X4X4X4X4X4X4X4X4X4X4X4X4X2 B 6.M.5.1.1.1.t.w.@.0.].4X4X4X4X4X4X4X4X4X4X4X",
"4X4X4X4X4X4X4X4X4X4X4X4X4X4X4X4X4X4X4X4X4X4X4X4X4X4XE.Y.Q.j.4X4X4X4X4X4X4X4X4X4X$ 6 B -.-.5.1.e.t.q.9.p.X.4X4X4X4X4X4X4X4X4X4X4X",
"4X4X4X4X4X4X4X4X4X4X4X4X4X4X4X4X4X4X4X4X4X4X4X4X4Xk.;XY.c.4X4X4X4X4X4X4X4X4X4X+ m E M N 6.M.N.A.S.C.0.].{ 4X  4X4X4X4X4X4X4X4X4X",
"4X4X4X4X4X4X4X4X4X4X4X4X4X4X4X4X4X4X4X4X4X4X4X4X4X-X@X;XZ.4X4X4X4X4X4X4X4X4X> 5 =.D.E w *.M.D.*X*X&X}.}.4X4X4X4X4X4X4X4X4X4X4X4X",
"4X4X4X4X4X4X4X4X4X4X4X4X4X4X4X4X4X4X4X4X4X4X4X4X4X3Xs.I.E : 4X4X4X4X4X4X4X4X9 E T.T.u m *.-.z.D..X&X+XOX4X4X4X4X4X4X4X4X4X4X4X4X",
"4X4X4X4X4X4X4X4X4X4X4X4X4X4X4X4X4X4X4X4X4X4X4X4X4X4Xk s 8 i c 4X4X4X4X4X4X4X> ~ T.6.8 ^ ~ A ~ ;.b.|.}.OX4X4X4X4X4X4X4X4X4X4X4X4X",
"4X4X4X4X4X4X4X4X4X4X4X4X4X4X4X4X4X4X4X4X4X4X4X4X4X4XU U c v J 4X4X4X4X4X4X4X4X, u $ E B.%XW.N.,.] ] q.].+X4X4X4X4X4X4X4X4X4X4X4X",
"4X4X4X4X4X4X4X4X4X4X4X4X4X4X4X4X4X4X4X4X4X4X4X4X4XD J b !.) G z 4X4X4X4X4X4X+ > , B 6.R.%X,X$XD.|.i.w.' q.4X4X4X4X4X4X4X4X4X4X4X",
"4X4X4X4X4X4X4X4X4X4X4X4X4X4X4X4X4X4X4X4X4X4X4X4X4XG.b X./.(._ g 6 $ o 4Xx.+ < - &.M.W.>X*X,X=X&X|.].0.].` s 4X4X4X4X4X4X4X4X4X4X",
"4X4X4X4X4X4X4X4X4X4X4X4X4X4X4X4X4X4X4X4X4X4X4X4X4X4XJ.[ _ !./ # + o + e n 9 5 B B.D.N.n.n. X XOX|.' = 4X4X4X4X4X4X4X4X4X4X4X4X4X",
"4X4X4X4X4X4X4X4X4X4X4X4X4X4X4X4X4X4X4X4X4X4X4X4X4X4X4X4X4Xq < o r e 3 p 5 0 Z =.m.n.n.1.w.q.@.$.j d k 4X4X4X4X4X4X4X4X4X4X4X4X4X",
"4X4X4X4X4X4X4X4X4X4X4X4X4X4X4X4X4X4X4X4X4X4X4X4XZ < 9 $ q M 2 b ^.d.Y I 8 # 0 m &.e.t.e.{ ..j ; h 9.0.4X4X4X4X4X4X4X4X4X4X4X4X4X",
"4X4X4X4X4X4X4X4X4X4X4X4X4X4X4X4X4X4X4X4X4X4X4X4X' , 0 w 7 o z P.).).~.f.T q + + @ g #.o.` a ; h g ` +.u.4X4X4X4X4X4X4X4X4X4X4X4X",
"4X4X4X4X4X4X4X4X4X4X4X4X4X4X4X4X4X4X4X4X4X4X4X+Xk , 3 @ 4X4X$ P.'.1X`.`.G i r + o . X 6 s k j 4X4X4Xg s 4X4X4X4X4X4X4X4X4X4X4X4X",
"4X4X4X4X4X4X4X4X4X4X4X4X4X4X4X4X4X4X4X4X4X4X4X:X4Xk 4X4X4X4X> f h.'.2X2X_.n z * . . $ % h X.4X4X4X4X4X4X4 4X4X4X4X4X4X4X4X4X4X4X",
"4X4X4X4X4X4X4X4X4X4X4X4X4X4X4X4X4X4X4X4X4X4XoXo.$.Z 4X4X4X# > o & ! U.!._.J.w * * H Y u i 4X4X4X4X4X4X4X4X4X4X4X4X4X4X4X4X4X4X4X",
"4X4X4X4X4X4X4X4X4X4X4X4X4X4X4X4X4X4X4X4X4X4X4Xu.= $ w M w 9 $   4XXX>.7 . @ . x z Q L.K.F O H.4X4X4X4X4X4X4X4X4X4X4X4X4X4X4X4X4X",
"4X4X4X4X4X4X4X4X4X4X4X4X4X4X4X4X4X4X4X4X4X4X4X4XXX$ + o .     I.X.a.} 4 # . R 7.h.d.W L.K.F O K 4X4X4X4X4X4X4X4X4X4X4X4X4X4X4X4X",
"4X4X4X4X4X4X4X4X4X4X4X4X4X4X4X4X4X4X4X4X4X4X4X4X4X4X4X4X4X4X4Xu.k j g @ + o & U 2.Q g.I y i r * L 4X4X4X4X4X4X4X4X4X4X4X4X4X4X4X",
"4X4X4X4X4X4X4X4X4X4X4X4X4X4X4X4X4X4X4X4X4X4X4X4X4X4X4X4X4X4X4X4Xu $ 5 3 - o . X X & y c * O e e * t 4X4X4X4X4X4X4X4X4X4X4X4X4X4X",
"4X4X4X4X4X4X4X4X4X4X4X4X4X4X4X4X4X4X4X4X4X4X4X4X4X4X4X4X4X4X4X4X} 4X4X4X4X4X4X4X4X4X4X4X4X4XX     i 4X4X4X4X4X4X4X4X4X4X4X4X4X4X",
"4X4X4X4X4X4X4X4X4X4X4X4X4X4X4X4X4X4X4X4X4X4X4X4X4X4X4X4X4X4X4X4X4X4X4X4X4X4X4X4X4X4X4X4X4X4X4X4X4X4X4X4X4X4X4X4X4X4X4X4X4X4X4X4X",
"4X4X4X4X4X4X4X4X4X4X4X4X4X4X4X4X4X4X4X4X4X4X4X4X4X4X4X4X4X4X4X4X4X4X4X4X4X4X4X4X4X4X4X4X4X4X4X4X4X4X4X4X4X4X4X4X4X4X4X4X4X4X4X4X",
"4X4X4X4X4X4X4X4X4X4X4X4X4X4X4X4X4X4X4X4X4X4X4X4X4X4X4X4X4X4X4X4X4X4X4X4X4X4X4X4X4X4X4X4X4X4X4X4X4X4X4X4X4X4X4X4X4X4X4X4X4X4X4X4X",
"4X4X4X4X4X4X4X4X4X4X4X4X4X4X4X4X4X4X4X4X4X4X4X4X4X4X4X4X4X4X4X4X4X4X4X4X4X4X4X4X4X4X4X4X4X4X4X4X4X4X4X4X4X4X4X4X4X4X4X4X4X4X4X4X",
"4X4X4X4X4X4X4X4X4X4X4X4X4X4X4X4X4X4X4X4X4X4X4X4X4X4X4X4X4X4X4X4X4X4X4X4X4X4X4X4X4X4X4X4X4X4X4X4X4X4X4X4X4X4X4X4X4X4X4X4X4X4X4X4X",
"4X4X4X4X4X4X4X4X4X4X4X4X4X4X4X4X4X4X4X4X4X4X4X4X4X4X4X4X4X4X4X4X4X4X4X4X4X4X4X4X4X4X4X4X4X4X4X4X4X4X4X4X4X4X4X4X4X4X4X4X4X4X4X4X",
"4X4X4X4X4X4X4X4X4X4X4X4X4X4X4X4X4X4X4X4X4X4X4X4X4X4X4X4X4X4X4X4X4X4X4X4X4X4X4X4X4X4X4X4X4X4X4X4X4X4X4X4X4X4X4X4X4X4X4X4X4X4X4X4X",
"4X4X4X4X4X4X4X4X4X4X4X4X4X4X4X4X4X4X4X4X4X4X4X4X4X4X4X4X4X4X4X4X4X4X4X4X4X4X4X4X4X4X4X4X4X4X4X4X4X4X4X4X4X4X4X4X4X4X4X4X4X4X4X4X",
"4X4X4X4X4X4X4X4X4X4X4X4X4X4X4X4X4X4X4X4X4X4X4X4X4X4X4X4X4X4X4X4X4X4X4X4X4X4X4X4X4X4X4X4X4X4X4X4X4X4X4X4X4X4X4X4X4X4X4X4X4X4X4X4X",
"4X4X4X4X4X4X4X4X4X4X4X4X4X4X4X4X4X4X4X4X4X4X4X4X4X4X4X4X4X4X4X4X4X4X4X4X4X4X4X4X4X4X4X4X4X4X4X4X4X4X4X4X4X4X4X4X4X4X4X4X4X4X4X4X",
"4X4X4X4X4X4X4X4X4X4X4X4X4X4X4X4X4X4X4X4X4X4X4X4X4X4X4X4X4X4X4X4X4X4X4X4X4X4X4X4X4X4X4X4X4X4X4X4X4X4X4X4X4X4X4X4X4X4X4X4X4X4X4X4X",
"4X4X4X4X4X4X4X4X4X4X4X4X4X4X4X4X4X4X4X4X4X4X4X4X4X4X4X4X4X4X4X4X4X4X4X4X4X4X4X4X4X4X4X4X4X4X4X4X4X4X4X4X4X4X4X4X4X4X4X4X4X4X4X4X",
"4X4X4X4X4X4X4X4X4X4X4X4X4X4X4X4X4X4X4X4X4X4X4X4X4X4X4X4X4X4X4X4X4X4X4X4X4X4X4X4X4X4X4X4X4X4X4X4X4X4X4X4X4X4X4X4X4X4X4X4X4X4X4X4X"
};
