/* XPM */
static char *result[] = {
/* columns rows colors chars-per-pixel */
"64 64 198 2 ",
"   c #010300",
".  c #030C03",
"X  c #0E0D01",
"o  c #090B06",
"O  c #130C02",
"+  c #031403",
"@  c #0A1203",
"#  c #041C04",
"$  c #061308",
"%  c #0B160A",
"&  c #071D09",
"*  c #0A1C0B",
"=  c #131103",
"-  c #191706",
";  c #181E0E",
":  c #151B1A",
">  c #191D1D",
",  c #161916",
"<  c #221903",
"1  c #261C09",
"2  c #311E05",
"3  c #052205",
"4  c #07220A",
"5  c #0B240C",
"6  c #0C290D",
"7  c #10210E",
"8  c #0F2511",
"9  c #0F2811",
"0  c #122514",
"q  c #122B14",
"w  c #172619",
"e  c #1D2A1D",
"r  c #1C2714",
"t  c #0F3314",
"y  c #133315",
"u  c #1D351D",
"i  c #1E3C1B",
"p  c #163717",
"a  c #15340C",
"s  c #23270D",
"d  c #39290B",
"f  c #2F3B05",
"g  c #333209",
"h  c #262916",
"j  c #332B11",
"k  c #22331C",
"l  c #3A3214",
"z  c #313914",
"x  c #333C1C",
"c  c #3B381B",
"v  c #1A1D21",
"b  c #1C2222",
"n  c #1F2924",
"m  c #1F3023",
"M  c #212B22",
"N  c #22252A",
"B  c #23292A",
"V  c #222626",
"C  c #243223",
"Z  c #243C23",
"A  c #2A3B26",
"S  c #26342B",
"D  c #28302C",
"F  c #353F21",
"G  c #272B31",
"H  c #2A2E32",
"J  c #2C3534",
"K  c #333734",
"L  c #492B08",
"P  c #53330F",
"I  c #473A19",
"U  c #483D19",
"Y  c #48340C",
"T  c #603C0D",
"R  c #703D0E",
"E  c #623D11",
"W  c #513A25",
"Q  c #453923",
"!  c #13460F",
"~  c #1E4116",
"^  c #27441D",
"/  c #37471D",
"(  c #1F4225",
")  c #234022",
"_  c #2C432C",
"`  c #2A4828",
"'  c #31442E",
"]  c #3D472B",
"[  c #364828",
"{  c #2B5428",
"}  c #2F4731",
"|  c #364537",
" . c #344639",
".. c #3B533B",
"X. c #345937",
"o. c #45411E",
"O. c #494317",
"+. c #544215",
"@. c #55431C",
"#. c #56491C",
"$. c #4F5819",
"%. c #6B420F",
"&. c #644915",
"*. c #734511",
"=. c #66561F",
"-. c #755B19",
";. c #785718",
":. c #7C6914",
">. c #7C701D",
",. c #434622",
"<. c #474924",
"1. c #524522",
"2. c #545429",
"3. c #475E3F",
"4. c #425230",
"5. c #685B2B",
"6. c #765C26",
"7. c #6B4D32",
"8. c #6A693D",
"9. c #3B3D49",
"0. c #3D4344",
"q. c #3F454C",
"w. c #364144",
"e. c #3F5744",
"r. c #41434D",
"t. c #424E4E",
"y. c #404347",
"u. c #445647",
"i. c #48524E",
"p. c #434A52",
"a. c #4C4F56",
"s. c #485956",
"d. c #525B51",
"f. c #5C5A59",
"g. c #446543",
"h. c #536E5B",
"j. c #596A44",
"k. c #776849",
"l. c #736255",
"z. c #5E5D62",
"x. c #596867",
"c. c #5D7867",
"v. c #646B60",
"b. c #63776F",
"n. c #777978",
"m. c #666C76",
"M. c #905F1C",
"N. c #825614",
"B. c #86661A",
"V. c #89671A",
"C. c #94611C",
"Z. c #87771D",
"A. c #947D1F",
"S. c #AA6C1E",
"D. c #886624",
"F. c #946A22",
"G. c #997724",
"H. c #A66F21",
"J. c #A47422",
"K. c #A27D21",
"L. c #896E4E",
"P. c #5E8C5D",
"I. c #648D63",
"U. c #6A8574",
"Y. c #68916A",
"T. c #9A821F",
"R. c #95871C",
"E. c #8B891B",
"W. c #A4851E",
"Q. c #9B9123",
"!. c #B28F27",
"~. c #A59825",
"^. c #B3962E",
"/. c #ACA02C",
"(. c #CA9931",
"). c #D3963B",
"_. c #C7B82F",
"`. c #B89742",
"'. c #BFAB5E",
"]. c #85806F",
"[. c #848C7D",
"{. c #BFB365",
"}. c #C29F44",
"|. c #C7A952",
" X c #CCB557",
".X c #C0AB61",
"XX c #CEBE63",
"oX c #D0B561",
"OX c #878688",
"+X c #89958A",
"@X c #9B9996",
"#X c #AA9680",
"$X c #9EA29E",
"%X c #B3B5AD",
"&X c #B6B7B3",
"*X c #B0ADA8",
"=X c #BFBFC0",
"-X c None",
/* pixels */
"-X-X-X-X-X-X-X-X-X-X-X-X-X-X-X-X-X-X-X-X-X-X-X-X-X-X-X-X-X-X-X-X-X-X-X-X-X-X-X-X-X-X-X-X-X-X-X-X-X-X-X-X-X-X-X-X-X-X-X-X-X-X-X-X",
"-X-X-X-X-X-X-X-X-X-X-X-X-X-X-X-X-X-X-X-X-X-X-X-X-X-X-X-X-X-X-X-X-X-X-X-X-X-X-X-X-X-X-X-X-X-X-X-X-X-X-X-X-X-X-X-X-X-X-X-X-X-X-X-X",
"-X-X-X-X-X-X-X-X-X-X-X-X-X-X-X-X-X-X-X-X-X-X-X-X-X-X-X-X-X-X-X-X-X-X-X-X-X-X-X-X-X-X-X-X-X-X-X-X-X-X-X-X-X-X-X-X-X-X-X-X-X-X-X-X",
"-X-X-X-X-X-X-X-X-X-X-X-X-X-X-X-X-X-X-X-X-X-X-X-X-X-X-X-X-X-X-X-X-X-X-X-X-X-X-X-X-X-X-X-X-X-X-X-X-X-X-X-X-X-X-X-X-X-X-X-X-X-X-X-X",
"-X-X-X-X-X-X-X-X-X-X-X-X-X-X-X-X-X-X-X-X-X-X-X-X-X-X-X-X-X-X-X-X-X-X-X-X-X-X-X-X-X-X-X-X-X-X-X-X-X-X-X-X-X-X-X-X-X-X-X-X-X-X-X-X",
"-X-X-X-X-X-X-X-X-X-X-X-X-X-X-X-X-X-X-X-X-X-X-X-X-X-X-X-X-X-X-X-X-X-X-X-X-X-X-X-X-X-X-X-X-X-X-X-X-X-X-X-X-X-X-X-X-X-X-X-X-X-X-X-X",
"-X-X-X-X-X-X-X-X-X-X-X-X-X-X-X-X-X-X-X-X-X-X-X-X-X-X-X-X-X-X-X-X-X-X-X-X-X-X-X-X-X-X-X-X-X-X-X-X-X-X-X-X-X-X-X-X-X-X-X-X-X-X-X-X",
"-X-X-X-X-X-X-X-X-X-X-X-X-X-X-X-X-X-X-X-X-X-X-X-X-X-X-X-X-X-X-X-X-X-X-X-X-X-X-X-X-X-X-X-X-X-X-X-X-X-X-X-X-X-X-X-X-X-X-X-X-X-X-X-X",
"-X-X-X-X-X-X-X-X-X-X-X-X-X-X-X-X-X-X-X-X-X-X-X-X-X-X-X-X-X-X-X-X-X-X-X-X-X-X-X-X-X-X-X-X-X-X-X-X-X-X-X-X-X-X-X-X-X-X-X-X-X-X-X-X",
"-X-X-X-X-X-X-X-X-X-X-X-X-X-X-X-X-X-X-X-X-X-X-X-X-X-X-X-X-X-X-X-X-X-X-X-X-X-X-X-X-X-X-X-X-X-X-X-X-X-X-X-X-X-X-X-X-X-X-X-X-X-X-X-X",
"-X-X-X-X-X-X-X-X-X-X-X-X-X-X-X-X-X-X-X-X-X-X-X-X-X-X-X-X-X-X-X-X-X-X-X-X-X-X-X-X-X-X-X-X-X-X-X-X-X-X-X-X-X-X-X-X-X-X-X-X-X-X-X-X",
"-X-X-X-X-X-X-X-X-X-X-X-X-X-X-X-X-X-X-X-X-X-X-X-X-X-X-X-X-X-X-X-X-X-X-X-X-X-X-X-X-X-X-X-X-X-X-X-X-X-X-X-X-X-X-X-X-X-X-X-X-X-X-X-X",
"-X-X-X-X-X-X-X-X-X-X-X-X-X-X-X-X-X-X-X-X-X-X-X-X-X-X-X-X-X-X-X-X-X-X-X-X-X-X-X-X-X-X-X-X-X-X-X-X-X-X-X-X-X-X-X-X-X-X-X-X-X-X-X-X",
"-X-X-X-X-X-X-X-X-X-X-X-X-X-X-X-X-X-X-X-X-X-X-X-X-X-X-X-X-X-X-X-X-X-X-X-X-X-X-X-X-X-X-X-X-X-X-X-X-X-X-X-X-X-X-X-X-X-X-X-X-X-X-X-X",
"-X-X-X-X-X-X-X-X-X-X-X-X-X-X-X-X-X-X-X-X-X-X-X-X-X-X-X-X-X-X-X-X-X-X-X-X-X-X-X-X-X-X-X-X-X-X-X-X-X-X-X-X-X-X-X-X-X-X-X-X-X-X-X-X",
"-X-X-X-X-X-X-X-X-X-X-X-X-X-X-X-X-X-X-X-X-X-X-X-X-X-X-X-X-X-X-X-X-X-X-X-X-X-X-X-X-X-X-X-X-X-X-X-X-X-X-X-X-X-X-X-X-X-X-X-X-X-X-X-X",
"-X-X-X-X-X-X-X-X-X-X-X-X-X-X-X-X-X-X-X-X-X-X-X-X-X-X-X-X-X-X-X-X-X-X-X-X-X-X-X-X-X-X-X-X-X-X-X-X-X-X-X-X-X-X-X-X-X-X-X-X-X-X-X-X",
"-X-X-X-X-X-X-X-X-X-X-X-X-X-X-X-X-X-X-X-X-X-X-X-X-X-X-X-X-X-X-X-X-X-X-X-X-X-X-X-X-X-X-X-X-X-X-X-X-X-X-X-X-X-X-X-X-X-X-X-X-X-X-X-X",
"-X-X-X-X-X-X-X-X-X-X-X-X-X-X-X-X-X-X-X-X-X-X-X-X-X-X-X-X-X-X-X-X-X-X-X-X-X-X-X-X-X-X-X-X-X-X-X-X-X-X-X-X-X-X-X-X-X-X-X-X-X-X-X-X",
"-X-X-X-X-X-X-X-X-X-X-X-X-X-X-X-X-X-X-X-X-X-X-X-X-X-X-X-X-X-X-X-X-X-X-X-X-X-X-X-X-X-X-X-X-X-X-X-X-X-X-X-X-X-X-X-X-X-X-X-X-X-X-X-X",
"-X-X-X-X-X-X-X-X-X-X-X-X-X-X-X-X-X-X-X-X-X-X-X-X-X-X-X-X-X-X-X-X-X-X-X-X-X-X-X-X-X-X-X-X-X-X-X-X-X-X-X-X-X-X-X-X-X-X-X-X-X-X-X-X",
"-X-X-X-X-X-X-X-X-X-X-X-X-X-X-X-X-X-X-X-X-X=X-X-X-X-X-X-X-X-X-X-X-X-X-X-X-X-X-X-X-X-X-X-X-X-X-X-X-X-X-X-X-X-X-X-X-X-X-X-X-X-X-X-X",
"-X-X-X-X-X-X-X-X-X-X-X-X-X-X-X-X-X-X-X-X-X&X-X-X-X-X-X-X-X-X-X-X-X-X-X-X-X-X-X-X-X-X-X-X-X-X-X-X-X-X-X-X-X-X-X-X-X-X-X-X-X-X-X-X",
"-X-X-X-X-X-X-X-X-X-X-X-X-X-X-X-X-X-X-X-X-X#XL.:.R.-X-X-X-X-X-X-X-X-X-X-X-X-X-X-X-X-X-X-X-X-X-X-X-X-X-X-X-X-X-X-X-X-X-X-X-X-X-X-X",
"-X-X-X-X-X-X-X-X-X-X-X-X-X-X-X-X-X-X-XG.A.k.L.L *.B.R.-X-X-X-X-X-X-X-X-X-X-X-X-X-X-X-X-X-X-X-X-X-X-X-X-X-X-X-X-X-X-X-X-X-X-X-X-X",
"-X-X-X-X-X-X-X-X-X-X-X-X-X-X-X-X-X-X;.&.7.@X9.@ 2 %.N.-X-X-X-X-X-X-X-X-X-X-X-X-X-X-X-X-X-X-X-X-X-X-X-X-X-X-X-X-X-X-X-X-X-X-X-X-X",
"-X-X-X-X-X-X-X-X-X-X-X-X-X-X-X-X-X&.&.I d.d.6 3 # < T B.-X-X-X-X-X-X-X-X-X-X-X-X-X-X-X-X-X-X-X-X-X-X-X-X-X-X-X-X-X-X-X-X-X-X-X-X",
"-X-X-X-X-X-X-X-X-X-X-X-X-X-X-X-X-Xz s a G.V.O.r 5 # L -XZ.-X-X-X-X-X-X-X-X-X-X-X-X-X-X-X-X-X-X-X-X-X-X-X-X-X-X-X-X-X-X-X-X-X-X-X",
"-X-X-X-X-X-X-X-X-X-X-X-X-X-X-X-X! p $.y F.C.5.6./ # < N.-X-X-X-X-X-X-X-X-X-X-X-X-X-X-X-X-X-X-X-X-X-X-X-X-X-X-X-X-X-X-X-X-X-X-X-X",
"-X-X-X-X-X-X-X-X-X-X-X-X-X-X-X~ { { <.* F.M.6.|.5.# = *.E.f . e -X-X-X-X-X-X-X-X-X-X-X-X-X-X-X-X-X-X-X-X-X-X-X-X-X-X-X-X-X-X-X-X",
"-X-X-X-X-X-X-X-X-X-X-X-X-X-X-XU [.l.W k 6.;.D.|.1.4 O E :.. + ] A C -X-X-X-X-X-X-X-X-X-X-X-X-X-X-X-X-X-X-X-X-X-X-X-X-X-X-X-X-X-X",
"-X-X-X-X-X-X-X-X-X-X-X-X-X-X-XOX*X7.k C  .1.5.}.<.3 < P g e Z C 3.' C -X-X-X-X-X-X-X-X-X-X-X-X-X-X-X-X-X-X-X-X-X-X-X-X-X-X-X-X-X",
"-X-X-X-X-X-X-X-X-X-X-X-X-X-X-X-Xf.K M B J S k.XXx 5 = d s X.} u | 3.' 0 -X-X-X-X-X-X-X-X-X-X-X-X-X-X-X-X-X-X-X-X-X-X-X-X-X-X-X-X",
"-X-X-X-X-X-X-X-X-X-X-X-X-X-X-X-X-X* B N > n 5.`.F #   d m I.g.} ' ' _ } e -X-X-X-X-X-X-X-X-X-X-X-X-X-X-X-X-X-X-X-X-X-X-X-X-X-X-X",
"-X-X-X-X-X-X-X-X-X-X-X-X-X-X-X-X-X% N N N v 8. X[ & 5 # _ P.e.g.X.X.A _ S -X-X-X-X-X-X-X-X-X-X-X-X-X-X-X-X-X-X-X-X-X-X-X-X-X-X-X",
"-X-X-X-X-X-X-X-X-X-X-X-X-X-X-X-X-X% N G -Xn ,.oX#.p 9 # ..Y.I....._ A _  .w.-X-X-X-X-X-X-X-X-X-X-X-X-X-X-X-X-X-X-X-X-X-X-X-X-X-X",
"-X-X-X-X-X-X-X-X-X-X-X-X-X-X-X-X-Xo N -X-X3 ,.{./ k 5 5 u.I.h.U.c.e.n J s.t.-X-X-X-X-X-X-X-X-X-X-X-X-X-X-X-X-X-X-X-X-X-X-X-X-X-X",
"-X-X-X-X-X-X-X-X-X-X-X-X-X-X-X-X-Xo -X-X-Xt o.|.^ p + & u.c.+XU.c.U.0.V  .t.r.-X-X-X-X-X-X-X-X-X-X-X-X-X-X-X-X-X-X-X-X-X-X-X-X-X",
"-X-X-X-X-X-X-X-X-X-X-X-X-X-X-X-X-X. -X-X-X) k {.2.q # 0 s.c.b.x.e.x.x.J w N a.-X-X-X-X-X-X-X-X-X-X-X-X-X-X-X-X-X-X-X-X-X-X-X-X-X",
"-X-X-X-X-X-X-X-X-X-X-X-X-X-X-X$X3 # + -X3 5 + 1.4.u . w s.x.m.p.q.q.a.G : + 9.-X-X-X-X-X-X-X-X-X-X-X-X-X-X-X-X-X-X-X-X-X-X-X-X-X",
"-X-X-X-X-X-X-X-X-X-X-X-X-X-Xz.n.i.+ . # ) 5 $ . x p $ b p.p.a.9.9.0.q.J : -Xv -X-X-X-X-X-X-X-X-X-X-X-X-X-X-X-X-X-X-X-X-X-X-X-X-X",
"-X-X-X-X-X-X-X-X-X-X-X-X-X-X-X-XOX-X-X-X-X-X-X-Xp q * N y.B w & # 8 S N : -X-X% -X-X-X-X-X-X-X-X-X-X-X-X-X-X-X-X-X-X-X-X-X-X-X-X",
"-X-X-X-X-X-X-X-X-X-X-X-X-X-X-X-X-X-X-Xu.q & & # 3 + % G Q l r * p t m H v o -Xo -X-X-X-X-X-X-X-X-X-X-X-X-X-X-X-X-X-X-X-X-X-X-X-X",
"-X-X-X-X-X-X-X-X-X-X-X-X-X-X-X-X-X-X@X+Xv.8 $ +     ; % c +.j ^ m * n H v   -X-X-X-X-X-X-X-X-X-X-X-X-X-X-X-X-X-X-X-X-X-X-X-X-X-X",
"-X-X-X-X-X-X-X-X-X-X-X-X-X-X-X-X-X-X-X-X%X-X-X. -X-X* . o l 1.X.m & , n , X -X-X-X-X-X-X-X-X-X-X-X-X-X-X-X-X-X-X-X-X-X-X-X-X-X-X",
"-X-X-X-X-X-X-X-X-X-X-X-X-X-X-X-X-X-X-X-X-X-X-X-X-X. * . o = ' X.9 + $ :     O -X-X-X-X-X-X-X-X-X-X-X-X-X-X-X-X~.-X-X-X-X-X-X-X-X",
"-X-X-X-X-X-X-X-X-X-X-X-X-X-X-X-X-X-X-X-X-X-X-X-X-X# 4 . . + { _ *   o %     O -X-X-X-X-X-X-X-X-X-X-X-X-X-X-X^.Z.-X-X-X-X-X-X-X-X",
"-X-X-X-X-X-X-X-X-X-X-X-X-X-X-X-X-X-X-X-X$X| + . -X+ # .   -XX.q . s j 7       - -X-X-X-X-X-X-X-X-X-X-X-X(.J.:.*.-X-X-X-X-X-X-X-X",
"-X-X-X-X-X-X-X-X-X-X-X-X-X-X-X-X-X-X-Xn.z.-X. . 9 6 +   -X5 p &   s 1.h $     O +.-X-X-X-X-X-X-X-X-X-XW.^.K.B.-X-X-X-X-X-X-X-X-X",
"-X-X-X-X-X-X-X-X-X-X-X-X-X-X-X-X-X-X-X-X-X-X-X$ 9 5 % . . 4 q 5   -X-XI j     + &.F.).-X-X-X-X-X-X-X-XT.~.A.H.-X-X-X-X-X-X-X-X-X",
"-X-X-X-X-X-X-X-X-X-X-X-X-X-X-X-X-X-X-X-X-X-X-X-X-X-X    -X-X3 q . -X-X-Xl -   4 # +.P V.Y -X-X-X-X-X~.Z.Q.J.-X-X-X-X-X-X-X-X-X-X",
"-X-X-X-X-X-X-X-X-X-X-X-X-X-X-X-X-X-X-X-X-X-X-X-X-X-X-X& + -X3 9 . -X-X-X-X1 r U ) ` ` s < -.!.J.M.-.z -._.-X-X-X-X-X-X-X-X-X-X-X",
"-X-X-X-X-X-X-X-X-X-X-X-X-X-X-X-X-X-X-X-X-X-X-X-X-X&Xu.9 & $ 9 $   -X-X-X-X-X-Xj 1.2.j.g.k i i k ^ [ x -X-X-X-X-X-X-X-X-X-X-X-X-X",
"-X-X-X-X-X-X-X-X-X-X-X-X-X-X-X-X-X-X-X-X-X-X-X-X-XOX*Xn.0         -X-X-X-X-X-X-X-X-X#.5.F ,.<.,.U -X-X-X-X-X-X-X-X-X-X-X-X-X-X-X",
"-X-X-X-X-X-X-X-X-X-X-X-X-X-X-X-X-X-X-X-X-X-X-X-X-X-X-X-X-X-X-X-X-X-X-X-X-X-X-X-X-X-X-X-X-X-X-X-X-X-X-X-X-X-X-X-X-X-X-X-X-X-X-X-X",
"-X-X-X-X-X-X-X-X-X-X-X-X-X-X-X-X-X-X-X-X-X-X-X-X-X-X-X-X-X-X-X-X-X-X-X-X-X-X-X-X-X-X-X-X-X-X-X-X-X-X-X-X-X-X-X-X-X-X-X-X-X-X-X-X",
"-X-X-X-X-X-X-X-X-X-X-X-X-X-X-X-X-X-X-X-X-X-X-X-X-X-X-X-X-X-X-X-X-X-X-X-X-X-X-X-X-X-X-X-X-X-X-X-X-X-X-X-X-X-X-X-X-X-X-X-X-X-X-X-X",
"-X-X-X-X-X-X-X-X-X-X-X-X-X-X-X-X-X-X-X-X-X-X-X-X-X-X-X-X-X-X-X-X-X-X-X-X-X-X-X-X-X-X-X-X-X-X-X-X-X-X-X-X-X-X-X-X-X-X-X-X-X-X-X-X",
"-X-X-X-X-X-X-X-X-X-X-X-X-X-X-X-X-X-X-X-X-X-X-X-X-X-X-X-X-X-X-X-X-X-X-X-X-X-X-X-X-X-X-X-X-X-X-X-X-X-X-X-X-X-X-X-X-X-X-X-X-X-X-X-X",
"-X-X-X-X-X-X-X-X-X-X-X-X-X-X-X-X-X-X-X-X-X-X-X-X-X-X-X-X-X-X-X-X-X-X-X-X-X-X-X-X-X-X-X-X-X-X-X-X-X-X-X-X-X-X-X-X-X-X-X-X-X-X-X-X",
"-X-X-X-X-X-X-X-X-X-X-X-X-X-X-X-X-X-X-X-X-X-X-X-X-X-X-X-X-X-X-X-X-X-X-X-X-X-X-X-X-X-X-X-X-X-X-X-X-X-X-X-X-X-X-X-X-X-X-X-X-X-X-X-X",
"-X-X-X-X-X-X-X-X-X-X-X-X-X-X-X-X-X-X-X-X-X-X-X-X-X-X-X-X-X-X-X-X-X-X-X-X-X-X-X-X-X-X-X-X-X-X-X-X-X-X-X-X-X-X-X-X-X-X-X-X-X-X-X-X",
"-X-X-X-X-X-X-X-X-X-X-X-X-X-X-X-X-X-X-X-X-X-X-X-X-X-X-X-X-X-X-X-X-X-X-X-X-X-X-X-X-X-X-X-X-X-X-X-X-X-X-X-X-X-X-X-X-X-X-X-X-X-X-X-X",
"-X-X-X-X-X-X-X-X-X-X-X-X-X-X-X-X-X-X-X-X-X-X-X-X-X-X-X-X-X-X-X-X-X-X-X-X-X-X-X-X-X-X-X-X-X-X-X-X-X-X-X-X-X-X-X-X-X-X-X-X-X-X-X-X"
};
