/* XPM */
static char *result[] = {
/* columns rows colors chars-per-pixel */
"64 64 217 2 ",
"   c #000400",
".  c #020C02",
"X  c #0A0B03",
"o  c #120D04",
"O  c #031403",
"+  c #0B1205",
"@  c #041C04",
"#  c #091C06",
"$  c #071508",
"%  c #0B150B",
"&  c #071C08",
"*  c #0B1D0B",
"=  c #131606",
"-  c #0B1D10",
";  c #121C12",
":  c #101212",
">  c #241B04",
",  c #062206",
"<  c #072208",
"1  c #0B240C",
"2  c #0C2A0C",
"3  c #082706",
"4  c #15260B",
"5  c #0C300C",
"6  c #0F2511",
"7  c #0E2A11",
"8  c #132413",
"9  c #1B2413",
"0  c #132C14",
"q  c #1C2C13",
"w  c #1B251C",
"e  c #1D2B19",
"r  c #162919",
"t  c #0F3112",
"y  c #143316",
"u  c #153419",
"i  c #1C321D",
"p  c #1B3A1D",
"a  c #183013",
"s  c #11380D",
"d  c #29260A",
"f  c #3C2A09",
"g  c #3E3109",
"h  c #2A2914",
"j  c #352C13",
"k  c #3D2E10",
"l  c #2B3313",
"z  c #25371A",
"x  c #3C321B",
"c  c #383918",
"v  c #1A1F23",
"b  c #1E2324",
"n  c #1E2926",
"m  c #1E3822",
"M  c #212C23",
"N  c #252A29",
"B  c #243924",
"V  c #2B3A23",
"C  c #253329",
"Z  c #273626",
"A  c #292D31",
"S  c #2B3534",
"D  c #2F333C",
"F  c #31383C",
"G  c #353F2D",
"H  c #462E09",
"J  c #422807",
"K  c #4D3B0D",
"L  c #55350B",
"P  c #423313",
"I  c #453B16",
"U  c #493718",
"Y  c #4A3D1A",
"T  c #413E1C",
"R  c #653F11",
"E  c #483528",
"W  c #61352A",
"Q  c #154014",
"!  c #39411A",
"~  c #1F4922",
"^  c #2B432D",
"/  c #2C4B2B",
"(  c #254827",
")  c #354426",
"_  c #32562A",
"`  c #2E4332",
"'  c #344334",
"]  c #3B4C34",
"[  c #364839",
"{  c #335336",
"}  c #3B5135",
"|  c #3A533E",
" . c #3A593C",
".. c #3A5D30",
"X. c #2A502D",
"o. c #4E400F",
"O. c #4B401A",
"+. c #5A4614",
"@. c #69440F",
"#. c #6B4B13",
"$. c #684715",
"%. c #724610",
"&. c #744E14",
"*. c #7A4D13",
"=. c #7D5816",
"-. c #5C641E",
";. c #656817",
":. c #7B6319",
">. c #7D721A",
",. c #44563A",
"<. c #555031",
"1. c #735929",
"2. c #42643F",
"3. c #446323",
"4. c #716635",
"5. c #353B43",
"6. c #3A3D47",
"7. c #3C4243",
"8. c #3A4946",
"9. c #3C5244",
"0. c #3D5B41",
"q. c #3E4451",
"w. c #3F6142",
"e. c #454749",
"r. c #48484B",
"t. c #455849",
"y. c #414651",
"u. c #454C54",
"i. c #494C5C",
"p. c #474B5A",
"a. c #4B5C53",
"s. c #4D545D",
"d. c #485757",
"f. c #54545A",
"g. c #585B4C",
"h. c #765649",
"j. c #436343",
"k. c #476749",
"l. c #556948",
"z. c #4D764E",
"x. c #4B6453",
"c. c #4C6B52",
"v. c #4C625A",
"b. c #566A5C",
"n. c #54715D",
"m. c #567C5C",
"M. c #587954",
"N. c #4E7753",
"B. c #60714B",
"V. c #637C56",
"C. c #4B4D61",
"Z. c #4E5A61",
"A. c #4D5464",
"S. c #515E64",
"D. c #555869",
"F. c #506162",
"G. c #597567",
"H. c #656A68",
"J. c #607C70",
"K. c #6B6D71",
"L. c #875916",
"P. c #935D1A",
"I. c #84661A",
"U. c #8C641A",
"Y. c #93691C",
"T. c #98661C",
"R. c #837A1A",
"E. c #95791D",
"W. c #826920",
"Q. c #976822",
"!. c #9D7C22",
"~. c #907E2D",
"^. c #9A7B34",
"/. c #A77B26",
"(. c #AA752A",
"). c #9D7F45",
"_. c #846E4A",
"`. c #8F7E7D",
"'. c #58805C",
"]. c #658758",
"[. c #758657",
"{. c #648070",
"}. c #788C6B",
"|. c #99861D",
" X c #8F981E",
".X c #9A921D",
"XX c #9D8425",
"oX c #9F9825",
"OX c #A78124",
"+X c #AC9626",
"@X c #B3952A",
"#X c #A98538",
"$X c #B29133",
"%X c #9FA028",
"&X c #AEAA2A",
"*X c #CC9A29",
"=X c #969752",
"-X c #A9944C",
";X c #B1984E",
":X c #879E71",
">X c #9C9370",
",X c #AB9C60",
"<X c #99B37D",
"1X c #8AA972",
"2X c #C2A651",
"3X c #C2AE62",
"4X c #999794",
"5X c #858383",
"6X c #AD9A84",
"7X c #A1A0A5",
"8X c #B0B2AC",
"9X c #BEBFB9",
"0X c #BACE92",
"qX c #CBDE9E",
"wX c #C6E19B",
"eX c #D0EAA3",
"rX c None",
/* pixels */
"rXrXrXrXrXrXrXrXrXrXrXrXrXrXrXrXrXrXrXrXrXrXrXrXrXrXrXrXrXrXrXrXrXrXrXrXrXrXrXrXrXrXrXrXrXrXrXrXrXrXrXrXrXrXrXrXrXrXrXrXrXrXrXrX",
"rXrXrXrXrXrXrXrXrXrXrXrXrXrXrXrXrXrXrXrXrXrXrXrXrXrXrXrXrXrXrXrXrXrXrXrXrXrXrXrXrXrXrXrXrXrXrXrXrXrXrXrXrXrXrXrXrXrXrXrXrXrXrXrX",
"rXrXrXrXrXrXrXrXrXrXrXrXrXrXrXrXrXrXrXrXrXrXrXrXrXrXrXrXrXrXrXrXrXrXrXrXrXrXrXrXrXrXrXrXrXrXrXrXrXrXrXrXrXrXrXrXrXrXrXrXrXrXrXrX",
"rXrXrXrXrXrXrXrXrXrXrXrXrXrXrXrXrXrXrXrXrXrXrXrXrXrXrXrXrXrXrXrXrXrXrXrXrXrXrXrXrXrXrXrXrXrXrXrXrXrXrXrXrXrXrXrXrXrXrXrXrXrXrXrX",
"rXrXrXrXrXrXrXrXrXrXrXrXrXrXrXrXrXrXrXrXrXrXrXrXrXrXrXrXrXrXrXrXrXrXrXrXrXrXrXrXrXrXrXrXrXrXrXrXrXrXrXrXrXrXrXrXrXrXrXrXrXrXrXrX",
"rXrXrXrXrXrXrXrXrXrXrXrXrXrXrXrXrXrXrXrXrXrXrXrXrXrXrXrXrXrXrXrXrXrXrXrXrXrXrXrXrXrXrXrXrXrXrXrXrXrXrXrXrXrXrXrXrXrXrXrXrXrXrXrX",
"rXrXrXrXrXrXrXrXrXrXrXrXrXrXrXrXrXrXrXrXrXrXrXrXrXrXrXrXrXrXrXrXrXrXrXrXrXrXrXrXrXrXrXrXrXrXrXrXrXrXrXrXrXrXrXrXrXrXrXrXrXrXrXrX",
"rXrXrXrXrXrXrXrXrXrXrXrXrXrXrXrXrXrXrXrXrXrXrXrXrXrXrXrXrXrXrXrXrXrXrXrXrXrXrXrXrXrXrXrXrXrXrXrXrXrXrXrXrXrXrXrXrXrXrXrXrXrXrXrX",
"rXrXrXrXrXrXrXrXrXrXrXrXrXrXrXrXrXrXrXrXrXrXrXrXrXrXrXrXrXrXrXrXrXrXrXrXrXrXrXrXrXrXrXrXrXrXrXrXrXrXrXrXrXrXrXrXrXrXrXrXrXrXrXrX",
"rXrXrXrXrXrXrXrXrXrXrXrXrXrXrXrXrXrXrXrXrXrXrXrXrXrXrXrXrXrXrXrXrXrXrXrXrXrXrXrXrXrXrXrXrXrXrXrXrXrXrXrXrXrXrXrXrXrXrXrXrXrXrXrX",
"rXrXrXrXrXrXrXrXrXrXrXrXrXrXrXrXrXrXrXrXrXrXrXrXrXrXrXrXrXrXrXrXrXrXrXrXrXrXrXrXrXrXrXrXrXrXrXrXrXrXrXrXrXrXrXrXrXrXrXrXrXrXrXrX",
"rXrXrXrXrXrXrXrXrXrXrXrXrXrXrXrXrXrXrXrXrXrXrXrXrXrXrXrXrXrXrXrXrXrXrXrXrXrXrXrXrXrXrXrXrXrXrXrXrXrXrXrXrXrXrXrXrXrXrXrXrXrXrXrX",
"rXrXrXrXrXrXrXrXrXrXrXrXrXrXrXrXrXrXrXrXrXrXrXrXrXrXrXrXrXrXrXrXrXrXrXrXrXrXrXrXrXrXrXrXrXrXrXrXrXrXrXrXrXrXrXrXrXrXrXrXrXrXrXrX",
"rXrXrXrXrXrXrXrXrXrXrXrXrXrXrXrXrXrXrXrXrXrXrXrXrXrXrXrXrXrXrXrXrXrXrXrXrXrXrXrXrXrXrXrXrXrXrXrXrXrXrXrXrXrXrXrXrXrXrXrXrXrXrXrX",
"rXrXrXrXrXrXrXrXrXrXrXrXrXrXrXrXrXrXrXrXrXrXrXrXrXrXrXrXrXrXrXrXrXrXrXrXrXrXrXrXrXrXrXrXrXrXrXrXrXrXrXrXrXrXrXrXrXrXrXrXrXrXrXrX",
"rXrXrXrXrXrXrXrXrXrXrXrXrXrXrXrXrXrXrXrXrXrXrXrXrXrXrXrXrXrXrXrXrXrXrXrXrXrXrXrXrXrXrXrXrXrXrXrXrXrX% % % . rXrXrXrXrXrXrXrXrXrX",
"rXrXrXrXrXrXrXrXrXrXrXrXrXrXrXrXrXrXrXrXrXrXrXrXrXrXrX. O $ % % % * ; ; * * < 2 1 1 1 1 6 r 8 9 ; + rXrXrXrXrXrXrXrXrXrXrXrXrXrX",
"rXrXrXrXrXrXrXrXrXrXrXrXrXrXrXrXrXrXrXrXrXrXrXrX$ ] l.k.k.0.| [ C M 0 1 8 r w n w b b b v v N rXrXrXrXrXrXrXrXrXrXrXrXrXrXrXrXrX",
"rXrXrXrXrXrXrXrXrXrXrXrXrXrXrXrXrXrXrXrXrXrX.   h } ,.k.z.z.{ u B ' 2.w.j.t.9.[ S ' N D A rXrXrXrXrXrXrXrXrXrXrXrXrXrXrXrXrXrXrX",
"rXrXrXrXrXrXrXrXrXrXrXrXrXrXrXrXrXrXrXrXrX$ % V l.].M...0 2 , i l.2.2.N.M.N.c.a.d.d.5.q.rXrXrXrXrXrXrXrXrXrXrXrXrXrXrXrXrXrXrXrX",
"rXrXrXrXrXrXrXrXrXrXXX+X.X/.=XrXrXrXrXrXrX* 9 B.[.V.} y 3 @ # 0 B / ^ B r m ` 9.v.u.u.s.rXrXrXrXrXrXrXrXrXrXrXrXrXrXrXrXrXrXrXrX",
"rXrXrXrXrXrXrXrX3 o.#.Q.Q._.6X>XR.rXrXrXrXrX6 l.<X:X2 3 4 G ' ] }  . .c.[ ` M w 8 7.6.D.rXrXrXrXrXrXrXrXrXrXrXrXrXrXrXrXrXrXrXrX",
"rXrXrXrXrXY s Q ! -.! g.K.4Xg.P &.&XrXrXrXrXrXV qXqX].w ,.t.,.|  .| ' k.G.8.8.S A N w e.rXrXrXrXrXrXrXrXrXrXrXrXrXrXrXrXrXrXrXrX",
"rXrXrXrXrXV.}..._ 3.-.(.<.a 3 O H I.rXrXrXrXrX* 0XeX1X1 E ,.] c.c.x.8.u.J.G.6.e.D D D N % M rXrXrXrXrXrXrXrXrXrXrXrXrXrXrXrXrXrX",
"rXrXrXrXrXrX`.h.<.l (.T.>.G i 2 @ J |.rXrXrXrX@ :XwX<X@ N G ,.c.{.9.v.9.S.S.C.C.5.rXrXrXrXrX% X rXrXrXrXrXrXrXrXrXrXrXrXrXrXrXrX",
"rXrXrXrXrX4XW x ;.*.U.Q.~.1.1.) 3 = L.|.rXrXrXO e V.].@ z ,.,.j.c.q.Z.Z.A.C.H.rXrXrXrXrXrXrXrXrXrXrXrXrXrXrXrXrXrXrXrXrXrXrXrXrX",
"rXrXrXrXrX; rXrXrX$X*.XXrXrX#X4.1 . @.E.rXrXrXO ,.l.i & ] 2.k.0.G.v.q.D.6.K.rXrXrXrXrXrXrXrXrXrXrXrXrXrXrXrXrXrXrXrXrXrXrXrXrXrX",
"rXrXrXrXrXrXrXrXrX+X&XrXrXrX3X^.p O L T. XrXO ] :XV.1 - [ k.w.0.n.v.F.Z.A.rXrXrXrXrXrXrXrXrXrXrXrXrXrXrXrXrXrXrXrXrXrXrXrXrXrXrX",
"rXrXrXrXrXrXrXrXrXrXrXrXrXrX2X;XB @ H P.|.rXV <X}.q $ ; 8 B w.{ x.v.Z.D.C.rXrXrXrXrXrXrXrXrXrXrXrXrXrXrXrXrXrXrXrXrXrXrXrXrXrXrX",
"rXrXrXrXrXrXrXrXrXrXrXrXrXrX,X;X^ , > L.#.@ [.M., O r w.0.' n ^ 9.v.Z.C.rXrXrXrXrXrXrXrXrXrXrXrXrXrXrXrXrXrXrXrXrXrXrXrXrXrXrXrX",
"rXrXrXrXrXrXrXrXrXrXrXrXrXrX-X#X/ @ . @.g q z @ O B N.'.t.9.` n r N p.u.rXrXrXrXrXrXrXrXrXrXrXrXrXrXrXrXrXrXrXrXrXrXrXrXrXrXrXrX",
"rXrXrXrXrXrXrXrXrXrXrXrXrXrX;X2X/ 2 0 O 5 t < + l.N.G.n.v.8.5.5.A w b 6.rXrXrXrXrXrXrXrXrXrXrXrXrXrXrXrXrXrXrXrXrXrXrXrXrXrXrXrX",
"rXrXrXrXrXrXrXrXrXrXrXrXrXrX<.3Xz p 0 O @ < % ^ m.n.G.v.u.y.r.rXrXD A N rXrXrXrXrXrXrXrXrXrXrXrXrXrXrXrXrXrXrXrXrXrXrXrXrXrXrXrX",
"rXrXrXrXrXrXrXrXrXrXrXrXrXrX4 #X( ( 6 O @ O . ^ c.n.d.s.y.rXrXrXrXrXrX: X rXrXrXrXrXrXrXrXrXrXrXrXrXrXrXrXrXrXrXrXrXrXrXrXrXrXrX",
"rXrXrXrXrXrXrXrX9XB rXrXrXrX< -X_ u & O 2 @ @ @ r t.s.p.E L.rXrXrXrXrXrXrX. rXrXrXrXrXrXrXrXrXrXrXrXrXrXrXrXrXrXrXrXrXrXrXrXrXrX",
"rXrXrXrXrXrXrXrX4Xa.O O O rXt ! / a @ 6 0 2 < @ , * 5.S f $.%.;.rXrXrXrXrXrXrXrXrXrXrXrXrXrXrXrXrXrXrXrXrXrXrXrXrXrXrXrXrXrXrXrX",
"rXrXrXrXrXrXrXrXrXrXrX. @ @ < 6 ( 8 + c i 0 2 1 1 @ 2 t $ f L L rXrXrXrXrXrXrXrXrXrXrXrXrXrXrXrXrXrXrXrXrXrXrXrXrXrXrXrXrXrXrXrX",
"rXrXrXrXrXrXrXrXrXrXH.0 $ 1 6 & p 1 j $.c h q 6 1 7 ~ u $   > %.T.rXrXrXrXrXrXrXrXrXrXrXrXrXrXrXrXrXrXrXrXrXrXrXrXrXrXrXrXrXrXrX",
"rXrXrXrXrXrXrXrXrX7X8Xb.1 * & @ @ % X h U U P l e p X.7 $   o K L..XrXrXrXrXrXrXrXrXrXrXrXrXrXrXrXrXrXrXrXrXrXrXrXrXrXrXrXrXrXrX",
"rXrXrXrXrXrXrXrXrXrXrXrXrXrX$ $ & .   rXrXj j I g z { r O .   > %.=.|.rXrXrXrXrXrXrXrXrXrXrXrXrXrXrXrXrXrXrXrXrXrXrXrXrXrXrXrXrX",
"rXrXrXrXrXrXrXrXrXrXrXrXrXrXrXrXrX  rXrXrXrX1 d P O.{ u . . X . X :.=.OXoXrXrXrXrXrXrXrXrXrXrXrXrXrXrXrXrXrXrXrXrXrXrXrXrXrXrXrX",
"rXrXrXrXrXrXrXrXrXrXrXrXrXrXrXrXrXrXrXrXrXrX2 < . p ( 0 . $ * $ O O d H I.OXrXrXrXrXrXrXrXrXrXrXrXrXrXrXrXrXrXrXrXrXrXrXrXrXrXrX",
"rXrXrXrXrXrXrXrXrXrXrXrXrXrXrXrXrXrXrXrXrXrX< & O y ( 6 . > j 9 1 < @ @ = R Q.OXrXrXrXrXrXrXrXrXrXrXrXrXrXrXrXrXrXrXrXrXrXrXrXrX",
"rXrXrXrXrXrXrXrXrXrXrXrXrXrXrXrXrXrXrXrXrXrXrX. . 1 ( 6 6 & h d d l q 3 , @ o.f /.OXrXrXrXrXrXrXrXrXrXrXrXrXrXrXrXrXrXrXrXrXrXrX",
"rXrXrXrXrXrXrXrXrXrXrXrXrXrXrXrXrXrXrXrXrXrXrXrXrXrX6 < m u 8 @ X j Y I c 0 2 3 d @.E.rXrXrXrXrXrXrXrXrXrXrXrXrXrXrXrXrXrXrXrXrX",
"rXrXrXrXrXrXrXrXrXrXrXrXrXrXrXrXrXrXrXrXrXrXrXrXrXrX. O @ < i 0   rXrXrXY O.O.c a 3 d +.L.Y.rXrXrXrXrXrXrXrXrXrXrXrXrXrXrXrXrXrX",
"rXrXrXrXrXrXrXrXrXrXrXrXrXrXrXrXrXrXrXrXrXrXrXrXrXrXrXrX@   n 6 . rXrXrXrXrXrXP Y T ! a 1 g o.I.XXrXrXrXrXrXrXrXrXrXrXrXrXrXrXrX",
"rXrXrXrXrXrXrXrXrXrXrXrXrXrXrXrXrXrXrXrXrXrXrXrXrXrXrXrX& @ - / 0 rXrXrXrXrXrXrXrXrXrXx c l ! a l K U.@X/.(.@XrXrXrXrXrXrXrXrXrX",
"rXrXrXrXrXrXrXrXrXrXrXrXrXrXrXrXrXrXrXrXrXrXrXrXrXrXrXrXrX,.6.B p rXrXrXrXrXrXrXrXrXrXrXrXrXrXrXI +.>.%X%XXX$.L.!.rXrXrXrXrXrXrX",
"rXrXrXrXrXrXrXrXrXrXrXrXrXrXrXrXrXrXrXrXrXrXrXrXrXrXrXrXrXrXf.8 / rXrXrXrXrXrXrXrXrXrXrXrXrXrXrXrXrX>.!.T.R.:.#.&.!.&XrXrXrXrXrX",
"rXrXrXrXrXrXrXrXrXrXrXrXrXrXrXrXrXrXrXrXrXrXrXrXrXrXrXrXrXrXrX1 C 5XrXrXrXrXrXrXrXrXrXrXrXrXrXrXrXrXrXrXrX(.*XrXrXrXrXrXrXrXrXrX",
"rXrXrXrXrXrXrXrXrXrXrXrXrXrXrXrXrXrXrXrXrXrXrXrXrXrXrXrXrXrXrXrXN e.rXrXrXrXrXrXrXrXrXrXrXrXrXrXrXrXrXrXrXrXrXrXrXrXrXrXrXrXrXrX",
"rXrXrXrXrXrXrXrXrXrXrXrXrXrXrXrXrXrXrXrXrXrXrXrXrXrXrXrXrXrXrXrXrXrXrXrXrXrXrXrXrXrXrXrXrXrXrXrXrXrXrXrXrXrXrXrXrXrXrXrXrXrXrXrX",
"rXrXrXrXrXrXrXrXrXrXrXrXrXrXrXrXrXrXrXrXrXrXrXrXrXrXrXrXrXrXrXrXrXrXrXrXrXrXrXrXrXrXrXrXrXrXrXrXrXrXrXrXrXrXrXrXrXrXrXrXrXrXrXrX",
"rXrXrXrXrXrXrXrXrXrXrXrXrXrXrXrXrXrXrXrXrXrXrXrXrXrXrXrXrXrXrXrXrXrXrXrXrXrXrXrXrXrXrXrXrXrXrXrXrXrXrXrXrXrXrXrXrXrXrXrXrXrXrXrX",
"rXrXrXrXrXrXrXrXrXrXrXrXrXrXrXrXrXrXrXrXrXrXrXrXrXrXrXrXrXrXrXrXrXrXrXrXrXrXrXrXrXrXrXrXrXrXrXrXrXrXrXrXrXrXrXrXrXrXrXrXrXrXrXrX",
"rXrXrXrXrXrXrXrXrXrXrXrXrXrXrXrXrXrXrXrXrXrXrXrXrXrXrXrXrXrXrXrXrXrXrXrXrXrXrXrXrXrXrXrXrXrXrXrXrXrXrXrXrXrXrXrXrXrXrXrXrXrXrXrX",
"rXrXrXrXrXrXrXrXrXrXrXrXrXrXrXrXrXrXrXrXrXrXrXrXrXrXrXrXrXrXrXrXrXrXrXrXrXrXrXrXrXrXrXrXrXrXrXrXrXrXrXrXrXrXrXrXrXrXrXrXrXrXrXrX",
"rXrXrXrXrXrXrXrXrXrXrXrXrXrXrXrXrXrXrXrXrXrXrXrXrXrXrXrXrXrXrXrXrXrXrXrXrXrXrXrXrXrXrXrXrXrXrXrXrXrXrXrXrXrXrXrXrXrXrXrXrXrXrXrX",
"rXrXrXrXrXrXrXrXrXrXrXrXrXrXrXrXrXrXrXrXrXrXrXrXrXrXrXrXrXrXrXrXrXrXrXrXrXrXrXrXrXrXrXrXrXrXrXrXrXrXrXrXrXrXrXrXrXrXrXrXrXrXrXrX",
"rXrXrXrXrXrXrXrXrXrXrXrXrXrXrXrXrXrXrXrXrXrXrXrXrXrXrXrXrXrXrXrXrXrXrXrXrXrXrXrXrXrXrXrXrXrXrXrXrXrXrXrXrXrXrXrXrXrXrXrXrXrXrXrX",
"rXrXrXrXrXrXrXrXrXrXrXrXrXrXrXrXrXrXrXrXrXrXrXrXrXrXrXrXrXrXrXrXrXrXrXrXrXrXrXrXrXrXrXrXrXrXrXrXrXrXrXrXrXrXrXrXrXrXrXrXrXrXrXrX",
"rXrXrXrXrXrXrXrXrXrXrXrXrXrXrXrXrXrXrXrXrXrXrXrXrXrXrXrXrXrXrXrXrXrXrXrXrXrXrXrXrXrXrXrXrXrXrXrXrXrXrXrXrXrXrXrXrXrXrXrXrXrXrXrX",
"rXrXrXrXrXrXrXrXrXrXrXrXrXrXrXrXrXrXrXrXrXrXrXrXrXrXrXrXrXrXrXrXrXrXrXrXrXrXrXrXrXrXrXrXrXrXrXrXrXrXrXrXrXrXrXrXrXrXrXrXrXrXrXrX"
};
