/* XPM */
static char *result[] = {
/* columns rows colors chars-per-pixel */
"64 64 217 2 ",
"   c #010400",
".  c #020C02",
"X  c #0B0D01",
"o  c #180F02",
"O  c #031303",
"+  c #0C1403",
"@  c #041B04",
"#  c #0D150C",
"$  c #071909",
"%  c #0A1C0B",
"&  c #091607",
"*  c #141104",
"=  c #141904",
"-  c #131D0B",
";  c #1A1F0B",
":  c #111B12",
">  c #171D19",
",  c #191F19",
"<  c #221805",
"1  c #052306",
"2  c #0C2307",
"3  c #072508",
"4  c #0B230C",
"5  c #0C2B0D",
"6  c #142209",
"7  c #1E220A",
"8  c #0E2610",
"9  c #0D2911",
"0  c #142413",
"q  c #1A2414",
"w  c #122B14",
"e  c #152219",
"r  c #1A251A",
"t  c #162918",
"y  c #153116",
"u  c #153519",
"i  c #1B361C",
"p  c #1A3A1D",
"a  c #163715",
"s  c #2B2104",
"d  c #22240D",
"f  c #2A240F",
"g  c #3B2708",
"h  c #2F3205",
"j  c #38370F",
"k  c #222C14",
"l  c #2C2912",
"z  c #222A18",
"x  c #3B2F11",
"c  c #342C13",
"v  c #243416",
"b  c #393715",
"n  c #1D1E22",
"m  c #1C2422",
"M  c #1F2E22",
"N  c #1E3B21",
"B  c #1F3426",
"V  c #242B2C",
"C  c #212928",
"Z  c #243224",
"A  c #2A3524",
"S  c #253A25",
"D  c #243229",
"F  c #2A3B2E",
"G  c #28392A",
"H  c #323722",
"J  c #272A31",
"K  c #2E353A",
"L  c #2D3936",
"P  c #313839",
"I  c #4B2E09",
"U  c #442908",
"Y  c #473A0B",
"T  c #52330B",
"R  c #5D390C",
"E  c #4D3B13",
"W  c #44391A",
"Q  c #413512",
"!  c #523F12",
"~  c #62390D",
"^  c #144011",
"/  c #384A19",
"(  c #27571E",
")  c #234225",
"_  c #2B4124",
"`  c #274C2A",
"'  c #2A4B29",
"]  c #27462A",
"[  c #38452C",
"{  c #304D2F",
"}  c #2C5728",
"|  c #2E4135",
" . c #3D4631",
".. c #31443A",
"X. c #344B3B",
"o. c #3B4838",
"O. c #2E5130",
"+. c #39503B",
"@. c #39583A",
"#. c #50470C",
"$. c #4A4418",
"%. c #584912",
"&. c #545717",
"*. c #61400F",
"=. c #71410F",
"-. c #6A4913",
";. c #654A13",
":. c #724D12",
">. c #794912",
",. c #685514",
"<. c #7A5616",
"1. c #6D6313",
"2. c #747019",
"3. c #7B6D18",
"4. c #544A23",
"5. c #435436",
"6. c #43503E",
"7. c #4C5A3A",
"8. c #45583A",
"9. c #454932",
"0. c #6F4129",
"q. c #784E22",
"w. c #6E5222",
"e. c #70662C",
"r. c #383E49",
"t. c #364243",
"y. c #3B414D",
"u. c #394844",
"i. c #3D5B46",
"p. c #3C5744",
"a. c #3F4254",
"s. c #43454E",
"d. c #43594D",
"f. c #54544E",
"g. c #424D51",
"h. c #444A5A",
"j. c #444958",
"k. c #475755",
"l. c #525F56",
"z. c #4D6144",
"x. c #476849",
"c. c #58684B",
"v. c #58785A",
"b. c #5B665D",
"n. c #64754F",
"m. c #627B5A",
"M. c #56596B",
"N. c #5A5E76",
"B. c #4F5665",
"V. c #57616F",
"C. c #516761",
"Z. c #587466",
"A. c #5D7370",
"S. c #5C6A73",
"D. c #68736B",
"F. c #767877",
"G. c #68696C",
"H. c #825817",
"J. c #84641A",
"K. c #99651D",
"L. c #82771D",
"P. c #97781E",
"I. c #A0671A",
"U. c #856420",
"Y. c #81722F",
"T. c #9B7023",
"R. c #917731",
"E. c #827336",
"W. c #A36F24",
"Q. c #A37821",
"!. c #8D7E6A",
"~. c #807873",
"^. c #578158",
"/. c #6D835F",
"(. c #71865A",
"). c #638A6B",
"_. c #6C9968",
"`. c #779D6B",
"'. c #788C61",
"]. c #7FA579",
"[. c #87891C",
"{. c #918D29",
"}. c #B2972B",
"|. c #AE8D2F",
" X c #AFA329",
".X c #B2AB2E",
"XX c #C4C436",
"oX c #938A4E",
"OX c #93825E",
"+X c #9F9054",
"@X c #9B9B4D",
"#X c #A38C4B",
"$X c #AE8B47",
"%X c #BB9E4B",
"&X c #829F6C",
"*X c #858270",
"=X c #80AD7A",
"-X c #99B67C",
";X c #B7A37C",
":X c #C9B151",
">X c #C8AA54",
",X c #C1B572",
"<X c #C2AC74",
"1X c #6A6A80",
"2X c #787A85",
"3X c #808083",
"4X c #998C85",
"5X c #979899",
"6X c #9F9587",
"7X c #A2A39F",
"8X c #B3B6AF",
"9X c #AFB1AF",
"0X c #B2D08D",
"qX c #B6CB8B",
"wX c #CBCAC9",
"eX c #E2E2E4",
"rX c None",
/* pixels */
"rXrXrXrXrXrXrXrXrXrXrXrXrXrXrXrXrXrXrXrXrXrXrXrXrXrXrXrXrXrXrXrXrXrXrXrXrXrXrXrXrXrXrXrXrXrXrXrXrXrXrXrXrXrXrXrXrXrXrXrXrXrXrXrX",
"rXrXrXrXrXrXrXrXrXrXrXrXrXrXrXrXrXrXrXrXrXrXrXrXrXrXrXrXrXrXrXrXrXrXrXrXrXrXrXrXrXrXrXrXrXrXrXrXrXrXrXrXrXrXrXrXrXrXrXrXrXrXrXrX",
"rXrXrXrXrXrXrXrXrXrXrXrXrXrXrXrXrXrXrXrXrXrXrXrXrXrXrXrXrXrXrXrXrXrXrXrXrXrXrXrXrXrXrXrXrXrXrXrXrXrXrXrXrXrXrXrXrXrXrXrXrXrXrXrX",
"rXrXrXrXrXrXrXrXrXrXrXrXrXrXrXrXrXrXrXrXrXrXrXrXrXrXrXrXrXrXrXrXrXrXrXrXrXrXrXrXrXrXrXrXrXrXrXrXrXrXrXrXrXrXrXrXrXrXrXrXrXrXrXrX",
"rXrXrXrXrXrXrXrXrXrXrXrXrXrXrXrXrXrXrXrXrXrXrXrXrXrXrXrXrXrXrXrXrXrXrXrXrXrXrXrXrXrXrXrXrXrXrXrXrXrXrXrXrXrXrXrXrXrXrXrXrXrXrXrX",
"rXrXrXrXrXrXrXrXrXrXrXrXrXrXrXrXrXrXrXrXrXrXrXrXrXrXrXrXrXrXrXrXrXrXrXrXrXrXrXrXrXrXrXrXrXrXrXrXrXrXrXrXrXrXrXrXrXrXrXrXrXrXrXrX",
"rXrXrXrXrXrXrXrXrXrXrXrXrXrXrXrXrXrXrXrXrXrXrXrXrXrXrXrXrXrXrXrXrXrXrXrXrXrXrXrXrXrXrXrXrXrXrXrXrXrXrXrXrXrXrXrXrXrXrXrXrXrXrXrX",
"rXrXrXrXrXrXrXrXrXrXrXrXrXrXrXrXrXrXrXrXrXrXrXrXrXrXrXrXrXrXrXrXrXrXrXrXrXrXrXrXrXrXrXrXrXrXrXrXrXrXrXrXrXrXrXrXrXrXrXrXrXrXrXrX",
"rXrXrXrXrXrXrXrXrXrXrXrXrXrXrXrXrXrXrXrXrXrXrXrXrXrXrXrXrXrXrXrXrXrXrXrXrXrXrXrXrXrXrXrXrXrXrXrXrXrXrXrXrXrXrXrXrXrXrXrXrXrXrXrX",
"rXrXrXrXrXrXrXrXrXrXrXrXrXrXrXrXrXrXrXrXrXrXrXrXrXrXrXrXrXrXrXrXrXrXrXrXrXrXrXrXrXrXrXrXrXrXrXrXrXrXrXrXrXrXrXrXrXrXrXrXrXrXrXrX",
"rXrXrXrXrXrXrXrXrXrXrXrXrXrXrXrXrXrXrXrXrXrXrXrXrXrXrXrXrXrXrXrXrXrXrXrXrXrXrXrXrXrXrXrXrXrXrXrXrXrXrXrXrXrXrXrXrXrXrXrXrXrXrXrX",
"rXrXrXrXrXrXrXrXrXrXrXrXrXrXrXrXrXrXrXrXrXrXrXrXrXrXrXrXrXrXrXrXrXrXrXrXrXrXrXrXrXrXrXrXrXrXrXrXrXrXrXrXrXrXrXrXrXrXrXrXrXrXrXrX",
"rXrXrXrXrXrXrXrXrXrXrXrXrXrXrXrXrXrXrXrXrXrXrXrXrXrXrXrXrXrXrXrXrXrXrXrXrXrXrXrXrXrXrXrXrXrXrXrXrXrXrXrXrXrXrXrXrXrXrXrXrXrXrXrX",
"rXrXrXrXrXrXrXrXrXrXrXrXrXrXrXrXrXrXrXrXrXrXrXrXrXrXrXrXrXrXrXrXrXrXrXrXrXrXrXrXrXrXrXrXrXrXrXrXrXrXrXrXrXrXrXrXrXrXrXrXrXrXrXrX",
"rXrXrXrXrXrXrXrXrXrXrXrXrXrXrXrXrXrXrXrXrXrXrXrXrXrXrXrXrXrXrXrXrXrXrXrXrXrXrXrXrXrXrXrXrXrXrXrXrXrXrXrXrXrXrXrXrXrXrXrXrXrXrXrX",
"rXrXrXrXrXrXrXrXrXrXrXrXrXrXrXrXrXrXrXrXrXrXrXrXrXrXrXrXrXrXrXrXrXrXrXrXrXrXrXrXrXrXrXrXrXrXrXrXrXrXrXrXrXrXrXrXrXrXrXrXrXrXrXrX",
"rXrXrXrXrXrXrXrXrXrXrXrXrXrXrXrXrXrXrXrXrXrXrXrXrXrXrXrXrXrXrXrXrXrXrXrXrXrXrXrXrXrXrXrXrXrXrXrXrXrXrXrXrXrXrXrXrXrXrXrXrXrXrXrX",
"rXrXrXrXrXrXrXrXrXrXrXrXrXrXrXrXrXrXrXrXrXrXrXrXrXrXrXrXrXrXrXrXrXrXrXrXrXrXrXrXrXrXrXrXrXrXrXrXrXrXrXrXrXrXrXrXrXrXrXrXrXrXrXrX",
"rXrXrXrXrXrXrXrXrXrXrXrXrXrXrXrXrXrXrXX # : rXrXrXrXrXrXrXrXrXrXrXrXrXrXrXrXrXrXrXrXrXrXrXrXrXrXrXrXrXrXrXrXrXrXrXrXrXrXrXrXrXrX",
"rXrXrXrXrXrXrXrXrXrXrXrXrXrXeXrXrXrX. F  .S G Z r , rXrXrXrXrXrXrXrXrXrXrXrXrXrXrXrXrXrXrXrXrXrXrXrXrXrXrXrXrXrXrXrXrXrXrXrXrXrX",
"rXrXrXrXrXrXrXrXrXrXrXrXrXrXwX6X@XL.* q [ z.c.z.@.F Z >   rX1 3 1 3 3 rXrXrXrXrXrXrXrXrXrXrXrXrXrXrXrXrXrXrXrXrXrXrXrXrXrXrXrXrX",
"rXrXrXrXrXrXrXrXrXrXrXrXrXrX6X*Xq.H.1.%.[ '.-X-X_.x.G w w w S M +...D m e e D r q : rXrXrXrXrXrXrXrXrXrXrXrXrXrXrXrXrXrXrXrXrXrX",
"rXrXrXrXrXrXrXrXrXrXrXrX,XW.OX*XU T ~ H.#.7.qX0X`.' q s.m.^.v.x.x.p.p.k.r.s.K J rXrXrXrXrXrXrXrXrXrXrXrXrXrXrXrXrXrXrXrXrXrXrXrX",
"rXrXrXrXrXrXrXrXrXrXrXH.H.q.4Xo.3 1 + I <.T c.-Xv 1 S c.=X=X`._.).v.Z.k.k.h.r.rXrXrXrXrXrXrXrXrXrXrXrXrXrXrXrXrXrXrXrXrXrXrXrXrX",
"rXrXrXrXrXrXrXrXrXrX$.:.%. .s.p u 5 5 @ I >.s 8.5.& e q Z S { x.^.).).A.V.B.M.rXrXrXrXrXrXrXrXrXrXrXrXrXrXrXrXrXrXrXrXrXrXrXrXrX",
"rXrXrXrXrXrXrXrXrXrXv j v U.I.<.b 4.v @ o >.-.. 5.[ : A A A Z Z B N i.A.S.N.N.rXrXrXrXrXrXrXrXrXrXrXrXrXrXrXrXrXrXrXrXrXrXrXrXrX",
"rXrXrXrXrXrXrXrXrXrX^ &./ ,.I.J.{.+X4.5 O R :.s n.(.0 Z 9.+.X.| F | ..B k.N.1XrXrXrXrXrXrXrXrXrXrXrXrXrXrXrXrXrXrXrXrXrXrXrXrXrX",
"rXrXrXrXrXrXrXrX/ ( } @.H -.K.K. X%Xe.y O ~ H.h /.&Xz r 6.x.i.p.L K t.a.K k.2XrXrXrXrXrXrXrXrXrXrXrXrXrXrXrXrXrXrXrXrXrXrXrXrXrX",
"rXrXrXrXrXrXrXrXQ 7.~.0.c L.Q.|.rX:XR.N % x >.s /.`.- # t X.x.p.i.u.r.y.h.y.g.M.rXrXrXrXrXrXrXrXrXrXrXrXrXrXrXrXrXrXrXrXrXrXrXrX",
"rXrXrXrXrXrXrXrXrX8X4Xz rXrX.XrXrX,X|.v @   >.Y n.7.. > G G ] p.k.k.a.r.a.S.rXD P rXrXrXrXrXrXrXrXrXrXrXrXrXrXrXrXrXrXrXrXrXrXrX",
"rXrXrXrXrXrXrXrXrXrXf.rXrXrXrXrXrX$X$X_ 1 4 = & % O : F X.| F D X.C.N.y.s.rXrXrXrXq rXrXrXrXrXrXrXrXrXrXrXrXrXrXrXrXrXrXrXrXrXrX",
"rXrXrXrXrXrXrXrXrXrXrXrXrXrXrXrXrX#X%X_ 5 y O 1 @ & G x.X.| D C V ..M.B.f.rXrXrXrXrXrXrXrXrXrXrXrXrXrXrXrXrXrXrXrXrXrXrXrXrXrXrX",
"rXrXrXrXrXrXrXrXrXrXrXrXrXrXrXrXrXv >X$.' t O & $ O F p.X.F J m J F g.M.rXrXrXrXrXrXrXrXrXrXrXrXrXrXrXrXrXrXrXrXrXrXrXrXrXrXrXrX",
"rXrXrXrXrXrXrXrXrXrXrXrXrXrXrXrXrX2 +Xe.` 8 O @ @ O @ M u.r.J n rXrXt.j.rXrXrXrXrXrXrXrXrXrXrXrXrXrXrXrXrXrXrXrXrXrXrXrXrXrXrXrX",
"rXrXrXrXrXrXrXrXrXrXrXrXrXrXrXrXrX1 E.E.) w O 5 4 @ @ @ > r.m g ;.J.rXm rXrXrXrXrXrXrXrXrXrXrXrXrXrXrXrXrXrXrXrXrXrXrXrXrXrXrXrX",
"rXrXrXrXrXrXrXrXrXrXrXrXrXrXrXrXrXrXv oX' 5 & w 9 4 1 1 O $ 8 $ I :.[.rX# rXrXrXrXrXrXrXrXrXrXrXrXrXrXrXrXrXrXrXrXrXrXrXrXrXrXrX",
"rXrXrXrXrXrXrXrXrXrXrXrXD.8 O @ O 9 3 d ) N & q i 0 4 4 4 u u $   T <.rX6 rXrXrXrXrXrXrXrXrXrXrXrXrXrXrXrXrXrXrX}.rXrXrXrXrXrXrX",
"rXrXrXrXrXrXrXrXrXrXrX2X7Xo.rX  @ % % O : y O x x l k 0 9 } u $   o ~ [.rXrXrXrXrXrXrXrXrXrXrXrXrXrXrXrXrXrX;.>.rXrXrXrXrXrXrXrX",
"rXrXrXrXrXrXrXrXrXrXrXrXrXrXrXrXrX% $ O 1 @   * c x Q x u O.t O     I <.rXrXrXrXrXrXrXrXrXrXrXrXrXrXrXrXrX<.$.%.rXrXrXrXrXrXrXrX",
"rXrXrXrXrXrXrXrXrXrXrXrXrXrXrXb.p 8 4 $ O .     rX6 c W b @.t . .   < R [.rXrXrXrXrXrXrXrXrXrXrXrXrXrX}.K.-.E XXrXrXrXrXrXrXrXrX",
"rXrXrXrXrXrXrXrXrXrXrXrXrXrX5X9X5Xe rXrXrXrXrXrX@ 3 & f 9.` w &       * *.:.rXrXrXrXrXrXrXrXrXrXrXrXrXP.2.%.K.rXrXrXrXrXrXrXrXrX",
"rXrXrXrXrXrXrXrXrXrXrXrXrXrXrXrXrXrXrXrXrXrXrXrXrX% @ . 3 ) w O X & . . = g ;.rXrXrXrXrXrXrXrXrXrX<.Y &.3.L.rXrXrXrXrXrXrXrXrXrX",
"rXrXrXrXrXrXrXrXrXrXrXrXrXrXrXrXrXrXrXrXrXrXrXrXrX    . 3 ` 9 & = < - @ O . o U :.<.rXrXrXrXrX,.#.7 x J.rXrXrXrXrXrXrXrXrXrXrXrX",
"rXrXrXrXrXrXrXrXrXrXrXrXrXrXrXrXrXrXrXrXrXrXrXrXrXrXrX. w p 4 w 9 6 - - - @ O O X g T ,.Y ;.Y = 6 6 rXrXrXrXrXrXrXrXrXrXrXrXrXrX",
"rXrXrXrXrXrXrXrXrXrXrXrXrXrXrXrXrXrXrXrXrXrXrXrXrXrX5 w 4 & O 3 9 8 & * < l d 4 @ @ @ @ @ @ 2 6 - rXrXrXrXrXrXrXrXrXrXrXrXrXrXrX",
"rXrXrXrXrXrXrXrXrXrXrXrXrXrXrXrXrXrXrXrXrXrXrXrXrX5 3 3 O rXrX. @ i .   rXf f l d l k d 7 7 rXrXrXrXrXrXrXrXrXrXrXrXrXrXrXrXrXrX",
"rXrXrXrXrXrXrXrXrXrXrXrXrXrXrXrXrXrXrXrXrXrXrXrXrXa 3 rXrXrXrXrXp 8   rXrXrXrXrXrXrXrXrXrXrXrXrXrXrXrXrXrXrXrXrXrXrXrXrXrXrXrXrX",
"rXrXrXrXrXrXrXrXrXrXrXrXrXrXrXrXrXrXrXrXrXrXrXrX8XF.: rXrXrXrXp p % rXrXrXrXrXrXrXrXrXrXrXrXrXrXrXrXrXrXrXrXrXrXrXrXrXrXrXrXrXrX",
"rXrXrXrXrXrXrXrXrXrXrXrXrXrXrXrXrXrXrXrXrXrXrXrXrXF.rXrXrXrXy ] i rXrXrXrXrXrXrXrXrXrXrXrXrXrXrXrXrXrXrXrXrXrXrXrXrXrXrXrXrXrXrX",
"rXrXrXrXrXrXrXrXrXrXrXrXrXrXrXrXrXrXrXrXrXrXrXrXrXrXrXrXrXrX9 ) l.rXrXrXrXrXrXrXrXrXrXrXrXrXrXrXrXrXrXrXrXrXrXrXrXrXrXrXrXrXrXrX",
"rXrXrXrXrXrXrXrXrXrXrXrXrXrXrXrXrXrXrXrXrXrXrXrXrXrXrXrXrXrXF.G.3XrXrXrXrXrXrXrXrXrXrXrXrXrXrXrXrXrXrXrXrXrXrXrXrXrXrXrXrXrXrXrX",
"rXrXrXrXrXrXrXrXrXrXrXrXrXrXrXrXrXrXrXrXrXrXrXrXrXrXrXrXrXrXrXrXrXrXrXrXrXrXrXrXrXrXrXrXrXrXrXrXrXrXrXrXrXrXrXrXrXrXrXrXrXrXrXrX",
"rXrXrXrXrXrXrXrXrXrXrXrXrXrXrXrXrXrXrXrXrXrXrXrXrXrXrXrXrXrXrXrXrXrXrXrXrXrXrXrXrXrXrXrXrXrXrXrXrXrXrXrXrXrXrXrXrXrXrXrXrXrXrXrX",
"rXrXrXrXrXrXrXrXrXrXrXrXrXrXrXrXrXrXrXrXrXrXrXrXrXrXrXrXrXrXrXrXrXrXrXrXrXrXrXrXrXrXrXrXrXrXrXrXrXrXrXrXrXrXrXrXrXrXrXrXrXrXrXrX",
"rXrXrXrXrXrXrXrXrXrXrXrXrXrXrXrXrXrXrXrXrXrXrXrXrXrXrXrXrXrXrXrXrXrXrXrXrXrXrXrXrXrXrXrXrXrXrXrXrXrXrXrXrXrXrXrXrXrXrXrXrXrXrXrX",
"rXrXrXrXrXrXrXrXrXrXrXrXrXrXrXrXrXrXrXrXrXrXrXrXrXrXrXrXrXrXrXrXrXrXrXrXrXrXrXrXrXrXrXrXrXrXrXrXrXrXrXrXrXrXrXrXrXrXrXrXrXrXrXrX",
"rXrXrXrXrXrXrXrXrXrXrXrXrXrXrXrXrXrXrXrXrXrXrXrXrXrXrXrXrXrXrXrXrXrXrXrXrXrXrXrXrXrXrXrXrXrXrXrXrXrXrXrXrXrXrXrXrXrXrXrXrXrXrXrX",
"rXrXrXrXrXrXrXrXrXrXrXrXrXrXrXrXrXrXrXrXrXrXrXrXrXrXrXrXrXrXrXrXrXrXrXrXrXrXrXrXrXrXrXrXrXrXrXrXrXrXrXrXrXrXrXrXrXrXrXrXrXrXrXrX",
"rXrXrXrXrXrXrXrXrXrXrXrXrXrXrXrXrXrXrXrXrXrXrXrXrXrXrXrXrXrXrXrXrXrXrXrXrXrXrXrXrXrXrXrXrXrXrXrXrXrXrXrXrXrXrXrXrXrXrXrXrXrXrXrX",
"rXrXrXrXrXrXrXrXrXrXrXrXrXrXrXrXrXrXrXrXrXrXrXrXrXrXrXrXrXrXrXrXrXrXrXrXrXrXrXrXrXrXrXrXrXrXrXrXrXrXrXrXrXrXrXrXrXrXrXrXrXrXrXrX",
"rXrXrXrXrXrXrXrXrXrXrXrXrXrXrXrXrXrXrXrXrXrXrXrXrXrXrXrXrXrXrXrXrXrXrXrXrXrXrXrXrXrXrXrXrXrXrXrXrXrXrXrXrXrXrXrXrXrXrXrXrXrXrXrX",
"rXrXrXrXrXrXrXrXrXrXrXrXrXrXrXrXrXrXrXrXrXrXrXrXrXrXrXrXrXrXrXrXrXrXrXrXrXrXrXrXrXrXrXrXrXrXrXrXrXrXrXrXrXrXrXrXrXrXrXrXrXrXrXrX",
"rXrXrXrXrXrXrXrXrXrXrXrXrXrXrXrXrXrXrXrXrXrXrXrXrXrXrXrXrXrXrXrXrXrXrXrXrXrXrXrXrXrXrXrXrXrXrXrXrXrXrXrXrXrXrXrXrXrXrXrXrXrXrXrX",
"rXrXrXrXrXrXrXrXrXrXrXrXrXrXrXrXrXrXrXrXrXrXrXrXrXrXrXrXrXrXrXrXrXrXrXrXrXrXrXrXrXrXrXrXrXrXrXrXrXrXrXrXrXrXrXrXrXrXrXrXrXrXrXrX"
};
