/* XPM */
static char *result[] = {
/* columns rows colors chars-per-pixel */
"64 64 211 2 ",
"   c #010400",
".  c #020C02",
"X  c #090B01",
"o  c #021202",
"O  c #051B05",
"+  c #09160A",
"@  c #061A08",
"#  c #0A1A0B",
"$  c #061608",
"%  c #1D1403",
"&  c #1B1A03",
"*  c #121C0E",
"=  c #1D190D",
"-  c #131D11",
";  c #241B07",
":  c #052206",
">  c #072109",
",  c #0B230C",
"<  c #0B2B0B",
"1  c #192A0D",
"2  c #0C310C",
"3  c #11320F",
"4  c #0E2311",
"5  c #0F2911",
"6  c #142413",
"7  c #132B14",
"8  c #1B2B15",
"9  c #1B2419",
"0  c #133214",
"q  c #1A341B",
"w  c #1B391B",
"e  c #2A280B",
"r  c #3D2C0C",
"t  c #342608",
"y  c #32330D",
"u  c #2B2A12",
"i  c #252A18",
"p  c #352B13",
"a  c #263819",
"s  c #273317",
"d  c #323315",
"f  c #1C2223",
"g  c #272C26",
"h  c #223424",
"j  c #223D24",
"k  c #273A2B",
"l  c #2B3927",
"z  c #353D28",
"x  c #373938",
"c  c #32362F",
"v  c #492C09",
"b  c #49380D",
"n  c #58390D",
"m  c #443917",
"M  c #533E12",
"N  c #164115",
"B  c #1F4423",
"V  c #244425",
"C  c #2C4C2C",
"Z  c #29472B",
"A  c #374226",
"S  c #355526",
"D  c #284330",
"F  c #394C31",
"G  c #344835",
"H  c #3B593B",
"J  c #2B5523",
"K  c #5E400F",
"L  c #49451B",
"P  c #50431B",
"I  c #57481C",
"U  c #674817",
"Y  c #774B13",
"T  c #6F5712",
"R  c #795514",
"E  c #756D1F",
"W  c #636A19",
"Q  c #434B2D",
"!  c #494322",
"~  c #5E4E24",
"^  c #405326",
"/  c #5A5224",
"(  c #475837",
")  c #664E21",
"_  c #665022",
"`  c #735A28",
"'  c #755824",
"]  c #655832",
"[  c #695239",
"{  c #4F633E",
"}  c #7D652F",
"|  c #686336",
" . c #766A36",
".. c #7D703F",
"X. c #6E762C",
"o. c #343C41",
"O. c #3D424B",
"+. c #394443",
"@. c #3E5948",
"#. c #444F43",
"$. c #435C44",
"%. c #40514F",
"&. c #445155",
"*. c #4C555A",
"=. c #56575C",
"-. c #665D40",
";. c #416444",
":. c #4A6948",
">. c #5D6C4C",
",. c #596845",
"<. c #4C714D",
"1. c #59714F",
"2. c #4B6554",
"3. c #526D59",
"4. c #4F7450",
"5. c #5B7D5C",
"6. c #567A56",
"7. c #667B55",
"8. c #62744C",
"9. c #565B68",
"0. c #5D5F75",
"q. c #4F5967",
"w. c #5B6D6C",
"e. c #556867",
"r. c #577365",
"t. c #5B7A68",
"y. c #5E6A72",
"u. c #5E6077",
"i. c #636767",
"p. c #67766F",
"a. c #797A6B",
"s. c #686B78",
"d. c #647575",
"f. c #69727A",
"g. c #667978",
"h. c #737774",
"j. c #875817",
"k. c #945C1B",
"l. c #8B681A",
"z. c #99681E",
"x. c #96791C",
"c. c #9D7126",
"v. c #87753B",
"b. c #8E6B29",
"n. c #A06920",
"m. c #AA7021",
"M. c #887E44",
"N. c #8A7671",
"B. c #5B845C",
"V. c #5F895E",
"C. c #64865A",
"Z. c #78885D",
"A. c #7C8347",
"S. c #628B62",
"D. c #61836A",
"F. c #698D6B",
"G. c #69956B",
"H. c #6A9468",
"J. c #769567",
"K. c #658373",
"L. c #698F73",
"P. c #698279",
"I. c #78887B",
"U. c #759C7A",
"Y. c #729777",
"T. c #6C9573",
"R. c #78A476",
"E. c #988221",
"W. c #878233",
"Q. c #9B9D25",
"!. c #A98E21",
"~. c #A79137",
"^. c #A9883B",
"/. c #B5A328",
"(. c #AFA137",
"). c #B8AB31",
"_. c #C28C25",
"`. c #878043",
"'. c #B28F4B",
"]. c #BAA454",
"[. c #BCAA5A",
"{. c #AFA556",
"}. c #8D8B76",
"|. c #82A779",
" X c #8FB97F",
".X c #C4A84C",
"XX c #DBBF60",
"oX c #C2B166",
"OX c #D2C36F",
"+X c #E4D46B",
"@X c #6E6F83",
"#X c #646A80",
"$X c #6E7284",
"%X c #747C85",
"&X c #757789",
"*X c #6F8880",
"=X c #788587",
"-X c #799984",
";X c #838284",
":X c #8B8B85",
">X c #878795",
",X c #908E9A",
"<X c #969699",
"1X c #AD9B87",
"2X c #83A887",
"3X c #89B784",
"4X c #ADA991",
"5X c #A9A9A8",
"6X c #B8B8B7",
"7X c #B0CD94",
"8X c None",
/* pixels */
"8X8X8X8X8X8X8X8X8X8X8X8X8X8X8X8X8X8X8X8X8X8X8X8X8X8X8X8X8X8X8X8X8X8X8X8X8X8X8X8X8X8X8X8X8X8X8X8X8X8X8X8X8X8X8X8X8X8X8X8X8X8X8X8X",
"8X8X8X8X8X8X8X8X8X8X8X8X8X8X8X8X8X8X8X8X8X8X8X8X8X8X8X8X8X8X8X8X8X8X8X8X8X8X8X8X8X8X8X8X8X8X8X8X8X8X8X8X8X8X8X8X8X8X8X8X8X8X8X8X",
"8X8X8X8X8X8X8X8X8X8X8X8X8X8X8X8X8X8X8X8X8X8X8X8X8X8X8X8X8X8X8X8X8X8X8X8X8X8X8X8X8X8X8X8X8X8X8X8X8X8X8X8X8X8X8X8X8X8X8X8X8X8X8X8X",
"8X8X8X8X8X8X8X8X8X8X8X8X8X8X8X8X8X8X8X8X8X8X8X8X8X8X8X8X8X8X8X8X8X8X8X8X8X8X8X8X8X8X8X8X8X8X8X8X8X8X8X8X8X8X8X8X8X8X8X8X8X8X8X8X",
"8X8X8X8X8X8X8X8X8X8X8X8X8X8X8X8X8X8X8X8X8X8X8X8X8X8X8X8X8X8X8X8X8X8X8X8X8X8X8X8X8X8X8X8X8X8X8X8X8X8X8X8X8X8X8X8X8X8X8X8X8X8X8X8X",
"8X8X8X8X8X8X8X8X8X8X8X8X8X8X8X8X8X8X8X8X8X8X8X8X8X8X8X8X8X8X8X8X8X8X8X8X8X8X8X8X8X8X8X8X8X8X8X8X8X8X8X8X8X8X8X8X8X8X8X8X8X8X8X8X",
"8X8X8X8X8X8X8X8X8X8X8X8X8X8X8X8X8X8X8X8X8X8X8X8X8X8X8X8X8X8X8X8X8X8X8X8X8X8X8X8X8X8X8X8X8X8X8X8X8X8X8X8X8X8X8X8X8X8X8X8X8X8X8X8X",
"8X8X8X8X8X8X8X8X8X8X8X8X8X8X8X8X8X8X8X8X8X8X8X8X8X8X8X8X8X8X8X8X8X8X8X8X8X8X8X8X8X8X8X8X8X8X8X8X8X8X8X8X8X8X8X8X8X8X8X8X8X8X8X8X",
"8X8X8X8X8X8X8X8X8X8X8X8X8X8X8X8X8X8X8X8X8X8X8X8X8X8X8X8X8X8X8X8X8X8X8X8X8X8X8X8X8X8X8X8X8X8X8X8X8X8X8X8X8X8X8X8X8X8X8X8X8X8X8X8X",
"8X8X8X8X8X8X8X8X8X8X8X8X8X8X8X8X8X8X8X8X8X8X8X8X8X8X8X8X8X8X8X8X8X8X8X8X8X8X8X8X8X8X8X8X8X8X8X8X8X8X8X8X8X8X8X8X8X8X8X8X8X8X8X8X",
"8X8X8X8X8X8X8X8X8X8X8X8X8X8X8X8X8X8X8X8X8X8X8X8X8X8X8X8X8X8X8X8X8X8X8X8X8X8X8X8X8X8X8X8X8X8X8X8X8X8X8X8X8X8X8X8X8X8X8X8X8X8X8X8X",
"8X8X8X8X8X8X8X8X8X8X8X8X8X8X8X8X8X8X8X8X8X8X8X8X8X8X8X8X8X8X8X8X8X8X8X8X8X8X8X8X8X8X8X8X8X8X8X8X8X8X8X8X8X8X8X8X8X8X8X8X8X8X8X8X",
"8X8X8X8X8X8X8X8X8X8X8X8X8X8X8X8X8X8X8X8X8X8X8X8X8X8X8X8X8X8X8X8X8X8X8X8X8X8X8X8X8X8X8X8X8X8X8X8X8X8X8X8X8X8X8X8X8X8X8X8X8X8X8X8X",
"8X8X8X8X8X8X8X8X8X8X8X8X8X8X8X8X8X8X8X8X8X8X8X8X8X8X8X8X8X8X8X8X8X8X8X8X8X8X8X8X8X8X8X8X8X8X8X8X8X8X8X8X8X8X8X8X8X8X8X8X8X8X8X8X",
"8X8X8X8X8X8X8X8X8X8X8X8X8X8X8X8X8X8X8X8X8X8X8X8X8X8X8X8X8X8X8X8X8X8X8X8X8X8X8X8X8X8X8X8X8X8X8X8X8X8X8X8X8X8X8X8X8X8X8X8X8X8X8X8X",
"8X8X8X8X8X8X8X8X8X8X8X8X8X8X8X8X8X8X8X8X8X8X8X8X8X8X8X8X8X8X8X8X8X8X8X8X8X8X8X8X8X8X8X8X8X8X8X8X8X8X8X8X8X8X8X8X8X8X8X8X8X8X8X8X",
"8X8X8X8X8X8X8X8X8X8X8X8X8X8X8X8X8X8X8X8X8X8X8X8X8X8X8X8X8X8X8X8X8X8X8X8X8X8X8X8X8X8X8X8X8X8X8X8X8X8X8X8X8X8X8X8X8X8X8X8X8X8X8X8X",
"8X8X8X8X8X8X8X8X8X8X8X8X8X8X8X8X8X8X8X8X8X8X8X8X8X8X8X8X8X8X8X8X8X8X8X8X8X8X8X8X8X8X8X8X8X8X8X8X8X8X8X8X8X8X8X8X8X8X8X8X8X8X8X8X",
"8X8X8X8X8X8X8X8X8X8X8X8X8X8X8X8X8X8X8X8X8X8X8X8X8X8X8X8X8X8X8X8X8X8X8X8X8X8X8X8X8X8X8X8X8X8X8X8X8X8X8X8X8X8X8X8X8X8X8X8X8X8X8X8X",
"8X8X8X8X8X8X8X8X8X8X8X8X8X8X8X8X8X8X8X8X8X8X8X8X8X8X8X8X8X8X8X8X8X8X8X8X8X8X8X8X8X8X8X8X8X8X8X8X8X8X8X8X8X8X8X8X8X8X8X8X8X8X8X8X",
"8X8X8X8X8X8X8X8X8X8X8X8X8X8X8X8X8X8X8X8X8X8X8X8X8X8X8X8X8X8X8X8X8X8X8XN.8X8X8X!.z.8X8X8X8X8X8X8X8X8X8X8X8X8X8X8X8X8X8X8X8X8X8X8X",
"8X8X8X8X8X8X8X8X8X8X8X8X8X8X8X8X8X8X8X8X8X8X8X8X8X8X8X8X8X8X8X8X8X8X8X4X}.l.n.j.Y U 8X8X8X8X8X8X8X8X8X8X8X8X8X8X8X8X8X8X8X8X8X8X",
"8X8X8X8X8X8X8X8X8X8X8X8X8X8X8X8X8X8X8X8X8X8X8X8X8X8X8X8X8X8X8X8X8X8XT m :X1X[ P a q 0 N 1 8X8X8X8X8X8X8X8X8X8X8X8X8X8X8X8X8X8X8X",
"8X8X8X8X8X8X8X8X8X8X8X8X8X8X8X8X8X8X8X8X8X8X8X8X8X8X8X8X8X8X8X8X8Xx.j.Y . 6 [ W.S X.J S ^ P 8X8X8X8X8X8X8X8X8X8X8X8X8X8X8X8X8X8X",
"8X8X8X8X8X8X8X8X8X8X8X8X8X8X8X8X8X8X8X8X8X8X8X8X8X8X8X8X8X8X8X8X8Xl.Y ; O b n.m.P A ] a.N.5X8X8X8X8X8X8X8X8X8X8X8X8X8X8X8X8X8X8X",
"8X8X8X8X8X8X8X8X8X8X8X8X8X8X8X8X8X8X8X8X8X8X8X8X8XO o o   8X8X8X8Xx.K o 5 / b.k.l.P g u c =.8X8X8X8X8X8X8X8X8X8X8X8X8X8X8X8X8X8X",
"8X8X8X8X8X8X8X8X8X8X8X8X8X8X8X8X8X8X8X8X8X8X8X< w 2   . . 8X8X8X8XY v O 8 ^.~.c.c./.8X8X8X8X8X8X8X8X8X8X8X8X8X8X8X8X8X8X8X8X8X8X",
"8X8X8X8X8X8X8X8X8X8X8X8X8X8X8X8X8X8X8X8X8X8X< w 2 8 + 8 # 8X8X8X8XR v O a ].{.).l.8X8X8X8X8X8X8X8X8X8X8X8X8X8X8X8X8X8X8X8X8X8X8X",
"8X8X8X8X8X8X8X8X8X8X8X8X8X8X8X8X8X8X8X8X8Xw { q 8 5 l Z.# 8X8X8X8Xj.v . 8 v.+X.X8X8X8X8X8X8X8X8X8X8X8X8X8X8X8X8X8X8X8X8X8X8X8X8X",
"8X8X8X8X8X8X8X8X8X8X8X8X8X8X8X8X8X8X8X8XC J.C.S >.s ,.>.g 8X8X8X8X8XY % O j '.XX8X8X8X8X8X8X8X8X8X8X8X8X8X8X8X8X8X8X8X8X8X8X8X8X",
"8X8X8X8X8X8X8X8X8X8X8X8X8X8X8X8X8X8X8Xa R.7X:.1.1.G q 1.,.o 8X8X8X8Xk.n o > A .XOX8X8X8X8X8X8X8X8X8X8X8X8X8X8X8X8X8X8X8X8X8X8X8X",
"8X8X8X8X8X8X8X8X8X8X8X8X8X8X8X8X8X8X7 V. X|.6.B.7.,.3 Q Z.z o 8X8X8X/.R b o j '.+X8X8X8X8X8X8X8X8X8X8X8X8X8X8X8X8X8X8X8X8X8X8X8X",
"8X8X8X8X8X8X8X8X8X8X8X8X8X8X8X8X8XO <. X3X<.B.S.6.7.F q $.A . . 8X8XQ.R n . 5 | oX8X8X8X8X8X8X8X8X8X8X8X8X8X8X8X8X8X8X8X8X8X8X8X",
"8X8X8X8X8X8X8X8X8X8X8X8X8X8X8X8X8XC G.-XR.@.B.R.6.J.7.8 < , - - X . & t t o > Q .X .8X8X8X8X8X8X8X8X8X8X8X8X8X8X8X8X8X8X8X8X8X8X",
"8X8X8X8X8X8X8X8X8X8X8X8X8X8X8X8X8XB.Y.R.S.2.t.T.4.H.H $.k # , , , * O O o 4 3 1 [...< 8X8X8X8X8X8X8X8X8X8X8X8X8X8X8X8X8X8X8X8X8X",
"8X8X8X8X8X8X8X8X8X8X8X8X8X8X8X8XB L.-XR.;.t.t.T.6.C.( R.F.H 6 @ $ , Z w . # 8 w L `.< : 8X8X8XO #.<X8X8X8X8X8X8X8X8X8X8X8X8X8X8X",
"8X8X8X8X8X8X8X8X8X8X8X8X8X8X8X8X:.P.-X-X@.K.g.U.5.6.C.3XY.R.B.4.D # 4 , o o $ 4 V M.7 < 8X8X  o h.8X8X8X8X8X8X8X8X8X8X8X8X8X8X8X",
"8X8X8X8X8X8X8X8X8X8X8X8X8X8X8X, D.t.*X*X@.g.P.-XD.3.G.3XL.D.6.6.5.:.6 o @ @ . 4 Z | , B 8X7 p.:X8X8X8X8X8X8X8X8X8X8X8X8X8X8X8X8X",
"8X8X8X8X8X8X8X8X8X8X8X8X8X8X8XD g.e.=Xt.O.y.*X-X2.G L.U.P.r.e.3.3.$.. o , 6 # o q w o > o k i.6X8X8X8X8X8X8X8X8X8X8X8X8X8X8X8X8X",
"8X8X8X8X8X8X8X8X8X8X8X8X8X8X8X2.d.0.&Xd.q.0.&X*Xw.G K.%Xf.9.&.&.2.9 o O , 0 u % 7 V . . O =.5X8X8X8X8X8X8X8X8X8X8X8X8X8X8X8X8X8X",
"8X8X8X8X8X8X8X8X8X8X8X8X8X8X@ y.#X@X&Xf.0.u.$X%Xy.k g.$X0.9.q.&.+.. O > 7 i U p 6 0 o . + 8X8X8X8X8X8X8X8X8X8X8X8X8X8X8X8X8X8X8X",
"8X8X8X8X8X8X8X8X8X8X8X8X8X8Xh s.=X,X<X%X=.s.,X&X=Xx f.}.y ; g O.f o , , i ! ` d . @ $ . o 8X8X8X8X8X8X8X8X8X8X8X8X8X8X8X8X8X8X8X",
"8X8X8X8X8X8X8X8X8X8X8X8X8X8XO.>X8X8X8X&X6 8X8X;X>Xx =XW.v n   + > O # 8 d _ ] 8X      8X8X8X8X8X8X8X8X8X8X8X8X8X8X8X8X8X8X8X8X8X",
"8X8X8X8X8X8X8X8X8X8X8X8X8X8Xs.8X8X8X8Xq.8X8X8X8X;X=.A.z.Y %   * 0 0 0 u ) ] 8 8X8X8X8X8X8X8X8X8X8X8X8X8X8X8X8X8X8X8X8X8X8X8X8X8X",
"8X8X8X8X8X8X8X8X8X8X8X8X8X9 8X8X8X8X8Xx 8X8X8X8X8Xx W z.U . . e # 8 V A ` z q 3 8X8X8X8X8X8X8X8X8X8X8X8X8X8X8X8X8X8X8X8X8X8X8X8X",
"8X8X8X8X8X8X8X8X8X8X8X8X8X- 8X8X8X8X8Xg 8X8X8X8X8X8XE ^.n & e y . # q H C O # 0 8X8X8X8X8X8X8X8X8X8X8X8X8X8X8X8X8X8X8X8X8X8X8X8X",
"8X8X8X8X8X8X8X8X8X8X8X8X8X8 8X8X8X8X8X9 8X8X8X8X8X8X~.' r % v # . . 4 q ;.V , @ 8X8X8X8X8X8X8X8X8X8X8X8X8X8X8X8X8X8X8X8X8X8X8X8X",
"8X8X8X8X8X8X8X8X8X8X8X8X- 8X8X8X8X8X8X  8X8X8X8X8X~.r b & t 6 r = X . $ j Z O . 8X8X8X8X8X8X8X8X8X8X8X8X8X8X8X8X8X8X8X8X8X8X8X8X",
"8X8X8X8X8X8X8X8X8X8X8X8X8X8X8X8X8X8X8X8X8X8X8X8XE.r r ; e s I ~ u . o 5 @ # $ 8X8X8X8X8X8X8X8X8X8X8X8X8X8X8X8X8X8X8X8X8X8X8X8X8X",
"8X8X8X8X8X8X8X8X8X8X8X8X8X8X8X8X8X8X8X8X8X8X8X_.b t & 1 d m ' u   o 7 , O : o 8X8X8X8X8X8X8X8X8X8X8X8X8X8X8X8X8X8X8X8X8X8X8X8X8X",
"8X8X8X8X8X8X8X8X8X8X8X8X8X8X8X8X8X8X8X8X8Xc.R n ; e d F  .) 8X8X  # 7 o . < : : j 8X8X8X8X8X8X8X8X8X8X8X8X8X8X8X8X8X8X8X8X8X8X8X",
"8X8X8X8X8X8X8X8X8X8X8X8X8X8X8X8X8X8X8X8X8X% 1   1 a ( v.} 8X8X8X8X. 7 5 # > : o a <X6X8X8X8X8X8X8X8X8X8X8X8X8X8X8X8X8X8X8X8X8X8X",
"8X8X8X8X8X8X8X8X8X8X8X8X8X8X8X8X8X8X8X8X8X    p ~ } b.m 8X8X8X8X8X8X. # l G I.5X8X8Xs.8X8X8X8X8X8X8X8X8X8X8X8X8X8X8X8X8X8X8X8X8X",
"8X8X8X8X8X8X8X8X8X8X8X8X8X8X8X8X8X8X8X8X8X  e ! P 8X8X8X8X8X8X8X8X8X8X  i.h.6X8X8X8X8X8X8X8X8X8X8X8X8X8X8X8X8X8X8X8X8X8X8X8X8X8X",
"8X8X8X8X8X8X8X8X8X8X8X8X8X8X8X8X8X8X8X8X8X8X8X8X8X8X8X8X8X8X8X8X8X8X8X8X8X8X8X8X8X8X8X8X8X8X8X8X8X8X8X8X8X8X8X8X8X8X8X8X8X8X8X8X",
"8X8X8X8X8X8X8X8X8X8X8X8X8X8X8X8X8X8X8X8X8X8X8X8X8X8X8X8X8X8X8X8X8X8X8X8X8X8X8X8X8X8X8X8X8X8X8X8X8X8X8X8X8X8X8X8X8X8X8X8X8X8X8X8X",
"8X8X8X8X8X8X8X8X8X8X8X8X8X8X8X8X8X8X8X8X8X8X8X8X8X8X8X8X8X8X8X8X8X8X8X8X8X8X8X8X8X8X8X8X8X8X8X8X8X8X8X8X8X8X8X8X8X8X8X8X8X8X8X8X",
"8X8X8X8X8X8X8X8X8X8X8X8X8X8X8X8X8X8X8X8X8X8X8X8X8X8X8X8X8X8X8X8X8X8X8X8X8X8X8X8X8X8X8X8X8X8X8X8X8X8X8X8X8X8X8X8X8X8X8X8X8X8X8X8X",
"8X8X8X8X8X8X8X8X8X8X8X8X8X8X8X8X8X8X8X8X8X8X8X8X8X8X8X8X8X8X8X8X8X8X8X8X8X8X8X8X8X8X8X8X8X8X8X8X8X8X8X8X8X8X8X8X8X8X8X8X8X8X8X8X",
"8X8X8X8X8X8X8X8X8X8X8X8X8X8X8X8X8X8X8X8X8X8X8X8X8X8X8X8X8X8X8X8X8X8X8X8X8X8X8X8X8X8X8X8X8X8X8X8X8X8X8X8X8X8X8X8X8X8X8X8X8X8X8X8X",
"8X8X8X8X8X8X8X8X8X8X8X8X8X8X8X8X8X8X8X8X8X8X8X8X8X8X8X8X8X8X8X8X8X8X8X8X8X8X8X8X8X8X8X8X8X8X8X8X8X8X8X8X8X8X8X8X8X8X8X8X8X8X8X8X",
"8X8X8X8X8X8X8X8X8X8X8X8X8X8X8X8X8X8X8X8X8X8X8X8X8X8X8X8X8X8X8X8X8X8X8X8X8X8X8X8X8X8X8X8X8X8X8X8X8X8X8X8X8X8X8X8X8X8X8X8X8X8X8X8X",
"8X8X8X8X8X8X8X8X8X8X8X8X8X8X8X8X8X8X8X8X8X8X8X8X8X8X8X8X8X8X8X8X8X8X8X8X8X8X8X8X8X8X8X8X8X8X8X8X8X8X8X8X8X8X8X8X8X8X8X8X8X8X8X8X",
"8X8X8X8X8X8X8X8X8X8X8X8X8X8X8X8X8X8X8X8X8X8X8X8X8X8X8X8X8X8X8X8X8X8X8X8X8X8X8X8X8X8X8X8X8X8X8X8X8X8X8X8X8X8X8X8X8X8X8X8X8X8X8X8X"
};
