/* XPM */
static char *result[] = {
/* columns rows colors chars-per-pixel */
"64 64 211 2 ",
"   c #010400",
".  c #020C02",
"X  c #090B01",
"o  c #021202",
"O  c #051B05",
"+  c #09160A",
"@  c #061A08",
"#  c #0A1A0B",
"$  c #061608",
"%  c #1D1403",
"&  c #1B1A03",
"*  c #121C0E",
"=  c #1D190D",
"-  c #131D11",
";  c #241B07",
":  c #052206",
">  c #072109",
",  c #0B230C",
"<  c #0B2B0B",
"1  c #192A0D",
"2  c #0C310C",
"3  c #11320F",
"4  c #0E2311",
"5  c #0F2911",
"6  c #142413",
"7  c #132B14",
"8  c #1B2B15",
"9  c #1B2419",
"0  c #133214",
"q  c #1A341B",
"w  c #1B391B",
"e  c #2A280B",
"r  c #3D2C0C",
"t  c #342608",
"y  c #32330D",
"u  c #2B2A12",
"i  c #252A18",
"p  c #352B13",
"a  c #263819",
"s  c #273317",
"d  c #323315",
"f  c #1C2223",
"g  c #272C26",
"h  c #223424",
"j  c #223D24",
"k  c #273A2B",
"l  c #2B3927",
"z  c #353D28",
"x  c #373938",
"c  c #32362F",
"v  c #492C09",
"b  c #49380D",
"n  c #58390D",
"m  c #443917",
"M  c #533E12",
"N  c #164115",
"B  c #1F4423",
"V  c #244425",
"C  c #2C4C2C",
"Z  c #29472B",
"A  c #374226",
"S  c #355526",
"D  c #284330",
"F  c #394C31",
"G  c #344835",
"H  c #3B593B",
"J  c #2B5523",
"K  c #5E400F",
"L  c #49451B",
"P  c #50431B",
"I  c #57481C",
"U  c #674817",
"Y  c #774B13",
"T  c #6F5712",
"R  c #795514",
"E  c #756D1F",
"W  c #636A19",
"Q  c #434B2D",
"!  c #494322",
"~  c #5E4E24",
"^  c #405326",
"/  c #5A5224",
"(  c #475837",
")  c #664E21",
"_  c #665022",
"`  c #735A28",
"'  c #755824",
"]  c #655832",
"[  c #695239",
"{  c #4F633E",
"}  c #7D652F",
"|  c #686336",
" . c #766A36",
".. c #7D703F",
"X. c #6E762C",
"o. c #343C41",
"O. c #3D424B",
"+. c #394443",
"@. c #3E5948",
"#. c #444F43",
"$. c #435C44",
"%. c #40514F",
"&. c #445155",
"*. c #4C555A",
"=. c #56575C",
"-. c #665D40",
";. c #416444",
":. c #4A6948",
">. c #5D6C4C",
",. c #596845",
"<. c #4C714D",
"1. c #59714F",
"2. c #4B6554",
"3. c #526D59",
"4. c #4F7450",
"5. c #5B7D5C",
"6. c #567A56",
"7. c #667B55",
"8. c #62744C",
"9. c #565B68",
"0. c #5D5F75",
"q. c #4F5967",
"w. c #5B6D6C",
"e. c #556867",
"r. c #577365",
"t. c #5B7A68",
"y. c #5E6A72",
"u. c #5E6077",
"i. c #636767",
"p. c #67766F",
"a. c #797A6B",
"s. c #686B78",
"d. c #647575",
"f. c #69727A",
"g. c #667978",
"h. c #737774",
"j. c #875817",
"k. c #945C1B",
"l. c #8B681A",
"z. c #99681E",
"x. c #96791C",
"c. c #9D7126",
"v. c #87753B",
"b. c #8E6B29",
"n. c #A06920",
"m. c #AA7021",
"M. c #887E44",
"N. c #8A7671",
"B. c #5B845C",
"V. c #5F895E",
"C. c #64865A",
"Z. c #78885D",
"A. c #7C8347",
"S. c #628B62",
"D. c #61836A",
"F. c #698D6B",
"G. c #69956B",
"H. c #6A9468",
"J. c #769567",
"K. c #658373",
"L. c #698F73",
"P. c #698279",
"I. c #78887B",
"U. c #759C7A",
"Y. c #729777",
"T. c #6C9573",
"R. c #78A476",
"E. c #988221",
"W. c #878233",
"Q. c #9B9D25",
"!. c #A98E21",
"~. c #A79137",
"^. c #A9883B",
"/. c #B5A328",
"(. c #AFA137",
"). c #B8AB31",
"_. c #C28C25",
"`. c #878043",
"'. c #B28F4B",
"]. c #BAA454",
"[. c #BCAA5A",
"{. c #AFA556",
"}. c #8D8B76",
"|. c #82A779",
" X c #8FB97F",
".X c #C4A84C",
"XX c #DBBF60",
"oX c #C2B166",
"OX c #D2C36F",
"+X c #E4D46B",
"@X c #6E6F83",
"#X c #646A80",
"$X c #6E7284",
"%X c #747C85",
"&X c #757789",
"*X c #6F8880",
"=X c #788587",
"-X c #799984",
";X c #838284",
":X c #8B8B85",
">X c #878795",
",X c #908E9A",
"<X c #969699",
"1X c #AD9B87",
"2X c #83A887",
"3X c #89B784",
"4X c #ADA991",
"5X c #A9A9A8",
"6X c #B8B8B7",
"7X c #B0CD94",
"8X c None",
/* pixels */
"8X8X8X8X8X8X8X8X8X8X8X8X8X8X8X8X8X8X8X8X8X8X8X8X8X8X8X8X8X8X8X8X8X8X8X8X8X8X8X8X8X8X8X8X8X8X8X8X8X8X8X8X8X8X8X8X8X8X8X8X8X8X8X8X",
"8X8X8X8X8X8X8X8X8X8X8X8X8X8X8X8X8X8X8X8X8X8X8X8X8X8X8X8X8X8X8X8X8X8X8X8X8X8X8X8X8X8X8X8X8X8X8X8X8X8X8X8X8X8X8X8X8X8X8X8X8X8X8X8X",
"8X8X8X8X8X8X8X8X8X8X8X8X8X8X8X8X8X8X8X8X8X8X8X8X8X8X8X8X8X8X8X8X8X8X8X8X8X8X8X8X8X8X8X8X8X8X8X8X8X8X8X8X8X8X8X8X8X8X8X8X8X8X8X8X",
"8X8X8X8X8X8X8X8X8X8X8X8X8X8X8X8X8X8X8X8X8X8X8X8X8X8X8X8X8X8X8X8X8X8X8X8X8X8X8X8X8X8X8X8X8X8X8X8X8X8X8X8X8X8X8X8X8X8X8X8X8X8X8X8X",
"8X8X8X8X8X8X8X8X8X8X8X8X8X8X8X8X8X8X8X8X8X8X8X8X8X8X8X8X8X8X8X8X8X8X8X8X8X8X8X8X8X8X8X8X8X8X8X8X8X8X8X8X8X8X8X8X8X8X8X8X8X8X8X8X",
"8X8X8X8X8X8X8X8X8X8X8X8X8X8X8X8X8X8X8X8X8X8X8X8X8X8X8X8X8X8X8X8X8X8X8X8X8X8X8X8X8X8X8X8X8X8X8X8X8X8X8X8X8X8X8X8X8X8X8X8X8X8X8X8X",
"8X8X8X8X8X8X8X8X8X8X8X8X8X8X8X8X8X8X8X8X8X8X8X8X8X8X8X8X8X8X8X8X8X8X8X8X8X8X8X8X8X8X8X8X8X8X8X8X8X8X8X8X8X8X8X8X8X8X8X8X8X8X8X8X",
"8X8X8X8X8X8X8X8X8X8X8X8X8X8X8X8X8X8X8X8X8X8X8X8X8X8X8X8X8X8X8X8X8X8X8X8X8X8X8X8X8X8X8X8X8X8X8X8X8X8X8X8X8X8X8X8X8X8X8X8X8X8X8X8X",
"8X8X8X8X8X8X8X8X8X8X8X8X8X8X8X8X8X8X8X8X8X8X8X8X8X8X8X8X8X8X8X8X8X8X8X8X8X8X8X8X8X8X8X8X8X8X8X8X8X8X8X8X8X8X8X8X8X8X8X8X8X8X8X8X",
"8X8X8X8X8X8X8X8X8X8X8X8X8X8X8X8X8X8X8X8X8X8X8X8X8X8X8X8X8X8X8X8X8X8X8X8X8X8X8X8X8X8X8X8X8X8X8X8X8X8X8X8X8X8X8X8X8X8X8X8X8X8X8X8X",
"8X8X8X8X8X8X8X8X8X8X8X8X8X8X8X8X8X8X8X8X8X8X8X8X8X8X8X8X8X8X8X8X8X8X8X8X8X8X8X8X8X8X8X8X8X8X8X8X8X8X8X8X8X8X8X8X8X8X8X8X8X8X8X8X",
"8X8X8X8X8X8X8X8X8X8X8X8X8X8X8X8X8X8X8X8X8X8X8X8X8X8X8X8X8X8X8X8X8X8X8X8X8X8X8X8X8X8X8X8X8X8X8X8X8X8X8X8X8X8X8X8X8X8X8X8X8X8X8X8X",
"8X8X8X8X8X8X8X8X8X8X8X8X8X8X8X8X8X8X8X8X8X8X8X8X8X8X8X8X8X8X8X8X8X8X8X8X8X8X8X8X8X8X8X8X8X8X8X8X8X8X8X8X8X8X8X8X8X8X8X8X8X8X8X8X",
"8X8X8X8X8X8X8X8X8X8X8X8X8X8X8X8X8X8X8X8X8X8X8X8X8X8X8X8X8X8X8X8X8X8X8X8X8X8X8X8X8X8X8X8X8X8X8X8X8X8X8X8X8X8X8X8X8X8X8X8X8X8X8X8X",
"8X8X8X8X8X8X8X8X8X8X8X8X8X8X8X8X8X8X8X8X8X8X8X8X8X8X8X8X8X8X8X8X8X8X8X8X8X8X8X8X8X8X8X8X8X8X8X8X8X8X8X8X8X8X8X8X8X8X8X8X8X8X8X8X",
"8X8X8X8X8X8X8X8X8X8X8X8X8X8X8X8X8X8X8X8X8X8X8X8X8X8X8X8X8X8X8X8X8X8X8X8X8X8X8X8X8X8X8X8X8X8X8X8X8X8X8X8X8X8X8X8X8X8X8X8X8X8X8X8X",
"8X8X8X8X8X8X8X8X8X8X8X8X8X8X8X8X8X8X8X8X8X8X8X8X8X8X8X8X8X8X8X8X8X8X8X8X8X8X8X8X8X8X8X8X8X8X8X8X8X8X8X8X8X8X8X8X8X8X8X8X8X8X8X8X",
"8X8X8X8X8X8X8X8X8X8X8X8X8X8X8X8X8X8X8X8X8X8X8X8X8X8X8X8X8X8X8X8X8X8X8X8X8X8X8X8X8X8X8X8X8X8X8X8X8X8X8X8X8X8X8X8X8X8X8X8X8X8X8X8X",
"8X8X8X8X8X8X8X8X8X8X8X8X8X8X8X8X8X8X8X8X8X8X8X8X8X8X8X8X8X8X8X8X8X8X8X8X8X8X8X8X8X8X8X8X8X8X8X8X8X8X8X8X8X8X8X8X8X8X8X8X8X8X8X8X",
"8X8X8X8X8X8X8X8X8X8X8X8X8X8X8X8X8X8X8X8X8X8X8X8X8X8X8X8X8X8X8X8X8X8X8X8X8X8X8X8X8X8X8X8X8X8X8X8X8X8X8X8X8X8X8X8X8X8X8X8X8X8X8X8X",
"8X8X8X8X8X8X8X8X8X8X8X8X8X8X8X8X8X8X8X8X8X8X8Xz.!.8X8X8Xa.8X8X8X8X8X8X8X8X8X8X8X8X8X8X8X8X8X8X8X8X8X8X8X8X8X8X8X8X8X8X8X8X8X8X8X",
"8X8X8X8X8X8X8X8X8X8X8X8X8X8X8X8X8X8X8X8X8X8XU Y j.n.z.}.4X8X8X8X8X8X8X8X8X8X8X8X8X8X8X8X8X8X8X8X8X8X8X8X8X8X8X8X8X8X8X8X8X8X8X8X",
"8X8X8X8X8X8X8X8X8X8X8X8X8X8X8X8X8X8X8X1 w 3 s a ! [ 1X:Xm T 8X8X8X8X8X8X8X8X8X8X8X8X8X8X8X8X8X8X8X8X8X8X8X8X8X8X8X8X8X8X8X8X8X8X",
"8X8X8X8X8X8X8X8X8X8X8X8X8X8X8X8X8X8XL S J J X.S W.[ *   Y j.x.8X8X8X8X8X8X8X8X8X8X8X8X8X8X8X8X8X8X8X8X8X8X8X8X8X8X8X8X8X8X8X8X8X",
"8X8X8X8X8X8X8X8X8X8X8X8X8X8X8X8X8X8X5XN.N.[ V P m.n.L O ; Y l.8X8X8X8X8X8X8X8X8X8X8X8X8X8X8X8X8X8X8X8X8X8X8X8X8X8X8X8X8X8X8X8X8X",
"8X8X8X8X8X8X8X8X8X8X8X8X8X8X8X8X8X8X=.c u g P l.k.z./ < o K x.8X8X8X8X  o o O 8X8X8X8X8X8X8X8X8X8X8X8X8X8X8X8X8X8X8X8X8X8X8X8X8X",
"8X8X8X8X8X8X8X8X8X8X8X8X8X8X8X8X8X8X8X8X8X8X/.n.m.~.'.7 O v R 8X8X8X8X. .   2 w < 8X8X8X8X8X8X8X8X8X8X8X8X8X8X8X8X8X8X8X8X8X8X8X",
"8X8X8X8X8X8X8X8X8X8X8X8X8X8X8X8X8X8X8X8X8X8X8Xl.).{.'.a O v Y 8X8X8X8X# i + 0 2 w 2 8X8X8X8X8X8X8X8X8X8X8X8X8X8X8X8X8X8X8X8X8X8X",
"8X8X8X8X8X8X8X8X8X8X8X8X8X8X8X8X8X8X8X8X8X8X8X8X].+Xv.7 o v j.8X8X8X8X# Z.l 1 8 w { 0 8X8X8X8X8X8X8X8X8X8X8X8X8X8X8X8X8X8X8X8X8X",
"8X8X8X8X8X8X8X8X8X8X8X8X8X8X8X8X8X8X8X8X8X8X8X8XXX].V O ; Y 8X8X8X8X8Xs >.:.s >.F V.J.C 8X8X8X8X8X8X8X8X8X8X8X8X8X8X8X8X8X8X8X8X",
"8X8X8X8X8X8X8X8X8X8X8X8X8X8X8X8X8X8X8X8X8X8X8XOX].A > X n k.8X8X8X8X. ,.>.q G 8.>.{ 7XR.V 8X8X8X8X8X8X8X8X8X8X8X8X8X8X8X8X8X8X8X",
"8X8X8X8X8X8X8X8X8X8X8X8X8X8X8X8X8X8X8X8X8X8X8X+X~.a $ b Y /.8X8X8Xo l Z.( < ,.7.B.6.|. XV.0 8X8X8X8X8X8X8X8X8X8X8X8X8X8X8X8X8X8X",
"8X8X8X8X8X8X8X8X8X8X8X8X8X8X8X8X8X8X8X8X8X8X8XoX| 5 . n R Q.8X8X.   A ( w F 7.7.S.B.4.3X-X4.o 8X8X8X8X8X8X8X8X8X8X8X8X8X8X8X8X8X",
"8X8X8X8X8X8X8X8X8X8X8X8X8X8X8X8X8X8X8X8X8X8Xv..XQ > o t t &   X - 6 4 < 7 C.J.6.T.B.;.R.3XG.C 8X8X8X8X8X8X8X8X8X8X8X8X8X8X8X8X8X",
"8X8X8X8X8X8X8X8X8X8X8X8X8X8X8X8X8X8X8X8X8X< 8..X3 7 6 . O O , * , , @ l $.H F.<.G.D.2.V.R.U.B.8X8X8X8X8X8X8X8X8X8X8X8X8X8X8X8X8X",
"8X8X8X8X8X8X8X8X8X8X8X8X8X8X,X( o 8X8X8X: < `.L w 7 # o w C 4 o + 6 H F.U.H V.6.T.t.r.;.R.-XL.B 8X8X8X8X8X8X8X8X8X8X8X8X8X8X8X8X",
"8X8X8X8X8X8X8X8X8X8X8X8X8X8X8Xh.o . 8X8X< 5 M.V 4 @ . o , , # D 4.B.T.R.3XC.5.B.Y.g.g.@.-X-XK.2.8X8X8X8X8X8X8X8X8X8X8X8X8X8X8X8X",
"8X8X8X8X8X8X8X8X8X8X8X8X8X8X8X8X:Xp.7 8XB < | V # . # O . 6 <.5.6.B.D.L.3XH.3.D.2XP.d.@.*X*Xt.D.< 8X8X8X8X8X8X8X8X8X8X8X8X8X8X8X",
"8X8X8X8X8X8X8X8X8X8X8X8X8X8X8X8X6Xi.k o # $ w q o # 7 < o . @.3.3.3.r.P.-XF.G 2.-X*Xu.@.t.=Xe.g.D 8X8X8X8X8X8X8X8X8X8X8X8X8X8X8X",
"8X8X8X8X8X8X8X8X8X8X8X8X8X8X8X8X8X5X*.+ . . V 7 ; u 7 , O o 6 2.@.*.q.s.%XK.G w.%X&X0.q.d.&X0.d.2.8X8X8X8X8X8X8X8X8X8X8X8X8X8X8X",
"8X8X8X8X8X8X8X8X8X8X8X8X8X8X8X8X8X8X8X@ . o 0 4 p _ i 5 , O o +.&.q.9.0.@Xg.k y.&X$Xu.u.f.&X@Xs.y.@ 8X8X8X8X8X8X8X8X8X8X8X8X8X8X",
"8X8X8X8X8X8X8X8X8X8X8X8X8X8X8X8X8X8X8Xo . @ @ . d ` ! i , # o f O.g = p }.f.x =X&X>Xf.=.&X<X,X>X#Xh 8X8X8X8X8X8X8X8X8X8X8X8X8X8X",
"8X8X8X8X8X8X8X8X8X8X8X8X8X8X8X8X8X8X8X8X8X      8X] ) m 9 < O > +   n v W.=Xo.>X;X8X8X6 %X8X8X8X>X+.8X8X8X8X8X8X8X8X8X8X8X8X8X8X",
"8X8X8X8X8X8X8X8X8X8X8X8X8X8X8X8X8X8X8X8X8X8X8X8X8X8 ] I u 0 0 7 #   ; Y z.A.=.:X8X8X8X8X*.8X8X8X8Xs.8X8X8X8X8X8X8X8X8X8X8X8X8X8X",
"8X8X8X8X8X8X8X8X8X8X8X8X8X8X8X8X8X8X8X8X8X8X8X8X3 w A ` A V 9 # u .   U k.W x 8X8X8X8X8Xx 8X8X8X8X8X9 8X8X8X8X8X8X8X8X8X8X8X8X8X",
"8X8X8X8X8X8X8X8X8X8X8X8X8X8X8X8X8X8X8X8X8X8X8X8X9 $ @ Z H q 4 . t t & M ^.E 8X8X8X8X8X8Xg 8X8X8X8X8X- 8X8X8X8X8X8X8X8X8X8X8X8X8X",
"8X8X8X8X8X8X8X8X8X8X8X8X8X8X8X8X8X8X8X8X8X8X8X8X@ < V ;.q # . . # v & r ' ~.8X8X8X8X8X8X9 8X8X8X8X8X9 8X8X8X8X8X8X8X8X8X8X8X8X8X",
"8X8X8X8X8X8X8X8X8X8X8X8X8X8X8X8X8X8X8X8X8X8X8X8Xo O C h @ o X = y 1 t & b v ~.8X8X8X8X8X  8X8X8X8X8X8X* 8X8X8X8X8X8X8X8X8X8X8X8X",
"8X8X8X8X8X8X8X8X8X8X8X8X8X8X8X8X8X8X8X8X8X8X8X8X8Xo , @ 4 $ . u ~ P y = ; r r E.8X8X8X8X8X8X8X8X8X8X8X8X8X8X8X8X8X8X8X8X8X8X8X8X",
"8X8X8X8X8X8X8X8X8X8X8X8X8X8X8X8X8X8X8X8X8X8X8X8X8X$ : O > 7 o   p ` L y 1 & e b _.8X8X8X8X8X8X8X8X8X8X8X8X8X8X8X8X8X8X8X8X8X8X8X",
"8X8X8X8X8X8X8X8X8X8X8X8X8X8X8X8X8X8X8X8X8X8X8Xh : > < . o 7 @   8X8X_  .Q d e ; n R x.8X8X8X8X8X8X8X8X8X8X8X8X8X8X8X8X8X8X8X8X8X",
"8X8X8X8X8X8X8X8X8X8X8X8X8X8X8X8X8X8X8X8X8X6X<Xa o O > # 5 7 . 8X8X8X8X` v.( a 8 . & ; 8X8X8X8X8X8X8X8X8X8X8X8X8X8X8X8X8X8X8X8X8X",
"8X8X8X8X8X8X8X8X8X8X8X8X8X8X8X8X8X8X8X8X8Xs.8X8X5XI.F k @ . 8X8X8X8X8X8XP b.} ~ u     8X8X8X8X8X8X8X8X8X8X8X8X8X8X8X8X8X8X8X8X8X",
"8X8X8X8X8X8X8X8X8X8X8X8X8X8X8X8X8X8X8X8X8X8X8X8X8X6Xh.i.  8X8X8X8X8X8X8X8X8X8XP P e   8X8X8X8X8X8X8X8X8X8X8X8X8X8X8X8X8X8X8X8X8X",
"8X8X8X8X8X8X8X8X8X8X8X8X8X8X8X8X8X8X8X8X8X8X8X8X8X8X8X8X8X8X8X8X8X8X8X8X8X8X8X8X8X8X8X8X8X8X8X8X8X8X8X8X8X8X8X8X8X8X8X8X8X8X8X8X",
"8X8X8X8X8X8X8X8X8X8X8X8X8X8X8X8X8X8X8X8X8X8X8X8X8X8X8X8X8X8X8X8X8X8X8X8X8X8X8X8X8X8X8X8X8X8X8X8X8X8X8X8X8X8X8X8X8X8X8X8X8X8X8X8X",
"8X8X8X8X8X8X8X8X8X8X8X8X8X8X8X8X8X8X8X8X8X8X8X8X8X8X8X8X8X8X8X8X8X8X8X8X8X8X8X8X8X8X8X8X8X8X8X8X8X8X8X8X8X8X8X8X8X8X8X8X8X8X8X8X",
"8X8X8X8X8X8X8X8X8X8X8X8X8X8X8X8X8X8X8X8X8X8X8X8X8X8X8X8X8X8X8X8X8X8X8X8X8X8X8X8X8X8X8X8X8X8X8X8X8X8X8X8X8X8X8X8X8X8X8X8X8X8X8X8X",
"8X8X8X8X8X8X8X8X8X8X8X8X8X8X8X8X8X8X8X8X8X8X8X8X8X8X8X8X8X8X8X8X8X8X8X8X8X8X8X8X8X8X8X8X8X8X8X8X8X8X8X8X8X8X8X8X8X8X8X8X8X8X8X8X",
"8X8X8X8X8X8X8X8X8X8X8X8X8X8X8X8X8X8X8X8X8X8X8X8X8X8X8X8X8X8X8X8X8X8X8X8X8X8X8X8X8X8X8X8X8X8X8X8X8X8X8X8X8X8X8X8X8X8X8X8X8X8X8X8X",
"8X8X8X8X8X8X8X8X8X8X8X8X8X8X8X8X8X8X8X8X8X8X8X8X8X8X8X8X8X8X8X8X8X8X8X8X8X8X8X8X8X8X8X8X8X8X8X8X8X8X8X8X8X8X8X8X8X8X8X8X8X8X8X8X",
"8X8X8X8X8X8X8X8X8X8X8X8X8X8X8X8X8X8X8X8X8X8X8X8X8X8X8X8X8X8X8X8X8X8X8X8X8X8X8X8X8X8X8X8X8X8X8X8X8X8X8X8X8X8X8X8X8X8X8X8X8X8X8X8X",
"8X8X8X8X8X8X8X8X8X8X8X8X8X8X8X8X8X8X8X8X8X8X8X8X8X8X8X8X8X8X8X8X8X8X8X8X8X8X8X8X8X8X8X8X8X8X8X8X8X8X8X8X8X8X8X8X8X8X8X8X8X8X8X8X",
"8X8X8X8X8X8X8X8X8X8X8X8X8X8X8X8X8X8X8X8X8X8X8X8X8X8X8X8X8X8X8X8X8X8X8X8X8X8X8X8X8X8X8X8X8X8X8X8X8X8X8X8X8X8X8X8X8X8X8X8X8X8X8X8X"
};
