/* XPM */
static char *result[] = {
/* columns rows colors chars-per-pixel */
"64 64 198 2 ",
"   c #010300",
".  c #030C03",
"X  c #0E0D01",
"o  c #090B06",
"O  c #130C02",
"+  c #031403",
"@  c #0A1203",
"#  c #041C04",
"$  c #061308",
"%  c #0B160A",
"&  c #071D09",
"*  c #0A1C0B",
"=  c #131103",
"-  c #191706",
";  c #181E0E",
":  c #151B1A",
">  c #191D1D",
",  c #161916",
"<  c #221903",
"1  c #261C09",
"2  c #311E05",
"3  c #052205",
"4  c #07220A",
"5  c #0B240C",
"6  c #0C290D",
"7  c #10210E",
"8  c #0F2511",
"9  c #0F2811",
"0  c #122514",
"q  c #122B14",
"w  c #172619",
"e  c #1D2A1D",
"r  c #1C2714",
"t  c #0F3314",
"y  c #133315",
"u  c #1D351D",
"i  c #1E3C1B",
"p  c #163717",
"a  c #15340C",
"s  c #23270D",
"d  c #39290B",
"f  c #2F3B05",
"g  c #333209",
"h  c #262916",
"j  c #332B11",
"k  c #22331C",
"l  c #3A3214",
"z  c #313914",
"x  c #333C1C",
"c  c #3B381B",
"v  c #1A1D21",
"b  c #1C2222",
"n  c #1F2924",
"m  c #1F3023",
"M  c #212B22",
"N  c #22252A",
"B  c #23292A",
"V  c #222626",
"C  c #243223",
"Z  c #243C23",
"A  c #2A3B26",
"S  c #26342B",
"D  c #28302C",
"F  c #353F21",
"G  c #272B31",
"H  c #2A2E32",
"J  c #2C3534",
"K  c #333734",
"L  c #492B08",
"P  c #53330F",
"I  c #473A19",
"U  c #483D19",
"Y  c #48340C",
"T  c #603C0D",
"R  c #703D0E",
"E  c #623D11",
"W  c #513A25",
"Q  c #453923",
"!  c #13460F",
"~  c #1E4116",
"^  c #27441D",
"/  c #37471D",
"(  c #1F4225",
")  c #234022",
"_  c #2C432C",
"`  c #2A4828",
"'  c #31442E",
"]  c #3D472B",
"[  c #364828",
"{  c #2B5428",
"}  c #2F4731",
"|  c #364537",
" . c #344639",
".. c #3B533B",
"X. c #345937",
"o. c #45411E",
"O. c #494317",
"+. c #544215",
"@. c #55431C",
"#. c #56491C",
"$. c #4F5819",
"%. c #6B420F",
"&. c #644915",
"*. c #734511",
"=. c #66561F",
"-. c #755B19",
";. c #785718",
":. c #7C6914",
">. c #7C701D",
",. c #434622",
"<. c #474924",
"1. c #524522",
"2. c #545429",
"3. c #475E3F",
"4. c #425230",
"5. c #685B2B",
"6. c #765C26",
"7. c #6B4D32",
"8. c #6A693D",
"9. c #3B3D49",
"0. c #3D4344",
"q. c #3F454C",
"w. c #364144",
"e. c #3F5744",
"r. c #41434D",
"t. c #424E4E",
"y. c #404347",
"u. c #445647",
"i. c #48524E",
"p. c #434A52",
"a. c #4C4F56",
"s. c #485956",
"d. c #525B51",
"f. c #5C5A59",
"g. c #446543",
"h. c #536E5B",
"j. c #596A44",
"k. c #776849",
"l. c #736255",
"z. c #5E5D62",
"x. c #596867",
"c. c #5D7867",
"v. c #646B60",
"b. c #63776F",
"n. c #777978",
"m. c #666C76",
"M. c #905F1C",
"N. c #825614",
"B. c #86661A",
"V. c #89671A",
"C. c #94611C",
"Z. c #87771D",
"A. c #947D1F",
"S. c #AA6C1E",
"D. c #886624",
"F. c #946A22",
"G. c #997724",
"H. c #A66F21",
"J. c #A47422",
"K. c #A27D21",
"L. c #896E4E",
"P. c #5E8C5D",
"I. c #648D63",
"U. c #6A8574",
"Y. c #68916A",
"T. c #9A821F",
"R. c #95871C",
"E. c #8B891B",
"W. c #A4851E",
"Q. c #9B9123",
"!. c #B28F27",
"~. c #A59825",
"^. c #B3962E",
"/. c #ACA02C",
"(. c #CA9931",
"). c #D3963B",
"_. c #C7B82F",
"`. c #B89742",
"'. c #BFAB5E",
"]. c #85806F",
"[. c #848C7D",
"{. c #BFB365",
"}. c #C29F44",
"|. c #C7A952",
" X c #CCB557",
".X c #C0AB61",
"XX c #CEBE63",
"oX c #D0B561",
"OX c #878688",
"+X c #89958A",
"@X c #9B9996",
"#X c #AA9680",
"$X c #9EA29E",
"%X c #B3B5AD",
"&X c #B6B7B3",
"*X c #B0ADA8",
"=X c #BFBFC0",
"-X c None",
/* pixels */
"-X-X-X-X-X-X-X-X-X-X-X-X-X-X-X-X-X-X-X-X-X-X-X-X-X-X-X-X-X-X-X-X-X-X-X-X-X-X-X-X-X-X-X-X-X-X-X-X-X-X-X-X-X-X-X-X-X-X-X-X-X-X-X-X",
"-X-X-X-X-X-X-X-X-X-X-X-X-X-X-X-X-X-X-X-X-X-X-X-X-X-X-X-X-X-X-X-X-X-X-X-X-X-X-X-X-X-X-X-X-X-X-X-X-X-X-X-X-X-X-X-X-X-X-X-X-X-X-X-X",
"-X-X-X-X-X-X-X-X-X-X-X-X-X-X-X-X-X-X-X-X-X-X-X-X-X-X-X-X-X-X-X-X-X-X-X-X-X-X-X-X-X-X-X-X-X-X-X-X-X-X-X-X-X-X-X-X-X-X-X-X-X-X-X-X",
"-X-X-X-X-X-X-X-X-X-X-X-X-X-X-X-X-X-X-X-X-X-X-X-X-X-X-X-X-X-X-X-X-X-X-X-X-X-X-X-X-X-X-X-X-X-X-X-X-X-X-X-X-X-X-X-X-X-X-X-X-X-X-X-X",
"-X-X-X-X-X-X-X-X-X-X-X-X-X-X-X-X-X-X-X-X-X-X-X-X-X-X-X-X-X-X-X-X-X-X-X-X-X-X-X-X-X-X-X-X-X-X-X-X-X-X-X-X-X-X-X-X-X-X-X-X-X-X-X-X",
"-X-X-X-X-X-X-X-X-X-X-X-X-X-X-X-X-X-X-X-X-X-X-X-X-X-X-X-X-X-X-X-X-X-X-X-X-X-X-X-X-X-X-X-X-X-X-X-X-X-X-X-X-X-X-X-X-X-X-X-X-X-X-X-X",
"-X-X-X-X-X-X-X-X-X-X-X-X-X-X-X-X-X-X-X-X-X-X-X-X-X-X-X-X-X-X-X-X-X-X-X-X-X-X-X-X-X-X-X-X-X-X-X-X-X-X-X-X-X-X-X-X-X-X-X-X-X-X-X-X",
"-X-X-X-X-X-X-X-X-X-X-X-X-X-X-X-X-X-X-X-X-X-X-X-X-X-X-X-X-X-X-X-X-X-X-X-X-X-X-X-X-X-X-X-X-X-X-X-X-X-X-X-X-X-X-X-X-X-X-X-X-X-X-X-X",
"-X-X-X-X-X-X-X-X-X-X-X-X-X-X-X-X-X-X-X-X-X-X-X-X-X-X-X-X-X-X-X-X-X-X-X-X-X-X-X-X-X-X-X-X-X-X-X-X-X-X-X-X-X-X-X-X-X-X-X-X-X-X-X-X",
"-X-X-X-X-X-X-X-X-X-X-X-X-X-X-X-X-X-X-X-X-X-X-X-X-X-X-X-X-X-X-X-X-X-X-X-X-X-X-X-X-X-X-X-X-X-X-X-X-X-X-X-X-X-X-X-X-X-X-X-X-X-X-X-X",
"-X-X-X-X-X-X-X-X-X-X-X-X-X-X-X-X-X-X-X-X-X-X-X-X-X-X-X-X-X-X-X-X-X-X-X-X-X-X-X-X-X-X-X-X-X-X-X-X-X-X-X-X-X-X-X-X-X-X-X-X-X-X-X-X",
"-X-X-X-X-X-X-X-X-X-X-X-X-X-X-X-X-X-X-X-X-X-X-X-X-X-X-X-X-X-X-X-X-X-X-X-X-X-X-X-X-X-X-X-X-X-X-X-X-X-X-X-X-X-X-X-X-X-X-X-X-X-X-X-X",
"-X-X-X-X-X-X-X-X-X-X-X-X-X-X-X-X-X-X-X-X-X-X-X-X-X-X-X-X-X-X-X-X-X-X-X-X-X-X-X-X-X-X-X-X-X-X-X-X-X-X-X-X-X-X-X-X-X-X-X-X-X-X-X-X",
"-X-X-X-X-X-X-X-X-X-X-X-X-X-X-X-X-X-X-X-X-X-X-X-X-X-X-X-X-X-X-X-X-X-X-X-X-X-X-X-X-X-X-X-X-X-X-X-X-X-X-X-X-X-X-X-X-X-X-X-X-X-X-X-X",
"-X-X-X-X-X-X-X-X-X-X-X-X-X-X-X-X-X-X-X-X-X-X-X-X-X-X-X-X-X-X-X-X-X-X-X-X-X-X-X-X-X-X-X-X-X-X-X-X-X-X-X-X-X-X-X-X-X-X-X-X-X-X-X-X",
"-X-X-X-X-X-X-X-X-X-X-X-X-X-X-X-X-X-X-X-X-X-X-X-X-X-X-X-X-X-X-X-X-X-X-X-X-X-X-X-X-X-X-X-X-X-X-X-X-X-X-X-X-X-X-X-X-X-X-X-X-X-X-X-X",
"-X-X-X-X-X-X-X-X-X-X-X-X-X-X-X-X-X-X-X-X-X-X-X-X-X-X-X-X-X-X-X-X-X-X-X-X-X-X-X-X-X-X-X-X-X-X-X-X-X-X-X-X-X-X-X-X-X-X-X-X-X-X-X-X",
"-X-X-X-X-X-X-X-X-X-X-X-X-X-X-X-X-X-X-X-X-X-X-X-X-X-X-X-X-X-X-X-X-X-X-X-X-X-X-X-X-X-X-X-X-X-X-X-X-X-X-X-X-X-X-X-X-X-X-X-X-X-X-X-X",
"-X-X-X-X-X-X-X-X-X-X-X-X-X-X-X-X-X-X-X-X-X-X-X-X-X-X-X-X-X-X-X-X-X-X-X-X-X-X-X-X-X-X-X-X-X-X-X-X-X-X-X-X-X-X-X-X-X-X-X-X-X-X-X-X",
"-X-X-X-X-X-X-X-X-X-X-X-X-X-X-X-X-X-X-X-X-X-X-X-X-X-X-X-X-X-X-X-X-X-X-X-X-X-X-X-X-X-X-X-X-X-X-X-X-X-X-X-X-X-X-X-X-X-X-X-X-X-X-X-X",
"-X-X-X-X-X-X-X-X-X-X-X-X-X-X-X-X-X-X-X-X-X-X-X-X-X-X-X-X-X-X-X-X-X-X-X-X-X-X-X-X-X-X-X-X-X-X-X-X-X-X-X-X-X-X-X-X-X-X-X-X-X-X-X-X",
"-X-X-X-X-X-X-X-X-X-X-X-X-X-X-X-X-X-X-X-X-X-X-X-X-X-X-X-X-X-X-X-X-X-X-X-X-X-X-X-X-X-X=X-X-X-X-X-X-X-X-X-X-X-X-X-X-X-X-X-X-X-X-X-X",
"-X-X-X-X-X-X-X-X-X-X-X-X-X-X-X-X-X-X-X-X-X-X-X-X-X-X-X-X-X-X-X-X-X-X-X-X-X-X-X-X-X-X&X-X-X-X-X-X-X-X-X-X-X-X-X-X-X-X-X-X-X-X-X-X",
"-X-X-X-X-X-X-X-X-X-X-X-X-X-X-X-X-X-X-X-X-X-X-X-X-X-X-X-X-X-X-X-X-X-X-X-X-X-X-XR.B.L.#X-X-X-X-X-X-X-X-X-X-X-X-X-X-X-X-X-X-X-X-X-X",
"-X-X-X-X-X-X-X-X-X-X-X-X-X-X-X-X-X-X-X-X-X-X-X-X-X-X-X-X-X-X-X-X-X-X-X-X-XR.B.%.P L.k.G.G.-X-X-X-X-X-X-X-X-X-X-X-X-X-X-X-X-X-X-X",
"-X-X-X-X-X-X-X-X-X-X-X-X-X-X-X-X-X-X-X-X-X-X-X-X-X-X-X-X-X-X-X-X-X-X-X-X-XN.%.2 @ K $X7.&.-.-X-X-X-X-X-X-X-X-X-X-X-X-X-X-X-X-X-X",
"-X-X-X-X-X-X-X-X-X-X-X-X-X-X-X-X-X-X-X-X-X-X-X-X-X-X-X-X-X-X-X-X-X-X-X-XV.P < # 4 6 i.h.I &.&.-X-X-X-X-X-X-X-X-X-X-X-X-X-X-X-X-X",
"-X-X-X-X-X-X-X-X-X-X-X-X-X-X-X-X-X-X-X-X-X-X-X-X-X-X-X-X-X-X-X-X-X-X-XZ.-XL # 6 a O.C.G.r s ^ -X-X-X-X-X-X-X-X-X-X-X-X-X-X-X-X-X",
"-X-X-X-X-X-X-X-X-X-X-X-X-X-X-X-X-X-X-X-X-X-X-X-X-X-X-X-X-X-X-X-X-X-X-X-XN.< & / 6.5.C.C.a $.a ! -X-X-X-X-X-X-X-X-X-X-X-X-X-X-X-X",
"-X-X-X-X-X-X-X-X-X-X-X-X-X-X-X-X-X-X-X-X-X-X-X-X-X-X-X-X-X-X-X-Xe . f E.*.O # 5.|.6.M.F.* ,.{ { ^ -X-X-X-X-X-X-X-X-X-X-X-X-X-X-X",
"-X-X-X-X-X-X-X-X-X-X-X-X-X-X-X-X-X-X-X-X-X-X-X-X-X-X-X-X-X-XC A ] +   :.E O * #.|.D.;.6.M W l.[.I -X-X-X-X-X-X-X-X-X-X-X-X-X-X-X",
"-X-X-X-X-X-X-X-X-X-X-X-X-X-X-X-X-X-X-X-X-X-X-X-X-X-X-X-X-XM ' 3.Z Z k g P < 3 <.}.5.1.| S m 7.%XOX-X-X-X-X-X-X-X-X-X-X-X-X-X-X-X",
"-X-X-X-X-X-X-X-X-X-X-X-X-X-X-X-X-X-X-X-X-X-X-X-X-X-X-X-X0 ' g.] m } ..r d = 4 x XXk.S J D n K f.-X-X-X-X-X-X-X-X-X-X-X-X-X-X-X-X",
"-X-X-X-X-X-X-X-X-X-X-X-X-X-X-X-X-X-X-X-X-X-X-X-X-X-X-Xe } _ ' _ } g.I.m d . & x `.5.b v N V * -X-X-X-X-X-X-X-X-X-X-X-X-X-X-X-X-X",
"-X-X-X-X-X-X-X-X-X-X-X-X-X-X-X-X-X-X-X-X-X-X-X-X-X-X-XZ ` _ X...g.g.P.Z # 6 4 ,. X8.b N N N * -X-X-X-X-X-X-X-X-X-X-X-X-X-X-X-X-X",
"-X-X-X-X-X-X-X-X-X-X-X-X-X-X-X-X-X-X-X-X-X-X-X-X-X-Xw.w.A A _  ...I.Y...# 0 y #.oX<.n -XG N % -X-X-X-X-X-X-X-X-X-X-X-X-X-X-X-X-X",
"-X-X-X-X-X-X-X-X-X-X-X-X-X-X-X-X-X-X-X-X-X-X-X-X-X-Xt.s.J e e.c.Y.h.c.e.# * Z / {.O.3 -X-XN o -X-X-X-X-X-X-X-X-X-X-X-X-X-X-X-X-X",
"-X-X-X-X-X-X-X-X-X-X-X-X-X-X-X-X-X-X-X-X-X-X-X-X-Xr.q. .n 0.U.c.U.+Xc.u.* + p ^ |.<.t -X-X-X. -X-X-X-X-X-X-X-X-X-X-X-X-X-X-X-X-X",
"-X-X-X-X-X-X-X-X-X-X-X-X-X-X-X-X-X-X-X-X-X-X-X-X-Xa.B b J x.x.t.m.b.c.s.0 # y 2..Xk ) -X-X-X. -X-X-X-X-X-X-X-X-X-X-X-X-X-X-X-X-X",
"-X-X-X-X-X-X-X-X-X-X-X-X-X-X-X-X-X-X-X-X-X-X-X-X-X9.+ : H s.q.q.q.m.x.s.w + m 4.Q + 6 & -X+ # 3 $X-X-X-X-X-X-X-X-X-X-X-X-X-X-X-X",
"-X-X-X-X-X-X-X-X-X-X-X-X-X-X-X-X-X-X-X-X-X-X-X-X-Xv -X> K q.q.9.q.a.p.p.e @ p F   $ 5 ) # . + i.n.z.-X-X-X-X-X-X-X-X-X-X-X-X-X-X",
"-X-X-X-X-X-X-X-X-X-X-X-X-X-X-X-X-X-X-X-X-X-X-X-Xo -X-X> N D 6 # & w B 0.V % q p -X-X-X-X-X-X-XOX-X-X-X-X-X-X-X-X-X-X-X-X-X-X-X-X",
"-X-X-X-X-X-X-X-X-X-X-X-X-X-X-X-X-X-X-X-X-X-X-X-Xo -XX b H m t ! 4 r l Q G % + 3 # & * y u.-X-X-X-X-X-X-X-X-X-X-X-X-X-X-X-X-X-X-X",
"-X-X-X-X-X-X-X-X-X-X-X-X-X-X-X-X-X-X-X-X-X-X-X-X-X-X  v H n * m ) j @.c % *   . + $ 8 v.+X@X-X-X-X-X-X-X-X-X-X-X-X-X-X-X-X-X-X-X",
"-X-X-X-X-X-X-X-X-X-X-X-X-X-X-X-X-X-X-X-X-X-X-X-X-X-XX , N , . Z X.@.c . . * -X-X. -X-X%X-X-X-X-X-X-X-X-X-X-X-X-X-X-X-X-X-X-X-X-X",
"-X-X-X-X-X-X-X-X~.-X-X-X-X-X-X-X-X-X-X-X-X-X-X-X-XX     : $ . 0 X.] = . . , . -X-X-X-X-X-X-X-X-X-X-X-X-X-X-X-X-X-X-X-X-X-X-X-X-X",
"-X-X-X-X-X-X-X-XZ./.-X-X-X-X-X-X-X-X-X-X-X-X-X-X-XO     % .   * Z { $   + 5 # -X-X-X-X-X-X-X-X-X-X-X-X-X-X-X-X-X-X-X-X-X-X-X-X-X",
"-X-X-X-X-X-X-X-X*.;.J.(.-X-X-X-X-X-X-X-X-X-X-X-X-     . ; j h . q X.-X  . + + -X. + | $X-X-X-X-X-X-X-X-X-X-X-X-X-X-X-X-X-X-X-X-X",
"-X-X-X-X-X-X-X-X-XB.T.^.W.-X-X-X-X-X-X-X-X-X-X+.O     + h @.s   & i 5 -X  + 6 0 + . -Xz.n.-X-X-X-X-X-X-X-X-X-X-X-X-X-X-X-X-X-X-X",
"-X-X-X-X-X-X-X-X-XS.G.~.T.-X-X-X-X-X-X-X-X).F.&..     j I -X-X  8 9 3 . . % 4 q + -X-X-X-X-X-X-X-X-X-X-X-X-X-X-X-X-X-X-X-X-X-X-X",
"-X-X-X-X-X-X-X-X-X-XH.Q.>./.-X-X-X-X-XY D.E +.3 5 . - l -X-X-X. 9 3 -X-X    -X-X-X-X-X-X-X-X-X-X-X-X-X-X-X-X-X-X-X-X-X-X-X-X-X-X",
"-X-X-X-X-X-X-X-X-X-X-X_.-.z -.C.J.!.-.< s ) ` ) c ; 1 -X-X-X-X. 8 3 -X+ & -X-X-X-X-X-X-X-X-X-X-X-X-X-X-X-X-X-X-X-X-X-X-X-X-X-X-X",
"-X-X-X-X-X-X-X-X-X-X-X-X-Xx [ ^ k ~ ~ u g.j.2.1.j -X-X-X-X-X-X  $ 8 $ & 9 u.&X-X-X-X-X-X-X-X-X-X-X-X-X-X-X-X-X-X-X-X-X-X-X-X-X-X",
"-X-X-X-X-X-X-X-X-X-X-X-X-X-X-XI ,.<.,.F 5.@.-X-X-X-X-X-X-X-X-X    . . 0 n.*XOX-X-X-X-X-X-X-X-X-X-X-X-X-X-X-X-X-X-X-X-X-X-X-X-X-X",
"-X-X-X-X-X-X-X-X-X-X-X-X-X-X-X-X-X-X-X-X-X-X-X-X-X-X-X-X-X-X-X-X-X-X-X-X-X-X-X-X-X-X-X-X-X-X-X-X-X-X-X-X-X-X-X-X-X-X-X-X-X-X-X-X",
"-X-X-X-X-X-X-X-X-X-X-X-X-X-X-X-X-X-X-X-X-X-X-X-X-X-X-X-X-X-X-X-X-X-X-X-X-X-X-X-X-X-X-X-X-X-X-X-X-X-X-X-X-X-X-X-X-X-X-X-X-X-X-X-X",
"-X-X-X-X-X-X-X-X-X-X-X-X-X-X-X-X-X-X-X-X-X-X-X-X-X-X-X-X-X-X-X-X-X-X-X-X-X-X-X-X-X-X-X-X-X-X-X-X-X-X-X-X-X-X-X-X-X-X-X-X-X-X-X-X",
"-X-X-X-X-X-X-X-X-X-X-X-X-X-X-X-X-X-X-X-X-X-X-X-X-X-X-X-X-X-X-X-X-X-X-X-X-X-X-X-X-X-X-X-X-X-X-X-X-X-X-X-X-X-X-X-X-X-X-X-X-X-X-X-X",
"-X-X-X-X-X-X-X-X-X-X-X-X-X-X-X-X-X-X-X-X-X-X-X-X-X-X-X-X-X-X-X-X-X-X-X-X-X-X-X-X-X-X-X-X-X-X-X-X-X-X-X-X-X-X-X-X-X-X-X-X-X-X-X-X",
"-X-X-X-X-X-X-X-X-X-X-X-X-X-X-X-X-X-X-X-X-X-X-X-X-X-X-X-X-X-X-X-X-X-X-X-X-X-X-X-X-X-X-X-X-X-X-X-X-X-X-X-X-X-X-X-X-X-X-X-X-X-X-X-X",
"-X-X-X-X-X-X-X-X-X-X-X-X-X-X-X-X-X-X-X-X-X-X-X-X-X-X-X-X-X-X-X-X-X-X-X-X-X-X-X-X-X-X-X-X-X-X-X-X-X-X-X-X-X-X-X-X-X-X-X-X-X-X-X-X",
"-X-X-X-X-X-X-X-X-X-X-X-X-X-X-X-X-X-X-X-X-X-X-X-X-X-X-X-X-X-X-X-X-X-X-X-X-X-X-X-X-X-X-X-X-X-X-X-X-X-X-X-X-X-X-X-X-X-X-X-X-X-X-X-X",
"-X-X-X-X-X-X-X-X-X-X-X-X-X-X-X-X-X-X-X-X-X-X-X-X-X-X-X-X-X-X-X-X-X-X-X-X-X-X-X-X-X-X-X-X-X-X-X-X-X-X-X-X-X-X-X-X-X-X-X-X-X-X-X-X",
"-X-X-X-X-X-X-X-X-X-X-X-X-X-X-X-X-X-X-X-X-X-X-X-X-X-X-X-X-X-X-X-X-X-X-X-X-X-X-X-X-X-X-X-X-X-X-X-X-X-X-X-X-X-X-X-X-X-X-X-X-X-X-X-X"
};
