/* XPM */
static char *result[] = {
/* columns rows colors chars-per-pixel */
"64 64 202 2 ",
"   c #010501",
".  c #020C02",
"X  c #0B0C03",
"o  c #070D08",
"O  c #031403",
"+  c #041B04",
"@  c #0B1C06",
"#  c #0A1409",
"$  c #071E09",
"%  c #0A1C0B",
"&  c #081408",
"*  c #131A03",
"=  c #1D1C03",
"-  c #1E1A0C",
";  c #171402",
":  c #0E1713",
">  c #111516",
",  c #141E15",
"<  c #151E18",
"1  c #221D09",
"2  c #052205",
"3  c #072309",
"4  c #0B240B",
"5  c #0B2B0C",
"6  c #092607",
"7  c #13250C",
"8  c #1A250B",
"9  c #0E2711",
"0  c #0E2A10",
"q  c #152413",
"w  c #182316",
"e  c #122C14",
"r  c #1A2B15",
"t  c #172419",
"y  c #1B241B",
"u  c #1E2B1D",
"i  c #162F18",
"p  c #143216",
"a  c #1C3A11",
"s  c #163219",
"d  c #19321A",
"f  c #1B3B1D",
"g  c #29260B",
"h  c #372206",
"j  c #3C2A06",
"k  c #39290A",
"l  c #3D3206",
"z  c #252D13",
"x  c #222B1E",
"c  c #2F2E10",
"v  c #352C12",
"b  c #3A2E16",
"n  c #25331B",
"m  c #333415",
"M  c #3A3213",
"N  c #383A1F",
"B  c #1B1F22",
"V  c #1D2324",
"C  c #1F2C22",
"Z  c #1F2328",
"A  c #1F3522",
"S  c #1D3D21",
"D  c #212523",
"F  c #222D25",
"G  c #202429",
"H  c #252C2C",
"J  c #2F2A21",
"K  c #243424",
"L  c #293B26",
"P  c #273429",
"I  c #293B2B",
"U  c #293926",
"Y  c #303C2C",
"T  c #2A2D34",
"R  c #242830",
"E  c #2B3332",
"W  c #2C3C33",
"Q  c #293135",
"!  c #323A3C",
"~  c #33363C",
"^  c #432A07",
"/  c #462F0A",
"(  c #4C340D",
")  c #44300B",
"_  c #523A0E",
"`  c #58380B",
"'  c #4A3915",
"]  c #5D3E11",
"[  c #1B4319",
"{  c #36451F",
"}  c #224223",
"|  c #2B4629",
" . c #2B4C2C",
".. c #294525",
"X. c #36422F",
"o. c #29512B",
"O. c #2E4831",
"+. c #334D32",
"@. c #3A4C33",
"#. c #34423C",
"$. c #334835",
"%. c #325333",
"&. c #38563A",
"*. c #2F6127",
"=. c #4F4D0D",
"-. c #49441C",
";. c #544716",
":. c #6A4210",
">. c #6D4C11",
",. c #744611",
"<. c #734C12",
"1. c #6C5916",
"2. c #785817",
"3. c #796B16",
"4. c #78761B",
"5. c #444E2C",
"6. c #5F4E22",
"7. c #4C5427",
"8. c #48433B",
"9. c #455738",
"0. c #605622",
"q. c #755321",
"w. c #644C34",
"e. c #6D5C35",
"r. c #48633A",
"t. c #6C6921",
"y. c #7A6B32",
"u. c #343942",
"i. c #383C46",
"p. c #3B4344",
"a. c #3B4F44",
"s. c #3C434A",
"d. c #374445",
"f. c #3B5242",
"g. c #434E4C",
"h. c #46484C",
"j. c #415C45",
"k. c #45574D",
"l. c #464F54",
"z. c #485D51",
"x. c #535351",
"c. c #565A46",
"v. c #785146",
"b. c #486B4B",
"n. c #486746",
"m. c #586C47",
"M. c #4C6752",
"N. c #4F7255",
"B. c #5B7254",
"V. c #63724A",
"C. c #62675E",
"Z. c #6F7E59",
"A. c #677E55",
"S. c #6C716B",
"D. c #6D7D75",
"F. c #7C7466",
"G. c #814E14",
"H. c #8B5B1C",
"J. c #835815",
"K. c #89651A",
"L. c #836319",
"P. c #96691D",
"I. c #89731C",
"U. c #93751C",
"Y. c #927A1C",
"T. c #866F2E",
"R. c #996920",
"E. c #9A7E22",
"W. c #A56F26",
"Q. c #A37423",
"!. c #937949",
"~. c #927568",
"^. c #5C875E",
"/. c #61875D",
"(. c #758B5E",
"). c #5E8A60",
"_. c #799464",
"`. c #92821C",
"'. c #A3811E",
"]. c #9B9726",
"[. c #A58328",
"{. c #B1882A",
"}. c #AD9D2A",
"|. c #B39323",
" X c #B08E3F",
".X c #ACAA32",
"XX c #BAAB2C",
"oX c #A68946",
"OX c #B68F42",
"+X c #B99443",
"@X c #AE8356",
"#X c #879968",
"$X c #818C76",
"%X c #B0AA71",
"&X c #C1A762",
"*X c #8C8986",
"=X c #908E91",
"-X c #8F9090",
";X c #B3A683",
":X c #9FA2A0",
">X c #B6B5B8",
",X c None",
/* pixels */
",X,X,X,X,X,X,X,X,X,X,X,X,X,X,X,X,X,X,X,X,X,X,X,X,X,X,X,X,X,X,X,X,X,X,X,X,X,X,X,X,X,X,X,X,X,X,X,X,X,X,X,X,X,X,X,X,X,X,X,X,X,X,X,X",
",X,X,X,X,X,X,X,X,X,X,X,X,X,X,X,X,X,X,X,X,X,X,X,X,X,X,X,X,X,X,X,X,X,X,X,X,X,X,X,X,X,X,X,X,X,X,X,X,X,X,X,X,X,X,X,X,X,X,X,X,X,X,X,X",
",X,X,X,X,X,X,X,X,X,X,X,X,X,X,X,X,X,X,X,X,X,X,X,X,X,X,X,X,X,X,X,X,X,X,X,X,X,X,X,X,X,X,X,X,X,X,X,X,X,X,X,X,X,X,X,X,X,X,X,X,X,X,X,X",
",X,X,X,X,X,X,X,X,X,X,X,X,X,X,X,X,X,X,X,X,X,X,X,X,X,X,X,X,X,X,X,X,X,X,X,X,X,X,X,X,X,X,X,X,X,X,X,X,X,X,X,X,X,X,X,X,X,X,X,X,X,X,X,X",
",X,X,X,X,X,X,X,X,X,X,X,X,X,X,X,X,X,X,X,X,X,X,X,X,X,X,X,X,X,X,X,X,X,X,X,X,X,X,X,X,X,X,X,X,X,X,X,X,X,X,X,X,X,X,X,X,X,X,X,X,X,X,X,X",
",X,X,X,X,X,X,X,X,X,X,X,X,X,X,X,X,X,X,X,X,X,X,X,X,X,X,X,X,X,X,X,X,X,X,X,X,X,X,X,X,X,X,X,X,X,X,X,X,X,X,X,X,X,X,X,X,X,X,X,X,X,X,X,X",
",X,X,X,X,X,X,X,X,X,X,X,X,X,X,X,X,X,X,X,X,X,X,X,X,X,X,X,X,X,X,X,X,X,X,X,X,X,X,X,X,X,X,X,X,X,X,X,X,X,X,X,X,X,X,X,X,X,X,X,X,X,X,X,X",
",X,X,X,X,X,X,X,X,X,X,X,X,X,X,X,X,X,X,X,X,X,X,X,X,X,X,X,X,X,X,X,X,X,X,X,X,X,X,X,X,X,X,X,X,X,X,X,X,X,X,X,X,X,X,X,X,X,X,X,X,X,X,X,X",
",X,X,X,X,X,X,X,X,X,X,X,X,X,X,X,X,X,X,X,X,X,X,X,X,X,X,X,X,X,X,X,X,X,X,X,X,X,X,X,X,X,X,X,X,X,X,X,X,X,X,X,X,X,X,X,X,X,X,X,X,X,X,X,X",
",X,X,X,X,X,X,X,X,X,X,X,X,X,X,X,X,X,X,X,X,X,X,X,X,X,X,X,X,X,X,X,X,X,X,X,X,X,X,X,X,X,X,X,X,X,X,X,X,X,X,X,X,X,X,X,X,X,X,X,X,X,X,X,X",
",X,X,X,X,X,X,X,X,X,X,X,X,X,X,X,X,X,X,X,X,X,X,X,X,X,X,X,X,X,X,X,X,X,X,X,X,X,X,X,X,X,X,X,X,X,X,X,X,X,X,X,X,X,X,X,X,X,X,X,X,X,X,X,X",
",X,X,X,X,X,X,X,X,X,X,X,X,X,X,X,X,X,X,X,X,X,X,X,X,X,X,X,X,X,X,X,X,X,X,X,X,X,X,X,X,X,X,X,X,X,X,X,X,X,X,X,X,X,X,X,X,X,X,X,X,X,X,X,X",
",X,X,X,X,X,X,X,X,X,X,X,X,X,X,X,X,X,X,X,X,X,X,X,X,X,X,X,X,X,X,X,X,X,X,X,X,X,X,X,X,X,X,X,X,X,X,X,X,X,X,X,X,X,X,X,X,X,X,X,X,X,X,X,X",
",X,X,X,X,X,X,X,X,X,X,X,X,X,X,X,X,X,X,X,X,X,X,X,X,X,X,X,X,X,X,X,X,X,X,X,X,X,X,X,X,X,X,X,X,X,X,X,X,X,X,X,X,X,X,X,X,X,X,X,X,X,X,X,X",
",X,X,X,X,X,X,X,X,X,X,X,X,X,X,X,X,X,X,X,X,X,X,X,X,X,X,X,X,X,X,X,X,X,X,X,X,X,X,X,X,X,X,X,X,X,X,X,X,X,X,X,X,X,X,X,X,X,X,X,X,X,X,X,X",
",X,X,X,X,X,X,X,X,X,X,X,X,X,X,X,X,X,X,X,X,X,X,X,X,X,X,X,X,X,X,X,X,X,X,X,X,X,X,X,X,X,X,X,X,X,X,X,X,X,X,X,X,X,X,X,X,X,X,X,X,X,X,X,X",
",X,X,X,X,X,X,X,X,X,X,X,X,X,X,X,X,X,X,X,X,X,X,X,X,X,X,X,X,X,X,X,X,X,X,X,X,X,X,X,X,X,X,X,X,X,X,X,X,X,X,X,X,X,X,X,X,X,X,X,X,X,X,X,X",
",X,X,X,X,X,X,X,X,X,X,X,X,X,X,X,Xw u w w w 7 5 3 2 + O . & > V : & ,X,X,X,X,X,X,X,X,X,X,X,X,X,X,X,X,X,X,X,X,X,X,X,X,X,X,X,X,X,X,X",
",X,X,X,X,X,X,X,X,X,X,X,X,X,X,X,X,X,X,X,X,X> > : : 9 % 3 3 3 F E ! W W O.I d & ,X,X,X,X,X,X,X,X,X,X,X,X,X,X,X,X,X,X,X,X,X,X,X,X,X",
",X,X,X,X,X,X,X,X,X,X,X,X,X,X,X,X,X,X,X,X,X,XG G Z H H P F F C 9 i I j.^.).^./.B.@.. ,X,X,X,X,X,X,X,X,X,X,X,X,X,X,X,X,X,X,X,X,X,X",
",X,X,X,X,X,X,X,X,X,X,X,X,X,X,X,X,X,X,X,X,X,X,Xi.u.s.d.a.j.f.b.b.&.@.L S  .&.n.r.9., X . ,X,X,X,X,X,X,X,X,X,X,X,X,X,X,X,X,X,X,X,X",
",X,X,X,X,X,X,X,X,X,X,X,X,X,X,X,X,X,X,X,X,X,X,Xh.i.h.a.f.&.&. .+.| %.b.n + p &./.(.m.U O ,X,X,X,X,X,X,X,X,X,X,X,X,X,X,X,X,X,X,X,X",
",X,X,X,X,X,X,X,X,X,X,X,X,X,X,X,X,X,X,X,X,X,X,Xs.H F 9 t y E D u u u w w @ O 2 | (.(.r O ,X,X,X,X,X,X,X,X,X,X,X,X,X,X,X,X,X,X,X,X",
",X,X,X,X,X,X,X,X,X,X,X,X,X,X,X,X,X,X,X,Xw < < V R G T H ! W F y V C x x K y % $ r.n % ,X,X,X,X,X,X,X,X,X,X,X,X,X,X,X,X,X,X,X,X,X",
",X,X,X,X,X,X,X,X,X,X,X,X,X,X,X,X,XX o ,X,X,X,X,X,Xp.u.T T G D H F F C u x U z V.(.$ ,X,X,X,X,X,X,X*X,X,X,X,X,X,X,X,X,X,X,X,X,X,X",
",X,X,X,X,X,X,X,X,X,X,X,X,X,X,X,X,X,X,X,X,X,X,X,X,X,X,XT B G G H H F K U F < # #Xr ,X,X,X,X,X,X,X%X;X@XH.Q.{.W.,X,X,X,X,X,X,X,X,X",
",X,X,X,X,X,X,X,X,X,X,X,X,X,X,X,X,X,X,X,X,X,X,X,X,X,X,XE Z G H E W U L $.Y # w x + ,X,X,X,X,X[.U.' 8.*XF.q.2.-.-.m ,X,X,X,X,X,X,X",
",X,X,X,X,X,X,X,X,X,X,X,X,X,X,X,X,X,X,X,X,X,X,X,X,X,X,X,XT Q E #.W K +.9.X.# 5.Z.O ,X,X,X}.P.J.= 2 5 d S.C.c.{ t.a [ a -.,X,X,X,X",
",X,X,X,X,X,X,X,X,X,X,X,X,X,X,X,X,X,X,X,X,X,X,X,X,X,X,X,Xi.u.#.I P A A 9 # . w #X8 ,X,X,XU.:.g 2 S S | | R.[.7.*.&.A.$X5.,X,X,X,X",
",X,X,X,X,X,X,X,X,X,X,X,X,X,X,X,X,X,X,X,X,X,X,X,X,X,X,X,Xu.~ V t : y P I I & & A.n.O ,X|.2.j + f 9.1.5.t.R.R.E.n w.v.~.>X,X,X,X,X",
",X,X,X,X,X,X,X,X,X,X,X,X,X,X,X,X,X,X,X,X,X,X,X,X,X,X,XH y < y V Z H W f.j.K . 7 m.+ ,X,X] O 5  .oXe.,X,XE.R.H.Y.,Xw 8.x.,X,X,X,X",
",X,X,X,X,X,X,X,X,X,X,X,X,X,X,X,X,X,X,X,X,X,X,X,X,X,Xo o < ,X,X,X~ ~ d.a.n.b.w . 2 g _ <.j 2 n y.OX,X,X,X].[.U.XX,X,X,X,X,X,X,X,X",
",X,X,X,X,X,X,X,X,X,X,X,X,X,X,X,X,X,X,X,X,X,X,X,X,X  ,X,X,X,X,X,X,X~ s.k.M.N.b.o $ 2 ` ] . 6 @.oXOX,X,X,X,X.X,X,X,X,X,X,X,X,X,X,X",
",X,X,X,X,X,X,X,X,X,X,X,X,X,X,X,X,X,X,X,X,X,X,X,X,X,X,X,X,X,X,X,X`.b s.g.k.M.b.t & 2 2 3 5 p 5.+X,X,X,X,X,X,X,X,X,X,X,X,X,X,X,X,X",
",X,X,X,X,X,X,X,X,X,X,X,X,X,X,X,X,X,X,X,X,X,X,X,X,X,X,X,X,X}.I.2.G.( i.l.k.O.A + . + + 9 } } T.&X,X,X,X,X,X,X,X,X,X,X,X,X,X,X,X,X",
",X,X,X,X,X,X,X,X,X,X,X,X,X,X,X,X,X,X,X,X,X,X,X,X,X,X,X,X,X:.:./ . 9 E E 4 2 2 2 2 2 O e +.o. X!.,X,X,X,X,X,X,X,X,X,X,X,X,X,X,X,X",
",X,X,X,X,X,X,X,X,X,X,X,X,X,X,X,X,X,X,X,X,X,X,X,X,X,X,X,XL.,.h   & f [ + 3 5 5 5 p d O 0  ...!.,X,X,X,X,X,X,X,X,X,X,X,X,X,X,X,X,X",
",X,X,X,X,X,X,X,X,X,X,X,X,X,X,X,X,X,X,X,X,X,X,X,X,X,X,XI.<.^ X   % [ %.f 9 0 0 0 d d + s ..0.,X,X,X,X,X,X,X,X,X,X,X,X,X,X,X,X,X,X",
",X,X,X,X,X,X,X,X,X,X,X,X,X,X,X,X,X,X,X,X,X,X,X,X'.J.K.^ ^ X . . 4 S o.p e r p d z M @ f o.Y @ + + ,X,X,X,X,X,X,X,X,X,X,X,X,X,X,X",
",X,X,X,X,X,X,X,X,X,X,X,X,X,X,X,X,X,X,X,X,X,XY.L.( ( = & . . . O 9 O.| z M M ) M ' k $ f r @ O O O g.-X,X,X,X,X,X,X,X,X,X,X,X,X,X",
",X,X,X,X,X,X,X,X,X,X,X,X,X,X,X,X,X,X,XY.,.>.h 1 * O O + + & o & i o.| ) g g - - - o % $ $ 4 9 9 s ,X,X,X,X,X,X,X,X,X,X,X,X,X,X,X",
",X,X,X,X,X,X,X,X,X,X,X,X,X,X,X,X,XJ.>./ j O O + $ O . + 4 6 + $ s S u o 9 ,X,X,X,X  . O & % # A (.:X,X,X,X,X,X,X,X,X,X,X,X,X,X,X",
",X,X,X,X,X,X,X,X,X,X,X,X3.1.>.` ) * * + 2 7 8 z c - . S d f %.e S S O O 3 ,X,X,X,X,X,X,X,X,X,X,X,X,X,X,X,X,X,X,X,X,X,X,X,X,X,X,X",
",X,X,X,X,X,XJ.G.K.I.=.^ 1 8 6 7 7 z z m M M v v J C i s 3 9 9 4 S i     ,X,X,X,X,X,X,X,X,X,X,X,X,X,X,X,X,X,X,X,X,X,X,X,X,X,X,X,X",
",X,X,X,X1.;.` 3.4.4.;.;.c ,X,X,X,X,X,X,X,X,X,X,Xi %.S     ,X. o . ,X,X,X,X,X,X,X,X,X,X,X,X,X,X,X,X,X,X,X,X,X,X,X,X,X,X,X,X,X,X,X",
",X,X,XL.;.( >.2.J.>.<.,X,X,X,X,X,X,X,X,X,X,X=Xk.%.d ,X,X,X,X,X,X,X,X,X,X,X,X,X,X,X,X,X,X,X,X,X,X,X,X,X,X,X,X,X,X,X,X,X,X,X,X,X,X",
",X,X,X,X,X,X,X,X,X,X,X,X,X,X,X,X,X,X,X,X,X,Xh.D o ,X,X,X,X,X,X,X,X,X,X,X,X,X,X,X,X,X,X,X,X,X,X,X,X,X,X,X,X,X,X,X,X,X,X,X,X,X,X,X",
",X,X,X,X,X,X,X,X,X,X,X,X,X,X,X,X,X,X,X,X,X,X,X,X,X,X,X,X,X,X,X,X,X,X,X,X,X,X,X,X,X,X,X,X,X,X,X,X,X,X,X,X,X,X,X,X,X,X,X,X,X,X,X,X",
",X,X,X,X,X,X,X,X,X,X,X,X,X,X,X,X,X,X,X,X,X,X,X,X,X,X,X,X,X,X,X,X,X,X,X,X,X,X,X,X,X,X,X,X,X,X,X,X,X,X,X,X,X,X,X,X,X,X,X,X,X,X,X,X",
",X,X,X,X,X,X,X,X,X,X,X,X,X,X,X,X,X,X,X,X,X,X,X,X,X,X,X,X,X,X,X,X,X,X,X,X,X,X,X,X,X,X,X,X,X,X,X,X,X,X,X,X,X,X,X,X,X,X,X,X,X,X,X,X",
",X,X,X,X,X,X,X,X,X,X,X,X,X,X,X,X,X,X,X,X,X,X,X,X,X,X,X,X,X,X,X,X,X,X,X,X,X,X,X,X,X,X,X,X,X,X,X,X,X,X,X,X,X,X,X,X,X,X,X,X,X,X,X,X",
",X,X,X,X,X,X,X,X,X,X,X,X,X,X,X,X,X,X,X,X,X,X,X,X,X,X,X,X,X,X,X,X,X,X,X,X,X,X,X,X,X,X,X,X,X,X,X,X,X,X,X,X,X,X,X,X,X,X,X,X,X,X,X,X",
",X,X,X,X,X,X,X,X,X,X,X,X,X,X,X,X,X,X,X,X,X,X,X,X,X,X,X,X,X,X,X,X,X,X,X,X,X,X,X,X,X,X,X,X,X,X,X,X,X,X,X,X,X,X,X,X,X,X,X,X,X,X,X,X",
",X,X,X,X,X,X,X,X,X,X,X,X,X,X,X,X,X,X,X,X,X,X,X,X,X,X,X,X,X,X,X,X,X,X,X,X,X,X,X,X,X,X,X,X,X,X,X,X,X,X,X,X,X,X,X,X,X,X,X,X,X,X,X,X",
",X,X,X,X,X,X,X,X,X,X,X,X,X,X,X,X,X,X,X,X,X,X,X,X,X,X,X,X,X,X,X,X,X,X,X,X,X,X,X,X,X,X,X,X,X,X,X,X,X,X,X,X,X,X,X,X,X,X,X,X,X,X,X,X",
",X,X,X,X,X,X,X,X,X,X,X,X,X,X,X,X,X,X,X,X,X,X,X,X,X,X,X,X,X,X,X,X,X,X,X,X,X,X,X,X,X,X,X,X,X,X,X,X,X,X,X,X,X,X,X,X,X,X,X,X,X,X,X,X",
",X,X,X,X,X,X,X,X,X,X,X,X,X,X,X,X,X,X,X,X,X,X,X,X,X,X,X,X,X,X,X,X,X,X,X,X,X,X,X,X,X,X,X,X,X,X,X,X,X,X,X,X,X,X,X,X,X,X,X,X,X,X,X,X",
",X,X,X,X,X,X,X,X,X,X,X,X,X,X,X,X,X,X,X,X,X,X,X,X,X,X,X,X,X,X,X,X,X,X,X,X,X,X,X,X,X,X,X,X,X,X,X,X,X,X,X,X,X,X,X,X,X,X,X,X,X,X,X,X",
",X,X,X,X,X,X,X,X,X,X,X,X,X,X,X,X,X,X,X,X,X,X,X,X,X,X,X,X,X,X,X,X,X,X,X,X,X,X,X,X,X,X,X,X,X,X,X,X,X,X,X,X,X,X,X,X,X,X,X,X,X,X,X,X",
",X,X,X,X,X,X,X,X,X,X,X,X,X,X,X,X,X,X,X,X,X,X,X,X,X,X,X,X,X,X,X,X,X,X,X,X,X,X,X,X,X,X,X,X,X,X,X,X,X,X,X,X,X,X,X,X,X,X,X,X,X,X,X,X",
",X,X,X,X,X,X,X,X,X,X,X,X,X,X,X,X,X,X,X,X,X,X,X,X,X,X,X,X,X,X,X,X,X,X,X,X,X,X,X,X,X,X,X,X,X,X,X,X,X,X,X,X,X,X,X,X,X,X,X,X,X,X,X,X",
",X,X,X,X,X,X,X,X,X,X,X,X,X,X,X,X,X,X,X,X,X,X,X,X,X,X,X,X,X,X,X,X,X,X,X,X,X,X,X,X,X,X,X,X,X,X,X,X,X,X,X,X,X,X,X,X,X,X,X,X,X,X,X,X",
",X,X,X,X,X,X,X,X,X,X,X,X,X,X,X,X,X,X,X,X,X,X,X,X,X,X,X,X,X,X,X,X,X,X,X,X,X,X,X,X,X,X,X,X,X,X,X,X,X,X,X,X,X,X,X,X,X,X,X,X,X,X,X,X",
",X,X,X,X,X,X,X,X,X,X,X,X,X,X,X,X,X,X,X,X,X,X,X,X,X,X,X,X,X,X,X,X,X,X,X,X,X,X,X,X,X,X,X,X,X,X,X,X,X,X,X,X,X,X,X,X,X,X,X,X,X,X,X,X"
};
