/* XPM */
static char *result[] = {
/* columns rows colors chars-per-pixel */
"64 64 156 2 ",
"   c #030202",
".  c #090606",
"X  c #070806",
"o  c #0B0A06",
"O  c #090708",
"+  c #070808",
"@  c #0C0B0A",
"#  c #150F03",
"$  c #110E0C",
"%  c #0F110D",
"&  c #161004",
"*  c #181305",
"=  c #13120E",
"-  c #19150D",
";  c #1C180D",
":  c #151412",
">  c #1A1613",
",  c #1C1A15",
"<  c #171718",
"1  c #181719",
"2  c #171818",
"3  c #1C1C1A",
"4  c #221D16",
"5  c #221E1A",
"6  c #1E201F",
"7  c #3F2F0D",
"8  c #3E310E",
"9  c #25211B",
"0  c #2C251D",
"q  c #2E281E",
"w  c #30261F",
"e  c #30291E",
"r  c #3E3110",
"t  c #252321",
"y  c #2B2622",
"u  c #2D2924",
"i  c #272A2A",
"p  c #2C2C2C",
"a  c #322C23",
"s  c #322E2B",
"d  c #2E302D",
"f  c #35322E",
"g  c #3D362E",
"h  c #3E382F",
"j  c #2F3030",
"k  c #333332",
"l  c #3A3632",
"z  c #353937",
"x  c #3D3A35",
"c  c #383639",
"v  c #373A3A",
"b  c #3C3C3C",
"n  c #41320E",
"m  c #413510",
"M  c #40372F",
"N  c #41392F",
"B  c #403630",
"V  c #433C33",
"C  c #423F3C",
"Z  c #3D403F",
"A  c #51472D",
"S  c #52482F",
"D  c #444136",
"F  c #494336",
"G  c #45413D",
"H  c #49423A",
"J  c #56493F",
"K  c #584C3F",
"L  c #735C23",
"P  c #756025",
"I  c #756028",
"U  c #403E41",
"Y  c #3F4141",
"T  c #444342",
"R  c #4A4642",
"E  c #4C4A44",
"W  c #4E4D49",
"Q  c #554D42",
"!  c #594E43",
"~  c #534F4A",
"^  c #575044",
"/  c #5B5346",
"(  c #55524C",
")  c #5B554C",
"_  c #5E584B",
"`  c #565251",
"'  c #5A5651",
"]  c #5D5953",
"[  c #5F5C5A",
"{  c #64574A",
"}  c #655B4D",
"|  c #695D4E",
" . c #655C52",
".. c #695E51",
"X. c #645E58",
"o. c #6F6247",
"O. c #6D624E",
"+. c #74654C",
"@. c #75684F",
"#. c #676052",
"$. c #6D6354",
"%. c #6E6856",
"&. c #65615B",
"*. c #6E6559",
"=. c #6F685A",
"-. c #716555",
";. c #746954",
":. c #7A6D54",
">. c #716759",
",. c #736A5B",
"<. c #796D5D",
"1. c #7C7057",
"2. c #77705F",
"3. c #7C715D",
"4. c #756D60",
"5. c #7A6E60",
"6. c #777061",
"7. c #7B7362",
"8. c #7C7867",
"9. c #8A7646",
"0. c #8C764B",
"q. c #8D794C",
"w. c #90794F",
"e. c #817256",
"r. c #8D7D52",
"t. c #81735C",
"y. c #937D53",
"u. c #827563",
"i. c #847B64",
"p. c #9E823E",
"a. c #A2843F",
"s. c #A3893F",
"d. c #9E8441",
"f. c #948055",
"g. c #96845C",
"h. c #98875E",
"j. c #A18641",
"k. c #A38941",
"l. c #A78D4E",
"z. c #AA8E4E",
"x. c #AB914E",
"c. c #A78D50",
"v. c #AA8E51",
"b. c #AD9253",
"n. c #AE9659",
"m. c #B09759",
"M. c #B0985B",
"N. c #BFA25D",
"B. c #988860",
"V. c #BBA56C",
"C. c #C2A45D",
"Z. c #C4A85F",
"A. c #C2A661",
"S. c #C5A961",
"D. c #CCB16F",
"F. c #CCB270",
/* pixels */
"        o o X                                                                                   X X X   . .   . . o # $ $ o .   ",
"X X o = ; 6 * % @ X + o + O X         + @ @ @ @ + + + + + + + +   +   +     +   + o @ @ @ @ @ : : : : : $ $ $ $ - ; 5 5 4 > = $ ",
"2 2 3 y a a u 9 9 2 3 3 5 3 1 : < < < < 6 3 6 3 3 2 6 3 3 3 3 1 1 < < 1 < < < : 2 3 5 3 6 t y u p a u y a p a y y a M g g f a t ",
"p s z x F F G Z z d p s k k s p i i i j j j j j k k k k k j j j j p p p p p i p j k k c b G T E R R T T C H U C C H Q ! ! Q E T ",
"b T T W ~ ' ) ~ R C b C U U U C v v v v Y Y T T U T T Y G Y U b c U c U Z v Z v U U T E ~  .X.X.X. .` ' ' ' ' ` ` ~ ] ..$.&.X.] ",
"T R W ~ ( ' ' ' W R U R R R U C b v Z Z Y T T T T T R R E T T T U U U U Y Y Y Y T T R ~ ' X.&.&.&.X. .] [ ] X. .' '  ...*.*.&.[ ",
"T T R R R W W W E G C C C C C c z z z z b Z U Y Y Z Z b Z x v l c c v v c c b b b x C E ` X.X. .] ] ( ( ~ ( ( ( E E ~ ' ]  .] ` ",
"l x x x l l x x l z g f f s s p i i i i j j k c k j d d d p p p i p p p p j k k s p k C E ~ ~ R E H R G G G H C B C C R Q W R T ",
"s s s a y y p p u y 0 9 t 9 t t 5 3 3 3 6 i p p i t 9 6 3 6 6 2 1 1 6 3 5 6 y y t t t p c B c l h h l l f f g s p s f M V V B l ",
"a y y w 5 4 5 5 9 , > : : 1 4 5 , > > : > 2 6 6 6 , : = = : % : $ : $ : $ 4 4 5 5 5 1 5 5 5 5 w a s s a a u t t t 0 w a a s a a ",
"s a a y 5 3 4 4 9 ; - @ @ $ : > > - = = : , 4 5 , , = % @ % @ + @ @ @ @ $ $ - 4 0 5 4 : > > > 5 0 u a a a a u q q q q w w y 5 w ",
"f f s a 5 , 4 4 9 9 - @ O @ $ - - - = - , 4 5 5 2 , : = % @ % @ @ @ @ @ O O $ 4 0 y 5 , 1 1 5 5 9 q a a a u y a y e q 9 0 5 5 5 ",
"B l s y w 1 > 4 5 5 4 $ O O $ $ = & = > , 4 3 9 5 , , , : % % @ O @ @ $ O O $ 5 w w w 5 t t t 5 9 9 0 q e y y a a a w 0 4 4 4 0 ",
"l s a 5 5 > > 4 0 4 - $ @ @ $ $ $ % % = > , 5 9 9 3 4 , ; : % @ O @ @ @ @ @ @ 5 w w 5 5 t t 5 5 5 9 9 9 9 5 0 w e q 0 5 4 4 4 4 ",
"u t 5 > > > - > 4 4 4 $ $ @ $ $ : : : : - > , 9 9 5 4 > 2 : : % $ $ @ O @ @ @ < 4 5 4 1 1 1 4 1 ; 6 9 9 4 , 4 5 9 9 5 4 4 4 4 4 ",
"> : $ $ $ $ > - > > > : $ O $ - , 3 > : = = , , 3 4 , > 2 : : : : : % $ @ O @ % $ - : $ $ > > > , , 6 6 , : $ - > 4 > , 4 4 4 4 ",
"O .   X O $ $ = : : > : % o % 6 9 9 6 % % % ; 6 , , > : : : : : 1 > $ @ O . O # @ $ @ $ % : : 2 , , 2 2 $ $ $ o $ $ : 1 , 9 0 q ",
"        X . @ $ % = = % % X o ; 9 9 ; % X % = * - - = = % % % = : : $ O . . O . O O + o @ % % % : 2 : = . .   . . @ @ = - 4 9 q ",
"          .   O X @ + + X   X = ; ; % o X X o % & o o X X X X X $ $ @ .     . . +     X + @ o % @ % % X . . . .   . . o & ; ; 4 ",
"# # # # # # # # & & & # & & & & * ; * * & & * & * & & & & & & & & # # # # # # # # $ # & & = & & = & & & # # # # # # # # * * * ; ",
"m n n n m m m m 8 8 8 r r n n n n n n m m m m m 8 8 8 8 r r r r n 7 7 n n n n n n n n n 8 8 8 8 8 n n n n n n n n n n 8 n n m m ",
"P P P P L I L L L L L L L L L L P P P P P P P P P P P P L L L L L L L L L L L L L L L L P P P L L L L L L L L L L L P P P P I I ",
"s.s.s.k.k.k.k.k.a.p.j.k.y.j.j.p.a.a.s.s.s.s.s.s.k.p.d.d.d.d.j.d.p.p.p.p.a.a.a.a.a.a.j.j.p.p.p.p.p.p.a.a.a.a.a.a.a.s.s.s.s.s.k.k.",
"Z.Z.Z.C.Z.C.Z.C.C.C.C.M.C.C.C.C.C.C.N.Z.Z.N.Z.Z.N.N.N.N.N.N.A.M.N.N.C.C.C.C.C.C.C.C.C.C.N.N.N.N.m.C.C.C.N.N.C.C.C.C.Z.N.Z.Z.Z.S.",
"D.D.D.D.D.D.F.D.F.F.F.F.F.F.D.D.D.D.D.D.D.D.F.F.F.F.F.F.F.D.D.D.S.D.F.F.F.F.F.F.D.D.D.D.D.D.D.D.F.F.F.V.D.D.D.D.D.D.D.D.D.F.F.F.",
"V.V.V.V.V.V.V.V.V.V.V.V.V.V.V.V.V.V.V.V.V.V.V.V.V.V.V.V.V.V.V.V.V.V.V.A.V.V.V.V.V.V.V.V.V.V.V.V.V.V.V.V.V.V.V.V.V.V.V.V.V.V.V.V.",
"f.f.f.f.f.r.f.q.r.f.f.r.r.r.y.y.f.f.f.q.f.f.f.f.r.f.f.r.r.r.r.r.w.y.y.y.r.r.y.y.f.r.f.f.r.f.r.f.f.f.f.9.f.f.f.f.w.r.r.r.f.f.f.f.",
"A A A A S A A A F A A A S S S S A A A A A A A S A A A A S S S S V S S S S S S F A A A S A A F A A A A A A A A A A A S S A S A A ",
"9 0 q q q q q q 0 0 q q q a a a q a a a a a e a 9 q q w q a q q q q q w y w q w q q e q q q q q t q q q q e e e e e e q 0 q e e ",
"h h h M g M h N h h g h V V H H D D V D D F F F Z Z g V V V V x g g g l M M M M N h N N Z h h Z Z f r Z Z Z D D D D D Z Z D F F ",
"^ ! ^ ! K K K K K J J J ) {  . .} _ _ _ _ } } { K K ^ ! / ) / Q Q J Q ! ! ! ! ! K ^ K K S K ^ ^ K K K K ^ _ _ _ _ _ ) _ _ _ _ #.",
"} } | } { { { } _ { { } ..>.>.>.=.,.*.$.O.;.;.%.o.#.| ...... . .} } { | | | | | } o.#._ #._ _ #._ _ _ _ #.#.#.%.#.%.%.$.$.#.%.%.",
"-...$.O.| | } | | | ....-.>.>.<.<.,.>.-.-.;.;.-.>...-.X.>.$.#.#.#.#.$.#.$.$.-.| ..| | |  . . .....$... .} #.#.#.%.=.=.4.=.=.,.=.",
">.-.-...$.#.....$...........-.>.;.-.-.-.O.-.+.>.-...>.*.$.$.$.$.$.$.#.$.$.-.-.-...| | | |  .........} } } }  .#.&.%.=.2.2.=.,.=.",
">.>.>.-.$.$...#...#...$.........$.-.$.O.O.O.+.$.-.>.>.>.>...$.#.#.#.$.$...-.-.-.$....... .}  ....... .{ { } | | $.*.,.<.6.,.,.,.",
"<.>.-.;.>.$.#.....$.$....... . ...O.$.$.O.O.O.$.>.>.,.>.>.$.#.#.............-.$.#...} ..| }  ..... .{ { { { } ..$.%.,.<.2.2.,.,.",
">.>.<.<.,.>.$.$.$...$...........$.*.$.$.$.$.-.>.>.>.<.,.>.$.$.$...........$.$.$.#.#.} } | } } } | } { { { }  ...&.=.,.4.<.,.,.,.",
">.<.<.:.:.-.$.$.$.$.-.-...*.*.*.=.>.,.>.>.>.$.-.>.>.,.>.*.*.$.$.$...$...$.$.$.$.O.#.O.} } } } } | { } { } }  .$.=.=.,.,.,.,.,.*.",
";.>.>.<.-.>.$.*.$.-.-.-.$.>.>.=.<.5.5.<.>.$...>...>.>.>.,.$.%.$.$.$.$.-.-.$.$.$.O.#.#.} } } } } } { } { } |  .$.;.=.,.,.,.,.=.=.",
">.>.<.>.>.>.*.$.>.>.-.-.*.,.5.<.6.6.<.<.>.>.$...*.*.*.>.$.%.=.%.$.-.$.*.-.-.>.>.$.O.#.O.} #.#.{ } { } } | | ..$.=.,.=.,.=.=.=.%.",
"<.<.<.<.;.>.$.$.%.,.,.;.;.,.2.7.6.3.2.,.%.$.$.*.&.*.*.*.*.*.%.;.$.$.$.$.>.>.>.>.$.$.$.#.#.} #.} | { { { | | ..$.=.,.,.=.=.=.%.$.",
"<.7.u.<.,.$.$.>.,.,.,.,.=.,.2.8.7.3.,.,.%.%.,.=.=.....*.$.$.,.,.-.$.$.$.$.>.;.;.$.$.$.$.#.} } #.| { o.| | | ..-.=.=.=.$.*.$.%.$.",
"<.7.u.u.<.$.$.%.,.<.,.,.,.2.2.7.8.7.2.,.=.,.4.4.4.*.*.$.>.$.,.$.$.$.$.$.$.>.-.>.>.$.$.#.#.} } } { } { | | | | $.*.*.$.*.$.$.$.-.",
"<.3.u.7.,.*.$.;.,.,.,.;.=.=.=.7.8.7.3.,.2.5.4.4.4.>.*.-.>.,.=.%.$.$.#.$.$.-.>.-.-.>.$.#.} } } } { { | { | | } O.$.>.$.$.$...$.-.",
"<.5.5.5.<.,.,.>.>.-.>.%.$.;.<.5.7.7.6.6.,.6.4.4.4.=.*.>.>.,.,.*.$.$.#.$.#.$.$.$.$.$.....| { { { | | | | } { } } $.%.$.$.-.$...>.",
"<.5.5.5.,.,.,.$.-.$.O.$.$.>.<.<.6.5.7.<.<.,.=.=.>.$.X.>.>.,.,.*.$.#.O.$.......*.$.$.....| | } | { o.| } } { } o.$.$.,.,.-.$.*...",
",.,.,.>.4.>.*...#.O.| $.;.,.<.5.5.5.<.<.,.,.,.=.$.$.O.-.>.>.,.$.%.$.O.#.$...*...........| | | } | | | } { { } } $.%.=.*.>.$.....",
"<.,.>.>.>.>... .} | | O.>.;.<.5.5.<.<.,.>.$.,.*.>.#.| | -.-.;.>.$.$.#.#.-.-.>.$.$...$.$...$.........| } { { { #.$.$.*.>.$.$.#...",
"<.>.>.>.>.#...{  .| | O.-.-.>.<.<.<.<.>.-.-.$.-.O.O.O.O.-.;.;.,.%.$.$.$.%.=.,.=.$.*.X.*.*.*.*.&.X.....| { { } } O.-.$.$.$.$.O.O.",
"<.>.<.-.#...| { { | | ..O.-.-.;.-.<.>.>.$.-.-.-.;.$.O.$.$.;.,.,.%.%.$.$.=.,.,.=.*.>.>.*.*.>.=.=.>.X.....| } } | O.O.O.$.$.O.O.O.",
"5.5.>.-.$...} } | | $.O.+.-.-.-.>.-.$.=.>.>.-.-.-.%.$.-.%.$.$.;.=.%.$.=.;.,.,.,.>.>.=.*.*.>.=.=.4.X.....| { | | ....O.O.O.-.+.$.",
"7.5.5.>.&.$.} O.#.$.$.O...-.....#.$.$.%.>.>.$.>.$.;.$.O.$.$.$.%.=.,.=.=.,.=.,.,.,.>.>.=.*.>.,.=.4.4.....| | | | } ..#.$.$.$.+.-.",
"8.7.4.4.,.*.$.O.-...-.| ....| | } #.#.$.%.%.%.O.O.%.-...$.$.$.>.,.,.,.,.,.,.,.%.*.=.%.$.=.,.=.,.>.>.....| | | } } | O.$.$.+.-.-.",
"8.8.8.7.6.<.<.:.e.e.-.| -.| | | #._ } O.%.%.$.#.O.$.-...$.O.$.>.,.,.4.4.,.2.,.,.$.$.$.$.$.;.,.,.>.>.-...| | { { O.| #.$.$.-.-.;.",
"i.i.i.i.7.t.t.t.e.e.e.+.+.+.+.o.o.o.O.+.%.+.@.+.@.@.@.+.+.+.:.:.t.u.<.t.1.1.1.:.:.;.;.;.-.;.;.:.<.:.+.+.+.+.+.9.+.+.;.;.:.:.:.:.",
"h.B.B.B.g.g.g.f.w.w.w.w.0.0.0.0.9.9.0.0.q.0.9.9.q.q.q.0.0.0.0.y.y.y.y.y.f.f.f.f.q.q.9.q.0.0.r.q.w.w.w.0.w.0.9.9.q.9.q.q.0.q.q.q.",
"M.M.M.M.n.b.n.b.v.v.v.y.b.z.z.z.x.x.l.x.x.x.x.x.c.c.c.c.c.z.z.v.v.b.m.m.b.b.m.b.b.x.l.l.l.c.z.b.b.v.x.x.x.x.x.x.x.x.x.x.b.b.c.c.",
"S.S.S.S.S.C.V.A.A.A.A.A.S.S.Z.S.Z.S.Z.S.S.S.V.N.A.A.A.N.C.C.Z.A.A.A.S.S.S.S.S.S.S.S.S.N.Z.V.C.V.Z.A.S.Z.Z.S.Z.S.S.S.S.S.Z.N.V.S.",
"F.F.F.F.F.F.F.F.D.D.D.D.D.D.D.D.F.F.D.D.D.F.F.F.D.D.D.D.D.D.D.F.D.F.F.F.F.F.D.D.F.F.F.F.D.D.D.D.D.D.F.F.F.F.F.F.F.F.F.F.D.D.D.D.",
"V.V.V.V.V.V.V.V.V.V.V.V.V.V.D.A.V.V.V.V.V.V.V.V.V.V.V.V.V.V.V.V.A.V.V.V.V.V.V.A.V.V.V.V.V.V.V.V.V.V.V.V.V.V.V.V.V.V.V.V.V.V.V.V.",
"f.f.q.f.r.q.r.r.r.r.r.q.w.y.y.y.r.r.q.f.r.r.q.r.r.y.y.r.r.r.q.r.r.r.q.r.y.r.r.r.r.r.q.r.r.r.q.r.w.y.y.r.r.q.r.r.r.f.q.r.f.q.f.r.",
"S F A A A A A A A S S A V S S V A A A A A A A A V S A S A A A A A A A A S S F S A A A A A A A A S S A A A A A A A A A A A A A A ",
"; ; - - - ; ; - ; ; ; ; ; * ; ; - ; ; - ; ; - ; ; - - ; - ; ; - ; ; - ; ; ; ; ; - ; ; - ; ; - ; ; ; - ; - ; ; ; - ; - ; ; ; - ; ",
"                        . . . .                                                                                                 "
};
