/* XPM */
static char *result[] = {
/* columns rows colors chars-per-pixel */
"64 64 123 2 ",
"   c #040403",
".  c #080706",
"X  c #070806",
"o  c #0A0907",
"O  c #070708",
"+  c #080708",
"@  c #070909",
"#  c #0C0B0A",
"$  c #150E02",
"%  c #110E0C",
"&  c #0E110E",
"*  c #13120E",
"=  c #19150F",
"-  c #1D180D",
";  c #0D0F10",
":  c #151412",
">  c #191612",
",  c #161913",
"<  c #1B1A15",
"1  c #1C1B1B",
"2  c #221C15",
"3  c #221E1A",
"4  c #1E201E",
"5  c #3E2F0E",
"6  c #3E310E",
"7  c #242017",
"8  c #22211D",
"9  c #2D261C",
"0  c #2E291E",
"q  c #30251E",
"w  c #32291F",
"e  c #3E3110",
"r  c #232322",
"t  c #2A2623",
"y  c #262825",
"u  c #2B2925",
"i  c #2C2C2A",
"p  c #342D22",
"a  c #312E2A",
"s  c #34322D",
"d  c #3C352C",
"f  c #3E392E",
"g  c #343431",
"h  c #3C3731",
"j  c #3D3932",
"k  c #41320E",
"l  c #413410",
"z  c #41372C",
"x  c #413A2F",
"c  c #413B32",
"v  c #51472E",
"b  c #52482F",
"n  c #494336",
"m  c #554A3D",
"M  c #594D3F",
"N  c #735C24",
"B  c #705B28",
"V  c #756025",
"C  c #554C41",
"Z  c #584F42",
"A  c #575042",
"S  c #5A5244",
"D  c #5D5348",
"F  c #625546",
"G  c #625846",
"H  c #61564A",
"J  c #665B4D",
"K  c #695D4E",
"L  c #675D50",
"P  c #6A5E51",
"I  c #6A604F",
"U  c #73654C",
"Y  c #6D6354",
"T  c #6E6658",
"R  c #6F6859",
"E  c #716555",
"W  c #736956",
"Q  c #7A6D55",
"!  c #716659",
"~  c #746A5B",
"^  c #796E5C",
"/  c #7C715D",
"(  c #766E60",
")  c #796F61",
"_  c #777061",
"`  c #7C7363",
"'  c #7F7966",
"]  c #8B764B",
"[  c #8D784E",
"{  c #817156",
"}  c #8D7D53",
"|  c #82745B",
" . c #86795E",
".. c #88795C",
"X. c #927D52",
"o. c #817563",
"O. c #847964",
"+. c #897A63",
"@. c #847B69",
"#. c #9F833F",
"$. c #A3843F",
"%. c #A3883F",
"&. c #9E8341",
"*. c #958155",
"=. c #9A8356",
"-. c #978459",
";. c #9A845A",
":. c #A18540",
">. c #A38841",
",. c #A78D4E",
"<. c #AD8E4F",
"1. c #A9904F",
"2. c #AA8E51",
"3. c #AE9354",
"4. c #B19555",
"5. c #BFA25D",
"6. c #BBA56C",
"7. c #C2A45D",
"8. c #C4A661",
"9. c #C5A962",
"0. c #CBAF6F",
"q. c #CCB16F",
"w. c #CDB270",
/* pixels */
"  $ 6 V $.7.w.6.} b 0 x A K I I K Y W ^ | / W E Y Y Y Y Y E W ~ ~ ~ W ~ Q [ ,.5.0.6.} b 2 2 q p w 9 2 - & o X     O ; 1 r r 4 : ",
"  $ k N $.7.w.9.} b 0 x A K I I K U Q ^ / / Q Y R Y R R T W W ~ ~ Q W R Q *.,.6.0.6.} b 2 2 q p p w 2 - # X       O ; 1 r r 4 : ",
"  $ k N :.7.w.6.} b p x A J Y I I E ^ ^ / ^ W T R R R R ~ ~ ~ ~ ~ R E E W [ ,.7.0.6.} b - 2 q w w w 7 = o X       @ ; 1 r r 4 : ",
"  $ k N :.7.w.6.} b u c S I Y Y Y E Q / ^ ~ W T ! R R R ~ ~ ^ ~ ~ E R Y U [ 3.7.0.6.} b - 2 q q w 9 2 * o X         ; 1 4 r 1 : ",
"  $ k N $.7.w.6.*.b 0 n D I Y Y Y E W W ~ ! ! ~ ~ R T ~ ~ ( / / ~ E Y Y Q ] 1.8.q.6.} b 2 $ 2 7 9 7 > * o X     O @ ; 1 4 r 1 ; ",
"  $ k N $.7.0.6.*.b 0 n J R E Y I Y E W W ! ~ ~ ~ R T T ! ( ` ` ^ E Y T Q [ ,.6.0.6.} b - o % = > > * % # o     O @ ; 1 r r 1 ; ",
"  $ 5 N $.7.0.6.*.n p n G W E Y I Y Y Y ! ! ~ ! T T T T ~ / ` ` ^ E E ! Q } 1.8.q.6.} v - . . @ # # % * $ # X     O ; 1 r r 1 : ",
"  $ 5 N $.7.0.8.*.v p n G R E I K K Y T W ! ~ ~ T T T T ~ ` O.O.` ~ ~ ~ / } 3.8.q.6.} v -     o @ o @ # & o o       ; 1 r r 1 1 ",
"  $ 5 N #.5.w.6.} v 0 n G I Y I L L P P Y ! ! T T T Y T ! ( o.` ` ~ _ _ / -.3.9.w.6.*.v - X X # @ . . . # @ X       ; 1 r r r 3 ",
"  $ 5 N #.5.w.6.} v 0 f A I I I I I Y Y Y T T T T T T T ! ( ` ' ' ` ` _ | -.3.9.w.6.*.v - X @ @ @ . o o o o X X   O : 4 i i r 3 ",
"  $ 6 N #.5.w.6.} v y f m J I I Y Y Y Y Y E Y T T T ! ! ( ( ` ' ' ` ) ) / -.4.9.q.6.} v - X @ # # @ # # # # # o O + : r i i r 8 ",
"  o 6 N #.5.w.6.} v 9 f A J L R Y I E Y P P Y W ! ! ! ! ( ( ` ' ' ` ` _ ' -.4.9.q.6.} v - X @ X @ # @ # * * * * # ; 1 r g g y 1 ",
"  $ 5 B #.5.6.6.*.b 0 f m G L L Y E E E P P P Y ! ! ! ~ ~ _ ' ' ' ` ` ` O.-.4.9.w.6.] v & X X X . + @ % * = > , ; ; : r i i r 1 ",
"  $ 5 B #.5.w.6.} b 0 f A L L R I E I I P P P P Y T ! ~ ( _ ' ' ' ' ' ` o.-.4.9.w.6.*.v -           o # = < 7 < : ; ; 1 r y 4 : ",
"  $ 5 B #.5.6.6.} v 0 s A L L I E I P P P J J L P Y ! ! ( _ ` @.@.@.@.'  .*.3.9.w.6.*.v -             # * 2 3 2 : @ ; 1 r r 1 : ",
"  o 6 B %.5.w.6.*.v y g A G G J K K P P P J J J J P T ! ~ ( _ ' @.@.@.' / *.3.9.w.6.*.n -             o * < 3 2 = # ; 1 4 r 1 : ",
"  $ 6 N #.5.q.6.} b 9 d m F J J J K P P P P P P L L L Y R ( ( ` ' -.@.` / X.3.7.0.6.[ v -       +     . % 2 2 2 > # % 1 4 4 4 1 ",
"  $ 6 N #.5.q.6.} b 9 d b F J G J J P P P P P L L L T T R R ~ ` ' ' ' ` / X.3.9.0.6.*.v -   X X o       # > 3 3 > # % 1 r r 1 : ",
"  $ 6 N %.5.w.6.} b 0 e m G J G J J K P Y P P L L T T T T ! ( ) _ _ ^ ~ Q [ 1.7.q.6.*.v - X o o o   @ + # > 2 > % % % 1 r r 1 : ",
"  $ 6 V %.5.w.6.} b 0 d m G J K J J P P L P P P L T T T ( ~ ~ ) ( ( W E Q [ 3.7.q.6.[ v - X X o @ + . @ # % % % % . % 1 r r 1 : ",
"  $ l V >.5.w.6.} b 9 d M M J K L L P L L L T T Y T T R ! ~ ( ~ ( T T L U ] ,.5.w.6.} v -     X @ @ + o # % % o + + ; 1 r r 1 ; ",
"  - l V >.5.w.6.} b 0 d M F K K P Y T Y T Y Y T T T T R ! ~ ( ( R T T L I ] ,.5.w.6.} v -       o @ + o o % % o + @ : 1 r r 1 : ",
"  $ l V %.5.w.6.[ b w z M G I E ! ! T T Y T Y T ! ! T ! ! ^ ^ ^ T T L I U ] ,.5.0.6.} v =         + + + o o o . + # : 1 r r 1 1 ",
"  $ l V %.9.w.6.X.v w z M U U E Q ^ T T T T T T T ! ! W E ! Q ! T L Y I U ] ,.6.w.6.} v =           . + # # # + . # : r r r 1 : ",
"  $ 6 V %.7.q.6.X.b 0 x A K Y E W ^ W ! R ~ ~ ( ~ T T T Y W W ~ T L Y I U ] ,.7.q.6.*.v =           + @ # @ @ @   # < r i i 4 1 ",
"  $ 6 V %.7.q.6.} b 0 x C K I E ! W ~ W ~ ^ _ _ ( R T Y Y Y W ! T Y Y Y Q [ 1.7.w.6.} v -             @ # ; # @ @ # < y a i 4 1 ",
"  $ l V $.7.q.6.} b 9 z C J K Y W W ! ! ! ^ ) ` ` ~ T Y I Y Y ! ~ R T W Q *.3.7.w.6.} v =       O     O # # @ @ o % < u g i r 1 ",
"  $ k N $.7.q.6.} b 0 d A D J Y E E E E ! ~ ( ` ` ~ W Y Y P W W ! E W W / -.4.9.w.6.} v -         + O O # # ; @ @ * 1 u g g r : ",
"  $ e N :.7.q.6.} b 9 d m F J I P E E E E ! ~ ) / ~ ~ ! T Y Y W W W Y W { -.4.9.w.6.*.v -       + @ # # # ; # @ O ; 1 i i i y : ",
"  $ 6 N :.7.q.6.} b 9 d m F K K P E W ! E ! ! ~ ^ ) ~ ! E E W W Y Y Y W { =.4.9.w.6.} v -     . + @ # # ; ; ; @ O ; : r i i r : ",
"  o k N &.7.0.6.} b 9 d M G P L P E W W W W ! ~ ~ ~ ~ ! E T ! ! E Y Y W Q =.4.7.w.6.} b -     o @ @ % : : : ; # O # : r i i r : ",
"  $ 5 N &.6.0.6.} b 0 d M G Y I Y E W Q ~ E ~ ~ ~ ( ~ ~ R T ! ! E Y Y W } =.4.9.w.6.} b - . o # * : : > : : : ; + # : r y y r : ",
"  $ 6 B &.5.q.6.} b 0 x A J I I Y P E ! ! ( ! ! _ ~ ~ R E R R E Y T W Q ..=.4.9.q.6.} b - . # * , < < 4 < < < * % # : 4 y u 3 1 ",
"  $ 6 B &.5.q.6.} b 0 x A J I K P P P P ! ! { ^ ^ ~ ~ ~ R E Y Y Y E ~ / ..=.4.9.q.6.} b 2 o * = > < < 2 < < < - * * : 1 y y r 1 ",
"  $ 6 V #.5.q.6.} b 0 x A I Y Y P L P P P ! ( ) _ ~ ~ ^ ~ ~ R E E ~ ^ / *.=.4.9.q.6.} b - # * , , , > > - < < - * * : 4 t u u t ",
"  $ 6 V #.5.w.6.} b u j S I T W Y L J K ! ^ ) ) ( / ^ ^ / ~ R R R ~ ^ /  .=.4.7.q.6.} b - $ * : : : * : , < < , = * < t g s a u ",
"  $ 6 N >.5.q.6.} b 0 c D Y ! ~ Y P J J P ! ^ ) ` ^ ^ ^ / ~ ~ ~ ~ / / | ..*.3.7.q.6.} b - o & * & & & * = : : * % = 3 a h j g i ",
"  $ 6 V >.7.w.6.} b w c D Y ~ ^ ~ W P J P Y ^ { o.o.^ ^ ~ ~ Q ^ / o.` o.| *.4.9.q.6.} b - X X # & * = , : = * & % > 8 a j c h a ",
"  $ 6 V >.8.w.6.} b w c S Y ~ ^ ^ Q E J P P E ^ o.o./ ^ ~ ~ ( | O.O.o.o.| X.<.8.q.6.} b -     # & * , , : = * # o * 3 a c c h a ",
"  $ l V >.7.w.6.} b 0 c S Y E W Q E E K J P P ! ^ / ` / ^ ^ ) o.O.O.o.| { X.4.8.q.6.} b -   o @ & & * > > , : # % % 1 a h c d a ",
"  $ k V %.7.q.6.} b 0 c S I Y R ! E P L L P P Y ~ / ` / ` o.o.+.O.O.` ^ { *.1.9.w.6.*.v - X @ # # # * = > > > % o % < t g g a p ",
"  $ k V %.7.w.6.} b u c S L Y R E E P P P P P ! ! ~ ` ` o.o.+.+.o./ ) ^ Q *.1.9.w.6.*.v - o @ # # # % : , > : % $ % : t i g i t ",
"  $ 6 V %.7.w.6.} b 0 c A L Y Y E Y P P P P P ! ! ~ ( ) | o.+.o.` ^ ^ ^ / *.4.9.q.6.} v -   @ @ # # # % = : : % # * < t s s a t ",
"  $ 6 V %.7.w.6.} b 0 x S L Y Y Y E Y P P ! P ! R ! ~ ( ) o.o.o.` ^ ^ ^ / *.3.9.q.6.} v -   X @ # # % # * * % % # * < u g g a u ",
"  $ k N %.7.q.6.} b w f Z P P E ! ! ! P ( ! T T T T T ! ( | O.o./ ^ / / | *.3.9.w.6.Q v -   X X # # % % % % % # o # 1 i s g a t ",
"  $ k N %.7.q.6.} b 0 x D P P E P P ! ! P ! ! P T Y Y T ! ) ) ` o.o.` | | *.3.9.w.6.*.v -   X X # # # # # % # + + # > r s g i t ",
"  $ k N %.7.q.6.} b q c Z K P P P ! ! P P T P ! P T T T ! ( ` ` o.O.O.O. .*.3.9.w.6.*.v -     o # ; # # % # # @ + # 1 r a a t 8 ",
"  $ k N %.7.q.6.X.b w z Z P ! P P P P ! P P T P T T T T ! ( ` ' O.@.+.@. .*.3.9.w.6.*.v -     o # + # # # % % # . # : r i i r 1 ",
"  $ k N $.7.q.8.X.b 0 x S I I I P K K K P E P ! ! Y ! ! R _ _ ` @.+.+.@.+.;.4.9.q.6.} b -   . # # + # # # = % % % # , r i i 4 1 ",
"  $ k N $.7.q.8.X.b w x S I I Y P K K K K K P E ! ! ! ! R ( _ ' @.@.@.@.+.X.4.9.q.6.} b -   X @ # + # # % = > = % % : 8 y y 4 1 ",
"  $ k N $.7.w.6...v q x Z K E I P K K K K K K P Y ! ! ! ~ _ _ ` @.@.@.o.+.;.4.9.w.6.} b -     # # # o o % % : * % % : 8 i i r 1 ",
"  $ k N X.7.w.6.} v 0 j Z K Y U K K F F F K P P Y ! ! ! ~ R _ ` ' o.o.@.+.;.4.9.w.6.} b -   . # # o % % % * % % # % > y i a u r ",
"  $ k N $.7.w.6.} b 0 z S P W Y P K K K H L P P Y Y R R R ~ _ _ ` ' ` `  .;.4.8.w.6.} b -   O # % % % # * > : % # & < y g g a t ",
"  $ k N $.7.0.6.} b u c S Y E E U P K F J H P P Y T Y T R ~ ~ ` o.' ` ) | *.3.9.w.6.} b -   @ # % % % > 2 > > # & * < t g g a p ",
"  $ 5 N $.7.0.6.} b p c F Y E E E P P J J H J P Y Y Y R R ~ ~ ) o.o.` ( { *.4.9.0.6.} b - X @ # + # # > 2 3 : # o * 1 y s s a u ",
"  $ k N $.7.0.8.} b q x Z P E W E P P P P P J P Y Y Y R ~ ! ~ ` ) o.) ( / X.3.8.q.6.} b - X @ # # + # > 3 2 : % o & < u s s s t ",
"  $ k N $.7.0.6.} b 9 z C H P E E E I P I P J J I Y Y E ! ! ! ^ | | ^ ^ ^ X.<.8.w.6.} v -   @ # ; ; # * > : % # o # < u g g a 8 ",
"  $ k N $.7.0.6.} b 9 d C H K P Y U I P U P K J J I E T W E E W ^ ) ^ ^ Q X.4.8.q.6.} b -   @ # ; ; # # % % % # @ # , y s d a 8 ",
"  $ k N $.7.0.6.} b 0 d M F K K I Y I I P P J J I I Y Y T Y Y E W W W Q ^ X.<.8.q.6.} v -   X # ; ; % % > % % + @ # : t a a 0 4 ",
"  $ k N $.7.0.6.} b 9 d M F K P Y I I I K P P L I I P Y I Y Y Y E E ! ! Q X.<.8.q.6.} v -     # # > > > > > % . X o : 8 u i 8 , ",
"  $ 5 N #.5.0.6.} b 9 d m D P P U E I I L L L L L L L I K P P P P E E E U [ <.8.q.6.} v -   X o % > 2 2 2 = % .   X , 8 a p 0 < ",
"  $ 5 N #.5.0.6.} b 9 d m D K P I I E I L L L L L L L L J J P P P P P U Q [ <.8.q.6.} v - X X & % > 2 2 2 = %     o , 8 a s t 1 ",
"  $ 5 B $.5.0.6.} b q d C H K P I Y Y Y Y L L L L L L L K K K K P P P P { ] <.8.q.6.[ v - X o & : : > 3 2 % o       * t s s t < ",
"  $ 5 B X.5.0.6.} b 3 d C H P P Y Y I Y Y Y L L J L L I K J K K J J K P U ] <.8.q.6.*.v - . o * < 1 < : = % .       = 9 d d t 8 "
};
