/* XPM */
static char *result[] = {
/* columns rows colors chars-per-pixel */
"64 64 136 2 ",
"   c #040403",
".  c #090606",
"X  c #070805",
"o  c #0B0906",
"O  c #060608",
"+  c #080608",
"@  c #070808",
"#  c #0C0B09",
"$  c #150E02",
"%  c #110E0B",
"&  c #14110D",
"*  c #1A150E",
"=  c #1D180E",
"-  c #151412",
";  c #1B1611",
":  c #161817",
">  c #1C1A12",
",  c #171818",
"<  c #1B1B1A",
"1  c #21170D",
"2  c #201713",
"3  c #221C14",
"4  c #2A1E15",
"5  c #211F1C",
"6  c #3F2F0D",
"7  c #3E310E",
"8  c #252016",
"9  c #2B2116",
"0  c #24221C",
"q  c #2C261B",
"w  c #2D281D",
"e  c #31271E",
"r  c #322B1F",
"t  c #392F1F",
"y  c #3E3110",
"u  c #262421",
"i  c #2B2722",
"p  c #2B2922",
"a  c #2C2C2C",
"s  c #312B20",
"d  c #392F20",
"f  c #302F2F",
"g  c #3A3223",
"h  c #33322E",
"j  c #3C352C",
"k  c #3E382E",
"l  c #302E30",
"z  c #333333",
"x  c #393633",
"c  c #3C3935",
"v  c #393639",
"b  c #3C3C3B",
"n  c #41320E",
"m  c #413410",
"M  c #413624",
"N  c #453926",
"B  c #42382B",
"V  c #493D29",
"C  c #433D33",
"Z  c #423F3B",
"A  c #4E412C",
"S  c #51472E",
"D  c #52482F",
"F  c #464034",
"G  c #4A4135",
"H  c #43413D",
"J  c #4B453D",
"K  c #534A3E",
"L  c #735C24",
"P  c #756025",
"I  c #756028",
"U  c #413F41",
"Y  c #444442",
"T  c #4B4743",
"R  c #4B4945",
"E  c #4E4C49",
"W  c #544D42",
"Q  c #594E41",
"!  c #504D4A",
"~  c #575045",
"^  c #5B5246",
"/  c #55514B",
"(  c #5C544A",
")  c #5D5751",
"_  c #5A5852",
"`  c #625547",
"'  c #6F5E45",
"]  c #63564A",
"[  c #655A4C",
"{  c #695D4E",
"}  c #705E47",
"|  c #605751",
" . c #655C51",
".. c #6A5E51",
"X. c #6F6147",
"o. c #6C614F",
"O. c #74634B",
"+. c #77684F",
"@. c #796A4E",
"#. c #646056",
"$. c #6C6252",
"%. c #6D6458",
"&. c #726554",
"*. c #746956",
"=. c #7A6B51",
"-. c #716758",
";. c #756B5A",
":. c #796D5A",
">. c #7A705C",
",. c #8A7346",
"<. c #8D754B",
"1. c #8E784C",
"2. c #917C4D",
"3. c #826F50",
"4. c #8D7D53",
"5. c #9F833F",
"6. c #A3843F",
"7. c #A3883F",
"8. c #9E8441",
"9. c #99804F",
"0. c #A18640",
"q. c #A38841",
"w. c #A68B4C",
"e. c #AB8D4E",
"r. c #AC914E",
"t. c #AB8E50",
"y. c #AD9250",
"u. c #B19552",
"i. c #BFA35D",
"p. c #BBA56C",
"a. c #C2A45D",
"s. c #C4A95F",
"d. c #C3A560",
"f. c #C5A961",
"g. c #CCB16F",
"h. c #CCB270",
/* pixels */
"                                                                                                        .                       ",
"$ $ $ $ $ # $ $ $ $ $ $ $ $ $ $ $ $ $ $ $ $ $ $ $ $ $ $ $ $ $ $ $ $ $ $ $ $ $ $ $ $ $ $ $ $ $ $ $ $ $ $ $ $ $ $ $ $ $ $ $ $ $ $ ",
"m 7 7 7 7 7 7 7 6 y y y n n 7 n m m m 7 7 7 7 7 y y 6 6 n n n n 6 n n n n n 6 n 7 7 7 7 6 6 6 6 n n 6 n n n n n n n n m 7 7 6 7 ",
"I P P L L L L L L L L L L L P L P P P P P P P L L L L L L L L L L L L L L L L L P P L L L L L L L L L L L L L L L P P P P L L L ",
"q.q.8.7.5.5.8.8.8.8.0.6.6.6.6.7.7.7.q.7.q.5.5.5.8.8.8.8.5.5.q.0.6.6.6.2.6.6.6.6.7.5.5.5.5.5.5.7.6.6.6.6.6.6.0.0.7.q.q.q.5.7.5.5.",
"d.d.s.s.i.i.i.i.p.a.a.a.a.a.a.a.s.s.i.s.s.s.i.i.p.u.i.i.d.u.d.u.a.a.a.a.a.a.a.a.i.i.i.i.i.i.i.i.a.a.a.a.a.a.a.a.i.s.s.i.s.i.i.i.",
"h.h.h.h.h.g.g.h.g.g.h.g.h.h.g.g.h.h.h.h.g.g.g.g.g.h.h.g.h.g.g.g.g.g.g.g.g.g.g.g.g.g.g.g.g.g.p.h.g.g.g.g.g.g.g.g.h.h.h.h.h.h.h.h.",
"p.p.p.p.p.p.p.p.p.p.p.p.p.f.p.p.p.p.p.p.p.p.p.p.p.p.p.p.p.p.p.p.d.d.p.p.p.p.p.d.p.p.p.p.p.p.p.p.p.p.p.p.d.p.p.p.p.p.p.p.p.p.p.p.",
"4.9.9.9.9.9.9.9.1.4.4.4.4.9.4.4.4.4.4.4.4.4.4.4.4.9.4.9.4.9.9.9.4.4.4.4.4.4.4.4.4.9.4.4.9.4.4.4.4.4.9.9.>.9.9.9.9.9.9.9.>.9.4.4.",
"F S F D F F F S D S S S S S S S D D D D D D S S F S S D F S F D D D D D D S D D D D S S D D S D S S S D D S S D D D S S D D S S ",
"w w q q u w w w w w q w q w w w w q w w q w q q 0 w w q w w w w e i i s p w e w w w p w w w w w p p s w p s w w p w w w w w u u ",
"k h j j k h j k x k j j j j h j j k B k j j g j h h j g j h k k x x B C B C C C k k j j k k k C C H F C F C k k k k k j k k k c ",
"K K K K K K W W W ~ W W K W K W K K ~ K K K K K D J K K K K K K Q W ! / ^ ( ( / ~ ~ K K ~ K ~ ~ ( ( [ ^ ( ~ ~ K K K K K K K K K ",
"( [ ] ( ^ ^ ( [ [ [ [ ( ] ( ] ] ] ( [ ] ( ^ ^ ^ ~ ( _ [ o.) ( ( ]  . . ....... .) X.[ o.[  .[ #.*.*.*.%.$.$.#.o.o.o.o.[ [ _ ^ _ ",
"[ | [  .[ o.#.[ o.#. ... . . . .{ [ [ ] [ [ ^ ( ( [ o.&.$.$.o. .........%.%...%.$.$.$.$.#.o.#.%.;.;.;.;.-.-.$.o.o.o.o.$.o.[ [ ^ ",
"[ [ [ $.#.[ o.[ o.$.$.$.$...$...[ [ [ [ [ [ X.^ ( [ $.-.&.$. . .-.-.-.%...%.....$.$.-.-.&.$.-.;.;.;.;.;.;.-.&.#.$.o.$.o.[ [ ^ ^ ",
"..........o.o. .....%.&.........[ [ ] { { [ [ ` ` o.$.-.-.$.$.$.*.;.*.%... .....o.$.*.;.;.%.;.%.;.;.;.;.-.&.$.$.{ $.....{ ] ^ ^ ",
"..$.$...$.{ #.$...%.%...&.....[ { ] ] [ ' { [ ] ( ( $.*.&.$...$.%.*.%.$. .{  ...#.$.*.;.;.;.;.;.;.;.;.;.*.&.$.o.{ { ....[ ] ^ ^ ",
"....-.&.$.$.{ $...%...%.......{ ] ] [ [ o.o.{ [ ( o.$.&.-.$.o.$.$.%.%.o.{ [ [ ..o.$.$.-.;.;.>.>.>.>.>.>.*.$.o.o.....$.{ { ] ` ` ",
"....-.$.$.$. .$.%...%......... .[ [ [ { o.o.o.X.o.o.$.*.&.o.X.[ o.o...' [ ] [ [ o.#.$.%.;.;.;.>.>.>.>.;.*.&.o.$.&.&.*.&...[ [ [ ",
"[ o.$.$.$.$.$.$.....%.......{ { [ [ [ { $.$.o.#.#.X.$.$.o.o.] [ [  .{ [ ` ` ] [ {  .$.$.&.*.;.>.>.;.;.*.%.$.&.*.=.:.:.-...{ { } ",
"[ [ ( $.$.%.&.$...{ ........ . .[ [ [ { { $.o.[ [ o.$.$.{ [ ] [ [ [ [ [ ` ` ] ] [ {  .$.&.&.*.*.>.;.;.*.*.$.$.*.:.:.:.*...{ ..&.",
"( [ [  .$.%.;.*.&.{ { ....| { ] [ [ [ { o.o.#.[ o.$.$.$.[ [ ( [ [ ] ` ` ` ` ] ] [  .$.$.$.$.$.-.;.>.;.;.o.$.#.$.&.*.*.&...' ..} ",
"[ #. .$.$.*.;.;.&...| ......{  .[ [ [ { { o.[ { o.o.$.o.o.{ { ] [ ] ` ` ] ]  .[ [  ...$.$.%.$.$.;.;.;.#.#.$.o.$...$.&.$...{ { { ",
"[ [ $.$.%.&.*.*.%...{ { .... .{ { [ [  ...O.....$.{ &.$.$.{ { { [ ` ` ] ` ` [ [  . ...$.$.$.$.$.*.-.-.-.&.&.......O.&.&...{ { } ",
"[ #.$.$.-.&.-.&.$.$.{  .......{ { [ { { ..$.&.{ &.&.&.$.$.$. .{ [ [ [ ` ` ` ] [ [ ..%.$.#.$.o.$.&.&.-.&.&.&.&.&.............{ { ",
"[ { o.$.$.-.%.$.$............... .{ [ { ..&.&.&.&.&.&.$.$.$.$. .[ ` ` ` ` ] [ [ {  .....$...{ { } %.&.-.-.&.*.&.&.o.&.&.$.$.{ { ",
"[ { o.$.&.$...$....... .....| { [ [ ' { O.$.&.&.*.*.&.$.o.$.{ { [ ` ` ^ ` ] ] ] ] { .... ...{ o...&.&.&.&.-.*.&.&.o...&.&.....[ ",
"[ { o.{ $.{ $. .{ ...... .{ ..{ [ { { } ..&.&.:.:.:.&.{ [ .. .{ [ ] ` ` ` ] ] ] ] { ......{ ] { } &...&.&.&.&.&.O.&.&.....$.$.{ ",
"[ [ X.o. .[ {  .{ { [ { { { ....{ { { o.&.&.&.&.*.*...[ [ [  .{ { [ ] ] ] ] ] ] ] { ] ....{ { { ....} ..&.&...&.&.&.&.&.-.$.$.$.",
"( [ [ [ { [ [ [ [ [ [  .[ ..O.&.{ ....&.&.&.&.&.*.&.{ [ [  . .$. ...{ {  .[  .] ] ] ] { { ] { { ..} ........&.o.*.*.*.&.O.$.....",
"#.] [ [ ] ] [ [ [ $.[ [ [ { O.&.O.O.&.&.&.&.&.&.&.{ [ ] [ [ $.$.$.$....... .] ] ] { ] { { { { { ..o.o.&.} { ..&.&.&.*.&.&.$.{ ..",
"[ [ { ] [ ] ] { ( o.[ [ [ o.X.*.+.&.&.*.&.&.&.O...[ ] [ ] { ....$.$.$. .{  .[ [ ] { ] } ] { { { { O.&.O.$.o.o.$.&.&.&.&.&.....{ ",
"[ [ ] ] ] ] ] ] o.( o.[ [ X.#.$.&.&.:.&.&.&.&.{ { [ [ ] { [ { ..o.$.$.$.[ [ { { ] ] ] ] ] ] ] ] { O.&.&.O.o.{ { { { &.*.&...{ ] ",
"[ ] ] ] ] ] ] ] ( [ [ o.[ [ #.X.*.*.&.&...O...{ ] ] { [  .{ ] ..o.$.$.$. .[ { { ] ] ] ] ] { ] { ..&.&.&.&.o.{ { { { &.....{ { ] ",
"[ [ ] ] ] ] ] ] [ [ [ o.[ [ X.#.&.&.$.-.O.&.} { ] } { .... .....$.$.&.$.$.o.$.{ } ] } ] { ..{ { ..O.&.=.&.&.&.&.O.&.O...{ } { { ",
"X.X.X.' I { } } X.X.X.O.X.X.@.+.@.=.=.@.+.+.O.O.} } O.+.3.&.&.3.+.*.=.=.+.O.&.+.} } 3.} O.O.O.O.} 3.@.3.=.=.=.3.3.3.3.+.3.} 3.} ",
",.,.,.,.,.,.,.<.,.,.,.,.,.9.9.,.2.1.2.<.<.<.<.<.<.,.<.2.<.<.<.<.1.1.1.1.1.1.1.,.,.,.,.,.<.<.<.<.<.<.2.2.2.2.2.2.2.2.<.2.<.<.<.<.",
"w.w.q.w.e.w.e.e.e.e.r.r.u.r.y.u.y.y.e.e.t.t.t.t.t.2.t.t.t.t.t.t.e.t.r.r.y.r.w.w.e.e.e.e.e.e.e.e.t.t.u.u.u.u.r.u.u.u.u.u.t.t.t.t.",
"i.a.i.p.a.a.a.s.a.s.s.s.s.f.i.p.f.d.d.a.d.d.d.d.d.i.d.d.d.d.d.a.d.d.d.d.d.d.d.d.a.a.d.s.s.s.d.d.d.f.d.d.s.f.f.f.f.f.f.d.d.d.d.d.",
"g.g.p.h.h.h.h.h.h.h.h.h.h.h.p.h.h.h.p.h.h.h.h.h.g.g.g.g.g.g.g.g.g.h.h.h.g.g.g.g.g.g.g.g.h.h.g.g.h.h.h.p.h.g.h.g.h.h.h.h.h.h.h.h.",
"p.p.p.p.p.p.p.p.p.p.p.p.p.p.p.p.p.p.p.p.p.p.p.p.p.p.p.p.p.p.p.p.d.p.p.p.p.p.p.p.p.p.p.p.p.p.p.p.p.p.p.p.p.p.p.p.d.g.p.p.p.p.p.p.",
"1.9.9.9.4.9.9.4.9.4.4.1.9.9.9.9.9.9.4.9.4.9.9.4.4.4.4.4.4.4.4.4.4.4.4.4.4.4.4.4.4.4.1.4.4.4.4.4.9.4.9.9.9.9.4.4.4.4.4.4.4.4.4.4.",
"D S F S F D D F S S A S G S F S S S G S F D D F S S S S S S S S S D D D S S S S S S S S S S S S D J S S S G S S D D D D S G D D ",
"= = = = : = = = = = = * = = = 1 = = = = : = = = 1 1 = 1 = 1 = = ; ; * * * = = = * * ; = = = * * : = = > 1 = 1 3 3 > = = * 1 > = ",
"      . X X                 X X X   X X X           o o .                       . .           . X # # # % & = = = & # X o o X X ",
"      o o X X X .           X # $ # o o           . % o . .                     . + .         + # & - - & ; 8 8 8 > : & & & & & ",
"X X o % % % % & X           # & = = * X   X X   . o % % $ o X X                 . . .       O @ - - - & * > 9 q w 0 > > > > 8 > ",
"X $ & & & & * $ & o . .   X & = 8 8 = # X X O @ @ @ # & # # X X       O     O + +       . . o % - - # - % * 3 w e w 4 4 q w q u ",
"X # & & & & * * & % o o % % = 3 8 8 = #   X   X X @ # # - % # X O O       O O + + . .     X % & # - # # % % * 4 e s q w s g s p ",
"X # & - & : * = & & & * * = = 3 8 = & # . . . . X @ # # % # # @ + O O O O O + + @ + .   @ # & & & # @ # % % * 3 e i e d g M g w ",
"# # & & & : & & $ * * = > = 3 3 > * # @   X   X X @ @ @ @ # # # # @ + + # + # # # # @ X @ & ; & % X X X % % % 2 4 q 4 d V V M t ",
"% # # & & & & & & & > 3 3 < > > ; & % # O X O O X   X X # @ @ @ # # # # & ; & - - # @ @ # % - - o   . o % % & & 3 3 9 t V A V M ",
"% # # # # & % & # & : 3 8 3 > > & - % @ O O O   X X # # # @ @ @ # # % - 2 2 4 2 - - # % % - & @ . . X # & & & & = 8 q t N A V N ",
"X X X X # # % # # # & = 3 > > - - - # O X O O X X # % # # X + + @ @ # - 2 4 e 4 2 - # - ; & % @ . + @ % & & & & ; 8 q r g g g g ",
"X       X X o o . . X & = = & - & @ + O         X % & % X X .   X X # & * 4 4 4 ; % + # % - # +   + @ % $ & % & * 3 8 0 q q w w ",
"          X           . % % % o X .             . X X #       O     O @ % * 1 1 & X X X # # .         . # # o o & & * > ; ; ; > ",
"    . @ X X         . X X o % o # @ + . .   . + . @ @ @ O   O O         X % % % & % # # X o X X   . . o o + + o # & - & & & % # ",
": : < > > < : - - - : , , < > 5 0 0 0 < , , , , , , , , , , : : : - - - : : > 0 p p p 0 0 < < < , < < 5 5 5 5 5 0 u i i p 0 0 < ",
"f h h z j h a a a a a a h h h x C c c z z a a l l l l l l l a a a a a a a a z c J K H H b z z z l z v c v x v v c H J J J H b v ",
"Z H J T J H H b b b b H H J Y T ~ / W R Y U U b b U U U Y U b b z b z b b b U E  .#. ._ E Y Y Y Y Y R ! ! R U R E ) | | ) _ ! E ",
"Y Y W W ~ W Y H b b H H Y Y Y E / ( / / E Y Y Y Y Y Y Y Y Y U b b b b b b b Y /  .%.#._ / E E Y Y R ! ! / / / ! / |  ... ._ / ! ",
"b F J Q ~ ~ H v z z x v b c b H J R ~ ~ R U b b b b b b b b v z z z z z z z b H ~ ~ / R R Y Z b Z U R R R T T T R ! ` | | ( ! T ",
"a x G K ~ K C a a a a a f a a h j C K K H c z l z z z l l l a a a a u a a a a z c Z b c v v z l l Z Z H Z Z C Z Z Z U T T T U Z "
};
