/* XPM */
static char *gems_7[] = {
/* columns rows colors chars-per-pixel */
"64 64 227 2 ",
"   c #010001",
".  c black",
"X  c #010000",
"o  c #000400",
"O  c None",
"+  c #0E0000",
"@  c #000B00",
"#  c #010008",
"$  c #160001",
"%  c #190B00",
"&  c #161800",
"*  c #230000",
"=  c #220004",
"-  c #280004",
";  c #250C00",
":  c #300000",
">  c #3D1400",
",  c #3C1700",
"<  c #381800",
"1  c #012300",
"2  c #002F00",
"3  c #003B00",
"4  c #000021",
"5  c #000029",
"6  c #1E0022",
"7  c #02003A",
"8  c #290022",
"9  c #360020",
"0  c #3B0026",
"q  c #2B003D",
"w  c #420000",
"e  c #530000",
"r  c #5A0000",
"t  c #4A1900",
"y  c #581F00",
"u  c #56001F",
"i  c #590019",
"p  c #620000",
"a  c #640000",
"s  c #780000",
"d  c #7E0000",
"f  c #7C000A",
"g  c #660014",
"h  c #4F2300",
"j  c #483E00",
"k  c #642000",
"l  c #622800",
"z  c #60002D",
"x  c #6C002C",
"c  c #62003A",
"v  c #660039",
"b  c #044F00",
"n  c #1F4500",
"m  c #065300",
"M  c #0B5300",
"N  c #095400",
"B  c #0D5B00",
"V  c #1B6800",
"C  c #197C00",
"Z  c #226C00",
"A  c #2A6F00",
"S  c #326400",
"D  c #4A5500",
"F  c #7C4200",
"G  c #477700",
"H  c #0F0041",
"J  c #000051",
"K  c #000057",
"L  c #040055",
"P  c #0F0057",
"I  c #00005F",
"U  c #0D005C",
"Y  c #1B0057",
"T  c #16005B",
"R  c #22004A",
"E  c #20005E",
"W  c #030066",
"Q  c #000077",
"!  c #00007D",
"~  c #00007F",
"^  c #190070",
"/  c #1D0075",
"(  c #17007A",
")  c #3D0060",
"_  c #7E0040",
"`  c #7A004B",
"'  c #78005A",
"]  c #820001",
"[  c #890000",
"{  c #8A0300",
"}  c #8E0000",
"|  c #920200",
" . c #990000",
".. c #9D0000",
"X. c #90000E",
"o. c #820017",
"O. c #9C001A",
"+. c #A40000",
"@. c #A50000",
"#. c #A50100",
"$. c #B60000",
"%. c #B70000",
"&. c #B2001F",
"*. c #802D00",
"=. c #882B00",
"-. c #9F2300",
";. c #8C3400",
":. c #9D3400",
">. c #9A3B00",
",. c #A52600",
"<. c #BA2000",
"1. c #BB2B00",
"2. c #A43400",
"3. c #AD3900",
"4. c #BD3E00",
"5. c #80002C",
"6. c #98002D",
"7. c #AC0021",
"8. c #C30006",
"9. c #CD0000",
"0. c #CB0006",
"q. c #D30005",
"w. c #DE0000",
"e. c #F60000",
"r. c #FF0809",
"t. c #FF0B12",
"y. c #FF1919",
"u. c #FF1C1C",
"i. c #D92400",
"p. c #D32F00",
"a. c #E63700",
"s. c #E2002A",
"d. c #FF0427",
"f. c #FF3434",
"g. c #864000",
"h. c #9B4200",
"j. c #B84400",
"k. c #DE4200",
"l. c #DE4600",
"z. c #ED4800",
"x. c #F84200",
"c. c #FF4800",
"v. c #F85100",
"b. c #FF5511",
"n. c #D26800",
"m. c #FF6420",
"M. c #FF6E31",
"N. c #FF7433",
"B. c #FF7832",
"V. c #FF7C3E",
"C. c #8D004D",
"Z. c #8D005A",
"A. c #A00047",
"S. c #AB0045",
"D. c #BC005D",
"F. c #850064",
"G. c #87006B",
"H. c #88006A",
"J. c #AA0060",
"K. c #CF0072",
"L. c #E30068",
"P. c #E70072",
"I. c #FF4545",
"U. c #FF4949",
"Y. c #FF4B4B",
"T. c #FF7A42",
"R. c #FF4464",
"E. c #678F00",
"W. c #629E00",
"Q. c #6BC000",
"!. c #879400",
"~. c #84BC00",
"^. c #A8A700",
"/. c #FF8E3D",
"(. c #FFA522",
"). c #FFA377",
"_. c #FFF971",
"`. c #00008F",
"'. c #17008C",
"]. c #0F0097",
"[. c #000099",
"{. c #00009A",
"}. c #0E009E",
"|. c #0500A4",
" X c #0000AC",
".X c #1100A1",
"XX c #0400B3",
"oX c #0000BB",
"OX c #0F00BB",
"+X c #1200B1",
"@X c #1700B9",
"#X c #2C00BA",
"$X c #2200C2",
"%X c #0100E9",
"&X c #0000EB",
"*X c #0000ED",
"=X c #1700EF",
"-X c #0000F3",
";X c #0000F7",
":X c #1200F1",
">X c #2400FF",
",X c #4E00CC",
"<X c #C70082",
"1X c #D30097",
"2X c #FF5B9D",
"3X c #FF6780",
"4X c #FF4DBD",
"5X c #FF6ABF",
"6X c #8200FF",
"7X c #A200FF",
"8X c #FF4AC7",
"9X c #FFB781",
"0X c #FFB4B4",
"qX c #FFC688",
"wX c #FFCA97",
"eX c #FFFC8E",
"rX c #FFC3A7",
"tX c #FFDCA9",
"yX c #FFB2FF",
"uX c #FFFFC7",
"iX c #FFFED3",
"pX c #FFC9EA",
"aX c #FFEAEA",
"sX c #FFFDEE",
"dX c #FFF2FF",
"fX c #FFFFF8",
"gX c white",
/* pixels */
"                                                                                                                                ",
"                                                                                                                                ",
"                                                                                                                                ",
"                                                                                                                                ",
"                                                                                                                                ",
"                                                                                                                                ",
"                                                                                                                                ",
"                                                                                                                                ",
"                                                                                                                                ",
"                                                                                                                                ",
"                                                                                                                                ",
"                                                                                                                                ",
"                                                                                                                                ",
"                                                                                                                                ",
"                                                                                                                                ",
"                                                                                                                                ",
"                                                                                                                                ",
"                                                                                                                                ",
"                                                                                                                                ",
"                                                                                                                                ",
"                                                                                                                                ",
"                                                                                                                                ",
"                                                                                                                                ",
"                                                                                                                                ",
"                                                                                                                                ",
"                                                                                                                                ",
"                                                                                                                                ",
"                                                                                                                                ",
"                                                                                                                                ",
"                                                                                                                                ",
"                                                                                                                                ",
"                                                                                                                                ",
"                                                                                                                                ",
"                                                                                                                                ",
"                                                                                                                                ",
"                                                                                            . . .                               ",
"                                                                                  h.      . 2 2 N .                             ",
"                                                                              . . l.,.  . 2 S gXuX^.. N                         ",
"                                                                            . a a ,.).. g =.j.g.~.Z ^.  N                       ",
"                                                                            . e w.e gXgXgXT.=.D C N N N . o .                   ",
"                                                                          . d w.gX| gXgXgXaX..Q.Q.B . . a a a .                 ",
"                                                                    . . ; . d a i.rXgXgXgX..w.w i . . . ..I.gX} .               ",
"                                                                  . [ [ . . %.l.T.i.  %.).,...F.P.R.R.@.. s } I.. .             ",
"                                                                . X.0.I.e . h.g.=X  gX  1.c.f 1X5XgXR.R.u : } I.0X.             ",
"                                                              .  .gXI.gXI.s J q oX%X  6XE j.5.' H.J.R.gX4XS.X.0.e.a             ",
"                                                              . gXgXgX- * * J %XoXQ R ,XyX. F ` 7._ G.8XD.6.U.y.$.X             ",
"                                                              . e gX$ m.iXp.#   *X+X( ^ Y &X. ' 2X9 J.L.K.. . . . . .           ",
"                                                              . . . k.qXgXqX=.# %X  gX  @X=X+ ' C.0 <X. . 7X$X. x._.B..         ",
"                                                            . . . . k.m.B.m.% . . 4 5 ;X=X6 $ = = 9 . {.-X  gXdXx.>.z.2..       ",
"                                                          .   XX].3.< 3.3., ] a r s a - . h G G (.. >X XU W gX  $X4.:.gX.       ",
"                                                          . gXT /   gX4 9X& v s z } u.5.. W.M gXgX| . ~ L Q #Xq $X. wX2.n       ",
"                                                          . I XX) pX  @XJ * v A.} I.gXr.a m m fXgXn.. . p . H K . . { j .       ",
"                                                          . `.  [.OX|.}.O 8 t.u } I.0Xf.. gXgXN N A N p aX... . . . . ,         ",
"                                                          . W [.~ ! .XO O 8 &.u 8.0.I.0.a gXgXgXgXN . d ..w.. gX!.V . .         ",
"                                                          . `.7 '.L M.gXtXq.3XO.* X.o.. . . gX. #.+.p . Y.. 3 m E.m 3 m         ",
"                                                          . :X`.P <.v.gXsXa.0.d.c i w m _.x.3.. 9.p aX..* 3 M 3 3 3 eX3         ",
"                                                            . . > N.b.k./.a.; a s.Z.x 3 >.x.;.l . d ..w.w . 3 gXA b 3 .         ",
"                                                                O k iXV.*.=.; . a a O 2.l l l _.l . Y...#.+ . 1 1 . @           ",
"                                                                  O O y t t O . . O O 9XfX3.l l O   + + +                       ",
"                                                                      O O O         O -.2.N.-.N O                               ",
"                                                                                      O O . X O                                 ",
"                                                                                                                                ",
"                                                                                                                                ",
"                                                                                                                                "
};
