/* XPM */
static char *gems_2[] = {
/* columns rows colors chars-per-pixel */
"64 64 222 2 ",
"   c #010001",
".  c black",
"X  c #010000",
"o  c #000400",
"O  c #080000",
"+  c #0E0000",
"@  c #000B00",
"#  c #010008",
"$  c #160001",
"%  c #190B00",
"&  c #161800",
"*  c #230000",
"=  c #220004",
"-  c #280004",
";  c #250C00",
":  c #300000",
">  c #3D1400",
",  c #3C1700",
"<  c #381800",
"1  c #012300",
"2  c #002F00",
"3  c #003B00",
"4  c #000021",
"5  c #000029",
"6  c #1E0022",
"7  c #02003A",
"8  c #290022",
"9  c #360020",
"0  c #3B0026",
"q  c #2B003D",
"w  c #420000",
"e  c #530000",
"r  c #5A0000",
"t  c #4A1900",
"y  c #581F00",
"u  c #56001F",
"i  c #590019",
"p  c #620000",
"a  c #640000",
"s  c #780000",
"d  c #7E0000",
"f  c #7C000A",
"g  c #660014",
"h  c #4F2300",
"j  c #483E00",
"k  c #642000",
"l  c #622800",
"z  c #60002D",
"x  c #6C002C",
"c  c #62003A",
"v  c #660039",
"b  c #044F00",
"n  c #1F4500",
"m  c #065300",
"M  c #0B5300",
"N  c None",
"B  c #0D5B00",
"V  c #1B6800",
"C  c #197C00",
"Z  c #226C00",
"A  c #2A6F00",
"S  c #326400",
"D  c #4A5500",
"F  c #477700",
"G  c #0F0041",
"H  c #000051",
"J  c #000057",
"K  c #040055",
"L  c #0F0057",
"P  c #00005F",
"I  c #0D005C",
"U  c #1B0057",
"Y  c #16005B",
"T  c #22004A",
"R  c #20005E",
"E  c #030066",
"W  c #000072",
"Q  c #000077",
"!  c #00007D",
"~  c #00007F",
"^  c #190070",
"/  c #1D0075",
"(  c #17007A",
")  c #3D0060",
"_  c #7E0040",
"`  c #7A004B",
"'  c #78005A",
"]  c #820001",
"[  c #890000",
"{  c #8A0300",
"}  c #8E0000",
"|  c #920200",
" . c #990000",
".. c #9D0000",
"X. c #90000E",
"o. c #820017",
"O. c #9C001A",
"+. c #A40000",
"@. c #A50000",
"#. c #A50100",
"$. c #AB0006",
"%. c #B60000",
"&. c #B70000",
"*. c #B2001F",
"=. c #802D00",
"-. c #882B00",
";. c #9F2300",
":. c #8C3400",
">. c #9D3400",
",. c #9A3B00",
"<. c #BA2000",
"1. c #A43200",
"2. c #A43400",
"3. c #AD3900",
"4. c #BD3E00",
"5. c #80002C",
"6. c #98002D",
"7. c #AC0021",
"8. c #C30006",
"9. c #C90000",
"0. c #CD0000",
"q. c #CB0006",
"w. c #D30005",
"e. c #DE0000",
"r. c #DE0005",
"t. c #ED0100",
"y. c #F60000",
"u. c #FF0809",
"i. c #FF0B12",
"p. c #FF1919",
"a. c #FF1C1C",
"s. c #D32F00",
"d. c #E63700",
"f. c #E2002A",
"g. c #FF0427",
"h. c #FF3434",
"j. c #DE4200",
"k. c #ED4800",
"l. c #F84200",
"z. c #F85100",
"x. c #FF5511",
"c. c #D26800",
"v. c #FF6420",
"b. c #FF6E31",
"n. c #FF7433",
"m. c #FF7832",
"M. c #FF7C3E",
"N. c #8D004D",
"B. c #8D005A",
"V. c #A00047",
"C. c #AB0045",
"Z. c #BC005D",
"A. c #850064",
"S. c #87006B",
"D. c #88006A",
"F. c #AA0060",
"G. c #CF0072",
"H. c #E30068",
"J. c #E70072",
"K. c #FF4545",
"L. c #FF4949",
"P. c #FF4B4B",
"I. c #FF4464",
"U. c #678F00",
"Y. c #629E00",
"T. c #6BC000",
"R. c #879400",
"E. c #84BC00",
"W. c #A8A700",
"Q. c #FF8E3D",
"!. c #FFA522",
"~. c #FFF971",
"^. c #000087",
"/. c #00008F",
"(. c #17008C",
"). c #0F0097",
"_. c #000099",
"`. c #00009A",
"'. c #0E009E",
"]. c #0500A4",
"[. c #0000AC",
"{. c #1100A1",
"}. c #0400B3",
"|. c #0000BB",
" X c #0F00BB",
".X c #1200B1",
"XX c #1700B9",
"oX c #2C00BA",
"OX c #2200C2",
"+X c #0100E9",
"@X c #0000EB",
"#X c #0000ED",
"$X c #1700EF",
"%X c #0000F3",
"&X c #0000F7",
"*X c #1200F1",
"=X c #2400FF",
"-X c #4E00CC",
";X c #C70082",
":X c #D30097",
">X c #FF5B9D",
",X c #FF6780",
"<X c #FF4DBD",
"1X c #FF6ABF",
"2X c #8200FF",
"3X c #A200FF",
"4X c #FF4AC7",
"5X c #FFB781",
"6X c #FFB4B4",
"7X c #FFC688",
"8X c #FFCA97",
"9X c #FFFC8E",
"0X c #FFDCA9",
"qX c #FFB2FF",
"wX c #FFFFC7",
"eX c #FFFED3",
"rX c #FFC9EA",
"tX c #FFEAEA",
"yX c #FFFDEE",
"uX c #FFF2FF",
"iX c #FFFFF8",
"pX c white",
/* pixels */
"                                                                                                                                ",
"                                                                                                                                ",
"                                                                                                                                ",
"                                                                                                                                ",
"                                                                                                                                ",
"                                                                                                                                ",
"                                                                                                                                ",
"                                                                                                                                ",
"                                                                                                                                ",
"                                                                                                                                ",
"                                                                                                                                ",
"                                                                                                                                ",
"                                                                                                                                ",
"                                                                                                                                ",
"                                                                                                                                ",
"                                                                                                                                ",
"                                                                                                                                ",
"                                                                                                                                ",
"                                                                                                                                ",
"                                                                                                                                ",
"                                                                                                                                ",
"                                                                                                                                ",
"                                                                                                                                ",
"                                                                                                                                ",
"                                                                                                                                ",
"                                                                                                                                ",
"                                                                                                                                ",
"                                                                                                                                ",
"                                                                                                                                ",
"                                                                                                                                ",
"                                                                                                                                ",
"                                                                                                                                ",
"                                                                                                                                ",
"                                                                                                                                ",
"                                                                                                                                ",
"                                                                                            . . .                               ",
"                                                                                          . 2 2 N .                             ",
"                                                                              . . .     . 2 S pXwXW.. N                         ",
"                                                                            . a a a . . g . 1.N E.Z W.  N                       ",
"                                                                            . e e.e a a 6.p . D C N N N . o .                   ",
"                                                                          . d e.pX$.p r.a tX..T.T.B . . a a a .                 ",
"                                                                    . . ; . d a a . . . d ..e.w i . . . ..K.pX} .               ",
"                                                                  . [ [ . . &.a ^.    &.9.P...A.J.I.I.@.. s } K.. .             ",
"                                                                . X.q.K.e . + W $X  pX  &.. f :X1XpXI.I.u : } K.6X.             ",
"                                                              .  .t.K.pXK.s H q |.+X  2XR . 5.' D.F.I.pX<XC.X.q.y.a             ",
"                                                              . e $.r.- * * H +X|.Q T -XqX. . ` 7._ S.4XZ.6.L.p.%.X             ",
"                                                              . r [ $ v.eXs.#   #X.X( ^ U @X. ' >X9 F.H.G.. . . . . .           ",
"                                                              . . . j.7XpX7X-.# +X  pX  XX$X+ ' N.0 ;X. . 3XOX. l.~.m..         ",
"                                                            . . . . j.v.m.v.% . . 4 5 &X$X6 $ = = 9 . `.%X  pXuXl.,.k.2..       ",
"                                                          .   }.).3.< 3.3., ] a r s a - . h F F !.. =X[.I E pX  OX4.>.pX.       ",
"                                                          . pXY /   pX4 5X& v s z } a.5.. Y.M pXpX| . ~ K Q oXq OX. 8X2.n       ",
"                                                          . P }.) rX  XXH * v V.} K.pXu.a m m iXpXc.. . p . G J . . { j .       ",
"                                                          . /.  _. X].'.O 8 i.u } K.6Xh.. pXN N N A N p tX... . . . . ,         ",
"                                                          . E _.~ ! {.O O 8 *.u 8.q.K.q.a . . U.pXN . d ..e.. pXR.V . .         ",
"                                                          . /.7 (.K b.pX0Xw.,XO.* X.o.. . . . . #.+.p . P.. 3 m U.m 3 m         ",
"                                                          . *X/.L <.z.pXyXd.q.g.c i w m ~.l.3.. 0.p tX..* 3 M 3 3 3 9X3         ",
"                                                            . . > n.x.j.Q.d.; a f.B.x 3 ,.l.:.l . d ..e.w . 3 pXA b 3 .         ",
"                                                                O k eXM.=.-.; . a a O 2.l l l ~.l . P...#.+ . 1 1 . @           ",
"                                                                  O O y t t O . . O O 5XiX3.l l O   + + +                       ",
"                                                                      O O O         O ;.2.n.;.N O                               ",
"                                                                                      O O . X O                                 ",
"                                                                                                                                ",
"                                                                                                                                ",
"                                                                                                                                "
};
