/* XPM */
static char *result[] = {
/* columns rows colors chars-per-pixel */
"64 64 222 2 ",
"   c black",
".  c #010000",
"X  c #000400",
"o  c #080000",
"O  c #0E0000",
"+  c #000B00",
"@  c #010008",
"#  c #160001",
"$  c #190B00",
"%  c #161800",
"&  c #230000",
"*  c #220004",
"=  c #280004",
"-  c #250C00",
";  c #300000",
":  c #3D1400",
">  c #3C1700",
",  c #381800",
"<  c #012300",
"1  c #002F00",
"2  c #003B00",
"3  c #000021",
"4  c #000029",
"5  c #1E0022",
"6  c #02003A",
"7  c #290022",
"8  c #360020",
"9  c #3B0026",
"0  c #2B003D",
"q  c #420000",
"w  c #530000",
"e  c #5A0000",
"r  c #4A1900",
"t  c #581F00",
"y  c #56001F",
"u  c #590019",
"i  c #620000",
"p  c #640000",
"a  c #780000",
"s  c #7E0000",
"d  c #7C000A",
"f  c #660014",
"g  c #4F2300",
"h  c #642000",
"j  c #622800",
"k  c #60002D",
"l  c #6C002C",
"z  c #62003A",
"x  c #660039",
"c  c #044F00",
"v  c #1F4500",
"b  c #065300",
"n  c #0B5300",
"m  c #095400",
"M  c #0D5B00",
"N  c #1B6800",
"B  c #197C00",
"V  c #226C00",
"C  c #2A6F00",
"Z  c #326400",
"A  c #4A5500",
"S  c #7C4200",
"D  c #477700",
"F  c #0F0041",
"G  c #000051",
"H  c #000057",
"J  c #040055",
"K  c #0F0057",
"L  c #00005F",
"P  c #0D005C",
"I  c #1B0057",
"U  c #16005B",
"Y  c #22004A",
"T  c #20005E",
"R  c #030066",
"E  c #000072",
"W  c #000077",
"Q  c #00007D",
"!  c #00007F",
"~  c #190070",
"^  c #1D0075",
"/  c #17007A",
"(  c #3D0060",
")  c #7E0040",
"_  c #7A004B",
"`  c #78005A",
"'  c #820001",
"]  c #890000",
"[  c #8E0000",
"{  c #920200",
"}  c #990000",
"|  c #9D0000",
" . c #90000E",
".. c #820017",
"X. c #9C001A",
"o. c #A40000",
"O. c #A50000",
"+. c #A50100",
"@. c #AB0006",
"#. c #B70000",
"$. c #B2001F",
"%. c #802D00",
"&. c #882B00",
"*. c #9F2300",
"=. c #8C3400",
"-. c #9D3400",
";. c #9A3B00",
":. c #A52600",
">. c #BA2000",
",. c #BB2B00",
"<. c #A43200",
"1. c #A43400",
"2. c #AD3900",
"3. c #80002C",
"4. c #98002D",
"5. c #AC0021",
"6. c #C30006",
"7. c #C90000",
"8. c #CD0000",
"9. c #CB0006",
"0. c #D30005",
"q. c #DE0000",
"w. c #DE0005",
"e. c #ED0100",
"r. c #FF0809",
"t. c #FF0B12",
"y. c #FF1C1C",
"u. c #D92400",
"i. c #D32F00",
"p. c #E63700",
"a. c #E2002A",
"s. c #FF0427",
"d. c #FF3434",
"f. c #864000",
"g. c #9B4200",
"h. c #B84400",
"j. c #DE4200",
"k. c #DE4600",
"l. c #ED4800",
"z. c #F84200",
"x. c #FF4800",
"c. c #F85100",
"v. c #FF5511",
"b. c #D26800",
"n. c #FF6420",
"m. c #FF6E31",
"M. c #FF7433",
"N. c #FF7832",
"B. c #FF7C3E",
"V. c #8D004D",
"C. c #8D005A",
"Z. c #A00047",
"A. c #AB0045",
"S. c #BC005D",
"D. c #850064",
"F. c #87006B",
"G. c #88006A",
"H. c #AA0060",
"J. c #E70072",
"K. c #FF4545",
"L. c #FF4949",
"P. c #FF4B4B",
"I. c #FF7A42",
"U. c #FF4464",
"Y. c #678F00",
"T. c #629E00",
"R. c #6BC000",
"E. c #879400",
"W. c #84BC00",
"Q. c #A8A700",
"!. c #FF8E3D",
"~. c #FFA522",
"^. c #FFA377",
"/. c #FFF971",
"(. c #000087",
"). c #00008F",
"_. c #17008C",
"`. c #0F0097",
"'. c #000099",
"]. c #00009A",
"[. c #0E009E",
"{. c #0500A4",
"}. c #0000AC",
"|. c #1100A1",
" X c #0400B3",
".X c #0000BB",
"XX c #0F00BB",
"oX c #1200B1",
"OX c #1700B9",
"+X c #2C00BA",
"@X c #0100E9",
"#X c #0000EB",
"$X c #0000ED",
"%X c #1700EF",
"&X c #0000F3",
"*X c #0000F7",
"=X c #1200F1",
"-X c #2400FF",
";X c #4E00CC",
":X c #C70082",
">X c #D30097",
",X c #FF5B9D",
"<X c #FF6780",
"1X c #FF4DBD",
"2X c #FF6ABF",
"3X c #8200FF",
"4X c #FF4AC7",
"5X c #FFB781",
"6X c #FFB4B4",
"7X c #FFC688",
"8X c #FFFC8E",
"9X c #FFC3A7",
"0X c #FFDCA9",
"qX c #FFB2FF",
"wX c #FFFFC7",
"eX c #FFFED3",
"rX c #FFC9EA",
"tX c #FFEAEA",
"yX c #FFFDEE",
"uX c #FFFFF8",
"iX c white",
"pX c None",
/* pixels */
"pXpXpXpXpXpXpXpXpXpXpXpXpXpXpXpXpXpXpXpXpXpXpXpXpXpXpXpXpXpXpXpXpXpXpXpXpXpXpXpXpXpXpXpXpXpXpXpXpXpXpXpXpXpXpXpXpXpXpXpXpXpXpXpX",
"pXpXpXpXpXpXpXpXpXpXpXpXpXpXpXpXpXpXpXpXpXpXpXpXpXpXpXpXpXpXpXpXpXpXpXpXpXpXpXpXpXpXpXpXpXpXpXpXpXpXpXpXpXpXpXpXpXpXpXpXpXpXpXpX",
"pXpXpXpXpXpXpXpXpXpXpXpXpXpXpXpXpXpXpXpXpXpXpXpXpXpXpXpXpXpXpXpXpXpXpXpXpXpXpXpXpXpXpXpXpXpXpXpXpXpXpXpXpXpXpXpXpXpXpXpXpXpXpXpX",
"pXpXpXpXpXpXpXpXpXpXpXpXpXpXpXpXpXpXpXpXpXpXpXpXpXpXpXpXpXpXpXpXpXpXpXpXpXpXpXpXpXpXpXpXpXpXpXpXpXpXpXpXpXpXpXpXpXpXpXpXpXpXpXpX",
"pXpXpXpXpXpXpXpXpXpXpXpXpXpXpXpXpXpXpXpXpXpXpXpXpXpXpXpXpXpXpXpXpXpXpXpXpXpXpXpXpXpXpXpXpXpXpXpXpXpXpXpXpXpXpXpXpXpXpXpXpXpXpXpX",
"pXpXpXpXpXpXpXpXpXpXpXpXpXpXpXpXpXpXpXpXpXpXpXpXpXpXpXpXpXpXpXpXpXpXpXpXpXpXpXpXpXpXpXpXpXpXpXpXpXpXpXpXpXpXpXpXpXpXpXpXpXpXpXpX",
"pXpXpXpXpXpXpXpXpXpXpXpXpXpXpXpXpXpXpXpXpXpXpXpXpXpXpXpXpXpXpXpXpXpXpXpXpXpXpXpXpXpXpXpXpXpXpXpXpXpXpXpXpXpXpXpXpXpXpXpXpXpXpXpX",
"pXpXpXpXpXpXpXpXpXpXpXpXpXpXpXpXpXpXpXpXpXpXpXpXpXpXpXpXpXpXpXpXpXpXpXpXpXpXpXpXpXpXpXpXpXpXpXpXpXpXpXpXpXpXpXpXpXpXpXpXpXpXpXpX",
"pXpXpXpXpXpXpXpXpXpXpXpXpXpXpXpXpXpXpXpXpXpXpXpXpXpXpXpXpXpXpXpXpXpXpXpXpXpXpXpXpXpXpXpXpXpXpXpXpXpXpXpXpXpXpXpXpXpXpXpXpXpXpXpX",
"pXpXpXpXpXpXpXpXpXpXpXpXpXpXpXpXpXpXpXpXpXpXpXpXpXpXpXpXpXpXpXpXpXpXpXpXpXpXpXpXpXpXpXpXpXpXpXpXpXpXpXpXpXpXpXpXpXpXpXpXpXpXpXpX",
"pXpXpXpXpXpXpXpXpXpXpXpXpXpXpXpXpXpXpXpXpXpXpXpXpXpXpXpXpXpXpXpXpXpXpXpXpXpXpXpXpXpXpXpXpXpXpXpXpXpXpXpXpXpXpXpXpXpXpXpXpXpXpXpX",
"pXpXpXpXpXpXpXpXpXpXpXpXpXpXpXpXpXpXpXpXpXpXpXpXpXpXpXpXpXpXpXpXpXpXpXpXpXpXpXpXpXpXpXpXpXpXpXpXpXpXpXpXpXpXpXpXpXpXpXpXpXpXpXpX",
"pXpXpXpXpXpXpXpXpXpXpXpXpXpXpXpXpXpXpXpXpXpXpXpXpXpXpXpXpXpXpXpXpXpXpXpXpXpXpXpXpXpXpXpXpXpXpXpXpXpXpXpXpXpXpXpXpXpXpXpXpXpXpXpX",
"pXpXpXpXpXpXpXpXpXpXpXpXpXpXpXpXpXpXpXpXpXpXpXpXpXpXpXpXpXpXpXpXpXpXpXpXpXpXpXpXpXpXpXpXpXpXpXpXpXpXpXpXpXpXpXpXpXpXpXpXpXpXpXpX",
"pXpXpXpXpXpXpXpXpXpXpXpXpXpXpXpXpXpXpXpXpXpXpXpXpXpXpXpXpXpXpXpXpXpXpXpXpXpXpXpXpXpXpXpXpXpXpXpXpXpXpXpXpXpXpXpXpXpXpXpXpXpXpXpX",
"pXpXpXpXpXpXpXpXpXpXpXpXpXpXpXpXpXpXpXpXpXpXpXpXpXpXpXpXpXpXpXpXpXpXpXpXpXpXpXpXpXpXpXpXpXpXpXpXpXpXpXpXpXpXpXpXpXpXpXpXpXpXpXpX",
"pXpXpXpXpXpXpXpXpXpXpXpXpXpXpXpXpXpXpXpXpXpXpXpXpXpXpXpXpXpXpXpXpXpXpXpXpXpXpXpXpXpXpXpXpXpXpXpXpXpXpXpXpXpXpXpXpXpXpXpXpXpXpXpX",
"pXpXpXpXpXpXpXpXpXpXpXpXpXpXpXpXpXpXpXpXpXpXpXpXpXpXpXpXpXpXpXpXpXpXpXpXpXpXpXpXpXpXpXpXpXpXpXpXpXpXpXpXpXpXpXpXpXpXpXpXpXpXpXpX",
"pXpXpXpXpXpXpXpXpXpXpXpXpXpXpXpXpXpXpXpXpXpXpXpXpXpXpXpXpXpXpXpXpXpXpXpXpXpXpXpXpXpXpXpXpXpXpXpXpXpXpXpXpXpXpXpXpXpXpXpXpXpXpXpX",
"pXpXpXpXpXpXpXpXpXpXpXpXpXpXpXpXpXpXpXpXpXpXpXpXpXpXpXpXpXpXpXpXpXpXpXpXpXpXpXpXpXpXpXpXpXpXpXpXpXpXpXpXpXpXpXpXpXpXpXpXpXpXpXpX",
"pXpXpXpXpXpXpXpXpXpXpXpXpXpXpXpXpXpXpXpXpXpXpXpXpXpXpXpXpXpXpXpXpXpXpXpXpXpXpXpXpXpXpXpXpXpXpXpXpXpXpXpXpXpXpXpXpXpXpXpXpXpXpXpX",
"pXpXpXpXpXpXpXpXpXpXpXpXpXpXpXpXpXpXpXpXpXpXpXpXpXpXpXpXpXpXpXpXpXpXpXpXpXpXpXpXpXpXpXpXpXpXpXpXpXpXpXpXpXpXpXpXpXpXpXpXpXpXpXpX",
"pXpXpXpXpXpXpXpXpXpXpXpXpXpXpXpXpXpXpXpXpXpXpXpXpXpXpXpXpXpXpXpXpXpXpXpXpXpXpXpXpXpXpXpXpXpXpXpXpXpXpXpXpXpXpXpXpXpXpXpXpXpXpXpX",
"pXpXpXpXpXpXpXpXpXpXpXpXpXpXpXpXpXpXpXpXpXpXpXpXpXpXpXpXpXpXpXpXpXpXpXpXpXpXpXpXpXpXpXpXpXpXpXpXpXpXpXpXpXpXpXpXpXpXpXpXpXpXpXpX",
"pXpXpXpXpXpXpXpXpXpXpXpXpXpXpXpXpXpXpXpXpXpXpXpXpXpXpXpXpXpXpXpXpXpXpXpXpXpXpXpXpXpXpXpXpXpXpXpXpXpXpXpXpXpXpXpXpXpXpXpXpXpXpXpX",
"pXpXpXpXpXpXpXpXpXpXpXpXpXpXpXpXpXpXpXpXpXpXpXpXpXpXpXpXpXpXpXpXpXpXpXpXpXpXpXpXpXpXpXpXpXpXpXpXpXpXpXpXpXpXpXpXpXpXpXpXpXpXpXpX",
"pXpXpXpXpXpXpXpXpXpXpXpXpXpXpXpXpXpXpXpXpXpXpXpXpXpXpXpXpXpXpXpXpXpXpXpXpXpXpXpXpXpXpXpXpXpXpXpXpXpXpXpXpXpXpXpXpXpXpXpXpXpXpXpX",
"pXpXpXpXpXpXpXpXpXpXpXpXpXpXpXpXpXpXpXpXpXpXpXpXpXpXpXpXpXpXpXpXpXpXpXpXpXpXpXpXpXpXpXpXpXpXpXpXpXpXpXpXpXpXpXpXpXpXpXpXpXpXpXpX",
"pXpXpXpXpXpXpXpXpXpXpXpXpXpXpXpXpXpXpXpXpXpXpXpXpXpXpXpXpXpXpXpXpXpXpXpXpXpXpXpXpXpXpXpXpXpXpXpXpXpXpXpXpXpXpXpXpXpXpXpXpXpXpXpX",
"pXpXpXpXpXpXpXpXpXpXpXpXpXpXpXpXpXpXpXpXpXpXpXpXpXpXpXpXpXpXpXpXpXpXpXpXpXpXpXpXpXpXpXpXpXpXpXpXpXpXpXpXpXpXpXpXpXpXpXpXpXpXpXpX",
"pXpXpXpXpXpXpXpXpXpXpXpXpXpXpXpXpXpXpXpXpXpXpXpXpXpXpXpXpXpXpXpXpXpXpXpXpXpXpXpXpXpXpXpXpXpXpXpXpXpXpXpXpXpXpXpXpXpXpXpXpXpXpXpX",
"pXpXpXpXpXpXpXpXpXpXpXpXpXpXpXpXpXpXpXpXpXpXpXpXpXpXpXpXpXpXpXpXpXpXpXpXpXpXpXpXpXpXpXpXpXpXpXpXpXpXpXpXpXpXpXpXpXpXpXpXpXpXpXpX",
"pXpXpXpXpXpXpXpXpXpXpXpXpXpXpXpXpXpXpXpXpXpXpXpXpXpXpXpXpXpXpXpXpXpXpXpXpXpXpXpXpXpXpXpXpXpXpXpXpXpXpXpXpXpXpXpXpXpXpXpXpXpXpXpX",
"pXpXpXpXpXpXpXpXpXpXpXpXpXpXpXpXpXpXpXpXpXpXpXpXpXpXpXpXpXpXpXpXpXpXpXpXpXpXpXpXpXpXpXpXpXpXpXpXpXpXpXpXpXpXpXpXpXpXpXpXpXpXpXpX",
"pXpXpXpXpXpXpXpXpXpXpXpXpXpXpXpXpXpXpXpXpXpXpXpXpXpXpXpXpXpXpXpXpXpXpXpXpXpXpXpXpXpXpXpXpXpXpXpXpXpXpXpXpXpXpXpXpXpXpXpXpXpXpXpX",
"pXpXpXpXpXpXpXpXpXpXpXpXpXpXpXpXpXpXpXpXpXpXpXpXpXpXpXpXpXpXpXpXpXpXpXpXpXpXpXpXpXpXpXpXpXpX      pXpXpXpXpXpXpXpXpXpXpXpXpXpXpX",
"pXpXpXpXpXpXpXpXpXpXpXpXpXpXpXpXpXpXpXpXpXpXpXpXpXpXpXpXpXpXpXpXpXpXpXpXpXpXpXpXpXpXpXpXpX  1 1 m   pXpXpXpXpXpXpXpXpXpXpXpXpXpX",
"pXpXpXpXpXpXpXpXpXpXpXpXpXpXpXpXpXpXpXpXpXpXpXpXpXpXpXpXpXpXpXpXpXpXpXpXpXpXpX      pXpX  1 Z iXwXQ.  m pXpXpXpXpXpXpXpXpXpXpXpX",
"pXpXpXpXpXpXpXpXpXpXpXpXpXpXpXpXpXpXpXpXpXpXpXpXpXpXpXpXpXpXpXpXpXpXpXpXpXpX  p p p     f   <.m W.V Q.pXm pXpXpXpXpXpXpXpXpXpXpX",
"pXpXpXpXpXpXpXpXpXpXpXpXpXpXpXpXpXpXpXpXpXpXpXpXpXpXpXpXpXpXpXpXpXpXpXpXpXpX  w q.w p p 4.i   A B m m m   X   pXpXpXpXpXpXpXpXpX",
"pXpXpXpXpXpXpXpXpXpXpXpXpXpXpXpXpXpXpXpXpXpXpXpXpXpXpXpXpXpXpXpXpXpXpXpXpX  s q.iX@.i w.p tX| R.R.M     p p p   pXpXpXpXpXpXpXpX",
"pXpXpXpXpXpXpXpXpXpXpXpXpXpXpXpXpXpXpXpXpXpXpXpXpXpXpXpXpXpXpXpXpXpX    -   s p p       s | q.q u       | K.iX[   pXpXpXpXpXpXpX",
"pXpXpXpXpXpXpXpXpXpXpXpXpXpXpXpXpXpXpXpXpXpXpXpXpXpXpXpXpXpXpXpXpX  ] ]     #.p (.pXpX#.7.P.| D.J.U.U.O.  a [ K.    pXpXpXpXpXpX",
"pXpXpXpXpXpXpXpXpXpXpXpXpXpXpXpXpXpXpXpXpXpXpXpXpXpXpXpXpXpXpXpX   .9.K.w   O E %XpXiXpX#.  d >X2XiXU.U.y ; [ K.6X  pXpXpXpXpXpX",
"pXpXpXpXpXpXpXpXpXpXpXpXpXpXpXpXpXpXpXpXpXpXpXpXpXpXpXpXpXpXpX  } e.K.iXK.a G 0 .X@XpX3XT   3.` G.H.U.iX1XA. .9.g.p pXpXpXpXpXpX",
"pXpXpXpXpXpXpXpXpXpXpXpXpXpXpXpXpXpXpXpXpXpXpXpXpXpXpXpXpXpXpX  w @.w.= & & G @X.XW Y ;XqX    _ 5.) F.4XS.4.L.:.k.. pXpXpXpXpXpX",
"pXpXpXpXpXpXpXpXpXpXpXpXpXpXpXpXpXpXpXpXpXpXpXpXpXpXpXpXpXpXpX  e ] # n.eXi.@ pX$XoX/ ~ I #X  ` ,X8 f.h.&.    ^.:.    pXpXpXpXpX",
"pXpXpXpXpXpXpXpXpXpXpXpXpXpXpXpXpXpXpXpXpXpXpXpXpXpXpXpXpXpXpX      j.7XiX7X&.@ @XpXiXpXOX%XO ` V.9 :X&.I.iXiXiXz./.N.  pXpXpXpX",
"pXpXpXpXpXpXpXpXpXpXpXpXpXpXpXpXpXpXpXpXpXpXpXpXpXpXpXpXpXpX        j.n.N.n.$     3 4 *X%X5 # * * 8   ].&XiXiXiX{ ;.l.1.  pXpXpX",
"pXpXpXpXpXpXpXpXpXpXpXpXpXpXpXpXpXpXpXpXpXpXpXpXpXpXpXpXpX  pX X`.2., 2.2.> ' p e a p =   g D D ~.  -X}.P iXiXiX9Xu.-.iX  pXpXpX",
"pXpXpXpXpXpXpXpXpXpXpXpXpXpXpXpXpXpXpXpXpXpXpXpXpXpXpXpXpX  iXU ^ pXiX3 5X% x a k [ y.3.  T.n iXiX{   ! :.^.+X0 u.I.k.1.v pXpXpX",
"pXpXpXpXpXpXpXpXpXpXpXpXpXpXpXpXpXpXpXpXpXpXpXpXpXpXpXpXpX  L  X( rXpXOXG & x Z.[ K.iXr.p b b uXiXb.    x.,.F H     f.g.  pXpXpX",
"pXpXpXpXpXpXpXpXpXpXpXpXpXpXpXpXpXpXpXpXpXpXpXpXpXpXpXpXpX  ).pX'.XX{.[.o 7 t.y [ K.6Xd.  iXm m m C m i h.|           > pXpXpXpX",
"pXpXpXpXpXpXpXpXpXpXpXpXpXpXpXpXpXpXpXpXpXpXpXpXpXpXpXpXpX  R '.! Q |.o o 7 $.y 6.9.K.9.p     Y.iXm   S | q.  iXE.N     pXpXpXpX",
"pXpXpXpXpXpXpXpXpXpXpXpXpXpXpXpXpXpXpXpXpXpXpXpXpXpXpXpXpX  ).6 _.J m.iX0X0.<XX.&  ...          +.o.i   P.  2 b Y.b 2 b pXpXpXpX",
"pXpXpXpXpXpXpXpXpXpXpXpXpXpXpXpXpXpXpXpXpXpXpXpXpXpXpXpXpX  =X).K >.c.iXyXp.9.s.z u q b /.z.2.  8.i tX| & 2 n 2 2 2 8X2 pXpXpXpX",
"pXpXpXpXpXpXpXpXpXpXpXpXpXpXpXpXpXpXpXpXpXpXpXpXpXpXpXpXpXpX    : M.v.j.!.p.- p a.C.l 2 ;.z.=.j   s | q.q   2 iXC c 2   pXpXpXpX",
"pXpXpXpXpXpXpXpXpXpXpXpXpXpXpXpXpXpXpXpXpXpXpXpXpXpXpXpXpXpXpXpXo h eXB.%.&.-   p p o 1.j j j /.j   P.| +.O   < <   + pXpXpXpXpX",
"pXpXpXpXpXpXpXpXpXpXpXpXpXpXpXpXpXpXpXpXpXpXpXpXpXpXpXpXpXpXpXpXpXo o t r r o     o o 5XuX2.j j o pXO O O pXpXpXpXpXpXpXpXpXpXpX",
"pXpXpXpXpXpXpXpXpXpXpXpXpXpXpXpXpXpXpXpXpXpXpXpXpXpXpXpXpXpXpXpXpXpXpXo o o pXpXpXpXo *.1.M.*.m o pXpXpXpXpXpXpXpXpXpXpXpXpXpXpX",
"pXpXpXpXpXpXpXpXpXpXpXpXpXpXpXpXpXpXpXpXpXpXpXpXpXpXpXpXpXpXpXpXpXpXpXpXpXpXpXpXpXpXpXo o   . o pXpXpXpXpXpXpXpXpXpXpXpXpXpXpXpX",
"pXpXpXpXpXpXpXpXpXpXpXpXpXpXpXpXpXpXpXpXpXpXpXpXpXpXpXpXpXpXpXpXpXpXpXpXpXpXpXpXpXpXpXpXpXpXpXpXpXpXpXpXpXpXpXpXpXpXpXpXpXpXpXpX",
"pXpXpXpXpXpXpXpXpXpXpXpXpXpXpXpXpXpXpXpXpXpXpXpXpXpXpXpXpXpXpXpXpXpXpXpXpXpXpXpXpXpXpXpXpXpXpXpXpXpXpXpXpXpXpXpXpXpXpXpXpXpXpXpX",
"pXpXpXpXpXpXpXpXpXpXpXpXpXpXpXpXpXpXpXpXpXpXpXpXpXpXpXpXpXpXpXpXpXpXpXpXpXpXpXpXpXpXpXpXpXpXpXpXpXpXpXpXpXpXpXpXpXpXpXpXpXpXpXpX"
};
