/* XPM */
static char *result[] = {
/* columns rows colors chars-per-pixel */
"64 64 231 2 ",
"   c black",
".  c #010000",
"X  c #000400",
"o  c #080000",
"O  c #0E0000",
"+  c #000B00",
"@  c #010008",
"#  c #160001",
"$  c #190B00",
"%  c #161800",
"&  c #230000",
"*  c #220004",
"=  c #280004",
"-  c #250C00",
";  c #300000",
":  c #3D1400",
">  c #3C1700",
",  c #381800",
"<  c #012300",
"1  c #002F00",
"2  c #003B00",
"3  c #000021",
"4  c #000029",
"5  c #1E0022",
"6  c #02003A",
"7  c #290022",
"8  c #360020",
"9  c #3B0026",
"0  c #2B003D",
"q  c #420000",
"w  c #530000",
"e  c #5A0000",
"r  c #4A1900",
"t  c #581F00",
"y  c #56001F",
"u  c #590019",
"i  c #620000",
"p  c #640000",
"a  c #780000",
"s  c #7E0000",
"d  c #7C000A",
"f  c #660014",
"g  c #4F2300",
"h  c #483E00",
"j  c #642000",
"k  c #622800",
"l  c #60002D",
"z  c #6C002C",
"x  c #62003A",
"c  c #660039",
"v  c #044F00",
"b  c #1F4500",
"n  c #065300",
"m  c #0B5300",
"M  c #095400",
"N  c #0D5B00",
"B  c #1B6800",
"V  c #197C00",
"C  c #226C00",
"Z  c #2A6F00",
"A  c #326400",
"S  c #4A5500",
"D  c #7C4200",
"F  c #477700",
"G  c #0F0041",
"H  c #000051",
"J  c #000057",
"K  c #040055",
"L  c #0F0057",
"P  c #00005F",
"I  c #0D005C",
"U  c #1B0057",
"Y  c #16005B",
"T  c #22004A",
"R  c #20005E",
"E  c #030066",
"W  c #000072",
"Q  c #000077",
"!  c #00007D",
"~  c #00007F",
"^  c #190070",
"/  c #1D0075",
"(  c #17007A",
")  c #3D0060",
"_  c #7E0040",
"`  c #7A004B",
"'  c #78005A",
"]  c #820001",
"[  c #890000",
"{  c #8A0300",
"}  c #8E0000",
"|  c #920200",
" . c #9D0000",
".. c #90000E",
"X. c #820017",
"o. c #9C001A",
"O. c #A40000",
"+. c #A50000",
"@. c #A50100",
"#. c #AB0006",
"$. c #B60000",
"%. c #B70000",
"&. c #B2001F",
"*. c #802D00",
"=. c #882B00",
"-. c #9F2300",
";. c #8C3400",
":. c #9D3400",
">. c #9A3B00",
",. c #A52600",
"<. c #BA2000",
"1. c #BB2B00",
"2. c #A43200",
"3. c #A43400",
"4. c #AD3900",
"5. c #BD3E00",
"6. c #80002C",
"7. c #98002D",
"8. c #AC0021",
"9. c #C30006",
"0. c #C90000",
"q. c #CD0000",
"w. c #CB0006",
"e. c #D30005",
"r. c #DE0000",
"t. c #F60000",
"y. c #FF0809",
"u. c #FF0B12",
"i. c #FF1919",
"p. c #FF1C1C",
"a. c #D92400",
"s. c #D32F00",
"d. c #E63700",
"f. c #E2002A",
"g. c #FF0427",
"h. c #FF3434",
"j. c #864000",
"k. c #9B4200",
"l. c #B84400",
"z. c #DE4200",
"x. c #DE4600",
"c. c #ED4800",
"v. c #F84200",
"b. c #FF4800",
"n. c #F85100",
"m. c #FF5511",
"M. c #D26800",
"N. c #FF6420",
"B. c #FF6E31",
"V. c #FF7433",
"C. c #FF7832",
"Z. c #FF7C3E",
"A. c #8D004D",
"S. c #8D005A",
"D. c #A00047",
"F. c #AB0045",
"G. c #BC005D",
"H. c #850064",
"J. c #87006B",
"K. c #88006A",
"L. c #AA0060",
"P. c #CF0072",
"I. c #E30068",
"U. c #E70072",
"Y. c #FF4545",
"T. c #FF4949",
"R. c #FF4B4B",
"E. c #FF7A42",
"W. c #FF4464",
"Q. c #678F00",
"!. c #629E00",
"~. c #6BC000",
"^. c #879400",
"/. c #84BC00",
"(. c #A8A700",
"). c #FF8E3D",
"_. c #FFA522",
"`. c #FFA377",
"'. c #FFF971",
"]. c #000087",
"[. c #00008F",
"{. c #17008C",
"}. c #0F0097",
"|. c #000099",
" X c #00009A",
".X c #0E009E",
"XX c #0500A4",
"oX c #0000AC",
"OX c #1100A1",
"+X c #0400B3",
"@X c #0000BB",
"#X c #0F00BB",
"$X c #1200B1",
"%X c #1700B9",
"&X c #2C00BA",
"*X c #2200C2",
"=X c #0100E9",
"-X c #0000EB",
";X c #0000ED",
":X c #1700EF",
">X c #0000F3",
",X c #0000F7",
"<X c #1200F1",
"1X c #2400FF",
"2X c #4E00CC",
"3X c #C70082",
"4X c #D30097",
"5X c #FF5B9D",
"6X c #FF6780",
"7X c #FF4DBD",
"8X c #FF6ABF",
"9X c #8200FF",
"0X c #A200FF",
"qX c #FF4AC7",
"wX c #FFB781",
"eX c #FFB4B4",
"rX c #FFC688",
"tX c #FFCA97",
"yX c #FFFC8E",
"uX c #FFC3A7",
"iX c #FFDCA9",
"pX c #FFB2FF",
"aX c #FFFFC7",
"sX c #FFFED3",
"dX c #FFC9EA",
"fX c #FFEAEA",
"gX c #FFFDEE",
"hX c #FFF2FF",
"jX c #FFFFF8",
"kX c white",
"lX c None",
/* pixels */
"lXlXlXlXlXlXlXlXlXlXlXlXlXlXlXlXlXlXlXlXlXlXlXlXlXlXlXlXlXlXlXlXlXlXlXlXlXlXlXlXlXlXlXlXlXlXlXlXlXlXlXlXlXlXlXlXlXlXlXlXlXlXlXlX",
"lXlXlXlXlXlXlXlXlXlXlXlXlXlXlXlXlXlXlXlXlXlXlXlXlXlXlXlXlXlXlXlXlXlXlXlXlXlXlXlXlXlXlXlXlXlXlXlXlXlXlXlXlXlXlXlXlXlXlXlXlXlXlXlX",
"lXlXlXlXlXlXlXlXlXlXlXlXlXlXlXlXlXlXlXlXlXlXlXlXlXlXlXlXlXlXlXlXlXlXlXlXlXlXlXlXlXlXlXlXlXlXlXlXlXlXlXlXlXlXlXlXlXlXlXlXlXlXlXlX",
"lXlXlXlXlXlXlXlXlXlXlXlXlXlXlXlXlXlXlXlXlXlXlXlXlXlXlXlXlXlXlXlXlXlXlXlXlXlXlXlXlXlXlXlXlXlXlXlXlXlXlXlXlXlXlXlXlXlXlXlXlXlXlXlX",
"lXlXlXlXlXlXlXlXlXlXlXlXlXlXlXlXlXlXlXlXlXlXlXlXlXlXlXlXlXlXlXlXlXlXlXlXlXlXlXlXlXlXlXlXlXlXlXlXlXlXlXlXlXlXlXlXlXlXlXlXlXlXlXlX",
"lXlXlXlXlXlXlXlXlXlXlXlXlXlXlXlXlXlXlXlXlXlXlXlXlXlXlXlXlXlXlXlXlXlXlXlXlXlXlXlXlXlXlXlXlXlXlXlXlXlXlXlXlXlXlXlXlXlXlXlXlXlXlXlX",
"lXlXlXlXlXlXlXlXlXlXlXlXlXlXlXlXlXlXlXlXlXlXlXlXlXlXlXlXlXlXlXlXlXlXlXlXlXlXlXlXlXlXlXlXlXlXlXlXlXlXlXlXlXlXlXlXlXlXlXlXlXlXlXlX",
"lXlXlXlXlXlXlXlXlXlXlXlXlXlXlXlXlXlXlXlXlXlXlXlXlXlXlXlXlXlXlXlXlXlXlXlXlXlXlXlXlXlXlXlXlXlXlXlXlXlXlXlXlXlXlXlXlXlXlXlXlXlXlXlX",
"lXlXlXlXlXlXlXlXlXlXlXlXlXlXlXlXlXlXlXlXlXlXlXlXlXlXlXlXlXlXlXlXlXlXlXlXlXlXlXlXlXlXlXlXlXlXlXlXlXlXlXlXlXlXlXlXlXlXlXlXlXlXlXlX",
"lXlXlXlXlXlXlXlXlXlXlXlXlXlXlXlXlXlXlXlXlXlXlXlXlXlXlXlXlXlXlXlXlXlXlXlXlXlXlXlXlXlXlXlXlXlXlXlXlXlXlXlXlXlXlXlXlXlXlXlXlXlXlXlX",
"lXlXlXlXlXlXlXlXlXlXlXlXlXlXlXlXlXlXlXlXlXlXlXlXlXlXlXlXlXlXlXlXlXlXlXlXlXlXlXlXlXlXlXlXlXlXlXlXlXlXlXlXlXlXlXlXlXlXlXlXlXlXlXlX",
"lXlXlXlXlXlXlXlXlXlXlXlXlXlXlXlXlXlXlXlXlXlXlXlXlXlXlXlXlXlXlXlXlXlXlXlXlXlXlXlXlXlXlXlXlXlXlXlXlXlXlXlXlXlXlXlXlXlXlXlXlXlXlXlX",
"lXlXlXlXlXlXlXlXlXlXlXlXlXlXlXlXlXlXlXlXlXlXlXlXlXlXlXlXlXlXlXlXlXlXlXlXlXlXlXlXlXlXlXlXlXlXlXlXlXlXlXlXlXlXlXlXlXlXlXlXlXlXlXlX",
"lXlXlXlXlXlXlXlXlXlXlXlXlXlXlXlXlXlXlXlXlXlXlXlXlXlXlXlXlXlXlXlXlXlXlXlXlXlXlXlXlXlXlXlXlXlXlXlXlXlXlXlXlXlXlXlXlXlXlXlXlXlXlXlX",
"lXlXlXlXlXlXlXlXlXlXlXlXlXlXlXlXlXlXlXlXlXlXlXlXlXlXlXlXlXlXlXlXlXlXlXlXlXlXlXlXlXlXlXlXlXlXlXlXlXlXlXlXlXlXlXlXlXlXlXlXlXlXlXlX",
"lXlXlXlXlXlXlXlXlXlXlXlXlXlXlXlXlXlXlXlXlXlXlXlXlXlXlXlXlXlXlXlXlXlXlXlXlXlXlXlXlXlXlXlXlXlXlXlXlXlXlXlXlXlXlXlXlXlXlXlXlXlXlXlX",
"lXlXlXlXlXlXlXlXlXlXlXlXlXlXlXlXlXlXlXlXlXlXlXlXlXlXlXlXlXlXlXlXlXlXlXlXlXlXlXlXlXlXlXlXlXlXlXlXlXlXlXlXlXlXlXlXlXlXlXlXlXlXlXlX",
"lXlXlXlXlXlXlXlXlXlXlXlXlXlXlXlXlXlXlXlXlXlXlXlXlXlXlXlXlXlXlXlXlXlXlXlXlXlXlXlXlXlXlXlXlXlXlXlXlXlXlXlXlXlXlXlXlXlXlXlXlXlXlXlX",
"lXlXlXlXlXlXlXlXlXlXlXlXlXlXlXlXlXlXlXlXlXlXlXlXlXlXlXlXlXlXlXlXlXlXlXlXlXlXlXlXlXlXlXlXlXlXlXlXlXlXlXlXlXlXlXlXlXlXlXlXlXlXlXlX",
"lXlXlXlXlXlXlXlXlXlXlXlXlXlXlXlXlXlXlXlXlXlXlXlXlXlXlXlXlXlXlXlXlXlXlXlXlXlXlXlXlXlXlXlXlXlXlXlXlXlXlXlXlXlXlXlXlXlXlXlXlXlXlXlX",
"lXlXlXlXlXlXlXlXlXlXlXlXlXlXlXlXlXlXlXlXlXlXlXlXlXlXlXlXlXlXlXlXlXlXlXlXlXlXlXlXlXlXlXlXlXlXlXlXlXlXlXlXlXlXlXlXlXlXlXlXlXlXlXlX",
"lXlXlXlXlXlXlXlXlXlXlXlXlXlXlXlXlXlXlXlXlXlXlXlXlXlXlXlXlXlXlXlXlXlXlXlXlXlXlXlXlXlXlXlXlXlXlXlXlXlXlXlXlXlXlXlXlXlXlXlXlXlXlXlX",
"lXlXlXlXlXlXlXlXlXlXlXlXlXlXlXlXlXlXlXlXlXlXlXlXlXlXlXlXlXlXlXlXlXlXlXlXlXlXlXlXlXlXlXlXlXlXlXlXlXlXlXlXlXlXlXlXlXlXlXlXlXlXlXlX",
"lXlXlXlXlXlXlXlXlXlXlXlXlXlXlXlXlXlXlXlXlXlXlXlXlXlXlXlXlXlXlXlXlXlXlXlXlXlXlXlXlXlXlXlXlXlXlXlXlXlXlXlXlXlXlXlXlXlXlXlXlXlXlXlX",
"lXlXlXlXlXlXlXlXlXlXlXlXlXlXlXlXlXlXlXlXlXlXlXlXlXlXlXlXlXlXlXlXlXlXlXlXlXlXlXlXlXlXlXlXlXlXlXlXlXlXlXlXlXlXlXlXlXlXlXlXlXlXlXlX",
"lXlXlXlXlXlXlXlXlXlXlXlXlXlXlXlXlXlXlXlXlXlXlXlXlXlXlXlXlXlXlXlXlXlXlXlXlXlXlXlXlXlXlXlXlXlXlXlXlXlXlXlXlXlXlXlXlXlXlXlXlXlXlXlX",
"lXlXlXlXlXlXlXlXlXlXlXlXlXlXlXlXlXlXlXlXlXlXlXlXlXlXlXlXlXlXlXlXlXlXlXlXlXlXlXlXlXlXlXlXlXlXlXlXlXlXlXlXlXlXlXlXlXlXlXlXlXlXlXlX",
"lXlXlXlXlXlXlXlXlXlXlXlXlXlXlXlXlXlXlXlXlXlXlXlXlXlXlXlXlXlXlXlXlXlXlXlXlXlXlXlXlXlXlXlXlXlXlXlXlXlXlXlXlXlXlXlXlXlXlXlXlXlXlXlX",
"lXlXlXlXlXlXlXlXlXlXlXlXlXlXlXlXlXlXlXlXlXlXlXlXlXlXlXlXlXlXlXlXlXlXlXlXlXlXlXlXlXlXlXlXlXlXlXlXlXlXlXlXlXlXlXlXlXlXlXlXlXlXlXlX",
"lXlXlXlXlXlXlXlXlXlXlXlXlXlXlXlXlXlXlXlXlXlXlXlXlXlXlXlXlXlXlXlXlXlXlXlXlXlXlXlXlXlXlXlXlXlXlXlXlXlXlXlXlXlXlXlXlXlXlXlXlXlXlXlX",
"lXlXlXlXlXlXlXlXlXlXlXlXlXlXlXlXlXlXlXlXlXlXlXlXlXlXlXlXlXlXlXlXlXlXlXlXlXlXlXlXlXlXlXlXlXlXlXlXlXlXlXlXlXlXlXlXlXlXlXlXlXlXlXlX",
"lXlXlXlXlXlXlXlXlXlXlXlXlXlXlXlXlXlXlXlXlXlXlXlXlXlXlXlXlXlXlXlXlXlXlXlXlXlXlXlXlXlXlXlXlXlXlXlXlXlXlXlXlXlXlXlXlXlXlXlXlXlXlXlX",
"lXlXlXlXlXlXlXlXlXlXlXlXlXlXlXlXlXlXlXlXlXlXlXlXlXlXlXlXlXlXlXlXlXlXlXlXlXlXlXlXlXlXlXlXlXlXlXlXlXlXlXlXlXlXlXlXlXlXlXlXlXlXlXlX",
"lXlXlXlXlXlXlXlXlXlXlXlXlXlXlXlXlXlXlXlXlXlXlXlXlXlXlXlXlXlXlXlXlXlXlXlXlXlXlXlXlXlXlXlXlXlXlXlXlXlXlXlXlXlXlXlXlXlXlXlXlXlXlXlX",
"lXlXlXlXlXlXlXlXlXlXlXlXlXlXlXlXlXlXlXlXlXlXlXlXlXlXlXlXlXlXlXlXlXlXlXlXlXlXlXlXlXlXlXlXlXlXlXlXlXlXlXlXlXlXlXlXlXlXlXlXlXlXlXlX",
"lXlXlXlXlXlXlXlXlXlXlXlXlXlXlXlXlXlXlXlXlXlXlXlXlXlXlXlXlXlXlXlXlXlXlXlXlXlXlXlXlXlXlXlXlXlX      lXlXlXlXlXlXlXlXlXlXlXlXlXlXlX",
"lXlXlXlXlXlXlXlXlXlXlXlXlXlXlXlXlXlXlXlXlXlXlXlXlXlXlXlXlXlXlXlXlXlXlXlXlXlXlXlXlXlXlXlXlX  1 1 M   lXlXlXlXlXlXlXlXlXlXlXlXlXlX",
"lXlXlXlXlXlXlXlXlXlXlXlXlXlXlXlXlXlXlXlXlXlXlXlXlXlXlXlXlXlXlXlXlXlXlXlXlXlXlX      lXlX  1 A kXaX(.  M lXlXlXlXlXlXlXlXlXlXlXlX",
"lXlXlXlXlXlXlXlXlXlXlXlXlXlXlXlXlXlXlXlXlXlXlXlXlXlXlXlXlXlXlXlXlXlXlXlXlXlX  p p p     f   2.M /.C (.lXM lXlXlXlXlXlXlXlXlXlXlX",
"lXlXlXlXlXlXlXlXlXlXlXlXlXlXlXlXlXlXlXlXlXlXlXlXlXlXlXlXlXlXlXlXlXlXlXlXlXlX  w r.w p kX7.i   S V M M M   X   lXlXlXlXlXlXlXlXlX",
"lXlXlXlXlXlXlXlXlXlXlXlXlXlXlXlXlXlXlXlXlXlXlXlXlXlXlXlXlXlXlXlXlXlXlXlXlX  s r.kX#.kXkXkXfX .~.~.N     p p p   lXlXlXlXlXlXlXlX",
"lXlXlXlXlXlXlXlXlXlXlXlXlXlXlXlXlXlXlXlXlXlXlXlXlXlXlXlXlXlXlXk.lXlX    -   s p p     kXs  .r.q u        .Y.kX}   lXlXlXlXlXlXlX",
"lXlXlXlXlXlXlXlXlXlXlXlXlXlXlXlXlXlXlXlXlXlXlXlXlXlXlXlXlXlXlXx.,.  [ [     %.p ].lXlX%.0.R. .H.U.W.W.+.  a } Y.    lXlXlXlXlXlX",
"lXlXlXlXlXlXlXlXlXlXlXlXlXlXlXlXlXlXlXlXlXlXlXlXlXlXlXlXlXlXlX,.`...w.=.l.j.O W :XlXkXlX%.  d 4X8XkXW.W.y ; } Y.eX  lXlXlXlXlXlX",
"lXlXlXlXlXlXlXlXlXlXlXlXlXlXlXlXlXlXlXlXlXlXlXlXlXlXlXlXlXlXlX  kXkXkXE.=.a H 0 @X=XlX9XR   6.' K.L.W.kX7XF...w.t.p lXlXlXlXlXlX",
"lXlXlXlXlXlXlXlXlXlXlXlXlXlXlXlXlXlXlXlXlXlXlXlXlXlXlXlXlXlXlX| kXkXkX= * & H =X@XQ T 2XpX    ` 8._ J.qXG.7.T.i.$.. lXlXlXlXlXlX",
"lXlXlXlXlXlXlXlXlXlXlXlXlXlXlXlXlXlXlXlXlXlXlXlXlXlXlXlXlXlXa.uXkXkXkXN.sXs.@ lX;X$X( ^ U -X  ' 5X8 L.I.P.            lXlXlXlXlX",
"lXlXlXlXlXlXlXlXlXlXlXlXlXlXlXlXlXlXlXlXlXlXlXlXlXlXlXlXlXx.E.a.    `.,.kXrX=.@ =XlXkXlX%X:XO ' A.9 3X    0X*X  v.'.C.  lXlXlXlX",
"lXlXlXlXlXlXlXlXlXlXlXlXlXlXlXlXlXlXlXlXlXlXlXlXlXlXlXlXlXj.        1.b.C.N.$     3 4 ,X:X5 # * * 8    X>XlXkXhXv.>.c.3.  lXlXlX",
"lXlXlXlXlXlXlXlXlXlXlXlXlXlXlXlXlXlXlXlXlXlXlXlXlXlXlXlXlX  lX+X}.4., l.4.> ] p e a p =   g F F _.  1XoXI E kXlX*X5.:.kX  lXlXlX",
"lXlXlXlXlXlXlXlXlXlXlXlXlXlXlXlXlXlXlXlXlXlXlXlXlXlXlXlXlX  kXY / lXkX3 D % c a l } p.6.  !.m kXkX|   ~ K Q &X0 *X  tX3.b lXlXlX",
"lXlXlXlXlXlXlXlXlXlXlXlXlXlXlXlXlXlXlXlXlXlXlXlXlXlXlXlXlX  P +X) dXlX%XH & c D.} Y.kXy.p n n jXkXM.    i   G J     { h   lXlXlX",
"lXlXlXlXlXlXlXlXlXlXlXlXlXlXlXlXlXlXlXlXlXlXlXlXlXlXlXlXlX  [.lX|.#XXX.Xo 7 u.y } Y.eXh.  kXM M M Z M i fX .          > lXlXlXlX",
"lXlXlXlXlXlXlXlXlXlXlXlXlXlXlXlXlXlXlXlXlXlXlXlXlXlXlXlXlX  E |.~ ! OXo o 7 &.y 9.w.Y.w.p     Q.kXM   s  .r.  kX^.B     lXlXlXlX",
"lXlXlXlXlXlXlXlXlXlXlXlXlXlXlXlXlXlXlXlXlXlXlXlXlXlXlXlXlX  [.6 {.K B.kXiXe.6Xo.& ..X.          @.O.i   R.  2 n Q.n 2 n lXlXlXlX",
"lXlXlXlXlXlXlXlXlXlXlXlXlXlXlXlXlXlXlXlXlXlXlXlXlXlXlXlXlX  <X[.L <.n.kXgXd.w.g.x u q n '.v.4.  q.i fX .& 2 m 2 2 2 yX2 lXlXlXlX",
"lXlXlXlXlXlXlXlXlXlXlXlXlXlXlXlXlXlXlXlXlXlXlXlXlXlXlXlXlXlX    : V.m.z.).d.- p f.S.z 2 >.v.;.k   s  .r.q   2 kXZ v 2   lXlXlXlX",
"lXlXlXlXlXlXlXlXlXlXlXlXlXlXlXlXlXlXlXlXlXlXlXlXlXlXlXlXlXlXlXlXo j sXZ.*.=.-   p p o 3.k k k '.k   R. .@.O   < <   + lXlXlXlXlX",
"lXlXlXlXlXlXlXlXlXlXlXlXlXlXlXlXlXlXlXlXlXlXlXlXlXlXlXlXlXlXlXlXlXo o t r r o     o o wXjX4.k k o lXO O O lXlXlXlXlXlXlXlXlXlXlX",
"lXlXlXlXlXlXlXlXlXlXlXlXlXlXlXlXlXlXlXlXlXlXlXlXlXlXlXlXlXlXlXlXlXlXlXo o o lXlXlXlXo -.3.V.-.M o lXlXlXlXlXlXlXlXlXlXlXlXlXlXlX",
"lXlXlXlXlXlXlXlXlXlXlXlXlXlXlXlXlXlXlXlXlXlXlXlXlXlXlXlXlXlXlXlXlXlXlXlXlXlXlXlXlXlXlXo o   . o lXlXlXlXlXlXlXlXlXlXlXlXlXlXlXlX",
"lXlXlXlXlXlXlXlXlXlXlXlXlXlXlXlXlXlXlXlXlXlXlXlXlXlXlXlXlXlXlXlXlXlXlXlXlXlXlXlXlXlXlXlXlXlXlXlXlXlXlXlXlXlXlXlXlXlXlXlXlXlXlXlX",
"lXlXlXlXlXlXlXlXlXlXlXlXlXlXlXlXlXlXlXlXlXlXlXlXlXlXlXlXlXlXlXlXlXlXlXlXlXlXlXlXlXlXlXlXlXlXlXlXlXlXlXlXlXlXlXlXlXlXlXlXlXlXlXlX",
"lXlXlXlXlXlXlXlXlXlXlXlXlXlXlXlXlXlXlXlXlXlXlXlXlXlXlXlXlXlXlXlXlXlXlXlXlXlXlXlXlXlXlXlXlXlXlXlXlXlXlXlXlXlXlXlXlXlXlXlXlXlXlXlX"
};
