/* XPM */
static char *gems_5[] = {
/* columns rows colors chars-per-pixel */
"64 64 221 2 ",
"   c #010001",
".  c black",
"X  c #010000",
"o  c #000400",
"O  c #080000",
"+  c #0E0000",
"@  c #000B00",
"#  c #010008",
"$  c #160001",
"%  c #190B00",
"&  c #161800",
"*  c #230000",
"=  c #220004",
"-  c #280004",
";  c #250C00",
":  c #300000",
">  c #3D1400",
",  c #3C1700",
"<  c #381800",
"1  c #012300",
"2  c #002F00",
"3  c #003B00",
"4  c #000021",
"5  c #000029",
"6  c #1E0022",
"7  c #02003A",
"8  c #290022",
"9  c #360020",
"0  c #3B0026",
"q  c #2B003D",
"w  c #420000",
"e  c #530000",
"r  c #5A0000",
"t  c #4A1900",
"y  c #581F00",
"u  c #56001F",
"i  c #590019",
"p  c #620000",
"a  c #640000",
"s  c #780000",
"d  c #7E0000",
"f  c #7C000A",
"g  c #660014",
"h  c #4F2300",
"j  c #483E00",
"k  c #642000",
"l  c #622800",
"z  c #60002D",
"x  c #6C002C",
"c  c #62003A",
"v  c #660039",
"b  c #044F00",
"n  c #1F4500",
"m  c #065300",
"M  c #0B5300",
"N  c None",
"B  c #0D5B00",
"V  c #1B6800",
"C  c #197C00",
"Z  c #226C00",
"A  c #2A6F00",
"S  c #326400",
"D  c #4A5500",
"F  c #477700",
"G  c #0F0041",
"H  c #000051",
"J  c #000057",
"K  c #040055",
"L  c #0F0057",
"P  c #00005F",
"I  c #0D005C",
"U  c #1B0057",
"Y  c #16005B",
"T  c #22004A",
"R  c #20005E",
"E  c #030066",
"W  c #000072",
"Q  c #000077",
"!  c #00007D",
"~  c #00007F",
"^  c #190070",
"/  c #1D0075",
"(  c #17007A",
")  c #3D0060",
"_  c #7E0040",
"`  c #7A004B",
"'  c #78005A",
"]  c #820001",
"[  c #890000",
"{  c #8A0300",
"}  c #8E0000",
"|  c #920200",
" . c #990000",
".. c #9D0000",
"X. c #90000E",
"o. c #820017",
"O. c #9C001A",
"+. c #A40000",
"@. c #A50000",
"#. c #A50100",
"$. c #AB0006",
"%. c #B60000",
"&. c #B70000",
"*. c #B2001F",
"=. c #802D00",
"-. c #882B00",
";. c #9F2300",
":. c #8C3400",
">. c #9D3400",
",. c #9A3B00",
"<. c #BA2000",
"1. c #A43200",
"2. c #A43400",
"3. c #AD3900",
"4. c #BD3E00",
"5. c #80002C",
"6. c #98002D",
"7. c #AC0021",
"8. c #C30006",
"9. c #C90000",
"0. c #CD0000",
"q. c #CB0006",
"w. c #D30005",
"e. c #DE0000",
"r. c #DE0005",
"t. c #F60000",
"y. c #FF0809",
"u. c #FF0B12",
"i. c #FF1919",
"p. c #FF1C1C",
"a. c #D32F00",
"s. c #E63700",
"d. c #E2002A",
"f. c #FF0427",
"g. c #FF3434",
"h. c #DE4200",
"j. c #ED4800",
"k. c #F84200",
"l. c #F85100",
"z. c #FF5511",
"x. c #D26800",
"c. c #FF6420",
"v. c #FF6E31",
"b. c #FF7433",
"n. c #FF7832",
"m. c #FF7C3E",
"M. c #8D004D",
"N. c #8D005A",
"B. c #A00047",
"V. c #AB0045",
"C. c #BC005D",
"Z. c #850064",
"A. c #87006B",
"S. c #88006A",
"D. c #AA0060",
"F. c #CF0072",
"G. c #E30068",
"H. c #E70072",
"J. c #FF4545",
"K. c #FF4949",
"L. c #FF4B4B",
"P. c #FF4464",
"I. c #678F00",
"U. c #629E00",
"Y. c #6BC000",
"T. c #879400",
"R. c #84BC00",
"E. c #A8A700",
"W. c #FF8E3D",
"Q. c #FFA522",
"!. c #FFF971",
"~. c #000087",
"^. c #00008F",
"/. c #17008C",
"(. c #0F0097",
"). c #000099",
"_. c #00009A",
"`. c #0E009E",
"'. c #0500A4",
"]. c #0000AC",
"[. c #1100A1",
"{. c #0400B3",
"}. c #0000BB",
"|. c #0F00BB",
" X c #1200B1",
".X c #1700B9",
"XX c #2C00BA",
"oX c #2200C2",
"OX c #0100E9",
"+X c #0000EB",
"@X c #0000ED",
"#X c #1700EF",
"$X c #0000F3",
"%X c #0000F7",
"&X c #1200F1",
"*X c #2400FF",
"=X c #4E00CC",
"-X c #C70082",
";X c #D30097",
":X c #FF5B9D",
">X c #FF6780",
",X c #FF4DBD",
"<X c #FF6ABF",
"1X c #8200FF",
"2X c #A200FF",
"3X c #FF4AC7",
"4X c #FFB781",
"5X c #FFB4B4",
"6X c #FFC688",
"7X c #FFCA97",
"8X c #FFFC8E",
"9X c #FFDCA9",
"0X c #FFB2FF",
"qX c #FFFFC7",
"wX c #FFFED3",
"eX c #FFC9EA",
"rX c #FFEAEA",
"tX c #FFFDEE",
"yX c #FFF2FF",
"uX c #FFFFF8",
"iX c #FFFFFF",
/* pixels */
"                                                                                                                                ",
"                                                                                                                                ",
"                                                                                                                                ",
"                                                                                                                                ",
"                                                                                                                                ",
"                                                                                                                                ",
"                                                                                                                                ",
"                                                                                                                                ",
"                                                                                                                                ",
"                                                                                                                                ",
"                                                                                                                                ",
"                                                                                                                                ",
"                                                                                                                                ",
"                                                                                                                                ",
"                                                                                                                                ",
"                                                                                                                                ",
"                                                                                                                                ",
"                                                                                                                                ",
"                                                                                                                                ",
"                                                                                                                                ",
"                                                                                                                                ",
"                                                                                                                                ",
"                                                                                                                                ",
"                                                                                                                                ",
"                                                                                                                                ",
"                                                                                                                                ",
"                                                                                                                                ",
"                                                                                                                                ",
"                                                                                                                                ",
"                                                                                                                                ",
"                                                                                                                                ",
"                                                                                                                                ",
"                                                                                                                                ",
"                                                                                                                                ",
"                                                                                                                                ",
"                                                                                            . . .                               ",
"                                                                                          . 2 2 N .                             ",
"                                                                              . . .     . 2 S iXqXE.. N                         ",
"                                                                            . a a a . . g . 1.N R.Z E.  N                       ",
"                                                                            . e e.e a a 6.p . D C N N N . o .                   ",
"                                                                          . d e.iX$.p r.a rX..Y.Y.B . . a a a .                 ",
"                                                                    . . ; . d a a . . . d ..e.w i . . . ..J.iX} .               ",
"                                                                  . [ [ . . &.a ~.    &.9.L...Z.H.P.P.@.. s } J.. .             ",
"                                                                . X.q.J.e . + W #X  iX  &.. f ;X<XiXP.P.u : } J.5X.             ",
"                                                              .  .iXJ.iXJ.s H q }.OX  1XR . 5.' S.D.P.iX,XV.X.q.t.a             ",
"                                                              . iXiXiX- * * H OX}.Q T =X0X. . ` 7._ A.3XC.6.K.i.%.X             ",
"                                                              . e iX$ c.wXa.#   @X X( ^ U +X. ' :X9 D.G.F.. . . . . .           ",
"                                                              . . . h.6XiX6X-.# OX  iX  .X#X+ ' M.0 -X. . 2XoX. k.!.n..         ",
"                                                            . . . . h.c.n.c.% . . 4 5 %X#X6 $ = = 9 . _.$X  iXyXk.,.j.2..       ",
"                                                          .   {.(.3.< 3.3., ] a r s a - . h F F Q.. *X].I E iX  oX4.>.iX.       ",
"                                                          . iXY /   iX4 4X& v s z } p.5.. U.M iXiX| . ~ K Q XXq oX. 7X2.n       ",
"                                                          . P {.) eX  .XH * v B.} J.iXy.a m m uXiXx.. . p . G J . . { j .       ",
"                                                          . ^.  ).|.'.`.O 8 u.u } J.5Xg.. iXN N N A N p rX... . . . . ,         ",
"                                                          . E ).~ ! [.O O 8 *.u 8.q.J.q.a . . I.iXN . d ..e.. iXT.V . .         ",
"                                                          . ^.7 /.K v.iX9Xw.>XO.* X.o.. . . . . #.+.p . L.. 3 m I.m 3 m         ",
"                                                          . &X^.L <.l.iXtXs.q.f.c i w m !.k.3.. 0.p rX..* 3 M 3 3 3 8X3         ",
"                                                            . . > b.z.h.W.s.; a d.N.x 3 ,.k.:.l . d ..e.w . 3 iXA b 3 .         ",
"                                                                O k wXm.=.-.; . a a O 2.l l l !.l . L...#.+ . 1 1 . @           ",
"                                                                  O O y t t O . . O O 4XuX3.l l O   + + +                       ",
"                                                                      O O O         O ;.2.b.;.N O                               ",
"                                                                                      O O . X O                                 ",
"                                                                                                                                ",
"                                                                                                                                ",
"                                                                                                                                "
};
