/* XPM */
static char *gems_6[] = {
/* columns rows colors chars-per-pixel */
"64 64 229 2 ",
"   c #010001",
".  c black",
"X  c #010000",
"o  c #000400",
"O  c None",
"+  c #0E0000",
"@  c #000B00",
"#  c #010008",
"$  c #160001",
"%  c #190B00",
"&  c #161800",
"*  c #230000",
"=  c #220004",
"-  c #280004",
";  c #250C00",
":  c #300000",
">  c #3D1400",
",  c #3C1700",
"<  c #381800",
"1  c #012300",
"2  c #002F00",
"3  c #003B00",
"4  c #000021",
"5  c #000029",
"6  c #1E0022",
"7  c #02003A",
"8  c #290022",
"9  c #360020",
"0  c #3B0026",
"q  c #2B003D",
"w  c #420000",
"e  c #530000",
"r  c #5A0000",
"t  c #4A1900",
"y  c #581F00",
"u  c #56001F",
"i  c #590019",
"p  c #620000",
"a  c #640000",
"s  c #780000",
"d  c #7E0000",
"f  c #7C000A",
"g  c #660014",
"h  c #4F2300",
"j  c #483E00",
"k  c #642000",
"l  c #622800",
"z  c #60002D",
"x  c #62003A",
"c  c #660039",
"v  c #044F00",
"b  c #1F4500",
"n  c #065300",
"m  c #0B5300",
"M  c #095400",
"N  c #0D5B00",
"B  c #1B6800",
"V  c #197C00",
"C  c #226C00",
"Z  c #2A6F00",
"A  c #326400",
"S  c #4A5500",
"D  c #7C4200",
"F  c #477700",
"G  c #0F0041",
"H  c #000051",
"J  c #000057",
"K  c #040055",
"L  c #0F0057",
"P  c #00005F",
"I  c #0D005C",
"U  c #1B0057",
"Y  c #16005B",
"T  c #22004A",
"R  c #20005E",
"E  c #030066",
"W  c #000072",
"Q  c #000077",
"!  c #00007D",
"~  c #00007F",
"^  c #190070",
"/  c #1D0075",
"(  c #17007A",
")  c #3D0060",
"_  c #7E0040",
"`  c #7A004B",
"'  c #78005A",
"]  c #820001",
"[  c #890000",
"{  c #8A0300",
"}  c #8E0000",
"|  c #920200",
" . c #990000",
".. c #9D0000",
"X. c #90000E",
"o. c #820017",
"O. c #9C001A",
"+. c #A40000",
"@. c #A50000",
"#. c #A50100",
"$. c #AB0006",
"%. c #B60000",
"&. c #B70000",
"*. c #B2001F",
"=. c #802D00",
"-. c #882B00",
";. c #9F2300",
":. c #8C3400",
">. c #9D3400",
",. c #9A3B00",
"<. c #A52600",
"1. c #BA2000",
"2. c #BB2B00",
"3. c #A43200",
"4. c #A43400",
"5. c #AD3900",
"6. c #BD3E00",
"7. c #80002C",
"8. c #98002D",
"9. c #AC0021",
"0. c #C30006",
"q. c #C90000",
"w. c #CB0006",
"e. c #D30005",
"r. c #DE0000",
"t. c #DE0005",
"y. c #ED0100",
"u. c #F60000",
"i. c #FF0809",
"p. c #FF0B12",
"a. c #FF1919",
"s. c #FF1C1C",
"d. c #D92400",
"f. c #D32F00",
"g. c #E63700",
"h. c #E2002A",
"j. c #FF0427",
"k. c #FF3434",
"l. c #864000",
"z. c #9B4200",
"x. c #B84400",
"c. c #DE4200",
"v. c #DE4600",
"b. c #ED4800",
"n. c #F84200",
"m. c #FF4800",
"M. c #F85100",
"N. c #FF5511",
"B. c #FF6420",
"V. c #FF6E31",
"C. c #FF7433",
"Z. c #FF7832",
"A. c #FF7C3E",
"S. c #8D004D",
"D. c #A00047",
"F. c #AB0045",
"G. c #BC005D",
"H. c #850064",
"J. c #87006B",
"K. c #88006A",
"L. c #AA0060",
"P. c #CF0072",
"I. c #E30068",
"U. c #E70072",
"Y. c #FF4545",
"T. c #FF4949",
"R. c #FF4B4B",
"E. c #FF7A42",
"W. c #FF4464",
"Q. c #678F00",
"!. c #6BC000",
"~. c #879400",
"^. c #84BC00",
"/. c #A8A700",
"(. c #FF8E3D",
"). c #FFA522",
"_. c #FFA377",
"`. c #FFF971",
"'. c #000087",
"]. c #00008F",
"[. c #17008C",
"{. c #0F0097",
"}. c #000099",
"|. c #00009A",
" X c #0E009E",
".X c #0500A4",
"XX c #0000AC",
"oX c #1100A1",
"OX c #0400B3",
"+X c #0000BB",
"@X c #0F00BB",
"#X c #1200B1",
"$X c #1700B9",
"%X c #2C00BA",
"&X c #2200C2",
"*X c #0100E9",
"=X c #0000EB",
"-X c #0000ED",
";X c #1700EF",
":X c #0000F3",
">X c #0000F7",
",X c #1200F1",
"<X c #2400FF",
"1X c #4E00CC",
"2X c #C70082",
"3X c #D30097",
"4X c #FF5B9D",
"5X c #FF6780",
"6X c #FF4DBD",
"7X c #FF6ABF",
"8X c #8200FF",
"9X c #A200FF",
"0X c #FF4AC7",
"qX c #FFB781",
"wX c #FFB4B4",
"eX c #FFC688",
"rX c #FFCA97",
"tX c #FFFC8E",
"yX c #FFC3A7",
"uX c #FFDCA9",
"iX c #FFB2FF",
"pX c #FFFFC7",
"aX c #FFFED3",
"sX c #FFC9EA",
"dX c #FFEAEA",
"fX c #FFFDEE",
"gX c #FFF2FF",
"hX c #FFFFF8",
"jX c #FFFFFF",
/* pixels */
"                                                                                                                                ",
"                                                                                                                                ",
"                                                                                                                                ",
"                                                                                                                                ",
"                                                                                                                                ",
"                                                                                                                                ",
"                                                                                                                                ",
"                                                                                                                                ",
"                                                                                                                                ",
"                                                                                                                                ",
"                                                                                                                                ",
"                                                                                                                                ",
"                                                                                                                                ",
"                                                                                                                                ",
"                                                                                                                                ",
"                                                                                                                                ",
"                                                                                                                                ",
"                                                                                                                                ",
"                                                                                                                                ",
"                                                                                                                                ",
"                                                                                                                                ",
"                                                                                                                                ",
"                                                                                                                                ",
"                                                                                                                                ",
"                                                                                                                                ",
"                                                                                                                                ",
"                                                                                                                                ",
"                                                                                                                                ",
"                                                                                                                                ",
"                                                                                                                                ",
"                                                                                                                                ",
"                                                                                                                                ",
"                                                                                                                                ",
"                                                                                                                                ",
"                                                                                                                                ",
"                                                                                            . . .                               ",
"                                                                                          . 2 2 M .                             ",
"                                                                              . . .     . 2 A jXpX/.. M                         ",
"                                                                            . a a a . . g . 3.M ^.C /.  M                       ",
"                                                                            . e r.e a jX8.p . S V M M M . o .                   ",
"                                                                          . d r.jX$.jXjXjXdX..!.!.N . . a a a .                 ",
"                                                                    . . ; . d a a . . jXd ..r.w i . . . ..Y.jX} .               ",
"                                                                  . [ [ . . &.a '.    &.q.R...H.U.W.W.@.. s } Y.. .             ",
"                                                                . X.w.Y.e . + W ;X  jX  &.. f 3X7XjXW.W.u : } Y.wX.             ",
"                                                              .  .y.Y.jXY.s H q +X*X  8XR . 7.' K.L.W.jX6XF.X.w.u.a             ",
"                                                              . e $.t.- * * H *X+XQ T 1XiX. . ` 9._ J.0XG.8.T.a.%.X             ",
"                                                              . r [ $ B.aXf.#   -X#X( ^ U =X. ' 4X9 L.I.P.. . . . . .           ",
"                                                              . . . c.eXjXeX-.# *X  jX  $X;X+ ' S.0 2X. . 9X&X. n.`.Z..         ",
"                                                            . . . . c.B.Z.B.% . . 4 5 >X;X6 $ = = 9 . |.:X  jXgXn.,.b.4..       ",
"                                                          .   OX{.5.< 5.5., ] a r s a - z.h F F ).. <XXXI E jX  &X6.>.jX.       ",
"                                                          . jXY /   jX4 qX& c s z } s.7.v.<.m jXjX| . ~ K Q %Xq &X. rX4.b       ",
"                                                          . P OX) sX  $XH * c D.} Y.jXi.<._.n hX-.x.l.. p . G J . . { j .       ",
"                                                          . ].  }.@X.X XO 8 p.u } Y.wXk.. jXjXjXE.-.M p dX... . . . . ,         ",
"                                                          . E }.~ ! oXO O 8 *.u 0.w.Y.w.| jXjXjXjXM . d ..r.. jX~.B . .         ",
"                                                          . ].7 [.K V.jXuXe.5XO.* X.o.d.yXjXjXjX#.+.p . R.. 3 n Q.n 3 n         ",
"                                                          . ,X].L 1.M.jXfXg.w.j.x i v.E.d.n.5._.<.p dX..* 3 m 3 3 3 tX3         ",
"                                                            . . > C.N.c.(.g.; a h.z.l.3 ,.n.:.2.m.d ..r.w . 3 jXZ v 3 .         ",
"                                                                O k aXA.=.-.; . a a O 4.l l l `.x.. R...#.+ . 1 1 . @           ",
"                                                                  O O y t t O . . O O qXhX5.l l O D + + +                       ",
"                                                                      O O O         O ;.4.C.;.M O                               ",
"                                                                                      O O . X O                                 ",
"                                                                                                                                ",
"                                                                                                                                ",
"                                                                                                                                "
};
