/* XPM */
static char *result[] = {
/* columns rows colors chars-per-pixel */
"64 64 180 2 ",
"   c #0A0000",
".  c #0C0000",
"X  c #0D0000",
"o  c #0E0100",
"O  c #0F0100",
"+  c #110000",
"@  c #120000",
"#  c #180000",
"$  c #1C0000",
"%  c #210000",
"&  c #220000",
"*  c #230000",
"=  c #250000",
"-  c #270000",
";  c #2A0000",
":  c #2C0000",
">  c #310000",
",  c #320000",
"<  c #330000",
"1  c #340000",
"2  c #370000",
"3  c #3B0000",
"4  c #3C0000",
"5  c #3E0000",
"6  c #410000",
"7  c #440000",
"8  c #470200",
"9  c #440500",
"0  c #490200",
"q  c #4B0300",
"w  c #500400",
"e  c #510800",
"r  c #520900",
"t  c #550B00",
"y  c #520D00",
"u  c #550C00",
"i  c #590A00",
"p  c #590C00",
"a  c #590D00",
"s  c #5A0C00",
"d  c #5A0E00",
"f  c #5A0F00",
"g  c #5C0C00",
"h  c #5D0F00",
"j  c #5E0E00",
"k  c #5E0F00",
"l  c #5A1000",
"z  c #5D1000",
"x  c #5E1100",
"c  c #621000",
"v  c #631100",
"b  c #631300",
"n  c #641300",
"m  c #621600",
"M  c #661500",
"N  c #661600",
"B  c #721D00",
"V  c #761F00",
"C  c #7A1F00",
"Z  c #452100",
"A  c #4B2200",
"S  c #4F2400",
"D  c #522900",
"F  c #572B00",
"G  c #702300",
"H  c #752300",
"J  c #762500",
"K  c #752600",
"L  c #7C2200",
"P  c #7B2600",
"I  c #613200",
"U  c #6A3D00",
"Y  c #7C4200",
"T  c #7B4900",
"R  c #900C00",
"E  c #831A00",
"W  c #852300",
"Q  c #812500",
"!  c #842500",
"~  c #862600",
"^  c #862700",
"/  c #892500",
"(  c #892B00",
")  c #8F2D00",
"_  c #902E00",
"`  c #853000",
"'  c #863100",
"]  c #8E3100",
"[  c #8E3700",
"{  c #903100",
"}  c #9C3200",
"|  c #A22400",
" . c #AB2200",
".. c #A02D00",
"X. c #A72C00",
"o. c #BB2B00",
"O. c #A63100",
"+. c #A83400",
"@. c #B23300",
"#. c #B93100",
"$. c #BE3100",
"%. c #BE3900",
"&. c #D41E00",
"*. c #DD2900",
"=. c #C43200",
"-. c #C93100",
";. c #CE3400",
":. c #D23500",
">. c #D93700",
",. c #D73D00",
"<. c #E83600",
"1. c #E73B00",
"2. c #E93900",
"3. c #EB3C00",
"4. c #F43D00",
"5. c #FC3B00",
"6. c #FC3E00",
"7. c #864000",
"8. c #974600",
"9. c #994000",
"0. c #9B4100",
"q. c #9A4200",
"w. c #A84E00",
"e. c #B34300",
"r. c #BE4500",
"t. c #A85000",
"y. c #B55C00",
"u. c #BA6000",
"i. c #DA4400",
"p. c #E14700",
"a. c #FF4006",
"s. c #FF4800",
"d. c #FF4609",
"f. c #C66C00",
"g. c #D57500",
"h. c #D97600",
"j. c #E26500",
"k. c #E97000",
"l. c #FB7B00",
"z. c #FF7C00",
"x. c #FF5820",
"c. c #FF5E25",
"v. c #FF642B",
"b. c #FF7037",
"n. c #FF723B",
"m. c #D98000",
"M. c #FFAD16",
"N. c #FFBB18",
"B. c #FF9C29",
"V. c #FFC218",
"C. c #FFC222",
"Z. c #FFCE33",
"A. c #FF8047",
"S. c #FF814D",
"D. c #FF8B58",
"F. c #FF8E5A",
"G. c #FF8F5B",
"H. c #FF925F",
"J. c #FF935F",
"K. c #FF9765",
"L. c #FF9867",
"P. c #FF9967",
"I. c #FFB07E",
"U. c #FFDA44",
"Y. c #FFE04E",
"T. c #FFE95C",
"R. c #FFE960",
"E. c #FFED68",
"W. c #FFED69",
"Q. c #FFF06E",
"!. c #FFF070",
"~. c #FFF577",
"^. c #FFF67A",
"/. c #FFF67C",
"(. c #FFF67E",
"). c #FFAB83",
"_. c #FFF680",
"`. c #FFC3A7",
"'. c white",
"]. c None",
/* pixels */
"].].].].].].].].].].].].].].].].].].].].].].].].].].].].].].].].].].].].].].].].].].].].].].].].].].].].].].].].].].].].].].].].",
"].].].].].].].].].].].].].].].].].].].].].].].].].].].].].].].].].].].].].].].].].].].].].].].].].].].].].].].].].].].].].].].].",
"].].].].].].].].].].].].].].].].].].].].].].].].].].].].].].].].].].].].].].].].].].].0.].].].].].].].].].].].].].].].].].].].].",
"].].].].].].].].].].].].].].].].].].].].].].].].].].].].].].].].].].].].].].].].      p...].].].].].].].].].].].].].].].].].].].",
"].].].].].].].].].].].].].].].].].].].].].].].].].].].].].].].].].].].].].].    L k.'.| L.].]./ r.7.  ].].].].].].].].].].].].].",
"].].].].].].].].].].].].].].].].].].].].].].].].].].].].].].].].].].].].].  5 k.(.r w <.'.'.'.A.) _.%.  ].].].].].].].].].].].].",
"].].].].].].].].].].].].].].].].].].].].].].].].].].].].].].].].].].].].].  t ! P.1.$ R '.'.'.4 '.'.,.    ].].].].].].].].].].].",
"].].].].].].].].].].].].].].].].].].].].].].].].].].].].].].].].].].].].].  .   + '.*.`.'.'.'.i 5.'.'.v %.  ].].].].].].].].].].",
"].].].].].].].].].].].].].].].].].].].].].].].].].].].].].].].].].].].].].  0 :   i.n.&.  '.). .S Z.v.V k         ].].].].].].].",
"].].].].].].].].].].].].].].].].].].].].].].].].].].].].].].].].].].].].  V k.'.8.` B   w.b.o.s.    5     k.'.'.~   ].].].].].].",
"].].].].].].].].].].].].].].].].].].].].].].].].].].].].].].].].].].].'.  #.a.W.    '.  9.  m e./.D.    I $.Q b _._.  ].].].].].",
"].].].].].].].].].].].].].].].].].].].].].].].].].].].].].].].].].].'.'.'.~.s d = C !.E.    J '.Y { 4.    # , :.J.2.  ].].].].].",
"].].].].].].].].].].].].].].].].].].].].].].].].].].].].].].].].].  %.'.z '.  H   F k.  x # T '.P.P.%.F.      '.1 e   ].].].].].",
"].].].].].].].].].].].].].].].].].].].].].].].].].].].].].].].].].  M       C.      D   * 2 X.U R.^.  _.  &   W   k   ].].].].].",
"].].].].].].].].].].].].].].].].].].].].].].].].].].].].].].].].].            _ ~.K.        2 A Z a } I.f.  P   K '.O.  ].].].].",
"].].].].].].].].].].].].].].].].].].].].].].].].].].].].].].].].    b     N * K.'.P.%.  6   % % 1     j q.  '.    T.6.  ].].].].",
"].].].].].].].].].].].].].].].].].].].].].].].].].].].].].].].  %.M   G   < 7 >.Y.~.  3.  - ,   k.=.G.    M.~.S.k g _._.  ].].].",
"].].].].].].].].].].].].].].].].].].].].].].].].].].].].].].].  6.M           M l.u y h     9 h.'.(._.c.8   '.'.  @.'.,.  ].].].",
"].].].].].].].].].].].].].].].].].].].].].].].].].].].].].].].  y.M   ' '.(   '.  j.3       '.1 '.'.'.{     E x   m.O X   ].].].",
"].].].].].].].].].].].].].].].].].].].].].].].].].].].].].].].].  M     Q.p 6.m.      l U.-.  '.'.'.  B./.* - 1   ' o   ].].].].",
"].].].].].].].].].].].].].].].].].].].].].].].].].].].].].].].].].    { c n @   n   ; '.H.x.f @ '.  ^ q ;.  g.u.    ].].].].].].",
"].].].].].].].].].].].].].].].].].].].].].].].].].].].].].].].].].].].        t.V.> e d._.^.      [ N.;         ].].].].].].].].",
"].].].].].].].].].].].].].].].].].].].].].].].].].].].].].].].].].].].].].            3 z.] +.          ].].].].].].].].].].].].",
"].].].].].].].].].].].].].].].].].].].].].].].].].].].].].].].].].].].].].].].].].].          ].].].].].].].].].].].].].].].].].",
"].].].].].].].].].].].].].].].].].].].].].].].].].].].].].].].].].].].].].].].].].].].].].].].].].].].].].].].].].].].].].].].].",
"].].].].].].].].].].].].].].].].].].].].].].].].].].].].].].].].].].].].].].].].].].].].].].].].].].].].].].].].].].].].].].].].",
"].].].].].].].].].].].].].].].].].].].].].].].].].].].].].].].].].].].].].].].].].].].].].].].].].].].].].].].].].].].].].].].].",
"].].].].].].].].].].].].].].].].].].].].].].].].].].].].].].].].].].].].].].].].].].].].].].].].].].].].].].].].].].].].].].].].",
"].].].].].].].].].].].].].].].].].].].].].].].].].].].].].].].].].].].].].].].].].].].].].].].].].].].].].].].].].].].].].].].].",
"].].].].].].].].].].].].].].].].].].].].].].].].].].].].].].].].].].].].].].].].].].].].].].].].].].].].].].].].].].].].].].].].",
"].].].].].].].].].].].].].].].].].].].].].].].].].].].].].].].].].].].].].].].].].].].].].].].].].].].].].].].].].].].].].].].].",
"].].].].].].].].].].].].].].].].].].].].].].].].].].].].].].].].].].].].].].].].].].].].].].].].].].].].].].].].].].].].].].].].",
"].].].].].].].].].].].].].].].].].].].].].].].].].].].].].].].].].].].].].].].].].].].].].].].].].].].].].].].].].].].].].].].].",
"].].].].].].].].].].].].].].].].].].].].].].].].].].].].].].].].].].].].].].].].].].].].].].].].].].].].].].].].].].].].].].].].",
"].].].].].].].].].].].].].].].].].].].].].].].].].].].].].].].].].].].].].].].].].].].].].].].].].].].].].].].].].].].].].].].].",
"].].].].].].].].].].].].].].].].].].].].].].].].].].].].].].].].].].].].].].].].].].].].].].].].].].].].].].].].].].].].].].].].",
"].].].].].].].].].].].].].].].].].].].].].].].].].].].].].].].].].].].].].].].].].].].].].].].].].].].].].].].].].].].].].].].].",
"].].].].].].].].].].].].].].].].].].].].].].].].].].].].].].].].].].].].].].].].].].].].].].].].].].].].].].].].].].].].].].].].",
"].].].].].].].].].].].].].].].].].].].].].].].].].].].].].].].].].].].].].].].].].].].].].].].].].].].].].].].].].].].].].].].].",
"].].].].].].].].].].].].].].].].].].].].].].].].].].].].].].].].].].].].].].].].].].].].].].].].].].].].].].].].].].].].].].].].",
"].].].].].].].].].].].].].].].].].].].].].].].].].].].].].].].].].].].].].].].].].].].].].].].].].].].].].].].].].].].].].].].].",
"].].].].].].].].].].].].].].].].].].].].].].].].].].].].].].].].].].].].].].].].].].].].].].].].].].].].].].].].].].].].].].].].",
"].].].].].].].].].].].].].].].].].].].].].].].].].].].].].].].].].].].].].].].].].].].].].].].].].].].].].].].].].].].].].].].].",
"].].].].].].].].].].].].].].].].].].].].].].].].].].].].].].].].].].].].].].].].].].].].].].].].].].].].].].].].].].].].].].].].",
"].].].].].].].].].].].].].].].].].].].].].].].].].].].].].].].].].].].].].].].].].].].].].].].].].].].].].].].].].].].].].].].].",
"].].].].].].].].].].].].].].].].].].].].].].].].].].].].].].].].].].].].].].].].].].].].].].].].].].].].].].].].].].].].].].].].",
"].].].].].].].].].].].].].].].].].].].].].].].].].].].].].].].].].].].].].].].].].].].].].].].].].].].].].].].].].].].].].].].].",
"].].].].].].].].].].].].].].].].].].].].].].].].].].].].].].].].].].].].].].].].].].].].].].].].].].].].].].].].].].].].].].].].",
"].].].].].].].].].].].].].].].].].].].].].].].].].].].].].].].].].].].].].].].].].].].].].].].].].].].].].].].].].].].].].].].].",
"].].].].].].].].].].].].].].].].].].].].].].].].].].].].].].].].].].].].].].].].].].].].].].].].].].].].].].].].].].].].].].].].",
"].].].].].].].].].].].].].].].].].].].].].].].].].].].].].].].].].].].].].].].].].].].].].].].].].].].].].].].].].].].].].].].].",
"].].].].].].].].].].].].].].].].].].].].].].].].].].].].].].].].].].].].].].].].].].].].].].].].].].].].].].].].].].].].].].].].",
"].].].].].].].].].].].].].].].].].].].].].].].].].].].].].].].].].].].].].].].].].].].].].].].].].].].].].].].].].].].].].].].].",
"].].].].].].].].].].].].].].].].].].].].].].].].].].].].].].].].].].].].].].].].].].].].].].].].].].].].].].].].].].].].].].].].",
"].].].].].].].].].].].].].].].].].].].].].].].].].].].].].].].].].].].].].].].].].].].].].].].].].].].].].].].].].].].].].].].].",
"].].].].].].].].].].].].].].].].].].].].].].].].].].].].].].].].].].].].].].].].].].].].].].].].].].].].].].].].].].].].].].].].",
"].].].].].].].].].].].].].].].].].].].].].].].].].].].].].].].].].].].].].].].].].].].].].].].].].].].].].].].].].].].].].].].].",
"].].].].].].].].].].].].].].].].].].].].].].].].].].].].].].].].].].].].].].].].].].].].].].].].].].].].].].].].].].].].].].].].",
"].].].].].].].].].].].].].].].].].].].].].].].].].].].].].].].].].].].].].].].].].].].].].].].].].].].].].].].].].].].].].].].].",
"].].].].].].].].].].].].].].].].].].].].].].].].].].].].].].].].].].].].].].].].].].].].].].].].].].].].].].].].].].].].].].].].",
"].].].].].].].].].].].].].].].].].].].].].].].].].].].].].].].].].].].].].].].].].].].].].].].].].].].].].].].].].].].].].].].].",
"].].].].].].].].].].].].].].].].].].].].].].].].].].].].].].].].].].].].].].].].].].].].].].].].].].].].].].].].].].].].].].].].",
"].].].].].].].].].].].].].].].].].].].].].].].].].].].].].].].].].].].].].].].].].].].].].].].].].].].].].].].].].].].].].].].].",
"].].].].].].].].].].].].].].].].].].].].].].].].].].].].].].].].].].].].].].].].].].].].].].].].].].].].].].].].].].].].].].].]."
};
