/* XPM */
static char *gold_2[] = {
/* columns rows colors chars-per-pixel */
"64 64 166 2 ",
"   c None",
".  c #0A0000",
"X  c #0C0000",
"o  c #0D0000",
"O  c #0E0100",
"+  c #0F0100",
"@  c #110000",
"#  c #120000",
"$  c #180000",
"%  c #1C0000",
"&  c #210000",
"*  c #220000",
"=  c #230000",
"-  c #250000",
";  c #270000",
":  c #2A0000",
">  c #2C0000",
",  c #2F0000",
"<  c #310000",
"1  c #320000",
"2  c #330000",
"3  c #340000",
"4  c #370000",
"5  c #3B0000",
"6  c #3C0000",
"7  c #3E0000",
"8  c #3F0000",
"9  c #3B1400",
"0  c #410000",
"q  c #440000",
"w  c #470200",
"e  c #440500",
"r  c #490200",
"t  c #4B0300",
"y  c #490500",
"u  c #500400",
"i  c #510800",
"p  c #520900",
"a  c #550B00",
"s  c #520D00",
"d  c #550C00",
"f  c #590A00",
"g  c #590C00",
"h  c #590D00",
"j  c #5A0C00",
"k  c #5A0E00",
"l  c #5A0F00",
"z  c #5C0C00",
"x  c #5D0F00",
"c  c #5E0E00",
"v  c #5E0F00",
"b  c #5A1000",
"n  c #5D1000",
"m  c #5E1100",
"M  c #621000",
"N  c #631100",
"B  c #631300",
"V  c #641300",
"C  c #621600",
"Z  c #661500",
"A  c #661600",
"S  c #681900",
"D  c #721D00",
"F  c #761F00",
"G  c #7A1F00",
"H  c #452100",
"J  c #4B2200",
"K  c #4F2400",
"L  c #522900",
"P  c #572B00",
"I  c #702300",
"U  c #752300",
"Y  c #762500",
"T  c #752600",
"R  c #7C2200",
"E  c #7B2600",
"W  c #613200",
"Q  c #6A3D00",
"!  c #7B4900",
"~  c #831A00",
"^  c #852300",
"/  c #812500",
"(  c #842500",
")  c #862600",
"_  c #862700",
"`  c #892B00",
"'  c #902E00",
"]  c #863100",
"[  c #8E3100",
"{  c #8E3700",
"}  c #903100",
"|  c #9C3200",
" . c #A72C00",
".. c #A63100",
"X. c #AC3000",
"o. c #A83400",
"O. c #B23300",
"+. c #B73000",
"@. c #B03700",
"#. c #B93100",
"$. c #BE3100",
"%. c #BE3900",
"&. c #C43200",
"*. c #C93100",
"=. c #CE3400",
"-. c #D23500",
";. c #D93700",
":. c #D73D00",
">. c #E83600",
",. c #E73B00",
"<. c #E93900",
"1. c #EB3C00",
"2. c #F43D00",
"3. c #FC3B00",
"4. c #FC3E00",
"5. c #994000",
"6. c #9A4200",
"7. c #A84E00",
"8. c #A85000",
"9. c #B55C00",
"0. c #BA6000",
"q. c #B96600",
"w. c #FF4006",
"e. c #FF4609",
"r. c #FF4C12",
"t. c #C66C00",
"y. c #D57500",
"u. c #D97600",
"i. c #E26500",
"p. c #E97000",
"a. c #FB7B00",
"s. c #FF7C00",
"d. c #FF5820",
"f. c #FF5A21",
"g. c #FF5E25",
"h. c #FF642B",
"j. c #FF7037",
"k. c #D98000",
"l. c #FFAD16",
"z. c #FFBB18",
"x. c #FF9C29",
"c. c #FFC218",
"v. c #FFC222",
"b. c #FFCE33",
"n. c #FF8B58",
"m. c #FF8E5A",
"M. c #FF8F5B",
"N. c #FF925F",
"B. c #FF935F",
"V. c #FF9765",
"C. c #FF9967",
"Z. c #FFB07E",
"A. c #FFDA44",
"S. c #FFE04E",
"D. c #FFE95C",
"F. c #FFE960",
"G. c #FFED68",
"H. c #FFED69",
"J. c #FFF06E",
"K. c #FFF070",
"L. c #FFF577",
"P. c #FFF67A",
"I. c #FFF67C",
"U. c #FFF67E",
"Y. c #FFF680",
"T. c white",
/* pixels */
"                                                                                                                                ",
"                                                                                                                                ",
"                                                                                                                                ",
"                                                                                . . . .                                         ",
"                                                                            . . R p.T.Y..     . . . .                           ",
"                                                                          . 7 p.U.p u >.Y.. . r.P.Y.%..                         ",
"                                                                          . a ( C.,.% S @.. B 6 T.T.:.. .                       ",
"                                                                          . X . @ T.. . . f., f 3.T.T.N %..                     ",
"                                                                          . r > . +.8 8 . T.. 9 K b.h.F v . . . .               ",
"                                                                        . F p.T.y . D . 7.j.. . . . 7 . . p.T.T.) .             ",
"                                                                      . . #.w.H.. . T.. 5.. C p.I.n.. . W $./ B Y.Y..           ",
"                                                                    . . q.L.j k - G K.G.. . Y T.T.} 2.. . $ 1 -.B.<..           ",
"                                                                  . %.. n T.. U . P p.. m $ ! T.C.C.%.m.. . . T.3 i .           ",
"                                                                  . Z . . . v.. . . L . = 4  .Q F.P.. Y.. * . ^ . v .           ",
"                                                                  . . . . . . ' L.V.. . . . 4 J H h | Z.t.. E . T T....         ",
"                                                                . . B . . A = V.T.C.%.. 0 . & & 3 . . c 6.. T.. . D.4..         ",
"                                                              . %.Z . I . 2 q ;.S.L.. 1.. ; 1 . p.&.M.. . l.L.T.v z Y.Y..       ",
"                                                              . 4.Z . . . . . Z a.d s x . . e u.T.U.Y.g.w . T.T.T.O.T.:..       ",
"                                                              . 9.Z . ] T.` . T.. i.5 . . . T.3 . T.T.} . . ~ T.. k.+ o .       ",
"                                                                . Z . . J.g 4.k.. . . b A.*.. . X.k.. x.I.= ; 3 . ] O .         ",
"                                                                  . . } M V # . V . : T.N.d.l # . . _ t =.. y.0.. .             ",
"                                                                      . . . . 8.c.< i e.Y.P.. . . { z.: . . . .                 ",
"                                                                          . . . . . . 5 s.[ o.. . . . .                         ",
"                                                                                    . . . . .                                   ",
"                                                                                                                                ",
"                                                                                                                                ",
"                                                                                                                                ",
"                                                                                                                                ",
"                                                                                                                                ",
"                                                                                                                                ",
"                                                                                                                                ",
"                                                                                                                                ",
"                                                                                                                                ",
"                                                                                                                                ",
"                                                                                                                                ",
"                                                                                                                                ",
"                                                                                                                                ",
"                                                                                                                                ",
"                                                                                                                                ",
"                                                                                                                                ",
"                                                                                                                                ",
"                                                                                                                                ",
"                                                                                                                                ",
"                                                                                                                                ",
"                                                                                                                                ",
"                                                                                                                                ",
"                                                                                                                                ",
"                                                                                                                                ",
"                                                                                                                                ",
"                                                                                                                                ",
"                                                                                                                                ",
"                                                                                                                                ",
"                                                                                                                                ",
"                                                                                                                                ",
"                                                                                                                                ",
"                                                                                                                                ",
"                                                                                                                                ",
"                                                                                                                                ",
"                                                                                                                                ",
"                                                                                                                                ",
"                                                                                                                                ",
"                                                                                                                                ",
"                                                                                                                                ",
"                                                                                                                                "
};
