/* XPM */
static char *gold_8[] = {
/* columns rows colors chars-per-pixel */
"64 64 179 2 ",
"   c black",
".  c None",
"X  c #0C0000",
"o  c #0D0000",
"O  c #110000",
"+  c #120000",
"@  c #180000",
"#  c #1C0000",
"$  c #210000",
"%  c #220000",
"&  c #230000",
"*  c #250000",
"=  c #270000",
"-  c #2A0000",
";  c #2C0000",
":  c #2F0000",
">  c #310000",
",  c #320000",
"<  c #330000",
"1  c #340000",
"2  c #370000",
"3  c #3B0000",
"4  c #3C0000",
"5  c #3E0000",
"6  c #3F0000",
"7  c #3B1400",
"8  c #410000",
"9  c #440000",
"0  c #470200",
"q  c #440500",
"w  c #490200",
"e  c #4B0300",
"r  c #490500",
"t  c #500400",
"y  c #510800",
"u  c #520900",
"i  c #550B00",
"p  c #520D00",
"a  c #550C00",
"s  c #590A00",
"d  c #590C00",
"f  c #590D00",
"g  c #5A0C00",
"h  c #5A0E00",
"j  c #5A0F00",
"k  c #5C0C00",
"l  c #5D0F00",
"z  c #5E0F00",
"x  c #5A1000",
"c  c #5D1000",
"v  c #5E1100",
"b  c #621000",
"n  c #631100",
"m  c #631300",
"M  c #641300",
"N  c #621600",
"B  c #661500",
"V  c #661600",
"C  c #681900",
"Z  c #721D00",
"A  c #761F00",
"S  c #7A1F00",
"D  c #452100",
"F  c #4B2200",
"G  c #4F2400",
"H  c #522900",
"J  c #572B00",
"K  c #702300",
"L  c #752300",
"P  c #762500",
"I  c #7C2200",
"U  c #7B2600",
"Y  c #613200",
"T  c #6A3D00",
"R  c #7C4200",
"E  c #7B4900",
"W  c #900C00",
"Q  c #852300",
"!  c #812500",
"~  c #842500",
"^  c #862600",
"/  c #862700",
"(  c #892500",
")  c #892B00",
"_  c #8F2D00",
"`  c #902E00",
"'  c #853000",
"]  c #863100",
"[  c #8E3100",
"{  c #8E3700",
"}  c #903100",
"|  c #9C3200",
" . c #A22400",
".. c #AB2200",
"X. c #A02D00",
"o. c #A72C00",
"O. c #BB2B00",
"+. c #A63100",
"@. c #A83400",
"#. c #B73000",
"$. c #B03700",
"%. c #B93100",
"&. c #BE3100",
"*. c #BE3900",
"=. c #D41E00",
"-. c #DD2900",
";. c #C43200",
":. c #C93100",
">. c #CE3400",
",. c #D23500",
"<. c #D93700",
"1. c #D73D00",
"2. c #E83600",
"3. c #E73B00",
"4. c #E93900",
"5. c #EB3C00",
"6. c #F43D00",
"7. c #FC3B00",
"8. c #FC3E00",
"9. c #864000",
"0. c #974600",
"q. c #994000",
"w. c #9B4100",
"e. c #A84E00",
"r. c #B34300",
"t. c #BE4500",
"y. c #A85000",
"u. c #B55C00",
"i. c #BA6000",
"p. c #B96600",
"a. c #DA4400",
"s. c #E14700",
"d. c #FF4006",
"f. c #FF4800",
"g. c #FF4609",
"h. c #FF4C12",
"j. c #C66C00",
"k. c #D97600",
"l. c #E26500",
"z. c #E97000",
"x. c #FB7B00",
"c. c #FF7C00",
"v. c #FF5820",
"b. c #FF5A21",
"n. c #FF5E25",
"m. c #FF642B",
"M. c #FF7037",
"N. c #FF723B",
"B. c #D98000",
"V. c #FFBB18",
"C. c #FF9C29",
"Z. c #FFC218",
"A. c #FFC222",
"S. c #FFCE33",
"D. c #FF8047",
"F. c #FF8B58",
"G. c #FF8E5A",
"H. c #FF8F5B",
"J. c #FF925F",
"K. c #FF935F",
"L. c #FF9765",
"P. c #FF9867",
"I. c #FF9967",
"U. c #FFB07E",
"Y. c #FFDA44",
"T. c #FFE04E",
"R. c #FFE960",
"E. c #FFED68",
"W. c #FFED69",
"Q. c #FFF06E",
"!. c #FFF070",
"~. c #FFF577",
"^. c #FFF67A",
"/. c #FFF67C",
"(. c #FFF67E",
"). c #FFAB83",
"_. c #FFF680",
"`. c #FFC3A7",
"'. c white",
/* pixels */
"                                                                                                                                ",
"                                                                                                                                ",
"                                                                                                                                ",
"                                                                                . . . .                                         ",
"                                                                            . . I z.'._..     . . . .                           ",
"                                                                          . 5 z.(.u t 2._.. . h.^._.*..                         ",
"                                                                          . i ~ I.3.# C $.. m 4 '.'.1.. .                       ",
"                                                                          . X . O '.. . . b.: s 7.'.'.n *..                     ",
"                                                                          . w ; . #.6 6 . '.. 7 G S.m.A z . . . .               ",
"                                                                        . A z.'.r . Z . e.M.. . . . 5 . . z.'.'.^ .             ",
"                                                                      . . %.d.W.. . '.. q.. N z./.F.. . Y &.! m _._..           ",
"                                                                    . . p.~.g h * S !.E.. . P '.'.} 6.. . @ , ,.K.4..           ",
"                                                                  . *.. c '.. L . J z.. v @ E '.I.I.*.G.. . . '.1 y .           ",
"                                                                  . B . . . A.. . . H . & 2 o.T R.^.. _.. % . Q . w..           ",
"                                                                  . . . . . . ` ~.L.. . . . 2 F D f | U.j.. U . X.s.+..         ",
"                                                                . . m . . V & L.'.I.*.. 8 . $ $ 1 . . 9.t.( '.. P. .8..         ",
"                                                              . *.B . K . < 9 <.T.~.. 5.. = , . z.;.H.. _ D.'.'.'.k _._..       ",
"                                                              . 8.B . . . . . B x.a p l . . q k.'.(._.n.0 . '.'.'.W '.1..       ",
"                                                              . u.B . ] '.) . '.. l.3 . . . '.1 '.'.'.} . . '.'.'.`.-.o .       ",
"                                                                . B . . Q.d 8.B.. . . x Y.:.. '.'.'.. C./...).1 . =.N.a.        ",
"                                                                  . . } b M + . M . - '.J.v.j + '.. / e >.f.O.i.. .   ' 0.      ",
"                                                                      . . . . y.Z.> y g._.^.. . . { V.- . r.. .                 ",
"                                                                          . . . . . . 3 c.[ @.. . . . . R                       ",
"                                                                                    . . . . .                                   ",
"                                                                                                                                ",
"                                                                                                                                ",
"                                                                                                                                ",
"                                                                                                                                ",
"                                                                                                                                ",
"                                                                                                                                ",
"                                                                                                                                ",
"                                                                                                                                ",
"                                                                                                                                ",
"                                                                                                                                ",
"                                                                                                                                ",
"                                                                                                                                ",
"                                                                                                                                ",
"                                                                                                                                ",
"                                                                                                                                ",
"                                                                                                                                ",
"                                                                                                                                ",
"                                                                                                                                ",
"                                                                                                                                ",
"                                                                                                                                ",
"                                                                                                                                ",
"                                                                                                                                ",
"                                                                                                                                ",
"                                                                                                                                ",
"                                                                                                                                ",
"                                                                                                                                ",
"                                                                                                                                ",
"                                                                                                                                ",
"                                                                                                                                ",
"                                                                                                                                ",
"                                                                                                                                ",
"                                                                                                                                ",
"                                                                                                                                ",
"                                                                                                                                ",
"                                                                                                                                ",
"                                                                                                                                ",
"                                                                                                                                ",
"                                                                                                                                ",
"                                                                                                                                ",
"                                                                                                                                "
};
