/* XPM */
static char *gold_4[] = {
/* columns rows colors chars-per-pixel */
"64 64 178 2 ",
"   c black",
".  c None",
"X  c #0C0000",
"o  c #0D0000",
"O  c #0E0100",
"+  c #0F0100",
"@  c #110000",
"#  c #120000",
"$  c #180000",
"%  c #1C0000",
"&  c #210000",
"*  c #220000",
"=  c #230000",
"-  c #250000",
";  c #270000",
":  c #2A0000",
">  c #2C0000",
",  c #2F0000",
"<  c #310000",
"1  c #320000",
"2  c #330000",
"3  c #340000",
"4  c #370000",
"5  c #3B0000",
"6  c #3C0000",
"7  c #3E0000",
"8  c #3F0000",
"9  c #3B1400",
"0  c #410000",
"q  c #440000",
"w  c #490200",
"e  c #4B0300",
"r  c #490500",
"t  c #500400",
"y  c #510800",
"u  c #520900",
"i  c #550B00",
"p  c #520D00",
"a  c #550C00",
"s  c #590A00",
"d  c #590C00",
"f  c #590D00",
"g  c #5A0C00",
"h  c #5A0E00",
"j  c #5C0C00",
"k  c #5D0F00",
"l  c #5E0E00",
"z  c #5E0F00",
"x  c #5A1000",
"c  c #5D1000",
"v  c #5E1100",
"b  c #621000",
"n  c #631100",
"m  c #631300",
"M  c #641300",
"N  c #621600",
"B  c #661500",
"V  c #661600",
"C  c #681900",
"Z  c #721D00",
"A  c #761F00",
"S  c #7A1F00",
"D  c #452100",
"F  c #4B2200",
"G  c #4F2400",
"H  c #522900",
"J  c #572B00",
"K  c #702300",
"L  c #752300",
"P  c #762500",
"I  c #752600",
"U  c #7C2200",
"Y  c #7B2600",
"T  c #613200",
"R  c #6A3D00",
"E  c #7B4900",
"W  c #900C00",
"Q  c #831A00",
"!  c #852300",
"~  c #812500",
"^  c #842500",
"/  c #862600",
"(  c #862700",
")  c #892500",
"_  c #892B00",
"`  c #8F2D00",
"'  c #902E00",
"]  c #853000",
"[  c #863100",
"{  c #8E3100",
"}  c #903100",
"|  c #9C3200",
" . c #A22400",
".. c #AB2200",
"X. c #A02D00",
"o. c #A72C00",
"O. c #BB2B00",
"+. c #A63100",
"@. c #A83400",
"#. c #B23300",
"$. c #B73000",
"%. c #B93100",
"&. c #BE3100",
"*. c #BE3900",
"=. c #D41E00",
"-. c #DD2900",
";. c #C43200",
":. c #C93100",
">. c #CE3400",
",. c #D23500",
"<. c #D93700",
"1. c #D73D00",
"2. c #E83600",
"3. c #E73B00",
"4. c #E93900",
"5. c #EB3C00",
"6. c #F43D00",
"7. c #FC3B00",
"8. c #FC3E00",
"9. c #864000",
"0. c #974600",
"q. c #994000",
"w. c #9B4100",
"e. c #9A4200",
"r. c #A84E00",
"t. c #B34300",
"y. c #BE4500",
"u. c #A85000",
"i. c #B55C00",
"p. c #BA6000",
"a. c #B96600",
"s. c #DA4400",
"d. c #E14700",
"f. c #FF4006",
"g. c #FF4800",
"h. c #FF4609",
"j. c #FF4C12",
"k. c #C66C00",
"l. c #D57500",
"z. c #E26500",
"x. c #E97000",
"c. c #FB7B00",
"v. c #FF642B",
"b. c #FF7037",
"n. c #FF723B",
"m. c #D98000",
"M. c #FFAD16",
"N. c #FF9C29",
"B. c #FFC218",
"V. c #FFC222",
"C. c #FFCE33",
"Z. c #FF8047",
"A. c #FF814D",
"S. c #FF8B58",
"D. c #FF8E5A",
"F. c #FF8F5B",
"G. c #FF925F",
"H. c #FF935F",
"J. c #FF9765",
"K. c #FF9867",
"L. c #FF9967",
"P. c #FFB07E",
"I. c #FFDA44",
"U. c #FFE04E",
"Y. c #FFE95C",
"T. c #FFE960",
"R. c #FFED68",
"E. c #FFED69",
"W. c #FFF06E",
"Q. c #FFF070",
"!. c #FFF577",
"~. c #FFF67A",
"^. c #FFF67C",
"/. c #FFF67E",
"(. c #FFAB83",
"). c #FFF680",
"_. c #FFC3A7",
"`. c white",
/* pixels */
"                                                                                                                                ",
"                                                                                                                                ",
"                                                                                                                                ",
"                                                                                . . . .                                         ",
"                                                                            . . U x.`.)..     . . . .                           ",
"                                                                          . 7 x./.u t 2.).`.. j.~.).*..                         ",
"                                                                          . i ^ L.3.% C `.`.`.6 `.`.1.. .                       ",
"                                                                          . X . @ `.. . . `., s 7.`.`.n *..                     ",
"                                                                          . w > . $.8 8 . `.. 9 G C.v.A z . . . .               ",
"                                                                        . A x.`.r . Z . r.b.. . . . 7 . . x.`.`./ .             ",
"                                                                      . . %.f.E.. . `.. q.. N x.^.S.. . T &.~ m ).)..           ",
"                                                                    . . a.!.g h - S Q.R.. . P `.`.} 6.. . $ 1 ,.H.4..           ",
"                                                                  . *.. c `.. L . J x.. v $ E `.L.L.*.D.. . . `.3 y .           ",
"                                                                  . B . . . V.. . . H . = 4 o.R T.~.. ).. * . ! . z .           ",
"                                                                  . . . . . . ' !.J.. . . . 4 F D f | P.k.. Y . I `.+..         ",
"                                                                . . m . . V = J.`.L.*.. 0 . w.& 3 . . l e.. `.. . Y.8..         ",
"                                                              . *.B . K . 2 q <.U.!.. 5.. ; d.X.x.;.F.. . M.!.A.z j ).)..       ",
"                                                              . 8.B . . . . . B c.a p k . .  .K.`./.) y.9.. `.`.. #.`.1..       ",
"                                                              . i.B . [ `._ . `.. z.5 . . . `.`.`.`.Z.` . . Q v . m.+ o .       ",
"                                                                . B . . W.d 8.m.. . . x I.:.W `.`.`.. N.^.= ; 3 . [ O .         ",
"                                                                  . . } b M # . M . : `.G.-._.`.`.`.( e >.. l.p.. .             ",
"                                                                      . . . . u.B.< y h.s.n.=.. . (...: . . . .                 ",
"                                                                          . . . . . . 0.] { @.. . O.g..                         ",
"                                                                                    . . . . .       t.                          ",
"                                                                                                                                ",
"                                                                                                                                ",
"                                                                                                                                ",
"                                                                                                                                ",
"                                                                                                                                ",
"                                                                                                                                ",
"                                                                                                                                ",
"                                                                                                                                ",
"                                                                                                                                ",
"                                                                                                                                ",
"                                                                                                                                ",
"                                                                                                                                ",
"                                                                                                                                ",
"                                                                                                                                ",
"                                                                                                                                ",
"                                                                                                                                ",
"                                                                                                                                ",
"                                                                                                                                ",
"                                                                                                                                ",
"                                                                                                                                ",
"                                                                                                                                ",
"                                                                                                                                ",
"                                                                                                                                ",
"                                                                                                                                ",
"                                                                                                                                ",
"                                                                                                                                ",
"                                                                                                                                ",
"                                                                                                                                ",
"                                                                                                                                ",
"                                                                                                                                ",
"                                                                                                                                ",
"                                                                                                                                ",
"                                                                                                                                ",
"                                                                                                                                ",
"                                                                                                                                ",
"                                                                                                                                ",
"                                                                                                                                ",
"                                                                                                                                ",
"                                                                                                                                ",
"                                                                                                                                "
};
