/* XPM */
static char *result[] = {
/* columns rows colors chars-per-pixel */
"60 60 98 2 ",
"   c #3E3127",
".  c #3B3028",
"X  c #443525",
"o  c #493326",
"O  c #4D3B26",
"+  c #473B2B",
"@  c #4C3C2A",
"#  c #553F26",
"$  c #533C2A",
"%  c #5B3E2C",
"&  c #4C3D31",
"*  c #5E3F32",
"=  c #4F422A",
"-  c #534227",
";  c #5A4127",
":  c #54422C",
">  c #5C452C",
",  c #57482F",
"<  c #5D492D",
"1  c #564432",
"2  c #5B4532",
"3  c #574931",
"4  c #5D4A32",
"5  c #604427",
"6  c #62462D",
"7  c #68472D",
"8  c #644A2D",
"9  c #6B4D2E",
"0  c #70472D",
"q  c #724E2E",
"w  c #66502E",
"e  c #6D512E",
"r  c #73532E",
"t  c #7A542E",
"y  c #7C592F",
"u  c #624532",
"i  c #644C32",
"p  c #6B4D32",
"a  c #644D39",
"s  c #694F39",
"d  c #714E32",
"f  c #794F34",
"g  c #724F38",
"h  c #655234",
"j  c #6D5233",
"k  c #6E5833",
"l  c #65513A",
"z  c #6C543A",
"x  c #6E593D",
"c  c #735433",
"v  c #7A5533",
"b  c #755934",
"n  c #7C5A34",
"m  c #74553A",
"M  c #7A5639",
"N  c #735B3B",
"B  c #7C5B3A",
"V  c #7D6235",
"C  c #76613C",
"Z  c #7C603C",
"A  c #6A5542",
"S  c #6F5A41",
"D  c #745C42",
"F  c #7C5F42",
"G  c #7F6340",
"H  c #81562F",
"J  c #845A2E",
"K  c #895C2E",
"L  c #835634",
"P  c #885734",
"I  c #835C34",
"U  c #8B5D35",
"Y  c #835D3A",
"T  c #8B5D38",
"R  c #945F39",
"E  c #846136",
"W  c #8B6335",
"Q  c #8F6937",
"!  c #85623A",
"~  c #8A643A",
"^  c #87683B",
"/  c #8D693B",
"(  c #916336",
")  c #916837",
"_  c #93643A",
"`  c #946B3B",
"'  c #9B6B3B",
"]  c #A2713D",
"[  c #AA763F",
"{  c #826243",
"}  c #8B6742",
"|  c #8C6940",
" . c #976740",
".. c #936B44",
"X. c #996B44",
"o. c #9C7242",
"O. c #A06E41",
"+. c #A17043",
/* pixels */
"X O $ 2 < > < h D m g p 8 c c k j 9 p i 8 > # % u s h j j p p 6 < k V V V w u d c u : u h p p p u @ @ - h j k b ! V i o ",
"O @ $ > > > u c B B m i 8 i h k p p p 9 8 8 6 6 * u 4 i j j i u < k V V b b v v v i 2 8 i p p h u 2 3 < 8 k c b B B 8 O ",
"- : > > > > i b E B c 8 > < 4 w j i 8 i j e 9 i > : 1 1 h h i 4 i k V N b T / E n j 8 i p p p h i i a i h b j k b c i > ",
"- > 6 2 > p b n B b m j w h z k c p 8 8 8 e j u 2 @ + 1 h z 4 < < j b b b E ~ I r e p j i p s i i i i j b b c c r c p i ",
"> < 8 6 8 j n n k j c M M b N B b e < : > < i a 1 1 & 4 h z w < 8 p c m B B B b w i l i 4 4 i i i i d v I I n v y n t d ",
"> > > > 8 e c k i i m n ! E V M c e 8 > > 4 4 a 4 4 4 h z z h < > 8 c m B M b h h 4 4 4 2 2 2 u i p d v T W I y y y v q ",
": , > u 8 9 9 8 < i z B ! { B z i p 9 8 4 u i i A s z x x j h < > i c B B B M m h s 4 2 1 u u i i p c I W ) I y t r t r ",
"; < 9 j r r r 8 < 4 k k B B b a > i p i i i s z m x N N b c h < u f v I E ^ Y B m z 4 4 a z z p i d v I W ) U v b r e w ",
"8 9 e t n I v c 8 h h h z N z u 1 i p h p p z j N D x z b b p i p v U W W ^ ! { M m h l S B b e 9 9 v n I J I n n b w 8 ",
"q e w e v I P t i h l h h N j 4 2 p p i p h j m N N x l N c p p m v W W ) Q ^ b g b m c m M b 9 6 7 r c v d d c b b e 8 ",
"r e 5 8 j n U n h h h h z b c i i c c p z h h x x S l h c c m z c L U ) ) Q B j i c M B b v e 8 % > 9 j p 8 9 j c c e 8 ",
"b e < 8 c I Q E j k z k b E T r c n Y v j h z z x l l h h b B M Y I W W W E B e i v I Y I b r 8 # > 9 c p 9 i e c e e 8 ",
"c e p j b ~ / I b j b N b ~ W c d I U B c h a z z l a i p c B T T I W T U E B b f n T I n I y 8 ; 6 e r r 9 8 r b b w < ",
"v c c b E / ~ n j k b b V n b 9 9 y I n z 4 l A z z i i i p v I P I ~ W W ~ E n v B I B I I n 9 8 9 r n r 9 w e n n e < ",
"b r c c I E b c 9 p j b N j h > 8 c v c z a l x m m s u i s M T T ~ W ^ ^ E E n n B B B n J t c k c r r e 7 e y E E k < ",
"r q 9 9 c c j j p j h m j i 4 < 8 p p s i s l z B n p u s m B Y Y E T T B b b n v v b b n y c c c r r r 9 q r J E J e > ",
"c 9 7 8 i i p k c j i i i a i i i p p a a a p c Y E b p h N { Y T n b c k e d c I L B v v c q c c e r q q r b b y r 8 - ",
"q d 9 i i i k b b j 4 4 i i h c c c h a 4 2 s v T E V e k j B B b c j i i 8 p v I I Y v r e j p j 9 j c r 9 r r c w > @ ",
"7 8 9 i u h m b b e < < h c b c c c c z i 3 u f b Y b b k b B B b c 8 8 p c c I W T I b p p 9 e 8 8 9 r p d r c e < @ X ",
"6 9 9 8 4 u h j k h h h b B E b j j c N j 4 u g v c c c y V V Z N c j p c c I W W I v b c d r e 8 > 6 9 p q t b k , o . ",
"I y c 7 2 2 a h h 4 h h b N B b c c b n e i g Y M f p j k b b b c j k j c b b I T I b c c 9 9 9 < > 8 r q c v n k , +   ",
"' W L p 2 1 4 4 4 2 4 h m b B b n v t c c j { ..} v i u 8 k j k j h i 9 d j c b b b c k j 9 i 9 8 6 e r v r v n k < $ O ",
"` W v i 1 1 3 3 1 1 a m B m M I n y r t e c / o._ B h i i p h j i 4 u q c e p 8 j c j p 8 j j c i 7 p c d p r c c p 6 5 ",
"I v j i 4 4 4 4 1 1 z C { B M n n t r r c n ` o._ B m m j j j j 8 6 8 q t c 9 8 9 p j i j c v b d 7 i c d i 9 d c d d 0 ",
"v j 8 8 p z j i u i m F B b c b c r 9 c j b ~ ` ^ B B B B b b c 9 9 q H J I r e e k j p e b b c p p p p j p r f q c d p ",
"p 9 > 8 c v b j i j B B b x j j q 9 r b c j V ^ ^ Z ^ { E B n b p q y P U J y b b c e p 9 c c j h j e c r v v c c c 9 7 ",
"p 7 > 6 e b c j w j b N x h h 9 9 r v n b p V ^ ~ ! | | Y I n b p r y J P I J E y b e p 8 i 8 h i i h c I I n c j p 8 < ",
"r 9 > 6 9 r e 9 w c b b j i < 8 q v Y E M j b E ^ ^ / | B b b b j r n I n I E K n y d i i 8 8 9 i z m Y W / Y s e w 8 < ",
"n c 8 9 e r t r k k b b k 8 > 7 c v I I c c b V E E ~ E b j c c j e c n I I I I y r p p d t d p N E T E W / n p w e e e ",
"n c p p q t t r e e y k c p u i c v v c c c r y I I T I j 8 9 k c c r I I E E n v c 9 d y H v d b E ~ E ~ I c 9 e k e k ",
"r r c p q c q 9 8 w c b v c p c r e 9 d c r r v I U P v p 8 p c v t r v J E E I v c c p c n v p j n n n c c e 9 b y b k ",
"y c r d d r r 5 > 6 9 b v j j c r 8 6 9 c r v v I T I v d c p c n t 9 r r I I n c c r 9 9 c c p p c v b c i 8 8 e y y k ",
"E n c r t r r 6 ; 5 8 r r i h j p > 6 8 c c b I Y I P L L v v c e 9 6 6 i c c c j 9 9 9 9 j 9 p p g M M f u > 8 q r r k ",
"I n d d t t r e r t q e e j j c p 6 6 p j c b M v v L L P L v q 8 > > 6 9 c 9 p 8 p c q 9 8 9 p p z m v p > ; > 8 9 e e ",
"v c f c t b v y J K J r p b n B d u i j j j c m c f r t H L v 9 8 > > q c c p i 8 9 c r e 9 9 p j c c d 8 $ O : ; 5 8 e ",
"M v P P n n n I K K y e j n E I M p s p c c j j p 7 7 q y L v d w 8 p v U Y c i p p c c c v c d c B M p > O O O ; ; e b ",
"L T R T v b b I b v r 9 r E ~ I M m c b b b c 9 7 5 * 7 f H v v c e r E Q T g i s p f d c I v c m { Y p > - # - 5 9 r y ",
"f P T P d p p p 9 9 8 8 c I E E B Y Y B E E c 9 6 6 u s v v n I v n y U W n g i s p p 7 p v v c M ~ T v 9 6 > 5 e t y b ",
"M Y T v u i p p 6 8 9 7 j B E ! ! ^ ~ ~ ~ E n 9 6 i L Y v n I I n n I I I v p s i d p u 6 9 d n I R U L f r p e y J b k ",
" ._ _ Y p M ^ Y 9 8 i 8 p b E / / / E E W E n r p f R  .W B I n v c n y n r 0 u p d d p i 9 b ~ ' ' R t f v p c y J r e ",
"[ +.' T M ~ o.~ r 9 p 8 8 b ^ ` X./ E I I I n t d M _ ' W v c c j j r n y 9 8 u d f M v d c n ` ] ' P q p d d d y y r e ",
"[ ] _ P v ~ ` I 9 9 d i 4 j E ` ' ` E n v n I I v c T ~ n j 8 i 8 j c r c 9 > < k M V I M m n ) ' R y 6 > 9 p d c r e w ",
"] _ P v v Y v 9 > 7 r 9 i c I / _ ( I c j v I U L b v b c i > > > i e c e > $ , i k V E Y M n I I v 0 % : 8 p c c 9 8 5 ",
"W J q 9 r d 9 5 # 6 9 9 j v I P T P L d h c I W I L n n c u 2 > > h k k 6 > @ : > < e V E ! B v d 0 2 * i c v M c 8 8 8 ",
"r q 9 9 7 q 9 ; # > 9 r r t P P P P f s a c Y U U P I n c p u i i c b j < 8 8 < 3 - 8 c E ^ E v u % u s m T T I d 9 9 q ",
"9 q r r q q 9 > ; 6 9 r r L P W U P f p s M M P L v v v c c p p c b M c 9 b V c u 4 8 p b Q W v 6 % u g Y ~ ~ I d d f H ",
"p d t t r q 9 6 6 r b n v y I W ( U v g M { W L v d e r c c j j b Y I v c B ~ b j p c j r Q W r 6 > s M Y Y P v v v H K ",
"p q q q 9 9 8 8 e I E I t c v U ( U P M ~ ' ` I c h 8 p c m m b b Y I M v B Y m h c b b E E E b 7 9 d g d 7 7 9 c P K R ",
"p p 9 6 6 > 8 9 n I E t e e c v I J U E / ` ) I z 4 4 k c b N N B Z ^ ~ E M m j i c B Y Y E E r r t n c 7 $ o 6 r I E W ",
"9 9 8 8 > % 6 r n v 9 6 > u j j q c n E ~ ~ E c A 4 l l N C C C G { ` ..| F z s p p c M I I n t y I P v 8 $ $ * 9 c n E ",
"9 c n c > % 7 q d 9 5 $ @ > 8 j p p c B E B c l A A l x N C C x D G | ..} F S A x z m M b b e j v I I c 7 > 7 d p e c n ",
"d I ) E p 7 d 9 7 9 6 > : > w b b c j m M b p a x S A l N C G x x C G { { D D D D x z b c j 8 i j c c 9 8 7 d c c c v v ",
"s v U v p k n b s 9 9 9 > > c ~ } B c f M m z s z z h 4 z N N x x x m N D S x S D x s h j j e c c j i 8 u 8 p c c n v t ",
"u d v d 8 b ^ Y m d d q r c T X.X.T v f m v M m h 4 3 4 h c x b k z l l z a p z z z 4 u 8 e b n b p 8 u > > > i n n n t ",
"8 i p s 8 c E E v n I y I I ` ] O.( L b c N V B j , : < k b n c k 8 i i i h p z m j i i 9 9 c b n r d p i 8 8 h c c c p ",
"p p i i i c n I I n n I I W ` ] ' R L c k b V V k 3 4 j b E n b h 8 i i j j c v v b c c e p c c v c c c k 9 e k j p i i ",
"7 7 6 i p d c v L v c f c I W K W K n e u 4 z j 4 2 p n W ~ y c 8 9 j e e e y E E n b t c 9 9 c c d v v j 9 b b b p i u ",
"% % > 7 d d f v f g p j c c e r y I n p 2 1 4 i 6 6 c n E V y e 9 8 9 8 w e V K E J t r q i i p p p d d q 9 b V b p h 8 ",
"& $ $ ; p v T P L c j E ! k > : 9 I I f * 2 p M c q 9 9 e e 8 < > > < < < e b E ~ V c 9 7 6 8 p p d c v 9 j b N k j 9 j ",
"& @ o # 7 P _ R P c b / ` c o X 9 I T v a u m Y T f 7 : = - - @ @ = = - ; 8 c E Q V e 6 > > u 9 d 9 r f c k b c j i 9 h "
};
