/* XPM */
static char *result[] = {
/* columns rows colors chars-per-pixel */
"64 64 239 2 ",
"   c #0B0601",
".  c #0A0903",
"X  c #050604",
"o  c #140300",
"O  c #1A0500",
"+  c #140A03",
"@  c #1B0A02",
"#  c #160C08",
"$  c #1B120A",
"%  c #240500",
"&  c #230C02",
"*  c #2B0C01",
"=  c #280300",
"-  c #350C02",
";  c #241105",
":  c #2C1306",
">  c #231208",
",  c #2A180D",
"<  c #331404",
"1  c #3C1505",
"2  c #3B1B05",
"3  c #341B0B",
"4  c #3B1B0A",
"5  c #331807",
"6  c #291D14",
"7  c #251B12",
"8  c #3A1F11",
"9  c #3A220E",
"0  c #372315",
"q  c #4A0601",
"w  c #520400",
"e  c #560F05",
"r  c #421304",
"t  c #431C06",
"y  c #421D0A",
"u  c #4B1D0B",
"i  c #491705",
"p  c #5D1703",
"a  c #6A0C04",
"s  c #780A02",
"d  c #671505",
"f  c #771B06",
"g  c #44220C",
"h  c #4C240C",
"j  c #4E2608",
"k  c #52250C",
"l  c #5A260A",
"z  c #432613",
"x  c #4A2912",
"c  c #492813",
"v  c #5B2C13",
"b  c #532C14",
"n  c #5A3219",
"m  c #50360E",
"M  c #632C0D",
"N  c #672609",
"B  c #77240F",
"V  c #68340E",
"C  c #692D11",
"Z  c #6D3212",
"A  c #663817",
"S  c #773614",
"D  c #792C12",
"F  c #6E421B",
"G  c #76441E",
"H  c #6D4225",
"J  c #8A0100",
"K  c #880A03",
"L  c #980802",
"P  c #981806",
"I  c #881807",
"U  c #A40100",
"Y  c #AC0000",
"T  c #AC0F07",
"R  c #B90201",
"E  c #A71C04",
"W  c #B91903",
"Q  c #97220B",
"!  c #833614",
"~  c #993916",
"^  c #8A2D10",
"/  c #A9240C",
"(  c #B8250B",
")  c #B53A0C",
"_  c #A63815",
"`  c #B83918",
"'  c #BE2B10",
"]  c #CB0401",
"[  c #C20501",
"{  c #D90000",
"}  c #D61406",
"|  c #C11E11",
" . c #E20200",
".. c #EC0301",
"X. c #EE0B03",
"o. c #F30200",
"O. c #FD0100",
"+. c #FA0B04",
"@. c #FA1709",
"#. c #EA1E0D",
"$. c #C9270B",
"%. c #D22808",
"&. c #CB350B",
"*. c #DC360A",
"=. c #C42911",
"-. c #D42B12",
";. c #CC3A18",
":. c #C73817",
">. c #D43916",
",. c #DC3816",
"<. c #E3220B",
"1. c #FB270E",
"2. c #E63507",
"3. c #F93E07",
"4. c #FD2A15",
"5. c #F72C17",
"6. c #E53B1C",
"7. c #EC391A",
"8. c #FD341A",
"9. c #FC3B1D",
"0. c #F4381A",
"q. c #EC2110",
"w. c #985907",
"e. c #85431D",
"r. c #9C4418",
"t. c #98430B",
"y. c #A44A1B",
"u. c #AB451A",
"i. c #A8541B",
"p. c #B4531D",
"a. c #B8431C",
"s. c #9A7F03",
"d. c #BC650C",
"f. c #AA7F0E",
"g. c #864824",
"h. c #9F5529",
"j. c #A74C24",
"k. c #A95A2A",
"l. c #B75926",
"z. c #9B6A2D",
"x. c #A86629",
"c. c #B76836",
"v. c #C9481C",
"b. c #DA4719",
"n. c #C6561A",
"m. c #D9530B",
"M. c #FA4A09",
"N. c #FD5606",
"B. c #E74515",
"V. c #FA4C13",
"C. c #FB591A",
"Z. c #E95B0F",
"A. c #D57606",
"S. c #CD7513",
"D. c #E66705",
"F. c #FC6704",
"G. c #EA7206",
"H. c #F77704",
"J. c #FF631A",
"K. c #F67419",
"L. c #CA4725",
"P. c #DD4F22",
"I. c #C65725",
"U. c #D55724",
"Y. c #E64921",
"T. c #FE4324",
"R. c #FD4B24",
"E. c #FD4C29",
"W. c #F54222",
"Q. c #E55325",
"!. c #EA5827",
"~. c #FC5425",
"^. c #FE5C2D",
"/. c #FA5527",
"(. c #FE5C31",
"). c #CE682A",
"_. c #D86929",
"`. c #C96534",
"'. c #DC753E",
"]. c #D27934",
"[. c #EC6B29",
"{. c #FD642B",
"}. c #F67C2C",
"|. c #FA7E2A",
" X c #F67625",
".X c #EB6732",
"XX c #FE6A33",
"oX c #FD6534",
"OX c #EC7435",
"+X c #F47C35",
"@X c #F97939",
"#X c #E4782E",
"$X c #D97443",
"%X c #D97841",
"&X c #EB7A48",
"*X c #E88806",
"=X c #FD8608",
"-X c #F79407",
";X c #F8981A",
":X c #E59006",
">X c #FCA61D",
",X c #FEB210",
"<X c #C28A3B",
"1X c #FE892A",
"2X c #FE8C3D",
"3X c #F88436",
"4X c #FD9334",
"5X c #FEAA25",
"6X c #F7B63C",
"7X c #FCB622",
"8X c #F5C908",
"9X c #FCD709",
"0X c #F5C538",
"qX c #BE8C58",
"wX c #C09641",
"eX c #FB8846",
"rX c #FE9145",
"tX c #FB9A46",
"yX c #F88C56",
"uX c #FF915B",
"iX c #E78F52",
"pX c #D8AC4C",
"aX c #DBB24F",
"sX c #F3BC46",
"dX c #E8B054",
"fX c #FC9D60",
"gX c #C4A365",
"hX c #FEB56E",
"jX c #F1C253",
"kX c #F2C964",
"lX c #F5D77B",
"zX c #FBDB86",
"xX c #FEE998",
"cX c #FFF2B3",
"vX c #FFEDA0",
"bX c #FFF9D6",
"nX c #FFF7D0",
"mX c #FFF6C8",
"MX c None",
/* pixels */
"MXMXMXMXMXMXMXMXMXMXMXMXMXMXMXMXMXMXMXMXMXMXMXMXMX-X>X5X5X;X;XMXMXMXMXMXMXMXMXMXMXMXMXMXMXMXMXMXMXMXMXMXMXMXMXMXMXMXMXMXMXMXMXMX",
"MXMXMXMXMXMXMXMXMXMXMXMXMXMXMXMXMXMXMXMXMXMXMXMX-X>X6XkXkXjX5XMXMXMXMXMXMXMXMXMXMXMXMXMXMXMXMXMXMXMXMXMXMXMXMXMXMXMXMXMXMXMXMXMX",
"MXMXMXMXMXMXMXMXMXMXMXMXMXMXMXMXMXMXMXMXMXMXMXMX;X6XlXcXnXxXsXMXMXMXMXMXMXMXMXMXMXMXMXMXMXMXMXMXMXMXMXMXMXMXMXMXMXMXMXMXMXMXMXMX",
"MXMXMXMXMXMXMXMXMXMXMXMXMXMXMXMXMXMXMXMXMXMXMXMX5XsXcXbXbXvXsXMXMXMXMXMXMXMXMXMXMXMXMXz.MXMXMXMXMXMXMXMXMXMXMXMXMXMXMXMXMXMXMXMX",
"MXMXMXMXMXMXMXMXMXMXMXMXMXMXMXMXMXMXMXMXMXMXMXMX5XsXvXbXbXxXsXMX+XeXMXMXMXMXMXMXMXMXMXpXm MXMXMXMXMXMXMXMXMXMXMXMXMXMXMXMXMXMXMX",
"MXMXMXMXMXMXMXMXMXMXMXMXMXMXMXMXMXMXMXMXMXMXMXMXMX>XkXzXzXkX7XeXyXMXMXMXMXMXMXMXMXMXx.aXA MXMXMXMXMXMXMXMXMXMXMXMXMXMXMXMXMXMXMX",
"MXMXMXMXMXMXMXMXMXMXMXMXMXMXMXMXMXMXMXMXMXMXMXMXMXMX8X7X0XMX@XyXuXfXMXMXMXMXMXMXMXMXMXwXm MXMXMXMXMXMXMXMXMXMXMXMXMXMXMXMXMXMXMX",
"MXMXMXMXMXMXMXMXMXMXMXMXMXMXMXMXMXMXMXMXMXMXMXMXMXMX4X,X-XMXMXyXhXfXyXuXMXMXMXMXMXMXMX%XMXMXMXMXMXMXMXMXMXMXMXMXMXMXMXMXMXMXMXMX",
"MXMXMXMXMXMXMXMXMXMXMXMXMXMXMXMXMXMXMXMXMXMXMXMXMX|.@X=X:.MXMX&XL.P d c.MXMXMXMXMXMXMX$XMXMXMXMXMXMXMXMXMXMXMXMXMXMXMXMXMXMXMXMX",
"MXMXMXMXMXMXMXMXMXMXMXMXMXMXMXMXMXMXMXMXMXMXMXMXMX}.OX4.b.MXMXY.X.T.W.;.eXMXMXMXMXMXMX$XMXMXMXMXMXMXMXMXMXMXMXMXMXMXMXMXMXMXMXMX",
"MXMXMXMXMXMXMXMXMXMXMXMXMXMXMXMXMXMXMXMXMXMXMXMXMXrXoX9.Y. XMX*.q.E.E.-.MXMXMXMXMXMXMX$XMXMXMXMXMXMXMXMXMXMXMXMXMXMXMXMXMXMXMXMX",
"MXMXMXMXMXMXMXMXMXMXMXMXMXMXMXMXMXMXMXMXMXMXMXMXMX|.!.T.Q.@X|.2X/.XXE.,.Z.MXK.MXMXMXMX$XMXMXMXMXMXMXMXMXMXMXMXMXMXMXMXMXMXMXMXMX",
"MXMXMXMXMXMXMXMXMXMXMXMXMXMXMXMXMXMXMXMXMXMXMXMXMX|.Q.9.,.U.1XtX&X{.E.6._.K. X1XMXMXMX$XMXMXMXMXMXMXMXMXMXMXMXMXMXMXMXMXMXMXMXMX",
"MXMXMXMXMXMXMXMXMXMXMXMXMXMXMXMXMXMXMXMXMXMXMXMXMXMX.X1.5.a.#X+XrXXXT.P.p.[.1X|. XMXMX$XMXMXMXMXMXMXMXMXMXMXMXMXMXMXMXMXMXMXMXMX",
"MXMXMXMXMXMXMXMXMXMXMXMXMXMXMXMXMXMXMXMXMXMXMXMXMXMX@Xq.4.| I.+X@X2X~.' D ~ v.I.1XMXMX%XMXMXMXMXMXMXMXMXMXMXMXMXMXMXMXMXMXMXMXMX",
"MXMXMXMXMXMXMXMXMXMXMXMXMXMXMXMXMXMXMXMXMXMXMXMXMXMX1X5.4.7.;..XXX{.^.` I $.;.B.).MXMX$XMXMXMXMXMXMXMXMXMXMXMXMXMXMXMXMXMXMXMXMX",
"MXMXMXMXMXMXMXMXMXMXMXMXMXMXMXMXMXMXMXMXMXMXMXMXMXMX1X!.8.V.,.7.~.!.W.R J ' ,.0.U.MXMX$XMXMXMXMXMXMXMXMXMXMXMXMXMXMXMXMXMXMXMXMX",
"MXMXMXMXMXMXMXMXMXMXMXMXMXMXMXMXMXMXMXMXMXMXMXMXMXMX1X@X7.R.T.oXE.7.9.@.{ ] ;.W.OXMXMX%XMXMXMXMXMXMXMXMXMXMXMXMXMXMXMXMXMXMXMXMX",
"MXMXMXMXMXMXMXMXMXMXMXMXMXMXMXMXMXMXMXMXMXMXMXMXMXMX|.2XQ.7.R.@X{.0.W.@.O.} a.Q.h.}.MX`.MXMXMXMXMXMXMXMXMXMXMXMXMXMXMXMXMXMXMXMX",
"MXMXMXMXMXMXMXMXMXMXMXMXMXMXMXMXMXMXMXMXMXMXMXMXMXMX3X2X&X>.4.XX^.9.W.1.@.} OXc.4 d.8X8X9XMXMXMXMXMXMXMXMXMXMXMXMXMXMXMXMXMXMXMX",
"MXMXMXMXMXMXMXMXMXMXMXMXMXMXMXMXMXMXMXMXMXMXMXMXMXMXMX2XrXQ.!.^.R.6.5.q.#.L.2Xx.G w.f.s.N MXMXMXMXMXMXMXMXMXMXMXMXMXMXMXMXMXMXMX",
"MXMXMXMXMXMXMXMXMXMXMXMXMXMXMXMXMXMXMXMXMXMXMXMXMXMXMXMXrX@XQ.(.T.9.8.9.$. X3XG.).e.1 ; Z MXMXMXMXMXMXMXMXMXMXMXMXMXMXMXMXMXMXMX",
"MXMXMXMXMXMXMXMXMXMXMXMXMXMXMXMXMXMXMXMXMXMXMXMXMXMXMXMX3XrXU.8.4.4.8.5.&.}.M.F.n k 4 ; +   MXMXMXMXMXMXMXMXMXMXMXMXMXMXMXMXMXMX",
"MXMXMXMXMXMXMXMXMXMXMXMXMXMXMXMXMXMXMXMXMXMXMXMXMXMXMXMXMXrX.X(.R.8.4.0.:.#XM.) : c n k 5 ; + MXMXMXMXMXMXMXMXMXMXMXMXMXMXMXMXMX",
"MXMXMXMXMXMXMXMXMXMXMXMXMXMXMXMXMXMXMXMXMXMXMXMXMXMXMXMXMXtXoXoXE.E.T.8.-.-.2.i % v g.k.A 4 # MXMXMXMXMXMXMXMXMXMXMXMXMXMXMXMXMX",
"MXMXMXMXMXMXMXMXMXMXMXMXMXMXMXMXMXMXMXMXMXMXMXMXMXMXMXMXrXtXXX(.R.E.E.T.P.2.f o o ! _.k.A h # MXMXMXMXMXMXMXMXMXMXMXMXMXMXMXMXMX",
"MXMXMXMXMXMXMXMXMXMXMXMXMXMXMXMXMXMXMXMXMXMXMXMXMXMXMXMX2X_.).P.W.T.(._ P 2.i * % - l.x Z g.h : MXMXMXMXMXMXMXMXMXMXMXMXMXMXMXMX",
"MXMXMXMXMXMXMXMXMXMXMXMXMXMXMXMXMXMXMXMXMXMXMXMXd q MX|.[._ ( / _ E.@Xc.W f o k 1 % j : * g.4 : MXMXMXMXMXMXMXMXMXMXMXMXMXMXMXMX",
"MXMXMXMXMXMXMXMXMXMXMXMXMXMXMXMXMXMXMXMXMXMXMXs K s k.}.:.=.' ( / #X` p.P l + 1 - % 8 F O z N j MXMXMXMXMXMXMXMXMXMXMXMXMXMXMXMX",
"MXMXMXMXMXMXMXMXMXMXMXMXMXMXMXMXMXMXMXMXMXMXQ P L E '.U.$.&.&.$.E _._.K l i i * o o gXdXl l S j MXMXMXMXMXMXMXMXMXMXMXMXMXMXMXMX",
"MXMXMXMXMXMXMXMXMXMXMXMXMXMXMXMXMXMXMXMXMXMX/ L L r.c.$.%.%.*.' Q g.C 1 < o M y.r.< V z.#X* $ w MXMXMXMXMXMXMXMXMXMXMXMXMXMXMXMX",
"MXMXMXMXMXMXMXMXMXMXMXMXMXMXMXMXMXMXMXMXMX( W E f n j.2.2.*.*./ + X 3 i r = ^ n.p.y [ h 3Xj MXL MXMXMXMXMXMXMXMXMXMXMXMXMXMXMXMX",
"MXMXMXMXMXMXMXMXMXMXMXMXMXMXMXMXMXMXMXMXMX%.W p M H I.M.3.<.-.u $ n u l r = B u & L O.5 +XMXO. .MXMXMXMXMXMXMXMXMXMXMXMXMXMXMXMX",
"MXMXMXMXMXMXMXMXMXMXMXMXMXMXMXMXMXMXMXMXm.$.f 4 y.g.@XC.J.3.~ z n 8 y y ; o l < B O.O.p OX+XO.] Y MXMXMXMXMXMXMXMXMXMXMXMXMXMXMX",
"MXMXMXMXMXMXMXMXMXMXMXMXMXMXMXMXMXMXMXG.n.W U ] X.6..X/.J.V.b ( 7 A y.k.l 2 y.v.+.o.O.f v.MX] R R MXMXMXMXMXMXMXMXMXMXMXMXMXMXMX",
"MXMXMXMXMXMXMXMXMXMXMXMXMXMXMXMXMXMXA.D.<X>.O.).<.A j.C.Z.) f O.@ : M 4 ! k /.+.O.I [ p b.%.Y L R MXMXMXMXMXMXMXMXMXMXMXMXMXMXMX",
"MXMXMXMXMXMXMXMXMXMXMXMXMXMXMXMXMXMX:XZ.2.iXO.qXi.z ` C.b.S `.>.] @ M _ ,.v.pX .u.e.v ; e ..Y MXMXMXMXMXMXMXMXMXMXMXMXMXMXMXMXMX",
"MXMXMXMXMXMXMXMXMXMXMXMXMXMXMXMXMXMXS.D.O.O.O.O.f S 6.V.;.~ p.Q.O.o.o.O.O.} %.a : $ ; ; q o.L MXMXMXMXMXMXMXMXMXMXMXMXMXMXMXMXMX",
"MXMXMXMXMXMXMXMXMXMXMXMXMXMXMXMXMXMXMX2.O.}  . .. B 3.C.b.i.o.O.O.].v.O.O.] O.e : > < * w L Y R MXMXMXMXMXMXMXMXMXMXMXMXMXMXMXMX",
"MXMXMXMXMXMXMXMXMXMXMXMXMXMXMXMXMXMXMXC o.y X.L + ! M.J.B.-.( 4...W o.] e K O.e : : : o w ] U J MXMXMXMXMXMXMXMXMXMXMXMXMXMXMXMX",
"MXMXMXMXMXMXMXMXMXMXMXMXMXMXMXMXMXMXMXQ X.q o.q g ~ N.F.&.T ! @.s k O.a & K w O o   @ @ - U J MXMXMXMXMXMXMXMXMXMXMXMXMXMXMXMXMX",
"MXMXMXMXMXMXMXMXMXMXMXMXMXMXMXMXMXMXMXW } ..J   + D N.C.k x.u.O.r a O.u + o 1 @ o o o   q Y MXMXMXMXMXMXMXMXMXMXMXMXMXMXMXMXMXMX",
"MXMXMXMXMXMXMXMXMXMXMXMXMXMXMXMXMXMXMXMXMXMX+ o : S F.F.j c l.( , s J y O @ : : u b k @ MXMXMXMXMXMXMXMXMXMXMXMXMXMXMXMXMXMXMXMX",
"MXMXMXMXMXMXMXMXMXMXMXMXMXMXMXMXMXMXMXMXMXMXo & < t.=XD.MXMX3 b x : * 1 : M M j v C M 2 MXMXMXMXMXMXMXMXMXMXMXMXMXMXMXMXMXMXMXMX",
"MXMXMXMXMXMXMXMXMXMXMXMXMXMXMXMXMXMXMXMXMXMX@ & : D.=XMXMX+ : g & & o t S 5 : MXN < v 2 A.A.MXMXMXMXMXMXMXMXMXMXMXMXMXMXMXMXMXMX",
"MXMXMXMXMXMXMXMXMXMXMXMXMXMXMXMXMXMXMXMXMXMX> 4 : H.H.MXMX* x x MXMX+ @ A < o MXMXr t 2 w.*X*XMXMXMXMXMXMXMXMXMXMXMXMXMXMXMXMXMX",
"MXMXMXMXMXMXMXMXMXMXMXMXMXMXMXMXMXMXMXMXMXMX& b d.=XG.MXMX@ v 2 MXMXMXO < V + MXMXo : 4 ; MXMXMXMXMXMXMXMXMXMXMXMXMXMXMXMXMXMXMX",
"MXMXMXMXMXMXMXMXMXMXMXMXMXMXMXMXMXMXMXMXMXMX& g :X-Xm.MXMXo v 1 MXMXMXMX@ k ;   MXMX@ 9 g , MXMXMXMXMXMXMXMXMXMXMXMXMXMXMXMXMXMX",
"MXMXMXMXMXMXMXMXMXMXMXMXMXMXMXMXMXMXMXMXMXMX% y MXMXMXMXMX@ S MXMXMXMXMX+ 5 n ; MXMXMXg e.0 MXMXMXMXMXMXMXMXMXMXMXMXMXMXMXMXMXMX",
"MXMXMXMXMXMXMXMXMXMXMXMXMXMXMXMXMXMXMXMXMXMX< y MXMXMXMXMX& Z MXMXMXMXMXMX; G b & MXMX< g.F MXMXMXMXMXMXMXMXMXMXMXMXMXMXMXMXMXMX",
"MXMXMXMXMXMXMXMXMXMXMXMXMXMXMXMXMXMXMXMXMXMXh 2 MXMXMXMXMX& Z @ MXMXMXMXMXMXx A : MXMX+ 5 9 MXMXMXMXMXMXMXMXMXMXMXMXMXMXMXMXMXMX",
"MXMXMXMXMXMXMXMXMXMXMXMXMXMXMXMXMXMXMXMXMXMXh 5 MXMXMXMXMX$ 0   MXMXMXMXMXMX; v + MXMX+ y MXMXMXMXMXMXMXMXMXMXMXMXMXMXMXMXMXMXMX",
"MXMXMXMXMXMXMXMXMXMXMXMXMXMXMXMXMXMXMXMXMXMX7 . MXMXMXMXMX+ 6 . MXMXMXMXMXMXMXk + MX  1 h MXMXMXMXMXMXMXMXMXMXMXMXMXMXMXMXMXMXMX",
"MXMXMXMXMXMXMXMXMXMXMXMXMXMXMXMXMXMXMXMXMXMX# # MXMXMXMXMX  $ . MXMXMXMXMXMXMXz < MX. h g MXMXMXMXMXMXMXMXMXMXMXMXMXMXMXMXMXMXMX",
"MXMXMXMXMXMXMXMXMXMXMXMXMXMXMXMXMXMXMXMXMXMX@ # . MXMXMXMXX 6 . MXMXMXMXMXMXMX: < +   > MXMXMXMXMXMXMXMXMXMXMXMXMXMXMXMXMXMXMXMX",
"MXMXMXMXMXMXMXMXMXMXMXMXMXMXMXMXMXMXMXMXMXMX. 0   X MXMXMX. 6 6 X MXMXMXMXMXMX; : X # + MXMXMXMXMXMXMXMXMXMXMXMXMXMXMXMXMXMXMXMX",
"MXMXMXMXMXMXMXMXMXMXMXMXMXMXMXMXMXMXMXMXMXMX. . 6 X MXMXMXMXMXMXMXMXMXMXMXMXMX@ # o . # MXMXMXMXMXMXMXMXMXMXMXMXMXMXMXMXMXMXMXMX",
"MXMXMXMXMXMXMXMXMXMXMXMXMXMXMXMXMXMXMXMXMXMXMXMXMXMXMXMXMXMXMXMXMXMXMXMXMXMXMXMXX $     MXMXMXMXMXMXMXMXMXMXMXMXMXMXMXMXMXMXMXMX",
"MXMXMXMXMXMXMXMXMXMXMXMXMXMXMXMXMXMXMXMXMXMXMXMXMXMXMXMXMXMXMXMXMXMXMXMXMXMXMXMX. 7   MXMXMXMXMXMXMXMXMXMXMXMXMXMXMXMXMXMXMXMXMX",
"MXMXMXMXMXMXMXMXMXMXMXMXMXMXMXMXMXMXMXMXMXMXMXMXMXMXMXMXMXMXMXMXMXMXMXMXMXMXMXMXX # + MXMXMXMXMXMXMXMXMXMXMXMXMXMXMXMXMXMXMXMXMX",
"MXMXMXMXMXMXMXMXMXMXMXMXMXMXMXMXMXMXMXMXMXMXMXMXMXMXMXMXMXMXMXMXMXMXMXMXMXMXMXMXMXMXMXMXMXMXMXMXMXMXMXMXMXMXMXMXMXMXMXMXMXMXMXMX",
"MXMXMXMXMXMXMXMXMXMXMXMXMXMXMXMXMXMXMXMXMXMXMXMXMXMXMXMXMXMXMXMXMXMXMXMXMXMXMXMXMXMXMXMXMXMXMXMXMXMXMXMXMXMXMXMXMXMXMXMXMXMXMXMX",
"MXMXMXMXMXMXMXMXMXMXMXMXMXMXMXMXMXMXMXMXMXMXMXMXMXMXMXMXMXMXMXMXMXMXMXMXMXMXMXMXMXMXMXMXMXMXMXMXMXMXMXMXMXMXMXMXMXMXMXMXMXMXMXMX",
"MXMXMXMXMXMXMXMXMXMXMXMXMXMXMXMXMXMXMXMXMXMXMXMXMXMXMXMXMXMXMXMXMXMXMXMXMXMXMXMXMXMXMXMXMXMXMXMXMXMXMXMXMXMXMXMXMXMXMXMXMXMXMXMX"
};
