/* XPM */
static char *result[] = {
/* columns rows colors chars-per-pixel */
"64 64 237 2 ",
"   c #050502",
".  c #0D0301",
"X  c #0A0903",
"o  c #130401",
"O  c #1B0601",
"+  c #140A01",
"@  c #1C0A02",
"#  c #130B09",
"$  c #1C0A08",
"%  c #1B120C",
"&  c #16120B",
"*  c #1E1610",
"=  c #250500",
"-  c #230C03",
";  c #2A0A02",
":  c #320B02",
">  c #241105",
",  c #2B1304",
"<  c #23140A",
"1  c #2B1309",
"2  c #2D1A0B",
"3  c #341404",
"4  c #3B1604",
"5  c #3C1906",
"6  c #341709",
"7  c #321A0A",
"8  c #3B1C0B",
"9  c #351A07",
"0  c #301D11",
"q  c #3D210B",
"w  c #590901",
"e  c #451A05",
"r  c #4C1B05",
"t  c #421D0A",
"y  c #4A1D09",
"u  c #451105",
"i  c #571804",
"p  c #6A0401",
"a  c #640501",
"s  c #790801",
"d  c #691B06",
"f  c #761706",
"g  c #43230D",
"h  c #4C230B",
"j  c #4B2306",
"k  c #53240B",
"l  c #54290F",
"z  c #5B270B",
"x  c #442511",
"c  c #492A13",
"v  c #5C2D12",
"b  c #552C15",
"n  c #5A331A",
"m  c #5D320F",
"M  c #65280D",
"N  c #682C12",
"B  c #772B11",
"V  c #6C3414",
"C  c #673919",
"Z  c #713515",
"A  c #763C17",
"S  c #573722",
"D  c #733A20",
"F  c #68411A",
"G  c #7B451E",
"H  c #6E4D04",
"J  c #7C4422",
"K  c #764F21",
"L  c #890501",
"P  c #990400",
"I  c #980702",
"U  c #971A06",
"Y  c #A20200",
"T  c #AB0000",
"R  c #AC0B05",
"E  c #B40501",
"W  c #BC0000",
"Q  c #A41703",
"!  c #B71708",
"~  c #972308",
"^  c #943C18",
"/  c #8A3113",
"(  c #AB220B",
")  c #A32007",
"_  c #B5360B",
"`  c #A63819",
"'  c #B73A16",
"]  c #B72C0D",
"[  c #973E21",
"{  c #803F21",
"}  c #C40502",
"|  c #C90100",
" . c #C40F07",
".. c #DC0201",
"X. c #CD1507",
"o. c #D71608",
"O. c #E60201",
"+. c #EA0301",
"@. c #EB0C03",
"#. c #F20301",
"$. c #FE0100",
"%. c #F90D01",
"&. c #E71506",
"*. c #FB1B0C",
"=. c #F3190C",
"-. c #FD1F10",
";. c #C32608",
":. c #DB250A",
">. c #C52C12",
",. c #CA2712",
"<. c #D72A13",
"1. c #CA3B19",
"2. c #D43A17",
"3. c #CB320F",
"4. c #E7210D",
"5. c #F4210D",
"6. c #E3390D",
"7. c #F73D0B",
"8. c #E72912",
"9. c #FD2513",
"0. c #FE2A18",
"q. c #F82714",
"w. c #EA3216",
"e. c #FD341D",
"r. c #F7381B",
"t. c #FE3B22",
"y. c #F13E21",
"u. c #854119",
"i. c #96491D",
"p. c #8D4B0A",
"a. c #A84519",
"s. c #BB431D",
"d. c #B1451B",
"f. c #AA511F",
"g. c #B3490E",
"h. c #B87407",
"j. c #A37809",
"k. c #824C21",
"l. c #944822",
"z. c #875427",
"x. c #945622",
"c. c #B84A23",
"v. c #AB5425",
"b. c #BD5224",
"n. c #A84A20",
"m. c #B36528",
"M. c #BC6531",
"N. c #CD451B",
"B. c #D75718",
"V. c #CA4312",
"C. c #F74608",
"Z. c #F55208",
"A. c #E74319",
"S. c #FA4619",
"D. c #F95416",
"F. c #E45F1B",
"G. c #C37504",
"H. c #DC6B08",
"J. c #FB6706",
"K. c #F97D06",
"L. c #F9791A",
"P. c #FB7818",
"I. c #EB6F10",
"U. c #C84B21",
"Y. c #D64D21",
"T. c #C55627",
"R. c #D75925",
"E. c #D25A31",
"W. c #E74922",
"Q. c #FE4425",
"!. c #FE4D2A",
"~. c #F94825",
"^. c #E75A28",
"/. c #FC5D23",
"(. c #FE542A",
"). c #F85829",
"_. c #FF5F30",
"`. c #CA6928",
"'. c #DA6426",
"]. c #C96332",
"[. c #D66731",
"{. c #D67439",
"}. c #CB7635",
"|. c #E4672A",
" X c #FC6829",
".X c #F87A27",
"XX c #FE6736",
"oX c #F97837",
"OX c #EA7230",
"+X c #AB7C46",
"@X c #DD7646",
"#X c #DD7A43",
"$X c #D77844",
"%X c #CF7641",
"&X c #EC7948",
"*X c #F57E42",
"=X c #F97941",
"-X c #BE9B0C",
";X c #BE923F",
":X c #C68B08",
">X c #E88706",
",X c #F88605",
"<X c #FB9607",
"1X c #FF851A",
"2X c #DAA20C",
"3X c #FBA709",
"4X c #FEAD1B",
"5X c #D08D37",
"6X c #FE8C26",
"7X c #FD872C",
"8X c #FD8B33",
"9X c #FD8A3B",
"0X c #FC8537",
"qX c #FF9032",
"wX c #FEB227",
"eX c #FFAD2C",
"rX c #FCC90B",
"tX c #FCC914",
"yX c #F6CC38",
"uX c #BD9B43",
"iX c #CA985A",
"pX c #F98948",
"aX c #E59A46",
"sX c #FC9545",
"dX c #F78951",
"fX c #FD935B",
"gX c #DCA74A",
"hX c #DAB24E",
"jX c #F1B54E",
"kX c #F0C455",
"lX c #F3C765",
"zX c #F8D17C",
"xX c #FDD385",
"cX c #FEEB9A",
"vX c #FFF0AB",
"bX c #FFF5C7",
"nX c None",
/* pixels */
"nXnXnXnXnXnXnXnXnXnXnXnXnXnXnXnXnXnXnXnXnXnXnXnXnXnXnXnXnXnXnXnXnXnXnXnXnXnXnXnXnXnXnXnXnXnXnXnXnXnXnXnXnXnXnXnXnXnXnXnXnXnXnXnX",
"nXnXnXnXnXnXnXnXnXnXnXnXnXnXnXnXnXnXnXnXnXnXnXnXnXnXnXnXnXnXnXnXnXnXnXnXnXnXnXnXnXnXnXnXnXnXnXnXnXnXnXnXnXnXnXnXnXnXnXnXnXnXnXnX",
"nXnXnXnXnXnXnXnXnXnXnXnXnXnXnXnXnXnXnXnXnXnXnXnXnXnXnXnXnXnXnXnXnXnXnXnXnXnXnXnXnXnXnXnXnXnXnXnXnXnXnXnXnXnXnXnXnXnXnXnXnXnXnXnX",
"nXnXnXnXnXnXnXnXnXnXnXnXnXnXnXnXsXsXkXjXnXnXnXnXnXnXnXnXnXnXnXnXnXnXnXnXnXnXnXnXnXnXz.nXnXnXnXnXnXnXnXnXnXnXnXnXnXnXnXnXnXnXnXnX",
"nXnXnXnXnXnXnXnXnXnXnXnXnXnXnXnXkXzXcXlXnXnXnXnXnXnXnXnXnXnXnXnXnXnXnXnXnXnXnXnXnXnXhXnXnXnXnXnXnXnXnXnXnXnXnXnXnXnXnXnXnXnXnXnX",
"nXnXnXnXnXnXnXnXnXnXnXnXnXnXnXeXkXvXbXcXjXnXnXnXnXnXnXnXdXnXnXnXnXnXnXnXnXnXnXnXnXnXhXF nXnXnXnXnXnXnXnXnXnXnXnXnXnXnXnXnXnXnXnX",
"nXnXnXnXnXnXnXnXnXnXnXnXnXnXnXeXkXcXvXxXyXnXnXnXnXnXnX9XnXfXdXnXnXnXnXnXnXnXnXnXnXnX;XF nXnXnXnXnXnXnXnXnXnXnXnXnXnXnXnXnXnXnXnX",
"nXnXnXnXnXnXnXnXnXnXnXnXnXnXnXeXkXlXzXkXtXnXnXnXnXnXnXnXnX#X#XdXnXnXnXnXnXnXnXnXnXnXaXnXnXnXnXnXnXnXnXnXnXnXnXnXnXnXnXnXnXnXnXnX",
"nXnXnXnXnXnXnXnXnXnXnXnXnXnXnXnXtXrXwX4X4XnXnXnXnXnXnX*XU.} R ~ 7XnXnXnXnXnXnXnXnXnX&XnXnXnXnXnXnXnXnXnXnXnXnXnXnXnXnXnXnXnXnXnX",
"nXnXnXnXnXnXnXnXnXnXnXnXnXnXnXnXnXnX3X<XnXnXnXnXnX*XdX&X#.e.5.} OXP.nXnXnXnXnXnXnXnX@XnXnXnXnXnXnXnXnXnXnXnXnXnXnXnXnXnXnXnXnXnX",
"nXnXnXnXnXnXnXnXnXnXnXnXnXnXnXnXnXnX<X<XK.nXnXnXnX&XfX^.&.*.q.&.V.nXnXnXnXnXnXnXnXnX@XnXnXnXnXnXnXnXnXnXnXnXnXnXnXnXnXnXnXnXnXnX",
"nXnXnXnXnXnXnXnXnXnXnXnXnXnXnXnXnXnX<XK.J.I.nXnXnXnXnXsX8.=.0.4.B.P.L.L.nXnXnXnXnXnX@XnXnXnXnXnXnXnXnXnXnXnXnXnXnXnXnXnXnXnXnXnX",
"nXnXnXnXnXnXnXnXnXnXnXnXnXnXnXnXnXnX6XZ.7.:.nXnXnXL.L.9X'.o.9.8.'.7X1X6X6XnXnXnXnXnX@XnXnXnXnXnXnXnXnXnXnXnXnXnXnXnXnXnXnXnXnXnX",
"nXnXnXnXnXnXnXnXnXnXnXnXnXnXnXnXnXnX.X8.*.0.5.' 8XqX6X.XF.8.q.=.{.I.qXqX8X7XnXnXnXnX@XnXnXnXnXnXnXnXnXnXnXnXnXnXnXnXnXnXnXnXnXnX",
"nXnXnXnXnXnXnXnXnXnXnXnXnXnXnXnXnXnXnXnX-.0.9.=.! d.0X'.>.o.<.s.M.^ b.R.].8XnXnXnXnX#XnXnXnXnXnXnXnXnXnXnXnXnXnXnXnXnXnXnXnXnXnX",
"nXnXnXnXnXnXnXnXnXnXnXnXnXnXnXnXnXnXnXnXnXq.0.9.e.S.U.' Q Y U ! Q ` d.U.A.{.nXnXnXnX@XnXnXnXnXnXnXnXnXnXnXnXnXnXnXnXnXnXnXnXnXnX",
"nXnXnXnXnXnXnXnXnXnXnXnXnXnXnXnXnXnXnXnXnXnXr.9.Q.(.).<.o.| I :.,.1.s.s._.1.8XnXnXnX#XnXnXnXnXnXnXnXnXnXnXnXnXnXnXnXnXnXnXnXnXnX",
"nXnXnXnXnXnXnXnXnXnXnXnXnXnXnXnXnXnXnXnXnXnXnX.XQ.(.r.r.*.@.E <.y.y.,.' ~.r.7XnXnXnX@XnXnXnXnXnXnXnXnXnXnXnXnXnXnXnXnXnXnXnXnXnX",
"nXnXnXnXnXnXnXnXnXnXnXnXnXnXnXnXnXnXnXnXnXnXnXnX7XoXY.8.0.0.q.q.~.~.] U W.^.nXnXnXnXaXnXnXnXnXnXnXnXnXnXnXnXnXnXnXnXnXnXnXnXnXnX",
"nXnXnXnXnXnXnXnXnXnXnXnXnXnXnXnXnXnXnXnXnXnXnXnX7X9X).>.o.=.8.t.y.<.! Q Y._.s.nXnXnX#XnXnXnXnXnXnXnXnXnXnXnXnXnXnXnXnXnXnXnXnXnX",
"nXnXnXnXnXnXnXnXnXnXnXnXnXnXnXnXnXnXnXnXnXnXnXnX7XsX^.,.o.-.t.t.t.8.R U.v.(.N.H.H.h.{.M , nXnXnXnXnXnXnXnXnXnXnXnXnXnXnXnXnXnXnX",
"nXnXnXnXnXnXnXnXnXnXnXnXnXnXnXnXnXnXnXnXnXnXnXnXnXpXoX,.o.-.0.t.Q.q.! I.{.w.Z.J.b.p.3X:X< nXnXnXnXnXnXnXnXnXnXnXnXnXnXnXnXnXnXnX",
"nXnXnXnXnXnXnXnXnXnXnXnXnXnXnXnXnXnXnXnXnXnXnXnXnXnX9XnX2.t.!.t.Q.q.2.oXpXT.C.g.i.{.h.rXH nXnXnXnXnXnXnXnXnXnXnXnXnXnXnXnXnXnXnX",
"nXnXnXnXnXnXnXnXnXnXnXnXnXnXnXnXnXnXnXnXnXnXnXnXnXnXnX9X^.Q.t.t.Q.y.w.'..XZ._ i F `.F -Xp.nXnXnXnXnXnXnXnXnXnXnXnXnXnXnXnXnXnXnX",
"nXnXnXnXnXnXnXnXnXnXnXnXnXnXnXnXnXnXnXnXnXnXnXnXnXnXnXsXOXQ.!.t.t.e.Q.E.B.Q @ r 3 V g > # + nXnXnXnXnXnXnXnXnXnXnXnXnXnXnXnXnXnX",
"nXnXnXnXnXnXnXnXnXnXnXnXnXnXnXnXnXnXnXnXnXnXnXnXnXnXnX9X*X~.!.e.t.Q.~.^.>.y . o 4 z 3 9 , @ o nXnXnXnXnXnXnXnXnXnXnXnXnXnXnXnXnX",
"nXnXnXnXnXnXnXnXnXnXnXnXnXnXnXnXnXnXnXnXnXnXnXnXnXnXnX9X].Y.y.!.XX!.^.g.d = : = 5 q V z 5 1 nXnXnXnXnXnXnXnXnXnXnXnXnXnXnXnXnXnX",
"nXnXnXnXnXnXnXnXnXnXnXnXnXnXnXnXnXnXnXnXnXnXnXnXnXnX.XB.Q _ c.[.XXoXb.~ y o y : 5 f.v.x.n c nXnXnXnXnXnXnXnXnXnXnXnXnXnXnXnXnXnX",
"nXnXnXnXnXnXnXnXnXnXnXnXnXnXnXnXnXnXnXnXnXnXnXs p p..X] >.N.1.T.*X X5Xd e o 3 = = / k.c g < nXnXnXnXnXnXnXnXnXnXnXnXnXnXnXnXnXnX",
"nXnXnXnXnXnXnXnXnXnXnXnXnXnXnXnXnXnXnXnXnXnXL I P c.B.3.1.W.N.' ^.a.f e O B O = O 3 7 Z i.6 nXnXnXnXnXnXnXnXnXnXnXnXnXnXnXnXnXnX",
"nXnXnXnXnXnXnXnXnXnXnXnXnXnXnXnXnXnXnXnXnXnXL Q ( U.>.2.1.A.N.] m.j y - = ^ f.Z . o > 5 A C S nXnXnXnXnXnXnXnXnXnXnXnXnXnXnXnXnX",
"nXnXnXnXnXnXnXnXnXnXnXnXnXnXnXnXnXnXnXnXnXQ Q ! ` [ 6.6.A.F.d.3 & 7 i : u a.U.^ j iXK > n g < . nXnXnXnXnXnXnXnXnXnXnXnXnXnXnXnX",
"nXnXnXnXnXnXnXnXnXnXnXnXnXnXnXnXnXnXnXnXnX) X.f C a.7.S.A.^.D 0 b h j @ : M ; = t iXM.l n k e nXnXnXnXnXnXnXnXnXnXnXnXnXnXnXnXnX",
"nXnXnXnXnXnXnXnXnXnXnXnXnXnXnXnXnXnXnXnXnX( f M J T.7././.T.n S 8 h N > = h k l I E C 5XD U w nXnXnXnXnXnXnXnXnXnXnXnXnXnXnXnXnX",
"nXnXnXnXnXnXnXnXnXnXnXnXnXnXnXnXnXnXnXnXnX~ 3 ^ l.Y./..XoXl.U 0 u.v.i.; u.`.U.! $.T A &X*X$.L nXnXnXnXnXnXnXnXnXnXnXnXnXnXnXnXnX",
"nXnXnXnXnXnXnXnXnXnXnXnXnXnXnXnXnXnXnXnX~ W +.%.` T.^.oX X/ O.+ $ j M u.G B.=.$.$.| z |.o.@.} P nXnXnXnXnXnXnXnXnXnXnXnXnXnXnXnX",
"nXnXnXnXnXnXnXnXnXnXnXnXnXnXnXnXnXnXnXhXT.$.aXT.D ` XXoX$XaXN...w B U.<.b.@.$.X.#...< L | _ T T nXnXnXnXnXnXnXnXnXnXnXnXnXnXnXnX",
"nXnXnXnXnXnXnXnXnXnXnXnXnXnXnXnXnXnXnXX.%X$.N.f.C W.XX=XE._ 8.$.=.$.$.$.+XN.I : T = + p E a T nXnXnXnXnXnXnXnXnXnXnXnXnXnXnXnXnX",
"nXnXnXnXnXnXnXnXnXnXnXnXnXnXnXnXnXnXnX$.$.$.$.d k.D.oX*Xb...%.4.;X&.$.$.+.W 2 7 3 6 - p a L nXnXnXnXnXnXnXnXnXnXnXnXnXnXnXnXnXnX",
"nXnXnXnXnXnXnXnXnXnXnXnXnXnXnXnXnXnXnX$.X. .+.  B S.oX/.w.d.*...} $.Y w +.E - > - o o p Y T nXnXnXnXnXnXnXnXnXnXnXnXnXnXnXnXnXnX",
"nXnXnXnXnXnXnXnXnXnXnXnXnXnXnXnXnXnXnX#.f o.E # k.Z. X/.2./ $.u / +.: t ..L o o o - @ w | L nXnXnXnXnXnXnXnXnXnXnXnXnXnXnXnXnXnX",
"nXnXnXnXnXnXnXnXnXnXnXnXnXnXnXnXnXnXN #.w @.a 9 x.D.P.].C b.O.+ I O.l . . ; . O @ o @ w | nXnXnXnXnXnXnXnXnXnXnXnXnXnXnXnXnXnXnX",
"nXnXnXnXnXnXnXnXnXnXnXnXnXnXnXnXnXnXB O.nXw . o V J.L.x.q `.s.7 s s e = , t t z v z > nXnXnXnXnXnXnXnXnXnXnXnXnXnXnXnXnXnXnXnXnX",
"nXnXnXnXnXnXnXnXnXnXnXnXnXnXnXnXnXnXnXnXnX. o = C L.6XnX< c C c 8 - y g V N k z N v 3 nXnXnXnXnXnXnXnXnXnXnXnXnXnXnXnXnXnXnXnXnX",
"nXnXnXnXnXnXnXnXnXnXnXnXnXnXnXnXnXnXnXnXnX@ @ = 2X1X6XnX. > 7 1 7 o l V 2 >   i.3 Z h h.G.nXnXnXnXnXnXnXnXnXnXnXnXnXnXnXnXnXnXnX",
"nXnXnXnXnXnXnXnXnXnXnXnXnXnXnXnXnXnXnXnXnX$ > j.3XK..XnX$ 8 8 o nX. 3 G O nXnXnX5 m z G.<XH.nXnXnXnXnXnXnXnXnXnXnXnXnXnXnXnXnXnX",
"nXnXnXnXnXnXnXnXnXnXnXnXnXnXnXnXnXnXnXnXnX, 9 y ,XK.nXnX, m 6 nXnXo @ u., nXnXnXnX5 h # nXnXnXnXnXnXnXnXnXnXnXnXnXnXnXnXnXnXnXnX",
"nXnXnXnXnXnXnXnXnXnXnXnXnXnXnXnXnXnXnXnXnX8 8 >X<XI.nXnX@ V 3 nXnXnXO t t nXnXnXnX- q 1 nXnXnXnXnXnXnXnXnXnXnXnXnXnXnXnXnXnXnXnX",
"nXnXnXnXnXnXnXnXnXnXnXnXnXnXnXnXnXnXnXnXnXe j nXnXnXnXnX@ V @ nXnXnX+ 8 t nXnXnXnX+ b b > nXnXnXnXnXnXnXnXnXnXnXnXnXnXnXnXnXnXnX",
"nXnXnXnXnXnXnXnXnXnXnXnXnXnXnXnXnXnXnXnXnXy y nXnXnXnXnX@ Z @ nXnXnXnX, l - nXnXnXnXh k.x nXnXnXnXnXnXnXnXnXnXnXnXnXnXnXnXnXnXnX",
"nXnXnXnXnXnXnXnXnXnXnXnXnXnXnXnXnXnXnXnXnXh 5 nXnXnXnXnX@ N @ nXnXnXnX6 k.6 o nXnXnX1 F v nXnXnXnXnXnXnXnXnXnXnXnXnXnXnXnXnXnXnX",
"nXnXnXnXnXnXnXnXnXnXnXnXnXnXnXnXnXnXnXnXnXh 8 nXnXnXnXnX@ A @ nXnXnXnX1 J m - nXnXnX@ q 8 nXnXnXnXnXnXnXnXnXnXnXnXnXnXnXnXnXnXnX",
"nXnXnXnXnXnXnXnXnXnXnXnXnXnXnXnXnXnXnXnXnXl b O nXnXnXnX$ k.8 nXnXnXnXnXF n $ nXnXnXo k nXnXnXnXnXnXnXnXnXnXnXnXnXnXnXnXnXnXnXnX",
"nXnXnXnXnXnXnXnXnXnXnXnXnXnXnXnXnXnXnXnXnX< A - nXnXnXnXo x + nXnXnXnXnXg 5 nXnXnXnX- Z nXnXnXnXnXnXnXnXnXnXnXnXnXnXnXnXnXnXnXnX",
"nXnXnXnXnXnXnXnXnXnXnXnXnXnXnXnXnXnXnXnXnXX < X nXnXnXnX. * X . nXnXnXnXr , nXnXnXnX8 m nXnXnXnXnXnXnXnXnXnXnXnXnXnXnXnXnXnXnXnX",
"nXnXnXnXnXnXnXnXnXnXnXnXnXnXnXnXnXnXnXnXnXX * .   nXnXnXX & & X nXnXnXnXc , nXnXnXnX# 2 nXnXnXnXnXnXnXnXnXnXnXnXnXnXnXnXnXnXnXnX",
"nXnXnXnXnXnXnXnXnXnXnXnXnXnXnXnXnXnXnXnXnXX * % . nXnXnX  X 2 X nXnXnXnXy , nXnXnX# * o nXnXnXnXnXnXnXnXnXnXnXnXnXnXnXnXnXnXnXnX",
"nXnXnXnXnXnXnXnXnXnXnXnXnXnXnXnXnXnXnXnXnXnX. # X nXnXnXnXnXnXnXnXnXnX1 8 + nXnXnXX & X nXnXnXnXnXnXnXnXnXnXnXnXnXnXnXnXnXnXnXnX",
"nXnXnXnXnXnXnXnXnXnXnXnXnXnXnXnXnXnXnXnXnXnXnXnXnXnXnXnXnXnXnXnXnXnXnXnX. # nXnXnX. % . nXnXnXnXnXnXnXnXnXnXnXnXnXnXnXnXnXnXnXnX",
"nXnXnXnXnXnXnXnXnXnXnXnXnXnXnXnXnXnXnXnXnXnXnXnXnXnXnXnXnXnXnXnXnXnXnXnXX % nXnXnXnXX nXnXnXnXnXnXnXnXnXnXnXnXnXnXnXnXnXnXnXnXnX",
"nXnXnXnXnXnXnXnXnXnXnXnXnXnXnXnXnXnXnXnXnXnXnXnXnXnXnXnXnXnXnXnXnXnXnXnXX # nXnXnXnXnXnXnXnXnXnXnXnXnXnXnXnXnXnXnXnXnXnXnXnXnXnX",
"nXnXnXnXnXnXnXnXnXnXnXnXnXnXnXnXnXnXnXnXnXnXnXnXnXnXnXnXnXnXnXnXnXnXnXnX. # . nXnXnXnXnXnXnXnXnXnXnXnXnXnXnXnXnXnXnXnXnXnXnXnXnX",
"nXnXnXnXnXnXnXnXnXnXnXnXnXnXnXnXnXnXnXnXnXnXnXnXnXnXnXnXnXnXnXnXnXnXnXnXnXnXnXnXnXnXnXnXnXnXnXnXnXnXnXnXnXnXnXnXnXnXnXnXnXnXnXnX",
"nXnXnXnXnXnXnXnXnXnXnXnXnXnXnXnXnXnXnXnXnXnXnXnXnXnXnXnXnXnXnXnXnXnXnXnXnXnXnXnXnXnXnXnXnXnXnXnXnXnXnXnXnXnXnXnXnXnXnXnXnXnXnXnX"
};
