/* XPM */
static char *result[] = {
/* columns rows colors chars-per-pixel */
"64 64 224 2 ",
"   c #050501",
".  c #0C0401",
"X  c #090901",
"o  c #070804",
"O  c #130401",
"+  c #1C0400",
"@  c #130A03",
"#  c #1B0B02",
"$  c #150E09",
"%  c #1B130D",
"&  c #1F1203",
"*  c #240400",
"=  c #230C02",
"-  c #2C0B02",
";  c #310D01",
":  c #3A0901",
">  c #231105",
",  c #2B1204",
"<  c #25140A",
"1  c #2B1608",
"2  c #2B1A0B",
"3  c #321505",
"4  c #3B1504",
"5  c #3D1B05",
"6  c #341B0B",
"7  c #3A1D0A",
"8  c #331607",
"9  c #2D1A11",
"0  c #3E210E",
"q  c #3D2413",
"w  c #440A03",
"e  c #560802",
"r  c #441B06",
"t  c #421D0A",
"y  c #471B0A",
"u  c #581905",
"i  c #6B0B03",
"p  c #760400",
"a  c #691706",
"s  c #7A1E0E",
"d  c #44220D",
"f  c #4B230C",
"g  c #52250C",
"h  c #5A270B",
"j  c #543504",
"k  c #442514",
"l  c #492914",
"z  c #532B13",
"x  c #5B2D12",
"c  c #542A15",
"v  c #593417",
"b  c #642B0D",
"n  c #662A0B",
"m  c #71220D",
"M  c #622C12",
"N  c #6C2F10",
"B  c #643315",
"V  c #6B3312",
"C  c #6C3C1D",
"Z  c #663718",
"A  c #783915",
"S  c #712E11",
"D  c #724719",
"F  c #7E551C",
"G  c #684014",
"H  c #7D4B23",
"J  c #8B0B03",
"K  c #9D0201",
"L  c #940C04",
"P  c #8B1B05",
"I  c #831004",
"U  c #9B1604",
"Y  c #AD0100",
"T  c #A60902",
"R  c #B30100",
"E  c #BD0301",
"W  c #B40B03",
"Q  c #A51C07",
"!  c #B81D06",
"~  c #8A240E",
"^  c #94260B",
"/  c #943205",
"(  c #893514",
")  c #963816",
"_  c #A7270B",
"`  c #B82A0C",
"'  c #B93309",
"]  c #A93814",
"[  c #B73917",
"{  c #B02512",
"}  c #C40100",
"|  c #C90201",
" . c #C90A03",
".. c #D60001",
"X. c #C51A08",
"o. c #D61405",
"O. c #E40100",
"+. c #EB0300",
"@. c #EA0A02",
"#. c #F50100",
"$. c #FD0000",
"%. c #F40E03",
"&. c #EA1809",
"*. c #F7170A",
"=. c #C62706",
"-. c #D22507",
";. c #C5350A",
":. c #D7380E",
">. c #C42610",
",. c #C72B13",
"<. c #D92512",
"1. c #C83615",
"2. c #DB3817",
"3. c #E92913",
"4. c #F52A14",
"5. c #FA2815",
"6. c #E23B15",
"7. c #E73618",
"8. c #FD341B",
"9. c #FD3C1D",
"0. c #F53519",
"q. c #F1330D",
"w. c #FF3921",
"e. c #FA3A22",
"r. c #97490E",
"t. c #87431B",
"y. c #99481B",
"u. c #A6471B",
"i. c #B34219",
"p. c #AB551C",
"a. c #BC7604",
"s. c #A06A06",
"d. c #8E4925",
"f. c #8F4B28",
"g. c #8B4724",
"h. c #8A5722",
"j. c #914923",
"k. c #BA4A21",
"l. c #A3572A",
"z. c #B95E28",
"x. c #AD4F20",
"c. c #9D7136",
"v. c #B8672C",
"b. c #B96533",
"n. c #B46837",
"m. c #B17B34",
"M. c #AA7034",
"N. c #DD5907",
"B. c #CC431D",
"V. c #C84618",
"C. c #D95C13",
"Z. c #CC500E",
"A. c #EB410A",
"S. c #EA4718",
"D. c #FB4818",
"F. c #F75312",
"G. c #F96908",
"H. c #E57C07",
"J. c #FA7B08",
"K. c #E9681D",
"L. c #FC651C",
"P. c #F97716",
"I. c #C94A22",
"U. c #D34921",
"Y. c #CA5B24",
"T. c #D55924",
"R. c #E44722",
"E. c #FE4E2B",
"W. c #FA4724",
"Q. c #E65424",
"!. c #FA5727",
"~. c #FF5D31",
"^. c #CE6628",
"/. c #D9662C",
"(. c #D46D30",
"). c #EA652A",
"_. c #FB6922",
"`. c #E97926",
"'. c #F87B26",
"]. c #ED6A33",
"[. c #FE6835",
"{. c #EF7533",
"}. c #F77837",
"|. c #D77543",
" X c #D88B0A",
".X c #E88407",
"XX c #F88909",
"oX c #F5930A",
"OX c #F99B07",
"+X c #FD8417",
"@X c #F9981A",
"#X c #D8AA09",
"$X c #FEA50A",
"%X c #F6BA09",
"&X c #FFAB1E",
"*X c #FABA1D",
"=X c #C4893B",
"-X c #FD8629",
";X c #FE9826",
":X c #E98634",
">X c #FF8C33",
",X c #FD8C3B",
"<X c #FA8336",
"1X c #FE9339",
"2X c #FDA925",
"3X c #F9B439",
"4X c #FBB22D",
"5X c #FBCC08",
"6X c #F7C83B",
"7X c #FA8743",
"8X c #FC9545",
"9X c #FF935A",
"0X c #DAA64B",
"qX c #F4B943",
"wX c #EFC65A",
"eX c #F2C656",
"rX c #F6D075",
"tX c #FBDD89",
"yX c #FDEB9A",
"uX c #FEE192",
"iX c #FFF1AD",
"pX c #FFF3B9",
"aX c #FFF9D5",
"sX c None",
/* pixels */
"sXsXsXsXsXsXsXsXsXsXsXsXsXsXsXsXsXsXsXsX+XoX@X@X+XsXsXsXsXsXsXsXsXsXsXsXsXsXsXsXsXsXsXsXsXsXsXsXsXsXsXsXsXsXsXsXsXsXsXsXsXsXsXsX",
"sXsXsXsXsXsXsXsXsXsXsXsXsXsXsXsXsXsXsX+X$X*XqX3X3X-XsXsXsXsXsXsXsXsXsXsXsXsXsXsXsXsXsXsXsXsXsXsXsXsXsXsXsXsXsXsXsXsXsXsXsXsXsXsX",
"sXsXsXsXsXsXsXsXsXsXsXsXsXsXsXsXsXsXsXoX4XwXyXyXwX2XsXsXsXsXsXsXsXsXsXsXsXsXsXsXsXsXsXsXsXsXsXsXsXsXsXsXsXsXsXsXsXsXsXsXsXsXsXsX",
"sXsXsXsXsXsXsXsXsXsXsXsXsXsXsXsXsXsXsX2XeXyXaXaXtX3XsXsXsXsXsXsXsXsXsXsXsXsXsXsXsXsXsXG sXsXsXsXsXsXsXsXsXsXsXsXsXsXsXsXsXsXsXsX",
"sXsXsXsXsXsXsXsXsXsXsXsXsXsXsXsXsXsXsX2XwXiXaXaXuX3XsXsXsXsXsXsXsXsXsXsXsXsXsXsXsXsXm.F sXsXsXsXsXsXsXsXsXsXsXsXsXsXsXsXsXsXsXsX",
"sXsXsXsXsXsXsXsXsXsXsXsXsXsXsXsXsXsXsX&XeXyXpXyXrX4XsXsXsXsXsXsXsXsXsXsXsXsXsXsXsXsX=Xh.sXsXsXsXsXsXsXsXsXsXsXsXsXsXsXsXsXsXsXsX",
"sXsXsXsXsXsXsXsXsXsXsXsXsXsXsXsXsXsXsXsX$X6XrXeX6XsXsXsXsXsXsXsXsXsXsXsXsXsXsXsXsXsXm.c.sXsXsXsXsXsXsXsXsXsXsXsXsXsXsXsXsXsXsXsX",
"sXsXsXsXsXsXsXsXsXsXsXsXsXsXsXsXsXsXsXsXsX&X5X%XsXsXsXsXsXsXsX<XK.sXsXsXsXsXsXsXsXsXc.m.sXsXsXsXsXsXsXsXsXsXsXsXsXsXsXsXsXsXsXsX",
"sXsXsXsXsXsXsXsXsXsXsXsXsXsXsXsXsXsXsXsXsXOX$XOX$XsXsX7XI.P p |.7XsXsXsXsXsXsXsXsXsXf.b.sXsXsXsXsXsXsXsXsXsXsXsXsXsXsXsXsXsXsXsX",
"sXsXsXsXsXsXsXsXsXsXsXsXsXsXsXsXsXsXsXsXsX2XXXJ.oXsX7XQ.*.E.3.k.9XsXsXsXsXsXsXsXsXsXf.b.sXsXsXsXsXsXsXsXsXsXsXsXsXsXsXsXsXsXsXsX",
"sXsXsXsXsXsXsXsXsXsXsXsXsXsXsXsXsXsXsXsXsX`.G.F.K.sXsXo.8.W.4.E |.sXsXsXsXsXsXsXsXsXf.b.sXsXsXsXsXsXsXsXsXsXsXsXsXsXsXsXsXsXsXsX",
"sXsXsXsXsXsXsXsXsXsXsXsXsXsXsXsXsXsXsXsXsXC.D.5.B.'.-X[.D.W.0.X.).sXP.sXsXsXsXsXsXsXf.b.sXsXsXsXsXsXsXsXsXsXsXsXsXsXsXsXsXsXsXsX",
"sXsXsXsXsXsXsXsXsXsXsXsXsXsXsXsXsXsXsXsXsXsX*.*.*.C.<X8X!.9.D.X.`.K.-X<X-XsXsXsXsXsXd.b.sXsXsXsXsXsXsXsXsXsXsXsXsXsXsXsXsXsXsXsX",
"sXsXsXsXsXsXsXsXsXsXsXsXsXsXsXsXsXsXsXsXsXsX&.%.&.Q.-X>X{.D.e.<.`.+X-X>X>X>XsXsXsXsXd.b.sXsXsXsXsXsXsXsXsXsXsXsXsXsXsXsXsXsXsXsX",
"sXsXsXsXsXsXsXsXsXsXsXsXsXsXsXsXsXsXsXsXsXsX1.*.%.] :X>XQ.7.<.~ j.[ ^.Y.^.1XsXsXsXsXf.b.sXsXsXsXsXsXsXsXsXsXsXsXsXsXsXsXsXsXsXsX",
"sXsXsXsXsXsXsXsXsXsXsXsXsXsXsXsXsXsXsXsXsXsXsX7.4.0.B./.[ L T K ^ ] i.2.1.(.sXsXsXsXf.b.sXsXsXsXsXsXsXsXsXsXsXsXsXsXsXsXsXsXsXsX",
"sXsXsXsXsXsXsXsXsXsXsXsXsXsXsXsXsXsXsXsXsXsXsXQ.8.E.D.U.<.W Y } ! ,.{ 6.8.,.sXsXa.b f.b.sXsXsXsXsXsXsXsXsXsXsXsXsXsXsXsXsXsXsXsX",
"sXsXsXsXsXsXsXsXsXsXsXsXsXsXsXsXsXsXsXsXsXsXsX`.8.9.!.R.3. .Y &.4.6.[ >.8.0.y  X%X5Xv.b.sXsXsXsXsXsXsXsXsXsXsXsXsXsXsXsXsXsXsXsX",
"sXsXsXsXsXsXsXsXsXsXsXsXsXsXsXsXsXsXsXsXsXsXsX'.<X).Q.W.D.8.5.5.9.2._ K 4.D.v.t.j j C M.sXsXsXsXsXsXsXsXsXsXsXsXsXsXsXsXsXsXsXsX",
"sXsXsXsXsXsXsXsXsXsXsXsXsXsXsXsXsXsXsXsXsXsXsXsX,X<X].1.4.4.4.5.3.7.{ K ,.G.y.g 5 < # 0 sXsXsXsXsXsXsXsXsXsXsXsXsXsXsXsXsXsXsXsX",
"sXsXsXsXsXsXsXsXsXsXsXsXsXsXsXsXsXsXsXsXsXsXsXsX'.,XQ.,.3.8.w.w.5.6.[ { Z.G.h t Z g 0 1 @ sXsXsXsXsXsXsXsXsXsXsXsXsXsXsXsXsXsXsX",
"sXsXsXsXsXsXsXsXsXsXsXsXsXsXsXsXsXsXsXsXsXsXsXsXsX,X}.1.3.5.w.w.5.0.B.K.A.N.* h H j.t.6 < sXsXsXsXsXsXsXsXsXsXsXsXsXsXsXsXsXsXsX",
"sXsXsXsXsXsXsXsXsXsXsXsXsXsXsXsXsXsXsXsXsXsXsXsXsX<X7X/.R.~.[.~.e.0.1.<XA./ + n Y.^.v V 1 < sXsXsXsXsXsXsXsXsXsXsXsXsXsXsXsXsXsX",
"sXsXsXsXsXsXsXsXsXsXsXsXsXsXsXsXsXsXsXsXsXsXsXsXsXsX7X8X{.~.~.E.5.5.R./.q.u + ; x.D r l.k 6 < sXsXsXsXsXsXsXsXsXsXsXsXsXsXsXsXsX",
"sXsXsXsXsXsXsXsXsXsXsXsXsXsXsXsXsXsXsXsXsXsXsXsXsXsXsX8X7X[.[.E.5.5.e.[ ;.+ - * 4 f # 2 q b # sXsXsXsXsXsXsXsXsXsXsXsXsXsXsXsXsX",
"sXsXsXsXsXsXsXsXsXsXsXsXsXsXsXsXsXsXsXsXsXsXsXsXsXsXsX1X8X~.E.W.W.w.E.U.a * M * , c.v 4 A V sXsXsXsXsXsXsXsXsXsXsXsXsXsXsXsXsXsX",
"sXsXsXsXsXsXsXsXsXsXsXsXsXsXsXsXsXsXsXsXsXsXsXsXsXsXsX1X7XY.R.E.E.E.}.C.w O 4 y D tXh.= y 4 sXsXsXsXsXsXsXsXsXsXsXsXsXsXsXsXsXsX",
"sXsXsXsXsXsXsXsXsXsXsXsXsXsXsXsXsXsXsXsXsXsXsXsXsXsXsX`._ _ { i.[.[.:X_ = = , + X t.& c = e w sXsXsXsXsXsXsXsXsXsXsXsXsXsXsXsXsX",
"sXsXsXsXsXsXsXsXsXsXsXsXsXsXsXsXsXsXsXsXsXsXsXsXsXsX>XV.' { ` [ ].[.r.u * u ( ) i | # Z sX$.K sXsXsXsXsXsXsXsXsXsXsXsXsXsXsXsXsX",
"sXsXsXsXsXsXsXsXsXsXsXsXsXsXsXsXsXsXsXsXsXsXsXi i <X{.,.>.` ;.[ Y.B.) ; * ( Y.(  ...= B sX$.O.sXsXsXsXsXsXsXsXsXsXsXsXsXsXsXsXsX",
"sXsXsXsXsXsXsXsXsXsXsXsXsXsXsXsXsXsXsXsXsXsXsXJ Q (.I.:.` =.;.[ v.D : 4 : ( M I $.#.3 l.sX$.} T sXsXsXsXsXsXsXsXsXsXsXsXsXsXsXsX",
"sXsXsXsXsXsXsXsXsXsXsXsXsXsXsXsXsXsXsXsXsXsXP T _ I.:.6.:.-._ h o 8 y 4 O S n +.O.+., n.sXE Y  .sXsXsXsXsXsXsXsXsXsXsXsXsXsXsXsX",
"sXsXsXsXsXsXsXsXsXsXsXsXsXsXsXsXsXsXsXsXsXU ^ W ~ t.A.D.6.-.a $ k 8 f 7 + m @.$.Q P 4 n.].R K sXsXsXsXsXsXsXsXsXsXsXsXsXsXsXsXsX",
"sXsXsXsXsXsXsXsXsXsXsXsXsXsXsXsXsXsXsXsXsX_ ! P 8 b.F.L.D.1.6 c q ( y.t d v.#.! M t 4 x.4.} sXsXsXsXsXsXsXsXsXsXsXsXsXsXsXsXsXsX",
"sXsXsXsXsXsXsXsXsXsXsXsXsXsXsXsXsXsXsXsXsX_ T h g b.S._.!.) { a < z f ] >.=XU C l k 8 h #.} sXsXsXsXsXsXsXsXsXsXsXsXsXsXsXsXsXsX",
"sXsXsXsXsXsXsXsXsXsXsXsXsXsXsXsXsXsXsXsXsX=.u _ o.Q.2.S.L.M >.O.K W +.$.$.%.L d 7 7 1 * +.E Y sXsXsXsXsXsXsXsXsXsXsXsXsXsXsXsXsX",
"sXsXsXsXsXsXsXsXsXsXsXsXsXsXsXsXsXsXsXsXt.O.+.<.X.d.S.!.x.] =X$.'.Y.$.$.R $.J 8 1 , = : X.` R sXsXsXsXsXsXsXsXsXsXsXsXsXsXsXsXsX",
"sXsXsXsXsXsXsXsXsXsXsXsXsXsXsXsXsXsXsXH 0XR.6.0Xy.) D.!.t.W #.$.1.(.#.p : O.w 6 5 8 = = o.=.Y sXsXsXsXsXsXsXsXsXsXsXsXsXsXsXsXsX",
"sXsXsXsXsXsXsXsXsXsXsXsXsXsXsXsXsXsXsXsXI.0.$. .l ;.F._.) &.[ $.| | +.# ; w + O . O O O p sXsXsXsXsXsXsXsXsXsXsXsXsXsXsXsXsXsXsX",
"sXsXsXsXsXsXsXsXsXsXsXsXsXsXsXsXsXsXsXsX$.$.$.W 2 1.L.'.i.@.2...t W ..6 0 @ , O O O = + p R sXsXsXsXsXsXsXsXsXsXsXsXsXsXsXsXsXsX",
"sXsXsXsXsXsXsXsXsXsXsXsXsXsXsXsXsXsXsX~ $./ %.p O ] L.L.y.m o.E =  .U y O O O O , = , . e sXsXsXsXsXsXsXsXsXsXsXsXsXsXsXsXsXsXsX",
"sXsXsXsXsXsXsXsXsXsXsXsXsXsXsXsXsXsXsXm $.r.$.> d V.G.L.g.n.z.) 3 4 ; y , 5 g c M B g n sXsXsXsXsXsXsXsXsXsXsXsXsXsXsXsXsXsXsXsX",
"sXsXsXsXsXsXsXsXsXsXsXsXsXsXsXsXsXsXsXL  .' W X t i.P.Z.z G ^.h.k * = 4 k N V M V b h # sXsXsXsXsXsXsXsXsXsXsXsXsXsXsXsXsXsXsXsX",
"sXsXsXsXsXsXsXsXsXsXsXsXsXsXsXsXsXsXsXW J .Xn O 4 r.+XsX2 9 c C l 7 O ; g 6 , = > 5 A - sXsXsXsXsXsXsXsXsXsXsXsXsXsXsXsXsXsXsXsX",
"sXsXsXsXsXsXsXsXsXsXsXsXsXsXsXsXsXsXsXsXsXsXj + , Z.oXsX@ @ # 6 6 6 @ + , g @ sXp.r f f a.a.sXsXsXsXsXsXsXsXsXsXsXsXsXsXsXsXsXsX",
"sXsXsXsXsXsXsXsXsXsXsXsXsXsXsXsXsXsXsXsXsX= O + #XG.XXsX. > 6 = # sXO # = 6 d 1 sXu 4 0 .X.XsXsXsXsXsXsXsXsXsXsXsXsXsXsXsXsXsXsX",
"sXsXsXsXsXsXsXsXsXsXsXsXsXsXsXsXsXsXsXsXsX= < s.%XXXH.sX+ k 7 # sXsXsXsXO = l C 2 sX> 0   sXsXsXsXsXsXsXsXsXsXsXsXsXsXsXsXsXsXsX",
"sXsXsXsXsXsXsXsXsXsXsXsXsXsXsXsXsXsXsXsXsX> g * H.XXN.sXO h g sXsXsXsXsXsX# 6 Z d @ @ x k > sXsXsXsXsXsXsXsXsXsXsXsXsXsXsXsXsXsX",
"sXsXsXsXsXsXsXsXsXsXsXsXsXsXsXsXsXsXsXsXsX= x   sXsXsXsXO b r sXsXsXsXsXsXsX< 6 sXsX. x C 6 sXsXsXsXsXsXsXsXsXsXsXsXsXsXsXsXsXsX",
"sXsXsXsXsXsXsXsXsXsXsXsXsXsXsXsXsXsXsXsXsX= h   sXsXsXsX@ N 5 sXsXsXsXsXsX> 6 = sXsXsX7 Z v sXsXsXsXsXsXsXsXsXsXsXsXsXsXsXsXsXsX",
"sXsXsXsXsXsXsXsXsXsXsXsXsXsXsXsXsXsXsXsXsX= g . sXsXsXsXsXn 5 sXsXsXsXsXsX, f # sXsXsX- 6 sXsXsXsXsXsXsXsXsXsXsXsXsXsXsXsXsXsXsX",
"sXsXsXsXsXsXsXsXsXsXsXsXsXsXsXsXsXsXsXsXsX# g + sXsXsXsXsXf &   sXsXsXsXsX1 8 . sXsXO 8 8 sXsXsXsXsXsXsXsXsXsXsXsXsXsXsXsXsXsXsX",
"sXsXsXsXsXsXsXsXsXsXsXsXsXsXsXsXsXsXsXsXsX+ 6 . sXsXsXsXsX% % . sXsXsXsXo . @   X . , x sXsXsXsXsXsXsXsXsXsXsXsXsXsXsXsXsXsXsXsX",
"sXsXsXsXsXsXsXsXsXsXsXsXsXsXsXsXsXsXsXsXsX$ < o sXsXsXsXsX@ $   sXsXsXsX. . .   X . # 0 sXsXsXsXsXsXsXsXsXsXsXsXsXsXsXsXsXsXsXsX",
"sXsXsXsXsXsXsXsXsXsXsXsXsXsXsXsXsXsXsXsXsXsX$ o sXsXsXsXsX. % . sXsXsXsXX . sX  X X . sXsXsXsXsXsXsXsXsXsXsXsXsXsXsXsXsXsXsXsXsX",
"sXsXsXsXsXsXsXsXsXsXsXsXsXsXsXsXsXsXsXsXsXsX@ % . sXsXsXsXo % $ sXsXsXsXsXsXsXsX  sXsXsXsXsXsXsXsXsXsXsXsXsXsXsXsXsXsXsXsXsXsXsX",
"sXsXsXsXsXsXsXsXsXsXsXsXsXsXsXsXsXsXsXsXsXsXo < $ sXsXsXsX. % $ . sXsXsXsXsXsXsXsXsXsXsXsXsXsXsXsXsXsXsXsXsXsXsXsXsXsXsXsXsXsXsX",
"sXsXsXsXsXsXsXsXsXsXsXsXsXsXsXsXsXsXsXsXsXsXo @ X sXsXsXsXsXsXsXsXsXsXsXsXsXsXsXsXsXsXsXsXsXsXsXsXsXsXsXsXsXsXsXsXsXsXsXsXsXsXsX",
"sXsXsXsXsXsXsXsXsXsXsXsXsXsXsXsXsXsXsXsXsXsXsXsXsXsXsXsXsXsXsXsXsXsXsXsXsXsXsXsXsXsXsXsXsXsXsXsXsXsXsXsXsXsXsXsXsXsXsXsXsXsXsXsX",
"sXsXsXsXsXsXsXsXsXsXsXsXsXsXsXsXsXsXsXsXsXsXsXsXsXsXsXsXsXsXsXsXsXsXsXsXsXsXsXsXsXsXsXsXsXsXsXsXsXsXsXsXsXsXsXsXsXsXsXsXsXsXsXsX",
"sXsXsXsXsXsXsXsXsXsXsXsXsXsXsXsXsXsXsXsXsXsXsXsXsXsXsXsXsXsXsXsXsXsXsXsXsXsXsXsXsXsXsXsXsXsXsXsXsXsXsXsXsXsXsXsXsXsXsXsXsXsXsXsX",
"sXsXsXsXsXsXsXsXsXsXsXsXsXsXsXsXsXsXsXsXsXsXsXsXsXsXsXsXsXsXsXsXsXsXsXsXsXsXsXsXsXsXsXsXsXsXsXsXsXsXsXsXsXsXsXsXsXsXsXsXsXsXsXsX",
"sXsXsXsXsXsXsXsXsXsXsXsXsXsXsXsXsXsXsXsXsXsXsXsXsXsXsXsXsXsXsXsXsXsXsXsXsXsXsXsXsXsXsXsXsXsXsXsXsXsXsXsXsXsXsXsXsXsXsXsXsXsXsXsX",
"sXsXsXsXsXsXsXsXsXsXsXsXsXsXsXsXsXsXsXsXsXsXsXsXsXsXsXsXsXsXsXsXsXsXsXsXsXsXsXsXsXsXsXsXsXsXsXsXsXsXsXsXsXsXsXsXsXsXsXsXsXsXsXsX"
};
