/* XPM */
static char *result[] = {
/* columns rows colors chars-per-pixel */
"64 64 237 2 ",
"   c #020301",
".  c #0C0401",
"X  c #050805",
"o  c #090802",
"O  c #070708",
"+  c #140501",
"@  c #1B0400",
"#  c #130A02",
"$  c #1C0B03",
"%  c #150E09",
"&  c #1B130D",
"*  c #230400",
"=  c #230D03",
"-  c #2C0C02",
";  c #290600",
":  c #320E02",
">  c #3C0D01",
",  c #261205",
"<  c #2B1204",
"1  c #2C1409",
"2  c #27190F",
"3  c #341405",
"4  c #3C1503",
"5  c #3C1B05",
"6  c #331B0A",
"7  c #3B1C0A",
"8  c #371607",
"9  c #251911",
"0  c #341D12",
"q  c #3B2314",
"w  c #322111",
"e  c #450801",
"r  c #560301",
"t  c #421403",
"y  c #421C05",
"u  c #4B1C05",
"i  c #421C0A",
"p  c #4B1707",
"a  c #531D04",
"s  c #5C1805",
"d  c #680601",
"f  c #750701",
"g  c #661B06",
"h  c #7C190A",
"j  c #751A06",
"k  c #43220C",
"l  c #4C240D",
"z  c #47260C",
"x  c #5B2207",
"c  c #52240B",
"v  c #5B250B",
"b  c #552D0D",
"n  c #5C2B0E",
"m  c #472613",
"M  c #532B12",
"N  c #5E2B13",
"B  c #5C3214",
"V  c #593319",
"C  c #523413",
"Z  c #622409",
"A  c #612A0C",
"S  c #69290C",
"D  c #722C0E",
"F  c #642E10",
"G  c #692E13",
"H  c #762A14",
"J  c #6B3513",
"K  c #6C391A",
"L  c #673817",
"P  c #773917",
"I  c #72300B",
"U  c #563620",
"Y  c #75401D",
"T  c #684114",
"R  c #694526",
"E  c #7A4721",
"W  c #8D0A03",
"Q  c #830301",
"!  c #970802",
"~  c #9C1C05",
"^  c #961A07",
"/  c #851F06",
"(  c #A20B03",
")  c #A80300",
"_  c #B50802",
"`  c #AA1806",
"'  c #B31E03",
"]  c #BA1708",
"[  c #852209",
"{  c #9A2509",
"}  c #9A3706",
"|  c #9B2E12",
" . c #833912",
".. c #993A15",
"X. c #842D1A",
"o. c #A52507",
"O. c #B6260A",
"+. c #AA3D19",
"@. c #B73916",
"#. c #B72610",
"$. c #C70A03",
"%. c #D60602",
"&. c #C31406",
"*. c #C61809",
"=. c #D91505",
"-. c #E90602",
";. c #F30100",
":. c #FD0000",
">. c #F80B03",
",. c #EA1308",
"<. c #F3160A",
"1. c #FD1B0D",
"2. c #F51508",
"3. c #C7260A",
"4. c #D8270B",
"5. c #D92B12",
"6. c #C43A17",
"7. c #CD3816",
"8. c #D83817",
"9. c #D33D0C",
"0. c #E6240C",
"q. c #F3270C",
"w. c #E3380C",
"e. c #E82812",
"r. c #FD2414",
"t. c #FD2916",
"y. c #FD2E1A",
"u. c #F32A16",
"i. c #E93717",
"p. c #FB331B",
"a. c #F53D1E",
"s. c #FC3B1E",
"d. c #F93517",
"f. c #FE3821",
"g. c #8C4218",
"h. c #97471B",
"j. c #8F4B0F",
"k. c #A8451A",
"l. c #B6421A",
"z. c #B3561D",
"x. c #9F7005",
"c. c #B07208",
"v. c #8E4A25",
"b. c #8C4826",
"n. c #855221",
"m. c #995829",
"M. c #A34E21",
"N. c #B84922",
"B. c #A65725",
"V. c #BE5424",
"C. c #BA5C28",
"Z. c #9A6B2B",
"A. c #93622B",
"S. c #B96533",
"D. c #B56D37",
"F. c #B37633",
"G. c #A97D35",
"H. c #D9470C",
"J. c #C44713",
"K. c #C9491C",
"L. c #D74719",
"P. c #D9561A",
"I. c #C95016",
"U. c #E74719",
"Y. c #F6531D",
"T. c #F84C09",
"R. c #C57704",
"E. c #DF7C06",
"W. c #D36C07",
"Q. c #FC6509",
"!. c #E47A07",
"~. c #F97907",
"^. c #F46D18",
"/. c #F6751A",
"(. c #FA7B17",
"). c #EE7911",
"_. c #CD5326",
"`. c #C95928",
"'. c #D75724",
"]. c #CD4822",
"[. c #E44E22",
"{. c #E84822",
"}. c #FE4424",
"|. c #FF4A28",
" X c #FB4824",
".X c #E55525",
"XX c #FD572A",
"oX c #FF5F31",
"OX c #D86729",
"+X c #C86836",
"@X c #D56737",
"#X c #C8773E",
"$X c #DC7637",
"%X c #C6632F",
"&X c #E76428",
"*X c #FA6829",
"=X c #FB7922",
"-X c #F87828",
";X c #FB6935",
":X c #EC7937",
">X c #FE783A",
",X c #F67736",
"<X c #EB7727",
"1X c #F97B42",
"2X c #E37443",
"3X c #FB8707",
"4X c #F78811",
"5X c #F4970D",
"6X c #DEAA06",
"7X c #F0AF09",
"8X c #D48C39",
"9X c #FC8526",
"0X c #FE8A26",
"qX c #FD892A",
"wX c #FB802A",
"eX c #FC8539",
"rX c #FE9032",
"tX c #EB8531",
"yX c #DBA130",
"uX c #F8B332",
"iX c #F6CC09",
"pX c #F9C02D",
"aX c #BD904B",
"sX c #EB8846",
"dX c #FB8648",
"fX c #FE9548",
"gX c #FA8B54",
"hX c #FE905A",
"jX c #F3BD56",
"kX c #E6AB4C",
"lX c #FDAA67",
"zX c #F1C256",
"xX c #F4C464",
"cX c #FBCA7A",
"vX c #FFE898",
"bX c #FFEEA6",
"nX c None",
/* pixels */
"nXnXnXnXnXnXnXnXnXnXnXnXnXnXnXnXnXnXnXnXnXnXnXnXnXnXnXnXnXnXnXnXnXnXnXnXnXnXnXnXnXnXnXnXnXnXnXnXnXnXnXnXnXnXnXnXnXnXnXnXnXnXnXnX",
"nXnXnXnXnXnXnXnXnXnXnXnXnXnXnXnXnXnXnXnXnXnXnXnXnXnXnXnXnXnXnXnXnXnXnXnXnXnXnXnXnXnXnXnXnXnXnXnXnXnXnXnXnXnXnXnXnXnXnXnXnXnXnXnX",
"nXnXnXnXnXnXnXnXnXnXnXnXnXnXnXnXnXnXnXnXnXnXnXnXnXnXnX1XeXnXnXnXnXnXnXnXnXnXnXnXnXnXnXnXnXnXnXnXnXnXnXnXnXnXnXnXnXnXnXnXnXnXnXnX",
"nXnXnXnXnXnXnXnXnXnXnXnXnXnXnXnXnXnXnXnXnXnXnXnXnXnXnXnXnX,XgXnXnXnXnXnXnXnXnXnXnXnXnXT nXnXnXnXnXnXnXnXnXnXnXnXnXnXnXnXnXnXnXnX",
"nXnXnXnXnXnXnXnXnXnXnXnXnXnXnXnXnXnXnXnXnXnXnXnXnXnXnXnXnXnXhXnXnXnXnXnXnXnXnXnXnXnXG.E nXnXnXnXnXnXnXnXnXnXnXnXnXnXnXnXnXnXnXnX",
"nXnXnXnXnXnXnXnXnXnXnXnXnXnXnXnXnXnXnXnXnXnXnXnXnXnXnXnX,XnXgXlXnXnXnXnXnXnXnXnXnXnX8XA.nXnXnXnXnXnXnXnXnXnXnXnXnXnXnXnXnXnXnXnX",
"nXnXnXnXnXnXnXnXnXnXnXnXnXnXnXnXnXnXnXnXnXnXnXnXnXnXnXnXnXnXdXlXhXnXnXnXnXnXnXnXnXnXZ.Z.nXnXnXnXnXnXnXnXnXnXnXnXnXnXnXnXnXnXnXnX",
"nXnXnXnXnXnXnXnXnXnXnXnXnXnXnXnXnXnXnXnXnXnXnXnXnXnXnXnXnXnXnX2X+X+XnXnX(.nXnXnXnXnXA.F.nXnXnXnXnXnXnXnXnXnXnXnXnXnXnXnXnXnXnXnX",
"nXnXnXnXnXnXnXnXnXnXnXnXnXnXnXnXnXnXnXnXnXnXnXnXnXnXnXnXnXnX9.%.*.! { ~.4XnXnXnXnXnXv.S.nXnXnXnXnXnXnXnXnXnXnXnXnXnXnXnXnXnXnXnX",
"nXnXnXnXnXnXnXnXnXnXnXnXnXnXnXnXnXnXnXnXnXnXnXnXnXnXnX:XnXnX=.1.r.<.} 9XnXnXnXnXnXnXv.S.nXnXnXnXnXnXnXnXnXnXnXnXnXnXnXnXnXnXnXnX",
"nXnXnXnXnXnXnXnXnXnXnXnXnXnXnXnXnXnXnXnXnXnXnXnXnXnXnXnX:XnX=.-.1.<.=.(.(.nXnXnXnXnXv.S.nXnXnXnXnXnXnXnXnXnXnXnXnXnXnXnXnXnXnXnX",
"nXnXnXnXnXnXnXnXnXnXnXnXnXnXnXnXnXnXnXnXnXnXnXnXnXnXnXnXnXnX0.%.t.1.` qX0X=XnXnXnXnXv.S.nXnXnXnXnXnXnXnXnXnXnXnXnXnXnXnXnXnXnXnX",
"nXnXnXnXnXnXnXnXnXnXnXnXnXnXnXnXnXnXnXnXnXnXnXnXnXnX/.nXnXnX/.&.,.p.7.qX-X0XnXnXnXnXv.S.nXnXnXnXnXnXnXnXnXnXnXnXnXnXnXnXnXnXnXnX",
"nXnXnXnXnXnXnXnXnXnXnXnXnXnXnXnXnXnXnXnXnXnXnXnXnX/.0X9X/.nXL.i.p.t.P.tX=XqX9X=XnXnXv.S.nXnXnXnXnXnXnXnXnXnXnXnXnXnXnXnXnXnXnXnX",
"nXnXnXnXnXnXnXnXnXnXnXnXnXnXnXnXnXnXnXnXnXnXnXnXnX=X0X0X&X7.3.e.f. XS.M.k.I.@XrXnXnXv.S.nXnXnXnXnXnXnXnXnXnXnXnXnXnXnXnXnXnXnXnX",
"nXnXnXnXnXnXnXnXnXnXnXnXnXnXnXnXnXnXnXnXnXnXnXnXnX<X&X'.l.#.#.&.] 3.| s | +.@.tXwXnXv.S.nXnXnXnXnXnXnXnXnXnXnXnXnXnXnXnXnXnXnXnX",
"nXnXnXnXnXnXnXnXnXnXnXnXnXnXnXnXnXnXnXnXnXnXnXnXH.e.XXXXs.e.,.$.$.] *.] +.+.a.:X^.nXv.S.nXnXnXnXnXnXnXnXnXnXnXnXnXnXnXnXnXnXnXnX",
"nXnXnXnXnXnXnXnXnXnXnXnXnXnXnXnXnXnXnXnXnXnXnXW.H.0.XXXX Xt.r.1.-.] u.5.8.@. X,XnXnXb.S.nXnXnXnXnXnXnXnXnXnXnXnXnXnXnXnXnXnXnXnX",
"nXnXnXnXnXnXnXnXnXnXnXnXnXnXnXnXnXnXnXxXvXxXyX4XQ.T.s..XL.q.f.y.1.3.p.u.[.`.,XeXnXnXv.S.nXnXnXnXnXnXnXnXnXnXnXnXnXnXnXnXnXnXnXnX",
"nXnXnXnXnXnXnXnXnXnXnXnXnXnXnXnXnXnXuXvXbXbXjX5X(./.rX;Xi.&.<.r.y.u.f.|.[.1X1XeXnXnXb.S.nXnXnXnXnXnXnXnXnXnXnXnXnXnXnXnXnXnXnXnX",
"nXnXnXnXnXnXnXnXnXnXnXnXnXnXnXnXnXnXuXcXvXbXjXuX5XnX0X-Xq.$.2.y.p.y.}.{.l.@XsXC.OXnXv.D.nXnXnXnXnXnXnXnXnXnXnXnXnXnXnXnXnXnXnXnX",
"nXnXnXnXnXnXnXnXnXnXnXnXnXnXnXnXnXnXnXzXcXjXuXnXnXnXnXnXL.) ;.1.r.f.}.{.`.sX#X7.,.'.| 3.nXnXnXnXnXnXnXnXnXnXnXnXnXnXnXnXnXnXnXnX",
"nXnXnXnXnXnXnXnXnXnXnXnXnXnXnXnXnXnXnXnXnXnXnXnXnXnXnXnXnX@.=.1.t.|.}.u.'.fX+X4.>.u.5.5.J.nXnXnXnXnXnXnXnXnXnXnXnXnXnXnXnXnXnXnX",
"nXnXnXnXnXnXnXnXnXnXnXnXnXnXnXnXnXnXnXnXnXnXnXnXnXnXnXnXnXH.,.r.f.XX|.i.OXfXnXnXnXL._.8.W nXnXnXnXnXnXnXnXnXnXnXnXnXnXnXnXnXnXnX",
"nXnXnXnXnXnXnXnXnXnXnXnXnXnXnXnXnXnXnXnXnXnXnXnXnXnXnXnXnX'.<.f.f.XX}.a.OXfXnXnXo.w.T.z.nXnXnXnXnXnXnXnXnXnXnXnXnXnXnXnXnXnXnXnX",
"nXnXnXnXnXnXnXnXnXnXnXnXnXnXnXnXnXnXnXnXnXnXnXnXnXnXnXnXnX<Xu.}.|.|.|.}.'.2XK.O.3.T.Q.~.nXnXnXnXnXnXnXnXnXnXnXnXnXnXnXnXnXnXnXnX",
"nXnXnXnXnXnXnXnXnXnXnXnXnXnXnXnXnXnXnXnXnXnXnXnXg nXnXnXnX'.i.}.XXoXoX{.tXJ.O.j ..u } ~.3XnXnXnXnXnXnXnXnXnXnXnXnXnXnXnXnXnXnXnX",
"nXnXnXnXnXnXnXnXnXnXnXnXnXnXnXnXnXnXnXnXnXnXnX/ ! d nXnX.X@.l.K.1X1X;X%X{ ` 4 I t - x j.7X!.i c nXnXnXnXnXnXnXnXnXnXnXnXnXnXnXnX",
"nXnXnXnXnXnXnXnXnXnXnXnXnXnXnXnXnXnXnXnXnXnX[ ^ ! ( j nX6.].[._.@XgX,XuX} } 5 A $ Z ..g.W.7Xg.Z nXnXnXnXnXnXnXnXnXnXnXnXnXnXnXnX",
"nXnXnXnXnXnXnXnXnXnXnXnXnXnXnXnXnXnXnXnXnXnX{ ( ! ' o.J.K.[..X7.@.1X`.^ Z V.= @ $ t D  .h.7Xx.6 nXnXnXnXnXnXnXnXnXnXnXnXnXnXnXnX",
"nXnXnXnXnXnXnXnXnXnXnXnXnXnXnXnXnXnXnXnXnXnX` &.! h Z 7.{.L.8.O.o.#XP 5 c x + ; a 4 , +Xh.iX6XnXnXnXnXnXnXnXnXnXnXnXnXnXnXnXnXnX",
"nXnXnXnXnXnXnXnXnXnXnXnXnXnXnXnXnXnXnXnXnXnXO.O.t 7 H U.U.8.0.{ t X q Z - @ P . : 8 A M m 7XiXX nXnXnXnXnXnXnXnXnXnXnXnXnXnXnXnX",
"nXnXnXnXnXnXnXnXnXnXnXnXnXnXnXnXnXnXnXnXnXnXo.t v R l.Y.Y.w.3.: 0 U v D : > V.8 @ ; S G c C x.  nXnXnXnXnXnXnXnXnXnXnXnXnXnXnXnX",
"nXnXnXnXnXnXnXnXnXnXnXnXnXnXnXnXnXnXnXnXnX+ : Z g.B.L.*X*XU.h q R 1 u u * a +.h.. - i c y k y 8 nXnXnXnXnXnXnXnXnXnXnXnXnXnXnXnX",
"nXnXnXnXnXnXnXnXnXnXnXnXnXnXnXnXnXnXnXR D.( ! ] 5.8.[.>X*XU.B X.2  .K A . t > s c 3 x c P P B nXnXnXnXnXnXnXnXnXnXnXnXnXnXnXnXnX",
"nXnXnXnXnXnXnXnXnXnXnXnXnXnXnXnXnXnXnXR `.q.>.].e.V OXeX>Xk.*.f 1 B.M.n.@ 3 $ , 3 3 6 B J Y C nXnXnXnXnXnXnXnXnXnXnXnXnXnXnXnXnX",
"nXnXnXnXnXnXnXnXnXnXnXnXnXnXnXnXnXnXnXnX`.a.5.kXh L .X>X-XN.,._ # t Z  .i <X`. .v v = 7 K z 1 nXnXnXnXnXnXnXnXnXnXnXnXnXnXnXnXnX",
"nXnXnXnXnXnXnXnXnXnXnXnXnXnXnXnXnXnXnX:.:.:.:.%.k m.,X>X+XN.kX;.d y k.M.k m.g.I N m.C 8 C.L 7 nXnXnXnXnXnXnXnXnXnXnXnXnXnXnXnXnX",
"nXnXnXnXnXnXnXnXnXnXnXnXnXnXnXnXnXnXnX%.:.] :.) , `.>X;XS.*.,.:.:.%.{ [ t H | @.0.aXF.$ M M m nXnXnXnXnXnXnXnXnXnXnXnXnXnXnXnXnX",
"nXnXnXnXnXnXnXnXnXnXnXnXnXnXnXnXnXnXnX=._ v :.> w '.>XdXl.>.0.:.8X=.:.:.'.>.:.:.:.d & e C L c nXnXnXnXnXnXnXnXnXnXnXnXnXnXnXnXnX",
"nXnXnXnXnXnXnXnXnXnXnXnXnXnXnXnXnXnX=.>.h ;._ . K P.eX;XO.*.i.;.`.q.:.1.8Xw.-._ :.p - r Q j f nXnXnXnXnXnXnXnXnXnXnXnXnXnXnXnXnX",
"nXnXnXnXnXnXnXnXnXnXnXnXnXnXnXnXnXnX-.>.H -.Q + 4 I.*X*XG P -.W g :.! Q :.W   d :.= + : e ) ) nXnXnXnXnXnXnXnXnXnXnXnXnXnXnXnXnX",
"nXnXnXnXnXnXnXnXnXnXnXnXnXnXnXnXnXnXnXnXnXnX@ @ z I.(.OXq $X:.p d ;.y p ;.f @ ; * * = * r ) nXnXnXnXnXnXnXnXnXnXnXnXnXnXnXnXnXnX",
"nXnXnXnXnXnXnXnXnXnXnXnXnXnXnXnXnXnXnXnXnXnX@ - m ).9XnX$ m ~ q ` %.8 e _ > = 8 8 7 $ nXnXnXnXnXnXnXnXnXnXnXnXnXnXnXnXnXnXnXnXnX",
"nXnXnXnXnXnXnXnXnXnXnXnXnXnXnXnXnXnXnXnXnXnX$ 8 x.0X0XnXnX= 7 k p e - $ A G l c v l b R.!.nXnXnXnXnXnXnXnXnXnXnXnXnXnXnXnXnXnXnX",
"nXnXnXnXnXnXnXnXnXnXnXnXnXnXnXnXnXnXnXnXnXnX= 7 k.3X9XnXnX, B 7 . $ 5 M 7 1 nX+ i 1 k !.!.R.nXnXnXnXnXnXnXnXnXnXnXnXnXnXnXnXnXnX",
"nXnXnXnXnXnXnXnXnXnXnXnXnXnXnXnXnXnXnXnXnX+ k m !.3XrXnXnX1 B , nX+ 3 P , nXnX. c B c nXnXnXnXnXnXnXnXnXnXnXnXnXnXnXnXnXnXnXnXnX",
"nXnXnXnXnXnXnXnXnXnXnXnXnXnXnXnXnXnXnXnXnX@ i c.3X4X@XnXnX= A = nXnX@ J 3 nXnX+ u J b nXnXnXnXnXnXnXnXnXnXnXnXnXnXnXnXnXnXnXnXnX",
"nXnXnXnXnXnXnXnXnXnXnXnXnXnXnXnXnXnXnXnXnX# v 5 5XE.nXnXnX- F   nXnX+ y 7 nXnXnX8 J i nXnXnXnXnXnXnXnXnXnXnXnXnXnXnXnXnXnXnXnXnX",
"nXnXnXnXnXnXnXnXnXnXnXnXnXnXnXnXnXnXnXnXnX# n - nXnXnXnXnX8 n + nXnX$ 8 5 nXnXnX= l 7 nXnXnXnXnXnXnXnXnXnXnXnXnXnXnXnXnXnXnXnXnX",
"nXnXnXnXnXnXnXnXnXnXnXnXnXnXnXnXnXnXnXnXnXnXA , nXnXnXnXnX5 b + nXnXnX6 M nXnXnX$ K i nXnXnXnXnXnXnXnXnXnXnXnXnXnXnXnXnXnXnXnXnX",
"nXnXnXnXnXnXnXnXnXnXnXnXnXnXnXnXnXnXnXnXnXnXn , nXnXnXnXnXl F + nXnXnX6 L 1 nXnX$ n.Y nXnXnXnXnXnXnXnXnXnXnXnXnXnXnXnXnXnXnXnXnX",
"nXnXnXnXnXnXnXnXnXnXnXnXnXnXnXnXnXnXnXnXnXnXk + nXnXnXnXnXl K X nXnXnX6 n.i nXnX. v.K nXnXnXnXnXnXnXnXnXnXnXnXnXnXnXnXnXnXnXnXnX",
"nXnXnXnXnXnXnXnXnXnXnXnXnXnXnXnXnXnXnXnXnXnX& . nXnXnXnXnX+ % o nXnXnX, K m nXnX@ M K nXnXnXnXnXnXnXnXnXnXnXnXnXnXnXnXnXnXnXnXnX",
"nXnXnXnXnXnXnXnXnXnXnXnXnXnXnXnXnXnXnXnXnXnX# O o nXnXnXnX. 9 O nXnXnX, L = nXnX. 5 z nXnXnXnXnXnXnXnXnXnXnXnXnXnXnXnXnXnXnXnXnX",
"nXnXnXnXnXnXnXnXnXnXnXnXnXnXnXnXnXnXnXnXnXnXX & o nXnXnXnX. & & nXnXnX= y nXnXnX. 5 7 nXnXnXnXnXnXnXnXnXnXnXnXnXnXnXnXnXnXnXnXnX",
"nXnXnXnXnXnXnXnXnXnXnXnXnXnXnXnXnXnXnXnXnXnXo 9 & nXnXnXnXO & % nXnXnX6 i nXnXnX@ J 7 nXnXnXnXnXnXnXnXnXnXnXnXnXnXnXnXnXnXnXnXnX",
"nXnXnXnXnXnXnXnXnXnXnXnXnXnXnXnXnXnXnXnXnXnXnXO o nXnXnXnXnXnXnXnXnXnX8 y nXnXnX, m nXnXnXnXnXnXnXnXnXnXnXnXnXnXnXnXnXnXnXnXnXnX",
"nXnXnXnXnXnXnXnXnXnXnXnXnXnXnXnXnXnXnXnXnXnXnXnXnXnXnXnXnXnXnXnXnXnXnX7 # nXnXnX$ 0 o nXnXnXnXnXnXnXnXnXnXnXnXnXnXnXnXnXnXnXnXnX",
"nXnXnXnXnXnXnXnXnXnXnXnXnXnXnXnXnXnXnXnXnXnXnXnXnXnXnXnXnXnXnXnXnXnXnXo % o nXnX. % o nXnXnXnXnXnXnXnXnXnXnXnXnXnXnXnXnXnXnXnXnX",
"nXnXnXnXnXnXnXnXnXnXnXnXnXnXnXnXnXnXnXnXnXnXnXnXnXnXnXnXnXnXnXnXnXnXnXnXw . nXnX. w o nXnXnXnXnXnXnXnXnXnXnXnXnXnXnXnXnXnXnXnXnX",
"nXnXnXnXnXnXnXnXnXnXnXnXnXnXnXnXnXnXnXnXnXnXnXnXnXnXnXnXnXnXnXnXnXnXnXo 9 % nXnXo & % nXnXnXnXnXnXnXnXnXnXnXnXnXnXnXnXnXnXnXnXnX",
"nXnXnXnXnXnXnXnXnXnXnXnXnXnXnXnXnXnXnXnXnXnXnXnXnXnXnXnXnXnXnXnXnXnXnXnXnXnXnXnXnXnXnXnXnXnXnXnXnXnXnXnXnXnXnXnXnXnXnXnXnXnXnXnX",
"nXnXnXnXnXnXnXnXnXnXnXnXnXnXnXnXnXnXnXnXnXnXnXnXnXnXnXnXnXnXnXnXnXnXnXnXnXnXnXnXnXnXnXnXnXnXnXnXnXnXnXnXnXnXnXnXnXnXnXnXnXnXnXnX"
};
