/* XPM */
static char *result[] = {
/* columns rows colors chars-per-pixel */
"64 64 234 2 ",
"   c #040400",
".  c #0C0501",
"X  c #0B0800",
"o  c #130401",
"O  c #1C0501",
"+  c #120A04",
"@  c #1C0A01",
"#  c #1C0C08",
"$  c #1E1204",
"%  c #230C02",
"&  c #2A0D01",
"*  c #230500",
"=  c #370C01",
"-  c #241204",
";  c #2C1609",
":  c #361303",
">  c #391906",
",  c #361E11",
"<  c #3C230B",
"1  c #440601",
"2  c #431402",
"3  c #481B07",
"4  c #531C06",
"5  c #571A07",
"6  c #4F130B",
"7  c #750400",
"8  c #6B1907",
"9  c #731305",
"0  c #48270B",
"q  c #5C2409",
"w  c #592709",
"e  c #57370D",
"r  c #492A16",
"t  c #55310F",
"y  c #62260B",
"u  c #652A0C",
"i  c #6C2607",
"p  c #742C0D",
"a  c #7A2708",
"s  c #653E0F",
"d  c #77340B",
"f  c #6A2D11",
"g  c #653818",
"h  c #773915",
"j  c #712D13",
"k  c #703C22",
"l  c #584206",
"z  c #6B450F",
"x  c #784B0E",
"c  c #6F4713",
"v  c #784C11",
"b  c #795210",
"n  c #840B01",
"m  c #961805",
"M  c #8E1E09",
"N  c #A30000",
"B  c #AC0200",
"V  c #BA0702",
"C  c #A91704",
"Z  c #B71406",
"A  c #872E0D",
"S  c #9A2809",
"D  c #88320E",
"F  c #97350C",
"G  c #832B14",
"H  c #8A3716",
"J  c #953817",
"K  c #932E18",
"L  c #A7270A",
"P  c #A83A0D",
"I  c #BA3B0B",
"U  c #A53A13",
"Y  c #B63B16",
"T  c #B6200E",
"R  c #C80902",
"E  c #D40100",
"W  c #DF0501",
"Q  c #C71605",
"!  c #DA1708",
"~  c #ED0201",
"^  c #E50801",
"/  c #F60000",
"(  c #FE0100",
")  c #FA0C02",
"_  c #E91608",
"`  c #F51606",
"'  c #DC2807",
"]  c #C93D0A",
"[  c #D73907",
"{  c #C43815",
"}  c #D93512",
"|  c #C42302",
" . c #FD2909",
".. c #EB3409",
"X. c #F53904",
"o. c #E43918",
"O. c #FB3816",
"+. c #99580D",
"@. c #874A14",
"#. c #9B481D",
"$. c #985615",
"%. c #8C4D12",
"&. c #AA5D09",
"*. c #A64515",
"=. c #B74918",
"-. c #AD4F12",
";. c #BB7906",
":. c #B36A1C",
">. c #AF6F0F",
",. c #884D26",
"<. c #9C4623",
"1. c #8D5624",
"2. c #90582E",
"3. c #A85420",
"4. c #A04F21",
"5. c #8A6532",
"6. c #AE6A31",
"7. c #CA480F",
"8. c #D84B0F",
"9. c #D9570A",
"0. c #C64B19",
"q. c #D64B12",
"w. c #C8591D",
"e. c #D95715",
"r. c #E74C09",
"t. c #FA4D03",
"y. c #FA4301",
"u. c #E65808",
"i. c #F85604",
"p. c #E64914",
"a. c #FC4D19",
"s. c #EA5719",
"d. c #FE5C13",
"f. c #F85517",
"g. c #C57A06",
"h. c #D87409",
"j. c #DA6017",
"k. c #D46A15",
"l. c #F96906",
"z. c #EA7906",
"x. c #F67406",
"c. c #FB7A08",
"v. c #EA681A",
"b. c #FB6418",
"n. c #F7761A",
"m. c #FA7A18",
"M. c #E36811",
"N. c #D95926",
"B. c #C85724",
"V. c #E75823",
"C. c #FD5D24",
"Z. c #FE5423",
"A. c #EF4821",
"S. c #CA642A",
"D. c #C56B37",
"F. c #D67128",
"G. c #E66926",
"H. c #FE6C22",
"J. c #F76A25",
"K. c #E87627",
"L. c #F97424",
"P. c #FD7B25",
"I. c #FA7C28",
"U. c #F57623",
"Y. c #F37A33",
"T. c #D77D42",
"R. c #BB8308",
"E. c #C68805",
"W. c #CE9205",
"Q. c #D7950E",
"!. c #E98707",
"~. c #FD8204",
"^. c #FC8A06",
"/. c #FE9C09",
"(. c #F99307",
"). c #FA8816",
"_. c #F39612",
"`. c #DCA105",
"'. c #E6AB06",
"]. c #EBA509",
"[. c #FEAC0A",
"{. c #FEA209",
"}. c #ECB208",
"|. c #FEB20B",
" X c #FCBC0A",
".X c #F3B708",
"XX c #FDAA19",
"oX c #FCB51A",
"OX c #EFA319",
"+X c #CA8034",
"@X c #EC8528",
"#X c #FB8828",
"$X c #FD9528",
"%X c #FE8C32",
"&X c #F98533",
"*X c #FA9736",
"=X c #FEAC20",
"-X c #EDB82A",
";X c #FBBD28",
":X c #FCA637",
">X c #EBB431",
",X c #FBC20A",
"<X c #FAC808",
"1X c #FBCC17",
"2X c #FED709",
"3X c #FCC722",
"4X c #F5C93A",
"5X c #AE8C45",
"6X c #D09149",
"7X c #F98549",
"8X c #FC9944",
"9X c #FF925B",
"0X c #FB8E59",
"qX c #D2A747",
"wX c #ECAB48",
"eX c #E7B14E",
"rX c #F4BC41",
"tX c #FE9B60",
"yX c #FDB16B",
"uX c #F3C749",
"iX c #F3C25D",
"pX c #F2C94F",
"aX c #EFC961",
"sX c #F5D476",
"dX c #F4C565",
"fX c #F8DD85",
"gX c #FADA86",
"hX c #FEEB99",
"jX c #FAE28B",
"kX c #FFEEAA",
"lX c #FFF2B9",
"zX c #FFF2B7",
"xX c #FFF9D5",
"cX c None",
/* pixels */
"cXcXcXcXcXcXcXcXcXcXcXcXcXcXcXcXcXcXcXcXcXcXcXcXcXcXcXcXcXcXcXcXcXcXcXcXcXcXcXcXcXcXcXcXcXcXcXcXcXcXcXcXcXcXcXcXcXcXcXcXcXcXcXcX",
"cXcXcXcXcXcXcXcXcXcXcXcXcXcXcXcXcXcXcXcXcXcXcXcXcXcXcXcXcXcXcXcXcXcXcXcXcXcXcXcXcXcXcXcXcXcXcXcXcXcXcXcXcXcXcXcXcXcXcXcXcXcXcXcX",
"cXcXcXcXcXcXcXcXcXcXcXcXcXcXcXcXcXcXcXcXcXcXcXcXcXcXcXcXcXcXcXcXcXcXcXcXcXcXcXcXcXcXcXcXcXcXcXcXcXcXcXcXcXcXcXcXcXcXcXcXcXcXcXcX",
"cXcXcXcXcXcXcXcXcXcXcXcXcXcXcXcXcXcXcXcXcXcXcXcXcXcXcXcXcXcXcXcXcXcXcXcXcXcXcXcXcXcXcXcXcXcXcXcXcXcXcXcXcXcXcXcXcXcXcXcXcXcXcXcX",
"cXcXcXcXcXcXcXcXcXcXcXcXcXcXcXcXcXcXcXcXcXcXcXcXcXcXcXcXcXcXcXcXcXcXcXcXcXcXcXcXcXcX6.cXcXcXcXcXcXcXcXcXcXcXcXcXcXcXcXcXcXcXcXcX",
"cXcXcXcXcXcXcXcXcXcXcXcXcXcXcXcXcXcXcXcXcXcXcXcXcXcXcXcXcXcXcXcXcXcXcXcXcXcXcXcXcX1.qXe cXcXcXcXcXcXcXcXcXcXcXcXcXcXcXcXcXcXcXcX",
"cXcXcXcXcXcXcXcXcXcXcXcXcXcXcXcXcXcXcXcXcXcXcXcXcXcXcXcXcXcXcXcXcXcXcXcXcXcXcXcXcX6.qXs cXcXcXcXcXcXcXcXcXcXcXcXcXcXcXcXcXcXcXcX",
"cXcXcXcXcXcXcXcXcXcXcXcXcXcXcXcXcXcXcXcXcXcXcXcXcXcXcXcXcXcXcXcXcXcXcXcXcXcXcXcXcX1.qXs cXcXcXcXcXcXcXcXcXcXcXcXcXcXcXcXcXcXcXcX",
"cXcXcXcXcXcXcXcXcXcXcXcXcXcXcXcXcXcXcXcXcXcXcXcXcXcXcXcXcXcXcXcXcXcXcXcXcXcXcXcXcXG 8XcXcXcXcXcXcXcXcXcXcXcXcXcXcXcXcXcXcXcXcXcX",
"cXcXcXcXcXcXcXcXcXcXcXcXcXcXcXcXcXcXcXcXcXcXcXcXcXcXcXcXcXcXcXcXcXcXcXcX7XcXcXcXcXG :XcXcXcXcXcXcXcXcXcXcXcXcXcXcXcXcXcXcXcXcXcX",
"cXcXcXcXcXcXcXcXcXcXcXcXcXcXcXcXcXcXcXcXcXcXcXcXcXcXcXcXcXcXcXcXcXcXcXcX7XyX7XcXcX9.*XcXcXcXcXcXcXcXcXcXcXcXcXcXcXcXcXcXcXcXcXcX",
"cXcXcXcXcXcXcXcXcXcXcXcXcXcXcXcXcXcXcXcXcXcXcXcXcXcXcXcXcXcXcXcXcXcXcXcXcX9XtX7XcX9.:XcXcXcXcXcXcXcXcXcXcXcXcXcXcXcXcXcXcXcXcXcX",
"cXcXcXcXcXcXcXcXcXcXcXcXcXcXcXcXcXcXcXcXcXcXcXcXcXcXcXcXcXcXcXcXcXcXcXcXcXcXtX9XcXD :XcXcXcXcXcXcXcXcXcXcXcXcXcXcXcXcXcXcXcXcXcX",
"cXcXcXcXcXcXcXcXcXcXcXcXcXcXcXcXcXcXcXcXcXcXcXcXcXcXcXcXcXcXcXcXcXcXcXcXcX0XyX9XcXD :XcXcXcXcXcXcXcXcXcXcXcXcXcXcXcXcXcXcXcXcXcX",
"cXcXcXcXcXcXcXcXcXcXcXcXcXcXcXcXcXcXcXcXcXcXcXcXcXcXcXcXcXcXcXcXcXcXcXcXN.K H D.cX9.@XcXcXcXcXcXcXcXcXcXcXcXcXcXcXcXcXcXcXcXcXcX",
"cXcXcXcXcXcXcXcXcXcXcXcXcXcXcXcXcXcXcXcXcXcXcXcXcXcXcXcXcXcXcXcXcXcX7X9.~ _ Z C v.0.s.cXcXcXcXcXcXcXcXcXcXcXcXcXcXcXcXcXcXcXcXcX",
"cXcXcXcXcXcXcXcXcXcXcXcXcXcXcXcXcXcXcXcXcXcXcXcXcXcXcXcXcXcXcXcXcXL.&XH.O.O.Z.p.&XG.v.cXcXcXcXcXcXcXcXcXcXcXcXcXcXcXcXcXcXcXcXcX",
"cXcXcXcXcXcXcXcXcXcXcXcXcXcXcXcXcXcXcXcXcXcXcXcXcXcXcXcXcXcXcXP.n.U.I.I.O.O.C.Z.D.K.I.cXcXcXcXcXcXcXcXcXcXcXcXcXcXcXcXcXcXcXcXcX",
"cXcXcXcXcXcXcXcXcXcXcXcXcXcXcXcXcXcXcXcXcXcXcXcXcXcXcXcXcXcX#X#X#XM.K.%XO.Z.C.J.S.c U.U.cXcXcXcXcXcXcXcXcXcXcXcXcXcXcXcXcXcXcXcX",
"cXcXcXcXcXcXcXcXcXcXcXcXcXcXcXcXcXcXcXcXcXcXcXcXcXcXcXcXcXI.%XG.J.L.H.*XH.d.I.P.@X0.j.n.cXcXcXcXcXcXcXcXcXcXcXcXcXcXcXcXcXcXcXcX",
"cXcXcXcXcXcXcXcXcXcXcXcXcXcXcXcXcXcXcXcXcXcXcXcXcXcXcXcXcXI.Y.V.e.K.#X*X:X$X).$X@Xb.L.m.cXcXcXcXcXcXcXcXcXcXcXcXcXcXcXcXcXcXcXcX",
"cXcXcXcXcXcXcXcXcXcXcXcXcXcXcXcXcXcXcXcXcXcXcXcXcXcXcXcXI.I.C.s.I.v.Q.XXoX,XXX|./.).$Xm.cXcXcXcXcXcXcXcXcXcXcXcXcXcXcXcXcXcXcXcX",
"cXcXcXcXcXcXcXcXcXcXcXcXcXcXcXcXcXcXcXcXcXcXcXcXcXcXcXcXI.&X&XZ.#XOXoX[.,X,X,X|.[.XX_.=.cXcXcXcXcXcXcXcXcXcXcXcXcXcXcXcXcXcXcXcX",
"cXcXcXcXcXcXcXcXcXcXcXcXcXcXcXcXcXcXcXcXcXcXcXcXcXcXcXcXcX8X:X#XXX|.;X3X1X<X,X,X,X X/.u.P cXcXcXcXcXcXcXcXcXcXcXcXcXcXcXcXcXcXcX",
"cXcXcXcXcXcXcXcXcXcXcXcXcXcXcXcXcXcXcXcXcXcXcXcXcXcXcXcXcX8X*XXXoX;XpXfXfXaXpX3X<X.X|.cX;.$ cXcXcXcXcXcXcXcXcXcXcXcXcXcXcXcXcXcX",
"cXcXcXcXcXcXcXcXcXcXcXcXcXcXcXcXcX6 7 cXcXcXcXcXcXcXcXcX8X:X$XXX3XeXjXlXlXzXgXaX<X.X}.<X2Xl cXcXcXcXcXcXcXcXcXcXcXcXcXcXcXcXcXcX",
"cXcXcXcXcXcXcXcXcXcXcXcXcXcXcXcXcX;.,X|.cXcXcXcXcXcXcXcX8X:X/. XuXgXlXxXxXxXxXsX4X<X'.;.x 0 cXcXcXcXcXcXcXcXcXcXcXcXcXcXcXcXcXcX",
"cXcXcXcXcXcXcXcXcXcXcXcXcXcXcXcXcX.X X[.cXcXcX1 cXcXcX&X%X@XXX X>XhXxXxXxXxXxXkXpX1X'.;.z ; cXcXcXcXcXcXcXcXcXcXcXcXcXcXcXcXcXcX",
"cXcXcXcXcXcXcXcXcXcXcXcXcXcXcXcXcX|.[.{.(.cXF n n 1 cX&XN.k.]. XuXhXxXxXxXxXxXzXdX.X`.>.e $ o cXcXcXcXcXcXcXcXcXcXcXcXcXcXcXcXcX",
"cXcXcXcXcXcXcXcXcXcXcXcXcXcXcXcX!./.(.^.~.cXn V N n F.S.] 9.(.[.1XfXlXxXxXxXxXhX4X}.W.+.z < @ cXcXcXcXcXcXcXcXcXcXcXcXcXcXcXcXcX",
"cXcXcXcXcXcXcXcXcXcXcXcXcXcXcXcX!.~.c.c.u.I C Q 9 k 1.Y [ i.~.[.<XuXsXlXxXxXkXdX>X`.>.>.z < - cXcXcXcXcXcXcXcXcXcXcXcXcXcXcXcXcX",
"cXcXcXcXcXcXcXcXcXcXcXcXcXcXcXcXz.z.l.i.7.| Q 2 o 2.<...[ t.c./.[.1X4XsXsXsXiX3XQ.W.W.F.$.r < cXcXcXcXcXcXcXcXcXcXcXcXcXcXcXcXcX",
"cXcXcXcXcXcXcXcXcXcXcXcXcXcXcXcX&.x.i.t.X.m 2 y 0 6.{ ..X.t.l.h.W.'.}.1X4X-X-X`.R.+.g.w.g w # cXcXcXcXcXcXcXcXcXcXcXcXcXcXcXcXcX",
"cXcXcXcXcXcXcXcXcXcXcXcXcXcXcXcXcXr.t.q.L & : 0.g D...O.y.t.9.b R.W.`.'.`.`.`.>.+.x %.w h 3.h > cXcXcXcXcXcXcXcXcXcXcXcXcXcXcXcX",
"cXcXcXcXcXcXcXcXcXcXcXcXcXcXcXcXcXcXX.eX^ R V o.Y V.Z.H.y.X.t v :.:.W.W.E.g.Q.W.%.t 2 ; 4 4.g r cXcXcXcXcXcXcXcXcXcXcXcXcXcXcXcX",
"cXcXcXcXcXcXcXcXcXcXcXcXcXcXcXcXcXcXcXO.6X( V.` J T.d.U.d.I k 2.c b b %.x &.h.F.e.F 5X5.% d y 3 cXcXcXcXcXcXcXcXcXcXcXcXcXcXcXcX",
"cXcXcXcXcXcXcXcXcXcXcXcXcXcXcXcXcXcXcX` A.) eXF.r D.J.n.v.3 ! 6 k $.:.b 0 d P P 7.G eX-Xi *.r.a cXcXcXcXcXcXcXcXcXcXcXcXcXcXcXcX",
"cXcXcXcXcXcXcXcXcXcXcXcXcXcXcXcXcXcX( ( ( ( ) A ,.B.f.a.=.} / : < 4.$.e < a a @.F Z ] M.cXD C 7 cXcXcXcXcXcXcXcXcXcXcXcXcXcXcXcX",
"cXcXcXcXcXcXcXcXcXcXcXcXcXcXcXcXcXcXL ( T ) ^ - ,.o.d.r.j =.! 7 @ d w *.t &Xb.i.X.( m cXcX..( N cXcXcXcXcXcXcXcXcXcXcXcXcXcXcXcX",
"cXcXcXcXcXcXcXcXcXcXcXcXcXcXcXcXcX( Q _ cX( 9 ; <.a.l.p.Y +XV./ 7 w 0.=.- U.i. .( ( N Z ( ( ( E cXcXcXcXcXcXcXcXcXcXcXcXcXcXcXcX",
"cXcXcXcXcXcXcXcXcXcXcXcXcXcXcXcXcXH ! Q ( / = D V.l.m.r.{ / / ( ( ^ ! ' Q } ( ( V ( B ~ ( ( ( / cXcXcXcXcXcXcXcXcXcXcXcXcXcXcXcX",
"cXcXcXcXcXcXcXcXcXcXcXcXcXcXcXcXcXcX( cX( T = 8 f.m.c.=._ 0. .) 6X..( ( N.wXW C 1 R % ~ / / cX( cXcXcXcXcXcXcXcXcXcXcXcXcXcXcXcX",
"cXcXcXcXcXcXcXcXcXcXcXcXcXcXcXcXcXcXcXcXcXcX3 L e.~.x.0 ! K ( W q.( / / ~ / i 2 4 3 + V ( ( cXcXcXcXcXcXcXcXcXcXcXcXcXcXcXcXcXcX",
"cXcXcXcXcXcXcXcXcXcXcXcXcXcXcXcXcXcXcXcXcXcX: F 7.^.x.u @.a./ 6 M ( 5 i R ( * o o O   ^ ( ( cXcXcXcXcXcXcXcXcXcXcXcXcXcXcXcXcXcX",
"cXcXcXcXcXcXcXcXcXcXcXcXcXcXcXcXcXcXcXcXcXcX3 F 9./.cXcXcXZ Z 0 R ~ : & E V o O @ o 0 ' / cXcXcXcXcXcXcXcXcXcXcXcXcXcXcXcXcXcXcX",
"cXcXcXcXcXcXcXcXcXcXcXcXcXcXcXcXcXcXcXcXcXcX5 *.!./.cXcXcX> s.J E R a L F 5 i q.p.i g.z.;.cXcXcXcXcXcXcXcXcXcXcXcXcXcXcXcXcXcXcX",
"cXcXcXcXcXcXcXcXcXcXcXcXcXcXcXcXcXcXcXcXcXcXq e.(.c.cXcXcXf n.y . 3 j U I i 5 i P *.;./.!.cXcXcXcXcXcXcXcXcXcXcXcXcXcXcXcXcXcXcX",
"cXcXcXcXcXcXcXcXcXcXcXcXcXcXcXcXcXcXcXcXcXcX+.(.^.cXcXcXcX5 D cX@ O q.y % cXcX4 8.=.  cXcXcXcXcXcXcXcXcXcXcXcXcXcXcXcXcXcXcXcXcX",
"cXcXcXcXcXcXcXcXcXcXcXcXcXcXcXcXcXcXcXcXcXo &.(.c.cXcXcXcXa a cXcXO H F @ cXcX4 *.=.  cXcXcXcXcXcXcXcXcXcXcXcXcXcXcXcXcXcXcXcXcX",
"cXcXcXcXcXcXcXcXcXcXcXcXcXcXcXcXcXcXcXcXcX* A : cXcXcXcXcXP 8 cXcXO : 7.O cXcX& A U @ cXcXcXcXcXcXcXcXcXcXcXcXcXcXcXcXcXcXcXcXcX",
"cXcXcXcXcXcXcXcXcXcXcXcXcXcXcXcXcXcXcXcXcX= P cXcXcXcXcX+ 8.q cXcXO : *.% cXcX% w p % cXcXcXcXcXcXcXcXcXcXcXcXcXcXcXcXcXcXcXcXcX",
"cXcXcXcXcXcXcXcXcXcXcXcXcXcXcXcXcXcXcXcXcXq P cXcXcXcXcX- j.8 cXcXcX& f 3 cXcX* u #.; cXcXcXcXcXcXcXcXcXcXcXcXcXcXcXcXcXcXcXcXcX",
"cXcXcXcXcXcXcXcXcXcXcXcXcXcXcXcXcXcXcXcXcXp =.cXcXcXcXcX: U.d cXcXcX% f *.@ cXcXp N.t cXcXcXcXcXcXcXcXcXcXcXcXcXcXcXcXcXcXcXcXcX",
"cXcXcXcXcXcXcXcXcXcXcXcXcXcXcXcXcXcXcXcXcXu B.cXcXcXcXcX% 3.: cXcXcX+ f N.q cXcXH j.J cXcXcXcXcXcXcXcXcXcXcXcXcXcXcXcXcXcXcXcXcX",
"cXcXcXcXcXcXcXcXcXcXcXcXcXcXcXcXcXcXcXcXcX+ # cXcXcXcXcXX - . cXcXcXcXu v.y cXcXq w.J cXcXcXcXcXcXcXcXcXcXcXcXcXcXcXcXcXcXcXcXcX",
"cXcXcXcXcXcXcXcXcXcXcXcXcXcXcXcXcXcXcXcXcXX $ o cXcXcXcX. , # cXcXcXcX0 F cXcXcX5 J 0 cXcXcXcXcXcXcXcXcXcXcXcXcXcXcXcXcXcXcXcXcX",
"cXcXcXcXcXcXcXcXcXcXcXcXcXcXcXcXcXcXcXcXcXX r ; cXcXcXcX  , < o cXcX- q : cXcXcX: D cXcXcXcXcXcXcXcXcXcXcXcXcXcXcXcXcXcXcXcXcXcX",
"cXcXcXcXcXcXcXcXcXcXcXcXcXcXcXcXcXcXcXcXcX  + , + cXcXcXcXcXcXcXcXcX- p > cXcX& q.F cXcXcXcXcXcXcXcXcXcXcXcXcXcXcXcXcXcXcXcXcXcX",
"cXcXcXcXcXcXcXcXcXcXcXcXcXcXcXcXcXcXcXcXcXcXcXcXcXcXcXcXcXcXcXcXcXcX3 a o cXcXo f : cXcXcXcXcXcXcXcXcXcXcXcXcXcXcXcXcXcXcXcXcXcX",
"cXcXcXcXcXcXcXcXcXcXcXcXcXcXcXcXcXcXcXcXcXcXcXcXcXcXcXcXcXcXcXcXcXcXX ; . cXcX@ , X cXcXcXcXcXcXcXcXcXcXcXcXcXcXcXcXcXcXcXcXcXcX",
"cXcXcXcXcXcXcXcXcXcXcXcXcXcXcXcXcXcXcXcXcXcXcXcXcXcXcXcXcXcXcXcXcXcXcXO + cXcXo ,   cXcXcXcXcXcXcXcXcXcXcXcXcXcXcXcXcXcXcXcXcXcX",
"cXcXcXcXcXcXcXcXcXcXcXcXcXcXcXcXcXcXcXcXcXcXcXcXcXcXcXcXcXcXcXcXcXcXcX, , . cX  r & cXcXcXcXcXcXcXcXcXcXcXcXcXcXcXcXcXcXcXcXcXcX",
"cXcXcXcXcXcXcXcXcXcXcXcXcXcXcXcXcXcXcXcXcXcXcXcXcXcXcXcXcXcXcXcXcXcXcX+ 3 + cXcX# # cXcXcXcXcXcXcXcXcXcXcXcXcXcXcXcXcXcXcXcXcXcX",
"cXcXcXcXcXcXcXcXcXcXcXcXcXcXcXcXcXcXcXcXcXcXcXcXcXcXcXcXcXcXcXcXcXcXcXcXcXcXcXcXcXcXcXcXcXcXcXcXcXcXcXcXcXcXcXcXcXcXcXcXcXcXcXcX"
};
