/* XPM */
static char *result[] = {
/* columns rows colors chars-per-pixel */
"64 64 245 2 ",
"   c #0B0501",
".  c #0C0A05",
"X  c #080805",
"o  c #140500",
"O  c #1C0501",
"+  c #150B04",
"@  c #1C0A02",
"#  c #150E09",
"$  c #180F09",
"%  c #0A1307",
"&  c #220500",
"*  c #240C02",
"=  c #2B0A01",
"-  c #290501",
";  c #360E02",
":  c #370901",
">  c #2C1203",
",  c #271509",
"<  c #331303",
"1  c #3A1604",
"2  c #341C0C",
"3  c #381908",
"4  c #3B210D",
"5  c #560904",
"6  c #431404",
"7  c #441A05",
"8  c #4C1E09",
"9  c #491A07",
"0  c #531C05",
"q  c #551D05",
"w  c #6E0702",
"e  c #7B0903",
"r  c #621A03",
"t  c #6A1B06",
"y  c #791C06",
"u  c #4C210C",
"i  c #45250A",
"p  c #54240A",
"a  c #5B240A",
"s  c #5A2508",
"d  c #4D320B",
"f  c #542B13",
"g  c #5F2F10",
"h  c #553115",
"j  c #4C2C0E",
"k  c #65230A",
"l  c #6B240B",
"z  c #64290B",
"x  c #6B2B0D",
"c  c #672606",
"v  c #732D0E",
"b  c #782C0D",
"n  c #65340A",
"m  c #76320F",
"M  c #672F12",
"N  c #792A12",
"B  c #6D3111",
"V  c #673719",
"C  c #7C3414",
"Z  c #7B3A15",
"A  c #763615",
"S  c #764D0C",
"D  c #794716",
"F  c #67410E",
"G  c #7B4E23",
"H  c #860301",
"J  c #950401",
"K  c #980A02",
"L  c #821303",
"P  c #A60701",
"I  c #B70200",
"U  c #BB1508",
"Y  c #88350E",
"T  c #96390D",
"R  c #882F12",
"E  c #843512",
"W  c #8B3912",
"Q  c #853914",
"!  c #943D14",
"~  c #983614",
"^  c #92250E",
"/  c #B3230B",
"(  c #A4390C",
")  c #A53C16",
"_  c #AA3516",
"`  c #B83414",
"'  c #B02B0A",
"]  c #CA0100",
"[  c #C70601",
"{  c #D50401",
"}  c #D70E04",
"|  c #CF1606",
" . c #DB1508",
".. c #E20000",
"X. c #EE0502",
"o. c #F40100",
"O. c #FD0100",
"+. c #F80B05",
"@. c #E71907",
"#. c #FB1C0C",
"$. c #F71706",
"%. c #C4240B",
"&. c #CC210A",
"*. c #DA2805",
"=. c #CE3A07",
"-. c #CD3412",
";. c #D63C17",
":. c #D42D13",
">. c #F7260E",
",. c #E43607",
"<. c #F63E0C",
"1. c #FD2C14",
"2. c #FE2C17",
"3. c #E83415",
"4. c #FC3519",
"5. c #FD3B1C",
"6. c #F93314",
"7. c #E02604",
"8. c #FE3E21",
"9. c #945A0D",
"0. c #89441B",
"q. c #93471D",
"w. c #9A4318",
"e. c #805B13",
"r. c #A74518",
"t. c #B4491C",
"y. c #B74618",
"u. c #BA531C",
"i. c #AB531E",
"p. c #93740D",
"a. c #B36908",
"s. c #A76A16",
"d. c #B5710B",
"f. c #8B5627",
"g. c #9D5D2E",
"h. c #92522C",
"j. c #A65826",
"k. c #B95922",
"l. c #AD5329",
"z. c #8E672F",
"x. c #BB672A",
"c. c #AA6232",
"v. c #AE7236",
"b. c #DB5A0B",
"n. c #C54917",
"m. c #D94516",
"M. c #C65319",
"N. c #D5440C",
"B. c #F74B04",
"V. c #FC5C05",
"C. c #E6471E",
"Z. c #FE421E",
"A. c #FE4B1D",
"S. c #F74416",
"D. c #E95719",
"F. c #FA5718",
"G. c #EB4C06",
"H. c #C67503",
"J. c #DB7706",
"K. c #D86417",
"L. c #DE6209",
"P. c #E4690C",
"I. c #FE6204",
"U. c #F67809",
"Y. c #EA6817",
"T. c #F8691A",
"R. c #FD7C15",
"E. c #FB7B1C",
"W. c #F87519",
"Q. c #E87A07",
"!. c #C65626",
"~. c #D65A26",
"^. c #C24920",
"/. c #FD4521",
"(. c #FD4A22",
"). c #FA4725",
"_. c #EC5524",
"`. c #FE5425",
"'. c #F35B23",
"]. c #FE5329",
"[. c #F85828",
"{. c #E74C23",
"}. c #C76529",
"|. c #DD6925",
" X c #DE622B",
".X c #DB722B",
"XX c #CF7C38",
"oX c #CE7D37",
"OX c #D17539",
"+X c #D46537",
"@X c #EC6123",
"#X c #EA642D",
"$X c #FE632C",
"%X c #FD6B2D",
"&X c #F86727",
"*X c #FB7B29",
"=X c #F67828",
"-X c #ED6433",
";X c #FF6C34",
":X c #FA6431",
">X c #EC7536",
",X c #FC7E32",
"<X c #F97837",
"1X c #EA7327",
"2X c #D57B43",
"3X c #F97F44",
"4X c #BF8936",
"5X c #D88708",
"6X c #D49B06",
"7X c #CF8F10",
"8X c #F98907",
"9X c #FD9307",
"0X c #FD9115",
"qX c #F08B0F",
"wX c #FEAC0B",
"eX c #FBB909",
"rX c #F7B10D",
"tX c #C89229",
"yX c #CC8839",
"uX c #E98227",
"iX c #FE8B26",
"pX c #FF8C2B",
"aX c #FB8326",
"sX c #FF9428",
"dX c #FD8232",
"fX c #FC8936",
"gX c #FF9234",
"hX c #E18137",
"jX c #FBB239",
"kX c #EAAD33",
"lX c #FCC608",
"zX c #E9C508",
"xX c #FAC82D",
"cX c #D19240",
"vX c #F98445",
"bX c #F9864B",
"nX c #FA9742",
"mX c #F58A53",
"MX c #DBAA4B",
"NX c #CBA146",
"BX c #EABA4D",
"VX c #EEC55A",
"CX c #F2C052",
"ZX c #FAC876",
"AX c None",
/* pixels */
"AXAXAXAXAXAXAXAXAXAXAXAXAXAXAXAXAXAXAXAXAXAXAXAXAXAXAXAXAXAXAXAXAXAXAXAXAXAXAXAXAXAXAXAXAXAXAXAXAXAXAXAXAXAXAXAXAXAXAXAXAXAXAXAX",
"AXAXAXAXAXAXAXAXAXAXAXAXAXAXAXAXAXAXAXAXAXAXAXAXAXAXAXAXAXAXAXAXAXAXAXAXAXAXAXAXAXAXAXAXAXAXAXAXAXAXAXAXAXAXAXAXAXAXAXAXAXAXAXAX",
"AXAXAXAXAXAXAXAXAXAXAXAXAXAXAXAXAXAXAXAXAXAXAXAXAXAXAXAXAXAXAXAXAXAXAXAXAXAXAXAXAXAXAXAXAXAXAXAXAXAXAXAXAXAXAXAXAXAXAXAXAXAXAXAX",
"AXAXAXAXAXAXAXAXAXAXAXAXAXAXAXAXAXAXAXAXAXAXAXAXAXAXAXAXAXAXAXAXAXAXvXAXAXAXAXAXAXAXz.F AXAXAXAXAXAXAXAXAXAXAXAXAXAXAXAXAXAXAXAX",
"AXAXAXAXAXAXAXAXAXAXAXAXAXAXAXAXAXAXAXAXAXAXAXAXAXAXAXAXAXAXAXAXAXAXbXAXAXAXAXAXAXAXNXS AXAXAXAXAXAXAXAXAXAXAXAXAXAXAXAXAXAXAXAX",
"AXAXAXAXAXAXAXAXAXAXAXAXAXAXAXAXAXAXAXAXAXAXAXAXAXAXAXAXAX<XAXAXAXvXmXAXAXAXAXAXAXAXMXG AXAXAXAXAXAXAXAXAXAXAXAXAXAXAXAXAXAXAXAX",
"AXAXAXAXAXAXAXAXAXAXAXAXAXAXAXAXAXAXAXAXAXAXAXAXAXAXAXAXAXAXAXAXvXmXAXAXAXAXAXAXAXAX4XG AXAXAXAXAXAXAXAXAXAXAXAXAXAXAXAXAXAXAXAX",
"AXAXAXAXAXAXAXAXAXAXAXAXAXAXAXAXAXAXAXAXAXAXAXAXAXAXAXAXAXAXAX>XvXbXAXAXAXAXAXAXAXAXyX}.AXAXAXAXAXAXAXAXAXAXAXAXAXAXAXAXAXAXAXAX",
"AXAXAXAXAXAXAXAXAXAXAXAXAXAXAXAXAXAXAXAXAXAXAXAXAXAXAXAXAXAXAXAX3X>XAXAXAXAXAXU.T.AXoX|.AXAXAXAXAXAXAXAXAXAXAXAXAXAXAXAXAXAXAXAX",
"AXAXAXAXAXAXAXAXAXAXAXAXAXAXAXAXAXAXAXAXAXAXAXAXAXAXAXAXAXAXU.AXAXAXt.( [ AXAXW.R.AXoX|.AXAXAXAXAXAXAXAXAXAXAXAXAXAXAXAXAXAXAXAX",
"AXAXAXAXAXAXAXAXAXAXAXAXAXAXAXAXAXAXAXAXAXAXAXAXAXAXAXAXAXU.AXAXAX-...I H T R.W.AXAXOX|.AXAXAXAXAXAXAXAXAXAXAXAXAXAXAXAXAXAXAXAX",
"AXAXAXAXAXAXAXAXAXAXAXAXAXAXAXAXAXAXAXAXAXAXAXAXAXAXAXAXU.AXAXAXaX$.+.#.[ %.W.R.AXAXOX|.AXAXAXAXAXAXAXAXAXAXAXAXAXAXAXAXAXAXAXAX",
"AXAXAXAXAXAXAXAXAXAXAXAXAXAXAXAXAXAXAXAXAXAXAXAXAXAXAXAXU.iXiXiXgX5.A.$XA.'.gXAXAXAXOX|.AXAXAXAXAXAXAXAXAXAXAXAXAXAXAXAXAXAXAXAX",
"AXAXAXAXAXAXAXAXAXAXAXAXAXAXAXAXAXAXAXAXAXAXAXAXAXAXAXAXiXsXsXiXgX*X%X`.[.;XnXE.AXAXOX|.AXAXAXAXAXAXAXAXAXAXAXAXAXAXAXAXAXAXAXAX",
"AXAXAXAXAXAXAXAXAXAXAXAXAXAXAXAXAXAXAXAXAXAXAXAXAXAXAXaXiXgXsX1XpXpX%X%X`.fXgXpXiXAXOX|.AXAXAXAXAXAXAXAXAXAXAXAXAXAXAXAXAXAXAXAX",
"AXAXAXAXAXAXAXAXAXAXAXAXAXAXAXAXAXAXAXAXAXAXAXAXAXAXAXiXsX*X{.&XpXgXdX%X<XnXc.!.iXAXXX|.AXAXAXAXAXAXAXAXAXAXAXAXAXAXAXAXAXAXAXAX",
"AXAXAXAXAXAXAXAXAXAXAXAXAXAXAXAXAXAXAXAXAXAXAXAXAXAXAXgXgXC._.#X=X*XfX<X>X.X X_.aXAXOX|.AXAXAXAXAXAXAXAXAXAXAXAXAXAXAXAXAXAXAXAX",
"AXAXAXAXAXAXAXAXAXAXAXAXAXAXAXAXAXAXAXAXAXAXAXAXAXAXAXpX=X_.[.;X-XC.[.,X-Xt.~.[.*XAXXX|.AXAXAXAXAXAXAXAXAXAXAXAXAXAXAXAXAXAXAXAX",
"AXAXAXAXAXAXAXAXAXAXAXAXAXAXAXAXAXAXAXAXAXAXAXAXAXAXAXpX).;X;X<X]./.Z._.Z.A.m.%X*XAXoX|.AXAXAXAXAXAXAXAXAXAXAXAXAXAXAXAXAXAXAXAX",
"AXAXAXAXAXAXAXAXAXAXAXAXAXAXAXAXAXAXAXAXAXAXAXAXAXAXAX,X).;X<X:X].`.Z.).(.Z.3.dXAXAXyX#XAXAXAXAXAXAXAXAXAXAXAXAXAXAXAXAXAXAXAXAX",
"AXAXAXAXAXAXAXAXAXAXAXAXAXAXAXAXAXAXAXAXAXAXAXAXAXAXAX&X4.].].8.Z./.8.5.(.5.-.V AXAXoX|.AXAXAXAXAXAXAXAXAXAXAXAXAXAXAXAXAXAXAXAX",
"AXAXAXAXAXAXAXAXAXAXAXAXAXAXAXAXAXAXAXAXAXAXAXAXAXAXAX#X#.2.:X8.4.4.A.4./.5.:.^ q N.!.&.AXAXAXAXAXAXAXAXAXAXAXAXAXAXAXAXAXAXAXAX",
"AXAXAXAXAXAXAXAXAXAXAXAXAXAXAXAXAXAXAXAXAXAXAXAXAXAXpX[.2.1.+X+.#.4.A.(.4.AXAX7.G.I.D. .=.AXAXAXAXAXAXAXAXAXAXAXAXAXAXAXAXAXAXAX",
"AXAXAXAXAXAXAXAXAXAXAXAXAXAXAXAXAXAXAXAXAXAXAXAXAXAX,XC.3.{.w.#.$.1.8.8.6.AXAX,.B.I.8XG.@.AXAXAXAXAXAXAXAXAXAXAXAXAXAXAXAXAXAXAX",
"AXAXAXAXAXAXAXAXAXAXAXAXAXAXAXAXAXAXAXAXAXAXAXAXAXAX*X3. ._ h.2.>././.8.S.N.,.N.r s J.9X5XAXAXAXAXAXAXAXAXAXAXAXAXAXAXAXAXAXAXAX",
"AXAXAXAXAXAXAXAXAXAXAXAXAXAXAXAXAXAXAXAXAXAXAXAXAXAX=X'.X.U !.2.A.].].2.%.7.r 7 = c Y 8X5Xv l AXAXAXAXAXAXAXAXAXAXAXAXAXAXAXAXAX",
"AXAXAXAXAXAXAXAXAXAXAXAXAXAXAXAXAXAXAXAXAXAXAXAXAXAX=XfX3.} >X[.`.].5.A.*.y a - s ! !.M.eX9.n AXAXAXAXAXAXAXAXAXAXAXAXAXAXAXAXAX",
"AXAXAXAXAXAXAXAXAXAXAXAXAXAXAXAXAXAXAXAXAXAXAXAXAXAXAXdX#X>.x.x.&X$X`.L.=.d < O * 7 .XM.lX6XAXAXAXAXAXAXAXAXAXAXAXAXAXAXAXAXAXAX",
"AXAXAXAXAXAXAXAXAXAXAXAXAXAXAXAXAXAXAXAXAXAXAXAXAXAXAXAX~.Y.uXtX1XW.U.P.a.n > s ; 8 Z R eXzX* AXAXAXAXAXAXAXAXAXAXAXAXAXAXAXAXAX",
"AXAXAXAXAXAXAXAXAXAXAXAXAXAXAXAXAXAXAXAXAXAXAXw e r AXm.K.jXCXVXjXwXwX6Xa.d > p - g x f S p.+ AXAXAXAXAXAXAXAXAXAXAXAXAXAXAXAXAX",
"AXAXAXAXAXAXAXAXAXAXAXAXAXAXAXAXAXAXAXAXAXAXAXK H E ! m.Y.jXZXZXCXlX6X6XS D > - & 9 s > % X @ AXAXAXAXAXAXAXAXAXAXAXAXAXAXAXAXAX",
"AXAXAXAXAXAXAXAXAXAXAXAXAXAXAXAXAXAXAXAXAXAXe L ; G t.3.P.jXVXVXxXtXd.9.g Y i.7 & c B y.T 0.a AXAXAXAXAXAXAXAXAXAXAXAXAXAXAXAXAX",
"AXAXAXAXAXAXAXAXAXAXAXAXAXAXAXAXAXAXAXAXAXAXt 1 8 c.C.<.V.9XxXkXtXs.S n 1 ~ n.t.s l y.u.j.Z AXAXAXAXAXAXAXAXAXAXAXAXAXAXAXAXAXAX",
"AXAXAXAXAXAXAXAXAXAXAXAXAXAXAXAXAXAXAXAXAXAXO C A 2XD.&XB.I.a.d.f.d 4 < O t c y N 7 i v M 2 AXAXAXAXAXAXAXAXAXAXAXAXAXAXAXAXAXAX",
"AXAXAXAXAXAXAXAXAXAXAXAXAXAXAXAXAXAXAXz.0.J H -./ -X'.*XT.G.D D d D 0.f O l 0 t 8 1 = k.g 2 AXAXAXAXAXAXAXAXAXAXAXAXAXAXAXAXAXAX",
"AXAXAXAXAXAXAXAXAXAXAXAXAXAXAXAXAXAXAXz.>XO.$.3./ g.@X*X$XR } 6 4 j.! i M }.t.( v.v., W r.N AXAXAXAXAXAXAXAXAXAXAXAXAXAXAXAXAXAX",
"AXAXAXAXAXAXAXAXAXAXAXAXAXAXAXAXAXAXAXAXyX$.~.BXN g._.(.@X~ $.e o p x u.f dXY.<.;.yX< D f.Z AXAXAXAXAXAXAXAXAXAXAXAXAXAXAXAXAXAX",
"AXAXAXAXAXAXAXAXAXAXAXAXAXAXAXAXAXAXAXO.O.+.O.| V +XF.F.t.}.MXo.J a y.! 5 6.$.O.{ A 3 s N L AXAXAXAXAXAXAXAXAXAXAXAXAXAXAXAXAXAX",
"AXAXAXAXAXAXAXAXAXAXAXAXAXAXAXAXAXAXAXX.o. .O.w g.-XF.F.!  .#.O.@.O.o.>.yXo.O...] * @ P o.] AXAXAXAXAXAXAXAXAXAXAXAXAXAXAXAXAXAX",
"AXAXAXAXAXAXAXAXAXAXAXAXAXAXAXAXAXAXQ } P / o.; h.$XW.T.` +.#.>.MX3.O.>.hX} / [ [ 3 > P o.o.AXAXAXAXAXAXAXAXAXAXAXAXAXAXAXAXAXAX",
"AXAXAXAXAXAXAXAXAXAXAXAXAXAXAXAXAXAX/ O.x { P 1 l.F.aXV.U ` #.{ | O.{ I O.0 6 K 7 > o J I O.AXAXAXAXAXAXAXAXAXAXAXAXAXAXAXAXAXAX",
"AXAXAXAXAXAXAXAXAXAXAXAXAXAXAXAXAXAX%.X._ { : & q.D.R.b.N C o.5 y o.% y o.& o o o * @ K ..O.AXAXAXAXAXAXAXAXAXAXAXAXAXAXAXAXAXAX",
"AXAXAXAXAXAXAXAXAXAXAXAXAXAXAXAXAXAXAXAXAXAXo & j.=X0Xb.h <Xo.< P [ 8 H I l O O & o O J o.AXAXAXAXAXAXAXAXAXAXAXAXAXAXAXAXAXAXAX",
"AXAXAXAXAXAXAXAXAXAXAXAXAXAXAXAXAXAXAXAXAXAX= 9 g.=X0XwX7XM ` f } J q q l 8 8 C W x q AXAXAXAXAXAXAXAXAXAXAXAXAXAXAXAXAXAXAXAXAX",
"AXAXAXAXAXAXAXAXAXAXAXAXAXAXAXAXAXAXAXAXAXAX, l i.sXwXlXeX@ a a 3 - x z D.) m T ~ R n J.Q.AXAXAXAXAXAXAXAXAXAXAXAXAXAXAXAXAXAXAX",
"AXAXAXAXAXAXAXAXAXAXAXAXAXAXAXAXAXAXAXAXAXAX< 8 b.8XwXeXH.2 Q 8 o O B w.1 < AXO z n.x 9X9Xd.AXAXAXAXAXAXAXAXAXAXAXAXAXAXAXAXAXAX",
"AXAXAXAXAXAXAXAXAXAXAXAXAXAXAXAXAXAXAXAXAXAXp x U.8X5X@.J 9 w.; AXo l y.o AXAXO C M.0 AXAXAXAXAXAXAXAXAXAXAXAXAXAXAXAXAXAXAXAXAX",
"AXAXAXAXAXAXAXAXAXAXAXAXAXAXAXAXAXAXAXAXAXAXk J.9XU.AXAXAX0 C AXAXo < r.O AXAXO Y r.7 AXAXAXAXAXAXAXAXAXAXAXAXAXAXAXAXAXAXAXAXAX",
"AXAXAXAXAXAXAXAXAXAXAXAXAXAXAXAXAXAXAXAXAXAXN c 8XAXAXAXAXc v AXAXo O ~ * AXAX& x ) i AXAXAXAXAXAXAXAXAXAXAXAXAXAXAXAXAXAXAXAXAX",
"AXAXAXAXAXAXAXAXAXAXAXAXAXAXAXAXAXAXAXAXAXAXT = AXAXAXAXAXb v AXAXAX= W * AXAXAX3 Z AXAXAXAXAXAXAXAXAXAXAXAXAXAXAXAXAXAXAXAXAXAX",
"AXAXAXAXAXAXAXAXAXAXAXAXAXAXAXAXAXAXAXAXAXAXy.AXAXAXAXAXAXY c AXAXAX* B 8 AXAXAX7 q.< AXAXAXAXAXAXAXAXAXAXAXAXAXAXAXAXAXAXAXAXAX",
"AXAXAXAXAXAXAXAXAXAXAXAXAXAXAXAXAXAXAXAXAXAX) AXAXAXAXAXAXW x AXAXAX* M C + AXAXu k.V AXAXAXAXAXAXAXAXAXAXAXAXAXAXAXAXAXAXAXAXAX",
"AXAXAXAXAXAXAXAXAXAXAXAXAXAXAXAXAXAXAXAXAX< ^.< AXAXAXAXAXw.0.AXAXAX@ 0.r.- AXAXC t.C AXAXAXAXAXAXAXAXAXAXAXAXAXAXAXAXAXAXAXAXAX",
"AXAXAXAXAXAXAXAXAXAXAXAXAXAXAXAXAXAXAXAXAX+ B O AXAXAXAXAX, X AXAXAXAXZ t.< AXAX< 0.Z AXAXAXAXAXAXAXAXAXAXAXAXAXAXAXAXAXAXAXAXAX",
"AXAXAXAXAXAXAXAXAXAXAXAXAXAXAXAXAXAXAXAXAXAX. X AXAXAXAXAX# #   AXAXAXk w.AXAXAX- ~ u AXAXAXAXAXAXAXAXAXAXAXAXAXAXAXAXAXAXAXAXAX",
"AXAXAXAXAXAXAXAXAXAXAXAXAXAXAXAXAXAXAXAXAXAX$ #   AXAXAXAX# 2 + AXAXAXs z AXAXAXO E 1 AXAXAXAXAXAXAXAXAXAXAXAXAXAXAXAXAXAXAXAXAX",
"AXAXAXAXAXAXAXAXAXAXAXAXAXAXAXAXAXAXAXAXAXAX+ 2 # AXAXAXAX  2 # AXAXAXf k AXAXAX& y.i AXAXAXAXAXAXAXAXAXAXAXAXAXAXAXAXAXAXAXAXAX",
"AXAXAXAXAXAXAXAXAXAXAXAXAXAXAXAXAXAXAXAXAXAXX +   AXAXAXAXAXAXAXAXAXAXp a AXAXAX1 y.X AXAXAXAXAXAXAXAXAXAXAXAXAXAXAXAXAXAXAXAXAX",
"AXAXAXAXAXAXAXAXAXAXAXAXAXAXAXAXAXAXAXAXAXAXAXAXAXAXAXAXAXAXAXAXAXAXAXv 6 AXAXAX* M AXAXAXAXAXAXAXAXAXAXAXAXAXAXAXAXAXAXAXAXAXAX",
"AXAXAXAXAXAXAXAXAXAXAXAXAXAXAXAXAXAXAXAXAXAXAXAXAXAXAXAXAXAXAXAXAXAXAX> ,   AXAX. . AXAXAXAXAXAXAXAXAXAXAXAXAXAXAXAXAXAXAXAXAXAX",
"AXAXAXAXAXAXAXAXAXAXAXAXAXAXAXAXAXAXAXAXAXAXAXAXAXAXAXAXAXAXAXAXAXAXAXAX2 . AXAX$ 2   AXAXAXAXAXAXAXAXAXAXAXAXAXAXAXAXAXAXAXAXAX",
"AXAXAXAXAXAXAXAXAXAXAXAXAXAXAXAXAXAXAXAXAXAXAXAXAXAXAXAXAXAXAXAXAXAXAXX 2 $ AXAXX , . AXAXAXAXAXAXAXAXAXAXAXAXAXAXAXAXAXAXAXAXAX",
"AXAXAXAXAXAXAXAXAXAXAXAXAXAXAXAXAXAXAXAXAXAXAXAXAXAXAXAXAXAXAXAXAXAXAXAXAXAXAXAXAXAXAXAXAXAXAXAXAXAXAXAXAXAXAXAXAXAXAXAXAXAXAXAX",
"AXAXAXAXAXAXAXAXAXAXAXAXAXAXAXAXAXAXAXAXAXAXAXAXAXAXAXAXAXAXAXAXAXAXAXAXAXAXAXAXAXAXAXAXAXAXAXAXAXAXAXAXAXAXAXAXAXAXAXAXAXAXAXAX"
};
