/* XPM */
static char *result[] = {
/* columns rows colors chars-per-pixel */
"64 64 240 2 ",
"   c #0D0400",
".  c #030702",
"X  c #140500",
"o  c #1B0400",
"O  c #130B04",
"+  c #1C0B03",
"@  c #160D08",
"#  c #1E1204",
"$  c #1D110B",
"%  c #220500",
"&  c #240B01",
"*  c #2B0E02",
"=  c #270703",
"-  c #390C01",
";  c #251106",
":  c #2B1203",
">  c #2B1308",
",  c #281709",
"<  c #331303",
"1  c #3C1302",
"2  c #361A07",
"3  c #291C13",
"4  c #342107",
"5  c #3B2213",
"6  c #590A03",
"7  c #441904",
"8  c #4A1904",
"9  c #421D09",
"0  c #461506",
"q  c #541C05",
"w  c #571804",
"e  c #440D01",
"r  c #670A01",
"t  c #740901",
"y  c #6A1303",
"u  c #791704",
"i  c #492309",
"p  c #53240C",
"a  c #5B250B",
"s  c #592408",
"d  c #4D2811",
"f  c #583215",
"g  c #6C2206",
"h  c #67280A",
"j  c #772A0A",
"k  c #7C340D",
"l  c #662C11",
"z  c #693716",
"x  c #7E3212",
"c  c #783915",
"v  c #643D0E",
"b  c #6B450B",
"n  c #72470C",
"m  c #7A5115",
"M  c #7D5115",
"N  c #784A2C",
"B  c #8C0701",
"V  c #9D1807",
"C  c #8D1104",
"Z  c #B20301",
"A  c #BA0702",
"S  c #A81907",
"D  c #AF1405",
"F  c #862C0C",
"G  c #8D340D",
"H  c #80360F",
"J  c #99360B",
"K  c #822E10",
"L  c #853412",
"P  c #883615",
"I  c #9A3713",
"U  c #93260D",
"Y  c #A6280B",
"T  c #B52809",
"R  c #A7360B",
"E  c #AB3B17",
"W  c #A33816",
"Q  c #B43D14",
"!  c #A93511",
"~  c #C70401",
"^  c #D80600",
"/  c #D91405",
"(  c #EA0000",
")  c #E10602",
"_  c #F40201",
"`  c #FD0100",
"'  c #FA0803",
"]  c #FE1206",
"[  c #FA1806",
"{  c #EF1308",
"}  c #C7230A",
"|  c #D7210B",
" . c #DB2811",
".. c #C83B18",
"X. c #D43612",
"o. c #D23108",
"O. c #E6380A",
"+. c #FA3B01",
"@. c #F93707",
"#. c #FC2D13",
"$. c #FB2311",
"%. c #E43413",
"&. c #FE3C1B",
"*. c #F93516",
"=. c #EE280E",
"-. c #89460B",
";. c #84570F",
":. c #97570A",
">. c #8B431B",
",. c #9C4315",
"<. c #974719",
"1. c #865717",
"2. c #974E13",
"3. c #B2460E",
"4. c #BC570A",
"5. c #AB451B",
"6. c #B84A18",
"7. c #B75218",
"8. c #A74F11",
"9. c #B56F0D",
"0. c #875425",
"q. c #995E33",
"w. c #AD5826",
"e. c #BE5621",
"r. c #A65229",
"t. c #BA6739",
"y. c #DB480A",
"u. c #DA5B09",
"i. c #C94817",
"p. c #D74A16",
"a. c #CB5415",
"s. c #D95719",
"d. c #CC500A",
"f. c #E6420C",
"g. c #F6470A",
"h. c #FE5C08",
"j. c #FD421D",
"k. c #FD4A1E",
"l. c #F54B1B",
"z. c #EB5617",
"x. c #FB5818",
"c. c #E44A13",
"v. c #CF6B0D",
"b. c #F86805",
"n. c #E87608",
"m. c #F77B09",
"M. c #F47A05",
"N. c #E9651A",
"B. c #FB661B",
"V. c #E97A1A",
"C. c #F57613",
"Z. c #F8791A",
"A. c #EE6503",
"S. c #CC5C23",
"D. c #C05821",
"F. c #D15523",
"G. c #DB5B28",
"H. c #FE4B22",
"J. c #F74422",
"K. c #ED5423",
"L. c #FD5423",
"P. c #FE5528",
"I. c #FC5E2B",
"U. c #FA5B24",
"Y. c #ED4D2A",
"T. c #D86929",
"R. c #C96934",
"E. c #C57534",
"W. c #D3712A",
"Q. c #E86826",
"!. c #FD6122",
"~. c #FC6A24",
"^. c #FD632C",
"/. c #F76B29",
"(. c #E97727",
"). c #F97829",
"_. c #E56A36",
"`. c #FD6B33",
"'. c #F56833",
"]. c #E97436",
"[. c #FF7236",
"{. c #FD7B36",
"}. c #F57A38",
"|. c #AD7E4A",
" X c #D07643",
".X c #F27E46",
"XX c #BF8214",
"oX c #BA8333",
"OX c #C78B05",
"+X c #D79D06",
"@X c #CA931B",
"#X c #CE9405",
"$X c #E68605",
"%X c #FB8807",
"&X c #FA9708",
"*X c #FD8815",
"=X c #F69C12",
"-X c #DDA205",
";X c #EEA709",
":X c #FBAA0B",
">X c #EDB206",
",X c #F6BC07",
"<X c #F7A915",
"1X c #D98F3B",
"2X c #FE8523",
"3X c #FF8C26",
"4X c #FE842B",
"5X c #FE8C2C",
"6X c #F2862D",
"7X c #F8942C",
"8X c #FD8432",
"9X c #FD883A",
"0X c #FF9234",
"qX c #FD9438",
"wX c #EC8B39",
"eX c #F4BF38",
"rX c #F6AF2F",
"tX c #EAC409",
"yX c #F9C707",
"uX c #F9C914",
"iX c #F7C526",
"pX c #F5C738",
"aX c #D89748",
"sX c #FB8646",
"dX c #FD9245",
"fX c #FF915B",
"gX c #F78C55",
"hX c #D8A64F",
"jX c #EDBA41",
"kX c #F4BC44",
"lX c #ECA84A",
"zX c #F5C64E",
"xX c #F6D67B",
"cX c #F9DB84",
"vX c #FCE697",
"bX c #FAE28B",
"nX c #FFF3B9",
"mX c #FFF9D7",
"MX c #FFF6C7",
"NX c None",
/* pixels */
"NXNXNXNXNXNXNXNXNXNXNXNXNXNXNXNXNXNXNXNXNXNXNXNXNXNXNXNXNXNXNXNXNXNXNXNXNXNXNXNXNXNXNXNXNXNXNXNXNXNXNXNXNXNXNXNXNXNXNXNXNXNXNXNX",
"NXNXNXNXNXNXNXNXNXNXNXNXNXNXNXNXNXNXNXNXNXNXNXNXNXNXNXNXNXNXNXNXNXNXNXNXNXNXNXNXNXNXNXNXNXNXNXNXNXNXNXNXNXNXNXNXNXNXNXNXNXNXNXNX",
"NXNXNXNXNXNXNXNXNXNXNXNXNXNXNXNXNXNXNXNXNXNXNXNXNXNXNXNXNXNXNXNXNXNXNXNXNXNXNXNXNXNXNXNXNXNXNXNXNXNXNXNXNXNXNXNXNXNXNXNXNXNXNXNX",
"NXNXNXNXNXNXNXNXNXNXNXNXNXNXNXNXNXNXNXNXNXNXNXNXNXNXNXNXNXNXNXNXNXNXNXNXNXNXNXNXNXNXq.b NXNXNXNXNXNXNXNXNXNXNXNXNXNXNXNXNXNXNXNX",
"NXNXNXNXNXNXNXNXNXNXNXNXNXNXNXNXNXNXNXNXNXNXNXNXNXNXNXNXNXNXNXNXNXNXNXNXNX}.NXNXNXNXhXb NXNXNXNXNXNXNXNXNXNXNXNXNXNXNXNXNXNXNXNX",
"NXNXNXNXNXNXNXNXNXNXNXNXNXNXNXNXNXNXNXNXNXNXNXNXNXNXNXNXNXNXNXNXNXNXNXNX}.fXNXNXNXNXhXm NXNXNXNXNXNXNXNXNXNXNXNXNXNXNXNXNXNXNXNX",
"NXNXNXNXNXNXNXNXNXNXNXNXNXNXNXNXNXNXNXNXNXNXNXNXNXNXNXNXNXNXNXNXNXNXNXNXfXgXNXNXNXNXoX1.NXNXNXNXNXNXNXNXNXNXNXNXNXNXNXNXNXNXNXNX",
"NXNXNXNXNXNXNXNXNXNXNXNXNXNXNXNXNXNXNXNXNXNXNXNXNXNXNXNXNXNXNXNXNXNXNX}.gXNXNXNXNXNX1XW.NXNXNXNXNXNXNXNXNXNXNXNXNXNXNXNXNXNXNXNX",
"NXNXNXNXNXNXNXNXNXNXNXNXNXNXNXNXNXNXNXNXNXNXNXNXNXNXNXNXNXNXNXNXNXNX}.sXNXNXNXNXNXNXwX(.NXNXNXNXNXNXNXNXNXNXNXNXNXNXNXNXNXNXNXNX",
"NXNXNXNXNXNXNXNXNXNXNXNXNXNXNXNXNXNXNXNXNXNXNXNXNXNXNXNXNXNXNXNXNX(.NX}.NXNXNXNXNXNX6X(.NXNXNXNXNXNXNXNXNXNXNXNXNXNXNXNXNXNXNXNX",
"NXNXNXNXNXNXNXNXNXNXNXNXNXNXNXNXNXNXNXNXNXNXNXNXNXNXNXNXNXNXNXNXNXb.NXNXNXNXNXNXNXZ.5XV.NXNXNXNXNXNXNXNXNXNXNXNXNXNXNXNXNXNXNXNX",
"NXNXNXNXNXNXNXNXNXNXNXNXNXNXNXNXNXNXNXNXNXNXNXNXNXNXNXNXNXNXNXNXM.NXNXNXNXsXNXNXZ.C.5XT.NXNXNXNXNXNXNXNXNXNXNXNXNXNXNXNXNXNXNXNX",
"NXNXNXNXNXNXNXNXNXNXNXNXNXNXNXNXNXNXNXNXNXNXNXNXNXNXNXNXNXNXNXA.NXNXNXNXNXQ J C.C.Z.6X].NXNXNXNXNXNXNXNXNXNXNXNXNXNXNXNXNXNXNXNX",
"NXNXNXNXNXNXNXNXNXNXNXNXNXNXNXNXNXNXNXNXNXNXNXNXNXNXNXNXNXNX%XC.3X3XZ.Q.A ~ Z u C.NXY F.NXNXNXNXNXNXNXNXNXNXNXNXNXNXNXNXNXNXNXNX",
"NXNXNXNXNXNXNXNXNXNXNXNXNXNXNXNXNXNXNXNXNXNXNXNXNXNXNXNXNXNX3X7X3X3XqX~.' $.) ~ T.NXR F.NXNXNXNXNXNXNXNXNXNXNXNXNXNXNXNXNXNXNXNX",
"NXNXNXNXNXNXNXNXNXNXNXNXNXNXNXNXNXNXNXNXNXNXNXNXNXNXNXNXNX*X3X3X3X(.qX/.` ] ` _ (.2Xd.p.NXNXNXNXNXNXNXNXNXNXNXNXNXNXNXNXNXNXNXNX",
"NXNXNXNXNXNXNXNXNXNXNXNXNXNXNXNXNXNXNXNXNXNXNXNXNXNXNXNXNX3X3X8X*X).5X8Xx.j.#.#.1X(.(.p.NXNXNXNXNXNXNXNXNXNXNXNXNXNXNXNXNXNXNXNX",
"NXNXNXNXNXNXNXNXNXNXNXNXNXNXNXNXNXNXNXNXNXNXNXNXNXNXNXNXNX3X0Xl.^.).0X5X{.!.k.)._.T.).s.NXNXNXNXNXNXNXNXNXNXNXNXNXNXNXNXNXNXNXNX",
"NXNXNXNXNXNXNXNXNXNXNXNXNXNXNXNXNXNXNXNXNXNXNXNXNXNXNXNXNXqX/.K.Q./.3X0X8X[.{.dXI.~.}.s.NXNXNXNXNXNXNXNXNXNXNXNXNXNXNXNXNXNXNXNX",
"NXNXNXNXNXNXNXNXNXNXNXNXNXNXNXNXNXNXNXNXNXNXNXNXNXNXNXNXNX9XK.^.[.'.!.~.[.8X{.G.^.2X5XQ.NXNXNXNXNXNXNXNXNXNXNXNXNXNXNXNXNXNXNXNX",
"NXNXNXNXNXNXNXNXNXNXNXNXNXNXNXNXNXNXNXNXNXNXNXNXNXNXNXNXNX9XI.[.`.`.k.H.k.L.j.k.'.Z.(.(.NXNXNXNXNXNXNXNXNXNXNXNXNXNXNXNXNXNXNXNX",
"NXNXNXNXNXNXNXNXNXNXNXNXNXNXNXNXNXNXNXNXNXNXNXNXNXNXNXNXNX).L.^.^.^.H.P.L.L.H.j.*.I 7.| NXNXNXNXNXNXNXNXNXNXNXNXNXNXNXNXNXNXNXNX",
"NXNXNXNXNXNXNXNXNXNXNXNXNXNXNXNXNXNXNXNXNXNXNXNXNXNXNXNXNX).{.j.H.'.L.^.k.P.k.z.f.f.Q.=.} NXNXNXNXNXNXNXNXNXNXNXNXNXNXNXNXNXNXNX",
"NXNXNXNXNXNXNXNXNXNXNXNXNXNXNXNXNXNXNXNXNXNXNXNXNXNXNXNXNXqX.X$.$.^.k.k.&.U.B.f.h.b.m.X.O.NXNXNXNXNXNXNXNXNXNXNXNXNXNXNXNXNXNXNX",
"NXNXNXNXNXNXNXNXNXNXNXNXNXNXNXNXNXNXNXNXNXNXNXNXNXNXNXNXNXdX{.J.#.^.k.j.k.x.u.b.d.d.%X$XNXNXNXNXNXNXNXNXNXNXNXNXNXNXNXNXNXNXNXNX",
"NXNXNXNXNXNXNXNXNXNXNXNXNXNXNXNXNXNXNXNXNXNXNXNXNXNXNXNXsXsX{.*. .K.#.#.y.n.$XOXn i -.;X$XNX9 NXNXNXNXNXNXNXNXNXNXNXNXNXNXNXNXNX",
"NXNXNXNXNXNXNXNXNXNXNXNXNXNXNXNXNXNXNXNXNXNXNXNXNXNXNXNXdX].'.J.{ S Y.k.M.:X;X#XM 2.5.v.;X-.a NXNXNXNXNXNXNXNXNXNXNXNXNXNXNXNXNX",
"NXNXNXNXNXNXNXNXNXNXNXNXNXNXNXNXNXNXNXNXNXNXNXNXNXNXNXNX'... X'.*.O.V.;X:XuXzX@Xm c N.s.yXOX1 NXNXNXNXNXNXNXNXNXNXNXNXNXNXNXNXNX",
"NXNXNXNXNXNXNXNXNXNXNXNXNXNXNXNXNXNXNXNXNXNXNXNXNXNXNXNX....p.'.*X%X<XiXpXzXeX@Xv & T.6.,XtX# NXNXNXNXNXNXNXNXNXNXNXNXNXNXNXNXNX",
"NXNXNXNXNXNXNXNXNXNXNXNXNXNXNXNXNXNXNXNXNXNXNXNX6 w w.i.X.X.@.B.<X,XkXxXbXbXeX9.4 h x J -XtX4 NXNXNXNXNXNXNXNXNXNXNXNXNXNXNXNXNX",
"NXNXNXNXNXNXNXNXNXNXNXNXNXNXNXNXNXNXNXNXNXNXNXt w d N ..X.O.@.b.:XeXbXnXnXvXpX:.2 s l i , 4   NXNXNXNXNXNXNXNXNXNXNXNXNXNXNXNXNX",
"NXNXNXNXNXNXNXNXNXNXNXNXNXNXNXNXNXNXNXNXNXNXNX- = 0.5.O.%.@.+.b.;XeXvXmXmXvXjXM 7 i s G G H l NXNXNXNXNXNXNXNXNXNXNXNXNXNXNXNXNX",
"NXNXNXNXNXNXNXNXNXNXNXNXNXNXNXNXNXNXNXNXNX  & s l  Xi.@.+.+.+.:.OXzXvXmXnXcXuXw.1 k 3.z.3.>.p NXNXNXNXNXNXNXNXNXNXNXNXNXNXNXNXNX",
"NXNXNXNXNXNXNXNXNXNXNXNXNXNXNXNXNXNXNXNXl < . L z  Xz.U.g.+.T m #XyXzXcXxXpX;Xv.G g i.s.w.z NXNXNXNXNXNXNXNXNXNXNXNXNXNXNXNXNXNX",
"NXNXNXNXNXNXNXNXNXNXNXNXNXNXNXNXNXNXNX|.wX` ( ( ) Y.U.).B.g.l N v.-XyXiXrX-X9.J G 8 2 c d > NXNXNXNXNXNXNXNXNXNXNXNXNXNXNXNXNXNX",
"NXNXNXNXNXNXNXNXNXNXNXNXNXNXNXNXNXNXNXNXaX[ Y.E.! N Q.4X~.i.W l b -X>X-XXX4.-.H z f + D.L a NXNXNXNXNXNXNXNXNXNXNXNXNXNXNXNXNXNX",
"NXNXNXNXNXNXNXNXNXNXNXNXNXNXNXNXNXNXNX`  .` %.7X0 q.Y.U./.P _ r 2 v ;.;.m rXN.g.lXhX, ,.x P NXNXNXNXNXNXNXNXNXNXNXNXNXNXNXNXNXNX",
"NXNXNXNXNXNXNXNXNXNXNXNXNXNXNXNXNXNXNX` ` ` ` A 0.R.H.B.e.F.E.~ = z ,.T.# 3Xx.[ / :.8 a l p NXNXNXNXNXNXNXNXNXNXNXNXNXNXNXNXNXNX",
"NXNXNXNXNXNXNXNXNXNXNXNXNXNXNXNXNXNXU / y.o._ 6 t.'.x.x.5.Q Q.` _ ~ } } ^ ' ` ` ~ L 9 S / ^ NXNXNXNXNXNXNXNXNXNXNXNXNXNXNXNXNXNX",
"NXNXNXNXNXNXNXNXNXNXNXNXNXNXNXNXNXNX} ` $Xg.^ - t.^.C.Z.E _ ` ] W.{ ` &.hX] _ ~ ~ O # Z ` ` NXNXNXNXNXNXNXNXNXNXNXNXNXNXNXNXNXNX",
"NXNXNXNXNXNXNXNXNXNXNXNXNXNXNXNXNXNXT _ 8.[ y 8 R.B.2Xh.T  .#.] wX@.` _ g.S K / V 8 : Z ` ` NXNXNXNXNXNXNXNXNXNXNXNXNXNXNXNXNXNX",
"NXNXNXNXNXNXNXNXNXNXNXNXNXNXNXNXNXNXNX| NXu.w = F.N.*Xs.V K _ C D ` B t ` 1 & - X X   D ` ` NXNXNXNXNXNXNXNXNXNXNXNXNXNXNXNXNXNX",
"NXNXNXNXNXNXNXNXNXNXNXNXNXNXNXNXNXNXNXNXNXu.w g t.B.*X7.d T._ 0 B ) 5 Y ( 0 + X X < o Z ` _ NXNXNXNXNXNXNXNXNXNXNXNXNXNXNXNXNXNX",
"NXNXNXNXNXNXNXNXNXNXNXNXNXNXNXNXNXNXNXNXNXNX& R  X5X*XNXd I / d ^ A w t y + X 8 w : - NX' NXNXNXNXNXNXNXNXNXNXNXNXNXNXNXNXNXNXNX",
"NXNXNXNXNXNXNXNXNXNXNXNXNXNXNXNXNXNXNXNXNXNX; g w.<XNXNXNX; k P y w g F p.E I ..c.I n n.v.NXNXNXNXNXNXNXNXNXNXNXNXNXNXNXNXNXNXNX",
"NXNXNXNXNXNXNXNXNXNXNXNXNXNXNXNXNXNXNXNXNXNX2 I d.&XNXNXNX< i.I & + j 6.J j 8 q h 3.h :X$X9.NXNXNXNXNXNXNXNXNXNXNXNXNXNXNXNXNXNX",
"NXNXNXNXNXNXNXNXNXNXNXNXNXNXNXNXNXNXNXNXNXNX9 4.%X%XNXNXNX1 6.q NXX K p.+ NXNX% G s.w NXNXNXNXNXNXNXNXNXNXNXNXNXNXNXNXNXNXNXNXNX",
"NXNXNXNXNXNXNXNXNXNXNXNXNXNXNXNXNXNXNXNXNXNXp %X%X*XNXNXNX0 W NXNXo 8 6.& NXNX% ! 6.l NXNXNXNXNXNXNXNXNXNXNXNXNXNXNXNXNXNXNXNXNX",
"NXNXNXNXNXNXNXNXNXNXNXNXNXNXNXNXNXNXNXNXNXNXy :.$XNXNXNXNXw Q NXNXNXo 5.* NXNXX s 5.s NXNXNXNXNXNXNXNXNXNXNXNXNXNXNXNXNXNXNXNXNX",
"NXNXNXNXNXNXNXNXNXNXNXNXNXNXNXNXNXNXNXNXNXNXG 8 NXNXNXNXNXF E NXNXNX& J 9 NXNXNX1 L 7 NXNXNXNXNXNXNXNXNXNXNXNXNXNXNXNXNXNXNXNXNX",
"NXNXNXNXNXNXNXNXNXNXNXNXNXNXNXNXNXNXNXNXNXNXp.1 NXNXNXNXNXk I NXNXNX* l h NXNXNX: >.p NXNXNXNXNXNXNXNXNXNXNXNXNXNXNXNXNXNXNXNXNX",
"NXNXNXNXNXNXNXNXNXNXNXNXNXNXNXNXNXNXNXNXNXNXp.1 NXNXNXNXNX,.Q NXNXNX+ i H * NXNX: 7.<., NXNXNXNXNXNXNXNXNXNXNXNXNXNXNXNXNXNXNXNX",
"NXNXNXNXNXNXNXNXNXNXNXNXNXNXNXNXNXNXNXNXNX> N.7 NXNXNXNXNX,.e.NXNXNXNXi S.s NXNX> S.5.2 NXNXNXNXNXNXNXNXNXNXNXNXNXNXNXNXNXNXNXNX",
"NXNXNXNXNXNXNXNXNXNXNXNXNXNXNXNXNXNXNXNXNX  L * NXNXNXNXNX, > NXNXNXNX> N.L NXNX* 7.a.5 NXNXNXNXNXNXNXNXNXNXNXNXNXNXNXNXNXNXNXNX",
"NXNXNXNXNXNXNXNXNXNXNXNXNXNXNXNXNXNXNXNXNXNX@ . NXNXNXNXNX$ ;   NXNXNX$ i.1 NXNXNXj h NXNXNXNXNXNXNXNXNXNXNXNXNXNXNXNXNXNXNXNXNX",
"NXNXNXNXNXNXNXNXNXNXNXNXNXNXNXNXNXNXNXNXNXNX$ $   NXNXNXNX$ d @ NXNXNX< l NXNXNXo K h NXNXNXNXNXNXNXNXNXNXNXNXNXNXNXNXNXNXNXNXNX",
"NXNXNXNXNXNXNXNXNXNXNXNXNXNXNXNXNXNXNXNXNXNXO i ; NXNXNXNXNX3 O NXNXNX2 j NXNXNX% i.s NXNXNXNXNXNXNXNXNXNXNXNXNXNXNXNXNXNXNXNXNX",
"NXNXNXNXNXNXNXNXNXNXNXNXNXNXNXNXNXNXNXNXNXNX  O   NXNXNXNXNXNXNXNXNXNXp K NXNXNX1 i.. NXNXNXNXNXNXNXNXNXNXNXNXNXNXNXNXNXNXNXNXNX",
"NXNXNXNXNXNXNXNXNXNXNXNXNXNXNXNXNXNXNXNXNXNXNXNXNXNXNXNXNXNXNXNXNXNXNXG 1 NXNXNX3 ; NXNXNXNXNXNXNXNXNXNXNXNXNXNXNXNXNXNXNXNXNXNX",
"NXNXNXNXNXNXNXNXNXNXNXNXNXNXNXNXNXNXNXNXNXNXNXNXNXNXNXNXNXNXNXNXNXNXNX+ ,   NXNX@ O NXNXNXNXNXNXNXNXNXNXNXNXNXNXNXNXNXNXNXNXNXNX",
"NXNXNXNXNXNXNXNXNXNXNXNXNXNXNXNXNXNXNXNXNXNXNXNXNXNXNXNXNXNXNXNXNXNXNX. 5   NXNX$ 5   NXNXNXNXNXNXNXNXNXNXNXNXNXNXNXNXNXNXNXNXNX",
"NXNXNXNXNXNXNXNXNXNXNXNXNXNXNXNXNXNXNXNXNXNXNXNXNXNXNXNXNXNXNXNXNXNXNX  5 & NXNX  > O NXNXNXNXNXNXNXNXNXNXNXNXNXNXNXNXNXNXNXNXNX",
"NXNXNXNXNXNXNXNXNXNXNXNXNXNXNXNXNXNXNXNXNXNXNXNXNXNXNXNXNXNXNXNXNXNXNXNXNXNXNXNXNXNXNXNXNXNXNXNXNXNXNXNXNXNXNXNXNXNXNXNXNXNXNXNX",
"NXNXNXNXNXNXNXNXNXNXNXNXNXNXNXNXNXNXNXNXNXNXNXNXNXNXNXNXNXNXNXNXNXNXNXNXNXNXNXNXNXNXNXNXNXNXNXNXNXNXNXNXNXNXNXNXNXNXNXNXNXNXNXNX"
};
