/* XPM */
static char *result[] = {
/* columns rows colors chars-per-pixel */
"64 64 241 2 ",
"   c #0C0401",
".  c #0A0801",
"X  c #070501",
"o  c #130200",
"O  c #1C0500",
"+  c #160A03",
"@  c #1C0B01",
"#  c #170E09",
"$  c #1B1007",
"%  c #220C01",
"&  c #2C0C02",
"*  c #230700",
"=  c #330C01",
"-  c #390D01",
";  c #251205",
":  c #23140A",
">  c #291408",
",  c #351304",
"<  c #3C1304",
"1  c #321A0C",
"2  c #3A1B07",
"3  c #391E10",
"4  c #3C2408",
"5  c #392314",
"6  c #470A01",
"7  c #570B01",
"8  c #461D08",
"9  c #451604",
"0  c #571B05",
"q  c #630602",
"w  c #680A01",
"e  c #780601",
"r  c #6E1404",
"t  c #6C1C07",
"y  c #761604",
"u  c #4B230D",
"i  c #462508",
"p  c #532309",
"a  c #57270C",
"s  c #573708",
"d  c #462915",
"f  c #5C2D13",
"g  c #543119",
"h  c #632A0C",
"j  c #6C2B0C",
"k  c #68260A",
"l  c #772A0A",
"z  c #77360D",
"x  c #772912",
"c  c #653715",
"v  c #7A3612",
"b  c #6F2F11",
"n  c #5D4209",
"m  c #7B470B",
"M  c #6B4116",
"N  c #7A4718",
"B  c #7A5310",
"V  c #754323",
"C  c #860601",
"Z  c #970601",
"A  c #8E1C05",
"S  c #BD0A03",
"D  c #B61705",
"F  c #AA1206",
"G  c #872809",
"H  c #95250B",
"J  c #8A320D",
"K  c #86340A",
"L  c #9A3A0F",
"P  c #883813",
"I  c #9D3216",
"U  c #AC3A0E",
"Y  c #A93209",
"T  c #A53613",
"R  c #B43F19",
"E  c #BB3311",
"W  c #D50501",
"Q  c #C61C05",
"!  c #D91906",
"~  c #C70000",
"^  c #E20100",
"/  c #EC0200",
"(  c #E80B02",
")  c #F40100",
"_  c #FE0100",
"`  c #FB0B02",
"'  c #E51707",
"]  c #F91A06",
"[  c #C72707",
"{  c #DB2209",
"}  c #DC340A",
"|  c #C83A17",
" . c #D83C16",
".. c #D02F0F",
"X. c #FD2708",
"o. c #E63808",
"O. c #FB3A03",
"+. c #F73704",
"@. c #FC3618",
"#. c #F02E11",
"$. c #E73720",
"%. c #874615",
"&. c #984B1A",
"*. c #845213",
"=. c #8C4C0B",
"-. c #B44B0F",
";. c #A75B0D",
":. c #A74617",
">. c #B44313",
",. c #B74B16",
"<. c #AA5218",
"1. c #B9581B",
"2. c #9C6016",
"3. c #A86607",
"4. c #AC770D",
"5. c #B97909",
"6. c #A76213",
"7. c #B36B1E",
"8. c #864624",
"9. c #925A2F",
"0. c #A95626",
"q. c #B64A20",
"w. c #B76325",
"e. c #AA6136",
"r. c #B47B2C",
"t. c #C84617",
"y. c #CD5417",
"u. c #D85717",
"i. c #CC4F0E",
"p. c #F84A08",
"a. c #E35506",
"s. c #F5590A",
"d. c #EA4A14",
"f. c #FD441D",
"g. c #F9491B",
"h. c #EA5914",
"j. c #F65718",
"k. c #C8650B",
"l. c #D97E08",
"z. c #D6671A",
"x. c #CB750C",
"c. c #EE6506",
"v. c #ED7907",
"b. c #F97707",
"n. c #E86B1D",
"m. c #FD691B",
"M. c #FA7618",
"N. c #FA6A0E",
"B. c #CC4E22",
"V. c #C75726",
"C. c #D35225",
"Z. c #FA4A21",
"A. c #EC5924",
"S. c #FE5224",
"D. c #FE5C25",
"F. c #FE5B2A",
"G. c #F65728",
"H. c #F15931",
"J. c #DA6625",
"K. c #C96D3A",
"L. c #DC6A33",
"P. c #D16D2A",
"I. c #E76823",
"U. c #FC6124",
"Y. c #FE652A",
"T. c #FE6E24",
"R. c #EA7428",
"E. c #FB7523",
"W. c #FB7B2A",
"Q. c #F87927",
"!. c #FE6E35",
"~. c #EC7835",
"^. c #F27435",
"/. c #FD7D35",
"(. c #FE7B3B",
"). c #F57A39",
"_. c #D07E45",
"`. c #F97D43",
"'. c #C88806",
"]. c #CE9204",
"[. c #D69904",
"{. c #D4991B",
"}. c #D98F05",
"|. c #FD8906",
" X c #FA8809",
".X c #F69406",
"XX c #FF9607",
"oX c #FE821E",
"OX c #ED8E07",
"+X c #DDA310",
"@X c #F8A609",
"#X c #F9B50A",
"$X c #FEA519",
"%X c #EEB817",
"&X c #F9B81C",
"*X c #E8AA12",
"=X c #DE812F",
"-X c #FC8325",
";X c #FF8A25",
":X c #FE8B2A",
">X c #F8822B",
",X c #FF9627",
"<X c #FC8C31",
"1X c #FE843B",
"2X c #FD8839",
"3X c #FE9334",
"4X c #F99939",
"5X c #E29029",
"6X c #FCAE2C",
"7X c #FAA235",
"8X c #ECB737",
"9X c #F3BD38",
"0X c #FBC10A",
"qX c #FBD309",
"wX c #FCCD1D",
"eX c #F6CD3D",
"rX c #D1995A",
"tX c #FB8442",
"yX c #F58349",
"uX c #FC9646",
"iX c #FB8D56",
"pX c #F18D4B",
"aX c #D4AA47",
"sX c #E1AB4E",
"dX c #EEB949",
"fX c #ECB353",
"gX c #FDA463",
"hX c #EFC14D",
"jX c #F4C541",
"kX c #F2CB65",
"lX c #F5D578",
"zX c #F9DD86",
"xX c #F8C781",
"cX c #FFED9D",
"vX c #FBE591",
"bX c #FEDEA4",
"nX c #FFEDA2",
"mX c #FFF0AE",
"MX c #FFF6CA",
"NX c #FFF9D6",
"BX c None",
/* pixels */
"BXBXBXBXBXBXBXBXBXBXBXBXBXBXBXBXBXBXBXBXBXBXBXBXBXBXBXBXBXBXBXBXBXBXBXBXBXBXBXBXBXBXBXBXBXBXBXBXBXBXBXBXBXBXBXBXBXBXBXBXBXBXBXBX",
"BXBXBXBXBXBXBXBXBXBXBXBXBXBXBXBXBXBXBXBXBXBXBXBXBXBXBXBXBXBXBXBXBXBXBXBXBXBXBXBXBXBXBXBXBXBXBXBXBXBXBXBXBXBXBXBXBXBXBXBXBXBXBXBX",
"BXBXBXBXBXBXBXBXBXBXBXBXBXBXBXBXBXBXBXBXBXBXBXBXBXBXBXBXBXBXBXBXBXBXBXBXBXBXBXBXBXBXBXBXBXBXBXBXBXBXBXBXBXBXBXBXBXBXBXBXBXBXBXBX",
"BXBXBXBXBXBXBXBXBXBXBXBXBXBXBXBXBXBXBXBXBXBXBXBXBXBXBXBXBXBXBXBXBXBXBXBXBXBXBXBXBXBX9.BXBXBXBXBXBXBXBXBXBXBXBXBXBXBXBXBXBXBXBXBX",
"BXBXBXBXBXBXBXBXBXBXBXBXBXBXBXBXBXBXBXBXBXBXBXBXBXBXBXBXBXBXBXBXBXBXBXBXBXBXBXBXBXBXaXBXBXBXBXBXBXBXBXBXBXBXBXBXBXBXBXBXBXBXBXBX",
"BXBXBXBXBXBXBXBXBXBXBXBXBXBXBXBXBXBXBXBXBXBXBXBXBXBXBXBXBXBXBXBXBXBXBXBXBXBXBXBXBXBXaXM BXBXBXBXBXBXBXBXBXBXBXBXBXBXBXBXBXBXBXBX",
"BXBXBXBXBXBXBXBXBXBXBXBXBXBXBXBXBXBXBXBXBXBXBXBXBXBXBXBXBXBXBXBXBXBXBXBXBXBXBXBXBX*.aXM BXBXBXBXBXBXBXBXBXBXBXBXBXBXBXBXBXBXBXBX",
"BXBXBXBXBXBXBXBXBXBXBXBXBXBXBXBXBXBXBXBXBXBXBXBXBXBXBXBXBXBXBXBXBXBXBXBXBXBXiXiXBXBX8XBXBXBXBXBXBXBXBXBXBXBXBXBXBXBXBXBXBXBXBXBX",
"BXBXBXBXBXBXBXBXBXBXBXBXBXBXBXBXBXBXBXBXBXBXBXBXBXBXBXBXBXBXBXBXBXBXBXBXBXBXBXgXBXBX4XBXBXBXBXBXBXBXBXBXBXBXBXBXBXBXBXBXBXBXBXBX",
"BXBXBXBXBXBXBXBXBXBXBXBXBXBXBXBXBXBXBXBXBXBXBXBXBXBXBXBXBXBXBXBXBXBXBXBXBXBXBXiXyXBX7XBXBXBXBXBXBXBXBXBXBXBXBXBXBXBXBXBXBXBXBXBX",
"BXBXBXBXBXBXBXBXBXBXBXBXBXBXBXBXBXBXBXBXBXBXBXBXBXBXBXBXBXBXBXBXBXBXBXBXBXBXyXiXBXBX7XBXBXBXBXBXBXBXBXBXBXBXBXBXBXBXBXBXBXBXBXBX",
"BXBXBXBXBXBXBXBXBXBXBXBXBXBXBXBXBXBXBXBXBXBXBXBXBXBXBXBXBXBXBXBXBXBXBXBX).`.yXyXBXBX7XBXBXBXBXBXBXBXBXBXBXBXBXBXBXBXBXBXBXBXBXBX",
"BXBXBXBXBXBXBXBXBXBXBXBXBXBXBXBXBXBXBXBXBXBXBXBXBXBXBXBXBXBXBXBXBXBXBX^.).yXBXBXBXBX4XBXBXBXBXBXBXBXBXBXBXBXBXBXBXBXBXBXBXBXBXBX",
"BXBXBXBXBXBXBXBXBXBXBXBXBXBXBXBXBXBXBXBXBXBXBXBXBXBXBXBXBXBXBXBXBXBXBX2X~.pXBXBXBXBX4XBXBXBXBXBXBXBXBXBXBXBXBXBXBXBXBXBXBXBXBXBX",
"BXBXBXBXBXBXBXBXBXBXBXBXBXBXBXBXBXBXBXBXBXBXBXBXBXBXBXBXBXBXBXBXBXBXBX;XJ.D Z C BXBX:Xc.M.BXBXBXBXBXBXBXBXBXBXBXBXBXBXBXBXBXBXBX",
"BXBXBXBXBXBXBXBXBXBXBXBXBXBXBXBXBXBXBXBXBXBXBXBXBXBXBXBXBXBXBXBXBXoXoX;X' ` W Z w I.E.M.BXBXBXBXBXBXBXBXBXBXBXBXBXBXBXBXBXBXBXBX",
"BXBXBXBXBXBXBXBXBXBXBXBXBXBXBXBXBXBXBXBXBXBXBXBXBXBXBXBXBXBXBX3X;X;X;XuX] _ ] ( ' W.Q.BXBXBXBXBXBXBXBXBXBXBXBXBXBXBXBXBXBXBXBXBX",
"BXBXBXBXBXBXBXBXBXBXBXBXBXBXBXBXBXBXBXBXBXBXBXBXBXBXBXBXBXBX3X3X,X-XR.uXZ.X.@.@.Y.=XW.BXBXBXBXBXBXBXBXBXBXBXBXBXBXBXBXBXBXBXBXBX",
"BXBXBXBXBXBXBXBXBXBXBXBXBXBXBXBXBXBXBXBXBXBXBXBXBXBXBXBXBX<X:X3X-XE.U.1X).f.S.f.1XL.Q.:XBXBXBXBXBXBXBXBXBXBXBXBXBXBXBXBXBXBXBXBX",
"BXBXBXBXBXBXBXBXBXBXBXBXBXBXBXBXBXBXBXBXBXBXBXBXBXBXBXBXM.,X<XU.Q.E.W./.1Xf.D.Y.2XU.>X>XBXBXBXBXBXBXBXBXBXBXBXBXBXBXBXBXBXBXBXBX",
"BXBXBXBXBXBXBXBXBXBXBXBXBXBXBXBXBXBXBXBXBXBXBXBXBXBXBXBXW.Q.^.Y.;X-X>XQ.1X(.1XuX(.Y.:XM.BXBXBXBXBXBXBXBXBXBXBXBXBXBXBXBXBXBXBXBX",
"BXBXBXBXBXBXBXBXBXBXBXBXBXBXBXBXBXBXBXBXBXBXBXBXBXBXBXBXBXW.1X1X!.E.W.Z.Y.tX2XG.D.L.R.G BXBXBXBXBXBXBXBXBXBXBXBXBXBXBXBXBXBXBXBX",
"BXBXBXBXBXBXBXBXBXBXBXBXBXBXBXBXBXBXBXBXBXBXBXBXBXBXBXBXBX2XuX!.!.Z.L.D.g.S.Y.f.S.H.j.! BXBXBXBXBXBXBXBXBXBXBXBXBXBXBXBXBXBXBXBX",
"BXBXBXBXBXBXBXBXBXBXBXBXBXBXBXBXBXBXBXBXBXBXBXBXBXBXBXBXBXuXuX`.F.@.t.1XD.U.Y. .s.h.h.{ BXBXBXBXBXBXBXBXBXBXBXBXBXBXBXBXBXBXBXBX",
"BXBXBXBXBXBXBXBXBXBXBXBXBXBXBXBXBXBXBXBXBXBXBXBXBXBXBXBXW.uX^.`.`.S. .tXS.d. .s.b.b.|.BXBXBXBXBXBXBXBXBXBXBXBXBXBXBXBXBXBXBXBXBX",
"BXBXBXBXBXBXBXBXBXBXBXBXBXBXBXBXBXBXBXBXBXBXBXBXBXBXBXBXtXiXS.Z.(.!.A.^.C.z.b..X}.3.:..X=.u BXBXBXBXBXBXBXBXBXBXBXBXBXBXBXBXBXBX",
"BXBXBXBXBXBXBXBXBXBXBXBXBXBXBXBXBXBXBXBXBXBXBXBXBXBXBXBXuX~.S.@.!.Y.Z.C.5XOX@X%X{.7.1.x.0Xm BXBXBXBXBXBXBXBXBXBXBXBXBXBXBXBXBXBX",
"BXBXBXBXBXBXBXBXBXBXBXBXBXBXBXBXBXBXBXBXBXBXBXBXBXBXBX>X).B.B.A.!.(.M.M.}.6XhXdX8Xr.:X<.#XqXBXBXBXBXBXBXBXBXBXBXBXBXBXBXBXBXBXBX",
"BXBXBXBXBXBXBXBXBXBXBXBXBXBXBXBXBXBXBXBXBXBXBX7 w < BX~.| | ..g.D.4X,XXX6XkXvXlXhX4.w.%.z n % BXBXBXBXBXBXBXBXBXBXBXBXBXBXBXBXBX",
"BXBXBXBXBXBXBXBXBXBXBXBXBXBXBXBXBXBXBXBXBXBX7 C e t 0.q. .} X.X.p.,X#XwXkXcXcXcXdX5.B f 4 > . BXBXBXBXBXBXBXBXBXBXBXBXBXBXBXBXBX",
"BXBXBXBXBXBXBXBXBXBXBXBXBXBXBXBXBXBXBXk.;.BXr y < 5 f  . .X.O.X.s..X*XdXnXMXNXmXeX'.*.i @ 2 + BXBXBXBXBXBXBXBXBXBXBXBXBXBXBXBXBX",
"BXBXBXBXBXBXBXBXBXBXBXBXBXBXBXBXBXBXBXqX#XBX6 2 = c I #.o.O.O.! %.4.*XkXMXNXNXbXeX].*.<.K j p BXBXBXBXBXBXBXBXBXBXBXBXBXBXBXBXBX",
"BXBXBXBXBXBXBXBXBXBXBXBXBXBXBXBXBXBX#X#X#X=.& L h e.} O.O.O.#.6 4 4.+XkXnXNXNXzX%X].x.z.&.V u BXBXBXBXBXBXBXBXBXBXBXBXBXBXBXBXBX",
"BXBXBXBXBXBXBXBXBXBXBXBXBXBXBXBXBXBX@XsXU w 7 B.g L.g.j.p.O.G 1 N 2.[.hXzXnXzXjX+X3.k.-.P i : BXBXBXBXBXBXBXBXBXBXBXBXBXBXBXBXBX",
"BXBXBXBXBXBXBXBXBXBXBXBXBXBXBXBXBXBX.Xz.d._ ) _ $.H.U.>Xp.o.d V M B 5.].8X9XwX&X}.3.i u 0.d @ BXBXBXBXBXBXBXBXBXBXBXBXBXBXBXBXBX",
"BXBXBXBXBXBXBXBXBXBXBXBXBXBXBXBXBXBXv.p.xX_ fXh.8.K.E.;Xs.l E b g %.6.;.r.].].}.k.m 2 - y.t.v BXBXBXBXBXBXBXBXBXBXBXBXBXBXBXBXBX",
"BXBXBXBXBXBXBXBXBXBXBXBXBXBXBXBXBXBXc._ ` _ d.:.c K.Y.T.h.x ) o c V.w.*.B ;.6.;.K rXr.4 %.8.V BXBXBXBXBXBXBXBXBXBXBXBXBXBXBXBXBX",
"BXBXBXBXBXBXBXBXBXBXBXBXBXBXBXBXBXBX} _ _ _ ` 0 e.V.Y.N.P { ` 6 @ f 0 &.%.<XN.s.d.P.{.Y f h 8 BXBXBXBXBXBXBXBXBXBXBXBXBXBXBXBXBX",
"BXBXBXBXBXBXBXBXBXBXBXBXBXBXBXBXBXBXQ ` o.` S 1 e.j.m.d.I sXI.W o z y.:.u E.M.+._ S , Q [ ! Z BXBXBXBXBXBXBXBXBXBXBXBXBXBXBXBXBX",
"BXBXBXBXBXBXBXBXBXBXBXBXBXBXBXBXBXBXQ ! O.) w t w.j.oXj.R ) ` _ / W [ ..~ ] _ _ _ S , _ _ _ W BXBXBXBXBXBXBXBXBXBXBXBXBXBXBXBXBX",
"BXBXBXBXBXBXBXBXBXBXBXBXBXBXBXBXBXBX` F ` ' & k A.N.M.h.' | ] @._.) _ ] sX$._ F ) S & / _ ) ) BXBXBXBXBXBXBXBXBXBXBXBXBXBXBXBXBX",
"BXBXBXBXBXBXBXBXBXBXBXBXBXBXBXBXBXBXBXBX_ BX& G j.b.b.=.) <.` ( 4X) _ _ a.Q H 8 ^ r * W _ _ _ BXBXBXBXBXBXBXBXBXBXBXBXBXBXBXBXBX",
"BXBXBXBXBXBXBXBXBXBXBXBXBXBXBXBXBXBXBXBXBXBX0 l y.|.b.h R  .) , D / r A _ e       o o ^ _ _ BXBXBXBXBXBXBXBXBXBXBXBXBXBXBXBXBXBX",
"BXBXBXBXBXBXBXBXBXBXBXBXBXBXBXBXBXBXBXBXBXBX9 E -.XXc.BXa ( D 2 W W u H _ r o o   - i ) _ ) BXBXBXBXBXBXBXBXBXBXBXBXBXBXBXBXBXBX",
"BXBXBXBXBXBXBXBXBXBXBXBXBXBXBXBXBXBXBXBXBXBX= j z.#XBXBXBX9 L b ^ D y H y = < K J 9 3.v.BXBXBXBXBXBXBXBXBXBXBXBXBXBXBXBXBXBXBXBX",
"BXBXBXBXBXBXBXBXBXBXBXBXBXBXBXBXBXBXBXBXBXBX0 :. X XBXBXBXa n.G 6 0 G t.h.H K | T J x.@Xk.BXBXBXBXBXBXBXBXBXBXBXBXBXBXBXBXBXBXBX",
"BXBXBXBXBXBXBXBXBXBXBXBXBXBXBXBXBXBXBXBXBXBXv b.|.b.BXBXBX8 1.9 * * R z 7 BX+ 0 | U s BXBXBXBXBXBXBXBXBXBXBXBXBXBXBXBXBXBXBXBXBX",
"BXBXBXBXBXBXBXBXBXBXBXBXBXBXBXBXBXBXBXBXBX@ 3.XX|.BXBXBXBX0 G BX@ o t.l @ BXBX0 ,.-.@ BXBXBXBXBXBXBXBXBXBXBXBXBXBXBXBXBXBXBXBXBX",
"BXBXBXBXBXBXBXBXBXBXBXBXBXBXBXBXBXBXBXBXBXo J 3.@XBXBXBXBXG l BXBXO j -.@ BXBX& J ,.& BXBXBXBXBXBXBXBXBXBXBXBXBXBXBXBXBXBXBXBXBX",
"BXBXBXBXBXBXBXBXBXBXBXBXBXBXBXBXBXBXBXBXBX* J BXBXBXBXBXBXi.l BXBXO 9 u.* BXBX% j P @ BXBXBXBXBXBXBXBXBXBXBXBXBXBXBXBXBXBXBXBXBX",
"BXBXBXBXBXBXBXBXBXBXBXBXBXBXBXBXBXBXBXBXBX9 U BXBXBXBXBX@ i.j BXBXBX, L & BXBX* 8 P % BXBXBXBXBXBXBXBXBXBXBXBXBXBXBXBXBXBXBXBXBX",
"BXBXBXBXBXBXBXBXBXBXBXBXBXBXBXBXBXBXBXBXBX8 R BXBXBXBXBX; n.l BXBXBX> h p BXBXBXh V.a BXBXBXBXBXBXBXBXBXBXBXBXBXBXBXBXBXBXBXBXBX",
"BXBXBXBXBXBXBXBXBXBXBXBXBXBXBXBXBXBXBXBXBXj y.BXBXBXBXBX& R.K BXBXBXBX&.P = BXBXj z.b BXBXBXBXBXBXBXBXBXBXBXBXBXBXBXBXBXBXBXBXBX",
"BXBXBXBXBXBXBXBXBXBXBXBXBXBXBXBXBXBXBXBXBX: v BXBXBXBXBXBXu + BXBXBXBXP I.a BXBXk E.:.BXBXBXBXBXBXBXBXBXBXBXBXBXBXBXBXBXBXBXBXBX",
"BXBXBXBXBXBXBXBXBXBXBXBXBXBXBXBXBXBXBXBXBX. o   BXBXBXBXo 5 + BXBXBXBXz q.< BXBX- x P BXBXBXBXBXBXBXBXBXBXBXBXBXBXBXBXBXBXBXBXBX",
"BXBXBXBXBXBXBXBXBXBXBXBXBXBXBXBXBXBXBXBXBX. d   BXBXBXBX. 3 u BXBXBXBXa 0 BXBXBX= >.BXBXBXBXBXBXBXBXBXBXBXBXBXBXBXBXBXBXBXBXBXBX",
"BXBXBXBXBXBXBXBXBXBXBXBXBXBXBXBXBXBXBXBXBX. > d   BXBXBX. BX:   BXBXBXh - BXBXo G T BXBXBXBXBXBXBXBXBXBXBXBXBXBXBXBXBXBXBXBXBXBX",
"BXBXBXBXBXBXBXBXBXBXBXBXBXBXBXBXBXBXBXBXBXBX. # BXBXBXBXBXBXBXBXBXBX% L 9 BXBXo U K BXBXBXBXBXBXBXBXBXBXBXBXBXBXBXBXBXBXBXBXBXBX",
"BXBXBXBXBXBXBXBXBXBXBXBXBXBXBXBXBXBXBXBXBXBXBXBXBXBXBXBXBXBXBXBXBXBX8 j o BXBXo 5 X BXBXBXBXBXBXBXBXBXBXBXBXBXBXBXBXBXBXBXBXBXBX",
"BXBXBXBXBXBXBXBXBXBXBXBXBXBXBXBXBXBXBXBXBXBXBXBXBXBXBXBXBXBXBXBXBXBXBX$ o BXBX  #   BXBXBXBXBXBXBXBXBXBXBXBXBXBXBXBXBXBXBXBXBXBX",
"BXBXBXBXBXBXBXBXBXBXBXBXBXBXBXBXBXBXBXBXBXBXBXBXBXBXBXBXBXBXBXBXBXBXBX; #   BX. d + . BXBXBXBXBXBXBXBXBXBXBXBXBXBXBXBXBXBXBXBXBX",
"BXBXBXBXBXBXBXBXBXBXBXBXBXBXBXBXBXBXBXBXBXBXBXBXBXBXBXBXBXBXBXBXBXBXBX# g . BX  > 1 . BXBXBXBXBXBXBXBXBXBXBXBXBXBXBXBXBXBXBXBXBX",
"BXBXBXBXBXBXBXBXBXBXBXBXBXBXBXBXBXBXBXBXBXBXBXBXBXBXBXBXBXBXBXBXBXBXBXBXBXBXBXBXBXBXBXBXBXBXBXBXBXBXBXBXBXBXBXBXBXBXBXBXBXBXBXBX",
"BXBXBXBXBXBXBXBXBXBXBXBXBXBXBXBXBXBXBXBXBXBXBXBXBXBXBXBXBXBXBXBXBXBXBXBXBXBXBXBXBXBXBXBXBXBXBXBXBXBXBXBXBXBXBXBXBXBXBXBXBXBXBXBX"
};
