/* XPM */
static char *result[] = {
/* columns rows colors chars-per-pixel */
"64 64 190 2 ",
"   c #521300",
".  c #581600",
"X  c #631A00",
"o  c #751E00",
"O  c #7C1F00",
"+  c #6D2000",
"@  c #762100",
"#  c #7B2300",
"$  c #812200",
"%  c #8C2400",
"&  c #802C00",
"*  c #8E2B00",
"=  c #9E2700",
"-  c #982B00",
";  c #A32C00",
":  c #AC2C00",
">  c #A63201",
",  c #A93400",
"<  c #B33300",
"1  c #B63C00",
"2  c #BA3E00",
"3  c #CE3700",
"4  c #C53C01",
"5  c #CA3F04",
"6  c #BE4101",
"7  c #BE490B",
"8  c #BD561B",
"9  c #C64301",
"0  c #CA4502",
"q  c #CF4801",
"w  c #CC4B0D",
"e  c #D34402",
"r  c #DA4600",
"t  c #D34803",
"y  c #DB4C04",
"u  c #CD510C",
"i  c #DD540C",
"p  c #D1520E",
"a  c #DE5B18",
"s  c #DC5A15",
"d  c #E44E02",
"f  c #EB4B02",
"g  c #E4530C",
"h  c #EB540D",
"j  c #E5580F",
"k  c #EC5A0E",
"l  c #E75305",
"z  c #F15504",
"x  c #FF5D07",
"c  c #F45409",
"v  c #F25C0D",
"b  c #FA520E",
"n  c #E04810",
"m  c #EA4E10",
"M  c #E45A13",
"N  c #EC5B14",
"B  c #E55D1A",
"V  c #F45E10",
"C  c #F35515",
"Z  c #EE631B",
"A  c #EA691F",
"S  c #E1631C",
"D  c #F46215",
"F  c #F96313",
"G  c #F2691E",
"H  c #FB6A1C",
"J  c #F9651C",
"K  c #FE711E",
"L  c #DF763C",
"P  c #EB6722",
"I  c #EF6C21",
"U  c #EB6F2A",
"Y  c #E56E26",
"T  c #F66624",
"R  c #F46E24",
"E  c #F26C2D",
"W  c #FD6C26",
"Q  c #EC752E",
"!  c #F07026",
"~  c #FE7424",
"^  c #FE7A27",
"/  c #F4752C",
"(  c #FB752B",
")  c #F7782C",
"_  c #FF7C2C",
"`  c #E06435",
"'  c #E07231",
"]  c #EE7A32",
"[  c #EE7D39",
"{  c #F17634",
"}  c #F57B34",
"|  c #FD7D31",
" . c #F7793C",
".. c #E67D40",
"X. c #F97F43",
"o. c #F77F4A",
"O. c #FF802D",
"+. c #ED823C",
"@. c #F48031",
"#. c #FE8434",
"$. c #FF8835",
"%. c #F68339",
"&. c #FB853B",
"*. c #F0893F",
"=. c #FE8C3B",
"-. c #FF923E",
";. c #EE8842",
":. c #EF854C",
">. c #FD8740",
",. c #F58841",
"<. c #FB8C43",
"1. c #FF8A4C",
"2. c #F38A4A",
"3. c #ED964E",
"4. c #F69147",
"5. c #FE9343",
"6. c #FF9946",
"7. c #F5974D",
"8. c #FE954A",
"9. c #FF9C4B",
"0. c #F4984D",
"q. c #F68C55",
"w. c #F78E58",
"e. c #FB9353",
"r. c #F59F53",
"t. c #FD9D53",
"y. c #F09B59",
"u. c #FD9C5A",
"i. c #FFA24D",
"p. c #FFA453",
"a. c #FFAA56",
"s. c #F7A05C",
"d. c #FDA55B",
"f. c #FFAC5A",
"g. c #FFB35D",
"h. c #FFB85E",
"j. c #FFA566",
"k. c #F7AB60",
"l. c #FFAD62",
"z. c #FFAD6F",
"x. c #FFB463",
"c. c #FFBB65",
"v. c #FEB56C",
"b. c #FFBD6A",
"n. c #FDB574",
"m. c #FFBD74",
"M. c #FFBD79",
"N. c #FFC067",
"B. c #FFC36D",
"V. c #FFC96F",
"C. c #FFC572",
"Z. c #FFCB73",
"A. c #FEC37B",
"S. c #FFCD7A",
"D. c #FFD277",
"F. c #FFD37B",
"G. c #FFD97E",
"H. c #FFC780",
"J. c #FFCE80",
"K. c #FFCA8D",
"L. c #FFD582",
"P. c #FFDC83",
"I. c #FFD68B",
"U. c #FFDD8A",
"Y. c #FFCF95",
"T. c #FFDD93",
"R. c #FFD79F",
"E. c #FFD89F",
"W. c #FFE286",
"Q. c #FFE48B",
"!. c #FFE98D",
"~. c #FFE592",
"^. c #FFEC93",
"/. c #FFE599",
"(. c #FFEC9A",
"). c #FFF196",
"_. c #FFF49B",
"`. c #FFF89E",
"'. c #FFE5A6",
"]. c #FFE2AB",
"[. c #FFF5A2",
"{. c #FFFAA4",
"}. c #FFF7A8",
"|. c #FFFCAB",
" X c #FFF0B0",
".X c #FFFEB3",
"XX c #FFFEBB",
"oX c #FFFFC3",
"OX c #FFFFC9",
"+X c None",
/* pixels */
"+X+X+X+X+X+X+X+X+X+X+X+X+X+X+X+X+X+X+X+X+X+X+X+X+X+X+X+X+X+X+X+X+X+X+X+X+X+X+X+X+X+X+X+X+X+X+X+X+X+X+X+X+X+X+X+X+X+X+X+X+X+X+X+X",
"+X+X+X+X+X+X+X+X+X+X+X+X+X+X+X+X+X+X+X+X+X+X+X+X+X+X+X+X+X+X+X+X+X+X+X+X+X+X+X+X+X+X+X+X+X+X+X+X+X+X+X+X+X+X+X+X+X+X+X+X+X+X+X+X",
"+X+X+X+X+X+X+X+X+X+X+X+X+X+X+X+X+X+X+X+X+X+X+X+X+X+X+X+X+X+X+X+X+X+X+X+X+X+X+X+X+X+X+X+X+X+X+X+X+X+X+X+X+X+X+X+X+X+X+X+X+X+X+X+X",
"+X+X+X+X+X+X+X+X+X+X+X+X+X+X+X+X+X+X+X+X+X+X+X+X+X+X+X+X+X+X+X+X. +X+X+X+X+X+X+X+X+X+X+X+X+X+X+X+X+X+X+X+X+X+X+X+X+X+X+X+X+X+X+X",
"+X+X+X+X+X+X+X+X+X+X+X+X+X+X+X+X+X+X+X  @ +X+X+X+X+X+X+X+X+X+X+X+X+X+X+X+X+X+X+X+X+X+X+X+X+X+X+X+X+X+X+X+X+X+X+X+X+X+X+X+X+X+X+X",
"+X+X+X+X+X+X+X+X+X+X+X+X+X+X+X+X+X+X+XX # X +X+X+X+X+X+X+X+X> t B y +X+X+X+XL ..8 - +X+X+X+X+X+X+X+X+X+X+X+X+X+X+X+X+X+X+X+X+X+X",
"+X+X+X+X+X+X+X+X+X+X+X+X+X+X+X+X+X+X+Xo @ @ +X$ +X+X+X+X+X+Xf =.#.i +X+X+X7 p.x.g.;.+X+X+X+X+X+X+X+X+X+X+X+X+X+X+X+X+X+X+X+X+X+X",
"+X+X+X+X+X+X+X+X+X+X+X+X+X+X+X+X+X+X% < ; : ; ; @ +X+X+X+Xq &.~ ~ c <.$.p Q i.c.8.+X+X+X+X+X+X+X+X+X+X+X+X+X+X+X+X+X+X+X+X+X+X+X",
"+X+X+X+X+X+X+X+X+X+X+X+X+X+X+X+X+X+X3 b 1.n.2.e 1 +X+Xh B p.c.a.c.J m.D.C.B.D.g.y +X+X+X+X+X+X+X+X+X+X+X+X+X+X+X+X+X+X+X+X+X+X+X",
"+X+X+X+X+X+X+X+X+X+X+X+X+X+X+X+X+X> n ( 8.A.x.&.Q [ 6.L.F.G.Z.C.F.Z.Q.Q.F.D.Z.Z.0.+X+X+X+X+X+X+X+X+X+X+X+X+X+X+X+X+X+X+X+X+X+X+X",
"+X+X+X+X+X+X+X+X+X+X+X+X+X+X+X+X< y.J.U.2.:.A.B.a.D.~.}.[.L.b.U.D.D._.Q.W.G.D.S.f.$.+X+X+X+X+X+X+X+X+X+X+X+X+X+X+X+X+X+X+X+X+X+X",
"+X+X+X+X+X+X+X+X+X+X+X+X+X+X+X+Xw.T.XX[.{ 1 %.a.f.{ @.p.S.S.x.x.B.G.Q._.^.D.i.+.%.d.C.A.3.+X+X+X+X+X+X+X+X+X+X+X+X+X+X+X+X+X+X+X",
"+X+X+X+X+X+X+X+X+X+X+X+X+X+X+Xz.].oX|.`.C.M g H #.| 9.i.N.F.N.a.P.).Q.{.|.D.d.P 5.Z.^.!.!.G.d.+X+X+X+X+X+X+X+X+X+X+X+X+X+X+X+X+X",
"+X+X+X+X+X+X+X+X+X+X+X+X+X+X+XY.].XX|.Q.m.M y r } Z.F.F.G.G.N.g.V.).`._.}.`.Q.D.Z.S.Z.W.G.G.F.] +X+X+X+X+X+X+X+X+X+X+X+X+X+X+X+X",
"+X+X+X+X+X+X+X+X+X+X+X+X+X+XE.R.n.M.l.b.C.x.b.r.g.G.).!.!.G.g.i.V.`.{.`.W.!.W.W.W.P.Q.G.!.!.D.r.+X+X+X+X+X+X+X+X+X+X+X+X+X+X+X+X",
"+X+X+X+X+X+X+X+X+X+X+X+X+Xn.L.p.u.&.#.Q.|.{._._.!.!.!.D.P.G.V.c.F.^.Q._.P.^.!.W.`._._._.`.B.c.p.~ e.x.+X+X+X+X+X+X+X+X+X+X+X+X+X",
"+X+X+X+X+X+X+X+X+X+X+X+Xw v.f.=.+X+Xu.~.|.|.^.).|.`.Q.Q.F.P.P.G.F.Z.G.W.!.~.^.F.).{.`._.~.f.I +Xu.~.U.u.+X+X+X+X+X+X+X+X+X+X+X+X",
"+X+X+X+X+X+X+X+X+X+X+X+Xr +XD +X+X+Xv..X.X.X).[..X[.W.).|.|.).W.G.W.V.B.P.).~._.{.).`._._.L.x.f.S.Z.c.S.u.` +X+X+X+X+X+X+X+X+X+X",
"+X+X+X+X+X+X+X+X+X+X+X+X+X0 +X+X+X9.L.}.|..XW.!.[.`.[.XXXX.X}._.).G.F.Z.P.!.!.!.{.{.{.|.[._.Q.G.Q.Q.Q.|.U.j.q.+X+X+X+X+X+X+X+X+X",
"+X+X+X+X+X+X+X+X+X+X+X+X1 M | ^ _ f.P.Q.[.{.}.{.{.{..XoXOXXX[.{.|.|.|.~.^.`.)._.|.|.|..X{._.!.W.W.P.Q.}./.6.1.q.+X+X+X+X+X+X+X+X",
"+X+X+X+X+X+X+X+X+X+X+X+XP #.$.-.6.V.F._.|.{.{.|.}._.^.(.}.}.Q.!.).~.{.{.`._._.|.|.|.{.{.^.Q.)._.{.(.).`.Q.c.I.K.+X+X+X+X+X+X+X+X",
"+X+X+X+X+X+X+X+X+X+X+X+X@.O.^ O.i.Z.Q.{..X|.{._.P.B.Z.D.U.Q.Z.!.!.D.F.P.{.|.{..X{._.).P.!.^.~.^.Q.c.N.G.U.S.[. Xo.+X+X+X+X+X+X+X",
"+X+X+X+X+X+X+X+X+X+X+X+X@.p.i.h.V.W.`.|.|.|.}.|.[.).(.Q.Q.F.P.`.^.F.!._.^.F._._.).`.)._.W.G.B.B.S.c.D.!.^.!.U.A.+X+X+X+X+X+X+X+X",
"+X+X+X+X+X+X+X+X+X+X+X6 H 5.a.F.Z.G.W.~.`.^.Q.D.V.B.P.Z.b.Z.!.!.^.!.!.G.L.S.F.B.P.).|._.Q.!.D.h.c.G.^.`.).F.x.+X+X+X+X+X+X+X+X+X",
"+X+X+X+X+X+X+X+X+X+X6 g K -.h.V.D.G.D.~.[.^.Q.b.a.c.f.N.g.C.~.Q.P.P.G.a.V.B.9.c.).`.{.[.{.`.Q.g.#.N.Q.).^.S.+X+X+X+X+X+X+X+X+X+X",
"+X+X+X+X+X+X+X+X& 1 g z -.i.V.F.P.D.S._.[.Q.B.D.d.~ 9.5.i.g.f.G.f.5.a.i.c.B.B.W.!.P.G.[..X{.U.c.^ g.P.).!.U.+X+X+X+X+X+X+X+X+X+X",
"+X+X+X+X+X= ; +X( | x.#.$.a.c.G.).Q._.L.B.f.V.N.c.x.g.x.x.N.Z.B.c.f.x.G.^.G.D.^._.!._..X.X[.G.B.g.C.V.W.^.l.+X+X+X+X+X+X+X+X+X+X",
"+X+X+X+X+X+Xe z R 5.g.b.h.B.D.D.Q.W.Q.N.B.D.Q._.G.^.`._.!.Q.c.~.^.U.L.F.D.L.S.F.[.|.`.|..X|.!.Q.F.Z.D.W.B.A +X+X+X+X+X+X+X+X+X+X",
"+X+X+X+X+X+X+X+X9 p.B.F.W.F.C.f.x.b.a.9.#.b.G.}.~.U.U.D.g.V.^.[.!.^.{.|.|.`._.!.|.OX.X|.{._.^.W.P.Z.G.W.Z.k +X+X+X+X+X+X+X+X+X+X",
"+X+X+X+X+X+X+X+X+X} C.S.D.U.W.x.6.p.<.$.B.Z.Z.`.P.#.6.f.B.!.|..X|._._.^.)._._.[.XXOXOX|.).^._.!.^.`.!.!.!.c.4.+X+X+X+X+X+X+X+X+X",
"+X+X+X+X+X+X+X+X+X] N.D.Z.D.C.i.~ x =.p.D.P.G.U.8.J / =.Z.W.|.|.}.|.^.Q.Q.|.|.|.|..XXX|..X{._.G.P._.{.).^._.^.L.p.M 5 % +X+X+X+X",
"+X+X+X+X+X+X+X+X+X+Xc.F.D.N.-._ ( =.p.a.h.c.W.P.p.~ 9.g.Z.F._._..X.X{.`.W.[.!.F.U.Q.Q.}..X|.{.!.^.|.|.`.Q.P.U.F.a.<.J 4 +X+X+X+X",
"+X+X+X+X+X+X+X+X+X+X4.S.N.V.Z.a.i.S.Z.g.i.c.F.p.-.O.f.p.b.~.^.D.[.XX.X{._.^.~.L.S.U.^.).Q.).`.{.{.{.|.{.^.f.=.~ 6.f.} - +X+X+X+X",
"+X+X+X+X+X+X+X+X+X+Xk <.S.W.W.D.V.D.P.N.L.B.b.9.-.c.N.f.f.Z.F.(.{.}.}.(.S.Q._.^.b.Q..X{._.Z.Q.|.`.{.{.^.S.=.^ F Z Z u +X+X+X+X+X",
"+X+X+X+X+X+X+X+X+X+X+Xz &.B.Q.W.)._.Q.A.g.g.P.U.c.i.f.6.6.W.W.(.!._._.Q.S._._._.c.C.P.|.|.}.Q.[.[..X|.~.+X+X+X+X+X+X+X+X+X+X+X+X",
"+X+X+X+X+X+X+X+X+X+Xk 8.p.L.~.S.F.|.).D.c.F.W._.F.f.f.( p._.[.S.S.F.U.~._._.^._.Q.P.S.G.Q.T.}..X{._.`.c.+X+X+X+X+X+X+X+X+X+X+X+X",
"+X+X+X+X+X+X+X+X+X+XD #.B._.Q.S.^.^._.Q.c.L.}.I.x.p.6.-.f.D._.W.Q.U.D.U.^.~.S.f.a.c.#.$.i.~ &.~.|._.v.+X+X+X+X+X+X+X+X+X+X+X+X+X",
"+X+X+X+X+X+X+X+XY $./ C.Q.}.U.Q.~.`.F.F.c.B.(.Z.f.a.a.g.S.b.x.A.P.F.P.f.L.F.F.F.9.$.=.~ ~ ^ O.u.m.p.+X+X+X+X+X+X+X+X+X+X+X+X+X+X",
"+X+X+X+X+X+X+X+X%.p.b.U.).).[.!.!._.U.N.i.Z.P.c.b.~ 6.a.D.B.U._.P.F.N.c.m.x.B.c.5.x.a.t.a.p.9.c +X+X+X+X+X+X+X+X+X+X+X+X+X+X+X+X",
"+X+X+X+X+X+X+X9 d V a.G.).U.`.F.F.P.f.S.x.Z.Z.#.H F $.p.P.P.D.N.Z.c.x.a.S.x.p.f.Z.S.5.#.5.S.r.0 +X_ k +X+X+X+X+X< O +X+X+X+X+X+X",
"+X+X+X+X+X+X+X+X+X+Xd.Q.).^.).V.U.V.c.c.x.f.x.p.9.$.&._ S.^.B.B.U.P.B.b.L.l.c.x.b.f.6.-.^ B g +X+XV <.s +X+X+X+Xm ; +X+X+X+X+X+X",
"+X+X+X+X+X+X+X+X+X+Xr.}.{.|.}.B.B.D.S.-.C.p.9.B.B.6.~ i.f.Q.~.G.U.Q.F.~.(.U.(.|.|.}.[.C.5.H 4 +X+XU a.8.+X+X+X+X+X% +X+X+X+X+X+X",
"+X+X+X+X+X+X+X+X+X+X+XA.m.(.T.d.6.u.l.h.c.a.f.f.D.f.f.g.5.Z.C.U.L.Z.}.|..X.X|.[.(.}.XX(.f.M y +X+Xd.Q.v.+X+X+X+X+XX +X+X+X+X+X+X",
"+X+X+X+X+X+X+X+X+X+X+X+XZ f.c.u.R y ( S.N.g.x.i.D.x.f.9.#.a.c.F.Q.[..X|..X.X~.P.D.Q.}.|./.C.7.+X+Xd.U.;.+X+X+X+X+XX +X+X+X+X+X+X",
"+X+X+X+X+X+X+X+X+X+X+X+X+X8.v.v.+X+X+Xd.Z.B.B.c.D.p.c.f.H -.6.L.(..XXX.X[.).~.U.B.L.~._.).D.S.e.+Xm.d.+X+X+X+X+X+X+X+X+X+X+X+X+X",
"+X+X+X+X+X+X+X+X+X+X+X+X+X+X+X+X+X+X+X<.8.L._.~.Q.x.Z.B.| t.x.F.|..X}..X[.^._.(.Q.F.^.~.F.c.L.S.u.x.+X+X+X+X+X+X+X+X+X+X+X+X+X+X",
"+X+X+X+X+X+X+X+X+X+X+X+X+X+X+X+X+X+X+X&.>.&.L.U.D.c.P.c.v.S.P.Q.[.|.(.K.T.Q.^.XX}.^.~.[.U.T./.`.l.a +X+X+X+X+X+X+X+X+X+X+X+X+X+X",
"+X+X+X+X+X+X+X+X+X+X+X+X+X+X+X+X+X+X0.C.} D / B.x.=.=.a.b.a.Z.~.[.^.n.+XS._.[.|..X[._.J.t.G.P.C.+X+X+X+X+X+X+X+X+X+X+X+X+X+X+X+X",
"+X+X+X+X+X+X+X+X+X+X+X+X+X+X+X+X+XM a.d.r N I c.c.B.Z.x.a.-.a.p.^.T.>.+Xe.U.(.}.~.C.d.l h f.$.,.+X+X+X+X+X+X+X+X+X+X+X+X+X+X+X+X",
"+X+X+X+X+X+X+X+X+X+X+X+X+X+X+X+X+Xt / y 1 s ! b.Z.S.U.P.F.P.U.Z.A.s.W m E M.M.(.L.c.S +X+Xu G +X+X+X+X+X+X+X+X+X+X+X+X+X+X+X+X+X",
"+X+X+X+X+X+X+X+X+X+X+X+X+X+X+X+X+X+X9 y +X+X+Xx.P.C.f.f.S.P.U.B.<.+X+X+XT j.d.M.J.l.+X+X+X+X+X+X+X+X+X+X+X+X+X+X+X+X+X+X+X+X+X+X",
"+X+X+X+X+X+X+X+X+X+X+X+X+X+X+X+X+X+X2 * +X+Xc c.P.c.&.i *.B.c.] 9 9 +X+X+X+X5.*.f.s.+X+X+X+X+X+X+X+X+X+X+X+X+X+X+X+X+X+X+X+X+X+X",
"+X+X+X+X+X+X+X+X+X+X+X+X+X+X+X+X+X+X+X+X+X+X+X{ x.;.+X+XQ c.x.N 2 +X+X+Xf d K d S +X+X+X+X+X+X+X+X+X+X+X+X+X+X+X+X+X+X+X+X+X+X+X",
"+X+X+X+X+X+X+X+X+X+X+X+X+X+X+X+X+X+X+X+X+X+X+X+X+X+X+X+X+X{ 6.c.4.6 +X+Xj +Xq 9 0 2 +X+X+X+X+X+X+X+X+X+X+X+X+X+X+X+X+X+X+X+X+X+X",
"+X+X+X+X+X+X+X+X+X+X+X+X+X+X+X+X+X+X+X+X+X+X+X+X+X+X+X+X+X+X' p.6.u +X, +X+X+X+X1 9 , +X+X+X+X+X+X+X+X+X+X+X+X+X+X+X+X+X+X+X+X+X",
"+X+X+X+X+X+X+X+X+X+X+X+X+X+X+X+X+X+X+X+X+X+X+XN +X+X+X+X+X+X+XH N +X+X+X+X+X+X+X+X+X+X+X+X+X+X+X+X+X+X+X+X+X+X+X+X+X+X+X+X+X+X+X",
"+X+X+X+X+X+X+X+X+X+X+X+X+X+X+X+X+X+X+X+X+X+X+Xw +X+X+X+X+X+X+X+X+X+X+X+X+X+X+X+X+X+X+X+X+X+X+X+X+X+X+X+X+X+X+X+X+X+X+X+X+X+X+X+X",
"+X+X+X+X+X+X+X+X+X+X+X+X+X+X+X+X+X+X+X+X+X+X+X+X+X+X+X+X0 | v. .C T +X+X+X+X+X+X+X+X+Xf f +X+X+X+X+X+X+X+X+X+X+X+X+X+X+X+X+X+X+X",
"+X+X+X+X+X+X+X+X+X+X+X+X+X+X+X+X+X+X+X+X+X+X+X+X+X+X+X+Xf / m./ ( R +X+X+X+X+X+X+X+X+X+X+X+X+X+X+X+X+X+X+X+X+X+X+X+X+X+X+X+X+X+X",
"+X+X+X+X+X+X+X+X+X+X+X+X+X+X+X+X+X+X+X+X+X+X+X+X+X+X+X+X+Xl N +X+X+X+X+X+X+X+X+X+X+X+X+X+X+X+X+X+X+X+X+X+X+X+X+X+X+X+X+X+X+X+X+X",
"+X+X+X+X+X+X+X+X+X+X+X+X+X+X+X+X+X+X+X+X+X+X+X+X+X+X+X+X+X+X+X+X+X+X+X+X+X+X+X+X+X+X+X+X+X+X+X+X+X+X+X+X+X+X+X+X+X+X+X+X+X+X+X+X",
"+X+X+X+X+X+X+X+X+X+X+X+X+X+X+X+X+X+X+X+X+X+X+X+X+X+X+X+X+X+X+X+X+X+X+X+X+X+X+X+X+X+X+X+X+X+X+X+X+X+X+X+X+X+X+X+X+X+X+X+X+X+X+X+X",
"+X+X+X+X+X+X+X+X+X+X+X+X+X+X+X+X+X+X+X+X+X+X+X+X+X+X+X+X+X+X+X+X+X+X+X+X+X+X+X+X+X+X+X+X+X+X+X+X+X+X+X+X+X+X+X+X+X+X+X+X+X+X+X+X",
"+X+X+X+X+X+X+X+X+X+X+X+X+X+X+X+X+X+X+X+X+X+X+X+X+X+X+X+X+X+X+X+X+X+X+X+X+X+X+X+X+X+X+X+X+X+X+X+X+X+X+X+X+X+X+X+X+X+X+X+X+X+X+X+X"
};
