/* XPM */
static char *result[] = {
/* columns rows colors chars-per-pixel */
"64 64 200 2 ",
"   c #541A00",
".  c #5C1B00",
"X  c #561500",
"o  c #671D00",
"O  c #6F1D00",
"+  c #672001",
"@  c #6F2300",
"#  c #732400",
"$  c #7C2500",
"%  c #772A00",
"&  c #7D2800",
"*  c #821E00",
"=  c #822700",
"-  c #8F2200",
";  c #842A00",
":  c #8B2C00",
">  c #9C2600",
",  c #942D00",
"<  c #9B2E00",
"1  c #932500",
"2  c #943202",
"3  c #9B3300",
"4  c #9E3800",
"5  c #AB2E01",
"6  c #A32200",
"7  c #BC2900",
"8  c #A33400",
"9  c #AC3600",
"0  c #A63900",
"q  c #AD3A00",
"w  c #B33600",
"e  c #B93600",
"r  c #B33A00",
"t  c #BC3C00",
"y  c #B83B0A",
"u  c #C23D00",
"i  c #CB3F00",
"p  c #C73909",
"a  c #CF3F0D",
"s  c #D43801",
"d  c #E03B07",
"f  c #BC4103",
"g  c #BE480B",
"h  c #C44201",
"j  c #CC4301",
"k  c #C54905",
"l  c #CC4A04",
"z  c #C4470D",
"x  c #C34A0E",
"c  c #CA4B0A",
"v  c #D44501",
"b  c #DB4501",
"n  c #D44A04",
"m  c #DC4B03",
"M  c #D24D0B",
"N  c #DD4E09",
"B  c #D64609",
"V  c #D75007",
"C  c #DD5001",
"Z  c #D35008",
"A  c #DD530B",
"S  c #C54C14",
"D  c #CF4F15",
"F  c #C14214",
"G  c #CB5310",
"H  c #C75718",
"J  c #C4591C",
"K  c #D35413",
"L  c #DD5514",
"P  c #D65913",
"I  c #DE5817",
"U  c #D45919",
"Y  c #DD5D1D",
"T  c #E54600",
"R  c #ED4700",
"E  c #E34C02",
"W  c #EB4D02",
"Q  c #E54F08",
"!  c #F64E00",
"~  c #E25005",
"^  c #ED5104",
"/  c #E4550C",
"(  c #EA540B",
")  c #EC5A0D",
"_  c #E6580D",
"`  c #F55404",
"'  c #F2550C",
"]  c #F45B0D",
"[  c #FA5C0C",
"{  c #FA5606",
"}  c #E25612",
"|  c #E35B16",
" . c #ED5B13",
".. c #E65D1B",
"X. c #EC5F1A",
"o. c #F45D13",
"O. c #F85F16",
"+. c #DD621F",
"@. c #EF6015",
"#. c #EC631C",
"$. c #EF691E",
"%. c #F36214",
"&. c #FB6314",
"*. c #FC6B17",
"=. c #F3641B",
"-. c #FA661A",
";. c #F46A1D",
":. c #FC6A1C",
">. c #FE711C",
",. c #CA5E23",
"<. c #E45E20",
"1. c #DA6223",
"2. c #D86829",
"3. c #D97433",
"4. c #E26424",
"5. c #ED6724",
"6. c #EC6B24",
"7. c #EB6D2B",
"8. c #E56829",
"9. c #F36721",
"0. c #F46C23",
"q. c #FA6E22",
"w. c #FC6522",
"e. c #EA742D",
"r. c #F57124",
"t. c #FD7324",
"y. c #FF7926",
"u. c #F5732A",
"i. c #FC752A",
"p. c #F57A2E",
"a. c #FD7B2C",
"s. c #EE7634",
"d. c #ED7D34",
"f. c #E77E3A",
"g. c #E17634",
"h. c #F37432",
"j. c #F57C33",
"k. c #FC7E32",
"l. c #F67E39",
"z. c #FF812D",
"x. c #EB8239",
"c. c #ED8136",
"v. c #F58235",
"b. c #FD8333",
"n. c #FF8A36",
"m. c #F4843B",
"M. c #FD853A",
"N. c #F68838",
"B. c #FE8C3B",
"V. c #FF913E",
"C. c #EE8D48",
"Z. c #E58643",
"A. c #F78641",
"S. c #FB8D42",
"D. c #EF964A",
"F. c #FE9443",
"G. c #FF9A46",
"H. c #FC954A",
"J. c #FE9C4B",
"K. c #F49449",
"L. c #ED9F51",
"P. c #FE9E50",
"I. c #FFA24D",
"U. c #FFA94F",
"Y. c #FFA552",
"T. c #FFAB55",
"R. c #F1A759",
"E. c #FFAD5A",
"W. c #F3AA5C",
"Q. c #FFB25C",
"!. c #FFB95F",
"~. c #FFAE62",
"^. c #F5AB60",
"/. c #FFB561",
"(. c #FFBB64",
"). c #FEBE69",
"_. c #FFBF73",
"`. c #FFC167",
"'. c #FFC46C",
"]. c #FFC96E",
"[. c #FFC672",
"{. c #FFCC73",
"}. c #FFCD79",
"|. c #FFD276",
" X c #FFD37B",
".X c #FFD97E",
"XX c #FFD681",
"oX c #FFDC83",
"OX c #FFDF8D",
"+X c #FFE185",
"@X c #FFE38A",
"#X c #FFE98E",
"$X c #FFE790",
"%X c #FFEC93",
"&X c #FFED9A",
"*X c #FFF095",
"=X c #FFF29B",
"-X c #FFF6A1",
";X c #FFF9A2",
":X c None",
/* pixels */
":X:X:X:X:X:X:X:X:X:X:X:X:X:X:X:X:X:X:X:X:X:X:X:X:X:X:X:X:X:X:X:X:X:X:X:X:X:X:X:X:X:X:X:X:X:X:X:X:X:X:X:X:X:X:X:X:X:X:X:X:X:X:X:X",
":X:X:X:X:X:X:X:X:X:X:X:X:X:X:X:X:X:X:X:X:X:X:X:X:X:X:X:X:X:X:X:X:X:X:X:X:X:X:X:X:X:X:X:X:X:X:X:X:X:X:X:X:X:X:X:X:X:X:X:X:X:X:X:X",
":X:X:X:X:X:X:X:X:X:X:X:X:X:X:X:X:X:X:X:X:X:X:X:X:X:X:X:X:X:X:X:X:X:X:X:X:X:X:X:X:X:X:X:X:X:X:X:X:X:X:X:X:X:X:X:X:X:X:X:X:X:X:X:X",
":X:X:X:X:X:X:X:X:X:X:X:X:X:X:X:X:X:X:X:X:X:X:X:X:X:X:X:X:X:X:X:X:X:X:X:X:X:X:X:X:X:X:X:X:X:X:X:X:X:X:X:X:X:X:X:X:X:X:X:X:X:X:X:X",
":X:X:X:X:X:X:X:X:X:X:X:X:X:X:X:X:X:X:X:X:X:X:X:X:X:X:X:X:X:X:X:X:X:X:X:X:X:X:X:X:X:X:X:X:X:X:X:X:X:X:X:X:X:X:X:X:X:X:X:X:X:X:X:X",
":X:X:X:X:X:X:X:X:X:X:X:X:X:X:X:X:X:X:X:X:X:X:X:X:X:X:X:X:X:X. :X:X:X:X0 :X:X:X:X:X:X:X:X:X:X:X:X:X:X:X:X:X:X:X:X:X:X:X:X:X:X:X:X",
":X:X:X:X:X:X:X:X:X:X:X:X:X:X:X:X:X:X:X:X:X:X:X:X:X:X:X:Xo X , e :X:X2 : : : : :X:X:X:X:X:X:X:X:X:X:X:X:X:X:X:X:X:X:X:X:X:X:X:X:X",
":X:X:X:X:X:X:X:X:X:X:X:X:X:X:X:X:X:X:X:X:X:X:X:X:X:X:X:X:X. e h : :X:X:X$ @ ; : :X:X:X:X:X:X:X:X:X:X:X:X:X:X:X:X:X:X:X:X:X:X:X:X",
":X:X:X:X:X:X:X:X:X:X:X:X:X:X:X:X:X:X:X:X:X:X. = :X:X:X:X:X:Xr v 2 = : , < q t ) k 2 :X:X:X:X:X:X:X:X:X:X:X:X:X:X:X:X:X:X:X:X:X:X",
":X:X:X:X:X:X:X:X:X:X:X:X:X:X:X:X:X:X:X:X:X3 b 8 :X:X:X:X:X:Xc G.Y t r E ' t.b.b.t.5.b.v.U q :X:X:X:X:X:X:X:X:X:X:X:X:X:X:X:X:X:X",
":X:X:X:X:X:X:X:X:X:X:X:X:X:X:X:X:X:X:X& 9 m v n q.e.S 3 G P H.Q.F.a.k.a.>.V.T.Q.T.'.T.{.'.S.0 :X:X:X:X:X:X:X:X:X:X:X:X:X:X:X:X:X",
":X:X:X:X:X:X:X:X:X:X:X:X:X:X:X8 M :X4 b m ~ t x.J.K.Y @.K.#.K.T.V.*.[ b.b.(.Q.T.`..X]..X{.Q.8.:X:X:X:X:X:X:X:X:X:X:X:X:X:X:X:X:X",
":X:X:X:X:X:X:X:X:X:X:X:X:X:X:X<.S.f v m k t l 7.v u e v u 3 u s.} i j E B.J.Y.Y.G.).`.Q.Y.n.C.:X:X:X:X:X:X:X:X:X:X:X:X:X:X:X:X:X",
":X:X:X:X:X:X:X:X:X:X:X:X:X:X:X+.n.S.H.6.0 . # t j e ; = 9 9 8 E T R N ;.G.G.`.(.G.'.].T.a.>.#.2 :X:Xt 5 :X:X:X:X:X:X:X:X:X:X:X:X",
":X:X:X:X:X:X:X:X:X:X:X:X:X:X:XJ E./.G.x.r :Xz z e j 2 : w r 3 ! ] i.E v.Q.[.`.Q.n.Q.I.z.z.>.V.#.0 2 #.a 1 :X:X:X:X:X:X:X:X:X:X:X",
":X:X:X:X:X:X:X:X:X:X:X:X:X:X:X8 4.E.I.F.;.%.X.5.j W y./ =.q.i.b.Y.I.D.{./.G.Y.I.b.n.G.T.V.T.Y.>.%.u.:.b.F O :X:X:X:X:X:X:X:X:X:X",
":X:X:X:X:X:X:X:X:X:X:X:X:X:X:X:Xr M.n.n.G.n...i [ { i.b.t.G.B.E.}.Q.`.XX).E.Q.(.I.M.G.F.E.}.h. .q.y.&.a.w.> :X:X:X:X:X:X:X:X:X:X",
":X:X:X:X:X:X:X:X:X:X:X:X:X:X:X:X9 / F.G.M.-.a.s.-.W ` { k.H. .E Z.B.(.{.oX|.E.P.G.Y.]./.Q.i.o.y.:.b.[ #.u.- :X:X:X:X:X:X:X:X:X:X",
":X:X:X:X:X:X:X:X:X:X:X:Xq Z v P d.F.T.M.&.{ i.B.Y.Q E M.Y.a.` t t | T.E.`.T.a.M.Q.E.H.H.n.` q.n.q.X.n j h :X:X:X:X:X:X:X:X:X:X:X",
":X:X:X:X:X:X:X:X:X:X:Xv %.t.Q S.F.T. XY.Y.t.V.).T. .W -.%.y.i.=.o.b z./.Y.b.[ k.F.n.M.y.q.O.B.G.;.t r q u n > * :X:X:X:X:X:X:X:X",
":X:X:X:X:X:X:X:X:X:X:Xt.y.y.W m E u..X`.Q.[. X{.Y.H.B.[.}.Q.F.B.F.i.] y.-.&.:.F.*.V.T.J.b.y.M.S.V :X:X3 v w p s 7 :X:X:X:X:X:X:X",
":X:X:X:X:X:X:X:X:Xu d.V.B.' [ ( 9.y.{.@X X].|.Q.!.oX X{.}.=X=X X{.].H.y.=.y.*.y.b.G.V.a.0.y.O.q.h :X$ 4 b 8 g.d 6 :X:X:X:X:X:X:X",
":X:X:X:X:X:X:X:X:Xr w v T b W *.t.F.{.#X.X{..XXX+X.X'.(.{.oX-X+X|. X].).(.(.'.E.,.x n.Y.'.E.b.b.E 0 r q 0 $ :X, :X:X:X:X:X:X:X:X",
":X:X:X:X:X:X:X:X:X:X$ 3 t I Y.(.Y.).|.@XoX%X-X-X|. X{.{.|..X@X#X.X}.+X*X$XoXoXW.G L ( F.(. X}.[.0.E 0.u.q :X:X:X:X:X:X:X:X:X:X:X",
":X:X:X:X:X:X:X:X:X:X# r 8.T.`.'.`.].].{.{.(.(.(.(.oX+X'.I.{.@X+X+X@X.X X{.T.F.S.M.U u M.J.E.{.XXB.:.J.I.~ n 2 :X:X:X:X:X:X:X:X:X",
":X:X:X:X:X:X:X:X:X:X= b ;.Q.Q.Q.Q.`.].T.F.V.P.T.]. X/.B.B.V.(.|.|.].Q.Y.M.I #.o.` a.} O.F.|.}.H. .>.G.Y.*.;.r :X:X:X:X:X:X:X:X:X",
":X:X:X:X:X:X:X:X:X:X:Xo.M.).Q.T.(.`.'.G.V.Q.Y.(.`.Y./.b.V.V.'.].|.|.(.E.} e u q.b.Y.).J.z.Q.Y.o.a./.I.V.V./ :X:X:X:X:X:X:X:X:X:X",
":X:X:X:X:X:X:X:X:X:Xc $.V.U.Q.T.T.T.!.Y.n.B.Q.'.].E.G.J.n.F.V.{..X@X#X.XM.^ v ^ ! n.E./.n.E.y.i.B.T.F.).G.j :X:X:X:X:X:X:X:X:X:X",
":X:X:X:X:X:X:X:X:X:X0 p.T.j.=.z.$.~ &.y.y.y.V.].oXE.F.p.:.M.G.Q.!.'.{.'.b.5.e r  .b.Q..X'.Q.;.q.(.Q.U.I.T.k : :X:X:X:X:X:X:X:X:X",
":X:X:X:X:X:X:X:X: h 5.Y.H.^ m b b | y.G./.H.Y.oX.XP.#.d.:.R 4.Y 6.b./.Y.Q M e u u.Q.oXoX.X(.J.T.Q.Q.(.!.V.b.U :X:X:X:X:X:X:X:X:X",
":X:X:X:X:X:X:X:X3 j.G.Y.B.( N u ..l.F.I.E.).[.~.H.i.I.U.E.u r ' -.Y.).u.W.XX).)./. X#X%X%X'.Q.].`.!.U.I.V.B.F.c :X:X:X:X:X:X:X:X",
":X:X:X:X:X:X:X:Xc v.n.b.A.r j i ;.B.x.T.T./.F.-.{ &.S.:X:X:Xf.p.n.Y.H./.{.{.$X$X#X;X*X%X%X|.].|.!.!.I.B.z.F.B.:.| y :X:X:X:X:X:X",
":X:X:X:X:X:X:X:X:XH 9.D q e r 3 #.F.T.'.!.V.V.7.0.Y.L.:XR.I.b.F.Q.).e./.XX{.[.XXoX-X;X$X$X.X|..XQ.U.(.(.H.M.Y.P.0.t :X:X:X:X:X:X",
":X:X:X:X:X:X:X:X:X:X8 9 : # 8 ..e.G.!.Q.Y.u.h x N.J.|.+X X.X.XE.(.).M.t.~.J.I.Q.{.%X%XoX X'.`.(.!.]. X|.Y.q.u.y.-.N :X:X:X:X:X:X",
":X:X:X:X:X:X:X:X:X:XO 9 S L =.k.I.Q.].Q.G.v.D.H.T.F.].=X$X#XoX@X'.).H.b.S.J.v.F.Y.Y.+XoX X(.(.T.n.B.F.=.v T u i.;.v 2 :X:X:X:X:X",
":X:X:X:X:X:X:X:X:X:X  0 #.a.J.).(.(.Y.Q.T.B.Y.H.0.y.(.=X%X+XoXoXoXoXj.'.'.(.G.>.-.7.oX=X+X].(.).G.n.[ ) :X:X:X1.%.E r :X:X:X:X:X",
":X:X:X:X:X:X:X:X:X:X= c *.q./.[.F.F.M.(.(.[./. .M.v.F.'.@X@XoXE.u.C.5.(.}.E.4.S u j K.@X#X X{.(.n.V.F.F.:X:X:X:Xj E 2 :X:X:X:X:X",
":X:X:X:X:X:X:X:X:X:Xx.E.Y.G.b.n.B.B.a.T. XXXH.j.(.(.J.G.Y.T.Q.:.( m u.E.J.h.8 3 t s 1.{.+XoX{.U.t.n.T.I.A f :X:Xq t 5 :X:X:X:X:X",
":X:X:X:X:X:X:X:X:X2 M.F.y.:.k.F.b.y.a.a.(.(.n.V.Y.H.u.A.y.Q.{.{.Y.] t.M.B.i.m N / A v 7.{.@X(.T.F.H.J.Y.Z :Xn m 0 u | + :X:X:X:X",
":X:X:X:X:X:X:X:X# & k ~ *.M.T.[.B.S.;.I.Q.].).E.7.v u 1.).!.(.oX[.S.k.Q.Q.b.E 0.G.v.4.s.B.oX).J.V.F.B.n.l r V v 8 0 e :X:X:X:X:X",
":X:X:X:X:X:X:X:X:X:X:X/ [ z.T.|.E.).Q.I.G.].(.Q.k.' u B p.J./.XX).'.[.oX]./.M.j.y.( M.H.9.}.].I.Y.i.q.^ j E h 9 8 = :X:X:X:X:X:X",
":X:X:X:X:X:X:X:X:X:X:X9 L V.Y..X|.).T.).{. X X@X'.s.e i A Q G.). XoXoX@X XoXoX'.M.] 9.u.Q..X/.Q.Y._ ` ` n 8 :X:X:X:X:X:X:X:X:X:X",
":X:X:X:X:X:X:X:X:X:X:X:X:Xf 4./.Q.G.V.G.E.oX%X%XE.S.X.u N #.J.).}.OX&X$XOX&XoX(.l.W =.:.r.Q.(.Y.-.^ B.B.C :X:X:X:X:X:X:X:X:X:X:X",
":X:X:X:X:X:X:X:X:X:X:X:X:X:X:XP n.I.Y.T.S.n./.[.S.u.y i :.V.[.XX X'.&X&XoXXX[.[./.a.( H.V.(.!.I.F.B.F.N.h :X:X:X:X:X:X:X:X:X:X:X",
":X:X:X:X:X:X:X:Xk V.v.m :X:X:X:Xr.Y.).V.J.F.Y.).P...r m *.F.OX%X&XOXXX%X$XP.9.A.a.o.G.G.T.(.T.V.M.9.&.) 4 :X:X:X:X:X:X:X:X:X:X:X",
":X:X:X:X:X:X:X:X:Xm o.W :X:X:X:X=.q.n.n.B.b.b.).h.u m -.N a.I.{.[.[. X X}.i.-.k.u.j =.M.I.F.I.a.y.( j 0 :X:X:X:X:X:X:X:X:X:X:X:X",
":X:X:X:X:X:X:X:X:Xt l :X:X:X:X:XY m ~ ;.v.Y.E./.Y.h.u u u a.V.Y.E.H.Q.T.j.m.E.S.r.G -.F.b.U F.;.M j t :X:X:X:X:X:X:X:X:X:X:X:X:X",
":X:X:X:X:X:X:X:X:X:X:X:X:X:X:X:X:X3  . .h i.Y.Y.E.J.i M j 5.F.Q.Y.Y.Y.Y.H.F.(.u.r.j.k.J.S.%.6.u n :X:X:X:X:X:X:X:X:X:X:X:X:X:X:X",
":X:X:X:X:X:X:X:X:X:X:X:X:X:X:X:X:X:Xr E j ;.0.] o.v.p.M.o.O.M.T.Q.(.E.B.I.J.3.8 8 w #.=.n...q u @.:X:X:X# :X:X:X:X:X:X:X:X:X:X:X",
":X:X:X:X:X:X:X:X:X:X:X:X:X:X:X:X:X:X:X2 :Xf 0 f q P (.s.o.Q ] M.F.}.).b.p.4.% @ : 0 , / c :X:X:X:X:X:X:X:X:X:X:X:X:X:X:X:X:X:X:X",
":X:X:X:X:X:X:X:X:X:X:X:X:X:X:X:X:X:X:X:X:X:X:X:X:X2.@X}.P.D.F.G.B.(.{.).E.6.c x e % 8 0 :X:X:X:X:X:X:X:X:X:X:X:X:X:X:X:X:X:X:X:X",
":X:X:X:X:X:X:X:X:X:X:X:X:X:X:X:X:X:X:X:X:X:X:X:X:XH.oX[.(.I.S.$.O./.).E.Y.T.I.J.x :X:X:X:X:X:X:X:X:X:X:X:X:X:X:X:X:X:X:X:X:X:X:X",
":X:X:X:X:X:X:X:X:X:X:X:X:X:X:X:X:X:X:X:X:X:X:X:X:Xh e.Y.M.=.t.m X.[./.M.m b.F.u.E 0 0 :X:X:X:X:X:X:X:X:X:X:X:X:X:X:X:X:X:X:X:X:X",
":X:X:X:X:X:X:X:X:X:X:X:X:X:X:X:X:X:X:X:X:X:X:X:X:X:Xj #.c.| _ h j k.M.S : t u q :X:X:X:X:X:X:X:X:X:X:X:X:X:X:X:X:X:X:X:X:X:X:X:X",
":X:X:X:X:X:X:X:X:X:X:X:X:X:X:X:X:X:X:X:X:X:X:X:X:X:X:Xr j ^ r 3 :X:Xr , :X:X:X:X:X:X:X:Xr :X:X:X:X:X:X:X:X:X:X:X:X:X:X:X:X:X:X:X",
":X:X:X:X:X:X:X:X:X:X:X:X:X:X:X:X:X:X:X:X:X:X:X:X:X:X:X:X2 8 n t N ( n :X:X:X:X:X:X:X:X$ 0 :X:X:X:X:X:X:X:X:X:X:X:X:X:X:X:X:X:X:X",
":X:X:X:X:X:X:X:X:X:X:X:X:X:X:X:X:X:X:X:X:X:X:X:X:X:X:X:X:X:Xj l  .a.C :X:X:X:X:X:X:X:X:X:X:X:X:X:X:X:X:X:X:X:X:X:X:X:X:X:X:X:X:X",
":X:X:X:X:X:X:X:X:X:X:X:X:X:X:X:X:X:X:X:X:X:X:X:X:X:X:X:X:X# u =.t.p.A :X:X:X:X:X:X:X:X:X:X:X:X:X:X:X:X:X:X:X:X:X:X:X:X:X:X:X:X:X",
":X:X:X:X:X:X:X:X:X:X:X:X:X:X:X:X:X:X:X:X:X:X:X:X:X:X:X:X:X:X, j b 9 :X:X:X:X:X:X:X:X:X:X:X:X:X:X:X:X:X:X:X:X:X:X:X:X:X:X:X:X:X:X",
":X:X:X:X:X:X:X:X:X:X:X:X:X:X:X:X:X:X:X:X:X:X:X:X:X:X:X:X:X:X:X:X3 :X:X:X:X:X:X:X:X:X:X:X:X:X:X:X:X:X:X:X:X:X:X:X:X:X:X:X:X:X:X:X",
":X:X:X:X:X:X:X:X:X:X:X:X:X:X:X:X:X:X:X:X:X:X:X:X:X:X:X:X:X:X:X:X:X:X:X:X:X:X:X:X:X:X:X:X:X:X:X:X:X:X:X:X:X:X:X:X:X:X:X:X:X:X:X:X",
":X:X:X:X:X:X:X:X:X:X:X:X:X:X:X:X:X:X:X:X:X:X:X:X:X:X:X:X:X:X:X:X:X:X:X:X:X:X:X:X:X:X:X:X:X:X:X:X:X:X:X:X:X:X:X:X:X:X:X:X:X:X:X:X",
":X:X:X:X:X:X:X:X:X:X:X:X:X:X:X:X:X:X:X:X:X:X:X:X:X:X:X:X:X:X:X:X:X:X:X:X:X:X:X:X:X:X:X:X:X:X:X:X:X:X:X:X:X:X:X:X:X:X:X:X:X:X:X:X",
":X:X:X:X:X:X:X:X:X:X:X:X:X:X:X:X:X:X:X:X:X:X:X:X:X:X:X:X:X:X:X:X:X:X:X:X:X:X:X:X:X:X:X:X:X:X:X:X:X:X:X:X:X:X:X:X:X:X:X:X:X:X:X:X"
};
