/* XPM */
static char *result[] = {
/* columns rows colors chars-per-pixel */
"64 64 86 1 ",
"  c #7A1A00",
". c #7C2000",
"X c #861F00",
"o c #881D00",
"O c #8B2300",
"+ c #952200",
"@ c #982200",
"# c #9A2F00",
"$ c #BE2901",
"% c #C32C01",
"& c #D52E00",
"* c #CA3001",
"= c #D63402",
"- c #D83607",
"; c #D83E0D",
": c #E23A0C",
"> c #EB4A10",
", c #E7431C",
"< c #FA451A",
"1 c #E45528",
"2 c #F15622",
"3 c #C4683E",
"4 c #F7602A",
"5 c #EC6131",
"6 c #F36D37",
"7 c #FB6F45",
"8 c #EA7042",
"9 c #F8774B",
"0 c #F87D4B",
"q c #F48056",
"w c #FE8153",
"e c #FF8A52",
"r c #FB8358",
"t c #F98C5E",
"y c #FF945C",
"u c #FF9E5E",
"i c #FB8C62",
"p c #F39065",
"a c #FE9162",
"s c #F59C64",
"d c #FE9B63",
"f c #FF956A",
"g c #FD9B6A",
"h c #FF9F71",
"j c #FFA46F",
"k c #FEA272",
"l c #FCA873",
"z c #FEA479",
"x c #FFAD7B",
"c c #FFB27B",
"v c #FFBB7D",
"b c #FFB482",
"n c #F7BC84",
"m c #FEBA84",
"M c #FFBD8B",
"N c #FFC087",
"B c #FFC48D",
"V c #FFCA8F",
"C c #FEC592",
"Z c #FFCC94",
"A c #FECC9B",
"S c #FFD493",
"D c #FFD996",
"F c #FFD39C",
"G c #FFDC9C",
"H c #FFE19F",
"J c #FFD6A3",
"K c #FFDCA3",
"L c #FEDDAA",
"P c #FFDFB0",
"I c #FFE3A4",
"U c #FFE8A6",
"Y c #FFE4AB",
"T c #FFEBAC",
"R c #FFE6B3",
"E c #FFEDB2",
"W c #FFEDBA",
"Q c #FFF1B5",
"! c #FFF4BC",
"~ c #FFF9BE",
"^ c #FFF5C2",
"/ c #FFFCC4",
"( c #FFFECC",
") c #FFFFD3",
"_ c #FFFFD9",
"` c None",
/* pixels */
"````````````````````````````````````````````````````````````````",
"````````````````````````````````````````````````````````````````",
"````````````````````````````````````````````````````````````````",
"````````````````````````````````````````````````````````````````",
"````````````````````````````````````````````````````````````````",
"````````````````````````````````````````````````````````````````",
"````````````````````````````````````````````````````````````````",
"````````````````````````````````````````````````````````````````",
"````````````````````````````````````````````````````````````````",
"````````````````````````````````````````````````````````````````",
"````````````````````````````````````````````````````````````````",
"```````````````````````````@``;`````````````````````````````````",
"````````````````````````` ``&``yde```O``````````````````````````",
"````````````````````````````*pBBB`r0````````````````````````````",
"````````````````````````%<`w7`LYWRVb``fkz```````````````````````",
"```````````````````````o-``k`ARJ~WJFAxARYc``````````````````````",
"``````````````````````@,`M`b`TK`W`ERLLW`(^J`````````````````````",
"`````````````````.`````flCAFEYTQ^^!!!`~/((/M````````````````````",
"``````````````````````MMCAJE^YKY//QT!^^!()(Tx```````````````````",
"`````````````````````tYYLRR`^`Q^`(^`(``))((~K```````````````````",
"`````````````````@````!/^^((/(^!``^/)_))_)(/F`1`#=``````````````",
"`````````````````````C^)(((`(``E()`/(__)(((~Lmk```O`````````````",
"`````````````````O`8J!^))`)`)(!/)`/~/)))(E^(QIv`w`+`````````````",
"`````````````````O```^/)))_))(`(((`/(())(^`//RA`y```````````````",
"````````````````````W``())`)_`(_(/^((()(((()(`Kz````````````````",
"````````````````$g`J/)`)`_)))(((((`(((()(``(~~(A````````````````",
"`````````````````MK/)__`)))))))((``)))((((((^/(~````````````````",
"```````````````9m``bT())))))))))(`()))))^((~///~n```````````````",
"``````````````2zR``5Z^`(()(`(`)(((((`(((^/(((/~!j```````````````",
"``````````````0Z/c`fR/(`/(/((((((`(`((()(//`)(~QRC``````````````",
"```````````````b)JLW/~(((^!/((`/^/`~~^/(/Q^_))(/Lg`%````````````",
"```````````````tRW)/(`^Q!~`()(/^^/~TT`Q^Q!/))`()````````````````",
"````````````````bR(((^`//^^`(/(/~/!U`T`~``((`(((!```````````````",
"`````````````````BW!(`///~~`/`/~~!QE`EE!!~`(((((/Lk`````````````",
"`````````````````K^KW`(`(~!/!``QQ`UTTTUTTTQ``//(`)``````````````",
"````````````````P()(Q```/!```ETTT`IDS`H``UTQ`!/(()``````````````",
"```````````````^)//)`!^/`!`QUIIUIIIDZSSSGYTT!~())(W`````````````",
"```````````````^/W^)(!//(~^QETUTYIIGSVSSDUQ`/(((((K`````````````",
"```````````````F!^`_(/((((//QETTTUTGSSS`HTQ//())))``````````````",
"````````````````C)_))/(((((/!TUT`UY`DSHTQQ~(/(((``u`````````````",
"````````````````mW)))()(((/^!EUTYIDSSDIQ!~/)/^((^M``````````````",
"`````````````````Z))()))`((/~QQQTTHDDH`!/(((KmL^A```````````````",
"```````````````````((__))(//`~~/~Q``ET~~(`^`Z`ZBd```````````````",
"`````````````````````)`((^~(`//~ESR`Q`KK`/``~WTc````````````````",
"````````````````````(EW^)/^/^^/~K`~^!TICBL~/(/Qy````````````````",
"```````````````````3`sW^`Y!YIET`EYT!Q`DM`ib``C``````````````````",
"``````````````````````````````ZUTQU/!T`6````````````````````````",
"````````````````````````:``````GTE^//Qm`````````````````````````",
"```````````````````````$@``````u`E///K``````````````````````````",
"```````````````````````````````mW~/~!F``````````````````````````",
"````````````````````````````````uI~Rh```````````````````````````",
"``````````````````````````````>`SRRa````````````````````````````",
"````````````````````````````0`4``B``````````````````````````````",
"````````````````````````````````l```````````````````````````````",
"````````````````````````````````````````````````````````````````",
"````````````````````````````````````````````````````````````````",
"````````````````````````````````````````````````````````````````",
"````````````````````````````````````````````````````````````````",
"````````````````````````````````````````````````````````````````",
"````````````````````````````````````````````````````````````````",
"````````````````````````````````````````````````````````````````",
"````````````````````````````````````````````````````````````````",
"````````````````````````````````````````````````````````````````",
"````````````````````````````````````````````````````````````````"
};
