/* XPM */
static char *result[] = {
/* columns rows colors chars-per-pixel */
"64 64 159 2 ",
"   c #541500",
".  c #601600",
"X  c #6C1D00",
"o  c #652200",
"O  c #6F2100",
"+  c #722300",
"@  c #792600",
"#  c #7F2800",
"$  c #822A00",
"%  c #8A2D00",
"&  c #9F2600",
"*  c #932D00",
"=  c #9D2F00",
"-  c #943100",
";  c #9B3200",
":  c #A12100",
">  c #AE2700",
",  c #A72D00",
"<  c #AC2D00",
"1  c #B92E00",
"2  c #A33300",
"3  c #AA3400",
"4  c #A33901",
"5  c #AC3B00",
"6  c #B23600",
"7  c #B33B00",
"8  c #BC3C00",
"9  c #C62C02",
"0  c #CD2D00",
"q  c #DD2F02",
"w  c #C33E00",
"e  c #E73002",
"r  c #BC4200",
"t  c #BB4B0E",
"y  c #B74A11",
"u  c #BF5719",
"i  c #C34302",
"p  c #CB4302",
"a  c #CA4804",
"s  c #C44C0F",
"d  c #C84C0A",
"f  c #D54401",
"g  c #DC4401",
"h  c #D44A04",
"j  c #DB4A02",
"k  c #DD4F0A",
"l  c #D7550D",
"z  c #DE520D",
"x  c #DD580F",
"c  c #C45515",
"v  c #C95111",
"b  c #CD5B1C",
"n  c #D35915",
"m  c #D65D1E",
"M  c #E24700",
"N  c #E74F06",
"B  c #EB4D03",
"V  c #FB4F00",
"C  c #E15106",
"Z  c #EE5607",
"A  c #E1530D",
"S  c #EC510B",
"D  c #E55A0E",
"F  c #ED590B",
"G  c #F15201",
"H  c #F45C0A",
"J  c #E25411",
"K  c #E25A13",
"L  c #E85E11",
"P  c #E25C19",
"I  c #F15F16",
"U  c #CB601E",
"Y  c #D5631D",
"T  c #DF641E",
"R  c #ED6215",
"E  c #E4621C",
"W  c #EB6B1C",
"Q  c #F46213",
"!  c #FA6415",
"~  c #FB6916",
"^  c #F3661B",
"/  c #F8671D",
"(  c #F56A1C",
")  c #FD6C1B",
"_  c #FE701C",
"`  c #D06629",
"'  c #D66C2B",
"]  c #D7702A",
"[  c #DA722E",
"{  c #DF7533",
"}  c #DB7C39",
"|  c #E46C25",
" . c #EC6C24",
".. c #EF6F28",
"X. c #F26E23",
"o. c #FC6F23",
"O. c #E2722D",
"+. c #E8762F",
"@. c #E7782C",
"#. c #EF7A2D",
"$. c #F27126",
"%. c #FC7322",
"&. c #FE7A26",
"*. c #F3742A",
"=. c #FB7729",
"-. c #F27A2D",
";. c #FA7A2B",
":. c #E67E33",
">. c #EC7D33",
",. c #F57732",
"<. c #F17B31",
"1. c #FC7D32",
"2. c #DA823A",
"3. c #FD832D",
"4. c #EB8034",
"5. c #E48239",
"6. c #EE8439",
"7. c #E88A3F",
"8. c #F68236",
"9. c #FE8332",
"0. c #FE8837",
"q. c #FC8338",
"w. c #F28B3E",
"e. c #FB8C3B",
"r. c #FE923D",
"t. c #E98540",
"y. c #EB8E41",
"u. c #FC8C41",
"i. c #EC9446",
"p. c #F39241",
"a. c #FE9443",
"s. c #F39845",
"d. c #FE9A45",
"f. c #FD9549",
"g. c #FD9B4A",
"h. c #F49C53",
"j. c #FB9C51",
"k. c #F6A14E",
"l. c #FFA14B",
"z. c #F7A252",
"x. c #FEA651",
"c. c #F6AA54",
"v. c #FEAA54",
"b. c #F4AA59",
"n. c #FFAE58",
"m. c #FFB55C",
"M. c #FFB95E",
"N. c #FDB561",
"B. c #FFBC64",
"V. c #FFC265",
"C. c #FEC46A",
"Z. c #FFC96E",
"A. c #FFCB74",
"S. c #FFD275",
"D. c #FFD67B",
"F. c #FFDA7C",
"G. c #FFDF80",
"H. c #FFE284",
"J. c None",
/* pixels */
"J.J.J.J.J.J.J.J.J.J.J.J.J.J.J.J.J.J.J.J.J.J.J.J.J.J.J.J.J.J.J.J.J.J.J.J.J.J.J.J.J.J.J.J.J.J.J.J.J.J.J.J.J.J.J.J.J.J.J.J.J.J.J.J.",
"J.J.J.J.J.J.J.J.J.J.J.J.J.J.J.J.J.J.J.J.J.J.J.J.J.J.J.J.J.J.J.J.J.J.J.J.J.J.J.J.J.J.J.J.J.J.J.J.J.J.J.J.J.J.J.J.J.J.J.J.J.J.J.J.",
"J.J.J.J.J.J.J.J.J.J.J.J.J.J.J.J.J.J.J.J.J.J.J.J.J.J.J.J.J.J.J.J.J.J.J.J.J.J.J.J.J.J.J.J.J.J.J.J.J.J.J.J.J.J.J.J.J.J.J.J.J.J.J.J.",
"J.J.J.J.J.J.J.J.J.J.J.J.J.J.J.J.J.J.J.J.J.J.J.J.J.J.J.J.J.J.J.J.J.J.J.J.J.J.J.J.J.J.J.J.J.J.J.J.J.J.J.J.J.J.J.J.J.J.J.J.J.J.J.J.",
"J.J.J.J.J.J.J.J.J.J.J.J.J.J.J.J.J.J.J.J.J.J.J.J.J.J.J.J.J.J.J.J.J.J.J.J.J.J.J.J.J.J.J.J.J.J.J.J.J.J.J.J.J.J.J.J.J.J.J.J.J.J.J.J.",
"J.J.J.J.J.J.J.J.J.J.J.J.J.J.J.J.J.J.J.J.J.J.J.J.J.J.J.J.J.J.J.J.J.J.J.J.J.J.J.J.J.J.J.J.J.J.J.J.J.J.J.J.J.J.J.J.J.J.J.J.J.J.J.J.",
"J.J.J.J.J.J.J.J.J.J.J.J.J.J.J.J.J.J.J.J.J.J.J.J.J.J.J.J.J.J.J.J.J.J.J.J.J.J.J.J.J.J.J.J.J.J.J.J.J.J.J.J.J.J.J.J.J.J.J.J.J.J.J.J.",
"J.J.J.J.J.J.J.J.J.J.J.J.J.J.J.J.J.J.J.J.J.J.J.J.J.J.J.J.J.J.J.J.J.J.J.J.J.J.J.J.J.J.J.J.J.J.J.J.J.J.J.J.J.J.J.J.J.J.J.J.J.J.J.J.",
"J.J.J.J.J.J.J.J.J.J.J.J.J.J.J.J.J.  J.J.J.J.J.J.J.J.J.J.J.J.J.J.J.J.$ ; E R E J.5 J.J.J.J.J.J.J.J.J.J.J.J.J.J.J.J.J.J.J.J.J.J.J.",
"J.J.J.J.J.J.J.J.J.J.J.J.J.J.J.J.J.X J.J.J.J.J.J.J.J.J.J.J.J.J.J.J.i r J _ a.r.3.^ 5 J.J.J.J.J.J.J.J.J.J.J.J.J.J.J.J.J.J.J.J.J.J.",
"J.J.J.J.J.J.J.J.J.J.J.J.J.J.J.J.+ J.J.J.J.J.J.J.J.J.J.J.J.J.J.J.h 0.a.a.x.0.a.r.Q f J.J.J.J.@ @ J.J.J.J.J.J.J.J.J.J.J.J.J.J.J.J.",
"J.J.J.J.J.J.J.J.J.J.J.J.J.J.J.J.J.J.J.J.J.J.J.J.J.J.J.J.J.J.J.J.J.3.r.l.a.J.J.i.W J.J.J.J.J.J.J.J.J.J.J.J.J.J.J.J.J.J.J.J.J.J.J.",
"J.J.J.J.J.J.J.J.J.J.J.J.J.J.J.J.J.J.J.J.J.J.J.J.J.J.J.J.J.J.J.J.J.J.A J.J.J.J.J.J.J.J.J.J.J.J.J.J.J.J.J.J.J.J.J.J.J.J.J.J.J.J.J.",
"J.J.J.J.J.J.J.J.J.J.J.J.J.J.J.J.J.J.J.J.J.J.J.J.J.J.J.J.J.J.J.J.J.J.J.J.J.J.J.J.J.J.J.J.J.J.J.J.J.J.J.J.J.J.J.J.J.J.J.J.J.J.J.J.",
"J.J.J.J.J.J.J.J.J.J.J.J.J.J.J.J.J.J.3 i J.h % J.J.J.J.J.J.J.J.J.J.J.J.J.J.J.J.J.J.J.J.J.J.J.J.J.J.J.J.J.J.J.J.J.J.J.J.J.J.J.J.J.",
"J.J.J.J.J.J.J.J.J.J.J.J.J.J.J.J.J.J.J.J.&.H x t J.J.J.J.J.J.J.J.J.J.J.J.J.J.J.J.J.J.J.J.J.J.J.J.J.J.J.J.J.J.J.J.J.J.J.J.J.J.J.J.",
"J.J.J.J.J.J.J.J.J.J.J.J.J.J.J.J.J.J.J.J.>.r.r.;.J.J.J.J.J.J.J.J.J.J.J.J.J.J.J.J.J.J...E p ; J.J.J.J.J.J.J.J.J.J.J.J.J.J.J.J.J.J.",
"J.J.J.J.J.J.J.J.J.J.J.J.J.J.J.J.J.J.J.z 3.g.=.) ) j J.J.J.J.J.J.J.J.J.J.J.J.J.( ;.d.a.;./ $. .J.J.J.J.J.J.J.J.J.J.J.J.J.J.J.J.J.",
"J.J.J.J.J.J.J.J.J.J.J.J.J.J.J.J.J.7 r 4 J.w.r.l.) ~ J.J.J.J.C ^ j h J.J.J.J.x l.v.m.r.l.,./ o.i + J.J.J.J.J.J.< : . J.J.J.J.J.J.",
"J.J.J.J.J.J.J.J.J.J.J.J.J.J.J.J.J.6.J.J.J.*.&.9.%.) J.J.i _ h J.J.4.x.4.v.x.n.r.l.r.( A E q.q.8 J.J.J.J.J.J.- , J.J.J.J.J.J.J.J.",
"J.J.J.J.J.J.J.J.J.J.J.J.J.J.J.J.J.5.Y J.! H V / 1.| J.J.J.J.J.J.J.J.U J.i.v.v.M.w.m J.J.J.J.O.8 J.J.J.J.J.J.J.J.J.J.J.J.J.J.J.J.",
"J.J.J.J.J.J.J.J.J.J.J.J.J.Q L J.J.J.J.J.J.J.* J.J.J.J.J.J.J.J.J.J.J.J.J.J.J.J.J.J.J.J.J.J.J.J.J.J.J.J.J.J.J.J.J.J.J.J.J.J.J.J.J.",
"J.J.J.J.J.J.J.J.J.J.J.2 W J.J.J.J.J.J.J.J.J.J.J.J.J.J.J.J.J.J.J.J.J.J.J.J.J.J.J.J.J.J.J.J.J.J.J.J.J.J.J.J.J.J.J.J.J.J.J.J.J.J.J.",
"J.J.J.J.J.J.J.J.J.J.J.J.J.J.J.J.J.J.J.J.J.J.J.J.J.J.J.J.J.J.J.8 M p J.J.J.J.J.J.J.J.J.J.J.J.J.J.J.J.J.J.J.J.J.J.J.J.J.J.J.J.J.J.",
"J.J.J.J.J.J.J.J.J.J.J.J.J.J.J.J.J.J.J.J.J.J.J.J.J.J.J.J.J.J.J.p A x 2 J.J.J.J.J.J.J.J.J.J.J.g.A - 3 w r J.J.J.J.J.J.J.J.J.J.J.J.",
"J.J.J.J.J.J.J.J.J.J.J.J.J.J.J.J.J.J.J.J.J.J.J.J.J.J.J.J.J.J.J.J.J.A J.J.J.J.J.J.J.J.J.J.i J.J.J.J.J.J.J.J.J.J.J.J.J.J.J.J.J.J.J.",
"J.J.J.J.J.J.J.J.J.J.J.J.J.J.y :.*.s.>.J.J.>.R 5 J.J.J.J.J.J.J.J.J.J.J.J.J.J.J.J.J.g.$.J.J.J.J.J.J.J.J.J.J.J.J.J.J.J.J.J.J.J.J.J.",
"J.J.J.J.J.J.J.J.J.J.J.J.J.J.J.c.M.V.Z.C.C.N.;.! Q b J.J.J.J.J.J.J.J.J.J.J.J.e.m.G.F.C.J.J.J.J.J.J.J.J.J.J.J.J.J.J.J.J.J.J.J.J.J.",
"J.J.J.J.J.J.J.J.J.J.J.J.J.J.J.J.[ M.B.m.B.r.i S ~ q.8.J.J.J.J.J.J.J.J.J.J.J.J.:.A.A.H.b.J.J.J.J.J.J.J.J.J.J.J.J.J.J.J.J.J.J.J.J.",
"J.J.J.J.J.J.J.J.J.J.J.J.J.J.J.J.J.J.4.m.x.3.X.P L 0.e.s J.J.J.J.J.J.J.J.J.J.J.J.u.n.v.X.J.J.J.J.J.J.J.J.J.J.J.J.J.J.J.J.J.J.J.J.",
"J.J.J.J.J.J.J.J.J.J.J.J.J.J.J.J.J.J.J.' N 3.3.7 J.J.J.J.J.J.J.J.J.J.J.J.J.J.J.J.J.N.H.H.m.k.J.J.J.J.J.J.J.J.J.6 ; J.J.q J.J.J.J.",
"J.J.J.J.J.J.J.J.J.J.J.J.J.J.J.J.J.J.J.J.J.J.J.J.J.J.J.J.J.J.J.J.J.J.J.J.J.J.J.J.J.J.S.A.V.l.J.J.J.J.J.4 * h ! B 3 > e 0 J.J.J.J.",
"J.J.J.J.J.J.J.J.J.J.J.J.J.J.J.J.J.J.J.J.J.J.J.J.J.J.J.J.J.J.J.J.J.J.J.J.J.J.J.J.J.J.J.#.<.x J.J.J.J.J.J.4 M B g f 1 J.9 J.J.J.J.",
"J.J.J.J.J.J.J.J.J.J.5 J.J.J.J.J.J.J.J.J.J.J.J.J.J.J.J.J.J.J.- J.J.J.J.J.J.J.J.J.J.J.6 5 5 J.J.J.J.J.J.J.J.$ J.j q g 0 J.J.J.J.J.",
"J.J.J.J.J.J.J.J.J.J.J.J.J.J.J.J.J.J.J.J.J.J.J.J.J.J.J.G Q j r 8 J.J.J.J.J.J.J.J.J.r Z F a J.J.J.J.J.J.J.J.J.J.J.; 2 , J.J.J.J.J.",
"J.J.J.J.J.@ - J.J.J.J.J.J.J.J.J.J.J.J.J.J.J.J.J.J.] r.x.9.$.J.J.J.J.J.J.J.J.J.J.J.0.9.9.a.v.J.J.J.J.J.J.J.J.J.J.J.o J.J.J.J.J.J.",
"J.J.J.J.J.O % J.J.J.J.J.J.J.J.J.J.J.D J.J.c K -.x.A.F.B.e.>.v J.J.J.J.J.J.J.J.J.J.n A C a ^ J.J.J.J.J.J.J.J.J.J.J.J.J.J.J.J.J.J.",
"J.J.J.J.J.J.J.J.J.J.J.J.J.J.J.J.J.| w.J.J.k.M.M.v.J.N.{ s 0.J.J.J.J.7 J.J.J.J.J.J.J.J.J.J.8 J.J.J.J.J.J.J.J.J.J.J.J.J.J.J.J.J.J.",
"J.J.J.J.J.J.J.J.J.J.J.J.J.J.J.J.J.J.J.i a.n.F.B.Y J.J.J.J.J.J.J.J.J.l r.q.8.E r J.J.J.J.J.J.J.J.J.J.J.J.J.J.J.J.J.J.J.J.J.J.J.J.",
"J.J.J.J.J.J.J.J.J.J.J.J.J.J.J.J.J.J.J.} S.B.V.F.` J.J.J.J.J.J.J.J.J.E x.q.j.6.J.J.J.J.J.J.J.J.J.J.J.J.$ J.J.J.J.J.J.J.J.J.J.J.J.",
"J.J.J.J.J.J.J.J.J.J.J.3 p J.J.J.J.J.J.h.F.A.B.B.J.J.J.J.J.J.J.J.J.J.J.| @.n J.J.J.J.J.J.J.$ g r J.J.$ + J.J.J.J.J.J.J.J.J.J.J.J.",
"J.J.J.J.J.J.J.J.J.J.J.J.4 J.J.J.v.C.8.J.h.S.x.>.J.J.J.J.J.J.J.J.J.J.J.J.J.J.J.J.J.J.J.J.J.J.J.J.J.J.- J.J.J.J.J.J.J.J.J.J.J.J.J.",
"J.J.J.J.J.J.J.J.J.J.J.J.J.5 J.4.V.C.J.J.F.Z.v.p.J.J.J.J.J.J.J.J.J.J.e.m.r.$.J.J.J.J.J.J.J.J.J.J.J.J.% J.J.J.J.J.J.J.J.J.J.J.J.J.",
"J.J.J.J.J.J.J.J.J.J.J.J.J.J.J.#.j.J.6.r.l.p.J.J.J.J.J.J.J.J.J.J.J.J.z.V.d.a.J.J.J.J.J.J.J.J.J.J.4 J.J.J.J.J.J.J.J.J.J.J.J.J.J.J.",
"J.J.J.J.J.J.J.J.J.J.J.J.J.J.J.J.J.J.J.J.c K g.J.J.y.9.a.J.J.J.J.J.J.2.i.a.X.J.J.J.J.J.J.J.J.J.J.J.J.J.J.J.J.J.J.J.J.J.J.J.J.J.J.",
"J.J.J.J.J.J.J.J.J.J.J.J.J.J.J.J.J.J.J.J.J.i b 1.g.B.B.B.N.J.J.J.J.J.J.J.J.J.J.J.J.J.J.J.J.J.J.J.J.J.J.J.J.J.J.J.J.J.J.J.J.J.J.J.",
"J.J.J.J.J.J.J.J.J.J.J.J.J.J.J.J.J.J.J.J.J.J.J.J.t.f.v.H.F.J.J.J.J.J.J.J.J.J.7 J.J.J.J.d F J.J.J.J.J.J.J.J.J.J.J.J.J.J.J.J.J.J.J.",
"J.J.J.J.J.J.J.J.J.J.J.J.J.J.J.J.J.J.J.J.J.J.J.J.J.J.$.B.v.J.J.f.J.J.J.J.J.i f J.J.J.J.f r 6 J.J.J.J.J.J.J.J.J.J.J.J.J.J.J.J.J.J.",
"J.J.J.J.J.J.J.J.J.J.J.J.J.J.J.J.J.J.J.J.J.J.J.J.J.J.J.e.a.B.A.N.J.J.J.J.J.i i J.J.J.J.2 * J.J.J.J.J.J.J.J.J.J.J.J.J.J.J.J.J.J.J.",
"J.J.J.J.J.J.J.J.J.J.J.J.J.J.J.J.J.J.J.J.J.J.J.J.J.J.J.J.J.P Y J.J.J.J.J.J.J.;.7 5 - - $ J.J.J.J.J.J.J.J.J.J.J.J.J.J.J.J.J.J.J.J.",
"J.J.J.J.J.J.J.J.J.J.J.J.J.J.J.J.J.J.J.J.J.J.J.J.J.J.J.J.J.J.J.J.J.J.J.J.J.J.J.J.J.J.J.J.J.J.J.J.J.J.J.J.J.J.J.J.J.J.J.J.J.J.J.J.",
"J.J.J.J.J.J.J.J.J.J.J.J.J.J.J.J.J.J.J.J.J.J.J.J.J.J.J.J.J.J.J.J.J.J.J.J.J.J.J.J.J.J.J.J.J.J.J.J.J.J.J.J.J.J.J.J.J.J.J.J.J.J.J.J.",
"J.J.J.J.J.J.J.J.J.J.J.J.J.J.J.J.J.J.J.J.J.J.J.J.J.J.J.J.J.J.J.J.J.J.J.J.J.J.J.J.J.J.J.J.J.J.J.J.J.J.J.J.J.J.J.J.J.J.J.J.J.J.J.J.",
"J.J.J.J.J.J.J.J.J.J.J.J.J.J.J.J.J.J.J.J.J.J.J.J.J.J.J.J.J.J.J.J.J.J.J.J.J.J.J.% J.J.J.J.J.J.J.J.J.J.J.J.J.J.J.J.J.J.J.J.J.J.J.J.",
"J.J.J.J.J.J.J.J.J.J.J.J.J.J.J.J.J.J.J.J.J.J.J.J.J.J.J.J.J.J.J.J.J.J.J.J.J.J.8 J.J.J.J.J.J.J.J.J.J.J.J.J.J.J.J.J.J.J.J.J.J.J.J.J.",
"J.J.J.J.J.J.J.J.J.J.J.J.J.J.J.J.J.J.J.J.J.J.J.J.J.J.J.J.J.J.J.J.J.J.J.J.J.= * J.J.J.J.J.J.J.J.J.J.J.J.J.J.J.J.J.J.J.J.J.J.J.J.J.",
"J.J.J.J.J.J.J.J.J.J.J.J.J.J.J.J.J.J.J.J.J.J.J.J.J.J.J.J.J.J.J.J.J.J.J.J.J.J.J.J.J.J.J.J.J.J.J.J.J.J.J.J.J.J.J.J.J.J.J.J.J.J.J.J.",
"J.J.J.J.J.J.J.J.J.J.J.J.J.J.J.J.J.J.J.J.J.J.J.J.J.J.J.J.J.J.J.J.J.J.J.J.J.J.J.J.J.J.J.J.J.J.J.J.J.J.J.J.J.J.J.J.J.J.J.J.J.J.J.J.",
"J.J.J.J.J.J.J.J.J.J.J.J.J.J.J.J.J.J.J.J.J.J.J.J.J.J.J.J.J.J.J.J.J.J.J.J.J.J.J.J.J.J.J.J.J.J.J.J.J.J.J.J.J.J.J.J.J.J.J.J.J.J.J.J.",
"J.J.J.J.J.J.J.J.J.J.J.J.J.J.J.J.J.J.J.J.J.J.J.J.J.J.J.J.J.J.J.J.J.J.J.J.J.J.J.J.J.J.J.J.J.J.J.J.J.J.J.J.J.J.J.J.J.J.J.J.J.J.J.J.",
"J.J.J.J.J.J.J.J.J.J.J.J.J.J.J.J.J.J.J.J.J.J.J.J.J.J.J.J.J.J.J.J.J.J.J.J.J.J.J.J.J.J.J.J.J.J.J.J.J.J.J.J.J.J.J.J.J.J.J.J.J.J.J.J.",
"J.J.J.J.J.J.J.J.J.J.J.J.J.J.J.J.J.J.J.J.J.J.J.J.J.J.J.J.J.J.J.J.J.J.J.J.J.J.J.J.J.J.J.J.J.J.J.J.J.J.J.J.J.J.J.J.J.J.J.J.J.J.J.J.",
"J.J.J.J.J.J.J.J.J.J.J.J.J.J.J.J.J.J.J.J.J.J.J.J.J.J.J.J.J.J.J.J.J.J.J.J.J.J.J.J.J.J.J.J.J.J.J.J.J.J.J.J.J.J.J.J.J.J.J.J.J.J.J.J.",
"J.J.J.J.J.J.J.J.J.J.J.J.J.J.J.J.J.J.J.J.J.J.J.J.J.J.J.J.J.J.J.J.J.J.J.J.J.J.J.J.J.J.J.J.J.J.J.J.J.J.J.J.J.J.J.J.J.J.J.J.J.J.J.J."
};
