/* XPM */
static char *result[] = {
/* columns rows colors chars-per-pixel */
"64 64 157 2 ",
"   c #751D00",
".  c #802200",
"X  c #932300",
"o  c #A42B02",
"O  c #AB2B02",
"+  c #BC2F00",
"@  c #B83100",
"#  c #BD3E0B",
"$  c #C32F00",
"%  c #C33F00",
"&  c #D23401",
"*  c #DD3600",
"=  c #CF480C",
"-  c #D14805",
";  c #DD4E0C",
":  c #CE4416",
">  c #EA4A06",
",  c #F44C0D",
"<  c #EF551B",
"1  c #E0581A",
"2  c #FB5E16",
"3  c #F05319",
"4  c #FE641E",
"5  c #E15E20",
"6  c #DE672C",
"7  c #DE6937",
"8  c #EC6423",
"9  c #E36C27",
"0  c #E4662C",
"q  c #ED6B2E",
"w  c #F16725",
"e  c #FD6125",
"r  c #F16D27",
"t  c #F36B2B",
"y  c #FF6F28",
"u  c #F4752B",
"i  c #FB722C",
"p  c #FB7A2A",
"a  c #F26931",
"s  c #FD6D32",
"d  c #EF7F3B",
"f  c #F67131",
"g  c #FB7437",
"h  c #FC7D35",
"j  c #F4733C",
"k  c #FD743D",
"l  c #F77F3C",
"z  c #F97D3B",
"x  c #ED7646",
"c  c #EE7A45",
"v  c #FD7841",
"b  c #F67E49",
"n  c #FE802E",
"m  c #EF8338",
"M  c #F28035",
"N  c #FE8235",
"B  c #FD833C",
"V  c #FE8A3C",
"C  c #E9894B",
"Z  c #FC8644",
"A  c #FF8D42",
"S  c #F78249",
"D  c #FE844C",
"F  c #F58A4B",
"G  c #FC8A4C",
"H  c #FF9044",
"J  c #FC9148",
"K  c #FF9A4D",
"L  c #F48652",
"P  c #FF8650",
"I  c #F18D52",
"U  c #FB8C55",
"Y  c #FB9353",
"T  c #FF9B53",
"R  c #FE945B",
"E  c #FD9B5C",
"W  c #FEA355",
"Q  c #F4A75D",
"!  c #FFA55A",
"~  c #FFAC5C",
"^  c #EF8E61",
"/  c #E99865",
"(  c #F79962",
")  c #FE9D63",
"_  c #FFA466",
"`  c #FEAC62",
"'  c #F7A46E",
"]  c #FFA66A",
"[  c #FFAA6C",
"{  c #FFB465",
"}  c #FFB46D",
"|  c #FFBA6B",
" . c #F7A573",
".. c #FBA573",
"X. c #F5AA74",
"o. c #FEAD72",
"O. c #FFAF79",
"+. c #F3B176",
"@. c #FEB375",
"#. c #FFBD72",
"$. c #FFB67B",
"%. c #FEBB7C",
"&. c #FFC16E",
"*. c #FFC474",
"=. c #FFC977",
"-. c #FFC47B",
";. c #FFCC7C",
":. c #FFD07E",
">. c #FEBD84",
",. c #FFBE89",
"<. c #F6C684",
"1. c #FFC582",
"2. c #FFCB82",
"3. c #FEC48B",
"4. c #FFCB8D",
"5. c #FFD484",
"6. c #FFD886",
"7. c #FFD48A",
"8. c #FFDC8C",
"9. c #FFC693",
"0. c #FFCA92",
"q. c #F6CD98",
"w. c #FFD493",
"e. c #FFDD93",
"r. c #FFD59D",
"t. c #FFDD9C",
"y. c #FFE08F",
"u. c #FFE493",
"i. c #FFE996",
"p. c #FFE49B",
"a. c #FFEC9B",
"s. c #FFF29E",
"d. c #FFD6A4",
"f. c #FFDEA4",
"g. c #FFE3A3",
"h. c #FFEDA3",
"j. c #FFE3AA",
"k. c #FFEDAC",
"l. c #FFF3A3",
"z. c #FFF9A6",
"x. c #FFF5AA",
"c. c #FFFBAC",
"v. c #FFE5B0",
"b. c #FFEBB3",
"n. c #FFECB9",
"m. c #FFF5B3",
"M. c #FFFDB3",
"N. c #FFF4BB",
"B. c #FFFEBC",
"V. c #FFEEC4",
"C. c #FFF4C4",
"Z. c #FFFFC3",
"A. c #FFF5CC",
"S. c #FFFFCB",
"D. c #FFFFD3",
"F. c #FFFFDB",
"G. c None",
/* pixels */
"G.G.G.G.G.G.G.G.G.G.G.G.G.G.G.G.G.G.G.G.G.G.G.G.G.G.G.G.G.G.G.G.G.G.G.G.G.G.G.G.G.G.G.G.G.G.G.G.G.G.G.G.G.G.G.G.G.G.G.G.G.G.G.G.",
"G.G.G.G.G.G.G.G.G.G.G.G.G.G.G.G.G.G.G.G.G.G.G.G.G.G.G.G.G.G.G.G.G.G.G.G.G.G.G.G.G.G.G.G.G.G.G.G.G.G.G.G.G.G.G.G.G.G.G.G.G.G.G.G.",
"G.G.G.G.G.G.G.G.G.G.G.G.G.G.G.G.G.G.G.G.G.G.G.G.G.G.G.G.G.G.G.G.G.G.G.G.G.G.G.G.G.G.G.G.G.G.G.G.G.G.G.G.G.G.G.G.G.G.G.G.G.G.G.G.",
"G.G.G.G.G.G.G.G.G.G.G.G.G.G.G.G.G.G.G.G.G.G.G.G.G.G.G.G.G.G.G.G.G.G.G.G.G.G.G.G.G.G.G.G.G.G.G.G.G.G.G.G.G.G.G.G.G.G.G.G.G.G.G.G.",
"G.G.G.G.G.G.G.G.G.G.G.G.G.G.G.G.G.G.G.G.G.G.G.G.G.G.G.G.G.G.G.G.G.G.G.G.G.G.G.G.G.G.G.G.G.G.G.G.G.G.G.G.G.G.G.G.G.G.G.G.G.G.G.G.",
"G.G.G.G.G.G.G.G.G.G.G.G.G.G.G.G.G.G.G.G.G.G.G.G.G.G.G.G.G.G.G.G.G.G.G.G.G.G.G.G.G.G.G.G.G.G.G.G.G.G.G.G.G.G.G.G.G.G.G.G.G.G.G.G.",
"G.G.G.G.G.G.G.G.G.G.G.G.G.G.G.G.G.G.G.G.G.G.G.G.G.G.G.4.G.G.G.G.G.G.G.G.G.G.G.G.G.3 3 a G.G.G.G.G.G.G.G.G.G.G.G.G.G.G.G.G.G.G.G.",
"G.G.G.G.G.G.G.G.G.G.G.G.G.G.G.G.G.G.G.G.G.G.G.G.G.$.N.S.0.G.G.G.G.G.G.G.G.G.G.G.G.w.D G.G.G.G.G.G.G.G.G.G.G.G.G.G.G.G.G.G.G.G.G.",
"G.G.G.G.G.G.G.G.G.G.G.G.G.G.G.G.G.G.G.G.G.G.G.G.G.f.F.D.B.w.c b E L / G.G.G.G. .$.t.G.G.G.G.G.G.G.G.G.G.G.G.G.G.G.G.G.G.G.G.G.G.",
"G.G.G.G.G.G.G.G.G.G.G.G.G.G.G.G.G.G.G.G.G.G.w.0.] V.F.D.B.B.b.j.Z.Z.Z.n.b.C.C.B.7.-.0 G.G.G.G.G.G.G.G.G.G.G.G.G.G.G.G.G.G.G.G.G.",
"G.G.G.G.G.G.G.G.G.G.G.G.G.G.G.G.G.g I U G.G.f.A.V.A.F.F.Z.M.B.Z.B.M.Z.S.B.B.S.B.g.! G.G.G.G.G.G.G.G.G.G.G.G.G.G.G.G.G.G.G.G.G.G.",
"G.G.G.G.G.G.G.G.G.G.G.G.G.G.G.G.G.h _ D G.G.r.0.j.v.D.D.Z.B.x.c.M.Z.S.S.M.c.B.M.p.z 8 G.G.G.G.G.G.G.G.G.G.G.G.G.G.G.G.G.G.G.G.G.",
"G.G.G.G.G.G.G.G.G.G.G.G.G.G.G.G.G.t j.9.v R [ G.$.g.M.h.h.z.5.u.Z.S.S.B.s.a.z.z.7.] *.>.$.G.G.G.G.G.G.G.G.G.G.G.G.G.G.G.G.G.G.G.",
"G.G.G.G.G.G.G.G.G.G.G.G.G.G.G.G.L d.A.D.O._ G.e ) 0.c.s.u.8.u.u.B.Z.D.Z.z.a.c.c.a.e.c.c.s.G.G.G.G.G.G.G.G.G.G.G.G.G.G.G.G.G.G.G.",
"G.G.G.G.G.G.G.G.G.G.G.G.G.G.G.G.U D.F.A.3.3.G.G.G.g.M.M.c.z.x.l.c.M.B.M.u.7.u.c.z.z.M.l.c.w.G.G.G.G.G.G.G.G.G.G.G.G.G.G.G.G.G.G.",
"G.G.G.G.G.G.G.G.G.G.@ G.e R o.o.,.V.V.d.4.b.9.G.j.Z.S.Z.M.c.M.z.z.M.Z.B.l.a.u.c.a.s.c.s.Z.N._ G.G.G.G.G.G.G.G.G.G.G.G.G.G.G.G.G.",
"G.G.G.G.G.G.G.G.G.G.X & G.E d.j.] ) U D 9.A.D.S.S.S.S.B.x.c.z.x.B.D.D.S.Z.z.u.i.u.u.s.l.Z.S.3.G.G.G.G.G.G.G.G.G.G.G.G.G.G.G.G.G.",
"G.G.G.G.G.G.G.G.G.G.G.* [ j.N.g.o.g G.S j.Z.Z.S.S.D.D.D.S.Z.S.D.D.D.D.D.Z.x.5.8.u.u.a.M.B.S.r.G.G.G.G.G.G.G.G.G.G.G.G.G.G.G.G.G.",
"G.G.G.G.G.G.G.G.G.G.G.G.z 7...} ! y G.h e.c.c.Z.D.D.D.F.D.S.D.D.S.S.Z.Z.Z.c.l.l.h.c.Z.S.S.S.f.2.B G.G.G.G.G.G.G.G.G.G.G.G.G.G.G.",
"G.G.G.G.G.G.G.G.G.G.G.G.G.R *.` f i n B u.c.B.S.D.D.D.S.Z.B.B.Z.Z.M.c.M.B.Z.B.B.B.B.Z.D.D.S.k.5.h G.G.G.G.G.o.1.G.G.G.G.G.G.G.G.",
"G.G.G.G.G.G.G.G.G.G.G.G.G.F =.;.K h { ;.i.c.Z.Z.S.D.Z.M.x.z.l.Z.S.B.M.c.z.M.B.B.M.Z.S.Z.S.S.b.p.4.U G.G @.0.C.Z.X.G.G.G.G.G.G.G.",
"G.G.G.G.G.G.G.G.G.G.G.G.G.d 5.8.;.` h.x.m.Z.Z.Z.D.F.Z.M.a.8.x.Z.S.S.B.M.M.B.B.B.B.B.Z.Z.S.b.f.>.t.j.n.k.m.S.S.Z.3.: G.G.G.G.G.G.",
"G.G.G.G.G.G.G.G.G.G.G.G.G.p ! =.5.a.M.Z.Z.S.Z.Z.S.D.S.B.s.5.u.M.S.Z.B.B.B.M.M.B.Z.M.M.B.m.o._ G.f.D.S.Z.B.B.S.N.' # G.G.G.G.G.G.",
"G.G.G.G.G.G.G.G.G.G.G.m B V G.Z 8.l.M.Z.S.S.Z.B.k.Z.B.h.s.l.M.S.Z.B.Z.B.B.B.Z.S.Z.B.M.M.M.7.e.p.S.F.D.Z.B.x.B.g.G.G.G.G.G.G.G.G.",
"G.G.G.G.G.G.G.G.G.G.~ 7.{ u G.` u.s.c.B.B.B.B.l.=.=.2.*.6.a.z.m.x.M.M.B.B.Z.S.Z.Z.Z.B.Z.B.e.e.M.S.D.D.S.M.M.Z.4.G.G.G.G.G.G.G.G.",
"G.G.G.G.G.G.G.G.G.W | u.u.-.T a.c.z.c.M.M.M.8.*.~ ~ ~ &.=.5.;.;.e.c.M.c.m.Z.Z.Z.M.B.B.B.B.B.h.l.c.S.S.Z.M.M.N.^ G.G.G.G.G.G.G.G.",
"G.G.G.G.G.G.G.G.9 | =.i.z.2.Z -.z.c.c.l.z.c.e.6.=.=.=.7.8.8.u.h.x.B.M.x.B.Z.Z.S.Z.c.z.x.c.B.m.c.c.M.Z.Z.M.k...G.G.G.G.G.G.G.G.G.",
"G.G.G.G.G.G.G.G.F =.;.i.l.*.` p.l.l.s.8.s.l.s.s.z.z.l.c.c.c.B.B.Z.Z.B.B.M.M.B.Z.B.c.M.x.M.B.k.a.c.s.B.Z.M.-.G.G.G.G.G.G.G.G.G.G.",
"G.G.G.G.G.G.G.G.M { 8.s.c.c.h.x.-.` 5.=.u.s.s.u.a.c.x.c.B.M.M.B.B.Z.Z.M.B.M.l.c.z.x.l.M.B.Z.B.B.B.x.B.M.x.R G.G.G.G.G.G.G.G.G.G.",
"G.G.G.G.G.G.G.G.G.| 6.l.c.M.B.h.%.@.l.i.i.u.a.l.c.B.x.M.x.M.c.z.x.B.Z.c.c.M.M.M.M.B.M.B.Z.Z.M.Z.Z.B.Z.B.g.G.G.G.G.G.G.G.G.G.G.G.",
"G.G.G.G.G.G.G.G.G.Z K 6.c.M.B.M.4.w.s.a.5.=.i.M.M.B.B.l.u.l.z.z.a.e.u.8.z.M.c.c.h.M.S.Z.Z.B.M.B.S.S.Z.B.u.y G.G.G.G.G.G.G.G.G.G.",
"G.G.G.G.G.G.G.G.G.G.% 7.c.c.M.Z.x.l.u.8.;.;.i.s.u.x.u.5.:.u.h.s.6.u.s.a.a.c.x.l.c.z.B.Z.S.B.c.x.Z.S.S.M.a.t G.V ; G.G.G.G.G.G.G.",
"G.G.G.G.G.G.G.G.G.G.G.t.M.B.B.g.t.c.s.8.y.u.u.z.z.s.;.| 6.u.8.a.l.u.u.c.B.B.B.B.c.c.B.Z.Z.B.M.M.M.S.S.D.N.F G.G.G.G.G.G.G.G.G.G.",
"G.G.G.G.G.G.G.G.G.G.G.q.S.Z.Z.N.B.M.M.M.h.u.#.8.x.a.;.:.;.s.s.x.x.c.m.B.B.B.x.M.Z.M.M.M.M.c.l.a.l.M.Z.S.N.j G.G.G.G.G.G.G.G.G.G.",
"G.G.G.G.G.G.G.G.G.G.G.9.C.Z.Z.Z.M.c.z.s.s.s.i.l.c.s.*.{ ~ 5.z.i.M.M.M.B.B.Z.c.c.B.M.M.M.M.x.e.s.a.c.Z.Z.g.G.G.G.G.G.G.G.G.G.G.G.",
"G.G.G.G.G.G.G.G.G.G.G.r.S.C.S.S.x.c.c.c.s.l.M.M.M.u.~ { &.:.z.M.x.x.8.l.B.B.M.M.x.M.z.z.c.M.-.y.u.c.Z.Z.$.G.G.0 G.G.G.G.G.G.G.G.",
"G.G.G.G.G.G.G.G.G.z $.S.F.D.S.B.M.M.M.c.8.u.l.p.M.l.| ~ 2.8.s.M.B.B.a.c.m.l.M.M.a.l.a.u.z.z.8.y.c.z.M.Z.( G.G.Q { G.G.G.G.G.G.G.",
"G.G.G.G.G.G.G.G.G.g.Z.S.S.D.S.Z.M.l.s.5.*.5.a.c.l.l.i.e.z.c.s.M.B.B.c.c.z.a.x.a.u.z.l.u.i.z.y.y.c.M.M.p.( G.G.J | G.G.G.G.G.G.G.",
"G.G.G.G.G.G.G.G.$.B.S.D.S.Z.B.Z.a.a.y.=.8.6.l.l.8.i.c.M.M.x.a.x.Z.B.M.M.M.B.M.a.6.u.a.M.l.a.6.i.c.l.M.R r G.R G.e f G.G.G.G.G.G.",
"G.G.G.G.G.G.G.G.G.r.N.S.Z.B.B.Z.h.a.a.i.5.;.5.l.5.5.8.c.c.z.M.B.Z.Z.M.c.M.M.M.i.8.i.c.B.h.e.u.s.z.s.a.` U ) ) k G.R o G.G.G.G.G.",
"G.G.G.G.G.G.G.G.G.G.9.S.Z.B.B.Z.M.M.a.s.u.6.6.s.5.;.*.=.s.M.B.B.B.B.Z.Z.Z.B.B.h.a.l.l.z.c.c.M.M.c.c.8.7.N.j.R G.G.N $   G.G.G.G.",
"G.G.G.G.G.G.G.G.G.G.,.n.Z.S.Z.B.p.4.p.x.l.s.l.s.8.;.=.6.x.B.B.Z.h.B.D.S.S.S.Z.B.B.B.B.M.M.M.B.Z.x.i.7.h.B.3.G.G.G.7 @ . G.G.G.G.",
"G.G.G.G.G.G.G.G.G.G.G.x >.n.D.j.x G.( h.c.c.c.l.5.2.T #.M.B.B.Z.g.B.S.D.Z.Z.B.M.M.c.m.l.c.B.B.B.M.h.-.@.1.G.G.G.G.G.G.G.G.G.G.G.",
"G.G.G.G.G.G.G.G.G.G.G.G.G.G.,.D G.G.G.| e.x.M.c.7.2.~ ` 8.B.Z.Z.M.Z.S.D.S.Z.B.B.B.l.=.7.s.c.c.M.M.z.x.1.G.G.G.G.G.G.G.G.G.G.G.G.",
"G.G.G.G.G.G.G.G.G.G.G.G.G.G.G.G.G.G.G.G._ 4.a.a.h.4.e.=.l.B.S.B.x.h.B.S.S.Z.Z.Z.Z.M.8.i.c.c.B.B.z.c.M.$.G.G.G.G.G.G.G.G.G.G.G.G.",
"G.G.G.G.G.G.G.G.G.G.G.G.G.G.G.G.G.G.G.G.G.G.2.=.u.u.h.a.M.M.N.B.M.a.x.S.S.Z.Z.Z.Z.Z.c.z.M.B.M.B.c.l.%.G.G.G.G.G.G.G.G.G.G.G.G.G.",
"G.G.G.G.G.G.G.G.G.G.G.G.G.G.G.G.G.G.G.G.1 G.-.u.e.e.i.c.M.Z.M.a.x.M.B.Z.S.Z.Z.S.S.Z.B.B.Z.B.M.c.l.2.G.G.G.G.G.G.G.G.G.G.G.G.G.G.",
"G.G.G.G.G.G.G.G.G.G.G.G.G.G.G.G.G.G.G.A V T W 5.-.7.u.c.c.Z.B.a.u.8.z.B.Z.S.D.S.S.S.m.N.Z.B.B.c.8.F G.G.G.G.G.G.G.G.G.G.G.G.G.G.",
"G.G.G.G.G.G.G.G.G.G.G.G.G.G.G.G.G.G.` W ! 5.5.5.;.=.&.i.l.B.B.B.M.a.u.8.1.m.S.S.S.Z.7.e.x.M.B.B.p.G.G.G.G.G.G.G.G.G.G.G.G.G.G.G.",
"G.G.G.G.G.G.G.G.G.G.G.G.G.G.G.G.G.G.$.-.| 8.6.;.=.T h ] @.h.M.Z.B.u.| #.p.h.B.S.N.9.G.G.G.+.>.3.o.G.G.G.G.G.G.G.G.G.G.G.G.G.G.G.",
"G.G.G.G.G.G.G.G.G.G.G.o > G.G.G.G., G.Y u.u.8.W N 2 - G.= %.7.p.1.-.A *.l.x.c.Z.4.G.G.G.G.G.G.G.G.s G.G.G.G.G.G.G.G.G.G.G.G.G.G.",
"G.G.G.G.G.G.G.G.G.G.G.G.G.G.G.G.G.G.G.+.M.h.7.K N J 5 G.G.V K G.G.G.G.t h.c.c.B.4.G.G.G.G.G.G.G.G.G.G.G.G.G.G.G.G.G.G.G.G.G.G.G.",
"G.G.G.G.G.G.G.G.G.G.G.G.G.G.G.G.G.G.G.R 0.e.2.5.} h G.G.G.G.J w G.G.G.j 1.h.c.7.G.G.G.G.G.G.G.G.G.G.G.G.G.G.G.G.G.G.G.G.G.G.G.G.",
"G.G.G.G.G.G.G.G.G.G.G.G.G.G.G.G.G.s G.G.D $.1.h.s.$.G.G.G.G.G.G.G.G.G.G.G.[ <.G.G.G.G.G.G.G.G.G.G.G.G.G.G.G.G.G.G.G.G.G.G.G.G.G.",
"G.G.G.G.G.G.G.G.G.G.G.G.G.G.G.G.G.G.G.G.G.G.r.k.7.T G.G.G.G.G.G.G.G.G.G.G.G.G.G.G.G.G.G.G.G.G.G.G.G.G.G.G.G.G.G.G.G.G.G.G.G.G.G.",
"G.G.G.G.G.G.G.G.G.G.G.G.G.G.G.G.G.G.G.G.G.G.k G.U G.G.G.G.G.G.U U G.G.G.G.G.G.G.G.G.G.G.G.G.G.G.G.G.G.G.G.G.G.G.G.G.G.G.G.G.G.G.",
"G.G.G.G.G.G.G.G.G.G.G.G.G.G.G.G.G.G.G.G.G.G.G.G.G.G.G.G.G.G.G.$.] B G.G.G.G.G.G.G.G.b G a G.G.G.G.G.G.G.G.G.G.G.G.G.G.G.G.G.G.G.",
"G.G.G.G.G.G.G.G.G.G.G.G.G.G.G.G.G.G.G.G.G.G.G.G.G.G.G.G.G.G.Z k G.G.G.G.G.G.G.G.G.G.G.O G.G.G.G.G.G.G.G.G.G.G.G.G.G.G.G.G.G.G.G.",
"G.G.G.G.G.G.G.G.G.G.G.G.G.G.G.G.G.G.G.G.G.G.G.G.G.G.G.G.G.C ;.F G.G.G.G.G.G.G.G.G.G.G.G.G.G.G.G.G.G.G.G.G.G.G.G.G.G.G.G.G.G.G.G.",
"G.G.G.G.G.G.G.G.G.G.G.G.G.G.G.G.G.G.G.G.G.G.G.G.G.G.G.G.G.! t.G.G.G.G.G.G.G.G.G.G.G.G.G.G.G.G.G.G.G.G.G.G.G.G.G.G.G.G.G.G.G.G.G.",
"G.G.G.G.G.G.G.G.G.G.G.G.G.G.G.G.G.G.G.G.G.G.G.G.G.G.G.G.G.G.G.G.G.G.G.G.G.G.G.G.G.G.G.G.G.G.G.G.G.G.G.G.G.G.G.G.G.G.G.G.G.G.G.G.",
"G.G.G.G.G.G.G.G.G.G.G.G.G.G.G.G.G.G.G.G.G.G.G.G.G.G.G.G.G.G.G.G.G.G.G.G.G.G.G.G.G.G.G.G.G.G.G.G.G.G.G.G.G.G.G.G.G.G.G.G.G.G.G.G.",
"G.G.G.G.G.G.G.G.G.G.G.G.G.G.G.G.G.G.G.G.G.G.G.G.G.G.G.G.G.G.G.G.G.G.G.G.G.G.G.G.G.G.G.G.G.G.G.G.G.G.G.G.G.G.G.G.G.G.G.G.G.G.G.G.",
"G.G.G.G.G.G.G.G.G.G.G.G.G.G.G.G.G.G.G.G.G.G.G.G.G.G.G.G.G.G.G.G.G.G.G.G.G.G.G.G.G.G.G.G.G.G.G.G.G.G.G.G.G.G.G.G.G.G.G.G.G.G.G.G."
};
