/* XPM */
static char *result[] = {
/* columns rows colors chars-per-pixel */
"64 64 202 2 ",
"   c #070008",
".  c gray3",
"X  c #100000",
"o  c #100800",
"O  c #180800",
"+  c #140808",
"@  c #181000",
"#  c #101008",
"$  c #181008",
"%  c #111010",
"&  c #171619",
"*  c #210000",
"=  c #290501",
"-  c #350301",
";  c #211000",
":  c #291000",
">  c #281900",
",  c #211008",
"<  c #291008",
"1  c #211808",
"2  c #291808",
"3  c #351006",
"4  c #311808",
"5  c #3B1808",
"6  c #281810",
"7  c #321F18",
"8  c #312110",
"9  c #392110",
"0  c #392910",
"q  c #252324",
"w  c #382D2A",
"e  c #420400",
"r  c #520000",
"t  c #520B00",
"y  c #520E08",
"u  c #4D1F0D",
"i  c #6B0000",
"p  c #6A0E09",
"a  c #7F0000",
"s  c #671C09",
"d  c #4D2A0F",
"f  c #422A10",
"g  c #4A2118",
"h  c #422918",
"j  c #4A2918",
"k  c #5A2719",
"l  c #4A311B",
"z  c #523118",
"x  c #5E3118",
"c  c #642C0C",
"v  c #523122",
"b  c #5F3121",
"n  c #583921",
"m  c #633921",
"M  c #713921",
"N  c #7A4211",
"B  c #604421",
"V  c #6F4421",
"C  c #6B4429",
"Z  c #764129",
"A  c #7A4A29",
"S  c #694831",
"D  c #514C51",
"F  c #8B0B00",
"G  c #8C0E08",
"H  c #940000",
"J  c #AD0000",
"K  c #B60D08",
"L  c #8E2100",
"P  c #8C2308",
"I  c #8C2310",
"U  c #8B2B1A",
"Y  c #B62800",
"T  c #B52308",
"R  c #B62310",
"E  c #B72C1A",
"W  c #C20000",
"Q  c #CE0000",
"!  c #DA0000",
"~  c #DA0C00",
"^  c #DD0D09",
"/  c #D61C0D",
"(  c #EB0000",
")  c #F70000",
"_  c red",
"`  c #F40D09",
"'  c #FF0808",
"]  c #FF100C",
"[  c #FD180E",
"{  c #FF1D18",
"}  c #DA2A00",
"|  c #D62D0C",
" . c #DC2A1B",
".. c #EB220C",
"X. c #FD210F",
"o. c #FD2D0D",
"O. c #EB3D03",
"+. c #FF3E03",
"@. c #F4291C",
"#. c #FF2D18",
"$. c #E33E18",
"%. c #F33E19",
"&. c #FF2521",
"*. c #FF2E2C",
"=. c #FF3121",
"-. c #FF3D21",
";. c #FF3D31",
":. c #FF3E39",
">. c #A34408",
",. c #B94407",
"<. c #A2451D",
"1. c #B9481D",
"2. c #814921",
"3. c #8F4E2D",
"4. c #815929",
"5. c #805131",
"6. c #935D30",
"7. c #945F39",
"8. c #AE4C2C",
"9. c #B5602E",
"0. c #B16539",
"q. c #D05007",
"w. c #DE5A08",
"e. c #CE421C",
"r. c #CE561D",
"t. c #E84E03",
"y. c #FF4E04",
"u. c #E75A00",
"i. c #E75A08",
"p. c #FB5A04",
"a. c #FD4A13",
"s. c #E8521D",
"d. c #FE5614",
"f. c #D66911",
"g. c #E76406",
"h. c #F36305",
"j. c #F66E05",
"k. c #E76310",
"l. c #E76F10",
"z. c #EF6B10",
"x. c #E76319",
"c. c #EF6318",
"v. c #E76C1D",
"b. c #EF6B18",
"n. c #F26310",
"m. c #EF731F",
"M. c #F97210",
"N. c #F9731D",
"B. c #DA502B",
"V. c #FF4A2C",
"C. c #FD5021",
"Z. c #EC503E",
"A. c #FF5731",
"S. c #FF5239",
"D. c #DB6B2D",
"F. c #C57D3C",
"G. c #EF6A21",
"H. c #EF6F2B",
"J. c #FC732D",
"K. c #F77C29",
"L. c #E36E39",
"P. c #FE6731",
"I. c #FF6B39",
"U. c #EC7E37",
"Y. c #F77F36",
"T. c #A96A42",
"R. c #FF4D42",
"E. c #FF534F",
"W. c #FF6C45",
"Q. c #FF6B58",
"!. c #DD8306",
"~. c #F7800D",
"^. c #FF8308",
"/. c #EC9A05",
"(. c #FF8418",
"). c #FFB412",
"_. c #FF8521",
"`. c #FF962E",
"'. c #E58C3A",
"]. c #FF8039",
"[. c #FF8C39",
"{. c #ED9738",
"}. c #FF9739",
"|. c #FEAC38",
" X c #FECA0A",
".X c #FFDD11",
"XX c yellow",
"oX c #FFD435",
"OX c #BA804E",
"+X c #CC9E50",
"@X c #E8874D",
"#X c #FF8142",
"$X c #FF8C42",
"%X c #FF804D",
"&X c #FF9742",
"*X c #FF9F4F",
"=X c #F48C5E",
"-X c #FF9452",
";X c #EEA062",
":X c #FEC44E",
">X c #E1B68E",
",X c None",
/* pixels */
",X,X,X,X,X,X,X,X,X,X,X,X,X,X,X,X,X,X,X,X,X,X,X,X,X,X,X,X,X,X,X,X,X,X,X,X,X,X,X,X,X,X,X,X,X,X,X,X,X,X,X,X,X,X,X,X,X,X,X,X,X,X,X,X",
",X,X,X,X,X,X,X,X,X,X,X,X,X,X,X,X,X,X,X,X,X,X,X,X,X,X,X,X,X,X,X,X,X,X,X,X,X,X,X,X,X,X,X,X,X,X,X,X,X,X,X,X,X,X,X,X,X,X,X,X,X,X,X,X",
",X,X,X,X,X,X,X,X,X,X,X,X,X,X,X,X,X,X,X,X,X,X,X,X,X,X,X,X,X,X,X,X,X,X,X,X,X,X,X,X,X,X,X,X,X,X,X,X,X,X,X,X,X,X,X,X,X,X,X,X,X,X,X,X",
",X,X,X,X,X,X,X,X,X,X,X,X,X,X,X,X,X,X,X,X,X,X,X4.XX,X,X,X,X,X,X,X,X,X,X,X,X,X,X,X,X,X,X,X,X,X,X,X,X,X,X,X,X,X,X,X,X,X,X,X,X,X,X,X",
",X,X,X,X,X,X,X,X,X,X,X,X,X,X,X,X,X,X,X,X,X,X,XB +X,X,X,X,X,X,X,X,X,X,X,X,X,X,X,X,X,X,X,X,X,X,X,X,X,X,X,X,X,X,X,X,X,X,X,X,X,X,X,X",
",X,X,X,X,X,X,X,X,X,X,X,X,X,X,X,X,X,X,X,X,X,X,X# 6.,X,X,X,X,X,X,X,X,X,X,X,X,X,X,X,X,X,X,X,X,X,X,X,X,X,X,X,X,X,X,X,X,X,X,X,X,X,X,X",
",X,X,X,X,X,X,X,X,X,X,X,X,X,X,X,X,X,X,X,X,X,X,X# 7.,X,X,X,X,X,X,X,X,X,X,X,X,X,X,X,X,X,X,X,X,X,X,X,X,X,X,X,X,X,X,X,X,X,X,X,X,X,X,X",
",X,X,X,X,X,X,X,X,X,X,X,X,X,X,X,X,X,X,X,X,X,X,X# 7.,X,X,X,X,X,X,X,X,X,X,X,X,X,X,X,X,X,X,X,X,X,X,X,X,X,X,X,X,X,X,X,X,X,X,X,X,X,X,X",
",X,X,X,X,X,X,X,X,X,X,X,X,X,X,X,X,X,X,X,X,X,X,X# 7.,X,X,X,X,X,X,X,X,X,X,X,X,X,X,X,X,X,X,X,X,X,X,X,X,X,X,X,X,X,X,X,X,X,X,X,X,X,X,X",
",X,X,X,X,X,X,X,X,X,X,X,X,X,X,X,X,X,X,X,X,X,X,X# 7.,X,X,X,X,X,X,X,X,X,X,X,X,X,X,X,X,X,X,X,X,X,X,X,X,X,X,X,X,X,X,X,X,X,X,X,X,X,X,X",
",X,X,X,X,X,X,X,X,X,X,X,X,X,X,X,X,X,X,X,X,X,X,X# 7.,X,X,X,X,X,X,X,X,X,X,X,X,X,X,X,X,X,X,X,X,X,X,X,X,X,X,X,X,X,X,X,X,X,X,X,X,X,X,X",
",X,X,X,X,X,X,X,X,X,X,X,X,X,X,X,X,X,X,X,X,X,X,X# 7.,Xu.,X,X,X,X,X,X,X,X,X,X,X,X,X,X,X,X,X,X,X,X,X,X,X,X,X,X,X,X,X,X,X,X,X,X,X,X,X",
",X,X,X,X,X,X,X,X,X,X,X,X,X,X,X,X,X,X,X,X,X,X,X# 7.,Xg.,X,X,X,Xi.x.H.,X,X,X,X,X,X,X,X,X,X,X,X,X,X,X,X,X,X,X,X,X,X,X,X,X,X,X,X,X,X",
",X,X,X,X,X,X,X,X,X,X,X,X,X,X,X,X,X,X,X,X,X,X,X# 7.,X,X,X,X,Xq.>.U r.k.,Xg.u.,X,X,X,X,X,X,X,X,X,X,X,X,X,X,X,X,X,X,X,X,X,X,X,X,X,X",
",X,X,X,X,X,X,X,X,X,X,X,X,X,X,X,X,X,X,X,X,X,X,X# 7.,Xi.z.z.i.@.{ ' H r.k.,X,X,X,X,X,X,X,X,X,X,X,X,X,X,X,X,X,X,X,X,X,X,X,X,X,X,X,X",
",X,X,X,X,X,X,X,X,X,X,X,X,X,X,X,X,X,X,X,X,X,X,X# 7.,X~.N.(.w.{ E.{ ^ 1.u.,X,X,X,X,X,X,X,X,X,X,X,X,X,X,X,X,X,X,X,X,X,X,X,X,X,X,X,X",
",X,X,X,X,X,X,X,X,X,X,X,X,X,X,X,X,X,X,X,X,X,X,X# 7.,XM.`._.}.P.;.;.%.[.`.z.u.,X,X,X,X,X,X,X,X,X,X,X,X,X,X,X,X,X,X,X,X,X,X,X,X,X,X",
",X,X,X,X,X,X,X,X,X,X,X,X,X,X,X,X,X,X,X,X,X,X,X# 7.,Xl.}.}.}.J.-.=.s.`.[.K.z.,X,X,X,X,X,X,X,X,X,X,X,X,X,X,X,X,X,X,X,X,X,X,X,X,X,X",
",X,X,X,X,X,X,X,X,X,X,X,X,X,X,X,X,X,X,X,X,X,X,X# 7.,XK.}.&Xm.r.Z.;.<.f.}.}.K.z.,X,X,X,X,X,X,X,X,X,X,X,X,X,X,X,X,X,X,X,X,X,X,X,X,X",
",X,X,X,X,X,X,X,X,X,X,X,X,X,X,X,X,X,X,X,X,X,X,X# 7.,X}.}.[.$./ X.{ ^ K r.}.&XK.,X,X,X,X,X,X,X,X,X,X,X,X,X,X,X,X,X,X,X,X,X,X,X,X,X",
",X,X,X,X,X,X,X,X,X,X,X,X,X,X,X,X,X,X,X,X,X,X,X# 7.}.%.C.I.V.=.~ &.;.' V.B.U.K.z.,X,X,X,X,X,X,X,X,X,X,X,X,X,X,X,X,X,X,X,X,X,X,X,X",
",X,X,X,X,X,X,X,X,X,X,X,X,X,X,X,X,X,X,X,X,X,X,X# 7.[.S.-.C.A.E.Q { *.&.#.;.%.K.,X,X,X,X,X,X,X,X,X,X,X,X,X,X,X,X,X,X,X,X,X,X,X,X,X",
",X,X,X,X,X,X,X,X,X,X,X,X,X,X,X,X,X,X,X,X,X,X,X# 7.H.Q.#.V.V.E.W @.&.;.&.S.-.K.,X,X,X,X,X,X,X,X,X,X,X,X,X,X,X,X,X,X,X,X,X,X,X,X,X",
",X,X,X,X,X,X,X,X,X,X,X,X,X,X,X,X,X,X,X,X,X,X,X$ 6.c.&.@.-.Q.E.^ { *.*.[ R.=.r.,X,X,X,X,X,X,X,X,X,X,X,X,X,X,X,X,X,X,X,X,X,X,X,X,X",
",X,X,X,X,X,X,X,X,X,X,X,X,X,X,X,X,X,X,X,X,X,XK.0.1.s.*...=.Q.E.^ [ :.*.&.Q.;.,.k.,X,X,X,X,X,X,X,X,X,X,X,X,X,X,X,X,X,X,X,X,X,X,X,X",
",X,X,X,X,X,X,X,X,X,X,X,X,X,X,X,X,X,X,X,X,X,Xs.W.@X-.E.m.P.=.E.] { E.&./ #.Q.J U ,X,X,X,X,X,X,X,X,X,X,X,X,X,X,X,X,X,X,X,X,X,X,X,X",
",X,X,X,X,X,X,X,X,X,X,X,X,X,X,X,X,X,X,X,X,X,X$.B.#X$.;.Y.&X&.:.] &.*.] w.c.&.^ s ,X,X,X,X,X,X,X,X,X,X,X,X,X,X,X,X,X,X,X,X,X,X,X,X",
",X,X,X,X,X,X,X,X,X,X,X,X,X,X,X,X,X,X,X,X,X,X,X# L.S./ [.*X=.;.{ :.&._ f.,Xt.' J ,X,X,X,X,X,X,X,X,X,X,X,X,X,X,X,X,X,X,X,X,X,X,X,X",
",X,X,X,X,X,X,X,X,X,X,X,X,X,X,X,X,X,X,X,X,X,X,X$ @XJ.t.].*X-.E.*.R.] ' D.,X,X' K ,X,X,X,X,X,X,X,X,X,X,X,X,X,X,X,X,X,X,X,X,X,X,X,X",
",X,X,X,X,X,X,X,X,X,X,X,X,X,X,X,X,X,X,X,X,X,X,X# f.H.z.].&XA.W.R.R.' ~ <.,X,Xt.` q.,X,X,X,X,X,X,X,X,X,X,X,X,X,X,X,X,X,X,X,X,X,X,X",
",X,X,X,X,X,X,X,X,X,X,X,X,X,X,X,X,X,X,X,X,X,X,X$ 5.G.D.).:X:X:X=XQ.R.%./ t P t. .} ,X,X,X,X,X,X,X,X,X,X,X,X,X,X,X,X,X,X,X,X,X,X,X",
",X,X,X,X,X,X,X,X,X,X,X,X,X,X,X,X,X,X,X,X,X,X,X+ F.b.E |.:X:X:XR.E.Q.S.-.G y w.%.t.,X,X,X,X,X,X,X,X,X,X,X,X,X,X,X,X,X,X,X,X,X,X,X",
",X,X,X,X,X,X,X,X,X,X,X,X,X,X,X,X,X,X,X,X,X,X,XD.U.e.@.A.K..XoX|.C.S.A.C.-.T L ,.,X,X,X,X,X,X,X,X,X,X,X,X,X,X,X,X,X,X,X,X,X,X,X,X",
",X,X,X,X,X,X,X,X,X,X,X,X,X,X,X,X,X,X,X,X,X,Xz.Y.s.C.-.-.X.)..XF.c -.-.#.C.%.} L k.,X,X,X,X,X,X,X,X,X,X,X,X,X,X,X,X,X,X,X,X,X,X,X",
",X,X,X,X,X,X,X,X,X,X,X,X,X,X,X,X,X,X,X,X,X,XY.G.C.P.C.%.T q   Z S w w P o.a.O.| v.G.,X,X,X,X,X,X,X,X,X,X,X,X,X,X,X,X,X,X,X,X,X,X",
",X,X,X,X,X,X,X,X,X,X,X,X,X,X,X,X,X,X,X,X,X,XY.b.a.C.C.P q X X T p v 6 q | a.a.O.v.m.,X,X,X,X,X,X,X,X,X,X,X,X,X,X,X,X,X,X,X,X,X,X",
",X,X,X,X,X,X,X,X,X,X,X,X,X,X,X,X,X,X,X,X,X,XY.c.d.d.e.o , 1 g } P o o X X Y a.a.>.v.i.,X,X,X,X,X,X,X,X,X,X,X,X,X,X,X,X,X,X,X,X,X",
",X,X,X,X,X,X,X,X,X,X,X,X,X,X,X,X,X,X,X,X,Xb.$XJ.J.s.c 9 < O L +.Y 3 X O o c <.E U U.x.,X,X,X,X,X,X,X,X,X,X,X,X,X,X,X,X,X,X,X,X,X",
",X,X,X,X,X,X,X,X,X,X,X,X,X,X,X,X,X,X,X,X,Xk.-XJ.J.d.P O o < Y d.O.e o   X c >.Y >.U.c.,X,X,X,X,X,X,X,X,X,X,X,X,X,X,X,X,X,X,X,X,X",
",X,X,X,X,X,X,X,X,X,X,X,X,X,X,X,X,X,X,X,X,X,X$Xd.+XC O 5 u U O.}.y.y 5 X   O 0 r.Y D.,X,X,X,X,X,X,X,X,X,X,X,X,X,X,X,X,X,X,X,X,X,X",
",X,X,X,X,X,X,X,X,X,X,X,X,X,X,X,X,X,X,X,X,X,Xm.n.OX~ ( ( _ @XO.*Xp.s M a r r 4 8.,.,X,X,X,X,X,X,X,X,X,X,X,X,X,X,X,X,X,X,X,X,X,X,X",
",X,X,X,X,X,X,X,X,X,X,X,X,X,X,X,X,X,X,X,X,X,Xc.k.E R 9._ _ x +.:XM.P h H G >X: z q.,X,X,X,X,X,X,X,X,X,X,X,X,X,X,X,X,X,X,X,X,X,X,X",
",X,X,X,X,X,X,X,X,X,X,X,X,X,X,X,X,X,X,X,X,X,Xk.c.W ^ / _ _ 2.y.:X(.P n H H 2.- 3 r.,X,X,X,X,X,X,X,X,X,X,X,X,X,X,X,X,X,X,X,X,X,X,X",
",X,X,X,X,X,X,X,X,X,X,X,X,X,X,X,X,X,X,X,X,X,X,Xb.! _ _ )  .<.h.:X`.>.M F W ! r = H.,X,X,X,X,X,X,X,X,X,X,X,X,X,X,X,X,X,X,X,X,X,X,X",
",X,X,X,X,X,X,X,X,X,X,X,X,X,X,X,X,X,X,X,X,X,X,Xb.` s.G I 3.1.j.:X).,.2.g Q i <.y Y.,X,X,X,X,X,X,X,X,X,X,X,X,X,X,X,X,X,X,X,X,X,X,X",
",X,X,X,X,X,X,X,X,X,X,X,X,X,X,X,X,X,X,X,X,X,X!.'.R :XH k U D.^.oX).q.6.b ( i '.* f.,X,X,X,X,X,X,X,X,X,X,X,X,X,X,X,X,X,X,X,X,X,X,X",
",X,X,X,X,X,X,X,X,X,X,X,X,X,X,X,X,X,X,X,X,X/./.{.e.-X_ 3.U M ^.oX Xf.j M ) H *Xg !.!./.,X,X,X,X,X,X,X,X,X,X,X,X,X,X,X,X,X,X,X,X,X",
",X,X,X,X,X,X,X,X,X,X,X,X,X,X,X,X,X,X,X,X,X,X,X,X%XG.e A m f !.oXoXf.; 5 y - ;XF.,X!.!.,X,X,X,X,X,X,X,X,X,X,X,X,X,X,X,X,X,X,X,X,X",
",X,X,X,X,X,X,X,X,X,X,X,X,X,X,X,X,X,X,X,X,X,X,X,X,X,XO C 4 T.N  X X/.; 2 o o ,X,X,X,X,X,X,X,X,X,X,X,X,X,X,X,X,X,X,X,X,X,X,X,X,X,X",
",X,X,X,X,X,X,X,X,X,X,X,X,X,X,X,X,X,X,X,X,X,X,X,X,X,XO z 8 A d  X X> $ 6 o o ,X,X,X,X,X,X,X,X,X,X,X,X,X,X,X,X,X,X,X,X,X,X,X,X,X,X",
",X,X,X,X,X,X,X,X,X,X,X,X,X,X,X,X,X,X,X,X,X,X,X,X,X,X,XC n Z @  X X. & C $ ,X,X,X,X,X,X,X,X,X,X,X,X,X,X,X,X,X,X,X,X,X,X,X,X,X,X,X",
",X,X,X,X,X,X,X,X,X,X,X,X,X,X,X,X,X,X,X,X,X,X,X,X,X,X,X4.5.C O  X X% % l $ ,X,X,X,X,X,X,X,X,X,X,X,X,X,X,X,X,X,X,X,X,X,X,X,X,X,X,X",
",X,X,X,X,X,X,X,X,X,X,X,X,X,X,X,X,X,X,X,X,X,X,X,X,X,X,XA 5.j ,X* ,X% & 2 X ,X,X,X,X,X,X,X,X,X,X,X,X,X,X,X,X,X,X,X,X,X,X,X,X,X,X,X",
",X,X,X,X,X,X,X,X,X,X,X,X,X,X,X,X,X,X,X,X,X,X,X,X,X,X,XM V m X ,X,X,X,X< o ,X,X,X,X,X,X,X,X,X,X,X,X,X,X,X,X,X,X,X,X,X,X,X,X,X,X,X",
",X,X,X,X,X,X,X,X,X,X,X,X,X,X,X,X,X,X,X,X,X,X,X,X,X,X,Xz m v o ,X,X,X,X4 X ,X,X,X,X,X,X,X,X,X,X,X,X,X,X,X,X,X,X,X,X,X,X,X,X,X,X,X",
",X,X,X,X,X,X,X,X,X,X,X,X,X,X,X,X,X,X,X,X,X,X,X,X,X,X,XV B &   ,X,X,Xq #   ,X,X,X,X,X,X,X,X,X,X,X,X,X,X,X,X,X,X,X,X,X,X,X,X,X,X,X",
",X,X,X,X,X,X,X,X,X,X,X,X,X,X,X,X,X,X,X,X,X,X,X,X,X,X,XA m q . ,X,X,X  .   ,X,X,X,X,X,X,X,X,X,X,X,X,X,X,X,X,X,X,X,X,X,X,X,X,X,X,X",
",X,X,X,X,X,X,X,X,X,X,X,X,X,X,X,X,X,X,X,X,X,X,X,X,X,X,X& & % . ,X,X,X,X,X,X,X,X,X,X,X,X,X,X,X,X,X,X,X,X,X,X,X,X,X,X,X,X,X,X,X,X,X",
",X,X,X,X,X,X,X,X,X,X,X,X,X,X,X,X,X,X,X,X,X,X,X,X,X,X,X6 7     ,X,X,X,X,X,X,X,X,X,X,X,X,X,X,X,X,X,X,X,X,X,X,X,X,X,X,X,X,X,X,X,X,X",
",X,X,X,X,X,X,X,X,X,X,X,X,X,X,X,X,X,X,X,X,X,X,X,X,X,X,X& q ,X,X,X,X,X,X,X,X,X,X,X,X,X,X,X,X,X,X,X,X,X,X,X,X,X,X,X,X,X,X,X,X,X,X,X",
",X,X,X,X,X,X,X,X,X,X,X,X,X,X,X,X,X,X,X,X,X,X,X,X,X,X,XD D   ,X,X,X,X,X,X,X,X,X,X,X,X,X,X,X,X,X,X,X,X,X,X,X,X,X,X,X,X,X,X,X,X,X,X",
",X,X,X,X,X,X,X,X,X,X,X,X,X,X,X,X,X,X,X,X,X,X,X,X,X,X,X,X,X,X,X,X,X,X,X,X,X,X,X,X,X,X,X,X,X,X,X,X,X,X,X,X,X,X,X,X,X,X,X,X,X,X,X,X",
",X,X,X,X,X,X,X,X,X,X,X,X,X,X,X,X,X,X,X,X,X,X,X,X,X,X,X,X,X,X,X,X,X,X,X,X,X,X,X,X,X,X,X,X,X,X,X,X,X,X,X,X,X,X,X,X,X,X,X,X,X,X,X,X",
",X,X,X,X,X,X,X,X,X,X,X,X,X,X,X,X,X,X,X,X,X,X,X,X,X,X,X,X,X,X,X,X,X,X,X,X,X,X,X,X,X,X,X,X,X,X,X,X,X,X,X,X,X,X,X,X,X,X,X,X,X,X,X,X"
};
