/* XPM */
static char *result[] = {
/* columns rows colors chars-per-pixel */
"64 64 220 2 ",
"   c #080800",
".  c #070008",
"X  c gray3",
"o  c #100000",
"O  c #180000",
"+  c #100800",
"@  c #180800",
"#  c #140808",
"$  c #181000",
"%  c #101008",
"&  c #181008",
"*  c #0D0810",
"=  c #111010",
"-  c #171619",
";  c #210000",
":  c #210800",
">  c #210808",
",  c #350301",
"<  c #211000",
"1  c #291000",
"2  c #211008",
"3  c #291008",
"4  c #211808",
"5  c #291808",
"6  c #351006",
"7  c #311808",
"8  c #3B1808",
"9  c #281810",
"0  c #311810",
"q  c #3B1810",
"w  c #321F18",
"e  c #3D2208",
"r  c #312110",
"t  c #392110",
"y  c #392910",
"u  c #392918",
"i  c #252324",
"p  c #382D2A",
"a  c #420400",
"s  c #520000",
"d  c #520B00",
"f  c #6B0000",
"g  c #6A0E09",
"h  c #7F0000",
"j  c #671C09",
"k  c #4D2A0F",
"l  c #422110",
"z  c #422A10",
"x  c #4A2118",
"c  c #422918",
"v  c #4A2918",
"b  c #5A2719",
"n  c #4A311B",
"m  c #5C3C14",
"M  c #523118",
"N  c #5E3118",
"B  c #642C0C",
"V  c #4A2921",
"C  c #523122",
"Z  c #5F3121",
"A  c #583921",
"S  c #5C3E29",
"D  c #633921",
"F  c #713921",
"G  c #604421",
"H  c #6F4421",
"J  c #6B4429",
"K  c #7A4A29",
"L  c #514C51",
"P  c #7D5E4D",
"I  c #8B0B00",
"U  c #8C0E08",
"Y  c #940000",
"T  c #AD0000",
"R  c #B40E00",
"E  c #B60D08",
"W  c #8E2100",
"Q  c #8C2308",
"!  c #8C2310",
"~  c #8B2B1A",
"^  c #B62800",
"/  c #B52308",
"(  c #B62310",
")  c #B72C1A",
"_  c #C20000",
"`  c #CE0000",
"'  c #DA0000",
"]  c #DA0C00",
"[  c #DD0D09",
"{  c #D61C0D",
"}  c #EB0000",
"|  c #F70000",
" . c red",
".. c #F40D09",
"X. c #FF0808",
"o. c #FF100C",
"O. c #FD180E",
"+. c #FF1D18",
"@. c #DA2A00",
"#. c #D62D0C",
"$. c #CE3D06",
"%. c #DC2A1B",
"&. c #EB220C",
"*. c #FD210F",
"=. c #FD2D0D",
"-. c #EB3D03",
";. c #FF3E03",
":. c #F4291C",
">. c #FF2D18",
",. c #E33E18",
"<. c #FF3D15",
"1. c #F33E19",
"2. c #FF2521",
"3. c #FF2E2C",
"4. c #FF3121",
"5. c #FF3D21",
"6. c #FF3E29",
"7. c #FF3D31",
"8. c #A34408",
"9. c #B94407",
"0. c #B9481D",
"q. c #A86910",
"w. c #814921",
"e. c #8F4E2D",
"r. c #815929",
"t. c #805131",
"y. c #935D30",
"u. c #945F39",
"i. c #AE4C2C",
"p. c #B5602E",
"a. c #B16539",
"s. c #D05007",
"d. c #DE5A08",
"f. c #CE421C",
"g. c #CE561D",
"h. c #E84E03",
"j. c #FF4E04",
"k. c #E75A00",
"l. c #E75A08",
"z. c #FB5A04",
"x. c #FD4A13",
"c. c #E75710",
"v. c #E8521D",
"b. c #FE5614",
"n. c #D66911",
"m. c #F36305",
"M. c #F66E05",
"N. c #E76310",
"B. c #E76F10",
"V. c #EF6B10",
"C. c #E76319",
"Z. c #EF6318",
"A. c #E76C1D",
"S. c #FD671D",
"D. c #EF731F",
"F. c #F97210",
"G. c #F9731D",
"H. c #DA502B",
"J. c #F44F2B",
"K. c #FF4A2C",
"L. c #FD5021",
"P. c #FF5529",
"I. c #EC503E",
"U. c #FF5731",
"Y. c #FF5239",
"T. c #DB6B2D",
"R. c #C57D3C",
"E. c #EF6A21",
"W. c #EF6F2B",
"Q. c #FC732D",
"!. c #F77C29",
"~. c #FE6731",
"^. c #FF6B39",
"/. c #EC7E37",
"(. c #F77F36",
"). c #99664A",
"_. c #9C6F59",
"`. c #A96A42",
"'. c #FF4D42",
"]. c #FF534F",
"[. c #FF6C45",
"{. c #FF6B58",
"}. c #DD8306",
"|. c #F7800D",
" X c #FF8308",
".X c #EC9A05",
"XX c #FF9D00",
"oX c #FF9C14",
"OX c #EFB206",
"+X c #FFB400",
"@X c #FFB412",
"#X c #FF8521",
"$X c #FF962E",
"%X c #FF8039",
"&X c #FF8C39",
"*X c #FF9739",
"=X c #FEAC38",
"-X c #FECA0A",
";X c #FFDD11",
":X c yellow",
">X c #FFD435",
",X c #BA804E",
"<X c #B98A68",
"1X c #DB944F",
"2X c #CC9E50",
"3X c #E8874D",
"4X c #FF8142",
"5X c #FF8C42",
"6X c #FF804D",
"7X c #FF8C4C",
"8X c #FF9742",
"9X c #FF9F4F",
"0X c #FF9452",
"qX c #EEA062",
"wX c #F2BE64",
"eX c #FEC44E",
"rX c #B99D84",
"tX c #E1B68E",
"yX c #F3D8B9",
"uX c None",
/* pixels */
"uXuXuXuXuXuXuXuXuXuXuXuXuXuXuXuXuXuXuXuXuXuXuXuXuXuXuXuXuXuXuXuXuXuXuXuXuXuXuXuXuXuXuXuXuXuXuXuXuXuXuXuXuXuXuXuXuXuXuXuXuXuXuXuX",
"uXuXuXuXuXuXuXuXuXuXuXuXuXuXuXuXuXuXuXuXuXuXuXuXuXuXuXuXuXuXuXuXuXuXuXuXuXuXuXuXuXuXuXuXuXuXuXuXuXuXuXuXuXuXuXuXuXuXuXuXuXuXuXuX",
"uXuXuXuXuXuXuXuXuXuXuXuXuXuXuXuXuXuXuXuXuXuXuXuXuXuXuXuXuXuXuXuXuXuXuXuXuXuXuXuXuXuXuXuXuXuXuXuXuXuXuXuXuXuXuXuXuXuXuXuXuXuXuXuX",
"uXuXuXuXuXuXuXuXuXuXuXuXuXuXuXuXuXuXuXuXuXuXuXuXuXuXuXuXuXuXuXuXuXr.:XuXuXuXuXuXuXuXuXuXuXuXuXuXuXuXuXuXuXuXuXuXuXuXuXuXuXuXuXuX",
"uXuXuXuXuXuXuXuXuXuXuXuXuXuXuXuXuXuXuXuXuXuXuXuXuXuXuXuXuXuXuXuXuXG 2XuXuXuXuXuXuXuXuXuXuXuXuXuXuXuXuXuXuXuXuXuXuXuXuXuXuXuXuXuX",
"uXuXuXuXuXuXuXuXuXuXuXuXuXuXuXuXuXuXuXuXuXuXuXuXuXuXuXuXuXuXuXuXuX% y.uXuXuXuXuXuXuXuXuXuXuXuXuXuXuXuXuXuXuXuXuXuXuXuXuXuXuXuXuX",
"uXuXuXuXuXuXuXuXuXuXuXuXuXuXuXuXuXuXuXuXuXuXuXuXuXuXuXuXuXuXuXuXuX% u.uXuXuXuXuXuXuXuXuXuXuXuXuXuXuXuXuXuXuXuXuXuXuXuXuXuXuXuXuX",
"uXuXuXuXuXuXuXuXuXuXuXuXuXuXuXuXuXuXuXuXuXuXuXuXuXuXuXuXuXuXuXuXuX% u.uXuXuXuXuXuXuXuXuXuXuXuXuXuXuXuXuXuXuXuXuXuXuXuXuXuXuXuXuX",
"uXuXuXuXuXuXuXuXuXuXuXuXuXuXuXuXuXuXuXuXuXuXuXuXuXuXuXuXuXuXuXuXuX% u.uXuXuXuXuXuXuXuXuXuXuXuXuXuXuXuXuXuXuXuXuXuXuXuXuXuXuXuXuX",
"uXuXuXuXuXuXuXuXuXuXuXuXuXuXuXuXuXuXuXuXuXuXuXuXuXuXuXuXuXuXuXuXuX% u.uXuXuXuXuXuXuXuXuXuXuXuXuXuXuXuXuXuXuXuXuXuXuXuXuXuXuXuXuX",
"uXuXuXuXuXuXuXuXuXuXuXuXuXuXuXuXuXuXuXuXuXuXuXuXuXk.uXuXuXuXuXuXuX% u.uXuXuXuXuXuXuXuXuXuXuXuXuXuXuXuXuXuXuXuXuXuXuXuXuXuXuXuXuX",
"uXuXuXuXuXuXuXuXuXuXuXuXuXuXuXuXuXuXuXuXuXuXA.uXuXl.uXuXuXuXuXuXuX% u.uXuXuXuXuXuXuXuXuXuXuXuXuXuXuXuXuXuXuXuXuXuXuXuXuXuXuXuXuX",
"uXuXuXuXuXuXuXuXuXuXuXuXuXuXuXuXuXuXuXuXuXuXW.N.C.W.A.N.uXuXuXuXuX% u.uXuXuXuXuXuXuXuXuXuXuXuXuXuXuXuXuXuXuXuXuXuXuXuXuXuXuXuXuX",
"uXuXuXuXuXuXuXuXuXuXuXuXuXuXuXuXuXuXuXuXuXuXuXuXC.N.N.c.N.f s I O % u.uXuXuXuXuXuXuXuXuXuXuXuXuXuXuXuXuXuXuXuXuXuXuXuXuXuXuXuXuX",
"uXuXuXuXuXuXuXuXuXuXuXuXuXuXuXuXuXuXuXuXuXuXuXuXuXV.G.#XG.O.>.X.{ 1Xu.uXuXuXuXuXuXuXuXuXuXuXuXuXuXuXuXuXuXuXuXuXuXuXuXuXuXuXuXuX",
"uXuXuXuXuXuXuXuXuXuXuXuXuXuXuXuXuXuXuXuXuXuXuXuXuXV.!.!.E.4.3.>.5.R.u.uXuXuXuXuXuXuXuXuXuXuXuXuXuXuXuXuXuXuXuXuXuXuXuXuXuXuXuXuX",
"uXuXuXuXuXuXuXuXuXuXuXuXuXuXuXuXuXuXuXuXuXuXuXuXuXuXuX#X*XU.%X~.6.( u.uXuXuXuXuXuXN.N.uXuXuXuXuXuXuXuXuXuXuXuXuXuXuXuXuXuXuXuXuX",
"uXuXuXuXuXuXuXuXuXuXuXuXuXuXuXuXuXuXuXuXuXuXuXuXuXuXuX$X*XU.4X%X^.w.u.uXuXuXuXuXuXuXuXuXuXuXuXuXuXuXuXuXuXuXuXuXuXuXuXuXuXuXuXuX",
"uXuXuXuXuXuXuXuXuXuXuXuXuXuXuXuXuXuXuXuXuXuXuXuXuXuXuX&X!.T.W.~.A.3Xu.uXuXuXuXuXuXC.uXuXuXuXuXuXuXuXuXuXuXuXuXuXuXuXuXuXuXuXuXuX",
"uXuXuXuXuXuXuXuXuXuXuXuXuXuXuXuXuXuXuXuXuXuXuXuXuXuXV.!.!.g.R.Q.W.1Xu.uXC.uXuXuXuXuXc.uXuXuXuXuXuXuXuXuXuXuXuXuXuXuXuXuXuXuXuXuX",
"uXuXuXuXuXuXuXuXuXuXuXuXuXuXuXuXuXuXuXuXuXuXuXuXuXuX$XA.J.(./.R.T.1X$Xl.uXuXuXuXuXc.A.uXuXc.N.uXuXuXuXuXuXuXuXuXuXuXuXuXuXuXuXuX",
"uXuXuXuXuXuXuXuXuXuXuXuXuXuXuXuXuXuXuXuXuXuXuXuXuXuX&XW.U.^.Q./.T.y.!.D.uXuXuXuXuXuXC.N.N.l.N.uXB uXuXuXuXuXuXuXuXuXuXuXuXuXuXuX",
"uXuXuXuXuXuXuXuXuXuXuXuXuXuXuXuXuXuXuXuXuXuXuXuXuXl.&XJ.L.[.^.W.^.w.!.!.uXuXuXuXuXuXuXc.d.B.|.s.z +XuXuXuXuXuXuXuXuXuXuXuXuXuXuX",
"uXuXuXuXuXuXuXuXuXuXuXuXuXuXuXuXuXuXuXuXuXuXuXuXuXZ.&X1.K.Y.5.[.U.) !.!.uXuXuXuXuXd.F.@X>X.Xr.z k -X-XuXuXuXuXuXuXuXuXuXuXuXuXuX",
"uXuXuXuXuXuXuXuXuXuXuXuXuXuXuXuXuXuXuXuXuXuXuXuXV.&X7X4.2.P.H.U.4./ T.D.uXuXuXuXuXz.=X=X}.e < 1 A m OXuXuXuXuXuXuXuXuXuXuXuXuXuX",
"uXuXuXuXuXuXuXuXuXuXuXuXuXuXuXuXuXuXuXuXuXuXuXuXZ.~.6.3.:.{ 7.3.o.e.~ g.uXuXuXuX&XeX$Xe 6 N F F u.5 5 t.uXuXuXuXuXuXuXuXuXuXuXuX",
"uXuXuXuXuXuXuXuXuXuXuXuXuXuXuXuXuXuXuXuXuXuXuXuXuX4X:.2.:.%.'.3.o.`.g.uXuXuXuX/ h.&XB 3 7 e.y.D t.v A o uXuXuXuXuXuXuXuXuXuXuXuX",
"uXuXuXuXuXuXuXuXuXuXuXuXuXuXuXuXuXuXuXuXuXuXuXuXuXl.-.+.7.E ) :.( 1Xy.uXuXuX^ E.c.N l v M J c t C `.l   uXuXuXuXuXuXuXuXuXuXuXuX",
"uXuXuXuXuXuXuXuXuXuXuXuXN.C.uXuXuXuXuXuXuXuXuXuXuXuXuX~.X.3.E ( Q <Xu.uXuX-.^ E.B F r.l J V e.3 D y.v 2 + uXuXuXuXuXuXuXuXuXuXuX",
"uXuXuXuXuXuXuXuXuXuXuXuXA.uXuXuXuXuXuXuXuXuXuXuXuXuXuX8X~.+.].E ( 1Xu.uXU ,.0X0.t H a.M K q `.b 1 e.N t J # uXuXuXuXuXuXuXuXuXuX",
"uXuXuXuXuXuXuXuXuXuXuXuXE.uXuXuXuXuXuXuXuXuXuXuXuXuXuX8XW.&.:.7...,X; d ^.6Xj N F @ K C M 0 c 3 O 7 2 7 q n D uXuXuXuXuXuXuXuXuX",
"uXuXuXuXuXuXuXuXuXuXuXuXE.A.c.uXc.N.uXuXuXuXuXuXuXuXuX5X(.=.=.&.3.f.^ h -.[.D a.a.8 A Z v 3 7 o o 7 v n n t.  uXuXuXuXuXuXuXuXuX",
"uXuXuXuXuXuXuXuXuXuXuX$.#.P.5./ 0.uXuXuXuXuXuXuXuX. . Z.%X&.;.x.*.U 0.~ ) 2 y.u.H 7 t.O o o o uXuXuXuXyXy 5 uXuXuXuXuXuXuXuXuXuX",
"uXuXuXuXuXuXuXuXuXuXuX-.~.[.Y.>.E uXuXuXuXuXuXuX. . . 9.D.@.=.<.=.B B 6 > @ K y.K J F M O o o uXuXuX| p.$ < uXuXuXuXuXuXuXuXuXuX",
"uXuXuXuXuXuXuXuXuX#.@.4X^.6X[.{.'.d 5 9 2 2 o o . - X . . 8 -.b.b.#.r X . : F y.6 H `.x ; o o uXuX'  . .uXuXuXuXuXuXuXuXuXuXuXuX",
"uXuXuXuXuXuXuXuXuX$.S.7X%X[.^.U.]./ r c 4 @ o .   p i X X 9 W b.%X;.: 9 , 5 k F M v c 7 o . uXuX . .|  .uXuXuXuXuXuXuXuXuXuXuXuX",
"uXuXuXuXuXuXuXuXuXz.(.5X0X^./ uX@ : < & l l 7 1 t.P P L p p p j.S.!.$.p  .U G N c 2 t.x 7 o ; }  ._ '  .s uXuXuXuXuXuXuXuXuXuXuX",
"uXuXuXuXuXuXuXuXuXz.&X&X9X,.uX8 h v c : Z `.l : F ) E rXrXrXrX_.b.wXZ.l o. .( c v l : A 9 _ _ | [ _ h  .uXuXuXuXuXuXuXuXuXuXuXuX",
"uXuXuXuXuXuXuXuXuXz.&X%X9Xv.uXd ` R e.M F 0.( _  .H.`.L L L L _.p.!.,.l o. . .` l 7 o 4 3 _ _ I.rXT f  .uXuXuXuXuXuXuXuXuXuXuXuX",
"uXuXuXuXuXuXuXuXuXm.=X$X9Xv.uX_.tX . ...[  . .( p.M t.M K M H l c.wXQ.~ F [ rXi. . . ... . .` |  .. uXuXuXuXuXuXuXuXuXuXuXuXuXuX",
"uXuXuXuXuXuXuXuXuXM.$X=X=XE.uXU )  . .( 0. . .] ) t t.v F K t.8.b.wX0.D u.{ ..|  . . .<X) | `  . .O uXuXuXuXuXuXuXuXuXuXuXuXuXuX",
"uXuXuXuXuXuXuXuXuXM.oX>X$X!.< '  . . . . . . . .} M `.D t qX).m.9X!.u.`.3 ] U @  . .` '  . .uXU  . .uXuXuXuXuXuXuXuXuXuXuXuXuXuX",
"uXuXuXuXuXuXuXuXuXM.oX>X=XoXa !  . . . . .E h  .` t K <XJ t.,XF.=Xv.u.t.D ..U 2  . .0 U  . .uXx  .uXuXuXuXuXuXuXuXuXuXuXuXuXuXuX",
"uXuXuXuXuXuXuXuXuX|.XX@X>X.Xh U  .2 E  .E q )  .U u t M ,XA A oX=Xr.r 3 K J e.D  . .o !  . .uXuXuXuXuXuXuXuXuXuXuXuXuXuXuXuXuXuX",
"uXuXuXuXuXuXuXuXuX.XXX@X>X Xf T  .+ .. .! D /  .g 9 7 N `.y.J oX=Xv V r N N F c f T + V  .uXuXuXuXuXuXuXuXuXuXuXuXuXuXuXuXuXuXuX",
"uXuXuXuXuXuXuXuXuX.XXX>X-X+XuXY ] 5 ..] @ > uXuXuXuXuX9 9 C y.>Xq.r 9 9 r M e.v 2 & uXuXuXuXuXuXuXuXuXuXuXuXuXuXuXuXuXuXuXuXuXuX",
"uXuXuXuXuXuXuXuXuXuX.X-X;X}.S K N `.t 2 uXuXuXuXuXuXuXuXuXD.oXoXN.uXuXuX7 N x 8 & uXuXuXuXuXuXuXuXuXuXuXuXuXuXuXuXuXuXuXuXuXuXuX",
"uXuXuXuXuXuXuXuXuXuXuX-X;Xn t.t.D z 2 + uXuXuXuXuXuXuXuXuX*XoX@Xn.uXuXuX8 N l 7 < uXuXuXuXuXuXuXuXuXuXuXuXuXuXuXuXuXuXuXuXuXuXuX",
"uXuXuXuXuXuXuXuXuXuXuXuX$.5 l t l M uXuXuXuXuXuXuXuXuXuXuX0X8XXXXX}.uXuXH A v A @ uXuXuXuXuXuXuXuXuXuXuXuXuXuXuXuXuXuXuXuXuXuXuX",
"uXuXuXuXuXuXuXuXuXuXuXuXuXl l 7 v 2 uXuXuXuXuXuXuXuXuXuXuX(.N.+XXX.XuX5 t.Z Z A 2 uXuXuXuXuXuXuXuXuXuXuXuXuXuXuXuXuXuXuXuXuXuXuX",
"uXuXuXuXuXuXuXuXuXuXuXuXuX1 x v x uXuXuXuXuXuXuXuXuXuXuXuXuXuXuXuXuXuX9 u.A 0 J 9 uXuXuXuXuXuXuXuXuXuXuXuXuXuXuXuXuXuXuXuXuXuXuX",
"uXuXuXuXuXuXuXuXuXuXuXuXuX@ e D 0 uXuXuXuXuXuXuXuXuXuXuXuXuXuXuXuXuX@ t u.C r J 4 uXuXuXuXuXuXuXuXuXuXuXuXuXuXuXuXuXuXuXuXuXuXuX",
"uXuXuXuXuXuXuXuXuXuXuXuXuX2 t D 5 uXuXuXuXuXuXuXuXuXuXuXuXuXuXw M `.).A n & & 5 & uXuXuXuXuXuXuXuXuXuXuXuXuXuXuXuXuXuXuXuXuXuXuX",
"uXuXuXuXuXuXuXuXuXuXuXuXuXuX5 S 0 uXuXuXuXuXuXuXuXuXuXuXuXX - u.H @ uXuXuXuXuX7 + uXuXuXuXuXuXuXuXuXuXuXuXuXuXuXuXuXuXuXuXuXuXuX",
"uXuXuXuXuXuXuXuXuXuXuXuXuXuX2 i r uXuXuXuXuXuXuXuXuXuXuXuX= - X @ uXuXuXuXuXuXF @ uXuXuXuXuXuXuXuXuXuXuXuXuXuXuXuXuXuXuXuXuXuXuX",
"uXuXuXuXuXuXuXuXuXuXuXuXuXuXX - L uXuXuXuXuXuXuXuXuXuXuXuX- * uXuXuXuXuXuXuXuXM 5 + uXuXuXuXuXuXuXuXuXuXuXuXuXuXuXuXuXuXuXuXuXuX",
"uXuXuXuXuXuXuXuXuXuXuXuXuXuXX = p = uXuXuXuXuXuXuXuXuXuXuXX . uXuXuXuXuXuXuXuX9 i . uXuXuXuXuXuXuXuXuXuXuXuXuXuXuXuXuXuXuXuXuXuX",
"uXuXuXuXuXuXuXuXuXuXuXuXuXuXuX= . . uXuXuXuXuXuXuXuXuXuXuXuXuXuXuXuXuXuXuXuXuXuXp i . uXuXuXuXuXuXuXuXuXuXuXuXuXuXuXuXuXuXuXuXuX",
"uXuXuXuXuXuXuXuXuXuXuXuXuXuXuXuX. uXuXuXuXuXuXuXuXuXuXuXuXuXuXuXuXuXuXuXuXuXuXuXp p . uXuXuXuXuXuXuXuXuXuXuXuXuXuXuXuXuXuXuXuXuX",
"uXuXuXuXuXuXuXuXuXuXuXuXuXuXuXuXuXuXuXuXuXuXuXuXuXuXuXuXuXuXuXuXuXuXuXuXuXuXuXuXuXuXuXuXuXuXuXuXuXuXuXuXuXuXuXuXuXuXuXuXuXuXuXuX",
"uXuXuXuXuXuXuXuXuXuXuXuXuXuXuXuXuXuXuXuXuXuXuXuXuXuXuXuXuXuXuXuXuXuXuXuXuXuXuXuXuXuXuXuXuXuXuXuXuXuXuXuXuXuXuXuXuXuXuXuXuXuXuXuX",
"uXuXuXuXuXuXuXuXuXuXuXuXuXuXuXuXuXuXuXuXuXuXuXuXuXuXuXuXuXuXuXuXuXuXuXuXuXuXuXuXuXuXuXuXuXuXuXuXuXuXuXuXuXuXuXuXuXuXuXuXuXuXuXuX",
"uXuXuXuXuXuXuXuXuXuXuXuXuXuXuXuXuXuXuXuXuXuXuXuXuXuXuXuXuXuXuXuXuXuXuXuXuXuXuXuXuXuXuXuXuXuXuXuXuXuXuXuXuXuXuXuXuXuXuXuXuXuXuXuX",
"uXuXuXuXuXuXuXuXuXuXuXuXuXuXuXuXuXuXuXuXuXuXuXuXuXuXuXuXuXuXuXuXuXuXuXuXuXuXuXuXuXuXuXuXuXuXuXuXuXuXuXuXuXuXuXuXuXuXuXuXuXuXuXuX"
};
