/* XPM */
static char *player_down_8[] = {
/* columns rows colors chars-per-pixel */
"64 64 190 2 ",
"   c black",
".  c #080800",
"X  c #070008",
"o  c gray3",
"O  c None",
"+  c #180000",
"@  c #100800",
"#  c #180800",
"$  c #140808",
"%  c #181000",
"&  c #101008",
"*  c #181008",
"=  c #111010",
"-  c #171619",
";  c #210000",
":  c #290501",
">  c #210800",
",  c #350301",
"<  c #211000",
"1  c #291000",
"2  c #281900",
"3  c #211008",
"4  c #291008",
"5  c #211808",
"6  c #291808",
"7  c #311808",
"8  c #3B1808",
"9  c #281810",
"0  c #311810",
"q  c #3B1810",
"w  c #321F18",
"e  c #3D2208",
"r  c #312110",
"t  c #392110",
"y  c #392918",
"u  c #252324",
"i  c #382D2A",
"p  c #420400",
"a  c #520000",
"s  c #520B00",
"d  c #6B0000",
"f  c #6B0B00",
"g  c #7F0000",
"h  c #671C09",
"j  c #422110",
"k  c #422A10",
"l  c #4A2118",
"z  c #422918",
"x  c #4A2918",
"c  c #4A311B",
"v  c #523118",
"b  c #5E3118",
"n  c #4A2921",
"m  c #523122",
"M  c #583921",
"N  c #5C3E29",
"B  c #633921",
"V  c #7A4211",
"C  c #604421",
"Z  c #6F4421",
"A  c #6B4429",
"S  c #7A4A29",
"D  c #694831",
"F  c #6B4C39",
"G  c #514C51",
"H  c #7D5E4D",
"J  c #8B0B00",
"K  c #8C0E08",
"L  c #AD0000",
"P  c #B60D08",
"I  c #8C2308",
"U  c #8C2310",
"Y  c #8B2B1A",
"T  c #B52308",
"R  c #B62310",
"E  c #B72C1A",
"W  c #DA0000",
"Q  c #DD0D09",
"!  c #EB0000",
"~  c #F70000",
"^  c #F40D09",
"/  c #FF100C",
"(  c #FD180E",
")  c #FF1D18",
"_  c #D62D0C",
"`  c #CE3D06",
"'  c #DC2A1B",
"]  c #EB220C",
"[  c #FD210F",
"{  c #F4291C",
"}  c #FF2D18",
"|  c #E33E18",
" . c #F33E19",
".. c #FF2521",
"X. c #FF2E2C",
"o. c #FF3121",
"O. c #FF3D21",
"+. c #FF3E29",
"@. c #FF3D31",
"#. c #FF3E39",
"$. c #B94407",
"%. c #A2451D",
"&. c #A86910",
"*. c #814921",
"=. c #8F4E2D",
"-. c #815929",
";. c #805131",
":. c #935D30",
">. c #945F39",
",. c #AE4C2C",
"<. c #B5602E",
"1. c #B16539",
"2. c #CE421C",
"3. c #CE561D",
"4. c #E75A00",
"5. c #E75A08",
"6. c #E75710",
"7. c #E8521D",
"8. c #D66911",
"9. c #E76406",
"0. c #E76310",
"q. c #E76F10",
"w. c #EF6B10",
"e. c #E76319",
"r. c #EF6318",
"t. c #E76C1D",
"y. c #EF6B18",
"u. c #EF731F",
"i. c #F97210",
"p. c #F9731D",
"a. c #DA502B",
"s. c #F44F2B",
"d. c #FF4A2C",
"f. c #FD5021",
"g. c #EC503E",
"h. c #FF5731",
"j. c #FF5239",
"k. c #DB6B2D",
"l. c #C57D3C",
"z. c #EF6A21",
"x. c #EF6F2B",
"c. c #FC732D",
"v. c #F77C29",
"b. c #E36E39",
"n. c #FE6731",
"m. c #FF6B39",
"M. c #EC7E37",
"N. c #F77F36",
"B. c #99664A",
"V. c #A96A42",
"C. c #FF4D42",
"Z. c #FF534F",
"A. c #E36F45",
"S. c #FF6C45",
"D. c #FF6B58",
"F. c #DD8306",
"G. c #F7800D",
"H. c #EC9A05",
"J. c #FF9D00",
"K. c #FF8418",
"L. c #FF9C14",
"P. c #EFB206",
"I. c #FFB400",
"U. c #FFB412",
"Y. c #FF8521",
"T. c #FF962E",
"R. c #FF8039",
"E. c #FF8C39",
"W. c #FEAC38",
"Q. c #FECA0A",
"!. c #FFDD11",
"~. c yellow",
"^. c #BA804E",
"/. c #B98A68",
"(. c #DB944F",
"). c #CC9E50",
"_. c #E8874D",
"`. c #FF8142",
"'. c #FF8C42",
"]. c #FF804D",
"[. c #FF8C4C",
"{. c #FF9742",
"}. c #FF9F4F",
"|. c #F48C5E",
" X c #FF9452",
".X c #EEA062",
"XX c #F2BE64",
"oX c #B99D84",
"OX c #E1B68E",
"+X c #EAD2A3",
/* pixels */
"                                                                                                                                ",
"                                                                                                                                ",
"                                                                                                                                ",
"                                                                                -.~.                                            ",
"                                                                                C ).                                            ",
"                                                                                & :.                                            ",
"                                                                                & >.                                            ",
"                                                                                & >.                                            ",
"                                                                                & >.                                            ",
"                                                              5.  0.            & >.                                            ",
"                                                              5.    z.          & >.                                            ",
"                                                                  6.x.9.        & >.                                            ",
"                                                          6.      0.M.i.        & >.                                            ",
"                                                          6.      0.6.  K.L.    & >.                                            ",
"                                                            ` d d $.    w.Y.0.  & >.                                            ",
"                                                          ` ! Q Q I     w.K.w.  & >.                                            ",
"                                                    w.i.i.u.^ @.( I 0.i.K.p.4.  & >.                                            ",
"                                                    i.Y.Y.c.] #...h i.T.K.q.    & >.                                            ",
"                                                    Y.T.v.v.f.{ ' k.Y.K.T.v.    & >.                                            ",
"                                                  0.v.E.E.`.S.@.{ V V 0.Y.v.r.  & >.                                            ",
"                                                  r.E.7.| ] o.|.].R g P %.%.v.  & >.                                            ",
"                                                  v.h.n.f.^ / ^ @.P J { O.R E.  & >.                                            ",
"                                                  v.f.f.O.o.} ^ X./ ! ] C.} t.0.& >.                                            ",
"                                                y.k.'.} +.D.Z.o.Z.} ( _ O.} k.r.& >.                                            ",
"                                                u._ ].{ ) D.|.C.D.X.[ E m.d.<.w.& >.                                            ",
"                                                 .o.h.u. .X.C.D.S.d.f.b. Xd.,.'.& >.                                            ",
"                                              5.( o._.z.6.} Z.t.8.h.s.E. Xd.b.l.& >.                                            ",
"                                              5.[ o.r.E.R.2.F H.H.u %.}.y..Xb.R g.b.                                            ",
"                                                }  .4.E.M.,.B.Q.P.n *.}.  N.[.g.].<.                                            ",
"                                              u.g.M.  E.`.b.m !.Q.5 a.}.5.      k.g                                             ",
"                                              7.j.e.r.M.k.=.j C v 3 =.W.E.v.    $ :.                                            ",
"                                               . .n.y.3.a.j 3 * 5 . r <.M.R.    & >.                                            ",
"                                              N.z.u.x.R.m.S (.^.V.A t <.1.1.R.  & >.                                            ",
"                                                u.N.c.`.R.B ^.^.B.B t <.l.,.{.N.* >.                                            ",
"                                              5.N.c.R.`.R.j k D M t 4 A.k.1.1.`.5.>.                                            ",
"                                              v.`.R.R.R.R.# 7 z r 3 O b.b.k.,.l.M.>.                                            ",
"                                            z. X`.}.R.b * 1 8 >.>.# O O b.b.A.l.'.x.                                            ",
"                                            x. X}.XXl m r +Xr S M , O # l M.[._. Xr.                                            ",
"                                            N.}.}..Xv x * H 5 -.Z p + @ =.k. X]. X0.                                            ",
"                                            R. X/.:.|.> g S b v x 8 f O 0  X[.[. X'.                                            ",
"                                            '. XoX;._.L W S S B B v K O + l.[.[.}.[.                                            ",
"                                            y. XV.U OX~ L y w D N y K ; O *.[. X XN.                                            ",
"                                              [.oX>.>.s J @ . X O @ f : O j `.'.N.5.                                            ",
"                                              N.=.Y T # # c m $ $ n y d ; I R.R.u.                                              ",
"                                              x.1.Y P r 3 # # @ @ # # d a *.v.R.y.                                              ",
"                                              0.%.l.8.@ O O O O O O O a p %.T.E.5.                                              ",
"                                                U.K.  j z B b z x B B 6 @   Y.T.                                                ",
"                                              G.J.J.  t 1.4 3 &.&.2 7 m #   T.L.&.                                              ",
"                                            H.J.0.4.  8 M < O F.F.# e 8 @   N.N.P.H.                                            ",
"                                            J.H.      9 v > O p 8 > 8 q @   y.x.I.U.F.                                          ",
"                                                      - t 3       3 j 4                                                         ",
"                                                      o 4 #       3 B t                                                         ",
"                                                      X D t *     t B.M                                                         ",
"                                                        t 3 #     D V.;.                                                        ",
"                                                        m * @     M ;.B.                                                        ",
"                                                        e #       1 S i X                                                       ",
"                                                        t 7         Z G X                                                       ",
"                                                        j 4 @       :.- X                                                       ",
"                                                        % o O     < >.@                                                         ",
"                                                        o u o     o = #                                                         ",
"                                                        X G X     u o                                                           ",
"                                                                                                                                ",
"                                                                                                                                ",
"                                                                                                                                "
};
