/* XPM */
static char *result[] = {
/* columns rows colors chars-per-pixel */
"64 64 200 2 ",
"   c #080800",
".  c #070008",
"X  c gray3",
"o  c #100000",
"O  c #180000",
"+  c #100800",
"@  c #180800",
"#  c #140808",
"$  c #101008",
"%  c #181008",
"&  c #111010",
"*  c #171619",
"=  c #290501",
"-  c #210800",
";  c #350301",
":  c #291000",
">  c #281900",
",  c #211008",
"<  c #291008",
"1  c #291808",
"2  c #351006",
"3  c #311808",
"4  c #3B1808",
"5  c #281810",
"6  c #311810",
"7  c #3B1810",
"8  c #392110",
"9  c #392918",
"0  c #252324",
"q  c #382D2A",
"w  c #420400",
"e  c #520000",
"r  c #520E08",
"t  c #4D1F0D",
"y  c #6B0000",
"u  c #6A0E09",
"i  c #7F0000",
"p  c #671C09",
"a  c #422110",
"s  c #4A2918",
"d  c #5A2719",
"f  c #4A311B",
"g  c #523118",
"h  c #642C0C",
"j  c #523122",
"k  c #5F3121",
"l  c #583921",
"z  c #5C3E29",
"x  c #633921",
"c  c #713921",
"v  c #7A4211",
"b  c #604421",
"n  c #6F4421",
"m  c #764129",
"M  c #6B4C39",
"N  c #514C51",
"B  c #7D5E4D",
"V  c #8B0B00",
"C  c #8C0E08",
"Z  c #940000",
"A  c #AD0000",
"S  c #B40E00",
"D  c #B60D08",
"F  c #8E2100",
"G  c #8C2308",
"H  c #8C2310",
"J  c #8B2B1A",
"K  c #B62800",
"L  c #B52308",
"P  c #B72C1A",
"I  c #C20000",
"U  c #DA0000",
"Y  c #DD0D09",
"T  c #D61C0D",
"R  c #EB0000",
"E  c #F70000",
"W  c red",
"Q  c #F40D09",
"!  c #FF0808",
"~  c #FF100C",
"^  c #FD180E",
"/  c #FF1D18",
"(  c #D62D0C",
")  c #CE3D06",
"_  c #DC2A1B",
"`  c #EB220C",
"'  c #FD210F",
"]  c #EB3D03",
"[  c #FF3E03",
"{  c #F4291C",
"}  c #FF2D18",
"|  c #FF3D15",
" . c #F33E19",
".. c #FF2521",
"X. c #FF2E2C",
"o. c #FF3121",
"O. c #FF3D21",
"+. c #FF3E29",
"@. c #FF3D31",
"#. c #FF3E39",
"$. c #A34408",
"%. c #B94407",
"&. c #A2451D",
"*. c #B9481D",
"=. c #A86910",
"-. c #814921",
";. c #8F4E2D",
":. c #815929",
">. c #805131",
",. c #935D30",
"<. c #945F39",
"1. c #AE4C2C",
"2. c #B5602E",
"3. c #B16539",
"4. c #DE5A08",
"5. c #CE421C",
"6. c #CE561D",
"7. c #E84E03",
"8. c #FF4E04",
"9. c #E75A00",
"0. c #E75A08",
"q. c #FB5A04",
"w. c #FD4A13",
"e. c #E75710",
"r. c #E8521D",
"t. c #FE5614",
"y. c #D66911",
"u. c #E76406",
"i. c #F66E05",
"p. c #E76310",
"a. c #EF6B10",
"s. c #E76319",
"d. c #EF6318",
"f. c #E76C1D",
"g. c #EF6B18",
"h. c #F26310",
"j. c #FD671D",
"k. c #EF731F",
"l. c #F97210",
"z. c #F9731D",
"x. c #DA502B",
"c. c #FF4A2C",
"v. c #FD5021",
"b. c #FF5529",
"n. c #EC503E",
"m. c #FF5731",
"M. c #FF5239",
"N. c #DB6B2D",
"B. c #C57D3C",
"V. c #EF6A21",
"C. c #EF6F2B",
"Z. c #FC732D",
"A. c #F77C29",
"S. c #E36E39",
"D. c #FE6731",
"F. c #FF6B39",
"G. c #EC7E37",
"H. c #F77F36",
"J. c #9C6F59",
"K. c #A96A42",
"L. c #FF4D42",
"P. c #FF534F",
"I. c #E36F45",
"U. c #FF6C45",
"Y. c #FF6B58",
"T. c #DD8306",
"R. c #F7800D",
"E. c #FF8308",
"W. c #EC9A05",
"Q. c #FF9D00",
"!. c #FF8418",
"~. c #FF9C14",
"^. c #EFB206",
"/. c #FFB400",
"(. c #FFB412",
"). c #FF8521",
"_. c #FF962E",
"`. c #FF8039",
"'. c #FF8C39",
"]. c #ED9738",
"[. c #FF9739",
"{. c #FEAC38",
"}. c #FECA0A",
"|. c #FFDD11",
" X c yellow",
".X c #FFD435",
"XX c #BA804E",
"oX c #B98A68",
"OX c #CC9E50",
"+X c #E8874D",
"@X c #FF8C42",
"#X c #FF8C4C",
"$X c #FF9742",
"%X c #FF9F4F",
"&X c #F48C5E",
"*X c #FF9452",
"=X c #EEA062",
"-X c #F2BE64",
";X c #FEC44E",
":X c None",
/* pixels */
":X:X:X:X:X:X:X:X:X:X:X:X:X:X:X:X:X:X:X:X:X:X:X:X:X:X:X:X:X:X:X:X:X:X:X:X:X:X:X:X:X:X:X:X:X:X:X:X:X:X:X:X:X:X:X:X:X:X:X:X:X:X:X:X",
":X:X:X:X:X:X:X:X:X:X:X:X:X:X:X:X:X:X:X:X:X:X:X:X:X:X:X:X:X:X:X:X:X:X:X:X:X:X:X:X:X:X:X:X:X:X:X:X:X:X:X:X:X:X:X:X:X:X:X:X:X:X:X:X",
":X:X:X:X:X:X:X:X:X:X:X:X:X:X:X:X:X:X:X:X:X:X:X:. X:X:X:X:X:X:X:X:X:X:X:X:X:X:X:X:X:X:X:X:X:X:X:X:X:X:X:X:X:X:X:X:X:X:X:X:X:X:X:X",
":X:X:X:X:X:X:X:X:X:X:X:X:X:X:X:X:X:X:X:X:X:X:Xb OX:X:X:X:X:X:X:X:X:X:X:X:X:X:X:X:X:X:X:X:X:X:X:X:X:X:X:X:X:X:X:X:X:X:X:X:X:X:X:X",
":X:X:X:X:X:X:X:X:X:X:X:X:X:X:X:X:X:X:X:X:X:X:X$ ,.:X:X:X:X:X:X:X:X:X:X:X:X:X:X:X:X:X:X:X:X:X:X:X:X:X:X:X:X:X:X:X:X:X:X:X:X:X:X:X",
":X:X:X:X:X:X:X:X:X:X:X:X:X:X:X:X:X:X:X:X:X:X:X$ <.:X:X:X:X:X:X:X:X:X:X:X:X:X:X:X:X:X:X:X:X:X:X:X:X:X:X:X:X:X:X:X:X:X:X:X:X:X:X:X",
":X:X:X:X:X:X:X:X:X:X:X:X:X:X:X:X:X:X:X:X:X:X:X$ <.:X:X:X:X:X:X:X:X:X:X:X:X:X:X:X:X:X:X:X:X:X:X:X:X:X:X:X:X:X:X:X:X:X:X:X:X:X:X:X",
":X:X:X:X:X:X:X:X:X:X:X:X:X:X:X:X:X:X:X:X:X:X:X$ <.:X:X:X:X:X:X:X:X:X:X:X:X:X:X:X:X:X:X:X:X:X:X:X:X:X:X:X:X:X:X:X:X:X:X:X:X:X:X:X",
":X:X:X:X:X:X:X:X:X:X:X:X:X:X:X:X:X:X:X:X:X:X:X$ <.:X:X:X:X:X:X:X:X:X:X:X:X:X:X:X:X:X:X:X:X:X:X:X:X:X:X:X:X:X:X:X:X:X:X:X:X:X:X:X",
":X:X:X:X:X:X:X:X:X:X:X:X:X:X:X:X:X:X:X:X:X:X:X$ <.:X:X:X:X:X:X:X:X:X:X:X:X:X:X:X:X:X:X:X:X:X:X:X:X:X:X:X:X:X:X:X:X:X:X:X:X:X:X:X",
":X:X:X:X:X:X:X:X:X:X:X:X:X:X:X:X:X:X:X:X:X:X:X$ <.:X:X:X:X:X:X:X:X:X:X:X:X:X:X:X:X:X:X:X:X:X:X:X:X:X:X:X:X:X:X:X:X:X:X:X:X:X:X:X",
":X:X:X:X:X:X:X:X:X:X:X:X:X:X:X:X:X:X:X:X:X:X:X$ <.:X:X:X:X:X:X:X:X:X:X:X:X:X:X:X:X:X:X:X:X:X:X:X:X:X:X:X:X:X:X:X:X:X:X:X:X:X:X:X",
":X:X:X:X:X:X:X:X:X:X:X:X:X:X:X:X:X:X:X:X:X:X:X$ <.:Xu.:X:X:X:X0.s.V.:X:X:X:X:X:X:X:X:X:X:X:X:X:X:X:X:X:X:X:X:X:X:X:X:X:X:X:X:X:X",
":X:X:X:X:X:X:X:X:X:X:X:X:X:X:X:X:X:X:X:X:X:X:X$ <.9.:X:X:X:X:X*.6.e.a.9.9.:X:X:X:X:X:X:X:X:X:X:X:X:X:X:X:X:X:X:X:X:X:X:X:X:X:X:X",
":X:X:X:X:X:X:X:X:X:X:X:X:X:X:X:X:X:X:X:X:X:X:X$ <.:X9.p.p.:X( Q R C 4.u.:X:X:X:X:X:X:X:X:X:X:X:X:X:X:X:X:X:X:X:X:X:X:X:X:X:X:X:X",
":X:X:X:X:X:X:X:X:X:X:X:X:X:X:X:X:X:X:X:X:X:X:X$ <.:X!.!.!.7.Q X.^ D &.:X:X:X:X:X:X:X:X:X:X:X:X:X:X:X:X:X:X:X:X:X:X:X:X:X:X:X:X:X",
":X:X:X:X:X:X:X:X:X:X:X:X:X:X:X:X:X:X:X:X:X:X:X$ <.:Xa.).)._.' L.#.Y k.a.:X:X:X:X:X:X:X:X:X:X:X:X:X:X:X:X:X:X:X:X:X:X:X:X:X:X:X:X",
":X:X:X:X:X:X:X:X:X:X:X:X:X:X:X:X:X:X:X:X:X:X:X$ <.:Xa.A._.A.v.X.X.( )._.A.:X:X:X:X:X:X:X:X:X:X:X:X:X:X:X:X:X:X:X:X:X:X:X:X:X:X:X",
":X:X:X:X:X:X:X:X:X:X:X:X:X:X:X:X:X:X:X:X:X:X:X$ <.:Xz.$X$X).G.P.L.;.A._._._.0.:X:X:X:X:X:X:X:X:X:X:X:X:X:X:X:X:X:X:X:X:X:X:X:X:X",
":X:X:X:X:X:X:X:X:X:X:X:X:X:X:X:X:X:X:X:X:X:X:X$ <.:X'._.[.5.L L.X.D &.A.[.'.g.:X:X:X:X:X:X:X:X:X:X:X:X:X:X:X:X:X:X:X:X:X:X:X:X:X",
":X:X:X:X:X:X:X:X:X:X:X:X:X:X:X:X:X:X:X:X:X:X:X$ <.A.x.x.Z.O./ R o./ ! ' 6.'.A.d.:X:X:X:X:X:X:X:X:X:X:X:X:X:X:X:X:X:X:X:X:X:X:X:X",
":X:X:X:X:X:X:X:X:X:X:X:X:X:X:X:X:X:X:X:X:X:X:X$ <.`.L.m.v.M.P.I ! #.! ^ o.5.'.:X:X:X:X:X:X:X:X:X:X:X:X:X:X:X:X:X:X:X:X:X:X:X:X:X",
":X:X:X:X:X:X:X:X:X:X:X:X:X:X:X:X:X:X:X:X:X:X:X$ <.V.P.o.O.+.P.I Q X...' L. .A.p.:X:X:X:X:X:X:X:X:X:X:X:X:X:X:X:X:X:X:X:X:X:X:X:X",
":X:X:X:X:X:X:X:X:X:X:X:X:X:X:X:X:X:X:X:X:X:Xg.XX&.d.X.} O.P.P.Y ..X.#.^ +.{ d.:X:X:X:X:X:X:X:X:X:X:X:X:X:X:X:X:X:X:X:X:X:X:X:X:X",
":X:X:X:X:X:X:X:X:X:X:X:X:X:X:X:X:X:X:X:X:X:XH.D.P 5.@.o.O.Y.P.Y / #...^ Y.o.*.:X:X:X:X:X:X:X:X:X:X:X:X:X:X:X:X:X:X:X:X:X:X:X:X:X",
":X:X:X:X:X:X:X:X:X:X:X:X:X:X:X:X:X:X:X:X:X:XD b.N.v.P.D.b.L.Y.^ ^ #.#.Y +.Y.S 6.:X:X:X:X:X:X:X:X:X:X:X:X:X:X:X:X:X:X:X:X:X:X:X:X",
":X:X:X:X:X:X:X:X:X:X:X:X:X:X:X:X:X:X:X:X:X:XI C.I.{ Y.'.`...P.~ ..L./ ) v.P.D G :X:X:X:X:X:X:X:X:X:X:X:X:X:X:X:X:X:X:X:X:X:X:X:X",
":X:X:X:X:X:X:X:X:X:X:X:X:X:X:X:X:X:X:X:X:X:X:X# n.m.T `.$X' ../ @...E y.p.] ^ i :X:X:X:X:X:X:X:X:X:X:X:X:X:X:X:X:X:X:X:X:X:X:X:X",
":X:X:X:X:X:X:X:X:X:X:X:X:X:X:X:X:X:X:X:X:X:X:X$ C.c.T `.$Xo.L./ #.^ W s.:X:XQ D p.:X:X:X:X:X:X:X:X:X:X:X:X:X:X:X:X:X:X:X:X:X:X:X",
":X:X:X:X:X:X:X:X:X:X:X:X:X:X:X:X:X:X:X:X:X:X:X% S.G.C.'.$Xo.X.L.P.^ Q 6.:X:X] T 4.:X:X:X:X:X:X:X:X:X:X:X:X:X:X:X:X:X:X:X:X:X:X:X",
":X:X:X:X:X:X:X:X:X:X:X:X:X:X:X:X:X:X:X:X:X:X:X$ <.g.f.(.;X;X-XY.P.o. .L p $.r._ K :X:X:X:X:X:X:X:X:X:X:X:X:X:X:X:X:X:X:X:X:X:X:X",
":X:X:X:X:X:X:X:X:X:X:X:X:X:X:X:X:X:X:X:X:X:X:X5 B.C.6._..X.X;XY.Y.&XM. .C u 9. .7.:X:X:X:X:X:X:X:X:X:X:X:X:X:X:X:X:X:X:X:X:X:X:X",
":X:X:X:X:X:X:X:X:X:X:X:X:X:X:X:X:X:X:X:X:X:X0.6.N.N.b.F..X.X.X{.M.U.F.m.{ L G %.0.:X:X:X:X:X:X:X:X:X:X:X:X:X:X:X:X:X:X:X:X:X:X:X",
":X:X:X:X:X:X:X:X:X:X:X:X:X:X:X:X:X:X:X:X:X:XC.C.5.m.m.c.O.|..X].3.m.c.| v.] ( F k.p.:X:X:X:X:X:X:X:X:X:X:X:X:X:X:X:X:X:X:X:X:X:X",
":X:X:X:X:X:X:X:X:X:X:X:X:X:X:X:X:X:X:X:X:X:XH.G.| w.m.{ L z q B q N j K | w.] ] G.H.:X:X:X:X:X:X:X:X:X:X:X:X:X:X:X:X:X:X:X:X:X:X",
":X:X:X:X:X:X:X:X:X:X:X:X:X:X:X:X:X:X:X:X:X:XH.N.w.w.v.L 6 * & J m q q : [ w.w.r.N.H.:X:X:X:X:X:X:X:X:X:X:X:X:X:X:X:X:X:X:X:X:X:X",
":X:X:X:X:X:X:X:X:X:X:X:X:X:X:X:X:X:X:X:X:XV.H.t.w.v.5.o 0 @ , K p 9 5 * O K w.t.K 2.k.:X:X:X:X:X:X:X:X:X:X:X:X:X:X:X:X:X:X:X:X:X",
":X:X:X:X:X:X:X:X:X:X:X:X:X:X:X:X:X:X:X:X0.@X*Xj.j.N.v 1 6 j G 8.( 2 % # o $.&.5.&.I.H.:X:X:X:X:X:X:X:X:X:X:X:X:X:X:X:X:X:X:X:X:X",
":X:X:X:X:X:X:X:X:X:X:X:X:X:X:X:X:X:X:X:X:XH.#Xt.Z.r.p s 8 1 K q.] 2 @ ,   h P ) &.G.H.:X:X:X:X:X:X:X:X:X:X:X:X:X:X:X:X:X:X:X:X:X",
":X:X:X:X:X:X:X:X:X:X:X:X:X:X:X:X:X:X:X:X:X:XH.8.%X,.4 @ - p ] _.8.p + . . t &.b.$.G.:X:X:X:X:X:X:X:X:X:X:X:X:X:X:X:X:X:X:X:X:X:X",
":X:X:X:X:X:X:X:X:X:X:X:X:X:X:X:X:X:X:X:X:X:Xk.q.OXB @ 4 a ;.] {.q.p : o . - l 2.%.0.:X:X:X:X:X:X:X:X:X:X:X:X:X:X:X:X:X:X:X:X:X:X",
":X:X:X:X:X:X:X:X:X:X:X:X:X:X:X:X:X:X:X:X:X:Xp.h.oXR W W W +X8.;Xl.G n Z y e = n s.0.:X:X:X:X:X:X:X:X:X:X:X:X:X:X:X:X:X:X:X:X:X:X",
":X:X:X:X:X:X:X:X:X:X:X:X:X:X:X:X:X:X:X:X:X:Xp.g.P T *.W W h q.;XE.$.a Z y J.2 g C.:X:X:X:X:X:X:X:X:X:X:X:X:X:X:X:X:X:X:X:X:X:X:X",
":X:X:X:X:X:X:X:X:X:X:X:X:X:X:X:X:X:X:X:X:X:X:Xg.U W W W ! &.i.;X~.%.c A i V w O k.:X:X:X:X:X:X:X:X:X:X:X:X:X:X:X:X:X:X:X:X:X:X:X",
":X:X:X:X:X:X:X:X:X:X:X:X:X:X:X:X:X:X:X:X:X:X:Xp.R W W W ` 6.E..X(.%.v Z V V e ; g.:X:X:X:X:X:X:X:X:X:X:X:X:X:X:X:X:X:X:X:X:X:X:X",
":X:X:X:X:X:X:X:X:X:X:X:X:X:X:X:X:X:X:X:X:X:X:Xp.R =Xy H 1.y.E..X.Xy.-.k Z = 3.t :X:X:X:X:X:X:X:X:X:X:X:X:X:X:X:X:X:X:X:X:X:X:X:X",
":X:X:X:X:X:X:X:X:X:X:X:X:X:X:X:X:X:X:X:X:XQ.^.W.P *XD d p <.W..X.X=.>.d Z r =X= T.T.:X:X:X:X:X:X:X:X:X:X:X:X:X:X:X:X:X:X:X:X:X:X",
":X:X:X:X:X:X:X:X:X:X:X:X:X:X:X:X:X:X:X:X:X/.T.T.5.#XW ;.&.l =..X.XT.l c Z G *X7 T.W.:X:X:X:X:X:X:X:X:X:X:X:X:X:X:X:X:X:X:X:X:X:X",
":X:X:X:X:X:X:X:X:X:X:X:X:X:X:X:X:X:X:X:X:X:X:X:X:X:X@ K.n 3 h }.|.W.8 g , + :X:X:X:X:X:X:X:X:X:X:X:X:X:X:X:X:X:X:X:X:X:X:X:X:X:X",
":X:X:X:X:X:X:X:X:X:X:X:X:X:X:X:X:X:X:X:X:X:X:X:X:X:X% K.x b > }.}.: s g @ + :X:X:X:X:X:X:X:X:X:X:X:X:X:X:X:X:X:X:X:X:X:X:X:X:X:X",
":X:X:X:X:X:X:X:X:X:X:X:X:X:X:X:X:X:X:X:X:X:X:X:X:X:X:Xm l a + |.}.X X s + + :X:X:X:X:X:X:X:X:X:X:X:X:X:X:X:X:X:X:X:X:X:X:X:X:X:X",
":X:X:X:X:X:X:X:X:X:X:X:X:X:X:X:X:X:X:X:X:X:X:X:X:X:X:Xl j 7 o R.T.* 0 f + :X:X:X:X:X:X:X:X:X:X:X:X:X:X:X:X:X:X:X:X:X:X:X:X:X:X:X",
":X:X:X:X:X:X:X:X:X:X:X:X:X:X:X:X:X:X:X:X:X:X:X:X:X:X:X>.M j + :X:X& 0 >.@ :X:X:X:X:X:X:X:X:X:X:X:X:X:X:X:X:X:X:X:X:X:X:X:X:X:X:X",
":X:X:X:X:X:X:X:X:X:X:X:X:X:X:X:X:X:X:X:X:X:X:X:X:X:X:X3 3 0 o :X:X:X:X1 + :X:X:X:X:X:X:X:X:X:X:X:X:X:X:X:X:X:X:X:X:X:X:X:X:X:X:X",
":X:X:X:X:X:X:X:X:X:X:X:X:X:X:X:X:X:X:X:X:X:X:X:X:X:X:X3 6 * X :X:X:X:X< @ :X:X:X:X:X:X:X:X:X:X:X:X:X:X:X:X:X:X:X:X:X:X:X:X:X:X:X",
":X:X:X:X:X:X:X:X:X:X:X:X:X:X:X:X:X:X:X:X:X:X:X:X:X:X:X< 1 0 & :X:X:X0 1 . :X:X:X:X:X:X:X:X:X:X:X:X:X:X:X:X:X:X:X:X:X:X:X:X:X:X:X",
":X:X:X:X:X:X:X:X:X:X:X:X:X:X:X:X:X:X:X:X:X:X:X:X:X:X:X1 < . . :X:X:X. # . :X:X:X:X:X:X:X:X:X:X:X:X:X:X:X:X:X:X:X:X:X:X:X:X:X:X:X",
":X:X:X:X:X:X:X:X:X:X:X:X:X:X:X:X:X:X:X:X:X:X:X:X:X:X:XX # :X:X:X:X:X:X:X:X:X:X:X:X:X:X:X:X:X:X:X:X:X:X:X:X:X:X:X:X:X:X:X:X:X:X:X",
":X:X:X:X:X:X:X:X:X:X:X:X:X:X:X:X:X:X:X:X:X:X:X:X:X:X:XX X . :X:X:X:X:X:X:X:X:X:X:X:X:X:X:X:X:X:X:X:X:X:X:X:X:X:X:X:X:X:X:X:X:X:X",
":X:X:X:X:X:X:X:X:X:X:X:X:X:X:X:X:X:X:X:X:X:X:X:X:X:X:XX X . :X:X:X:X:X:X:X:X:X:X:X:X:X:X:X:X:X:X:X:X:X:X:X:X:X:X:X:X:X:X:X:X:X:X",
":X:X:X:X:X:X:X:X:X:X:X:X:X:X:X:X:X:X:X:X:X:X:X:X:X:X:X:X:X:X:X:X:X:X:X:X:X:X:X:X:X:X:X:X:X:X:X:X:X:X:X:X:X:X:X:X:X:X:X:X:X:X:X:X",
":X:X:X:X:X:X:X:X:X:X:X:X:X:X:X:X:X:X:X:X:X:X:X:X:X:X:X:X:X:X:X:X:X:X:X:X:X:X:X:X:X:X:X:X:X:X:X:X:X:X:X:X:X:X:X:X:X:X:X:X:X:X:X:X",
":X:X:X:X:X:X:X:X:X:X:X:X:X:X:X:X:X:X:X:X:X:X:X:X:X:X:X:X:X:X:X:X:X:X:X:X:X:X:X:X:X:X:X:X:X:X:X:X:X:X:X:X:X:X:X:X:X:X:X:X:X:X:X:X",
":X:X:X:X:X:X:X:X:X:X:X:X:X:X:X:X:X:X:X:X:X:X:X:X:X:X:X:X:X:X:X:X:X:X:X:X:X:X:X:X:X:X:X:X:X:X:X:X:X:X:X:X:X:X:X:X:X:X:X:X:X:X:X:X"
};
