/* XPM */
static char *result[] = {
/* columns rows colors chars-per-pixel */
"64 64 220 2 ",
"   c #080800",
".  c #070008",
"X  c gray3",
"o  c #100000",
"O  c #180000",
"+  c #100800",
"@  c #180800",
"#  c #140808",
"$  c #181000",
"%  c #101008",
"&  c #181008",
"*  c #0D0810",
"=  c #111010",
"-  c #171619",
";  c #210000",
":  c #290501",
">  c #210800",
",  c #210808",
"<  c #350301",
"1  c #211000",
"2  c #291000",
"3  c #211008",
"4  c #291008",
"5  c #291808",
"6  c #351006",
"7  c #311808",
"8  c #3B1808",
"9  c #281810",
"0  c #311810",
"q  c #3B1810",
"w  c #321F18",
"e  c #3D2208",
"r  c #312110",
"t  c #392110",
"y  c #392910",
"u  c #392918",
"i  c #252324",
"p  c #382D2A",
"a  c #420400",
"s  c #520000",
"d  c #520B00",
"f  c #520E08",
"g  c #4D1F0D",
"h  c #6B0000",
"j  c #6A0E09",
"k  c #7F0000",
"l  c #671C09",
"z  c #422110",
"x  c #422A10",
"c  c #4A2118",
"v  c #422918",
"b  c #4A2918",
"n  c #5A2719",
"m  c #4A311B",
"M  c #523118",
"N  c #5E3118",
"B  c #642C0C",
"V  c #4A2921",
"C  c #523122",
"Z  c #5F3121",
"A  c #583921",
"S  c #5C3E29",
"D  c #633921",
"F  c #713921",
"G  c #7A4211",
"H  c #604421",
"J  c #6F4421",
"K  c #6B4429",
"L  c #764129",
"P  c #7A4A29",
"I  c #694831",
"U  c #6B4C39",
"Y  c #514C51",
"T  c #7D5E4D",
"R  c #8C0E08",
"E  c #940000",
"W  c #AD0000",
"Q  c #B40E00",
"!  c #B60D08",
"~  c #8E2100",
"^  c #8C2308",
"/  c #8C2310",
"(  c #8B2B1A",
")  c #B62800",
"_  c #B52308",
"`  c #B62310",
"'  c #B72C1A",
"]  c #C20000",
"[  c #CE0000",
"{  c #DA0000",
"}  c #DA0C00",
"|  c #DD0D09",
" . c #D61C0D",
".. c #EB0000",
"X. c #F70000",
"o. c red",
"O. c #F40D09",
"+. c #FF0808",
"@. c #FF100C",
"#. c #FD180E",
"$. c #FF1D18",
"%. c #DA2A00",
"&. c #D62D0C",
"*. c #CE3D06",
"=. c #DC2A1B",
"-. c #EB220C",
";. c #FD210F",
":. c #FD2D0D",
">. c #EB3D03",
",. c #FF3E03",
"<. c #F4291C",
"1. c #FF2D18",
"2. c #E33E18",
"3. c #FF3D15",
"4. c #F33E19",
"5. c #FF2521",
"6. c #FF2E2C",
"7. c #FF3121",
"8. c #FF3D21",
"9. c #FF3D31",
"0. c #FF3E39",
"q. c #A34408",
"w. c #B94407",
"e. c #A2451D",
"r. c #B9481D",
"t. c #A86910",
"y. c #814921",
"u. c #8F4E2D",
"i. c #815929",
"p. c #805131",
"a. c #935D30",
"s. c #945F39",
"d. c #AE4C2C",
"f. c #B5602E",
"g. c #B16539",
"h. c #D05007",
"j. c #DE5A08",
"k. c #CE421C",
"l. c #CE561D",
"z. c #E84E03",
"x. c #E75A08",
"c. c #FB5A04",
"v. c #FD4A13",
"b. c #E75710",
"n. c #E8521D",
"m. c #FE5614",
"M. c #D66911",
"N. c #E76406",
"B. c #F66E05",
"V. c #E76310",
"C. c #EF6B10",
"Z. c #E76319",
"A. c #EF6318",
"S. c #E76C1D",
"D. c #EF6B18",
"F. c #FD671D",
"G. c #EF731F",
"H. c #F97210",
"J. c #F9731D",
"K. c #DA502B",
"L. c #F44F2B",
"P. c #FD5021",
"I. c #FF5529",
"U. c #FF5731",
"Y. c #FF5239",
"T. c #DB6B2D",
"R. c #C57D3C",
"E. c #EF6A21",
"W. c #EF6F2B",
"Q. c #FC732D",
"!. c #F77C29",
"~. c #E36E39",
"^. c #FE6731",
"/. c #FF6B39",
"(. c #EC7E37",
"). c #F77F36",
"_. c #99664A",
"`. c #9C6F59",
"'. c #A96A42",
"]. c #FF4D42",
"[. c #FF534F",
"{. c #FF6C45",
"}. c #FF6B58",
"|. c #DD8306",
" X c #FF8308",
".X c #EC9A05",
"XX c #FF9D00",
"oX c #FF8418",
"OX c #FF9C14",
"+X c #EFB206",
"@X c #FFB400",
"#X c #FFB412",
"$X c #FF8521",
"%X c #FF962E",
"&X c #FF8039",
"*X c #FF8C39",
"=X c #FF9739",
"-X c #FEAC38",
";X c #FECA0A",
":X c #FFDD11",
">X c yellow",
",X c #FFD435",
"<X c #BA804E",
"1X c #B98A68",
"2X c #DB944F",
"3X c #CC9E50",
"4X c #E8874D",
"5X c #FF8142",
"6X c #FF8C42",
"7X c #FF804D",
"8X c #FF8C4C",
"9X c #FF9742",
"0X c #FF9F4F",
"qX c #F48C5E",
"wX c #FF9452",
"eX c #EEA062",
"rX c #FEC44E",
"tX c #B99D84",
"yX c #E3C4AE",
"uX c None",
/* pixels */
"uXuXuXuXuXuXuXuXuXuXuXuXuXuXuXuXuXuXuXuXuXuXuXuXuXuXuXuXuXuXuXuXuXuXuXuXuXuXuXuXuXuXuXuXuXuXuXuXuXuXuXuXuXuXuXuXuXuXuXuXuXuXuXuX",
"uXuXuXuXuXuXuXuXuXuXuXuXuXuXuXuXuXuXuXuXuXuXuXuXuXuXuXuXuXuXuXuXuXuXuXuXuXuXuXuXuXuXuXuXuXuXuXuXuXuXuXuXuXuXuXuXuXuXuXuXuXuXuXuX",
"uXuXuXuXuXuXuXuXuXuXuXuXuXuXuXuXuXuXuXuXuXuXuXuXuXuXuXuX>Xi.uXuXuXuXuXuXuXuXuXuXuXuXuXuXuXuXuXuXuXuXuXuXuXuXuXuXuXuXuXuXuXuXuXuX",
"uXuXuXuXuXuXuXuXuXuXuXuXuXuXuXuXuXuXuXuXuXuXuXuXuXuXuXuX3XH uXuXuXuXuXuXuXuXuXuXuXuXuXuXuXuXuXuXuXuXuXuXuXuXuXuXuXuXuXuXuXuXuXuX",
"uXuXuXuXuXuXuXuXuXuXuXuXuXuXuXuXuXuXuXuXuXuXuXuXuXuXuXuXa.% uXuXuXuXuXuXuXuXuXuXuXuXuXuXuXuXuXuXuXuXuXuXuXuXuXuXuXuXuXuXuXuXuXuX",
"uXuXuXuXuXuXuXuXuXuXuXuXuXuXuXuXuXuXuXuXuXuXuXuXuXuXuXuXs.% uXuXuXuXuXuXuXuXuXuXuXuXuXuXuXuXuXuXuXuXuXuXuXuXuXuXuXuXuXuXuXuXuXuX",
"uXuXuXuXuXuXuXuXuXuXuXuXuXuXuXuXuXuXuXuXuXuXuXuXuXuXuXuXs.% uXuXuXuXuXuXuXuXuXuXuXuXuXuXuXuXuXuXuXuXuXuXuXuXuXuXuXuXuXuXuXuXuXuX",
"uXuXuXuXuXuXuXuXuXuXuXuXuXuXuXuXuXuXuXuXuXuXuXuXuXuXuXuXs.% uXuXuXuXuXuXuXuXuXuXuXuXuXuXuXuXuXuXuXuXuXuXuXuXuXuXuXuXuXuXuXuXuXuX",
"uXuXuXuXuXuXuXuXuXuXuXuXuXuXuXuXuXuXuXuXuXuXuXuXuXuXuXuXs.% uXuXuXuXuXuXuXuXuXuXuXuXuXuXuXuXuXuXuXuXuXuXuXuXuXuXuXuXuXuXuXuXuXuX",
"uXuXuXuXuXuXuXuXuXuXuXuXuXuXuXuXuXuXuXuXuXuXuXuXuXuXuXuXs.% uXuXuXuXuXuXuXuXuXuXuXuXuXuXuXuXuXuXuXuXuXuXuXuXuXuXuXuXuXuXuXuXuXuX",
"uXuXuXuXuXuXuXuXuXuXuXuXuXuXuXuXuXuXuXuXuXuXuXuXuXuXuXuXs.% uXuXuXuXuXuXuXuXuXuXuXuXuXuXuXuXuXuXuXuXuXuXuXuXuXuXuXuXuXuXuXuXuXuX",
"uXuXuXuXuXuXuXuXuXuXuXuXuXuXuXuXuXuXuXuXuXuXuXuXuXuXuXuXs.% uXuXuXuXuXuXuXx.E.G.Z.Z.x.uXuXuXuXuXuXuXuXuXuXuXuXuXuXuXuXuXuXuXuXuX",
"uXuXuXuXuXuXuXuXuXuXuXuXuXuXuXuXuXuXuXuXuXuXuXuXuXuXuXuXs.% uXuXuXuXuXuXuXb.T.W.G.Z.x.uXuXuXuXuXuXuXuXuXuXuXuXuXuXuXuXuXuXuXuXuX",
"uXuXuXuXuXuXuXuXuXuXuXuXuXuXuXuXuXuXuXuXuXuXuXuXuXuXuXuXs.% uXuXh.o =.a uXuXuXV.N.uXuXuXuXuXuXuXuXuXuXuXuXuXuXuXuXuXuXuXuXuXuXuX",
"uXuXuXuXuXuXuXuXuXuXuXuXuXuXuXuXuXuXuXuXuXuXuXuXuXuXuXuXs.% uXC.k O.1.#.A.J.J.H.N.uXuXuXuXuXuXuXuXuXuXuXuXuXuXuXuXuXuXuXuXuXuXuX",
"uXuXuXuXuXuXuXuXuXuXuXuXuXuXuXuXuXuXuXuXuXuXuXuXuXuXuXuXs.% uXA.O.;.7.9.n.J.oXN.uXuXuXuXuXuXuXuXuXuXuXuXuXuXuXuXuXuXuXuXuXuXuXuX",
"uXuXuXuXuXuXuXuXuXuXuXuXuXuXuXuXuXuXuXuXuXuXuXx.uXuXuXuXs.% M._ 6.9.^./.A.uXuXuXuXuXuXuXuXuXuXuXuXuXuXuXuXuXuXuXuXuXuXuXuXuXuXuX",
"uXuXuXuXuXuXuXuXuXuXuXuXuXuXuXuXuXuXuXuXuXuXuXV.uXuXuXuXs.% uX_ 9.{.&XQ.=XD.uXuXuXuXuXuXuXuXuXuXuXuXuXuXuXuXuXuXuXuXuXuXuXuXuXuX",
"uXuXuXuXuXuXuXuXuXuXuXuXuXuXuXuXuXuXuXuXuXuXuXE.uXuXuXuXs.% V.!.l.I.Q.W.!.%XuXuXuXuXuXuXuXuXuXuXuXuXuXuXuXuXuXuXuXuXuXuXuXuXuXuX",
"uXuXuXuXuXuXuXuXuXuXuXuXuXuXuXuXuXuXuXuXuXuXuXW.uXuXuXuXs.% !.!.l.Q.f.l.%X!.uXuXuXuXuXuXuXuXuXuXuXuXuXuXuXuXuXuXuXuXuXuXuXuXuXuX",
"uXuXuXuXuXuXuXuXuXuXuXuXuXuXuXuXq.h.V.uXuXS.S.uXuXuXuXuXs.% J.(.f.f.n.L.K.$XA.uXuXuXuXuXuXuXuXuXuXuXuXuXuXuXuXuXuXuXuXuXuXuXuXuX",
"uXuXuXuXuXuXuXuXuXuXuXuXuX+X:X:Xx t.#X#XN.uXuXuXuXuXuXuXs.% l.y.e.n.8.P.L.E.D.uXuXuXuXuXuXuXuXuXuXuXuXuXuXuXuXuXuXuXuXuXuXuXuXuX",
"uXuXuXuXuXuXuXuXuXuXuXuXuXuXt.y S e t.,X,XN.uXuXuXuXuXuXs.% y.( K.4.U.Y.L.n.D.uXuXuXuXuXuXuXuXuXuXuXuXuXuXuXuXuXuXuXuXuXuXuXuXuX",
"uXuXuXuXuXuXuXuXuXuXuXuXuXm 3 v M N F M t.rX-Xz.uXuXuXZ.j K./ =.Y.2.].{.4.n.A.uXuXuXuXuXuXuXuXuXuXuXuXuXuXuXuXuXuXuXuXuXuXuXuXuX",
"uXuXuXuXuXuXuXuXuXuXuXuX+   A b U z y.N z -XrXF.z.uXuXl.R g.' -.7.].6.{.4.L.D.uXuXuXuXuXuXuXuXuXuXuXuXuXuXuXuXuXuXuXuXuXuXuXuXuX",
"uXuXuXuXuXuXuXuXuXuXuX& # 9 <Xu.D K u.8 5 e l.c.x.uXuXuXV.1X~.E $.9.o.#.9.^.V.uXuXuXuXuXuXuXuXuXuXuXuXuXuXuXuXuXuXuXuXuXuXuXuXuX",
"uXuXuXuXuXuXuXuXuXuXuX3 5 x s.D 4 Z K U 0 r b ).*.^ uXuXa.# &X^ 5.]...#.0.L.V.uXuXuXuXuXuXuXuXuXuXuXuXuXuXuXuXuXuXuXuXuXuXuXuXuX",
"uXuXuXuXuXuXuXuXuXt r <X7 7 F c L '.c U > a.J ^ 6X~ >.uXs.% G f  .=.=.].$.4.uXuXuXuXuXuXuXuXuXuXuXuXuXuXuXuXuXuXuXuXuXuXuXuXuXuX",
"uXuXuXuXuXuXuXuXuX9 b D 7 7 t q L '.7 F q '.g.2 k.n._ uXs.& l R ( R [.5.@.P.uXuXuXuXuXuXuXuXuXuXuXuXuXuXuXuXuXuXuXuXuXuXuXuXuXuX",
"uXuXuXuXuXuXuXuXuX3 u.i.A M 1 o 8 q z p.C p.p.x z wXwX^ j % ( ` O.].+.8.W.).uXuXuXuXuXuXuXuXuXuXuXuXuXuXuXuXuXuXuXuXuXuXuXuXuXuX",
"uXuXuXuXuXuXuXuXuXuX+ `.#.uXuXuXo o , b K 1 e a.a.r.7X4._ r.` 6.=.=.k.^.W.!.uXuXuXuXuXuXuXuXuXuXuXuXuXuXuXuXuXuXuXuXuXuXuXuXuXuX",
"uXuXuXuXuXuXuXuXuXuXuX_ X.uXuXuXuXo o o L c 8 g.R.B ~.j R # $.6.&.:.' ).&XW.uXuXuXuXuXuXuXuXuXuXuXuXuXb.uXuXuXuXuXuXuXuXuXuXuXuX",
"uXuXuXuXuXuXuXuXuXuXuX..o.X.uXuXuXo O z a.z P i.u.q 4 ' ( / <.-.:.:.T.wXuXuXuXuXuXuXuXuXuXuXw._ 4.4.n.T.uXuXuXuXuXuXuXuXuXuXuXuX",
"uXuXuXuXuXuXuXuXuXuXuXo.o.X.uXuXuXo O 6 g.D c N c 7 o . f ( ` 3.3.,.W.D.. . . uXuXuXuXuXuXuX! 1./.7XP.n.%.uXuXuXuXuXuXuXuXuXuXuX",
"uXuXuXuXuXuXuXuXuXuX; o...] o.E uXo o ; 0 A C a.N 5 + X & ^ v.m.v.%.- . . X . . . 3 & uXuX) Y.Y.{./.5XwX&Xm.uXuXuXuXuXuXuXuXuXuX",
"uXuXuXuXuXuXuXuXuXuXuXo.[ ] ..o.< . 3 4 p.0 v 0 7 v j . v 2.F.).v.^   . X - . o . 9 3 9 r k }.{.7X{.8XwX9X!.) uXuXuXuXuXuXuXuXuX",
"uXuXuXuXuXuXuXuXuXuXuXo.h [ d.O.] ] 9 K r 4 > A s.] o.C F F.0XF.u.U i p Y Y t + + 4 5 m u ` 7. .&./.8X0X0X0Xz.uXuXuXuXuXuXuXuXuX",
"uXuXuXuXuXuXuXuXuXuXuXuXuX: r. ...X.f 7 o 8 N ! X.o.o._.d.0XJ.n.tXT T `.tXY <X> c M b & 1 @ + uXuXuXQ.0X=X0XH.uXuXuXuXuXuXuXuXuX",
"uXuXuXuXuXuXuXuXuXuXuXuXuXh o.o...o.o.X.] { X.' =.o.[ '.g.).m.1XtXY Y tX| ' Z > z p.b 3 7 8 3 uXuXuX&.*X=XrXoXj.uXuXuXuXuXuXuXuX",
"uXuXuXuXuXuXuXuXuXuXuXuXuXo.o.] [ o.a.yXo.o.o.| | e.P <X4XeXF.( A b C C V & O.o.o. .R ( d.Q ] 8 uXuXuXJ.-XrXOXN.uXuXuXuXuXuXuXuX",
"uXuXuXuXuXuXuXuXuXuXuXuXuXo.o.uXuXo.X.` o.o.o.! X.( P 2XqX0X!.z.g.N u.A K t <XX.o.o.o.o.o.o.` f uXuXuXz.-XrX#XB.uXuXuXuXuXuXuXuX",
"uXuXuXuXuXuXuXuXuXuXuXuXuXuXuXuXo.o.[ & m o.{ 4 X./ 4 2XeX5X=XJ.eXeXb > L 9 X.o.o.X.1XX.o.o.s.R uXuXuXuXOX,X,X XuXuXuXuXuXuXuXuX",
"uXuXuXuXuXuXuXuXuXuXuXuXuXuXuXuXo.o.! o > o.} P X.d.z T '.T.=XH.1XA K s.s.M o.o.o.o.O.o.o.o.{ W uXuXuXuXOX,X,X.XuXuXuXuXuXuXuXuX",
"uXuXuXuXuXuXuXuXuXuXuXuXuXuXuXuXuXuXuXuX2 d 8 L L N P 0 m p.%X$Xp.p.m u 3 3 o.k 4 ] o.o.o.o.X.s uXuXuXuX;X,X,XXXuXuXuXuXuXuXuXuX",
"uXuXuXuXuXuXuXuXuXuXuXuXuXuXuXuXuXuXuXuX4 7 n g u.c S m w K %X%X<X2XN D u r o.! q ! o.[ d } o.2 uXuXuXuX#X,X,X+XuXuXuXuXuXuXuXuX",
"uXuXuXuXuXuXuXuXuXuXuXuXuXuXuXuXuXuX+ 3 8 v J z > x uX9 r w R.-X2Xv y 0 3 uXE [ 7 l o.X.4 o.o.i > uXuXuX@X:X;XuXuXuXuXuXuXuXuXuX",
"uXuXuXuXuXuXuXuXuXuXuXuXuXuXuXuXuX& m b z 7 b @ uXuXuXuXuXuXG.0X0XA.uXuXuXuXuXuX3 0 R } d o.o.uXuXuXuXuXuX|..XuXuXuXuXuXuXuXuXuX",
"uXuXuXuXuXuXuXuXuXuXuXuXuXuXuXuX3 H L M 7 K P uXuXuXuXuXuXuXXXrX0X!.uXuXuXuXuXuX$ z b t 5 o.uXuXuXuXuXuXuXuXl uXuXuXuXuXuXuXuXuX",
"uXuXuXuXuXuXuXuXuXuXuXuXuXuXuXuXI p.0 4 v '.M uXuXuXuXuXuX|.XXXXwX).uXuXuXuXuXuXuX@ v p.t t uXuXuXuXuXuXuXuXuXuXuXuXuXuXuXuXuXuX",
"uXuXuXuXuXuXuXuXuXuXuXuXuXuXuXuXI D uXuXI s.3 uXuXuXuXuXuXXX@X#XuXx.uXuXuXuXuXuXuXuX4 C b b uXuXuXuXuXuXuXuXuXuXuXuXuXuXuXuXuXuX",
"uXuXuXuXuXuXuXuXuXuXuXuXuXuXuXuXv R.uXuXU 7 uXuXuXuXuXuXuXuXuXuXuXuXuXuXuXuXuXuXuXuXuXb p.K uXuXuXuXuXuXuXuXuXuXuXuXuXuXuXuXuXuX",
"uXuXuXuXuXuXuXuXuXuXuXuXuXuXuXuX5 s.uXuX7 t uXuXuXuXuXuXuXuXuXuXuXuXuXuXuXuXuXuXuXuX3 v p.t + uXuXuXuXuXuXuXuXuXuXuXuXuXuXuXuXuX",
"uXuXuXuXuXuXuXuXuXuXuXuXuXuXuXuXm s.@ uXuXP u.uXuXuXuXuXuXuXuXuXuXuXuXuXuXuXuXuXuX3 0 M 7 1 uXuXuXuXuXuXuXuXuXuXuXuXuXuXuXuXuXuX",
"uXuXuXuXuXuXuXuXuXuXuXuXuXuXuXuXX I X uXuX> s.i uXuXuXuXuXuXuXuXuXuXuXuXuXuXuXv p K t @ uXuXuXuXuXuXuXuXuXuXuXuXuXuXuXuXuXuXuXuX",
"uXuXuXuXuXuXuXuXuXuXuXuXuXuXuXuX= - uXuXuX+ A 3 uXuXuXuXuXuXuXuXuXuXuXuXuXuXi K I 7 3 uXuXuXuXuXuXuXuXuXuXuXuXuXuXuXuXuXuXuXuXuX",
"uXuXuXuXuXuXuXuXuXuXuXuXuXuXuX. p p uXuXuXuXX X uXuXuXuXuXuXuXuXuXuXuXuXX * p i 9 v uXuXuXuXuXuXuXuXuXuXuXuXuXuXuXuXuXuXuXuXuXuX",
"uXuXuXuXuXuXuXuXuXuXuXuXuXuXuX. - = uXuXuXuX. p i uXuXuXuXuXuXuXuXuXuXuXX = * Y X uXuXuXuXuXuXuXuXuXuXuXuXuXuXuXuXuXuXuXuXuXuXuX",
"uXuXuXuXuXuXuXuXuXuXuXuXuXuXuXuXuXuXuXuXuXuX. - X uXuXuXuXuXuXuXuXuXuXuXuXuX- X . uXuXuXuXuXuXuXuXuXuXuXuXuXuXuXuXuXuXuXuXuXuXuX",
"uXuXuXuXuXuXuXuXuXuXuXuXuXuXuXuXuXuXuXuXuXuX. uXuXuXuXuXuXuXuXuXuXuXuXuXuXuXuXuXuXuXuXuXuXuXuXuXuXuXuXuXuXuXuXuXuXuXuXuXuXuXuXuX",
"uXuXuXuXuXuXuXuXuXuXuXuXuXuXuXuXuXuXuXuXuXuXuXuXuXuXuXuXuXuXuXuXuXuXuXuXuXuXuXuXuXuXuXuXuXuXuXuXuXuXuXuXuXuXuXuXuXuXuXuXuXuXuXuX",
"uXuXuXuXuXuXuXuXuXuXuXuXuXuXuXuXuXuXuXuXuXuXuXuXuXuXuXuXuXuXuXuXuXuXuXuXuXuXuXuXuXuXuXuXuXuXuXuXuXuXuXuXuXuXuXuXuXuXuXuXuXuXuXuX",
"uXuXuXuXuXuXuXuXuXuXuXuXuXuXuXuXuXuXuXuXuXuXuXuXuXuXuXuXuXuXuXuXuXuXuXuXuXuXuXuXuXuXuXuXuXuXuXuXuXuXuXuXuXuXuXuXuXuXuXuXuXuXuXuX",
"uXuXuXuXuXuXuXuXuXuXuXuXuXuXuXuXuXuXuXuXuXuXuXuXuXuXuXuXuXuXuXuXuXuXuXuXuXuXuXuXuXuXuXuXuXuXuXuXuXuXuXuXuXuXuXuXuXuXuXuXuXuXuXuX",
"uXuXuXuXuXuXuXuXuXuXuXuXuXuXuXuXuXuXuXuXuXuXuXuXuXuXuXuXuXuXuXuXuXuXuXuXuXuXuXuXuXuXuXuXuXuXuXuXuXuXuXuXuXuXuXuXuXuXuXuXuXuXuXuX"
};
