/* XPM */
static char *player_right_7[] = {
/* columns rows colors chars-per-pixel */
"64 64 220 2 ",
"   c black",
".  c #080800",
"X  c #070008",
"o  c gray3",
"O  c #100000",
"+  c #180000",
"@  c #100800",
"#  c #180800",
"$  c #140808",
"%  c #181000",
"&  c #101008",
"*  c #181008",
"=  c #0D0810",
"-  c #111010",
";  c #171619",
":  c #210800",
">  c #210808",
",  c #211000",
"<  c #291000",
"1  c None",
"2  c #291008",
"3  c #211808",
"4  c #291808",
"5  c #351006",
"6  c #311800",
"7  c #311808",
"8  c #3B1808",
"9  c #221010",
"0  c #281810",
"q  c #311810",
"w  c #3B1810",
"e  c #321F18",
"r  c #312110",
"t  c #392110",
"y  c #392918",
"u  c #252324",
"i  c #382D2A",
"p  c #520B00",
"a  c #520E08",
"s  c #4D1F0D",
"d  c #6B0000",
"f  c #6A0E09",
"g  c #7F0000",
"h  c #671C09",
"j  c #422110",
"k  c #422A10",
"l  c #4A2118",
"z  c #422918",
"x  c #4A2918",
"c  c #5A2719",
"v  c #4A311B",
"b  c #5C3C14",
"n  c #523118",
"m  c #5E3118",
"M  c #642C0C",
"N  c #4A2921",
"B  c #523122",
"V  c #5F3121",
"C  c #583921",
"Z  c #5C3E29",
"A  c #633921",
"S  c #713921",
"D  c #7A4211",
"F  c #604421",
"G  c #6F4421",
"H  c #6B4429",
"J  c #764129",
"K  c #7A4A29",
"L  c #694831",
"P  c #514C51",
"I  c #7D5E4D",
"U  c #8C0E08",
"Y  c #AD0000",
"T  c #B40E00",
"R  c #B60D08",
"E  c #8E2100",
"W  c #8C2308",
"Q  c #8C2310",
"!  c #8B2B1A",
"~  c #B52308",
"^  c #B62310",
"/  c #B72C1A",
"(  c #C20000",
")  c #CE0000",
"_  c #DA0000",
"`  c #DA0C00",
"'  c #DD0D09",
"]  c #D61C0D",
"[  c #EB0000",
"{  c #F70000",
"}  c red",
"|  c #F40D09",
" . c #FF0808",
".. c #FF100C",
"X. c #FD180E",
"o. c #FF1D18",
"O. c #DA2A00",
"+. c #D62D0C",
"@. c #CE3D06",
"#. c #DC2A1B",
"$. c #EB220C",
"%. c #FD210F",
"&. c #FD2D0D",
"*. c #EB3D03",
"=. c #FF3E03",
"-. c #F4291C",
";. c #FF2D18",
":. c #E33E18",
">. c #FF3D15",
",. c #F33E19",
"<. c #FF2521",
"1. c #FF2E2C",
"2. c #FF3121",
"3. c #FF3D21",
"4. c #FF3E29",
"5. c #FF3D31",
"6. c #FF3E39",
"7. c #B94407",
"8. c #A2451D",
"9. c #B9481D",
"0. c #A86910",
"q. c #814921",
"w. c #8F4E2D",
"e. c #815929",
"r. c #805131",
"t. c #935D30",
"y. c #945F39",
"u. c #AE4C2C",
"i. c #B5602E",
"p. c #B16539",
"a. c #DE5A08",
"s. c #CE421C",
"d. c #CE561D",
"f. c #E84E03",
"g. c #E75A08",
"h. c #FB5A04",
"j. c #FD4A13",
"k. c #E75710",
"l. c #E8521D",
"z. c #FE5614",
"x. c #E76406",
"c. c #F36305",
"v. c #F66E05",
"b. c #E76310",
"n. c #EF6B10",
"m. c #E76319",
"M. c #EF6318",
"N. c #E76C1D",
"B. c #EF6B18",
"V. c #FD671D",
"C. c #EF731F",
"Z. c #F97210",
"A. c #F9731D",
"S. c #DA502B",
"D. c #F44F2B",
"F. c #FF4A2C",
"G. c #FD5021",
"H. c #FF5529",
"J. c #EC503E",
"K. c #FF5731",
"L. c #FF5239",
"P. c #DB6B2D",
"I. c #C57D3C",
"U. c #EF6A21",
"Y. c #EF6F2B",
"T. c #FC732D",
"R. c #F77C29",
"E. c #E36E39",
"W. c #FE6731",
"Q. c #FF6B39",
"!. c #EC7E37",
"~. c #F77F36",
"^. c #99664A",
"/. c #9C6F59",
"(. c #A96A42",
"). c #FF4D42",
"_. c #FF534F",
"`. c #E36F45",
"'. c #FF6C45",
"]. c #FF6B58",
"[. c #DD8306",
"{. c #F7800D",
"}. c #FF8308",
"|. c #EC9A05",
" X c #FF9D00",
".X c #FF8418",
"XX c #FF9C14",
"oX c #EFB206",
"OX c #FFB400",
"+X c #FFB412",
"@X c #FF8521",
"#X c #FF962E",
"$X c #E58C3A",
"%X c #FF8039",
"&X c #FF8C39",
"*X c #FF9739",
"=X c #FEAC38",
"-X c #FECA0A",
";X c #FFDD11",
":X c yellow",
">X c #FFD435",
",X c #BA804E",
"<X c #B98A68",
"1X c #DB944F",
"2X c #CC9E50",
"3X c #E8874D",
"4X c #FF8142",
"5X c #FF8C42",
"6X c #FF804D",
"7X c #FF8C4C",
"8X c #FF9742",
"9X c #FF9F4F",
"0X c #F48C5E",
"qX c #FF9452",
"wX c #EEA062",
"eX c #F2BE64",
"rX c #FEC44E",
"tX c #B99D84",
"yX c #E1B68E",
"uX c #EAD2A3",
/* pixels */
"                                                                                                                                ",
"                                                                                                                                ",
"                                                                                                                                ",
"                                                                    e.:X                                                        ",
"                                                                    F 2X                                                        ",
"                                                                    & t.                                                        ",
"                                                                    & y.                                                        ",
"                                                                    & y.                                                        ",
"                                                                    & y.                                                        ",
"                                                                    & y.                                                        ",
"                                                        N.          & y.                                                        ",
"                                                  x.    U.          & y.                                                        ",
"                                                    b.b.N.          & y.                                                        ",
"                                                      k.g.g.@X@X    & y.                                                        ",
"                                                            #XR.~ U & y.                                                        ",
"                                                          b.&XR.( ) d y.                                                        ",
"                                                          n.&X-.5.o.} 7.g.                                                      ",
"                                                          Z.#X;.).5.X.7.a.                                                      ",
"                                                        .X#X#X@X4XK.5.+.          m.Y.U.b.b.                                    ",
"                                                        #X*X#XR.%XW.4.d.b.        b.b.                                          ",
"                                                      g.*XC.:.9.S.K.3Xb.                                                        ",
"                                                      R.N.:.:.S.w.q.,XC.                  k.                                    ",
"                                                    g.&X:.l.F.W.d.q.p.A.B.              k.b.                                    ",
"                                                    C.*X,.-.'.Q.W.D.q.R.B.              k.a.c.a.0.                              ",
"                                                    R.9X,.3.'.H.Q.W.! R.B.              h.Z.{.}.}.{.[.[.1                       ",
"                                                    &X'.4.X.:.'.2.2.s.I.5X          @.8XeXrX[.0.D q.0.0.[.                      ",
"                                                  g.9XH.-.' #._.<.' 6XS.P.          W V.$XD 7 < 6 k % r 0.                      ",
"                                                    K.<.1._.S._.%.^ wX!.M.    ~ E M.5XM 1 2 O 7 n q.V r.3 -XoX                  ",
"                                                  B.4Xo...5.R S.#.! wXg.      ~ s.Y.8.G l # q C S t.r.L # ;X-X                  ",
"                                                    qX9XK.3.6.1.u.! <Xt.  U l.7XD.e t w.A j B 7 S : z y.t X                     ",
"                                                    5X5XQ.F.Q.).).] 0XO p G.4XD m w.< x H B 1 A S j x t.x 1                     ",
"                        k.N.U.Y.m.k.                %XqX9XQ.D.J.5.<.`.7.g ^ W.m p.I.c 7 r.q 2 A V l x p.n r                     ",
"                                                      Y.9X7XH.3.3.1.:.i.Q / < t.(.t.7 r.O O + > + + j n t 0                     ",
"                                                        9XwX-.G.G.G.I.7Xq 7 1 C G K n V : O O O   : 7 1 8 v H                   ",
"                                  g.              X X X 7.3XO.$.W.z.j.I.I.X : q.q.< (.p.a # O O     j h L v t                   ",
"                                k.m.          O X X X X X X 8.O.W.V.G.d.p.V 4 M t.x n K 2 + O       ) #.tXC 9                   ",
"                                  k.  # 0 1 3 O O O i u o o o e @.V.9XV.W.0Xt.n C t * ^.> # O   d ) [ { : #                     ",
"                            T R ] ] W 1 z 7 8 2 , G P I P P P P I p.%X9XqX'.6XK x t 7 * y * Y ) { ) [ }                         ",
"                          ~ 3.).].].f : 1 t 8 l : r.I tXP /.tXP /.tXR.eXwXE.6X[ W n 7 # r 5 ( _ [ ) _ } {                       ",
"                        ~ &.0X6XL./ 8 l 8 O t.q.s R o.J.P P P P P i 3X4XwX%X'.yXu.} } } } } ) [ <XR   {                         ",
"                        ~ >.'.0X&.T U r.J 8 8.#.{ } f Z Z i Z N B Z 1XqXeX4X'.p.] } } } / } ) _ ] }   {                         ",
"                        *.z.G.W.S./. .} } 9.| } } yXa z 0 t 1X(.r H P.eX9X0XS./ 8 } } } ' } Y ( } }                             ",
"                        =.%XT.H.9.^.} } } uX/ } } ^ l z 2 v wXeXx z m.eX9X0X9.) * } } h ( }     } }                             ",
"                        h.R.%XqXR ) } } } } } } } } z t ,X<XC n B t %X9X8Xr.L R q.} } @ g } }                                   ",
"                        z.A.A.9XT ` } } } } } U 5 } 1 2 z B r.4 i z 4X9X8XG j m r.T [ @ ! } }                                   ",
"                        f..X&X&X+.~ } , U } ' j ! } 1 r j m r.y.r r 0X9X8Xq 2 A r.l 7 1                                         ",
"                        f.v.=X#XY.$.} 2 R } R 2 a 5       0 4 0 B i qXrX&X|.|.S K w 1 # @                                       ",
"                        x.v.rX#X9X&.) t ' ) a 1 1                   9X=X~.    j l 8 4 t #                                       ",
"                        x.}.=X>XI.e.x ,Xr.t t                       XXrX>X[.  k n w 7 B C r                                     ",
"                        {. X+X=Xr.(.A v t H q                       .X-X+X X|.t n t   4 ^.H                                     ",
"                        |.OXoXK K ^.r 1 t B *                             [. Xq C *     z Z *                                   ",
"                        OX+XD G m j   @ 4 0 #                                 z r.1     @ 7 #                                   ",
"                        OX[.G G         # x ,                                 z r.*         l 1                                 ",
"                        b e.|.oX          7 H t                               8 H           c S @                               ",
"                        L ^.-X            4 m t t                             x (.          < B o X                             ",
"                        e -                 , ^.^.1                           t H               ; P . X                         ",
"                      X P -                   u r.u                           n (.              o i o X                         ",
"                      o u o                   o u o                           x ,Xo                                             ",
"                      o - =                     - ;                           $ 0 - X                                           ",
"                                                                                - i ; X                                         ",
"                                                                                  ; -                                           ",
"                                                                                                                                ",
"                                                                                                                                ",
"                                                                                                                                "
};
