/* XPM */
static char *result[] = {
/* columns rows colors chars-per-pixel */
"64 64 192 2 ",
"   c #070008",
".  c gray3",
"X  c #100000",
"o  c #180000",
"O  c #100800",
"+  c #180800",
"@  c #140808",
"#  c #101008",
"$  c #181008",
"%  c #0D0810",
"&  c #111010",
"*  c #171619",
"=  c #290501",
"-  c #211000",
";  c #291000",
":  c #211008",
">  c #291008",
",  c #291808",
"<  c #351006",
"1  c #311808",
"2  c #3B1808",
"3  c #3B1810",
"4  c #312110",
"5  c #392110",
"6  c #252324",
"7  c #382D2A",
"8  c #420400",
"9  c #520000",
"0  c #520E08",
"q  c #4D1F0D",
"w  c #6B0000",
"e  c #7F0000",
"r  c #671C09",
"t  c #422110",
"y  c #422A10",
"u  c #4A2118",
"i  c #422918",
"p  c #4A2918",
"a  c #5A2719",
"s  c #523118",
"d  c #5E3118",
"f  c #642C0C",
"g  c #4A2921",
"h  c #5F3121",
"j  c #583921",
"k  c #5C3E29",
"l  c #633921",
"z  c #713921",
"x  c #7A4211",
"c  c #604421",
"v  c #7A4A29",
"b  c #6B4C39",
"n  c #514C51",
"m  c #8B0B00",
"M  c #8C0E08",
"N  c #940000",
"B  c #AD0000",
"V  c #B40E00",
"C  c #B60D08",
"Z  c #8E2100",
"A  c #8C2308",
"S  c #8C2310",
"D  c #8B2B1A",
"F  c #B62800",
"G  c #B52308",
"H  c #B62310",
"J  c #B72C1A",
"K  c #C20000",
"L  c #CE0000",
"P  c #DA0000",
"I  c #DD0D09",
"U  c #D61C0D",
"Y  c #EB0000",
"T  c #F70000",
"R  c red",
"E  c #F40D09",
"W  c #FF0808",
"Q  c #FF100C",
"!  c #FD180E",
"~  c #FF1D18",
"^  c #DA2A00",
"/  c #D62D0C",
"(  c #CE3D06",
")  c #DC2A1B",
"_  c #EB220C",
"`  c #FD210F",
"'  c #FD2D0D",
"]  c #EB3D03",
"[  c #FF3E03",
"{  c #F4291C",
"}  c #FF2D18",
"|  c #E33E18",
" . c #FF3D15",
".. c #F33E19",
"X. c #FF2521",
"o. c #FF2E2C",
"O. c #FF3121",
"+. c #FF3D21",
"@. c #FF3E29",
"#. c #FF3D31",
"$. c #FF3E39",
"%. c #A34408",
"&. c #B94407",
"*. c #A2451D",
"=. c #B9481D",
"-. c #A86910",
";. c #814921",
":. c #8F4E2D",
">. c #815929",
",. c #805131",
"<. c #935D30",
"1. c #945F39",
"2. c #AE4C2C",
"3. c #B5602E",
"4. c #B16539",
"5. c #D05007",
"6. c #DE5A08",
"7. c #CE421C",
"8. c #CE561D",
"9. c #E84E03",
"0. c #FF4E04",
"q. c #E75A00",
"w. c #E75A08",
"e. c #FB5A04",
"r. c #FD4A13",
"t. c #E8521D",
"y. c #FE5614",
"u. c #D66911",
"i. c #E76406",
"p. c #F66E05",
"a. c #E76310",
"s. c #E76F10",
"d. c #EF6B10",
"f. c #E76319",
"g. c #EF6318",
"h. c #E76C1D",
"j. c #EF6B18",
"k. c #FD671D",
"l. c #EF731F",
"z. c #F97210",
"x. c #F9731D",
"c. c #F44F2B",
"v. c #FD5021",
"b. c #EC503E",
"n. c #FF5731",
"m. c #FF5239",
"M. c #DB6B2D",
"N. c #C57D3C",
"B. c #EF6A21",
"V. c #EF6F2B",
"C. c #FC732D",
"Z. c #F77C29",
"A. c #E36E39",
"S. c #FE6731",
"D. c #FF6B39",
"F. c #EC7E37",
"G. c #F77F36",
"H. c #FF4D42",
"J. c #FF534F",
"K. c #E36F45",
"L. c #FF6C45",
"P. c #FF6B58",
"I. c #DD8306",
"U. c #FF8308",
"Y. c #EC9A05",
"T. c #FF9D00",
"R. c #FF8418",
"E. c #FF9C14",
"W. c #FFB412",
"Q. c #FF8521",
"!. c #FF962E",
"~. c #FF8039",
"^. c #FF8C39",
"/. c #FF9739",
"(. c #FEAC38",
"). c #FECA0A",
"_. c #FFDD11",
"`. c yellow",
"'. c #FFD435",
"]. c #BA804E",
"[. c #B98A68",
"{. c #CC9E50",
"}. c #E8874D",
"|. c #FF8C42",
" X c #FF804D",
".X c #FF8C4C",
"XX c #FF9742",
"oX c #FF9F4F",
"OX c #FF9452",
"+X c #F2BE64",
"@X c #FEC44E",
"#X c None",
/* pixels */
"#X#X#X#X#X#X#X#X#X#X#X#X#X#X#X#X#X#X#X#X#X#X#X#X#X#X#X#X#X#X#X#X#X#X#X#X#X#X#X#X#X#X#X#X#X#X#X#X#X#X#X#X#X#X#X#X#X#X#X#X#X#X#X#X",
"#X#X#X#X#X#X#X#X#X#X#X#X#X#X#X#X#X#X#X#X#X#X#X>.`.#X#X#X#X#X#X#X#X#X#X#X#X#X#X#X#X#X#X#X#X#X#X#X#X#X#X#X#X#X#X#X#X#X#X#X#X#X#X#X",
"#X#X#X#X#X#X#X#X#X#X#X#X#X#X#X#X#X#X#X#X#X#X#Xc {.#X#X#X#X#X#X#X#X#X#X#X#X#X#X#X#X#X#X#X#X#X#X#X#X#X#X#X#X#X#X#X#X#X#X#X#X#X#X#X",
"#X#X#X#X#X#X#X#X#X#X#X#X#X#X#X#X#X#X#X#X#X#X#X# <.#X#X#X#X#X#X#X#X#X#X#X#X#X#X#X#X#X#X#X#X#X#X#X#X#X#X#X#X#X#X#X#X#X#X#X#X#X#X#X",
"#X#X#X#X#X#X#X#X#X#X#X#X#X#X#X#X#X#X#X#X#X#X#X# 1.#X#X#X#X#X#X#X#X#X#X#X#X#X#X#X#X#X#X#X#X#X#X#X#X#X#X#X#X#X#X#X#X#X#X#X#X#X#X#X",
"#X#X#X#X#X#X#X#X#X#X#X#X#X#X#X#X#X#X#X#X#X#X#X# 1.#X#X#X#X#X#X#X#X#X#X#X#X#X#X#X#X#X#X#X#X#X#X#X#X#X#X#X#X#X#X#X#X#X#X#X#X#X#X#X",
"#X#X#X#X#X#X#X#X#X#X#X#X#X#X#X#X#X#X#X#X#X#X#X# 1.#X#X#X#X#X#X#X#X#X#X#X#X#X#X#X#X#X#X#X#X#X#X#X#X#X#X#X#X#X#X#X#X#X#X#X#X#X#X#X",
"#X#X#X#X#X#X#X#X#X#X#X#X#X#X#X#X#X#X#X#X#X#X#X# 1.#X#X#X#X#X#X#X#X#X#X#X#X#X#X#X#X#X#X#X#X#X#X#X#X#X#X#X#X#X#X#X#X#X#X#X#X#X#X#X",
"#X#X#X#X#X#X#X#X#X#X#X#X#X#X#X#X#X#X#X#X#X#X#X# 1.#X#X#X#X#X#X#X#X#X#X#X#X#X#X#X#X#X#X#X#X#X#X#X#X#X#X#X#X#X#X#X#X#X#X#X#X#X#X#X",
"#X#X#X#X#X#X#X#X#X#X#X#X#X#X#X#X#X#X#X#X#X#X#X# 1.#X#X#X#X#X#X#X#X#X#X#X#X#X#X#X#X#X#X#X#X#X#X#X#X#X#X#X#X#X#X#X#X#X#X#X#X#X#X#X",
"#X#X#X#X#X#X#X#X#X#X#X#X#X#X#X#X#X#X#X#X#X#X#X# 1.#X#X#X#X#X#X#X#X#X#X#X#X#X#X#X#X#X#X#X#X#X#X#X#X#X#X#X#X#X#X#X#X#X#X#X#X#X#X#X",
"#X#X#X#X#X#X#X#X#X#X#X#X#X#X#X#X#X#X#X#X#X#X#X# 1.#X#X#X#X#X#X#X#X#X#X#X#X#X#X#X#X#X#X#X#X#X#X#X#X#X#X#X#X#X#X#X#X#X#X#X#X#X#X#X",
"#X#X#X#X#X#X#X#X#X#X#X#X#X#X#X#X#X#X#X#X#X#X#X# 1.#X#X#X#X#X#Xa.h.B.#X#X#X#X#X#X#X#X#X#X#X#X#X#X#X#X#X#X#X#X#X#X#X#X#X#X#X#X#X#X",
"#X#X#X#X#X#X#X#X#X#X#X#X#X#X#X#X#X#X#X#X#X#X#X# 1.#X#X#X#X#X#Xa.#X#Xw.#X#X#X#X#X#X#X#X#X#X#X#X#X#X#X#X#X#X#X#X#X#X#X#X#X#X#X#X#X",
"#X#X#X#X#X#X#X#X#X#X#X#X#X#X#X#X#X#X#X#X#X#X#X# 1.#Xq.i.#X#X( B N f a.q.#X#X#X#X#X#X#X#X#X#X#X#X#X#X#X#X#X#X#X#X#X#X#X#X#X#X#X#X",
"#X#X#X#X#X#X#X#X#X#X#X#X#X#X#X#X#X#X#X#X#X#X#X# 1.#XR.Q.R.6.I W E M 6.#X#X#X#X#X#X#X#X#X#X#X#X#X#X#X#X#X#X#X#X#X#X#X#X#X#X#X#X#X",
"#X#X#X#X#X#X#X#X#X#X#X#X#X#X#X#X#X#X#X#X#X#X#X# 1.d.z.R.R.j.Q J.$.Y 8.q.#X#X#X#X#X#X#X#X#X#X#X#X#X#X#X#X#X#X#X#X#X#X#X#X#X#X#X#X",
"#X#X#X#X#X#X#X#X#X#X#X#X#X#X#X#X#X#X#X#X#X#X#X# 1.d.s.a.d.Z.` #.$.I Z.Z.#Xq.#X#X#X#X#X#X#X#X#X#X#X#X#X#X#X#X#X#X#X#X#X#X#X#X#X#X",
"#X#X#X#X#X#X#X#X#X#X#X#X#X#X#X#X#X#X#X#X#X#X#X# 1.#XZ.XX^.l.F.o.O.*.Z.Z.!.^.#X#X#X#X#X#X#X#X#X#X#X#X#X#X#X#X#X#X#X#X#X#X#X#X#X#X",
"#X#X#X#X#X#X#X#X#X#X#X#X#X#X#X#X#X#X#X#X#X#X#X# 1.#Xx.^./.h.8.P.H.D 3.Q.Z.!.a.#X#X#X#X#X#X#X#X#X#X#X#X#X#X#X#X#X#X#X#X#X#X#X#X#X",
"#X#X#X#X#X#X#X#X#X#X#X#X#X#X#X#X#X#X#X#X#X#X#X# 1.d.l.V.k.+.W T X.! E H F./.Z.a.#X#X#X#X#X#X#X#X#X#X#X#X#X#X#X#X#X#X#X#X#X#X#X#X",
"#X#X#X#X#X#X#X#X#X#X#X#X#X#X#X#X#X#X#X#X#X#X#X# 1.Z.O.O.C.H.m.L ! H.W ~ { *.Z.a.#X#X#X#X#X#X#X#X#X#X#X#X#X#X#X#X#X#X#X#X#X#X#X#X",
"#X#X#X#X#X#X#X#X#X#X#X#X#X#X#X#X#X#X#X#X#X#X#X# 1.l.H.@.v.n.J.L ! #.Q Q O.) Z.#X#X#X#X#X#X#X#X#X#X#X#X#X#X#X#X#X#X#X#X#X#X#X#X#X",
"#X#X#X#X#X#X#X#X#X#X#X#X#X#X#X#X#X#X#X#X#X#XB.K.8.f.H.O.+.m.J.L X.o.H.~ H.O.j.#X#X#X#X#X#X#X#X#X#X#X#X#X#X#X#X#X#X#X#X#X#X#X#X#X",
"#X#X#X#X#X#X#X#X#X#X#X#X#X#X#X#X#X#X#X#X#X#XV.+.J t.m.O.+.P.J.I X.o.$.! H.O.g.#X#X#X#X#X#X#X#X#X#X#X#X#X#X#X#X#X#X#X#X#X#X#X#X#X",
"#X#X#X#X#X#X#X#X#X#X#X#X#X#X#X#X#X#X#X#X#X#XY +.2.v.P.c.+.J.P._ Q $.$.~ L.J.J a.#X#X#X#X#X#X#X#X#X#X#X#X#X#X#X#X#X#X#X#X#X#X#X#X",
"#X#X#X#X#X#X#X#X#X#X#X#X#X#X#X#X#X#X#X#X#X#XK V.b.| J.V.n.#.P.Q ~ J.o.U m.P.V =.#X#X#X#X#X#X#X#X#X#X#X#X#X#X#X#X#X#X#X#X#X#X#X#X",
"#X#X#X#X#X#X#X#X#X#X#X#X#X#X#X#X#X#X#X#X#X#X#X# c.{ #.~.^.` X.! o.~ W j.B.! E S u.#X#X#X#X#X#X#X#X#X#X#X#X#X#X#X#X#X#X#X#X#X#X#X",
"#X#X#X#X#X#X#X#X#X#X#X#X#X#X#X#X#X#X#X#X#X#X#X$ b.@.U ~.|.~ X.~ #.X.R h.a.9.! M j.#X#X#X#X#X#X#X#X#X#X#X#X#X#X#X#X#X#X#X#X#X#X#X",
"#X#X#X#X#X#X#X#X#X#X#X#X#X#X#X#X#X#X#X#X#X#X#X@ F.G.a.^.XX} #.J.J.~ W 8.#X#X} / g.#X#X#X#X#X#X#X#X#X#X#X#X#X#X#X#X#X#X#X#X#X#X#X",
"#X#X#X#X#X#X#X#X#X#X#X#X#X#X#X#X#X#X#X#X#X#X#X# b j.h.W.(.@XL.#.#.{ ) *.A 5.t...F #X#X#X#X#X#X#X#X#X#X#X#X#X#X#X#X#X#X#X#X#X#X#X",
"#X#X#X#X#X#X#X#X#X#X#X#X#X#X#X#X#X#X#X#X#X#X#X#XB.l.8.(.'.@X+XP.P.L.c.U M r 6...5.#X#X#X#X#X#X#X#X#X#X#X#X#X#X#X#X#X#X#X#X#X#X#X",
"#X#X#X#X#X#X#X#X#X#X#X#X#X#X#X#X#X#X#X#X#X#X#XG.M.J n./.'.'.'.D.L.L.L.m.U G r u.a.#X#X#X#X#X#X#X#X#X#X#X#X#X#X#X#X#X#X#X#X#X#X#X",
"#X#X#X#X#X#X#X#X#X#X#X#X#X#X#X#X#X#X#X#X#X#XG.G.H ..S.m.Z.'.'.oX.X XL.+.+./ ( *.G.j.#X#X#X#X#X#X#X#X#X#X#X#X#X#X#X#X#X#X#X#X#X#X",
"#X#X#X#X#X#X#X#X#X#X#X#X#X#X#X#X#X#X#X#X#X#X|.F. .' v./ H Z x n n r G ^ r.r.t.t.F.|.#X#X#X#X#X#X#X#X#X#X#X#X#X#X#X#X#X#X#X#X#X#X",
"#X#X#X#X#X#X#X#X#X#X#X#X#X#X#X#X#X#X#X#X#X#X.XM. .[ +.) 0 7 7 k 7 n 7 0  .r.y.r.M.G.#X#X#X#X#X#X#X#X#X#X#X#X#X#X#X#X#X#X#X#X#X#X",
"#X#X#X#X#X#X#X#X#X#X#X#X#X#X#X#X#X#X#X#X#X~.C.y.r.r.7.  n X $ G ;.,.g 7 ; ( y.y.F 3.G.#X#X#X#X#X#X#X#X#X#X#X#X#X#X#X#X#X#X#X#X#X",
"#X#X#X#X#X#X#X#X#X#X#X#X#X#X#X#X#X#X#X#XV.OX.XG.C.A.*.+ + $ r [ ( > @ O   *.M.t.7.M.~.#X#X#X#X#X#X#X#X#X#X#X#X#X#X#X#X#X#X#X#X#X",
"#X#X#X#X#X#X#X#X#X#X#X#X#X#X#X#X#X#X#X#X#XOX.Xy.k.t.r : , i A e.^ ; @ X X x =.7.8.K.|.#X#X#X#X#X#X#X#X#X#X#X#X#X#X#X#X#X#X#X#X#X",
"#X#X#X#X#X#X#X#X#X#X#X#X#X#X#X#X#X#X#X#X#Xw.G.0.+Xk.f 1 + 2 ^ R.0.0 X O O f t.C.&.}.#X#X#X#X#X#X#X#X#X#X#X#X#X#X#X#X#X#X#X#X#X#X",
"#X#X#X#X#X#X#X#X#X#X#X#X#X#X#X#X#X#X#X#X#X#Xl.0.+X3.- O + q ] Q.e.r X   X 1 :.C.=.a.#X#X#X#X#X#X#X#X#X#X#X#X#X#X#X#X#X#X#X#X#X#X",
"#X#X#X#X#X#X#X#X#X#X#X#X#X#X#X#X#X#X#X#X#X#Xd.g.N.*.; t d 2.e.(.p.A y X X + 5 V.h.#X#X#X#X#X#X#X#X#X#X#X#X#X#X#X#X#X#X#X#X#X#X#X",
"#X#X#X#X#X#X#X#X#X#X#X#X#X#X#X#X#X#X#X#X#X#Xa.l.].Y R Y Y }.e.(.U.%.h m w 9 = >.B.#X#X#X#X#X#X#X#X#X#X#X#X#X#X#X#X#X#X#X#X#X#X#X",
"#X#X#X#X#X#X#X#X#X#X#X#X#X#X#X#X#X#X#X#X#X#X#Xa.K U 4.R R *.p.@XT.&.z B e [.2 < a.#X#X#X#X#X#X#X#X#X#X#X#X#X#X#X#X#X#X#X#X#X#X#X",
"#X#X#X#X#X#X#X#X#X#X#X#X#X#X#X#X#X#X#X#X#X#X#X#XP E U R R 8.U.'.E.&.x B e z 8 o #X#X#X#X#X#X#X#X#X#X#X#X#X#X#X#X#X#X#X#X#X#X#X#X",
"#X#X#X#X#X#X#X#X#X#X#X#X#X#X#X#X#X#X#X#X#X#X#X#XT R R R ) -.U.+X).u.x N m m 9 < #X#X#X#X#X#X#X#X#X#X#X#X#X#X#X#X#X#X#X#X#X#X#X#X",
"#X#X#X#X#X#X#X#X#X#X#X#X#X#X#X#X#X#X#X#X#X#XY.Y.I }.w D 2.<.Y.+X_.-.,.z N = N.< I.I.#X#X#X#X#X#X#X#X#X#X#X#X#X#X#X#X#X#X#X#X#X#X",
"#X#X#X#X#X#X#X#X#X#X#X#X#X#X#X#X#X#X#X#X#X#XY.u.U OXU r :.,.-.'.'.-.,.h N r K.= I.I.#X#X#X#X#X#X#X#X#X#X#X#X#X#X#X#X#X#X#X#X#X#X",
"#X#X#X#X#X#X#X#X#X#X#X#X#X#X#X#X#X#X#X#X#X#X#X#XC #XR a D p y _._.Y.s z B 9 #X> #X#X#X#X#X#X#X#X#X#X#X#X#X#X#X#X#X#X#X#X#X#X#X#X",
"#X#X#X#X#X#X#X#X#X#X#X#X#X#X#X#X#X#X#X#X#X#X#X#Xn #X8 s u * # _._.#X: z 2 = #X6 #X#X#X#X#X#X#X#X#X#X#X#X#X#X#X#X#X#X#X#X#X#X#X#X",
"#X#X#X#X#X#X#X#X#X#X#X#X#X#X#X#X#X#X#X#X#X#X#X#X#X#X+ j h 7 # _._.- 3 v O O #X#X#X#X#X#X#X#X#X#X#X#X#X#X#X#X#X#X#X#X#X#X#X#X#X#X",
"#X#X#X#X#X#X#X#X#X#X#X#X#X#X#X#X#X#X#X#X#X#X#X#X#X#X#Xl l % # 9.&.. & <.+ O #X#X#X#X#X#X#X#X#X#X#X#X#X#X#X#X#X#X#X#X#X#X#X#X#X#X",
"#X#X#X#X#X#X#X#X#X#X#X#X#X#X#X#X#X#X#X#X#X#X#X#X#X#X#Xj v X #X#X#X. & ,.O #X#X#X#X#X#X#X#X#X#X#X#X#X#X#X#X#X#X#X#X#X#X#X#X#X#X#X",
"#X#X#X#X#X#X#X#X#X#X#X#X#X#X#X#X#X#X#X#X#X#X#X#X#X#X#Xt p #X#X#X#X#X#X,.$ #X#X#X#X#X#X#X#X#X#X#X#X#X#X#X#X#X#X#X#X#X#X#X#X#X#X#X",
"#X#X#X#X#X#X#X#X#X#X#X#X#X#X#X#X#X#X#X#X#X#X#X#X#X#X#X4 > #X#X#X#X#X#X5 X #X#X#X#X#X#X#X#X#X#X#X#X#X#X#X#X#X#X#X#X#X#X#X#X#X#X#X",
"#X#X#X#X#X#X#X#X#X#X#X#X#X#X#X#X#X#X#X#X#X#X#X#X#X#X#X#X#X#X#X#X#X#X#X> : #X#X#X#X#X#X#X#X#X#X#X#X#X#X#X#X#X#X#X#X#X#X#X#X#X#X#X",
"#X#X#X#X#X#X#X#X#X#X#X#X#X#X#X#X#X#X#X#X#X#X#X#X#X#X#X#X#X#X#X#X#X#X#X, X #X#X#X#X#X#X#X#X#X#X#X#X#X#X#X#X#X#X#X#X#X#X#X#X#X#X#X",
"#X#X#X#X#X#X#X#X#X#X#X#X#X#X#X#X#X#X#X#X#X#X#X#X#X#X#X#X#X#X#X#X#X#X. .   #X#X#X#X#X#X#X#X#X#X#X#X#X#X#X#X#X#X#X#X#X#X#X#X#X#X#X",
"#X#X#X#X#X#X#X#X#X#X#X#X#X#X#X#X#X#X#X#X#X#X#X#X#X#X#X#X#X#X#X#X#X#X  %   #X#X#X#X#X#X#X#X#X#X#X#X#X#X#X#X#X#X#X#X#X#X#X#X#X#X#X",
"#X#X#X#X#X#X#X#X#X#X#X#X#X#X#X#X#X#X#X#X#X#X#X#X#X#X#X#X#X#X#X#X#X#X#X#X#X#X#X#X#X#X#X#X#X#X#X#X#X#X#X#X#X#X#X#X#X#X#X#X#X#X#X#X",
"#X#X#X#X#X#X#X#X#X#X#X#X#X#X#X#X#X#X#X#X#X#X#X#X#X#X#X#X#X#X#X#X#X#X#X#X#X#X#X#X#X#X#X#X#X#X#X#X#X#X#X#X#X#X#X#X#X#X#X#X#X#X#X#X",
"#X#X#X#X#X#X#X#X#X#X#X#X#X#X#X#X#X#X#X#X#X#X#X#X#X#X#X#X#X#X#X#X#X#X#X#X#X#X#X#X#X#X#X#X#X#X#X#X#X#X#X#X#X#X#X#X#X#X#X#X#X#X#X#X",
"#X#X#X#X#X#X#X#X#X#X#X#X#X#X#X#X#X#X#X#X#X#X#X#X#X#X#X#X#X#X#X#X#X#X#X#X#X#X#X#X#X#X#X#X#X#X#X#X#X#X#X#X#X#X#X#X#X#X#X#X#X#X#X#X",
"#X#X#X#X#X#X#X#X#X#X#X#X#X#X#X#X#X#X#X#X#X#X#X#X#X#X#X#X#X#X#X#X#X#X#X#X#X#X#X#X#X#X#X#X#X#X#X#X#X#X#X#X#X#X#X#X#X#X#X#X#X#X#X#X"
};
