/* XPM */
static char *result[] = {
/* columns rows colors chars-per-pixel */
"64 64 191 2 ",
"   c #080800",
".  c #070008",
"X  c gray3",
"o  c #100000",
"O  c #180000",
"+  c #100800",
"@  c #180800",
"#  c #140808",
"$  c #181000",
"%  c #101008",
"&  c #181008",
"*  c #0D0810",
"=  c #111010",
"-  c #171619",
";  c #210000",
":  c #290501",
">  c #210800",
",  c #210808",
"<  c #211000",
"1  c #291000",
"2  c #211008",
"3  c #291008",
"4  c #211808",
"5  c #291808",
"6  c #351006",
"7  c #3B1808",
"8  c #221010",
"9  c #281810",
"0  c #311810",
"q  c #321F18",
"w  c #312110",
"e  c #392110",
"r  c #392918",
"t  c #382D2A",
"y  c #420400",
"u  c #520000",
"i  c #520B00",
"p  c #4D1F0D",
"a  c #6B0000",
"s  c #6A0E09",
"d  c #7F0000",
"f  c #671C09",
"g  c #422110",
"h  c #422A10",
"j  c #422918",
"k  c #4A2918",
"l  c #5A2719",
"z  c #4A311B",
"x  c #523118",
"c  c #5E3118",
"v  c #642C0C",
"b  c #4A2921",
"n  c #523122",
"m  c #583921",
"M  c #5C3E29",
"N  c #633921",
"B  c #713921",
"V  c #7A4211",
"C  c #604421",
"Z  c #6F4421",
"A  c #6B4429",
"S  c #764129",
"D  c #7A4A29",
"F  c #694831",
"G  c #6B4C39",
"H  c #514C51",
"J  c #7D5E4D",
"K  c #8B0B00",
"L  c #8C0E08",
"P  c #B60D08",
"I  c #8C2308",
"U  c #8C2310",
"Y  c #8B2B1A",
"T  c #B62800",
"R  c #B52308",
"E  c #B62310",
"W  c #B72C1A",
"Q  c #C20000",
"!  c #DA0C00",
"~  c #DD0D09",
"^  c #D61C0D",
"/  c #EB0000",
"(  c #F70000",
")  c #F40D09",
"_  c #FF0808",
"`  c #FD180E",
"'  c #FF1D18",
"]  c #D62D0C",
"[  c #CE3D06",
"{  c #DC2A1B",
"}  c #EB220C",
"|  c #FD210F",
" . c #EB3D03",
".. c #F4291C",
"X. c #FF2D18",
"o. c #E33E18",
"O. c #FF3D15",
"+. c #F33E19",
"@. c #FF2521",
"#. c #FF2E2C",
"$. c #FF3121",
"%. c #FF3D21",
"&. c #FF3E29",
"*. c #FF3D31",
"=. c #FF3E39",
"-. c #A34408",
";. c #B94407",
":. c #A2451D",
">. c #B9481D",
",. c #A86910",
"<. c #814921",
"1. c #8F4E2D",
"2. c #815929",
"3. c #805131",
"4. c #935D30",
"5. c #945F39",
"6. c #AE4C2C",
"7. c #B5602E",
"8. c #B16539",
"9. c #D05007",
"0. c #CE421C",
"q. c #CE561D",
"w. c #E84E03",
"e. c #E75A00",
"r. c #E75A08",
"t. c #FD4A13",
"y. c #E75710",
"u. c #E8521D",
"i. c #D66911",
"p. c #E76406",
"a. c #E76310",
"s. c #E76F10",
"d. c #EF6B10",
"f. c #E76319",
"g. c #EF6318",
"h. c #E76C1D",
"j. c #EF6B18",
"k. c #EF731F",
"l. c #F97210",
"z. c #F9731D",
"x. c #DA502B",
"c. c #FF4A2C",
"v. c #FD5021",
"b. c #EC503E",
"n. c #FF5731",
"m. c #FF5239",
"M. c #DB6B2D",
"N. c #C57D3C",
"B. c #EF6A21",
"V. c #EF6F2B",
"C. c #FC732D",
"Z. c #F77C29",
"A. c #E36E39",
"S. c #FE6731",
"D. c #EC7E37",
"F. c #F77F36",
"G. c #99664A",
"H. c #9C6F59",
"J. c #A96A42",
"K. c #FF4D42",
"L. c #E36F45",
"P. c #FF6B58",
"I. c #DD8306",
"U. c #F7800D",
"Y. c #FF8308",
"T. c #EC9A05",
"R. c #FF9D00",
"E. c #FF8418",
"W. c #FF9C14",
"Q. c #FFB412",
"!. c #FF8521",
"~. c #FF962E",
"^. c #FF8039",
"/. c #FF8C39",
"(. c #FF9739",
"). c #FEAC38",
"_. c yellow",
"`. c #BA804E",
"'. c #B98A68",
"]. c #CC9E50",
"[. c #E8874D",
"{. c #FF8142",
"}. c #FF8C42",
"|. c #FF804D",
" X c #FF8C4C",
".X c #FF9742",
"XX c #FF9F4F",
"oX c #FF9452",
"OX c #F2BE64",
"+X c #B99D84",
"@X c None",
/* pixels */
"@X@X@X@X@X@X@X@X@X@X@X@X@X@X@X@X@X@X@X@X@X@X@X@X@X@X@X@X@X@X@X@X@X@X@X@X@X@X@X@X@X@X@X@X@X@X@X@X@X@X@X@X@X@X@X@X@X@X@X@X@X@X@X@X",
"@X@X@X@X@X@X@X@X@X@X@X@X@X@X@X@X@X@X@X@X@X@X@X@X@X@X@X@X@X@X@X@X@X@X@X@X@X@X@X@X@X@X@X@X@X@X@X@X@X@X@X@X@X@X@X@X@X@X@X@X@X@X@X@X",
"@X@X@X@X@X@X@X@X@X@X@X@X@X@X@X@X@X@X@X@X@X@X@X@X@X@X@X@X@X@X@X@X@X@X@X@X@X@X@X@X2._.@X@X@X@X@X@X@X@X@X@X@X@X@X@X@X@X@X@X@X@X@X@X",
"@X@X@X@X@X@X@X@X@X@X@X@X@X@X@X@X@X@X@X@X@X@X@X@X@X@X@X@X@X@X@X@X@X@X@X@X@X@X@X@XC ].@X@X@X@X@X@X@X@X@X@X@X@X@X@X@X@X@X@X@X@X@X@X",
"@X@X@X@X@X@X@X@X@X@X@X@X@X@X@X@X@X@X@X@X@X@X@X@X@X@X@X@X@X@X@X@X@X@X@X@X@X@X@X@X% 4.@X@X@X@X@X@X@X@X@X@X@X@X@X@X@X@X@X@X@X@X@X@X",
"@X@X@X@X@X@X@X@X@X@X@X@X@X@X@X@X@X@X@X@X@X@X@X@X@X@X@X@X@X@X@X@X@X@X@X@X@X@X@X@X% 5.@X@X@X@X@X@X@X@X@X@X@X@X@X@X@X@X@X@X@X@X@X@X",
"@X@X@X@X@X@X@X@X@X@X@X@X@X@X@X@X@X@X@X@X@X@X@X@X@X@X@X@X@X@X@X@X@X@X@X@X@X@X@X@X% 5.@X@X@X@X@X@X@X@X@X@X@X@X@X@X@X@X@X@X@X@X@X@X",
"@X@X@X@X@X@X@X@X@X@X@X@X@X@X@X@X@X@X@X@X@X@X@X@X@X@X@X@X@X@X@X@X@X@X@X@X@X@X@X@X% 5.@X@X@X@X@X@X@X@X@X@X@X@X@X@X@X@X@X@X@X@X@X@X",
"@X@X@X@X@X@X@X@X@X@X@X@X@X@X@X@X@X@X@X@X@X@X@X@X@X@X@X@X@X@X@X@X@X@X@X@X@X@X@X@X% 5.@X@X@X@X@X@X@X@X@X@X@X@X@X@X@X@X@X@X@X@X@X@X",
"@X@X@X@X@X@X@X@X@X@X@X@X@X@X@X@X@X@X@X@X@X@X@X@X@X@X@X@X@X@X@Xa.y.@X@X@X@X@X@X@X% 5.@X@X@X@X@X@X@X@X@X@X@X@X@X@X@X@X@X@X@X@X@X@X",
"@X@X@X@X@X@X@X@X@X@X@X@X@X@X@X@X@X@X@X@X@X@X@X@X@X@X@X@X@X@X@Xf.V.@X@X@X@X@X@X@X% 5.@X@X@X@X@X@X@X@X@X@X@X@X@X@X@X@X@X@X@X@X@X@X",
"@X@X@X@X@X@X@X@X@X@X@X@X@X@X@X@X@X@X@X@X@X@X@X@X@X@X@X@X@X@X@X@Xy.f.@X@X@X@X@X@X% 5.@X@X@X@X@X@X@X@X@X@X@X@X@X@X@X@X@X@X@X@X@X@X",
"@X@X@X@X@X@X@X@X@X@X@X@X@X@X@X@X@X@X@X@X@X@X@X@X@X@X@X@X@X@X@X@X@Xa.r.@Xe.e.@X@X% 5.@X@X@X@X@X@X@X@X@X@X@X@X@X@X@X@X@X@X@X@X@X@X",
"@X@X@X@X@X@X@X@X@X@X@X@X@X@X@X@X@X@X@X@X@X@X@X@X@X@X@X@X@X@Xy.@X@X@Xa.E.@X@X@X@X% 5.@X@X@X@X@X@X@X@X@X@X@X@X@X@X@X@X@X@X@X@X@X@X",
"@X@X@X@X@X@X@X@X@X@X@X@X@X@X@X@X@X@X@X@X@X@X@X@X@X@X@X@X@Xa.} P Q T p.l.!.E.@X@X% 5.@X@X@X@X@X@X@X@X@X@X@X@X@X@X@X@X@X@X@X@X@X@X",
"@X@X@X@X@X@X@X@X@X@X@X@X@X@X@X@X@X@X@X@X@X@X@X@X@X@X@X@X@Xw.( @.) L @Xa.!.!.@X@X% 5.@X@X@X@X@X@X@X@X@X@X@X@X@X@X@X@X@X@X@X@X@X@X",
"@X@X@X@X@X@X@X@X@X@X@X@X@X@X@X@X@X@X@X@X@X@X@X@X@X@Xe.@Xr.g.! #.@.I a.@Xl.E.E.@X% 5.@X@X@X@X@X@X@X@X@X@X@X@X@X@X@X@X@X@X@X@X@X@X",
"@X@X@X@X@X@X@X@X@X@X@X@X@X@X@X@X@X@X@X@X@X@X@X@X@X@Xe.E.z.g.~ ~ P :.l.a.z.E.!.e.% 5.@X@X@X@X@X@X@X@X@X@X@X@X@X@X@X@X@X@X@X@X@X@X",
"@X@X@X@X@X@X@X@X@X@X@X@X@X@X@X@X@X@X@X@X@X@X@X@X@X@X~.E.E.d. .@.^ 9.z.!.Z.~.d.@X% 5.@X@X@X@X@X@X@X@X@X@X@X@X@X@X@X@X@X@X@X@X@X@X",
"@X@X@X@X@X@X@X@X@X@X@X@X@X@X@X@X@X@X@X@X@X@X@X@X@Xg.Z.!.k.u.o.*...v -.!.Z.z.@X@X% 5.@X@X@X@X@X@X@X@X@X@X@X@X@X@X@X@X@X@X@X@X@X@X",
"@X@X@X@X@X@X@X@X@X@X@X@X@X@X@X@X@X@X@X@X@X@X@X@Xr.Z.Z.E E { ' P.K.d d I >.i.k.@X% 5.@X@X@X@X@X@X@X@X@X@X@X@X@X@X@X@X@X@X@X@X@X@X",
"@X@X@X@X@X@X@X@X@X@X@X@X@X@X@X@X@X@X@X@X@X@X@X@X@XZ.+.$.@.) ( ) @.P K ..%.0.(.@X% 5.@X@X@X@X@X@X@X@X@X@X@X@X@X@X@X@X@X@X@X@X@X@X",
"@X@X@X@X@X@X@X@X@X@X@X@X@X@X@X@X@X@X@X@X@X@X@X@X@XZ.%.&.$.@.' ' #._ / ~ m.$.k.@X% 5.@X@X@X@X@X@X@X@X@X@X@X@X@X@X@X@X@X@X@X@X@X@X",
"@X@X@X@X@X@X@X@X@X@X@X@X@X@X@X@X@X@X@X@X@X@X@X@X@XZ.S.X.$.b.F  .n.p ) ] c.@.i.a.% 5.@X@X@X@X@X@X@X@X@X@X@X@X@X@X@X@X@X@X@X@X@X@X",
"@X@X@X@X@X@X@X@X@X@X@X@X@X@X@X@X@X@X@X@X@X@X@X@Xr.h.|.....6.M T.I.8 L W m.@.q.a.% 5.@X@X@X@X@X@X@X@X@X@X@X@X@X@X@X@X@X@X@X@X@X@X",
"@X@X@X@X@X@X@X@X@X@X@X@X@X@X@X@X@X@X@X@X@X@X@X@XF.+.K.F.+.{ D N.,.9 E q.' =.:.j.1.r.@X@X@X@X@X@X@X@X@X@X@X@X@X@X@X@X@X@X@X@X@X@X",
"@X@X@X@X@X@X@X@X@X@X@X@X@X@X@X@X@X@X@X@X@X@X@X@Xu.| ^ Z.g.^ j 2.x & P h.%.$.<.v Y A.@X@X@X@X@X@X@X@X@X@X@X@X@X@X@X@X@X@X@X@X@X@X",
"@X@X@X@X@X@X@X@X@X@X@X@X@X@X@X@X@X@X@X@X@X@X@Xr.) ) >.Z.Z.s 5 % +   7 /.g.^ E { L.Y @X@X@X@X@X@X@X@X@X@X@X@X@X@X@X@X@X@X@X@X@X@X",
"@X@X@X@X@X@X@X@X@X@X@X@X@X@X@X@X@X@X@X@X@X@X@Xg.` ) a.^.k.h N A m 2 + .Xk.b.^ x.6.;.@X@X@X@X@X@X@X@X@X@X@X@X@X@X@X@X@X@X@X@X@X@X",
"@X@X@X@X@X@X@X@X@X@X@X@X@X@X@X@X@X@X@X@X@X@X@Xr.^ W @X/.C.l `.5.3.z 3 }.@XB.F.a.# 4.@X@X@X@X@X@X@X@X@X@X@X@X@X@X@X@X@X@X@X@X@X@X",
"@X@X@X@X@X@X@X@X@X@X@X@X@X@X@X@X@X@X@X@X@X@X@Xy.{ y.g.M.W I j 9 4 w v ).s.d.@X@X% 5.@X@X@X@X@X@X@X@X@X@X@X@X@X@X@X@X@X@X@X@X@X@X",
"@X@X@X@X@X@X@X@X@X@X@X@X@X@X@X@X@X@X@X@X@X@X@X..$.u.h.R E I w r 9 5 V v V h.@X@X% 5.@X@X@X@X@X@X@X@X@X@X@X@X@X@X@X@X@X@X@X@X@X@X",
"@X@X@X@X@X@X@X@X@X@X@X@X@X@X@X@X@X@X@X@X@X@X@XZ.V.B.o.t.O.i > `.G.@ : s f v B.F.& 5.@X@X@X@X@X@X@X@X@X@X@X@X@X@X@X@X@X@X@X@X@X@X",
"@X@X@X@X@X@X@X@X@X@X@X@X@X@X@X@X@X@X@X@X@X@X@X@XF.f.v.v.t.k $ Z x + o U U B 6.k.q.5.@X@X@X@X@X@X@X@X@X@X@X@X@X@X@X@X@X@X@X@X@X@X",
"@X@X@X@X@X@X@X@X@X@X@X@X@X@X@X@X@X@X@X@X@X@Xr.Z.F.^.C.C.u.+Xz 4.1.u o W >.6.7.8.}.^.@X@X@X@X@X@X@X@X@X@X@X@X@X@X@X@X@X@X@X@X@X@X",
"@X@X@X@X@X@X@X@X@X@X@X@X@X@X@X@X@X@X@X@X@X@XV.}.{.}.{.C.[ z 2 B N y y Y A.A.M.L. XoX@X@X@X@X@X@X@X@X@X@X@X@X@X@X@X@X@X@X@X@X@X@X",
"@X@X@X@X@X@X@X@X@X@X@X@X@X@X@X@X@X@X@X@X@X@XoX}.XXXX[.= p . & x g o u > 1. X XD.oXoX@X@X@X@X@X@X@X@X@X@X@X@X@X@X@X@X@X@X@X@X@X@X",
"@X@X@X@X@X@X@X@X@X@X@X@X@X@X@X@X@X@X@X@X@X@X}.{.OXXXo E Q N x S S 7 d o 9 8. XoXL.oX@X@X@X@X@X@X@X@X@X@X@X@X@X@X@X@X@X@X@X@X@X@X",
"@X@X@X@X@X@X@X@X@X@X@X@X@X@X@X@X@X@X@X@X@Xj. X XoX{.x / Q N x D S x L o j 4.|. X{.[.F.@X@X@X@X@X@X@X@X@X@X@X@X@X@X@X@X@X@X@X@X@X",
"@X@X@X@X@X@X@X@X@X@X@X@X@X@X@X@X@X@X@X@X@XF.oX{.'.Y +Xi : r b `.H.m Y O o e  X{.{.[.{.a.@X@X@X@X@X@X@X@X@X@X@X@X@X@X@X@X@X@X@X@X",
"@X@X@X@X@X@X@X@X@X@X@X@X@X@X@X@X@X@X@X@X@XF.oX X'.<.P o + w 9 9 q w r ; o g M. X{.{.F.@X@X@X@X@X@X@X@X@X@X@X@X@X@X@X@X@X@X@X@X@X",
"@X@X@X@X@X@X@X@X@X@X@X@X@X@X@X@X@X@X@X@X@X@XoXXXs L L 2 5 A G 9 9 M M y + , ^.oX X X@X@X@X@X@X@X@X@X@X@X@X@X@X@X@X@X@X@X@X@X@X@X",
"@X@X@X@X@X@X@X@X@X@X@X@X@X@X@X@X@X@X@X@X@X@XF.}.3.S s $ + r n # & M q d O 6 {.oX^. X@X@X@X@X@X@X@X@X@X@X@X@X@X@X@X@X@X@X@X@X@X@X",
"@X@X@X@X@X@X@X@X@X@X@X@X@X@X@X@X@X@X@X@X@X@XV.(.6.J.2 & + g 2 o O , 7 a a g oXoX^. X@X@X@X@X@X@X@X@X@X@X@X@X@X@X@X@X@X@X@X@X@X@X",
"@X@X@X@X@X@X@X@X@X@X@X@X@X@X@X@X@X@X@X@X@X@XV..X6.[.< O o o o + o o o : u 1 }./.}.F.@X@X@X@X@X@X@X@X@X@X@X@X@X@X@X@X@X@X@X@X@X@X",
"@X@X@X@X@X@X@X@X@X@X@X@X@X@X@X@X@X@X@X@X@X@Xk.XXXX.Xo 3 e 4.1.S D 4.3.> @ + D.E.F.a.@X@X@X@X@X@X@X@X@X@X@X@X@X@X@X@X@X@X@X@X@X@X",
"@X@X@X@X@X@X@X@X@X@X@X@X@X@X@X@X@X@X@X@X@X@XI.!..X.X@ x `.2 @ 2 9 @ 3 2 e + U.U.W.i.@X@X@X@X@X@X@X@X@X@X@X@X@X@X@X@X@X@X@X@X@X@X",
"@X@X@X@X@X@X@X@X@X@X@X@X@X@X@X@X@X@X@X@X@X@XY.R.).(.@Xg J.< + @X@X@ 5 + 0 + h.U.T.Q.I.i.@X@X@X@X@X@X@X@X@X@X@X@X@X@X@X@X@X@X@X@X",
"@X@X@X@X@X@X@X@X@X@X@X@X@X@X@X@X@X@X@X@X@XT.R.R.^.B.@X5 3.> o @X@Xx m e @ @X@Xa.r.R.Q.Y.@X@X@X@X@X@X@X@X@X@X@X@X@X@X@X@X@X@X@X@X",
"@X@X@X@X@X@X@X@X@X@X@X@X@X@X@X@X@X@X@X@X@X@X@X@X@X@X@X3 D 2 @ @X@XF 5.j + @X@X@X@X@X@X@X@X@X@X@X@X@X@X@X@X@X@X@X@X@X@X@X@X@X@X@X",
"@X@X@X@X@X@X@X@X@X@X@X@X@X@X@X@X@X@X@X@X@X@X@X@X@X@X@Xk h @ @X@X@X@ m A + @X@X@X@X@X@X@X@X@X@X@X@X@X@X@X@X@X@X@X@X@X@X@X@X@X@X@X",
"@X@X@X@X@X@X@X@X@X@X@X@X@X@X@X@X@X@X@X@X@X@X@X@X@X@X@XS Z 2 @X@X@X3 Z z + @X@X@X@X@X@X@X@X@X@X@X@X@X@X@X@X@X@X@X@X@X@X@X@X@X@X@X",
"@X@X@X@X@X@X@X@X@X@X@X@X@X@X@X@X@X@X@X@X@X@X@X@X@X@X@X4.3.g @ @X@X@Xc w @X@X@X@X@X@X@X@X@X@X@X@X@X@X@X@X@X@X@X@X@X@X@X@X@X@X@X@X",
"@X@X@X@X@X@X@X@X@X@X@X@X@X@X@X@X@X@X@X@X@X@X@X@X@X@X@XH.J.j 3 @X@X< 5.2 @X@X@X@X@X@X@X@X@X@X@X@X@X@X@X@X@X@X@X@X@X@X@X@X@X@X@X@X",
"@X@X@X@X@X@X@X@X@X@X@X@X@X@X@X@X@X@X@X@X@X@X@X@X@X@X@XM J 3 + @X@X< e 2 + @X@X@X@X@X@X@X@X@X@X@X@X@X@X@X@X@X@X@X@X@X@X@X@X@X@X@X",
"@X@X@X@X@X@X@X@X@X@X@X@X@X@X@X@X@X@X@X@X@X@X@X@X@X@X@XH t @ @X@X@XX X m . @X@X@X@X@X@X@X@X@X@X@X@X@X@X@X@X@X@X@X@X@X@X@X@X@X@X@X",
"@X@X@X@X@X@X@X@X@X@X@X@X@X@X@X@X@X@X@X@X@X@X@X@X@X@X@Xt H < @X@X@X= = . . @X@X@X@X@X@X@X@X@X@X@X@X@X@X@X@X@X@X@X@X@X@X@X@X@X@X@X",
"@X@X@X@X@X@X@X@X@X@X@X@X@X@X@X@X@X@X@X@X@X@X@X@X@X@X@XX 2 3 @X@X@XX = - . @X@X@X@X@X@X@X@X@X@X@X@X@X@X@X@X@X@X@X@X@X@X@X@X@X@X@X",
"@X@X@X@X@X@X@X@X@X@X@X@X@X@X@X@X@X@X@X@X@X@X@X@X@X@X@X@Xw & @X@X@X@X. = . @X@X@X@X@X@X@X@X@X@X@X@X@X@X@X@X@X@X@X@X@X@X@X@X@X@X@X",
"@X@X@X@X@X@X@X@X@X@X@X@X@X@X@X@X@X@X@X@X@X@X@X@X@X@X@X@XX X * @X@X@X@X@X@X@X@X@X@X@X@X@X@X@X@X@X@X@X@X@X@X@X@X@X@X@X@X@X@X@X@X@X",
"@X@X@X@X@X@X@X@X@X@X@X@X@X@X@X@X@X@X@X@X@X@X@X@X@X@X@X@X* t . @X@X@X@X@X@X@X@X@X@X@X@X@X@X@X@X@X@X@X@X@X@X@X@X@X@X@X@X@X@X@X@X@X",
"@X@X@X@X@X@X@X@X@X@X@X@X@X@X@X@X@X@X@X@X@X@X@X@X@X@X@X@X@X@X@X@X@X@X@X@X@X@X@X@X@X@X@X@X@X@X@X@X@X@X@X@X@X@X@X@X@X@X@X@X@X@X@X@X",
"@X@X@X@X@X@X@X@X@X@X@X@X@X@X@X@X@X@X@X@X@X@X@X@X@X@X@X@X@X@X@X@X@X@X@X@X@X@X@X@X@X@X@X@X@X@X@X@X@X@X@X@X@X@X@X@X@X@X@X@X@X@X@X@X",
"@X@X@X@X@X@X@X@X@X@X@X@X@X@X@X@X@X@X@X@X@X@X@X@X@X@X@X@X@X@X@X@X@X@X@X@X@X@X@X@X@X@X@X@X@X@X@X@X@X@X@X@X@X@X@X@X@X@X@X@X@X@X@X@X"
};
