/* XPM */
static char *result[] = {
/* columns rows colors chars-per-pixel */
"64 64 220 2 ",
"   c #080800",
".  c #070008",
"X  c gray3",
"o  c #100000",
"O  c #180000",
"+  c #100800",
"@  c #180800",
"#  c #140808",
"$  c #181000",
"%  c #101008",
"&  c #181008",
"*  c #0D0810",
"=  c #111010",
"-  c #171619",
";  c #210800",
":  c #210808",
">  c #211000",
",  c #291000",
"<  c #211008",
"1  c #291008",
"2  c #211808",
"3  c #291808",
"4  c #351006",
"5  c #311800",
"6  c #311808",
"7  c #3B1808",
"8  c #221010",
"9  c #281810",
"0  c #311810",
"q  c #3B1810",
"w  c #321F18",
"e  c #312110",
"r  c #392110",
"t  c #392918",
"y  c #252324",
"u  c #382D2A",
"i  c #520B00",
"p  c #520E08",
"a  c #4D1F0D",
"s  c #6B0000",
"d  c #6A0E09",
"f  c #7F0000",
"g  c #671C09",
"h  c #422110",
"j  c #422A10",
"k  c #4A2118",
"l  c #422918",
"z  c #4A2918",
"x  c #5A2719",
"c  c #4A311B",
"v  c #5C3C14",
"b  c #523118",
"n  c #5E3118",
"m  c #642C0C",
"M  c #4A2921",
"N  c #523122",
"B  c #5F3121",
"V  c #583921",
"C  c #5C3E29",
"Z  c #633921",
"A  c #713921",
"S  c #7A4211",
"D  c #604421",
"F  c #6F4421",
"G  c #6B4429",
"H  c #764129",
"J  c #7A4A29",
"K  c #694831",
"L  c #514C51",
"P  c #7D5E4D",
"I  c #8C0E08",
"U  c #AD0000",
"Y  c #B40E00",
"T  c #B60D08",
"R  c #8E2100",
"E  c #8C2308",
"W  c #8C2310",
"Q  c #8B2B1A",
"!  c #B52308",
"~  c #B62310",
"^  c #B72C1A",
"/  c #C20000",
"(  c #CE0000",
")  c #DA0000",
"_  c #DA0C00",
"`  c #DD0D09",
"'  c #D61C0D",
"]  c #EB0000",
"[  c #F70000",
"{  c red",
"}  c #F40D09",
"|  c #FF0808",
" . c #FF100C",
".. c #FD180E",
"X. c #FF1D18",
"o. c #DA2A00",
"O. c #D62D0C",
"+. c #CE3D06",
"@. c #DC2A1B",
"#. c #EB220C",
"$. c #FD210F",
"%. c #FD2D0D",
"&. c #EB3D03",
"*. c #FF3E03",
"=. c #F4291C",
"-. c #FF2D18",
";. c #E33E18",
":. c #FF3D15",
">. c #F33E19",
",. c #FF2521",
"<. c #FF2E2C",
"1. c #FF3121",
"2. c #FF3D21",
"3. c #FF3E29",
"4. c #FF3D31",
"5. c #FF3E39",
"6. c #B94407",
"7. c #A2451D",
"8. c #B9481D",
"9. c #A86910",
"0. c #814921",
"q. c #8F4E2D",
"w. c #815929",
"e. c #805131",
"r. c #935D30",
"t. c #945F39",
"y. c #AE4C2C",
"u. c #B5602E",
"i. c #B16539",
"p. c #DE5A08",
"a. c #CE421C",
"s. c #CE561D",
"d. c #E84E03",
"f. c #E75A08",
"g. c #FB5A04",
"h. c #FD4A13",
"j. c #E75710",
"k. c #E8521D",
"l. c #FE5614",
"z. c #E76406",
"x. c #F36305",
"c. c #F66E05",
"v. c #E76310",
"b. c #EF6B10",
"n. c #E76319",
"m. c #EF6318",
"M. c #E76C1D",
"N. c #EF6B18",
"B. c #FD671D",
"V. c #EF731F",
"C. c #F97210",
"Z. c #F9731D",
"A. c #DA502B",
"S. c #F44F2B",
"D. c #FF4A2C",
"F. c #FD5021",
"G. c #FF5529",
"H. c #EC503E",
"J. c #FF5731",
"K. c #FF5239",
"L. c #DB6B2D",
"P. c #C57D3C",
"I. c #EF6A21",
"U. c #EF6F2B",
"Y. c #FC732D",
"T. c #F77C29",
"R. c #E36E39",
"E. c #FE6731",
"W. c #FF6B39",
"Q. c #EC7E37",
"!. c #F77F36",
"~. c #99664A",
"^. c #9C6F59",
"/. c #A96A42",
"(. c #FF4D42",
"). c #FF534F",
"_. c #E36F45",
"`. c #FF6C45",
"'. c #FF6B58",
"]. c #DD8306",
"[. c #F7800D",
"{. c #FF8308",
"}. c #EC9A05",
"|. c #FF9D00",
" X c #FF8418",
".X c #FF9C14",
"XX c #EFB206",
"oX c #FFB400",
"OX c #FFB412",
"+X c #FF8521",
"@X c #FF962E",
"#X c #E58C3A",
"$X c #FF8039",
"%X c #FF8C39",
"&X c #FF9739",
"*X c #FEAC38",
"=X c #FECA0A",
"-X c #FFDD11",
";X c yellow",
":X c #FFD435",
">X c #BA804E",
",X c #B98A68",
"<X c #DB944F",
"1X c #CC9E50",
"2X c #E8874D",
"3X c #FF8142",
"4X c #FF8C42",
"5X c #FF804D",
"6X c #FF8C4C",
"7X c #FF9742",
"8X c #FF9F4F",
"9X c #F48C5E",
"0X c #FF9452",
"qX c #EEA062",
"wX c #F2BE64",
"eX c #FEC44E",
"rX c #B99D84",
"tX c #E1B68E",
"yX c #EAD2A3",
"uX c None",
/* pixels */
"uXuXuXuXuXuXuXuXuXuXuXuXuXuXuXuXuXuXuXuXuXuXuXuXuXuXuXuXuXuXuXuXuXuXuXuXuXuXuXuXuXuXuXuXuXuXuXuXuXuXuXuXuXuXuXuXuXuXuXuXuXuXuXuX",
"uXuXuXuXuXuXuXuXuXuXuXuXuXuXuXuXuXuXuXuXuXuXuXuXuXuXuXuXuXuXuXuXuXuXuXuXuXuXuXuXuXuXuXuXuXuXuXuXuXuXuXuXuXuXuXuXuXuXuXuXuXuXuXuX",
"uXuXuXuXuXuXuXuXuXuXuXuXuXuXuXuXuXuXuXuXuXuXuXuXuXuXuXuXuXuXuXuXuXuXuXuXuXuXuXuXuXuXuXuXuXuXuXuXuXuXuXuXuXuXuXuXuXuXuXuXuXuXuXuX",
"uXuXuXuXuXuXuXuXuXuXuXuXuXuXuXuXuXuXuXuXuXuXuXuXuXuXuXuX;Xw.uXuXuXuXuXuXuXuXuXuXuXuXuXuXuXuXuXuXuXuXuXuXuXuXuXuXuXuXuXuXuXuXuXuX",
"uXuXuXuXuXuXuXuXuXuXuXuXuXuXuXuXuXuXuXuXuXuXuXuXuXuXuXuX1XD uXuXuXuXuXuXuXuXuXuXuXuXuXuXuXuXuXuXuXuXuXuXuXuXuXuXuXuXuXuXuXuXuXuX",
"uXuXuXuXuXuXuXuXuXuXuXuXuXuXuXuXuXuXuXuXuXuXuXuXuXuXuXuXr.% uXuXuXuXuXuXuXuXuXuXuXuXuXuXuXuXuXuXuXuXuXuXuXuXuXuXuXuXuXuXuXuXuXuX",
"uXuXuXuXuXuXuXuXuXuXuXuXuXuXuXuXuXuXuXuXuXuXuXuXuXuXuXuXt.% uXuXuXuXuXuXuXuXuXuXuXuXuXuXuXuXuXuXuXuXuXuXuXuXuXuXuXuXuXuXuXuXuXuX",
"uXuXuXuXuXuXuXuXuXuXuXuXuXuXuXuXuXuXuXuXuXuXuXuXuXuXuXuXt.% uXuXuXuXuXuXuXuXuXuXuXuXuXuXuXuXuXuXuXuXuXuXuXuXuXuXuXuXuXuXuXuXuXuX",
"uXuXuXuXuXuXuXuXuXuXuXuXuXuXuXuXuXuXuXuXuXuXuXuXuXuXuXuXt.% uXuXuXuXuXuXuXuXuXuXuXuXuXuXuXuXuXuXuXuXuXuXuXuXuXuXuXuXuXuXuXuXuXuX",
"uXuXuXuXuXuXuXuXuXuXuXuXuXuXuXuXuXuXuXuXuXuXuXuXuXuXuXuXt.% uXuXuXuXuXuXuXuXuXuXuXuXuXuXuXuXuXuXuXuXuXuXuXuXuXuXuXuXuXuXuXuXuXuX",
"uXuXuXuXuXuXuXuXuXuXuXuXuXuXuXuXuXuXuXuXuXuXuXuXuXuXuXuXt.% uXuXuXuXuXM.uXuXuXuXuXuXuXuXuXuXuXuXuXuXuXuXuXuXuXuXuXuXuXuXuXuXuXuX",
"uXuXuXuXuXuXuXuXuXuXuXuXuXuXuXuXuXuXuXuXuXuXuXuXuXuXuXuXt.% uXuXuXuXuXI.uXuXz.uXuXuXuXuXuXuXuXuXuXuXuXuXuXuXuXuXuXuXuXuXuXuXuXuX",
"uXuXuXuXuXuXuXuXuXuXuXuXuXuXuXuXuXuXuXuXuXuXuXuXuXuXuXuXt.% uXuXuXuXuXM.v.v.uXuXuXuXuXuXuXuXuXuXuXuXuXuXuXuXuXuXuXuXuXuXuXuXuXuX",
"uXuXuXuXuXuXuXuXuXuXuXuXuXuXuXuXuXuXuXuXuXuXuXuXuXuXuXuXt.% uXuX+X+Xf.f.j.uXuXuXuXuXuXuXuXuXuXuXuXuXuXuXuXuXuXuXuXuXuXuXuXuXuXuX",
"uXuXuXuXuXuXuXuXuXuXuXuXuXuXuXuXuXuXuXuXuXuXuXuXuXuXuXuXt.% I ! T.@XuXuXuXuXuXuXuXuXuXuXuXuXuXuXuXuXuXuXuXuXuXuXuXuXuXuXuXuXuXuX",
"uXuXuXuXuXuXuXuXuXuXuXuXuXuXuXuXuXuXuXuXuXuXuXuXuXuXuXuXt.s ( / T.%Xv.uXuXuXuXuXuXuXuXuXuXuXuXuXuXuXuXuXuXuXuXuXuXuXuXuXuXuXuXuX",
"uXuXuXuXuXuXuXuXuXuXuXuXuXuXuXuXuXuXuXuXuXuXuXuXuXuXuXf.6.{ X.4.=.%Xb.uXuXuXuXuXuXuXuXuXuXuXuXuXuXuXuXuXuXuXuXuXuXuXuXuXuXuXuXuX",
"uXuXuXuXuXuXuXuXuXuXuXuXuXuXuXuXuXuXuXuXuXuXuXuXuXuXuXp.6...4.(.-.@XC.uXuXuXuXuXuXuXuXuXuXuXuXuXuXuXuXuXuXuXuXuXuXuXuXuXuXuXuXuX",
"uXuXuXuXuXuXuXuXuXuXuXuXuXuXuXuXuXuXv.v.I.U.n.uXuXuXuXuXO.4.J.3X+X@X@X XuXuXuXuXuXuXuXuXuXuXuXuXuXuXuXuXuXuXuXuXuXuXuXuXuXuXuXuX",
"uXuXuXuXuXuXuXuXuXuXuXuXuXuXuXuXuXuXuXuXuXv.v.uXuXuXuXv.s.3.E.$XT.@X&X@XuXuXuXuXuXuXuXuXuXuXuXuXuXuXuXuXuXuXuXuXuXuXuXuXuXuXuXuX",
"uXuXuXuXuXuXuXuXuXuXuXuXuXuXuXuXuXuXuXuXuXuXuXuXuXuXuXuXv.2XJ.A.8.;.V.&Xf.uXuXuXuXuXuXuXuXuXuXuXuXuXuXuXuXuXuXuXuXuXuXuXuXuXuXuX",
"uXuXuXuXuXuXuXuXuXuXuXuXuXuXuXuXuXuXj.uXuXuXuXuXuXuXuXuXV.>X0.q.A.;.;.M.T.uXuXuXuXuXuXuXuXuXuXuXuXuXuXuXuXuXuXuXuXuXuXuXuXuXuXuX",
"uXuXuXuXuXuXuXuXuXuXuXuXuXuXuXuXuXuXv.j.uXuXuXuXuXuXuXN.Z.i.0.s.E.D.k.;.%Xf.uXuXuXuXuXuXuXuXuXuXuXuXuXuXuXuXuXuXuXuXuXuXuXuXuXuX",
"uXuXuXuXuXuXuXuXuXuXuXuXuXuXuX9.p.x.p.j.uXuXuXuXuXuXuXN.T.0.S.E.W.`.=.>.&XV.uXuXuXuXuXuXuXuXuXuXuXuXuXuXuXuXuXuXuXuXuXuXuXuXuXuX",
"uXuXuXuXuXuXuXuXuXuXuX< ].].[.{.{.[.C.g.uXuXuXuXuXuXuXN.T.Q E.W.G.`.2.>.8XT.uXuXuXuXuXuXuXuXuXuXuXuXuXuXuXuXuXuXuXuXuXuXuXuXuXuX",
"uXuXuXuXuXuXuXuXuXuXuX].9.9.0.S 9.].eXwX7X+.uXuXuXuXuX4XP.a.1.1.`.;...3.`.%XuXuXuXuXuXuXuXuXuXuXuXuXuXuXuXuXuXuXuXuXuXuXuXuXuXuX",
"uXuXuXuXuXuXuXuXuXuXuX9.e $ j 5 , 6 S #XB.E uXuXuXuXuXL.A.5X` ,.).@.` =.G.8Xf.uXuXuXuXuXuXuXuXuXuXuXuXuXuXuXuXuXuXuXuXuXuXuXuXuX",
"uXuXuXuXuXuXuXuXuXXX=X2 e.B 0.b 6 o 1 < m 4Xm.R ! uXuXm.Q.qX~ $.).A.).<.,.J.uXuXuXuXuXuXuXuXuXuXuXuXuXuXuXuXuXuXuXuXuXuXuXuXuXuX",
"uXuXuXuXuXuXuXuXuX=X-X@ K e.r.A V 0 @ k F 7.U.a.! uXuXuXf.qXQ @.A.T 4. .X.3XN.uXuXuXuXuXuXuXuXuXuXuXuXuXuXuXuXuXuXuXuXuXuXuXuXuX",
"uXuXuXuXuXuXuXuXuXuX. r t.l ; A 6 N h Z q.r w S.6Xk.I uXr.,XQ y.<.5.2.J.8X0XuXuXuXuXuXuXuXuXuXuXuXuXuXuXuXuXuXuXuXuXuXuXuXuXuXuX",
"uXuXuXuXuXuXuXuXuXuX< z r.z h A Z < N G z , q.n S 3XF.i o 9X' (.(.W.D.W.4X4XuXuXuXuXuXuXuXuXuXuXuXuXuXuXuXuXuXuXuXuXuXuXuXuXuXuX",
"uXuXuXuXuXuXuXuXuXuXe b i.z k B Z 1 0 e.6 x P.i.n E.~ f 6._.,.4.H.S.W.8X0X$XuXuXuXuXuXuXuXuXj.n.U.I.M.j.uXuXuXuXuXuXuXuXuXuXuXuX",
"uXuXuXuXuXuXuXuXuXuX9 r b h O O : O o o e.6 r./.r., ^ W u.;.<.2.2.G.6X8XU.uXuXuXuXuXuXuXuXuXuXuXuXuXuXuXuXuXuXuXuXuXuXuXuXuXuXuX",
"uXuXuXuXuXuXuXuXuXG c 7 < 6 ; uXo o o ; B b J F V < 6 0 6XP.F.F.F.=.qX8XuXuXuXuXuXuXuXuXuXuXuXuXuXuXuXuXuXuXuXuXuXuXuXuXuXuXuXuX",
"uXuXuXuXuXuXuXuXuXr c K g h uXuXo o @ p i./., 0.0.; . P.P.h.l.E.#.o.2X6.. . . uXuXuXuXuXuXuXf.uXuXuXuXuXuXuXuXuXuXuXuXuXuXuXuXuX",
"uXuXuXuXuXuXuXuXuX8 V rX@.( uXuXuXo O 1 J b z r.m 3 B i.s.F.B.E.o.7.. . . . . . o uXuXuXuXuXn.j.uXuXuXuXuXuXuXuXuXuXuXuXuXuXuXuX",
"uXuXuXuXuXuXuXuXuXuX@ ; [ ] ( s uXo @ : ~.& r V b r.9XE.B.8XB.+.w X X X y u o o o 2 < 9 @ uXj.uXuXuXuXuXuXuXuXuXuXuXuXuXuXuXuXuX",
"uXuXuXuXuXuXuXuXuXuXuXuX{ ] ( [ ( U & t & 6 r z J 5X`.0X8X$Xi.P L L L L P L F > 1 7 6 l < E ' ' T Y uXuXuXuXuXuXuXuXuXuXuXuXuXuX",
"uXuXuXuXuXuXuXuXuXuXuX[ { ) ( ] ) / 4 e @ 6 b E ] 5XR.qXwXT.rX^.L rX^.L rXP e.; k 7 r < ; d '.'.(.2.! uXuXuXuXuXuXuXuXuXuXuXuXuX",
"uXuXuXuXuXuXuXuXuXuXuXuX[ uXT ,X] ( { { { { { y.tX`.$XqX3X2Xu L L L L L H.X.T a 0.r.o 7 k 7 ^ K.5X9X%.! uXuXuXuXuXuXuXuXuXuXuXuX",
"uXuXuXuXuXuXuXuXuXuXuXuX[ uX{ ' ) ( { ^ { { { ' i.`.3XwX0X<XC N M C u C C d { [ @.7.7 H e.I Y %.9X`.:.! uXuXuXuXuXuXuXuXuXuXuXuX",
"uXuXuXuXuXuXuXuXuXuXuXuXuXuX{ { / U { ` { { { 7 ^ A.9X8XwXL.G e /.<Xr 9 l p tX{ { } 8.{ { | ^.A.E.F.l.&.uXuXuXuXuXuXuXuXuXuXuXuX",
"uXuXuXuXuXuXuXuXuXuXuXuXuXuX{ { uXuX{ / g { { & ( 8.9X8XwXn.l z wXqXc 1 l k ~ { { ^ yX{ { { ~.8.G.Y.$X*.uXuXuXuXuXuXuXuXuXuXuXuX",
"uXuXuXuXuXuXuXuXuXuXuXuXuXuXuXuXuX{ { f + { { 0.T K e.7X8X$Xr N b V ,X>Xr l { { { { { { { { ( T 0X$XT.g.uXuXuXuXuXuXuXuXuXuXuXuX",
"uXuXuXuXuXuXuXuXuXuXuXuXuXuXuXuXuX{ { Q + ] Y e.n h F 7X8X3Xl u 3 e.N l 1 < { 4 I { { { { { _ Y 8XZ.Z.l.uXuXuXuXuXuXuXuXuXuXuXuX",
"uXuXuXuXuXuXuXuXuXuXuXuXuXuXuXuXuXuXuXuX< 6 k e.Z 1 0 7X8X9Xe e t.e.n h e < { Q h ` { I > { ! O.%X%X Xd.uXuXuXuXuXuXuXuXuXuXuXuX",
"uXuXuXuXuXuXuXuXuXuXuXuXuXuXuXuXuXuXuX+ @ < q J A }.}.%XeX0Xu N 9 3 9 uXuXuX4 p 1 T { T 1 { #.U.@X*Xc.d.uXuXuXuXuXuXuXuXuXuXuXuX",
"uXuXuXuXuXuXuXuXuXuXuXuXuXuXuXuXuXuXuX@ r 3 7 k h uXuX!.*X8XuXuXuXuXuXuXuXuXuX< < p ( ` r ( %.8X@XeXc.z.uXuXuXuXuXuXuXuXuXuXuXuX",
"uXuXuXuXuXuXuXuXuXuXuXuXuXuXuXuXuXuXe V N 6 q b j uX].:XeX.XuXuXuXuXuXuXuXuXuXuXuXr r e.>Xz w.P.:X*X{.z.uXuXuXuXuXuXuXuXuXuXuXuX",
"uXuXuXuXuXuXuXuXuXuXuXuXuXuXuXuXuXuXG ~.3 uXr b r }.|.OX=X XuXuXuXuXuXuXuXuXuXuXuX0 G r c Z /.e.*XOX|.[.uXuXuXuXuXuXuXuXuXuXuXuX",
"uXuXuXuXuXuXuXuXuXuXuXuXuXuXuXuXuX& C l uXuX& V 0 |.].uXuXuXuXuXuXuXuXuXuXuXuXuXuX& N r < e ~.J J XXoX}.uXuXuXuXuXuXuXuXuXuXuXuX",
"uXuXuXuXuXuXuXuXuXuXuXuXuXuXuXuXuX@ 6 + uXuX< e.l uXuXuXuXuXuXuXuXuXuXuXuXuXuXuXuX@ 9 3 + uXh n F S OXoXuXuXuXuXuXuXuXuXuXuXuXuX",
"uXuXuXuXuXuXuXuXuXuXuXuXuXuXuXuX< k uXuXuXuX& e.l uXuXuXuXuXuXuXuXuXuXuXuXuXuXuXuX> z @ uXuXuXuXF F ].oXuXuXuXuXuXuXuXuXuXuXuXuX",
"uXuXuXuXuXuXuXuXuXuXuXuXuXuXuX+ A x uXuXuXuXuXG 7 uXuXuXuXuXuXuXuXuXuXuXuXuXuXuXr G 6 uXuXuXuXuXXX}.w.v uXuXuXuXuXuXuXuXuXuXuXuX",
"uXuXuXuXuXuXuXuXuXuXuXuXuXuX. X N , uXuXuXuXuX/.z uXuXuXuXuXuXuXuXuXuXuXuXuXuXr r n 3 uXuXuXuXuXuX=X~.K uXuXuXuXuXuXuXuXuXuXuXuX",
"uXuXuXuXuXuXuXuXuXuXuXuX.   L - uXuXuXuXuXuXuXG r uXuXuXuXuXuXuXuXuXuXuXuXuX< ~.~.> uXuXuXuXuXuXuXuX= w uXuXuXuXuXuXuXuXuXuXuXuX",
"uXuXuXuXuXuXuXuXuXuXuXuX. X u X uXuXuXuXuXuXuX/.b uXuXuXuXuXuXuXuXuXuXuXuXuXy e.y uXuXuXuXuXuXuXuXuX= L . uXuXuXuXuXuXuXuXuXuXuX",
"uXuXuXuXuXuXuXuXuXuXuXuXuXuXuXuXuXuXuXuXuXuXX >Xz uXuXuXuXuXuXuXuXuXuXuXuXuXX y X uXuXuXuXuXuXuXuXuXX y X uXuXuXuXuXuXuXuXuXuXuX",
"uXuXuXuXuXuXuXuXuXuXuXuXuXuXuXuXuXuXuXuXuX. = 9 # uXuXuXuXuXuXuXuXuXuXuXuXuX- = uXuXuXuXuXuXuXuXuXuX* = X uXuXuXuXuXuXuXuXuXuXuX",
"uXuXuXuXuXuXuXuXuXuXuXuXuXuXuXuXuXuXuXuX. - u = uXuXuXuXuXuXuXuXuXuXuXuXuXuXuXuXuXuXuXuXuXuXuXuXuXuXuXuXuXuXuXuXuXuXuXuXuXuXuXuX",
"uXuXuXuXuXuXuXuXuXuXuXuXuXuXuXuXuXuXuXuXuX= - uXuXuXuXuXuXuXuXuXuXuXuXuXuXuXuXuXuXuXuXuXuXuXuXuXuXuXuXuXuXuXuXuXuXuXuXuXuXuXuXuX",
"uXuXuXuXuXuXuXuXuXuXuXuXuXuXuXuXuXuXuXuXuXuXuXuXuXuXuXuXuXuXuXuXuXuXuXuXuXuXuXuXuXuXuXuXuXuXuXuXuXuXuXuXuXuXuXuXuXuXuXuXuXuXuXuX",
"uXuXuXuXuXuXuXuXuXuXuXuXuXuXuXuXuXuXuXuXuXuXuXuXuXuXuXuXuXuXuXuXuXuXuXuXuXuXuXuXuXuXuXuXuXuXuXuXuXuXuXuXuXuXuXuXuXuXuXuXuXuXuXuX",
"uXuXuXuXuXuXuXuXuXuXuXuXuXuXuXuXuXuXuXuXuXuXuXuXuXuXuXuXuXuXuXuXuXuXuXuXuXuXuXuXuXuXuXuXuXuXuXuXuXuXuXuXuXuXuXuXuXuXuXuXuXuXuXuX"
};
