/* XPM */
static char *player_down_6[] = {
/* columns rows colors chars-per-pixel */
"64 64 190 2 ",
"   c black",
".  c #080800",
"X  c #070008",
"o  c gray3",
"O  c None",
"+  c #180000",
"@  c #100800",
"#  c #180800",
"$  c #140808",
"%  c #181000",
"&  c #101008",
"*  c #181008",
"=  c #111010",
"-  c #171619",
";  c #210000",
":  c #290501",
">  c #210800",
",  c #350301",
"<  c #211000",
"1  c #291000",
"2  c #211008",
"3  c #291008",
"4  c #211808",
"5  c #291808",
"6  c #351006",
"7  c #311808",
"8  c #3B1808",
"9  c #281810",
"0  c #311810",
"q  c #3B1810",
"w  c #312110",
"e  c #392110",
"r  c #392910",
"t  c #392918",
"y  c #252324",
"u  c #382D2A",
"i  c #420400",
"p  c #520000",
"a  c #520B00",
"s  c #6B0000",
"d  c #6A0E09",
"f  c #7F0000",
"g  c #671C09",
"h  c #422110",
"j  c #422A10",
"k  c #422918",
"l  c #4A2918",
"z  c #4A311B",
"x  c #523118",
"c  c #5E3118",
"v  c #642C0C",
"b  c #523122",
"n  c #5F3121",
"m  c #583921",
"M  c #5C3E29",
"N  c #633921",
"B  c #713921",
"V  c #604421",
"C  c #6F4421",
"Z  c #6B4429",
"A  c #764129",
"S  c #7A4A29",
"D  c #694831",
"F  c #6B4C39",
"G  c #7D5E4D",
"H  c #8C0E08",
"J  c #940000",
"K  c #AD0000",
"L  c #B60D08",
"P  c #8E2100",
"I  c #8C2308",
"U  c #8C2310",
"Y  c #8B2B1A",
"T  c #B52308",
"R  c #B72C1A",
"E  c #CE0000",
"W  c #DA0000",
"Q  c #DD0D09",
"!  c #D61C0D",
"~  c #EB0000",
"^  c #F70000",
"/  c red",
"(  c #F40D09",
")  c #FF0808",
"_  c #FF100C",
"`  c #FD180E",
"'  c #FF1D18",
"]  c #DC2A1B",
"[  c #EB220C",
"{  c #FD210F",
"}  c #F4291C",
"|  c #FF2D18",
" . c #E33E18",
".. c #F33E19",
"X. c #FF2521",
"o. c #FF2E2C",
"O. c #FF3121",
"+. c #FF3D21",
"@. c #FF3E29",
"#. c #FF3D31",
"$. c #FF3E39",
"%. c #A34408",
"&. c #A2451D",
"*. c #B9481D",
"=. c #A86910",
"-. c #814921",
";. c #8F4E2D",
":. c #815929",
">. c #805131",
",. c #935D30",
"<. c #945F39",
"1. c #AE4C2C",
"2. c #B5602E",
"3. c #B16539",
"4. c #D05007",
"5. c #DE5A08",
"6. c #CE421C",
"7. c #CE561D",
"8. c #E75A00",
"9. c #E75A08",
"0. c #E75710",
"q. c #E8521D",
"w. c #D66911",
"e. c #E76406",
"r. c #E76310",
"t. c #E76F10",
"y. c #EF6B10",
"u. c #E76319",
"i. c #EF6318",
"p. c #E76C1D",
"a. c #EF6B18",
"s. c #F26310",
"d. c #FD671D",
"f. c #EF731F",
"g. c #F97210",
"h. c #F9731D",
"j. c #DA502B",
"k. c #FF4A2C",
"l. c #FD5021",
"z. c #FF5529",
"x. c #EC503E",
"c. c #FF5731",
"v. c #DB6B2D",
"b. c #C57D3C",
"n. c #EF6A21",
"m. c #EF6F2B",
"M. c #FC732D",
"N. c #F77C29",
"B. c #E36E39",
"V. c #EC7E37",
"C. c #F77F36",
"Z. c #99664A",
"A. c #9C6F59",
"S. c #A96A42",
"D. c #FF4D42",
"F. c #FF534F",
"G. c #E36F45",
"H. c #FF6C45",
"J. c #FF6B58",
"K. c #DD8306",
"L. c #F7800D",
"P. c #EC9A05",
"I. c #FF9D00",
"U. c #FF8418",
"Y. c #FF9C14",
"T. c #EFB206",
"R. c #FFB400",
"E. c #FF8521",
"W. c #FF962E",
"Q. c #FF8039",
"!. c #FF8C39",
"~. c #FF9739",
"^. c #FEAC38",
"/. c #FECA0A",
"(. c yellow",
"). c #BA804E",
"_. c #DB944F",
"`. c #CC9E50",
"'. c #E8874D",
"]. c #FF8142",
"[. c #FF8C42",
"{. c #FF804D",
"}. c #FF8C4C",
"|. c #FF9742",
" X c #FF9F4F",
".X c #F48C5E",
"XX c #FF9452",
"oX c #F2BE64",
"OX c #B99D84",
"+X c #E1B68E",
/* pixels */
"                                                                                                                                ",
"                                                                                                                                ",
"                                                                                                                                ",
"                                                                                :.(.                                            ",
"                                                                                V `.                                            ",
"                                                                                & ,.                                            ",
"                                                                                & <.                                            ",
"                                                                                & <.                                            ",
"                                                                                & <.                                            ",
"                                                              9.r.              & <.                                            ",
"                                                                p.r.            & <.                                            ",
"                                                                  p.n.          & <.                                            ",
"                                                                  r.u.  8.      & <.                                            ",
"                                                                    t.y.        & <.                                            ",
"                                                          r.4.g I     y.E.U.    & <.                                            ",
"                                                    e.    5.! K K I     E.E.    & <.                                            ",
"                                                        8.s.^ X.) P 5.  g.E.L.  & <.                                            ",
"                                                      g.h.s.Q $.X.Y y.  U.E.g.  & <.                                            ",
"                                                  8.E.E.h.h.[ ' L %.y.E.~.W.y.  & <.                                            ",
"                                                    W.E.h.p. .o.Q &.U.W.N.W.8.  & <.                                            ",
"                                                  N.N.q.] #.@.F.$.d L T p.N.f.  & <.                                            ",
"                                                  N.q.O.| ~ ^ ' o.J K { +.&.~.  & <.                                            ",
"                                                  Q.l.k.+._ _ ( O.Q K } c...N.  & <.                                            ",
"                                                  !.Q.+.k.F.F.O.D.` / ! +.O.v.r.& <.                                            ",
"                                                y.m.].+.k.J.J.O.J.' ) R k.' w.0.& <.                                            ",
"                                                p.} #.].+.o.D.8.7.X.( 7.} #.&.a.& <.                                            ",
"                                                ..| ] f.q.} ;.P.w.U ] f.l.X.&.Q.& <.                                            ",
"                                                ( ` v.f.N.*.Z.R.T.b n  X].O.&.H x.1.                                            ",
"                                                ` { i.!.N.R :././.k Y |.N.{.B.6.H.&.                                            ",
"                                                ] *.  Q.C.j.b b.=.2 6. X  i.!.r.2.f.                                            ",
"                                              0. .5.9.!.7.8 2 2 4 O > ^.i.y.    $ ,.                                            ",
"                                            i.] o.q.f.*.R V <.Z.>.0 % K.p.N.    & <.                                            ",
"                                              N.0.n.7.l.l.v ).).S.x q g -.&.C.  & <.                                            ",
"                                              9.N.f.z.z.d.g ,.).<.k 8 &.1.;.N.N.* <.                                            ",
"                                                N.m.M.Q.Q.; 7 z t 2 O B.v.3.3.C.a.<.                                            ",
"                                              a.].].Q.].Q.; 3 Z.S @ O V.G.B.3.b.XX9.                                            ",
"                                            f.Q.].XX].8 9 A.r S.Z.; O O V.'.G.b.XXXX                                            ",
"                                            C.XXXXoX7 b 2 M 4 ,.S , : # k V.}.'. Xm.                                            ",
"                                            [.XX X XN l : j B c x > p O A b.{.G.XXC.                                            ",
"                                             XXXOXG .XE W D C C C N H O e _.Q.}.}.XX                                            ",
"                                            XX}.).Y 3./ E k m A.A.D H + O ,.}.}.}.XX                                            ",
"                                            ].XX+X<.&.# s $ . O X . d ; O e ].XX}.XX                                            ",
"                                            C.XXg H K # 2 b b - 2 t n : @ 3 }.XX].}.                                            ",
"                                            }.|.S.;.U 7 * # + # # O # f i a [.[.].C.                                            ",
"                                            XX|.*.Z.6 3 * q 3 # # 3 8 f s * }.Q.!.V.                                            ",
"                                             X XV.m.O > # * 2 0 9 2 2 # @ @ r.C.W.N.                                            ",
"                                            ~.^.C.r.# e S x l e w l x 1 2 #   r.Y.^.                                            ",
"                                            I.Y.m.    h >.< v w.w.v 1 > 5 @   r.Y./.w.K.                                        ",
"                                        I.I.U.C.      7 C 1 +     > 3 < #       C.].R.R.K.                                      ",
"                                        P.P.r.f.      < Z > O     3 7 # @       9.m.                                            ",
"                                                      7 l 2 2     2 V z @                                                       ",
"                                                      l e #       C >.b @                                                       ",
"                                                      >.Z.e @     t <.b                                                         ",
"                                                      u D 8 #     < C 7                                                         ",
"                                                      u F t 2       x 4                                                         ",
"                                                      o 9 #         ;.M                                                         ",
"                                                      o * >       @ N t                                                         ",
"                                                        e l       - o y X                                                       ",
"                                                        7 7       - o u X                                                       ",
"                                                        5 o X     o - o                                                         ",
"                                                        o o =     o X X                                                         ",
"                                                                                                                                ",
"                                                                                                                                ",
"                                                                                                                                "
};
