/* XPM */
static char *player_right_8[] = {
/* columns rows colors chars-per-pixel */
"64 64 214 2 ",
"   c black",
".  c #080800",
"X  c #070008",
"o  c gray3",
"O  c #100000",
"+  c #180000",
"@  c #100800",
"#  c #180800",
"$  c #140808",
"%  c #101008",
"&  c #181008",
"*  c #0D0810",
"=  c #111010",
"-  c #171619",
";  c #210000",
":  c #210800",
">  c #210808",
",  c #350301",
"<  c #211000",
"1  c #291000",
"2  c #211008",
"3  c #291008",
"4  c #211808",
"5  c #291808",
"6  c #351006",
"7  c #311808",
"8  c #3B1808",
"9  c #281810",
"0  c #311810",
"q  c #3B1810",
"w  c #321F18",
"e  c #3D2208",
"r  c #312110",
"t  c None",
"y  c #392910",
"u  c #392918",
"i  c #252324",
"p  c #382D2A",
"a  c #420400",
"s  c #520E08",
"d  c #6B0000",
"f  c #6B0B00",
"g  c #6A0E09",
"h  c #7F0000",
"j  c #671C09",
"k  c #4D2A0F",
"l  c #422110",
"z  c #422A10",
"x  c #4A2118",
"c  c #422918",
"v  c #4A2918",
"b  c #5A2719",
"n  c #4A311B",
"m  c #5C3C14",
"M  c #523118",
"N  c #5E3118",
"B  c #642C0C",
"V  c #523122",
"C  c #5F3121",
"Z  c #583921",
"A  c #5C3E29",
"S  c #633921",
"D  c #713921",
"F  c #7A4211",
"G  c #604421",
"H  c #6F4421",
"J  c #6B4429",
"K  c #764129",
"L  c #7A4A29",
"P  c #694831",
"I  c #6B4C39",
"U  c #514C51",
"Y  c #7D5E4D",
"T  c #8B0B00",
"R  c #8C0E08",
"E  c #940000",
"W  c #AD0000",
"Q  c #B40E00",
"!  c #B60D08",
"~  c #8C2310",
"^  c #8B2B1A",
"/  c #B62800",
"(  c #B52308",
")  c #B62310",
"_  c #B72C1A",
"`  c #C20000",
"'  c #CE0000",
"]  c #DA0000",
"[  c #DD0D09",
"{  c #D61C0D",
"}  c #EB0000",
"|  c #F70000",
" . c red",
".. c #F40D09",
"X. c #FF0808",
"o. c #FD180E",
"O. c #FF1D18",
"+. c #DA2A00",
"@. c #D62D0C",
"#. c #CE3D06",
"$. c #DC2A1B",
"%. c #EB220C",
"&. c #EB3D03",
"*. c #FF3E03",
"=. c #F4291C",
"-. c #FF2D18",
";. c #E33E18",
":. c #FF3D15",
">. c #F33E19",
",. c #FF2521",
"<. c #FF2E2C",
"1. c #FF3121",
"2. c #FF3D21",
"3. c #FF3E29",
"4. c #FF3E39",
"5. c #B94407",
"6. c #A2451D",
"7. c #B9481D",
"8. c #A86910",
"9. c #814921",
"0. c #8F4E2D",
"q. c #815929",
"w. c #805131",
"e. c #935D30",
"r. c #945F39",
"t. c #AE4C2C",
"y. c #B5602E",
"u. c #B16539",
"i. c #DE5A08",
"p. c #CE421C",
"a. c #CE561D",
"s. c #E84E03",
"d. c #E75A00",
"f. c #E75A08",
"g. c #FD4A13",
"h. c #E75710",
"j. c #E8521D",
"k. c #FE5614",
"l. c #E76406",
"z. c #F36305",
"x. c #F66E05",
"c. c #E76310",
"v. c #EF6B10",
"b. c #E76319",
"n. c #EF6318",
"m. c #E76C1D",
"M. c #EF6B18",
"N. c #FD671D",
"B. c #EF731F",
"V. c #F97210",
"C. c #F9731D",
"Z. c #DA502B",
"A. c #F44F2B",
"S. c #FF4A2C",
"D. c #FD5021",
"F. c #FF5529",
"G. c #EC503E",
"H. c #FF5731",
"J. c #FF5239",
"K. c #DB6B2D",
"L. c #C57D3C",
"P. c #EF6A21",
"I. c #EF6F2B",
"U. c #FC732D",
"Y. c #F77C29",
"T. c #E36E39",
"R. c #FE6731",
"E. c #FF6B39",
"W. c #EC7E37",
"Q. c #F77F36",
"!. c #99664A",
"~. c #A96A42",
"^. c #FF4D42",
"/. c #FF534F",
"(. c #E36F45",
"). c #FF6C45",
"_. c #DD8306",
"`. c #F7800D",
"'. c #FF8308",
"]. c #EC9A05",
"[. c #FF9D00",
"{. c #FF8418",
"}. c #FF9C14",
"|. c #EFB206",
" X c #FFB400",
".X c #FFB412",
"XX c #FF8521",
"oX c #FF962E",
"OX c #FF8039",
"+X c #FF8C39",
"@X c #FF9739",
"#X c #FEAC38",
"$X c #FECA0A",
"%X c yellow",
"&X c #FFD435",
"*X c #BA804E",
"=X c #B98A68",
"-X c #DB944F",
";X c #CC9E50",
":X c #E8874D",
">X c #FF8142",
",X c #FF8C42",
"<X c #FF804D",
"1X c #FF8C4C",
"2X c #FF9742",
"3X c #FF9F4F",
"4X c #F48C5E",
"5X c #FF9452",
"6X c #EEA062",
"7X c #F2BE64",
"8X c #FEC44E",
"9X c #B99D84",
"0X c #E1B68E",
"qX c #F3D8B9",
/* pixels */
"                                                                                                                                ",
"                                                                                                                                ",
"                                                                                                                                ",
"                                                                    q.%X                                                        ",
"                                                                    G ;X                                                        ",
"                                                                    % e.                                                        ",
"                                                                    % r.                                                        ",
"                                                                    % r.                                                        ",
"                                                                    % r.                                                        ",
"                                                      c.            % r.                                                        ",
"                                                      P.            % r.                                                        ",
"                                                  v.P.I.d.l.        % r.                                                        ",
"                                                    W.Q.v.V.C.v.    % r.                                                        ",
"                                                    b.b.    XXC.    % r.                                                        ",
"                                                          v.@XT.` ` d r.                                                        ",
"                                                          `.Q.$.o.X.] c.                                                        ",
"                                                        d.{.C.o.^.4.O.i.                                                        ",
"                                                        d.XXoX:.E.H.1.a.                b.                                      ",
"                                                        XX@X@XXX+XU.2.M.c.            c.P.b.                                    ",
"                                                        oX@XK.7.OXU.2.B.                                                        ",
"                                                      c.XXj.>.j.6.a.-XY.                                                        ",
"                                                      Y.j.@.1.2.a.e.y.Y.Y.                                                      ",
"                                                    f.2XZ.>.1.2.j.a.0.Y.Y.                h.P.                                  ",
"                                                    c.3X;.>./.1.A.E.6.Y.OX              f.n.v.'.].[.# 3                         ",
"                                                    B.3X-.1.J.1.>XH.7.Y.+X            &.{.}.}..X.X.X8.e                         ",
"                                                  f.+X<X<.o.[ E.S.O.t.(.L.    f.  h.i.7X8XB.M e e . y v $X                      ",
"                                                    3XH.=.' Z.).1.O.u.t.T.        i.b.3XF e < k N # M n |.|.                    ",
"                                                    5X-.1./.) ).2.{ 6XB.      / _ 2XI.N # 0 l t e.8 w.t 4                       ",
"                                                    2XE.2.,.o.6._ ^ 5Xe.      &./ I.F H 2 t 0 w.J C A N t                       ",
"                            b.m.m.                  B.5X1XE.,./.p.y.4Xr.  g p.5XQ.r 7 e.7 V l l L q D ~.w &                     ",
"                                b.c.                  ,X3X).T.).^.;.5Xr., H.<X6.v q.< S A v > D D l v ~.e 7                     ",
"                                  h.                  B.3X<XE.H.).J.% a.f ( E.N e.~.S 7 w.7 3 v x 7 v e.7 u @                   ",
"                                                        6X3X>.:.D.=.G.W.~ p.7 e.u.~.8 w.+ O O +   O 7 3 8 e.t                   ",
"                                                    X   +X6X+.:.g.F.:X5Xl 7 > S Z L V S 3 O O O     1 S c 0 n                   ",
"                                c.m.        5 O X X X X X l ( %.k.R.D.:X~.X # D 0.6 D u.b ; O O       } qXm M                   ",
"                          i.5.5.h.m.    5 & 5 O X O = . X X L ^ N.U.N.T.-X2 3 D 9.v M L 6 + O       ' | L 5 @                   ",
"                        / 2./.J.3.{ B 5 V r : O O 9 U U i - - n j.Q.6XU.Q.(.B C M c & !.> # O   h ] }  .h                       ",
"                      g F.H.4XJ.J.=.6 : 2 v v x : P U 9XU Y Y U =X:X3X5X1X5X<X0.v 7 7 2 n 2 W ` | } W  .}                       ",
"                      +.R.R.4XE.%.8 7 6 3 7 H N : V ~.0.9X9X9XU 9X=X+X7X5X1X<X} R M 8 O u 2 ` ` } | E  . .                      ",
"                    / k.1X>X<XE.1 W ` t.^ R _ .. . .C Y P A I A p V <X6X3X:XH.0Xe. . .} }  .| ' 9X6.                            ",
"                    &.C.5X5X>XR.a 6. . . . . . . .u.0 N V S x S 8 r.>X7X5XL.Z.7.{  . . .7.| } ` ..|                             ",
"                    *.C.OX3XOX/ T 6. . . .9X.. . .{ c V 0 2 7X7X*XL.3X3X>XA _ ! 6  . . .{  .' E  . .                            ",
"                    s.C.+X2XU./ ` ]  . . .[  . . . .u r.t V -X=Xr.:X3X5X1XD ) ! @  . .g Q  .     . .                            ",
"                    s.V.3XXX+X#.` |  . . . .' a R  .2 2 I w.n l w.:X3X+X*Xv !.) L  . .@ h  . .                                  ",
"                    z.x.8XXX3X#.` ! ! s '  .R 0 !  .r 9 v Z ~.n V -X3X:XD v v H K ` } @ ~  . .                                  ",
"                    l.'.#X#X8X#.   .f j  . .b v } ` 9 9 z M H S n ~.#XK u 5 0 L 0.7 2                                           ",
"                    '.[..X#X#Xd. .W 8 ) [ g : 2               r T.,X8X]._.  1 S M 2 #                                           ",
"                    `.[..X&X}.i.t l l w.J 3 2                   c.oX#X      5 M l 5 >                                           ",
"                    ]. X$X&X].z r.w.M M A 2                     c.[.&X[._.  t v x Z V 2                                         ",
"                    ]. X$X$X9.L ~.r.t w.V                         l. X[.[.  q M t l A 5                                         ",
"                       X$XH K M 5 5 # q 5                               _.5 l Z 2 : c S                                         ",
"                      $XH L 7 +     # 9 @                                 0 Z V &   7 J                                         ",
"                    5 n r.t         @ x 5                                 t L Z       v @                                       ",
"                    $ w Z             r.t                                 L I         l #                                       ",
"                    o p               r.S                                 L.D         l q #                                     ",
"                  X p p               - ~.5                             3 !.5           V =                                     ",
"                    - =               & p -                             8 S #           o p X                                   ",
"                    * X                 = = =                           5 = X             o - o                                 ",
"                                        o i o                             p X             o i o                                 ",
"                                                                        = i =                                                   ",
"                                                                          o *                                                   ",
"                                                                                                                                ",
"                                                                                                                                ",
"                                                                                                                                "
};
