/* XPM */
static char *result[] = {
/* columns rows colors chars-per-pixel */
"64 64 215 2 ",
"   c #080800",
".  c #070008",
"X  c gray3",
"o  c #100000",
"O  c #180000",
"+  c #100800",
"@  c #180800",
"#  c #140808",
"$  c #181000",
"%  c #101008",
"&  c #181008",
"*  c #0D0810",
"=  c #111010",
"-  c #171619",
";  c #210000",
":  c #210800",
">  c #210808",
",  c #211000",
"<  c #291000",
"1  c #211008",
"2  c #291008",
"3  c #211808",
"4  c #291808",
"5  c #351006",
"6  c #311800",
"7  c #311808",
"8  c #3B1808",
"9  c #281810",
"0  c #311810",
"q  c #3B1810",
"w  c #321F18",
"e  c #3D2208",
"r  c #312110",
"t  c #392110",
"y  c #392918",
"u  c #252324",
"i  c #382D2A",
"p  c #420400",
"a  c #520000",
"s  c #520B00",
"d  c #520E08",
"f  c #6B0000",
"g  c #6A0E09",
"h  c #7F0000",
"j  c #4D2A0F",
"k  c #422110",
"l  c #422A10",
"z  c #4A2118",
"x  c #422918",
"c  c #4A2918",
"v  c #5A2719",
"b  c #4A311B",
"n  c #5C3C14",
"m  c #523118",
"M  c #5E3118",
"N  c #642C0C",
"B  c #4A2921",
"V  c #523122",
"C  c #5F3121",
"Z  c #583921",
"A  c #5C3E29",
"S  c #633921",
"D  c #713921",
"F  c #7A4211",
"G  c #604421",
"H  c #6F4421",
"J  c #6B4429",
"K  c #764129",
"L  c #7A4A29",
"P  c #694831",
"I  c #6B4C39",
"U  c #514C51",
"Y  c #7D5E4D",
"T  c #8B0B00",
"R  c #8C0E08",
"E  c #940000",
"W  c #AD0000",
"Q  c #B40E00",
"!  c #B60D08",
"~  c #8E2100",
"^  c #8C2308",
"/  c #8C2310",
"(  c #8B2B1A",
")  c #B52308",
"_  c #B62310",
"`  c #B72C1A",
"'  c #C20000",
"]  c #CE0000",
"[  c #DA0000",
"{  c #DD0D09",
"}  c #D61C0D",
"|  c #EB0000",
" . c #F70000",
".. c red",
"X. c #F40D09",
"o. c #FF0808",
"O. c #DA2A00",
"+. c #D62D0C",
"@. c #CE3D06",
"#. c #DC2A1B",
"$. c #FD210F",
"%. c #EB3D03",
"&. c #FF3E03",
"*. c #F4291C",
"=. c #FF2D18",
"-. c #E33E18",
";. c #F33E19",
":. c #FF2E2C",
">. c #FF3121",
",. c #FF3D21",
"<. c #FF3D31",
"1. c #A34408",
"2. c #B94407",
"3. c #A2451D",
"4. c #B9481D",
"5. c #A86910",
"6. c #814921",
"7. c #8F4E2D",
"8. c #815929",
"9. c #805131",
"0. c #935D30",
"q. c #945F39",
"w. c #AE4C2C",
"e. c #B5602E",
"r. c #B16539",
"t. c #D05007",
"y. c #DE5A08",
"u. c #CE421C",
"i. c #CE561D",
"p. c #E84E03",
"a. c #FF4E04",
"s. c #E75A08",
"d. c #FB5A04",
"f. c #FD4A13",
"g. c #E75710",
"h. c #E8521D",
"j. c #FE5614",
"k. c #D66911",
"l. c #E76406",
"z. c #F36305",
"x. c #F66E05",
"c. c #E76310",
"v. c #E76F10",
"b. c #EF6B10",
"n. c #E76319",
"m. c #E76C1D",
"M. c #EF6B18",
"N. c #F26310",
"B. c #FD671D",
"V. c #EF731F",
"C. c #F97210",
"Z. c #F9731D",
"A. c #DA502B",
"S. c #F44F2B",
"D. c #FF4A2C",
"F. c #FD5021",
"G. c #FF5529",
"H. c #EC503E",
"J. c #FF5731",
"K. c #FF5239",
"L. c #DB6B2D",
"P. c #C57D3C",
"I. c #EF6A21",
"U. c #EF6F2B",
"Y. c #FC732D",
"T. c #F77C29",
"R. c #FE6731",
"E. c #FF6B39",
"W. c #EC7E37",
"Q. c #F77F36",
"!. c #99664A",
"~. c #9C6F59",
"^. c #A96A42",
"/. c #FF4D42",
"(. c #FF534F",
"). c #FF6C45",
"_. c #FF6B58",
"`. c #DD8306",
"'. c #F7800D",
"]. c #FF8308",
"[. c #EC9A05",
"{. c #FF9D00",
"}. c #FF9C14",
"|. c #EFB206",
" X c #FFB400",
".X c #FFB412",
"XX c #FF8521",
"oX c #FF962E",
"OX c #FF8039",
"+X c #FF8C39",
"@X c #FF9739",
"#X c #FEAC38",
"$X c #FECA0A",
"%X c #FFDD11",
"&X c yellow",
"*X c #FFD435",
"=X c #BA804E",
"-X c #B98A68",
";X c #DB944F",
":X c #CC9E50",
">X c #E8874D",
",X c #FF8142",
"<X c #FF8C42",
"1X c #FF804D",
"2X c #FF8C4C",
"3X c #FF9742",
"4X c #FF9F4F",
"5X c #F48C5E",
"6X c #FF9452",
"7X c #EEA062",
"8X c #F2BE64",
"9X c #FEC44E",
"0X c #B99D84",
"qX c #E1B68E",
"wX c None",
/* pixels */
"wXwXwXwXwXwXwXwXwXwXwXwXwXwXwXwXwXwXwXwXwXwXwXwXwXwXwXwXwXwXwXwXwXwXwXwXwXwXwXwXwXwXwXwXwXwXwXwXwXwXwXwXwXwXwXwXwXwXwXwXwXwXwXwX",
"wXwXwXwXwXwXwXwXwXwXwXwXwXwXwXwXwXwXwXwXwXwXwXwXwXwXwXwXwXwXwXwXwXwXwXwXwXwXwXwXwXwXwXwXwXwXwXwXwXwXwXwXwXwXwXwXwXwXwXwXwXwXwXwX",
"wXwXwXwXwXwXwXwXwXwXwXwXwXwXwXwXwXwXwXwXwXwXwXwXwXwXwXwXwXwXwXwXwXwXwXwXwXwXwXwXwXwXwXwXwXwXwXwXwXwXwXwXwXwXwXwXwXwXwXwXwXwXwXwX",
"wXwXwXwXwXwXwXwXwXwXwXwXwXwXwXwXwXwXwXwXwXwXwXwXwXwXwXwXwXwXwXwXwXwX8.&XwXwXwXwXwXwXwXwXwXwXwXwXwXwXwXwXwXwXwXwXwXwXwXwXwXwXwXwX",
"wXwXwXwXwXwXwXwXwXwXwXwXwXwXwXwXwXwXwXwXwXwXwXwXwXwXwXwXwXwXwXwXwXwXG :XwXwXwXwXwXwXwXwXwXwXwXwXwXwXwXwXwXwXwXwXwXwXwXwXwXwXwXwX",
"wXwXwXwXwXwXwXwXwXwXwXwXwXwXwXwXwXwXwXwXwXwXwXwXwXwXwXwXwXwXwXwXwXwX% 0.wXwXwXwXwXwXwXwXwXwXwXwXwXwXwXwXwXwXwXwXwXwXwXwXwXwXwXwX",
"wXwXwXwXwXwXwXwXwXwXwXwXwXwXwXwXwXwXwXwXwXwXwXwXwXwXwXwXwXwXwXwXwXwX% q.wXwXwXwXwXwXwXwXwXwXwXwXwXwXwXwXwXwXwXwXwXwXwXwXwXwXwXwX",
"wXwXwXwXwXwXwXwXwXwXwXwXwXwXwXwXwXwXwXwXwXwXwXwXwXwXwXwXwXwXwXwXwXwX% q.wXwXwXwXwXwXwXwXwXwXwXwXwXwXwXwXwXwXwXwXwXwXwXwXwXwXwXwX",
"wXwXwXwXwXwXwXwXwXwXwXwXwXwXwXwXwXwXwXwXwXwXwXwXwXwXwXwXwXwXwXwXwXwX% q.wXwXwXwXwXwXwXwXwXwXwXwXwXwXwXwXwXwXwXwXwXwXwXwXwXwXwXwX",
"wXwXwXwXwXwXwXwXwXwXwXwXwXwXwXwXwXwXwXwXwXwXwXwXwXwXwXwXwXwXwXwXwXwX% q.wXwXwXwXwXwXwXwXwXwXwXwXwXwXwXwXwXwXwXwXwXwXwXwXwXwXwXwX",
"wXwXwXwXwXwXwXwXwXwXwXwXwXwXwXwXwXwXwXwXwXwXwXwXwXs.wXwXwXwXwXwXwXwX% q.wXwXwXwXwXwXwXwXwXwXwXwXwXwXwXwXwXwXwXwXwXwXwXwXwXwXwXwX",
"wXwXwXwXwXwXwXwXwXwXwXwXwXwXwXwXwXwXwXwXwXwXwXwXwXm.wXwXwXwXwXwXwXwX% q.wXwXwXwXwXwXwXwXwXwXwXwXwXwXwXwXwXwXwXwXwXwXwXwXwXwXwXwX",
"wXwXwXwXwXwXwXwXwXwXwXwXwXwXwXwXwXwXwXwXwXwXwXwXc.Q.b.b.b.wXwXwXwXwX% q.wXwXwXwXwXwXwXwXwXwXwXwXwXwXwXwXwXwXwXwXwXwXwXwXwXwXwXwX",
"wXwXwXwXwXwXwXwXwXwXwXwXwXwXwXwXwXwXwXwXwXwXwXwXI.m.wXwXZ.v.wXwXwXwX% q.wXwXwXwXwXwXwXwXwXwXwXwXwXwXwXwXwXwXwXwXwXwXwXwXwXwXwXwX",
"wXwXwXwXwXwXwXwXwXwXwXwXwXwXwXwXwXwXwXwXwXwXwXwXI.W.c.n.+XQ.W E f 1.% q.wXwXwXwXwXwXwXwXwXwXwXwXwXwXwXwXwXwXwXwXwXwXwXwXwXwXwXwX",
"wXwXwXwXwXwXwXwXwXwXwXwXwXwXwXwXwXwXwXwXwXwXwXwXc.U.I.V.+Xh.| o.| ) ;Xq.wXwXwXwXwXwXwXwXwXwXwXwXwXwXwXwXwXwXwXwXwXwXwXwXwXwXwXwX",
"wXwXwXwXwXwXwXwXwXwXwXwXwXwXwXwXwXwXwXwXwXwXwXwXwXwXc.V.+X;.<.K.,.D.>Xq.wXwXwXwXwXwXwXn.wXwXwXwXwXwXwXwXwXwXwXwXwXwXwXwXwXwXwXwX",
"wXwXwXwXwXwXwXwXwXwXwXwXwXwXwXwXwXwXwXwXwXwXwXwXwXwXwXb.XXB.,XE.R.F.W.q.wXwXwXwXwXg.,X,XwXwXwXwXwXwXwXwXwXwXwXwXwXwXwXwXwXwXwXwX",
"wXwXwXwXwXwXwXwXwXwXwXwXwXwXwXwXwXwXwXwXwXwXwXwXwXwXwXC.@XoX+X@X<XOX6Xq.wXwXwXwXs.wXwXW.wXwXwXwXwXwXwXwXwXwXwXwXwXwXwXwXwXwXwXwX",
"wXwXwXwXwXwXwXwXwXwXwXwXwXwXwXwXwXwXwXwXwXwXwXwXwXwXwXC.oX@X<X4X+X<X4Xq.wXwXwXwXwXwXwXU.wXwXwXwXwXwXwXwXwXwXwXwXwXwXwXwXwXwXwXwX",
"wXwXwXwXwXwXwXwXwXwXwXwXwXwXwXwXwXwXwXwXwXwXwXwXwXwXb.@XT.` ^ 3.Q.3X6Xq.wXwXwXwXwXwXwXU.g.wXwXwXwXwXwXwXwXwXwXwXwXwXwXwXwXwXwXwX",
"wXwXwXwXwXwXwXwXwXwXwXwXwXwXwXwXwXwXwXwXwXwXwXwXwXwXT.3X-.;.+./ m F =XT.wXwXwXwXwXwXwXc.W.U.wXwXwXwXwXwXwXwXwXwXwXwXwXwXwXwXwXwX",
"wXwXwXwXwXwXwXwXwXwXwXwXwXwXwXwXwXwXwXwXwXwXwXwXwXwXT.3X-.;.>.*.3.F q.+XwXwXwXwXwXwXwXn.U.U.wXwXwXwXwXwXwXwXwXwXwXwXwXwXwXwXwXwX",
"wXwXwXwXwXwXwXwXwXwXwXwXwXwXwXwXwXwXwXwXwXwXwXwXwXwX3X4XR.R.J.,.D.$.v 3XM.wXwXwXwXwXwXwXm.m.wXwXwXwXwXwXwXwXwXwXwXwXwXwXwXwXwXwX",
"wXwXwXwXwXwXwXwXwXwXwXwXwXwXwXwXwXwXwXwXwXwXwXwXwXwX3X4XR.).E.D.E.,.( 3XM.wXwXwXwXwXwXwXp.%.z.l.k.l.wXwXwXwXwXwXwXwXwXwXwXwXwXwX",
"wXwXwXwXwXwXwXwXwXwXwXwXwXwXwXwXwXwXwXwXwXwXwXwXwXM.4X6X).E.Q.2XJ.D.>XP.V.wXwXwXwXwXy.@X8X9X#X.X*X*X[.[.1 wXwXwXwXwXwXwXwXwXwXwX",
"wXwXwXwXwXwXwXwXwXwXwXwXwXwXwXwXwXwXwXwXwXwXwXwXwXT.4X6X2XE.,X2XJ.G.;Xw.3XwXwXwXwX2.2.N.@XL.F N N 6.|.[., wXwXwXwXwXwXwXwXwXwXwX",
"wXwXwXwXwXwXwXwXwXwXwXwXwXwXwXwXwXwXwXwXwXwXwXwXwXs.6XJ.7X2X4X6X).R.;XT.wXwXwX^ ) Y.W.M @ 4 o @ 6 j < 7 5.wXwXwXwXwXwXwXwXwXwXwX",
"wXwXwXwXwXwXwXwXwXwXwXwXwXwXwXwXwXwXwXwXwXwXwXwXwXwXOXG.6X7X5X6XE.A.7X0.wX) ;.E.2X4.N H < 0 o x S 6.m I n $XwXwXwXwXwXwXwXwXwXwX",
"wXwXwXwXwXwXwXwXwXwXwXwXwXwXwXwXwXwXwXwXwXwXwXwXwXwXs.3X6XE.).).A.e.7Xq.Q -.1XS.D x Z 7.> c x x C C A 4 $ %X[.wXwXwXwXwXwXwXwXwX",
"wXwXwXwXwXwXwXwXwXwXwXs.,XW.5X5XwXwXwXwXwXwXwXwXwXwXwX3X,X2XK.5Xu.2X-X_ ;.E.).c 0.k @ L t K 2 q.L 2 H P.y wXwXwXwXwXwXwXwXwXwXwX",
"wXwXwXwXwXwXwXwXwXwXwXwXwXwXn.,XwXwXwXwXwXwXwXwXwXwXwX+X,XOX,XK.<.H.W.h s E.3.r.r.7., V 0 9.z 0.z : 7.M - wXwXwXwXwXwXwXwXwXwXwX",
"wXwXwXwXwXwXwXwXwXwXwXwXwXwXg.L.wXwXwXwXwXwXwXwXwXwXwXb.6XU.Y.Y.:.<.A._ ^ q 7 ^.r.7 t V O 1 7 q 7 2 r.m 4 wXwXwXwXwXwXwXwXwXwXwX",
"wXwXwXwXwXwXwXwXwXwXwXwXwXwXm.I.wXwXwXwXwXwXwXwXwXwXwXwX4XU.Y.E.,.:.A.& > @ m 0.L Z c S o + o o @ 7 S 8 t wXwXwXwXwXwXwXwXwXwXwX",
"wXwXwXwXwXwXwXwXwXwXwXwXwXwXc.n.n.wXwXwXwXwXwXwXwX. . . +X2XY.R.f.-.^..   @ v 7.H 7.^.r.; o o wXwXk b k ^.wXwXwXwXwXwXwXwXwXwXwX",
"wXwXwXwXwXwXwXwXwXwXwXwXt.@.` 4.W.n.wXwXwXwX& . o . . .   r.Y.j.j.f.3.B * 7 m 7.M m 9.w.O o wXwXwXwXV Z m J wXwXwXwXwXwXwXwXwXwX",
"wXwXwXwXwXwXwXwXwXwXwXp.J.E.K.(.} ~ wX9 3 3 1 o o X u = X = 0.f.T.6X&.K x D J m m & 9.V + o wXwXW | ` -XG + wXwXwXwXwXwXwXwXwXwX",
"wXwXwXwXwXwXwXwXwXwX%.f.E.).).(._./.5 x l 7 7 : 1 Z Y U U U U Y d.@X4X7X6X..} c m 7 : G & f ] ..] ' | | wXwXwXwXwXwXwXwXwXwXwXwX",
"wXwXwXwXwXwXwXwXwXwXf.Q.E.E.).=.} } O 1 + e Z : 4 ^.~.0X~.Y ~.~.h.T.8X6X6X....R m 7 @ 9 p ' [ | W W | | wXwXwXwXwXwXwXwXwXwXwXwX",
"wXwXwXwXwXwXwXwXwXO.T.4X4XY.u.R 7 , c k q 7.^.c p } #.r.U U U U !.n.<Xh.L.| X.e.......| .. .{ qXh f | | wXwXwXwXwXwXwXwXwXwXwXwX",
"wXwXwXwXwXwXwXwXwX%.OX4X6XY.f.wXa W N 9.m ( u.X.....A !.i A V P 9.u.8XR.` ( ..} ......u...| | 4.W wX| wXwXwXwXwXwXwXwXwXwXwXwXwX",
"wXwXwXwXwXwXwXwXwXa.3X4X4XOXwXwX7.=X....X.X.....` w.c J c M ^.q.t.Z.4XH c g ..8 R ....} .. .' ....wXwXwXwXwXwXwXwXwXwXwXwXwXwXwX",
"wXwXwXwXwXwXwXwXwXp.#X3X4XY.wXwX9.-X....` i..... .X.V I m c 8X~.d.@XT.b J R ..1 g ..h 8 ....wX....wXwXwXwXwXwXwXwXwXwXwXwXwXwXwX",
"wXwXwXwXwXwXwXwXwX].9X#X4XOXwXwX]  .................t 7.;XI c =Xx.@Xn.V & !.r.H ( ..f o ....wXwXwXwXwXwXwXwXwXwXwXwXwXwXwXwXwXwX",
"wXwXwXwXwXwXwXwXl.}.9X#X4X@XwXwX] ..........' s ] | 2 & A J r I ].oXw.w 1 M m 9.v | h + ....wXwXwXwXwXwXwXwXwXwXwXwXwXwXwXwXwXwX",
"wXwXwXwXwXwXwX`.].*X*X#XoXwXwX8 i ..g d .. .k v ..] r 0 S H ^.L }.#Xb y y 7 8 7.9.8 & wXwXwXwXwXwXwXwXwXwXwXwXwXwXwXwXwXwXwXwXwX",
"wXwXwXwXwXwXwX.X$X*X#X.Xx.wXwXW ......T ..! z p ..1 wXwX9 0 F 9.*X}.r wXwXwXwX0.C 7 & wXwXwXwXwXwXwXwXwXwXwXwXwXwXwXwXwXwXwXwXwX",
"wXwXwXwXwXwXwX$X*X$X.X}.wXwXwXwX....: W ..R 2 1 wXwXwXwXwXwXwXV.*Xx.wXwXwXwXwXc t 7 1 wXwXwXwXwXwXwXwXwXwXwXwXwXwXwXwXwXwXwXwXwX",
"wXwXwXwXwX$X$X%X%X$X.X{.wXwXwXwXwXr K c K q , wXwXwXwXwXwXwXwX'.*X.XwXwXwXwXwX7 z e & wXwXwXwXwXwXwXwXwXwXwXwXwXwXwXwXwXwXwXwXwX",
"wXwXwXwXwXk.%X%X%X XwXwXwXwXwXwXwXk c 9.=X@ wXwXwXwXwXwXwXwXwXl. X{.].wXwXwXwXt m q $ wXwXwXwXwXwXwXwXwXwXwXwXwXwXwXwXwXwXwXwXwX",
"wXwXwXwXwXwXwXwXwXwXwXwXwXwXwXwXq V H m 0 wXwXwXwXwXwXwXwXwXwXwXwX[. X{.wXwXwX7 J x 1 wXwXwXwXwXwXwXwXwXwXwXwXwXwXwXwXwXwXwXwXwX",
"wXwXwXwXwXwXwXwXwXwXwXwXwXwXwXwX, S q.r wXwXwXwXwXwXwXwXwXwXwXwXwXwXwXwXwXwXwXt 9.Z & wXwXwXwXwXwXwXwXwXwXwXwXwXwXwXwXwXwXwXwXwX",
"wXwXwXwXwXwXwXwXwXwXwXwXwXwXwXwX+ c k wXwXwXwXwXwXwXwXwXwXwXwXwXwXwXwXwXwXwXwXr c 9.# wXwXwXwXwXwXwXwXwXwXwXwXwXwXwXwXwXwXwXwXwX",
"wXwXwXwXwXwXwXwXwXwXwXwXwXwXwXwX1 7 1 wXwXwXwXwXwXwXwXwXwXwXwXwXwXwXwXwXwXwXwXwX2 y wXwXwXwXwXwXwXwXwXwXwXwXwXwXwXwXwXwXwXwXwXwX",
"wXwXwXwXwXwXwXwXwXwXwXwXwXwXwXwX@ 7 2 wXwXwXwXwXwXwXwXwXwXwXwXwXwXwXwXwXwXwXwXwX, C wXwXwXwXwXwXwXwXwXwXwXwXwXwXwXwXwXwXwXwXwXwX",
"wXwXwXwXwXwXwXwXwXwXwXwXwXwXwXwXwXt m wXwXwXwXwXwXwXwXwXwXwXwXwXwXwXwXwXwXwXwXwX: Z + wXwXwXwXwXwXwXwXwXwXwXwXwXwXwXwXwXwXwXwXwX",
"wXwXwXwXwXwXwXwXwXwXwXwXwXwXwXwXwXt Z i wXwXwXwXwXwXwXwXwXwXwXwXwXwXwXwXwXwXwXwX1 8.# wXwXwXwXwXwXwXwXwXwXwXwXwXwXwXwXwXwXwXwXwX",
"wXwXwXwXwXwXwXwXwXwXwXwXwXwXwXwXwX0 i * = wXwXwXwXwXwXwXwXwXwXwXwXwXwXwXwXwXwXwXwX^.9 wXwXwXwXwXwXwXwXwXwXwXwXwXwXwXwXwXwXwXwXwX",
"wXwXwXwXwXwXwXwXwXwXwXwXwXwXwXwXwX1 w - X wXwXwXwXwXwXwXwXwXwXwXwXwXwXwXwXwXwXwXwX9 = . wXwXwXwXwXwXwXwXwXwXwXwXwXwXwXwXwXwXwXwX",
"wXwXwXwXwXwXwXwXwXwXwXwXwXwXwXwXwXwXX - X wXwXwXwXwXwXwXwXwXwXwXwXwXwXwXwXwXwXwXwX= U . wXwXwXwXwXwXwXwXwXwXwXwXwXwXwXwXwXwXwXwX",
"wXwXwXwXwXwXwXwXwXwXwXwXwXwXwXwXwXwXX - X wXwXwXwXwXwXwXwXwXwXwXwXwXwXwXwXwXwXwXwXX u X wXwXwXwXwXwXwXwXwXwXwXwXwXwXwXwXwXwXwXwX",
"wXwXwXwXwXwXwXwXwXwXwXwXwXwXwXwXwXwXwXwXwXwXwXwXwXwXwXwXwXwXwXwXwXwXwXwXwXwXwXwXwXwXwXwXwXwXwXwXwXwXwXwXwXwXwXwXwXwXwXwXwXwXwXwX",
"wXwXwXwXwXwXwXwXwXwXwXwXwXwXwXwXwXwXwXwXwXwXwXwXwXwXwXwXwXwXwXwXwXwXwXwXwXwXwXwXwXwXwXwXwXwXwXwXwXwXwXwXwXwXwXwXwXwXwXwXwXwXwXwX",
"wXwXwXwXwXwXwXwXwXwXwXwXwXwXwXwXwXwXwXwXwXwXwXwXwXwXwXwXwXwXwXwXwXwXwXwXwXwXwXwXwXwXwXwXwXwXwXwXwXwXwXwXwXwXwXwXwXwXwXwXwXwXwXwX"
};
