/* XPM */
static char *result[] = {
/* columns rows colors chars-per-pixel */
"64 64 214 2 ",
"   c #080800",
".  c #070008",
"X  c gray3",
"o  c #100000",
"O  c #180000",
"+  c #100800",
"@  c #180800",
"#  c #140808",
"$  c #101008",
"%  c #181008",
"&  c #0D0810",
"*  c #111010",
"=  c #171619",
"-  c #210000",
";  c #210800",
":  c #210808",
">  c #350301",
",  c #211000",
"<  c #291000",
"1  c #211008",
"2  c #291008",
"3  c #211808",
"4  c #291808",
"5  c #351006",
"6  c #311808",
"7  c #3B1808",
"8  c #281810",
"9  c #311810",
"0  c #3B1810",
"q  c #321F18",
"w  c #3D2208",
"e  c #312110",
"r  c #392110",
"t  c #392910",
"y  c #392918",
"u  c #252324",
"i  c #382D2A",
"p  c #420400",
"a  c #520E08",
"s  c #6B0000",
"d  c #6B0B00",
"f  c #6A0E09",
"g  c #7F0000",
"h  c #671C09",
"j  c #4D2A0F",
"k  c #422110",
"l  c #422A10",
"z  c #4A2118",
"x  c #422918",
"c  c #4A2918",
"v  c #5A2719",
"b  c #4A311B",
"n  c #5C3C14",
"m  c #523118",
"M  c #5E3118",
"N  c #642C0C",
"B  c #523122",
"V  c #5F3121",
"C  c #583921",
"Z  c #5C3E29",
"A  c #633921",
"S  c #713921",
"D  c #7A4211",
"F  c #604421",
"G  c #6F4421",
"H  c #6B4429",
"J  c #764129",
"K  c #7A4A29",
"L  c #694831",
"P  c #6B4C39",
"I  c #514C51",
"U  c #7D5E4D",
"Y  c #8B0B00",
"T  c #8C0E08",
"R  c #940000",
"E  c #AD0000",
"W  c #B40E00",
"Q  c #B60D08",
"!  c #8C2310",
"~  c #8B2B1A",
"^  c #B62800",
"/  c #B52308",
"(  c #B62310",
")  c #B72C1A",
"_  c #C20000",
"`  c #CE0000",
"'  c #DA0000",
"]  c #DD0D09",
"[  c #D61C0D",
"{  c #EB0000",
"}  c #F70000",
"|  c red",
" . c #F40D09",
".. c #FF0808",
"X. c #FD180E",
"o. c #FF1D18",
"O. c #DA2A00",
"+. c #D62D0C",
"@. c #CE3D06",
"#. c #DC2A1B",
"$. c #EB220C",
"%. c #EB3D03",
"&. c #FF3E03",
"*. c #F4291C",
"=. c #FF2D18",
"-. c #E33E18",
";. c #FF3D15",
":. c #F33E19",
">. c #FF2521",
",. c #FF2E2C",
"<. c #FF3121",
"1. c #FF3D21",
"2. c #FF3E29",
"3. c #FF3E39",
"4. c #B94407",
"5. c #A2451D",
"6. c #B9481D",
"7. c #A86910",
"8. c #814921",
"9. c #8F4E2D",
"0. c #815929",
"q. c #805131",
"w. c #935D30",
"e. c #945F39",
"r. c #AE4C2C",
"t. c #B5602E",
"y. c #B16539",
"u. c #DE5A08",
"i. c #CE421C",
"p. c #CE561D",
"a. c #E84E03",
"s. c #E75A00",
"d. c #E75A08",
"f. c #FD4A13",
"g. c #E75710",
"h. c #E8521D",
"j. c #FE5614",
"k. c #E76406",
"l. c #F36305",
"z. c #F66E05",
"x. c #E76310",
"c. c #EF6B10",
"v. c #E76319",
"b. c #EF6318",
"n. c #E76C1D",
"m. c #EF6B18",
"M. c #FD671D",
"N. c #EF731F",
"B. c #F97210",
"V. c #F9731D",
"C. c #DA502B",
"Z. c #F44F2B",
"A. c #FF4A2C",
"S. c #FD5021",
"D. c #FF5529",
"F. c #EC503E",
"G. c #FF5731",
"H. c #FF5239",
"J. c #DB6B2D",
"K. c #C57D3C",
"L. c #EF6A21",
"P. c #EF6F2B",
"I. c #FC732D",
"U. c #F77C29",
"Y. c #E36E39",
"T. c #FE6731",
"R. c #FF6B39",
"E. c #EC7E37",
"W. c #F77F36",
"Q. c #99664A",
"!. c #A96A42",
"~. c #FF4D42",
"^. c #FF534F",
"/. c #E36F45",
"(. c #FF6C45",
"). c #DD8306",
"_. c #F7800D",
"`. c #FF8308",
"'. c #EC9A05",
"]. c #FF9D00",
"[. c #FF8418",
"{. c #FF9C14",
"}. c #EFB206",
"|. c #FFB400",
" X c #FFB412",
".X c #FF8521",
"XX c #FF962E",
"oX c #FF8039",
"OX c #FF8C39",
"+X c #FF9739",
"@X c #FEAC38",
"#X c #FECA0A",
"$X c yellow",
"%X c #FFD435",
"&X c #BA804E",
"*X c #B98A68",
"=X c #DB944F",
"-X c #CC9E50",
";X c #E8874D",
":X c #FF8142",
">X c #FF8C42",
",X c #FF804D",
"<X c #FF8C4C",
"1X c #FF9742",
"2X c #FF9F4F",
"3X c #F48C5E",
"4X c #FF9452",
"5X c #EEA062",
"6X c #F2BE64",
"7X c #FEC44E",
"8X c #B99D84",
"9X c #E1B68E",
"0X c #F3D8B9",
"qX c None",
/* pixels */
"qXqXqXqXqXqXqXqXqXqXqXqXqXqXqXqXqXqXqXqXqXqXqXqXqXqXqXqXqXqXqXqXqXqXqXqXqXqXqXqXqXqXqXqXqXqXqXqXqXqXqXqXqXqXqXqXqXqXqXqXqXqXqXqX",
"qXqXqXqXqXqXqXqXqXqXqXqXqXqXqXqXqXqXqXqXqXqXqXqXqXqXqXqXqXqXqXqXqXqXqXqXqXqXqXqXqXqXqXqXqXqXqXqXqXqXqXqXqXqXqXqXqXqXqXqXqXqXqXqX",
"qXqXqXqXqXqXqXqXqXqXqXqXqXqXqXqXqXqXqXqXqXqXqXqXqXqXqXqXqXqXqXqXqXqXqXqXqXqXqXqXqXqXqXqXqXqXqXqXqXqXqXqXqXqXqXqXqXqXqXqXqXqXqXqX",
"qXqXqXqXqXqXqXqXqXqXqXqXqXqXqXqXqXqXqXqXqXqXqXqXqXqXqXqX$X0.qXqXqXqXqXqXqXqXqXqXqXqXqXqXqXqXqXqXqXqXqXqXqXqXqXqXqXqXqXqXqXqXqXqX",
"qXqXqXqXqXqXqXqXqXqXqXqXqXqXqXqXqXqXqXqXqXqXqXqXqXqXqXqX-XF qXqXqXqXqXqXqXqXqXqXqXqXqXqXqXqXqXqXqXqXqXqXqXqXqXqXqXqXqXqXqXqXqXqX",
"qXqXqXqXqXqXqXqXqXqXqXqXqXqXqXqXqXqXqXqXqXqXqXqXqXqXqXqXw.$ qXqXqXqXqXqXqXqXqXqXqXqXqXqXqXqXqXqXqXqXqXqXqXqXqXqXqXqXqXqXqXqXqXqX",
"qXqXqXqXqXqXqXqXqXqXqXqXqXqXqXqXqXqXqXqXqXqXqXqXqXqXqXqXe.$ qXqXqXqXqXqXqXqXqXqXqXqXqXqXqXqXqXqXqXqXqXqXqXqXqXqXqXqXqXqXqXqXqXqX",
"qXqXqXqXqXqXqXqXqXqXqXqXqXqXqXqXqXqXqXqXqXqXqXqXqXqXqXqXe.$ qXqXqXqXqXqXqXqXqXqXqXqXqXqXqXqXqXqXqXqXqXqXqXqXqXqXqXqXqXqXqXqXqXqX",
"qXqXqXqXqXqXqXqXqXqXqXqXqXqXqXqXqXqXqXqXqXqXqXqXqXqXqXqXe.$ qXqXqXqXqXqXqXqXqXqXqXqXqXqXqXqXqXqXqXqXqXqXqXqXqXqXqXqXqXqXqXqXqXqX",
"qXqXqXqXqXqXqXqXqXqXqXqXqXqXqXqXqXqXqXqXqXqXqXqXqXqXqXqXe.$ qXqXqXqXqXqXx.qXqXqXqXqXqXqXqXqXqXqXqXqXqXqXqXqXqXqXqXqXqXqXqXqXqXqX",
"qXqXqXqXqXqXqXqXqXqXqXqXqXqXqXqXqXqXqXqXqXqXqXqXqXqXqXqXe.$ qXqXqXqXqXqXL.qXqXqXqXqXqXqXqXqXqXqXqXqXqXqXqXqXqXqXqXqXqXqXqXqXqXqX",
"qXqXqXqXqXqXqXqXqXqXqXqXqXqXqXqXqXqXqXqXqXqXqXqXqXqXqXqXe.$ qXqXqXqXk.s.P.L.c.qXqXqXqXqXqXqXqXqXqXqXqXqXqXqXqXqXqXqXqXqXqXqXqXqX",
"qXqXqXqXqXqXqXqXqXqXqXqXqXqXqXqXqXqXqXqXqXqXqXqXqXqXqXqXe.$ qXqXc.V.B.c.W.E.qXqXqXqXqXqXqXqXqXqXqXqXqXqXqXqXqXqXqXqXqXqXqXqXqXqX",
"qXqXqXqXqXqXqXqXqXqXqXqXqXqXqXqXqXqXqXqXqXqXqXqXqXqXqXqXe.$ qXqXV..XqXqXv.v.qXqXqXqXqXqXqXqXqXqXqXqXqXqXqXqXqXqXqXqXqXqXqXqXqXqX",
"qXqXqXqXqXqXqXqXqXqXqXqXqXqXqXqXqXqXqXqXqXqXqXqXqXqXqXqXe.s _ _ Y.+Xc.qXqXqXqXqXqXqXqXqXqXqXqXqXqXqXqXqXqXqXqXqXqXqXqXqXqXqXqXqX",
"qXqXqXqXqXqXqXqXqXqXqXqXqXqXqXqXqXqXqXqXqXqXqXqXqXqXqXqXx.' ..X.#.W._.qXqXqXqXqXqXqXqXqXqXqXqXqXqXqXqXqXqXqXqXqXqXqXqXqXqXqXqXqX",
"qXqXqXqXqXqXqXqXqXqXqXqXqXqXqXqXqXqXqXqXqXqXqXqXqXqXqXqXu.o.3.~.X.V.[.s.qXqXqXqXqXqXqXqXqXqXqXqXqXqXqXqXqXqXqXqXqXqXqXqXqXqXqXqX",
"qXqXqXqXqXqXqXqXqXqXqXqXqXqXqXqXqXqXqXv.qXqXqXqXqXqXqXqXp.<.G.R.;.XX.Xs.qXqXqXqXqXqXqXqXqXqXqXqXqXqXqXqXqXqXqXqXqXqXqXqXqXqXqXqX",
"qXqXqXqXqXqXqXqXqXqXqXqXqXqXqXqXqXqXv.L.x.qXqXqXqXqXqXx.m.1.I.OX.X+X+X.XqXqXqXqXqXqXqXqXqXqXqXqXqXqXqXqXqXqXqXqXqXqXqXqXqXqXqXqX",
"qXqXqXqXqXqXqXqXqXqXqXqXqXqXqXqXqXqXqXqXqXqXqXqXqXqXqXqXN.1.I.oX6.J.+XXXqXqXqXqXqXqXqXqXqXqXqXqXqXqXqXqXqXqXqXqXqXqXqXqXqXqXqXqX",
"qXqXqXqXqXqXqXqXqXqXqXqXqXqXqXqXqXqXqXqXqXqXqXqXqXqXqXqXU.=Xp.5.h.:.h..Xx.qXqXqXqXqXqXqXqXqXqXqXqXqXqXqXqXqXqXqXqXqXqXqXqXqXqXqX",
"qXqXqXqXqXqXqXqXqXqXqXqXqXqXqXqXqXqXqXqXqXqXqXqXqXqXqXU.U.t.w.p.1.<.+.h.U.qXqXqXqXqXqXqXqXqXqXqXqXqXqXqXqXqXqXqXqXqXqXqXqXqXqXqX",
"qXqXqXqXqXqXqXqXqXqXqXqXqXqXqXqXqXL.g.qXqXqXqXqXqXqXqXU.U.9.p.h.1.<.:.C.1Xd.qXqXqXqXqXqXqXqXqXqXqXqXqXqXqXqXqXqXqXqXqXqXqXqXqXqX",
"qXqXqXqXqXqXqXqXqXqXqXqX2 @ ].'.`.c.b.d.qXqXqXqXqXqXqXoXU.5.R.Z.<.^.:.-.2Xx.qXqXqXqXqXqXqXqXqXqXqXqXqXqXqXqXqXqXqXqXqXqXqXqXqXqX",
"qXqXqXqXqXqXqXqXqXqXqXqXw 7. X X X{.{.[.%.qXqXqXqXqXqXOXU.6.G.:X<.H.<.=.2XN.qXqXqXqXqXqXqXqXqXqXqXqXqXqXqXqXqXqXqXqXqXqXqXqXqXqX",
"qXqXqXqXqXqXqXqXqXqXqX#Xc t   w w m N.7X6Xu.g.qXd.qXqXK./.r.o.A.R.] X.,.,XOXd.qXqXqXqXqXqXqXqXqXqXqXqXqXqXqXqXqXqXqXqXqXqXqXqXqX",
"qXqXqXqXqXqXqXqXqXqX}.}.b m @ M j , w D 2Xv.u.qXqXqXqXY.r.y.o.<.(.C.` *.G.2XqXqXqXqXqXqXqXqXqXqXqXqXqXqXqXqXqXqXqXqXqXqXqXqXqXqX",
"qXqXqXqXqXqXqXqXqXqXqX3 r q.7 w.r k 9 @ M P.1X) ^ qXqXqXN.5X[ 1.(.( ^.<.=.4XqXqXqXqXqXqXqXqXqXqXqXqXqXqXqXqXqXqXqXqXqXqXqXqXqXqX",
"qXqXqXqXqXqXqXqXqXqXqXr M Z V H q.9 r 1 G D P.^ %.qXqXqXw.4X~ ) 5.X.>.1.R.1XqXqXqXqXqXqXqXqXqXqXqXqXqXqXqXqXqXqXqXqXqXqXqXqXqXqX",
"qXqXqXqXqXqXqXqXqXqX% q !.S 0 K k k B 6 w.6 e W.4Xi.f qXe.3Xt.i.^.>.R.<X4XN.qXqXqXqXqXqXqXqXqXn.n.v.qXqXqXqXqXqXqXqXqXqXqXqXqXqX",
"qXqXqXqXqXqXqXqXqXqX6 w !.c k S S : c Z A , 0.c 5.,XG.> e.4X-.~.(.Y.(.2X>XqXqXqXqXqXqXqXqXqXx.v.qXqXqXqXqXqXqXqXqXqXqXqXqXqXqXqX",
"qXqXqXqXqXqXqXqXqX+ y 6 w.c 6 z c 2 6 q.6 A !.w.M R./ d p.$ H.(.G.R.,X2XN.qXqXqXqXqXqXqXqXqXg.qXqXqXqXqXqXqXqXqXqXqXqXqXqXqXqXqX",
"qXqXqXqXqXqXqXqXqXr w.7 2 6 o qXO o o O q.7 !.y.w.6 i.! E.F.*.S.;.:.2X5XqXqXqXqXqXqXqXqXqXqXqXqXqXqXqXqXqXqXqXqXqXqXqXqXqXqXqXqX",
"qXqXqXqXqXqXqXqXqXb 9 x A < qXqXo o o 2 A B K C A : 6 k 4X;XD.f.;.O.5XOXqX. qXqXqXqXqXqXqXqXqXqXqXqXqXqXqXqXqXqXqXqXqXqXqXqXqXqX",
"qXqXqXqXqXqXqXqXqXm n 0X{ qXqXqXo o - v y.S 5 9.S @ . !.;XS.T.j.$./ k . . . . . o 4 qXqXqXqXn.x.qXqXqXqXqXqXqXqXqXqXqXqXqXqXqXqX",
"qXqXqXqXqXqXqXqXqX+ 4 K } ` qXqXqXo O 5 K m c 8.S 2 1 =XY.M.I.M.~ K . .   * o . o 4 % 4 qXqXn.g.4.4.u.qXqXqXqXqXqXqXqXqXqXqXqXqX",
"qXqXqXqXqXqXqXqXqXqXqXg | { ' g qXo @ : Q.% x m V N /.W.I.5XW.h.b = = u I I 8 o o ; e B 4 N [ 2.H.^.1.^ qXqXqXqXqXqXqXqXqXqXqXqX",
"qXqXqXqXqXqXqXqXqXqXqX{ | E { } _ E 1 b 1 6 6 c 9.,X4X<X4X2X;X*XI U U I 8XI L ; z c c 1 ; 5 *.H.H.3XG.D.f qXqXqXqXqXqXqXqXqXqXqX",
"qXqXqXqXqXqXqXqXqXqXqX| | R } { _ _ 1 y o 7 m T { ,X<X4X6XOX*X8XI 8X8X8X9.!.B ; M G 6 2 5 6 7 $.R.3XT.T.O.qXqXqXqXqXqXqXqXqXqXqX",
"qXqXqXqXqXqXqXqXqXqXqXqXqXqX5.8X` } | { { | | w.9XG.;X2X5X,XB i Z P Z L U V | |  .) T ~ r._ E < R.,X:X<Xj.^ qXqXqXqXqXqXqXqXqXqX",
"qXqXqXqXqXqXqXqXqXqXqXqXqXqX}  ._ { } 6.| | | [ 6.C.K.4X6X:Xe.7 A z A B M 9 y.| | | | | | | 5.p T.:X4X4XV.%.qXqXqXqXqXqXqXqXqXqX",
"qXqXqXqXqXqXqXqXqXqXqXqXqXqX| | R ` | [ | | | 5 Q ) Z :X2X2XK.&X6X6X1 9 B x [ | |  .8X| | | 5.Y ^ oX2XoXV.&.qXqXqXqXqXqXqXqXqXqX",
"qXqXqXqXqXqXqXqXqXqXqXqXqXqX| | qXqX| W f | | + Q ( S <X4X2X;Xe.*X=XB r e.y | | | | ] | | | ' _ ^ I.1XOXV.a.qXqXqXqXqXqXqXqXqXqX",
"qXqXqXqXqXqXqXqXqXqXqXqXqXqXqXqXqX| | g + | | K ( Q.c &XOX2X;Xq.k b q.P 1 1 | T p ` | | | | } _ @.OX.X2XB.a.qXqXqXqXqXqXqXqXqXqX",
"qXqXqXqXqXqXqXqXqXqXqXqXqXqXqXqXqX| | ! + { _ J G c c S ;X2X=XB b !.C c 8 e | Q 9 T | ` a Q Q _ @.2X.X7Xz.l.qXqXqXqXqXqXqXqXqXqX",
"qXqXqXqXqXqXqXqXqXqXqXqXqXqXqXqXqXqXqXqXqX1 6 9.K 9 4 y J @X!.b A G m l 8 8 _ { c v | | h d | qX@.7X@X@X`.k.qXqXqXqXqXqXqXqXqXqX",
"qXqXqXqXqXqXqXqXqXqXqXqXqXqXqXqXqXqXqXqXqX@ 1 m A < qX).'.7X>XY.e qXqXqXqXqXqXqX1 ; f ] ( 7 E | s.@X@X X].`.qXqXqXqXqXqXqXqXqXqX",
"qXqXqXqXqXqXqXqXqXqXqXqXqXqXqXqXqXqXqXqXqX: 4 k m 4 qXqXqX@XXXx.qXqXqXqXqXqXqXqXqX1 2 H q.k k r u.{.%X X]._.qXqXqXqXqXqXqXqXqXqX",
"qXqXqXqXqXqXqXqXqXqXqXqXqXqXqXqXqXqXqXqX1 B C z c r qX).].%X].x.qXqXqXqXqXqXqXqXqXqX1 Z m m q.e.l '.%X#X|.'.qXqXqXqXqXqXqXqXqXqX",
"qXqXqXqXqXqXqXqXqXqXqXqXqXqXqXqXqXqXqXqX4 Z k r m 0 qX].].|.k.qXqXqXqXqXqXqXqXqXqXqXqXB q.r e.!.K 8.#X#X|.'.qXqXqXqXqXqXqXqXqXqX",
"qXqXqXqXqXqXqXqXqXqXqXqXqXqXqXqXqXqXqXqXA x ; 1 C k 4 ).qXqXqXqXqXqXqXqXqXqXqXqXqXqXqX4 0 @ 4 4 m J G #X|.qXqXqXqXqXqXqXqXqXqXqX",
"qXqXqXqXqXqXqXqXqXqXqXqXqXqXqXqXqXqXqXqXH 6 qX% B C 9 qXqXqXqXqXqXqXqXqXqXqXqXqXqXqXqX+ 8 @ qXqXO 6 K G #XqXqXqXqXqXqXqXqXqXqXqX",
"qXqXqXqXqXqXqXqXqXqXqXqXqXqXqXqXqXqXqX+ c qXqXqXC K r qXqXqXqXqXqXqXqXqXqXqXqXqXqXqXqX4 z + qXqXqXqXr e.b 4 qXqXqXqXqXqXqXqXqXqX",
"qXqXqXqXqXqXqXqXqXqXqXqXqXqXqXqXqXqXqX@ k qXqXqXqXP K qXqXqXqXqXqXqXqXqXqXqXqXqXqXqXqXr e.qXqXqXqXqXqXC q # qXqXqXqXqXqXqXqXqXqX",
"qXqXqXqXqXqXqXqXqXqXqXqXqXqXqXqXqXqX@ 0 k qXqXqXqXS K.qXqXqXqXqXqXqXqXqXqXqXqXqXqXqXqXA e.qXqXqXqXqXqXqXi X qXqXqXqXqXqXqXqXqXqX",
"qXqXqXqXqXqXqXqXqXqXqXqXqXqXqXqXqXqX* B qXqXqXqXqX4 Q.2 qXqXqXqXqXqXqXqXqXqXqXqXqXqX4 !.= qXqXqXqXqXqXqXi i . qXqXqXqXqXqXqXqXqX",
"qXqXqXqXqXqXqXqXqXqXqXqXqXqXqXqXqX. i X qXqXqXqXqX@ A 7 qXqXqXqXqXqXqXqXqXqXqXqXqXqX= i % qXqXqXqXqXqXqX* = qXqXqXqXqXqXqXqXqXqX",
"qXqXqXqXqXqXqXqXqXqXqXqXqXqXqXqXX = X qXqXqXqXqXqX. * 4 qXqXqXqXqXqXqXqXqXqXqXqXqX* * * qXqXqXqXqXqXqXqX. & qXqXqXqXqXqXqXqXqXqX",
"qXqXqXqXqXqXqXqXqXqXqXqXqXqXqXqXX u X qXqXqXqXqXqX. i qXqXqXqXqXqXqXqXqXqXqXqXqXqXX u X qXqXqXqXqXqXqXqXqXqXqXqXqXqXqXqXqXqXqXqX",
"qXqXqXqXqXqXqXqXqXqXqXqXqXqXqXqXqXqXqXqXqXqXqXqXqX* u * qXqXqXqXqXqXqXqXqXqXqXqXqXqXqXqXqXqXqXqXqXqXqXqXqXqXqXqXqXqXqXqXqXqXqXqX",
"qXqXqXqXqXqXqXqXqXqXqXqXqXqXqXqXqXqXqXqXqXqXqXqXqX& X qXqXqXqXqXqXqXqXqXqXqXqXqXqXqXqXqXqXqXqXqXqXqXqXqXqXqXqXqXqXqXqXqXqXqXqXqX",
"qXqXqXqXqXqXqXqXqXqXqXqXqXqXqXqXqXqXqXqXqXqXqXqXqXqXqXqXqXqXqXqXqXqXqXqXqXqXqXqXqXqXqXqXqXqXqXqXqXqXqXqXqXqXqXqXqXqXqXqXqXqXqXqX",
"qXqXqXqXqXqXqXqXqXqXqXqXqXqXqXqXqXqXqXqXqXqXqXqXqXqXqXqXqXqXqXqXqXqXqXqXqXqXqXqXqXqXqXqXqXqXqXqXqXqXqXqXqXqXqXqXqXqXqXqXqXqXqXqX",
"qXqXqXqXqXqXqXqXqXqXqXqXqXqXqXqXqXqXqXqXqXqXqXqXqXqXqXqXqXqXqXqXqXqXqXqXqXqXqXqXqXqXqXqXqXqXqXqXqXqXqXqXqXqXqXqXqXqXqXqXqXqXqXqX"
};
