/* XPM */
static char *result[] = {
/* columns rows colors chars-per-pixel */
"64 64 217 2 ",
"   c #080800",
".  c #070008",
"X  c gray3",
"o  c #100000",
"O  c #180000",
"+  c #100800",
"@  c #180800",
"#  c #140808",
"$  c #181000",
"%  c #101008",
"&  c #181008",
"*  c #0D0810",
"=  c #111010",
"-  c #171619",
";  c #210000",
":  c #210800",
">  c #210808",
",  c #211000",
"<  c #291000",
"1  c #211008",
"2  c #291008",
"3  c #211808",
"4  c #291808",
"5  c #351006",
"6  c #311808",
"7  c #3B1808",
"8  c #221010",
"9  c #281810",
"0  c #311810",
"q  c #3B1810",
"w  c #321F18",
"e  c #3D2208",
"r  c #312110",
"t  c #392110",
"y  c #392918",
"u  c #252324",
"i  c #382D2A",
"p  c #420400",
"a  c #520000",
"s  c #520B00",
"d  c #520E08",
"f  c #4D1F0D",
"g  c #6B0000",
"h  c #6B0B00",
"j  c #6A0E09",
"k  c #7F0000",
"l  c #671C09",
"z  c #4D2A0F",
"x  c #422110",
"c  c #422A10",
"v  c #4A2118",
"b  c #422918",
"n  c #4A2918",
"m  c #5A2719",
"M  c #4A311B",
"N  c #523118",
"B  c #5E3118",
"V  c #4A2921",
"C  c #523122",
"Z  c #5F3121",
"A  c #583921",
"S  c #5C3E29",
"D  c #633921",
"F  c #713921",
"G  c #7A4211",
"H  c #604421",
"J  c #6F4421",
"K  c #6B4429",
"L  c #764129",
"P  c #7A4A29",
"I  c #694831",
"U  c #6B4C39",
"Y  c #514C51",
"T  c #7D5E4D",
"R  c #8C0E08",
"E  c #940000",
"W  c #AD0000",
"Q  c #B40E00",
"!  c #B60D08",
"~  c #8E2100",
"^  c #8C2308",
"/  c #8C2310",
"(  c #8B2B1A",
")  c #B62800",
"_  c #B52308",
"`  c #B62310",
"'  c #B72C1A",
"]  c #C20000",
"[  c #CE0000",
"{  c #DA0000",
"}  c #DD0D09",
"|  c #D61C0D",
" . c #EB0000",
".. c #F70000",
"X. c red",
"o. c #F40D09",
"O. c #FF0808",
"+. c #FF100C",
"@. c #FD180E",
"#. c #FF1D18",
"$. c #DA2A00",
"%. c #D62D0C",
"&. c #CE3D06",
"*. c #DC2A1B",
"=. c #EB220C",
"-. c #FD210F",
";. c #EB3D03",
":. c #FF3E03",
">. c #F4291C",
",. c #FF2D18",
"<. c #E33E18",
"1. c #FF3D15",
"2. c #F33E19",
"3. c #FF2521",
"4. c #FF2E2C",
"5. c #FF3121",
"6. c #FF3D21",
"7. c #FF3E29",
"8. c #FF3D31",
"9. c #FF3E39",
"0. c #A34408",
"q. c #B94407",
"w. c #A2451D",
"e. c #B9481D",
"r. c #814921",
"t. c #8F4E2D",
"y. c #815929",
"u. c #805131",
"i. c #935D30",
"p. c #945F39",
"a. c #AE4C2C",
"s. c #B5602E",
"d. c #B16539",
"f. c #D05007",
"g. c #DE5A08",
"h. c #CE421C",
"j. c #CE561D",
"k. c #E84E03",
"l. c #E75A00",
"z. c #E75A08",
"x. c #FB5A04",
"c. c #FD4A13",
"v. c #E75710",
"b. c #E8521D",
"n. c #FE5614",
"m. c #E76310",
"M. c #EF6B10",
"N. c #E76319",
"B. c #E76C1D",
"V. c #EF6B18",
"C. c #F26310",
"Z. c #FD671D",
"A. c #EF731F",
"S. c #F97210",
"D. c #F9731D",
"F. c #DA502B",
"G. c #F44F2B",
"H. c #FF4A2C",
"J. c #FD5021",
"K. c #FF5529",
"L. c #FF5731",
"P. c #FF5239",
"I. c #DB6B2D",
"U. c #C57D3C",
"Y. c #EF6A21",
"T. c #EF6F2B",
"R. c #F77C29",
"E. c #E36E39",
"W. c #FE6731",
"Q. c #FF6B39",
"!. c #EC7E37",
"~. c #F77F36",
"^. c #99664A",
"/. c #9C6F59",
"(. c #A96A42",
"). c #FF4D42",
"_. c #FF534F",
"`. c #E36F45",
"'. c #FF6C45",
"]. c #FF6B58",
"[. c #DD8306",
"{. c #F7800D",
"}. c #FF8308",
"|. c #EC9A05",
" X c #FF9D00",
".X c #FF8418",
"XX c #FF9C14",
"oX c #FFB400",
"OX c #FFB412",
"+X c #FF8521",
"@X c #FF962E",
"#X c #FF8039",
"$X c #FF8C39",
"%X c #FF9739",
"&X c #FEAC38",
"*X c #FECA0A",
"=X c #FFDD11",
"-X c yellow",
";X c #FFD435",
":X c #BA804E",
">X c #DB944F",
",X c #CC9E50",
"<X c #E8874D",
"1X c #FF8142",
"2X c #FF8C42",
"3X c #FF804D",
"4X c #FF8C4C",
"5X c #FF9742",
"6X c #FF9F4F",
"7X c #F48C5E",
"8X c #FF9452",
"9X c #EEA062",
"0X c #F2BE64",
"qX c #FEC44E",
"wX c #B99D84",
"eX c #EAD2A3",
"rX c None",
/* pixels */
"rXrXrXrXrXrXrXrXrXrXrXrXrXrXrXrXrXrXrXrXrXrXrXrXrXrXrXrXrXrXrXrXrXrXrXrXrXrXrXrXrXrXrXrXrXrXrXrXrXrXrXrXrXrXrXrXrXrXrXrXrXrXrXrX",
"rXrXrXrXrXrXrXrXrXrXrXrXrXrXrXrXrXrXrXrXrXrXrXrXrXrXrXrXrXrXrXrXrXrXrXrXrXrXrXrXrXrXrXrXrXrXrXrXrXrXrXrXrXrXrXrXrXrXrXrXrXrXrXrX",
"rXrXrXrXrXrXrXrXrXrXrXrXrXrXrXrXrXrXrXrXrXrXrXrXrXrXrXrXrXrXrXrXrXy.-XrXrXrXrXrXrXrXrXrXrXrXrXrXrXrXrXrXrXrXrXrXrXrXrXrXrXrXrXrX",
"rXrXrXrXrXrXrXrXrXrXrXrXrXrXrXrXrXrXrXrXrXrXrXrXrXrXrXrXrXrXrXrXrXH ,XrXrXrXrXrXrXrXrXrXrXrXrXrXrXrXrXrXrXrXrXrXrXrXrXrXrXrXrXrX",
"rXrXrXrXrXrXrXrXrXrXrXrXrXrXrXrXrXrXrXrXrXrXrXrXrXrXrXrXrXrXrXrXrX% i.rXrXrXrXrXrXrXrXrXrXrXrXrXrXrXrXrXrXrXrXrXrXrXrXrXrXrXrXrX",
"rXrXrXrXrXrXrXrXrXrXrXrXrXrXrXrXrXrXrXrXrXrXrXrXrXrXrXrXrXrXrXrXrX% p.rXrXrXrXrXrXrXrXrXrXrXrXrXrXrXrXrXrXrXrXrXrXrXrXrXrXrXrXrX",
"rXrXrXrXrXrXrXrXrXrXrXrXrXrXrXrXrXrXrXrXrXrXrXrXrXrXrXrXrXrXrXrXrX% p.rXrXrXrXrXrXrXrXrXrXrXrXrXrXrXrXrXrXrXrXrXrXrXrXrXrXrXrXrX",
"rXrXrXrXrXrXrXrXrXrXrXrXrXrXrXrXrXrXrXrXrXrXrXrXrXrXrXrXrXrXrXrXrX% p.rXrXrXrXrXrXrXrXrXrXrXrXrXrXrXrXrXrXrXrXrXrXrXrXrXrXrXrXrX",
"rXrXrXrXrXrXrXrXrXrXrXrXrXrXrXrXrXrXrXrXrXrXrXrXrXrXrXrXrXrXrXrXrX% p.rXrXrXrXrXrXrXrXrXrXrXrXrXrXrXrXrXrXrXrXrXrXrXrXrXrXrXrXrX",
"rXrXrXrXrXrXrXrXrXrXrXrXrXrXrXrXrXrXrXrXrXrXrXrXrXrXrXrXrXrXrXrXrX% p.rXrXrXrXrXrXrXrXrXrXrXrXrXrXrXrXrXrXrXrXrXrXrXrXrXrXrXrXrX",
"rXrXrXrXrXrXrXrXrXrXrXrXrXrXrXrXrXrXrXrXrXrXrXrXz.rXrXrXrXrXrXrXrX% p.rXrXrXrXrXrXrXrXrXrXrXrXrXrXrXrXrXrXrXrXrXrXrXrXrXrXrXrXrX",
"rXrXrXrXrXrXrXrXrXrXrXrXrXrXrXrXrXrXrXrXrXrXrXrXN.v.rXrXrXrXrXrXrX% p.rXrXrXrXrXrXrXrXrXrXrXrXrXrXrXrXrXrXrXrXrXrXrXrXrXrXrXrXrX",
"rXrXrXrXrXrXrXrXrXrXrXrXrXrXrXrXrXrXrXrXrXrXrXrXz.rXrXrXrXrXrXrXrX% p.rXrXrXrXrXrXrXrXrXrXrXrXrXrXrXrXrXrXrXrXrXrXrXrXrXrXrXrXrX",
"rXrXrXrXrXrXrXrXrXrXrXrXrXrXrXrXrXrXrXrXrXrXM.z.m.m.M.rXrXrXrXrXrX% p.rXrXrXrXrXrXrXrXrXrXrXrXrXrXrXrXrXrXrXrXrXrXrXrXrXrXrXrXrX",
"rXrXrXrXrXrXrXrXrXrXrXrXrXrXrXrXrXrXrXrXrXrXrXrXM.A.D._ E k ~ rXrX% p.rXrXrXrXrXrXrXrXrXrXrXrXrXrXrXrXrXrXrXrXrXrXrXrXrXrXrXrXrX",
"rXrXrXrXrXrXrXrXrXrXrXrXrXrXrXrXrXrXrXrXrXrXrXrXrXm.A.=.O...E z.rX% p.rXrXrXrXrXrXrXrXrXrXrXrXrXrXrXrXrXrXrXrXrXrXrXrXrXrXrXrXrX",
"rXrXrXrXrXrXrXrXrXrXrXrXrXrXrXrXrXrXrXrXrXrXrXrXrXrX;.7.4.#.O.f.rX% p.rXrXrXrXrXrXrXrXrXrXrXrXrXrXrXrXrXrXrXrXrXrXrXrXrXrXrXrXrX",
"rXrXrXrXrXrXrXrXrXrXrXrXrXrXrXrXrXrXrXrXrXrXrXrXrXrXV.P.8.8.#.` z.% p.rXrXrXrXrXrXrXrXrXrXrXrXrXrXrXrXrXrXrXrXrXrXrXrXrXrXrXrXrX",
"rXrXrXrXrXrXrXrXrXrXrXrXrXrXrXrXrXrXrXrXrXrXrXrXrXR.+XZ.Q.L.3.h.rX% p.rXrXm.rXm.m.m.rXrXrXrXrXrXrXrXrXrXrXrXrXrXrXrXrXrXrXrXrXrX",
"rXrXrXrXrXrXrXrXrXrXrXrXrXrXrXrXrXrXrXrXrXrXrXrXrX@X@XZ.Q.J.*.f.z.% p.rXrXrXT.T.N.rXrXrXrXrXrXrXrXrXrXrXrXrXrXrXrXrXrXrXrXrXrXrX",
"rXrXrXrXrXrXrXrXrXrXrXrXrXrXrXrXrXrXrXrXrXrXrXrXM.@Xb.b.s.b.j.D.A.% p.rXrXrXrXrXrXrXrXrXrXrXrXrXrXrXrXrXrXrXrXrXrXrXrXrXrXrXrXrX",
"rXrXrXrXrXrXrXrXrXrXrXrXrXrXrXrXrXrXrXrXrXrXrXrX$XB.2.<.h.F G B.A.% p.rXrXrXrXrXrXrXl.}.|.|.G [.*X*XrXrXrXrXrXrXrXrXrXrXrXrXrXrX",
"rXrXrXrXrXrXrXrXrXrXrXrXrXrXrXrXrXrXrXrXrXrXrXrXR.b.G.K.6.e.F w.D.:Xp.rXrXz.rXrXrXS.XX;X;X|.G H ,X=XrXrXrXrXrXrXrXrXrXrXrXrXrXrX",
"rXrXrXrXrXrXrXrXrXrXrXrXrXrXrXrXrXrXrXrXrXrXrXrXR.J.6.'.8.F.J.F I.:Xp.rXrXrXk.;.&XqX{.t n : v A 4 1 rXrXrXrXrXrXrXrXrXrXrXrXrXrX",
"rXrXrXrXrXrXrXrXrXrXrXrXrXrXrXrXrXrXrXrXrXrXrXrXR.K.J.3X5.L.P.( I./.A.rXrXrXv.D.0XqXz f z < m p.r & + rXrXrXrXrXrXrXrXrXrXrXrXrX",
"rXrXrXrXrXrXrXrXrXrXrXrXrXrXrXrXrXrXrXrXrXrXrXrX#XG.H.5.} L.L.F.'./.E.m.rXrXq.T.G 6 @ x P r.N u.u.i   rXrXrXrXrXrXrXrXrXrXrXrXrX",
"rXrXrXrXrXrXrXrXrXrXrXrXrXrXrXrXrXrXrXrXrXrXrXrX#X6.'.-.| L.H.E.1X/.m.rXk.&.#XR.M 7 r A I Z x A :Xw X rXrXrXrXrXrXrXrXrXrXrXrXrX",
"rXrXrXrXrXrXrXrXrXrXrXrXrXrXrXrXrXrXrXrXrXrXrXrXV.7.7.*.F.8.*.T.#X# i.j ) Q.&.n u.d.: I x p.P N i.x 6 4 rXrXrXrXrXrXrXrXrXrXrXrX",
"rXrXrXrXrXrXrXrXrXrXrXrXrXrXrXrXrXrXrXrXrXrXrXrXV.+.8.'.*.F.w.r.#X% $.2.4X9X7 1 (.(.b N 2 p.Z x J 7 e K & rXrXrXrXrXrXrXrXrXrXrX",
"rXrXrXrXrXrXrXrXrXrXrXrXrXrXrXrXrXrXrXrXrXrXrXrXm.G.@.6.P.5.' w.B.& ) G.3X&.N n M u.C L 2 v 6 2 q 1 6 N b & rXrXrXrXrXrXrXrXrXrX",
"rXrXrXrXrXrXrXrXrXrXrXrXrXrXrXrXrXrXrXrXrXrXrXrXR.8XQ.5.K.4._.>.F.d ` 6.b.B d.d.< n 1 0 o o rXrXrXc u.y.N o rXrXrXrXrXrXrXrXrXrX",
"rXrXrXrXrXrXrXrXrXrXrXrXrXrXrXrXrXrXrXrXrXrXrXrXY.#X5X=.%.F.h.9.=.j.p %.^ y.U.d.6 S x o o o rXrXrX .<XH & rXrXrXrXrXrXrXrXrXrXrX",
"rXrXrXrXrXrXrXrXrXrXrXrXrXrXrXrXrXrXrXrXrXrXrXrXrX2X8X~.b.6.c.` 9.| h.h.+ n i.i.D F d.; o o rXrXrX..X.rXrXrXrXrXrXrXrXrXrXrXrXrX",
"rXrXrXrXrXrXrXrXrXrXm.rXN.rXrXrXrXrXrXrXrXrXrXrXrXA.2X8XF.c.J.%.%.`.2 o @ x B N P t.d.; o o rXrX] ..X...rXrXrXrXrXrXrXrXrXrXrXrX",
"rXrXrXrXrXrXrXrXrXrXrXm.B.rXrXrXrXrXrXrXrXrXrXrX. . . !.I.1.:.c.c.a.9 X & 7 F P b I N o o rXrX{ X.{ X.X.rXrXrXrXrXrXrXrXrXrXrXrX",
"rXrXrXrXrXrXrXrXrXrXrXv.rXQ ) rXrXrXrXrXrXrXrXrX. . . . w $.:.Z.n.b.:X9 2 K 6 0 0 0 p.7 @ ; a X...W X.X.rXrXrXrXrXrXrXrXrXrXrXrX",
"rXrXrXrXrXrXrXrXrXrXrX$.J._.P.>.! rXrX& 1 9 . o . u = X = C 0.n.6XZ.<X>X..R i.N : 0 2 b & ] [ | ' k rXX.rXrXrXrXrXrXrXrXrXrXrXrX",
"rXrXrXrXrXrXrXrXrX) &.#X1X3X3X].].Q r b 0 : + + n T Y Y Y Y T &.C.0X4X9X,.X...! B 7 o j E X.{ a.` rXrXrXrXrXrXrXrXrXrXrXrXrXrXrX",
"rXrXrXrXrXrXrXrXrX;.n.4X1X3X'.P.)._ r b , n 7 2 ^.T wX/.T Y wX/.n.6X1X<X5.X.*.` X. . .X.X.X.[ X.X.rXrXrXrXrXrXrXrXrXrXrXrXrXrXrX",
"rXrXrXrXrXrXrXrXrXn.R.2X8X3X_ rX1 : < 1 t P N < d @.*.Y Y Y Y S :X2X9X3X:X( | } X.X.X.wX` X.W ..X./ rXrXrXrXrXrXrXrXrXrXrXrXrXrX",
"rXrXrXrXrXrXrXrXrXx.R.8X2XW.R rX1 7 n 2 o (.w.^ X.( ^.U V C Z (.I.8X4X7X7Xa.X.! X.X.X.[ X.X.rXX.X.rXrXrXrXrXrXrXrXrXrXrXrXrXrXrX",
"rXrXrXrXrXrXrXrXrX;.+XR.6X&.rXrXk X.=.} X.X.X.X.eXd N r b 9X>XU.x.0X8X>Xu.m X.d ! X.n # W X.X.rXrXrXrXrXrXrXrXrXrXrXrXrXrXrXrXrX",
"rXrXrXrXrXrXrXrXrXk..X@X5Xh.rX@ ( X.X.X.a.| X.X.d.j b 1 M :X0Xj.C.0X8X>X2 D X.w.! X.p o k X.X.rXrXrXrXrXrXrXrXrXrXrXrXrXrXrXrXrX",
"rXrXrXrXrXrXrXrXrX}..X&X6XN.rXa R X.X.X.` o.X.X.X.l K p.>XK t E.S.%X:Xb N D B L q 5 p @ @ + rXrXrXrXrXrXrXrXrXrXrXrXrXrXrXrXrXrX",
"rXrXrXrXrXrX|.|.}.OX&X&X6Xb.rXg ] X.X.X.X.X.X.[ X.d 2 y C I S <X.X%XP i n B F t.D 7 9 2 1 r 4 + rXrXrXrXrXrXrXrXrXrXrXrXrXrXrXrX",
"rXrXrXE =X;X;X;X;X;XqXqXqXrXrXj s X.Q E X.X.q 6 X.d 9 t N P u.>X5X<Xr w 9 9 4 6 Z q $ 4 x p.:XP r rXrXrXrXrXrXrXrXrXrXrXrXrXrXrX",
"rXrXrXrX*X=X;X;X;X;XqX&XS.rXrXh i X.@ e X.X.b v ] 2 rXrXrX3 0.6X&XT.rXrXrXrXrX< v 7 4 rXrXrX> x x rXrXrXrXrXrXrXrXrXrXrXrXrXrXrX",
"rXrXrXrXrX*X*X=X;X;X;Xg.rXrXrXk W X.@ 6 X.X.: 1 1 rXrXrXrXrXrX5X&XV.rXrXrXrXrX2 v x 1 rXrXrXrX6 J rXrXrXrXrXrXrXrXrXrXrXrXrXrXrX",
"rXrXrXrXrXrXrXrXrXrXrXrXrXrXrXrXrXE 2 x D 7 1 C 1 rXrXrXrXrXrX%XOXoX}.rXrXrXrXrXt N 4 rXrXrXrX2 P 0 rXrXrXrXrXrXrXrXrXrXrXrXrXrX",
"rXrXrXrXrXrXrXrXrXrXrXrXrXrXrXrXrXt N (.t , @ C 1 rXrXrXrXrXrX4X@X X X|.rXrXrXrX6 D b rXrXrXrXrXF 1 + rXrXrXrXrXrXrXrXrXrXrXrXrX",
"rXrXrXrXrXrXrXrXrXrXrXrXrXrXrX4 K t.M 0 rXrX6 N 4 rXrXrXrXrXrXN.rXrXrXrXrXrXrXrX0 N u.rXrXrXrXrXO - = rXrXrXrXrXrXrXrXrXrXrXrXrX",
"rXrXrXrXrXrXrXrXrXrXrXrXrXrXrX2 F (.0 1 rXrX4 A 4 rXrXrXrXrXrXrXrXrXrXrXrXrXrXrXrXt p.rXrXrXrXrXrX= i . rXrXrXrXrXrXrXrXrXrXrXrX",
"rXrXrXrXrXrXrXrXrXrXrXrXrXrXrX4 N 2 rXrXrXrXo , Z 1 r rXrXrXrXrXrXrXrXrXrXrXrXrXrXrXC 1 rXrXrXrXrX= - * rXrXrXrXrXrXrXrXrXrXrXrX",
"rXrXrXrXrXrXrXrXrXrXrXrXrXrXrX1 m rXrXrXrXrXrXrXo Z u.w y rXrXrXrXrXrXrXrXrXrXrXrXrXN n & rXrXrXrXrXrXrXrXrXrXrXrXrXrXrXrXrXrXrX",
"rXrXrXrXrXrXrXrXrXrXrXrXrXrXrX2 n rXrXrXrXrXrXrXrX2 N ^.I r rXrXrXrXrXrXrXrXrXrXrXrX< u.A rXrXrXrXrXrXrXrXrXrXrXrXrXrXrXrXrXrXrX",
"rXrXrXrXrXrXrXrXrXrXrXrXrXrXrX2 J rXrXrXrXrXrXrXrXrXrXX u = X rXrXrXrXrXrXrXrXrXrXrXrXt.(.X X rXrXrXrXrXrXrXrXrXrXrXrXrXrXrXrXrX",
"rXrXrXrXrXrXrXrXrXrXrXrXrXrXrX4 D 0 rXrXrXrXrXrXrXrXrXrXX u X rXrXrXrXrXrXrXrXrXrXrXrXt I i - . rXrXrXrXrXrXrXrXrXrXrXrXrXrXrXrX",
"rXrXrXrXrXrXrXrXrXrXrXrXrXrXrX& 8 9 rXrXrXrXrXrXrXrXrXrXrX- - . rXrXrXrXrXrXrXrXrXrXrXrXrXX u X rXrXrXrXrXrXrXrXrXrXrXrXrXrXrXrX",
"rXrXrXrXrXrXrXrXrXrXrXrXrXrXrX@ # u rXrXrXrXrXrXrXrXrXrXrX. rXrXrXrXrXrXrXrXrXrXrXrXrXrXrXX . rXrXrXrXrXrXrXrXrXrXrXrXrXrXrXrXrX",
"rXrXrXrXrXrXrXrXrXrXrXrXrXrXrXrX. i X rXrXrXrXrXrXrXrXrXrXrXrXrXrXrXrXrXrXrXrXrXrXrXrXrXrXrXrXrXrXrXrXrXrXrXrXrXrXrXrXrXrXrXrXrX",
"rXrXrXrXrXrXrXrXrXrXrXrXrXrXrXrXrX- X rXrXrXrXrXrXrXrXrXrXrXrXrXrXrXrXrXrXrXrXrXrXrXrXrXrXrXrXrXrXrXrXrXrXrXrXrXrXrXrXrXrXrXrXrX",
"rXrXrXrXrXrXrXrXrXrXrXrXrXrXrXrXrXrXrXrXrXrXrXrXrXrXrXrXrXrXrXrXrXrXrXrXrXrXrXrXrXrXrXrXrXrXrXrXrXrXrXrXrXrXrXrXrXrXrXrXrXrXrXrX",
"rXrXrXrXrXrXrXrXrXrXrXrXrXrXrXrXrXrXrXrXrXrXrXrXrXrXrXrXrXrXrXrXrXrXrXrXrXrXrXrXrXrXrXrXrXrXrXrXrXrXrXrXrXrXrXrXrXrXrXrXrXrXrXrX",
"rXrXrXrXrXrXrXrXrXrXrXrXrXrXrXrXrXrXrXrXrXrXrXrXrXrXrXrXrXrXrXrXrXrXrXrXrXrXrXrXrXrXrXrXrXrXrXrXrXrXrXrXrXrXrXrXrXrXrXrXrXrXrXrX"
};
