/* XPM */
static char *player_down_7[] = {
/* columns rows colors chars-per-pixel */
"64 64 191 2 ",
"   c black",
".  c #080800",
"X  c #070008",
"o  c gray3",
"O  c #100000",
"+  c #180000",
"@  c #100800",
"#  c #180800",
"$  c #140808",
"%  c #181000",
"&  c #101008",
"*  c #181008",
"=  c #0D0810",
"-  c #111010",
";  c #171619",
":  c #210000",
">  c #290501",
",  c #210800",
"<  c #211000",
"1  c #291000",
"2  c #281900",
"3  c #211008",
"4  c #291008",
"5  c #211808",
"6  c #291808",
"7  c #351006",
"8  c #311808",
"9  c #3B1808",
"0  c #281810",
"q  c #311810",
"w  c #321F18",
"e  c #292108",
"r  c #3D2208",
"t  c #312110",
"y  c #392110",
"u  c #392910",
"i  c #392918",
"p  c #252324",
"a  c #382D2A",
"s  c #420400",
"d  c #520000",
"f  c #520E08",
"g  c #6B0000",
"h  c #6B0B00",
"j  c #6A0E09",
"k  c #7F0000",
"l  c #671C09",
"z  c #422110",
"x  c #422A10",
"c  c #422918",
"v  c #4A2918",
"b  c #5A2719",
"n  c #4A311B",
"m  c #5C3C14",
"M  c #523118",
"N  c #5E3118",
"B  c #642C0C",
"V  c #4A2921",
"C  c #523122",
"Z  c #5F3121",
"A  c #583921",
"S  c #5C3E29",
"D  c #633921",
"F  c #713921",
"G  c #7A4211",
"H  c #604421",
"J  c #6F4421",
"K  c #764129",
"L  c #7A4A29",
"P  c #8B0B00",
"I  c #8C0E08",
"U  c #940000",
"Y  c #AD0000",
"T  c #B40E00",
"R  c #B60D08",
"E  c #8C2308",
"W  c #8B2B1A",
"Q  c #B52308",
"!  c #B62310",
"~  c #B72C1A",
"^  c #CE0000",
"/  c #D61C0D",
"(  c red",
")  c #F40D09",
"_  c #FF0808",
"`  c #FF100C",
"'  c #FD180E",
"]  c #FF1D18",
"[  c #D62D0C",
"{  c #EB220C",
"}  c #FD210F",
"|  c #EB3D03",
" . c #F4291C",
".. c #FF2D18",
"X. c #E33E18",
"o. c #F33E19",
"O. c #FF2521",
"+. c #FF2E2C",
"@. c #FF3121",
"#. c #FF3D21",
"$. c #FF3E29",
"%. c #FF3D31",
"&. c #FF3E39",
"*. c #A34408",
"=. c #B94407",
"-. c #A2451D",
";. c #B9481D",
":. c #A86910",
">. c #814921",
",. c #8F4E2D",
"<. c #815929",
"1. c #805131",
"2. c #935D30",
"3. c None",
"4. c #AE4C2C",
"5. c #B5602E",
"6. c #B16539",
"7. c #D05007",
"8. c #CE421C",
"9. c #CE561D",
"0. c #E75A00",
"q. c #E75A08",
"w. c #E75710",
"e. c #E8521D",
"r. c #D66911",
"t. c #E76406",
"y. c #E76310",
"u. c #E76F10",
"i. c #EF6B10",
"p. c #E76319",
"a. c #EF6318",
"s. c #E76C1D",
"d. c #EF6B18",
"f. c #EF731F",
"g. c #F97210",
"h. c #F9731D",
"j. c #DA502B",
"k. c #F44F2B",
"l. c #FF4A2C",
"z. c #FD5021",
"x. c #EC503E",
"c. c #FF5239",
"v. c #DB6B2D",
"b. c #C57D3C",
"n. c #EF6A21",
"m. c #EF6F2B",
"M. c #FC732D",
"N. c #F77C29",
"B. c #E36E39",
"V. c #FE6731",
"C. c #FF6B39",
"Z. c #EC7E37",
"A. c #F77F36",
"S. c #99664A",
"D. c #A96A42",
"F. c #FF4D42",
"G. c #FF534F",
"H. c #E36F45",
"J. c #FF6C45",
"K. c #FF6B58",
"L. c #DD8306",
"P. c #F7800D",
"I. c #FF8308",
"U. c #EC9A05",
"Y. c #FF9D00",
"T. c #FF8418",
"R. c #FF9C14",
"E. c #EFB206",
"W. c #FFB400",
"Q. c #FF8521",
"!. c #FF962E",
"~. c #E58C3A",
"^. c #FF8039",
"/. c #FF8C39",
"(. c #FF9739",
"). c #FEAC38",
"_. c #FECA0A",
"`. c #FFDD11",
"'. c yellow",
"]. c #BA804E",
"[. c #DB944F",
"{. c #CC9E50",
"}. c #E8874D",
"|. c #FF8142",
" X c #FF8C42",
".X c #FF8C4C",
"XX c #FF9F4F",
"oX c #FF9452",
"OX c #EEA062",
"+X c #FEC44E",
"@X c #B99D84",
/* pixels */
"                                                                                                                                ",
"                                                                                                                                ",
"                                                                                                                                ",
"                                                                                <.'.                                            ",
"                                                                                H {.                                            ",
"                                                                                & 2.                                            ",
"                                                                                & 3.                                            ",
"                                                                                & 3.                                            ",
"                                                                                & 3.                                            ",
"                                                                y.              & 3.                                            ",
"                                                                  s.w.          & 3.                                            ",
"                                                                  p.m.  t.      & 3.                                            ",
"                                                                  w.s.0.        & 3.                                            ",
"                                                                    y.g.g.0.    & 3.                                            ",
"                                                          y.  =.=.  y.0.Q.Q.    & 3.                                            ",
"                                                          y.~ g g *.    T.Q.0.  & 3.                                            ",
"                                                      0.t.| ( %.O.P 7.  g.Q.y.  & 3.                                            ",
"                                                    0.h.P.a.) &.] E i.y.!.Q.t.  & 3.                                            ",
"                                                    !.Q.N.N.{ ] / -.Q.!.(.(.    & 3.                                            ",
"                                                    !.N.N.A.o.} / ;.T.T.!.(.    & 3.                                            ",
"                                                  h.(.e.o.c.c.&. .l T Q v.N.f.  & 3.                                            ",
"                                                  N.e.#.#.) _ $.G.U Y } o.E /.  & 3.                                            ",
"                                                  /.z.V.l.` ` ) +.^ Y } l.[ N.  & 3.                                            ",
"                                                a.A.M.#.l.K.G.] F.' ( { @...v.a.& 3.                                            ",
"                                                N.e.oX#.c.K.K.+.G.] ( / #.] v.y.& 3.                                            ",
"                                                o.] l.A. .%.K.&.F.+._ -.k.@.-.f.& 3.                                            ",
"                                                { ..x.d.e.@.$.e.j.}  .A.C...4.Z.& 3.                                            ",
"                                                ] ..s.N.N.@.l.I.r.l.X.XX X|.x.~ ~ v.                                            ",
"                                                ' o.q.^.N.o.,.U.L.,.8.XXy.XXZ.~ J.v.                                            ",
"                                              y.X.B.  ^.^.5.D._.E.S -.XX    N.d.B.d                                             ",
"                                              e.%.p.y.oXv.{ M `._.0 j.XXf.i.    $ 2.                                            ",
"                                              o.o.k.i.9.8.W x `._.4 :.~.N.N.    & 3.                                            ",
"                                              A.a.y.s.V.V.8 6 5 e @ @ 4.6.B.y.  & 3.                                            ",
"                                                y.d.m.^.C.K 1.1.1.q % 5.6.5.^.q.* 3.                                            ",
"                                                n.Z.^.|.|.c D.[.].A 8 v.b.5.b..Xw 3.                                            ",
"                                              q.A.A.|.|.^.4 1.].S.x @ H.B.b.4.oXy.3.                                            ",
"                                              A.|. X^.>.* > 8 A c * O O H.B.5.b.oXa.                                            ",
"                                              oXoXXXM V 4 u @ 2.L + O # L J.H.}. X                                              ",
"                                              oXXXOXB Z 6 @Xn 1.3.s X @ v.H.|.H.^.                                              ",
"                                            n.oX{.3..X# 7 H m 3.<.8 f O D .XoX.XoXn.                                            ",
"                                            A.oX@X,.oXh ^ 1.1.N M n j O O }.oX.XXXA.                                            ",
"                                            y. X].W @X( ^ w i C S a I : O ,.oXoXoXn.                                            ",
"                                              m.@X,.].U Y $ O X X . h > . b oXoX.X                                              ",
"                                              d.,.-.! @ @ c S @ @ C i g : E  X|.d.                                              ",
"                                              d.6.,.R y 4 # + # @ # # k d >./.A.y.                                              ",
"                                                ;.].b.+ O O O @ O O O d s v./.N.                                                ",
"                                                (.+Xf.z A F D v M F J y 3 v.!.N.                                                ",
"                                                !.).s.t ,.6 M :.>.z 9 y # d.!.T.                                                ",
"                                              P.Y.I.y.9 J 3 :.W.Y.G r 8 @ y.R.Y.r.L.                                            ",
"                                            Y.Y.P.u.  6 A , :.W.W.*.2 4 @   |./.U.U.                                            ",
"                                                      x v 3 @ _._.1 x 3 @                                                       ",
"                                                      0 8 #   :.:.& C x                                                         ",
"                                                      p 1.8 @     q D.n                                                         ",
"                                                      o i 9 #     y ].q                                                         ",
"                                                      = i q @     t A i                                                         ",
"                                                        y #         D S                                                         ",
"                                                        v ,         N o                                                         ",
"                                                        y v       < L a X                                                       ",
"                                                        r 8       @ q ; X                                                       ",
"                                                        3 o X     ; o                                                           ",
"                                                        - o o     o - X                                                         ",
"                                                                                                                                ",
"                                                                                                                                ",
"                                                                                                                                "
};
