/* XPM */
static char *result[] = {
/* columns rows colors chars-per-pixel */
"64 64 220 2 ",
"   c #080800",
".  c #070008",
"X  c gray3",
"o  c #100000",
"O  c #180000",
"+  c #100800",
"@  c #180800",
"#  c #140808",
"$  c #181000",
"%  c #101008",
"&  c #181008",
"*  c #0D0810",
"=  c #111010",
"-  c #171619",
";  c #210000",
":  c #210800",
">  c #210808",
",  c #350301",
"<  c #211000",
"1  c #291000",
"2  c #211008",
"3  c #291008",
"4  c #211808",
"5  c #291808",
"6  c #351006",
"7  c #311808",
"8  c #3B1808",
"9  c #281810",
"0  c #311810",
"q  c #3B1810",
"w  c #321F18",
"e  c #3D2208",
"r  c #312110",
"t  c #392110",
"y  c #392910",
"u  c #392918",
"i  c #252324",
"p  c #382D2A",
"a  c #420400",
"s  c #520000",
"d  c #520B00",
"f  c #6B0000",
"g  c #6A0E09",
"h  c #7F0000",
"j  c #671C09",
"k  c #4D2A0F",
"l  c #422110",
"z  c #422A10",
"x  c #4A2118",
"c  c #422918",
"v  c #4A2918",
"b  c #5A2719",
"n  c #4A311B",
"m  c #5C3C14",
"M  c #523118",
"N  c #5E3118",
"B  c #642C0C",
"V  c #4A2921",
"C  c #523122",
"Z  c #5F3121",
"A  c #583921",
"S  c #5C3E29",
"D  c #633921",
"F  c #713921",
"G  c #604421",
"H  c #6F4421",
"J  c #6B4429",
"K  c #7A4A29",
"L  c #514C51",
"P  c #7D5E4D",
"I  c #8B0B00",
"U  c #8C0E08",
"Y  c #940000",
"T  c #AD0000",
"R  c #B40E00",
"E  c #B60D08",
"W  c #8E2100",
"Q  c #8C2308",
"!  c #8C2310",
"~  c #8B2B1A",
"^  c #B62800",
"/  c #B52308",
"(  c #B62310",
")  c #B72C1A",
"_  c #C20000",
"`  c #CE0000",
"'  c #DA0000",
"]  c #DA0C00",
"[  c #DD0D09",
"{  c #D61C0D",
"}  c #EB0000",
"|  c #F70000",
" . c red",
".. c #F40D09",
"X. c #FF0808",
"o. c #FF100C",
"O. c #FD180E",
"+. c #FF1D18",
"@. c #DA2A00",
"#. c #D62D0C",
"$. c #CE3D06",
"%. c #DC2A1B",
"&. c #EB220C",
"*. c #FD210F",
"=. c #FD2D0D",
"-. c #EB3D03",
";. c #FF3E03",
":. c #F4291C",
">. c #FF2D18",
",. c #E33E18",
"<. c #FF3D15",
"1. c #F33E19",
"2. c #FF2521",
"3. c #FF2E2C",
"4. c #FF3121",
"5. c #FF3D21",
"6. c #FF3E29",
"7. c #FF3D31",
"8. c #A34408",
"9. c #B94407",
"0. c #B9481D",
"q. c #A86910",
"w. c #814921",
"e. c #8F4E2D",
"r. c #815929",
"t. c #805131",
"y. c #935D30",
"u. c #945F39",
"i. c #AE4C2C",
"p. c #B5602E",
"a. c #B16539",
"s. c #D05007",
"d. c #DE5A08",
"f. c #CE421C",
"g. c #CE561D",
"h. c #E84E03",
"j. c #FF4E04",
"k. c #E75A00",
"l. c #E75A08",
"z. c #FB5A04",
"x. c #FD4A13",
"c. c #E75710",
"v. c #E8521D",
"b. c #FE5614",
"n. c #D66911",
"m. c #F36305",
"M. c #F66E05",
"N. c #E76310",
"B. c #E76F10",
"V. c #EF6B10",
"C. c #E76319",
"Z. c #EF6318",
"A. c #E76C1D",
"S. c #FD671D",
"D. c #EF731F",
"F. c #F97210",
"G. c #F9731D",
"H. c #DA502B",
"J. c #F44F2B",
"K. c #FF4A2C",
"L. c #FD5021",
"P. c #FF5529",
"I. c #EC503E",
"U. c #FF5731",
"Y. c #FF5239",
"T. c #DB6B2D",
"R. c #C57D3C",
"E. c #EF6A21",
"W. c #EF6F2B",
"Q. c #FC732D",
"!. c #F77C29",
"~. c #FE6731",
"^. c #FF6B39",
"/. c #EC7E37",
"(. c #F77F36",
"). c #99664A",
"_. c #9C6F59",
"`. c #A96A42",
"'. c #FF4D42",
"]. c #FF534F",
"[. c #FF6C45",
"{. c #FF6B58",
"}. c #DD8306",
"|. c #F7800D",
" X c #FF8308",
".X c #EC9A05",
"XX c #FF9D00",
"oX c #FF9C14",
"OX c #EFB206",
"+X c #FFB400",
"@X c #FFB412",
"#X c #FF8521",
"$X c #FF962E",
"%X c #FF8039",
"&X c #FF8C39",
"*X c #FF9739",
"=X c #FEAC38",
"-X c #FECA0A",
";X c #FFDD11",
":X c yellow",
">X c #FFD435",
",X c #BA804E",
"<X c #B98A68",
"1X c #DB944F",
"2X c #CC9E50",
"3X c #E8874D",
"4X c #FF8142",
"5X c #FF8C42",
"6X c #FF804D",
"7X c #FF8C4C",
"8X c #FF9742",
"9X c #FF9F4F",
"0X c #FF9452",
"qX c #EEA062",
"wX c #F2BE64",
"eX c #FEC44E",
"rX c #B99D84",
"tX c #E1B68E",
"yX c #F3D8B9",
"uX c None",
/* pixels */
"uXuXuXuXuXuXuXuXuXuXuXuXuXuXuXuXuXuXuXuXuXuXuXuXuXuXuXuXuXuXuXuXuXuXuXuXuXuXuXuXuXuXuXuXuXuXuXuXuXuXuXuXuXuXuXuXuXuXuXuXuXuXuXuX",
"uXuXuXuXuXuXuXuXuXuXuXuXuXuXuXuXuXuXuXuXuXuXuXuXuXuXuXuXuXuXuXuXuXuXuXuXuXuXuXuXuXuXuXuXuXuXuXuXuXuXuXuXuXuXuXuXuXuXuXuXuXuXuXuX",
"uXuXuXuXuXuXuXuXuXuXuXuXuXuXuXuXuXuXuXuXuXuXuXuXuXuXuXuXuXuXuXuXuXuXuXuXuXuXuXuXuXuXuXuXuXuXuXuXuXuXuXuXuXuXuXuXuXuXuXuXuXuXuXuX",
"uXuXuXuXuXuXuXuXuXuXuXuXuXuXuXuXuXuXuXuXuXuXuXuXuXuXuXuXuX:Xr.uXuXuXuXuXuXuXuXuXuXuXuXuXuXuXuXuXuXuXuXuXuXuXuXuXuXuXuXuXuXuXuXuX",
"uXuXuXuXuXuXuXuXuXuXuXuXuXuXuXuXuXuXuXuXuXuXuXuXuXuXuXuXuX2XG uXuXuXuXuXuXuXuXuXuXuXuXuXuXuXuXuXuXuXuXuXuXuXuXuXuXuXuXuXuXuXuXuX",
"uXuXuXuXuXuXuXuXuXuXuXuXuXuXuXuXuXuXuXuXuXuXuXuXuXuXuXuXuXy.% uXuXuXuXuXuXuXuXuXuXuXuXuXuXuXuXuXuXuXuXuXuXuXuXuXuXuXuXuXuXuXuXuX",
"uXuXuXuXuXuXuXuXuXuXuXuXuXuXuXuXuXuXuXuXuXuXuXuXuXuXuXuXuXu.% uXuXuXuXuXuXuXuXuXuXuXuXuXuXuXuXuXuXuXuXuXuXuXuXuXuXuXuXuXuXuXuXuX",
"uXuXuXuXuXuXuXuXuXuXuXuXuXuXuXuXuXuXuXuXuXuXuXuXuXuXuXuXuXu.% uXuXuXuXuXuXuXuXuXuXuXuXuXuXuXuXuXuXuXuXuXuXuXuXuXuXuXuXuXuXuXuXuX",
"uXuXuXuXuXuXuXuXuXuXuXuXuXuXuXuXuXuXuXuXuXuXuXuXuXuXuXuXuXu.% uXuXuXuXuXuXuXuXuXuXuXuXuXuXuXuXuXuXuXuXuXuXuXuXuXuXuXuXuXuXuXuXuX",
"uXuXuXuXuXuXuXuXuXuXuXuXuXuXuXuXuXuXuXuXuXuXuXuXuXuXuXuXuXu.% uXuXuXuXuXuXuXuXuXuXuXuXuXuXuXuXuXuXuXuXuXuXuXuXuXuXuXuXuXuXuXuXuX",
"uXuXuXuXuXuXuXuXuXuXuXuXuXuXuXuXuXuXuXuXuXuXuXuXuXuXuXuXuXu.% uXuXuXuXuXuXuXk.uXuXuXuXuXuXuXuXuXuXuXuXuXuXuXuXuXuXuXuXuXuXuXuXuX",
"uXuXuXuXuXuXuXuXuXuXuXuXuXuXuXuXuXuXuXuXuXuXuXuXuXuXuXuXuXu.% uXuXuXuXuXuXuXl.uXuXA.uXuXuXuXuXuXuXuXuXuXuXuXuXuXuXuXuXuXuXuXuXuX",
"uXuXuXuXuXuXuXuXuXuXuXuXuXuXuXuXuXuXuXuXuXuXuXuXuXuXuXuXuXu.% uXuXuXuXuXN.A.W.C.N.W.uXuXuXuXuXuXuXuXuXuXuXuXuXuXuXuXuXuXuXuXuXuX",
"uXuXuXuXuXuXuXuXuXuXuXuXuXuXuXuXuXuXuXuXuXuXuXuXuXuXuXuXuXu.% O I s f N.c.N.N.C.uXuXuXuXuXuXuXuXuXuXuXuXuXuXuXuXuXuXuXuXuXuXuXuX",
"uXuXuXuXuXuXuXuXuXuXuXuXuXuXuXuXuXuXuXuXuXuXuXuXuXuXuXuXuXu.1X{ X.>.O.G.#XG.V.uXuXuXuXuXuXuXuXuXuXuXuXuXuXuXuXuXuXuXuXuXuXuXuXuX",
"uXuXuXuXuXuXuXuXuXuXuXuXuXuXuXuXuXuXuXuXuXuXuXuXuXuXuXuXuXu.R.5.>.3.4.E.!.!.V.uXuXuXuXuXuXuXuXuXuXuXuXuXuXuXuXuXuXuXuXuXuXuXuXuX",
"uXuXuXuXuXuXuXuXuXuXuXuXuXuXuXuXuXuXuXuXuXN.N.uXuXuXuXuXuXu.( 6.~.%XU.*X#XuXuXuXuXuXuXuXuXuXuXuXuXuXuXuXuXuXuXuXuXuXuXuXuXuXuXuX",
"uXuXuXuXuXuXuXuXuXuXuXuXuXuXuXuXuXuXuXuXuXuXuXuXuXuXuXuXuXu.w.^.%X4XU.*X$XuXuXuXuXuXuXuXuXuXuXuXuXuXuXuXuXuXuXuXuXuXuXuXuXuXuXuX",
"uXuXuXuXuXuXuXuXuXuXuXuXuXuXuXuXuXuXuXuXuXuXC.uXuXuXuXuXuXu.3XA.~.W.T.!.&XuXuXuXuXuXuXuXuXuXuXuXuXuXuXuXuXuXuXuXuXuXuXuXuXuXuXuX",
"uXuXuXuXuXuXuXuXuXuXuXuXuXuXuXuXuXuXuXuXuXc.uXuXuXuXuXC.uXu.1XW.Q.R.g.!.!.V.uXuXuXuXuXuXuXuXuXuXuXuXuXuXuXuXuXuXuXuXuXuXuXuXuXuX",
"uXuXuXuXuXuXuXuXuXuXuXuXuXuXuXuXuXN.c.uXuXA.c.uXuXuXuXuXl.$X1XT.R./.(.J.A.$XuXuXuXuXuXuXuXuXuXuXuXuXuXuXuXuXuXuXuXuXuXuXuXuXuXuX",
"uXuXuXuXuXuXuXuXuXuXuXuXuXuXuXB uXN.l.N.N.C.uXuXuXuXuXuXD.!.y.T./.Q.^.U.W.&XuXuXuXuXuXuXuXuXuXuXuXuXuXuXuXuXuXuXuXuXuXuXuXuXuXuX",
"uXuXuXuXuXuXuXuXuXuXuXuXuXuX+Xz s.|.B.d.c.uXuXuXuXuXuXuX!.!.w.^.W.^.[.L.J.&Xl.uXuXuXuXuXuXuXuXuXuXuXuXuXuXuXuXuXuXuXuXuXuXuXuXuX",
"uXuXuXuXuXuXuXuXuXuXuXuXuX-X-Xk z r..X>X@XF.d.uXuXuXuXuX!.!.) U.[.5.Y.K.1.&XZ.uXuXuXuXuXuXuXuXuXuXuXuXuXuXuXuXuXuXuXuXuXuXuXuXuX",
"uXuXuXuXuXuXuXuXuXuXuXuXuXOXm A 1 < e }.=X=Xz.uXuXuXuXuXD.T./ 4.U.H.P.2.4.7X&XV.uXuXuXuXuXuXuXuXuXuXuXuXuXuXuXuXuXuXuXuXuXuXuXuX",
"uXuXuXuXuXuXuXuXuXuXuXuXt.5 5 u.F F N 6 e $XeX&XuXuXuXuXg.~ e.o.3.7.{ :.3.6.~.Z.uXuXuXuXuXuXuXuXuXuXuXuXuXuXuXuXuXuXuXuXuXuXuXuX",
"uXuXuXuXuXuXuXuXuXuXuXuXo A v t.D y.e.7 3 B &Xh./ uXuXuXuXg.`.o.3.'.%.:.2.:.4XuXuXuXuXuXuXuXuXuXuXuXuXuXuXuXuXuXuXuXuXuXuXuXuXuX",
"uXuXuXuXuXuXuXuXuXuXuXuX  l `.C t c J M v l N c.E.^ uXuXuXy.1X( :.) E 7.+.-.l.uXuXuXuXuXuXuXuXuXuXuXuXuXuXuXuXuXuXuXuXuXuXuXuXuX",
"uXuXuXuXuXuXuXuXuXuXuX+ 2 v y.D 3 e.V J l r.F B E.^ -.uXuXu.<XQ ( E 3.X.~.uXuXuXuXuXuXuXuXuXuXuXuXuXC.N.uXuXuXuXuXuXuXuXuXuXuXuX",
"uXuXuXuXuXuXuXuXuXuX# J t N e.1 b `.q K M a.H t 0.0X,.U uXu.1X( E ].+.~.8XuXuXuXuXuXuXuXuXuXuXuXuXuXuXA.uXuXuXuXuXuXuXuXuXuXuXuX",
"uXuXuXuXuXuXuXuXuXD n q 7 2 7 O 3 c 0 M C K @ F N j 6X^.d ; ,X..7.:.&.W.8XuXuXuXuXuXuXuXuXuXuXuXuXuXuXE.uXuXuXuXuXuXuXuXuXuXuXuX",
"uXuXuXuXuXuXuXuXuX  t.n n v 7 o o 7 3 v Z A 8 a.a.D [.-.h ^ f.3.&.=.=.(.5XuXuXuXuXuXuXuXuXuXN.c.uXc.A.E.uXuXuXuXuXuXuXuXuXuXuXuX",
"uXuXuXuXuXuXuXuXuXuX5 y yXuXuXuXuXo o o O t.7 H u.y.2 ) ~ 0.U *.x.;.&.%XZ.. . uXuXuXuXuXuXuXuX0./ 5.P.#.$.uXuXuXuXuXuXuXuXuXuXuX",
"uXuXuXuXuXuXuXuXuXuX< $ p.| uXuXuXo o O M F J K y.K @ > 6 B B =.<.=.@.D.9.. . . uXuXuXuXuXuXuXE >.Y.[.~.-.uXuXuXuXuXuXuXuXuXuXuX",
"uXuXuXuXuXuXuXuXuXuXuXuX . .' uXuXo o ; x `.H 6 y.F : . X r #.b.b.-.8 . . X - . o o 2 2 9 5 d '.{.[.6X^.4X@.#.uXuXuXuXuXuXuXuXuX",
"uXuXuXuXuXuXuXuXuXuXuXuX .|  . .uXuX. o 7 c v M F k 5 , 9 : ;.%Xb.W 9 X X i p   . o @ 4 c r / ].U.^.[.%X7XS.$.uXuXuXuXuXuXuXuXuX",
"uXuXuXuXuXuXuXuXuXuXuXs  .' _  .} ; o 7 x t.2 c N G U  .p $.!.S.j.p p p L P P t.1 7 l l & < : @ uX/ ^.0X5X(.z.uXuXuXuXuXuXuXuXuX",
"uXuXuXuXuXuXuXuXuXuXuXuX .h _ [ | _ _ 9 A : l v c (  .o.l Z.wXb._.rXrXrXrXE ) F : l `.Z : c v h 8 uX,.9X&X&Xz.uXuXuXuXuXuXuXuXuX",
"uXuXuXuXuXuXuXuXuXuXuXuX .f T rXI._ _ 3 4 o 7 l `  . .o.l ,.!.p._.L L L L `.H. ._ ( 0.F M e.R ` d uXv.9X%X&Xz.uXuXuXuXuXuXuXuXuX",
"uXuXuXuXuXuXuXuXuXuXuXuXuXuX.  .| `  . ... . . .i.rX[ F ~ Q.wXc.l H M K M t.M p.(  . .[ .. . .tX_.uXv.9X$X=Xm.uXuXuXuXuXuXuXuXuX",
"uXuXuXuXuXuXuXuXuXuXuXuXuXuXO  . .` | ) <X . . .| ..{ u.D 0.wXb.8.t.K F v t.t ) ]  . .0.(  . .) U uXE.=X=X$XM.uXuXuXuXuXuXuXuXuX",
"uXuXuXuXuXuXuXuXuXuXuXuXuXuX . .U uX . .' `  . .@ U ] 3 `.u.!.9Xm.).qXt D `.M }  . . . . . . . .' < !.$X>XoXM.uXuXuXuXuXuXuXuXuX",
"uXuXuXuXuXuXuXuXuXuXuXuXuXuXuX .x uX . .U 0  . .2 U ..D t.u.v.=XF.,Xt.J <XK t `  .h E  . . . . .! a oX=X>XoXM.uXuXuXuXuXuXuXuXuX",
"uXuXuXuXuXuXuXuXuXuXuXuXuXuXuXuXuXuX . .! o  . .D e.J K 3 r r.=XoXA A ,XM t u U  .) q E  .E 2  .U h .X>X@XXX|.uXuXuXuXuXuXuXuXuX",
"uXuXuXuXuXuXuXuXuXuXuXuXuXuXuXuXuXuXuX .V + T f c F N N r V v =XoXJ y.`.N 7 9 g  ./ D !  ...+  .T f  X>X@XXX.XuXuXuXuXuXuXuXuXuX",
"uXuXuXuXuXuXuXuXuXuXuXuXuXuXuXuXuXuXuXuXuXuX& 2 v e.M r 9 9 r q.>Xy.C 9 9 uXuXuXuXuX> @ ] ..5 ] Y uX+X-X>XXX.XuXuXuXuXuXuXuXuXuX",
"uXuXuXuXuXuXuXuXuXuXuXuXuXuXuXuXuXuXuXuXuXuXuX& 8 x N 7 uXuXuXN.oXoXD.uXuXuXuXuXuXuXuXuX2 t `.N K S }.;X-X.XuXuXuXuXuXuXuXuXuXuX",
"uXuXuXuXuXuXuXuXuXuXuXuXuXuXuXuXuXuXuXuXuXuXuX< 7 l N 8 uXuXuXn.@XoX*XuXuXuXuXuXuXuXuXuX+ 2 z D t.t.n ;X-XuXuXuXuXuXuXuXuXuXuXuX",
"uXuXuXuXuXuXuXuXuXuXuXuXuXuXuXuXuXuXuXuXuXuXuX@ A v A H uXuX}.XXXX8X0XuXuXuXuXuXuXuXuXuXuXuXM l t l 5 $.uXuXuXuXuXuXuXuXuXuXuXuX",
"uXuXuXuXuXuXuXuXuXuXuXuXuXuXuXuXuXuXuXuXuXuXuX2 A Z Z t.5 uX.XXX+XN.(.uXuXuXuXuXuXuXuXuXuXuX2 v 7 l l uXuXuXuXuXuXuXuXuXuXuXuXuX",
"uXuXuXuXuXuXuXuXuXuXuXuXuXuXuXuXuXuXuXuXuXuXuX9 J 0 A u.9 uXuXuXuXuXuXuXuXuXuXuXuXuXuXuXuXuXuXx v x 1 uXuXuXuXuXuXuXuXuXuXuXuXuX",
"uXuXuXuXuXuXuXuXuXuXuXuXuXuXuXuXuXuXuXuXuXuXuX4 J r C u.t @ uXuXuXuXuXuXuXuXuXuXuXuXuXuXuXuXuX0 D e @ uXuXuXuXuXuXuXuXuXuXuXuXuX",
"uXuXuXuXuXuXuXuXuXuXuXuXuXuXuXuXuXuXuXuXuXuXuX& 5 & & n A ).`.M w uXuXuXuXuXuXuXuXuXuXuXuXuXuX5 D t 2 uXuXuXuXuXuXuXuXuXuXuXuXuX",
"uXuXuXuXuXuXuXuXuXuXuXuXuXuXuXuXuXuXuXuXuXuXuX+ 7 uXuXuXuXuX@ H u.- X uXuXuXuXuXuXuXuXuXuXuXuX0 S 5 uXuXuXuXuXuXuXuXuXuXuXuXuXuX",
"uXuXuXuXuXuXuXuXuXuXuXuXuXuXuXuXuXuXuXuXuXuXuX@ F uXuXuXuXuXuX@ X - = uXuXuXuXuXuXuXuXuXuXuXuXr i 2 uXuXuXuXuXuXuXuXuXuXuXuXuXuX",
"uXuXuXuXuXuXuXuXuXuXuXuXuXuXuXuXuXuXuXuXuXuX+ 5 M uXuXuXuXuXuXuXuX* - uXuXuXuXuXuXuXuXuXuXuXuXL - X uXuXuXuXuXuXuXuXuXuXuXuXuXuX",
"uXuXuXuXuXuXuXuXuXuXuXuXuXuXuXuXuXuXuXuXuXuX. i 9 uXuXuXuXuXuXuXuX. X uXuXuXuXuXuXuXuXuXuXuX= p = X uXuXuXuXuXuXuXuXuXuXuXuXuXuX",
"uXuXuXuXuXuXuXuXuXuXuXuXuXuXuXuXuXuXuXuXuX. i p uXuXuXuXuXuXuXuXuXuXuXuXuXuXuXuXuXuXuXuXuXuX. . = uXuXuXuXuXuXuXuXuXuXuXuXuXuXuX",
"uXuXuXuXuXuXuXuXuXuXuXuXuXuXuXuXuXuXuXuXuX. p p uXuXuXuXuXuXuXuXuXuXuXuXuXuXuXuXuXuXuXuXuXuXuX. uXuXuXuXuXuXuXuXuXuXuXuXuXuXuXuX",
"uXuXuXuXuXuXuXuXuXuXuXuXuXuXuXuXuXuXuXuXuXuXuXuXuXuXuXuXuXuXuXuXuXuXuXuXuXuXuXuXuXuXuXuXuXuXuXuXuXuXuXuXuXuXuXuXuXuXuXuXuXuXuXuX",
"uXuXuXuXuXuXuXuXuXuXuXuXuXuXuXuXuXuXuXuXuXuXuXuXuXuXuXuXuXuXuXuXuXuXuXuXuXuXuXuXuXuXuXuXuXuXuXuXuXuXuXuXuXuXuXuXuXuXuXuXuXuXuXuX",
"uXuXuXuXuXuXuXuXuXuXuXuXuXuXuXuXuXuXuXuXuXuXuXuXuXuXuXuXuXuXuXuXuXuXuXuXuXuXuXuXuXuXuXuXuXuXuXuXuXuXuXuXuXuXuXuXuXuXuXuXuXuXuXuX",
"uXuXuXuXuXuXuXuXuXuXuXuXuXuXuXuXuXuXuXuXuXuXuXuXuXuXuXuXuXuXuXuXuXuXuXuXuXuXuXuXuXuXuXuXuXuXuXuXuXuXuXuXuXuXuXuXuXuXuXuXuXuXuXuX",
"uXuXuXuXuXuXuXuXuXuXuXuXuXuXuXuXuXuXuXuXuXuXuXuXuXuXuXuXuXuXuXuXuXuXuXuXuXuXuXuXuXuXuXuXuXuXuXuXuXuXuXuXuXuXuXuXuXuXuXuXuXuXuXuX"
};
