/* XPM */
static char *result[] = {
/* columns rows colors chars-per-pixel */
"64 64 211 2 ",
"   c #070008",
".  c gray3",
"X  c #100000",
"o  c #180000",
"O  c #100800",
"+  c #180800",
"@  c #181000",
"#  c #101008",
"$  c #181008",
"%  c #0D0810",
"&  c #111010",
"*  c #171619",
"=  c #290501",
"-  c #210800",
";  c #211000",
":  c #291000",
">  c #211008",
",  c #291008",
"<  c #211808",
"1  c #291808",
"2  c #351006",
"3  c #311808",
"4  c #3B1808",
"5  c #281810",
"6  c #311810",
"7  c #3B1810",
"8  c #321F18",
"9  c #3D2208",
"0  c #312110",
"q  c #392110",
"w  c #392910",
"e  c #392918",
"r  c #252324",
"t  c #382D2A",
"y  c #520000",
"u  c #520B00",
"i  c #520E08",
"p  c #4D1F0D",
"a  c #6B0000",
"s  c #6B0B00",
"d  c #6A0E09",
"f  c #7F0000",
"g  c #671C09",
"h  c #4D2A0F",
"j  c #422110",
"k  c #4A2118",
"l  c #422918",
"z  c #4A2918",
"x  c #5A2719",
"c  c #4A311B",
"v  c #5C3C14",
"b  c #523118",
"n  c #5E3118",
"m  c #642C0C",
"M  c #4A2921",
"N  c #523122",
"B  c #5F3121",
"V  c #583921",
"C  c #5C3E29",
"Z  c #633921",
"A  c #713921",
"S  c #604421",
"D  c #6F4421",
"F  c #6B4429",
"G  c #764129",
"H  c #7A4A29",
"J  c #694831",
"K  c #6B4C39",
"L  c #514C51",
"P  c #7D5E4D",
"I  c #8B0B00",
"U  c #8C0E08",
"Y  c #940000",
"T  c #AD0000",
"R  c #B40E00",
"E  c #B60D08",
"W  c #8E2100",
"Q  c #8C2308",
"!  c #8C2310",
"~  c #8B2B1A",
"^  c #B62800",
"/  c #B52308",
"(  c #B62310",
")  c #B72C1A",
"_  c #C20000",
"`  c #CE0000",
"'  c #DA0C00",
"]  c #DD0D09",
"[  c #D61C0D",
"{  c #EB0000",
"}  c #F70000",
"|  c red",
" . c #F40D09",
".. c #FF0808",
"X. c #FF100C",
"o. c #FF1D18",
"O. c #D62D0C",
"+. c #CE3D06",
"@. c #DC2A1B",
"#. c #EB220C",
"$. c #FD210F",
"%. c #EB3D03",
"&. c #F4291C",
"*. c #FF2D18",
"=. c #E33E18",
"-. c #FF3D15",
";. c #F33E19",
":. c #FF2521",
">. c #FF2E2C",
",. c #FF3121",
"<. c #FF3D21",
"1. c #FF3D31",
"2. c #FF3E39",
"3. c #A2451D",
"4. c #B9481D",
"5. c #A86910",
"6. c #814921",
"7. c #8F4E2D",
"8. c #815929",
"9. c #805131",
"0. c #935D30",
"q. c #945F39",
"w. c #AE4C2C",
"e. c #B16539",
"r. c #D05007",
"t. c #DE5A08",
"y. c #CE421C",
"u. c #CE561D",
"i. c #E84E03",
"p. c #FF4E04",
"a. c #E75A00",
"s. c #E75A08",
"d. c #FD4A13",
"f. c #E75710",
"g. c #E8521D",
"h. c #FE5614",
"j. c #E76310",
"k. c #EF6B10",
"l. c #E76319",
"z. c #EF6318",
"x. c #E76C1D",
"c. c #EF6B18",
"v. c #F26310",
"b. c #FD671D",
"n. c #EF731F",
"m. c #F97210",
"M. c #F9731D",
"N. c #DA502B",
"B. c #F44F2B",
"V. c #FF4A2C",
"C. c #FD5021",
"Z. c #FF5529",
"A. c #EC503E",
"S. c #FF5731",
"D. c #FF5239",
"F. c #DB6B2D",
"G. c #C57D3C",
"H. c #EF6F2B",
"J. c #FC732D",
"K. c #F77C29",
"L. c #E36E39",
"P. c #FE6731",
"I. c #FF6B39",
"U. c #EC7E37",
"Y. c #F77F36",
"T. c #99664A",
"R. c #9C6F59",
"E. c #A96A42",
"W. c #FF4D42",
"Q. c #FF534F",
"!. c #FF6C45",
"~. c #FF6B58",
"^. c #DD8306",
"/. c #FF8308",
"(. c #EC9A05",
"). c #FF9D00",
"_. c #FF8418",
"`. c #FF9C14",
"'. c #FFB400",
"]. c #FFB412",
"[. c #FF8521",
"{. c #FF962E",
"}. c #FF8039",
"|. c #FF8C39",
" X c #ED9738",
".X c #FF9739",
"XX c #FEAC38",
"oX c #FECA0A",
"OX c #FFDD11",
"+X c yellow",
"@X c #FFD435",
"#X c #BA804E",
"$X c #B98A68",
"%X c #DB944F",
"&X c #CC9E50",
"*X c #E8874D",
"=X c #FF8142",
"-X c #FF8C42",
";X c #FF804D",
":X c #FF8C4C",
">X c #FF9742",
",X c #FF9F4F",
"<X c #F48C5E",
"1X c #FF9452",
"2X c #EEA062",
"3X c #F2BE64",
"4X c #FEC44E",
"5X c #B99D84",
"6X c #E1B68E",
"7X c #EAD2A3",
"8X c None",
/* pixels */
"8X8X8X8X8X8X8X8X8X8X8X8X8X8X8X8X8X8X8X8X8X8X8X8X8X8X8X8X8X8X8X8X8X8X8X8X8X8X8X8X8X8X8X8X8X8X8X8X8X8X8X8X8X8X8X8X8X8X8X8X8X8X8X8X",
"8X8X8X8X8X8X8X8X8X8X8X8X8X8X8X8X8X8X8X8X8X8X8X8X8X8X8X8X8X8X8X8X8X8X8X8X8X8X8X8X8X8X8X8X8X8X8X8X8X8X8X8X8X8X8X8X8X8X8X8X8X8X8X8X",
"8X8X8X8X8X8X8X8X8X8X8X8X8X8X8X8X8X8X8X8X8X8X8X8X8X8X8X8X8X8X8X8X8X8X8X8X8X8X8X8X8X8X8X8X8X8X8X8X8X8X8X8X8X8X8X8X8X8X8X8X8X8X8X8X",
"8X8X8X8X8X8X8X8X8X8X8X8X8X8X8X8X8X8X8X8X8X8X8X8X8X8X8X8X+X8.8X8X8X8X8X8X8X8X8X8X8X8X8X8X8X8X8X8X8X8X8X8X8X8X8X8X8X8X8X8X8X8X8X8X",
"8X8X8X8X8X8X8X8X8X8X8X8X8X8X8X8X8X8X8X8X8X8X8X8X8X8X8X8X&XS 8X8X8X8X8X8X8X8X8X8X8X8X8X8X8X8X8X8X8X8X8X8X8X8X8X8X8X8X8X8X8X8X8X8X",
"8X8X8X8X8X8X8X8X8X8X8X8X8X8X8X8X8X8X8X8X8X8X8X8X8X8X8X8X0.# 8X8X8X8X8X8X8X8X8X8X8X8X8X8X8X8X8X8X8X8X8X8X8X8X8X8X8X8X8X8X8X8X8X8X",
"8X8X8X8X8X8X8X8X8X8X8X8X8X8X8X8X8X8X8X8X8X8X8X8X8X8X8X8Xq.# 8X8X8X8X8X8X8X8X8X8X8X8X8X8X8X8X8X8X8X8X8X8X8X8X8X8X8X8X8X8X8X8X8X8X",
"8X8X8X8X8X8X8X8X8X8X8X8X8X8X8X8X8X8X8X8X8X8X8X8X8X8X8X8Xq.# 8X8X8X8X8X8X8X8X8X8X8X8X8X8X8X8X8X8X8X8X8X8X8X8X8X8X8X8X8X8X8X8X8X8X",
"8X8X8X8X8X8X8X8X8X8X8X8X8X8X8X8X8X8X8X8X8X8X8X8X8X8X8X8Xq.# 8X8X8X8X8X8X8X8X8X8X8X8X8X8X8X8X8X8X8X8X8X8X8X8X8X8X8X8X8X8X8X8X8X8X",
"8X8X8X8X8X8X8X8X8X8X8X8X8X8X8X8X8X8X8X8X8X8X8X8X8X8X8X8Xq.# 8X8X8X8X8X8X8X8X8X8X8X8X8X8X8X8X8X8X8X8X8X8X8X8X8X8X8X8X8X8X8X8X8X8X",
"8X8X8X8X8X8X8X8X8X8X8X8X8X8X8X8X8X8X8X8X8X8X8X8X8X8X8X8Xq.# 8X8X8X8X8X8Xj.l.8X8X8X8X8X8X8X8X8X8X8X8X8X8X8X8X8X8X8X8X8X8X8X8X8X8X",
"8X8X8X8X8X8X8X8X8X8X8X8X8X8X8X8X8X8X8X8X8X8X8X8X8X8X8X8Xq.# 8X8X8X8X8X8Xx.f.8X8X8X8X8X8X8X8X8X8X8X8X8X8X8X8X8X8X8X8X8X8X8X8X8X8X",
"8X8X8X8X8X8X8X8X8X8X8X8X8X8X8X8X8X8X8X8X8X8X8X8X8X8X8X8Xq.# 8X8X8X8X8X8Xx.8X8X8X8X8X8X8X8X8X8X8X8X8X8X8X8X8X8X8X8X8X8X8X8X8X8X8X",
"8X8X8X8X8X8X8X8X8X8X8X8X8X8X8X8X8X8X8X8X8X8X8X8X8X8X8X8Xq.# 8X8X8X8XM.m.c.M.k.8X8X8X8X8X8X8X8X8X8X8X8X8X8X8X8X8X8X8X8X8X8X8X8X8X",
"8X8X8X8X8X8X8X8X8X8X8X8X8X8X8X8X8X8X8X8X8X8X8X8X8X8X8X8Xq.5XX = U y.[.k.f.8X8X8X8X8X8X8X8X8X8X8X8X8X8X8X8X8X8X8X8X8X8X8X8X8X8X8X",
"8X8X8X8X8X8X8X8X8X8X8X8X8X8X8X8X8X8X8X8X8X8X8X8X8X8X8X8Xq.R.Y _ { ` {.[.8X8X8X8X8X8X8X8X8X8X8X8X8X8X8X8X8X8X8X8X8X8X8X8X8X8X8X8X",
"8X8X8X8X8X8X8X8X8X8X8X8X8X8X8X8X8X8X8X8X8X8X8X8X8X8X8X8Xq.R. .X.,.>.z.[.8X8X8X8X8X8X8X8X8X8X8X8X8X8X8X8X8X8X8X8X8X8X8X8X8X8X8X8X",
"8X8X8X8X8X8X8X8X8X8X8X8X8X8X8X8X8X8X8X8X8X8X8X8X8X8X8X8Xq.R...o.1.W.M.{.8X8X8X8X8X8X8X8X8X8X8X8X8X8X8X8X8X8X8X8X8X8X8X8X8X8X8X8X",
"8X8X8X8X8X8X8X8X8X8X8X8X8X8X8X8X8X8X8X8Xl.l.l.f.8X8X8X8Xq.E.:.Q.!.S.{.{.a.8X8X8X8X8X8X8X8X8X8X8X8X8X8X8X8X8X8X8X8X8X8X8X8X8X8X8X",
"8X8X8X8X8X8X8X8X8X8X8X8X8X8X8X8X8X8X8X8Xj.l.l.x.j.8X8X8Xq.R.o.>.!.J.{.{._.8X8X8X8X8X8X8X8X8X8X8X8X8X8X8X8X8X8X8X8X8X8X8X8X8X8X8X",
"8X8X8X8X8X8X8X8X8X8X8X8X8X8X8X8X8X8X8X8X8X8X8X8X8X8X8X8Xq.$X}.x.N.w.y.g..Xn.8X8X8X8X8X8X8X8X8X8X8X8X8X8X8X8X8X8X8X8X8X8X8X8X8X8X",
"8X8X8X8X8X8X8X8X8X8X8X8X8X8X8X8X8X8Xl.s.8X8X8X8X8X8X8X8Xq.$XF.6.3.u.=.=.{.|.8X8X8X8X8X8X8X8X8X8X8X8X8X8X8X8X8X8X8X8X8X8X8X8X8X8X",
"8X8X8X8X8X8X8X8X8X8X8X8X8Xs 8X8X8X8X8X8X8X8X8X8X8X8X8X8Xq.%X6.A y.B.C.;.H.}.8X8X8X8X8X8X8X8X8X8X8X8X8X8X8X8X8X8X8X8X8X8X8X8X8X8X",
"8X8X8X8X8X8X8X8X8X8X8X8X^.9 (.].].].`._.p.8X8X8X8X8X8X8Xq.%X3.g.C.P.!.<.H.K.8X8X8X8X8X8X8X8X8X8X8X8X8X8X8X8X8X8X8X8X8X8X8X8X8X8X",
"8X8X8X8X8X8X8X8X8X8X8XoX(.w 5.5.5. XXXXX,Xi.^ 8X8X8X8X8Xq.%X4.Z.B.C.;XZ.N.}.8X8X8X8X8X8X8X8X8X8X8X8X8X8X8X8X8X8X8X8X8X8X8X8X8X8X",
"8X8X8X8X8X8X8X8X8X8X^.OX< V j - 4 p : h .Xv.^ 8X8X8X8XY.3.;X=.C.D.;XS.,.#.1X8X8X8X8X8X8X8X8X8X8X8X8X8X8X8X8X8X8X8X8X8X8X8X8X8X8X",
"8X8X8X8X8X8X8X8X8X8X8Xw 0 9.n : n j O + m Y.u.+.r.8X8X-X~ %Xw.@.D.~.o.*.1.=Xa.8X8X8X8X8X8X8X8X8X8X8X8X8X8X8X8X8X8X8X8X8X8X8X8X8X",
"8X8X8X8X8X8X8X8X8X8X8XO 9 Z V F N J 9.6 A v ~ Z.+.U 8X8Xj.$XU.( 1.!.) Q.o.;.8X8X8X8X8X8X8X8X8X8X8X8X8X8X8X8X8X8X8X8X8X8X8X8X8X8X",
"8X8X8X8X8X8X8X8X8X8X8X* D #XN - z M V , E.Z Z J.1Xy.#.8X0.$XF.~ A.N.1.~.1.o.8X8X8X8X8X8X8X8X8X8X8X8X8X8X8X8X8X8X8X8X8X8X8X8X8X8X",
"8X8X8X8X8X8X8X8X8X8X8X$ b 0.j k E.z n A B q.l j ) 1XS.[ q.R.w.w.[ >...,.!.,Xc.8X8X8X8X8X8X8X8X8X8X8X8X8X8X8X8X8X8X8X8X8X8X8X8X8X",
"8X8X8X8X8X8X8X8X8X8X# q b 0., 7 x k G , H - b e.n I.;X<.U $XN.&.2.,.<.$.-X>X8X8X8X8X8X8X8X8X8X8X8X8X8X8X8X8X8X8X8X8X8X8X8X8X8X8X",
"8X8X8X8X8X8X8X8X8XX > z 3 z - - 7 6 , 7 P ; 9.G.E.3.!.u s *X] >.N.B.@.Z.-X:X8X8X8X8X8X8X8X8X8X8X8X8Xf.8X8X8X8X8X8X8X8X8X8X8X8X8X",
"8X8X8X8X8X8X8X8X8X0 z b S b 8X8XX X X X F 3 b n H > g ) ) @.>.&.C.C.Y.,X1XY.8X8X8X8X8X8X8X8X8X8Xl.l.l.j.8X8X8X8X8X8X8X8X8X8X8X8X",
"8X8X8X8X8X8X8X8X8X$ S T.~ 9 8X8X8XX o 4 7.7 H 7.V 3 O X 6.L.<.C.<.<.;X,XY.8X8X8X8X8X8X8X8X8X8X8Xl.x.l.x.8X8X8X8X8X8X8X8X8X8X8X8X",
"8X8X8X8X8X8X8X8X8XO @ w { } 8X8X8XX X : 7.E.k 7.7.: X 8 *X+.d.d.-.#.,XK.      8X8X8X8X8X8X8X8X8X8X8X8X8X8X8X8X8X8X8X8X8X8X8X8X8X",
"8X8X8X8X8X8X8X8X8X8X8X, | } T 8X8XX X o l z c D p q + G.G.d.J.h.%./ q +       8X8X8X8X8X8X8X8X8X8X8X8X8X8X8X8X8X8X8X8X8X8X8X8X8X",
"8X8X8X8X8X8X8X8X8X8X8X! | { { | y o + j e O 6 Z D B L.U.b.,Xh.h.V * . . r r     X 1 > 5 8X8Xj.f.8X8X8X8X8X8X8X8X8X8X8X8X8X8X8X8X",
"8X8X8X8X8X8X8X8X8X8X8XR | I ` ] ` _ , 8 5 4 n z ~ !.;X:X1X>Xy.T.L L L L L P b O O ; 6 c 6 p T @.<.,.O.8X8X8X8X8X8X8X8X8X8X8X8X8X",
"8X8X8X8X8X8X8X8X8X8X8X| | a 3.5X` ` i $ X 3 m ' | V.!.1X3XK.R.5XR.L L P 5XP 9.: 4 4 > 0 > W W.~.!.~.;.O.8X8X8X8X8X8X8X8X8X8X8X8X",
"8X8X8X8X8X8X8X8X8X8X8X8X8X8X| | _ {  .) | | | e.5X!.*X,X1X;Xt r L L L L #.&.7 2 A 9.> 1 2 : Q V.;X<XS.%.8X8X8X8X8X8X8X8X8X8X8X8X",
"8X8X8X8X8X8X8X8X8X8X8X8X8X8X| | T { [ 5X| | | } ] *X<X,X2X;XC C t C N C T.) | U w.7.O 7 z 4 2 R <X;XP.d.8X8X8X8X8X8X8X8X8X8X8X8X",
"8X8X8X8X8X8X8X8X8X8X8X8X8X8X| | 8X| | U U | | 1 { e.#X=X,Xb.G.c q.%Xz 0 z d 7X| | | | | | | f 8X:XP.}.-X%.8X8X8X8X8X8X8X8X8X8X8X",
"8X8X8X8X8X8X8X8X8X8X8X8X8X8X8X| 8X| | u N | { 4 } w.#XY.,XK.E.V 6X%Xz > j i E.| | O.#X| |  .q.O ;XP.}.1X%.8X8X8X8X8X8X8X8X8X8X8X",
"8X8X8X8X8X8X8X8X8X8X8X8X8X8X8X8X8X| | O X | E 6.g b > -X,X.X#XV z c $Xq.N i | | | | [ | | | _ a Y.|.K.K.%.8X8X8X8X8X8X8X8X8X8X8X",
"8X8X8X8X8X8X8X8X8X8X8X8X8X8X8X8X8X8X8X+ + y 7 G A l b *X,X>Xq.C w C H z 3 j | T { | | | | | _ R }.,X.XM.+.8X8X8X8X8X8X8X8X8X8X8X",
"8X8X8X8X8X8X8X8X8X8X8X8X8X8X8X8X8X8X+ + 6 3 b Z 3 5 0 H -X,XH 0 E.0.n z 0 1 | 3 3 | | d f | O T 4XK..Xm.8X8X8X8X8X8X8X8X8X8X8X8X",
"8X8X8X8X8X8X8X8X8X8X8X8X8X8X8X8X< l V V > 3 j n 3 8X8X8XY.4Xe.C 1 5 5 0 8X> T j z } | g + | r / 4X{.XX/.8X8X8X8X8X8X8X8X8X8X8X8X",
"8X8X8X8X8X8X8X8X8X8X8X8X8X8X8X8Xl E.F l + 7 7 4 : 8X8X8XH.,Xx.8X8X8X8X8X8X8X8X> - { | ~ + | 8Xa 4XXXXX`./.8X8X8X8X8X8X8X8X8X8X8X",
"8X8X8X8X8X8X8X8X8X8X8X8X8X8X8X$ Z b + 8X8Xj z 3 8X8X8X/.).XXj.8X8X8X8X8X8X8X8X> 0 , z H j d | 8X4XXX@X@X].'.8X8X8X8X8X8X8X8X8X8X",
"8X8X8X8X8X8X8X8X8X8X8X8X8X8X8X+ 3 > 8X8X8Xz b , 8X).).).).`.c.8X8X8X8X8X8X8X8X> l > ; T.8.z q z `.XX@X@X@X@X'.8X8X8X8X8X8X8X8X8X",
"8X8X8X8X8X8X8X8X8X8X8X8X8X8X+ j 8X8X8X8X8XF 9.> 8X8X8X8X8X8X8X8X8X8X8X8X8X8X8X> l j 1 > 0 G H V 8X_.@XOX@XOXOX(.8X8X8X8X8X8X8X8X",
"8X8X8X8X8X8X8X8X8X8X8X8X8X8Xj H 8X8X8X8X8XK 9.> 8X8X8X8X8X8X8X8X8X8X8X8X8X8X8X5 q j > 8X8XN H A 8X8X].oXOX@XOXt.a 8X8X8X8X8X8X8X",
"8X8X8X8X8X8X8X8X8X8X8X8X    J 7 8X8X8X8X8X9.F 8X8X8X8X8X8X8X8X8X8X8X8X8X8X8X8X> z ; X 8X8X8X3 B - 8X8X8X8X8X8X8X8X8X8X8X8X8X8X8X",
"8X8X8X8X8X8X8X8X8X8X8X  r L 8X8X8X8X8X8X8Xq.7 8X8X8X8X8X8X8X8X8X8X8X8X8X8X8X> Z 3 8X8X8X8X8X8X> b ; 8X8X8X8X8X8X8X8X8X8X8X8X8X8X",
"8X8X8X8X8X8X8X8X8X8X8X. t & 8X8X8X8X8X8X8XG.b 8X8X8X8X8X8X8X8X8X8X8X8X8X8Xl V q + 8X8X8X8X8X8X+ D 3 8X8X8X8X8X8X8X8X8X8X8X8X8X8X",
"8X8X8X8X8X8X8X8X8X8X8X8X8X8X8X8X8X8X8X8Xc Z - 8X8X8X8X8X8X8X8X8X8X8X8X8XF E.j 8X8X8X8X8X8X8X8X8Xq.D 8X8X8X8X8X8X8X8X8X8X8X8X8X8X",
"8X8X8X8X8X8X8X8X8X8X8X8X8X8X8X8X8X8X8X8X0 j 8X8X8X8X8X8X8X8X8X8X8X8X8X8XC K . 8X8X8X8X8X8X8X8X8XC t 8X8X8X8X8X8X8X8X8X8X8X8X8X8X",
"8X8X8X8X8X8X8X8X8X8X8X8X8X8X8X8X8X8X  r 5 : 8X8X8X8X8X8X8X8X8X8X8X8X8X. t r 8X8X8X8X8X8X8X8X8X8Xt # 8X8X8X8X8X8X8X8X8X8X8X8X8X8X",
"8X8X8X8X8X8X8X8X8X8X8X8X8X8X8X8X8X  % t   8X8X8X8X8X8X8X8X8X8X8X8X8X8X. L * 8X8X8X8X8X8X8X8X8X8XL * 8X8X8X8X8X8X8X8X8X8X8X8X8X8X",
"8X8X8X8X8X8X8X8X8X8X8X8X8X8X8X8X8X8X. . 8X8X8X8X8X8X8X8X8X8X8X8X8X8X8X8X8X8X8X8X8X8X8X8X8X8X8X8X* . 8X8X8X8X8X8X8X8X8X8X8X8X8X8X",
"8X8X8X8X8X8X8X8X8X8X8X8X8X8X8X8X8X8X8X8X8X8X8X8X8X8X8X8X8X8X8X8X8X8X8X8X8X8X8X8X8X8X8X8X8X8X8X8X. . 8X8X8X8X8X8X8X8X8X8X8X8X8X8X",
"8X8X8X8X8X8X8X8X8X8X8X8X8X8X8X8X8X8X8X8X8X8X8X8X8X8X8X8X8X8X8X8X8X8X8X8X8X8X8X8X8X8X8X8X8X8X8X8X8X8X8X8X8X8X8X8X8X8X8X8X8X8X8X8X",
"8X8X8X8X8X8X8X8X8X8X8X8X8X8X8X8X8X8X8X8X8X8X8X8X8X8X8X8X8X8X8X8X8X8X8X8X8X8X8X8X8X8X8X8X8X8X8X8X8X8X8X8X8X8X8X8X8X8X8X8X8X8X8X8X",
"8X8X8X8X8X8X8X8X8X8X8X8X8X8X8X8X8X8X8X8X8X8X8X8X8X8X8X8X8X8X8X8X8X8X8X8X8X8X8X8X8X8X8X8X8X8X8X8X8X8X8X8X8X8X8X8X8X8X8X8X8X8X8X8X"
};
