/* XPM */
static char *result[] = {
/* columns rows colors chars-per-pixel */
"64 64 203 2 ",
"   c #080800",
".  c #070008",
"X  c gray3",
"o  c #100000",
"O  c #180000",
"+  c #100800",
"@  c #180800",
"#  c #140808",
"$  c #101008",
"%  c #181008",
"&  c #111010",
"*  c #171619",
"=  c #210000",
"-  c #290501",
";  c #210800",
":  c #210808",
">  c #350301",
",  c #211000",
"<  c #291000",
"1  c #211008",
"2  c #291008",
"3  c #211808",
"4  c #291808",
"5  c #351006",
"6  c #311808",
"7  c #281810",
"8  c #311810",
"9  c #3B1810",
"0  c #321F18",
"q  c #292108",
"w  c #312110",
"e  c #392110",
"r  c #392910",
"t  c #392918",
"y  c #252324",
"u  c #382D2A",
"i  c #420400",
"p  c #520000",
"a  c #520B00",
"s  c #520E08",
"d  c #4D1F0D",
"f  c #6B0000",
"g  c #6B0B00",
"h  c #6A0E09",
"j  c #7F0000",
"k  c #671C09",
"l  c #4D2A0F",
"z  c #422110",
"x  c #422A10",
"c  c #4A2118",
"v  c #422918",
"b  c #4A2918",
"n  c #4A311B",
"m  c #523118",
"M  c #5E3118",
"N  c #642C0C",
"B  c #4A2921",
"V  c #523122",
"C  c #5F3121",
"Z  c #583921",
"A  c #5C3E29",
"S  c #633921",
"D  c #713921",
"F  c #7A4211",
"G  c #604421",
"H  c #6B4429",
"J  c #764129",
"K  c #7A4A29",
"L  c #694831",
"P  c #8B0B00",
"I  c #8C0E08",
"U  c #940000",
"Y  c #B60D08",
"T  c #8E2100",
"R  c #8C2308",
"E  c #8C2310",
"W  c #8B2B1A",
"Q  c #B62800",
"!  c #B52308",
"~  c #B62310",
"^  c #B72C1A",
"/  c #C20000",
"(  c #CE0000",
")  c #DA0C00",
"_  c #D61C0D",
"`  c #F70000",
"'  c red",
"]  c #F40D09",
"[  c #FF0808",
"{  c #F71B00",
"}  c #FF100C",
"|  c #FD180E",
" . c #DA2A00",
".. c #CE3D06",
"X. c #DC2A1B",
"o. c #EB220C",
"O. c #FD210F",
"+. c #FD2D0D",
"@. c #EB3D03",
"#. c #FF3E03",
"$. c #F4291C",
"%. c #FF2D18",
"&. c #E33E18",
"*. c #F33E19",
"=. c #FF2521",
"-. c #FF2E2C",
";. c #FF3121",
":. c #FF3D21",
">. c #FF3E29",
",. c #FF3D31",
"<. c #FF3E39",
"1. c #A34408",
"2. c #B94407",
"3. c #A2451D",
"4. c #B9481D",
"5. c #8F4E2D",
"6. c #815929",
"7. c #805131",
"8. c #935D30",
"9. c #945F39",
"0. c #AE4C2C",
"q. c #B5602E",
"w. c #D05007",
"e. c #DE5A08",
"r. c #CE421C",
"t. c #CE561D",
"y. c #E84E03",
"u. c #FF4E04",
"i. c #E75A00",
"p. c #E75A08",
"a. c #FB5A04",
"s. c #FD4A13",
"d. c #E75710",
"f. c #E8521D",
"g. c #FE5614",
"h. c #E76406",
"j. c #F36305",
"k. c #F66E05",
"l. c #E76310",
"z. c #E76F10",
"x. c #EF6B10",
"c. c #E76319",
"v. c #EF6318",
"b. c #E76C1D",
"n. c #EF6B18",
"m. c #FD671D",
"M. c #EF731F",
"N. c #F97210",
"B. c #F9731D",
"V. c #DA502B",
"C. c #F44F2B",
"Z. c #FD5021",
"A. c #FF5529",
"S. c #EC503E",
"D. c #FF5731",
"F. c #DB6B2D",
"G. c #EF6A21",
"H. c #EF6F2B",
"J. c #FC732D",
"K. c #F77C29",
"L. c #E36E39",
"P. c #FE6731",
"I. c #FF6B39",
"U. c #EC7E37",
"Y. c #F77F36",
"T. c #9C6F59",
"R. c #A96A42",
"E. c #FF4D42",
"W. c #FF534F",
"Q. c #E36F45",
"!. c #FF6C45",
"~. c #FF6B58",
"^. c #DD8306",
"/. c #F7800D",
"(. c #FF8308",
"). c #EC9A05",
"_. c #FF9D00",
"`. c #FF8418",
"'. c #FF9C14",
"]. c #EFB206",
"[. c #FFB400",
"{. c #FFB412",
"}. c #FF8521",
"|. c #FF962E",
" X c #FF8039",
".X c #FF8C39",
"XX c #FF9739",
"oX c #FECA0A",
"OX c yellow",
"+X c #B98A68",
"@X c #CC9E50",
"#X c #FF8142",
"$X c #FF8C42",
"%X c #FF8C4C",
"&X c #FF9742",
"*X c #FF9F4F",
"=X c #FF9452",
"-X c #F2BE64",
";X c #FEC44E",
":X c #B99D84",
">X c #E3C4AE",
",X c #EAD2A3",
"<X c None",
/* pixels */
"<X<X<X<X<X<X<X<X<X<X<X<X<X<X<X<X<X<X<X<X<X<X<X<X<X<X<X<X<X<X<X<X<X<X<X<X<X<X<X<X<X<X<X<X<X<X<X<X<X<X<X<X<X<X<X<X<X<X<X<X<X<X<X<X",
"<X<X<X<X<X<X<X<X<X<X<X<X<X<X<X<X<X<X<X<X<X<X<X<X<X<X<X<X<X<X<X<X<X<X<X<X<X<X<X<X<X<X<X<X<X<X<X<X<X<X<X<X<X<X<X<X<X<X<X<X<X<X<X<X",
"<X<X<X<X<X<X<X<X<X<X<X<X<X<X<X<X<X<X<X<X<X<X<X<X<X<X<X<X<X<X<X<X<X<X<X<X<X<X<X<X<X<X<X<X<X<X<X<X<X<X<X<X<X<X<X<X<X<X<X<X<X<X<X<X",
"<X<X<X<X<X<X<X<X<X<X<X<X<X<X<X<X<X<X<X<X<X<X<X<X<X<X<X<X<X<X<X<X<X<X<X<X<X<X<X<X6.OX<X<X<X<X<X<X<X<X<X<X<X<X<X<X<X<X<X<X<X<X<X<X",
"<X<X<X<X<X<X<X<X<X<X<X<X<X<X<X<X<X<X<X<X<X<X<X<X<X<X<X<X<X<X<X<X<X<X<X<X<X<X<X<XG @X<X<X<X<X<X<X<X<X<X<X<X<X<X<X<X<X<X<X<X<X<X<X",
"<X<X<X<X<X<X<X<X<X<X<X<X<X<X<X<X<X<X<X<X<X<X<X<X<X<X<X<X<X<X<X<X<X<X<X<X<X<X<X<X$ 8.<X<X<X<X<X<X<X<X<X<X<X<X<X<X<X<X<X<X<X<X<X<X",
"<X<X<X<X<X<X<X<X<X<X<X<X<X<X<X<X<X<X<X<X<X<X<X<X<X<X<X<X<X<X<X<X<X<X<X<X<X<X<X<X$ 9.<X<X<X<X<X<X<X<X<X<X<X<X<X<X<X<X<X<X<X<X<X<X",
"<X<X<X<X<X<X<X<X<X<X<X<X<X<X<X<X<X<X<X<X<X<X<X<X<X<X<X<X<X<X<X<X<X<X<X<X<X<X<X<X$ 9.<X<X<X<X<X<X<X<X<X<X<X<X<X<X<X<X<X<X<X<X<X<X",
"<X<X<X<X<X<X<X<X<X<X<X<X<X<X<X<X<X<X<X<X<X<X<X<X<X<X<X<X<X<X<X<X<X<X<X<X<X<X<X<X$ 9.<X<X<X<X<X<X<X<X<X<X<X<X<X<X<X<X<X<X<X<X<X<X",
"<X<X<X<X<X<X<X<X<X<X<X<X<X<X<X<X<X<X<X<X<X<X<X<X<X<X<X<X<X<X<X<X<X<X<X<X<X<X<X<X$ 9.<X<X<X<X<X<X<X<X<X<X<X<X<X<X<X<X<X<X<X<X<X<X",
"<X<X<X<X<X<X<X<X<X<X<X<X<X<X<X<X<X<X<X<X<X<X<X<X<X<X<X<X<X<Xl.d.p.<X<X<X<Xi.<X<X$ 9.<X<X<X<X<X<X<X<X<X<X<X<X<X<X<X<X<X<X<X<X<X<X",
"<X<X<X<X<X<X<X<X<X<X<X<X<X<X<X<X<X<X<X<X<X<X<X<X<X<X<X<X<Xc.Y.d.<X<X<X<X<X<X<X<X$ 9.<X<X<X<X<X<X<X<X<X<X<X<X<X<X<X<X<X<X<X<X<X<X",
"<X<X<X<X<X<X<X<X<X<X<X<X<X<X<X<X<X<X<X<X<X<X<X<X<X<X<X<X<X<X<Xc.d.<X<X<X<X<X<X<X$ 9.<X<X<X<X<X<X<X<X<X<X<X<X<X<X<X<X<X<X<X<X<X<X",
"<X<X<X<X<X<X<X<X<X<X<X<X<X<X<X<X<X<X<X<X<X<X<X<X<X<Xi.h.<X<Xw.R 1.w.i.<X<Xi.<X<X$ 9.<X<X<X<X<X<X<X<X<X<X<X<X<X<X<X<X<X<X<X<X<X<X",
"<X<X<X<X<X<X<X<X<X<X<X<X<X<X<X<X<X<X<X<X<X<X<X<X<X<X<Xi.l.d.} =.o.R w.`.`.l.<X<X$ 9.<X<X<X<X<X<X<X<X<X<X<X<X<X<X<X<X<X<X<X<X<X<X",
"<X<X<X<X<X<X<X<X<X<X<X<X<X<X<X<X<X<X<X<X<X<X<X<X<X<X<X<Xi.v.o.;.=.W B././.N.<X<X$ 9.<X<X<X<X<X<X<X<X<X<X<X<X<X<X<X<X<X<X<X<X<X<X",
"<X<X<X<X<X<X<X<X<X<X<X<X<X<X<X<X<X<X<X<X<X<X<X<X<X<Xp..X|.|.$._ Y 3.XX|.N.z.<X<X$ 9.<X<X<X<X<X<X<X<X<X<X<X<X<X<X<X<X<X<X<X<X<X<X",
"<X<X<X<X<X<X<X<X<X<X<X<X<X<X<X<X<X<X<X<X<X<X<X<X<X<X}.|.|.K.Z.-.X.F..X.XXXB.<X<X$ 9.<X<X<X<X<X<X<X<X<X<X<X<X<X<X<X<X<X<X<X<X<X<X",
"<X<X<X<X<X<X<X<X<X<X<X<X<X<X<X<X<X<X<X<X<X<X<X<X<Xx..XXX.Xf.X.<.>.q.b.XX.XK.<X<X$ 9.<X<X<X<X<X<X<X<X<X<X<X<X<X<X<X<X<X<X<X<X<X<X",
"<X<X<X<X<X<X<X<X<X<X<X<X<X<X<X<X<X<X<X<X<X<X<X<X<XK.XX.XG.o.o.~.E.3.f.U.|.K.<X<X$ 9.<X<X<X<X<X<X<X<X<X<X<X<X<X<X<X<X<X<X<X<X<X<X",
"<X<X<X<X<X<X<X<X<X<X<X<X<X<X<X<X<X<X<X<X<X<X<X<Xv..XJ.P.Z.~ ) ] -.I W C.C.q.XX<X$ 9.<X<X<X<X<X<X<X<X<X<X<X<X<X<X<X<X<X<X<X<X<X<X",
"<X<X<X<X<X<X<X<X<X<X<X<X<X<X<X<X<X<X<X<X<X<X<X<X<XK.D.;.;.<.,.,.E.O.%.&.E.Z.XXp.$ 9.<X<X<X<X<X<X<X<X<X<X<X<X<X<X<X<X<X<X<X<X<X<X",
"<X<X<X<X<X<X<X<X<X<X<X<X<X<X<X<X<X<X<X<X<X<X<X<X<XM.J.O.;.W.<.>.E.O.%.X.>.:.U.l.$ 9.<X<X<X<X<X<X<X<X<X<X<X<X<X<X<X<X<X<X<X<X<X<X",
"<X<X<X<X<X<X<X<X<X<X<X<X<X<X<X<X<X<X<X<X<X<X<X<Xl...!.] ] W.Q.-.W.X.O.W ,.>.t.l.$ 9.<X<X<X<X<X<X<X<X<X<X<X<X<X<X<X<X<X<X<X<X<X<X",
"<X<X<X<X<X<X<X<X<X<X<X<X<X<X<X<X<X<X<X<X<X<X<X<Xc._ W.*.] X.V G.p.0 _ 4.;.<.0.x.$ 9.<X<X<X<X<X<X<X<X<X<X<X<X<X<X<X<X<X<X<X<X<X<X",
"<X<X<X<X<X<X<X<X<X<X<X<X<X<X<X<X<X<X<X<X<X<X<X<Xo.[ Y l.y.^ 9.oX].r h K.*.| W 5.D U.<X<X<X<X<X<X<X<X<X<X<X<X<X<X<X<X<X<X<X<X<X<X",
"<X<X<X<X<X<X<X<X<X<X<X<X<X<X<X<X<X<X<X<X<X<X<X<X] ' 2.l.l._ m ].].% ^ &Xf.[ s h ^ L.<X<X<X<X<X<X<X<X<X<X<X<X<X<X<X<X<X<X<X<X<X<X",
"<X<X<X<X<X<X<X<X<X<X<X<X<X<X<X<X<X<X<X<X<X<X<X<X' ' <Xn.e.Y 7 # + % k *X<XG.Y &.r.s <X<X<X<X<X<X<X<X<X<X<X<X<X<X<X<X<X<X<X<X<X<X",
"<X<X<X<X<X<X<X<X<X<X<X<X<X<X<X<X<X<X<X<X<X<X<X<X' ( <Xn.c.9 x v t % 6 =X<Xl.$XY.# 8.<X<X<X<X<X<X<X<X<X<X<X<X<X<X<X<X<X<X<X<X<X<X",
"<X<X<X<X<X<X<X<X<X<X<X<X<X<X<X<X<X<X<X<X<X<X<X<X_ 2.<XM.r.c R.7.H b 7 &Xv.<X<X<X$ 9.<X<X<X<X<X<X<X<X<X<X<X<X<X<X<X<X<X<X<X<X<X<X",
"<X<X<X<X<X<X<X<X<X<X<X<X<X<X<X<X<X<X<X<X<X<X<X@.$...e.! _ k m 7 3 6 l F F n.<X<X% 9.<X<X<X<X<X<X<X<X<X<X<X<X<X<X<X<X<X<X<X<X<X<X",
"<X<X<X<X<X<X<X<X<X<X<X<X<X<X<X<X<X<X<X<X<X<X<Xo.$.f.Q { +.R e w 7 4 l a - F H.<X$ 9.<X<X<X<X<X<X<X<X<X<X<X<X<X<X<X<X<X<X<X<X<X<X",
"<X<X<X<X<X<X<X<X<X<X<X<X<X<X<X<X<X<X<X<X<X<X<X<Xd.y.#.A.Z.T 2 R.7., s P a a t.Y.$ 9.<X<X<X<X<X<X<X<X<X<X<X<X<X<X<X<X<X<X<X<X<X<X",
"<X<X<X<X<X<X<X<X<X<X<X<X<X<X<X<X<X<X<X<X<X<X<X<Xw. .s.J.s.d ; V x @ > E I h N F.n.9.<X<X<X<X<X<X<X<X<X<X<X<X<X<X<X<X<X<X<X<X<X<X",
"<X<X<X<X<X<X<X<X<X<X<X<X<X<X<X<X<X<X<X<X<X<Xp.p.@.m.m.s...>Xq 8.5.i . I ^ ! R a n.K.<X<X<X<X<X<X<X<X<X<X<X<X<X<X<X<X<X<X<X<X<X<X",
"<X<X<X<X<X<X<X<X<X<X<X<X<X<X<X<X<X<X<X<X<X<Xv.l.m.J.m.@.s T.r 5.K p o a ^ ^ ! h n.H.<X<X<X<X<X<X<X<X<X<X<X<X<X<X<X<X<X<X<X<X<X<X",
"<X<X<X<X<X<X<X<X<X<X<X<X<X<X<X<X<X<X<X<X<X<XM.d.-XXX@.# y @ o V v o f = 5 ! S.^ e.Y.<X<X<X<X<X<X<X<X<X<X<X<X<X<X<X<X<X<X<X<X<X<X",
"<X<X<X<X<X<X<X<X<X<X<X<X<X<X<X<X<X<X<X<X<Xp.c.g.;XB.+ 1 U % c M v @ f @ % s f.I.4.Y.<X<X<X<X<X<X<X<X<X<X<X<X<X<X<X<X<X<X<X<X<X<X",
"<X<X<X<X<X<X<X<X<X<X<X<X<X<X<X<X<X<X<X<X<XG.G. XK.a.1 g / M d D S 6 g o % e ..C.V.Y.l.<X<X<X<X<X<X<X<X<X<X<X<X<X<X<X<X<X<X<X<X<X",
"<X<X<X<X<X<X<X<X<X<X<X<X<X<X<X<X<X<X<X<X<XH.Y.J.:X9.L ` h n n H S m Y o O 1 f.m.V.$XH.<X<X<X<X<X<X<X<X<X<X<X<X<X<X<X<X<X<X<X<X<X",
"<X<X<X<X<X<X<X<X<X<X<X<X<X<X<X<X<X<X<X<X<Xn.#X Xq.P ,Xj 5 w B +XT.V E O O 5 @.P.Y.#XG.<X<X<X<X<X<X<X<X<X<X<X<X<X<X<X<X<X<X<X<X<X",
"<X<X<X<X<X<X<X<X<X<X<X<X<X<X<X<X<X<X<X<X<X<XG.K.+XK / o + # o . . o # = o ; u.g.G.G.<X<X<X<X<X<X<X<X<X<X<X<X<X<X<X<X<X<X<X<X<X<X",
"<X<X<X<X<X<X<X<X<X<X<X<X<X<X<X<X<X<X<X<X<X<X<Xj.k P I 1 , V V # + t n > + 5 a.g.c.n.<X<X<X<X<X<X<X<X<X<X<X<X<X<X<X<X<X<X<X<X<X<X",
"<X<X<X<X<X<X<X<X<X<X<X<X<X<X<X<X<X<X<X<X<X<X<XB.0.K > r 4 @ @ + @ @ @ P p f l.N.b.l.<X<X<X<X<X<X<X<X<X<X<X<X<X<X<X<X<X<X<X<X<X<X",
"<X<X<X<X<X<X<X<X<X<X<X<X<X<X<X<X<X<X<X<X<X<X<XH.4.8.@ % + 6 ; O o ; 6 j f o M.`.G.<X<X<X<X<X<X<X<X<X<X<X<X<X<X<X<X<X<X<X<X<X<X<X",
"<X<X<X<X<X<X<X<X<X<X<X<X<X<X<X<X<X<X<X<X<X<X<XM.|.XX<X, , 1 8 w 8 4 2 @ o <X/.'.M.<X<X<X<X<X<X<X<X<X<X<X<X<X<X<X<X<X<X<X<X<X<X<X",
"<X<X<X<X<X<X<X<X<X<X<X<X<X<X<X<X<X<X<X<X<X<X/._.*X*X<X6 S 4 4 % 1 4 6 z o <X&X&X).^.(.<X<X<X<X<X<X<X<X<X<X<X<X<X<X<X<X<X<X<X<X<X",
"<X<X<X<X<X<X<X<X<X<X<X<X<X<X<X<X<X<X<X<X<X_._.[.=X=X<X, J ; o <X<Xo < e + <Xl.%Xk.{.).^.<X<X<X<X<X<X<X<X<X<X<X<X<X<X<X<X<X<X<X<X",
"<X<X<X<X<X<X<X<X<X<X<X<X<X<X<X<X<X<X<X<X<X<X<X<X<X<X<X< e @ + <X<X@ 6 6 <X<X<X<X<X<X<X<X<X<X<X<X<X<X<X<X<X<X<X<X<X<X<X<X<X<X<X<X",
"<X<X<X<X<X<X<X<X<X<X<X<X<X<X<X<X<X<X<X<X<X<X<X<X<X<X<X1 w + + <X<X; < 1 <X<X<X<X<X<X<X<X<X<X<X<X<X<X<X<X<X<X<X<X<X<X<X<X<X<X<X<X",
"<X<X<X<X<X<X<X<X<X<X<X<X<X<X<X<X<X<X<X<X<X<X<X<X<X<X<XZ L 6 @ <X<X1 z v <X<X<X<X<X<X<X<X<X<X<X<X<X<X<X<X<X<X<X<X<X<X<X<X<X<X<X<X",
"<X<X<X<X<X<X<X<X<X<X<X<X<X<X<X<X<X<X<X<X<X<X<X<X<X<X<Xy 7.b : <X<X4 Z C <X<X<X<X<X<X<X<X<X<X<X<X<X<X<X<X<X<X<X<X<X<X<X<X<X<X<X<X",
"<X<X<X<X<X<X<X<X<X<X<X<X<X<X<X<X<X<X<X<X<X<X<X<X<X<X<Xu A % + <X<Xw A t <X<X<X<X<X<X<X<X<X<X<X<X<X<X<X<X<X<X<X<X<X<X<X<X<X<X<X<X",
"<X<X<X<X<X<X<X<X<X<X<X<X<X<X<X<X<X<X<X<X<X<X<X<X<X<X<X.   @ <X<X<X4 t y . <X<X<X<X<X<X<X<X<X<X<X<X<X<X<X<X<X<X<X<X<X<X<X<X<X<X<X",
"<X<X<X<X<X<X<X<X<X<X<X<X<X<X<X<X<X<X<X<X<X<X<X<X<X<X<X<X6 2 <X<X<X@ 4 # . <X<X<X<X<X<X<X<X<X<X<X<X<X<X<X<X<X<X<X<X<X<X<X<X<X<X<X",
"<X<X<X<X<X<X<X<X<X<X<X<X<X<X<X<X<X<X<X<X<X<X<X<X<X<X<X<Xe # . <X<X<X6 <X<X<X<X<X<X<X<X<X<X<X<X<X<X<X<X<X<X<X<X<X<X<X<X<X<X<X<X<X",
"<X<X<X<X<X<X<X<X<X<X<X<X<X<X<X<X<X<X<X<X<X<X<X<X<X<X<X<X<X& * <X<X@ S <X<X<X<X<X<X<X<X<X<X<X<X<X<X<X<X<X<X<X<X<X<X<X<X<X<X<X<X<X",
"<X<X<X<X<X<X<X<X<X<X<X<X<X<X<X<X<X<X<X<X<X<X<X<X<X<X<X<XX * X <X<X@ 0 @ <X<X<X<X<X<X<X<X<X<X<X<X<X<X<X<X<X<X<X<X<X<X<X<X<X<X<X<X",
"<X<X<X<X<X<X<X<X<X<X<X<X<X<X<X<X<X<X<X<X<X<X<X<X<X<X<X<XX * . <X<XX y <X<X<X<X<X<X<X<X<X<X<X<X<X<X<X<X<X<X<X<X<X<X<X<X<X<X<X<X<X",
"<X<X<X<X<X<X<X<X<X<X<X<X<X<X<X<X<X<X<X<X<X<X<X<X<X<X<X<X<X<X<X<X<XX u . <X<X<X<X<X<X<X<X<X<X<X<X<X<X<X<X<X<X<X<X<X<X<X<X<X<X<X<X",
"<X<X<X<X<X<X<X<X<X<X<X<X<X<X<X<X<X<X<X<X<X<X<X<X<X<X<X<X<X<X<X<X<XX y . <X<X<X<X<X<X<X<X<X<X<X<X<X<X<X<X<X<X<X<X<X<X<X<X<X<X<X<X",
"<X<X<X<X<X<X<X<X<X<X<X<X<X<X<X<X<X<X<X<X<X<X<X<X<X<X<X<X<X<X<X<X<X<X<X<X<X<X<X<X<X<X<X<X<X<X<X<X<X<X<X<X<X<X<X<X<X<X<X<X<X<X<X<X",
"<X<X<X<X<X<X<X<X<X<X<X<X<X<X<X<X<X<X<X<X<X<X<X<X<X<X<X<X<X<X<X<X<X<X<X<X<X<X<X<X<X<X<X<X<X<X<X<X<X<X<X<X<X<X<X<X<X<X<X<X<X<X<X<X",
"<X<X<X<X<X<X<X<X<X<X<X<X<X<X<X<X<X<X<X<X<X<X<X<X<X<X<X<X<X<X<X<X<X<X<X<X<X<X<X<X<X<X<X<X<X<X<X<X<X<X<X<X<X<X<X<X<X<X<X<X<X<X<X<X"
};
