/* XPM */
static char *result[] = {
/* columns rows colors chars-per-pixel */
"64 64 215 2 ",
"   c #080800",
".  c #070008",
"X  c gray3",
"o  c #100000",
"O  c #180000",
"+  c #100800",
"@  c #180800",
"#  c #140808",
"$  c #181000",
"%  c #101008",
"&  c #181008",
"*  c #0D0810",
"=  c #111010",
"-  c #171619",
";  c #210000",
":  c #210800",
">  c #210808",
",  c #211000",
"<  c #291000",
"1  c #211008",
"2  c #291008",
"3  c #211808",
"4  c #291808",
"5  c #351006",
"6  c #311800",
"7  c #311808",
"8  c #3B1808",
"9  c #281810",
"0  c #311810",
"q  c #3B1810",
"w  c #321F18",
"e  c #3D2208",
"r  c #312110",
"t  c #392110",
"y  c #392918",
"u  c #252324",
"i  c #382D2A",
"p  c #420400",
"a  c #520000",
"s  c #520B00",
"d  c #520E08",
"f  c #6B0000",
"g  c #6A0E09",
"h  c #7F0000",
"j  c #4D2A0F",
"k  c #422110",
"l  c #422A10",
"z  c #4A2118",
"x  c #422918",
"c  c #4A2918",
"v  c #5A2719",
"b  c #4A311B",
"n  c #5C3C14",
"m  c #523118",
"M  c #5E3118",
"N  c #642C0C",
"B  c #4A2921",
"V  c #523122",
"C  c #5F3121",
"Z  c #583921",
"A  c #5C3E29",
"S  c #633921",
"D  c #713921",
"F  c #7A4211",
"G  c #604421",
"H  c #6F4421",
"J  c #6B4429",
"K  c #764129",
"L  c #7A4A29",
"P  c #694831",
"I  c #6B4C39",
"U  c #514C51",
"Y  c #7D5E4D",
"T  c #8B0B00",
"R  c #8C0E08",
"E  c #940000",
"W  c #AD0000",
"Q  c #B40E00",
"!  c #B60D08",
"~  c #8E2100",
"^  c #8C2308",
"/  c #8C2310",
"(  c #8B2B1A",
")  c #B52308",
"_  c #B62310",
"`  c #B72C1A",
"'  c #C20000",
"]  c #CE0000",
"[  c #DA0000",
"{  c #DD0D09",
"}  c #D61C0D",
"|  c #EB0000",
" . c #F70000",
".. c red",
"X. c #F40D09",
"o. c #FF0808",
"O. c #DA2A00",
"+. c #D62D0C",
"@. c #CE3D06",
"#. c #DC2A1B",
"$. c #FD210F",
"%. c #EB3D03",
"&. c #FF3E03",
"*. c #F4291C",
"=. c #FF2D18",
"-. c #E33E18",
";. c #F33E19",
":. c #FF2E2C",
">. c #FF3121",
",. c #FF3D21",
"<. c #FF3D31",
"1. c #A34408",
"2. c #B94407",
"3. c #A2451D",
"4. c #B9481D",
"5. c #A86910",
"6. c #814921",
"7. c #8F4E2D",
"8. c #815929",
"9. c #805131",
"0. c #935D30",
"q. c #945F39",
"w. c #AE4C2C",
"e. c #B5602E",
"r. c #B16539",
"t. c #D05007",
"y. c #DE5A08",
"u. c #CE421C",
"i. c #CE561D",
"p. c #E84E03",
"a. c #FF4E04",
"s. c #E75A08",
"d. c #FB5A04",
"f. c #FD4A13",
"g. c #E75710",
"h. c #E8521D",
"j. c #FE5614",
"k. c #D66911",
"l. c #E76406",
"z. c #F36305",
"x. c #F66E05",
"c. c #E76310",
"v. c #E76F10",
"b. c #EF6B10",
"n. c #E76319",
"m. c #E76C1D",
"M. c #EF6B18",
"N. c #F26310",
"B. c #FD671D",
"V. c #EF731F",
"C. c #F97210",
"Z. c #F9731D",
"A. c #DA502B",
"S. c #F44F2B",
"D. c #FF4A2C",
"F. c #FD5021",
"G. c #FF5529",
"H. c #EC503E",
"J. c #FF5731",
"K. c #FF5239",
"L. c #DB6B2D",
"P. c #C57D3C",
"I. c #EF6A21",
"U. c #EF6F2B",
"Y. c #FC732D",
"T. c #F77C29",
"R. c #FE6731",
"E. c #FF6B39",
"W. c #EC7E37",
"Q. c #F77F36",
"!. c #99664A",
"~. c #9C6F59",
"^. c #A96A42",
"/. c #FF4D42",
"(. c #FF534F",
"). c #FF6C45",
"_. c #FF6B58",
"`. c #DD8306",
"'. c #F7800D",
"]. c #FF8308",
"[. c #EC9A05",
"{. c #FF9D00",
"}. c #FF9C14",
"|. c #EFB206",
" X c #FFB400",
".X c #FFB412",
"XX c #FF8521",
"oX c #FF962E",
"OX c #FF8039",
"+X c #FF8C39",
"@X c #FF9739",
"#X c #FEAC38",
"$X c #FECA0A",
"%X c #FFDD11",
"&X c yellow",
"*X c #FFD435",
"=X c #BA804E",
"-X c #B98A68",
";X c #DB944F",
":X c #CC9E50",
">X c #E8874D",
",X c #FF8142",
"<X c #FF8C42",
"1X c #FF804D",
"2X c #FF8C4C",
"3X c #FF9742",
"4X c #FF9F4F",
"5X c #F48C5E",
"6X c #FF9452",
"7X c #EEA062",
"8X c #F2BE64",
"9X c #FEC44E",
"0X c #B99D84",
"qX c #E1B68E",
"wX c None",
/* pixels */
"wXwXwXwXwXwXwXwXwXwXwXwXwXwXwXwXwXwXwXwXwXwXwXwXwXwXwXwXwXwXwXwXwXwXwXwXwXwXwXwXwXwXwXwXwXwXwXwXwXwXwXwXwXwXwXwXwXwXwXwXwXwXwXwX",
"wXwXwXwXwXwXwXwXwXwXwXwXwXwXwXwXwXwXwXwXwXwXwXwXwXwXwXwXwXwXwXwXwXwXwXwXwXwXwXwXwXwXwXwXwXwXwXwXwXwXwXwXwXwXwXwXwXwXwXwXwXwXwXwX",
"wXwXwXwXwXwXwXwXwXwXwXwXwXwXwXwXwXwXwXwXwXwXwXwXwXwXwXwXwXwXwXwXwXwXwXwXwXwXwXwXwXwXwXwXwXwXwXwXwXwXwXwXwXwXwXwXwXwXwXwXwXwXwXwX",
"wXwXwXwXwXwXwXwXwXwXwXwXwXwXwXwXwXwXwXwXwXwXwXwXwXwXwXwX&X8.wXwXwXwXwXwXwXwXwXwXwXwXwXwXwXwXwXwXwXwXwXwXwXwXwXwXwXwXwXwXwXwXwXwX",
"wXwXwXwXwXwXwXwXwXwXwXwXwXwXwXwXwXwXwXwXwXwXwXwXwXwXwXwX:XG wXwXwXwXwXwXwXwXwXwXwXwXwXwXwXwXwXwXwXwXwXwXwXwXwXwXwXwXwXwXwXwXwXwX",
"wXwXwXwXwXwXwXwXwXwXwXwXwXwXwXwXwXwXwXwXwXwXwXwXwXwXwXwX0.% wXwXwXwXwXwXwXwXwXwXwXwXwXwXwXwXwXwXwXwXwXwXwXwXwXwXwXwXwXwXwXwXwXwX",
"wXwXwXwXwXwXwXwXwXwXwXwXwXwXwXwXwXwXwXwXwXwXwXwXwXwXwXwXq.% wXwXwXwXwXwXwXwXwXwXwXwXwXwXwXwXwXwXwXwXwXwXwXwXwXwXwXwXwXwXwXwXwXwX",
"wXwXwXwXwXwXwXwXwXwXwXwXwXwXwXwXwXwXwXwXwXwXwXwXwXwXwXwXq.% wXwXwXwXwXwXwXwXwXwXwXwXwXwXwXwXwXwXwXwXwXwXwXwXwXwXwXwXwXwXwXwXwXwX",
"wXwXwXwXwXwXwXwXwXwXwXwXwXwXwXwXwXwXwXwXwXwXwXwXwXwXwXwXq.% wXwXwXwXwXwXwXwXwXwXwXwXwXwXwXwXwXwXwXwXwXwXwXwXwXwXwXwXwXwXwXwXwXwX",
"wXwXwXwXwXwXwXwXwXwXwXwXwXwXwXwXwXwXwXwXwXwXwXwXwXwXwXwXq.% wXwXwXwXwXwXwXwXwXwXwXwXwXwXwXwXwXwXwXwXwXwXwXwXwXwXwXwXwXwXwXwXwXwX",
"wXwXwXwXwXwXwXwXwXwXwXwXwXwXwXwXwXwXwXwXwXwXwXwXwXwXwXwXq.% wXwXwXwXwXwXwXwXs.wXwXwXwXwXwXwXwXwXwXwXwXwXwXwXwXwXwXwXwXwXwXwXwXwX",
"wXwXwXwXwXwXwXwXwXwXwXwXwXwXwXwXwXwXwXwXwXwXwXwXwXwXwXwXq.% wXwXwXwXwXwXwXwXm.wXwXwXwXwXwXwXwXwXwXwXwXwXwXwXwXwXwXwXwXwXwXwXwXwX",
"wXwXwXwXwXwXwXwXwXwXwXwXwXwXwXwXwXwXwXwXwXwXwXwXwXwXwXwXq.% wXwXwXwXwXb.b.b.Q.c.wXwXwXwXwXwXwXwXwXwXwXwXwXwXwXwXwXwXwXwXwXwXwXwX",
"wXwXwXwXwXwXwXwXwXwXwXwXwXwXwXwXwXwXwXwXwXwXwXwXwXwXwXwXq.% wXwXwXwXv.Z.wXwXm.I.wXwXwXwXwXwXwXwXwXwXwXwXwXwXwXwXwXwXwXwXwXwXwXwX",
"wXwXwXwXwXwXwXwXwXwXwXwXwXwXwXwXwXwXwXwXwXwXwXwXwXwXwXwXq.% 1.f E W Q.+Xn.c.W.I.wXwXwXwXwXwXwXwXwXwXwXwXwXwXwXwXwXwXwXwXwXwXwXwX",
"wXwXwXwXwXwXwXwXwXwXwXwXwXwXwXwXwXwXwXwXwXwXwXwXwXwXwXwXq.;X) | o.| h.+XV.I.U.c.wXwXwXwXwXwXwXwXwXwXwXwXwXwXwXwXwXwXwXwXwXwXwXwX",
"wXwXwXwXwXwXwXwXwXwXwXwXwXwXwXwXwXwXwXwXn.wXwXwXwXwXwXwXq.>XD.,.K.<.;.+XV.c.wXwXwXwXwXwXwXwXwXwXwXwXwXwXwXwXwXwXwXwXwXwXwXwXwXwX",
"wXwXwXwXwXwXwXwXwXwXwXwXwXwXwXwXwXwXwXwX,X,Xg.wXwXwXwXwXq.W.F.R.E.,XB.XXb.wXwXwXwXwXwXwXwXwXwXwXwXwXwXwXwXwXwXwXwXwXwXwXwXwXwXwX",
"wXwXwXwXwXwXwXwXwXwXwXwXwXwXwXwXwXwXwXwXW.wXwXs.wXwXwXwXq.6XOX<X@X+XoX@XC.wXwXwXwXwXwXwXwXwXwXwXwXwXwXwXwXwXwXwXwXwXwXwXwXwXwXwX",
"wXwXwXwXwXwXwXwXwXwXwXwXwXwXwXwXwXwXwXwXU.wXwXwXwXwXwXwXq.4X<X+X4X<X@XoXC.wXwXwXwXwXwXwXwXwXwXwXwXwXwXwXwXwXwXwXwXwXwXwXwXwXwXwX",
"wXwXwXwXwXwXwXwXwXwXwXwXwXwXwXwXwXwXwXg.U.wXwXwXwXwXwXwXq.6X3XQ.3.^ ` T.@Xb.wXwXwXwXwXwXwXwXwXwXwXwXwXwXwXwXwXwXwXwXwXwXwXwXwXwX",
"wXwXwXwXwXwXwXwXwXwXwXwXwXwXwXwXwXwXU.W.c.wXwXwXwXwXwXwXT.=XF m / +.;.-.3XT.wXwXwXwXwXwXwXwXwXwXwXwXwXwXwXwXwXwXwXwXwXwXwXwXwXwX",
"wXwXwXwXwXwXwXwXwXwXwXwXwXwXwXwXwXwXU.U.n.wXwXwXwXwXwXwX+Xq.F 3.*.>.;.-.3XT.wXwXwXwXwXwXwXwXwXwXwXwXwXwXwXwXwXwXwXwXwXwXwXwXwXwX",
"wXwXwXwXwXwXwXwXwXwXwXwXwXwXwXwXwXwXm.m.wXwXwXwXwXwXwXM.3Xv $.D.,.J.R.R.4X3XwXwXwXwXwXwXwXwXwXwXwXwXwXwXwXwXwXwXwXwXwXwXwXwXwXwX",
"wXwXwXwXwXwXwXwXwXwXwXwXwXwXl.k.l.z.%.p.wXwXwXwXwXwXwXM.3X( ,.E.D.E.).R.4X3XwXwXwXwXwXwXwXwXwXwXwXwXwXwXwXwXwXwXwXwXwXwXwXwXwXwX",
"wXwXwXwXwXwXwXwXwXwXwX1 [.[.*X*X.X#X9X8X@Xy.wXwXwXwXwXV.P.>XD.J.2XQ.E.).6X4XM.wXwXwXwXwXwXwXwXwXwXwXwXwXwXwXwXwXwXwXwXwXwXwXwXwX",
"wXwXwXwXwXwXwXwXwXwXwX, [.|.6.N N F L.@XN.2.2.wXwXwXwX3Xw.;XG.J.2X,XE.2X6X4XT.wXwXwXwXwXwXwXwXwXwXwXwXwXwXwXwXwXwXwXwXwXwXwXwXwX",
"wXwXwXwXwXwXwXwXwXwXwX5.7 < j 6 @ o 4 @ M W.Y.) ^ wXwXwXT.;XR.).6X4X2X7XJ.6Xs.wXwXwXwXwXwXwXwXwXwXwXwXwXwXwXwXwXwXwXwXwXwXwXwXwX",
"wXwXwXwXwXwXwXwXwXwX$Xn I m 6.S x o 0 < H N 4.2XE.;.) wX0.7XA.E.6X5X7X6XG.OXwXwXwXwXwXwXwXwXwXwXwXwXwXwXwXwXwXwXwXwXwXwXwXwXwXwX",
"wXwXwXwXwXwXwXwXwX[.%X$ 4 A C C x x c > 7.Z x D S.1X-.Q q.7Xe.A.).).E.6X3Xs.wXwXwXwXwXwXwXwXwXwXwXwXwXwXwXwXwXwXwXwXwXwXwXwXwXwX",
"wXwXwXwXwXwXwXwXwXwXwXy P.H 2 L q.2 K t L @ k 0.c ).E.;._ -X2Xu.5XK.2X,X3XwXwXwXwXwXwXwXwXwXwXwX5X5XW.,Xs.wXwXwXwXwXwXwXwXwXwXwX",
"wXwXwXwXwXwXwXwXwXwXwX- M 7.: z 0.z 9.0 V , 7.r.r.3.E.s h W.H.<.K.,XOX,X+XwXwXwXwXwXwXwXwXwXwXwX,Xn.wXwXwXwXwXwXwXwXwXwXwXwXwXwX",
"wXwXwXwXwXwXwXwXwXwXwX4 m r.2 7 q 7 1 O V t 7 r.^.7 q ^ _ A.<.:.Y.Y.U.6Xb.wXwXwXwXwXwXwXwXwXwXwXL.g.wXwXwXwXwXwXwXwXwXwXwXwXwXwX",
"wXwXwXwXwXwXwXwXwXwXwXt 8 S 7 @ o o + o S c Z L 0.m @ > & A.:.,.E.Y.U.4XwXwXwXwXwXwXwXwXwXwXwXwXI.m.wXwXwXwXwXwXwXwXwXwXwXwXwXwX",
"wXwXwXwXwXwXwXwXwXwXwX^.k b k wXwXo o ; r.^.7.H 7.v @   . ^.-.f.R.Y.2X+X. . . wXwXwXwXwXwXwXwXn.n.c.wXwXwXwXwXwXwXwXwXwXwXwXwXwX",
"wXwXwXwXwXwXwXwXwXwXJ m Z V wXwXwXwXo O w.9.m M 7.m 7 * B 3.f.j.j.Y.r.  . . . o . & wXwXwXwXn.W.4.` @.t.wXwXwXwXwXwXwXwXwXwXwXwX",
"wXwXwXwXwXwXwXwXwXwX+ G -X` | W wXwXo + V 9.& m m J D x K &.6XT.f.0.= X = u X o o 1 3 3 9 wX~ } (.K.E.J.p.wXwXwXwXwXwXwXwXwXwXwX",
"wXwXwXwXwXwXwXwXwXwXwXwX| | ' ] ..] f & G : 7 m c } ..6X7X4X@Xd.Y U U U U Y Z 1 : 7 7 l x 5 /._.(.).).E.f.%.wXwXwXwXwXwXwXwXwXwX",
"wXwXwXwXwXwXwXwXwXwXwXwX| | W W | [ ' p 9 @ 7 m R ....6X6X8XT.h.~.~.Y ~.0X~.^.4 : Z e + 1 O } } =.).E.E.Q.f.wXwXwXwXwXwXwXwXwXwX",
"wXwXwXwXwXwXwXwXwXwXwXwX| | f h qX{  ...| ......e.X.| L.h.<Xn.!.U U U U r.#.} p c ^.7.q k c , 7 R u.Y.4X4XT.O.wXwXwXwXwXwXwXwXwX",
"wXwXwXwXwXwXwXwXwXwXwXwXwX| wXW 4.| | ..u.......} ..( ` R.8Xu.9.P V A i !.A ....X.u.( m 9.N W a wXf.Y.6X4XOX%.wXwXwXwXwXwXwXwXwX",
"wXwXwXwXwXwXwXwXwXwXwXwXwXwXwX....'  ...} ....R 8 ..g c H 4XZ.t.q.^.M c J c w.` ....X.X.....=X7.wXwXOX4X4X3Xa.wXwXwXwXwXwXwXwXwX",
"wXwXwXwXwXwXwXwXwXwXwXwXwXwXwX....wX....8 h ..g 1 ..R J b T.@Xd.~.8Xc m I V X. .....i.` ....-X9.wXwXY.4X3X#Xp.wXwXwXwXwXwXwXwXwX",
"wXwXwXwXwXwXwXwXwXwXwXwXwXwXwXwXwXwX....o f ..( H r.!.& V n.@Xx.=Xc I ;X7.t ................ .] wXwXOX4X#X9X].wXwXwXwXwXwXwXwXwX",
"wXwXwXwXwXwXwXwXwXwXwXwXwXwXwXwXwXwX....+ h | v 9.m M 1 w w.oX].I r J A & 2 | ] s ' ..........] wXwX@X4X#X9X}.l.wXwXwXwXwXwXwXwX",
"wXwXwXwXwXwXwXwXwXwXwXwXwXwXwXwXwXwXwXwXwX& 8 9.7.8 7 y y b #X}.L ^.H S 0 r ] ..v k  ...d g ..i 8 wXwXoX#X*X*X].`.wXwXwXwXwXwXwX",
"wXwXwXwXwXwXwXwXwXwXwXwXwXwXwXwXwXwXwXwXwX& 7 C 0.wXwXwXwXr }.*X9.F 0 9 wXwX1 ..p z ! ..T ......W wXwXx..X#X*X$X.XwXwXwXwXwXwXwX",
"wXwXwXwXwXwXwXwXwXwXwXwXwXwXwXwXwXwXwXwXwX1 7 t c wXwXwXwXwXx.*XV.wXwXwXwXwXwXwX1 2 R ..W : ....wXwXwXwX}..X$X*X$XwXwXwXwXwXwXwX",
"wXwXwXwXwXwXwXwXwXwXwXwXwXwXwXwXwXwXwXwXwX& e z 7 wXwXwXwXwX.X*X'.wXwXwXwXwXwXwXwX, q K c K r wXwXwXwXwX{..X$X%X%X$X$XwXwXwXwXwX",
"wXwXwXwXwXwXwXwXwXwXwXwXwXwXwXwXwXwXwXwXwX$ q m t wXwXwXwX].{. Xl.wXwXwXwXwXwXwXwXwX@ =X9.c k wXwXwXwXwXwXwX X%X%X%Xk.wXwXwXwXwX",
"wXwXwXwXwXwXwXwXwXwXwXwXwXwXwXwXwXwXwXwXwX1 x J 7 wXwXwX{. X[.wXwXwXwXwXwXwXwXwXwXwXwX0 m H V q wXwXwXwXwXwXwXwXwXwXwXwXwXwXwXwX",
"wXwXwXwXwXwXwXwXwXwXwXwXwXwXwXwXwXwXwXwXwX& Z 9.t wXwXwXwXwXwXwXwXwXwXwXwXwXwXwXwXwXwXwXr q.S , wXwXwXwXwXwXwXwXwXwXwXwXwXwXwXwX",
"wXwXwXwXwXwXwXwXwXwXwXwXwXwXwXwXwXwXwXwXwX# 9.c r wXwXwXwXwXwXwXwXwXwXwXwXwXwXwXwXwXwXwXwXk c + wXwXwXwXwXwXwXwXwXwXwXwXwXwXwXwX",
"wXwXwXwXwXwXwXwXwXwXwXwXwXwXwXwXwXwXwXwXwXwXy 2 wXwXwXwXwXwXwXwXwXwXwXwXwXwXwXwXwXwXwXwXwX1 7 1 wXwXwXwXwXwXwXwXwXwXwXwXwXwXwXwX",
"wXwXwXwXwXwXwXwXwXwXwXwXwXwXwXwXwXwXwXwXwXwXC , wXwXwXwXwXwXwXwXwXwXwXwXwXwXwXwXwXwXwXwXwX2 7 @ wXwXwXwXwXwXwXwXwXwXwXwXwXwXwXwX",
"wXwXwXwXwXwXwXwXwXwXwXwXwXwXwXwXwXwXwXwXwX+ Z : wXwXwXwXwXwXwXwXwXwXwXwXwXwXwXwXwXwXwXwXwXm t wXwXwXwXwXwXwXwXwXwXwXwXwXwXwXwXwX",
"wXwXwXwXwXwXwXwXwXwXwXwXwXwXwXwXwXwXwXwXwX# 8.1 wXwXwXwXwXwXwXwXwXwXwXwXwXwXwXwXwXwXwXwXi Z t wXwXwXwXwXwXwXwXwXwXwXwXwXwXwXwXwX",
"wXwXwXwXwXwXwXwXwXwXwXwXwXwXwXwXwXwXwXwXwX9 ^.wXwXwXwXwXwXwXwXwXwXwXwXwXwXwXwXwXwXwXwX= * i 0 wXwXwXwXwXwXwXwXwXwXwXwXwXwXwXwXwX",
"wXwXwXwXwXwXwXwXwXwXwXwXwXwXwXwXwXwXwXwX. = 9 wXwXwXwXwXwXwXwXwXwXwXwXwXwXwXwXwXwXwXwXX - w 1 wXwXwXwXwXwXwXwXwXwXwXwXwXwXwXwXwX",
"wXwXwXwXwXwXwXwXwXwXwXwXwXwXwXwXwXwXwXwX. U = wXwXwXwXwXwXwXwXwXwXwXwXwXwXwXwXwXwXwXwXX - X wXwXwXwXwXwXwXwXwXwXwXwXwXwXwXwXwXwX",
"wXwXwXwXwXwXwXwXwXwXwXwXwXwXwXwXwXwXwXwXX u X wXwXwXwXwXwXwXwXwXwXwXwXwXwXwXwXwXwXwXwXX - X wXwXwXwXwXwXwXwXwXwXwXwXwXwXwXwXwXwX",
"wXwXwXwXwXwXwXwXwXwXwXwXwXwXwXwXwXwXwXwXwXwXwXwXwXwXwXwXwXwXwXwXwXwXwXwXwXwXwXwXwXwXwXwXwXwXwXwXwXwXwXwXwXwXwXwXwXwXwXwXwXwXwXwX",
"wXwXwXwXwXwXwXwXwXwXwXwXwXwXwXwXwXwXwXwXwXwXwXwXwXwXwXwXwXwXwXwXwXwXwXwXwXwXwXwXwXwXwXwXwXwXwXwXwXwXwXwXwXwXwXwXwXwXwXwXwXwXwXwX",
"wXwXwXwXwXwXwXwXwXwXwXwXwXwXwXwXwXwXwXwXwXwXwXwXwXwXwXwXwXwXwXwXwXwXwXwXwXwXwXwXwXwXwXwXwXwXwXwXwXwXwXwXwXwXwXwXwXwXwXwXwXwXwXwX"
};
