/* XPM */
static char *result[] = {
/* columns rows colors chars-per-pixel */
"64 64 199 2 ",
"   c #070008",
".  c gray3",
"X  c #100000",
"o  c #100800",
"O  c #180800",
"+  c #140808",
"@  c #101008",
"#  c #181008",
"$  c #0D0810",
"%  c #111010",
"&  c #171619",
"*  c #290501",
"=  c #210800",
"-  c #210808",
";  c #350301",
":  c #211000",
">  c #211008",
",  c #291008",
"<  c #211808",
"1  c #291808",
"2  c #351006",
"3  c #311808",
"4  c #3B1808",
"5  c #281810",
"6  c #311810",
"7  c #321F18",
"8  c #392918",
"9  c #252324",
"0  c #382D2A",
"q  c #420400",
"w  c #520000",
"e  c #520E08",
"r  c #6B0000",
"t  c #6A0E09",
"y  c #7F0000",
"u  c #671C09",
"i  c #422110",
"p  c #422A10",
"a  c #422918",
"s  c #4A2918",
"d  c #5A2719",
"f  c #523118",
"g  c #5E3118",
"h  c #5F3121",
"j  c #583921",
"k  c #633921",
"l  c #713921",
"z  c #7A4211",
"x  c #604421",
"c  c #6F4421",
"v  c #6B4429",
"b  c #6B4C39",
"n  c #514C51",
"m  c #7D5E4D",
"M  c #8B0B00",
"N  c #8C0E08",
"B  c #940000",
"V  c #AD0000",
"C  c #B60D08",
"Z  c #8E2100",
"A  c #8C2308",
"S  c #8C2310",
"D  c #8B2B1A",
"F  c #B62800",
"G  c #B52308",
"H  c #B62310",
"J  c #B72C1A",
"K  c #C20000",
"L  c #CE0000",
"P  c #DA0000",
"I  c #DA0C00",
"U  c #DD0D09",
"Y  c #D61C0D",
"T  c #EB0000",
"R  c #F70000",
"E  c red",
"W  c #F40D09",
"Q  c #FF0808",
"!  c #FF100C",
"~  c #FD180E",
"^  c #FF1D18",
"/  c #DA2A00",
"(  c #D62D0C",
")  c #CE3D06",
"_  c #DC2A1B",
"`  c #EB220C",
"'  c #FD210F",
"]  c #FD2D0D",
"[  c #EB3D03",
"{  c #FF3E03",
"}  c #F4291C",
"|  c #FF2D18",
" . c #E33E18",
".. c #F33E19",
"X. c #FF2521",
"o. c #FF2E2C",
"O. c #FF3121",
"+. c #FF3D21",
"@. c #FF3E29",
"#. c #FF3D31",
"$. c #FF3E39",
"%. c #A34408",
"&. c #B94407",
"*. c #A2451D",
"=. c #B9481D",
"-. c #A86910",
";. c #814921",
":. c #8F4E2D",
">. c #815929",
",. c #805131",
"<. c #935D30",
"1. c #945F39",
"2. c #AE4C2C",
"3. c #B5602E",
"4. c #B16539",
"5. c #D05007",
"6. c #CE421C",
"7. c #CE561D",
"8. c #E84E03",
"9. c #FF4E04",
"0. c #E75A00",
"q. c #E75A08",
"w. c #FB5A04",
"e. c #FD4A13",
"r. c #E75710",
"t. c #E8521D",
"y. c #FE5614",
"u. c #D66911",
"i. c #E76406",
"p. c #F66E05",
"a. c #E76310",
"s. c #E76F10",
"d. c #EF6B10",
"f. c #E76319",
"g. c #EF6318",
"h. c #E76C1D",
"j. c #EF6B18",
"k. c #F26310",
"l. c #FD671D",
"z. c #EF731F",
"x. c #F97210",
"c. c #F9731D",
"v. c #DA502B",
"b. c #F44F2B",
"n. c #FF4A2C",
"m. c #FD5021",
"M. c #FF5529",
"N. c #EC503E",
"B. c #FF5731",
"V. c #FF5239",
"C. c #DB6B2D",
"Z. c #EF6A21",
"A. c #EF6F2B",
"S. c #FC732D",
"D. c #F77C29",
"F. c #E36E39",
"G. c #FE6731",
"H. c #FF6B39",
"J. c #EC7E37",
"K. c #F77F36",
"L. c #9C6F59",
"P. c #FF4D42",
"I. c #FF534F",
"U. c #FF6C45",
"Y. c #FF6B58",
"T. c #DD8306",
"R. c #F7800D",
"E. c #FF8308",
"W. c #EC9A05",
"Q. c #FF9D00",
"!. c #FF8418",
"~. c #FF9C14",
"^. c #EFB206",
"/. c #FFB400",
"(. c #FF8521",
"). c #FF962E",
"_. c #E58C3A",
"`. c #FF8039",
"'. c #FF8C39",
"]. c #FF9739",
"[. c #FEAC38",
"{. c #FFDD11",
"}. c yellow",
"|. c #FFD435",
" X c #BA804E",
".X c #B98A68",
"XX c #CC9E50",
"oX c #E8874D",
"OX c #FF8142",
"+X c #FF8C42",
"@X c #FF804D",
"#X c #FF8C4C",
"$X c #FF9742",
"%X c #FF9F4F",
"&X c #F48C5E",
"*X c #FF9452",
"=X c #F2BE64",
"-X c #FEC44E",
";X c None",
/* pixels */
";X;X;X;X;X;X;X;X;X;X;X;X;X;X;X;X;X;X;X;X;X;X;X;X;X;X;X;X;X;X;X;X;X;X;X;X;X;X;X;X;X;X;X;X;X;X;X;X;X;X;X;X;X;X;X;X;X;X;X;X;X;X;X;X",
";X;X;X;X;X;X;X;X;X;X;X;X;X;X;X;X;X;X;X;X;X;X;X;X;X;X;X;X;X;X;X;X;X;X;X;X;X;X;X;X;X;X;X;X;X;X;X;X;X;X;X;X;X;X;X;X;X;X;X;X;X;X;X;X",
";X;X;X;X;X;X;X;X;X;X;X;X;X;X;X;X;X;X;X;X;X;X;X>.}.;X;X;X;X;X;X;X;X;X;X;X;X;X;X;X;X;X;X;X;X;X;X;X;X;X;X;X;X;X;X;X;X;X;X;X;X;X;X;X",
";X;X;X;X;X;X;X;X;X;X;X;X;X;X;X;X;X;X;X;X;X;X;Xx XX;X;X;X;X;X;X;X;X;X;X;X;X;X;X;X;X;X;X;X;X;X;X;X;X;X;X;X;X;X;X;X;X;X;X;X;X;X;X;X",
";X;X;X;X;X;X;X;X;X;X;X;X;X;X;X;X;X;X;X;X;X;X;X@ <.;X;X;X;X;X;X;X;X;X;X;X;X;X;X;X;X;X;X;X;X;X;X;X;X;X;X;X;X;X;X;X;X;X;X;X;X;X;X;X",
";X;X;X;X;X;X;X;X;X;X;X;X;X;X;X;X;X;X;X;X;X;X;X@ 1.;X;X;X;X;X;X;X;X;X;X;X;X;X;X;X;X;X;X;X;X;X;X;X;X;X;X;X;X;X;X;X;X;X;X;X;X;X;X;X",
";X;X;X;X;X;X;X;X;X;X;X;X;X;X;X;X;X;X;X;X;X;X;X@ 1.;X;X;X;X;X;X;X;X;X;X;X;X;X;X;X;X;X;X;X;X;X;X;X;X;X;X;X;X;X;X;X;X;X;X;X;X;X;X;X",
";X;X;X;X;X;X;X;X;X;X;X;X;X;X;X;X;X;X;X;X;X;X;X@ 1.;X;X;X;X;X;X;X;X;X;X;X;X;X;X;X;X;X;X;X;X;X;X;X;X;X;X;X;X;X;X;X;X;X;X;X;X;X;X;X",
";X;X;X;X;X;X;X;X;X;X;X;X;X;X;X;X;X;X;X;X;X;X;X@ 1.;X;X;X;X;X;X;X;X;X;X;X;X;X;X;X;X;X;X;X;X;X;X;X;X;X;X;X;X;X;X;X;X;X;X;X;X;X;X;X",
";X;X;X;X;X;X;X;X;X;X;X;X;X;X;X;X;X;X;X;X;X;X;X@ 1.;X;X;X;X;X;X;X;X;X;X;X;X;X;X;X;X;X;X;X;X;X;X;X;X;X;X;X;X;X;X;X;X;X;X;X;X;X;X;X",
";X;X;X;X;X;X;X;X;X;X;X;X;X;X;X;X;X;X;X;X;X;X;X@ 1.;X;X;X;X;X;X;X;X;X;X;X;X;X;X;X;X;X;X;X;X;X;X;X;X;X;X;X;X;X;X;X;X;X;X;X;X;X;X;X",
";X;X;X;X;X;X;X;X;X;X;X;X;X;X;X;X;X;X;X;X;X;X;X@ 1.;X;X;X;X;X;X;Xr.;X;X;X;X;X;X;X;X;X;X;X;X;X;X;X;X;X;X;X;X;X;X;X;X;X;X;X;X;X;X;X",
";X;X;X;X;X;X;X;X;X;X;X;X;X;X;X;X;X;X;X;X;X;X;X@ 1.;X;X;X;X;X;XA.A.f.;X;X;X;X;X;X;X;X;X;X;X;X;X;X;X;X;X;X;X;X;X;X;X;X;X;X;X;X;X;X",
";X;X;X;X;X;X;X;X;X;X;X;X;X;X;X;X;X;X;X;X;X;X;X@ 1.;X;X;X;X;X;X;X;X;X;X;X;X;X;X;X;X;X;X;X;X;X;X;X;X;X;X;X;X;X;X;X;X;X;X;X;X;X;X;X",
";X;X;X;X;X;X;X;X;X;X;X;X;X;X;X;X;X;X;X;X;X;X;X@ 1.;Xi.;Xa.;X) r t *.a.;X;X;X;X;X;X;X;X;X;X;X;X;X;X;X;X;X;X;X;X;X;X;X;X;X;X;X;X;X",
";X;X;X;X;X;X;X;X;X;X;X;X;X;X;X;X;X;X;X;X;X;X;X@ 1.;X!.(.!.a./ T U A a.;X;X;X;X;X;X;X;X;X;X;X;X;X;X;X;X;X;X;X;X;X;X;X;X;X;X;X;X;X",
";X;X;X;X;X;X;X;X;X;X;X;X;X;X;X;X;X;X;X;X;X;X;X@ 1.d.).x.i.r.! I.o.W =.;X;X;X;X;X;X;X;X;X;X;X;X;X;X;X;X;X;X;X;X;X;X;X;X;X;X;X;X;X",
";X;X;X;X;X;X;X;X;X;X;X;X;X;X;X;X;X;X;X;X;X;X;X@ 1.(.!.0.;Xs.^ P.$.` z.a.0.i.;X;X;X;X;X;X;X;X;X;X;X;X;X;X;X;X;X;X;X;X;X;X;X;X;X;X",
";X;X;X;X;X;X;X;X;X;X;X;X;X;X;X;X;X;X;X;X;X;X;X@ 1.d.(.D.D.z.C.~ ^ D z.(.).D.;X;X;X;X;X;X;X;X;X;X;X;X;X;X;X;X;X;X;X;X;X;X;X;X;X;X",
";X;X;X;X;X;X;X;X;X;X;X;X;X;X;X;X;X;X;X;X;X;X;X@ 1.;Xc.'.).u.4.I.P.;.7.!.D.).;X;X;X;X;X;X;X;X;X;X;X;X;X;X;X;X;X;X;X;X;X;X;X;X;X;X",
";X;X;X;X;X;X;X;X;X;X;X;X;X;X;X;X;X;X;X;X;X;X;X@ 1.q.z.D.l.e.W R X.W I A D.'.D.;X;X;X;X;X;X;X;X;X;X;X;X;X;X;X;X;X;X;X;X;X;X;X;X;X",
";X;X;X;X;X;X;X;X;X;X;X;X;X;X;X;X;X;X;X;X;X;X;X@ 1.D.} +.S.S.B.` X.#.Q ' _ *.D.a.;X;X;X;X;X;X;X;X;X;X;X;X;X;X;X;X;X;X;X;X;X;X;X;X",
";X;X;X;X;X;X;X;X;X;X;X;X;X;X;X;X;X;X;X;X;X;X;X@ 1.D.V.n.+.K.`. .! $.Q W O.J ).;X;X;X;X;X;X;X;X;X;X;X;X;X;X;X;X;X;X;X;X;X;X;X;X;X",
";X;X;X;X;X;X;X;X;X;X;X;X;X;X;X;X;X;X;X;X;X;X;X:.3.Z.U.n.+.B.H.L } X.P.X.U.+.z.;X;X;X;X;X;X;X;X;X;X;X;X;X;X;X;X;X;X;X;X;X;X;X;X;X",
";X;X;X;X;X;X;X;X;X;X;X;X;X;X;X;X;X;X;X;X;X;XA.v.*.g.I.+.+.I.I.P X.o.P.' P.+.z.;X;X;X;X;X;X;X;X;X;X;X;X;X;X;X;X;X;X;X;X;X;X;X;X;X",
";X;X;X;X;X;X;X;X;X;X;X;X;X;X;X;X;X;X;X;X;X;X[ +.=.m.Y...| I.I.U ^ $.$.O.@XU.=.a.;X;X;X;X;X;X;X;X;X;X;X;X;X;X;X;X;X;X;X;X;X;X;X;X",
";X;X;X;X;X;X;X;X;X;X;X;X;X;X;X;X;X;X;X;X;X;X[ +.=...Y.t.+.P.Y.~ ^ P.$.` I.Y.H h.;X;X;X;X;X;X;X;X;X;X;X;X;X;X;X;X;X;X;X;X;X;X;X;X",
";X;X;X;X;X;X;X;X;X;X;X;X;X;X;X;X;X;X;X;X;X;X;X7 N.} P.D.'.^ o.~ o.o.~ z.A.X.` S ;X;X;X;X;X;X;X;X;X;X;X;X;X;X;X;X;X;X;X;X;X;X;X;X",
";X;X;X;X;X;X;X;X;X;X;X;X;X;X;X;X;X;X;X;X;X;X;X@  .@.U `.'.^ X.X.#.O.Q Z.z.[ ^ S z.;X;X;X;X;X;X;X;X;X;X;X;X;X;X;X;X;X;X;X;X;X;X;X",
";X;X;X;X;X;X;X;X;X;X;X;X;X;X;X;X;X;X;X;X;X;X;X# A.S.r.'.$XO.P.P.I.| ' C.;Xq.O.6.j.;X;X;X;X;X;X;X;X;X;X;X;X;X;X;X;X;X;X;X;X;X;X;X",
";X;X;X;X;X;X;X;X;X;X;X;X;X;X;X;X;X;X;X;X;X;X;X+ 1.A.z.$X[.`.Y.n.#.+._ *.&.a.M.B.G ;X;X;X;X;X;X;X;X;X;X;X;X;X;X;X;X;X;X;X;X;X;X;X",
";X;X;X;X;X;X;X;X;X;X;X;X;X;X;X;X;X;X;X;X;X;X;X@ 1.z.6.[.|.-X=XU.Y.N.N.J A A a...5.;X;X;X;X;X;X;X;X;X;X;X;X;X;X;X;X;X;X;X;X;X;X;X",
";X;X;X;X;X;X;X;X;X;X;X;X;X;X;X;X;X;X;X;X;X;Xg.3.C.*...].-X|.|.U.Y.&XU.V.H G *.A.a.;X;X;X;X;X;X;X;X;X;X;X;X;X;X;X;X;X;X;X;X;X;X;X",
";X;X;X;X;X;X;X;X;X;X;X;X;X;X;X;X;X;X;X;X;X;XD.+XJ / +.H.[.|.-X%X@X@X@Xn...6.=.*.+Xg.;X;X;X;X;X;X;X;X;X;X;X;X;X;X;X;X;X;X;X;X;X;X",
";X;X;X;X;X;X;X;X;X;X;X;X;X;X;X;X;X;X;X;X;X;X*XOX] ] +. .Y 8.u.f c G ` [ e.M.[ / OX*X;X;X;X;X;X;X;X;X;X;X;X;X;X;X;X;X;X;X;X;X;X;X",
";X;X;X;X;X;X;X;X;X;X;X;X;X;X;X;X;X;X;X;X;X;X*XC.] { | _ A & 0 n n n 7 Z e.y.e.[ F.K.;X;X;X;X;X;X;X;X;X;X;X;X;X;X;X;X;X;X;X;X;X;X",
";X;X;X;X;X;X;X;X;X;X;X;X;X;X;X;X;X;X;X;X;XK.K.G.e.m. .  9 . X A h 8 7 & u t.e.e.J 3.K.;X;X;X;X;X;X;X;X;X;X;X;X;X;X;X;X;X;X;X;X;X",
";X;X;X;X;X;X;X;X;X;X;X;X;X;X;X;X;X;X;X;XK.#X#X#XS.J.*.o O # 3 ( Z 6 8 +   2.F.l.t.F.+X;X;X;X;X;X;X;X;X;X;X;X;X;X;X;X;X;X;X;X;X;X",
";X;X;X;X;X;X;X;X;X;X;X;X;X;X;X;X;X;X;X;Xq.*X#Xl.S.A.A O > 6 d 9.F o X o   %.7.b.v.oX#X;X;X;X;X;X;X;X;X;X;X;X;X;X;X;X;X;X;X;X;X;X",
";X;X;X;X;X;X;X;X;X;X;X;X;X;X;X;X;X;X;X;X;Xa.S.9.%Xl.g s j k ) k.[ e < 5 o k t.S.%.@X;X;X;X;X;X;X;X;X;X;X;X;X;X;X;X;X;X;X;X;X;X;X",
";X;X;X;X;X;X;X;X;X;X;X;X;X;X;X;X;X;X;X;X;X;XA.9.=XD.3 > O 4 / x.w.e X o o p A.`.&.g.;X;X;X;X;X;X;X;X;X;X;X;X;X;X;X;X;X;X;X;X;X;X",
";X;X;X;X;X;X;X;X;X;X;X;X;X;X;X;X;X;X;X;X;X;XZ.S. XL.O 3 4 ;.{ ).p.A > X   > b 3.h.;X;X;X;X;X;X;X;X;X;X;X;X;X;X;X;X;X;X;X;X;X;X;X",
";X;X;X;X;X;X;X;X;X;X;X;X;X;X;X;X;X;X;X;X;X;Xj.+X_.G q i g 3.w.~.p.A f o X X 4 J.A.;X;X;X;X;X;X;X;X;X;X;X;X;X;X;X;X;X;X;X;X;X;X;X",
";X;X;X;X;X;X;X;X;X;X;X;X;X;X;X;X;X;X;X;X;X;X;Xh.J W U E E F.p.[.E.%.l V y u ; s q.;X;X;X;X;X;X;X;X;X;X;X;X;X;X;X;X;X;X;X;X;X;X;X",
";X;X;X;X;X;X;X;X;X;X;X;X;X;X;X;X;X;X;X;X;X;X;X;XK Y 4.E E *.p.|.E.&.l V y .X2 = ;X;X;X;X;X;X;X;X;X;X;X;X;X;X;X;X;X;X;X;X;X;X;X;X",
";X;X;X;X;X;X;X;X;X;X;X;X;X;X;X;X;X;X;X;X;X;X;X;XR E E E W u.E.|.~.5.z V M M q * ;X;X;X;X;X;X;X;X;X;X;X;X;X;X;X;X;X;X;X;X;X;X;X;X",
";X;X;X;X;X;X;X;X;X;X;X;X;X;X;X;X;X;X;X;X;X;XW.W.W b.M N 2.-.Q.-X{.u.;.e B q ;.u T.T.;X;X;X;X;X;X;X;X;X;X;X;X;X;X;X;X;X;X;X;X;X;X",
";X;X;X;X;X;X;X;X;X;X;X;X;X;X;X;X;X;X;X;X;X;XW.T.U oXy D :.1.Q.=X{.u.,.k B ; 3.q W.R.;X;X;X;X;X;X;X;X;X;X;X;X;X;X;X;X;X;X;X;X;X;X",
";X;X;X;X;X;X;X;X;X;X;X;X;X;X;X;X;X;X;X;X;X;X;Xn H ;XE d u m -.|.|.4.,.l V q 9 , 9 ;X;X;X;X;X;X;X;X;X;X;X;X;X;X;X;X;X;X;X;X;X;X;X",
";X;X;X;X;X;X;X;X;X;X;X;X;X;X;X;X;X;X;X;X;X;X;X;XC ;XE d D c /.|.{.W.k l V w ;X- ;X;X;X;X;X;X;X;X;X;X;X;X;X;X;X;X;X;X;X;X;X;X;X;X",
";X;X;X;X;X;X;X;X;X;X;X;X;X;X;X;X;X;X;X;X;X;X;X;X;X;X;Xp i ;X;X|.{.: = f o o ;X;X;X;X;X;X;X;X;X;X;X;X;X;X;X;X;X;X;X;X;X;X;X;X;X;X",
";X;X;X;X;X;X;X;X;X;X;X;X;X;X;X;X;X;X;X;X;X;X;X;X;X;X;Xa s ;X;X{.^.% # j o o ;X;X;X;X;X;X;X;X;X;X;X;X;X;X;X;X;X;X;X;X;X;X;X;X;X;X",
";X;X;X;X;X;X;X;X;X;X;X;X;X;X;X;X;X;X;X;X;X;X;X;X;X;X;Xj v ;X;X* ;X. $ 1.O ;X;X;X;X;X;X;X;X;X;X;X;X;X;X;X;X;X;X;X;X;X;X;X;X;X;X;X",
";X;X;X;X;X;X;X;X;X;X;X;X;X;X;X;X;X;X;X;X;X;X;X;X;X;X;X1 i ;X;X;X;X;X;Xl O ;X;X;X;X;X;X;X;X;X;X;X;X;X;X;X;X;X;X;X;X;X;X;X;X;X;X;X",
";X;X;X;X;X;X;X;X;X;X;X;X;X;X;X;X;X;X;X;X;X;X;X;X;X;X;X# O ;X;X;X;X;X;Xs o ;X;X;X;X;X;X;X;X;X;X;X;X;X;X;X;X;X;X;X;X;X;X;X;X;X;X;X",
";X;X;X;X;X;X;X;X;X;X;X;X;X;X;X;X;X;X;X;X;X;X;X;X;X;X;X. + . ;X;X;X;X;Xs X ;X;X;X;X;X;X;X;X;X;X;X;X;X;X;X;X;X;X;X;X;X;X;X;X;X;X;X",
";X;X;X;X;X;X;X;X;X;X;X;X;X;X;X;X;X;X;X;X;X;X;X;X;X;X;X. .   ;X;X;X;X;X3 o ;X;X;X;X;X;X;X;X;X;X;X;X;X;X;X;X;X;X;X;X;X;X;X;X;X;X;X",
";X;X;X;X;X;X;X;X;X;X;X;X;X;X;X;X;X;X;X;X;X;X;X;X;X;X;X;X;X;X;X;X;X;X;Xp o ;X;X;X;X;X;X;X;X;X;X;X;X;X;X;X;X;X;X;X;X;X;X;X;X;X;X;X",
";X;X;X;X;X;X;X;X;X;X;X;X;X;X;X;X;X;X;X;X;X;X;X;X;X;X;X;X;X;X;X;X;X;X;Xa X ;X;X;X;X;X;X;X;X;X;X;X;X;X;X;X;X;X;X;X;X;X;X;X;X;X;X;X",
";X;X;X;X;X;X;X;X;X;X;X;X;X;X;X;X;X;X;X;X;X;X;X;X;X;X;X;X;X;X;X;X;X;X;X&   ;X;X;X;X;X;X;X;X;X;X;X;X;X;X;X;X;X;X;X;X;X;X;X;X;X;X;X",
";X;X;X;X;X;X;X;X;X;X;X;X;X;X;X;X;X;X;X;X;X;X;X;X;X;X;X;X;X;X;X;X;X;X;X%   ;X;X;X;X;X;X;X;X;X;X;X;X;X;X;X;X;X;X;X;X;X;X;X;X;X;X;X",
";X;X;X;X;X;X;X;X;X;X;X;X;X;X;X;X;X;X;X;X;X;X;X;X;X;X;X;X;X;X;X;X;X;X;X;X;X;X;X;X;X;X;X;X;X;X;X;X;X;X;X;X;X;X;X;X;X;X;X;X;X;X;X;X",
";X;X;X;X;X;X;X;X;X;X;X;X;X;X;X;X;X;X;X;X;X;X;X;X;X;X;X;X;X;X;X;X;X;X;X;X;X;X;X;X;X;X;X;X;X;X;X;X;X;X;X;X;X;X;X;X;X;X;X;X;X;X;X;X",
";X;X;X;X;X;X;X;X;X;X;X;X;X;X;X;X;X;X;X;X;X;X;X;X;X;X;X;X;X;X;X;X;X;X;X;X;X;X;X;X;X;X;X;X;X;X;X;X;X;X;X;X;X;X;X;X;X;X;X;X;X;X;X;X"
};
