/* XPM */
static char *player_left_2[] = {
/* columns rows colors chars-per-pixel */
"64 64 217 2 ",
"   c black",
".  c #080800",
"X  c #070008",
"o  c gray3",
"O  c #100000",
"+  c #180000",
"@  c #100800",
"#  c #180800",
"$  c #140808",
"%  c #181000",
"&  c #101008",
"*  c #181008",
"=  c #0D0810",
"-  c #111010",
";  c #171619",
":  c #210000",
">  c #210800",
",  c #210808",
"<  c #211000",
"1  c #291000",
"2  c #211008",
"3  c #291008",
"4  c #291808",
"5  c #351006",
"6  c #311808",
"7  c #3B1808",
"8  c #281810",
"9  c #311810",
"0  c #3B1810",
"q  c #321F18",
"w  c #292108",
"e  c #312110",
"r  c #392110",
"t  c #392910",
"y  c #392918",
"u  c #252324",
"i  c #382D2A",
"p  c #420400",
"a  c #520000",
"s  c #520B00",
"d  c #520E08",
"f  c #4D1F0D",
"g  c #6B0000",
"h  c #6A0E09",
"j  c #7F0000",
"k  c #671C09",
"l  c #4D2A0F",
"z  c #422110",
"x  c #422A10",
"c  c #4A2118",
"v  c #422918",
"b  c #4A2918",
"n  c #5A2719",
"m  c #4A311B",
"M  c #523118",
"N  c #5E3118",
"B  c #642C0C",
"V  c #4A2921",
"C  c #523122",
"Z  c #5F3121",
"A  c #583921",
"S  c #5C3E29",
"D  c #633921",
"F  c #713921",
"G  c #7A4211",
"H  c #604421",
"J  c #6F4421",
"K  c #6B4429",
"L  c #764129",
"P  c #7A4A29",
"I  c #6B4C39",
"U  c #514C51",
"Y  c #7D5E4D",
"T  c #8C0E08",
"R  c #940000",
"E  c #AD0000",
"W  c #B40E00",
"Q  c #B60D08",
"!  c #8E2100",
"~  c #8C2308",
"^  c #8C2310",
"/  c #8B2B1A",
"(  c #B62800",
")  c #B52308",
"_  c #B62310",
"`  c #B72C1A",
"'  c #C20000",
"]  c #CE0000",
"[  c #DA0000",
"{  c #DA0C00",
"}  c #DD0D09",
"|  c #D61C0D",
" . c #EB0000",
".. c #F70000",
"X. c red",
"o. c #F40D09",
"O. c #FF0808",
"+. c #FF100C",
"@. c #FD180E",
"#. c #FF1D18",
"$. c #CE3D06",
"%. c #DC2A1B",
"&. c #EB220C",
"*. c #FD210F",
"=. c #FD2D0D",
"-. c #EB3D03",
";. c #FF3E03",
":. c #F4291C",
">. c #FF2D18",
",. c #E33E18",
"<. c #FF3D15",
"1. c #F33E19",
"2. c #FF2521",
"3. c #FF3121",
"4. c #FF3D21",
"5. c #FF3E29",
"6. c #FF3E39",
"7. c #A34408",
"8. c #B94407",
"9. c #A2451D",
"0. c #B9481D",
"q. c #A86910",
"w. c #814921",
"e. c #8F4E2D",
"r. c #815929",
"t. c #805131",
"y. c #935D30",
"u. c #945F39",
"i. c #AE4C2C",
"p. c #B5602E",
"a. c #B16539",
"s. c #D05007",
"d. c #DE5A08",
"f. c #CE421C",
"g. c #CE561D",
"h. c #E84E03",
"j. c #E75A00",
"k. c #E75A08",
"l. c #FB5A04",
"z. c #FD4A13",
"x. c #E75710",
"c. c #E8521D",
"v. c #FE5614",
"b. c #D66911",
"n. c #E76406",
"m. c #F66E05",
"M. c #E76310",
"N. c #E76F10",
"B. c #EF6B10",
"V. c #E76319",
"C. c #EF6318",
"Z. c #E76C1D",
"A. c #EF6B18",
"S. c #FD671D",
"D. c #EF731F",
"F. c #F97210",
"G. c #F9731D",
"H. c #DA502B",
"J. c #F44F2B",
"K. c #FF4A2C",
"L. c #FD5021",
"P. c #EC503E",
"I. c #FF5731",
"U. c #FF5239",
"Y. c #DB6B2D",
"T. c #C57D3C",
"R. c #EF6A21",
"E. c #EF6F2B",
"W. c #FC732D",
"Q. c #F77C29",
"!. c #FE6731",
"~. c #FF6B39",
"^. c #EC7E37",
"/. c #F77F36",
"(. c #99664A",
"). c #9C6F59",
"_. c #A96A42",
"`. c #FF4D42",
"'. c #FF534F",
"]. c #FF6C45",
"[. c #FF6B58",
"{. c #DD8306",
"}. c #F7800D",
"|. c #EC9A05",
" X c #FF9D00",
".X c #FF8418",
"XX c #FF9C14",
"oX c #EFB206",
"OX c #FFB400",
"+X c #FFB412",
"@X c #FF962E",
"#X c #FF8039",
"$X c #FF8C39",
"%X c #FF9739",
"&X c None",
"*X c #FECA0A",
"=X c #FFDD11",
"-X c yellow",
";X c #FFD435",
":X c #BA804E",
">X c #B98A68",
",X c #DB944F",
"<X c #CC9E50",
"1X c #E8874D",
"2X c #FF8142",
"3X c #FF8C42",
"4X c #FF804D",
"5X c #FF8C4C",
"6X c #FF9742",
"7X c #FF9F4F",
"8X c #FF9452",
"9X c #EEA062",
"0X c #F2BE64",
"qX c #FEC44E",
"wX c #B99D84",
"eX c #E1B68E",
"rX c #F3D8B9",
/* pixels */
"                                                                                                                                ",
"                                                                                                                                ",
"                                                                                                                                ",
"                                                        -Xr.                                                                    ",
"                                                        <XH                                                                     ",
"                                                        y.&                                                                     ",
"                                                        u.&                                                                     ",
"                                                        u.&                                                                     ",
"                                                        u.&                                                                     ",
"                                                        u.&                                                                     ",
"                                                        u.&                 j.                                                  ",
"                                                        u.&             M.Z.Z.    M.                                            ",
"                                                        u.&             V.Z.E.E.E.                                              ",
"                                                        u.& B.g.p ! s.M.    n.                                                  ",
"                                                        u.& 8.T =.>...x.G.G.B.                                                  ",
"                                                        u.& 7.o.3.3.O.1.Q.Q.B.                                                  ",
"                                            M.          u.& R 2.~.W.L.$X                                                        ",
"                                            Z.          u.& | K./.#XS.%Xk.                                                      ",
"                                          k.^.          u.& /.Y.~.2X^.@XQ.k.                                                    ",
"                                          V.R.          u.& %XY./.Y.H.E.Q.D.                                                    ",
"                                        V.Z.            u.& ^.T.Y.Y.c.J.@XQ.                                                    ",
"                            oX{.N.N.j.  x.              B.& y.g.I.L.L.I.Q.#X                                                    ",
"                        {.*X*Xq.*X*X+X Xn.              A.:X0.I.L.K.U.L.Q.#X                                                    ",
"                          x w m 1 # G {.&XB.h.        M.Y.y.>.K.P.#.].K.E.Q.                                                    ",
"                        @ * S u.z 7 b l &XqXG.        g.T H.&.*.U.f.U.5.E.#X                                                    ",
"                      * 8 L J I 7 y.z 5 6 0X&Xd.      d.` & Q O.6.%.O.3.:.~.C.                                                  ",
"                      8 - V u.v F w.r 5 r 0.%X! l.      k.* Q +.`.`.' @.#.#XM.                                                  ",
"                    . r z D M M P L y K 3 F B 7XE.!     y.$ d ~ 5.^ '.2.O.C.                        M.                          ",
"                  * 2 A 7 w.b 3 _.e.I S F t.D E.E.)     u.& T T T } 2.o.z.                          Z.                          ",
"                  v r 7 2 z 3 6 F L t.L b y.b b c.4XH.p u.* _ _ `.6.@.!.Q.                          Z.E.                        ",
"                  J P ).M 6 O O 3 9 6 z t.> M e.z 4X]._ s ,XQ 6.&.1.J.%XC.                          R.R.                        ",
"                  4 t rXe       O O 9 2 (.1 y.T.r.H.I.! j g.#.#.=.3.Y.3X                            E.V.                        ",
"                    # o.X.      O O + 6 K r P y.P < / ~ 9.T &.<.;.=./.R.  X                 ` Q 4.~.,.$.                        ",
"                      ..X.[     O O : F e.L N J D 2 @ * k B =.<.;.&.D.d.X X X               | >.].].!.-.(                       ",
"                    X X.....E     X O 6 t.F z y.F < X O y $.v.v.;.k X X X - X X O 4 2 8 2 g `.[.].4X2X8XS.$.                    ",
"                    a X. .]  .g   O O 6 0 y Z z 7 0 a 8 3 ;.#XS.$.e o X ; i X O O * 2 e 4 W [.].].].5X5X$XS.                    ",
"                      X.E ] ..X.R a 6 J m # 6 D P Q X.v / S.$Xv.S U i U U Y H < 5 z z 2 3 5 ' h T !.2X7X7XQ.$.                  ",
"                        R ] eX1.' ' 8 e O z N k ] X.O.i g.0XS._.U wXwXwXi.e.t.# z t.b # 6 z 3 <     6X7X7X%Xh.                  ",
"                          X.>Xf. ...h 7 : h T  .o.X. .M f.W.H.).U U U U H.%.Q h / a.D 6 M f R 7     $X7X7X&Xh.                  ",
"                          ^ X.X.[ X.` a.X.X.X.0.a._ A u.^.0Xv.N J m J V C e i.} X.X.X.X.X.X._.F     %XqX&X&Xj.                  ",
"                          R X. .' X.9.eXX.X.X.X...` t._.T.0XS.8._.J w.m A 0 _.} X.X.0.} X.X.wXt.    $XqXqX&Xn.                  ",
"                            X.u   X.X.d h X.X.O W Q 3 1X:X/.7XF.:X9XA x _.b X.X.X.X.X.X.X.X...'     @X&X&X+Xm.                  ",
"                                  X.X.5 e X.X.b Q ` N t._.g.&XF.>XK I ,Xu.b X...] X.X.X.X.X.X.] *   XXXX+X;X}.                  ",
"                                  X.Q i O ..' L L N F # i P @X.XK I (.v 4 y ] ..c n ..X.h h X.X.p   +X*X+X;X|.                  ",
"                                        % 5 6 n L N M 9 m Z XX@Xu._._.N e e W X./ r } X.T 5 X.d h   +X;X*X;X|.                  ",
"                                      @ 6 n M t.z 4 8 r 9 q p.&XT.A e e     * X.d , T X.{ # X.X.E   OX=X=XOX                    ",
"                                    2 x z 7 7 < c 6 e       A.%X%XQ.              < 3 K t.r t.v       =X*X*X                    ",
"                                @ 2 P A z 2 < > z v 4       }.&X&X6X                < z _.A J M       {.oX                      ",
"                                C t.P 7       % b t.#     b. X X7X8X                    2 C u.t.>                               ",
"                                r I 4 2       e m t.e     |.+XOX  A.                      9 :XZ 2                               ",
"                                  2 T.N         r D 4                                     6 6 6 <                               ",
"                                    t.(.        8 A 6                                   r D 1 3 b                               ",
"                                    m t.C         D D                               # A K e   2 t.2                             ",
"                                      o *         # F                           i u i 8 3     3 (.-                             ",
"                                      X -         r D >                       = - i o 2 O     e I o                             ",
"                                      X i           8 ;                       o ; o X           u U                             ",
"                                      X o           o #                                         o U                             ",
"                                                  X o ; -                                       X o                             ",
"                                                  X o - -                                                                       ",
"                                                                                                                                ",
"                                                                                                                                ",
"                                                                                                                                ",
"                                                                                                                                ",
"                                                                                                                                "
};
