/* XPM */
static char *result[] = {
/* columns rows colors chars-per-pixel */
"64 64 195 2 ",
"   c #080800",
".  c #070008",
"X  c gray3",
"o  c #100000",
"O  c #100800",
"+  c #180800",
"@  c #140808",
"#  c #101008",
"$  c #181008",
"%  c #0D0810",
"&  c #111010",
"*  c #171619",
"=  c #210800",
"-  c #350301",
";  c #211000",
":  c #291000",
">  c #211008",
",  c #291008",
"<  c #291808",
"1  c #351006",
"2  c #311808",
"3  c #3B1808",
"4  c #221010",
"5  c #281810",
"6  c #311810",
"7  c #321F18",
"8  c #3D2208",
"9  c #312110",
"0  c #392110",
"q  c #392918",
"w  c #382D2A",
"e  c #420400",
"r  c #520000",
"t  c #520E08",
"y  c #4D1F0D",
"u  c #6B0000",
"i  c #6A0E09",
"p  c #7F0000",
"a  c #671C09",
"s  c #422110",
"d  c #422A10",
"f  c #4A2118",
"g  c #422918",
"h  c #4A2918",
"j  c #5A2719",
"k  c #523118",
"l  c #5E3118",
"z  c #642C0C",
"x  c #583921",
"c  c #5C3E29",
"v  c #633921",
"b  c #713921",
"n  c #604421",
"m  c #6B4429",
"M  c #7A4A29",
"N  c #6B4C39",
"B  c #514C51",
"V  c #8B0B00",
"C  c #940000",
"Z  c #AD0000",
"A  c #B40E00",
"S  c #B60D08",
"D  c #8E2100",
"F  c #8C2308",
"G  c #8C2310",
"H  c #8B2B1A",
"J  c #B62800",
"K  c #B52308",
"L  c #B62310",
"P  c #B72C1A",
"I  c #CE0000",
"U  c #DD0D09",
"Y  c #D61C0D",
"T  c #EB0000",
"R  c #F70000",
"E  c red",
"W  c #F40D09",
"Q  c #FF0808",
"!  c #F71B00",
"~  c #FD180E",
"^  c #FF1D18",
"/  c #DA2A00",
"(  c #D62D0C",
")  c #CE3D06",
"_  c #DC2A1B",
"`  c #EB220C",
"'  c #FD210F",
"]  c #FD2D0D",
"[  c #EB3D03",
"{  c #FF3E03",
"}  c #F4291C",
"|  c #FF2D18",
" . c #E33E18",
".. c #FF3D15",
"X. c #F33E19",
"o. c #FF2521",
"O. c #FF2E2C",
"+. c #FF3121",
"@. c #FF3D21",
"#. c #FF3E29",
"$. c #FF3D31",
"%. c #FF3E39",
"&. c #A34408",
"*. c #B94407",
"=. c #A2451D",
"-. c #B9481D",
";. c #814921",
":. c #8F4E2D",
">. c #815929",
",. c #805131",
"<. c #935D30",
"1. c #945F39",
"2. c #AE4C2C",
"3. c #B5602E",
"4. c #B16539",
"5. c #D05007",
"6. c #CE421C",
"7. c #CE561D",
"8. c #E75A00",
"9. c #E75A08",
"0. c #FB5A04",
"q. c #FD4A13",
"w. c #E75710",
"e. c #E8521D",
"r. c #FE5614",
"t. c #D66911",
"y. c #F36305",
"u. c #F66E05",
"i. c #E76310",
"p. c #E76F10",
"a. c #EF6B10",
"s. c #E76319",
"d. c #EF6318",
"f. c #E76C1D",
"g. c #EF6B18",
"h. c #F26310",
"j. c #FD671D",
"k. c #EF731F",
"l. c #F97210",
"z. c #F9731D",
"x. c #DA502B",
"c. c #FF4A2C",
"v. c #FD5021",
"b. c #FF5529",
"n. c #EC503E",
"m. c #FF5731",
"M. c #FF5239",
"N. c #DB6B2D",
"B. c #C57D3C",
"V. c #EF6A21",
"C. c #EF6F2B",
"Z. c #FC732D",
"A. c #F77C29",
"S. c #E36E39",
"D. c #FE6731",
"F. c #FF6B39",
"G. c #EC7E37",
"H. c #F77F36",
"J. c #A96A42",
"K. c #FF4D42",
"L. c #FF534F",
"P. c #FF6C45",
"I. c #FF6B58",
"U. c #DD8306",
"Y. c #F7800D",
"T. c #FF8308",
"R. c #EC9A05",
"E. c #FF9D00",
"W. c #FF8418",
"Q. c #FF9C14",
"!. c #EFB206",
"~. c #FFB400",
"^. c #FFB412",
"/. c #FF8521",
"(. c #FF962E",
"). c #FF8039",
"_. c #FF8C39",
"`. c #FF9739",
"'. c #FEAC38",
"]. c yellow",
"[. c #FFD435",
"{. c #B98A68",
"}. c #CC9E50",
"|. c #FF8142",
" X c #FF8C42",
".X c #FF804D",
"XX c #FF8C4C",
"oX c #FF9742",
"OX c #FF9F4F",
"+X c #F48C5E",
"@X c #FF9452",
"#X c #F2BE64",
"$X c #FEC44E",
"%X c #E1B68E",
"&X c None",
/* pixels */
"&X&X&X&X&X&X&X&X&X&X&X&X&X&X&X&X&X&X&X&X&X&X&X&X&X&X&X&X&X&X&X&X&X&X&X&X&X&X&X&X&X&X&X&X&X&X&X&X&X&X&X&X&X&X&X&X&X&X&X&X&X&X&X&X",
"&X&X&X&X&X&X&X&X&X&X&X&X&X&X&X&X&X&X&X&X&X&X&X&X&X&X&X&X&X&X&X&X&X&X&X&X&X&X&X&X&X&X&X&X&X&X&X&X&X&X&X&X&X&X&X&X&X&X&X&X&X&X&X&X",
"&X&X&X&X&X&X&X&X&X&X&X&X&X&X&X&X&X&X&X&X&X&X&X&X&X&X&X&X&X&X&X&X&X&X&X&X&X&X&X&X&X&X&X&X&X&X&X&X&X&X&X&X&X&X&X&X&X&X&X&X&X&X&X&X",
"&X&X&X&X&X&X&X&X&X&X&X&X&X&X&X&X&X&X&X&X&X&X&X>.].&X&X&X&X&X&X&X&X&X&X&X&X&X&X&X&X&X&X&X&X&X&X&X&X&X&X&X&X&X&X&X&X&X&X&X&X&X&X&X",
"&X&X&X&X&X&X&X&X&X&X&X&X&X&X&X&X&X&X&X&X&X&X&Xn }.&X&X&X&X&X&X&X&X&X&X&X&X&X&X&X&X&X&X&X&X&X&X&X&X&X&X&X&X&X&X&X&X&X&X&X&X&X&X&X",
"&X&X&X&X&X&X&X&X&X&X&X&X&X&X&X&X&X&X&X&X&X&X&X# <.&X&X&X&X&X&X&X&X&X&X&X&X&X&X&X&X&X&X&X&X&X&X&X&X&X&X&X&X&X&X&X&X&X&X&X&X&X&X&X",
"&X&X&X&X&X&X&X&X&X&X&X&X&X&X&X&X&X&X&X&X&X&X&X# 1.&X&X&X&X&X&X&X&X&X&X&X&X&X&X&X&X&X&X&X&X&X&X&X&X&X&X&X&X&X&X&X&X&X&X&X&X&X&X&X",
"&X&X&X&X&X&X&X&X&X&X&X&X&X&X&X&X&X&X&X&X&X&X&X# 1.&X&X&X&X&X&X&X&X&X&X&X&X&X&X&X&X&X&X&X&X&X&X&X&X&X&X&X&X&X&X&X&X&X&X&X&X&X&X&X",
"&X&X&X&X&X&X&X&X&X&X&X&X&X&X&X&X&X&X&X&X&X&X&X# 1.&X&X&X&X&X&X&X&X&X&X&X&X&X&X&X&X&X&X&X&X&X&X&X&X&X&X&X&X&X&X&X&X&X&X&X&X&X&X&X",
"&X&X&X&X&X&X&X&X&X&X&X&X&X&X&X&X&X&X&X&X&X&X&X# 1.&X&X&X&X&X&X&X&X&X&X&X&X&X&X&X&X&X&X&X&X&X&X&X&X&X&X&X&X&X&X&X&X&X&X&X&X&X&X&X",
"&X&X&X&X&X&X&X&X&X&X&X&X&X&X&X&X&X&X&X&X&X&X&X# 1.&X&X&X&X&X&X&X&X&X&X&X&X&X&X&X&X&X&X&X&X&X&X&X&X&X&X&X&X&X&X&X&X&X&X&X&X&X&X&X",
"&X&X&X&X&X&X&X&X&X&X&X&X&X&X&X&X&X&X&X&X&X&X&X# 1.&X&X&X&X&X&XC.f.&X&X&X&X&X&X&X&X&X&X&X&X&X&X&X&X&X&X&X&X&X&X&X&X&X&X&X&X&X&X&X",
"&X&X&X&X&X&X&X&X&X&X&X&X&X&X&X&X&X&X&X&X&X&X&X# 1.&X&X&X&X&Xs.f.&X&X&X&X&X&X&X&X&X&X&X&X&X&X&X&X&X&X&X&X&X&X&X&X&X&X&X&X&X&X&X&X",
"&X&X&X&X&X&X&X&X&X&X&X&X&X&X&X&X&X&X&X&X&X&X&X# 1.&X&X&X&X&X9.&X&X&X&X&X&X&X&X&X&X&X&X&X&X&X&X&X&X&X&X&X&X&X&X&X&X&X&X&X&X&X&X&X",
"&X&X&X&X&X&X&X&X&X&X&X&X&X&X&X&X&X&X&X&X&X&X&X# 1.&X8.W.Y.i.5.V i =.9.&X&X&X&X&X&X&X&X&X&X&X&X&X&X&X&X&X&X&X&X&X&X&X&X&X&X&X&X&X",
"&X&X&X&X&X&X&X&X&X&X&X&X&X&X&X&X&X&X&X&X&X&X&X# 1.&XW.Q.W.l.Y T T F s.&X&X&X&X&X&X&X&X&X&X&X&X&X&X&X&X&X&X&X&X&X&X&X&X&X&X&X&X&X",
"&X&X&X&X&X&X&X&X&X&X&X&X&X&X&X&X&X&X&X&X&X&X&X# 1.a./.8.&X5.Q L.o.` 7.&X&X&X&X&X&X&X&X&X&X&X&X&X&X&X&X&X&X&X&X&X&X&X&X&X&X&X&X&X",
"&X&X&X&X&X&X&X&X&X&X&X&X&X&X&X&X&X&X&X&X&X&X&X# 1./.W.&X&Xa.~ K.%.U A.i.i.&X&X&X&X&X&X&X&X&X&X&X&X&X&X&X&X&X&X&X&X&X&X&X&X&X&X&X",
"&X&X&X&X&X&X&X&X&X&X&X&X&X&X&X&X&X&X&X&X&X&X&X# 1././.A.l.a.H ^ o.H l.W./.A.&X&X&X&X&X&X&X&X&X&X&X&X&X&X&X&X&X&X&X&X&X&X&X&X&X&X",
"&X&X&X&X&X&X&X&X&X&X&X&X&X&X&X&X&X&X&X&X&X&X&X# 1.a./._.(.5.:.L.K.b i.W./.A.&X&X&X&X&X&X&X&X&X&X&X&X&X&X&X&X&X&X&X&X&X&X&X&X&X&X",
"&X&X&X&X&X&X&X&X&X&X&X&X&X&X&X&X&X&X&X&X&X&X&X# 1.9.z.A.A.z.X.W ^ W I F A.A.A.&X&X&X&X&X&X&X&X&X&X&X&X&X&X&X&X&X&X&X&X&X&X&X&X&X",
"&X&X&X&X&X&X&X&X&X&X&X&X&X&X&X&X&X&X&X&X&X&X&X# 1.`.X.+.v.A.).w.+.$.Q | ( 7.A.i.&X&X&X&X&X&X&X&X&X&X&X&X&X&X&X&X&X&X&X&X&X&X&X&X",
"&X&X&X&X&X&X&X&X&X&X&X&X&X&X&X&X&X&X&X&X&X&X&X# 1._.M.c.| Z.).e.v.%.Q ' @.6.).&X&X&X&X&X&X&X&X&X&X&X&X&X&X&X&X&X&X&X&X&X&X&X&X&X",
"&X&X&X&X&X&X&X&X&X&X&X&X&X&X&X&X&X&X&X&X&X&X&X# 3.g.I.@.@.O.L. .^ o.K.+.P.@.).&X&X&X&X&X&X&X&X&X&X&X&X&X&X&X&X&X&X&X&X&X&X&X&X&X",
"&X&X&X&X&X&X&X&X&X&X&X&X&X&X&X&X&X&X&X&X&X&X&X:.7.h.M.+.@.L.L.I o.O.%.o.M.b.A.&X&X&X&X&X&X&X&X&X&X&X&X&X&X&X&X&X&X&X&X&X&X&X&X&X",
"&X&X&X&X&X&X&X&X&X&X&X&X&X&X&X&X&X&X&X&X&X&XC.c.2.X.K.` ' I.L.W ^ %.%.^ I.P.-.k.&X&X&X&X&X&X&X&X&X&X&X&X&X&X&X&X&X&X&X&X&X&X&X&X",
"&X&X&X&X&X&X&X&X&X&X&X&X&X&X&X&X&X&X&X&X&X&XX.c.7.c.L. .| K.I.o.^ K.$.W P.L.P G.&X&X&X&X&X&X&X&X&X&X&X&X&X&X&X&X&X&X&X&X&X&X&X&X",
"&X&X&X&X&X&X&X&X&X&X&X&X&X&X&X&X&X&X&X&X&X&X&X3.x.` K.A.).+.L.+.$.$.o.k.V.+.` G &X&X&X&X&X&X&X&X&X&X&X&X&X&X&X&X&X&X&X&X&X&X&X&X",
"&X&X&X&X&X&X&X&X&X&X&X&X&X&X&X&X&X&X&X&X&X&X&X$ 7.#._ H._.+.K.#.K.#.' k.k.X.o.G g.&X&X&X&X&X&X&X&X&X&X&X&X&X&X&X&X&X&X&X&X&X&X&X",
"&X&X&X&X&X&X&X&X&X&X&X&X&X&X&X&X&X&X&X&X&X&X&X$ B.F.D._.oX+.P.L.P.c.| S.9.i.m.x.d.&X&X&X&X&X&X&X&X&X&X&X&X&X&X&X&X&X&X&X&X&X&X&X",
"&X&X&X&X&X&X&X&X&X&X&X&X&X&X&X&X&X&X&X&X&X&X&X@ <.G.A.OX'.D.+XM.P.M.X.2.i.p.D.m.J &X&X&X&X&X&X&X&X&X&X&X&X&X&X&X&X&X&X&X&X&X&X&X",
"&X&X&X&X&X&X&X&X&X&X&X&X&X&X&X&X&X&X&X&X&X&X&X# 1.k.N.OX[.$X@XP.I.F.n.-.z 7.g.X. .&X&X&X&X&X&X&X&X&X&X&X&X&X&X&X&X&X&X&X&X&X&X&X",
"&X&X&X&X&X&X&X&X&X&X&X&X&X&X&X&X&X&X&X&X&X&X&X&.G.-.( (.$X[.$X.X.X@X.Xm.-.-.3.).&X&X&X&X&X&X&X&X&X&X&X&X&X&X&X&X&X&X&X&X&X&X&X&X",
"&X&X&X&X&X&X&X&X&X&X&X&X&X&X&X&X&X&X&X&X&X&Xi. XN.A } A.[.$X[.XX.X+X.Xb. .6.F N.k.&X&X&X&X&X&X&X&X&X&X&X&X&X&X&X&X&X&X&X&X&X&X&X",
"&X&X&X&X&X&X&X&X&X&X&X&X&X&X&X&X&X&X&X&X&X&X@X@X{ ! | } Y T.!.4.J.} ] [ q.v.( J oX X&X&X&X&X&X&X&X&X&X&X&X&X&X&X&X&X&X&X&X&X&X&X",
"&X&X&X&X&X&X&X&X&X&X&X&X&X&X&X&X&X&X&X&X&X&X@X@X..] | ( K y g B B c y ) q.q./ J  X X&X&X&X&X&X&X&X&X&X&X&X&X&X&X&X&X&X&X&X&X&X&X",
"&X&X&X&X&X&X&X&X&X&X&X&X&X&X&X&X&X&X&X&X&X9.@X|.b.v.v.. & X . > 5 w N * =.r.q.[ 2. X&X&X&X&X&X&X&X&X&X&X&X&X&X&X&X&X&X&X&X&X&X&X",
"&X&X&X&X&X&X&X&X&X&X&X&X&X&X&X&X&X&X&X&XC.|.XXXX).H.4.  $ + 5 q > $ @ * . J.C.F.7.OXi.&X&X&X&X&X&X&X&X&X&X&X&X&X&X&X&X&X&X&X&X&X",
"&X&X&X&X&X&X&X&X&X&X&X&X&X&X&X&X&X&X&X&X&Xk.XXj.H.H.F + $ > 6 F 3 $ O O . =.S.C.N.@Xs.&X&X&X&X&X&X&X&X&X&X&X&X&X&X&X&X&X&X&X&X&X",
"&X&X&X&X&X&X&X&X&X&X&X&X&X&X&X&X&X&X&X&X&X&XZ.r.OXj.j h x M ,.] D 9 5 5 O ;.e.Z.J S.&X&X&X&X&X&X&X&X&X&X&X&X&X&X&X&X&X&X&X&X&X&X",
"&X&X&X&X&X&X&X&X&X&X&X&X&X&X&X&X&X&X&X&X&X&XH.j.#XZ.s 6 ; $ t { K + O + O l Z.).*.s.&X&X&X&X&X&X&X&X&X&X&X&X&X&X&X&X&X&X&X&X&X&X",
"&X&X&X&X&X&X&X&X&X&X&X&X&X&X&X&X&X&X&X&X&X&XOX@X}.{.O 2 : x K q.J 3 = o . > N 4.7.k.&X&X&X&X&X&X&X&X&X&X&X&X&X&X&X&X&X&X&X&X&X&X",
"&X&X&X&X&X&X&X&X&X&X&X&X&X&X&X&X&X&X&X&X&X&X@XoXB.H = s l <./ j.[ t h O o O s  XC.k.&X&X&X&X&X&X&X&X&X&X&X&X&X&X&X&X&X&X&X&X&X&X",
"&X&X&X&X&X&X&X&X&X&X&X&X&X&X&X&X&X&X&X&X&X&Xg.oX2.R W E E N.[ OX0.i b Z Z G r c @Xi.&X&X&X&X&X&X&X&X&X&X&X&X&X&X&X&X&X&X&X&X&X&X",
"&X&X&X&X&X&X&X&X&X&X&X&X&X&X&X&X&X&X&X&X&X&Xi.oXS Y 4.E E j [ _.r.a k Z Z %X3 1 @Xd.&X&X&X&X&X&X&X&X&X&X&X&X&X&X&X&X&X&X&X&X&X&X",
"&X&X&X&X&X&X&X&X&X&X&X&X&X&X&X&X&X&X&X&X&X&Xd.'.T E E E W <.{ (.l.F x Z I T r - k.&X&X&X&X&X&X&X&X&X&X&X&X&X&X&X&X&X&X&X&X&X&X&X",
"&X&X&X&X&X&X&X&X&X&X&X&X&X&X&X&X&X&X&X&XE.R.^.'.W  .Z S =.M 0.$XQ.J m t R p =.a Q.U.U.&X&X&X&X&X&X&X&X&X&X&X&X&X&X&X&X&X&X&X&X&X",
"&X&X&X&X&X&X&X&X&X&X&X&X&X&X&X&X&X&X&X&XE.U.U.G.U 7.u H :.4.y.Q.T.&.,.b R e 3.t R.T.U.&X&X&X&X&X&X&X&X&X&X&X&X&X&X&X&X&X&X&X&X&X",
"&X&X&X&X&X&X&X&X&X&X&X&X&X&X&X&X&X&X&X&X&X&X&XB L &XE j b 3.T.E.R.*.;.b T u &X, w &X&X&X&X&X&X&X&X&X&X&X&X&X&X&X&X&X&X&X&X&X&X&X",
"&X&X&X&X&X&X&X&X&X&X&X&X&X&X&X&X&X&X&X&X&X&X&X&XH &XE j H *.T.~.~.5.b b I C &X4 &X&X&X&X&X&X&X&X&X&X&X&X&X&X&X&X&X&X&X&X&X&X&X&X",
"&X&X&X&X&X&X&X&X&X&X&X&X&X&X&X&X&X&X&X&X&X&X&X&X&X&X$ k f u.E.] &.t.z < O O &X&X&X&X&X&X&X&X&X&X&X&X&X&X&X&X&X&X&X&X&X&X&X&X&X&X",
"&X&X&X&X&X&X&X&X&X&X&X&X&X&X&X&X&X&X&X&X&X&X&X&X&X&X&Xd h T.E.R.R.t.8 9 O O &X&X&X&X&X&X&X&X&X&X&X&X&X&X&X&X&X&X&X&X&X&X&X&X&X&X",
"&X&X&X&X&X&X&X&X&X&X&X&X&X&X&X&X&X&X&X&X&X&X&X&X&X&X&Xx ,.Y.R.&.U.9 > 0 $ &X&X&X&X&X&X&X&X&X&X&X&X&X&X&X&X&X&X&X&X&X&X&X&X&X&X&X",
"&X&X&X&X&X&X&X&X&X&X&X&X&X&X&X&X&X&X&X&X&X&X&X&X&X&X&Xh x &X&X&X&XX % s O &X&X&X&X&X&X&X&X&X&X&X&X&X&X&X&X&X&X&X&X&X&X&X&X&X&X&X",
"&X&X&X&X&X&X&X&X&X&X&X&X&X&X&X&X&X&X&X&X&X&X&X&X&X&X&X> , &X&X&X&XX X M O &X&X&X&X&X&X&X&X&X&X&X&X&X&X&X&X&X&X&X&X&X&X&X&X&X&X&X",
"&X&X&X&X&X&X&X&X&X&X&X&X&X&X&X&X&X&X&X&X&X&X&X&X&X&X&X> ; &X&X&X&X&X&XM O &X&X&X&X&X&X&X&X&X&X&X&X&X&X&X&X&X&X&X&X&X&X&X&X&X&X&X",
"&X&X&X&X&X&X&X&X&X&X&X&X&X&X&X&X&X&X&X&X&X&X&X&X&X&X&X$ $ &X&X&X&X&X&Xk O &X&X&X&X&X&X&X&X&X&X&X&X&X&X&X&X&X&X&X&X&X&X&X&X&X&X&X",
"&X&X&X&X&X&X&X&X&X&X&X&X&X&X&X&X&X&X&X&X&X&X&X&X&X&X&XX & . &X&X&X&X&Xv O &X&X&X&X&X&X&X&X&X&X&X&X&X&X&X&X&X&X&X&X&X&X&X&X&X&X&X",
"&X&X&X&X&X&X&X&X&X&X&X&X&X&X&X&X&X&X&X&X&X&X&X&X&X&X&XX X . &X&X&X&X&Xv + &X&X&X&X&X&X&X&X&X&X&X&X&X&X&X&X&X&X&X&X&X&X&X&X&X&X&X",
"&X&X&X&X&X&X&X&X&X&X&X&X&X&X&X&X&X&X&X&X&X&X&X&X&X&X&X&X&X&X&X&X&X&X&X7 . &X&X&X&X&X&X&X&X&X&X&X&X&X&X&X&X&X&X&X&X&X&X&X&X&X&X&X",
"&X&X&X&X&X&X&X&X&X&X&X&X&X&X&X&X&X&X&X&X&X&X&X&X&X&X&X&X&X&X&X&X&X&X&X* . &X&X&X&X&X&X&X&X&X&X&X&X&X&X&X&X&X&X&X&X&X&X&X&X&X&X&X",
"&X&X&X&X&X&X&X&X&X&X&X&X&X&X&X&X&X&X&X&X&X&X&X&X&X&X&X&X&X&X&X&X&X&X&X&X&X&X&X&X&X&X&X&X&X&X&X&X&X&X&X&X&X&X&X&X&X&X&X&X&X&X&X&X",
"&X&X&X&X&X&X&X&X&X&X&X&X&X&X&X&X&X&X&X&X&X&X&X&X&X&X&X&X&X&X&X&X&X&X&X&X&X&X&X&X&X&X&X&X&X&X&X&X&X&X&X&X&X&X&X&X&X&X&X&X&X&X&X&X",
"&X&X&X&X&X&X&X&X&X&X&X&X&X&X&X&X&X&X&X&X&X&X&X&X&X&X&X&X&X&X&X&X&X&X&X&X&X&X&X&X&X&X&X&X&X&X&X&X&X&X&X&X&X&X&X&X&X&X&X&X&X&X&X&X"
};
