/* XPM */
static char *result[] = {
/* columns rows colors chars-per-pixel */
"64 64 179 2 ",
"   c #080800",
".  c #070008",
"X  c gray3",
"o  c #100000",
"O  c #180000",
"+  c #100800",
"@  c #180800",
"#  c #140808",
"$  c #181000",
"%  c #101008",
"&  c #181008",
"*  c #171619",
"=  c #290501",
"-  c #210800",
";  c #211000",
":  c #291000",
">  c #211008",
",  c #291008",
"<  c #211808",
"1  c #291808",
"2  c #351006",
"3  c #311808",
"4  c #3B1808",
"5  c #281810",
"6  c #311810",
"7  c #3B1810",
"8  c #321F18",
"9  c #3D2208",
"0  c #312110",
"q  c #392110",
"w  c #392910",
"e  c #392918",
"r  c #252324",
"t  c #382D2A",
"y  c #420400",
"u  c #520000",
"i  c #520B00",
"p  c #520E08",
"a  c #6B0000",
"s  c #6A0E09",
"d  c #7F0000",
"f  c #671C09",
"g  c #4D2A0F",
"h  c #422110",
"j  c #422A10",
"k  c #4A2118",
"l  c #422918",
"z  c #4A2918",
"x  c #4A311B",
"c  c #5C3C14",
"v  c #523118",
"b  c #5E3118",
"n  c #642C0C",
"m  c #523122",
"M  c #583921",
"N  c #713921",
"B  c #604421",
"V  c #6F4421",
"C  c #6B4429",
"Z  c #7A4A29",
"A  c #694831",
"S  c #6B4C39",
"D  c #8C0E08",
"F  c #940000",
"G  c #B60D08",
"H  c #8E2100",
"J  c #8C2308",
"K  c #8C2310",
"L  c #8B2B1A",
"P  c #B52308",
"I  c #B62310",
"U  c #B72C1A",
"Y  c #C20000",
"T  c #CE0000",
"R  c #DD0D09",
"E  c #EB0000",
"W  c red",
"Q  c #FF100C",
"!  c #CE3D06",
"~  c #DC2A1B",
"^  c #EB220C",
"/  c #FD210F",
"(  c #FD2D0D",
")  c #EB3D03",
"_  c #E33E18",
"`  c #F33E19",
"'  c #FF3D21",
"]  c #A2451D",
"[  c #B9481D",
"{  c #A86910",
"}  c #814921",
"|  c #8F4E2D",
" . c #815929",
".. c #805131",
"X. c #935D30",
"o. c #945F39",
"O. c #AE4C2C",
"+. c #B5602E",
"@. c #B16539",
"#. c #DE5A08",
"$. c #CE421C",
"%. c #CE561D",
"&. c #E75A00",
"*. c #E75A08",
"=. c #FB5A04",
"-. c #FD4A13",
";. c #E75710",
":. c #E8521D",
">. c #FE5614",
",. c #D66911",
"<. c #E76406",
"1. c #F36305",
"2. c #F66E05",
"3. c #E76310",
"4. c #E76F10",
"5. c #EF6B10",
"6. c #EF6318",
"7. c #E76C1D",
"8. c #EF6B18",
"9. c #F26310",
"0. c #FD671D",
"q. c #EF731F",
"w. c #F97210",
"e. c #F9731D",
"r. c #DA502B",
"t. c #F44F2B",
"y. c #FF4A2C",
"u. c #FD5021",
"i. c #FF5529",
"p. c #EC503E",
"a. c #FF5731",
"s. c #FF5239",
"d. c #DB6B2D",
"f. c #C57D3C",
"g. c #EF6A21",
"h. c #EF6F2B",
"j. c #FC732D",
"k. c #F77C29",
"l. c #E36E39",
"z. c #FE6731",
"x. c #FF6B39",
"c. c #EC7E37",
"v. c #F77F36",
"b. c #A96A42",
"n. c #FF6C45",
"m. c #DD8306",
"M. c #F7800D",
"N. c #FF8308",
"B. c #EC9A05",
"V. c #FF9D00",
"C. c #FF8418",
"Z. c #FF9C14",
"A. c #FFB400",
"S. c #FF8521",
"D. c #FF962E",
"F. c #E58C3A",
"G. c #FF8039",
"H. c #FF8C39",
"J. c #ED9738",
"K. c #FF9739",
"L. c #FEAC38",
"P. c #FECA0A",
"I. c #FFDD11",
"U. c yellow",
"Y. c #BA804E",
"T. c #B98A68",
"R. c #CC9E50",
"E. c #FF8142",
"W. c #FF8C42",
"Q. c #FF804D",
"!. c #FF8C4C",
"~. c #FF9742",
"^. c #FF9F4F",
"/. c #F48C5E",
"(. c #FF9452",
"). c #EEA062",
"_. c #F2BE64",
"`. c #B99D84",
"'. c None",
/* pixels */
"'.'.'.'.'.'.'.'.'.'.'.'.'.'.'.'.'.'.'.'.'.'.'.'.'.'.'.'.'.'.'.'.'.'.'.'.'.'.'.'.'.'.'.'.'.'.'.'.'.'.'.'.'.'.'.'.'.'.'.'.'.'.'.'.",
"'.'.'.'.'.'.'.'.'.'.'.'.'.'.'.'.'.'.'.'.'.'.'.'.'.'.'.'.'.'.'.'.'.'.'.'.'.'.'.'.'.'.'.'.'.'.'.'.'.'.'.'.'.'.'.'.'.'.'.'.'.'.'.'.",
"'.'.'.'.'.'.'.'.'.'.'.'.'.'.'.'.'.'.'.'.'.'.'.'.'.'.'.'.'.'.'.'.'.'.'.'.'.'.'.'.'.'.'.'.'.'.'.'.'.'.'.'.'.'.'.'.'.'.'.'.'.'.'.'.",
"'.'.'.'.'.'.'.'.'.'.'.'.'.'.'.'.'.'.'.'.'.'.'.'.'.'.'.'.'.'.'.'.'.'.'.'.'.'.'.'. .U.'.'.'.'.'.'.'.'.'.'.'.'.'.'.'.'.'.'.'.'.'.'.",
"'.'.'.'.'.'.'.'.'.'.'.'.'.'.'.'.'.'.'.'.'.'.'.'.'.'.'.'.'.'.'.'.'.'.'.'.'.'.'.'.B R.'.'.'.'.'.'.'.'.'.'.'.'.'.'.'.'.'.'.'.'.'.'.",
"'.'.'.'.'.'.'.'.'.'.'.'.'.'.'.'.'.'.'.'.'.'.'.'.'.'.'.'.'.'.'.'.'.'.'.'.'.'.'.'.% X.'.'.'.'.'.'.'.'.'.'.'.'.'.'.'.'.'.'.'.'.'.'.",
"'.'.'.'.'.'.'.'.'.'.'.'.'.'.'.'.'.'.'.'.'.'.'.'.'.'.'.'.'.'.'.'.'.'.'.'.'.'.'.'.% o.'.'.'.'.'.'.'.'.'.'.'.'.'.'.'.'.'.'.'.'.'.'.",
"'.'.'.'.'.'.'.'.'.'.'.'.'.'.'.'.'.'.'.'.'.'.'.'.'.'.'.'.'.'.'.'.'.'.'.'.'.'.'.'.% o.'.'.'.'.'.'.'.'.'.'.'.'.'.'.'.'.'.'.'.'.'.'.",
"'.'.'.'.'.'.'.'.'.'.'.'.'.'.'.'.'.'.'.'.'.'.'.'.'.'.'.'.'.'.'.'.'.'.'.'.'.'.'.'.% o.'.'.'.'.'.'.'.'.'.'.'.'.'.'.'.'.'.'.'.'.'.'.",
"'.'.'.'.'.'.'.'.'.'.'.'.'.'.'.'.'.'.'.'.'.'.'.'.'.'.'.'.'.'.'.'.'.'.'.'.'.'.'.'.% o.'.'.'.'.'.'.'.'.'.'.'.'.'.'.'.'.'.'.'.'.'.'.",
"'.'.'.'.'.'.'.'.'.'.'.'.'.'.'.'.'.'.'.'.'.'.'.'.'.'.'.'.'.'.'.'.'.v.'.'.'.'.'.'.% o.'.'.'.'.'.'.'.'.'.'.'.'.'.'.'.'.'.'.'.'.'.'.",
"'.'.'.'.'.'.'.'.'.'.'.'.'.'.'.'.'.'.'.'.'.'.'.'.'.'.'.'.'.'.'.'.'.*./.'.'.'.'.'.% o.'.'.'.'.'.'.'.'.'.'.'.'.'.'.'.'.'.'.'.'.'.'.",
"'.'.'.'.'.'.'.'.'.'.'.'.'.'.'.'.'.'.'.'.'.'.'.'.'.'.'.'.'.'.'.'.'.h.!.5.'.'.'.'.% o.'.'.'.'.'.'.'.'.'.'.'.'.'.'.'.'.'.'.'.'.'.'.",
"'.'.'.'.'.'.'.'.'.'.'.'.'.'.'.'.'.'.'.'.'.'.'.'.'.'.'.'.'.'.'.'.'.E.c.'.w.M.'.'.% o.'.'.'.'.'.'.'.'.'.'.'.'.'.'.'.'.'.'.'.'.'.'.",
"'.'.'.'.'.'.'.'.'.'.'.'.'.'.'.'.'.'.'.'.'.'.'.'.'.'.'.'.'.'.$.s s %.'.'.'.3.w.'.% o.'.'.'.'.'.'.'.'.'.'.'.'.'.'.'.'.'.'.'.'.'.'.",
"'.'.'.'.'.'.'.'.'.'.'.'.'.'.'.'.'.'.'.'.'.'.'.'.'.'.'.'.'.#.( ' ' J <.'.'.5.M.'.% o.'.'.'.'.'.'.'.'.'.'.'.'.'.'.'.'.'.'.'.'.'.'.",
"'.'.'.'.'.'.'.'.'.'.'.'.'.'.'.'.'.'.'.'.'.'.'.'.'.'.3.&.'.G.` s.z.%.k.M.5.w.w.'.% o.'.'.'.'.'.'.'.'.'.'.'.'.'.'.'.'.'.'.'.'.'.'.",
"'.'.'.'.'.'.'.'.'.'.'.'.'.'.'.'.'.'.'.'.'.'.'.'.'.&.<.3.3.H.a.a.t.+.D.S.w.e.5.'.% o.'.'.'.'.'.'.'.'.'.'.'.'.'.'.'.'.'.'.'.'.'.'.",
"'.'.'.'.'.'.'.'.'.'.'.'.'.'.'.'.'.'.'.'.'.'.'.'.'.'.&.5.e.^.).!.E.F.D.S.K.D.'.'.% o.'.'.'.'.'.'.'.'.'.'.'.'.'.'.'.'.'.'.'.'.'.'.",
"'.'.'.'.'.'.'.'.'.'.'.'.'.'.'.'.'.'.'.'.'.'.'.'.'.'.'.k.S.).)./.Q.c.q.k.K.D.*.'.% o.'.'.'.'.'.'.'.'.'.'.'.'.'.'.'.'.'.'.'.'.'.'.",
"'.'.'.'.'.'.'.'.'.'.'.'.'.'.'.'.'.'.'.'.'.'.'.'.'.'.D.r.:.x.G.).).@.I [ F.H.e.'.% o.'.'.'.'.'.'.'.'.'.'.'.'.'.'.'.'.'.'.'.'.'.'.",
"'.'.'.'.'.'.'.'.'.'.'.'.'.'.'.'.'.'.'.'.'.'.'.'.'.k._ u.a.t.t.u.Q.r.L t.i.%.K.'.% o.'.'.'.'.'.'.'.'.'.'.'.'.'.'.'.'.'.'.'.'.'.'.",
"'.'.'.'.'.'.'.'.'.'.'.'.'.'.'.'.'.'.'.'.'.'.'.'.'.H.' a.x.a.a.x./.s.~ _ z.t.c.'.% o.'.'.'.'.'.'.'.'.'.'.'.'.'.'.'.'.'.'.'.'.'.'.",
"'.'.'.'.'.'.'.'.'.'.'.'.'.'.'.'.'.'.'.'.'.'.'.'.*.~.j.i.x././.Q./.' Q G i.u.%.&.% o.'.'.'.'.'.'.'.'.'.'.'.'.'.'.'.'.'.'.'.'.'.'.",
"'.'.'.'.'.'.'.'.'.'.'.'.'.'.'.'.'.'.'.'.'.'.'.'.k.!.!.i.x.).)././.y./ P x.' %.'.% o.'.'.'.'.'.'.'.'.'.'.'.'.'.'.'.'.'.'.'.'.'.'.",
"'.'.'.'.'.'.'.'.'.'.'.'.'.'.'.'.'.'.'.'.'.'.'.'.^.G.E.(.G.Q./.).Q.y.` ] x.s.] q.% o.'.'.'.'.'.'.'.'.'.'.'.'.'.'.'.'.'.'.'.'.'.'.",
"'.'.'.'.'.'.'.'.'.'.'.'.'.'.'.'.'.'.'.'.'.'.'.'.!.E.E.~.z.n./.Q.Q.' ^ %.E.' L F.% o.'.'.'.'.'.'.'.'.'.'.'.'.'.'.'.'.'.'.'.'.'.'.",
"'.'.'.'.'.'.'.'.'.'.'.'.'.'.'.'.'.'.'.'.'.'.'.3.y.i.v.^.~.s.s.2.{ ' _ k.^.!.y.G p.(.'.'.'.'.'.'.'.'.'.'.'.'.'.'.'.'.'.'.'.'.'.'.",
"'.'.'.'.'.'.'.'.'.'.'.'.'.'.'.'.'.'.'.'.'.'.'.*.y.u.q.~.(.x.n.M.,.n.a.G.q.^.t.p.(.+.'.'.'.'.'.'.'.'.'.'.'.'.'.'.'.'.'.'.'.'.'.'.",
"'.'.'.'.'.'.'.'.'.'.'.'.'.'.'.'.'.'.'.'.'.'.'.q./ ~ '.^.(.n.X.V.B.C r.~.'.'.k.8.%.a '.'.'.'.'.'.'.'.'.'.'.'.'.'.'.'.'.'.'.'.'.'.",
"'.'.'.'.'.'.'.'.'.'.'.'.'.'.'.'.'.'.'.'.'.'.'.*.r.q.K.^.W.d...P.A.M @.L.k.8.'.'.# X.'.'.'.'.'.'.'.'.'.'.'.'.'.'.'.'.'.'.'.'.'.'.",
"'.'.'.'.'.'.'.'.'.'.'.'.'.'.'.'.'.'.'.'.'.'.'.:.R d.~.E.E.r.B I.P.5 F.J.c.k.*.'.% o.'.'.'.'.'.'.'.'.'.'.'.'.'.'.'.'.'.'.'.'.'.'.",
"'.'.'.'.'.'.'.'.'.'.'.'.'.'.'.'.'.'.'.'.'.'.'.u.^ E.:.G.x.L w I.P.1 n ] | | H.8.% o.'.'.'.'.'.'.'.'.'.'.'.'.'.'.'.'.'.'.'.'.'.'.",
"'.'.'.'.'.'.'.'.'.'.'.'.'.'.'.'.'.'.'.'.'.'.'.3.G.v.u.E.G.g 0  .c > , L ] } v.v.& o.'.'.'.'.'.'.'.'.'.'.'.'.'.'.'.'.'.'.'.'.'.'.",
"'.'.'.'.'.'.'.'.'.'.'.'.'.'.'.'.'.'.'.'.'.'.'.3.$.) j.E.G...Y.Y.b.M 6 K J f } l.*.'.'.'.'.'.'.'.'.'.'.'.'.'.'.'.'.'.'.'.'.'.'.'.",
"'.'.'.'.'.'.'.'.'.'.'.'.'.'.'.'.'.'.'.'.'.'.*.3.) >.v.E.v.l Y.Y.Y...5 D J H L | v.'.'.'.'.'.'.'.'.'.'.'.'.'.'.'.'.'.'.'.'.'.'.'.",
"'.'.'.'.'.'.'.'.'.'.'.'.'.'.'.'.'.'.'.'.'.'.q.~.k.G.0.5 * : x o.o.q o o H U r.d.k.q.'.'.'.'.'.'.'.'.'.'.'.'.'.'.'.'.'.'.'.'.'.'.",
"'.'.'.'.'.'.'.'.'.'.'.'.'.'.'.'.'.'.'.'.'.'.~.(._.K.2 e , o > ..S + o & & P !.v.~.G.'.'.'.'.'.'.'.'.'.'.'.'.'.'.'.'.'.'.'.'.'.'.",
"'.'.'.'.'.'.'.'.'.'.'.'.'.'.'.'.'.'.'.'.'.'.G.k.^.^.+ 7 + 0 @ ).Y.+ . + 0 s E.G.!.W.'.'.'.'.'.'.'.'.'.'.'.'.'.'.'.'.'.'.'.'.'.'.",
"'.'.'.'.'.'.'.'.'.'.'.'.'.'.'.'.'.'.'.'.'.'.8.0.T. .0 @ + `.g ....p 4 o +  .! :.c.G.'.'.'.'.'.'.'.'.'.'.'.'.'.'.'.'.'.'.'.'.'.'.",
"'.'.'.'.'.'.'.'.'.'.'.'.'.'.'.'.'.'.'.'.'.'.;.>.T.| 1 i F B V o.Z h p o O v _ u.d.(.*.'.'.'.'.'.'.'.'.'.'.'.'.'.'.'.'.'.'.'.'.'.",
"'.'.'.'.'.'.'.'.'.'.'.'.'.'.'.'.'.'.'.'.'.'.;.=.T.} `.W E 8 8 x x e D = o > -.j.!.(.'.'.'.'.'.'.'.'.'.'.'.'.'.'.'.'.'.'.'.'.'.'.",
"'.'.'.'.'.'.'.'.'.'.'.'.'.'.'.'.'.'.'.'.'.'.6.9.T.| T.T Y # + . .   a = + @ >.0.!.G.'.'.'.'.'.'.'.'.'.'.'.'.'.'.'.'.'.'.'.'.'.'.",
"'.'.'.'.'.'.'.'.'.'.'.'.'.'.'.'.'.'.'.'.'.'.'.1.O.L G & y e z # + m k a = D 9.0.h.7.'.'.'.'.'.'.'.'.'.'.'.'.'.'.'.'.'.'.'.'.'.'.",
"'.'.'.'.'.'.'.'.'.'.'.'.'.'.'.'.'.'.'.'.'.'.'.2.[ | G q 1 @ - @ @ @ @ d u : &.w.g.8.'.'.'.'.'.'.'.'.'.'.'.'.'.'.'.'.'.'.'.'.'.'.",
"'.'.'.'.'.'.'.'.'.'.'.'.'.'.'.'.'.'.'.'.'.'.'.<.[ +.+ O o o o # + o o y = O 4.C.q.'.'.'.'.'.'.'.'.'.'.'.'.'.'.'.'.'.'.'.'.'.'.'.",
"'.'.'.'.'.'.'.'.'.'.'.'.'.'.'.'.'.'.'.'.'.'.'.M.N.2.$ z ..V N l z V N 4 @ '.q.D.M.#.'.'.'.'.'.'.'.'.'.'.'.'.'.'.'.'.'.'.'.'.'.'.",
"'.'.'.'.'.'.'.'.'.'.'.'.'.'.'.'.'.'.'.'.'.'.M.A.V.M.'.3 Z , > & & > 1 j @ '.H.D.Z.m.'.'.'.'.'.'.'.'.'.'.'.'.'.'.'.'.'.'.'.'.'.'.",
"'.'.'.'.'.'.'.'.'.'.'.'.'.'.'.'.'.'.'.'.m.V.V.2.'.'.'.9 Z : o '.'.O 4 h + '.*.E.8.P.Z.J '.'.'.'.'.'.'.'.'.'.'.'.'.'.'.'.'.'.'.'.",
"'.'.'.'.'.'.'.'.'.'.'.'.'.'.'.'.'.'.'.'.V.A.V.'.'.'.'., V - + '.'.- 3 3 + '.'.'.'.'.A.V.'.'.'.'.'.'.'.'.'.'.'.'.'.'.'.'.'.'.'.'.",
"'.'.'.'.'.'.'.'.'.'.'.'.'.'.'.'.'.'.'.'.'.'.'.'.'.'.'.q v > @ '.'.: 4 6 '.'.'.'.'.'.'.'.'.'.'.'.'.'.'.'.'.'.'.'.'.'.'.'.'.'.'.'.",
"'.'.'.'.'.'.'.'.'.'.'.'.'.'.'.'.'.'.'.'.'.'.'.'.'.'.'.v q @ '.'.'.> z q '.'.'.'.'.'.'.'.'.'.'.'.'.'.'.'.'.'.'.'.'.'.'.'.'.'.'.'.",
"'.'.'.'.'.'.'.'.'.'.'.'.'.'.'.'.'.'.'.'.'.'.'.'.'.'.'...o.3 + '.'.0 b.C '.'.'.'.'.'.'.'.'.'.'.'.'.'.'.'.'.'.'.'.'.'.'.'.'.'.'.'.",
"'.'.'.'.'.'.'.'.'.'.'.'.'.'.'.'.'.'.'.'.'.'.'.'.'.'.'.Y...q @ '.'.M o...'.'.'.'.'.'.'.'.'.'.'.'.'.'.'.'.'.'.'.'.'.'.'.'.'.'.'.'.",
"'.'.'.'.'.'.'.'.'.'.'.'.'.'.'.'.'.'.'.'.'.'.'.'.'.'.'.S A 6 & '.'.j A S '.'.'.'.'.'.'.'.'.'.'.'.'.'.'.'.'.'.'.'.'.'.'.'.'.'.'.'.",
"'.'.'.'.'.'.'.'.'.'.'.'.'.'.'.'.'.'.'.'.'.'.'.'.'.'.'.r t @ '.'.'.+ b t . '.'.'.'.'.'.'.'.'.'.'.'.'.'.'.'.'.'.'.'.'.'.'.'.'.'.'.",
"'.'.'.'.'.'.'.'.'.'.'.'.'.'.'.'.'.'.'.'.'.'.'.'.'.'.'.t t - '.'.'.'.Z t . '.'.'.'.'.'.'.'.'.'.'.'.'.'.'.'.'.'.'.'.'.'.'.'.'.'.'.",
"'.'.'.'.'.'.'.'.'.'.'.'.'.'.'.'.'.'.'.'.'.'.'.'.'.'.'.X % z '.'.'.'.o.* . '.'.'.'.'.'.'.'.'.'.'.'.'.'.'.'.'.'.'.'.'.'.'.'.'.'.'.",
"'.'.'.'.'.'.'.'.'.'.'.'.'.'.'.'.'.'.'.'.'.'.'.'.'.'.'.'.3 3 '.'.'.; f.+ '.'.'.'.'.'.'.'.'.'.'.'.'.'.'.'.'.'.'.'.'.'.'.'.'.'.'.'.",
"'.'.'.'.'.'.'.'.'.'.'.'.'.'.'.'.'.'.'.'.'.'.'.'.'.'.'.'.< X + '.'.X t @ '.'.'.'.'.'.'.'.'.'.'.'.'.'.'.'.'.'.'.'.'.'.'.'.'.'.'.'.",
"'.'.'.'.'.'.'.'.'.'.'.'.'.'.'.'.'.'.'.'.'.'.'.'.'.'.'.'.'.X . '.'.X r '.'.'.'.'.'.'.'.'.'.'.'.'.'.'.'.'.'.'.'.'.'.'.'.'.'.'.'.'.",
"'.'.'.'.'.'.'.'.'.'.'.'.'.'.'.'.'.'.'.'.'.'.'.'.'.'.'.'.'.'.'.'.'.'.'.'.'.'.'.'.'.'.'.'.'.'.'.'.'.'.'.'.'.'.'.'.'.'.'.'.'.'.'.'.",
"'.'.'.'.'.'.'.'.'.'.'.'.'.'.'.'.'.'.'.'.'.'.'.'.'.'.'.'.'.'.'.'.'.'.'.'.'.'.'.'.'.'.'.'.'.'.'.'.'.'.'.'.'.'.'.'.'.'.'.'.'.'.'.'.",
"'.'.'.'.'.'.'.'.'.'.'.'.'.'.'.'.'.'.'.'.'.'.'.'.'.'.'.'.'.'.'.'.'.'.'.'.'.'.'.'.'.'.'.'.'.'.'.'.'.'.'.'.'.'.'.'.'.'.'.'.'.'.'.'."
};
