/* XPM */
static char *player_up_8[] = {
/* columns rows colors chars-per-pixel */
"64 64 202 2 ",
"   c black",
".  c #070008",
"X  c gray3",
"o  c #100000",
"O  c #180000",
"+  c None",
"@  c #180800",
"#  c #140808",
"$  c #101008",
"%  c #181008",
"&  c #111010",
"*  c #171619",
"=  c #210800",
"-  c #350301",
";  c #211000",
":  c #291000",
">  c #211008",
",  c #291008",
"<  c #211808",
"1  c #291808",
"2  c #3B1808",
"3  c #221010",
"4  c #311810",
"5  c #3B1810",
"6  c #321F18",
"7  c #3D2208",
"8  c #312110",
"9  c #392110",
"0  c #392910",
"q  c #392918",
"w  c #252324",
"e  c #382D2A",
"r  c #420400",
"t  c #520000",
"y  c #520E08",
"u  c #4D1F0D",
"i  c #6B0B00",
"p  c #6A0E09",
"a  c #7F0000",
"s  c #671C09",
"d  c #422110",
"f  c #422A10",
"g  c #422918",
"h  c #4A2918",
"j  c #5A2719",
"k  c #4A311B",
"l  c #5C3C14",
"z  c #523118",
"x  c #5E3118",
"c  c #642C0C",
"v  c #523122",
"b  c #583921",
"n  c #5C3E29",
"m  c #633921",
"M  c #713921",
"N  c #7A4211",
"B  c #604421",
"V  c #6F4421",
"C  c #6B4429",
"Z  c #7A4A29",
"A  c #694831",
"S  c #6B4C39",
"D  c #514C51",
"F  c #8C0E08",
"G  c #940000",
"H  c #AD0000",
"J  c #B60D08",
"K  c #8E2100",
"L  c #8C2308",
"P  c #8C2310",
"I  c #8B2B1A",
"U  c #B62800",
"Y  c #B52308",
"T  c #B62310",
"R  c #B72C1A",
"E  c #CE0000",
"W  c #DA0000",
"Q  c #DA0C00",
"!  c #DD0D09",
"~  c #D61C0D",
"^  c #EB0000",
"/  c #F70000",
"(  c red",
")  c #F40D09",
"_  c #FF0808",
"`  c #FD180E",
"'  c #DA2A00",
"]  c #D62D0C",
"[  c #DC2A1B",
"{  c #EB220C",
"}  c #FD210F",
"|  c #FD2D0D",
" . c #EB3D03",
".. c #F4291C",
"X. c #FF2D18",
"o. c #E33E18",
"O. c #F33E19",
"+. c #FF2521",
"@. c #FF2E2C",
"#. c #FF3121",
"$. c #FF3D21",
"%. c #FF3E29",
"&. c #FF3D31",
"*. c #FF3E39",
"=. c #A34408",
"-. c #B94407",
";. c #A2451D",
":. c #B9481D",
">. c #A86910",
",. c #814921",
"<. c #8F4E2D",
"1. c #815929",
"2. c #805131",
"3. c #935D30",
"4. c #945F39",
"5. c #AE4C2C",
"6. c #B5602E",
"7. c #B16539",
"8. c #D05007",
"9. c #DE5A08",
"0. c #CE421C",
"q. c #CE561D",
"w. c #FF4E04",
"e. c #E75A00",
"r. c #E75A08",
"t. c #FB5A04",
"y. c #FD4A13",
"u. c #E75710",
"i. c #E8521D",
"p. c #FE5614",
"a. c #D66911",
"s. c #E76406",
"d. c #F36305",
"f. c #F66E05",
"g. c #E76310",
"h. c #EF6B10",
"j. c #E76319",
"k. c #EF6318",
"l. c #E76C1D",
"z. c #EF6B18",
"x. c #FD671D",
"c. c #EF731F",
"v. c #F97210",
"b. c #F9731D",
"n. c #DA502B",
"m. c #F44F2B",
"M. c #FF4A2C",
"N. c #FD5021",
"B. c #FF5529",
"V. c #EC503E",
"C. c #FF5731",
"Z. c #FF5239",
"A. c #DB6B2D",
"S. c #C57D3C",
"D. c #EF6A21",
"F. c #EF6F2B",
"G. c #F77C29",
"H. c #E36E39",
"J. c #FE6731",
"K. c #FF6B39",
"L. c #EC7E37",
"P. c #F77F36",
"I. c #99664A",
"U. c #A96A42",
"Y. c #FF4D42",
"T. c #FF534F",
"R. c #E36F45",
"E. c #FF6C45",
"W. c #FF6B58",
"Q. c #DD8306",
"!. c #FF8308",
"~. c #EC9A05",
"^. c #FF9D00",
"/. c #FF8418",
"(. c #FF9C14",
"). c #FFB412",
"_. c #FF8521",
"`. c #FF962E",
"'. c #E58C3A",
"]. c #FF8039",
"[. c #FF8C39",
"{. c #FF9739",
"}. c #FEAC38",
"|. c #FECA0A",
" X c #FFDD11",
".X c yellow",
"XX c #FFD435",
"oX c #BA804E",
"OX c #DB944F",
"+X c #CC9E50",
"@X c #FF8142",
"#X c #FF8C42",
"$X c #FF804D",
"%X c #FF8C4C",
"&X c #FF9742",
"*X c #FF9F4F",
"=X c #F48C5E",
"-X c #FF9452",
";X c #EEA062",
":X c #F2BE64",
">X c #FEC44E",
",X c #B99D84",
/* pixels */
"                                                                                                                                ",
"                                                                                                                                ",
"                                                                                                                                ",
"                                              1..X                                                                              ",
"                                              B +X                                                                              ",
"                                              $ 3.                                                                              ",
"                                              $ 4.                                                                              ",
"                                              $ 4.                                                                              ",
"                                              $ 4.                                                                              ",
"                                              $ 4.                                                                              ",
"                                              $ 4.        u.g.                                                                  ",
"                                              $ 4.        F.                                                                    ",
"                                              $ 4.    s.s.F.      u.r.                                                          ",
"                                              $ 4.  (./.  D.g.      j.                                                          ",
"                                              $ 4.g._.    r.] &.[ I 8.                                                          ",
"                                              $ 4.g._.    9.) T.` J =.                                                          ",
"                                              $ 4.e.b.v.v.r.{ T.Y.! F.v.h.h.                                                    ",
"                                              $ 4.  b.`./.g.| &.*.] P._./.v.                                                    ",
"                                              $ 4.  _.{._./.G.Z.&.6.G.`.G.G.                                                    ",
"                                              $ 4.k.G._.c./.l.~ ..J =.L.{.`.g.                                                  ",
"                                              $ 4.G.0.] +.X.y.Q X.` ) ..q.[.k.                                                  ",
"                                              $ 4.{.#.$.X.%.Y.T } @.` [ N.R G.                                                  ",
"                                              $ 4.G.E.$.$.M.E.~ ..#.#.+.C.$.c.                                                  ",
"                                              $ 4.G.J.m.Z.W.$XO.Z.Z.&.X.Z.O.j.                                                  ",
"                                              $ 4.F.K.J.$.$X=XC.K.T.#.$.W.M.:.h.                                                ",
"                                            c.=XL.J.=X*XC.W.;XE.E.E.&.{ $X$X0.;.                                                ",
"                                            ].@X-XJ.E.*X#XE.=XE.$XW.%.i.*XE.o.,.                                                ",
"                                            J @XK.K.@X[.*XZ.E.@X$XK.M.G.g.-XC.n.g.                                              ",
"                                              # $XE.*X&X*XK.=X%X=XK.M.L.r.z.$XE.z.                                              ",
"                                              $ k.P.z.*X*XK.=X=X=XE.E.%X    @XM.l.                                              ",
"                                              % 3.  [.*X}.>X-X;X;X$X@X6.q.c.D.O.]                                               ",
"                                              $ 8.c.H.`.>X>X:X:X;X=X%XV.2 6.k.i.j.                                              ",
"                                              # L.&XT _.XXXX>X;X=X;X=X$.Y p P.P.                                                ",
"                                              $ &XL.o.$.x.XX>X*X-X$XM.$.{ K :.#X                                                ",
"                                            g.#X@XF.J.N.m.5.I.D e S <. .N.y.R 6.#X                                              ",
"                                            k.#XE.K.N.J.;.w w % X . w I N.N.0.q.*Xg.                                            ",
"                                              %XK.B.N.. e @ > q v 6 % w M K.D.n.-Xz.                                            ",
"                                            ].*X-X-X5.1 4 k v A 4.n g % o 7.%XR.-XG.                                            ",
"                                            P.*X].*XZ f 4 > ; p u q > , + 1.@XL.-XG.                                            ",
"                                            g.-X[.OXu @ = 2 2 | F @ + . . x A.F.#X                                              ",
"                                              c.'.n @ 7 d V M y.Y 1 , + . ; k A.P.                                              ",
"                                              z.oX^ _ ( ( S.0.p.U 7 M / E F - Z P.                                              ",
"                                              z.;.~ ;.( ( 9 ] p.] s 9 ( Q ,X: k F.                                              ",
"                                                E ( ( ( _ <.' ]. .s h ( ( ^ r O r.                                              ",
"                                                ^ / ( ( [ <. .*Xp.s m W ( / t -                                                 ",
"                                                ! :Xi P 5.3. .{.p.L A M ( r 6.y                                                 ",
"                                            ^.Q.[ >XH j c 7.w.}.v.L 2.M ( a ~.3 a.Q.                                            ",
"                                            ^.Q.0.-X{ <.;.I t.}./.=.j ,.( G h.2 Q.Q.                                            ",
"                                                    + U.C =.d.>X(.-.,.> @ +                                                     ",
"                                                    % U.m =.f.XX(.-.;.1 + +                                                     ",
"                                                    ; C x N !.XX).a.N b +                                                       ",
"                                                      b k c !.XX|.>.u k +                                                       ",
"                                                      S V , >.XX XQ., z o                                                       ",
"                                                      7 h # l  X|.~.9 d +                                                       ",
"                                                      z B & < |. X: d d +                                                       ",
"                                                      5 f X &  X X$ # k +                                                       ",
"                                                      7 g     ~.Q.$ * w +                                                       ",
"                                                      8 h         X w e %                                                       ",
"                                                      0 d         X X w .                                                       ",
"                                                      # #           X e X                                                       ",
"                                                      & * .         . X .                                                       ",
"                                                                                                                                ",
"                                                                                                                                ",
"                                                                                                                                "
};
