/* XPM */
static char *result[] = {
/* columns rows colors chars-per-pixel */
"64 64 218 2 ",
"   c #080800",
".  c #070008",
"X  c gray3",
"o  c #100000",
"O  c #180000",
"+  c #100800",
"@  c #180800",
"#  c #140808",
"$  c #101008",
"%  c #181008",
"&  c #111010",
"*  c #171619",
"=  c #210000",
"-  c #210800",
";  c #210808",
":  c #211000",
">  c #291000",
",  c #281900",
"<  c #211008",
"1  c #291008",
"2  c #291808",
"3  c #351006",
"4  c #311800",
"5  c #311808",
"6  c #3B1808",
"7  c #281810",
"8  c #311810",
"9  c #3B1810",
"0  c #3D2208",
"q  c #312110",
"w  c #392110",
"e  c #392918",
"r  c #252324",
"t  c #382D2A",
"y  c #420400",
"u  c #520000",
"i  c #520B00",
"p  c #520E08",
"a  c #4D1F0D",
"s  c #6B0000",
"d  c #6B0B00",
"f  c #6A0E09",
"g  c #7F0000",
"h  c #671C09",
"j  c #422110",
"k  c #422A10",
"l  c #4A2118",
"z  c #422918",
"x  c #4A2918",
"c  c #5A2719",
"v  c #4A311B",
"b  c #5C3C14",
"n  c #523118",
"m  c #5E3118",
"M  c #4A2921",
"N  c #523122",
"B  c #5F3121",
"V  c #583921",
"C  c #5C3E29",
"Z  c #633921",
"A  c #713921",
"S  c #7A4211",
"D  c #604421",
"F  c #6F4421",
"G  c #6B4429",
"H  c #764129",
"J  c #7A4A29",
"K  c #694831",
"L  c #6B4C39",
"P  c #514C51",
"I  c #7D5E4D",
"U  c #8B0B00",
"Y  c #8C0E08",
"T  c #940000",
"R  c #AD0000",
"E  c #B40E00",
"W  c #B60D08",
"Q  c #8E2100",
"!  c #8C2308",
"~  c #8C2310",
"^  c #8B2B1A",
"/  c #B52308",
"(  c #B62310",
")  c #B72C1A",
"_  c #C20000",
"`  c #CE0000",
"'  c #DA0000",
"]  c #DA0C00",
"[  c #DD0D09",
"{  c #D61C0D",
"}  c #EB0000",
"|  c #F70000",
" . c red",
".. c #F40D09",
"X. c #FF0808",
"o. c #FF100C",
"O. c #FD180E",
"+. c #FF1D18",
"@. c #D62D0C",
"#. c #CE3D06",
"$. c #DC2A1B",
"%. c #EB220C",
"&. c #FD210F",
"*. c #FD2D0D",
"=. c #EB3D03",
"-. c #FF3E03",
";. c #F4291C",
":. c #FF2D18",
">. c #E33E18",
",. c #FF3D15",
"<. c #F33E19",
"1. c #FF2521",
"2. c #FF2E2C",
"3. c #FF3D21",
"4. c #FF3D31",
"5. c #FF3E39",
"6. c #A34408",
"7. c #B94407",
"8. c #A2451D",
"9. c #B9481D",
"0. c #A86910",
"q. c #814921",
"w. c #8F4E2D",
"e. c #815929",
"r. c #805131",
"t. c #935D30",
"y. c #945F39",
"u. c #AE4C2C",
"i. c #B5602E",
"p. c #B16539",
"a. c #D05007",
"s. c #DE5A08",
"d. c #CE421C",
"f. c #CE561D",
"g. c #E84E03",
"h. c #FF4E04",
"j. c #E75A00",
"k. c #E75A08",
"l. c #FD4A13",
"z. c #E75710",
"x. c #E8521D",
"c. c #FE5614",
"v. c #E76406",
"b. c #F36305",
"n. c #F66E05",
"m. c #E76310",
"M. c #E76F10",
"N. c #EF6B10",
"B. c #E76319",
"V. c #EF6318",
"C. c #E76C1D",
"Z. c #EF6B18",
"A. c #F26310",
"S. c #FD671D",
"D. c #EF731F",
"F. c #F97210",
"G. c #F9731D",
"H. c #DA502B",
"J. c #F44F2B",
"K. c #FF4A2C",
"L. c #FD5021",
"P. c #FF5529",
"I. c #EC503E",
"U. c #FF5731",
"Y. c #FF5239",
"T. c #DB6B2D",
"R. c #C57D3C",
"E. c #EF6A21",
"W. c #EF6F2B",
"Q. c #FC732D",
"!. c #F77C29",
"~. c #FE6731",
"^. c #FF6B39",
"/. c #F77F36",
"(. c #99664A",
"). c #9C6F59",
"_. c #A96A42",
"`. c #FF4D42",
"'. c #FF534F",
"]. c #E36F45",
"[. c #FF6C45",
"{. c #FF6B58",
"}. c #FF8308",
"|. c #EC9A05",
" X c #FF9D00",
".X c #FF8418",
"XX c #FF9C14",
"oX c #EFB206",
"OX c #FFB400",
"+X c #FFB412",
"@X c #FF8521",
"#X c #FF962E",
"$X c #FF8039",
"%X c #FF8C39",
"&X c #FF9739",
"*X c #FEAC38",
"=X c #FECA0A",
"-X c #FFDD11",
";X c yellow",
":X c #FFD435",
">X c #BA804E",
",X c #B98A68",
"<X c #DB944F",
"1X c #CC9E50",
"2X c #E8874D",
"3X c #FF8142",
"4X c #FF8C42",
"5X c #FF804D",
"6X c #FF8C4C",
"7X c #FF9F4F",
"8X c #F48C5E",
"9X c #FF9452",
"0X c #EEA062",
"qX c #F2BE64",
"wX c #FEC44E",
"eX c #B99D84",
"rX c #EAD2A3",
"tX c None",
/* pixels */
"tXtXtXtXtXtXtXtXtXtXtXtXtXtXtXtXtXtXtXtXtXtXtXtXtXtXtXtXtXtXtXtXtXtXtXtXtXtXtXtXtXtXtXtXtXtXtXtXtXtXtXtXtXtXtXtXtXtXtXtXtXtXtXtX",
"tXtXtXtXtXtXtXtXtXtXtXtXtXtXtXtXtXtXtXtXtXtXtXtXtXtXtXtXtX;Xe.tXtXtXtXtXtXtXtXtXtXtXtXtXtXtXtXtXtXtXtXtXtXtXtXtXtXtXtXtXtXtXtXtX",
"tXtXtXtXtXtXtXtXtXtXtXtXtXtXtXtXtXtXtXtXtXtXtXtXtXtXtXtXtX1XD tXtXtXtXtXtXtXtXtXtXtXtXtXtXtXtXtXtXtXtXtXtXtXtXtXtXtXtXtXtXtXtXtX",
"tXtXtXtXtXtXtXtXtXtXtXtXtXtXtXtXtXtXtXtXtXtXtXtXtXtXtXtXtXt.$ tXtXtXtXtXtXtXtXtXtXtXtXtXtXtXtXtXtXtXtXtXtXtXtXtXtXtXtXtXtXtXtXtX",
"tXtXtXtXtXtXtXtXtXtXtXtXtXtXtXtXtXtXtXtXtXtXtXtXtXtXtXtXtXy.$ tXtXtXtXtXtXtXtXtXtXtXtXtXtXtXtXtXtXtXtXtXtXtXtXtXtXtXtXtXtXtXtXtX",
"tXtXtXtXtXtXtXtXtXtXtXtXtXtXtXtXtXtXtXtXtXtXtXtXtXtXtXtXtXy.$ tXtXtXtXtXtXtXtXtXtXtXtXtXtXtXtXtXtXtXtXtXtXtXtXtXtXtXtXtXtXtXtXtX",
"tXtXtXtXtXtXtXtXtXtXtXtXtXtXtXtXtXtXtXtXtXtXtXtXtXtXtXtXtXy.$ tXtXtXtXtXtXtXtXtXtXtXtXtXtXtXtXtXtXtXtXtXtXtXtXtXtXtXtXtXtXtXtXtX",
"tXtXtXtXtXtXtXtXtXtXtXtXtXtXtXtXtXtXtXtXtXtXtXtXtXtXtXtXtXy.$ tXtXtXtXtXtXtXtXtXtXtXtXtXtXtXtXtXtXtXtXtXtXtXtXtXtXtXtXtXtXtXtXtX",
"tXtXtXtXtXtXtXtXtXtXtXtXtXtXtXtXtXtXtXtXtXtXtXtXtXtXtXtXtXy.$ tXtXtXtXtXtXtXtXtXtXtXtXtXtXtXtXtXtXtXtXtXtXtXtXtXtXtXtXtXtXtXtXtX",
"tXtXtXtXtXtXtXtXtXtXtXtXtXtXtXtXtXtXtXtXtXtXtXtXtXtXtXtXtXy.$ tXtXtXtXtXtXtXtXtXtXtXtXtXtXtXtXtXtXtXtXtXtXtXtXtXtXtXtXtXtXtXtXtX",
"tXtXtXtXtXtXtXtXtXtXtXtXtXtXtXtXtXtXtXtXtXtXtXtXtXtXtXtXtXy.$ tXtXtXtXtXtXtXtXtXtXtXtXtXtXtXtXtXtXtXtXtXtXtXtXtXtXtXtXtXtXtXtXtX",
"tXtXtXtXtXtXtXtXtXtXtXtXtXtXtXtXtXtXtXtXtXtXtXtXtXtXtXtXtXy.$ tXtXtXtXtXtXtXtXC.W.E.m.tXtXtXtXtXtXtXtXtXtXtXtXtXtXtXtXtXtXtXtXtX",
"tXtXtXtXtXtXtXtXtXtXtXtXtXtXtXtXtXtXtXtXtXtXtXtXtXtXtXtXtXy.$ tXtXtXtXtXtXtXtXB.z.tXv.tXtXtXtXtXtXtXtXtXtXtXtXtXtXtXtXtXtXtXtXtX",
"tXtXtXtXtXtXtXtXtXtXtXtXtXtXtXtXtXtXtXtXtXtXtXtXtXtXtXtXtXy.$ tXtXtXk.tXtXtXtXtXtXtXN.tXtXtXtXtXtXtXtXtXtXtXtXtXtXtXtXtXtXtXtXtX",
"tXtXtXtXtXtXtXtXtXtXtXtXtXtXtXtXtXtXtXtXtXtXtXtXtXtXtXtXtXy.$ tXtXm.a.` ` E z.D.G..Xj.tXtXtXtXtXtXtXtXtXtXtXtXtXtXtXtXtXtXtXtXtX",
"tXtXtXtXtXtXtXtXtXtXtXtXtXtXtXtXtXtXtXtXtXtXtXtXtXtXtXtXtXy.$ tXtXs.! | &...[ Z.N.m.tXtXtXtXtXtXtXtXtXtXtXtXtXtXtXtXtXtXtXtXtXtX",
"tXtXtXtXtXtXtXtXtXtXtXtXtXtXtXtXtXtXtXtXtXtXtXtXtXtXtXtXtXy.$ tXtX/ R 1.4.L.X.tXtXtXtXtXtXtXtXtXtXtXtXtXtXtXtXtXtXtXtXtXtXtXtXtX",
"tXtXtXtXtXtXtXtXtXtXtXtXtXtXtXtXtXtXtXtXtXtXtXtXtXtXtXtXtXy.$ tXtXY [ 5.3.~.*.tXtXtXtXtXtXtXtXtXtXtXtXtXtXtXtXtXtXtXtXtXtXtXtXtX",
"tXtXtXtXtXtXtXtXtXtXtXtXtXtXtXtXtXtXtXtXtXtXtXtXz.m.B.tXtXy.$ tXtX%.+.~.^.!.#Xm.tXtXtXtXtXtXtXtXtXtXtXtXtXtXtXtXtXtXtXtXtXtXtXtX",
"tXtXtXtXtXtXtXtXtXtXtXtXtXtXtXtXtXtX< tXtXtXtXz.C.W.B.tXtXy.$ tXtX/.f.Q.$X%X#XZ.tXtXtXtXtXtXtXtXtXtXtXtXtXtXtXtXtXtXtXtXtXtXtXtX",
"tXtXtXtXtXtXtXtXtXtXtXtXtXtXtX=X=X=XS s.M.k.tXtXtXtXtXtXtXy.$ m.D.!.9.9.i.x.H.#XtXtXtXtXtXtXtXtXtXtXtXtXtXtXtXtXtXtXtXtXtXtXtXtX",
"tXtXtXtXtXtXtXtXtXtXtXtXtXtXtXtXb X v b 0.:XXXn.tXtXtXtXtXy.$ Z.G.A F d.<.<.<.#XtXtXtXtXtXtXtXtXtXtXtXtXtXtXtXtXtXtXtXtXtXtXtXtX",
"tXtXtXtXtXtXtXtXtXtXtXtXtXtXtX# @ v V , , 0.:X*X6.tXtXtXtXy.$ G.C.S 8.3.3.L.J.&XtXtXtXtXtXtXtXtXtXtXtXtXtXtXtXtXtXtXtXtXtXtXtXtX",
"tXtXtXtXtXtXtXtXtXtXtXtXtXtX  n m F L j w.n 6.*XwXG.tXtXtXZ.I R.u.<.K.o.4.P.L.D.k.tXtXtXtXtXtXtXtXtXtXtXtXtXtXtXtXtXtXtXtXtXtXtX",
"tXtXtXtXtXtXtXtXtXtXtXtXtXw % t F K H q.w.> k 8.qX&Xg.tXtXW.9.I.u.:.3.O.4.P.L.W.k.tXtXtXtXtXtXtXtXtXtXtXtXtXtXtXtXtXtXtXtXtXtXtX",
"tXtXtXtXtXtXtXtXtXtXtXtX. w 2 x w.G 5 x C j w 5 7.&X#.tXtXt.# ~.Q.>.K.( X.2.:.!.tXtXtXtXtXtXtXtXtXtXtXtXtXtXtXtXtXtXtXtXtXtXtXtX",
"tXtXtXtXtXtXtXtXtXtXtXtX# Z q A _.B l y.V G > x n d.V.#.tXy.$ C./.$.K.( X.`.1.$XtXtXtXtXtXtXtXtXtXtXtXtXtXtXtXtXtXtXtXtXtXtXtXtX",
"tXtXtXtXtXtXtXtXtXtXo % j 9 5 A j 5 H w.1 r.Z _.q.6 4XQ.h y.% D.C.8.x.H.W 4.3.!.tXtXtXtXtXtXtXtXtXtXtXtXtXtXtXtXtXtXtXtXtXtXtXtX",
"tXtXtXtXtXtXtXtXtXtX. X z w 8 2 j 5 c H ; w.H _.Z % ~.0X~.*.$ D.8.^ u.) '.Y.;.!.tXtXtXtXtXtXtXtXtXtXtXtXtXtXtXtXtXtXtXtXtXtXtXtX",
"tXtXtXtXtXtXtXtXtXtXtX  v rX~ 4 tXtXo 1 1 8 t.j 0 A 6 L.9X( (.B.8.) %.4.&.&.<.D.tXtXtXtXtXtXtXtXtXtXtXtXtXtXtXtXtXtXtXtXtXtXtXtX",
"tXtXtXtXtXtXtXtXtXtXtXtX+ ..| tXtXtX2 o o - r.w R.t.F ! ^.@.y T.;.{.4.>.;.~.4X/.tXtXtXtXtXtXtXtXtXtXtXtXtXtXtXtXtXtXtXtXtXtXtXtX",
"tXtXtXtXtXtXtXtXtXtXtXtX . .| tXtXtXo o O n H 9 R.R._.6 U.Y a.%.4.H.H.>.{ 4X/.W.tXtXtXtXtXtXtXtXtXtXtXtXtXtXtXtXtXtXtXtXtXtXtXtX",
"tXtXtXtXtXtXtXtXtXtXtXtX|  . .' tXtXtXo O i.w.Z r.w.V < 8.9.) 4.{ <.,.%.T.9X4XtXtXtXtXtXtXtXtXtXtXtXtXtXtXtXtXtXtXtXtXtXtXtXtXtX",
"tXtXtXtXtXtXtXtXtXtXtXtX . .}  .R tXtXo o w.p._.m A j @ . o i.( / L.L.>.9X/.E.tXtXtXtXtXtXtXtXtXtX#.a.tXtXm.tXtXtXtXtXtXtXtXtXtX",
"tXtXtXtXtXtXtXtXtXtXtXtX .` R | | s = @ 5 r.M w B j 0 < & o A x.l.l.l.i.8.. . . tXtXtXtXtXtXtX] :.^.3X^.^.=.=.tXtXtXtXtXtXtXtXtX",
"tXtXtXtXtXtXtXtXtXtXtXtX .tXR ..| _ R < x C % 8 V B G 6 X 7 w.c.Q.-.l.V o . . . o tXtXtXtXtXa.:.P.~.[.6X9X$Xc.tXtXtXtXtXtXtXtXtX",
"tXtXtXtXtXtXtXtXtXtXtXtXtXtXtX,XeX' ` % q : x x x r._  .M >X/.7X&X=.Z * & * t . o o 7 < 7 tXT [.[.5X[.6X9X7X7Xg.tXtXtXtXtXtXtXtX",
"tXtXtXtXtXtXtXtXtXtXtXtXtXtXu  . .'  . . .R E W | |  . .0X8X7X&Xh.).I P P I I Z < - 6 2 v w { Y.*.@.^.9X7X7X7X#Xa.tXtXtXtXtXtXtX",
"tXtXtXtXtXtXtXtXtXtXtXtXtXtXT  . .`  .) i. . . ._.,X .W 0X8X$XF.f.).eXeXI eXI >X> 6 w m 8 q ) [ i tXQ E.9X7X7X*Xs.s.tXtXtXtXtXtX",
"tXtXtXtXtXtXtXtXtXtXtXtXtXtXtX .tXtX .} W  . . . . .u.q.8X8X7XS.p.P I P t ].;.! > n t.j < > > : tXtXtXtX@.wX7XwXXXv.tXtXtXtXtXtX",
"tXtXtXtXtXtXtXtXtXtXtXtXtXtXtXtXtX . .W p R  .` ~  .A A <X8X7XQ.f.w.l j C C a  .{ ) t.# 1 n j 1 tXtXtXtXtX7X*XwX*X}.tXtXtXtXtXtX",
"tXtXtXtXtXtXtXtXtXtXtXtXtXtXtXtXtX . .u o f  .Y ~  .n 8 2X0X9X#Xb.qX0Xw 7 w p rX . . . .| }  .T tXtXtXtXtX.XwX:X:X+X|.tXtXtXtXtX",
"tXtXtXtXtXtXtXtXtXtXtXtXtXtXtXtXtXtX3 3 + g  .~ ( ( r.: (.<X/.!.A.0X_.Z ; w a )  . .$.>X . . .w.u tXtXtXtXn.XX:X:X:X|.tXtXtXtXtX",
"tXtXtXtXtXtXtXtXtXtXtXtXtXtXtXw v K G x 8 < 5 c w.A A V M C ].@XF.n K _.J B a  . . . .[  . . .R s tXtXtXtXtXtX+X=X-XOXtXtXtXtXtX",
"tXtXtXtXtXtXtXtXtXtXtXtXtXtXtXN G r.J z 8 < j J r.c z N t q >X#X.X_.(.z e < y  .U ]  . . . . ._ s tXtXtXtXtXtX+X-X:XOXtXtXtXtXtX",
"tXtXtXtXtXtXtXtXtXtXtXtXtXtXtXA x tXtXtXtX2 l B 1 tXtXtXq 7 e *X&Xw.V x 5 8 6  .9 9  . .d Y  .3 Y tXtXtXtXtXtXtX=X=X=XtXtXtXtXtX",
"tXtXtXtXtXtXtXtXtXtXtXtXtXtXtXZ H tXtXtXtX9 l 5 tXtXtXtXtXtXtX7XwX/.V.tXtXtX< U 6 w  . .5 @  .t g tXtXtXtXtXtXtXtXoXa.tXtXtXtXtX",
"tXtXtXtXtXtXtXtXtXtXtXtXtXtXtXy.A tXtXtXtXj j 1 tXtXtXtXtXtXtXwXwXZ.tXtXtXtXtX< 5 ;  . .1 %  .r d tXtXtXtXtXtXtXtXtXU tXtXtXtXtX",
"tXtXtXtXtXtXtXtXtXtXtXtXtXtX. (.n tXtXtX< Z 1 tXtXtXtXtXtXtX|.+X XD.tXtXtXtXtX2 w @ w G w <  .tXtXtXtXtXtXtXtXtXtXtXtXtXtXtXtXtX",
"tXtXtXtXtXtXtXtXtXtXtXtXtXtX. & X tXtX+ N y.2 tXtXtXtXtXtX X+X+X Xz.tXtXtXtXtX8 8 @ - n y.w w tXtXtXtXtXtXtXtXtXtXtXtXtXtXtXtXtX",
"tXtXtXtXtXtXtXtXtXtXtXtXtX  * r tXtXtXz r.w tXtXtXtXtXtXtXtXtXtXtXtXtXtXtXtXtXV 9 < tXtXj N t.w @ tXtXtXtXtXtXtXtXtXtXtXtXtXtXtX",
"tXtXtXtXtXtXtXtXtXtXtXtXtXX t & tXtXtXN r.w tXtXtXtXtXtXtXtXtXtXtXtXtXtXtXtX2 Z < % tXtX7 n y.n < tXtXtXtXtXtXtXtXtXtXtXtXtXtXtX",
"tXtXtXtXtXtXtXtXtXtXtXtXtXtXtXtXtXtXtX_.x tXtXtXtXtXtXtXtXtXtXtXtXtXtX5 w n A q tXtXtXtXtXtXZ @ tXtXtXtXtXtXtXtXtXtXtXtXtXtXtXtX",
"tXtXtXtXtXtXtXtXtXtXtXtXtXtXtXtXtXtXw j : tXtXtXtXtXtXtXtXtXtXtXtXC >X(.Z 1 tXtXtXtXtXtXtXtXn tXtXtXtXtXtXtXtXtXtXtXtXtXtXtXtXtX",
"tXtXtXtXtXtXtXtXtXtXtXtXtXtXtXtXtX# G 1 tXtXtXtXtXtXtXtXtXtXtX* & t C % : tXtXtXtXtXtXtXtX8 9 tXtXtXtXtXtXtXtXtXtXtXtXtXtXtXtXtX",
"tXtXtXtXtXtXtXtXtXtXtXtXtXtX. X r * z tXtXtXtXtXtXtXtXtXtXtXtXX r & . tXtXtXtXtXtXtXtXtX2 x 5 tXtXtXtXtXtXtXtXtXtXtXtXtXtXtXtXtX",
"tXtXtXtXtXtXtXtXtXtXtXtXtXtX. * r X tXtXtXtXtXtXtXtXtXtXtXtXtX& & X tXtXtXtXtXtXtXtXtXtXq r.1 tXtXtXtXtXtXtXtXtXtXtXtXtXtXtXtXtX",
"tXtXtXtXtXtXtXtXtXtXtXtXtXtXtXtXX tXtXtXtXtXtXtXtXtXtXtXtXtXtXtXtXtXtXtXtXtXtXtXtXtXtXtXv * . tXtXtXtXtXtXtXtXtXtXtXtXtXtXtXtXtX",
"tXtXtXtXtXtXtXtXtXtXtXtXtXtXtXtXtXtXtXtXtXtXtXtXtXtXtXtXtXtXtXtXtXtXtXtXtXtXtXtXtXtXtXr r X tXtXtXtXtXtXtXtXtXtXtXtXtXtXtXtXtXtX",
"tXtXtXtXtXtXtXtXtXtXtXtXtXtXtXtXtXtXtXtXtXtXtXtXtXtXtXtXtXtXtXtXtXtXtXtXtXtXtXtXtXtX& X * . tXtXtXtXtXtXtXtXtXtXtXtXtXtXtXtXtXtX",
"tXtXtXtXtXtXtXtXtXtXtXtXtXtXtXtXtXtXtXtXtXtXtXtXtXtXtXtXtXtXtXtXtXtXtXtXtXtXtXtXtXtX. & X X tXtXtXtXtXtXtXtXtXtXtXtXtXtXtXtXtXtX",
"tXtXtXtXtXtXtXtXtXtXtXtXtXtXtXtXtXtXtXtXtXtXtXtXtXtXtXtXtXtXtXtXtXtXtXtXtXtXtXtXtXtXtXtXtXtXtXtXtXtXtXtXtXtXtXtXtXtXtXtXtXtXtXtX",
"tXtXtXtXtXtXtXtXtXtXtXtXtXtXtXtXtXtXtXtXtXtXtXtXtXtXtXtXtXtXtXtXtXtXtXtXtXtXtXtXtXtXtXtXtXtXtXtXtXtXtXtXtXtXtXtXtXtXtXtXtXtXtXtX",
"tXtXtXtXtXtXtXtXtXtXtXtXtXtXtXtXtXtXtXtXtXtXtXtXtXtXtXtXtXtXtXtXtXtXtXtXtXtXtXtXtXtXtXtXtXtXtXtXtXtXtXtXtXtXtXtXtXtXtXtXtXtXtXtX"
};
