/* XPM */
static char *player_down_1[] = {
/* columns rows colors chars-per-pixel */
"64 64 200 2 ",
"   c black",
".  c #080800",
"X  c #070008",
"o  c gray3",
"O  c #100000",
"+  c #180000",
"@  c #100800",
"#  c #180800",
"$  c #140808",
"%  c #181000",
"&  c #101008",
"*  c #181008",
"=  c #0D0810",
"-  c #111010",
";  c #171619",
":  c #210000",
">  c #290501",
",  c #210800",
"<  c #210808",
"1  c #350301",
"2  c #211000",
"3  c #291000",
"4  c #211008",
"5  c #291008",
"6  c #211808",
"7  c #291808",
"8  c #351006",
"9  c #311800",
"0  c #311808",
"q  c #3B1808",
"w  c #221010",
"e  c #281810",
"r  c #311810",
"t  c #3B1810",
"y  c #321F18",
"u  c #3D2208",
"i  c #312110",
"p  c #392110",
"a  c #392910",
"s  c #392918",
"d  c #252324",
"f  c #382D2A",
"g  c #420400",
"h  c #520000",
"j  c #520B00",
"k  c #520E08",
"l  c #6B0000",
"z  c #6B0B00",
"x  c #6A0E09",
"c  c #671C09",
"v  c #422110",
"b  c #422A10",
"n  c #422918",
"m  c #4A2918",
"M  c #5A2719",
"N  c #4A311B",
"B  c #523118",
"V  c #5E3118",
"C  c #642C0C",
"Z  c #523122",
"A  c #5F3121",
"S  c #583921",
"D  c #5C3E29",
"F  c #633921",
"G  c #713921",
"H  c #7A4211",
"J  c #604421",
"K  c #6F4421",
"L  c #6B4429",
"P  c #7A4A29",
"I  c #694831",
"U  c #6B4C39",
"Y  c #514C51",
"T  c #7D5E4D",
"R  c #8C0E08",
"E  c #AD0000",
"W  c #8E2100",
"Q  c #8C2308",
"!  c #8C2310",
"~  c #8B2B1A",
"^  c #B52308",
"/  c #B62310",
"(  c #B72C1A",
")  c #C20000",
"_  c #CE0000",
"`  c #DD0D09",
"'  c #D61C0D",
"]  c #F70000",
"[  c red",
"{  c #F40D09",
"}  c #FF0808",
"|  c #DA2A00",
" . c #D62D0C",
".. c #CE3D06",
"X. c #DC2A1B",
"o. c #EB220C",
"O. c #FD210F",
"+. c #FD2D0D",
"@. c #EB3D03",
"#. c #FF3E03",
"$. c #F4291C",
"%. c #FF2D18",
"&. c #E33E18",
"*. c #F33E19",
"=. c #FF2521",
"-. c #FF2E2C",
";. c #FF3121",
":. c #FF3D21",
">. c #FF3D31",
",. c #FF3E39",
"<. c #A34408",
"1. c #B94407",
"2. c #A2451D",
"3. c #B9481D",
"4. c #A86910",
"5. c #814921",
"6. c #8F4E2D",
"7. c #815929",
"8. c #805131",
"9. c #935D30",
"0. c #945F39",
"q. c #AE4C2C",
"w. c #B5602E",
"e. c #B16539",
"r. c #D05007",
"t. c #DE5A08",
"y. c #CE421C",
"u. c #CE561D",
"i. c #E84E03",
"p. c #FF4E04",
"a. c #E75A00",
"s. c #E75A08",
"d. c #FB5A04",
"f. c #FD4A13",
"g. c #E75710",
"h. c #E8521D",
"j. c #FE5614",
"k. c #E76406",
"l. c #F36305",
"z. c #F66E05",
"x. c #E76310",
"c. c #E76F10",
"v. c #EF6B10",
"b. c #E76319",
"n. c #EF6318",
"m. c #E76C1D",
"M. c #EF6B18",
"N. c #F26310",
"B. c #FD671D",
"V. c #EF731F",
"C. c #F97210",
"Z. c #F9731D",
"A. c #DA502B",
"S. c #F44F2B",
"D. c #FF4A2C",
"F. c #FD5021",
"G. c #FF5529",
"H. c #EC503E",
"J. c #FF5731",
"K. c #FF5239",
"L. c #DB6B2D",
"P. c #C57D3C",
"I. c #EF6A21",
"U. c #EF6F2B",
"Y. c #FC732D",
"T. c None",
"R. c #E36E39",
"E. c #FF6B39",
"W. c #EC7E37",
"Q. c #F77F36",
"!. c #A96A42",
"~. c #FF4D42",
"^. c #FF534F",
"/. c #FF6C45",
"(. c #FF6B58",
"). c #DD8306",
"_. c #FF8308",
"`. c #EC9A05",
"'. c #FF9D00",
"]. c #FF8418",
"[. c #EFB206",
"{. c #FFB412",
"}. c #FF8521",
"|. c #FF962E",
" X c #E58C3A",
".X c #FF8039",
"XX c #FF8C39",
"oX c #FF9739",
"OX c #FECA0A",
"+X c yellow",
"@X c #BA804E",
"#X c #CC9E50",
"$X c #E8874D",
"%X c #FF8C42",
"&X c #FF804D",
"*X c #FF9742",
"=X c #FF9F4F",
"-X c #FF9452",
";X c #FEC44E",
":X c #B99D84",
/* pixels */
"                                                                                                                                ",
"                                                                                                                                ",
"                                                                                                                                ",
"                                                                                7.+X                                            ",
"                                                                                J #X                                            ",
"                                                                                & 9.                                            ",
"                                                                                & 0.                                            ",
"                                                                                & 0.                                            ",
"                                                                                & 0.                                            ",
"                                                                                & 0.                                            ",
"                                                                        a.a.    & 0.                                            ",
"                                                          x.W.W.                & 0.                                            ",
"                                                          b.W.b.                & 0.                                            ",
"                                                    a.      r.~ <.              & 0.                                            ",
"                                                      k.x.g.:.D.:.3.s.].v.x.    & 0.                                            ",
"                                                      a.v.I.$.;.:.3.T.C.].v.    & 0.                                            ",
"                                                    a.|.|.oX*.o./ L.*X|.].v.    & 0.                                            ",
"                                                    }.T.XXoXF.-.'  XoXT.|.M.    & 0.                                            ",
"                                                  v.XXoXoXI.G.>.H. XQ.XXoXT.    & 0.                                            ",
"                                                  T.oXoXQ.:.*.(.K.R.V.W.oXXX    & 0.                                            ",
"                                                n.XXQ..XY. .` { %.q.3.U.U.w.oX  & 0.                                            ",
"                                                  .XE.F.D.>.=.$.~.:.F.S./.J.*Xx.& 0.                                            ",
"                                                  T..X:.D.~.>.,.(.;.F.&.D.F.XXv.& 0.                                            ",
"                                                M.y.&Xo.O.(.(.,.^.:.:.2.K.D.L.x.& 0.                                            ",
"                                                b.` K.*.O.,.(.~.-.D.:.2.*.~.w.V.& 0.                                            ",
"                                                o.} / s.../ D [.`.w R m.h.O.3.P.e.x.                                            ",
"                                                { [ 1.n.v.( T OXOXn c XXU.O.R j ( $X                                            ",
"                                                [ [   M.x.o.n [.).* 3.*X  m./ / q.2.                                            ",
"                                                [ _   M.I.X.s Z s < y.*X    %XU.y.g                                             ",
"                                                / ..  V.y.n S L S * * =XV.      & 9.                                            ",
"                                               .$.&.t.^ ' M @X0.8.B 7 4.2.M.    * 0.                                            ",
"                                              +.o.*...o.+.C 9.0.I p 9 j 8 2.M.  & 0.                                            ",
"                                                x.r.#.F.F.Q u s e 7 k z h j t.V.& 0.                                            ",
"                                                r.| f.Y.F.x 0 0.J 4 g ! x x H M.r.0.                                            ",
"                                                @.j.B.f.@.0 # P S @ O R / W x c .XM.                                            ",
"                                              s.N.T.B.@.x :Xa S m $ X j ( ( W k W.T.                                            ",
"                                            x.t.=X*Xp.$ y U 6 P K h : , j / y.W T.Q.                                            ",
"                                            x.i.;XT.# * 0 O @ 8.A O h % $ x J.h.u.Q.                                            ",
"                                            g.G.Z.N.4 2 l 5 V P V 2 l O # v &.h.u.Q.                                            ",
"                                          x.b.j.:X0.0 _ _ K S F F m R O O 0 ..@.u.-Xx.                                          ",
"                                          x.I.j.e.! N ] E N N U L Z R O + 3 f.F.A.-Xs.                                          ",
"                                            n.Y.:X5.5.@ , w e 4 e e v : O q @.j.Y.Q.                                            ",
"                                            t.l.8.~ ) # # 6 * O X $ 4 : @ 3 d.d.b.V.                                            ",
"                                              z.2.~ ! * @ 5 p * O s 4 l 1 W a.z.M.M.                                            ",
"                                              x.3.6.k r 7 # # # # # , R h O c.C.I.                                              ",
"                                              ].u.L.  + O O O @ O O O > O   Q.}.T.s.                                            ",
"                                            '.{.oXXX  m 8.v p 7 r v v 0 @   m.T.`.`.).                                          ",
"                                          '.'._.-XI.  7 G # #     @ 5 n @     W.T.{.`.).                                        ",
"                                          '.          B b , @     , q q                                                         ",
"                                                      J v , @     # 0 5                                                         ",
"                                                      L n # @     4 v i                                                         ",
"                                                      ; m 4 @     4 J m                                                         ",
"                                                      f Y t #     p @XN                                                         ",
"                                                      o & . =     N 8.f X                                                       ",
"                                                        X o o     0 S d X                                                       ",
"                                                        X = X     # 7.=                                                         ",
"                                                          X X       v                                                           ",
"                                                                  5 !.@                                                         ",
"                                                                  3 F @                                                         ",
"                                                                  - f                                                           ",
"                                                                  o -                                                           ",
"                                                                                                                                ",
"                                                                                                                                ",
"                                                                                                                                "
};
