/* XPM */
static char *player_up_7[] = {
/* columns rows colors chars-per-pixel */
"64 64 204 2 ",
"   c black",
".  c #080800",
"X  c #070008",
"o  c gray3",
"O  c #100000",
"+  c #100800",
"@  c #180800",
"#  c #140808",
"$  c #181000",
"%  c #101008",
"&  c #181008",
"*  c #0D0810",
"=  c #111010",
"-  c #210800",
";  c #211000",
":  c #211008",
">  c #291008",
",  c #211808",
"<  c #291808",
"1  c #311808",
"2  c #3B1808",
"3  c #221010",
"4  c #281810",
"5  c #311810",
"6  c #321F18",
"7  c #3D2208",
"8  c #312110",
"9  c #392110",
"0  c #392918",
"q  c #252324",
"w  c #382D2A",
"e  c #420400",
"r  c #520000",
"t  c #4D1F0D",
"y  c #6B0000",
"u  c #6A0E09",
"i  c #7F0000",
"p  c #671C09",
"a  c #422110",
"s  c #422A10",
"d  c #4A2918",
"f  c #5A2719",
"g  c #4A311B",
"h  c #523118",
"j  c #5E3118",
"k  c #642C0C",
"l  c #523122",
"z  c #583921",
"x  c #5C3E29",
"c  c #633921",
"v  c #713921",
"b  c #7A4211",
"n  c #604421",
"m  c #6F4421",
"M  c #6B4429",
"N  c #764129",
"B  c #7A4A29",
"V  c #694831",
"C  c #6B4C39",
"Z  c #514C51",
"A  c #7D5E4D",
"S  c #8B0B00",
"D  c #8C0E08",
"F  c #AD0000",
"G  c #B40E00",
"H  c #B60D08",
"J  c #8E2100",
"K  c #8C2308",
"L  c #8C2310",
"P  c #8B2B1A",
"I  c #B62800",
"U  c #B52308",
"Y  c #B62310",
"T  c #B72C1A",
"R  c #C20000",
"E  c #CE0000",
"W  c #DA0C00",
"Q  c #DD0D09",
"!  c #D61C0D",
"~  c #EB0000",
"^  c red",
"/  c #F40D09",
"(  c #FF100C",
")  c #FD180E",
"_  c #FF1D18",
"`  c #DA2A00",
"'  c #D62D0C",
"]  c #CE3D06",
"[  c #DC2A1B",
"{  c #EB220C",
"}  c #FD210F",
"|  c #FD2D0D",
" . c #EB3D03",
".. c #F4291C",
"X. c #FF2D18",
"o. c #E33E18",
"O. c #FF3D15",
"+. c #F33E19",
"@. c #FF2521",
"#. c #FF2E2C",
"$. c #FF3121",
"%. c #FF3D21",
"&. c #FF3E29",
"*. c #FF3D31",
"=. c #FF3E39",
"-. c #A34408",
";. c #B94407",
":. c #A2451D",
">. c #B9481D",
",. c #8F4E2D",
"<. c #815929",
"1. c #805131",
"2. c #935D30",
"3. c None",
"4. c #AE4C2C",
"5. c #B5602E",
"6. c #B16539",
"7. c #D05007",
"8. c #DE5A08",
"9. c #CE421C",
"0. c #CE561D",
"q. c #E84E03",
"w. c #FF4E04",
"e. c #E75A00",
"r. c #E75A08",
"t. c #FB5A04",
"y. c #FD4A13",
"u. c #E75710",
"i. c #E8521D",
"p. c #FE5614",
"a. c #D66911",
"s. c #E76406",
"d. c #F66E05",
"f. c #E76310",
"g. c #E76F10",
"h. c #EF6B10",
"j. c #EF6318",
"k. c #E76C1D",
"l. c #EF6B18",
"z. c #F26310",
"x. c #FD671D",
"c. c #EF731F",
"v. c #F97210",
"b. c #F9731D",
"n. c #DA502B",
"m. c #F44F2B",
"M. c #FF4A2C",
"N. c #FD5021",
"B. c #FF5529",
"V. c #EC503E",
"C. c #FF5731",
"Z. c #FF5239",
"A. c #DB6B2D",
"S. c #C57D3C",
"D. c #EF6A21",
"F. c #EF6F2B",
"G. c #FC732D",
"H. c #F77C29",
"J. c #FE6731",
"K. c #FF6B39",
"L. c #EC7E37",
"P. c #F77F36",
"I. c #9C6F59",
"U. c #A96A42",
"Y. c #FF4D42",
"T. c #FF534F",
"R. c #E36F45",
"E. c #FF6C45",
"W. c #FF6B58",
"Q. c #DD8306",
"!. c #F7800D",
"~. c #FF8308",
"^. c #EC9A05",
"/. c #FF9D00",
"(. c #FF8418",
"). c #FF9C14",
"_. c #FFB400",
"`. c #FFB412",
"'. c #FF8521",
"]. c #FF962E",
"[. c #E58C3A",
"{. c #FF8039",
"}. c #FF8C39",
"|. c #FF9739",
" X c #FEAC38",
".X c #FECA0A",
"XX c #FFDD11",
"oX c yellow",
"OX c #FFD435",
"+X c #DB944F",
"@X c #CC9E50",
"#X c #E8874D",
"$X c #FF8142",
"%X c #FF8C42",
"&X c #FF804D",
"*X c #FF8C4C",
"=X c #FF9742",
"-X c #FF9F4F",
";X c #F48C5E",
":X c #FF9452",
">X c #EEA062",
",X c #F2BE64",
"<X c #FEC44E",
"1X c #B99D84",
/* pixels */
"                                                                                                                                ",
"                                                                                                                                ",
"                                                                                                                                ",
"                                              <.oX                                                                              ",
"                                              n @X                                                                              ",
"                                            <.% 2.                                                                              ",
"                                              % 3.                                                                              ",
"                                              % 3.                                                                              ",
"                                              % 3.                                                                              ",
"                                              % 3.                                                                              ",
"                                              % 3.                                                                              ",
"                                              % 3.          D.u.                                                                ",
"                                              % 3.        D.k.                                                                  ",
"                                              % 3.  s.    u.                                                                    ",
"                                              % 3.  h.v.v.h.7.F D ;.f.                                                          ",
"                                              % 3.  ].!.f.  ! / ! u 0.                                                          ",
"                                              % 3.!.).    8./ T.*.{ A.                                                          ",
"                                              % 3.(.'.    h.{ T.Y.! c.g.e.                                                      ",
"                                              % 3.h.].].!.   .#.@.>.h.(.'.'.                                                    ",
"                                              % 3.g.].|.].e.8.Y.*.>.g.b.'.].                                                    ",
"                                              % 3.c.H.H.l.b.b.~ _ Q W T H.}.H.                                                  ",
"                                              % 3.|.%.$.X.B.B.' y.@.( +.o.0.H.                                                  ",
"                                              % 3.|.&.%.} $.K.' X.$.( +.B.9.{.                                                  ",
"                                              % 3.z.T.$.%.*.T.E ..#.Y.X.M.i.}.                                                  ",
"                                              6 0.D.X.X.*.W.T.W @.*.*._ M.m.P.                                                  ",
"                                            r.4.0.N.Y.[ } W.W...$.Y.=.( W.=.>.H.                                                ",
"                                            j.C.A.m.T.D.$.E.;X#.&.T.*.Q Z.;XY 5.                                                ",
"                                            G E.9.[ C.{.{.Z.;XC.E.Z.X.H.P.%...L                                                 ",
"                                              5.+.Z.o.{.=XM.W.C.E.Z.X.L.j.G.$.T r.                                              ",
"                                              & [.:X-X%X-XM.W.&X&XC.%.L.  r.$XV.j.                                              ",
"                                              # 2.F.H.-X-XJ.W.E.E.K.m.5.c.l.m.J.I                                               ",
"                                              % 3.f.P.-X<X<X*X;X;XE.R.4.:.c.j.+.i.                                              ",
"                                              # S.P.Y  X<XOX,X;X;X;X&XJ.:.K P.c.                                                ",
"                                              >.}.0.W (.XXOX<X*X&X:X&XM.] K 4.=X                                                ",
"                                            H.:Xi.+.X.+.{ ~..X+X+XN.%. .O. .U :.}.                                              ",
"                                            {.#Xi.%.| +.9.b v A A N ,.n.y.y.U -.*Xl.                                            ",
"                                            P.B K.J.N.O = * # # + X * o >.N.q.-.:XF.                                            ",
"                                            %X*X:X$X6.. & $ 4 0 4 & + & X 6.P.F.:X:X                                            ",
"                                            :X{.:X{.6.@ : : 8 g l & & + X U.$X$X#X:X                                            ",
"                                            -X$X>XP.N d g 9 l B l 0 1 5 + ,.F.K.>.f.                                            ",
"                                            *X%X,XP.j ; @ > 5 K e - @ + + v G.$X>.l.                                            ",
"                                            %X}.@XI.+ 2 7 B c | D 1 9 + X & x S.A.{.                                            ",
"                                            {.|.S.H y p L U.,.N.U h j r r e 2 [.L.*X                                            ",
"                                            {. X:./ ! ^ ^ c 9.x.` k h ^ ~ 6.e g %X:X                                            ",
"                                            }.<XR ! 6.^ ^ 3.` B.' p l ^ / 1X2 1 }.:X                                            ",
"                                          Q. X<X~ ^ ^ ^ ) 4. .}.w.p j ^ ^ ^ r e ].L.                                            ",
"                                        /./. X<X/ C y L ,.,. .'.p.p C f ^ e w p ].].Q.Q.                                        ",
"                                            *XL.Q Z i P 3.,. .v.p.K 1.N ^ r w e L.l.                                            ",
"                                              Z T   ^ f P ,.w.!.v.J V :.^ i w 3 0.                                              ",
"                                                v   F f v v t.].(.I z v ~ S   6                                                 ",
"                                                    & B z k d.,X`.;.t < + +                                                     ",
"                                                    @ c c K ~.OX`.7.k 8 + +                                                     ",
"                                                      M 1.d.~.`._.7.k B &                                                       ",
"                                                      V C a./..X.Xa.k m +                                                       ",
"                                                      9 a a./.XX.Xa., M O                                                       ",
"                                                      > >   Q.).^.7 = d +                                                       ",
"                                                      : :   ^.i.-.X X s +                                                       ",
"                                                      : :             g +                                                       ",
"                                                      o o             M &                                                       ",
"                                                      = q o           4 +                                                       ",
"                                                      o o X           q =                                                       ",
"                                                                                                                                ",
"                                                                                                                                ",
"                                                                                                                                "
};
