/* XPM */
static char *player_right_4[] = {
/* columns rows colors chars-per-pixel */
"64 64 218 2 ",
"   c black",
".  c #080800",
"X  c #070008",
"o  c gray3",
"O  c #100000",
"+  c #180000",
"@  c #100800",
"#  c #180800",
"$  c #140808",
"%  c #101008",
"&  c #181008",
"*  c #111010",
"=  c #171619",
"-  c #210000",
";  c #210800",
":  c #210808",
">  c #211000",
",  c #291000",
"<  c #281900",
"1  c #211008",
"2  c #291008",
"3  c #291808",
"4  c #351006",
"5  c #311800",
"6  c None",
"7  c #3B1808",
"8  c #281810",
"9  c #311810",
"0  c #3B1810",
"q  c #3D2208",
"w  c #312110",
"e  c #392110",
"r  c #392918",
"t  c #252324",
"y  c #382D2A",
"u  c #420400",
"i  c #520000",
"p  c #520B00",
"a  c #520E08",
"s  c #4D1F0D",
"d  c #6B0000",
"f  c #6B0B00",
"g  c #6A0E09",
"h  c #7F0000",
"j  c #671C09",
"k  c #422110",
"l  c #422A10",
"z  c #4A2118",
"x  c #422918",
"c  c #4A2918",
"v  c #5A2719",
"b  c #4A311B",
"n  c #5C3C14",
"m  c #523118",
"M  c #5E3118",
"N  c #4A2921",
"B  c #523122",
"V  c #5F3121",
"C  c #583921",
"Z  c #5C3E29",
"A  c #633921",
"S  c #713921",
"D  c #7A4211",
"F  c #604421",
"G  c #6F4421",
"H  c #6B4429",
"J  c #764129",
"K  c #7A4A29",
"L  c #694831",
"P  c #6B4C39",
"I  c #514C51",
"U  c #7D5E4D",
"Y  c #8B0B00",
"T  c #8C0E08",
"R  c #940000",
"E  c #AD0000",
"W  c #B40E00",
"Q  c #B60D08",
"!  c #8E2100",
"~  c #8C2308",
"^  c #8C2310",
"/  c #8B2B1A",
"(  c #B52308",
")  c #B62310",
"_  c #B72C1A",
"`  c #C20000",
"'  c #CE0000",
"]  c #DA0000",
"[  c #DA0C00",
"{  c #DD0D09",
"}  c #D61C0D",
"|  c #EB0000",
" . c #F70000",
".. c #FF0000",
"X. c #F40D09",
"o. c #FF0808",
"O. c #FF100C",
"+. c #FD180E",
"@. c #FF1D18",
"#. c #D62D0C",
"$. c #CE3D06",
"%. c #DC2A1B",
"&. c #EB220C",
"*. c #FD210F",
"=. c #FD2D0D",
"-. c #EB3D03",
";. c #FF3E03",
":. c #F4291C",
">. c #FF2D18",
",. c #E33E18",
"<. c #FF3D15",
"1. c #F33E19",
"2. c #FF2521",
"3. c #FF2E2C",
"4. c #FF3D21",
"5. c #FF3D31",
"6. c #FF3E39",
"7. c #A34408",
"8. c #B94407",
"9. c #A2451D",
"0. c #B9481D",
"q. c #A86910",
"w. c #814921",
"e. c #8F4E2D",
"r. c #815929",
"t. c #805131",
"y. c #935D30",
"u. c #945F39",
"i. c #AE4C2C",
"p. c #B5602E",
"a. c #B16539",
"s. c #D05007",
"d. c #DE5A08",
"f. c #CE421C",
"g. c #CE561D",
"h. c #E84E03",
"j. c #FF4E04",
"k. c #E75A00",
"l. c #E75A08",
"z. c #FD4A13",
"x. c #E75710",
"c. c #E8521D",
"v. c #FE5614",
"b. c #E76406",
"n. c #F36305",
"m. c #F66E05",
"M. c #E76310",
"N. c #E76F10",
"B. c #EF6B10",
"V. c #E76319",
"C. c #EF6318",
"Z. c #E76C1D",
"A. c #EF6B18",
"S. c #F26310",
"D. c #FD671D",
"F. c #EF731F",
"G. c #F97210",
"H. c #F9731D",
"J. c #DA502B",
"K. c #F44F2B",
"L. c #FF4A2C",
"P. c #FD5021",
"I. c #FF5529",
"U. c #EC503E",
"Y. c #FF5731",
"T. c #FF5239",
"R. c #DB6B2D",
"E. c #C57D3C",
"W. c #EF6A21",
"Q. c #EF6F2B",
"!. c #FC732D",
"~. c #F77C29",
"^. c #FE6731",
"/. c #FF6B39",
"(. c #F77F36",
"). c #99664A",
"_. c #9C6F59",
"`. c #A96A42",
"'. c #FF4D42",
"]. c #FF534F",
"[. c #E36F45",
"{. c #FF6C45",
"}. c #FF6B58",
"|. c #FF8308",
" X c #EC9A05",
".X c #FF9D00",
"XX c #FF8418",
"oX c #FF9C14",
"OX c #EFB206",
"+X c #FFB400",
"@X c #FFB412",
"#X c #FF8521",
"$X c #FF962E",
"%X c #FF8039",
"&X c #FF8C39",
"*X c #FF9739",
"=X c #FEAC38",
"-X c #FECA0A",
";X c #FFDD11",
":X c yellow",
">X c #FFD435",
",X c #BA804E",
"<X c #B98A68",
"1X c #DB944F",
"2X c #CC9E50",
"3X c #E8874D",
"4X c #FF8142",
"5X c #FF8C42",
"6X c #FF804D",
"7X c #FF8C4C",
"8X c #FF9F4F",
"9X c #F48C5E",
"0X c #FF9452",
"qX c #EEA062",
"wX c #F2BE64",
"eX c #FEC44E",
"rX c #B99D84",
"tX c #EAD2A3",
/* pixels */
"                                                                                                                                ",
"                                                                  r.:X                                                          ",
"                                                                  F 2X                                                          ",
"                                                                  % y.                                                          ",
"                                                                  % u.                                                          ",
"                                                                  % u.                                                          ",
"                                                                  % u.                                                          ",
"                                                                  % u.                                                          ",
"                                                                  % u.                                                          ",
"                                                                  % u.                                                          ",
"                                                                  % u.                                                          ",
"                                          M.W.Q.Z.                % u.                                                          ",
"                                          b.  x.V.                % u.                                                          ",
"                                          B.              l.      % u.                                                          ",
"                                          k.XXH.F.x.W ' ' s.M.    % u.                                                          ",
"                                            M.B.A.{ X.*. .~ d.    % u.                                                          ",
"                                                  o.P.5.2.E (     % u.                                                          ",
"                                                  =.^.4.6.{ T     % u.                                                          ",
"                                                M.$X~./.^.@.&.    % u.    V.M.x.                                                ",
"                                                A.$X&X%X!.g.(.    % u.    V.Q.Z.x.        1                                     ",
"                                                $XJ.c.p.0.0.~.F.M.% u.              l.N.d.D -X-X-X                              ",
"                                                $X1.1.1.f.G S H.A.% u.          m.oX>Xq.n b o n                                 ",
"                                                *XK.P.4.4.9.D Z.H.% u.        7.=X>Xq.< < C b # $                               ",
"                                              l.F.P.I.5.O.L.1.i.E.U A.      H.eX=X7.m e.k P G M m .                             ",
"                                              l.Q.P.I.5.+.4.>.i.U.0.Q.    h.*XwX9.l , e.w.J L G y & e                           ",
"                                                ~.>.3.o.) L.,.!.^.$ y.    $.*X8.6 e k Z c 6 H e.c 3 e X                         ",
"                                                %X2.'.o.) L.%.(.Z.% u.  $.C.f.m c , H C u.z V `.S w A $                         ",
"                                                ~.4.5.Q J.c.9.Z.F.& u.j !.5X7 w.`.A t.2 e.J 6 k S 6 0 k & O                     ",
"                                                ~.:.T.]._ i./ 9.F.% =.^.qX^.& A `.J e.: J v 6 k 3 9 e x o X                     ",
"                                                F.1.*.*.5.&._ 9.V.).) 0XP.7 S q k y.9 2 2 O     5 ^ tXb .                       ",
"                                                (.5X^.:.,.5.}.:.R.u #./.~ G y.E.e t.; O O 3        .X.@                         ",
"                                                Q.(.5X} ,.J.J.5.&.s.T Y.7 `.E.E.0 J m + O O        .....                        ",
"                                                  5X0XR.&.<.1.} 5._ 0.9.1 C e.t.A e.p.+ O       ] .... .                        ",
"                    M.    s.$.                    W.(.0X,.P.P.( ) p.O X # k S M `.a.e.O O     E ..| ....                        ",
"                  -.-././.4X/.>.[               X X X 9.p.z.z.z.c.S O * 1 q k V e N t.6 # - d  . .E ' ..                        ",
"                  v.%X0X7X{.^.I.>.s.          O X X X O C z.;.!.v.e.8 o 7 H V C 9 & Z c 1 E `  .X.E   ..                        ",
"                h.8X8X0X7X{.6X{.{.R   8 1 8 O O X y = * = A -.*X8X(.,XN ..` t.c c c > w & ' ] rX<X                              ",
"              s.$X8X8X8X0X/.#.=.T.} e b 3 7 ; 1 A U U I I U _.j.*X8X9XqX.... . .Q W E ......] ....i                             ",
"            d.d.=X8X8X0XW.!   p { _ w 9 M e 7 , ,XU rXU rXrX_.g.G.%X9XqXQ ..<X`.......p._ ..' ....R                             ",
"            b.oXeX8XeX#.        > , , 1 k y.m , ~ :.[.y I U I a.D.8X9X9Xw.i...........Q | ..    ..                              ",
"            |.=XeX=X8X          2 k m 2 $ y._ } ..s Z Z k z e.g.!.8X9X1XS S ..^ ' ..E a Q ....                                  ",
"           X@X>X>XeXXX          R ..|  .........tXa e 8 e qXwXn.$X0XqX3X9 m ..^ T ..g O i ....                                  ",
"           X>X>X>XoXm.        i e.......,X%....._ s e : A `.qXS.~.(.1X).> t.) ) ^ ..h @ 4 4                                     ",
"          +X;X-X@X            d E ......{ ........s V K `.L m G.#X[.Z N C S S e.v 6 1 9 c H L b e                               ",
"          +X>X;X@X            d ` ..........[ Y ..u 1 r x ).`.XX$X,Xw y B x v t.K k 1 9 x K t.H B                               ",
"          -X-X-X              T 4 ..T f ....0 0 ..7 9 6 c C e.*X=Xr 8 w       2 V z 3         c S                               ",
"          s.OX                h y ..# 6 ....e 7 Y 1       C.(.eX8X              6 z 0         J A                               ",
"          Y                   f t ..& 2 ....: 6 1           A.eXeX              2 k k         S u.                              ",
"                                  ..1 e H e # e 3           F..X@X X              2 A 1       m ).X                             ",
"                                  e e u.m ; # 9 9           x..X@X@X.X            3 u.B @     o * X                             ",
"                              # e y.B k     1 0 C                                   e t.x       t = .                           ",
"                              1 m u.m 8     & 1 A 3                                 e t.B       * y o                           ",
"                                # A             w S m e 6                             c `.                                      ",
"                                  m                 2 A ).,XZ                         > k e                                     ",
"                                  0 9                 > & Z y * =                       2 H $                                   ",
"                                  6 c 3                   X * t o                         x = t o X                             ",
"                                  2 t.w                     o * *                           o t = X                             ",
"                                  X = b                                                       o                                 ",
"                                    o t t                                                                                       ",
"                                    X = o *                                                                                     ",
"                                    o o * X                                                                                     ",
"                                                                                                                                ",
"                                                                                                                                ",
"                                                                                                                                "
};
