/* XPM */
static char *player_right_6[] = {
/* columns rows colors chars-per-pixel */
"64 64 211 2 ",
"   c black",
".  c #070008",
"X  c gray3",
"o  c #100000",
"O  c #180000",
"+  c #100800",
"@  c #180800",
"#  c #181000",
"$  c #101008",
"%  c #181008",
"&  c #0D0810",
"*  c #111010",
"=  c #171619",
"-  c #290501",
";  c #210800",
":  c #211000",
">  c #291000",
",  c #211008",
"<  c #291008",
"1  c #211808",
"2  c #291808",
"3  c #351006",
"4  c #311808",
"5  c #3B1808",
"6  c #281810",
"7  c #311810",
"8  c #3B1810",
"9  c #321F18",
"0  c #3D2208",
"q  c #312110",
"w  c #392110",
"e  c #392910",
"r  c #392918",
"t  c #252324",
"y  c #382D2A",
"u  c #520000",
"i  c #520B00",
"p  c #520E08",
"a  c #4D1F0D",
"s  c #6B0000",
"d  c #6B0B00",
"f  c #6A0E09",
"g  c #7F0000",
"h  c #671C09",
"j  c #4D2A0F",
"k  c #422110",
"l  c #4A2118",
"z  c None",
"x  c #4A2918",
"c  c #5A2719",
"v  c #4A311B",
"b  c #5C3C14",
"n  c #523118",
"m  c #5E3118",
"M  c #642C0C",
"N  c #4A2921",
"B  c #523122",
"V  c #5F3121",
"C  c #583921",
"Z  c #5C3E29",
"A  c #633921",
"S  c #713921",
"D  c #604421",
"F  c #6F4421",
"G  c #6B4429",
"H  c #764129",
"J  c #7A4A29",
"K  c #694831",
"L  c #6B4C39",
"P  c #514C51",
"I  c #7D5E4D",
"U  c #8B0B00",
"Y  c #8C0E08",
"T  c #940000",
"R  c #AD0000",
"E  c #B40E00",
"W  c #B60D08",
"Q  c #8E2100",
"!  c #8C2308",
"~  c #8C2310",
"^  c #8B2B1A",
"/  c #B62800",
"(  c #B52308",
")  c #B62310",
"_  c #B72C1A",
"`  c #C20000",
"'  c #CE0000",
"]  c #DA0C00",
"[  c #DD0D09",
"{  c #D61C0D",
"}  c #EB0000",
"|  c #F70000",
" . c red",
".. c #F40D09",
"X. c #FF0808",
"o. c #FF100C",
"O. c #FF1D18",
"+. c #D62D0C",
"@. c #CE3D06",
"#. c #DC2A1B",
"$. c #EB220C",
"%. c #FD210F",
"&. c #EB3D03",
"*. c #F4291C",
"=. c #FF2D18",
"-. c #E33E18",
";. c #FF3D15",
":. c #F33E19",
">. c #FF2521",
",. c #FF2E2C",
"<. c #FF3121",
"1. c #FF3D21",
"2. c #FF3D31",
"3. c #FF3E39",
"4. c #A2451D",
"5. c #B9481D",
"6. c #A86910",
"7. c #814921",
"8. c #8F4E2D",
"9. c #815929",
"0. c #805131",
"q. c #935D30",
"w. c #945F39",
"e. c #AE4C2C",
"r. c #B16539",
"t. c #D05007",
"y. c #DE5A08",
"u. c #CE421C",
"i. c #CE561D",
"p. c #E84E03",
"a. c #FF4E04",
"s. c #E75A00",
"d. c #E75A08",
"f. c #FD4A13",
"g. c #E75710",
"h. c #E8521D",
"j. c #FE5614",
"k. c #E76310",
"l. c #EF6B10",
"z. c #E76319",
"x. c #EF6318",
"c. c #E76C1D",
"v. c #EF6B18",
"b. c #F26310",
"n. c #FD671D",
"m. c #EF731F",
"M. c #F97210",
"N. c #F9731D",
"B. c #DA502B",
"V. c #F44F2B",
"C. c #FF4A2C",
"Z. c #FD5021",
"A. c #FF5529",
"S. c #EC503E",
"D. c #FF5731",
"F. c #FF5239",
"G. c #DB6B2D",
"H. c #C57D3C",
"J. c #EF6F2B",
"K. c #FC732D",
"L. c #F77C29",
"P. c #E36E39",
"I. c #FE6731",
"U. c #FF6B39",
"Y. c #EC7E37",
"T. c #F77F36",
"R. c #99664A",
"E. c #9C6F59",
"W. c #A96A42",
"Q. c #FF4D42",
"!. c #FF534F",
"~. c #FF6C45",
"^. c #FF6B58",
"/. c #DD8306",
"(. c #FF8308",
"). c #EC9A05",
"_. c #FF9D00",
"`. c #FF8418",
"'. c #FF9C14",
"]. c #FFB400",
"[. c #FFB412",
"{. c #FF8521",
"}. c #FF962E",
"|. c #FF8039",
" X c #FF8C39",
".X c #ED9738",
"XX c #FF9739",
"oX c #FEAC38",
"OX c #FECA0A",
"+X c #FFDD11",
"@X c yellow",
"#X c #FFD435",
"$X c #BA804E",
"%X c #B98A68",
"&X c #DB944F",
"*X c #CC9E50",
"=X c #E8874D",
"-X c #FF8142",
";X c #FF8C42",
":X c #FF804D",
">X c #FF8C4C",
",X c #FF9742",
"<X c #FF9F4F",
"1X c #F48C5E",
"2X c #FF9452",
"3X c #EEA062",
"4X c #F2BE64",
"5X c #FEC44E",
"6X c #B99D84",
"7X c #E1B68E",
"8X c #EAD2A3",
/* pixels */
"                                                                                                                                ",
"                                                                                                                                ",
"                                                                                                                                ",
"                                                                    9.@X                                                        ",
"                                                                    D *X                                                        ",
"                                                                    $ q.                                                        ",
"                                                                    $ w.                                                        ",
"                                                                    $ w.                                                        ",
"                                                                    $ w.                                                        ",
"                                                                    $ w.                                                        ",
"                                                    z.k.            $ w.                                                        ",
"                                                    g.c.            $ w.                                                        ",
"                                                      c.            $ w.                                                        ",
"                                                  l.N.v.M.N.        $ w.                                                        ",
"                                                      g.l.{.u.Y - o 6Xw.                                                        ",
"                                                        {.}.' } ` T E.w.                                                        ",
"                                                        {.x.,.<.o...E.w.                                                        ",
"                                                        }.N.Q.2.O.X.E.w.                                                        ",
"                                                      s.}.}.D.~.!.>.W.w.        g.z.z.z.                                        ",
"                                                      `.}.}.K.~.,.O.E.w.      k.c.z.z.k.                                        ",
"                                                    m.XXh.u.e.B.c.|.%Xw.                                                        ",
"                                                     X}.-.-.i.4.7.G.%Xw.                d.z.                                    ",
"                                                    |.J.:.Z.V.u.S 7.&Xw.                            d                           ",
"                                                    L.J.1.~.I.Z.h.4.&Xw.              a.`.'.[.[.[.).0 /.                        ",
"                                                    |.B.A.:XZ.V.A.5.&Xw.          / p.<XoXoX.X6.6.6.e ).OX                      ",
"                                                    2X$.<.D.:XF.Z.-.:X4.T.        / b.XXj > a 5 ; k C 1 +X/.                    ",
"                                                  s.-X2.=.O.^.F.#.e.&X^ ;X    t.@.i.T.M @ + k m > m 0.q e                       ",
"                                                    :.O.!._ ~.2.) Y.%Xk.    Y @.A.^ b S 7 0.K B G C A 0 +                       ",
"                                                    O.2.^.2.B.S.^ G.%Xq.  $.u.2XK.A A W.< C N x ; B $XF =                       ",
"                                                  v.<X~.<.X.,.{ e.e.E.w.{ D.2X_ k z w.V S m x W.l k q.n %                       ",
"                                                    ,X;X%.1.<.3.*.B.%XY 1.:XU.m r.n ; J < H l c 8 < q.n w $                     ",
"                          g.                        >X;XA.#.V.B.,.[ =Xd i ~.4.W.H.0.: I 8 < 7 8 ; ; x 4 x , o                   ",
"                        k.z.z.z.                    T.2X<XT.Z.Z.*.,.#._ _ h , J m n 4 G o o o o     n D n x q                   ",
"                        c.z.c.z.                      T.<X:X1.1.Z.1.P.7.o + 4 C 8.J 8 8.5 O o       0 ^ R.D %                   ",
"                                                  . . . L.<X$.;.f.f.@.=X9 o > 8.8.l W.8.> o o       | } e # +                   ",
"                                                  . . . @ w ( &.j.K.f.H.H.@ w a F v x z O o o     R |  .<                       ",
"                                g.k.    6 , 2 o . . t t X X = C j.j.<Xn.Y.P.V F A 7 + r k @ O u  .} }  .~                       ",
"                          +.<.1.#.R a 7 v 7 : + + n I P P P P P R.u.,X2X>X:X~.^ x m 5 6 9 < ` ' [ ' U  .E                       ",
"                        +.:.^.~.^.Q.Q , q , 5 5 > 0.I 6XI P P E.6XE.L.4X2X~.C. .] M 4 o % p ' ' 6X4.s  . .                      ",
"                        &.D.1X:XC.! > 3 2 , 0.S 3 8 *.$.P P P P t y :X2X<X=X~.6Xr. . . ._ ..} `  . .                            ",
"                        f.I.:X1XE 3 5 x 8 + 8.e.Y  ._ R.Z B Z y Z Z :X3X<X1X=X[ |  . . .6X{ } R  . .                            ",
"                      &.;X|.I.>X  g  . . . . . . .8Xf x q x &Xw.v H.n.<X-X$Xr.} 2  . .Y Y  . .   . .                            ",
"                      &.2X|.I.:X+ w... . .$X+. . .W.p k , x &X7XC W.L.<XT.$Xe.| 5 }  .B i  . .   .                              ",
"                      &.L.L. XT.s `  . . .{  . . . .p B w.%Xv x C $XXX<X;X, n h 7.W  .o +  . .                                  ",
"                      @.N.XX<X|.E `  . . . . .} R  .k 4 x J Z e Z w.,X<X=Xn z S H 8 u @ @                                       ",
"                        M.XXL.5XR +  .g f  . .4 4  .2 q x m q.W.q J <X;XJ q 6 4 A n 4 7 @ @                                     ",
"                        (.oX}.5X( t  .@ h  .| x k R ,   q 6 6 2 Z r.5XT.      4 m k 4 , C C z 1                                 ",
"                      (.'.oXoX5Xs    .@ ^  .} ; ,                 c.<XJ.      > 5 8 8 @ z G W.z                                 ",
"                    ].[.#X#XoX5X   .f k J x < q ,                 k.oX_.(.      4 x k     @ n A %                               ",
"                  ].#X#X#X#XoX'.x w x 9.R.: , z ,                 v.'._._._._.  < n x       , 4 @                               ",
"                ).+X+X#X+X#X`.  C J H q , 2 k z ,                               , 0.G           k @                             ",
"              s y.+X#X+XOX[.    S J B     , k w 6                               , 0.L           J k                             ",
"                              ; V 4       o : x ,                                 G 0.          8 K . .                         ",
"                            : n ,             4 A ,                               8 w.              P t .                       ",
"                            4 F @             @ w C z                             n H.              * y X                       ",
"                            F w.                  k W.G                           ; A v                                         ",
"                            y Z                   X L Z                             k q                                         ",
"                            $ y                     t y X                           > 6 t .                                     ",
"                            = P                     = P X                             . y & .                                   ",
"                            X =                                                         X X                                     ",
"                            X X                                                                                                 ",
"                                                                                                                                ",
"                                                                                                                                ",
"                                                                                                                                "
};
