/* XPM */
static char *result[] = {
/* columns rows colors chars-per-pixel */
"64 64 217 2 ",
"   c #080800",
".  c #070008",
"X  c gray3",
"o  c #100000",
"O  c #180000",
"+  c #100800",
"@  c #180800",
"#  c #140808",
"$  c #181000",
"%  c #101008",
"&  c #181008",
"*  c #0D0810",
"=  c #111010",
"-  c #171619",
";  c #210000",
":  c #210800",
">  c #210808",
",  c #211000",
"<  c #291000",
"1  c #211008",
"2  c #291008",
"3  c #211808",
"4  c #291808",
"5  c #351006",
"6  c #311808",
"7  c #3B1808",
"8  c #221010",
"9  c #281810",
"0  c #311810",
"q  c #3B1810",
"w  c #321F18",
"e  c #3D2208",
"r  c #312110",
"t  c #392110",
"y  c #392918",
"u  c #252324",
"i  c #382D2A",
"p  c #420400",
"a  c #520000",
"s  c #520B00",
"d  c #520E08",
"f  c #4D1F0D",
"g  c #6B0000",
"h  c #6B0B00",
"j  c #6A0E09",
"k  c #7F0000",
"l  c #671C09",
"z  c #4D2A0F",
"x  c #422110",
"c  c #422A10",
"v  c #4A2118",
"b  c #422918",
"n  c #4A2918",
"m  c #5A2719",
"M  c #4A311B",
"N  c #523118",
"B  c #5E3118",
"V  c #4A2921",
"C  c #523122",
"Z  c #5F3121",
"A  c #583921",
"S  c #5C3E29",
"D  c #633921",
"F  c #713921",
"G  c #7A4211",
"H  c #604421",
"J  c #6F4421",
"K  c #6B4429",
"L  c #764129",
"P  c #7A4A29",
"I  c #694831",
"U  c #6B4C39",
"Y  c #514C51",
"T  c #7D5E4D",
"R  c #8C0E08",
"E  c #940000",
"W  c #AD0000",
"Q  c #B40E00",
"!  c #B60D08",
"~  c #8E2100",
"^  c #8C2308",
"/  c #8C2310",
"(  c #8B2B1A",
")  c #B62800",
"_  c #B52308",
"`  c #B62310",
"'  c #B72C1A",
"]  c #C20000",
"[  c #CE0000",
"{  c #DA0000",
"}  c #DD0D09",
"|  c #D61C0D",
" . c #EB0000",
".. c #F70000",
"X. c red",
"o. c #F40D09",
"O. c #FF0808",
"+. c #FF100C",
"@. c #FD180E",
"#. c #FF1D18",
"$. c #DA2A00",
"%. c #D62D0C",
"&. c #CE3D06",
"*. c #DC2A1B",
"=. c #EB220C",
"-. c #FD210F",
";. c #EB3D03",
":. c #FF3E03",
">. c #F4291C",
",. c #FF2D18",
"<. c #E33E18",
"1. c #FF3D15",
"2. c #F33E19",
"3. c #FF2521",
"4. c #FF2E2C",
"5. c #FF3121",
"6. c #FF3D21",
"7. c #FF3E29",
"8. c #FF3D31",
"9. c #FF3E39",
"0. c #A34408",
"q. c #B94407",
"w. c #A2451D",
"e. c #B9481D",
"r. c #814921",
"t. c #8F4E2D",
"y. c #815929",
"u. c #805131",
"i. c #935D30",
"p. c #945F39",
"a. c #AE4C2C",
"s. c #B5602E",
"d. c #B16539",
"f. c #D05007",
"g. c #DE5A08",
"h. c #CE421C",
"j. c #CE561D",
"k. c #E84E03",
"l. c #E75A00",
"z. c #E75A08",
"x. c #FB5A04",
"c. c #FD4A13",
"v. c #E75710",
"b. c #E8521D",
"n. c #FE5614",
"m. c #E76310",
"M. c #EF6B10",
"N. c #E76319",
"B. c #E76C1D",
"V. c #EF6B18",
"C. c #F26310",
"Z. c #FD671D",
"A. c #EF731F",
"S. c #F97210",
"D. c #F9731D",
"F. c #DA502B",
"G. c #F44F2B",
"H. c #FF4A2C",
"J. c #FD5021",
"K. c #FF5529",
"L. c #FF5731",
"P. c #FF5239",
"I. c #DB6B2D",
"U. c #C57D3C",
"Y. c #EF6A21",
"T. c #EF6F2B",
"R. c #F77C29",
"E. c #E36E39",
"W. c #FE6731",
"Q. c #FF6B39",
"!. c #EC7E37",
"~. c #F77F36",
"^. c #99664A",
"/. c #9C6F59",
"(. c #A96A42",
"). c #FF4D42",
"_. c #FF534F",
"`. c #E36F45",
"'. c #FF6C45",
"]. c #FF6B58",
"[. c #DD8306",
"{. c #F7800D",
"}. c #FF8308",
"|. c #EC9A05",
" X c #FF9D00",
".X c #FF8418",
"XX c #FF9C14",
"oX c #FFB400",
"OX c #FFB412",
"+X c #FF8521",
"@X c #FF962E",
"#X c #FF8039",
"$X c #FF8C39",
"%X c #FF9739",
"&X c #FEAC38",
"*X c #FECA0A",
"=X c #FFDD11",
"-X c yellow",
";X c #FFD435",
":X c #BA804E",
">X c #DB944F",
",X c #CC9E50",
"<X c #E8874D",
"1X c #FF8142",
"2X c #FF8C42",
"3X c #FF804D",
"4X c #FF8C4C",
"5X c #FF9742",
"6X c #FF9F4F",
"7X c #F48C5E",
"8X c #FF9452",
"9X c #EEA062",
"0X c #F2BE64",
"qX c #FEC44E",
"wX c #B99D84",
"eX c #EAD2A3",
"rX c None",
/* pixels */
"rXrXrXrXrXrXrXrXrXrXrXrXrXrXrXrXrXrXrXrXrXrXrXrXrXrXrXrXrXrXrXrXrXrXrXrXrXrXrXrXrXrXrXrXrXrXrXrXrXrXrXrXrXrXrXrXrXrXrXrXrXrXrXrX",
"rXrXrXrXrXrXrXrXrXrXrXrXrXrXrXrXrXrXrXrXrXrXrXrXrXrXrXrXrXrXrXrXrXrXrXrXrXrXrXrXrXrXrXrXrXrXrXrXrXrXrXrXrXrXrXrXrXrXrXrXrXrXrXrX",
"rXrXrXrXrXrXrXrXrXrXrXrXrXrXrXrXrXrXrXrXrXrXrXrXrXrXrXrXrX-Xy.rXrXrXrXrXrXrXrXrXrXrXrXrXrXrXrXrXrXrXrXrXrXrXrXrXrXrXrXrXrXrXrXrX",
"rXrXrXrXrXrXrXrXrXrXrXrXrXrXrXrXrXrXrXrXrXrXrXrXrXrXrXrXrX,XH rXrXrXrXrXrXrXrXrXrXrXrXrXrXrXrXrXrXrXrXrXrXrXrXrXrXrXrXrXrXrXrXrX",
"rXrXrXrXrXrXrXrXrXrXrXrXrXrXrXrXrXrXrXrXrXrXrXrXrXrXrXrXrXi.% rXrXrXrXrXrXrXrXrXrXrXrXrXrXrXrXrXrXrXrXrXrXrXrXrXrXrXrXrXrXrXrXrX",
"rXrXrXrXrXrXrXrXrXrXrXrXrXrXrXrXrXrXrXrXrXrXrXrXrXrXrXrXrXp.% rXrXrXrXrXrXrXrXrXrXrXrXrXrXrXrXrXrXrXrXrXrXrXrXrXrXrXrXrXrXrXrXrX",
"rXrXrXrXrXrXrXrXrXrXrXrXrXrXrXrXrXrXrXrXrXrXrXrXrXrXrXrXrXp.% rXrXrXrXrXrXrXrXrXrXrXrXrXrXrXrXrXrXrXrXrXrXrXrXrXrXrXrXrXrXrXrXrX",
"rXrXrXrXrXrXrXrXrXrXrXrXrXrXrXrXrXrXrXrXrXrXrXrXrXrXrXrXrXp.% rXrXrXrXrXrXrXrXrXrXrXrXrXrXrXrXrXrXrXrXrXrXrXrXrXrXrXrXrXrXrXrXrX",
"rXrXrXrXrXrXrXrXrXrXrXrXrXrXrXrXrXrXrXrXrXrXrXrXrXrXrXrXrXp.% rXrXrXrXrXrXrXrXrXrXrXrXrXrXrXrXrXrXrXrXrXrXrXrXrXrXrXrXrXrXrXrXrX",
"rXrXrXrXrXrXrXrXrXrXrXrXrXrXrXrXrXrXrXrXrXrXrXrXrXrXrXrXrXp.% rXrXrXrXrXrXrXrXrXrXrXrXrXrXrXrXrXrXrXrXrXrXrXrXrXrXrXrXrXrXrXrXrX",
"rXrXrXrXrXrXrXrXrXrXrXrXrXrXrXrXrXrXrXrXrXrXrXrXrXrXrXrXrXp.% rXrXrXrXrXrXrXrXz.rXrXrXrXrXrXrXrXrXrXrXrXrXrXrXrXrXrXrXrXrXrXrXrX",
"rXrXrXrXrXrXrXrXrXrXrXrXrXrXrXrXrXrXrXrXrXrXrXrXrXrXrXrXrXp.% rXrXrXrXrXrXrXv.N.rXrXrXrXrXrXrXrXrXrXrXrXrXrXrXrXrXrXrXrXrXrXrXrX",
"rXrXrXrXrXrXrXrXrXrXrXrXrXrXrXrXrXrXrXrXrXrXrXrXrXrXrXrXrXp.% rXrXrXrXrXrXrXrXz.rXrXrXrXrXrXrXrXrXrXrXrXrXrXrXrXrXrXrXrXrXrXrXrX",
"rXrXrXrXrXrXrXrXrXrXrXrXrXrXrXrXrXrXrXrXrXrXrXrXrXrXrXrXrXp.% rXrXrXrXrXrXM.m.m.z.M.rXrXrXrXrXrXrXrXrXrXrXrXrXrXrXrXrXrXrXrXrXrX",
"rXrXrXrXrXrXrXrXrXrXrXrXrXrXrXrXrXrXrXrXrXrXrXrXrXrXrXrXrXp.% rXrX~ k E _ D.A.M.rXrXrXrXrXrXrXrXrXrXrXrXrXrXrXrXrXrXrXrXrXrXrXrX",
"rXrXrXrXrXrXrXrXrXrXrXrXrXrXrXrXrXrXrXrXrXrXrXrXrXrXrXrXrXp.% rXz.E ..O.=.A.m.rXrXrXrXrXrXrXrXrXrXrXrXrXrXrXrXrXrXrXrXrXrXrXrXrX",
"rXrXrXrXrXrXrXrXrXrXrXrXrXrXrXrXrXrXrXrXrXrXrXrXrXrXrXrXrXp.% rXf.O.#.4.7.;.rXrXrXrXrXrXrXrXrXrXrXrXrXrXrXrXrXrXrXrXrXrXrXrXrXrX",
"rXrXrXrXrXrXrXrXrXrXrXrXrXrXrXrXrXrXrXrXrXrXrXrXrXrXrXrXrXp.% z.` #.8.8.P.V.rXrXrXrXrXrXrXrXrXrXrXrXrXrXrXrXrXrXrXrXrXrXrXrXrXrX",
"rXrXrXrXrXrXrXrXrXrXrXrXrXrXrXrXrXrXrXrXrXrXm.m.m.rXm.rXrXp.% rXh.3.L.Q.Z.+XR.rXrXrXrXrXrXrXrXrXrXrXrXrXrXrXrXrXrXrXrXrXrXrXrXrX",
"rXrXrXrXrXrXrXrXrXrXrXrXrXrXrXrXrXrXrXrXrXrXrXN.T.T.rXrXrXp.% z.f.*.J.Q.Z.@X@XrXrXrXrXrXrXrXrXrXrXrXrXrXrXrXrXrXrXrXrXrXrXrXrXrX",
"rXrXrXrXrXrXrXrXrXrXrXrXrXrXrXrXrXrXrXrXrXrXrXrXrXrXrXrXrXp.% A.D.j.b.s.b.b.@XM.rXrXrXrXrXrXrXrXrXrXrXrXrXrXrXrXrXrXrXrXrXrXrXrX",
"rXrXrXrXrXrXrXrXrXrXrXrXrXrX*X*X[.G |.|.}.l.rXrXrXrXrXrXrXp.% A.B.G F h.<.2.B.$XrXrXrXrXrXrXrXrXrXrXrXrXrXrXrXrXrXrXrXrXrXrXrXrX",
"rXrXrXrXrXrXrXrXrXrXrXrXrXrX=X,XH G |.;X;XXXS.rXrXrXz.rXrXp.:XD.w.F e.6.K.G.b.R.rXrXrXrXrXrXrXrXrXrXrXrXrXrXrXrXrXrXrXrXrXrXrXrX",
"rXrXrXrXrXrXrXrXrXrXrXrXrXrX1 4 A v : n t {.qX&X;.k.rXrXrXp.:XI.F J.F.8.'.6.J.R.rXrXrXrXrXrXrXrXrXrXrXrXrXrXrXrXrXrXrXrXrXrXrXrX",
"rXrXrXrXrXrXrXrXrXrXrXrXrX+ & r p.m < z f z qX0XD.v.rXrXrXA./.I.( P.L.5.3XJ.K.R.rXrXrXrXrXrXrXrXrXrXrXrXrXrXrXrXrXrXrXrXrXrXrXrX",
"rXrXrXrXrXrXrXrXrXrXrXrXrX  i u.u.N r.P x @ 6 G T.q.rXrXm.E./.'.F.L.L.} 5.H.G.#XrXrXrXrXrXrXrXrXrXrXrXrXrXrXrXrXrXrXrXrXrXrXrXrX",
"rXrXrXrXrXrXrXrXrXrXrXrXrXX w :XA x Z I A r 7 M R.#X&.k.rXm./.1XE.H.L.| -.'.6.#XrXrXrXrXrXrXrXrXrXrXrXrXrXrXrXrXrXrXrXrXrXrXrXrX",
"rXrXrXrXrXrXrXrXrXrXrXrX4 6 x i.N P p.x I : d.u.n &.Q.) j i.# #XT.*.8.F.*.7.7.V.rXrXrXrXrXrXrXrXrXrXrXrXrXrXrXrXrXrXrXrXrXrXrXrX",
"rXrXrXrXrXrXrXrXrXrXrX& K e 7 J x Z p.2 N b (.(.1 7 9X4X2.$.% #Xr.w.F.*.'.8.+.V.rXrXrXrXrXrXrXrXrXrXrXrXrXrXrXrXrXrXrXrXrXrXrXrX",
"rXrXrXrXrXrXrXrXrXrX& b N 6 1 q 2 6 v 2 L C u.M n N &.3XG.) & B.w.' 5.P.6.@.G.m.rXrXrXrXrXrXrXrXrXrXrXrXrXrXrXrXrXrXrXrXrXrXrXrX",
"rXrXrXrXrXrXrXrXrXrXo N y.u.c rXrXrXo o 0 1 n < d.d.B b.6.` d F.>._.4.K.5.Q.8XR.rXrXrXrXrXrXrXrXrXrXrXrXrXrXrXrXrXrXrXrXrXrXrXrX",
"rXrXrXrXrXrXrXrXrXrXrX& H <X .rXrXrXo o o x S 6 d.U.y.^ %.p j.=.9.h.F.%.=.5X#XY.rXrXrXrXrXrXrXrXrXrXrXrXrXrXrXrXrXrXrXrXrXrXrXrX",
"rXrXrXrXrXrXrXrXrXrXrXrXrXX...rXrXrXo o ; d.F D i.i.n + h.h.| 9.` c.6.b.~.8X2XrXrXrXrXrXrXrXrXrXrXrXrXrXrXrXrXrXrXrXrXrXrXrXrXrX",
"rXrXrXrXrXrXrXrXrXrXrXrX..X...] rXrXo o ; d.t.P N B x @ o 2 `.%.%.J.c.F.8X2XA.rXrXrXrXrXrXrXrXrXrXrXrXN.rXm.rXrXrXrXrXrXrXrXrXrX",
"rXrXrXrXrXrXrXrXrXrXrXrXX.X.{ X.{ rXrXo o N I b P F 7 & X 9 a.c.c.:.1.I.!.. . . rXrXrXrXrXrXrXrXrXrXrXB.m.rXrXrXrXrXrXrXrXrXrXrX",
"rXrXrXrXrXrXrXrXrXrXrXrXX.X.W ..X.a ; @ 7 p.0 0 0 6 K 2 9 :Xb.n.Z.:.$.w . . . . rXrXrXrXrXrXrXrXrX) Q rXv.rXrXrXrXrXrXrXrXrXrXrX",
"rXrXrXrXrXrXrXrXrXrXrXrXX.rXk ' | [ ] & b 2 0 : N i.R ..>X<XZ.6Xn.0.C = X = u . o . 9 1 & rXrX! >.P._.J.$.rXrXrXrXrXrXrXrXrXrXrX",
"rXrXrXrXrXrXrXrXrXrXrXrXrXrXrX` a.{ X.E j o 7 B ! ..X.,.9X4X0XC.&.T Y Y Y Y T n + + : 0 b r Q ].].3X3X1X#X&.) rXrXrXrXrXrXrXrXrX",
"rXrXrXrXrXrXrXrXrXrXrXrXrXrXrXX.X.[ X.X.X. . .X.` *.X.5.<X1X6Xn./.wXY T /.wXT ^.2 7 n , b r _ ).P.'.3X1X4Xn.;.rXrXrXrXrXrXrXrXrX",
"rXrXrXrXrXrXrXrXrXrXrXrXrXrX/ X...W X.` wXX.X.X.} | ( :X3X9X2X:XS Y Y Y Y *.@.d < N P t 1 < : 1 rX_ 3X8X2XR.n.rXrXrXrXrXrXrXrXrX",
"rXrXrXrXrXrXrXrXrXrXrXrXrXrXrXX.X.rXX.X.[ X.X.X.! X.a.7X7X4X8XI.(.Z C V U ^.( X.^ w.(.o 2 n 7 1 rXR W.2X8XR.x.rXrXrXrXrXrXrXrXrX",
"rXrXrXrXrXrXrXrXrXrXrXrXrXrXrXrXrXX.X.W # n X.! d X.m u.>X8X0Xx.U.>X9Xb r N d eXX.X.X.X.} =.X.k rXrX&.6XR.+X;.rXrXrXrXrXrXrXrXrX",
"rXrXrXrXrXrXrXrXrXrXrXrXrXrXrXrXrXX.X.k o p X.! w.X.D 2 >X8X0XC.j.0X:XM 1 b j d.X.X.| a.X.X.X.( @ rXh.5X@X.Xk.rXrXrXrXrXrXrXrXrX",
"rXrXrXrXrXrXrXrXrXrXrXrXrXrXrXrXrXrX+ @ @ p 5 q L B D N b :X%XS.E.t K >Xp.K l X.X.X.o.` X.X.X.R a rXN.6X&X.X}.rXrXrXrXrXrXrXrXrX",
"rXrXrXrXrXrXrXrXrXrXrXrXrXrXrXrX+ 4 r 1 2 9 7 D t.F B n i P %X.X<XS I C y 2 d X.[ X.X.X.X.X.X.] g rXb.6X&X&XOX}.|.|.rXrXrXrXrXrX",
"rXrXrXrXrXrXrXrXrXrXrXrXrXrXrXr P :Xp.x 4 $ q Z 6 4 9 9 w r <X5X>Xu.P N t 9 d X.6 q X.X.E Q X.s j rXrXqXqXqX;X;X;X;X;X=XE rXrXrX",
"rXrXrXrXrXrXrXrXrXrXrXrXrXrXrXx x > rXrXrX4 7 v < rXrXrXrXrXT.&X6X0.3 rXrXrX2 ] v b X.X.e @ X.i h rXrXS.&XqX;X;X;X;X=X*XrXrXrXrX",
"rXrXrXrXrXrXrXrXrXrXrXrXrXrXrXJ 6 rXrXrXrX1 x v 2 rXrXrXrXrXV.&X5XrXrXrXrXrXrX1 1 : X.X.6 @ X.W k rXrXrXg.;X;X;X=X*X*XrXrXrXrXrX",
"rXrXrXrXrXrXrXrXrXrXrXrXrXrX0 P 2 rXrXrXrX4 N t rXrXrXrXrX}.oXOX%XrXrXrXrXrXrX1 C 1 7 D x 2 E rXrXrXrXrXrXrXrXrXrXrXrXrXrXrXrXrX",
"rXrXrXrXrXrXrXrXrXrXrXrXrX+ 1 F rXrXrXrXrXb D 6 rXrXrXrX|. X X@X4XrXrXrXrXrXrX1 C @ , t (.N t rXrXrXrXrXrXrXrXrXrXrXrXrXrXrXrXrX",
"rXrXrXrXrXrXrXrXrXrXrXrXrX= - O rXrXrXrXrXu.N 0 rXrXrXrXrXrXrXrXN.rXrXrXrXrXrX4 N 6 rXrX0 M t.K 4 rXrXrXrXrXrXrXrXrXrXrXrXrXrXrX",
"rXrXrXrXrXrXrXrXrXrXrXrX. i = rXrXrXrXrXrXp.t rXrXrXrXrXrXrXrXrXrXrXrXrXrXrXrX4 A 4 rXrX1 0 (.F 2 rXrXrXrXrXrXrXrXrXrXrXrXrXrXrX",
"rXrXrXrXrXrXrXrXrXrXrXrX* - = rXrXrXrXrX1 C rXrXrXrXrXrXrXrXrXrXrXrXrXrXrXr 1 Z , o rXrXrXrX2 N 4 rXrXrXrXrXrXrXrXrXrXrXrXrXrXrX",
"rXrXrXrXrXrXrXrXrXrXrXrXrXrXrXrXrXrXrX& n N rXrXrXrXrXrXrXrXrXrXrXrXrXy w u.Z o rXrXrXrXrXrXrXm 1 rXrXrXrXrXrXrXrXrXrXrXrXrXrXrX",
"rXrXrXrXrXrXrXrXrXrXrXrXrXrXrXrXrXrXrXA u.< rXrXrXrXrXrXrXrXrXrXrXrXr I ^.N 2 rXrXrXrXrXrXrXrXn 2 rXrXrXrXrXrXrXrXrXrXrXrXrXrXrX",
"rXrXrXrXrXrXrXrXrXrXrXrXrXrXrXrXrXX X (.t.rXrXrXrXrXrXrXrXrXrXrXrXX = u X rXrXrXrXrXrXrXrXrXrXJ 2 rXrXrXrXrXrXrXrXrXrXrXrXrXrXrX",
"rXrXrXrXrXrXrXrXrXrXrXrXrXrXrXrX. - i I t rXrXrXrXrXrXrXrXrXrXrXrXX u X rXrXrXrXrXrXrXrXrXrX0 D 4 rXrXrXrXrXrXrXrXrXrXrXrXrXrXrX",
"rXrXrXrXrXrXrXrXrXrXrXrXrXrXrXrXX u X rXrXrXrXrXrXrXrXrXrXrXrXrX. - - rXrXrXrXrXrXrXrXrXrXrX9 8 & rXrXrXrXrXrXrXrXrXrXrXrXrXrXrX",
"rXrXrXrXrXrXrXrXrXrXrXrXrXrXrXrXrX. X rXrXrXrXrXrXrXrXrXrXrXrXrXrXrX. rXrXrXrXrXrXrXrXrXrXrXu # @ rXrXrXrXrXrXrXrXrXrXrXrXrXrXrX",
"rXrXrXrXrXrXrXrXrXrXrXrXrXrXrXrXrXrXrXrXrXrXrXrXrXrXrXrXrXrXrXrXrXrXrXrXrXrXrXrXrXrXrXrXrXX i . rXrXrXrXrXrXrXrXrXrXrXrXrXrXrXrX",
"rXrXrXrXrXrXrXrXrXrXrXrXrXrXrXrXrXrXrXrXrXrXrXrXrXrXrXrXrXrXrXrXrXrXrXrXrXrXrXrXrXrXrXrXrXX - rXrXrXrXrXrXrXrXrXrXrXrXrXrXrXrXrX",
"rXrXrXrXrXrXrXrXrXrXrXrXrXrXrXrXrXrXrXrXrXrXrXrXrXrXrXrXrXrXrXrXrXrXrXrXrXrXrXrXrXrXrXrXrXrXrXrXrXrXrXrXrXrXrXrXrXrXrXrXrXrXrXrX",
"rXrXrXrXrXrXrXrXrXrXrXrXrXrXrXrXrXrXrXrXrXrXrXrXrXrXrXrXrXrXrXrXrXrXrXrXrXrXrXrXrXrXrXrXrXrXrXrXrXrXrXrXrXrXrXrXrXrXrXrXrXrXrXrX",
"rXrXrXrXrXrXrXrXrXrXrXrXrXrXrXrXrXrXrXrXrXrXrXrXrXrXrXrXrXrXrXrXrXrXrXrXrXrXrXrXrXrXrXrXrXrXrXrXrXrXrXrXrXrXrXrXrXrXrXrXrXrXrXrX"
};
