/* XPM */
static char *player_right_3[] = {
/* columns rows colors chars-per-pixel */
"64 64 220 2 ",
"   c black",
".  c #080800",
"X  c #070008",
"o  c gray3",
"O  c #100000",
"+  c #180000",
"@  c #100800",
"#  c #180800",
"$  c #140808",
"%  c #181000",
"&  c #101008",
"*  c #181008",
"=  c #0D0810",
"-  c #111010",
";  c #171619",
":  c #210000",
">  c #290501",
",  c #210800",
"<  c #210808",
"1  c #350301",
"2  c #211000",
"3  c #291000",
"4  c #211008",
"5  c #291008",
"6  c #291808",
"7  c #351006",
"8  c #311808",
"9  c #3B1808",
"0  c #281810",
"q  c #311810",
"w  c #3B1810",
"e  c #321F18",
"r  c #3D2208",
"t  c #312110",
"y  c #392110",
"u  c #392910",
"i  c #392918",
"p  c #252324",
"a  c #382D2A",
"s  c #420400",
"d  c #520000",
"f  c #520B00",
"g  c #520E08",
"h  c #4D1F0D",
"j  c #6B0000",
"k  c #6A0E09",
"l  c #7F0000",
"z  c #671C09",
"x  c #422110",
"c  c #422A10",
"v  c #4A2118",
"b  c #422918",
"n  c #4A2918",
"m  c #5A2719",
"M  c #4A311B",
"N  c #523118",
"B  c #5E3118",
"V  c #642C0C",
"C  c #4A2921",
"Z  c #523122",
"A  c #5F3121",
"S  c #583921",
"D  c #5C3E29",
"F  c #633921",
"G  c #713921",
"H  c #7A4211",
"J  c #604421",
"K  c #6F4421",
"L  c #6B4429",
"P  c #764129",
"I  c #7A4A29",
"U  c #694831",
"Y  c #6B4C39",
"T  c #514C51",
"R  c #7D5E4D",
"E  c #8C0E08",
"W  c #940000",
"Q  c #AD0000",
"!  c #B40E00",
"~  c #B60D08",
"^  c #8E2100",
"/  c #8C2308",
"(  c #8C2310",
")  c #8B2B1A",
"_  c #B62800",
"`  c #B52308",
"'  c #B62310",
"]  c #B72C1A",
"[  c #C20000",
"{  c #CE0000",
"}  c #DA0000",
"|  c #DA0C00",
" . c #DD0D09",
".. c #D61C0D",
"X. c #EB0000",
"o. c #F70000",
"O. c red",
"+. c #F40D09",
"@. c #FF0808",
"#. c #FF100C",
"$. c #FD180E",
"%. c #FF1D18",
"&. c #DA2A00",
"*. c #D62D0C",
"=. c #CE3D06",
"-. c #DC2A1B",
";. c #EB220C",
":. c #FD210F",
">. c #FD2D0D",
",. c #EB3D03",
"<. c #FF3E03",
"1. c #F4291C",
"2. c #FF2D18",
"3. c #E33E18",
"4. c #FF3D15",
"5. c #F33E19",
"6. c #FF2521",
"7. c #FF2E2C",
"8. c #FF3121",
"9. c #FF3D21",
"0. c #FF3D31",
"q. c #FF3E39",
"w. c #A34408",
"e. c #B94407",
"r. c #A2451D",
"t. c #B9481D",
"y. c #A86910",
"u. c #814921",
"i. c #8F4E2D",
"p. c #815929",
"a. c #805131",
"s. c #935D30",
"d. c None",
"f. c #AE4C2C",
"g. c #B5602E",
"h. c #B16539",
"j. c #D05007",
"k. c #DE5A08",
"l. c #CE421C",
"z. c #CE561D",
"x. c #E84E03",
"c. c #E75A08",
"v. c #FB5A04",
"b. c #FD4A13",
"n. c #E75710",
"m. c #E8521D",
"M. c #FE5614",
"N. c #D66911",
"B. c #E76406",
"V. c #F66E05",
"C. c #E76310",
"Z. c #EF6B10",
"A. c #E76319",
"S. c #EF6318",
"D. c #E76C1D",
"F. c #EF6B18",
"G. c #FD671D",
"H. c #EF731F",
"J. c #F97210",
"K. c #F9731D",
"L. c #DA502B",
"P. c #F44F2B",
"I. c #FD5021",
"U. c #FF5529",
"Y. c #FF5731",
"T. c #FF5239",
"R. c #DB6B2D",
"E. c #C57D3C",
"W. c #EF6A21",
"Q. c #EF6F2B",
"!. c #FC732D",
"~. c #F77C29",
"^. c #E36E39",
"/. c #FE6731",
"(. c #FF6B39",
"). c #EC7E37",
"_. c #F77F36",
"`. c #99664A",
"'. c #9C6F59",
"]. c #A96A42",
"[. c #FF4D42",
"{. c #FF534F",
"}. c #FF6C45",
"|. c #FF6B58",
" X c #DD8306",
".X c #FF8308",
"XX c #EC9A05",
"oX c #FF9D00",
"OX c #FF8418",
"+X c #FF9C14",
"@X c #EFB206",
"#X c #FFB400",
"$X c #FFB412",
"%X c #FF8521",
"&X c #FF962E",
"*X c #FF8039",
"=X c #FF8C39",
"-X c #FF9739",
";X c #FEAC38",
":X c #FECA0A",
">X c #FFDD11",
",X c yellow",
"<X c #FFD435",
"1X c #BA804E",
"2X c #B98A68",
"3X c #DB944F",
"4X c #CC9E50",
"5X c #E8874D",
"6X c #FF8142",
"7X c #FF8C42",
"8X c #FF804D",
"9X c #FF8C4C",
"0X c #FF9742",
"qX c #FF9F4F",
"wX c #F48C5E",
"eX c #FF9452",
"rX c #EEA062",
"tX c #FEC44E",
"yX c #B99D84",
"uX c #E3C4AE",
/* pixels */
"                                                                                                                                ",
"                                                                                                                                ",
"                                                                    p.,X                                                        ",
"                                                                    J 4X                                                        ",
"                                                                    & s.                                                        ",
"                                                                    & d.                                                        ",
"                                                                    & d.                                                        ",
"                                                                    & d.                                                        ",
"                                                                    & d.                                                        ",
"                                                                    & d.                                                        ",
"                                                                    & d.                                                        ",
"                                          c.A.A.H.W.c.              & d.                                                        ",
"                                          c.A.H.Q.R.n.              & d.                                                        ",
"                                              B.C.      s -.O j.    & d.                                                        ",
"                                              B.J.K.K.S.$.2.+.l Z.  & d.                                                        ",
"                                                B.OXK.m.0.8.:.+.S.  & d.                                                        ",
"                                                      S.(./.0.7.` N.& d.        c.                                              ",
"                                                    F.-X!.*X}.0.`   & d.        C.                                              ",
"                                                    &X~.Q.!.U.z.~.C.& d.        W.                                              ",
"                                                    ~.&Xz.g.!.z.~.~.& d.        Q.                                              ",
"                                                  S.%XL.P.m.g.g.).K.& d.          D.D.    C.j.w.                                ",
"                                                  F.W.P.I.9.m.r.u.z.& d.              B.$X$Xy.c >X>X@X                          ",
"                                                  F.m.P.T.Y.5.L.) u.& d.            B.<X<Xy.r D u y.                            ",
"                                                  S.m.5.}.[.3.T.-.( L.k A.      x.;XtXy.N G B N b 4 M                           ",
"                                                  F.P.5.}.7.[.8.;.] h.E z.    x.G.tX;Xx B u.x Y n S . @                         ",
"                                                  C./.0.$.O.0.%.W ^.2XC.      c.v.z.r 6 9 i.L F i.1X0 $ *                       ",
"                                                  C.P.q.$.X.[.6./ *X$ s.    / =._.n t q Y L A 5 F d.c 6 4                       ",
"                                                    5.%.[.-.-...g H & d.  ,.^ 7X/ K s., Y v ].P v G 8 8 1Xt y                   ",
"                                                    I.#.6.{.E ) E z * d.  ` m.l.3 h.].w G 8 ].P w y 8 8 F n 0                   ",
"                                                    _.Q.9.@.[.+.' ) & k / eXeXx c a.a.Z a.x w 9 O 2 N S p.i.4                   ",
"                                                    ~.Q./.l.-.-.7.' t.` 5.8Xt.s.s.r 2 L n < O O       $.'.@                     ",
"                        n.                          Q.*X_.] >.*.7.%.$ E k ^.V E.h.9 v P O O O         o.`                       ",
"                        R.m.5.5.` e.                    eXR.>.>.;.1.( ) ] 5 w i.p.I x s.x + O       o.O.X.                      ",
"                      &.m.I.8X(.2.~               X X X F.Q.<.4.4.' ) g X O 8 v B v F h.7 + O       o.O.O.                      ",
"                    M.*XeX6X(.}.T.T._     * 4 X X X o X X ; &.b.M.b./ * o @ 6 B s.Z S q : O O   W O.[ X.O.:                     ",
"                  _ ~.0XeX9X}.8X}.|.l t 0 4 0 X O X ; o X . / b._.G.3.b X k b 8 q b q a.5 4 X 1 O.X.[ { O.                      ",
"                  x.qXqXqX9X(.*...8.' i M 6 5 @ @ y T T a p Y i.G.qXG.G Z O.[ d.S , 5 t L 0 [ [ +.f.{ j O.                      ",
"                  J.qX-XqX!.      @ # 2 * n N v , 1XT yX'.R R yXm.K.qXf.`.O.O.o.~ B 9 O 8 g o.X...t.>                           ",
"                k.OXtX-X=X*.      4 9 8 4 n a.x , A ]  .yXT T yX2XM._.h.].{ O.-.] o.} [ o.O.O.X.O.O.j                           ",
"                B.+XtX;XK.      9 [ ! f.) E ..O.O.+.* C Z Z n S ) G.rX5X1XI r. . .O.O.O.uXs.O.{ [ O.O.                          ",
"                V.$XtX;Xx.      g ' O.O.O.O.O.O.o.1Xy L S i.B h.x.~.qXwX3XI ) o.~ O.O.O.' o.O.    O.O.                          ",
"                .X<X<X+X        E d.O.O.o.2Xo.O.O.o.0 P , n rXrXK.-X6XrX3X5 ( o.5 } O.M * { O.O.                                ",
"                XX<X<X+X        Q } O.O.O.+.O.O.O.O.N d.d.L S 2XJ.-XR.].R x f.o.I | O., O ~ O.O.                                ",
"                oX<X<X:X        d o.O.O.O.O.[ 5 l O.4 4 i M a.a.%X&Xa.M q I B P P 9 f 3                                         ",
"                @X<X<X$X        3 O.| f { O.~ w ~ O.t i F B 3X1X&X&XL e M D v i.h m 8 5                                         ",
"                  :X>X#X      , p O.O.5 o.O.z 8 { W   4 q u b 3X;XE.e t 0   c , x K b 9 4 @                                     ",
"                  XX X            O.O.f | E q 4             S.qXqXH.            # n 8 x n M *                                   ",
"                  z                 O.6 y n x %             ~.qXtXoX              I L 8 N P J 4                                 ",
"                                    y y a.b #               _.eXoXoX X            N ].b 5 q a.U                                 ",
"                                    n n Z 5                 c.  $X#XoX            4 d.U     F U                                 ",
"                                    L a.n                                           8 Y     E.b                                 ",
"                                  @ y a.b 4                                         y 8     d.6                                 ",
"                                    2 8 N q 4                                     i.I     # d.M                                 ",
"                                        # y L a b                               p d.,     o U o                                 ",
"                                          4 8 U L p                             4 S @       ; -                                 ",
"                                            b 0 p a = o                         o o         a a X                               ",
"                                              o T = - o                       p a X         - ; X                               ",
"                                              X o ;                           o ; X                                             ",
"                                                                                  X                                             ",
"                                                                                                                                ",
"                                                                                                                                ",
"                                                                                                                                ",
"                                                                                                                                ",
"                                                                                                                                "
};
