/* XPM */
static char *result[] = {
/* columns rows colors chars-per-pixel */
"64 64 189 2 ",
"   c #080800",
".  c #070008",
"X  c gray3",
"o  c #100000",
"O  c #180000",
"+  c #100800",
"@  c #180800",
"#  c #140808",
"$  c #101008",
"%  c #181008",
"&  c #111010",
"*  c #171619",
"=  c #210000",
"-  c #290501",
";  c #210800",
":  c #211000",
">  c #291000",
",  c #211008",
"<  c #291008",
"1  c #211808",
"2  c #291808",
"3  c #351006",
"4  c #311808",
"5  c #3B1808",
"6  c #281810",
"7  c #311810",
"8  c #3B1810",
"9  c #3D2208",
"0  c #312110",
"q  c #392110",
"w  c #392910",
"e  c #392918",
"r  c #252324",
"t  c #382D2A",
"y  c #420400",
"u  c #520000",
"i  c #520B00",
"p  c #520E08",
"a  c #6B0000",
"s  c #6A0E09",
"d  c #7F0000",
"f  c #422110",
"g  c #422A10",
"h  c #4A2118",
"j  c #422918",
"k  c #4A2918",
"l  c #5A2719",
"z  c #4A311B",
"x  c #523118",
"c  c #4A2921",
"v  c #523122",
"b  c #5F3121",
"n  c #583921",
"m  c #5C3E29",
"M  c #713921",
"N  c #7A4211",
"B  c #604421",
"V  c #6F4421",
"C  c #6B4429",
"Z  c #764129",
"A  c #7A4A29",
"S  c #694831",
"D  c #6B4C39",
"F  c #7D5E4D",
"G  c #8B0B00",
"H  c #8C0E08",
"J  c #940000",
"K  c #AD0000",
"L  c #B60D08",
"P  c #8C2308",
"I  c #8C2310",
"U  c #8B2B1A",
"Y  c #B52308",
"T  c #B62310",
"R  c #B72C1A",
"E  c #CE0000",
"W  c #DA0C00",
"Q  c #DD0D09",
"!  c #D61C0D",
"~  c #EB0000",
"^  c #F70000",
"/  c red",
"(  c #F40D09",
")  c #FF100C",
"_  c #FD180E",
"`  c #FF1D18",
"'  c #DA2A00",
"]  c #D62D0C",
"[  c #CE3D06",
"{  c #DC2A1B",
"}  c #EB220C",
"|  c #FD210F",
" . c #EB3D03",
".. c #F4291C",
"X. c #FF2D18",
"o. c #E33E18",
"O. c #F33E19",
"+. c #FF2521",
"@. c #FF2E2C",
"#. c #FF3121",
"$. c #FF3D21",
"%. c #FF3D31",
"&. c #FF3E39",
"*. c #A34408",
"=. c #B94407",
"-. c #A2451D",
";. c #B9481D",
":. c #A86910",
">. c #814921",
",. c #8F4E2D",
"<. c #815929",
"1. c #805131",
"2. c #935D30",
"3. c #945F39",
"4. c #AE4C2C",
"5. c #B5602E",
"6. c #B16539",
"7. c #DE5A08",
"8. c #CE421C",
"9. c #CE561D",
"0. c #E84E03",
"q. c #E75A00",
"w. c #E75A08",
"e. c #FD4A13",
"r. c #E75710",
"t. c #E8521D",
"y. c #FE5614",
"u. c #D66911",
"i. c #E76406",
"p. c #E76310",
"a. c #E76F10",
"s. c #EF6B10",
"d. c #E76319",
"f. c #EF6318",
"g. c #E76C1D",
"h. c #EF6B18",
"j. c #FD671D",
"k. c #EF731F",
"l. c #F97210",
"z. c #F9731D",
"x. c #DA502B",
"c. c #FF4A2C",
"v. c #EC503E",
"b. c #FF5731",
"n. c #FF5239",
"m. c #C57D3C",
"M. c #EF6A21",
"N. c #EF6F2B",
"B. c #FC732D",
"V. c #F77C29",
"C. c #E36E39",
"Z. c #FE6731",
"A. c #EC7E37",
"S. c #F77F36",
"D. c #A96A42",
"F. c #FF4D42",
"G. c #FF6C45",
"H. c #FF6B58",
"J. c #DD8306",
"K. c #FF8308",
"L. c #EC9A05",
"P. c #FF9D00",
"I. c #FF8418",
"U. c #FF9C14",
"Y. c #FFB412",
"T. c #FF8521",
"R. c #FF962E",
"E. c #E58C3A",
"W. c #FF8039",
"Q. c #FF8C39",
"!. c #FF9739",
"~. c #FEAC38",
"^. c #FFDD11",
"/. c yellow",
"(. c #FFD435",
"). c #DB944F",
"_. c #CC9E50",
"`. c #E8874D",
"'. c #FF8142",
"]. c #FF8C42",
"[. c #FF804D",
"{. c #FF8C4C",
"}. c #FF9742",
"|. c #FF9F4F",
" X c #FF9452",
".X c #EEA062",
"XX c #E1B68E",
"oX c #EAD2A3",
"OX c None",
/* pixels */
"OXOXOXOXOXOXOXOXOXOXOXOXOXOXOXOXOXOXOXOXOXOXOXOXOXOXOXOXOXOXOXOXOXOXOXOXOXOXOXOXOXOXOXOXOXOXOXOXOXOXOXOXOXOXOXOXOXOXOXOXOXOXOXOX",
"OXOXOXOXOXOXOXOXOXOXOXOXOXOXOXOXOXOXOXOXOXOXOXOXOXOXOXOXOXOXOXOXOXOXOXOXOXOXOXOXOXOXOXOXOXOXOXOXOXOXOXOXOXOXOXOXOXOXOXOXOXOXOXOX",
"OXOXOXOXOXOXOXOXOXOXOXOXOXOXOXOXOXOXOXOXOXOXOXOXOXOXOXOXOXOXOXOXOXOXOXOXOXOXOXOX<./.OXOXOXOXOXOXOXOXOXOXOXOXOXOXOXOXOXOXOXOXOXOX",
"OXOXOXOXOXOXOXOXOXOXOXOXOXOXOXOXOXOXOXOXOXOXOXOXOXOXOXOXOXOXOXOXOXOXOXOXOXOXOXOXB _.OXOXOXOXOXOXOXOXOXOXOXOXOXOXOXOXOXOXOXOXOXOX",
"OXOXOXOXOXOXOXOXOXOXOXOXOXOXOXOXOXOXOXOXOXOXOXOXOXOXOXOXOXOXOXOXOXOXOXOXOXOXOXOX$ 2.OXOXOXOXOXOXOXOXOXOXOXOXOXOXOXOXOXOXOXOXOXOX",
"OXOXOXOXOXOXOXOXOXOXOXOXOXOXOXOXOXOXOXOXOXOXOXOXOXOXOXOXOXOXOXOXOXOXOXOXOXOXOXOX$ 3.OXOXOXOXOXOXOXOXOXOXOXOXOXOXOXOXOXOXOXOXOXOX",
"OXOXOXOXOXOXOXOXOXOXOXOXOXOXOXOXOXOXOXOXOXOXOXOXOXOXOXOXOXOXOXOXOXOXOXOXOXOXOXOX$ 3.OXOXOXOXOXOXOXOXOXOXOXOXOXOXOXOXOXOXOXOXOXOX",
"OXOXOXOXOXOXOXOXOXOXOXOXOXOXOXOXOXOXOXOXOXOXOXOXOXOXOXOXOXOXOXOXOXOXOXOXOXOXOXOX$ 3.OXOXOXOXOXOXOXOXOXOXOXOXOXOXOXOXOXOXOXOXOXOX",
"OXOXOXOXOXOXOXOXOXOXOXOXOXOXOXOXOXOXOXOXOXOXOXOXOXOXOXOXOXOXOXOXOXOXOXOXOXOXOXOX$ 3.OXOXOXOXOXOXOXOXOXOXOXOXOXOXOXOXOXOXOXOXOXOX",
"OXOXOXOXOXOXOXOXOXOXOXOXOXOXOXOXOXOXOXOXOXOXOXOXOXOXOXOXOXOXOXOXOXOXOXOXOXOXOXOX$ 3.OXOXOXOXOXOXOXOXOXOXOXOXOXOXOXOXOXOXOXOXOXOX",
"OXOXOXOXOXOXOXOXOXOXOXOXOXOXOXOXOXOXOXOXOXOXOXOXOXOXOXOXOXOXd.r.OXOXOXOXOXOXOXOX$ 3.OXOXOXOXOXOXOXOXOXOXOXOXOXOXOXOXOXOXOXOXOXOX",
"OXOXOXOXOXOXOXOXOXOXOXOXOXOXOXOXOXOXOXOXOXOXOXOXOXOXOXOXOXOXOXg.g.OXOXOXOXOXOXOX$ 3.OXOXOXOXOXOXOXOXOXOXOXOXOXOXOXOXOXOXOXOXOXOX",
"OXOXOXOXOXOXOXOXOXOXOXOXOXOXOXOXOXOXOXOXOXOXOXOXOXOXOXOXOXOXOXOXr.OXOXOXOXOXOXOX$ 3.OXOXOXOXOXOXOXOXOXOXOXOXOXOXOXOXOXOXOXOXOXOX",
"OXOXOXOXOXOXOXOXOXOXOXOXOXOXOXOXOXOXOXOXOXOXOXOXOXOXOXOXi.OXOX=.=.OXOXOXl.l.OXOX$ 3.OXOXOXOXOXOXOXOXOXOXOXOXOXOXOXOXOXOXOXOXOXOX",
"OXOXOXOXOXOXOXOXOXOXOXOXOXOXOXOXOXOXOXOXOXOXOXOXOXOXOXOXOXw.^ _ ! P s.T.I.s.OXOX$ 3.OXOXOXOXOXOXOXOXOXOXOXOXOXOXOXOXOXOXOXOXOXOX",
"OXOXOXOXOXOXOXOXOXOXOXOXOXOXOXOXOXOXOXOXOXOXOXOXOXOXOXOXOX0.( +.( s 7.I.I.I.OXOX$ 3.OXOXOXOXOXOXOXOXOXOXOXOXOXOXOXOXOXOXOXOXOXOX",
"OXOXOXOXOXOXOXOXOXOXOXOXOXOXOXOXOXOXOXOXOXOXOXOXOXOXq.V.T.h.( ! L P k.k.a.z.s.OX$ 3.OXOXOXOXOXOXOXOXOXOXOXOXOXOXOXOXOXOXOXOXOXOX",
"OXOXOXOXOXOXOXOXOXOXOXOXOXOXOXOXOXOXOXOXOXOXOXOXOXOXz.T.T.V.} ..{ *.k.R.T.z.OXOX$ 3.OXOXOXOXOXOXOXOXOXOXOXOXOXOXOXOXOXOXOXOXOXOX",
"OXOXOXOXOXOXOXOXOXOXOXOXOXOXOXOXOXOXOXOXOXOXOXOXOXp.R.R.T.r.] F.&.k.a.R.T.z.OXOX$ 3.OXOXOXOXOXOXOXOXOXOXOXOXOXOXOXOXOXOXOXOXOXOX",
"OXOXOXOXOXOXOXOXOXOXOXOXOXOXOXOXOXOXOXOXOXOXOXOXOXV.V.V.h.( Q H.&.U 8.k.V.z.OXOX$ 3.OXOXOXOXOXOXOXOXOXOXOXOXOXOXOXOXOXOXOXOXOXOX",
"OXOXOXOXOXOXOXOXOXOXOXOXOXOXOXOXOXOXOXOXOXOXOXOXp.V.k.o...{ v.#.+.a G { R >.V.OX$ 3.OXOXOXOXOXOXOXOXOXOXOXOXOXOXOXOXOXOXOXOXOXOX",
"OXOXOXOXOXOXOXOXOXOXOXOXOXOXOXOXOXOXOXOXOXOXOXOXOXV.$.@.| +...Q +._ Q ! n.#.k.OX$ 3.OXOXOXOXOXOXOXOXOXOXOXOXOXOXOXOXOXOXOXOXOXOX",
"OXOXOXOXOXOXOXOXOXOXOXOXOXOXOXOXOXOXOXOXOXOXOXOXOXh.c.` ` &.b ..&.l ~ ! F.X.9.p.$ 3.OXOXOXOXOXOXOXOXOXOXOXOXOXOXOXOXOXOXOXOXOXOX",
"OXOXOXOXOXOXOXOXOXOXOXOXOXOXOXOXOXOXOXOXOXOXOXOXOXw.n.( _ 4.S (.^.1 H R n.` u.f.$ 3.OXOXOXOXOXOXOXOXOXOXOXOXOXOXOXOXOXOXOXOXOXOX",
"OXOXOXOXOXOXOXOXOXOXOXOXOXOXOXOXOXOXOXOXOXOXOXOXw.[ H...( 8.m :.:., Y ;.n.+.9.7.$ 3.OXOXOXOXOXOXOXOXOXOXOXOXOXOXOXOXOXOXOXOXOXOX",
"OXOXOXOXOXOXOXOXOXOXOXOXOXOXOXOXOXOXOXOXOXOXOXOXr.( ..k. .L 7 #   % L N.c.%.M H x.5.OXOXOXOXOXOXOXOXOXOXOXOXOXOXOXOXOXOXOXOXOXOX",
"OXOXOXOXOXOXOXOXOXOXOXOXOXOXOXOXOXOXOXOXOXOXOXOX} ) L W.f.f q e 0 % 3 S.} ` p L x.U OXOXOXOXOXOXOXOXOXOXOXOXOXOXOXOXOXOXOXOXOXOX",
"OXOXOXOXOXOXOXOXOXOXOXOXOXOXOXOXOXOXOXOXOXOXOXp.^ / =.W.M.k D.S B f , Q.w.L E { # 2.OXOXOXOXOXOXOXOXOXOXOXOXOXOXOXOXOXOXOXOXOXOX",
"OXOXOXOXOXOXOXOXOXOXOXOXOXOXOXOXOXOXOXOXOXOXOXp.( ^ OXV.d.l S S x 0 3 Q.OXt.x.S.$ 3.OXOXOXOXOXOXOXOXOXOXOXOXOXOXOXOXOXOXOXOXOXOX",
"OXOXOXOXOXOXOXOXOXOXOXOXOXOXOXOXOXOXOXOXOXOXOXp.W Y OXk.g.I 4 e 6 2 p }.OXp.k.w.% 3.OXOXOXOXOXOXOXOXOXOXOXOXOXOXOXOXOXOXOXOXOXOX",
"OXOXOXOXOXOXOXOXOXOXOXOXOXOXOXOXOXOXOXOXOXOXOXr.! 9.7.Y T H < D x : :.:.-.h.OXOX$ 3.OXOXOXOXOXOXOXOXOXOXOXOXOXOXOXOXOXOXOXOXOXOX",
"OXOXOXOXOXOXOXOXOXOXOXOXOXOXOXOXOXOXOXOXOXOXOX} ..O.=.' } U , q 0 % N u O M k.w.$ 3.OXOXOXOXOXOXOXOXOXOXOXOXOXOXOXOXOXOXOXOXOXOX",
"OXOXOXOXOXOXOXOXOXOXOXOXOXOXOXOXOXOXOXOXOXOXOXf.f.[  .e.8.oX1 6.2.y = H s i U h.OXOXOXOXOXOXOXOXOXOXOXOXOXOXOXOXOXOXOXOXOXOXOXOX",
"OXOXOXOXOXOXOXOXOXOXOXOXOXOXOXOXOXOXOXOXOXOXOXw.d.] e.y.O.F $ V V u = R H s 5 ;.N.OXOXOXOXOXOXOXOXOXOXOXOXOXOXOXOXOXOXOXOXOXOXOX",
"OXOXOXOXOXOXOXOXOXOXOXOXOXOXOXOXOXOXOXOXOXOXk.N.y.j.j.e.} = < Z v O a H R R R U h.S.OXOXOXOXOXOXOXOXOXOXOXOXOXOXOXOXOXOXOXOXOXOX",
"OXOXOXOXOXOXOXOXOXOXOXOXOXOXOXOXOXOXOXOXOXOXS.M.S.B.y. .H O @ j c + u u R 8.R -.C.V.OXOXOXOXOXOXOXOXOXOXOXOXOXOXOXOXOXOXOXOXOXOX",
"OXOXOXOXOXOXOXOXOXOXOXOXOXOXOXOXOXOXOXOXOXp.S.W.|.Q.=.y K + 4 4 < ; a @ 3 T b.G.`.{.OXOXOXOXOXOXOXOXOXOXOXOXOXOXOXOXOXOXOXOXOXOX",
"OXOXOXOXOXOXOXOXOXOXOXOXOXOXOXOXOXOXOXOXOXS.{. X|.'.+ ~ s x g 1.A k L o + h x.[.[.A.].OXOXOXOXOXOXOXOXOXOXOXOXOXOXOXOXOXOXOXOXOX",
"OXOXOXOXOXOXOXOXOXOXOXOXOXOXOXOXOXOXOXOXp. X{..X).5.XXJ 6 w k A Z n P o   k C.[. X{. XS.OXOXOXOXOXOXOXOXOXOXOXOXOXOXOXOXOXOXOXOX",
"OXOXOXOXOXOXOXOXOXOXOXOXOXOXOXOXOXOXOXOXp. X X X3.I J o + c z v m v m = o 2 o.'.{.{. XN.OXOXOXOXOXOXOXOXOXOXOXOXOXOXOXOXOXOXOXOX",
"OXOXOXOXOXOXOXOXOXOXOXOXOXOXOXOXOXOXOXOXOXS. X XXX<.H + + $   . .   % = o 4 e.Z.{.{.{.w.OXOXOXOXOXOXOXOXOXOXOXOXOXOXOXOXOXOXOXOX",
"OXOXOXOXOXOXOXOXOXOXOXOXOXOXOXOXOXOXOXOXOXOXS.V.I M p 2 < C D % % S v d + @ j.B.M.M.OXOXOXOXOXOXOXOXOXOXOXOXOXOXOXOXOXOXOXOXOXOX",
"OXOXOXOXOXOXOXOXOXOXOXOXOXOXOXOXOXOXOXOXOXOXw.z.,.,.6 , @ @ @ @ @ ; + d = p B.S.g.h.OXOXOXOXOXOXOXOXOXOXOXOXOXOXOXOXOXOXOXOXOXOX",
"OXOXOXOXOXOXOXOXOXOXOXOXOXOXOXOXOXOXOXOXOXOXOXk.-.m.2.o o 8 @ o o @ < u a A Q.Q.S.OXOXOXOXOXOXOXOXOXOXOXOXOXOXOXOXOXOXOXOXOXOXOX",
"OXOXOXOXOXOXOXOXOXOXOXOXOXOXOXOXOXOXOXOXOXOXOXf.E.|.D.@ o + + % % + + o - 6.}.!.g.OXOXOXOXOXOXOXOXOXOXOXOXOXOXOXOXOXOXOXOXOXOXOX",
"OXOXOXOXOXOXOXOXOXOXOXOXOXOXOXOXOXOXOXOXOXOXOXOX|.|..Xq A 1.A x n <.A : < E.!.!.OXOXOXOXOXOXOXOXOXOXOXOXOXOXOXOXOXOXOXOXOXOXOXOX",
"OXOXOXOXOXOXOXOXOXOXOXOXOXOXOXOXOXOXOXOXOXOXOXOXY.~. X9 A : @ OXOX@ < , 7 N.!.U.J.u.OXOXOXOXOXOXOXOXOXOXOXOXOXOXOXOXOXOXOXOXOXOX",
"OXOXOXOXOXOXOXOXOXOXOXOXOXOXOXOXOXOXOXOXOXOXL.K.K.}. X< 2.; o OXOX+ > : , OX{.V.L.J.OXOXOXOXOXOXOXOXOXOXOXOXOXOXOXOXOXOXOXOXOXOX",
"OXOXOXOXOXOXOXOXOXOXOXOXOXOXOXOXOXOXOXOXOXOXL.L.OXOXOXq A , + OXOX, w , + OXOXOXOXP.OXOXOXOXOXOXOXOXOXOXOXOXOXOXOXOXOXOXOXOXOXOX",
"OXOXOXOXOXOXOXOXOXOXOXOXOXOXOXOXOXOXOXOXOXOXOXOXOXOXOXv k @ + OXOX, n q + OXOXOXOXOXOXOXOXOXOXOXOXOXOXOXOXOXOXOXOXOXOXOXOXOXOXOX",
"OXOXOXOXOXOXOXOXOXOXOXOXOXOXOXOXOXOXOXOXOXOXOXOXOXOXOXq n , + OXOXx 3.6 + OXOXOXOXOXOXOXOXOXOXOXOXOXOXOXOXOXOXOXOXOXOXOXOXOXOXOX",
"OXOXOXOXOXOXOXOXOXOXOXOXOXOXOXOXOXOXOXOXOXOXOXOXOXOXOX5 1.4 % OXOXz 1.c + OXOXOXOXOXOXOXOXOXOXOXOXOXOXOXOXOXOXOXOXOXOXOXOXOXOXOX",
"OXOXOXOXOXOXOXOXOXOXOXOXOXOXOXOXOXOXOXOXOXOXOXOXOXOXOX4 1.v % OXOXOX4 # . OXOXOXOXOXOXOXOXOXOXOXOXOXOXOXOXOXOXOXOXOXOXOXOXOXOXOX",
"OXOXOXOXOXOXOXOXOXOXOXOXOXOXOXOXOXOXOXOXOXOXOXOXOXOXOXS A @ OXOXOX+ f o OXOXOXOXOXOXOXOXOXOXOXOXOXOXOXOXOXOXOXOXOXOXOXOXOXOXOXOX",
"OXOXOXOXOXOXOXOXOXOXOXOXOXOXOXOXOXOXOXOXOXOXOXOXOXOXOXt n ; OXOXOX; 7 @ OXOXOXOXOXOXOXOXOXOXOXOXOXOXOXOXOXOXOXOXOXOXOXOXOXOXOXOX",
"OXOXOXOXOXOXOXOXOXOXOXOXOXOXOXOXOXOXOXOXOXOXOXOXOXOXOX* t q OXOXOX& r OXOXOXOXOXOXOXOXOXOXOXOXOXOXOXOXOXOXOXOXOXOXOXOXOXOXOXOXOX",
"OXOXOXOXOXOXOXOXOXOXOXOXOXOXOXOXOXOXOXOXOXOXOXOXOXOXOX& r f OXOXOXX * . OXOXOXOXOXOXOXOXOXOXOXOXOXOXOXOXOXOXOXOXOXOXOXOXOXOXOXOX",
"OXOXOXOXOXOXOXOXOXOXOXOXOXOXOXOXOXOXOXOXOXOXOXOXOXOXOXOX7 X OXOXOXX X . OXOXOXOXOXOXOXOXOXOXOXOXOXOXOXOXOXOXOXOXOXOXOXOXOXOXOXOX",
"OXOXOXOXOXOXOXOXOXOXOXOXOXOXOXOXOXOXOXOXOXOXOXOXOXOXOXOX0 X * OXOX. . OXOXOXOXOXOXOXOXOXOXOXOXOXOXOXOXOXOXOXOXOXOXOXOXOXOXOXOXOX",
"OXOXOXOXOXOXOXOXOXOXOXOXOXOXOXOXOXOXOXOXOXOXOXOXOXOXOXOXX r X OXOXOXOXOXOXOXOXOXOXOXOXOXOXOXOXOXOXOXOXOXOXOXOXOXOXOXOXOXOXOXOXOX",
"OXOXOXOXOXOXOXOXOXOXOXOXOXOXOXOXOXOXOXOXOXOXOXOXOXOXOXOX. X . OXOXOXOXOXOXOXOXOXOXOXOXOXOXOXOXOXOXOXOXOXOXOXOXOXOXOXOXOXOXOXOXOX",
"OXOXOXOXOXOXOXOXOXOXOXOXOXOXOXOXOXOXOXOXOXOXOXOXOXOXOXOXOXOXOXOXOXOXOXOXOXOXOXOXOXOXOXOXOXOXOXOXOXOXOXOXOXOXOXOXOXOXOXOXOXOXOXOX",
"OXOXOXOXOXOXOXOXOXOXOXOXOXOXOXOXOXOXOXOXOXOXOXOXOXOXOXOXOXOXOXOXOXOXOXOXOXOXOXOXOXOXOXOXOXOXOXOXOXOXOXOXOXOXOXOXOXOXOXOXOXOXOXOX",
"OXOXOXOXOXOXOXOXOXOXOXOXOXOXOXOXOXOXOXOXOXOXOXOXOXOXOXOXOXOXOXOXOXOXOXOXOXOXOXOXOXOXOXOXOXOXOXOXOXOXOXOXOXOXOXOXOXOXOXOXOXOXOXOX"
};
