/* XPM */
static char *player_up_1[] = {
/* columns rows colors chars-per-pixel */
"64 64 197 2 ",
"   c black",
".  c #070008",
"X  c gray3",
"o  c #100000",
"O  c None",
"+  c #180800",
"@  c #140808",
"#  c #101008",
"$  c #181008",
"%  c #0D0810",
"&  c #111010",
"*  c #171619",
"=  c #290501",
"-  c #210800",
";  c #210808",
":  c #291000",
">  c #211008",
",  c #291008",
"<  c #291808",
"1  c #311808",
"2  c #3B1808",
"3  c #221010",
"4  c #281810",
"5  c #3B1810",
"6  c #321F18",
"7  c #312110",
"8  c #392110",
"9  c #392918",
"0  c #252324",
"q  c #382D2A",
"w  c #420400",
"e  c #520000",
"r  c #520B00",
"t  c #520E08",
"y  c #4D1F0D",
"u  c #6B0000",
"i  c #6A0E09",
"p  c #7F0000",
"a  c #671C09",
"s  c #422110",
"d  c #422A10",
"f  c #4A2118",
"g  c #4A2918",
"h  c #523118",
"j  c #5E3118",
"k  c #642C0C",
"l  c #4A2921",
"z  c #523122",
"x  c #5F3121",
"c  c #583921",
"v  c #5C3E29",
"b  c #633921",
"n  c #713921",
"m  c #604421",
"M  c #6F4421",
"N  c #6B4429",
"B  c #764129",
"V  c #7A4A29",
"C  c #514C51",
"Z  c #8B0B00",
"A  c #8C0E08",
"S  c #940000",
"D  c #AD0000",
"F  c #B40E00",
"G  c #B60D08",
"H  c #8E2100",
"J  c #8C2308",
"K  c #8C2310",
"L  c #B62800",
"P  c #B52308",
"I  c #B62310",
"U  c #B72C1A",
"Y  c #C20000",
"T  c #CE0000",
"R  c #DA0C00",
"E  c #DD0D09",
"W  c #D61C0D",
"Q  c #EB0000",
"!  c #F70000",
"~  c red",
"^  c #F40D09",
"/  c #FF0808",
"(  c #FF100C",
")  c #FD180E",
"_  c #FF1D18",
"`  c #DA2A00",
"'  c #D62D0C",
"]  c #CE3D06",
"[  c #DC2A1B",
"{  c #EB220C",
"}  c #FD210F",
"|  c #EB3D03",
" . c #FF3E03",
".. c #F4291C",
"X. c #FF2D18",
"o. c #FF3D15",
"O. c #F33E19",
"+. c #FF2521",
"@. c #FF2E2C",
"#. c #FF3121",
"$. c #FF3D21",
"%. c #FF3D31",
"&. c #FF3E39",
"*. c #A34408",
"=. c #B94407",
"-. c #A2451D",
";. c #B9481D",
":. c #A86910",
">. c #814921",
",. c #8F4E2D",
"<. c #815929",
"1. c #805131",
"2. c #935D30",
"3. c #945F39",
"4. c #AE4C2C",
"5. c #B5602E",
"6. c #B16539",
"7. c #D05007",
"8. c #DE5A08",
"9. c #CE421C",
"0. c #CE561D",
"q. c #E84E03",
"w. c #E75A00",
"e. c #E75A08",
"r. c #FB5A04",
"t. c #FD4A13",
"y. c #E75710",
"u. c #E8521D",
"i. c #FE5614",
"p. c #D66911",
"a. c #F36305",
"s. c #F66E05",
"d. c #E76310",
"f. c #EF6B10",
"g. c #E76319",
"h. c #EF6318",
"j. c #EF6B18",
"k. c #F26310",
"l. c #FD671D",
"z. c #EF731F",
"x. c #F97210",
"c. c #F9731D",
"v. c #DA502B",
"b. c #F44F2B",
"n. c #FF4A2C",
"m. c #FD5021",
"M. c #EC503E",
"N. c #FF5731",
"B. c #FF5239",
"V. c #DB6B2D",
"C. c #C57D3C",
"Z. c #EF6A21",
"A. c #EF6F2B",
"S. c #FC732D",
"D. c #F77C29",
"F. c #E36E39",
"G. c #FE6731",
"H. c #FF6B39",
"J. c #EC7E37",
"K. c #F77F36",
"L. c #99664A",
"P. c #A96A42",
"I. c #FF4D42",
"U. c #FF534F",
"Y. c #E36F45",
"T. c #FF6C45",
"R. c #FF6B58",
"E. c #DD8306",
"W. c #FF8308",
"Q. c #EC9A05",
"!. c #FF9D00",
"~. c #FF8418",
"^. c #FF9C14",
"/. c #FFB400",
"(. c #FFB412",
"). c #FF8521",
"_. c #FF962E",
"`. c #FF8039",
"'. c #FF8C39",
"]. c #ED9738",
"[. c #FF9739",
"{. c #FEAC38",
"}. c #FECA0A",
"|. c yellow",
" X c #FFD435",
".X c #CC9E50",
"XX c #E8874D",
"oX c #FF8142",
"OX c #FF8C42",
"+X c #FF804D",
"@X c #FF9742",
"#X c #FF9F4F",
"$X c #F48C5E",
"%X c #FF9452",
"&X c #EEA062",
"*X c #F2BE64",
"=X c #FEC44E",
/* pixels */
"                                                                                                                                ",
"                                                                                                                                ",
"                                                                                                                                ",
"                                              <.|.                                                                              ",
"                                              m .X                                                                              ",
"                                              # 2.                                                                              ",
"                                              # 3.                                                                              ",
"                                              # 3.                                                                              ",
"                                              # 3.                                                                              ",
"                                              # 3.                                                                              ",
"                                              # 3.                                                                              ",
"                                              # 3.  d.                                                                          ",
"                                              # 3.            e.y.g.                                                            ",
"                                              # 3.w.        7.U 6.Y.g.    w.                                                    ",
"                                              # 3.w.  d.d.j.} @.) G *.d.                                                        ",
"                                              # 3.  f.x.x.z.X.U.+.E 0.f.                                                        ",
"                                              # 3.  x.~.).#XK.N.H.G.[._.x.w.                                                    ",
"                                              # 3.  f._._.[.[.H.N.A.[.'.D.c.                                                    ",
"                                              # 3.  D.[.@XA.V.H.B.;.0.[.[._.f.                                                  ",
"                                              # 3.  [.@X`.O.O.) +.) W 0.@X@XD.                                                  ",
"                                              # 3.[.m.N.S.N.n.R +.%.) n.b.V.'.h.                                                ",
"                                              # 3.@XU.$.N.H.U.Y ^ @.+.X.B.b.'.                                                  ",
"                                              # 3.J.B.X.$.B.R.T ..@.&.#.n.u.D.                                                  ",
"                                              # 3.A.+.W $.R.R.E _ &.+.) U.#.0.                                                  ",
"                                              4.3.m.@.' #.R.U.E ) &.&._ I.&.*.j.                                                ",
"                                            A.M.XXN.%.j.Z.#.U._ _ I.+.' O.I.G a                                                 ",
"                                            u.G.oXN.[ j.'.} %./ +.@./ f.h.} E i                                                 ",
"                                              J.oXn.O.D.@Xn.I._ &._ ( 8.    / D                                                 ",
"                                              @ XX+Xd.`.#XN.+XI.T.} X.V.    / R                                                 ",
"                                              $ 2.z.j.OX#X@X&X$XT.} E -.d.  q.) 7.                                              ",
"                                              # 3.j.0.(.=X=X=X$XR.T.$.W r J q.W ` e.                                            ",
"                                              # 3.j.U (.=X=X*X&.U.R.%.$.A t   u.8.                                              ",
"                                              ;.V.] { N.K. X X{.` B.n.m.$.P H 7.                                                ",
"                                              F.9.{ X.$.X.^.]..XL.9.O.X.m.O.L H                                                 ",
"                                            J.V.$.o.m.X.I % . n v 3 0 H | t.` '   d.                                            ",
"                                            A.K.m.m.m.J q O + F r 9 , 0 ' | t.` 8.d.                                            ",
"                                            K.J.i.G.u.> > 8 h | P $ $ O + ] t.| H j.                                            ",
"                                            `.K.S.A.k > O + H  .P : o o O y *.P J z.                                            ",
"                                            '.`.D.i.k + + 1 L t.' w O . . y L L J z.                                            ",
"                                            OXK..XU D G R 6.| [. .i f u e e 1 -.L g.                                            ",
"                                            D.l.P.T ! ~ ~ C.{ @Xi.a j Z S p = >.L 8.                                            ",
"                                            z.j.G W U ~ ~ ,.| #Xk.J c D Y P.= y =.                                              ",
"                                            Z.f.T Q ~ ~ ^ ,. .{.x.H 8 S T T w - 7.                                              ",
"                                              z.E { D G ,.>.r. X~.L m t ! S A : 7.                                              ",
"                                              x.R V.u K 4.5.a.=X^.=.M n ~ e -.2 d.                                              ",
"                                            f.Q.U [.D f a V.s. X^.=.,.x ~ p J.; p.p.                                            ",
"                                        Q.!.Q.'.v.z.u B n k W. X(.:.y 2 p e '.,.^.E.E.                                          ",
"                                              j.K.  o 3.V g E. X(.*.d > O O Z.%X    Q.                                          ",
"                                                    < 1.s ,.:.}.}.k m 7 O $                                                     ",
"                                                    > m s j k }.(.d c N O $                                                     ",
"                                                      m z 5 > }./.O O V O                                                       ",
"                                                      3.1.s + }.}.  O M O                                                       ",
"                                                      V 2.1 O L a O * b o                                                       ",
"                                                      b M 5 +     0 X j O                                                       ",
"                                                      h n 6 O     & 0 j O                                                       ",
"                                                      M M * X     X X m $                                                       ",
"                                                      c M C &     . . l .                                                       ",
"                                                      q q             * .                                                       ",
"                                                      4 6           X q .                                                       ",
"                                                      * q           . X .                                                       ",
"                                                      q C .                                                                     ",
"                                                                                                                                ",
"                                                                                                                                ",
"                                                                                                                                "
};
