/* XPM */
static char *portal_open_8[] = {
/* columns rows colors chars-per-pixel */
"64 64 208 2 ",
"   c #030103",
".  c black",
"X  c #040100",
"o  c #070100",
"O  c #060300",
"+  c #040003",
"@  c #000400",
"#  c #060500",
"$  c #070700",
"%  c #0B0200",
"&  c #0A0500",
"*  c #0C0400",
"=  c #0E0700",
"-  c #0E0900",
";  c #120100",
":  c #100600",
">  c #130600",
",  c #190600",
"<  c #120900",
"1  c #130900",
"2  c None",
"3  c #1B0900",
"4  c #1D0900",
"5  c #1D0A00",
"6  c #190D00",
"7  c #190E00",
"8  c #1D0D00",
"9  c #210300",
"0  c #250700",
"q  c #200800",
"w  c #200F00",
"e  c #230F00",
"r  c #240D00",
"t  c #2C0900",
"y  c #290E00",
"u  c #2C0D00",
"i  c #310600",
"p  c #390400",
"a  c #330B00",
"s  c #3B0900",
"d  c #390F00",
"f  c #271000",
"g  c #261400",
"h  c #2B1700",
"j  c #2E1A00",
"k  c #301000",
"l  c #301200",
"z  c #321300",
"x  c #3C1200",
"c  c #391500",
"v  c #3A1500",
"b  c #381700",
"n  c #331D00",
"m  c #3F1800",
"M  c #3A2000",
"N  c #420700",
"B  c #4D0700",
"V  c #460B00",
"C  c #4B0D00",
"Z  c #550C00",
"A  c #411100",
"S  c #431600",
"D  c #441400",
"F  c #461600",
"G  c #4E1000",
"H  c #441B00",
"J  c #521100",
"K  c #501400",
"L  c #5C1000",
"P  c #5E1100",
"I  c #5C1200",
"U  c #581E00",
"Y  c #5D1F00",
"T  c #5E1F00",
"R  c #690800",
"E  c #7A0700",
"W  c #730D00",
"Q  c #651400",
"!  c #6C1200",
"~  c #631F00",
"^  c #6C1F00",
"/  c #751B00",
"(  c #7F1C00",
")  c #7E1D00",
"_  c #402400",
"`  c #4B2000",
"'  c #472900",
"]  c #4D2C00",
"[  c #552200",
"{  c #532F00",
"}  c #592C00",
"|  c #593200",
" . c #5F3600",
".. c #692C00",
"X. c #702100",
"o. c #722200",
"O. c #742500",
"+. c #7D2200",
"@. c #7D2300",
"#. c #663900",
"$. c #673900",
"%. c #6F3E00",
"&. c #7C3300",
"*. c #5C4400",
"=. c #764200",
"-. c #7D4000",
";. c #784D00",
":. c #810B00",
">. c #9B0B00",
",. c #821600",
"<. c #831900",
"1. c #921A00",
"2. c #951B00",
"3. c #810012",
"4. c #B70D00",
"5. c #A41400",
"6. c #AD1600",
"7. c #AE1900",
"8. c #802200",
"9. c #842200",
"0. c #8B2500",
"q. c #982500",
"w. c #873C00",
"e. c #993A00",
"r. c #A32900",
"t. c #A12D00",
"y. c #AA2A00",
"u. c #BC2700",
"i. c #B72900",
"p. c #B42A00",
"a. c #A43900",
"s. c #CE0A00",
"d. c #D10800",
"f. c #C71700",
"g. c #E51200",
"h. c #C82D00",
"j. c #DC2000",
"k. c #DD2400",
"l. c #DC3000",
"z. c #DE3700",
"x. c #F12000",
"c. c #FF2C09",
"v. c #E63200",
"b. c #EC3900",
"n. c #FF3902",
"m. c #824900",
"M. c #8C4F00",
"N. c #9A4E00",
"B. c #855600",
"V. c #945400",
"C. c #9E5900",
"Z. c #B64400",
"A. c #B94E00",
"S. c #A85900",
"D. c #A85F00",
"F. c #B56600",
"G. c #A17200",
"H. c #C34700",
"J. c #DE4000",
"K. c #D55A00",
"L. c #E85700",
"P. c #FF4012",
"I. c #FF441B",
"U. c #D16600",
"Y. c #C07000",
"T. c #CE7400",
"R. c #DC7D00",
"E. c #FF6B05",
"W. c #FF680C",
"Q. c #FF5120",
"!. c #FF5839",
"~. c #FF6F39",
"^. c #FF6049",
"/. c #FF6D4A",
"(. c #FF7543",
"). c #FF7655",
"_. c #B78A00",
"`. c #C79B00",
"'. c #FF8907",
"]. c #F19200",
"[. c #DCAF00",
"{. c #E8B400",
"}. c #FF8447",
"|. c #FF864D",
" X c #FF8F53",
".X c #FF8E63",
"XX c #FF8469",
"oX c #FF947D",
"OX c #FFA270",
"+X c #FFAA7C",
"@X c #FF9D82",
"#X c #FF9C8A",
"$X c #FFB188",
"%X c #FFB4A1",
"&X c #FFCC85",
"*X c #FFCB94",
"=X c #FFC5AC",
"-X c #FFD3B8",
";X c #FFE8AA",
":X c #FF96FF",
">X c #FFD5D0",
",X c #FFD2D9",
"<X c #FFE8C6",
"1X c #FFF4CC",
"2X c #FFEBD4",
"3X c #FFF7EF",
"4X c #FFFEFA",
"5X c white",
/* pixels */
"                                                                                                                                ",
"                                                                                                                                ",
"                                                                                                                                ",
"                                                                                                                                ",
"                                                                                        ~ ~ [ F                                 ",
"                                                                                s Y [ k W.1X;X/.Z.+.                            ",
"                                                                            z +.J..Xf Y '.4X;X4X1X&XQ                           ",
"                                                                        k D J.h.OXb.& G 3.B $X$X}.! A                           ",
"                                                                      q x Q X.Z L < e G 1.s.p 3.; +.A                           ",
"                                                                      8 f x c e l H S C i.Z $X* 8 O.1.1.b.                      ",
"                                                                      q a a l 9 O * i 4 ( @Xa r r a +. X@X2.                    ",
"                                                                    t q : . . 1 2 C ! m a.Q M ; 1 k ~ &X(.5XC                   ",
"                                                                    - a F k r.t : G 0 l z l 1...q . I l.4X+X5XC                 ",
"                                                                    + * t G (.6.& y.0 l ;.1 9 ! 0 . s X.+X*X3X+XJ               ",
"                                                                    1 & - * W i * v c ] 5X;.a n.m . C F @.I.-X5Xc.              ",
"                                                                    @ 2 2 u % < X y / ;.[.`.P ,.M . r v s @.4.,X X              ",
"                                                                  $ 9 0 v ^ e.V.X = H j G.B.r c w . . t d F *.6.x.              ",
"                                                                  $ 0 f ^ t.e._ _ X 6 e < 6 4 c : 2 2 . 8 F s E ,               ",
"                                                                  # 9 v [ q.A.R.{.].< l e c ^ J . %.2 1 2 & o & 2               ",
"                                                                    . 8 U -.R.].F.#.h < 4 4 y c n Y.R.a q N F p.~ J             ",
"                                                                  $ r D c S H M %.D.Y.C. . .V.].].V.< - G X.y.5X(.P             ",
"                                                                  $ 6 v o.Q ^ m.M. .h { R.].R.C.> . #.+ 1 R v.5X@XC             ",
"                                                                  $ 6 k v Q o.7 = n F.R.C. .=.%.| =.< 1 1 5 B !.( C             ",
"                                                                  $ - i I ~ G g M.R.D.{ j M.] % = j j < @ 2 ; V e               ",
"                                                                  $ 2 5 x Y w.C.C.g w < X . . Y.].< 7 $ 9 x X.g.>X&.            ",
"                                                                  $ : - v U ` g % % . % X m.[.=.< n { $ 0 F i.>X5X^.            ",
"                                                                    $ $ 6 6 * X = =.V.=.M.%.w %  .] =.# 9 v a.#X Xy.            ",
"                                                                  1 L d z d a =.T.T.M.%.n = _ j %.] M =.. 8 z N (               ",
"                                                                  @ p r.r.h.U.R.Y.m.] w n = < =.=.V. .$ r F t v 4.)             ",
"                                                                s ; f d Y H.S.V. .=. .% X n %.D.D. .M $ 6 v o.Z.2XK.            ",
"                                                                r r . % w ` } V.C.X = g _ %.Y.M. . ._ $ 6 k D r.3XQ.            ",
"                                                              & @ ; p X.&.~.E...& _  .| =.C.%.%.=. .m.$ - i L p.5X1.            ",
"                                                              & # & . i a.8.:.S w.N.-.m. .M =.%. .C.m.$ 2 5 p r. X7.            ",
"                                                          :XO B.[.' , - s c K e.a.h.e.J ` =.' ] D.=. .$ : - f @.v.A             ",
"                                                          :XO _.5X`._ - 1.U I ,.P.z.P.u.e./ } m.] M n 0 # $ - - B               ",
"                                                          X < G._._.. 1 O.b < r D f./.Q.i.J.b.D c } | l L F I ( #X..            ",
"                                                          & w ] B.3 , V % b 0.T < 2 v 6.P./.>.1.0.w.$.# d p.(.-X5XW.            ",
"                                                          > q . . . 1 7 <.K = A ) ) w > k 5.x.|.H.<.9 ; f F i.^.W.1.            ",
"                                                            F 0 0 q d w < K 0.^ < e ) ) b & z 6.x.,.s r . . . i ! <X/.s.        ",
"                                                                0 2 ,.) ^ y % A 2.) e < P 9.j . : v Z ; x p.L.2X5XZ.( ^.        ",
"                                                                    % < H ) 9.K % e <.0.b % e H A . r . ; Z d.d.d.~ oX%X        ",
"                                                                        % . < 0.q.^ = < ^ 2.3 . < K a O V t s P ( j.=X@X        ",
"                                                                              o < ^ q.) e % U A . * ;.[.;.9 f 5 r.).OX(.        ",
"                                                                                  o % S q.2.3 . c : _.5X`.' f ( #X/.+XL.        ",
"                                                                                      o o w q.A J . G._.[.. q c.I.%Xx.          ",
"                                                                                            o % a % 3 B. .k ( -XXX!.            ",
"                                                                                                i t . . . 9 j.XXk.              ",
"                                                                                                  a i s D 1 @.u.                ",
"                                                                                                      r r & o.                  ",
"                                                                                                          r                     ",
"                                                                                                                                ",
"                                                                                                                                ",
"                                                                                                                                ",
"                                                                                                                                ",
"                                                                                                                                ",
"                                                                                                                                ",
"                                                                                                                                ",
"                                                                                                                                ",
"                                                                                                                                ",
"                                                                                                                                ",
"                                                                                                                                ",
"                                                                                                                                ",
"                                                                                                                                ",
"                                                                                                                                "
};
