/* XPM */
static char *result[] = {
/* columns rows colors chars-per-pixel */
"45 45 241 2 ",
"   c #00D900100010",
".  c #0B4700100005",
"X  c #00000B790B82",
"o  c #140300130004",
"O  c #1C7800310014",
"+  c #23FE00D70060",
"@  c #2C0E0102002F",
"#  c #286E0AFC058E",
"$  c #2CAB0AD70AD2",
"%  c #33D50128004B",
"&  c #3B5701D7005A",
"*  c #3BD1098F03DF",
"=  c #32630D670B65",
"-  c #38100C6C0816",
";  c #3A59165807BE",
":  c #3BC4146A0D90",
">  c #2D7E16DF165B",
",  c #32B717591480",
"<  c #44400254003A",
"1  c #4BF901B40057",
"2  c #43FE0AF40262",
"3  c #4BF50AEF0212",
"4  c #43870D8B0B35",
"5  c #53FC0171007E",
"6  c #5B9401780070",
"7  c #53220C3C015A",
"8  c #5A860C0001C4",
"9  c #5A840F5907FE",
"0  c #474E1456048A",
"q  c #435E138B0B73",
"w  c #4B4E14660AE2",
"e  c #4B6119EB0D11",
"r  c #538813E50422",
"t  c #5BE613850273",
"y  c #5D421B3105B5",
"u  c #57BA17D60967",
"i  c #53071A1F0BA9",
"p  c #453C1BD212B8",
"a  c #4AE81CAF135D",
"s  c #48371AD5153B",
"d  c #584A1DBF15D4",
"f  c #63F900F90051",
"g  c #6BBF018C0081",
"h  c #63720BA7015F",
"j  c #6CFB0B3602BA",
"k  c #73B401CC0067",
"l  c #7B25010B004F",
"z  c #727D09BD01D4",
"x  c #7D290AAA0436",
"c  c #650814280480",
"v  c #6B001720068C",
"b  c #64CA1BEE04A0",
"n  c #62701DFF0BC7",
"m  c #78EC17AF0545",
"M  c #500B220F0056",
"N  c #4B6221D916BD",
"B  c #475822151976",
"V  c #53B821551418",
"C  c #5A7A2453131E",
"Z  c #54BC290D190F",
"A  c #5A44297E1865",
"S  c #5C3231841CE4",
"D  c #67D929A70401",
"F  c #636623DB0C58",
"G  c #6CA223E60BB0",
"H  c #76B927570887",
"J  c #747924AF0B23",
"K  c #724C384B0000",
"L  c #61E7261E14F7",
"P  c #672C28F71625",
"I  c #6B342D171ACE",
"U  c #73802BBC116E",
"Y  c #6D9B30811675",
"T  c #63BD33611D0B",
"R  c #77CA34EC1BA9",
"E  c #5C4D291F279E",
"W  c #5C3236B6225E",
"Q  c #5C363A7D25EA",
"!  c #65AC2C92213C",
"~  c #62D835A620E5",
"^  c #6B9632EB23E4",
"/  c #64B13A4E23C0",
"(  c #6B983B15247F",
")  c #6E7337702C06",
"_  c #73BE3AD42348",
"`  c #78C83A81274C",
"'  c #739136672C59",
"]  c #7EFE46BF0079",
"[  c #710A41162BB7",
"{  c #7B294739346A",
"}  c #79F1485544E9",
"|  c #8466022B00E9",
" . c #8BE6027900DA",
".. c #82120C9B02EB",
"X. c #8A7B0A400369",
"o. c #8EB0096D09A6",
"O. c #94130344018E",
"+. c #9B0804100237",
"@. c #946C0AED03DC",
"#. c #9C5C0AA304F6",
"$. c #94A50C190910",
"%. c #87A51424063A",
"&. c #949E14AE044A",
"*. c #9AD01429066A",
"=. c #9C0C1BB70388",
"-. c #A3F9050F0336",
";. c #AC1E051403AB",
":. c #A3BA0ACC04E8",
">. c #AD4609650519",
",. c #A6180BC908C0",
"<. c #B46A0A3A068E",
"1. c #B85C0977046B",
"2. c #B3230B050968",
"3. c #BCE00C4D09F6",
"4. c #A66D17C90767",
"5. c #B6B0162C07CA",
"6. c #BBEF14480A6D",
"7. c #B521191D124F",
"8. c #856B277D0909",
"9. c #973A26600831",
"0. c #898A3B2E00AD",
"q. c #91F83A6800FB",
"w. c #85832C9814BE",
"e. c #880B3683185D",
"r. c #9117390315D7",
"t. c #A84F291A08F4",
"y. c #B76B263B00F7",
"u. c #A68832680412",
"i. c #B9C3342D00D5",
"p. c #ABD320741052",
"a. c #B9CE26A91421",
"s. c #817B3D9327BF",
"d. c #C48D0773071F",
"f. c #C2EF0CED0B6C",
"g. c #C40F10F00D0A",
"h. c #C85D14BB0D7C",
"j. c #CFEE0E6A105A",
"k. c #C4F71C2213EC",
"l. c #CCBE17CC13EF",
"z. c #D43F13AC12E4",
"x. c #DC74179615C1",
"c. c #D6781BDC150C",
"v. c #DB911CA01AD2",
"b. c #E4151AE81A89",
"n. c #ED9F1AEC1DB5",
"m. c #C85D26FF0795",
"M. c #DB2F2CE50718",
"N. c #C43B36E205D5",
"B. c #CC5232060178",
"V. c #DB73371E018D",
"C. c #D3643AAB028B",
"Z. c #C6D7287D12C0",
"A. c #D6BB2568180E",
"S. c #C90F355D108E",
"D. c #D5EA3EB01BDA",
"F. c #E90F38B403E6",
"G. c #E99C38421237",
"H. c #F4551D82214F",
"J. c #D445396A2673",
"K. c #EB12292C251C",
"L. c #F54F253724BD",
"P. c #EF5738472F94",
"I. c #93B84BC009AE",
"U. c #B2BE497D08AE",
"Y. c #A94C6E410144",
"T. c #B53078B10009",
"R. c #883143382737",
"E. c #96F64DFA2B39",
"W. c #860F48A23935",
"Q. c #8A38551A3BB5",
"!. c #A5EA631E3042",
"~. c #C60C43E90000",
"^. c #CD7A43810060",
"/. c #CD414B3D0053",
"(. c #C8904876070A",
"). c #D3C1430501DA",
"_. c #D91B496602E6",
"`. c #D2B7538D0001",
"'. c #DC3F53CE0082",
"]. c #DCDF5C700120",
"[. c #CF394CAD1ABA",
"{. c #E75845E60AEE",
"}. c #E2CA52E20326",
"|. c #E47E5CC30049",
" X c #EB975BCC003E",
".X c #F2A55E8D0000",
"XX c #F09952150FBF",
"oX c #D9CF62BE0A83",
"OX c #E25D623E0019",
"+X c #EB8B64850034",
"@X c #E68D69BF00F2",
"#X c #EC8F6DB10000",
"$X c #F207652D00B6",
"%X c #F3F66D660096",
"&X c #ECD975360016",
"*X c #FB7F73AE02F7",
"=X c #FB4C7BB20203",
"-X c #F8D878DD03A7",
";X c #DB57545025F3",
":X c #F78152F6271C",
">X c #EE7547C537DC",
",X c #F14B4E972FE3",
"<X c #F9A165893AEE",
"1X c #F7A27AA434E3",
"2X c #81504D544278",
"3X c #8C3B59084BE2",
"4X c #8F155AFC5418",
"5X c #9AE26AEE52AA",
"6X c #A7FB7614536F",
"7X c #9B626F14615B",
"8X c #A30777487382",
"9X c #FD6F56764143",
"0X c #FBD47889455C",
"qX c #B8C882440074",
"wX c #C15788020000",
"eX c #D0788CF3005A",
"rX c #E9D2895D01F8",
"tX c #FC3184B306E3",
"yX c #FF1B8C5C0A09",
"uX c #FAE59AAC0675",
"iX c #FFFF943E0A0A",
"pX c #FEAA8A21128F",
"aX c #FFFF95951010",
"sX c #FF1D9E0D1EF9",
"dX c #DA29B5D80000",
"fX c #FD75A7190065",
"gX c #FF8EAE5F1104",
"hX c #FB7689562E33",
"jX c #FF1DAF1029FB",
"kX c #EBBCCFCC006C",
"lX c #F664E52A0086",
"zX c #FF69FB740000",
"xX c #B48490486F73",
"cX c #FFFF90314853",
"vX c #FEABACC140DD",
"bX c #C6519D3869FF",
"nX c #FF8EC56C552B",
"mX c #BAE7A9988EFF",
"MX c #C6CFA65E8D03",
"NX c #D677D877B0A4",
"BX c #EF5DFB16E7BF",
/* pixels */
"W S T A C V 4 C L d ! d d V C C T T ( T T T / ( [ _ C a I L L W.I ) ! ' ` s.s.R.R. X+XC.].",
"W T S N 0 A w ) ' ` W.2X} E A / T T T [ / Q / [ [ E E a d 3XW.MXxX7X2X8X2XG ` ` R._.~.i./.",
"Q S d i * i 3 P U G U R.7X4X[ ^ S S / / / / / [ N a I W.I 7X7XmX8XW.! 4X2Xn R R E./.~.~.`.",
"W q & % @ @ * 7 t b G J s.R.5XY A S S T / / ( E - 3 c ' 2X{ 3X4X^ 3 < 7 9 G e.` R.@X@X].`.",
": @ + . o + o + 7 r y F U J e.T [ F F h z x m 6 9 ' P w ` ' I R t % 2 & & t b J R.aXtX-X`.",
"= o . o + + o O + * r Y s.w.F T Q.Y f | ,.-. .j 4 P ' ! L L 2 3 7 1 7 < 2 3 2 J E.iXiXiX%X",
"$ O @ @ @ % @ o . O q W.s.r.F R { R %.-.l.f.+.z q % a 3X! 0 + @ t 3 y < & 3 F H m yX=X=XOX",
"$ % % @ @ & O o . . q P Y I u r.U R 5.6.M.x.d.#.0 0 2 s L 2 & @ t 7 2 @ * t y b m =X&X'.~.",
": & & & % @ + + o o 2 < 0 i G v D 8.5.m.{.G.A.).b q w & y t 3 * 2 & + % r t F U 8.-X#XN.^.",
"4 5 < & % o + + . o O o + V i 3 F 8.4.i.tX%XXX}.i.2 q 3 2 2 3 @ @ O + % 1 G J H m #X@XU.~.",
"4 5 < % % + O o   . . . + 5 7 8 D u.4.`.fXfX$X{.A.&.* 3 * @ < o o + O @ 1 b J w.H +X@X`.OX",
"q 7 < % @ @ O o = & < 5 g | +.=./.y.y.'.OXOX%X{.A.c.r.Y U * . O 3 7 * + & t J U 8.&X@X&X%X",
"q 3 < & % + % q C 6 6 k | +.;.1.m.).N.B.B.m._.F.m.m.[.6XQ.q % 1 c F r @ @ 2 G r.r.-X#XtX=X",
"s r % % % % 2 N u 5 g | 3.m.m.5.y.).6.k.G.G.x.c.N.y.U.[.w.z k 6 z n - @ % 2 F R.E.iXyXiXtX",
": 1 % @ & % % N 6 f l +.3.h.h.g.<.<.g.A.D.A.z.z.m.(.i.u.=.g 5 1 l m q + % < v E.!.aXiXtXtX",
"$ & % % & % % a l l l O.<.3.d.3.f.g.1.1.Z.S.m.3.g.N.`.u.&.l 5 5 l %.C + o @ 9 E.!.iXiX%X=X",
": % % < & % % d #. .| O.2.3.3.1.1.g.k.J.;XoX[.6.<.<.:.4.@.k 5 f | %.~ C + @ 2 s.6XyX=X*XtX",
"xX_ % < % + $ d :.+. .O.2.j.1.;.>.>.5.Z.[.S.>.1.<.;.+.O.O.l 6 f | m d n @ @ 7 W.xXtX=XyXiX",
"BXxX* % @ % # a :.-.+.+.f.x.z.f.g.f.z.,X1XXXv.K.J.j.-.;.-.| g g | m y t 2 + % Y bX*XyXyX=X",
"NXxX4 @ @ X.r q @.;.O.O.l.K.H.n.n.n.L.L.L.K.v.n.P.L.x.b.3.| l l l v 9.9.n + O + w %X*X*X.X",
"mXxX2 @ % &.y.q  .;.l | j.P.0X,Xz.z.H.b.z.P.A.3.P.:XL.v.#.| l k z &.t.%.H 2 % + . $X+X X).",
"5XQ.3 2 2 5 ..5 l +.k 6 +.A.9X<Xg.b.P.l.,.,X<Xv.:X[.$.f l | l g l | 6 f v 0 % 3 @ '.]. X^.",
"Y U 3 2 2 1 6 < k | g g g  .2.l.z.>XJ.j.+.J.<Xl...< @ 6 | l g g 1 | l k 8 t @ & 1 `.|. X_.",
"q y 1 5 * i 6 1 g l k l l 6 1 & j J.Z.v.,.o.=.1 o @ 6 l g f f f 1 @.#.j F m 2 & < ^.|.+XOX",
"q 3 & 1 0 W c 1 < l l g 0.I.D 0 # 5 g 7.o.< 2 M K q.Y.qXI.j g f 5 f l c H m t % < N./.$XyX",
"$ & < & a ~ n < @ f g m dXlXkXdXT.r 1 | l 6 h T.kXlXzXlXT.v f g 6 g l U w.8.j @ % `.OXpXgX",
"# @ @ & N / 9 5 f O.| #.eXkXlXkXqXv f l l 5 h I.wXwXT.U.t.| l g f k c U H H %.m 6 '.*XsXaX",
": 3 2 2 Z Q d < X.3.3.2.>.=.9.v c z f | O.l f j x g g @.l.3.| 5 5 f F L v v m 5.F.].%XaX=X",
"i 7 w N s Z E % 6 >.b.9X;X7.p.p.4.l l O.f.;.k -.l.Z.;X9X:Xz.+.5 1 6 L P U 8 ..}.uX*XhXiXyX",
"B p a a : s N 5 & $.L.9XcXcX0XhXZ.O.| <.b.2. .2.z.,XhX1X[.1.| 5 7 A ~ ~ ^ 8.'.rX&XjXjX=XyX",
"> $ p p = = B 8 < l g.c.P.>X>Xa.| | | f.H.2.| | | &.&.X.l l g g L [ W ` U.@X`.=.+.nXnXtX=X",
"> = = = = p ~ a * | <.+.-.-.l 5 l -.| a.<XK.;.#.k 6 1 < < 5 l O.u W C p.M.{.V.m.M.nXvXsX*X",
"> $ = = a Z Z B q O.h.l g 1 1 $.-.@.+.[.cXP.,.6 | O.| | g g O.+...N.).C.$X XC.V.M.jXvXnXaX",
"> = = = p a p a q x g.+.| f +.v.l.8 5 ,.A.3.1 f A.k.5 g  . .| | @.F._.C.).5.O.#.$.jXvXnXjX",
"> = = : : p p s B j >.,.+.k | A.K.9.K 5 5 1 r q.6.x % &  .#.| g 1 l :.1.4.x 1 o o vXjXsXyX",
", = = a e = : u m f X.| +.$.f x X.m qX] - 4 D b 5 + 6 g +.:.g 5 k @ 5 O.1 .     . aXsX=XiX",
", * < X.X.3 g  .k o @ k l ,.$.6 * 0 ; M # # ; 0 D 3 o.-.,.@.1 6 6 . o f l 5 o .   %X=X=XyX",
"t./.).].OXC.| @ .     % g f ..| z H D H D D 0.9.m g 7.#.#.g & 1 o   o < f O.O.5 & ^.tXiXtX",
"S.-X=XuXrX=.1 o % .   . f f < 6 f l @.4.4.y.4.o.g *.k.| | 1 O .   . * % + f | -.d.y.%X*X].",
"4.7...r z f 1 + < o     @ f 6 6 k g h 6 5 6 5 6 &.k.p.g 6 o       + 1 o @ < @ f +.y._.'.N.",
"4 & o + k f 1 o O .     . & 6 6 %.&...5 + + 5 4.7.a.x 5 O       o 1 %   o o . g & ).}._.i.",
"X   + | l g f .         o % & 5 j 7.Z.p.2 o *.c.c.p.6 %         < < .       & 6 . .X X^.N.",
"X o l l 5 < & .         . % & + & %.l.A.8 @ 7.v.4.h & .       . @ o       o 5 @   $X_.5.i.",
"X % | % + . .           o & 1 & o & %.Z.j & 7.9.h @ o                   . < < .    XC.B.B.",
"  f l .                 1 6 % h 5 % @ 1 1 + < % . .                     . + o   . $XV.B.B."
};
