/* XPM */
static char *result[] = {
/* columns rows colors chars-per-pixel */
"64 64 230 2 ",
"   c black",
".  c #040100",
"X  c #070100",
"o  c #060300",
"O  c #040003",
"+  c #000400",
"@  c #060500",
"#  c #070700",
"$  c #0B0200",
"%  c #0A0500",
"&  c #0C0400",
"*  c #0E0700",
"=  c #0E0900",
"-  c #120100",
";  c #100600",
":  c #130600",
">  c #190600",
",  c #120900",
"<  c #130900",
"1  c #180900",
"2  c #1B0900",
"3  c #1D0A00",
"4  c #190D00",
"5  c #190E00",
"6  c #1D0D00",
"7  c #210300",
"8  c #250700",
"9  c #200800",
"0  c #200F00",
"q  c #230F00",
"w  c #240D00",
"e  c #2C0900",
"r  c #290E00",
"t  c #2C0D00",
"y  c #310600",
"u  c #390400",
"i  c #330B00",
"p  c #3B0900",
"a  c #390F00",
"s  c #271000",
"d  c #261400",
"f  c #2B1700",
"g  c #2E1A00",
"h  c #301000",
"j  c #321200",
"k  c #321300",
"l  c #3C1200",
"z  c #391500",
"x  c #3A1500",
"c  c #381700",
"v  c #331D00",
"b  c #3F1800",
"n  c #3A2000",
"m  c #420700",
"M  c #4D0700",
"N  c #460B00",
"B  c #4B0D00",
"V  c #5B0500",
"C  c #550C00",
"Z  c #411100",
"A  c #441400",
"S  c #461600",
"D  c #4E1000",
"F  c #441B00",
"G  c #521100",
"H  c #501400",
"J  c #5C1000",
"K  c #5E1100",
"L  c #5C1200",
"P  c #521F00",
"I  c #581E00",
"U  c #5D1F00",
"Y  c #5E1F00",
"T  c #690800",
"R  c #7A0700",
"E  c #730D00",
"W  c #651400",
"Q  c #6C1200",
"!  c #631F00",
"~  c #6C1F00",
"^  c #751B00",
"/  c #7F1C00",
"(  c #7E1D00",
")  c #402400",
"_  c #4B2000",
"`  c #472900",
"'  c #4D2C00",
"]  c #552200",
"[  c #532F00",
"{  c #592C00",
"}  c #593200",
"|  c #5F3600",
" . c #692C00",
".. c #702100",
"X. c #742500",
"o. c #7D2200",
"O. c #663900",
"+. c #673900",
"@. c #6F3E00",
"#. c #7C3300",
"$. c #5C4400",
"%. c #764200",
"&. c #7D4000",
"*. c #784D00",
"=. c #810B00",
"-. c #9B0B00",
";. c #821600",
":. c #831900",
">. c #991200",
",. c #921A00",
"<. c #951B00",
"1. c #810012",
"2. c #A70C00",
"3. c #B70D00",
"4. c #A41400",
"5. c #AD1600",
"6. c #AE1900",
"7. c #802200",
"8. c #842200",
"9. c #8B2500",
"0. c #982500",
"q. c #873C00",
"w. c #993A00",
"e. c #A32900",
"r. c #A12D00",
"t. c #AA2A00",
"y. c #BC2700",
"u. c #B72900",
"i. c #B42A00",
"p. c #A43900",
"a. c #CE0A00",
"s. c #D10800",
"d. c #C71700",
"f. c #E51200",
"g. c #FF1809",
"h. c #C82D00",
"j. c #DC2000",
"k. c #DD2400",
"l. c #F12000",
"z. c #FF2C09",
"x. c #E63200",
"c. c #EC3900",
"v. c #FF3902",
"b. c #FF3F03",
"n. c #FF2E21",
"m. c #824900",
"M. c #8C4F00",
"N. c #9A4E00",
"B. c #855600",
"V. c #945400",
"C. c #9E5900",
"Z. c #B64400",
"A. c #B94E00",
"S. c #A85900",
"D. c #A85F00",
"F. c #B56600",
"G. c #A17200",
"H. c #DE4000",
"J. c #DF5500",
"K. c #D55A00",
"L. c #FF5708",
"P. c #FF4012",
"I. c #FF441B",
"U. c #FF5A17",
"Y. c #C07000",
"T. c #CE7400",
"R. c #DC7D00",
"E. c #FF680C",
"W. c #F47500",
"Q. c #FF4B2D",
"!. c #FF5120",
"~. c #FF5839",
"^. c #FF752B",
"/. c #FF6F39",
"(. c #FF6E42",
"). c #FF6049",
"_. c #FF6D4A",
"`. c #FF7543",
"'. c #FF7655",
"]. c #B78A00",
"[. c #C79B00",
"{. c #FF8907",
"}. c #DCAF00",
"|. c #FF8447",
" X c #FF864D",
".X c #FF8F53",
"XX c #FF9655",
"oX c #FF9C54",
"OX c #FFA146",
"+X c #FFAB5B",
"@X c #FF8E63",
"#X c #FF8469",
"$X c #FF947D",
"%X c #FFA26A",
"&X c #FFA270",
"*X c #FFAA7C",
"=X c #FFB676",
"-X c #FFBC79",
";X c #FF9D82",
":X c #FF9C8A",
">X c #FFBA86",
",X c #FFB188",
"<X c #FFBA92",
"1X c #FFB4A1",
"2X c #FFC984",
"3X c #FFCC85",
"4X c #FFDE86",
"5X c #FFCE91",
"6X c #FFCB94",
"7X c #FFCAA2",
"8X c #FFC5AC",
"9X c #FFCAAF",
"0X c #FFD1A1",
"qX c #FFC8B5",
"wX c #FFD9B6",
"eX c #FFD3B8",
"rX c #FFEFA7",
"tX c #FFE8AA",
"yX c #FFEFBC",
"uX c #FF96FF",
"iX c #FFD5D0",
"pX c #FFD2D9",
"aX c #FFE8C6",
"sX c #FFF4CC",
"dX c #FFEBD4",
"fX c #FFF7EF",
"gX c #FFFCE9",
"hX c #FFFEFA",
"jX c white",
"kX c None",
/* pixels */
"kXkXkXkXkXkXkXkXkXkXkXkXkXkXkXkXkXkXkXkXkXkXkXkXkXkXkXkXkXkXkXkXkXkXkXkXkXkXkXkXkXkXkXkXkXkXkXkXkXkXkXkXkXkXkXkXkXkXkXkXkXkXkXkX",
"kXkXkXkXkXkXkXkXkXkXkXkXkXkXkXkXkXkXkXkXkXkXkXkXkXkXkXkXkXkXkXkXkXkXkXkXkXkXkXkXkXkXkXkXkXkXkXkXkXkXkXkXkXkXkXkXkXkXkXkXkXkXkXkX",
"kXkXkXkXkXkXkXkXkXkXkXkXkXkXkXkXkXkXkXkXkXkXkXkXkXkXkXkXkXkXkXkXkXkXkXkXkXkXkXkXkXkXkXkXkXkXkXkXkXkXkXkXkXkXkXkXkXkXkXkXkXkXkXkX",
"kXkXkXkXkXkXkXkXkXkXkXkXkXkXkXkXkXkXkXkXkXkXkXkXkXkXkXkXkXkXkXkXkXkXkXkXkXkXkXkXkXkXkXkXkXkXkXkXkXkXkXkXkXkXkXkXkXkXkXkXkXkXkXkX",
"kXkXkXkXkXkXkXkXkXkXkXkXkXkXkXkXkXkXkXkXkXkXkXkXkXkXkXkXkXkXkXkXkXkXkXkXkXkXkXkXkXkXkXkX! ! ] S kXkXkXkXkXkXkXkXkXkXkXkXkXkXkXkX",
"kXkXkXkXkXkXkXkXkXkXkXkXkXkXkXkXkXkXkXkXkXkXkXkXkXkXkXkXkXkXkXkXkXkXkXkXkXkXkXkXp U ] h E.sXtX_.Z.o.kXkXkXkXkXkXkXkXkXkXkXkXkXkX",
"kXkXkXkXkXkXkXkXkXkXkXkXkXkXkXkXkXkXkXkXkXkXkXkXkXkXkXkXkXkXkXkXkXkXkXkXkXkXk o.H.@Xs U {.hXtXhXsX3XW kXkXkXkXkXkXkXkXkXkXkXkXkX",
"kXkXkXkXkXkXkXkXkXkXkXkXkXkXkXkXkXkXkXkXkXkXkXkXkXkXkXkXkXkXkXkXkXkXkXkXh A H.h.&XH.1 J 1.T ,X,X|.Q Z kXkXkXkXkXkXkXkXkXkXkXkXkX",
"kXkXkXkXkXkXkXkXkXkXkXkXkXkXkXkXkXkXkXkXkXkXkXkXkXkXkXkXkXkXkXkXkXkXkX9 l W ..J Q j p R j.z.Q 2.7 7.Z kXkXkXkXkXkXkXkXkXkXkXkXkX",
"kXkXkXkXkXkXkXkXkXkXkXkXkXkXkXkXkXkXkXkXkXkXkXkXkXkXkXkXkXkXkXkXkXkXkX6 s l z i D :.;.,.I.-.9Xu p 9.,.,.c.kXkXkXkXkXkXkXkXkXkXkX",
"kXkXkXkXkXkXkXkXkXkXkXkXkXkXkXkXkXkXkXkXkXkXkXkXkXkXkXkXkXkXkXkXkXkXkX9 i i A D N M =.;.f.8XR E W D ,..X;X<.kXkXkXkXkXkXkXkXkXkX",
"kXkXkXkXkXkXkXkXkXkXkXkXkXkXkXkXkXkXkXkXkXkXkXkXkXkXkXkXkXkXkXkXkXkXe 9 ; & 3 M ;.k.g.d._.g.6.R J E t.3X`.jXB kXkXkXkXkXkXkXkXkX",
"kXkXkXkXkXkXkXkXkXkXkXkXkXkXkXkXkXkXkXkXkXkXkXkXkXkXkXkXkXkXkXkXkXkX= i S B f.Q ;.(.v.f.f.f.XXb.;.u =.x.hX*XjXB kXkXkXkXkXkXkXkX",
"kXkXkXkXkXkXkXkXkXkXkXkXkXkXkXkXkXkXkXkXkXkXkXkXkXkXkXkXkXkXkXkXkXkXO & y Q ;Xz.T $X4XyX2X>X XQ.-.M R >.*X6XhX*XG kXkXkXkXkXkXkX",
"kXkXkXkXkXkXkXkXkXkXkXkXkXkXkXkXkXkXkXkXkXkXkXkXkXkXkXkXkXkXkXkXkXkX< % < e 4.-.R f.jXjXjX0XQ.$Xy.M ,.Q ,.I.7XjXz.kXkXkXkXkXkXkX",
"kXkXkXkXkXkXkXkXkXkXkXkXkXkXkXkXkXkXkXkXkXkXkXkXkXkXkXkXkXkXkXkXkXkX+ 1 F w.p V 4.@XjXjXjX2XQ.Q.6.M C C S 7.3.pX*XkXkXkXkXkXkXkX",
"kXkXkXkXkXkXkXkXkXkXkXkXkXkXkXkXkXkXkXkXkXkXkXkXkXkXkXkXkXkXkXkXkX# 7 8 G P a r c./.(.<XyX%Xf.a.;.M y B l S $.5.l.kXkXkXkXkXkXkX",
"kXkXkXkXkXkXkXkXkXkXkXkXkXkXkXkXkXkXkXkXkXkXkXkXkXkXkXkXkXkXkXkXkX# 8 s ] ,.r.b : R 3.g.%X Xd.5.T W N - 9 S p R > kXkXkXkXkXkXkX",
"kXkXkXkXkXkXkXkXkXkXkXkXkXkXkXkXkXkXkXkXkXkXkXkXkXkXkXkXkXkXkXkXkX@ 7 x ] ;.B f ' [ R d.P./.v.d.M n p 7 1 % X % 1 kXkXkXkXkXkXkX",
"kXkXkXkXkXkXkXkXkXkXkXkXkXkXkXkXkXkXkXkXkXkXkXkXkXkXkXkXkXkXkXkXkXkX  6 k w  .%.V.V.%.T ;.y.,.;.5 ) D.y 9 m S i.! G kXkXkXkXkXkX",
"kXkXkXkXkXkXkXkXkXkXkXkXkXkXkXkXkXkXkXkXkXkXkXkXkXkXkXkXkXkXkXkXkX# w S z { S.R.T.D.@.| C.D.C.%.| m.) = D ..t.jX`.K kXkXkXkXkXkX",
"kXkXkXkXkXkXkXkXkXkXkXkXkXkXkXkXkXkXkXkXkXkXkXkXkXkXkXkXkXkXkXkXkX# 4 x 9.K.W.Y.m.' ) } M.F.V.) g *   O < T x.jX;XB kXkXkXkXkXkX",
"kXkXkXkXkXkXkXkXkXkXkXkXkXkXkXkXkXkXkXkXkXkXkXkXkXkXkXkXkXkXkXkXkX# 4 h I p.w.v 4 , n C.Y.[ v v . 0 M.< < 3 M ~./ B kXkXkXkXkXkX",
"kXkXkXkXkXkXkXkXkXkXkXkXkXkXkXkXkXkXkXkXkXkXkXkXkXkXkXkXkXkXkXkXkX# = y U 0.A.O.n n [ g   v ) , V.T.m.| + 1 - N q kXkXkXkXkXkXkX",
"kXkXkXkXkXkXkXkXkXkXkXkXkXkXkXkXkXkXkXkXkXkXkXkXkXkXkXkXkXkXkXkXkX# 1 3 P A.N.n v , . , m.@.O.F.Y.@.@.# 7 l ..f.iX#.kXkXkXkXkXkX",
"kXkXkXkXkXkXkXkXkXkXkXkXkXkXkXkXkXkXkXkXkXkXkXkXkXkXkXkXkXkXkXkXkX# ; = A  .+.v   % %.M.%.D.V.@.m.%., = 8 S u.iXjX).kXkXkXkXkXkX",
"kXkXkXkXkXkXkXkXkXkXkXkXkXkXkXkXkXkXkXkXkXkXkXkXkXkXkXkXkXkXkXkXkXkX# # v _ r $ O.m.} D.D.| C.D., ' m.@ 7 x p.:X.Xt.kXkXkXkXkXkX",
"kXkXkXkXkXkXkXkXkXkXkXkXkXkXkXkXkXkXkXkXkXkXkXkXkXkXkXkXkXkXkXkXkX< J a x A q.m.} *.C.) %.Y.n g [ [ ' n   6 k m / kXkXkXkXkXkXkX",
"kXkXkXkXkXkXkXkXkXkXkXkXkXkXkXkXkXkXkXkXkXkXkXkXkXkXkXkXkXkXkXkXkX+ u e.t.L.~ ) | 0 n V.) 5 n v , v [ = w S e x 3.( kXkXkXkXkXkX",
"kXkXkXkXkXkXkXkXkXkXkXkXkXkXkXkXkXkXkXkXkXkXkXkXkXkXkXkXkXkXkXkXp - s l ] L z % v O.%.% ' } v , n %.| < w B ! H.dXK.kXkXkXkXkXkX",
"kXkXkXkXkXkXkXkXkXkXkXkXkXkXkXkXkXkXkXkXkXkXkXkXkXkXkXkXkXkXkXuXw w     X 6 c @.@.5 n @.O.) 0 v } ) g 7 h D U i.fXQ.kXkXkXkXkXkX",
"kXkXkXkXkXkXkXkXkXkXkXkXkXkXkXkXkXkXkXkXkXkXkXkXkXkXkXkXkXkXkX% + - u ..#.J.c. .` O.%.%.' d 0 0 g f , s y C / s.jX5.kXkXkXkXkXkX",
"kXkXkXkXkXkXkXkXkXkXkXkXkXkXkXkXkXkXkXkXkXkXkXkXkXkXkXkXkXkXuX% @ %   s Q ,.4.Y q.N.&.[ 4 , , ' n 5 d u m M Q x.;Xh.kXkXkXkXkXkX",
"kXkXkXkXkXkXkXkXkXkXkXkXkXkXkXkXkXkXkXkXkXkXkXkXkXkXkXkXkXkXo B.}.` > - p F I w.h.h.r.x 9 n %.} d d ' M M M Q u.I.L kXkXkXkXkXkX",
"kXkXkXkXkXkXkXkXkXkXkXkXkXkXkXkXkXkXkXkXkXkXkXkXkXkXkXkXkXuXo ].jX[.) = ,.I L ,.v.H.g.>.p.K.q.c v | d R M V M C -.kXkXkXkXkXkXkX",
"kXkXkXkXkXkXkXkXkXkXkXkXkXkXkXkXkXkXkXkXkXkXkXkXkXkXkXkXkX. , G.].].  < X.c , i L l.'. X/.^.v.9.q.z v ;.f.3.u.z.1Xr.kXkXkXkXkXkX",
"kXkXkXkXkXkXkXkXkXkXkXkXkXkXkXkXkXkXkXkXkXkXkXkXkXkXkXkXkX% 0 ' B.2 > N $ c 9.^ t p E g._.&XoXU.4.8.q.T 3.).*XaXjX&XkXkXkXkXkXkX",
"kXkXkXkXkXkXkXkXkXkXkXkXkXkXkXkXkXkXkXkXkXkXkXkXkXkXkXkXkX: 9       < 5 :.K 1 K 6.6.K C =.Q.%X5Xv.!.6.-.a.f.).:X&Xn.kXkXkXkXkXkX",
"kXkXkXkXkXkXkXkXkXkXkXkXkXkXkXkXkXkXkXkXkXkXkXkXkXkXkXkXkXkXS 8 8 9 a 0 , I 0.8.p K d.k.;.T j.5X,X/.d.a.-.=.=.a.Q.sX,XQ.kXkXkXkX",
"kXkXkXkXkXkXkXkXkXkXkXkXkXkXkXkXkXkXkXkXkXkXkXkXkXkXkXkXkXkXkXkX8 1 ;.( ~ z 9 K y.y.E W d.P.d. X=Xz.Q.a.n.;X6XsXgX+X_.,XkXkXkXkX",
"kXkXkXkXkXkXkXkXkXkXkXkXkXkXkXkXkXkXkXkXkXkXkXkXkXkXkXkXkXkXkXkXkXkX$ , H 9.6.^ p L k.l.6.R 3./.rX@Xg.a.g.$X9X<X,X(.9XeXkXkXkXkX",
"kXkXkXkXkXkXkXkXkXkXkXkXkXkXkXkXkXkXkXkXkXkXkXkXkXkXkXkXkXkXkXkXkXkXkXkX* - j y.k.6.W E l.~.4.a.0XgX-X$XwX0X5X>X@X#XiX8XkXkXkXkX",
"kXkXkXkXkXkXkXkXkXkXkXkXkXkXkXkXkXkXkXkXkXkXkXkXkXkXkXkXkXkXkXkXkXkXkXkXkXkXkXy p y.v.l.4.>.g.P.~.jXjXjXgXwX$Xg.#X1X1X;XkXkXkXkX",
"kXkXkXkXkXkXkXkXkXkXkXkXkXkXkXkXkXkXkXkXkXkXkXkXkXkXkXkXkXkXkXkXkXkXkXkXkXkXkXkXkXN V 4.~.~.3.g.9XhXjXjXjX%Xn.#XqX1XqX#XkXkXkXkX",
"kXkXkXkXkXkXkXkXkXkXkXkXkXkXkXkXkXkXkXkXkXkXkXkXkXkXkXkXkXkXkXkXkXkXkXkXkXkXkXkXkXkXkXT R d.<X<XsXjXjXjXjXg.n.:X1XiX'.kXkXkXkXkX",
"kXkXkXkXkXkXkXkXkXkXkXkXkXkXkXkXkXkXkXkXkXkXkXkXkXkXkXkXkXkXkXkXkXkXkXkXkXkXkXkXkXkXkXkXkX^.%X0XwX$XwXjXyX_.#XdXqX$XkXkXkXkXkXkX",
"kXkXkXkXkXkXkXkXkXkXkXkXkXkXkXkXkXkXkXkXkXkXkXkXkXkXkXkXkXkXkXkXkXkXkXkXkXkXkXkXkXkXkXkXkXOX4XoXQ.n.n.sXsX).:XqX$XkXkXkXkXkXkXkX",
"kXkXkXkXkXkXkXkXkXkXkXkXkXkXkXkXkXkXkXkXkXkXkXkXkXkXkXkXkXkXkXkXkXkXkXkXkXkXkXkXkXkXkXkXkXkXkXkXkXg.n.&XyX$X).'.kXkXkXkXkXkXkXkX",
"kXkXkXkXkXkXkXkXkXkXkXkXkXkXkXkXkXkXkXkXkXkXkXkXkXkXkXkXkXkXkXkXkXkXkXkXkXkXkXkXkXkXkXkXkXkXkXkXkXkXkXf.=X5X_.kXkXkXkXkXkXkXkXkX",
"kXkXkXkXkXkXkXkXkXkXkXkXkXkXkXkXkXkXkXkXkXkXkXkXkXkXkXkXkXkXkXkXkXkXkXkXkXkXkXkXkXkXkXkXkXkXkXkXkXkXkXkXkX%XOXkXkXkXkXkXkXkXkXkX",
"kXkXkXkXkXkXkXkXkXkXkXkXkXkXkXkXkXkXkXkXkXkXkXkXkXkXkXkXkXkXkXkXkXkXkXkXkXkXkXkXkXkXkXkXkXkXkXkXkXkXkXkXkXkXkXkXkXkXkXkXkXkXkXkX",
"kXkXkXkXkXkXkXkXkXkXkXkXkXkXkXkXkXkXkXkXkXkXkXkXkXkXkXkXkXkXkXkXkXkXkXkXkXkXkXkXkXkXkXkXkXkXkXkXkXkXkXkXkXkXkXkXkXkXkXkXkXkXkXkX",
"kXkXkXkXkXkXkXkXkXkXkXkXkXkXkXkXkXkXkXkXkXkXkXkXkXkXkXkXkXkXkXkXkXkXkXkXkXkXkXkXkXkXkXkXkXkXkXkXkXkXkXkXkXkXkXkXkXkXkXkXkXkXkXkX",
"kXkXkXkXkXkXkXkXkXkXkXkXkXkXkXkXkXkXkXkXkXkXkXkXkXkXkXkXkXkXkXkXkXkXkXkXkXkXkXkXkXkXkXkXkXkXkXkXkXkXkXkXkXkXkXkXkXkXkXkXkXkXkXkX",
"kXkXkXkXkXkXkXkXkXkXkXkXkXkXkXkXkXkXkXkXkXkXkXkXkXkXkXkXkXkXkXkXkXkXkXkXkXkXkXkXkXkXkXkXkXkXkXkXkXkXkXkXkXkXkXkXkXkXkXkXkXkXkXkX",
"kXkXkXkXkXkXkXkXkXkXkXkXkXkXkXkXkXkXkXkXkXkXkXkXkXkXkXkXkXkXkXkXkXkXkXkXkXkXkXkXkXkXkXkXkXkXkXkXkXkXkXkXkXkXkXkXkXkXkXkXkXkXkXkX",
"kXkXkXkXkXkXkXkXkXkXkXkXkXkXkXkXkXkXkXkXkXkXkXkXkXkXkXkXkXkXkXkXkXkXkXkXkXkXkXkXkXkXkXkXkXkXkXkXkXkXkXkXkXkXkXkXkXkXkXkXkXkXkXkX",
"kXkXkXkXkXkXkXkXkXkXkXkXkXkXkXkXkXkXkXkXkXkXkXkXkXkXkXkXkXkXkXkXkXkXkXkXkXkXkXkXkXkXkXkXkXkXkXkXkXkXkXkXkXkXkXkXkXkXkXkXkXkXkXkX",
"kXkXkXkXkXkXkXkXkXkXkXkXkXkXkXkXkXkXkXkXkXkXkXkXkXkXkXkXkXkXkXkXkXkXkXkXkXkXkXkXkXkXkXkXkXkXkXkXkXkXkXkXkXkXkXkXkXkXkXkXkXkXkXkX",
"kXkXkXkXkXkXkXkXkXkXkXkXkXkXkXkXkXkXkXkXkXkXkXkXkXkXkXkXkXkXkXkXkXkXkXkXkXkXkXkXkXkXkXkXkXkXkXkXkXkXkXkXkXkXkXkXkXkXkXkXkXkXkXkX",
"kXkXkXkXkXkXkXkXkXkXkXkXkXkXkXkXkXkXkXkXkXkXkXkXkXkXkXkXkXkXkXkXkXkXkXkXkXkXkXkXkXkXkXkXkXkXkXkXkXkXkXkXkXkXkXkXkXkXkXkXkXkXkXkX",
"kXkXkXkXkXkXkXkXkXkXkXkXkXkXkXkXkXkXkXkXkXkXkXkXkXkXkXkXkXkXkXkXkXkXkXkXkXkXkXkXkXkXkXkXkXkXkXkXkXkXkXkXkXkXkXkXkXkXkXkXkXkXkXkX",
"kXkXkXkXkXkXkXkXkXkXkXkXkXkXkXkXkXkXkXkXkXkXkXkXkXkXkXkXkXkXkXkXkXkXkXkXkXkXkXkXkXkXkXkXkXkXkXkXkXkXkXkXkXkXkXkXkXkXkXkXkXkXkXkX",
"kXkXkXkXkXkXkXkXkXkXkXkXkXkXkXkXkXkXkXkXkXkXkXkXkXkXkXkXkXkXkXkXkXkXkXkXkXkXkXkXkXkXkXkXkXkXkXkXkXkXkXkXkXkXkXkXkXkXkXkXkXkXkXkX"
};
