/* XPM */
static char *portal_open_4[] = {
/* columns rows colors chars-per-pixel */
"64 64 225 2 ",
"   c #020102",
".  c black",
"X  c #040100",
"o  c #070100",
"O  c #060300",
"+  c #040003",
"@  c #000400",
"#  c #060500",
"$  c #070700",
"%  c #0B0200",
"&  c #0A0500",
"*  c #0C0400",
"=  c #0E0700",
"-  c #0E0900",
";  c #120100",
":  c #100600",
">  c #190600",
",  c #120900",
"<  c None",
"1  c #180900",
"2  c #1D0900",
"3  c #1D0A00",
"4  c #190D00",
"5  c #190E00",
"6  c #1D0D00",
"7  c #210300",
"8  c #250700",
"9  c #200800",
"0  c #200F00",
"q  c #230F00",
"w  c #240D00",
"e  c #2C0900",
"r  c #290E00",
"t  c #310600",
"y  c #390400",
"u  c #330B00",
"i  c #3B0900",
"p  c #390F00",
"a  c #271000",
"s  c #261400",
"d  c #2B1700",
"f  c #2E1A00",
"g  c #301000",
"h  c #301200",
"j  c #321300",
"k  c #3C1200",
"l  c #391500",
"z  c #3A1500",
"x  c #381700",
"c  c #331D00",
"v  c #3F1800",
"b  c #3A2000",
"n  c #420700",
"m  c #4D0700",
"M  c #460B00",
"N  c #4B0D00",
"B  c #5B0500",
"V  c #550C00",
"C  c #411100",
"Z  c #431600",
"A  c #441400",
"S  c #461600",
"D  c #4E1000",
"F  c #441B00",
"G  c #521100",
"H  c #501400",
"J  c #5C1000",
"K  c #5E1100",
"L  c #5C1200",
"P  c #581E00",
"I  c #5D1F00",
"U  c #5E1F00",
"Y  c #690800",
"T  c #7A0700",
"R  c #730D00",
"E  c #651400",
"W  c #6C1200",
"Q  c #631F00",
"!  c #6C1F00",
"~  c #751B00",
"^  c #7F1C00",
"/  c #7E1D00",
"(  c #402400",
")  c #4B2000",
"_  c #472900",
"`  c #4D2C00",
"'  c #552200",
"]  c #532F00",
"[  c #592C00",
"{  c #593200",
"}  c #5F3600",
"|  c #692C00",
" . c #702100",
".. c #722200",
"X. c #742500",
"o. c #7D2200",
"O. c #7D2300",
"+. c #663900",
"@. c #673900",
"#. c #6F3E00",
"$. c #7C3300",
"%. c #5C4400",
"&. c #764200",
"*. c #7D4000",
"=. c #784D00",
"-. c #810B00",
";. c #9B0B00",
":. c #821600",
">. c #831900",
",. c #991200",
"<. c #921A00",
"1. c #951B00",
"2. c #810012",
"3. c #B70D00",
"4. c #A41400",
"5. c #AD1600",
"6. c #AE1900",
"7. c #802200",
"8. c #842200",
"9. c #982500",
"0. c #873C00",
"q. c #993A00",
"w. c #A32900",
"e. c #A12D00",
"r. c #AA2A00",
"t. c #BC2700",
"y. c #B72900",
"u. c #B42A00",
"i. c #A43900",
"p. c #CE0A00",
"a. c #D10800",
"s. c #C71700",
"d. c #E51200",
"f. c #FF1809",
"g. c #C82D00",
"h. c #DC2000",
"j. c #DD2400",
"k. c #DC3000",
"l. c #DE3700",
"z. c #F12000",
"x. c #FF2C09",
"c. c #E63200",
"v. c #EC3900",
"b. c #FF3902",
"n. c #FF3F03",
"m. c #FF2E21",
"M. c #824900",
"N. c #8C4F00",
"B. c #9A4E00",
"V. c #855600",
"C. c #945400",
"Z. c #9E5900",
"A. c #B64400",
"S. c #B94E00",
"D. c #A85900",
"F. c #A85F00",
"G. c #B56600",
"H. c #A17200",
"J. c #C34700",
"K. c #DE4000",
"L. c #D55A00",
"P. c #E85700",
"I. c #FF4012",
"U. c #FF441B",
"Y. c #FF5A17",
"T. c #C07000",
"R. c #CE7400",
"E. c #DC7D00",
"W. c #FF6B05",
"Q. c #FF680C",
"!. c #FF4B2D",
"~. c #FF5120",
"^. c #FF5839",
"/. c #FF752B",
"(. c #FF6F39",
"). c #FF6E42",
"_. c #FF6049",
"`. c #FF6D4A",
"'. c #FF7543",
"]. c #FF7655",
"[. c #C79B00",
"{. c #FF8907",
"}. c #F19200",
"|. c #FF8311",
" X c #FF9917",
".X c #DCAF00",
"XX c #FF8447",
"oX c #FF864D",
"OX c #FF8F53",
"+X c #FF9655",
"@X c #FF9C54",
"#X c #FF8E63",
"$X c #FF8469",
"%X c #FF947D",
"&X c #FFA26A",
"*X c #FFA270",
"=X c #FFAA7C",
"-X c #FFB676",
";X c #FFBC79",
":X c #FF9D82",
">X c #FF9C8A",
",X c #FFBA86",
"<X c #FFB188",
"1X c #FFBA92",
"2X c #FFB4A1",
"3X c #FFCC85",
"4X c #FFCE91",
"5X c #FFCB94",
"6X c #FFCAAF",
"7X c #FFD1A1",
"8X c #FFC8B5",
"9X c #FFD9B6",
"0X c #FFD3B8",
"qX c #FFEFA7",
"wX c #FFE8AA",
"eX c #FFEFBC",
"rX c #FF96FF",
"tX c #FFD5D0",
"yX c #FFD2D9",
"uX c #FFF4CC",
"iX c #FFEBD4",
"pX c #FFF7EF",
"aX c #FFFCE9",
"sX c #FFFEFA",
"dX c white",
/* pixels */
"                                                                                                                                ",
"                                                                                                                                ",
"                                                                                                                                ",
"                                                                                                                                ",
"                                                                                        Q Q ' S                                 ",
"                                                                                i I ' g Q.uXwX`.A.o.                            ",
"                                                                            j o.K.#Xa I {.sXwXsXuX3XE                           ",
"                                                                        g A K.g.*Xv.& D 2.m <X<XXXW C                           ",
"                                                                      9 k E  .V J , q D <.p.y 2.; o.C                           ",
"                                                                      6 a k l q h F Z N y.V <X* 6 X.<.<.v.                      ",
"                                                                      9 u u h 7 O * t 2 ^ :Xu w w u o.OX:X1.                    ",
"                                                                    e 9 : . . < 1 N W v i.E b ; < g Q 3X'.dXN                   ",
"                                                                    - u S g w.e : D 8 h j h <.| 9 . L k.sX=XdXN                 ",
"                                                                    + * e D '.5.& r.8 h =.< 7 W 8 . i  .=X5XpX=XG               ",
"                                                                    < & - * R t * z l ` dX=.u b.v . N S O.U.0XdXx.              ",
"                                                                    @ 1 x *.% , X r ~ =..X[.K :.b . w z i O.3.yXOX              ",
"                                                                  $ 7 8 P X.X.( X = F f H.V.w l 0 . . e p S %.5.z.              ",
"                                                                  $ 8 a ' e.J.+.( X 4 q , 4 2 l : 1 1 . 6 S i T >               ",
"                                                                  # 7 z 8.i.q.b f ( = h q l ! G . { 1 < 1 & o & 1               ",
"                                                                    X 6 U ) @.} +.Z.E., 2 2 r l F.Z.#.e 9 n S u.Q G             ",
"                                                                  < g D H | @.N.T.R.T.#.s d ] F.G.+.b - D  .r.dX'.K             ",
"                                                                  7 g L 9.e.B.Z.C.#.b c d ` F.&.4 ` , + < Y c.dX:XN             ",
"                                                                  a i V I 7.e.M.F.G.N.` ] b . % } 0 &.< < 3 m ^.^ N             ",
"                                                                  n n J T i.|.}.E.N.} ` . . { N.} F.F.F.@ 1 ; M q               ",
"                                                                  m m J 7.W. XT.N.&.( . } Z.&.F.&.&.M.$ 7 k  .d.tX$.            ",
"                                                                  J B V i.L.D.#._ b +.Z.#.F.N.` C.N.d $ 8 S y.tXdX_.            ",
"                                                                    Y J L H w b +.N.] +.&.4 { F.c f c # 7 z i.>XOXr.            ",
"                                                                  ;.d.3.Y R 0.` f 5 f 5 ( &.s s ( s % ` . 6 j n ^               ",
"                                                                  -.p._.Q.h.t % s & ( &.5 s ] ] b s ` $ w S e z 3./             ",
"                                                                f.3.a.p.,.<.| f b } ] c } &.&.] f f s $ 4 z ..A.iXL.            ",
"                                                                d.f.;.;.<.8.| *.@.b ] #.M.&.} s , s ] $ 4 g A w.pX~.            ",
"                                                              ).f.d.m._.oX@X/.0.[ #.N.M.#.{ & . b M.} $ - t J u.dX<.            ",
"                                                            4X#X*Xf.#X7X-X(.I.9.J.S.@.} ( . X &.C.#.f $ 1 3 y w.OX6.            ",
"                                                          rXqXaXdXdXaX,X!.j.j.Y.b.g.e.G 9 c N.M.] c &.$ : - a O.c.C             ",
"                                                          rXdXdXdXdX1Xx.].f.f.f.!.~.!.5.e.S.0.c d +.( 8 # $ - - m               ",
"                                                          ,XdXdXdXdX%Xf.^.h.,.4.y.!.$XoX~.Q.j.Z ) F ( l J S L ^ >X|             ",
"                                                          7X,X7XuXuX7X!.p.p.^.h.R Y :.d.)._.h.i...! | 9 D a.OX0XdXQ.            ",
"                                                          f.f.f.&X6X,X~.^.z.T 4.z.j.L M L y.~.&Xt.6./ n B W d._.Q.4.            ",
"                                                            m.f.!.#X;Xb.5.z.I.j.R R 6.t.G u V (.+Xv.e.T n i t V -.iX`.k.        ",
"                                                                d.d.1X).I.4.Y 4.z.t.L u >.t.K V Y.b.p.T 3._.OXiXsXQ.l.XX        ",
"                                                                    j.b.s.I.z.6.N L 6.t.L i ~ <.Y.&Xh.-.;.f.%X<X#XK.<X2X        ",
"                                                                        <.B R j.j.6.t u 6.j.L B 4.7X1Xp.%X*X&XoX~.x.8X:X        ",
"                                                                              n i 6.t.6.G M 6.4.;.`.dXdXeX6X`.3.U.>X*X$X        ",
"                                                                                  7 9 K j.j.R Y I.%XdXdXeX).a.!.2X%X>XP.        ",
"                                                                                      9 7 K b.n.,X9XdXdXqX3.3.$X$X8XU.          ",
"                                                                                            6.(.<X_.f.9XeXf._.iX2X`.            ",
"                                                                                            @X  d.p.;.f.9X).].>X^.              ",
"                                                                                                  3.p.p.#X&XU.I.                ",
"                                                                                                      -.4.(.Y.                  ",
"                                                                                                          r./.                  ",
"                                                                                                                                ",
"                                                                                                                                ",
"                                                                                                                                ",
"                                                                                                                                ",
"                                                                                                                                ",
"                                                                                                                                ",
"                                                                                                                                ",
"                                                                                                                                ",
"                                                                                                                                ",
"                                                                                                                                ",
"                                                                                                                                ",
"                                                                                                                                ",
"                                                                                                                                ",
"                                                                                                                                "
};
