/* XPM */
static char *portal_open_1[] = {
/* columns rows colors chars-per-pixel */
"64 64 203 2 ",
"   c #020102",
".  c None",
"X  c #040100",
"o  c #070100",
"O  c #060300",
"+  c #040003",
"@  c #000400",
"#  c #060500",
"$  c #070700",
"%  c #0B0200",
"&  c #0A0500",
"*  c #0C0400",
"=  c #0E0700",
"-  c #0E0900",
";  c #120100",
":  c #100600",
">  c #130600",
",  c #190600",
"<  c #120900",
"1  c #130900",
"2  c #180900",
"3  c #1B0900",
"4  c #1D0900",
"5  c #1D0A00",
"6  c #190D00",
"7  c #190E00",
"8  c #1D0D00",
"9  c #210300",
"0  c #250700",
"q  c #200800",
"w  c #200F00",
"e  c #230F00",
"r  c #240D00",
"t  c #2C0900",
"y  c #290E00",
"u  c #310600",
"i  c #390400",
"p  c #330B00",
"a  c #3B0900",
"s  c #390F00",
"d  c #271000",
"f  c #261400",
"g  c #2E1A00",
"h  c #301000",
"j  c #301200",
"k  c #321200",
"l  c #321300",
"z  c #3C1200",
"x  c #391500",
"c  c #3A1500",
"v  c #381700",
"b  c #331D00",
"n  c #3F1800",
"m  c #3A2000",
"M  c #420700",
"N  c #4D0700",
"B  c #460B00",
"V  c #4B0D00",
"C  c #550C00",
"Z  c #411100",
"A  c #431600",
"S  c #441400",
"D  c #461600",
"F  c #4E1000",
"G  c #441B00",
"H  c #521100",
"J  c #501400",
"K  c #5C1000",
"L  c #5E1100",
"P  c #5C1200",
"I  c #521F00",
"U  c #581E00",
"Y  c #5D1F00",
"T  c #5E1F00",
"R  c #690800",
"E  c #7A0700",
"W  c #730D00",
"Q  c #651400",
"!  c #6C1200",
"~  c #631F00",
"^  c #6C1F00",
"/  c #751B00",
"(  c #7F1C00",
")  c #7E1D00",
"_  c #402400",
"`  c #4B2000",
"'  c #472900",
"]  c #4D2C00",
"[  c #552200",
"{  c #532F00",
"}  c #592C00",
"|  c #593200",
" . c #5F3600",
".. c #692C00",
"X. c #702100",
"o. c #722200",
"O. c #742500",
"+. c #7D2200",
"@. c #7D2300",
"#. c #663900",
"$. c #673900",
"%. c #6F3E00",
"&. c #7C3300",
"*. c #5C4400",
"=. c #764200",
"-. c #7D4000",
";. c #784D00",
":. c #810B00",
">. c #821600",
",. c #831900",
"<. c #921A00",
"1. c #951B00",
"2. c #810012",
"3. c #B70D00",
"4. c #A41400",
"5. c #AD1600",
"6. c #AE1900",
"7. c #802200",
"8. c #842200",
"9. c #8B2500",
"0. c #982500",
"q. c #873C00",
"w. c #993A00",
"e. c #A32900",
"r. c #AA2A00",
"t. c #BC2700",
"y. c #B72900",
"u. c #B42A00",
"i. c #A43900",
"p. c #CE0A00",
"a. c #D10800",
"s. c #E51200",
"d. c #C82D00",
"f. c #DC2000",
"g. c #DD2400",
"h. c #DC3000",
"j. c #F12000",
"k. c #FF2C09",
"l. c #E63200",
"z. c #EC3900",
"x. c #FF3902",
"c. c #FF3F03",
"v. c #824900",
"b. c #8C4F00",
"n. c #9A4E00",
"m. c #855600",
"M. c #945400",
"N. c #9E5900",
"B. c #B64400",
"V. c #B94E00",
"C. c #A85F00",
"Z. c #B56600",
"A. c #A17200",
"S. c #C34700",
"D. c #DE4000",
"F. c #DF5500",
"G. c #D55A00",
"H. c #E85700",
"J. c #FF441B",
"K. c #D16600",
"L. c #C07000",
"P. c #CE7400",
"I. c #DC7D00",
"U. c #FF680C",
"Y. c #FF4B2D",
"T. c #FF5120",
"R. c #FF5839",
"E. c #FF752B",
"W. c #FF6049",
"Q. c #FF6D4A",
"!. c #FF7543",
"~. c #FF7655",
"^. c #B78A00",
"/. c #C79B00",
"(. c #FF8907",
"). c #F19200",
"_. c #DCAF00",
"`. c #E8B400",
"'. c #FF8447",
"]. c #FF8F53",
"[. c #FFA146",
"{. c #FF8E63",
"}. c #FF8469",
"|. c #FF947D",
" X c #FFA270",
".X c #FFAA7C",
"XX c #FF9D82",
"oX c #FF9C8A",
"OX c #FFB188",
"+X c #FFB4A1",
"@X c #FFCC85",
"#X c #FFCB94",
"$X c #FFC5AC",
"%X c #FFD3B8",
"&X c #FFE8AA",
"*X c #FFD5D0",
"=X c #FFD2D9",
"-X c #FFE8C6",
";X c #FFF4CC",
":X c #FFEBD4",
">X c #FFF7EF",
",X c #FFFEFA",
"<X c white",
/* pixels */
"                                                                                                                                ",
"                                                                                                                                ",
"                                                                                                                                ",
"                                                                                                                                ",
"                                                                                        ~ ~ [ D                                 ",
"                                                                                a Y [ h U.;X&XQ.B.+.                            ",
"                                                                            l +.D.{.d Y (.,X&X,X;X@XQ                           ",
"                                                                        h S D.d. Xz.& F 2.N OXOX'.! Z                           ",
"                                                                      q z Q X.C K < e F <.p.i 2.; +.Z                           ",
"                                                                      8 d z x e j G A V y.C OX* 8 O.<.<.z.                      ",
"                                                                      q p p j 9 O * u 4 ( XXp r r p +.].XX1.                    ",
"                                                                    t q : . . 1 2 V ! n i.Q m ; 1 h ~ @X!.<XV                   ",
"                                                                    - p D h e.t : F 0 j l j <...q . P h.,X.X<XV                 ",
"                                                                    + * t F !.5.& r.0 j ;.1 9 ! 0 . a X..X#X>X.XH               ",
"                                                                    1 & - * W u * c x ] <X;.p x.n . V D @.J.%X<Xk.              ",
"                                                                    @ 2 2 q % < X y / ;._./.L >.m . r c a @.3.=X].              ",
"                                                                  $ 9 0 c s T =.X = G g A.m.r x w . . t s D *.5.j.              ",
"                                                                  $ 0 d I +.>.< w X 6 e < 6 4 x : 2 2 . 8 D a E ,               ",
"                                                                  # 9 c I R O.b.L.).% j e x ^ H . =.2 1 2 & o & 2               ",
"                                                                    . 8 c v ` _ m < o < 4 4 y x #.P.`.p q M D u.~ H             ",
"                                                                  $ r D j x y . . . _ #.f 7 =.).).P.{ : F X.r.<X!.L             ",
"                                                                  $ 6 c o.K d . . f o . { P.I.%.{ v.{ + 1 R l.<XXXV             ",
"                                                                    6 h s N 9.=.%.g b b.L. .. 7 b . % 1 1 5 N R.( V             ",
"                                                                    - u Y S.V.;.%.{ ] ] . . . . . P.).g @ 2 ; B e               ",
"                                                                    2 5 z w.V.M.] w o . . m { =.).%.& - 9 z X.s.*X&.            ",
"                                                                  $ : - S n.$.m g o . ] P.L.v.] < = { # 0 D y.*X<XW.            ",
"                                                                    $ $ 6 : k ] & 7 C.).Z._ 7 o m < =.# 9 c i.oX].r.            ",
"                                                                  1 K s 0 O.n.{ #.L.Z.=.{ ] 6 X < %.M.N.. 8 l M (               ",
"                                                                  @ i e.F.c.n.C.C. . .N.f . . ]  .Z.M.$ r D t c 3.)             ",
"                                                                a ; d c ^ S.K.=.v.L.C.. w =. .%.M.=.=.$ 6 c o.B.:XG.            ",
"                                                                r r . o g } ;.I.).< w %.=.=.=._ m =.| $ 6 h S e.>XT.            ",
"                                                              & @ ; i X.&.E.[.q.e ] %. .#.| g ] =.f  .$ - u K u.<X<.            ",
"                                                              & # & . d i.( :.J O.U v ] { ] #.] 7  . .$ 2 5 i e.].6.            ",
"                                                            O m._.' , ; a x J ,.( <.9.q.-.#._ b | m < $ : - d @.l.Z             ",
"                                                            O ^.<X/._ - <.U P >.f.h.T.i.0.8.` } ] g  .0 # $ - - N               ",
"                                                          X < A.^.^.. 1 O.v < r S f.Q.R.f.h.z.O.G ` N.r ~ D P ( oX..            ",
"                                                          & w ] m.3 , B % v 9.T < 2 c 4.D.Q.z.@./ q.n @ s u.!.%X<XU.            ",
"                                                          > q . . . 1 7 ,.J = Z ) ) w > h 4.j.Y.i.o.9 ; d D y.W.U.<.            ",
"                                                            D 0 0 q s w < J 9.^ < e ) ) v & l 5.j.7.a r . . . u ! -XQ.p.        ",
"                                                                0 2 >.) ^ y % Z 1.) e < L 8.g . : S C ; z u.H.:X<XB.( W.        ",
"                                                                    % < G ) 8.J % e ,.9.v % e G Z . r . ; C a.a.a.~ |.+X        ",
"                                                                        % . < 9.0.^ = < ^ 1.3 . < J p O B t a L ( f.$XXX        ",
"                                                                              o < ^ 0.) e % U Z . * ;._.;.9 d 5 e.~. X!.        ",
"                                                                                  o % A 0.1.3 . x : ^.<X/.' d ( oXQ..XH.        ",
"                                                                                      o o w 0.Z H . A.^._.. q k.J.+Xj.          ",
"                                                                                            o % p % 3 m. .h ( %X}.R.            ",
"                                                                                                u t . . . 9 f.}.g.              ",
"                                                                                                  p u a S 1 @.t.                ",
"                                                                                                      r r & o.                  ",
"                                                                                                          r                     ",
"                                                                                                                                ",
"                                                                                                                                ",
"                                                                                                                                ",
"                                                                                                                                ",
"                                                                                                                                ",
"                                                                                                                                ",
"                                                                                                                                ",
"                                                                                                                                ",
"                                                                                                                                ",
"                                                                                                                                ",
"                                                                                                                                ",
"                                                                                                                                ",
"                                                                                                                                ",
"                                                                                                                                "
};
