/* XPM */
static char *portal_open_6[] = {
/* columns rows colors chars-per-pixel */
"64 64 208 2 ",
"   c #030103",
".  c black",
"X  c #040100",
"o  c #070100",
"O  c #060300",
"+  c #040003",
"@  c #000400",
"#  c #060500",
"$  c #070700",
"%  c #0B0200",
"&  c #0A0500",
"*  c #0C0400",
"=  c #0E0700",
"-  c #0E0900",
";  c #120100",
":  c #100600",
">  c #130600",
",  c #190600",
"<  c #120900",
"1  c #130900",
"2  c #180900",
"3  c #1B0900",
"4  c #1D0900",
"5  c #1D0A00",
"6  c #190D00",
"7  c #190E00",
"8  c #1D0D00",
"9  c #210300",
"0  c #250700",
"q  c #200800",
"w  c #200F00",
"e  c #230F00",
"r  c #240D00",
"t  c #2C0900",
"y  c #290E00",
"u  c #2C0D00",
"i  c #310600",
"p  c #390400",
"a  c #330B00",
"s  c #3B0900",
"d  c #390F00",
"f  c #271000",
"g  c #261400",
"h  c #291100",
"j  c #2B1700",
"k  c #2E1A00",
"l  c #301000",
"z  c #301200",
"x  c #321200",
"c  c #321300",
"v  c #3C1200",
"b  c #391500",
"n  c #3A1500",
"m  c #381700",
"M  c #331D00",
"N  c #3F1800",
"B  c #3A2000",
"V  c #420700",
"C  c #4D0700",
"Z  c #460B00",
"A  c #4B0D00",
"S  c #550C00",
"D  c #411100",
"F  c #431600",
"G  c #441400",
"H  c None",
"J  c #4E1000",
"K  c #441B00",
"L  c #521100",
"P  c #501400",
"I  c #5C1000",
"U  c #5E1100",
"Y  c #5C1200",
"T  c #581E00",
"R  c #5D1F00",
"E  c #5E1F00",
"W  c #690800",
"Q  c #7A0700",
"!  c #730D00",
"~  c #651400",
"^  c #6C1200",
"/  c #631F00",
"(  c #6C1F00",
")  c #751B00",
"_  c #7F1C00",
"`  c #7E1D00",
"'  c #402400",
"]  c #4B2000",
"[  c #472900",
"{  c #4D2C00",
"}  c #552200",
"|  c #532F00",
" . c #592C00",
".. c #593200",
"X. c #5F3600",
"o. c #692C00",
"O. c #702100",
"+. c #722200",
"@. c #742500",
"#. c #7D2200",
"$. c #7D2300",
"%. c #663900",
"&. c #673900",
"*. c #6F3E00",
"=. c #7C3300",
"-. c #5C4400",
";. c #764200",
":. c #7D4000",
">. c #784D00",
",. c #810B00",
"<. c #9B0B00",
"1. c #821600",
"2. c #831900",
"3. c #921A00",
"4. c #951B00",
"5. c #810012",
"6. c #B70D00",
"7. c #A41400",
"8. c #AD1600",
"9. c #AE1900",
"0. c #842200",
"q. c #8B2500",
"w. c #982500",
"e. c #873C00",
"r. c #993A00",
"t. c #A32900",
"y. c #A12D00",
"u. c #AA2A00",
"i. c #BC2700",
"p. c #B72900",
"a. c #B42A00",
"s. c #A43900",
"d. c #CE0A00",
"f. c #D10800",
"g. c #E51200",
"h. c #C82D00",
"j. c #DC2000",
"k. c #DD2400",
"l. c #DC3000",
"z. c #F12000",
"x. c #FF2C09",
"c. c #E63200",
"v. c #EC3900",
"b. c #FF3902",
"n. c #824900",
"m. c #8C4F00",
"M. c #9A4E00",
"N. c #855600",
"B. c #945400",
"V. c #9E5900",
"C. c #B64400",
"Z. c #B94E00",
"A. c #A85900",
"S. c #A85F00",
"D. c #B56600",
"F. c #A17200",
"G. c #C34700",
"H. c #DE4000",
"J. c #DF5500",
"K. c #D55A00",
"L. c #E85700",
"P. c #FF5708",
"I. c #FF4012",
"U. c #FF441B",
"Y. c #D16600",
"T. c #C07000",
"R. c #CE7400",
"E. c #DC7D00",
"W. c #FF680C",
"Q. c #F47500",
"!. c #FF5120",
"~. c #FF5839",
"^. c #FF6F39",
"/. c #FF6049",
"(. c #FF6D4A",
"). c #FF7543",
"_. c #FF7655",
"`. c #B78A00",
"'. c #C79B00",
"]. c #FF8907",
"[. c #F19200",
"{. c #DCAF00",
"}. c #FF8447",
"|. c #FF864D",
" X c #FF8F53",
".X c #FF8E63",
"XX c #FF8469",
"oX c #FF947D",
"OX c #FFA270",
"+X c #FFAA7C",
"@X c #FF9D82",
"#X c #FF9C8A",
"$X c #FFB188",
"%X c #FFB4A1",
"&X c #FFCC85",
"*X c #FFCB94",
"=X c #FFC5AC",
"-X c #FFD3B8",
";X c #FFE8AA",
":X c #FF96FF",
">X c #FFD5D0",
",X c #FFD2D9",
"<X c #FFE8C6",
"1X c #FFF4CC",
"2X c #FFEBD4",
"3X c #FFF7EF",
"4X c #FFFEFA",
"5X c white",
/* pixels */
"                                                                                                                                ",
"                                                                                                                                ",
"                                                                                                                                ",
"                                                                                                                                ",
"                                                                                        / / } H                                 ",
"                                                                                s R } l W.1X;X(.C.#.                            ",
"                                                                            c #.H..Xf R ].4X;X4X1X&X~                           ",
"                                                                        l G H.h.OXv.& J 5.C $X$X}.^ D                           ",
"                                                                      q v ~ O.S I < e J 3.d.p 5.; #.D                           ",
"                                                                      8 f v b e z K F A p.S $X* 8 @.3.3.v.                      ",
"                                                                      q a a z 9 O * i 4 _ @Xa r r a #. X@X4.                    ",
"                                                                    t q : . . 1 2 A ^ N s.~ B ; 1 l / &X).5XA                   ",
"                                                                    - a H l t.t : J 0 z c z 3.o.q . Y l.4X+X5XA                 ",
"                                                                    + * t J ).8.& u.0 z >.1 9 ^ 0 . s O.+X*X3X+XL               ",
"                                                                    1 & - * ! i * n b { 5X>.a b.N . A H $.U.-X5Xx.              ",
"                                                                    @ 2 x o.% < X y ) >.{.'.U 1.B . r n s $.6.,X X              ",
"                                                                  $ 9 0 T r.Q.[.X = K k F.N.r b w . . t d H -.8.z.              ",
"                                                                  $ 0 f } y.G.V.T.X 6 e < 6 4 b : 2 2 . 8 H s Q ,               ",
"                                                                  # 9 n R s.Y.E.E.R.= z e b ( L . j 2 1 2 & o & 2               ",
"                                                                    . 8 E &.:.*.%.X.| < 4 4 y b | g | t q V H a./ L             ",
"                                                                  $ r H c b b k 6 j ' | ;.D.E.D...;.M - J O.u.5X).U             ",
"                                                                  $ 6 n +.I T %.X.B k ;.[.[.m.X.X.. < + 1 W c.5X@XA             ",
"                                                                  $ 6 l L w.r.M M ;.E.[.T.| { { ..D.S.1 1 5 C ~._ A             ",
"                                                                  $ - f R #.Z.T.`.`.S.' = w ;.m.*.S.X.| @ 2 ; Z e               ",
"                                                                    2 5 G G.Y.V.;.B < < %.*.< < 6 B ..$ 9 v O.g.>X=.            ",
"                                                                    : - G o. .;.B.;.;.| = < 6 < B M 7 $ 0 H p.>X5X/.            ",
"                                                                    $ $ h [ A.S...< = { ;.6 j M 6 | ;.# 9 n s.#X Xu.            ",
"                                                                  1 I d F @.u . . B.E.X.M B B ' *.V.;.B . 8 c V _               ",
"                                                                  @ p t.=.<.d X.'.S.j B | X.{ m.{ { w $ r H t n 6.`             ",
"                                                                s ; f d H #.M.S.M < k %...;.| M { k 7 $ 6 n +.C.2XK.            ",
"                                                                r r . X < ] ] = X ' { %.| w B X.j ' n.- 6 l G t.3X!.            ",
"                                                              & @ ; p O.s.J.3.n k B | B B *.X.B { %.B # - i I a.5X3.            ",
"                                                              & # & . f ^ Q ,.a ( o. .m.n.| B M M < o $ 2 5 p t. X9.            ",
"                                                          :X  N.{.[ , ; s b t q.s.K.K.e. .k k g < 6 | $ : - f $.c.D             ",
"                                                          :XO `.5X'.' - 3.T Y 1.^.P.I.i.+.) K k B ;.;.0 # $ - - C               ",
"                                                          X < F.`.`.. 1 @.m < r G d..XI.l.H.h.E :.&.{ r / H Y _ #Xo.            ",
"                                                          & w { N.3 , Z % m q.E < 2 n 7.b.(.h.i.q.E ] & d a.).-X5XW.            ",
"                                                          > q . . . 1 7 2.P = D ` ` w > l 7.z.|.w.#.P ; f H p./.W.3.            ",
"                                                            H 0 0 q d w < P q.( < e ` ` m & c 8.z.w.L r . . . i ^ <X(.d.        ",
"                                                                0 2 1.` ( y % D 4.` e < U 0.k . : n S ; v a.L.2X5XC._ /.        ",
"                                                                    % < K ` 0.P % e 2.q.m % e K D . r . ; S f.f.f./ oX%X        ",
"                                                                        % . < q.w.( = < ( 4.3 . < P a O Z t s U _ j.=X@X        ",
"                                                                              o < ( w.` e % T D . * >.{.>.9 f 5 t._.OX).        ",
"                                                                                  o % F w.4.3 . b : `.5X'.[ f _ #X(.+XL.        ",
"                                                                                      o o w w.D L . F.`.{.. q x.U.%Xz.          ",
"                                                                                            o % a % 3 N.X.l _ -XXX~.            ",
"                                                                                                i t . . . 9 j.XXk.              ",
"                                                                                                  a i s G 1 $.i.                ",
"                                                                                                      r r & +.                  ",
"                                                                                                          r                     ",
"                                                                                                                                ",
"                                                                                                                                ",
"                                                                                                                                ",
"                                                                                                                                ",
"                                                                                                                                ",
"                                                                                                                                ",
"                                                                                                                                ",
"                                                                                                                                ",
"                                                                                                                                ",
"                                                                                                                                ",
"                                                                                                                                ",
"                                                                                                                                ",
"                                                                                                                                ",
"                                                                                                                                "
};
