/* XPM */
static char *result[] = {
/* columns rows colors chars-per-pixel */
"64 64 219 2 ",
"   c black",
".  c #040100",
"X  c #070100",
"o  c #060300",
"O  c #040003",
"+  c #000400",
"@  c #060500",
"#  c #070700",
"$  c #0B0200",
"%  c #0A0500",
"&  c #0C0400",
"*  c #0E0700",
"=  c #0E0900",
"-  c #120100",
";  c #100600",
":  c #130600",
">  c #190600",
",  c #120900",
"<  c #130900",
"1  c #180900",
"2  c #1B0900",
"3  c #1D0900",
"4  c #1D0A00",
"5  c #190D00",
"6  c #190E00",
"7  c #1D0D00",
"8  c #210300",
"9  c #250700",
"0  c #200800",
"q  c #200F00",
"w  c #230F00",
"e  c #240D00",
"r  c #2C0900",
"t  c #290E00",
"y  c #310600",
"u  c #390400",
"i  c #330B00",
"p  c #3B0900",
"a  c #390F00",
"s  c #271000",
"d  c #261400",
"f  c #2B1700",
"g  c #2E1A00",
"h  c #301000",
"j  c #301200",
"k  c #321200",
"l  c #321300",
"z  c #3C1200",
"x  c #391500",
"c  c #3A1500",
"v  c #381700",
"b  c #331D00",
"n  c #3F1800",
"m  c #3A2000",
"M  c #420700",
"N  c #4D0700",
"B  c #460B00",
"V  c #4B0D00",
"C  c #5B0500",
"Z  c #550C00",
"A  c #411100",
"S  c #431600",
"D  c #441400",
"F  c #461600",
"G  c #4A1200",
"H  c #4E1000",
"J  c #441B00",
"K  c #521100",
"L  c #501400",
"P  c #5C1000",
"I  c #5E1100",
"U  c #5C1200",
"Y  c #581E00",
"T  c #5D1F00",
"R  c #5E1F00",
"E  c #690800",
"W  c #7A0700",
"Q  c #730D00",
"!  c #651400",
"~  c #6C1200",
"^  c #631F00",
"/  c #6C1F00",
"(  c #751B00",
")  c #7F1C00",
"_  c #7E1D00",
"`  c #402400",
"'  c #4B2000",
"]  c #472900",
"[  c #4D2C00",
"{  c #552200",
"}  c #532F00",
"|  c #592C00",
" . c #593200",
".. c #5F3600",
"X. c #692C00",
"o. c #702100",
"O. c #722200",
"+. c #742500",
"@. c #7D2200",
"#. c #7D2300",
"$. c #663900",
"%. c #673900",
"&. c #6F3E00",
"*. c #7C3300",
"=. c #5C4400",
"-. c #764200",
";. c #7D4000",
":. c #784D00",
">. c #810B00",
",. c #9B0B00",
"<. c #821600",
"1. c #831900",
"2. c #991200",
"3. c #921A00",
"4. c #951B00",
"5. c #810012",
"6. c #A70C00",
"7. c #B70D00",
"8. c #A41400",
"9. c #AD1600",
"0. c #AE1900",
"q. c #802200",
"w. c #842200",
"e. c #8B2500",
"r. c #982500",
"t. c #873C00",
"y. c #993A00",
"u. c #A32900",
"i. c #A12D00",
"p. c #AA2A00",
"a. c #BC2700",
"s. c #B72900",
"d. c #B42A00",
"f. c #A43900",
"g. c #CE0A00",
"h. c #D10800",
"j. c #C71700",
"k. c #E51200",
"l. c #C82D00",
"z. c #DC2000",
"x. c #DD2400",
"c. c #DC3000",
"v. c #F12000",
"b. c #FF2C09",
"n. c #E63200",
"m. c #EC3900",
"M. c #FF3902",
"N. c #824900",
"B. c #8C4F00",
"V. c #9A4E00",
"C. c #855600",
"Z. c #945400",
"A. c #9E5900",
"S. c #B64400",
"D. c #A85F00",
"F. c #A17200",
"G. c #C34700",
"H. c #DE4000",
"J. c #D55A00",
"K. c #E85700",
"L. c #FF5708",
"P. c #FF4012",
"I. c #FF441B",
"U. c #FF5A17",
"Y. c #D16600",
"T. c #C07000",
"R. c #CE7400",
"E. c #DC7D00",
"W. c #FF6B05",
"Q. c #FF680C",
"!. c #FF4B2D",
"~. c #FF5120",
"^. c #FF5839",
"/. c #FF6F39",
"(. c #FF6E42",
"). c #FF6049",
"_. c #FF6D4A",
"`. c #FF7543",
"'. c #FF7655",
"]. c #B78A00",
"[. c #C79B00",
"{. c #FF8907",
"}. c #F19200",
"|. c #FF8311",
" X c #FF9917",
".X c #DCAF00",
"XX c #FF8447",
"oX c #FF864D",
"OX c #FF8F53",
"+X c #FF8E63",
"@X c #FF8469",
"#X c #FF947D",
"$X c #FFA270",
"%X c #FFAA7C",
"&X c #FFB676",
"*X c #FF9D82",
"=X c #FF9C8A",
"-X c #FFB188",
";X c #FFBA92",
":X c #FFB4A1",
">X c #FFC984",
",X c #FFCC85",
"<X c #FFDE86",
"1X c #FFCB94",
"2X c #FFC5AC",
"3X c #FFD3B8",
"4X c #FFEFA7",
"5X c #FFE8AA",
"6X c #FFEFBC",
"7X c #FF96FF",
"8X c #FFD5D0",
"9X c #FFD2D9",
"0X c #FFE8C6",
"qX c #FFF4CC",
"wX c #FFEBD4",
"eX c #FFF7EF",
"rX c #FFFEFA",
"tX c white",
"yX c None",
/* pixels */
"yXyXyXyXyXyXyXyXyXyXyXyXyXyXyXyXyXyXyXyXyXyXyXyXyXyXyXyXyXyXyXyXyXyXyXyXyXyXyXyXyXyXyXyXyXyXyXyXyXyXyXyXyXyXyXyXyXyXyXyXyXyXyXyX",
"yXyXyXyXyXyXyXyXyXyXyXyXyXyXyXyXyXyXyXyXyXyXyXyXyXyXyXyXyXyXyXyXyXyXyXyXyXyXyXyXyXyXyXyXyXyXyXyXyXyXyXyXyXyXyXyXyXyXyXyXyXyXyXyX",
"yXyXyXyXyXyXyXyXyXyXyXyXyXyXyXyXyXyXyXyXyXyXyXyXyXyXyXyXyXyXyXyXyXyXyXyXyXyXyXyXyXyXyXyXyXyXyXyXyXyXyXyXyXyXyXyXyXyXyXyXyXyXyXyX",
"yXyXyXyXyXyXyXyXyXyXyXyXyXyXyXyXyXyXyXyXyXyXyXyXyXyXyXyXyXyXyXyXyXyXyXyXyXyXyXyXyXyXyXyXyXyXyXyXyXyXyXyXyXyXyXyXyXyXyXyXyXyXyXyX",
"yXyXyXyXyXyXyXyXyXyXyXyXyXyXyXyXyXyXyXyXyXyXyXyXyXyXyXyXyXyXyXyXyXyXyXyXyXyXyXyXyXyXyXyX^ ^ { F yXyXyXyXyXyXyXyXyXyXyXyXyXyXyXyX",
"yXyXyXyXyXyXyXyXyXyXyXyXyXyXyXyXyXyXyXyXyXyXyXyXyXyXyXyXyXyXyXyXyXyXyXyXyXyXyXyXp T { h Q.qX5X_.S.@.yXyXyXyXyXyXyXyXyXyXyXyXyXyX",
"yXyXyXyXyXyXyXyXyXyXyXyXyXyXyXyXyXyXyXyXyXyXyXyXyXyXyXyXyXyXyXyXyXyXyXyXyXyXl @.H.+Xs T {.rX5XrXqX,X! yXyXyXyXyXyXyXyXyXyXyXyXyX",
"yXyXyXyXyXyXyXyXyXyXyXyXyXyXyXyXyXyXyXyXyXyXyXyXyXyXyXyXyXyXyXyXyXyXyXyXh D H.l.$Xm.% H 5.N -X-XXX~ A yXyXyXyXyXyXyXyXyXyXyXyXyX",
"yXyXyXyXyXyXyXyXyXyXyXyXyXyXyXyXyXyXyXyXyXyXyXyXyXyXyXyXyXyXyXyXyXyXyX0 z ! o.Z P , w H 3.g.u 5.- @.A yXyXyXyXyXyXyXyXyXyXyXyXyX",
"yXyXyXyXyXyXyXyXyXyXyXyXyXyXyXyXyXyXyXyXyXyXyXyXyXyXyXyXyXyXyXyXyXyXyX7 s z x w j J S V s.Z -X& 7 +.3.3.m.yXyXyXyXyXyXyXyXyXyXyX",
"yXyXyXyXyXyXyXyXyXyXyXyXyXyXyXyXyXyXyXyXyXyXyXyXyXyXyXyXyXyXyXyXyXyXyX0 i i j 8 o & y 3 ) *Xi e e i @.OX*X4.yXyXyXyXyXyXyXyXyXyX",
"yXyXyXyXyXyXyXyXyXyXyXyXyXyXyXyXyXyXyXyXyXyXyXyXyXyXyXyXyXyXyXyXyXyXr 0 ;     < 1 V ~ n f.! m - < h ^ ,X`.tXV yXyXyXyXyXyXyXyXyX",
"yXyXyXyXyXyXyXyXyXyXyXyXyXyXyXyXyXyXyXyXyXyXyXyXyXyXyXyXyXyXyXyXyXyX= i F h u.r ; H 9 j l j 3.X.0   U c.rX%XtXV yXyXyXyXyXyXyXyX",
"yXyXyXyXyXyXyXyXyXyXyXyXyXyXyXyXyXyXyXyXyXyXyXyXyXyXyXyXyXyXyXyXyXyXO & r H `.9.% p.9 j :.< 8 ~ 9   p o.%X1XeX%XK yXyXyXyXyXyXyX",
"yXyXyXyXyXyXyXyXyXyXyXyXyXyXyXyXyXyXyXyXyXyXyXyXyXyXyXyXyXyXyXyXyXyX< % = & Q y & c x [ tX:.i M.n   V F #.I.3XtXb.yXyXyXyXyXyXyX",
"yXyXyXyXyXyXyXyXyXyXyXyXyXyXyXyXyXyXyXyXyXyXyXyXyXyXyXyXyXyXyXyXyXyX+ 1 1 ' $ , . t ( :..X[.I <.m   e c p #.7.9XOXyXyXyXyXyXyXyX",
"yXyXyXyXyXyXyXyXyXyXyXyXyXyXyXyXyXyXyXyXyXyXyXyXyXyXyXyXyXyXyXyXyX# 8 9 / V.Y.Z.. * J g F.C.e x q     r a F =.9.v.yXyXyXyXyXyXyX",
"yXyXyXyXyXyXyXyXyXyXyXyXyXyXyXyXyXyXyXyXyXyXyXyXyXyXyXyXyXyXyXyXyX# 9 s w.J.W.T.T.. 5 w , 5 3 x ; 1 1   7 F p W > yXyXyXyXyXyXyX",
"yXyXyXyXyXyXyXyXyXyXyXyXyXyXyXyXyXyXyXyXyXyXyXyXyXyXyXyXyXyXyXyXyX@ 8 c +.W.|.}.R.A.* j w x / K   -.1 < 1 % X % 1 yXyXyXyXyXyXyX",
"yXyXyXyXyXyXyXyXyXyXyXyXyXyXyXyXyXyXyXyXyXyXyXyXyXyXyXyXyXyXyXyXyXyX  7 X.;.T.].D.&.-., 3 3 t x f N.T.i 0 M F d.^ K yXyXyXyXyXyX",
"yXyXyXyXyXyXyXyXyXyXyXyXyXyXyXyXyXyXyXyXyXyXyXyXyXyXyXyXyXyXyXyXyX# e F J X.V.&.} ..N.Z.-...m f &.Z.6 = H o.p.tX`.I yXyXyXyXyXyX",
"yXyXyXyXyXyXyXyXyXyXyXyXyXyXyXyXyXyXyXyXyXyXyXyXyXyXyXyXyXyXyXyXyX# 5 c @.O.K b [ &.D.T.R.N.[ $.    [ O < E n.tX*XV yXyXyXyXyXyX",
"yXyXyXyXyXyXyXyXyXyXyXyXyXyXyXyXyXyXyXyXyXyXyXyXyXyXyXyXyXyXyXyXyX# 5 h D @.O.m N.E.}.T.&.-.f   b Z.&.< < 4 N ^.) V yXyXyXyXyXyX",
"yXyXyXyXyXyXyXyXyXyXyXyXyXyXyXyXyXyXyXyXyXyXyXyXyXyXyXyXyXyXyXyXyX# = y H P y.R.}.}.Z.-.&.d [ D.Z.D.} Z.+ 1 - B w yXyXyXyXyXyXyX",
"yXyXyXyXyXyXyXyXyXyXyXyXyXyXyXyXyXyXyXyXyXyXyXyXyXyXyXyXyXyXyXyXyX# 1 4 D G. X}.Z.m b ` &.A.-.A.-.m B.# 8 z o.k.8X*.yXyXyXyXyXyX",
"yXyXyXyXyXyXyXyXyXyXyXyXyXyXyXyXyXyXyXyXyXyXyXyXyXyXyXyXyXyXyXyXyX# ; = D t.| * . 5 $.&.b ` [ g } Z.f # 9 F s.8XtX).yXyXyXyXyXyX",
"yXyXyXyXyXyXyXyXyXyXyXyXyXyXyXyXyXyXyXyXyXyXyXyXyXyXyXyXyXyXyXyXyXyX# # w w k ` ..} $ X , % [  ., b m @ 8 c f.=XOXp.yXyXyXyXyXyX",
"yXyXyXyXyXyXyXyXyXyXyXyXyXyXyXyXyXyXyXyXyXyXyXyXyXyXyXyXyXyXyXyXyXy W F Y t.t.b , d ` , b [ 5 ` ..&.} m   7 l M ) yXyXyXyXyXyXyX",
"yXyXyXyXyXyXyXyXyXyXyXyXyXyXyXyXyXyXyXyXyXyXyXyXyXyXyXyXyXyXyXyXyXy P d.S.u.G } B.` m [ 5 m ..B.-. .d # e F r c 7._ yXyXyXyXyXyX",
"yXyXyXyXyXyXyXyXyXyXyXyXyXyXyXyXyXyXyXyXyXyXyXyXyXyXyXyXyXyXyXyX>.C W W ! G.Y.B.m } [ }  .B.B.&.[ 6 $ # 5 c O.S.wXJ.yXyXyXyXyXyX",
"yXyXyXyXyXyXyXyXyXyXyXyXyXyXyXyXyXyXyXyXyXyXyXyXyXyXyXyXyXyXyXyX2.2.C H R t.n ` } $.$.-.:...} g   6 N.# 5 h D u.eX~.yXyXyXyXyXyX",
"yXyXyXyXyXyXyXyXyXyXyXyXyXyXyXyXyXyXyXyXyXyXyXyXyXyXyXyXyXyXyX>.>.,.g.n.S.v.p.t.%.&.-.} b [ 5   ` Z.-.= = s P d.tX3.yXyXyXyXyXyX",
"yXyXyXyXyXyXyXyXyXyXyXyXyXyXyXyXyXyXyXyXyXyXyXyXyXyXyXyXyXyXyXg.g.g.x.x.,.9.j./ t.X.t g ..d g N.B. .d # 1 4 u u.OX0.yXyXyXyXyXyX",
"yXyXyXyXyXyXyXyXyXyXyXyXyXyXyXyXyXyXyXyXyXyXyXyXyXyXyXyXyX7X<X4X<X>XoXs.7.<.( r.) 3.y.t.' [ :.&.g * 5 = & = s #.n.A yXyXyXyXyXyX",
"yXyXyXyXyXyXyXyXyXyXyXyXyXyXyXyXyXyXyXyXyXyXyXyXyXyXyXyXyX7XtXtXtX4X~.6.!.0.3.8.v.L.~.f.1.y.' & . f [ 9 @ # = = N yXyXyXyXyXyXyX",
"yXyXyXyXyXyXyXyXyXyXyXyXyXyXyXyXyXyXyXyXyXyXyXyXyXyXyXyXyXoXtXtXtX&X7.7.v.<.p p K z._.!.s.s.9.K | | [ e ^ F U ) =XX.yXyXyXyXyXyX",
"yXyXyXyXyXyXyXyXyXyXyXyXyXyXyXyXyXyXyXyXyXyXyXyXyXyXyXyXyX/.~.;X6X(.h.k.C 1.a._ : 1 c 8.H.!.l.a.w.R J % a d.`.3XtXQ.yXyXyXyXyXyX",
"yXyXyXyXyXyXyXyXyXyXyXyXyXyXyXyXyXyXyXyXyXyXyXyXyXyXyXyXyX>.g.g.+X/.7.<.v.4.y K _ _ q : h 8.v.oXq.O.R - s F s.).Q.3.yXyXyXyXyXyX",
"yXyXyXyXyXyXyXyXyXyXyXyXyXyXyXyXyXyXyXyXyXyXyXyXyXyXyXyXyXyXg.7.P.U.j.Q H <.0./ , w _ _ v % l 9.v.i.I e       y ~ 0X_.g.yXyXyXyX",
"yXyXyXyXyXyXyXyXyXyXyXyXyXyXyXyXyXyXyXyXyXyXyXyXyXyXyXyXyXyXyXyX3.0.v.a.0.K ; A 4._ w , I w.g   ; c Z - z d.K.wXtXS.) ).yXyXyXyX",
"yXyXyXyXyXyXyXyXyXyXyXyXyXyXyXyXyXyXyXyXyXyXyXyXyXyXyXyXyXyXyXyXyXyXp p I 4.w.L $ w 1.e.v $ w J A   e   - Z h.h.h.^ #X:XyXyXyXyX",
"yXyXyXyXyXyXyXyXyXyXyXyXyXyXyXyXyXyXyXyXyXyXyXyXyXyXyXyXyXyXyXyXyXyXyXyX; . , e.r./ * , / 4.2   , L i o B r p I ) z.2X*XyXyXyXyX",
"yXyXyXyXyXyXyXyXyXyXyXyXyXyXyXyXyXyXyXyXyXyXyXyXyXyXyXyXyXyXyXyXyXyXyXyXyXyXyXX , / r._ w $ Y A   & :..X:.8 s 4 u.'.$X`.yXyXyXyX",
"yXyXyXyXyXyXyXyXyXyXyXyXyXyXyXyXyXyXyXyXyXyXyXyXyXyXyXyXyXyXyXyXyXyXyXyXyXyXyXyXyXX $ S r.4.2   x ; ].tX[.] s ) =X_.%XK.yXyXyXyX",
"yXyXyXyXyXyXyXyXyXyXyXyXyXyXyXyXyXyXyXyXyXyXyXyXyXyXyXyXyXyXyXyXyXyXyXyXyXyXyXyXyXyXyXX X q r.A K   F.]..X  0 b.I.:Xv.yXyXyXyXyX",
"yXyXyXyXyXyXyXyXyXyXyXyXyXyXyXyXyXyXyXyXyXyXyXyXyXyXyXyXyXyXyXyXyXyXyXyXyXyXyXyXyXyXyXyXyXyXX $ i $ 2 C...h ) 3X@X^.yXyXyXyXyXyX",
"yXyXyXyXyXyXyXyXyXyXyXyXyXyXyXyXyXyXyXyXyXyXyXyXyXyXyXyXyXyXyXyXyXyXyXyXyXyXyXyXyXyXyXyXyXyXyXyXy r       8 z.@Xx.yXyXyXyXyXyXyX",
"yXyXyXyXyXyXyXyXyXyXyXyXyXyXyXyXyXyXyXyXyXyXyXyXyXyXyXyXyXyXyXyXyXyXyXyXyXyXyXyXyXyXyXyXyXyXyXyXyXi y p D < #.a.yXyXyXyXyXyXyXyX",
"yXyXyXyXyXyXyXyXyXyXyXyXyXyXyXyXyXyXyXyXyXyXyXyXyXyXyXyXyXyXyXyXyXyXyXyXyXyXyXyXyXyXyXyXyXyXyXyXyXyXyXe e % O.yXyXyXyXyXyXyXyXyX",
"yXyXyXyXyXyXyXyXyXyXyXyXyXyXyXyXyXyXyXyXyXyXyXyXyXyXyXyXyXyXyXyXyXyXyXyXyXyXyXyXyXyXyXyXyXyXyXyXyXyXyXyXyXe yXyXyXyXyXyXyXyXyXyX",
"yXyXyXyXyXyXyXyXyXyXyXyXyXyXyXyXyXyXyXyXyXyXyXyXyXyXyXyXyXyXyXyXyXyXyXyXyXyXyXyXyXyXyXyXyXyXyXyXyXyXyXyXyXyXyXyXyXyXyXyXyXyXyXyX",
"yXyXyXyXyXyXyXyXyXyXyXyXyXyXyXyXyXyXyXyXyXyXyXyXyXyXyXyXyXyXyXyXyXyXyXyXyXyXyXyXyXyXyXyXyXyXyXyXyXyXyXyXyXyXyXyXyXyXyXyXyXyXyXyX",
"yXyXyXyXyXyXyXyXyXyXyXyXyXyXyXyXyXyXyXyXyXyXyXyXyXyXyXyXyXyXyXyXyXyXyXyXyXyXyXyXyXyXyXyXyXyXyXyXyXyXyXyXyXyXyXyXyXyXyXyXyXyXyXyX",
"yXyXyXyXyXyXyXyXyXyXyXyXyXyXyXyXyXyXyXyXyXyXyXyXyXyXyXyXyXyXyXyXyXyXyXyXyXyXyXyXyXyXyXyXyXyXyXyXyXyXyXyXyXyXyXyXyXyXyXyXyXyXyXyX",
"yXyXyXyXyXyXyXyXyXyXyXyXyXyXyXyXyXyXyXyXyXyXyXyXyXyXyXyXyXyXyXyXyXyXyXyXyXyXyXyXyXyXyXyXyXyXyXyXyXyXyXyXyXyXyXyXyXyXyXyXyXyXyXyX",
"yXyXyXyXyXyXyXyXyXyXyXyXyXyXyXyXyXyXyXyXyXyXyXyXyXyXyXyXyXyXyXyXyXyXyXyXyXyXyXyXyXyXyXyXyXyXyXyXyXyXyXyXyXyXyXyXyXyXyXyXyXyXyXyX",
"yXyXyXyXyXyXyXyXyXyXyXyXyXyXyXyXyXyXyXyXyXyXyXyXyXyXyXyXyXyXyXyXyXyXyXyXyXyXyXyXyXyXyXyXyXyXyXyXyXyXyXyXyXyXyXyXyXyXyXyXyXyXyXyX",
"yXyXyXyXyXyXyXyXyXyXyXyXyXyXyXyXyXyXyXyXyXyXyXyXyXyXyXyXyXyXyXyXyXyXyXyXyXyXyXyXyXyXyXyXyXyXyXyXyXyXyXyXyXyXyXyXyXyXyXyXyXyXyXyX",
"yXyXyXyXyXyXyXyXyXyXyXyXyXyXyXyXyXyXyXyXyXyXyXyXyXyXyXyXyXyXyXyXyXyXyXyXyXyXyXyXyXyXyXyXyXyXyXyXyXyXyXyXyXyXyXyXyXyXyXyXyXyXyXyX",
"yXyXyXyXyXyXyXyXyXyXyXyXyXyXyXyXyXyXyXyXyXyXyXyXyXyXyXyXyXyXyXyXyXyXyXyXyXyXyXyXyXyXyXyXyXyXyXyXyXyXyXyXyXyXyXyXyXyXyXyXyXyXyXyX",
"yXyXyXyXyXyXyXyXyXyXyXyXyXyXyXyXyXyXyXyXyXyXyXyXyXyXyXyXyXyXyXyXyXyXyXyXyXyXyXyXyXyXyXyXyXyXyXyXyXyXyXyXyXyXyXyXyXyXyXyXyXyXyXyX",
"yXyXyXyXyXyXyXyXyXyXyXyXyXyXyXyXyXyXyXyXyXyXyXyXyXyXyXyXyXyXyXyXyXyXyXyXyXyXyXyXyXyXyXyXyXyXyXyXyXyXyXyXyXyXyXyXyXyXyXyXyXyXyXyX",
"yXyXyXyXyXyXyXyXyXyXyXyXyXyXyXyXyXyXyXyXyXyXyXyXyXyXyXyXyXyXyXyXyXyXyXyXyXyXyXyXyXyXyXyXyXyXyXyXyXyXyXyXyXyXyXyXyXyXyXyXyXyXyXyX",
"yXyXyXyXyXyXyXyXyXyXyXyXyXyXyXyXyXyXyXyXyXyXyXyXyXyXyXyXyXyXyXyXyXyXyXyXyXyXyXyXyXyXyXyXyXyXyXyXyXyXyXyXyXyXyXyXyXyXyXyXyXyXyXyX"
};
