/* XPM */
static char *portal_open_2[] = {
/* columns rows colors chars-per-pixel */
"64 64 220 2 ",
"   c #030103",
".  c black",
"X  c #040100",
"o  c #070100",
"O  c #060300",
"+  c #000400",
"@  c #060500",
"#  c #070700",
"$  c None",
"%  c #0A0500",
"&  c #0C0400",
"*  c #0E0700",
"=  c #0E0900",
"-  c #120100",
";  c #100600",
":  c #130600",
">  c #190600",
",  c #120900",
"<  c #130900",
"1  c #180900",
"2  c #1B0900",
"3  c #1D0A00",
"4  c #190D00",
"5  c #190E00",
"6  c #210300",
"7  c #250700",
"8  c #200800",
"9  c #200F00",
"0  c #230F00",
"q  c #240D00",
"w  c #2C0900",
"e  c #290E00",
"r  c #310600",
"t  c #390400",
"y  c #330B00",
"u  c #3B0900",
"i  c #390F00",
"p  c #271000",
"a  c #261400",
"s  c #291100",
"d  c #2B1700",
"f  c #2E1A00",
"g  c #301000",
"h  c #301200",
"j  c #321200",
"k  c #321300",
"l  c #3C1200",
"z  c #391500",
"x  c #3A1500",
"c  c #381700",
"v  c #331D00",
"b  c #3A2000",
"n  c #420700",
"m  c #4D0700",
"M  c #460B00",
"N  c #4B0D00",
"B  c #5B0500",
"V  c #550C00",
"C  c #411100",
"Z  c #431600",
"A  c #441400",
"S  c #461600",
"D  c #4A1200",
"F  c #4E1000",
"G  c #441B00",
"H  c #521100",
"J  c #501400",
"K  c #5C1000",
"L  c #5E1100",
"P  c #5C1200",
"I  c #521F00",
"U  c #581E00",
"Y  c #5D1F00",
"T  c #5E1F00",
"R  c #690800",
"E  c #7A0700",
"W  c #730D00",
"Q  c #651400",
"!  c #6C1200",
"~  c #631F00",
"^  c #6C1F00",
"/  c #7F1C00",
"(  c #7E1D00",
")  c #402400",
"_  c #4B2000",
"`  c #472900",
"'  c #4D2C00",
"]  c #532F00",
"[  c #592C00",
"{  c #593200",
"}  c #5F3600",
"|  c #692C00",
" . c #722200",
".. c #742500",
"X. c #7D2300",
"o. c #663900",
"O. c #673900",
"+. c #6F3E00",
"@. c #7C3300",
"#. c #764200",
"$. c #784D00",
"%. c #810B00",
"&. c #9B0B00",
"*. c #821600",
"=. c #831900",
"-. c #991200",
";. c #921A00",
":. c #951B00",
">. c #B70D00",
",. c #A41400",
"<. c #AD1600",
"1. c #AE1900",
"2. c #802200",
"3. c #842200",
"4. c #8B2500",
"5. c #982500",
"6. c #873C00",
"7. c #993A00",
"8. c #A32900",
"9. c #A12D00",
"0. c #AA2A00",
"q. c #BC2700",
"w. c #B72900",
"e. c #B42A00",
"r. c #A43900",
"t. c #CE0A00",
"y. c #D10800",
"u. c #C71700",
"i. c #E51200",
"p. c #FF1809",
"a. c #C82D00",
"s. c #DC2000",
"d. c #DD2400",
"f. c #DC3000",
"g. c #DE3700",
"h. c #F12000",
"j. c #FF2C09",
"k. c #E63200",
"l. c #EC3900",
"z. c #FF3902",
"x. c #FF2E21",
"c. c #824900",
"v. c #8C4F00",
"b. c #9A4E00",
"n. c #855600",
"m. c #945400",
"M. c #9E5900",
"N. c #B64400",
"B. c #A85900",
"V. c #A85F00",
"C. c #B56600",
"Z. c #A17200",
"A. c #C34700",
"S. c #DE4000",
"D. c #D55A00",
"F. c #E85700",
"G. c #FF4012",
"H. c #FF441B",
"J. c #FF5A17",
"K. c #D16600",
"L. c #C07000",
"P. c #CE7400",
"I. c #DC7D00",
"U. c #FF6B05",
"Y. c #FF680C",
"T. c #FF4B2D",
"R. c #FF5120",
"E. c #FF5839",
"W. c #FF752B",
"Q. c #FF6F39",
"!. c #FF6E42",
"~. c #FF6049",
"^. c #FF6D4A",
"/. c #FF7543",
"(. c #FF7655",
"). c #B78A00",
"_. c #C79B00",
"`. c #FF8311",
"'. c #DCAF00",
"]. c #FF8447",
"[. c #FF864D",
"{. c #FF8F53",
"}. c #FFA146",
"|. c #FFAB5B",
" X c #FF8E63",
".X c #FF8469",
"XX c #FF947D",
"oX c #FFA26A",
"OX c #FFA270",
"+X c #FFAA7C",
"@X c #FFB676",
"#X c #FF9D82",
"$X c #FF9C8A",
"%X c #FFBA86",
"&X c #FFB188",
"*X c #FFBA92",
"=X c #FFB4A1",
"-X c #FFC984",
";X c #FFCC85",
":X c #FFCE91",
">X c #FFCB94",
",X c #FFC5AC",
"<X c #FFCAAF",
"1X c #FFD1A1",
"2X c #FFC8B5",
"3X c #FFD9B6",
"4X c #FFD3B8",
"5X c #FFEFA7",
"6X c #FFE8AA",
"7X c #FFEFBC",
"8X c #FF96FF",
"9X c #FFD5D0",
"0X c #FFD2D9",
"qX c #FFE8C6",
"wX c #FFF4CC",
"eX c #FFEBD4",
"rX c #FFF7EF",
"tX c #FFFCE9",
"yX c #FFFEFA",
"uX c white",
/* pixels */
"                                                                                                                                ",
"                                                                                                                                ",
"                                                                                                                                ",
"                                                                                                                                ",
"                                                                                        8.8.-./                                 ",
"                                                                                *.<.<.X.OXwXwXXXH.a.                            ",
"                                                                            *.f.].&X%.u.|.yXqXyXtX;Xw.                          ",
"                                                                        R ;.].[.>X XR y.x.y.<X2X&Xi.,.                          ",
"                                                                      m ;.w.i.R.Q.E ,.i.~.(.y.x.%.h.1.                          ",
"                                                                      V E >.,.1.Q.z.h.p.(.p.2X&.&.l.x.j.!.                      ",
"                                                                      R %.;.,.>.J.[.T.h.~.9Xi.t.t.>.R.;X<Xl.                    ",
"                                                                    R W R R E >.z.:X&X[.XX~.h.y.R.Q.oX5X>XyX;.                  ",
"                                                                    m %.>.>.(.t.z.:X3XoX&XT.*X:X:X[.!.{.yX,XuXX.                ",
"                                                                    m K &.i.=X(.t.1XtXuXuXuXuXwX@Xs.i.x.,X6XyX=X*.              ",
"                                                                    K K %.%.T.i.t. XuXuXuXuXtX3XT.&.h.i.j..XqXuX~.              ",
"                                                                    m R W W &.>.i.:XuXuXuXuX3X(.h.<.>.t.>.h.x.0X+X              ",
"                                                                  n R %.;.E M ) @XtXuXuXuXuX1XT.s.&.%.>.>.>.N.h.T.              ",
"                                                                  n ! %.-.,.1.D.1X7XXX<XuXyX-X!.t.t.,.R X.,.%.w.m               ",
"                                                                  t R ;.0.z.}.}.A.[ t.E.3XwX1X!.>.+.&.%.! m M u r               ",
"                                                                    r *.q.D.A.[ ' v * t.E.%X1XG.v C.I.&.E &.%.k.&.P             ",
"                                                                    Q q.r.A.6.} 5 , 5 5 ' ( W.U.P.M.' ! >.w.k.uX.X(             ",
"                                                                  p S 2.l.D.4.f ) #.V.c.+.+.K.`.C % d B K >.H.uX,XN             ",
"                                                                  > i W 5.q.7.#.$.v.M.v.] v 0 ..T X . K m m %.^.&.H             ",
"                                                                  3 p K E X.P b M.P.v.' f * . [ K.$.V.c.r u t B j               ",
"                                                                  < w l K ~ ..M.v.5 a ) $ , L.P.B.O.a t m K / k.9X@.            ",
"                                                                  = 8 7 l I h . X ) #.b #.P.L.{ ' ) $ p n ~ s.9XuX~.            ",
"                                                                    = < 8 < & b M.c.+.V.M.{ #.c.$ , ) 6 r S 0.$X{.0.            ",
"                                                                    K l g N b.#.o.C.V.o.v.V.% , } { } m.& 3 k n /               ",
"                                                                  + t 8.a.l...m.P.+.M.I.' % o.c.+.o.' = q S w x >.(             ",
"                                                                u - p i Y 7.B.{ } L.L.5 ) { ] ] ' b ] # 4 x  .N.eXD.            ",
"                                                                q q . X % e e #.V., d ) v 4 b ] { } v = 4 g A 8.rXR.            ",
"                                                              % + - t ! @.S.D.U f ] ] f % ) +.+.] v ) @ = r K e.uX;.            ",
"                                                            8X% @ % . p 2.E %.T 6.6._ % f } ' b b b o.# 1 3 t 8.{.1.            ",
"                                                            O n.'.` > = n C T 7.a.1.Y A G v f d f +.{ # ; = p X.k.C             ",
"                                                          8XO ).uX_.) = ;.L P 2.g.>.h.;.3.3.z s ] b % 7 @ # = = m               ",
"                                                          X , Z.).).. < ..c , q D s.~.Y.s.w.w.T G 1 } h K S P / $X|             ",
"                                                          % 9 ' n.2 > M $ c 4.T , 1 u ,.G.H.a./ F | O.% i e./.4XuXY.            ",
"                                                          : 8 . . . < 5 =.J * C ( ( 9 : g ,.h.T.9.5.T - p S w.~.Y.;.            ",
"                                                            S 7 7 8 i 9 , J 4.^ , 0 ( ( c % k <.h.9.L q . . . r ! qX^.t.        ",
"                                                                7 1 *.( ^ e $ C :.( 0 , L 3.f . ; x V - l e.F.eXuXN./ ~.        ",
"                                                                    $ , G ( 3.J $ 0 =.4.c $ 0 G C . q . - V y.y.y.~ XX=X        ",
"                                                                        $ . , 4.5.^ * , ^ :.2 . , J y O M w u L / s.,X#X        ",
"                                                                              o , ^ 5.( 0 $ U C . & $.'.$.6 p 3 8.(.OX/.        ",
"                                                                                  o $ Z 5.:.2 . z ; ).uX_.` p / $X^.+XF.        ",
"                                                                                      o o 9 5.C H . Z.).'.. 8 j.H.=Xh.          ",
"                                                                                            o $ y $ 2 n.} g / 4X.XE.            ",
"                                                                                                r w . . . 6 s..Xd.              ",
"                                                                                                  y r u A < X.q.                ",
"                                                                                                      q q %  .                  ",
"                                                                                                          q                     ",
"                                                                                                                                ",
"                                                                                                                                ",
"                                                                                                                                ",
"                                                                                                                                ",
"                                                                                                                                ",
"                                                                                                                                ",
"                                                                                                                                ",
"                                                                                                                                ",
"                                                                                                                                ",
"                                                                                                                                ",
"                                                                                                                                ",
"                                                                                                                                ",
"                                                                                                                                ",
"                                                                                                                                "
};
