/* XPM */
static char *result[] = {
/* columns rows colors chars-per-pixel */
"64 64 204 2 ",
"   c black",
".  c #040100",
"X  c #070100",
"o  c #060300",
"O  c #040003",
"+  c #000400",
"@  c #060500",
"#  c #070700",
"$  c #0B0200",
"%  c #0A0500",
"&  c #0C0400",
"*  c #0E0700",
"=  c #0E0900",
"-  c #120100",
";  c #100600",
":  c #130600",
">  c #190600",
",  c #120900",
"<  c #130900",
"1  c #180900",
"2  c #1B0900",
"3  c #1D0900",
"4  c #1D0A00",
"5  c #190D00",
"6  c #190E00",
"7  c #1D0D00",
"8  c #210300",
"9  c #250700",
"0  c #200800",
"q  c #200F00",
"w  c #230F00",
"e  c #240D00",
"r  c #2C0900",
"t  c #290E00",
"y  c #310600",
"u  c #390400",
"i  c #330B00",
"p  c #3B0900",
"a  c #390F00",
"s  c #271000",
"d  c #261400",
"f  c #291100",
"g  c #2B1700",
"h  c #2E1A00",
"j  c #301000",
"k  c #301200",
"l  c #321300",
"z  c #3C1200",
"x  c #391500",
"c  c #3A1500",
"v  c #381700",
"b  c #331D00",
"n  c #3F1800",
"m  c #3A2000",
"M  c #420700",
"N  c #4D0700",
"B  c #460B00",
"V  c #4B0D00",
"C  c #550C00",
"Z  c #411100",
"A  c #431600",
"S  c #441400",
"D  c #461600",
"F  c #4E1000",
"G  c #441B00",
"H  c #521100",
"J  c #501400",
"K  c #5C1000",
"L  c #5E1100",
"P  c #5C1200",
"I  c #581E00",
"U  c #5D1F00",
"Y  c #5E1F00",
"T  c #690800",
"R  c #7A0700",
"E  c #730D00",
"W  c #651400",
"Q  c #6C1200",
"!  c #631F00",
"~  c #6C1F00",
"^  c #751B00",
"/  c #7F1C00",
"(  c #7E1D00",
")  c #402400",
"_  c #4B2000",
"`  c #472900",
"'  c #4D2C00",
"]  c #552200",
"[  c #532F00",
"{  c #592C00",
"}  c #593200",
"|  c #5F3600",
" . c #692C00",
".. c #702100",
"X. c #722200",
"o. c #742500",
"O. c #7D2200",
"+. c #7D2300",
"@. c #663900",
"#. c #6F3E00",
"$. c #7C3300",
"%. c #5C4400",
"&. c #764200",
"*. c #7D4000",
"=. c #784D00",
"-. c #810B00",
";. c #821600",
":. c #831900",
">. c #921A00",
",. c #951B00",
"<. c #810012",
"1. c #B70D00",
"2. c #A41400",
"3. c #AD1600",
"4. c #AE1900",
"5. c #802200",
"6. c #842200",
"7. c #8B2500",
"8. c #982500",
"9. c #873C00",
"0. c #993A00",
"q. c #A32900",
"w. c #A12D00",
"e. c #AA2A00",
"r. c #BC2700",
"t. c #B72900",
"y. c #B42A00",
"u. c #A43900",
"i. c #CE0A00",
"p. c #D10800",
"a. c #E51200",
"s. c #C82D00",
"d. c #DC2000",
"f. c #DD2400",
"g. c #DC3000",
"h. c #F12000",
"j. c #FF2C09",
"k. c #E63200",
"l. c #EC3900",
"z. c #FF3902",
"x. c #824900",
"c. c #8C4F00",
"v. c #9A4E00",
"b. c #855600",
"n. c #945400",
"m. c #9E5900",
"M. c #B64400",
"N. c #B94E00",
"B. c #A85F00",
"V. c #B56600",
"C. c #A17200",
"Z. c #C34700",
"A. c #DE4000",
"S. c #D55A00",
"D. c #E85700",
"F. c #FF5708",
"G. c #FF4012",
"H. c #FF441B",
"J. c #FF5A17",
"K. c #D16600",
"L. c #C07000",
"P. c #CE7400",
"I. c #DC7D00",
"U. c #FF680C",
"Y. c #F47500",
"T. c #FF5120",
"R. c #FF5839",
"E. c #FF6F39",
"W. c #FF6049",
"Q. c #FF6D4A",
"!. c #FF7543",
"~. c #FF7655",
"^. c #B78A00",
"/. c #C79B00",
"(. c #FF8907",
"). c #F19200",
"_. c #DCAF00",
"`. c #FF8447",
"'. c #FF8F53",
"]. c #FF9655",
"[. c #FF8E63",
"{. c #FF8469",
"}. c #FF947D",
"|. c #FFA270",
" X c #FFAA7C",
".X c #FF9D82",
"XX c #FF9C8A",
"oX c #FFB188",
"OX c #FFB4A1",
"+X c #FFCC85",
"@X c #FFCB94",
"#X c #FFC5AC",
"$X c #FFD3B8",
"%X c #FFE8AA",
"&X c #FF96FF",
"*X c #FFD5D0",
"=X c #FFD2D9",
"-X c #FFE8C6",
";X c #FFF4CC",
":X c #FFEBD4",
">X c #FFF7EF",
",X c #FFFEFA",
"<X c white",
"1X c None",
/* pixels */
"1X1X1X1X1X1X1X1X1X1X1X1X1X1X1X1X1X1X1X1X1X1X1X1X1X1X1X1X1X1X1X1X1X1X1X1X1X1X1X1X1X1X1X1X1X1X1X1X1X1X1X1X1X1X1X1X1X1X1X1X1X1X1X1X",
"1X1X1X1X1X1X1X1X1X1X1X1X1X1X1X1X1X1X1X1X1X1X1X1X1X1X1X1X1X1X1X1X1X1X1X1X1X1X1X1X1X1X1X1X1X1X1X1X1X1X1X1X1X1X1X1X1X1X1X1X1X1X1X1X",
"1X1X1X1X1X1X1X1X1X1X1X1X1X1X1X1X1X1X1X1X1X1X1X1X1X1X1X1X1X1X1X1X1X1X1X1X1X1X1X1X1X1X1X1X1X1X1X1X1X1X1X1X1X1X1X1X1X1X1X1X1X1X1X1X",
"1X1X1X1X1X1X1X1X1X1X1X1X1X1X1X1X1X1X1X1X1X1X1X1X1X1X1X1X1X1X1X1X1X1X1X1X1X1X1X1X1X1X1X1X1X1X1X1X1X1X1X1X1X1X1X1X1X1X1X1X1X1X1X1X",
"1X1X1X1X1X1X1X1X1X1X1X1X1X1X1X1X1X1X1X1X1X1X1X1X1X1X1X1X1X1X1X1X1X1X1X1X1X1X1X1X1X1X1X1X! ! ] D 1X1X1X1X1X1X1X1X1X1X1X1X1X1X1X1X",
"1X1X1X1X1X1X1X1X1X1X1X1X1X1X1X1X1X1X1X1X1X1X1X1X1X1X1X1X1X1X1X1X1X1X1X1X1X1X1X1Xp U ] j U.;X%XQ.M.O.1X1X1X1X1X1X1X1X1X1X1X1X1X1X",
"1X1X1X1X1X1X1X1X1X1X1X1X1X1X1X1X1X1X1X1X1X1X1X1X1X1X1X1X1X1X1X1X1X1X1X1X1X1Xl O.A.[.s U (.,X%X,X;X+XW 1X1X1X1X1X1X1X1X1X1X1X1X1X",
"1X1X1X1X1X1X1X1X1X1X1X1X1X1X1X1X1X1X1X1X1X1X1X1X1X1X1X1X1X1X1X1X1X1X1X1Xj S A.s.|.l.% F <.N oXoX`.Q Z 1X1X1X1X1X1X1X1X1X1X1X1X1X",
"1X1X1X1X1X1X1X1X1X1X1X1X1X1X1X1X1X1X1X1X1X1X1X1X1X1X1X1X1X1X1X1X1X1X1X0 z W ..C K , w F >.i.u <.- O.Z 1X1X1X1X1X1X1X1X1X1X1X1X1X",
"1X1X1X1X1X1X1X1X1X1X1X1X1X1X1X1X1X1X1X1X1X1X1X1X1X1X1X1X1X1X1X1X1X1X1X7 s z x w k G A V t.C oX& 7 o.>.>.l.1X1X1X1X1X1X1X1X1X1X1X",
"1X1X1X1X1X1X1X1X1X1X1X1X1X1X1X1X1X1X1X1X1X1X1X1X1X1X1X1X1X1X1X1X1X1X1X0 i i k 8 o & y 3 / .Xi e e i O.'..X,.1X1X1X1X1X1X1X1X1X1X",
"1X1X1X1X1X1X1X1X1X1X1X1X1X1X1X1X1X1X1X1X1X1X1X1X1X1X1X1X1X1X1X1X1X1Xr 0 ;     < 1 V Q n u.W m - < j ! +X!.<XV 1X1X1X1X1X1X1X1X1X",
"1X1X1X1X1X1X1X1X1X1X1X1X1X1X1X1X1X1X1X1X1X1X1X1X1X1X1X1X1X1X1X1X1X1X= i D j q.r ; F 9 k l k >. .0   P g.,X X<XV 1X1X1X1X1X1X1X1X",
"1X1X1X1X1X1X1X1X1X1X1X1X1X1X1X1X1X1X1X1X1X1X1X1X1X1X1X1X1X1X1X1X1X1XO & r F !.3.% e.9 k =.< 8 Q 9   p .. X@X>X XH 1X1X1X1X1X1X1X",
"1X1X1X1X1X1X1X1X1X1X1X1X1X1X1X1X1X1X1X1X1X1X1X1X1X1X1X1X1X1X1X1X1X1X< % = & E y & c x ' <X=.i z.n   V D +.H.$X<Xj.1X1X1X1X1X1X1X",
"1X1X1X1X1X1X1X1X1X1X1X1X1X1X1X1X1X1X1X1X1X1X1X1X1X1X1X1X1X1X1X1X1X1X+ 1 7 { $ , . t ^ =._./.L ;.m   e c p +.1.=X'.1X1X1X1X1X1X1X",
"1X1X1X1X1X1X1X1X1X1X1X1X1X1X1X1X1X1X1X1X1X1X1X1X1X1X1X1X1X1X1X1X1X# 8 9 H o.v.x.. * G h C.b.e x q     r a D %.3.h.1X1X1X1X1X1X1X",
"1X1X1X1X1X1X1X1X1X1X1X1X1X1X1X1X1X1X1X1X1X1X1X1X1X1X1X1X1X1X1X1X1X# 9 s ] 8.w.[ | . 5 w , 5 3 x ; 1 1   7 D p R > 1X1X1X1X1X1X1X",
"1X1X1X1X1X1X1X1X1X1X1X1X1X1X1X1X1X1X1X1X1X1X1X1X1X1X1X1X1X1X1X1X1X@ 8 c ] 8.N.P.I.n.* k w x ~ H   B.1 < 1 % X % 1 1X1X1X1X1X1X1X",
"1X1X1X1X1X1X1X1X1X1X1X1X1X1X1X1X1X1X1X1X1X1X1X1X1X1X1X1X1X1X1X1X1X1X  7  .v.P.m.b 5 , , 3 3 t x P.P.#.r 0 M D y.! H 1X1X1X1X1X1X",
"1X1X1X1X1X1X1X1X1X1X1X1X1X1X1X1X1X1X1X1X1X1X1X1X1X1X1X1X1X1X1X1X1X# e D _  ._ , * ) x.&.b h c.).L.) @.= F ..e.<X!.L 1X1X1X1X1X1X",
"1X1X1X1X1X1X1X1X1X1X1X1X1X1X1X1X1X1X1X1X1X1X1X1X1X1X1X1X1X1X1X1X1X# 5 c O.0.N.B.n.#.' | P.).).[ q | #.O < T k.<X.XV 1X1X1X1X1X1X",
"1X1X1X1X1X1X1X1X1X1X1X1X1X1X1X1X1X1X1X1X1X1X1X1X1X1X1X1X1X1X1X1X1X# 5 j I Z.Z.[ } B.I.^.P.@..   &.x.| < < 4 N R./ V 1X1X1X1X1X1X",
"1X1X1X1X1X1X1X1X1X1X1X1X1X1X1X1X1X1X1X1X1X1X1X1X1X1X1X1X1X1X1X1X1X# = y F K ^ B.I.B.&.#.[ m @.&.* X X m o 1 - B w 1X1X1X1X1X1X1X",
"1X1X1X1X1X1X1X1X1X1X1X1X1X1X1X1X1X1X1X1X1X1X1X1X1X1X1X1X1X1X1X1X1X# 1 4 a 0.Y.P.x.| n.B.@.b * 6 q , h # 8 z ..a.*X$.1X1X1X1X1X1X",
"1X1X1X1X1X1X1X1X1X1X1X1X1X1X1X1X1X1X1X1X1X1X1X1X1X1X1X1X1X1X1X1X1X# ; = S v.v.` ) | d   . c.B.6 d d g # 9 D t.*X<XW.1X1X1X1X1X1X",
"1X1X1X1X1X1X1X1X1X1X1X1X1X1X1X1X1X1X1X1X1X1X1X1X1X1X1X1X1X1X1X1X1X1X# # f t b 5 .     m._.| q h } b x.@ 8 c u.XX'.e.1X1X1X1X1X1X",
"1X1X1X1X1X1X1X1X1X1X1X1X1X1X1X1X1X1X1X1X1X1X1X1X1X1X1X1X1X1X1X1X1X1XK a i c 8 d , } L.V.g 6 | [ #.| q [   7 l M / 1X1X1X1X1X1X1X",
"1X1X1X1X1X1X1X1X1X1X1X1X1X1X1X1X1X1X1X1X1X1X1X1X1X1X1X1X1X1X1X1X1X+ u q.q.F.K.&.&.x.g X b ' | #.$ ) [ = 4 D r c 1.( 1X1X1X1X1X1X",
"1X1X1X1X1X1X1X1X1X1X1X1X1X1X1X1X1X1X1X1X1X1X1X1X1X1X1X1X1X1X1X1Xp - s S 0.N.v.=.} q $ b d #.' ' #.[ b @ 5 c X.M.:XS.1X1X1X1X1X1X",
"1X1X1X1X1X1X1X1X1X1X1X1X1X1X1X1X1X1X1X1X1X1X1X1X1X1X1X1X1X1X1X1Xe e   $ q { *.[ h d $ b @.&.n.#.) h q # 5 j S q.>XT.1X1X1X1X1X1X",
"1X1X1X1X1X1X1X1X1X1X1X1X1X1X1X1X1X1X1X1X1X1X1X1X1X1X1X1X1X1X1X% + - u ..u.U.Z.~ : * m #.B.B.| ` q q , = = s K y.<X>.1X1X1X1X1X1X",
"1X1X1X1X1X1X1X1X1X1X1X1X1X1X1X1X1X1X1X1X1X1X1X1X1X1X1X1X1X1X1X% @ %   s 5.R -.i S Y *.P.n.[ | m ' d 5 # 1 4 u q.'.4.1X1X1X1X1X1X",
"1X1X1X1X1X1X1X1X1X1X1X1X1X1X1X1X1X1X1X1X1X1X1X1X1X1X1X1X1X&Xo b._.` > - p x l 7.u.S.S.9. .&.[ #.[ h | # ; = s +.k.Z 1X1X1X1X1X1X",
"1X1X1X1X1X1X1X1X1X1X1X1X1X1X1X1X1X1X1X1X1X1X1X1X1X1X1X1X1X&Xo ^.<X/.) = >.I P ;.T.z.G.r.0.0.9.=.[ #.#.9 @ # = = N 1X1X1X1X1X1X1X",
"1X1X1X1X1X1X1X1X1X1X1X1X1X1X1X1X1X1X1X1X1X1X1X1X1X1X1X1X1X. , C.^.^.  < o.v , e S d.Q.E.g.J.J. . .{ m e ! D P / XX .1X1X1X1X1X1X",
"1X1X1X1X1X1X1X1X1X1X1X1X1X1X1X1X1X1X1X1X1X1X1X1X1X1X1X1X1X% q ' b.2 > B $ v 7.Y , 1 p 2.T.].s.u.^ J { % a y.!.$X<XU.1X1X1X1X1X1X",
"1X1X1X1X1X1X1X1X1X1X1X1X1X1X1X1X1X1X1X1X1X1X1X1X1X1X1X1X1X: 0       < 6 :.J * Z ( ( q : j 2.h.R.O.8.J - s D t.W.U.>.1X1X1X1X1X1X",
"1X1X1X1X1X1X1X1X1X1X1X1X1X1X1X1X1X1X1X1X1X1X1X1X1X1X1X1X1X1XD 9 9 0 a q , J 7.~ , w ( ( v % l 3.h.w.p e       y Q -XQ.i.1X1X1X1X",
"1X1X1X1X1X1X1X1X1X1X1X1X1X1X1X1X1X1X1X1X1X1X1X1X1X1X1X1X1X1X1X1X9 1 ;.( ~ t $ Z ,.( w , L 6.h   ; c C - z y.D.:X<XM./ W.1X1X1X1X",
"1X1X1X1X1X1X1X1X1X1X1X1X1X1X1X1X1X1X1X1X1X1X1X1X1X1X1X1X1X1X1X1X1X1X$ , G ( 6.J $ w :.7.v $ w G Z   e   - C p.p.p.! }.OX1X1X1X1X",
"1X1X1X1X1X1X1X1X1X1X1X1X1X1X1X1X1X1X1X1X1X1X1X1X1X1X1X1X1X1X1X1X1X1X1X1X$   , 7.8.~ * , ~ ,.2   , J i o B r p L / d.#X.X1X1X1X1X",
"1X1X1X1X1X1X1X1X1X1X1X1X1X1X1X1X1X1X1X1X1X1X1X1X1X1X1X1X1X1X1X1X1X1X1X1X1X1X1XX , ~ 8.( w $ I Z   & =._.=.8 s 4 q.~.|.!.1X1X1X1X",
"1X1X1X1X1X1X1X1X1X1X1X1X1X1X1X1X1X1X1X1X1X1X1X1X1X1X1X1X1X1X1X1X1X1X1X1X1X1X1X1X1XX $ A 8.,.2   x ; ^.<X/.` s / XXQ. XD.1X1X1X1X",
"1X1X1X1X1X1X1X1X1X1X1X1X1X1X1X1X1X1X1X1X1X1X1X1X1X1X1X1X1X1X1X1X1X1X1X1X1X1X1X1X1X1X1XX X q 8.Z H   C.^._.  0 j.H.OXh.1X1X1X1X1X",
"1X1X1X1X1X1X1X1X1X1X1X1X1X1X1X1X1X1X1X1X1X1X1X1X1X1X1X1X1X1X1X1X1X1X1X1X1X1X1X1X1X1X1X1X1X1XX $ i $ 2 b.| j / $X{.R.1X1X1X1X1X1X",
"1X1X1X1X1X1X1X1X1X1X1X1X1X1X1X1X1X1X1X1X1X1X1X1X1X1X1X1X1X1X1X1X1X1X1X1X1X1X1X1X1X1X1X1X1X1X1X1Xy r       8 d.{.f.1X1X1X1X1X1X1X",
"1X1X1X1X1X1X1X1X1X1X1X1X1X1X1X1X1X1X1X1X1X1X1X1X1X1X1X1X1X1X1X1X1X1X1X1X1X1X1X1X1X1X1X1X1X1X1X1X1Xi y p S < +.r.1X1X1X1X1X1X1X1X",
"1X1X1X1X1X1X1X1X1X1X1X1X1X1X1X1X1X1X1X1X1X1X1X1X1X1X1X1X1X1X1X1X1X1X1X1X1X1X1X1X1X1X1X1X1X1X1X1X1X1X1Xe e % X.1X1X1X1X1X1X1X1X1X",
"1X1X1X1X1X1X1X1X1X1X1X1X1X1X1X1X1X1X1X1X1X1X1X1X1X1X1X1X1X1X1X1X1X1X1X1X1X1X1X1X1X1X1X1X1X1X1X1X1X1X1X1X1Xe 1X1X1X1X1X1X1X1X1X1X",
"1X1X1X1X1X1X1X1X1X1X1X1X1X1X1X1X1X1X1X1X1X1X1X1X1X1X1X1X1X1X1X1X1X1X1X1X1X1X1X1X1X1X1X1X1X1X1X1X1X1X1X1X1X1X1X1X1X1X1X1X1X1X1X1X",
"1X1X1X1X1X1X1X1X1X1X1X1X1X1X1X1X1X1X1X1X1X1X1X1X1X1X1X1X1X1X1X1X1X1X1X1X1X1X1X1X1X1X1X1X1X1X1X1X1X1X1X1X1X1X1X1X1X1X1X1X1X1X1X1X",
"1X1X1X1X1X1X1X1X1X1X1X1X1X1X1X1X1X1X1X1X1X1X1X1X1X1X1X1X1X1X1X1X1X1X1X1X1X1X1X1X1X1X1X1X1X1X1X1X1X1X1X1X1X1X1X1X1X1X1X1X1X1X1X1X",
"1X1X1X1X1X1X1X1X1X1X1X1X1X1X1X1X1X1X1X1X1X1X1X1X1X1X1X1X1X1X1X1X1X1X1X1X1X1X1X1X1X1X1X1X1X1X1X1X1X1X1X1X1X1X1X1X1X1X1X1X1X1X1X1X",
"1X1X1X1X1X1X1X1X1X1X1X1X1X1X1X1X1X1X1X1X1X1X1X1X1X1X1X1X1X1X1X1X1X1X1X1X1X1X1X1X1X1X1X1X1X1X1X1X1X1X1X1X1X1X1X1X1X1X1X1X1X1X1X1X",
"1X1X1X1X1X1X1X1X1X1X1X1X1X1X1X1X1X1X1X1X1X1X1X1X1X1X1X1X1X1X1X1X1X1X1X1X1X1X1X1X1X1X1X1X1X1X1X1X1X1X1X1X1X1X1X1X1X1X1X1X1X1X1X1X",
"1X1X1X1X1X1X1X1X1X1X1X1X1X1X1X1X1X1X1X1X1X1X1X1X1X1X1X1X1X1X1X1X1X1X1X1X1X1X1X1X1X1X1X1X1X1X1X1X1X1X1X1X1X1X1X1X1X1X1X1X1X1X1X1X",
"1X1X1X1X1X1X1X1X1X1X1X1X1X1X1X1X1X1X1X1X1X1X1X1X1X1X1X1X1X1X1X1X1X1X1X1X1X1X1X1X1X1X1X1X1X1X1X1X1X1X1X1X1X1X1X1X1X1X1X1X1X1X1X1X",
"1X1X1X1X1X1X1X1X1X1X1X1X1X1X1X1X1X1X1X1X1X1X1X1X1X1X1X1X1X1X1X1X1X1X1X1X1X1X1X1X1X1X1X1X1X1X1X1X1X1X1X1X1X1X1X1X1X1X1X1X1X1X1X1X",
"1X1X1X1X1X1X1X1X1X1X1X1X1X1X1X1X1X1X1X1X1X1X1X1X1X1X1X1X1X1X1X1X1X1X1X1X1X1X1X1X1X1X1X1X1X1X1X1X1X1X1X1X1X1X1X1X1X1X1X1X1X1X1X1X",
"1X1X1X1X1X1X1X1X1X1X1X1X1X1X1X1X1X1X1X1X1X1X1X1X1X1X1X1X1X1X1X1X1X1X1X1X1X1X1X1X1X1X1X1X1X1X1X1X1X1X1X1X1X1X1X1X1X1X1X1X1X1X1X1X",
"1X1X1X1X1X1X1X1X1X1X1X1X1X1X1X1X1X1X1X1X1X1X1X1X1X1X1X1X1X1X1X1X1X1X1X1X1X1X1X1X1X1X1X1X1X1X1X1X1X1X1X1X1X1X1X1X1X1X1X1X1X1X1X1X",
"1X1X1X1X1X1X1X1X1X1X1X1X1X1X1X1X1X1X1X1X1X1X1X1X1X1X1X1X1X1X1X1X1X1X1X1X1X1X1X1X1X1X1X1X1X1X1X1X1X1X1X1X1X1X1X1X1X1X1X1X1X1X1X1X",
"1X1X1X1X1X1X1X1X1X1X1X1X1X1X1X1X1X1X1X1X1X1X1X1X1X1X1X1X1X1X1X1X1X1X1X1X1X1X1X1X1X1X1X1X1X1X1X1X1X1X1X1X1X1X1X1X1X1X1X1X1X1X1X1X"
};
