/* XPM */
static char *result[] = {
/* columns rows colors chars-per-pixel */
"64 64 198 2 ",
"   c black",
".  c #010000",
"X  c #000100",
"o  c #000002",
"O  c #050100",
"+  c #050001",
"@  c #000400",
"#  c #070400",
"$  c #070600",
"%  c #070700",
"&  c #040006",
"*  c #080100",
"=  c #090100",
"-  c #0E0000",
";  c #0D0300",
":  c #0E0500",
">  c #0F0700",
",  c #090800",
"<  c #140100",
"1  c #110500",
"2  c #180700",
"3  c #1D0700",
"4  c #110A00",
"5  c #160900",
"6  c #180A00",
"7  c #190B00",
"8  c #1E0800",
"9  c #1C0D00",
"0  c #180008",
"q  c #141200",
"w  c #210100",
"e  c #270000",
"r  c #2D0500",
"t  c #210900",
"y  c #240B00",
"u  c #250B00",
"i  c #230C00",
"p  c #250F00",
"a  c #2C0A00",
"s  c #280C00",
"d  c #280E00",
"f  c #2C0C00",
"g  c #2C0D00",
"h  c #340400",
"j  c #3C0100",
"k  c #3E0600",
"l  c #330B00",
"z  c #360F00",
"x  c #3B0D00",
"c  c #390F00",
"v  c #3C0D00",
"b  c #3E0D00",
"n  c #2C1200",
"m  c #341000",
"M  c #341100",
"N  c #331600",
"B  c #3C1200",
"V  c #3D1300",
"C  c #220010",
"Z  c #262100",
"A  c #362F00",
"S  c #3C3500",
"D  c #0F002D",
"F  c #130033",
"G  c #460400",
"H  c #490001",
"J  c #450E00",
"K  c #490800",
"L  c #500500",
"P  c #550700",
"I  c #580500",
"U  c #530E00",
"Y  c #580A00",
"T  c #471100",
"R  c #451200",
"E  c #481500",
"W  c #4A1400",
"Q  c #4C1700",
"!  c #421900",
"~  c #561700",
"^  c #5C1200",
"/  c #591600",
"(  c #571800",
")  c #5A1900",
"_  c #5B1B00",
"`  c #610A00",
"'  c #6D0B00",
"]  c #710600",
"[  c #7D0200",
"{  c #790D00",
"}  c #641600",
"|  c #6F1800",
" . c #6E1C00",
".. c #721900",
"X. c #771C00",
"o. c #7D1800",
"O. c #7E1E00",
"+. c #5B2300",
"@. c #642200",
"#. c #712000",
"$. c #712100",
"%. c #7B2400",
"&. c #7D2D00",
"*. c #643B00",
"=. c #5C002F",
"-. c #770027",
";. c #504600",
":. c #645800",
">. c #6E6100",
",. c #9B0800",
"<. c #9F0F00",
"1. c #821000",
"2. c #871200",
"3. c #8F1600",
"4. c #871D00",
"5. c #8F1B00",
"6. c #9E1F00",
"7. c #A50007",
"8. c #A30D00",
"9. c #AB1100",
"0. c #A11800",
"q. c #AD1900",
"w. c #B81500",
"e. c #8D2000",
"r. c #8F2300",
"t. c #992700",
"y. c #A12600",
"u. c #B62200",
"i. c #BB2400",
"p. c #B12900",
"a. c #A33900",
"s. c #C60700",
"d. c #C01F00",
"f. c #CC1800",
"g. c #DC1500",
"h. c #D2001C",
"j. c #FF1F04",
"k. c #FF100C",
"l. c #CB2500",
"z. c #DD2000",
"x. c #D12900",
"c. c #D82A00",
"v. c #C03F00",
"b. c #DE3600",
"n. c #E02D00",
"m. c #F32500",
"M. c #FF3100",
"N. c #FF311B",
"B. c #FF3A25",
"V. c #B45A00",
"C. c #986800",
"Z. c #8C7B00",
"A. c #D84E00",
"S. c #FF4013",
"D. c #FF4719",
"F. c #FD6500",
"G. c #FF6C1E",
"H. c #FF4D2A",
"J. c #FF5435",
"K. c #FF6F46",
"L. c #FF634C",
"P. c #FF7441",
"I. c #FF665C",
"U. c #FF7C5F",
"Y. c #9E8B00",
"T. c #BCA500",
"R. c #F7A700",
"E. c #FF8349",
"W. c #FF954C",
"Q. c #FF875C",
"!. c #FF9A67",
"~. c #FF8878",
"^. c #FF9876",
"/. c #FFA173",
"(. c #FFBA7F",
"). c #FF7E87",
"_. c #FF9C82",
"`. c #FFAF86",
"'. c #FFB080",
"]. c #FFA191",
"[. c #FFB991",
"{. c #FFD781",
"}. c #FFC1A1",
"|. c #FFDDA1",
" X c #FFEBBE",
".X c #FFC8C2",
"XX c #FFD8C6",
"oX c #FFD7D4",
"OX c #FFE7D9",
"+X c #FFE4DE",
"@X c #FFF4D1",
"#X c #FFE1E4",
"$X c #FFEAE4",
"%X c #FFF9ED",
"&X c #FFFFF8",
"*X c #FFFEFA",
"=X c white",
"-X c None",
/* pixels */
"-X-X-X-X-X-X-X-X-X-X-X-X-X-X-X-X-X-X-X-X-X-X-X-X-X-X-X-X-X-X-X-X-X-X-X-X-X-X-X-X-X-X-X-X-X-X-X-X-X-X-X-X-X-X-X-X-X-X-X-X-X-X-X-X",
"-X-X-X-X-X-X-X-X-X-X-X-X-X-X-X-X-X-X-X-X-X-X-X-X-X-X-X-X-X-X-X-X-X-X-X-X-X-X-X-X-X-X-X-X-X-X-X-X-X-X-X-X-X-X-X-X-X-X-X-X-X-X-X-X",
"-X-X-X-X-X-X-X-X-X-X-X-X-X-X-X-X-X-X-X-X-X-X-X-X-X-X-X-X-X-X-X-X-X-X-X-X-X-X-X-X-X-X-X-X-X-X-X-X-X-X-X-X-X-X-X-X-X-X-X-X-X-X-X-X",
"-X-X-X-X-X-X-X-X-X-X-X-X-X-X-X-X-X-X-X-X-X-X-X-X-X-X-X-X-X-X-X-X-X-X-X-X-X-X-X-X-X-X-X-X-X-X-X-X-X-X-X-X-X-X-X-X-X-X-X-X-X-X-X-X",
"-X-X-X-X-X-X-X-X-X-X-X-X-X-X-X-X-X-X-X-X-X-X-X-X-X-X-X-X-X-X-X-X-X-X-X-X-X-X-X-X-X-X-X-X@.@.+.! -X-X-X-X-X-X-X-X-X-X-X-X-X-X-X-X",
"-X-X-X-X-X-X-X-X-X-X-X-X-X-X-X-X-X-X-X-X-X-X-X-X-X-X-X-X-X-X-X-X-X-X-X-X-X-X-X-Xx +.+.l G.@X XK.v.%.-X-X-X-X-X-X-X-X-X-X-X-X-X-X",
"-X-X-X-X-X-X-X-X-X-X-X-X-X-X-X-X-X-X-X-X-X-X-X-X-X-X-X-X-X-X-X-X-X-X-X-X-X-Xl o.M.W.M _ R.&X|.&X@X{.} -X-X-X-X-X-X-X-X-X-X-X-X-X",
"-X-X-X-X-X-X-X-X-X-X-X-X-X-X-X-X-X-X-X-X-X-X-X-X-X-X-X-X-X-X-X-X-X-X-X-Xl ! n.d./.A.; Q [ K (.(.W.' E -X-X-X-X-X-X-X-X-X-X-X-X-X",
"-X-X-X-X-X-X-X-X-X-X-X-X-X-X-X-X-X-X-X-X-X-X-X-X-X-X-X-X-X-X-X-X-X-X-X9 v } &.P / 1 i P e.f.K -.- %.E -X-X-X-X-X-X-X-X-X-X-X-X-X",
"-X-X-X-X-X-X-X-X-X-X-X-X-X-X-X-X-X-X-X-X-X-X-X-X-X-X-X-X-X-X-X-X-X-X-X9 d v m i m E T W p.P /.= u $.e.e.A.-X-X-X-X-X-X-X-X-X-X-X",
"-X-X-X-X-X-X-X-X-X-X-X-X-X-X-X-X-X-X-X-X-X-X-X-X-X-X-X-X-X-X-X-X-X-X-X9 M M n t + = h i  .).T s u l o.E.!.1.-X-X-X-X-X-X-X-X-X-X",
"-X-X-X-X-X-X-X-X-X-X-X-X-X-X-X-X-X-X-X-X-X-X-X-X-X-X-X-X-X-X-X-X-X-Xg 9 >     2 5 L ' V a.} N 4 2 l #.{.E.=XW -X-X-X-X-X-X-X-X-X",
"-X-X-X-X-X-X-X-X-X-X-X-X-X-X-X-X-X-X-X-X-X-X-X-X-X-X-X-X-X-X-X-X-X-X: z R l q.e 6 Y g n l n &.$.9   Y v.*X'.=XW -X-X-X-X-X-X-X-X",
"-X-X-X-X-X-X-X-X-X-X-X-X-X-X-X-X-X-X-X-X-X-X-X-X-X-X-X-X-X-X-X-X-X-X& = e Q E.8.> u.3 n :.2 w ] g   b X.'.|.%X`.W -X-X-X-X-X-X-X",
"-X-X-X-X-X-X-X-X-X-X-X-X-X-X-X-X-X-X-X-X-X-X-X-X-X-X-X-X-X-X-X-X-X-X4 > : = | h & x V ;.=X:.M D.E   W L %.H.|.=XS.-X-X-X-X-X-X-X",
"-X-X-X-X-X-X-X-X-X-X-X-X-X-X-X-X-X-X-X-X-X-X-X-X-X-X-X-X-X-X-X-X-X-Xo 5 : x * 6 O N ..>.T.Y.~ o.N   y B b %.q.+X^.-X-X-X-X-X-X-X",
"-X-X-X-X-X-X-X-X-X-X-X-X-X-X-X-X-X-X-X-X-X-X-X-X-X-X-X-X-X-X-X-X-X% w g v | g.h . ; V S Z.>.u m i     g c R *.9.n.-X-X-X-X-X-X-X",
"-X-X-X-X-X-X-X-X-X-X-X-X-X-X-X-X-X-X-X-X-X-X-X-X-X-X-X-X-X-X-X-X-X% g d Y f.#Xq.-X-X7 i 6 7 6 m 6 7 -X  9 T c { C -X-X-X-X-X-X-X",
"-X-X-X-X-X-X-X-X-X-X-X-X-X-X-X-X-X-X-X-X-X-X-X-X-X-X-X-X-X-X-X-X-X$ 3 ! +.z.~.v -X-X-Xn i m ..U -X-X-X4 5 $ # > : -X-X-X-X-X-X-X",
"-X-X-X-X-X-X-X-X-X-X-X-X-X-X-X-X-X-X-X-X-X-X-X-X-X-X-X-X-X-X-X-X-X-X  9 B 8 8 -X-X-X-X-X6 7 u m -X-X-X=.9 k R u.( U -X-X-X-X-X-X",
"-X-X-X-X-X-X-X-X-X-X-X-X-X-X-X-X-X-X-X-X-X-X-X-X-X-X-X-X-X-X-X-X-X% p J g c / v -X-X-X-X-X-X-X-X-X-X-X: Y X.y.&XP.^ -X-X-X-X-X-X",
"-X-X-X-X-X-X-X-X-X-X-X-X-X-X-X-X-X-X-X-X-X-X-X-X-X-X-X-X-X-X-X-X-X% 7 B %.f.E.+.-X-X-X-X-X-X-X-X-X-X-X-X4 ' l.&X[.T -X-X-X-X-X-X",
"-X-X-X-X-X-X-X-X-X-X-X-X-X-X-X-X-X-X-X-X-X-X-X-X-X-X-X-X-X-X-X-X-X% 7 l R u.$X( -X-X-X-X-X-X-X-X-X-X-X-X4 3 I J.2.J -X-X-X-X-X-X",
"-X-X-X-X-X-X-X-X-X-X-X-X-X-X-X-X-X-X-X-X-X-X-X-X-X-X-X-X-X-X-X-X-X% , r ( u.$X( -X-X-X-X-X-X-X-X-X-X-X-X-X5 0 k i -X-X-X-X-X-X-X",
"-X-X-X-X-X-X-X-X-X-X-X-X-X-X-X-X-X-X-X-X-X-X-X-X-X-X-X-X-X-X-X-X-X% 5 y v 8.E.@.-X-X-X-X-X-X-X-X-X-X-X-Xw v #.z.XX&.-X-X-X-X-X-X",
"-X-X-X-X-X-X-X-X-X-X-X-X-X-X-X-X-X-X-X-X-X-X-X-X-X-X-X-X-X-X-X-X-X% 5 > d / #.H -X-X-X-X-X-X-X-X-X-X-X-Xg Q p.oX=XI.-X-X-X-X-X-X",
"-X-X-X-X-X-X-X-X-X-X-X-X-X-X-X-X-X-X-X-X-X-X-X-X-X-X-X-X-X-X-X-X-X-X& % , 4 v -X-X-X-X-X-X-X-X-X-X-X-X-X3 ! a.].E.6.-X-X-X-X-X-X",
"-X-X-X-X-X-X-X-X-X-X-X-X-X-X-X-X-X-X-X-X-X-X-X-X-X-X-X-X-X-X-X-X-X-X( c x #.H.t.-X-X-X-X-X-X-X-X-X-X-X-X-X9 M v 2.-X-X-X-X-X-X-X",
"-X-X-X-X-X-X-X-X-X-X-X-X-X-X-X-X-X-X-X-X-X-X-X-X-X-X-X-X-X-X-X-X-Xo c u.b.[.=XG.@ -X-X-X-X-X-X-X-X-X-X-Xp R g B q.O.-X-X-X-X-X-X",
"-X-X-X-X-X-X-X-X-X-X-X-X-X-X-X-X-X-X-X-X-X-X-X-X-X-X-X-X-X-X-X-Xx < r c @.l.V.g._ + -X-X-X-X-X-X-X-X-X-X7 B | v.#XA.-X-X-X-X-X-X",
"-X-X-X-X-X-X-X-X-X-X-X-X-X-X-X-X-X-X-X-X-X-X-X-X-X-X-X-X-X-X-X-Xp s       g } !.w.p.. . -X-X-X-X-X-X-X-X7 l ! u.%XD.-X-X-X-X-X-X",
"-X-X-X-X-X-X-X-X-X-X-X-X-X-X-X-X-X-X-X-X-X-X-X-X-X-X-X-X-X-X-X-X@ < c  .C.|.=XE.<.x.x.x..   -X-X-X-X-X-X, r ( i.=Xe.-X-X-X-X-X-X",
"-X-X-X-X-X-X-X-X-X-X-X-X-X-X-X-X-X-X-X-X-X-X-X-X-X-X-X-X-X-X-X> $ >   r [ 7.h.Y y.m.S.j.x.o.X X -X-X-X-X5 y f y.E.0.-X-X-X-X-X-X",
"-X-X-X-X-X-X-X-X-X-X-X-X-X-X-X-X-X-X-X-X-X-X-X-X-X-X-X-X-X-X# >.T.;.3 : j V x 2.i.J.H.m.m.<.3._   X -X-X5 > d &.b.V -X-X-X-X-X-X",
"-X-X-X-X-X-X-X-X-X-X-X-X-X-X-X-X-X-X-X-X-X-X-X-X-X-X-X-X-X-X# Y.=XY.;.: 3.) Y o.B.H.U.S.m.K.w.o.| Y h e -X% , 4 Q -X-X-X-X-X-X-X",
"-X-X-X-X-X-X-X-X-X-X-X-X-X-X-X-X-X-X-X-X-X-X-X-X-X-X-X-X-X# A Z.Y.Y.D 4 $.m 6 u W g.~.U.N.P.`.3.o.} L 2 ` R Y e.].$.-X-X-X-X-X-X",
"-X-X-X-X-X-X-X-X-X-X-X-X-X-X-X-X-X-X-X-X-X-X-X-X-X-X-X-X-X* S ;.>.S 3 b ; N r.) 6 7 B 9.S.].k.q.e.1.x o c u.E.XX*XG.-X-X-X-X-X-X",
"-X-X-X-X-X-X-X-X-X-X-X-X-X-X-X-X-X-X-X-X-X-X-X-X-X-X-X-X-X6 9 Z F   2 6 4.~ ; V O.O.i 6 l 6.M.~.,.] b < r R p.H.F.<.-X-X-X-X-X-X",
"-X-X-X-X-X-X-X-X-X-X-X-X-X-X-X-X-X-X-X-X-X-X-X-X-X-X-X-X-X-XW g w 9 b 7 1 ~ r.$.6 i O.O.N > M 9.n.0.G s       z ' OXK.f.-X-X-X-X",
"-X-X-X-X-X-X-X-X-X-X-X-X-X-X-X-X-X-X-X-X-X-X-X-X-X-X-X-X-X-X-X-Xg 5 1.O...N * V r.O.i 6 ~ r.N   - B P : v i.F.OX=XC.5.L.-X-X-X-X",
"-X-X-X-X-X-X-X-X-X-X-X-X-X-X-X-X-X-X-X-X-X-X-X-X-X-X-X-X-X-X-X-X-X-X* 1 V O.r.E * i 4.r.N ; i E V   u   < P s.k.7.@.~.}.-X-X-X-X",
"-X-X-X-X-X-X-X-X-X-X-X-X-X-X-X-X-X-X-X-X-X-X-X-X-X-X-X-X-X-X-X-X-X-X-X-X; . 6 r.t...; 1 ..r.6   6 ~ M + G e b ^ &.g.}.Q.-X-X-X-X",
"-X-X-X-X-X-X-X-X-X-X-X-X-X-X-X-X-X-X-X-X-X-X-X-X-X-X-X-X-X-X-X-X-X-X-X-X-X-X-XO 1 ..t.O.i ; ) V   = >.T.:.d d 3 9.U./.Q.-X-X-X-X",
"-X-X-X-X-X-X-X-X-X-X-X-X-X-X-X-X-X-X-X-X-X-X-X-X-X-X-X-X-X-X-X-X-X-X-X-X-X-X-X-X-XO * T t.r.6   m 5 Y.=XT.;.a 5._.K._.-X-X-X-X-X",
"-X-X-X-X-X-X-X-X-X-X-X-X-X-X-X-X-X-X-X-X-X-X-X-X-X-X-X-X-X-X-X-X-X-X-X-X-X-X-X-X-X-X-XO O i t.E W Z Z.Y.T.D 9 S.S.}.n.-X-X-X-X-X",
"-X-X-X-X-X-X-X-X-X-X-X-X-X-X-X-X-X-X-X-X-X-X-X-X-X-X-X-X-X-X-X-X-X-X-X-X-X-X-X-X-X-X-X-X-X-XO * M A A >.;.l &..X^.J.-X-X-X-X-X-X",
"-X-X-X-X-X-X-X-X-X-X-X-X-X-X-X-X-X-X-X-X-X-X-X-X-X-X-X-X-X-X-X-X-X-X-X-X-X-X-X-X-X-X-X-X-X-X-X-Xz g Z q   3 g.U.c.-X-X-X-X-X-X-X",
"-X-X-X-X-X-X-X-X-X-X-X-X-X-X-X-X-X-X-X-X-X-X-X-X-X-X-X-X-X-X-X-X-X-X-X-X-X-X-X-X-X-X-X-X-X-X-X-X-XM z x T 4 &.u.-X-X-X-X-X-X-X-X",
"-X-X-X-X-X-X-X-X-X-X-X-X-X-X-X-X-X-X-X-X-X-X-X-X-X-X-X-X-X-X-X-X-X-X-X-X-X-X-X-X-X-X-X-X-X-X-X-X-X-X-Xu p = 4.-X-X-X-X-X-X-X-X-X",
"-X-X-X-X-X-X-X-X-X-X-X-X-X-X-X-X-X-X-X-X-X-X-X-X-X-X-X-X-X-X-X-X-X-X-X-X-X-X-X-X-X-X-X-X-X-X-X-X-X-X-X-X-Xs -X-X-X-X-X-X-X-X-X-X",
"-X-X-X-X-X-X-X-X-X-X-X-X-X-X-X-X-X-X-X-X-X-X-X-X-X-X-X-X-X-X-X-X-X-X-X-X-X-X-X-X-X-X-X-X-X-X-X-X-X-X-X-X-X-X-X-X-X-X-X-X-X-X-X-X",
"-X-X-X-X-X-X-X-X-X-X-X-X-X-X-X-X-X-X-X-X-X-X-X-X-X-X-X-X-X-X-X-X-X-X-X-X-X-X-X-X-X-X-X-X-X-X-X-X-X-X-X-X-X-X-X-X-X-X-X-X-X-X-X-X",
"-X-X-X-X-X-X-X-X-X-X-X-X-X-X-X-X-X-X-X-X-X-X-X-X-X-X-X-X-X-X-X-X-X-X-X-X-X-X-X-X-X-X-X-X-X-X-X-X-X-X-X-X-X-X-X-X-X-X-X-X-X-X-X-X",
"-X-X-X-X-X-X-X-X-X-X-X-X-X-X-X-X-X-X-X-X-X-X-X-X-X-X-X-X-X-X-X-X-X-X-X-X-X-X-X-X-X-X-X-X-X-X-X-X-X-X-X-X-X-X-X-X-X-X-X-X-X-X-X-X",
"-X-X-X-X-X-X-X-X-X-X-X-X-X-X-X-X-X-X-X-X-X-X-X-X-X-X-X-X-X-X-X-X-X-X-X-X-X-X-X-X-X-X-X-X-X-X-X-X-X-X-X-X-X-X-X-X-X-X-X-X-X-X-X-X",
"-X-X-X-X-X-X-X-X-X-X-X-X-X-X-X-X-X-X-X-X-X-X-X-X-X-X-X-X-X-X-X-X-X-X-X-X-X-X-X-X-X-X-X-X-X-X-X-X-X-X-X-X-X-X-X-X-X-X-X-X-X-X-X-X",
"-X-X-X-X-X-X-X-X-X-X-X-X-X-X-X-X-X-X-X-X-X-X-X-X-X-X-X-X-X-X-X-X-X-X-X-X-X-X-X-X-X-X-X-X-X-X-X-X-X-X-X-X-X-X-X-X-X-X-X-X-X-X-X-X",
"-X-X-X-X-X-X-X-X-X-X-X-X-X-X-X-X-X-X-X-X-X-X-X-X-X-X-X-X-X-X-X-X-X-X-X-X-X-X-X-X-X-X-X-X-X-X-X-X-X-X-X-X-X-X-X-X-X-X-X-X-X-X-X-X",
"-X-X-X-X-X-X-X-X-X-X-X-X-X-X-X-X-X-X-X-X-X-X-X-X-X-X-X-X-X-X-X-X-X-X-X-X-X-X-X-X-X-X-X-X-X-X-X-X-X-X-X-X-X-X-X-X-X-X-X-X-X-X-X-X",
"-X-X-X-X-X-X-X-X-X-X-X-X-X-X-X-X-X-X-X-X-X-X-X-X-X-X-X-X-X-X-X-X-X-X-X-X-X-X-X-X-X-X-X-X-X-X-X-X-X-X-X-X-X-X-X-X-X-X-X-X-X-X-X-X",
"-X-X-X-X-X-X-X-X-X-X-X-X-X-X-X-X-X-X-X-X-X-X-X-X-X-X-X-X-X-X-X-X-X-X-X-X-X-X-X-X-X-X-X-X-X-X-X-X-X-X-X-X-X-X-X-X-X-X-X-X-X-X-X-X",
"-X-X-X-X-X-X-X-X-X-X-X-X-X-X-X-X-X-X-X-X-X-X-X-X-X-X-X-X-X-X-X-X-X-X-X-X-X-X-X-X-X-X-X-X-X-X-X-X-X-X-X-X-X-X-X-X-X-X-X-X-X-X-X-X",
"-X-X-X-X-X-X-X-X-X-X-X-X-X-X-X-X-X-X-X-X-X-X-X-X-X-X-X-X-X-X-X-X-X-X-X-X-X-X-X-X-X-X-X-X-X-X-X-X-X-X-X-X-X-X-X-X-X-X-X-X-X-X-X-X",
"-X-X-X-X-X-X-X-X-X-X-X-X-X-X-X-X-X-X-X-X-X-X-X-X-X-X-X-X-X-X-X-X-X-X-X-X-X-X-X-X-X-X-X-X-X-X-X-X-X-X-X-X-X-X-X-X-X-X-X-X-X-X-X-X"
};
