/* XPM */
static char *result[] = {
/* columns rows colors chars-per-pixel */
"64 64 189 2 ",
"   c #771400",
".  c #831400",
"X  c #881904",
"o  c #941801",
"O  c #9A2007",
"+  c #952008",
"@  c #9D240B",
"#  c #A9250A",
"$  c #BB290D",
"%  c #BD2D12",
"&  c #A83418",
"*  c #AF3A1E",
"=  c #B73118",
"-  c #AE3C21",
";  c #C4290E",
":  c #CB3A1A",
">  c #D43F1F",
",  c #C13E20",
"<  c #B04725",
"1  c #BC4225",
"2  c #BA502E",
"3  c #C8411F",
"4  c #CF4022",
"5  c #C14728",
"6  c #C64929",
"7  c #DC4827",
"8  c #D84928",
"9  c #CF502E",
"0  c #C4562F",
"q  c #D5522F",
"w  c #DB512E",
"e  c #C05737",
"r  c #C65836",
"t  c #CC5932",
"y  c #CC5E39",
"u  c #CD5330",
"i  c #DE5E37",
"p  c #D45B36",
"a  c #E34C28",
"s  c #E2512A",
"d  c #EB542E",
"f  c #F5582F",
"g  c #F4572E",
"h  c #E75D36",
"j  c #CD633C",
"k  c #D4623B",
"l  c #DE633A",
"z  c #D06E3F",
"x  c #E2653D",
"c  c #ED643A",
"v  c #EC6D3F",
"b  c #F66137",
"n  c #F16C3E",
"m  c #F76438",
"M  c #C66942",
"N  c #D56740",
"B  c #D36F42",
"V  c #DB6D43",
"C  c #CD784C",
"Z  c #D47145",
"A  c #DB7446",
"S  c #D57549",
"D  c #DC7549",
"F  c #DA7B4C",
"G  c #D67A4F",
"H  c #CF7C51",
"J  c #D47D50",
"K  c #DF7E51",
"L  c #E36D42",
"P  c #EC6D43",
"I  c #E57145",
"U  c #EC7145",
"Y  c #E37648",
"T  c #EC7749",
"R  c #E47B4D",
"E  c #EB7D4D",
"W  c #F27040",
"Q  c #FC7040",
"!  c #F47549",
"~  c #F27B4C",
"^  c #FA7D4C",
"/  c #FB7845",
"(  c #E87E52",
")  c #F47E52",
"_  c #CC8556",
"`  c #D38454",
"'  c #DD8555",
"]  c #D28A5A",
"[  c #DD895C",
"{  c #DD915E",
"}  c #E5814F",
"|  c #E9804F",
" . c #F5824E",
".. c #FD834F",
"X. c #E38453",
"o. c #ED8453",
"O. c #E58956",
"+. c #E28758",
"@. c #E98759",
"#. c #E38B5B",
"$. c #EC8D5B",
"%. c #F28353",
"&. c #FD8552",
"*. c #F28A56",
"=. c #FE8B55",
"-. c #F48D5A",
";. c #FB8E59",
":. c #EC915D",
">. c #E4905C",
",. c #F3935D",
"<. c #FC935C",
"1. c #D69061",
"2. c #E59763",
"3. c #EC9562",
"4. c #E49A64",
"5. c #EC9A64",
"6. c #EC9C68",
"7. c #F49560",
"8. c #F99661",
"9. c #F59B64",
"0. c #FD9D65",
"q. c #FD9F69",
"w. c #DEAE78",
"e. c #D9A773",
"r. c #ECA166",
"t. c #E6A46C",
"y. c #EBA56E",
"u. c #E7A96E",
"i. c #EEA96F",
"p. c #F4A267",
"a. c #FEA267",
"s. c #F4A26A",
"d. c #FDA56B",
"f. c #F6AA6F",
"g. c #FDAA6D",
"h. c #E9A670",
"j. c #E6AC73",
"k. c #ECAD73",
"l. c #E5A571",
"z. c #F2A771",
"x. c #F3AC73",
"c. c #FCAD72",
"v. c #EDB175",
"b. c #EDB47A",
"n. c #EDB87F",
"m. c #F5B275",
"M. c #FDB475",
"N. c #F4B479",
"B. c #FCB579",
"V. c #F6BB7C",
"C. c #FDBB7C",
"Z. c #FCB976",
"A. c #FFC17E",
"S. c #F4BE82",
"D. c #FDBE81",
"F. c #EFC789",
"G. c #EDC184",
"H. c #F5C385",
"J. c #FDC483",
"K. c #FCC986",
"L. c #F7C78C",
"P. c #FEC58A",
"I. c #F5CA8A",
"U. c #FDCB8B",
"Y. c #F4CA85",
"T. c #FED18E",
"R. c #EFCF94",
"E. c #FDCE91",
"W. c #F6CE91",
"Q. c #F2D292",
"!. c #FDD493",
"~. c #FEDA95",
"^. c #F5D799",
"/. c #FBD799",
"(. c #FEDC9C",
"). c #F5D999",
"_. c #FEE29D",
"`. c #FEDEA0",
"'. c #FFE4A3",
"]. c #FFE8A6",
"[. c #FEE7AA",
"{. c #FEEDAC",
"}. c #FFF1AE",
"|. c #FFEFB1",
" X c #FFF2B2",
".X c #FFF7B9",
"XX c #FFFBBC",
"oX c #FFFDC0",
"OX c None",
/* pixels */
"OXOXc.OXOXOXOXOX!.L.OXOXOXOXOX@.OXOXOXOX7.d.q a K.OXOXOXOXOXOXOXOXOXOXOXOXc.: OXO.Z.f OXOXOXOXOXOXOXOXOXOX7. Xy.OXOXOXOXOXOXOXOX",
"OXd.OXOXOXOXOXp.!.OXOXOXOXOX<.OXOXOXOX,.T.&.OXOXOXOXOXOXOXOXOXOXOXOXOXOXc.m.OX( g. .OXk OXOXOXOXOXOXOXOXOXB.x.OXOXOXOXOXOXOXOXOX",
"M.d OXOXOXOXOXq OXOXOXOXOX9.OXOXOXOXm._.t.OXOXOXOXOXOXOXOXOXOXOXOXOXOXd.E OXx.J.g.OXg.OXOXOXOXOXOXOXOXOXOXOXOXOXOXOXOXOXOXOXOXOX",
":.OXOXOXOXOXOXOXOXOXOXOXI.OXOXOX/ n.XXH.OXOXOXOXOXOXOXOXOXOXOXOXOXOXs.E OXu.A.g.F $.OXOXOXOXOXOXOXOXOXOXOXOXOXOXOXOXOXOXOXOXo.I.",
"OXOXOXOXOXOXOXOXOXOX]  XOXOXOXa.z.oX'.t OXOXOXOXOXOXOXOXOXOXOXOXOXD.8.OXn K.C.*.C.OXOXOXOXOXOXOXOXOXOXOXOXOXOXOXOXOXOXOXOXN.].J.",
"OXOXOXOXOXOXOXOXOXOXB.x.OXOXx.:.E.(.o.OXOXOXOXOXOXOXOXOXOXOXOX2.(.K.OX*._.Z.c.'.OXOXOXOXOXOXOXOXOXOXOXOXOXOXOXOXOXOXOXOXw.XX/.OX",
"OXOX5 OXOXOXOXOXOXOXOXOXOXOX: *.C.C.- OXOXOXOXOXOXOXOXOXOXOX1. X_.OXOX[.!.( '.j.OXOX%.OXOXOXOXOXOXOXOXOXOXOXOXOXOXOXOXJ U.'.F OX",
"OXM.OXOXOXOXOXOXOXOXOXOXOXOXX m <.OXOXOXOXOXOXOXOXOXOXOXOXu {.|.3.OXV.U.OX+.OXOXOX&.c.OXOXOXj.L OX$.OXOXOXOXOXOXOXOXOXq.V.OXOXOX",
"<.OXOXOXOXOXOXOXOXOXOXOXOXOXU a.OXOXOXOXOXOXOXOXOXOX{ c y K.~.6.OX; Z OXOXOXOXOX-.-.OXOXOX%.a.OX:.OXOXOXOXOXOXOXOXOXOXOXOXOXOXOX",
"| OXOXOXOXOXOXOXOXOXOXOXOX-.M.a OXOXOXOXOXOXOXOXOXR U.r 7 9.OXOXOXOXOXOXOXOXOXC.y.OXOXOXp.%.OX9.OXOXOXOXOXOXOXOXOXOXOXOXOXOXOXv.",
"OXOXOXOXOXOXOXOXOXOXOXOXC.U.OXOXOXOXOXOXOXOXOXOX&.;.OXOX. OXOXOXOXOXOXOXOXOXR.~.OXOXOXm.V.OXI.OXOXOXOXOXOXOXOXOX*.OXOXOXOXOX_.J.",
"OXOXOXOXOXOXOXOXOXOXOXC.'.c.OXOXOXOXOXOXOXOXOXR a.OXOXOXOXOXOXOXOXOXOXOXOXi.(.OXOXOX).!.OX Xp.OXOXOXOXOXOXOXOX&.OXOXOXOXOX(./.OX",
"OXOXOXOXOXOXOXOXOX_ K. XH.OXOXOXOXOXOXOXOXOX:.J.w OXOXOXOXOXOXOXOXOXOXOXOX6.OXOXOX!.{.O.K.S.OXOXOXOXOXOXOXOXC.OXOXOXOXOXo.J.OXOX",
"OXOXOXOXOXOXOXOXD.!.'.!.OXOXOXOXOXOXOXOXOX5.~.$.OXOXOXOXOXOXOXOXOXOXOXOXOXOXOXOXm.U.OX, Z OXOXOXOXOXOXOXOXQ.OXOXOXOXOXOXo OXOXOX",
"OXOXOXOXOXOXOX]  XK.C.OXOXOXOXOXOXOXOXOXI. Xc.OXOXOXOXOXOXOXOXOXOXOXOXOXOXOXOXOX0 OXOXOXOXOXOXOXOXo.OXOXO.OXOXOXOXw M Z OXOXOXOX",
"OXOXOXOXOXOXOXx.+.OXOXOXOXOXOXOXOXOXOXI.XXU.OXOXOXOXOXOXOXOXOXOXOXOXOXOXOXOXOXOXOXOXOXOXOXOXOXS a.OXOXOXOXOX6 OXU.U } OXOXOXOXOX",
"OXOXOXOXOXOXOXOXOXOXOXOXOXOXOXOXOXOX~ '.`.OXOXOXOXOXOXOXOXOXOXOXOXOXOXOXOXOXOXOXOXOXOXOXOXOX` ,.OXOXOXOXk x.j ;.c.,.OXOXOXOXOXOX",
"OXOXOXOXOXOXOXOXOXOXOXOXOXOXOXOXOX^ (.C.H OXOXOXOXj.OXOXOXOXOXOXOXOXOXOXOXOXOXOXOXOXOXOXI X.J.OXOXOXOXOX,.t d.M.U.OXOXOXOXOXOXOX",
"OXOXOXOXOXOXOXOXOXOXOXOXOXOXOXOXOX% OXOXOXOXOXOXOXOXOXOXOXOXOXOXOXOXOXOXOXOXOXOXOXOXOX3.~.'.OXOXOXOXr.B.R A...U.OXOXOXOXOXOXOXOX",
"OXOXOXOXOXOXOXOXOXOXOXOXOXOXOXOXOXOXOXOXOXOXOXOXOXOXOXOXOXOXOXOXOXOXOXOXOXOXOXOXOXOX~ a. XC.OXOXOXS.`.X.U.9.OXOXOXOXOXOXOXOXOXOX",
"OXOXOXOXOXOXOXOXOXOXOXOXOXOXOXOXOXOXOXOXOXOXw . OXOXOXOXOXOXOXOXOXOXOXOXOXOXOXOXg.-.0.D.z.OXOXOX*.'.C.{.K.OXOXOXOXOXOXOXOXOXOXOX",
"OXOXOXOXOXOXOXOXOXOXOXOXOXOXOXOXOXOXOXOXOXU.A OXOXOXOXOXOXOXOXOXOXOXOXOXOXOXOX;.a.M.3 OXOXOXOXOXz.B.XX_.OXOXOXOXOXOXOXOXOXOXOXOX",
"< OXOXOXOXOXOXOXOXv.OXOXOXOXOXOXOXOXOXOX,.N.OXOXOXOXOXOXOXOXOXOXOXOXOXOXOXOXC.K.T.OXOXOXOXOXOXOXw `.{.-.OXOXOXOXOXOXOXOXOXOXOXOX",
"OXOXOXOXOXOXOXOX8.OXOXOXOXOXOXOXOXOXOXd.*.OXOXOXOXOXOXOXOXOXOXOXOXOXW OXOX!._.}.8.OXOXOXOXOXOXOXU.U.[ OXOXOXOXOXOXOXOXOXOXOXOXB.",
"OXOXOXOX6.OXOXf.OXOXOXOXOXOXOXOXOXOXx.I OXOXOXOXOXOXOXOXOXOXOXOXOXK.OXOXs.U.XXV.OXOXOXOXOXOXOX$ P 0.o.OXOXOXOXOXOXOXOXOXOXOX=.OX",
"OXOXOX&.OXOX!.OXOXOXOXOXOXOXOXOXOXV.g.OXOXOXOXOXOXOXOXOXOXOXOXOX2.OXOXOXa.~.m.OXOXOXOXOXOXOXOX  ( 5.OXOXOXOXOXOXOXOXOXOXOX<.h # ",
"OXm.s.OXOX|.z.OXOXOXOXOXOXOXOX[ ~.T.OXOXOXOXOXOXOXD OXOXOXOXOXOXOXOXOXOXi OXOXOXOXOXOXOXOXOXOXOX-.OXOXOXOXOXOXOXOXOXOXz a.*.B.OX",
"I.!.OXOXV.b.OXOXOXOXOXOXOXOX+.{.].' OXOXOXOXOXOX<.OXOXp OXOXOXOXOXOXOXOXOXOXOXOXOXOXOXOXOXOX4.V.OXOXOXOXOXOXOXOXOXOXZ M.d.*.OXOX",
"].OXOX@ OXOXOXOXOXOXOXOXG ^ {..Xt.OXOXOXOXOXOXF.OXOXc.OXOXOXOXOXOXOXOXOXOXOXOXOXOXOXOXOXOXH.'.OXOXOXOXOXOXOXOXOXOX~ Z.J.<.OXOX#.",
"OXOXOXOXOXOXOXOXOXOXOXE C.J.'.B.OXOXOXOXOXOXOXOXOX;.OXOXOXOXOXOXOXOXOXOXOXOXOXOXOXOXOXOX! {.h.OXOXOXOXOXOXOXOX2.J.C.C.U.OXOXOXZ.",
"OXOXOXOXOXOXOXOXOXOX! ..a.K.$.OXOXOXOXOXOXOXOXOXJ.OXOXOXOXOXOXOXOXOXOXOXOXOXOXOXOXOXOXY b.k.OXOXOXOXOXOXOXOXb B.,.J.{.OXOXOXOXOX",
"OXOXOXOXOXOXOXOXOXL 0.~ $ OXOXOXOXOXOXOXOXOXU.'.OXOXOXOXOXOXOXOXOXOXOXc.# OXOXOXOXOX-.OXOXOXOXOXOXOXOXOXOXv c.x C }.N.OXOXOXOXOX",
"OXOXOXOXOXd.; OX-.M.f OXOXOXOXOXOXOXOXOXOX,. Xi.OXOXOXOXOXOXOXOXOXOXc.c.OXOXOXOXP.T.OXOXOXOXOX' OXOXOXOX$.a.l 7 J.d.OXOXOXOXOXOX",
"OXOXOXOXM.V.OXR g.&.OXt OXOXOXOXOXOXOXOXOXB.x.OXOXOXOXOXOXOXOXOXOXc.T OXOXOXOXs.W.OXOXOXOXOX,.OXOXOXOX*.U.*.OXOXOXOXOXOXOXOXOXOX",
"OXOX9 9.o.OXf.A.g.OXd.OXOXOXOXOXOXOXOXOXOXOXOXOXOXOXOXOXOXOXOXOXB.c OXOXOXOXOXOXOXOXOXOXOX7.OXOXOXOXx.(.m.OXOXOXOXOXOXOXOXOXOXOX",
"OXOXs.E OXu.A.g.F -.OXOXOXOXOXOXOXOXOXOXOXOXOXOXOXOXOXOXOXOX} K.8.OXOXOXOXOXOXOXOXOXOXOXU.OXOXOXQ v.XXU.OXOXOXOXOXOXOXOXOXOXOXOX",
"OXJ.;.OXn K.Z.*.V.OXOXOXOXOXOXOXOXOXOXOXOXOXOXOXOXOXOXOXOXb.].D.OXOXOXOXOXOXOXOXOXOXOX Xx.OXOXs.4.XX].j OXOXOXOXOXOXOXOXOXOXOXOX",
"~.J.OX-._.B.M.'.OXOXOXOXOXOXOXOXOXOXOXOXOXOXOXOXOXOXOXOXe..X/.OXOXOXOXOXOXOXOXOXOXOXV.B.OXOXc.#.U.'.%.OXOXOXOXOXOXOXOXOXOXOXOX:.",
"_.OXOX[./.Y '.m.OXOXE OXOXOXOXOXOXOXOXOXOXOXOXOXOXOXOXC U.'.A OXOXOX5 OXOXOXOXOXOXX OXOXOXOXOX;.C.C.- OXOXOXOXOXOXOXOXOXOXOX_ |.",
"O.OXB.E.OX3.OXOXOX&.c.OXOXOXh.x OX+.OXOXOXOXOXOXOXOXOXd.D.OXOXOXOXy.OXOXOXOXOXOXOXOXOXOXOXOXOXc <.{ OXOXOXOXOXOXOXOXOXOXOX* [..X",
"OX; Z OXOXOXOXOX-.-.OXOXOX~ g.OX,.OXOXOXOXOXOXOXOXOXOX= OXOXOXOX,.S OXOXOXOXOXOXOXOXOXOXOXOXP a.Z OXOXOXOXOXOXOXOXOX#.c 2 S.(.c.",
"OXOXOXOXOXOXOXB.M.OXOXOXa.-.OX7.OXOXOXOXOXOXOXOXOXOXOXOXOXOXOXk.~ OXOXOXOXOXOXOXOXOXOXOXOX;.B.s OXOXOXOXOXOXOXOXOXR U.e 4 5.3.OX",
"OXOXOXOXOXOXQ.E.OXOXOXm.k.OXJ.OXOXOXOXOXOXOXOXOX) OXOXOXOXOX_.J.OXOXOXOXOXOXOXOXOXOXOXOXB.U.R OXOXOXOXOXOXOXOXOX~ ;.:.OX. OXOXOX",
"OXOXOXOXOXz.(.OXOXOX/./.y.{.6.OXOXOXOXOXOXOXOX..OXOXOXOXOX(.(.OXOXOXOXOXOXOXOXOXOXOXOXC.'.M.OXOXOXOXOXOXOXOXOXD a.OXOXOXOXOXOXOX",
"OXOXOXOXOXt.OXOXOX!.|.( I.D.OXOXOXOXOXOXOXOXM.OXOXOXOXOX%.K.OXOXOXOXOXOXOXOXOXOXOXOXJ.{.K.OXOXOXOXOXOXOXOXOX>.J.d OXOXOXOXOXOXOX",
"OXOXOXOXOXOXOXOXm.U.1.1 OXOXOXOXOXOXOXOXOX).OXOXOXOXOXOXO OXOXOXOXOXOXOXOXOXOXOXw.~.(./.OXOXOXOXOXOXOXOXOXs.~.,.OXOXOXOXOXOXOXOX",
"OXOXOXOXOXOXOX3 OXOXOXOXOXOXOXOXOXR OXOX$.OXOXOXOXq M N OXOXOXOXOXOXOXOXOXOXOXOX{.J.C.OXOXOXOXOXOXOXOXOXI. XV.OXOXOXOXOXOXOXOXOX",
"OXOXOXOXOXOXOXOXOXOXOXOXOXOXOXD 9.OXOXOXOXOX5 OXU.P O.OXOXOXOXOXOXOXOXOXOXOXOXa.3.OXOXOXOXOXOXOXOXOXOXH.XXT.OXOXOXOXOXOXOXOXOXOX",
"OXOXOXOXOXOXOXOXOXOXOXOXOXOX` <.OXOXOXOXk x.y <.M.-.OXOXOXOXOXOXOXOXOXOXOXOXOXOXOXOXOXOXOXOXOXOXOXOX! ].'.OXOXOXOXOXOXOXOXOXOXOX",
"OXOXOXOXOXOXOXOXOXOXOXOX! X.J.OXOXOXOXOX,.p g.c.Y.OXOXOXOXOXOXOXOXOXOXOXOXOXOXOXOXOXOXOXOXOXOXOXOXT ~.D.` OXOXOXOXOXOXOXOXOXOXOX",
"OXOXOXOXOXOXOXOXOXOXOX5.U.'.OXOXOXOX2.B.Y A.^ U.OXOXOXOXOXOXOXOXOXOXOXOXOXOXOXOXOXOXOXOXOXOXOXOXOX% x OXOXOXOXOXOXOXOXOXOXOXOXOX",
"OXOXOXOXOXOXOXOXOXOX~ g. XC.OXOXOXS.(.X.T.:.w OXOXOXOXOXOXOXOXOXOXOXOXOXOXOXOXOXOXOXOXOXOXOXOXOXOXOXOXOXOXOXOXOXOXOXOXOXOXOXOXOX",
"OXOXOXOXOXOXOXOXd.*.0.K.z.OXOXOX*.].D.].K.OXOXOXOXOXOXOXOXOXOXOXOXOXOXOXOXOXOXOXOXOXOXOXOXOXOXOXOXOXOXOXOXOX8 o OXOXOXOXOXOXOXOX",
"OXOXOXOXOXOXOX%.a.c.4 OXOXOXOXOXm.B..X_.OXOXOXOXOXOXOXOXOXOXOXOXOXOXOXOXOXOXOXOXOXOX& OXOXOXOXOXOXOXOXOXOXP.( OXOXOXOXOXOXOXOXOX",
"OXOXOXOXOXOXM.J.~.OXOXOXOXOXOXOXw '.{.*.OXOXOXOXOXOXOXOXOXOXOXOX4 OXOXOXOXOXOXOXOXB.OXOXOXOXOXOXOXOXOXOX<.D.OXOXOXOXOXOXOXOXOXOX",
"OXOXW OXOX!.'.}.<.OXOXOXOXOXOXV U.K.+.OXOXOXOXOXOXOXOXOXOXOXOXB.OXOXOXOXOXOXOXOX-.OXOXOXOXOXOXOXOXOXOXa.;.OXOXOXOXOXOXOXOXOXOXOX",
"OXD.OXOXp.!.XXk.OXOXOXOXOXOXOX$ I $.K OXOXOXOXOXOXOXOXOXOXOX&.OXOXOXOXOXs.OXOXM.OXOXOXOXOXOXOXOXOXOXx.E OXOXOXOXOXOXOXOXOXOXOXOX",
"y.OXOXOXc.~.N.OXOXOXOXOXOXOXOXOXE 5.OXOXOXOXOXOXOXOXOXOXOX;.c @ OXOXOX;.OXOX!.OXOXOXOXOXOXOXOXOXOXC.c.OXOXOXOXOXOXOXOXOXOXOXOXOX",
"OXOXOXOXP OXOXOXOXOXOXOXOXOXOXOX-.OXOXOXOXOXOXOXOXOXOXz d.*.B.OXOXOX9.OXOX[.S.OXOXOXOXOXOXOXOX$.!.T.OXOXOXOXOXOXOXT OXOXOXOXOXOX",
"OXOXOXOXOXOXOXOXOXOXOXOXOXOX5.V.OXOXOXOXOXOXOXOXOXOXz Z.d.<.OXOXI.!.OXOXH.H.OXOXOXOXOXOXOXOXJ ].{.O.OXOXOXOXOXOXr.OXOXN OXOXOXOX",
"OXOXOXOXOXOXOXOXOXOXOXOXOXP.'.OXOXOXOXOXOXOXOXOXOX~ C.A.,.OXOX2.[.OXOXOXOXOXOXOXOXOXOXOX( ! ]..Xi.OXOXOXOXOXOXH.OXOXc.OXOXOXOXOX",
"OXOXOXOXOXOXOXOXOXOXOXOXU  Xy.OXOXOXOXOXOXOXOX:.J.C.M.K.OXOXOXN.OXOXOXOXOXOXOXOXOXOXOXY C.C.'.V.OXOXOXOXOXOXOXOXOX<.OXOXOXOXOXOX",
"OXOXOXOXo OXOXOXOXOXOXE M.x.OXOXOXOXOXOXOXOXb C.9.J.{.OXOXOXOXOXOXOXOXOXOXOXOXOXOXOXU ..a.U.8.OXOXOXOXOXOXOXOXOXJ.OXOXOXOXOXOXOX",
"OXOXOXs.# OXOXOXOXOXE OXOXOXOXOXOXOXOXOXOXL c.l G  Xl.OXOXOXOXOXOXOXOXOXOXOXOXOXOXl a.T % OXOXOXOXOXOXOXOXOXD.'.OXOXOXOXOXOXOXOX"
};
