/* XPM */
static char *result[] = {
/* columns rows colors chars-per-pixel */
"64 64 201 2 ",
"   c #891601",
".  c #B72E0F",
"X  c #B83419",
"o  c #B93417",
"O  c #CC2E0C",
"+  c #C23316",
"@  c #CB3315",
"#  c #C13418",
"$  c #C23C1A",
"%  c #CE3C1C",
"&  c #D53614",
"*  c #D23B1B",
"=  c #D93B1B",
"-  c #D23A17",
";  c #E03F1E",
":  c #E83F1F",
">  c #BE411E",
",  c #BA4727",
"<  c #BF4E2B",
"1  c #B3522E",
"2  c #B55733",
"3  c #C6411D",
"4  c #D3401E",
"5  c #DE421E",
"6  c #EB441B",
"7  c #C94928",
"8  c #D34423",
"9  c #D84723",
"0  c #D54926",
"q  c #DB4B26",
"w  c #D24D2B",
"e  c #CB542E",
"r  c #C4522B",
"t  c #DE522B",
"y  c #D5532E",
"u  c #CD5C36",
"i  c #CB5B39",
"p  c #D85730",
"a  c #D55A32",
"s  c #DB5C34",
"d  c #E34624",
"f  c #EE4722",
"g  c #E54924",
"h  c #E24E2A",
"j  c #EC4E2A",
"k  c #E3522C",
"l  c #ED522C",
"z  c #FF5C2E",
"x  c #E55E35",
"c  c #EC5D35",
"v  c #E05F38",
"b  c #EA5E38",
"n  c #EB5732",
"m  c #F45D34",
"M  c #FB5C33",
"N  c #F15531",
"B  c #C96A3F",
"V  c #C9643C",
"C  c #DC633B",
"Z  c #DB6A3D",
"A  c #D86538",
"S  c #E46037",
"D  c #ED6137",
"F  c #E5633A",
"G  c #EC6339",
"H  c #E4683D",
"J  c #E96B3F",
"K  c #F36236",
"L  c #F4643B",
"P  c #FB653A",
"I  c #F46B3D",
"U  c #FC6B3C",
"Y  c #F96237",
"T  c #FD703D",
"R  c #CB784C",
"E  c #D5774A",
"W  c #DF7D4F",
"Q  c #D57649",
"!  c #CF7E51",
"~  c #DE7D53",
"^  c #E46D41",
"/  c #EB6B43",
"(  c #FA6E41",
")  c #E67244",
"_  c #ED7345",
"`  c #E47449",
"'  c #E57D4C",
"]  c #ED7A48",
"[  c #EB7846",
"{  c #F47545",
"}  c #FC7343",
"|  c #F57946",
" . c #FD7A45",
".. c #FA7648",
"X. c #F37E4E",
"o. c #FB7C4A",
"O. c #DD8454",
"+. c #DE855A",
"@. c #D48C5C",
"#. c #DE8E5E",
"$. c #DB8957",
"%. c #EC804D",
"&. c #F4834D",
"*. c #FC824E",
"=. c #E68354",
"-. c #EB8451",
";. c #E48953",
":. c #E28A59",
">. c #ED8C5B",
",. c #ED8954",
"<. c #F38552",
"1. c #FD8551",
"2. c #FC8B54",
"3. c #F38C59",
"4. c #FD8D59",
"5. c #F18C52",
"6. c #E4935F",
"7. c #EE935D",
"8. c #F49157",
"9. c #FE9156",
"0. c #F5925B",
"q. c #FD925A",
"w. c #F5995E",
"e. c #FC995D",
"r. c #CD9B6B",
"t. c #DE9564",
"y. c #E69665",
"u. c #EB9263",
"i. c #EC9D65",
"p. c #E79D6A",
"a. c #E79E6A",
"s. c #FD9661",
"d. c #F59B65",
"f. c #FD9B62",
"g. c #F99F69",
"h. c #F19462",
"j. c #D0AD74",
"k. c #DDB478",
"l. c #E5A36A",
"z. c #EAA869",
"x. c #EBA166",
"c. c #F4A165",
"v. c #FEA365",
"b. c #FFAA67",
"n. c #F3A56D",
"m. c #FDA56B",
"M. c #F5AE6F",
"N. c #FEAB6C",
"B. c #FFB16E",
"V. c #EAA770",
"C. c #E7A871",
"Z. c #ECAB73",
"A. c #E3A571",
"S. c #FDA571",
"D. c #F4AC72",
"F. c #FCAD73",
"G. c #F7AF7A",
"H. c #EFB177",
"J. c #E7B97E",
"K. c #EFB37B",
"L. c #F6B077",
"P. c #FDB373",
"I. c #FDB977",
"U. c #F6B67D",
"Y. c #FCB57C",
"T. c #F4BB7C",
"R. c #FDBC7C",
"E. c #F2C17F",
"W. c #FDC17E",
"Q. c #EABC81",
"!. c #E5B380",
"~. c #F3B781",
"^. c #F2BC84",
"/. c #EFC589",
"(. c #ECC88B",
"). c #F5C385",
"_. c #FDC383",
"`. c #FECA85",
"'. c #F2C488",
"]. c #FEC28A",
"[. c #F5CC8B",
"{. c #FECC8A",
"}. c #FDD38E",
"|. c #FFD98F",
" X c #FECE91",
".X c #F5D493",
"XX c #FDD494",
"oX c #FEDB94",
"OX c #FDDD9B",
"+X c #FEE29C",
"@X c #FFE89F",
"#X c #FFDFA2",
"$X c #FEE3A3",
"%X c #FEEAA3",
"&X c #FEECAA",
"*X c #FFF2A5",
"=X c #FFF2AD",
"-X c #FFF4B1",
";X c #FFF9B5",
":X c #FFFBB8",
">X c None",
/* pixels */
">X>X>X>X>X>X>X>X>X>X7.>X>X>X>X>X>X>X>X>X>X{ | >X>X>X>X>X>X>X>X>X>X>X>X>X>X>X>X>X>X| {.XX>X>X>X>X>X>X>X>X>X>X@ >X>X>X>X>X>X>X>X>X",
">X>X>X>Xj >X>X>X^.OX>X>X>X>X>X>X>X>X>X>X4.E.>X>X>X>X>X>X>X>X>X>X>X>X>X>X>X>X>X>X3.R.+X_ >X>X>X>X>X>X>X>X>X( >X>X>X>X>X>X>X>X>X>X",
"% >X>X*.>X>X>XG.#X>X>X>X>X>X>X>X>X>X>X<.T.>X>X>X>X>X>X>X>X>X>X>X>X>X>X>X>X>X>X2.XX{.:.>X>X>X>X>X>X>X>X>X0.>X>X>X>X>X>X>X>X>X>X>X",
">X;.<.>X>X>Xj Y.>X>X>X>X>X>X>X>X>X>XJ o.>X>X>X>X>X>X>X>X>X>X>X>X>X>Xg >X>X>Xo.1.R.' >X>X>X>X>X>X>X>X>Xv.>X>X>X>X>X>X>X>X>X>X>XS ",
").`.>X>Xi.{ >X>X>X>X>X>X>X>X>X>XE m.m >X>X>X>X>X>X>X>X>X>X>X>X>X>XL >X>X` m.G a i >X>X>X>X>X>X>X>XY.+X>X>X>X>X>X>X>X>X>X>X>X9 >X",
"+X>X>X X_.>X>X>X>X>X>X>X>X>X>XK 4.H >X>X>X>X>X>X>X>X>X>X>X>X>X>X* >X>X>X1.b >XX >X>X>X>X>X>X>X>XQ.$X#.>X>X>X>X>X>X>X>X>X>X} q >X",
">X>X>XT.>X>X>X>X>X>X>X>X>X>X2.N.[ >X>X>X>X>X>X>X>Xt >X>X>X>X>X) k >Xc.I.-.>X>X>X>X>X>X>X>X>X>X>XY.>X>X>X>X>X>X>X>X>X>X>Xg.U >XXX",
">X>X>X>X>X>X>X>X>X>X>X>X>Xn.|.5.>X>X>X>X>X>X>X>Xk >X>X>X>X>Xm.I >X~.%Xv.>X .>X>X>X>X>X>X>X>X>X>X>X>X>X>X>X>X>X>X>X>X>Xo.>X>X>X>X",
">X>X>X>X>X>X>X>X>X>X>X>XQ.-XI.$ >X>X>X>X>X>X>X| >X>X>X>X>X*.2.>XD.;X_.e 1.>X>X>X>X>X>X>X>X>X>X>X>X>X>X>X>X>X>X>X>X>XL.,.>X>X>X>X",
">X>X>X>X>X>X>X>X>X>X>X].-XXXY >X>X>X>X>X>X>X[ >X>X>X>X>Xm.<.>X~.-X.XO.m.>X>X>X>X>X>X>X>X>X>X>X>XN.>X>X>X>X>X>X>XL.%XN.>X>X>X>X>X",
">X>X>X>X>X>X>X>X>X>XG.=XW.T a >X>X>X{ >X>XR.>X>X>X>X>X|.v.>X+.&XZ.:.@X>X>X>X>X>X>X>X>X>X>X>X>X).>X>X>X>X>X>X>Xy.=XT.>X>X>X>X>X>X",
">X>X>X>X>X>X>X>X>X>Xm.R. .d >X>X>Xo.>X>X$Xn.>X>X>X$.*X}.>X>Xl 4.u.$X>X>X>X>X>X>X>X>X>X>X>X>X>X>X>X>X>X>X>X>Xa.-X.X>X>X>X>X>X>X>X",
">X>X>X>X>X>X>X>X>XA v.q.} >X>XQ.I.>X>XOXg.>X>XG n.&X$XZ >X>X>X>X:.>X>X>X] >X>X..>X>X>X>X>X>X>X>X>X>X>X>X>X>X<.U.>X>X>X>X>X>X>X>X",
">X>X>X>X>X>X>X>XB N.b.e.>X>X X%X>X>X, $.>X>X% C $XXX>X>X>X>X>X>X>X>X>X{ ,.>X`.>X>X>X>X>X>X>X>X>X>X>X>X>X>X>X>X>X>X>X>X>X>X>X>X>X",
">X>X>X>X>X>X>X>Xe.B.c.>X>X~ ).>X>X>X>X>X>XL >Xk m.>X>X>X>X>X>X>X>X>XP.e.>X>X>X9 >X>X>X>X>X>X>X>X>X>X>X>X>X>X>X>X>X>X>X>X>X>X>X>X",
">X>X>X>X>X>X>X9.`.oX>X>X>X>X>X>X>X>X>X>X4.9 >X>X>X>X>X>X>X>X>X>X>X(.{.>X>X>X1.>X>X>X>X>X>X>X>X>X>X>X>X>X>X>X>X>X>X>X>X>X>X>X>X>X",
">X>X>X>X>X>XN.`.=X>X>X>X>X>X>X>X>X>X) N.S >X>X>X>X>X>X>X>X>X>X>X/.XX>X>X>Xd.>X>X>X>X>X>X>X>X>X>X>X>X>X>X>X>X>X>X>X>X>X>X>X>X>X>X",
">X>X>X>X>XP.{.OXE >X>X>X>X>X>X>X>X/ 2.>X>X>X>X>X>X>X>X>X>X>X>X>X7.>X>X>XXX>X>X>X>X>X>X>X>X>X>X>X>X>X>X>X>X>X>X>X>X>X>X>X>X>X6 >X",
">X>X>XH.oX%Xd.>X>X>X>X>X>X>X>X>Xi.I.] >X>X>X>Xk >X>X>X>X>X>X>X>X>X>X>XXX>X>X>X>X>X>X>X>X>X>X>X>X>X>X>X>X>Xc >X>X>X>X>X>X>XI >X>X",
">X>X>X+X`.i.>X>X>X>X>X>X>X>X>X~.@Xz.>X>X>X>XK >X>X>X>X>X>X>X>X>X>X>X>X>X>X>X>X>X>X>X>X>XO >X>X>X>X>X>X>Xk >X>X>X>X>X>X>X2.>X>X>X",
">X>Xi.D -.>X>X>X>X>X>X>X>X>X~.:XT.>X>X>X>X0.Y >X>X>X>X>X>X>X>X>X>X>X>X>X>X>X>X>X>X>X>X..>X>X>X>X>X>X>XG < _ >X>X>X>X>XM.>X>X>X>X",
">X>X>X>X>X>X>X>X>X>X>X>X>X).&X[.>X>X>X>Xo.A >X>X>X>X>X>X>X>X>X>X>X>X>X>X>X>X>X>X>X0 e.>X>X>X>X>X>X>X^ o.Z >X>X>X>X>X%X>X>X>X>X>X",
">X>X>X>X>X>X>X>X>X>X>X>X` OXn.>X>X>X>X_.E >X>X>X>X>X>X>X>X>X>X>X>X>X>X>X>X>X>X+ 2.w.>X>X>X>X>X>X>XN.g._.>X>X>X>X>XOXp.>X>X>X>X>X",
">X>X>X>X>X>X>X>X>X>X>X>X: =.>X>X>X>XOXn.>X>X>X>X>X>X>X>X>X>X>X>X>X>X>X>X>X>X>Xm.OX>X>X>X>X>X>X>X1.q.W.>X>X>X>X>X>X>X>X>X>X>X>X>X",
">X>X>X>X>X>X>X>X>X>X>X>X>X>X>X>X>XOXF.>X>X>X>X>X>X>X>X>X>X>X>X>X4 >X>X>X3 %.Y.&X>X>X>X>X>X>X>XI.2.k >X>X>X>X>X>X>X>X>X>X>X>X>X>X",
">X>X>X>X>X>X>X>X>X>X>X>X>X>X>X>Xl q.>X>X>X>X>X>X>X>X>X>X<.m >XI >X>X>XP _ 4.].>X>X>X>X>X>XP.oXB.M >X>X>X>X>X>X>X>X>X>X>X>X>X>X>X",
">X>X>X>X>X>X>X>X>X>X>X>X>X>X>X>XN X >X>X>X>X>X>X>X>X>XX.s.>X%.>X>X>X} q.9.* >X>X>X>X>X>X>X-X|.>X>X>X>X>X>X>X>X>X>X>X>X>X>X>X>X>X",
">X>X>X>X>X>X>X>X>X>X>X>X>X>X>X>Xn >X>X>X>X>X>X>X>X>Xx.2.>X0.>X>X>XM.`.I.>X>X>X. >X>X>Xu.;X$X' >X>X>X>X>X>X>X>X>X>X>X>X>X>X>X>X>X",
">X>X>X>X>X>X>X>X>X>X>X>X>X>Xx...>X>X>X>X>X>X>X>X>XoX_.>X+X>X>X>X[.oX*X>X>X>X>X>X>X>X>XOX}.e.>X>X>X>X>X>X>X>X>X>X>X>X>X>X>X>X>X>X",
">X>X>X>X>X>X>X>X>X>X>X>X>X*.<.>X>X>X>X>X>X>X>X>X X+X#.$XG.>X>XF.OX&Xl.>X>Xe.>X>X>X>X= m.1.k >X>X>X>X>X>X>X>X>X>X>X>X>X>X>X>X>X>X",
">X>X>X>X>X>X>X>X>X>X>X2 w.2.>X>X>X>X>X>X>X>X>X).XX>X! >X>X>X>XS.OX=.>X>X.X>X>X>X>X>X>XC U >X>X>X>X>X>X>X>X>X>X>Xo >X>X>X>X>X>X>X",
">X>X>X>X>X>X>X>X>X>X_ _.v.>X>X>X>X>X>X>X>X>X>X<.>X>X>X>X>X>X>X_ ^ >X>Xm.>X>X>X>X>X>X>X2.>X>X>X>X>X>X>X>X>X>X2 *.>X>X>X>X>X>X>X>X",
">X>X>X>X>X>X>X>X>X3.`.oX>X>X>X>X>X>X>X>X>X>X@ >X>X>X>X>X>X>X>X>X>X>X>X>X>Xy >X>X>Xl.N.>X>X>X>X>X>X>X>X>X>X.. .>X>X>X>X>X>X>X>X>X",
">X>X>X>X>X>X>X>Xs.R.+X&.>X>X>X>X>X>X>X>X>X( >X>X>X>X>X>X>X>X>X>X>X>X>X>Xl >X>X>Xr.OX>X>X>X>X>X>X>X>X>X>X0.W.>X>X>X>X>X>X>X>X>X>X",
">X>X>X>X>X>X>X4.}.{.@.>X>X>X>X>X>X>X>X>Xs.>X>X>X>X>X>X>X>X>X>X>X& >X>X0.>X>X>Xs.%X>X>X>X>X>X>X>X>X>X>X[ ).>X>X>X>X>X>X>X>X>X>X>X",
">X>X8 >X>X>Xo.4._.>X>X>X>X>X>X>X>X>X>Xv.>X>X>X>X>X>X>X>X>X>X>Xs >X>X2.>X>X>Xk D.>X>X>X>X>X>X>X>X>X>X .S >X>X>X>X>X>X>X>X>X>X>X>X",
">XU >X>X_ N.G S u >X>X>X>X>X>X>X>XY.oX>X>X>X>X>X>X>X>X>X>X>Xw >X_.|.>X>X>Xo.>X>X>X>X>X>X>X>X>X>X>Xm.M >X>X>X>X>X>X>X>X>X>X>X>X>X",
"8 >X>Xx 1.c >X>X>X>X>X>X>X>X>X>XU.$X>X>X>X>X>X>X>X>X>X>X>X{ q >X$X>X>XQ.[.>X>X>X>X>X>X>X>X>X>X>X2.^ >X>X>X>X>X>X>X>X>X>X>X>X>X>X",
"p >X6.P.;.>X% >X>X>X>X>X>X>X>X>XY.>X>X>X>X>X>X>X>X>X>X>XN.Y >X{.>X>Xj.`.>X>X>X>X>X>X>X>X>X>X>Xv.' >X>X>X>X>X>X>X>Xe >X>X>X>X>X .",
">XJ.@Xc.>X} >X>X>X>X>X>X>X>X>X>X>X>X>X>X>X>X>X>X>X>X>X1.{ >X>X>X>X>X>X>X>X>X>X>X>X>X>X>X>Xl.+X&.>X>X>X>X>X>X>X>X0 >X>X>X>X>Xm...",
"a.-X_.r 1.>X>X>X>X>X>X>X>X>X>X>X>X>X>X>X>X>X>X>X>X$.I.' >X>X>X>X>X>X>X>X>X>X>X>X>X>X>X>XA.=XW.3 >X>X>X>X>X>X>X1.>X>X>X>X>X&.0.X ",
"=XOXV m.>X>X>X>X>X>X>X>X>X>X>X>XW.>X>X>X>X>X>X>X>X+Xv.>X>X>X>X>X>X>X>X>X>X>X>X>X>X>X>X].=XOXI >X>X>X>X@ >X>X*.>X>X>X>X>Xe.9.>XK.",
"G.u.OX>X>X>X>X>X>X>X>X>X>X>X>XY.>X>X>X>X>X>X>Xy.%XQ.>X>X>X>X>X>X>X>X>X>X>X>X>X>X>X>Xa.:X`.U G >X>X>X{ >X>XT.>X>X>X>X>X`.N.>X~ %X",
"3.OX>X>X>X>X>X>X>X>X>X>X>X>X>X>X>X>X>X>X>X>XC.-XR.>X>X>X>X>X>X>X>X>X>X>X>X>X>X>X>X>X>._.} d >X>X>X*.>X>X@XL.>X>X>X>X%X+X>X>Xj d.",
"h.>X>X>X>Xq >X..>X>X>X>X>X>X>X>X>X>X>X>X>X>Xm.U.>X>X>X>X>X>X>X>X>X>X>X>X>X>X>X>X>XZ v.9. .>X>Xk._.>X>XOXZ.>X>XG ~ $X&X>X>X>X>X>X",
">X>X>X[ %.>X`.>X>X>X>X>X>X>X>X>X>X>X>X>X>X>X>X>X>X>X>X>X>X>X>X>X>X>X>X>X>X>X>X>XB P.N.f.>X>XQ.OX>X>X>X>X>X>X= >X$XXX>X>X>X>X>X>X",
">X>XD.q.>X>X>X* >X>X>X>X>X>X>X>X>X>X>X>X>X>X>X>X>X>X>X>X>X>X>X>X>X>X>X>X>X>X>X>X9.B.v.>X>X>X{.>X>X>X>X>X>Xn >Xw Y./ >X>X>X>X>X>X",
">XJ.R.>X>X>X1.>X>X>X>X>X>X>X>X>X>X>X>X>X>X>X>X>X>X>X>X>X>X>X>X>X>X>X>X>X>X>X>X8.W.oX>X>X>X>X>X>X>X>X>X>X*.f >X>X>X>X>X>X>X>X>X>X",
"'..X>X>X>X8.>X>X>X>X>X>X>X>X>X>X>X>X>X>X>X>X>X>X>X>X>X>X>X>X>X>X>X>X>X>X>X>XP.}.%Xu.>X>X>X>X>X>X>X>X^ v.S >X>X>X>X>X>X>X>X>X>X>X",
"7.>X>X>X{.>X>X>X>X>X>X>X>X>X>X>X>X>X>X>X>X>X  >X>X>X>X>X>X>X6 >X>X>X>X>X>XF.{.OX>X>X>X>X>X>X>X>X>XI 1.c >X>X>X>X>X>X>X>X>X>X>X>X",
">X>X>XXX>X>X>X>X>X>X>X>X>X>X>X>X>X>X>X>X>Xm >X>X>X>X>X>X>XP >X>X>X>X>X>X|.oXd.u >X>X>X>X>X>X>X>XM.I.C >X>X>X>Xl >X>X>X>X>X>X>X>X",
">X>X>X>X>X>X>X>X>X>X>X>X& >X>X>X>X>X>X>Xk >X# >X>X>X>X>X0.>X>X>X>X>X>XoX{.n.>X>X>X>X>X>X>X>X>X'.@Xc.>X>X>X>XG >X>X>X>X>X>X>X>X>X",
">X>X>X>X>X>X>X>X>X>X>XI >X>X>X>X>X>X>Xl 1 { >X>X>X>X>XP.>X>X>Xg >X>Xn._ =.>X>X>X>X>X>X>X>X>XR.:XU.>X>X>X>Xq.Y >X>X>X>X>X>X>X>X>X",
">X>X>X>X>X>X>X>Xs t s.>X>X>X>X>X>X>X5. .2.>X>X>X>X>X+X>X>X>X2.>X>X>X>X>X>X>X>X>X>X>X>X>X>X^.=XXX>X>X>X>X,.s >X>X>X>X>X>X>X>X>X>X",
">X>X>X>X>X>X>X# 3.w.>X>X>X>X>X>X>XN.s.E.>X>X>X>X>XOX>X>X>XT.>X>X>X>X>X>X>X>X>X>X>X>X>X>X>X$XV.>X>X>X>X_.;.>X>X>X>X>X>X>X>X>X>X>X",
">X>X>X>X>X>Xu m.oX>X>X>X>X>X>X>X*.q.`.>X>X>X>X>X7 R >X>X>X>X>X>X>X>X>X>X>X>X>X>X>X>X>X>Xd 1.>X>X>X>XXXN.>X>X>X>X>X>X>X>X>X>Xe >X",
"g >X>X>X$ 0.S.%X>X>X>X>X>X>X$.N.2.x >X>X>X>X>X>X>X>X>X>X>X>X>X>X>X>X>X>X>X>X>X>X>X>X>X>X>X>X>X>X>X.XB.>X>X>X>X>X>X>X>X>X>X8 - >X",
">X>X>XY J e. X>X>X>X>X>X>XF.oXB.M >X>X>X>X>X>X>X>X>X>X>X>X>X>X>X>X>X>X>X>X>X>X>X>X>X>X>X>X>X>X>X= 2.>X>X>X>X>X>X>X>X>X>X>XK >X{ ",
">X>X*.9.2.>X>X>X>X>X>X>X>X;X|.Z >X>X>X>X>X>X>X>X>X>X>X>X>X>X>X>X>X>X>X>X>X>X>X>X>X>X>X>X>X>X>X>Xl >X>X>X>X>X>X>X>X>X>X1.>.>Xq.>X",
">XN.I.R.>X>X>X>X>X>X>Xt.=XXX%.>X>X>X>X>X>X>X>X>X>X>X>X>X>X>X>X>X>X>X>X>X>X>X>X>X>X>X>X>X>X>X>X^ m >X>X>X>X>X>X>X>X>Xv.1.>XN.>X>X",
").oX@X>X>X>X} >X>X>X>X$X|.e.l >X>X>X>X>X>X>X>X>X>X>X>X>X>X>X>X>X>X>X>X>X>X>X>X>X>X>X>X>X>X>Xi...>X>X>X>X>X>X>X>X>X/._.>X@X>X>X>X",
"$X=X6.>X>Xq.>X>X>X>X; F.<.8 >X>X>X>X>X>X>X>X>X>X>X>X>X>X>X>X>X>X>X>X>X>X>X>X>X>X>X>X>X>X>Xo.q.>X>X>X>X>X>X>X>X>X'.$X:.$XU.>X>X>X",
"+XO.>X>XoX>X>X>X>X>X>XH P >X>X>X>X>X>X>X>X>X>X>X$ >X>X>X>X>X>X>X>X>X>X>X>X>X>X>X>X>X>X>Xe.q.>X>X>X>X>X>X>X>X>XL..X>X` t.>X>X>Xc.",
"Q >X>Xm.>X>X>X>X>X>X>Xq.>X>X>X>X>X>X>X>X>X>X>XX.>X>X>X>X>X>X>X>X>X>X>X>X>X>X>X>X>X>XH R.P.>X>X>X>X>X>X>X>X>X>X1.>X>X>X>X>X>X>XG "
};
