/* XPM */
static char *result[] = {
/* columns rows colors chars-per-pixel */
"64 64 198 2 ",
"   c #B42F10",
".  c #B53013",
"X  c #BF3014",
"o  c #C52A10",
"O  c #C43515",
"+  c #C03B1B",
"@  c #D13D1E",
"#  c #B4401F",
"$  c #B54D2A",
"%  c #BE4325",
"&  c #B0512C",
"*  c #BC5F35",
"=  c #C1401F",
"-  c #D8411F",
";  c #D4421D",
":  c #EB421E",
">  c #C24423",
",  c #CF4421",
"<  c #C64F2E",
"1  c #CA4828",
"2  c #D74221",
"3  c #DB4423",
"4  c #D74B26",
"5  c #DE4C25",
"6  c #D14C2A",
"7  c #CB512D",
"8  c #D2522C",
"9  c #DB522B",
"0  c #D4592F",
"q  c #C65630",
"w  c #CE5731",
"e  c #CE5836",
"r  c #D15A31",
"t  c #D95B34",
"y  c #E54522",
"u  c #E44924",
"i  c #EC4A26",
"p  c #E54D29",
"a  c #EC4D28",
"s  c #F24B25",
"d  c #E4542D",
"f  c #EC522B",
"g  c #EB5A2E",
"h  c #F2532C",
"j  c #F1582E",
"k  c #FC592F",
"l  c #F8562E",
"z  c #E75830",
"x  c #ED5C34",
"c  c #F05930",
"v  c #FA5B31",
"b  c #DB643A",
"n  c #DF683D",
"m  c #E76037",
"M  c #EF6637",
"N  c #EC633A",
"B  c #E06838",
"V  c #ED6B3D",
"C  c #E0653D",
"Z  c #F46236",
"A  c #FC6436",
"S  c #F4653A",
"D  c #FF6539",
"F  c #F46A3D",
"G  c #FD6D3C",
"H  c #FC713F",
"J  c #D46E43",
"K  c #D67746",
"L  c #DC7244",
"P  c #D87648",
"I  c #D27F4D",
"U  c #CD7D50",
"Y  c #EA6C40",
"T  c #E66F43",
"R  c #FA6D40",
"E  c #E57345",
"W  c #ED7445",
"Q  c #EC7549",
"!  c #E47C4D",
"~  c #EC7A4B",
"^  c #E97849",
"/  c #F37445",
"(  c #FC7342",
")  c #F57947",
"_  c #FD7944",
"`  c #F37B4B",
"'  c #FB7C49",
"]  c #F27449",
"[  c #E77F53",
"{  c #EA7F50",
"}  c #D5814E",
"|  c #DD8759",
" . c #DD8C5B",
".. c #D58558",
"X. c #F6824E",
"o. c #FD824D",
"O. c #FC884F",
"+. c #E48354",
"@. c #ED8554",
"#. c #E58956",
"$. c #EC8A57",
"%. c #ED8E5A",
"&. c #F48552",
"*. c #FD8551",
"=. c #F58955",
"-. c #FB8A54",
";. c #F38D5B",
":. c #FB8F5A",
">. c #E4965E",
",. c #E9955E",
"<. c #ED985E",
"1. c #F79157",
"2. c #FD9255",
"3. c #F4945C",
"4. c #FD935B",
"5. c #F3985D",
"6. c #FB9A5D",
"7. c #DA8E61",
"8. c #DC9867",
"9. c #E59462",
"0. c #EC9563",
"q. c #E39B67",
"w. c #EB9964",
"e. c #E69768",
"r. c #E69B68",
"t. c #F39663",
"y. c #F59B64",
"u. c #F99C65",
"i. c #F49E69",
"p. c #F89663",
"a. c #E89D73",
"s. c #DEA065",
"d. c #DBA76F",
"f. c #DFA670",
"g. c #DFAC70",
"h. c #ECA26B",
"j. c #E7A96E",
"k. c #ECAA6E",
"l. c #F3A364",
"z. c #FEA465",
"x. c #F3A26B",
"c. c #FCA56B",
"v. c #F5A86C",
"b. c #FDAD6C",
"n. c #FEB26E",
"m. c #EFA772",
"M. c #EDAB72",
"N. c #ECAD78",
"B. c #E4A171",
"V. c #F2A470",
"C. c #FFA770",
"Z. c #F2AB72",
"A. c #FEAD71",
"S. c #E5B17B",
"D. c #EAB17A",
"F. c #EDBA78",
"G. c #F2B374",
"H. c #FDB373",
"J. c #FEBA75",
"K. c #F3B37B",
"L. c #FCB67B",
"P. c #F3BB7C",
"I. c #FDBA7C",
"U. c #F6C27F",
"Y. c #FCC37D",
"T. c #F3BB85",
"R. c #FBBD81",
"E. c #EDC98D",
"W. c #F6C383",
"Q. c #FDC483",
"!. c #FDCA83",
"~. c #F7C68C",
"^. c #FBC289",
"/. c #F4CC8C",
"(. c #FECC8C",
"). c #F5D28E",
"_. c #FED38B",
"`. c #FFD88D",
"'. c #F2CF90",
"]. c #FDCD90",
"[. c #F7D693",
"{. c #FDD493",
"}. c #F7D992",
"|. c #FDDB95",
" X c #FEDC9A",
".X c #F8D49A",
"XX c #FFE095",
"oX c #FEE29D",
"OX c #FEE89F",
"+X c #F9DFA0",
"@X c #FDE5A4",
"#X c #FEEBA5",
"$X c #FEEDA9",
"%X c #FFF4AC",
"&X c #FFF5B3",
"*X c #FFF9B4",
"=X c #FFFBB9",
"-X c None",
/* pixels */
"-X-X/.-X-X-X3.=XQ.~ -X-X-X-X-X-X-X-X-X-X-X-X-X-X-X-X-X-X-X-X-X-X-X-X-X-X-X-X-X-X-X-X` F -X-X-X-X-X-X-X-X-X.X X-XR.i.-X-X(._. X-X",
"-X].-X-X-X-X3.^.x -X-X-X-X-X-X-X-X-X-X-X-X-X-X-X-X-X-X-X-X-X-X-X-X-X-X-X-X-X-X-X-X~ -.-X-X-X-X-X-X-X-X-Xx R.-X-X-X-X-XQ. X%X>.-X",
"-X-X-X-X-X-XE d h -X-X-X-X-X-X-X-X-X-X-X-X-X-X-X-X-X-X-X-X-X-X-X-X-X-X-X-X-X-X* 4.F -X-X-X-X-X-X-X-X-X-X-X-X-X-X-X-XY {.@Xx.-X-X",
"-X-Xu -X-X-X-X&.-X-X-X-X-X-X-X-X-X-X> p -X-X-X-X-X-X-X-X-X-X-X-X-X-X-X-X-X-Xq c.4.-X-X-X-X-X-X-X-X-X-X-X-X-X-X-X-X-X9 R.u.-X-X-X",
"-XF -X-X-Xk.&.-X-X-X-X-X-X-X-X-X-X$ ) -X-X-X-X-X-X-X-X-X-X-X-X-X-X-X-X-X-XB !.Y.-X-X-X-X-X-X-X-X-X-XO -X-X-X-X-X-X-X< -X-X-X-X-X",
"' -X-X-XD.Q.-X-X-X-X-X-X-X-X-X-X~ z.-X-X-X-X-X-X-X-X-X-X-X-X-X-X-X-X-X-X$.{.|.#.-X-X-X-X-X-X-X-X-Xa -X-X-X-X-X-X-X-X-X-X-X-X-X-X",
"-X-X-XD.#X-X-X-X-X-X-X-X-X-X-X4.).-X-X-X-X-X-X-X-X-X-X-X-X-X-X-X-X-X-Xt.*XoXh.-X-X-X-X-X-X-X-X-XO.-X-X-X-X-X-X-X-X-X-X-X-X-Xc.J.",
"-X-X/ @X-X-X-X-X-X-X-X-X-X-XD L.-X-X-X-X-X-X-X-X-X-X-X-X-X-X-X-X-X-XG L.$X~ -X-X-X-X-X-X-X-X-X-.-X-X-X-X-X-X-X-X-X-X-X-X-XR.oX-X",
"-XF ~ -X-X-X-X-X-X-X-X-X7 &.Z -X-X-X-X-X-X-X-X-X-X-X-X-X-Xo -X-X$ =.R c.[ -X-X-X-X-X-X-X-Xj.Y.-X-X-X-X-X-X-X-X-X-X-X, -Xx.@X .-X",
"b.-X-X-X-X-X-X-X-X-X-X-X1.' -X-X-X-X-X-X-X-X5 -X-X-X-X-Xi -X-X-X-.S   -X-X-X-X-X-X-X-X-XL.$X-X-X-X-X-X-X-X-X-X-X-Xk -X-X&.-X-XF.",
"-X-X-X-X-X-X-X-X-X-X%.6.A -X-X-X-X-X-X-X-XF -X-X-X-X-Xv 2 -X5.J.d -X-X-X-X-X-X-X-X-X-X@.@X0.-X-X-X-X-X-X-X-X-X-X-.g -X-X-X-X'.{.",
"-X-X-X-X-X-X-X-X-X<.!.O.  -X-X-X-X-X-X-X` -X-X-X-X-X) f -Xi.`.-.-Xa -X-X-X-X-X-X-X-X-X` U -X) -X-X-X-X-X-X-X-X*.) -X-X-X-X-XV.-X",
"-X-X-X-X-X-X-X-Xv.#Xn.4 -X-X-X-Xp -X-Xb.-X-X-X-X-X&.~ -XK.%XY.-X' -X-X-X-X-X-X-X-X-X-X-X-X_.-X-X-X-X-X-X-X-Xn.d -X-X-X-X-X-X-X-X",
"-X-X-X-X-X-X-XL.*X_.d -X-X-X-X' -X-XXX-X-X-X-X-X6.x -XT.&X|.J O.-X-X-X-X-X-X-X-X-X-X-X-X-X-X-X-X-X-X-X-X#._.4.-X-X-X-X-X-X-X-X-X",
"-X-X-X-X-X-XT.*X|.o.v -X-XG.<.-X-X@XD.-X-X-XP !.1.-Xx.=XT.;.!.-X-X-X-X-X-X7 -X-X-X-X-X-X-X-X-X-X-X-X-Xw.$XQ.-X-X-X-X-X-X-X-X-X-X",
"-X-X-X-X-X6 {.`.O.O.-X-XT.{.-X-Xi.V.-X-X-X$.oX!.-X-Xx.].h.@X| -X-X-X-X-XH.-X-X-X-X-X-X-X-X-X-X-X-X-Xa.&X|.-X-X-X-X-X-X-X-X-X-X-X",
"-X-X-X-X-X' b.b.&.-X-XL. X-X-X-X-X-X-X-Xq.@XoX-X-X% &.2 {.-X-X-X9 -X-XL.-X-X-X-X-X-X-X-X-X-X-X-X-X-X{.~.-X-X-X-X-X-X-X-X-X-X-X-X",
"-X-X-X-X-XV I.I.-X-X-X@.-X-X-X-X-X-Xs 0.&X{.%.-X-X-X-X-X-X-X-X! ( -X-X-X-X-X-X-X-X-X-X-X-X-X-X-X-XY p.-X-X-X-X-X-X-X-X-X-X-X-X-X",
"-X-X-X-Xr Q.#X-X-X-X-X-X-X-X-X-X-Xi -Xt. X-X-X-X-X-X-X-X-X-Xc.V -X-X-X-X-X-X-X-X-X-X-X-X-X-X-X-X-X-X-X-X-X-X-X-X-X-X-X-X-X-X-X-X",
"-X-X-X4.!.@X-X-X-X-X-X-X-X-X-X-XG -X3 :.8 -X-X-X-X-X-X-X-X~.b.-X-X-XZ -X-X-X-X-X-X-X-X-X-X-X-X-X-X-X-X-X-X-X-X-X-X-X-X-X-X-X-X-X",
"-X-Xz.Q.C...-X-X-X-X-X-X-X-Xw :.-X-X-X-X-X-X-X-X-X-X-X-X{./.-X-X-X' -X-X-X-X-X-X-X-X-X-X-X-X-X-X-X-X-X-X-X-X-X-X-X-X-Xh -X-X-X-X",
"-XH.#Xv.-X-X-X-X-X-X-X-X-X-Xo.t -X-X-X-Xy -X-X-X-X-X-X&.].-X-X-XP.-X-X-X-X-X-X-X-X-X-X-X-X-X-X-X-X-X-X-X-X-X-X-X-X-X` -X-X-X-X-X",
"!.#XW.-X-X-X-X-X-X-X-X-Xz.J.9 -X-X-X-XW -X-X-X-X-X-X-X-X-X-X-X X-X-X-X-X-X-X-X-X-X-X-X-X-X-X-X-X-X-X-X-X-X-X-X-X-Xu.-X-X-X-X-X-X",
"oXx.-X-X-X-X-X-X-X-X-Xv.`.' -X-X-X-X` ` -X-X-X-X-X-X-X-X-X-X;.-X-X-X-X-X-X-X-X-X-X-X-X-X-X-X-X-Xy -X-X-X-X-X-X-X`.-X-X-X-X-Xd.$X",
"K.-X-X-X-X-X-X-X-X-XK.%XI.-X-X-X-XJ.^ -X-X-X-X-X-X-X-X-X-X-X-X-X-X-X-X-X-X-X-Xl -X-X-X-X-X-X-Xi 8 d -X-X-X-X-X@Xg.-X-XW.-X-XoXc.",
"-X-X-X-X-X-X-X-X-X~.&X).-X-X-X-X[.M.-X-X-X-X-X-X-X-X-X-X-X-X-X-X-X-X-X-X-X-X-.-X-X-X-X-X-X-XZ F T -X-X-X-X-Xu.m.-X-X-X-X-X-X` -X",
"-X-X-X-X-X-X-X-Xw.=Xm.-X-X-X-X@XW.-X-X-X-X-X-X-X-X-X-X-X-X-X-X-X-X-X-X-X! -.-X-X-X-X-X-X-X-.4.H.-X-X-X-X-X-X-X-X-X-X-X-X-X-X-X-X",
"-X-X-X-X-X-X-X-Xu.L.-X-X-X-Xx.L.-X-X-X-X-X-X-X-X-X-Xv y -Xh -X-X-X-Xu 4.Y.-X-X-X-X-X-X-X&.H.{.-X-X-X-X-X-X-X-X-X-X-X-X-X-X-X-X-X",
"-X-X-X-X-X-X-X-XE -X-X-X-X-Xr -X-X-X-X-X-X-X-X-X-X] _ -X` -X-X-X-XG C.%X8.-X-X-X-X-X} J._ x.-X-X-X-X-X-X-X-X-X-X-X-X-X-X-X-X-X-X",
"-X-X-X-X-X-X-X-X-X-X-X-X-Xy -X-X-X-X-X-X-X-X-X-X3.W -X1.-X-X-X: C c.$X-X-X-X-X-X-X#.`.n.H -X-X-X-X-X-X-X-X-X-X-X-X-X-X-X-X-X-X-X",
"-X-X-X-X-X-X-X-X-X-X-X-Xp = -X-X-X-X-X-X-X-X-XI.z.-X`.-X-X-X/ O.( =.#.-Xp -X-X-Xl.#X|.l.-X-X-X-X-X-X-X-X-X-X-X-X-X-X-X-X-X-X-X-X",
"-X-X-X-X-X-X-X-X-X-X-Xx i -X-X-X-X-X-X-X-X-X{.[.8.@Xm.-X-X6.b.b.-X-X-X/ -X-X-XN.%X#X<.-X-X-X-X-X-X-X-X-X-X-X-X-X-X-X-X-X-X-X-X-X",
"-X-X-X-X-X-X-X-X-X-X) V -X-X-X-X-X-X-X-X-X.X{.J ~.w.-X-X!.(.|.-X-X-X_.-X-X-X+.*X(.X.-X-X-X-X-X-X-X-X-X-X-X-X-X-X-X-X-X-X-X-X-X-X",
"-X-X-X-X-X-X-X-X-X` -.-X-X-X-X-X-X-X-X-XY ^.-X-X-X-X-XQ. X%X,.-X-XE.-X-X-X-X;.(.C -X-X-X-X-X-X-X-X-X-X-X-X-X-X-X-X-X-X-X-X-X-X-X",
"-X-X-X-X-X-X-X* 6.F -X-X-X-X-X-X-X-X-X-X-X-X-X-X-X-XQ  X$X7.-X-X-X-X-X-X-X-X~ 6 j -X-X-X-X-X-X-X-X-X-X-X-X-X-X-X-X-X-X-X-X-X-X-X",
"-X-X-X-X-X-Xq b.2.-X-X-X-X-X-X-X-X-X-X-X-X-X-X-X-X-Xf R.h.-X-X-X-X-Xu -X-X-X-X@.-X-X-X-X-X-X-X-X-X-X% c -X-X-X-X-X-X-X-X-X-X-X-X",
"-X-X-X-X-Xb !.I.-X-X-X-X-X-X-X-X-X-XO -X-X-X-X-X-X-Xt -X-X-X-X-X-X( -X-X-X-X=.-X-X-X-X-X-X-X-X-X-X& ] -X-X-X-X-X-X-X-X-X-X-X-X-X",
"-X-X-X-X&.(.`.#.-X-X-X-X-X-X-X-X-Xi -X-X-X-X-X-X-X-X-X-X-X-X-X-X` -X-X-XP.!.-X-X-X-X-X-X-X-X-X-XT b.-X-X-X-X-X-X-X-X-X-X-X-X-X-X",
"-X-X-Xw.*XoX8.-X-X-X-X-X-X-X-X-Xo.-X-X-X-X-X-X-X-X-X-X-X-X-Xc.G.-X-X-XB.%X-X-X-X-X-X-X-X-X-X-X&.).-X-X-X-X-X-X-X-X-X-X-X-X-X-X-X",
"-X-XH L.$X^ -X-X-X-X-X-X-X-X-XO.-X-X-X-X-X-X-X-X-X-X-X-X-XL.oX-X-X-XY @X} -X-X-X-X-X-X-X-X-XA J.-X-X-X-X-X-X-X-X-X-X-X-X-X-X-X-X",
"$ -.( c.@.-X-X-X-X-X-X-X-XM.Y.-X-X-X-X-X-X-X-X-X-X-X, -Xq.@X .-X-X( E -X-X-X-X-X-X-X-X-X-X*.g -X-X-X-X-X-X-X-X-X-X-X-X-X-X-X-X-X",
"-.F + -X-X-X-X-X-X-X-X-XL.$X-X-X-X-X-X-X-X-X-X-X-Xl -X-X&.-X-X-X>.-X-X-X-X-X-X-X-X-X-X-X=.) -X-X-X-X-X-X-X-Xy -X-X-X-X-X4 -X-X-X",
"B -X-X-X-X-X-X-X-X-X-X$.@Xt.-X-X-X-X-X-X-X-X-X-XO.f -X-X-X-X~.{.-X-X-X-X-X-X-X-X-X-X=.6.A -X-X-X-X-X-X-X-XA -X-X-X-X-Xh 4 -X%.J.",
"-Xa -X-X-X-X-X-X-X-X-X` ..-X/ -X-X-X-X-X-X-X-X*.E -X-X-X-X-XZ.-X-X-X-X-X-X-X-X-X-X5.!.2.. -X-X-X-X-X-X-X' -X-X-X-X-Xo.x -Xw._.=.",
"O.-X-X-X-X-X-X-X-X-X-X-X-X!.-X-X-X-X-X-X-X-Xn.d -X-X-X-X-X-X-X-X-X-X-X-X-X-X-X-Xr.#Xn.9 -X-X-X-Xd -X-Xv.-X-X-X-X-X~ &.-XZ.%XU.-X",
"-X-X-X-X-X-X-X-X-X-X-X-X-X-X-X-X-X-X-X-X#._.4.-X-X-X-X-X-X-X-X-X-X-X-X-X-X-X-XZ.*X_.z -X-X-X-XX.-X-X|.,.-X-X-X-X5.S -X^.&X|.J &.",
"-X-X-X-X-X-X-X-X-X-X-X-X-X-X-X-X-X-X-Xw.#XY.-X-X-X-X-X-X-X-X-X-X-X-X-X-X-X-XK.*X|.o.k -X-XH.y.-X-X@XS.-X-X-X-X!.6.-Xh.=XP.+.!.-X",
"-X-X-X-XA.-X-X-X-X-X-X-X-X-X-X-X-X-Xa.&X[.-X-X-X-X-X-X-X-X-X-X-X-X-X-X-X-X-X]. X2.X.-X-XS.|.-X-Xu.P.-X-X-X-X X!.-X-Xi.].t.@XZ.-X",
"9 -X-XR.-X-X-X-X-X-X-X-X-X-X-X-X-X-X X^.-X-X-X-X-X-X-X-X-X-X-X-X-X-X-X-X-X] A.b.=.-X-XV. X-X-X-X-X-X-X-X7.@X#X! -X1 @.@ {.-X-X-X",
"_ -X-X-X-X-X-X-X-X-X-X-X-X-X-X-X-X] p.-X-X-X-X-X-X-X-X-X-X-X-X-X-X-X-X-X-XS H.Y.-X-X-X@.-X-X-X-X-X-Xi [ &X X0.-X-X-X-X-X^ -X-XL ",
"-X-X-X-X-X-X-X-X-X-X-X-X-X-X-X-X-X-X-X-X-X-X-X-X-X-X-X-X-X-X-X-X-X-X-X-X0 I.%X-X-X-X-X-X-X-X-X-X-Xa -X:.@X! -X-X-X-X-X-X-X-Xy.V ",
"-X-XZ -X-X-X-X-X-X-X-X-X-X-X-X-X-X-X-X-X-X-X-X-X-X-X-X-X-X-X-X-X-X-X-X-.!.@X-X-X-X-X-X-X-X-X-X-XR -XX =.e -X-X-X-X-X-X-X-XP.n.-X",
"-X_ -X-X-X-X-X-X-X-X-X-X-X-X-X-X-X-X-X-X-X-X-X-X-X-X-Xs -X-X-X-X-X-Xl.Y.A.0.-X-X-X-X-X-X-X-Xw 4.-X-X-X-X-X-X-X-X-X-X-X-X[.[.-X-X",
"I.-X-X-X-X-X-X-X-X-X-X-X-X-X-X-X-X-X-X-X-X-X-X-X-X-X` -X-X-X-X-X-Xv.#Xb.-X-X-X-X-X-X-X-X-X-X&.x -X-X-X-Xu -X-X-X-X-X-X-.].-X-X-X",
"-X-X-X-X-X-X-X-X-X-X-X-X-X-X-X-X-X-X-X-X-X-X-X-X-Xy.-X-X-X-X-X-XQ.@X!.-X-X-X-X-X-X-X-X-X5.J.d -X-X-X-X( -X-X-X-X-X-X-X-X-X-X-X X",
"-X-X-X-X-X-X-X-X-X-X-X-X-X-X-X-X; -X-X-X-X-X-X-X`.-X-X-Xk -X-XOXoXv.-X-X-X-X-X-X-X-X-Xx.`.*.-X-X-X-X' _ -X-X-X-X-X-X-X-X-X-Xu.-X",
"-X-X-X-X-X-X-Xh -X-X-X-X-X-X-Xi 6 p -X-X-X-X-XoXd.-X-XI.-X-XoXA.K.-X-X-X-X-X-X-X-X-XN.%XY.-X-X-X-XJ.~ -X-X-X-X-X-X-X-X-X-X-X-X-X",
"-X-X-X-X-X-X-.-X-X-X-X-X-X-XZ M W -X-X-X-X-Xx.f.-X-X-X-X-XQ &.-X-X-X-X-X-X-X-X-X-X].&X[.-X-X-X-X XG.-X-X-X-X-X-X-X-X-X-X-X-X-X-X",
"-X-X-X-XL X.-X-X-X-X-X-X-X-.4.b.-X-X-X-X-X-X-X-X-X-X-X-X-X-X-X-X-X-X-X-X-X-X-X-X0.=XZ.-X-X-X-X@X~.-X-X-X-X-X-X-X-X-X-X-X-X-X-X-X",
"-X-X-X4.Y.-X-X-X-X-X-X-X&.A.[.-X-X-X-X-X-X-X-X-X-X-X-X-X-X-X-X-X-X-X-X-X-X-X-X-Xu.R.-X-X-X-Xc.L.-X-X-X-X-X-X-X-X-X-Xz y -Xf -X-X",
"-XG c.$X-X-X-X-X-X-XI J._ Z.-X-X-X-X-X-X-X-X-X-X-X-X-X-X-X-X-X-X-X-X-X-X-X-X-X-X~ -X-X-X-X-X0 -X-X-X-X-X-X-X-X-X-XL ) -X' -X-X-X",
"b c.$Xe.-X-X-X-X-X#._.n.H -X-X-X-X-X-X-X-X-X-X-X-X-X-X-X-X-X-X-X-X-X-X-X-X-X-X-X-X-X-X-X-X- -X-X-X-X-X-X-X-X-X-X5.) -X4.-X-X-Xs ",
"' 4.,.-Xf -X-X-Xh.$X`.b.-X-X-X-X-X-X-X-X-X-X-X-X-X-X-X-X-X-X-X-X-X-X-X-X-X-X-X-X-X-X-X-X-X> -X-X-X-X-X-X-X-X-Xk.n.-X/.K -X-X' / ",
"-X-X-XF -X-X-XM.%XoX<.-X-X-X-X-X-X-X-X-X-X-X-X-X-X-X-X-X-X-X-X-X-X-X-X-X-X-X-X-X-X-X-XD y -X-X-X-X-X-X-X-X-XW. Xe.$XG.-X-X3.z.J."
};
