/* XPM */
static char *result[] = {
/* columns rows colors chars-per-pixel */
"64 64 201 2 ",
"   c #9A1C03",
".  c #A41E04",
"X  c #AF1E03",
"o  c #B41C02",
"O  c #BE1F04",
"+  c #AF260B",
"@  c #BB2104",
"#  c #BB2A0D",
"$  c #B8230A",
"%  c #AF2D14",
"&  c #B7381B",
"*  c #BA3818",
"=  c #C11E01",
"-  c #C02608",
";  c #C82F0F",
":  c #C73618",
">  c #C73E1D",
",  c #D23B1A",
"<  c #D53918",
"1  c #BF4829",
"2  c #D6421E",
"3  c #DC411E",
"4  c #CC4422",
"5  c #CD4B26",
"6  c #CC4F2B",
"7  c #D64521",
"8  c #DC4421",
"9  c #DD4A24",
"0  c #D34D2A",
"q  c #DC4D29",
"w  c #CA512D",
"e  c #D6512C",
"r  c #DC522C",
"t  c #CF5E39",
"y  c #CA5430",
"u  c #DB5631",
"i  c #DC5C34",
"p  c #DD5E39",
"a  c #D65B36",
"s  c #E34522",
"d  c #E44A25",
"f  c #E74F2B",
"g  c #E94621",
"h  c #F24F29",
"j  c #E3552D",
"k  c #E9552D",
"l  c #EA5B2F",
"z  c #F5572D",
"x  c #ED5A32",
"c  c #F15C33",
"v  c #D76639",
"b  c #DE6539",
"n  c #D86D3F",
"m  c #DC6437",
"M  c #EB6135",
"N  c #E46539",
"B  c #EB6539",
"V  c #EC6B3D",
"C  c #E4683A",
"Z  c #F46235",
"A  c #F16539",
"S  c #FC663A",
"D  c #F36B3D",
"F  c #FD6C3D",
"G  c #F2703F",
"H  c #FA703F",
"J  c #C46B43",
"K  c #DC6C41",
"L  c #CA7548",
"P  c #DC7144",
"I  c #DF7348",
"U  c #D57B4C",
"Y  c #DE7D4F",
"T  c #D4754C",
"R  c #DC7F51",
"E  c #E76E41",
"W  c #ED6F45",
"Q  c #F76F40",
"!  c #FD6F41",
"~  c #EC7443",
"^  c #E57B4D",
"/  c #EE7C4A",
"(  c #E67747",
")  c #F47544",
"_  c #FC7444",
"`  c #F37A46",
"'  c #FD7B45",
"]  c #F0774A",
"[  c #F37C4A",
"{  c #FD7C4A",
"}  c #E27D51",
"|  c #EE7F50",
" . c #F17E52",
".. c #DF844F",
"X. c #DC8A5B",
"o. c #F4834E",
"O. c #FC834D",
"+. c #FE894F",
"@. c #EB8553",
"#. c #ED8A57",
"$. c #E58C5B",
"%. c #EC8D5D",
"&. c #E48756",
"*. c #F38453",
"=. c #FB8651",
"-. c #F58C56",
";. c #FC8C54",
":. c #F28658",
">. c #F58D5D",
",. c #FA8C5B",
"<. c #EE915F",
"1. c #FF9155",
"2. c #F6955B",
"3. c #FC965C",
"4. c #FD9B5E",
"5. c #F6985C",
"6. c #DE9768",
"7. c #D49B69",
"8. c #DC9964",
"9. c #E49363",
"0. c #EB9463",
"q. c #E29B64",
"w. c #EC9C67",
"e. c #EB9B6A",
"r. c #E09B6D",
"t. c #F29662",
"y. c #FA9663",
"u. c #F39D64",
"i. c #FF9E60",
"p. c #F29C69",
"a. c #F89E69",
"s. c #DEA56E",
"d. c #DEAE7A",
"f. c #E3A26B",
"g. c #FEA364",
"h. c #F3A36C",
"j. c #FBA36A",
"k. c #F4AC6C",
"l. c #FDAB6C",
"z. c #F6A163",
"x. c #FCB26F",
"c. c #E6A773",
"v. c #E9AB74",
"b. c #E4AC72",
"n. c #F3AC72",
"m. c #FCAA72",
"M. c #E8B077",
"N. c #ECB97C",
"B. c #F4B373",
"V. c #FEB572",
"C. c #F2B877",
"Z. c #FCBA77",
"A. c #F6B47C",
"S. c #FAB37C",
"D. c #F5BB7B",
"F. c #FDBC7C",
"G. c #FEC17E",
"H. c #EDBD86",
"J. c #F5BB83",
"K. c #FABD84",
"L. c #E7C486",
"P. c #EFC186",
"I. c #EEC289",
"U. c #EAC88F",
"Y. c #F5C485",
"T. c #FCC384",
"R. c #F5CA86",
"E. c #FDCC85",
"W. c #F5C58C",
"Q. c #FCC68B",
"!. c #F3CD8D",
"~. c #FCCC8C",
"^. c #FFD58D",
"/. c #FFD98E",
"(. c #F4D28F",
"). c #EACE90",
"_. c #F8C790",
"`. c #FCCD92",
"'. c #F3CB92",
"]. c #F3D396",
"[. c #FCD392",
"{. c #FCDC95",
"}. c #F5D798",
"|. c #FDD59A",
" X c #FEDB9B",
".X c #FDE39C",
"XX c #FFE99F",
"oX c #F7DEA3",
"OX c #FCDEA2",
"+X c #FEE4A3",
"@X c #FEEBA5",
"#X c #FCE5A8",
"$X c #FFEBAA",
"%X c #F7E3A3",
"&X c #FFF3AD",
"*X c #FFEEB1",
"=X c #FFF3B3",
"-X c #FFF8B3",
";X c #FFF7B9",
":X c #FFFABB",
">X c None",
/* pixels */
">X>X>X>X>X>X>Xo.g. X>X>X>X>X>X>X>X>X>X>X>X>X>X>X>X>X>X>X>X>X>X>X>X>X>X) 0.>X>X>X>X>X>X>X>X>X>X>X>X>X>X>X>X3.{ >Xg.>X>X>X>XA l.+X",
">XD >X>X>X>XV.G.u.>X>X>X>X>X>X>X>X>X>X>X>X>X>X>X>X>X>X>X>X>X>X>X>X>X>X>X>X>X>X>X>X>X>X>X>X>X>X>X>X>X>X>X^.Z.n.@X>X>X>X. E F.=Xf.",
";.>X>X>Xn..XV.S.>X>X>X>X>X>X>X>X>X>X>X>X>X>X>X>X>X>X>X>X>X>X>X>X>X>X>X>X>X>X>X>X- >X>X>X>X>X>X>X>X>X>X+X%XL #X>X>X>XD j ' ~.6.>X",
">X>X>XP.&X~.V >X>X>X>X>X>X>X>X>X>X>X>X>X>X>X>X>X>X>X>X>X>X>X>X>X>X>X>X>X>X>X>Xj >X>X>X>X>X>X>X>X>X>Xw.OX>X .0.>X>XZ / =.h >X>X].",
">X>Xn.;X'.>X>X>X>X>X>X>X>X>X>X>X>X>X>X>X>X>X>X>X>X>X>X>X>X>X>X>X>X>X>X>X>X>X) [ >X>X>X>X>X>X>X>X>X>X#.>X>X>X>X>Xg.V.V.>X>X>XX.c.",
">X>X`.|.>X>X>X>X>X>X>X>X>X>X>X>X>X>X>X>X>X>X>X>X>X>X>X>X>X>X>X>X>X>X>X>X>X' ` >X>X>X>X>X>X>X>X>X>X>X>X>X>X>X>X~.{.$X>X>X>X>X>X>X",
">XA h.i 8 >X>X>X>X>X>X>X>X>X>X>X>X>X>X>X>X>X>X>X>X>X>X>X>X>X>X>X>X>X>X>X/ A >X>X>X>X>X>X>X>X>X>X>X>X>X>X>X>Xj.+X;Xb.>X>X>X>X>X) ",
">X>X>X[ >X>X>X>X>X>X>X>X>X>X>X; >X>X>X>X>X>X>X>X>X>X>X>X>X>X>X>X>X>X>Xh.;.>X>X>X>X>X>X>X>X>X>X>X>X>X>X>X>X>X-.*X0.>X>X>X>X>X_ >X",
">X>XF >X>X>X>X>X>X>X>X>X>X, ~ >X>X>X>X>X>X>X>X>X>X>X>X>X>X>X>X>X>Xn D.5.>X>X>X>X>X>X>X>X>X>X>X>X>X>X>X>X>X>X,.Y >X>X>X>X>X+.>X>X",
"q.4.>X>X>X>X>X>X>X>X>X>Xl D >X>X>X>X>X>X>X>X>X>X>X>X>X>X>X>X>X>X-.XX.X>X>X>X>X>X>X>X>X>X>X- >X>X>X>X>X>X>X>X>X>X>X>X>XT.~.>X>X>X",
" X>X>X>X>X>X>X>X>X>X>X^ F.>X>X>X>X>X>X>X>X>X>X>X>X>X>X>X>X>X>X>.;X&X#.>X>X>X>X>X>X>X>X>X[ >X>X>X>X>X>X>X>X>X>X>X>X>XW.+X>X>X>Xf.",
">X>X>X>X>X>X>X>X>X& `  X>X>X>X>X>X>X>X>X>X>X>X>X>X>X>X>X>X>X_ +X+X>X>X>X>X>X>X>X>X>X>X! >X>X>X>X>X>X>X>X>X>X>X>X>X>XQ.0.>X>Xt.*X",
">X>X>X>X>X>X>X>X>X;.-.>X>X>X>X>X>X>X>Xk >X>X>X>X>X>X>X>X>XO.3.|.$.>X>X>X>X>X>X>X>X>X2.>X>X>X>X>X>X>X>X>X>X>Xo >X>X>X>X>X>Xx A.h.",
">X>X>X>X>X>X>Xr ;.' >X>X>X>X>X>X>X>X[ >X>X>X>X>X>X>X>X>X{ M ( p >X>X>X>X>X>X>X>XF.{.>X>Xd >X>X>X>X>X>X>X>X9 >X>X>X>X>X>XS >X>X>X",
">X>X>X>X>X>X>X' O.r >X>X>X>X>X>X>X_ >X>X>X>X>X, >X>X>XO.9 >X>X>X>X>X>X>X>X>X>XM.$X>X>Xj.>X>X>X>X>X>X>X>X;.>X>X>X>X>XY.N.>X>X>X>X",
">X>X>X>X>X>Xl.' 3 >X>X>X>X_ >X>XT.>X>X>X>X>X[ N >X>XV._ >X>X>X>X>X>X>X>X>X>X>XK.p.>XK.>X>X>X>X>X>X>X>X*.b >X>X>X>X>X+X>X>X>X>X>X",
">X>X>X>Xw.E.g.M r >X>X>XF >Xd.$X>X>X>X>X>Xo.( >XB..X3.>X) >X>X>X>X>X>X>X>X>X>X>X>X>X>X>X>X>X>X>X>X>X' r >X>X>X>X>X>X>X>X>X>X>X>X",
">X>X>XF.&X^.O.O.>X>XY.B.>X>X+XM.>X>X>X>XD D >XY.-XR.>XF >X>X>X>X>X>XA >X>X>X>X>X>X>X>X>X>X>X>X>X>Xl.{ >X>X>X>X>X>X>X>X>X>X>X>X>X",
">X>XQ.:X{.O.S >X>X[..X>X>Xr >X>X>X>X>Xg._ >XK.:X].U g.>X>X>X>X>X>X~.>X>X>X>X>X>X>X>X>X>X>X>X>Xq.XXg.>X>X>X>X>X>X>X>X>X>X>X>X>X>X",
">X:.;X~.g.4.>X>X>X~.>X>X>X>X>X>X>X>XT.4.>Xa OX`.9..X>X>X>X>X>X>X>X>X>X>X>X>X>X>X>X>X>X>X>X>XS.=X~.>X>X>X>X>X>X>X>X>X>X>X>X>X>X>X",
">Xj.~.G.{.>X>X>X>X>X>X>X>X>X>X  m.@X[.>X>X{ v.:.$X>X>X>X>X>X>X>X>X>X>X>X>X>X>X>X>X>X>X>X>X:.;X!.>X>X>X>X>X>X>X>X>X>X>X>X>X>X>X>X",
"# { Q.=X>X>X>X>X>X>X>X>X>X>X# e.:X+X>X>X>X>X>Xt.r.>X>XP V >X>X>X>X>X>X>X>X>X>X>X>X>X>X>X>Xp.W.>X>X>X>X>X>X>X>X>X>X>X>X>X>X>X>X>X",
"7 =.OXX.>X>X>X>X>X>X>X>X$ @ >X|.oX>X>X>X>X>X>X>X>X>Xi _ >X>X>X>X>X>X>X>X>X>X>X>X>X>X>X>X>XK >X>X>X>X>X>X>X>X>X>X>X& >X>X>X>X>X>X",
"{ ! >X>X>X>X>X>X>X>X>X>X_ >X~ K.} >X>X>X>X>X>X>X>Xj.( >X>X>X9 >X>X>X>X>X>X>X>X>X>X>X>X>X>X>X>X>X>X>X>X>X>X>X>X>X` >X>X>X>X>X>Xk ",
"_ >X>X>X>X>X>X>X>X>XK ;.>X>X0 >X>X_ >X>X>X>X>X>X).R.>X>X>X{ >X>X>X>X>X>X>X>X>X>X>X>X>X>X>X>X>X>X>X>X>X>X>X>X>XB >X>X>X>X>X>X[ V.",
">X>X>X>X>X>X>X>X>Xj { N >X>X>X>X~ _ >X>X>X>X>XK.OX>X>X>X+.>X>X>X>X>X>X>X>X>X>X>X>X>X>X>X>X>X>X>X>X>X>X>X>X>XV.>X>X>X>X>X>Xl.XXo.",
">X>X>X>X>X>X>X>X>XO.3 >X>X>X>X;.z >X>X>X>X>X>Xm.>X>X>X~.>X>X>X>X>X>X>X>X>X>X>X>X>X>X>X>X>X>X>X>X>X>X>X>X>X+X>X>X>XV >X>XB.$XD.>X",
">X>X>X>X>X>X>X&.V.S >X>X>X>XT.@.>X>X>X>X>X>X>X>X>X>X~.>X>X>X>X>X>X>X>X>X>X>X>X>X>X>X>X>X@ >X>X>X>X>X>X>X X>X>X>X~.>Xs.^.$XP.>X>X",
">X>X>X>X>X>XD.@X*.>X>X>X>X%X~.>X>X>X>X>X>X>X>X>X>Xg >X>X>X>X>X>X>X>X>X2 >X>X>X>X>X>X>Xo d >X>X>X>X>X>X6 >X>X>X>X>X>X@X XK.>X>X>X",
">X>X>X>X>X[.-XD.>X>X>X>X X).>X>X>X>X>X>X>X>X>X>Xd >X>X< >X>X>X>X>Xw o.>X>X>X>X>X>X>XZ Z ` >X>X>X>X>X>X>X>X>X>X>X>Xm.t.<.>X>X>X>X",
">X>X>X>XK.:XH.>X>X>X>Xu 0.>X>X>X>X>X>X>X>X>X>X_ [ >X) >X>X>X>X>X> _ >X>X>X>X>X>X>X*.1.O.>X>X>X>X>X>X>X>X>X>X>X>X>X>X>X>X>X>X>X>X",
">X>X>Xi  X_.>X>X>X>X>X>X>X>X>X>X>X>X>X>X>X>Xc V >XB >X>X>X>X@ v 4.>X>X>X>X>X>X>XO.l.E.>X>X>X>X>X>X>X>X>X>X>X>X>X>X>X>X>X>X>X>X>X",
">X>X>X) p.>X>X>X>X>X>X>X>X>X>X>X>X>X>X>X>X4.' >Xg.>X>X>X>Xj j.{.>X>X>X>X>X>X>XO.g. X>X>X>X>X>X>X>X>X>X>X>X>X>X>X>X>X>X>X>X>X>X>X",
">X>X>X>X>X>X>X>X>X>X>X>X>X>X>X>X>X>X>X>X~.Z.v.+X>X>X>X. E K.=X>X>XZ >X>X>X>Xx.Z.u.>X>X>X>X>X>X>X>X>X>X>X>X>X>X>X>X>X>X>X>X>X>X>X",
">X>X>X>X>X>X>X>X= >X>X>X>X>X>X>X>X>X>X+XXXU $X>X>X>XB 0 { ^.9.>X=.>X>X>Xz..XV.C.>X>X>X>X>X>X>X>X>X>X>X>X>X>X>X>X>X>X>X>X>X>X>X>X",
">X>X>X>X>X>X>Xj >X>X>X>X>X>X>X>X>X>Xh.OX>X| p.>X>XZ / O.f >X>X(.>X>X>XQ.&X[.] >X>X>X>X>X>X>X>X>X>X>X>X>X>X>X>X>X>X>X>X>X>X>X>X>X",
">X>X>X>X>X>X~ [ >X>X>X>X>X>X>X>X>X>X,.>X>X>X>X>Xg.l.V.>X>X>X0.>X>X>Xe.;X X>X>X>X>X>X>X>X>X>X>X>X>X>X>X>X>X>X>X>X>X>X>X>X>X>X>X>X",
">X>X>X>X>X' ) >X>X>X>X>X>X>X>X>X>X>X>X>X>X>X>X~.{.@X>X>X>X>X>X>X>X>X~.+X1 >X>X>X>X>X>X>X>X>X>X>X>X>X>X>X>X>X>X>X>X>X>X>X>X>X>X>X",
">X>X>X>X` V >X>X>X>X>X>X>X>X>X>X>X>X>X>X>X>Xl.+X=Xf.>X>X>X>X>XQ >Xc h.i s >X>X>X>X>X>X>X>X>X>X>X>X>X>X>X>X>X>X>X>X>X>X>X>X>X>X>X",
">X>X>Xn.;.>X>X>X>X>X>X>X>X>X>X>X>X>X>X>X>X>X2.=X$.>X>X>X>X>X_ >X>X>X>X/ >X>X>X>X>X>X>X>X>X>X>X: >X>X>X>X>X>X>X>X>X>X>X>X>X>X>X>X",
">XK B.2.>X>X>X>X>X>X>X>X>X>X>X>X>X>X>X>X>X>Xy.} >X>X>X>X>X=.>X>X>X>XV >X>X>X>X>X>X>X>X>X>X>X) >X>X>X>X>X>X>X>X>X>X>X>X>X>X>X>X>X",
"@.XXXX>X>X>X>X>X>X>X>X>X>X@ >X>X>X>X>X>X>X>X>X>X>X>X>XF.E.>X>X>X>Xi.>X>X>X>X>X>X>X>X>X>Xk ) >X>X>X>X>X>X>X>X>X>X>X>X>X>X>X>X>X>X",
";X$X#.>X>X>X>X>X>X>X>X>X` >X>X>X>X>X>X>X>X>X>X>X>X>XH.+X>X>X>Xv..X>X>X>X>X>X>X>X>X>X>X^ F.>X>X>X>X>X>X>X>X>X>X>X>X>X>X>X>X>X>X:.",
"#X>X>X>X>X>X>X>X>X>X>X_ >X>X>X>X>X>X>X>X>X>X>X>X>X>X`.t.>X>Xe.*X>X>X>X>X>X>X>X>X>X>X~  X>X>X>X>X>X>X>X>X>X>X>X>X>X>X>X>X>X>X_  X",
"$.>X>X>X>X>X>X>X>X>X-.>X>X>X>X>X>X>X>X>X>X>XX >X>X>X>X>X>Xj J.h.>X>X>X>X>X>X>X>X>X;.;.>X>X>X>X>X>X>X>Xq >X>X>X>X>X>X>X>X>XO.1. X",
">X>X>X>X>X>X>X>XF.[.>X>X9 >X>X>X>X>X>X>X>X8 >X>X>X>X>X>XS >X>X>X>X>X>X>X>X>X>Xw ;.` >X>X>X>X>X>X>X>X' >X>X>X>X>Xo >X>X>X{ N [ t ",
">X>X>X>X>X>X>XA.$X>X>Xu.>X>X>X>X>X>X>X>X*.>X>X>X>X>XL.C.>X>X>X>X>X>X>X>X>X>X>X_ O.>X>X>X>X>X4 >X>X) >X>X>X>X>X, >X>X>XO.d >X>X>X",
">X>X>X>X>X>X>XQ.9.>XD.>X>X>X>X>X>X>X>XO.N >X>X>X>Xh.}.>X>X>X>X>X>X>X>X>X>X>Xl.' 2 >X>X>X>X{ >X>XD.P >X>X>X>X[ D >X>XV.{ >X>X>X>X",
">X>X>X5 >X>X>X>X>X>X>X>X>X>X>X>X>X>X_ j >X>X>X>X>XJ >X>X>X>X>X>X>X>X>X>Xu.E.g.x 0 >X>X>XD >X>X@XC.>X>X>X>X[ / >XV..X4.>X` >X>X>X",
">X>XA >X>X>X>X>X>X>X>X>X>X>X>X>X>Xl.' >X>X>X>X>X>X>X>X>X>X>X>X>X>X>X>XB.&X/.O.[ >X>XN.k.>X>X XK.>X>X>X>XD D >XY.-X~.>X_ >X>X>X>X",
">X~.>X>X>X>X>X>X>X>X>X>X>X>X>Xq..Xg.>X>X>X>X>X>X>X>X>X>X>X>X>X>X>X>XJ.:X{.O.D >X>XQ.+X>X>Xe $.>X>X>X>X2.{ >XJ.;X}.P 5.>X>X>X>X>X",
">X>X>X>X>X>X>X>X>X>X>X>X>X>XS.&X!.>X>X>X>X>X>X>X>X>X>X>X>X>X>X>X>X[ ;X[.4.4.>X>X>XQ.>X>X>X>X>X>X>X>XF.g.>Xp |.|.X..X>X>X>X>X>X>X",
">X>X>X>X>X>X>X>X>X>X>X>X>XR ;X`.>X>X>X>X>X>X>X>X>X>X>X>X>X>X>X>X. j.`.K.{.>X>X>X>X>X>X>X>X>X>X>Xt.XX.X>X>X{ n.@.$X>X>X>X>X>X>X>X",
">X>X>X>X>X>X>X>X>X>X>X>X>Xj._.>X>X>X>X>X>X>X>X>X>X>X>X>X>X>X>X>X% { T.=Xf.>X>X>X>X>X>X>X>X>X+ 9.=X$X>X>X>X>X>Xt.7.>X>X>XD >X>X>X",
">X>X>X>X>X>X>X>X>X>X>X>X>XI >X>X>X>X>X>X>X>X>X>X>X>X>X>X>X>X>X>X8 O.OXe.>X>X>X>X>X>X>X>X>XO >X`.%X>X>X>X>X>X>X>X>X>Xm ' >X>X>X>X",
">X>X>X>X>X>X>X>X>X>X>X>X>X>X>X>X>X>X>X>X>X>X>X>X) >X>X>X>X>X>Xr { _ T >X>X>X>X>X>X>X>X>X_ >XB T.$.>Xo >X>X>X>X>X>Xu.{ >X>X>X2 >X",
">X>X>X>X>X>X>X>X>X>X>X>X>X>X>X>X>X>X>X>X>X>X>XB >X>X>X>X>X>X[ V.! >X>X>X>X>X>X>X>X>X>X=.>X>Xq >X>X_ >X>X>X>X>X>X XE.>X>X>X_ >X>X",
">X>X>X>X>X>X>X>X>X>X>X>X>X>X>X>X>X>X>X>X>X>Xl.>X>X>X>X>X>Xk..X;.>X>X>X>X>X>X>X>X>X5 { m >X>X>X>XV _ >X>X>X>X>XJ.+X>X>X>Xo.>X>X>X",
">X>X>X>X>X>X>X>X>X>X>X>X>X>X>X>X>X>X>X>X>X@X>X>X>X) >X>XV.$XD.>X>X>X>X>X>X>X>X>X>XO.g >X>X>X>X+.c >X>X>X>X>X>Xh.>X>X>XR.>X>X>X>X",
">X>X>X>X>X>X>X>X>X>X>X>X>X>X>X>X>X>X>X>X X>X>X>X^.>X7.^.+XL.>X>X>X>X>X>X>X>X>X^ V._ >X>X>X>XT...>X>X>X>X>X>X>X>X>X>X~.>X>X>X>X>X",
">X>X>X, >X>X>X>X>X>X>X- d >X>X>X>X>X>Xe >X>X>X>X>X>X@X XK.>X>X>X>X>X>X>X>X>XF.XX;.>X>X>X>X%XR.>X>X>X>X>X>X>X>X>X>X, ^ >X>X>X>X>X",
">Xy [ >X>X>X>X>X>X>Xc l ` >X>X>X>X>X>X>X>X>X>X>X>XS.y.0.>X>X>X>X>X>X>X>X>X(.-XG.>X>X>X>X X`.>X>X>X>X>X>X>X>X>X>X5 >X>X< >X>X>X>X",
"> D >X>X>X>X>X>X>X*.;.O.>X>X>X>X>X>X>X>X>X>X>X>X>X>X>X>X>X>X>X>X>X>X>X>XS.:XI.>X>X>X>Xp w.>X>X>X>X>X>X>X>X>X>X~ ' >X_ >X>X>X>X>X",
"3.>X>X>X>X>X>X>XO.j.E.>X>X>X>X>X>X>X>X>X>X>X>X>X>X>X>X>X>X>X>X>X>X>X>Xu  X`.>X>X>X>X>X>X>X>X>X>X>X>X>X>X>X>Xl ] >XZ >X>X>X>X. 7 "
};
