/* XPM */
static char *trees[] = {
/* columns rows colors chars-per-pixel */
"64 64 163 2 ",
"   c None",
".  c #000000",
"X  c #080000",
"o  c #000800",
"O  c #080800",
"+  c #100100",
"@  c #110800",
"#  c #1C0800",
"$  c #001000",
"%  c #081000",
"&  c #011900",
"*  c #081800",
"=  c #101000",
"-  c #181000",
";  c #101800",
":  c #181800",
">  c #180315",
",  c #220200",
"<  c #290F00",
"1  c #29090A",
"2  c #380C00",
"3  c #211000",
"4  c #2F1100",
"5  c #221800",
"6  c #2B1B00",
"7  c #381800",
"8  c #002100",
"9  c #082100",
"0  c #022A00",
"q  c #082900",
"w  c #102100",
"e  c #182100",
"r  c #142B00",
"t  c #182900",
"y  c #122C0D",
"u  c #083100",
"i  c #003900",
"p  c #083900",
"a  c #103100",
"s  c #183100",
"d  c #113A00",
"f  c #183900",
"g  c #13310D",
"h  c #212100",
"j  c #2A2100",
"k  c #212B00",
"l  c #2C2C00",
"z  c #342100",
"x  c #352900",
"c  c #213100",
"v  c #213A00",
"b  c #2C3B00",
"n  c #363300",
"m  c #343900",
"M  c #3F3900",
"N  c #3D003D",
"B  c #253F22",
"V  c #481500",
"C  c #461800",
"Z  c #4F1800",
"A  c #5F1800",
"S  c #710800",
"D  c #462300",
"F  c #432C00",
"G  c #5D2500",
"H  c #413A00",
"J  c #642E00",
"K  c #722500",
"L  c #732509",
"P  c #743700",
"I  c #76370B",
"U  c #064000",
"Y  c #104200",
"T  c #184200",
"R  c #114B00",
"E  c #184A00",
"W  c #105200",
"Q  c #214200",
"!  c #234B00",
"~  c #294D00",
"^  c #3C4600",
"/  c #334B00",
"(  c #394B00",
")  c #215200",
"_  c #235900",
"`  c #2F5D00",
"'  c #315200",
"]  c #3D5200",
"[  c #345F00",
"{  c #375F0D",
"}  c #186500",
"|  c #216300",
" . c #276B00",
".. c #396C00",
"X. c #257300",
"o. c #367000",
"O. c #464200",
"+. c #414C00",
"@. c #435300",
"#. c #445A00",
"$. c #4F5800",
"%. c #575200",
"&. c #545A00",
"*. c #6A4700",
"=. c #446200",
"-. c #446D00",
";. c #456208",
":. c #516D00",
">. c #567E00",
",. c #5E7F00",
"<. c #636500",
"1. c #6B6B00",
"2. c #6D7700",
"3. c #470047",
"4. c #7A1754",
"5. c #690568",
"6. c #822E00",
"7. c #932000",
"8. c #883100",
"9. c #843105",
"0. c #8A3117",
"q. c #B23400",
"w. c #FF3100",
"e. c #8B4000",
"r. c #8E5C00",
"t. c #915D00",
"y. c #8C4016",
"u. c #A74400",
"i. c #A44B00",
"p. c #887900",
"a. c #BA7600",
"s. c #CB6A00",
"d. c #CC6923",
"f. c #9A2E59",
"g. c #BA3251",
"h. c #FF2E5B",
"j. c #D06653",
"k. c #368700",
"l. c #378A00",
"z. c #3B8A01",
"x. c #329C00",
"c. c #4F8E00",
"v. c #5D8200",
"b. c #5F9000",
"n. c #5B9D00",
"m. c #6E8900",
"M. c #7C8100",
"N. c #6D9400",
"B. c #45A800",
"V. c #5DA000",
"C. c #43BA00",
"Z. c #76C500",
"A. c #838D00",
"S. c #918100",
"D. c #979C00",
"F. c #99AE00",
"G. c #83B500",
"H. c #B8A700",
"J. c #A7B500",
"K. c #ABB900",
"L. c #A9B600",
"P. c #C5B000",
"I. c #9FCE00",
/* pixels */
"                          c.                                                              c.                                    ",
"                        = D h                                                           = D h                                   ",
"                      X ; ; 1.                                                        X ; ; 1.                                  ",
"                      O D.l 1.                                                        O D.l 1.                                  ",
"                      / ; D.  K.                                                      / ; D.  K.                                ",
"                      % . n   1.                                                      % . n   1.                                ",
"                    o % : 2.6   %                                                   o % : 2.6   %                               ",
"                    O O  .6 @.%                                                     O O  .6 @.%                                 ",
"                    o ~ $ = : * #.S.                                                o ~ $ = : * #.S.                            ",
"                      ) $ = : % ] S.                                                  ) $ = : % ] S.                            ",
"                    $ % . u ; D.~ 1.                                                $ % . u ; D.~ 1.                            ",
"                    w e O ] >.e H m                                                 w e O ] >.e H m                             ",
"              % * . * . e . ' =.%                 ; <.P.                      % * . * . e . ' =.%                 ; <.P.        ",
"          @     O   & . N.5 b %.%             .   &.,.]                   @     O   & . N.5 b %.%             .   &.,.]         ",
"          O     O % o 8 l :.e % *   &.        $ W | 6 9 ,.                O     O % o 8 l :.e % *   &.        $ W | 6 9 ,.      ",
"      @ . w <.  . % o Q ; o.# *   / >.          $ [ ] Z.R       c.    @ . w <.  . % o Q ; o.# *   / >.          $ [ ] Z.R       ",
"        o &.m.%   o . :.O &.% *   k G.          u % 9 I.#.    = D h     o &.m.%   o . :.O &.% *   k G.          u % 9 I.#.      ",
"        $ [ ] %   w o [ O ; * D.l 2.=.l     X * ~ o 9 t     X ; ; 1.    $ [ ] %   w o [ O ; * D.l 2.=.l     X * ~ o 9 t         ",
"        u % 9 K.  [ ; * <.: % z A.] w O       % k V.c.f     O D.l 1.    u % 9 K.  [ ; * <.: % z A.] w O       % k V.c.f         ",
"    . . ~ o 9 d   >.9 X.; . c O l $ V.    @   o $ D.k  .~ l./ ; D.  J.. ~ o 9 d   >.9 X.; . c O l $ V.    @   o $ D.k  .~ l.    ",
"      = m.9 C.    R O / ] . l./ K.,.n 1.  . . 8 o t $ K.P >.% . n   1.= m.9 C.    R O / ] . l./ K.,.n 1.  . . 8 o t $ K.P >.    ",
"      0 6 V.>.Y   T % O * . <.O.o l G.4   @ o & . l.% b.+.o % : 2.6   % 6 V.>.Y   T % O * . <.O.o l G.4   @ o & . l.% b.+.G     ",
"    % * $ D.k X.~ l.. ; [ ; i.e ; F.P.    = ! o o B.9 * ; O O  .6 @.% * $ D.k X.~ l.. ; [ ; i.e ; F.P.    = ! o o B.9 * ; t.    ",
"  @ o o . l.$ b.t 9 ~ t x w o &.H o.A.# .   . . % O * % ; o ~ $ = : * #.p.l.$ b.t 9 ~ t x w o &.H o.A.# .   . . % O * % ;       ",
"  , ! 9 o B.9 * ; w z l.. . . ] @.t.        . o t . * s o.  ) $ = : % ] p.B.9 * ; w z l.. . . ] @.t.        . o t . * s o.      ",
"  -   9 o B.9 ; ; w z o.. . . =.%.8.        . o t . * s o.$ % . u ; D.~ <.B.9 ; ; w z o.. . . =.%.8.        . o t . * s o._     ",
"  X O O o / x.& % f O % . . $ F.6 / x A..   o $ O % l.w E w e O ] >.e M m / x.& % f O % . . $ F.6 / x A..   o $ O % l.w E v     ",
"  O . . = O * % ; } o o . . l.< @ [       . Y ; . V.% * . * . e . ' =.% = O * % ; } o o ; <.H.< @ [       . Y ; . V.w =.a /     ",
"    . . t . * s o.~ b ; o . q O : %       o * O @ A.* O E & . N.5 b %.% t . * s o.~ . ; &.,.] O : %       o * O o A.* :.E       ",
"  o Y $ . V.w =.u / ~ . s :.o % =.* .     = ; v O c ~ O % o 8 l :.e % * . &.w =.u / $ W | j 9 ,.=.* .     = ; v % c ~ ; a d     ",
"  $ . . o A.* :.E % d ; A.= . 5 K k B.    . @ . w <.= . % o Q ; o.# * . / >.* :.E % d $ ..] Z.R K k B.    . o . . v = w /  .    ",
"o =   $ % c ~ ; a Y ~ . j . O % 5 X H     . 0 o &.m.% N.o . :.O &.% * $ k G.~ ; a Y ~ u % 9 I.] 5 X H     . 0 o . % . N.* q     ",
"o & . . . l.O 9 % d d . O . s.% % <       . o $ [ ] % = w o [ O ; * D.l 2.=.l 9 % X * ~ o 9 l % % <       . o v = o.. = $ 9 v   ",
"    o . . v = ; / } t   . . %     *     o . . u % 9 J.* [ ; * <.: % z A.] w O ; / } % k n.c.f     *     o . . F %.% . * : c V.  ",
"    0 o . % . N.* r     . . *           . . . ~ o 9 d c.v.9 X.; . c O l $ n.. N.@ r o $ D.k  .~ z.      .   .     . . c.K.A.;   ",
". . . X %.% . * : c     l o *.6           > = m.9 C.. . R O ( ] . l./ J.,.n <.* . . 8 o t $ L.P >.        . . O ] . . . = <.P   ",
"    . . O . . % F.h o 8 % o w.  J H n x r . 0 6 n.>.Y . T % O * . <.O.o l G.< % @ o & . k.% b.+.G H n x r . . . . . . . h ;     ",
"    . . ] . . . = :.w % % q.<   p K t D @ % * $ D.k X.~ z.. ; [ ; i.: ; F.H.* . = ! o o B.9 * ; r.K t D @ o . . .   . + D.@     ",
"  o . . O . . . . d P 8.C s.7   C ` K 8.@ o o . k.$ b.r 9 ~ t x w o $.M o.A.@ . . . . % O * % ; C ` K 8.    * . . . . . 5 ,     ",
"o .   . . . . + D.+ 8.8.K ^ 8.7.7 -.u.  1 ! 9 o B.9 * ; w z l.. . . ] @.r.% . + D.. o t . * s ..7 -.u.    . X +   . . . .       ",
"<     . . . . . 5 #     < @ ` U K 8.    -   9 o B.9 ; ; w z o.. . . ;.%.6.% N . 5 . o t . * s o._ 8.              o e.          ",
"  q = . . . . . 5 #     < @ @.R K 8.    X O O o / x.e % f O % . . $ F.6 / x M.. 5 o $ O % k.w E b 8.              o e.          ",
"      .   . . . .                     u O . . = O * % ; } o o . . l.1 @ { . . . . Y ; . V.w =.a /     u 8 C z     o u.          ",
"          . @                     7 J y 8 . . t . * s ..~ b ; o . q O : % > 5.  o * O o A.* :.E   7 J q 8 7 0 3 2 . 6.7.K       ",
"          X A                   S _ U g o Y $ . n.w =.u ( / . s :.o % =.* . 4.  = ; v % c ~ ; a d _ U u C q i V 0 O K ` 7.u.a.  ",
"          X s.                        B $ Z . o A.* :.E % d ; A.= . 5 K k B.d.  . o . . v = w /  .    U R K u.7 ` . -.K ^       ",
"        X X s.q.                      o = f.$ % c ~ ; a Y ~ . j . O % 5 X M j.g.. 0 o . % . N.* q       _ 8.8.8.-.7 ` a.        ",
"        X . e.w.                      o & . . . z.O 9 % d d . O . s.% % < 3.y.h.. o v = o.. = $ 9 v           8.K K 8.          ",
"          @ 8.                            o . . v = ; / } t   . . %     * > 0.o . . F %.% . * : c V.                          ( ",
"                                          0 o . % . N.* r     . . *           .   .     . . c.K.A.;                             ",
"                                      . . . X %.% . * : c     l o *.6           . . O ] . . . = <.P                             ",
"                                          . . O . . % F.h o 8 % o w.  J H n x r . . . . . . . h ;                               ",
"                                          . . ] . . . = :.w % % q.<   p K t D @ o . . .   . + D.@                               ",
"                                        o . . O . . . . d I 8.C s.7   C ` K 8.    * . . . . . 5 ,                               ",
"                                      o .   . . . . + D.+ 8.0.L ^ 8.7.7 -.u.    . X +   . . . .                                 ",
"                                      <     . . . . . 5 #     < @ ` U K 8.              o e.                                    ",
"                                        q = . . . . . 5 #     < @ @.R K 8.              o e.                                    ",
"                                            .   . . . .                     u 8 C z     o u.                                    ",
"                                                . @                     7 J q 8 7 0 3 2 . 6.7.K                                 ",
"                                                X A                   S _ U u C q i V 0 O K ` 7.u.a.                            ",
"                                                X s.                        U R K u.7 ` . -.K ^                                 ",
"                                              X X s.q.                        _ 8.8.8.-.7 ` a.                                  ",
"                                              X . e.w.                              8.K K 8.                                    ",
"                                                @ 8.                                                (                           "
};
