/* XPM */
static char *result[] = {
/* columns rows colors chars-per-pixel */
"64 64 206 2 ",
"   c #110F10",
".  c #271F1A",
"X  c #2A2318",
"o  c #332516",
"O  c #252422",
"+  c #2C2929",
"@  c #3B3329",
"#  c #3B3836",
"$  c #433C2F",
"%  c #433C37",
"&  c #5B462D",
"*  c #4D4438",
"=  c #554D3C",
"-  c #554B3C",
";  c #59513E",
":  c #675539",
">  c #7A5D35",
",  c #7B623D",
"<  c #3C3B4B",
"1  c #393843",
"2  c #3F3E50",
"3  c #403F4E",
"4  c #464445",
"5  c #4B4A49",
"6  c #534F4F",
"7  c #5C5343",
"8  c #595348",
"9  c #4B4956",
"0  c #514F50",
"q  c #54535C",
"w  c #5D5B5C",
"e  c #595755",
"r  c #655D4B",
"t  c #635845",
"y  c #605E5D",
"u  c #715D45",
"i  c #6A614D",
"p  c #796F4F",
"a  c #6D6654",
"s  c #68635D",
"d  c #756C5A",
"f  c #7E735C",
"g  c #5E5B69",
"h  c #615F72",
"j  c #6C6965",
"k  c #6D6B6A",
"l  c #666466",
"z  c #777168",
"x  c #646373",
"c  c #6B6878",
"v  c #716F74",
"b  c #787673",
"n  c #7B7876",
"m  c #7D7B79",
"M  c #777676",
"N  c #936D3A",
"B  c #877559",
"V  c #99734B",
"C  c #A47E49",
"Z  c #837A64",
"A  c #857B6C",
"S  c #867C65",
"D  c #827E7D",
"F  c #AF853C",
"G  c #E2B93C",
"H  c #9C8551",
"J  c #BC924A",
"K  c #A88A5C",
"L  c #8D8167",
"P  c #91856C",
"I  c #998868",
"U  c #87837B",
"Y  c #958B73",
"T  c #9A8D74",
"R  c #918673",
"E  c #9D917B",
"W  c #9E9072",
"Q  c #B59B6A",
"!  c #A19273",
"~  c #A2957A",
"^  c #A7936F",
"/  c #B8A779",
"(  c #D1A751",
")  c #D8B76D",
"_  c #DEBF7D",
"`  c #C5B17A",
"'  c #F6CF5C",
"]  c #EDCD73",
"[  c #7E7C8C",
"{  c #7A7884",
"}  c #817F89",
"|  c #817F90",
" . c #868382",
".. c #898583",
"X. c #8E8A8A",
"o. c #8A8688",
"O. c #918D8C",
"+. c #918A85",
"@. c #9D9383",
"#. c #95928E",
"$. c #9A968F",
"%. c #8C8A9A",
"&. c #8A8793",
"*. c #918D94",
"=. c #918E99",
"-. c #9B9694",
";. c #9D9995",
":. c #96929D",
">. c #9E9B99",
",. c #969293",
"<. c #A39A8B",
"1. c #A99D81",
"2. c #A39D9C",
"3. c #A49B99",
"4. c #ADA185",
"5. c #AAA289",
"6. c #B2A489",
"7. c #B8A889",
"8. c #BCB38E",
"9. c #A5A29D",
"0. c #ABA79C",
"q. c #B5AA96",
"w. c #BDB398",
"e. c #948FA2",
"r. c #9996A3",
"t. c #9E9BAA",
"y. c #9995A3",
"u. c #A39DA8",
"i. c #A7A3A3",
"p. c #AAA5A2",
"a. c #ADAAA6",
"s. c #ADABAB",
"d. c #A9A4AB",
"f. c #B1ADAB",
"g. c #B6A9A6",
"h. c #B5B2AD",
"j. c #BBB4A6",
"k. c #ADAAB4",
"l. c #ACA9B7",
"z. c #B3ABB3",
"x. c #B5B1B3",
"c. c #BBB5B3",
"v. c #BEBAB5",
"b. c #B7B4BD",
"n. c #BAB6BA",
"m. c #BEBBBC",
"M. c #C1AE83",
"N. c #C4B694",
"B. c #CCBE9C",
"V. c #DABF9D",
"C. c #C7BCA5",
"Z. c #C3BEBB",
"A. c #CEC09F",
"S. c #ECD497",
"D. c #FBE499",
"F. c #D4C5A3",
"G. c #DACAA4",
"H. c #C4C1BC",
"J. c #C8C3BF",
"K. c #D5CAAF",
"L. c #E7D9B5",
"P. c #E2D5AB",
"I. c #EDE3BF",
"U. c #F9E8BD",
"Y. c #F3E5A6",
"T. c #B9B5C2",
"R. c #BBB7C3",
"E. c #C3BDC3",
"W. c #C7C4C1",
"Q. c #CAC5C2",
"!. c #CDCAC4",
"~. c #CAC6CA",
"^. c #D2CDCB",
"/. c #D6CDC5",
"(. c #D5D2CD",
"). c #D9D4CE",
"_. c #CAC6D3",
"`. c #D3CED2",
"'. c #D5D2D5",
"]. c #DAD6D1",
"[. c #DDDAD5",
"{. c #D5D2DC",
"}. c #DAD5DB",
"|. c #DED9D9",
" X c #E3DDDC",
".X c #E1DBD6",
"XX c #E8DDC6",
"oX c #E5E1DD",
"OX c #E8E0DA",
"+X c #F4EACC",
"@X c #DEDBE2",
"#X c #E3DDE2",
"$X c #E5E2E4",
"%X c #EBE5E3",
"&X c #EDE9E5",
"*X c #EAE5EA",
"=X c #E9E6ED",
"-X c #F2ECEB",
";X c #F4F0ED",
":X c #F0EBF2",
">X c #F6F4F4",
",X c #F9F6F5",
"<X c #FCFAFC",
"1X c #FBF7FC",
"2X c #EDEAF1",
"3X c None",
/* pixels */
"3X3X3X3X3X3X3X3X3X3X3X3X3X3X3X3X3X3X3X3X3X3X3X3X3X3X3X3X3X3X3X3X3X3X3X3X3X3X3X3X3X3X3X3X3X3X3X3X3X3X3X3X3X3X3X3X3X3X3X3X3X3X3X3X",
"3X3X3X3X3X3X3X3X3X3X3X3X3X3X3X3X3X3X3X3X3X3X3X3X3X3X3X3X3X3X3X3X3X3X3X3X3X3X3X3X3X3X3X3X3X3X3X3X3X3X3X3X3X3X3X3X3X3X3X3X3X3X3X3X",
"3X3X3X3X3X3X3X3X3X3X3X3X3X3X3X3X3X3X3X3X3X3X3X3X3X3X3X3X3X3X3X3X3X3X3X3X3X3X3X3X3X3X3X3X3X3X3X3X3X3X3X3X3X3X3X3X3X3X3X3X3X3X3X3X",
"3X3X3X3X3X3X3X3X3X3X3X3X3X3X3X3X3X3X3X3X3X3X3X3X3X3X3X3X3X3X3X3X3X3X3X3X3X3X3X3X3X3X3X3X3X3X3X3X3X3X3X3X3X3X3X3X3X3X3X3X3X3X3X3X",
"3X3X3X3X3X3X3X3X3X3X3X3X3X3X3X3X3X3X3X3X3X3X3X3X3X3X3X3X3X3X3X3X3X3X3X3X3X3X3X3X3X3X3X3X3X3X3X3X3X3X3X3X3X3X3X3X3X3X3X3X3X3X3X3X",
"3X3X3X3X3X3X3X3X3X3X3X3X3X3X3X3X3X3X3X3X3X3X3X3X3X3X3X3X3X3X3X3X3X3X3X3X3X3X3X3X3X3X3X3X3X3X3X3X3X3X3X3X3X3X3X3X3X3X3X3X3X3X3X3X",
"3X3X3X3X3X3X3X3X3X3X3X3X3X3X3X3X3X3X3X3X3X3X3X3X3X3X3X3X3X3X3X3X3X3X3X3X3X3X3X3X3X3X3X3X3X3X3X3X3X3X3X3X3X3X3X3X3X3X3X3X3X3X3X3X",
"3X3X3X3X3X3X3X3X3X3X3X3X3X3X3X3X3X3X3X3X3X3X3X3X3X3X3X3X3X3X3X3X3X3X3X3X3X3X3X3X3X3X3X3X3X3X3X3X3X3X3X3X3X3X3X3X3X3X3X3X3X3X3X3X",
"3X3X3X3X3X3X3X3X3X3X3X3X3X3X3X3X3X3X3X3X3X3X3X3X3X( 3X3X3X3X3X3X3X3X3X3X3X3X3X3X3X3X3X3X3X3X3X3X3X3X3X3X3X3X3X3X3X3X3X3X3X3X3X3X",
"3X3X3X3X3X3X3X3X3X3X3X3X3X3X3X3X3X3X3X3X3X3X3X3X3XD.D.3X3X3X3X3X3X3X3X3X3X3X3X3X3X3X3X3X3X3X3X3X3X3X3X3X3X3X3X3X3X3X3X3X3X3X3X3X",
"3X3X3X3X3X3X3X3X3X3X3X3X3X3X3X3X3X3X3X3X3X3X3X3X3X] ] 3X3X3X3X3X3X3X3X3X3X3X3X3X3X3X3X3X3X3X3X3X3X3X3X3X3X3X3X3X3X3X3X3X3X3X3X3X",
"3X3X3X3X3X3X3X3X3X3X3X3X3X3X3X3X3X3X3X3X3X3X3X3X3X] U.3X3X3X3X3X3X3X3X3X3X3X3X3X3X3X3X3X3X3X3X3X3X3X3X3X3X3X3X3X3X3X3X3X3X3X3X3X",
"3X3X3X3X3X3X3X3X3X3X3X3X3X3X3X3X3X3X3X3X3X3X3X3X3X_ G.3X3X3X3X3X3X3X3X3X3X3X3X3X3X3X3X3X3X3X3X3X3X3X3X3X3X3X3X3X3X3X3X3X3X3X3X3X",
"3X3X3X3X3X3X3X3X3X3X3X3X3X3X3X3X3X3X3X3X3X3X3X3X3X( ' 3X3X3X3X3X3X3X3X3X3X3X3X3X3X3X3X3X3X3X3X3X3X3X3X3X3X3X3X3X3X3X3X3X3X3X3X3X",
"3X3X3X3X3X3X3X3X3X3X3X3X3X3X3X3X3X3X3X3X3X3X3X3X3XJ ( 3X3X3X3X3X3X3X3X3X3X3X3X3X3X3X3X3X3X3X3X3X3X3X3X3X3X3X3X3X3X3X3X3X3X3X3X3X",
"3X3X3X3X3X3X3X3X3X3X3X3X3X3X3X3X3X3X3X3X3X3X3X3X3X3X_ D.3X3X3X3X3X3X3X3X3X3X3X3X3X3X3X3X3X3X3X3X3X3X3X3X3X3X3X3X3X3X3X3X3X3X3X3X",
"3X3X3X3X3X3X3X3X3X3X3X3X3X3X3X3X3X3X3X3X3X3X3X3X3X3XV.K.3X3X3X3X3X3X3X3X3X3X3X3X3X3X3X3X3X3X3X3X3X3X3X3X3X3X3X3X3X3X3X3X3X3X3X3X",
"3X3X3X3X3X3X3X3X3X3X3X3X3X3X3X3X3X3X3X3X3X3X3X3X3X3XJ G 3X3X3X3X3X3X3X3X3X3X3X3X3X3X3X3X3X3X3X3X3X3X3X3X3X3X3X3X3X3X3X3X3X3X3X3X",
"3X3X3X3X3X3X3X3X3X3X3X3X3X3X3X3X3X3X3X3X3X3X3X3X3X3X` V 3X3X3X3X3X3X3X3X3X3X3X3X3X3X3X3X3X3X3X3X3X3X3X3X3X3X3X3X3X3X3X3X3X3X3X3X",
"3X3X3X3X3X3X3X3X3X3X3X3X3X3X3X3X3X3X3X3X3X3X3X3X3X@ C ^ ! Z P 3X3X3X3X3X3X3X3X3X3X3X3X3X3X3X3X3X3X3X3X3X3X3X3X3X3X3X3X3X3X3X3X3X",
"3X3X3X3X3X3X3X3X3X3X3X3X3X3X3X3X3X3X3X3X3X3X3X3XE F.B.N.L.~ A.a 3X3X3X3X3X3X3X3X3X3X3X3X3X3X3X3X3X3X3X3X3X3X3X3X3X3X3X3X3X3X3X3X",
"3X3X3X3X3X3X3X3X3X3X3X3X3X3X3X3X3X3X3X3X3X3X3X3Xd Y W 6.z.<.G.4.r 3X3X3X3X3X3X3X3X3X3X3X3X3X3X3X3X3X3X3X3X3X3X3X3X3X3X3X3X3X3X3X",
"3X3X3X3X3X3X3X3X3X3X3X3X3X3X3X3X3X3X3X3X3X3X3X3X8 k A 3.g.6.C.E B i ; 3X3X3X3X3X3X3X3X3X3X3X3X3X3X3X3X3X3X3X3X3X3X3X3X3X3X3X3X3X",
"3X3X3X3X3X3X3X3X3X3X3X3X3X3X3X3X3X3X3X3X3X3Xj  .3.u.g.z.u.1.F.5.<.~ ; 3X3X3X3X3X3X3X3X3X3X3X3X3X3X3X3X3X3X3X3X3X3X3X3X3X3X3X3X3X",
"3X3X3X3X3X3X3X3X3X3X3X3X3X3X3X3X3X3X3X3XX.a.[.>X#X} f.(.J.C.7.4.N.6.i r 3X3X3X3X3X3X3X3X3X3X3X3X3X3X3X3X3X3X3X3X3X3X3X3X3X3X3X3X",
"3X3X3X3X3X3X3X3X3X3X3X3X3X3X3X3X3X3X3X3Xu.|.>X<X1X,X[.J.).!.<.G.P 1.~ 7 3X3X3X3X3X3X3X3X3X3X3X3X3X3X3X3X3X3X3X3X3X3X3X3X3X3X3X3X",
"3X3X3X3X3X3X3X3X3X3X3X3X3X3X3X3X3X3X3X3Xe.z.i.`.{.@XQ.m.oXoXg.q.6.G.B.B 3X3X3X3X3X3X3X3X3X3X3X3X3X3X3X3X3X3X3X3X3X3X3X3X3X3X3X3X",
"3X3X3X3X3X3X3X3X3X3X3X3X3X3X3X3X3X3X3X3X3XX.a.+.{ :.d.Q.oX&XH.;.L.F.w.= + 3X3X3X3X3X3X3X3X3X3X3X3X3X3X3X3X3X3X3X3X3X3X3X3X3X3X3X",
"3X3X3X3X3X3X3X3X3X3X3X3X3X3X3X3X3X3X3X3X3X@.F.7 3Xx s.].%XoXc.>.w.q.F.f t 3X3X3X3X3X3X3X3X3X3X3X3X3X3X3X3X3X3X3X3X3X3X3X3X3X3X3X",
"3X3X3X3X3X3X3X3X3X3X3X3X3X3X3X3X3X3X3X3XXXZ * X 3X:.[.&X-X[.9.#.A E E z L : 3X3X3X3X3X3X3X3X3X3X3X3X3X3X3X3X3X3X3X3X3X3X3X3X3X3X",
"3X3X3X3X3X3X3X3X3X3X3X3X3X3X3X3X3X3X3X3X3X# $ 3X3Xb.-X>XoX(.>.#.z ~ I i # 8 3X3X3X3X3X3X3X3X3X3X3X3X3X3X3X3X3X3X3X3X3X3X3X3X3X3X",
"3X3X3X3X3X3X3X3X3X3X3X3X3X3X3X3X3X3X3X3X3X3X3X3X&.{.>X;X%X(.9.+.z w.L t * 3X3X3X3X3X3X3X3X3X3X3X3X3X3X3X3X3X3X3X3X3X3X3X3X3X3X3X",
"3X3X3X3X3X3X3X3X3X3X3X3X3X3X3X3X3X3X3X3X3X3X3X3Xt.=X<X&X-X!.9.X.d Y E r L 3X3X3X3X3X3X3X3X3X3X3X3X3X3X3X3X3X3X3X3X3X3X3X3X3X3X3X",
"3X3X3X3X3X3X3X3X3X3X3X3X3X3X3X3X3X3X3X3X3X3X3Xl b.:X;XoX[.H.c.i.z L L 7 7 f 3X3X3X3X3X3X3X3X3X3X3X3X3X3X3X3X3X3X3X3X3X3X3X3X3X3X",
"3X3X3X3X3X3X3X3X3X3X3X3X3X3X3X3X3X3X3X3X3X3Xo.e.m._.oXOXOX(.H.i.M p i a a 3X3X3X3X3X3X3X3X3X3X3X3X3X3X3X3X3X3X3X3X3X3X3X3X3X3X3X",
"3X3X3X3X3X3X3X3X3X3X3X3X3X3X3X3X3X3X3X3X3X{ r.l.W.%X-X-XOX].a.#.M e r = 3X3X3X3X3X3X3X3X3X3X3X3X3X3X3X3X3X3X3X3X3X3X3X3X3X3X3X3X",
"3X3X3X3X3X3X3X3X3X3X3X3X3X3X3X3X3X3X3X3X3Xc %.l.}.,X<X>X!.^.h.#. .v e . o 3X3X3X3X3X3X3X3X3X3X3X3X3X3X3X3X3X3X3X3X3X3X3X3X3X3X3X",
"3X3X3X3X3X3X3X3X3X3X3X3X3X3X3X3X3XX.-.n X.*.&.t.}.1X,X&X%X/.0.#.;.i.O.k 4 3X3X3X3X3X3X3X3X3X3X3X3X3X3X3X3X3X3X3X3X3X3X3X3X3X3X3X",
"3X3X3X3X3X3X3X3X3X3X3X3X3X3X3X3XT. XoXv.!.n.[ r.T. XoX-X Xf...p.!.H.p.>.o.U U j 6 3X,.0 3X3X3X3X3X3X3X3X3X3X3X3X3X3X3X3X3X3X3X3X",
"3X3X3X3X3X3X3X3X3X3X3X3X3X3X3X3X{.=Xd.p.J.H.H.%X>X<X-X Xf...s.`.[.Q.Z.h.p.i.H.H.-.D  .n y e 3X3X3X3X3X3X3X3X3X3X3X3X3X3X3X3X3X3X",
"3X3X3X3X3X3X3X3X3X3X3X3X3X3X3Xt.2X~.D `.^.Z.).-X,X,X].h.U ,.'.[..X X!.Z.c.h.H.OXJ.h.m l b 4 3X3X3X3X3X3X3X3X3X3X3X3X3X3X3X3X3X3X",
"3X3X3X3X3X3X3X3X3X3X3X3X3X3X3XT.1Xj.N.'.p.D } X.u.u.X.g v n.|.oX-X)./.c.c.h.c.J.].!.0.k j n 3X3X3X3X3X3X3X3X3X3X3X3X3X3X3X3X3X3X",
"3X3X3X3X3X3X3X3X3X3X3X3X3X3X3X~.-X<.R ~.q.N.1.3X< 9 3 3 { ~.*X%X`.^.W.c.h.h.h.J.;X!.c.#.q a.y 3X3X3X3X3X3X3X3X3X3X3X3X3X3X3X3X3X",
"3X3X3X3X3X3X3X3X3X3X3X3X3X3X3Xl.}.f.B '.K.L.N.X 3X3X2 9 [ _.{._.^.W.s.h.>.>.h.'.,XH.Q.;.4 x.;.3X3X3X3X3X3X3X3X3X3X3X3X3X3X3X3X3X",
"3X3X3X3X3X3X3X3X3X3X3X3X3X3X3X%.*X+XK }.B.7.M.8.3X3X3X3 h t.R.R.n.s.s.-.X.>.^.&X;Xv.v.#.# *.x.3X3X3X3X3X3X3X3X3X3X3X3X3X3X3X3X3X",
"3X3X3X3X3X3X3X3X3X3X3X3X3X3X3X3X/ Q u n.3.t & 3X3X3X3X3X3 h | %.=.*.o.m  .n.|.&XoXf.f.m O [ W.4 3X3X3X3X3X3X3X3X3X3X3X3X3X3X3X3X",
"3X3X3X3X3X3X3X3X3X3X3X3X3X3X3X3Xt : 3XZ.;XM.V 3X3X3X3X3X3X3X< 9 g h g e k.$X*X,X[.p.9.e   3X}.s 3X3X3X3X3X3X3X3X3X3X3X3X3X3X3X3X",
"3X3X3X3X3X3X3X3X3X3X3X3X3X3X3X3X3X3X3XQ U.XX> 3X3X3X3X3X3X3X3X3XO 1 1 0 :.>X<X>XH.>.n +   3X$Xl 3X3X3X3X3X3X3X3X3X3X3X3X3X3X3X3X",
"3X3X3X3X3X3X3X3X3X3X3X3X3X3X3X3X3X3X3X& / p 3X3X3X3X3X3X3X3X3X3X3X< q 9 M *X>X Xx.U 0 + 3X3X*Xe 3X3X3X3X3X3X3X3X3X3X3X3X3X3X3X3X",
"3X3X3X3X3X3X3X3X3X3X3X3X3X3X3X3X3X3X3X3X: 3X3X3X3X3X3X3X3X3X3X3X3X3Xx h g _.1X(.>.y # 3X3X3X*Xs 3X3X3X3X3X3X3X3X3X3X3X3X3X3X3X3X",
"3X3X3X3X3X3X3X3X3X3X3X3X3X3X3X3X3X3X3X3X3X3X3X3X3X3X3X3X3X3X3X3X3X3Xx %.{ [ }.W.>.n O 3X3X3X$X5 3X3X3X3X3X3X3X3X3X3X3X3X3X3X3X3X",
"3X3X3X3X3X3X3X3X3X3X3X3X3X3X3X3X3X3X3X3X3X3X3X3X3X3X3X3X3X3X3X3X3X3X3Xe.R.D %.k.2.j 3X3X3X3X`.3X3X3X3X3X3X3X3X3X3X3X3X3X3X3X3X3X",
"3X3X3X3X3X3X3X3X3X3X3X3X3X3X3X3X3X3X3X3X3X3X3X3X3X3X3X3X3X3X3X3X3X3X3X%.}.E.w &.,.b # 3X3Xp.$.3X3X3X3X3X3X3X3X3X3X3X3X3X3X3X3X3X",
"3X3X3X3X3X3X3X3X3X3X3X3X3X3X3X3X3X3X3X3X3X3X3X3X3X3X3X3X3X3X3X3X3X3X3X%._.'.j 9 t.9.j S B a - 3X3X3X3X3X3X3X3X3X3X3X3X3X3X3X3X3X",
"3X3X3X3X3X3X3X3X3X3X3X3X3X3X3X3X3X3X3X3X3X3X3X3X3X3X3X3X3X3X3X3X3X3X3XR.=Xn.4 3X&.W.0.7.f W @ 3X3X3X3X3X3X3X3X3X3X3X3X3X3X3X3X3X",
"3X3X3X3X3X3X3X3X3X3X3X3X3X3X3X3X3X3X3X3X3X3X3X3X3X3X3X3X3X3X3X3X3X3Xr.:X#X..3X3Xx n.T W P = 3X3X3X3X3X3X3X3X3X3X3X3X3X3X3X3X3X3X",
"3X3X3X3X3X3X3X3X3X3X3X3X3X3X3X3X3X3X3X3X3X3X3X3X3X3X3X3X3X3X3X3X3Xc {.,XW.w 3X3Xa @.T L i $ 3X3X3X3X3X3X3X3X3X3X3X3X3X3X3X3X3X3X",
"3X3X3X3X3X3X3X3X3X3X3X3X3X3X3X3X3X3X3X3X3X3X3X3X3X3X3X3X3X3X3X3X3Xd.1X%Xj.Z 3X3X:.k.s ; O 3X3X3X3X3X3X3X3X3X3X3X3X3X3X3X3X3X3X3X",
"3X3X3X3X3X3X3X3X3X3X3X3X3X3X3X3X3X3X3X3X3X3X3X3X3X3X3X3X3X3X3X3X3X}.-Xj.B.! 3X3Xl.}.6.L @ 3X3X3X3X3X3X3X3X3X3X3X3X3X3X3X3X3X3X3X",
"3X3X3X3X3X3X3X3X3X3X3X3X3X3X3X3X3X3X3X3X3X3X3X3X3X3X3X3X3X3X3XF 7././.T * $ 3X3X_.'.@.R 3X3X3X3X3X3X3X3X3X3X3X3X3X3X3X3X3X3X3X3X",
"3X3X3X3X3X3X3X3X3X3X3X3X3X3X3X3X3X3X3X3X3X3X3X3X3X3X3X3X3X3X3XH Y.P.I B % = 3X+.[.<.7.Y * 3X3X3X3X3X3X3X3X3X3X3X3X3X3X3X3X3X3X3X",
"3X3X3X3X3X3X3X3X3X3X3X3X3X3X3X3X3X3X3X3X3X3X3X3X3X3X3X3X3X3X3XB ` / > 3X3X3XN Q ^ B E 7 $ 3X3X3X3X3X3X3X3X3X3X3X3X3X3X3X3X3X3X3X",
"3X3X3X3X3X3X3X3X3X3X3X3X3X3X3X3X3X3X3X3X3X3X3X3X3X3X3X3X3X3X3X3X3X3X3X3X3X3XK I.` , 3X3X7.3X3X3X3X3X3X3X3X3X3X3X3X3X3X3X3X3X3X3X",
"3X3X3X3X3X3X3X3X3X3X3X3X3X3X3X3X3X3X3X3X3X3X3X3X3X3X3X3X3X3X3X3X3X3X3X3X3X3X3X3X3X3X3X3X3X3X3X3X3X3X3X3X3X3X3X3X3X3X3X3X3X3X3X3X"
};
