/* XPM */
static char *result[] = {
/* columns rows colors chars-per-pixel */
"64 64 209 2 ",
"   c #18150E",
".  c #1A191B",
"X  c #241D12",
"o  c #332619",
"O  c #282114",
"+  c #1B1921",
"@  c #262422",
"#  c #2B2A2A",
"$  c #292723",
"%  c #3C342B",
"&  c #37312A",
"*  c #2B2A37",
"=  c #343332",
"-  c #3A3532",
";  c #3D3936",
":  c #333238",
">  c #3C3A3A",
",  c #372F24",
"<  c #483B29",
"1  c #433D37",
"2  c #4C4334",
"3  c #49433B",
"4  c #554C39",
"5  c #5A513D",
"6  c #5D4527",
"7  c #6A5739",
"8  c #725C3F",
"9  c #7B603F",
"0  c #3A3946",
"q  c #424145",
"w  c #4B4946",
"e  c #44434C",
"r  c #4A4845",
"t  c #514943",
"y  c #5B554A",
"u  c #474654",
"i  c #524F56",
"p  c #545352",
"a  c #5A5859",
"s  c #61594A",
"d  c #665B45",
"f  c #615D5D",
"g  c #665F50",
"h  c #6B614A",
"j  c #7A6447",
"k  c #6D6451",
"l  c #6A645D",
"z  c #786C54",
"x  c #7E725A",
"c  c #797057",
"v  c #5D5C6D",
"b  c #595864",
"n  c #625E6B",
"m  c #656362",
"M  c #686564",
"N  c #6C6967",
"B  c #6D6B6A",
"V  c #6A656D",
"C  c #706E69",
"Z  c #7A6F6C",
"A  c #7D7465",
"S  c #6D6B7C",
"D  c #6C6B74",
"F  c #706C7C",
"G  c #767372",
"H  c #7E7A77",
"J  c #7C7A78",
"K  c #787372",
"L  c #AC7D34",
"P  c #927A4D",
"I  c #83775F",
"U  c #967D59",
"Y  c #896940",
"T  c #827761",
"R  c #847962",
"E  c #897D69",
"W  c #867F76",
"Q  c #AF8237",
"!  c #BA9557",
"~  c #AB8851",
"^  c #92866B",
"/  c #988869",
"(  c #878279",
")  c #9B8E73",
"_  c #948871",
"`  c #9E9275",
"'  c #9E937A",
"]  c #8E8367",
"[  c #AD9E7E",
"{  c #A59778",
"}  c #A6906A",
"|  c #BCA677",
" . c #C8A45F",
".. c #D7B76A",
"X. c #C7AD73",
"o. c #DFBF73",
"O. c #C5A469",
"+. c #7A7888",
"@. c #807D88",
"#. c #858481",
"$. c #898583",
"%. c #8B8983",
"&. c #88868A",
"*. c #8E8C8B",
"=. c #918D8B",
"-. c #938983",
";. c #94918D",
":. c #9B958C",
">. c #8C8A97",
",. c #938E9A",
"<. c #969392",
"1. c #9A9694",
"2. c #9E9B95",
"3. c #9D9B99",
"4. c #A69B89",
"5. c #A09D9C",
"6. c #AFA283",
"7. c #A8A18B",
"8. c #B4A584",
"9. c #B2A68B",
"0. c #B9AB8B",
"q. c #B6A98B",
"w. c #A3A19D",
"e. c #ACA392",
"r. c #B8AD93",
"t. c #BCB296",
"y. c #9F9BA4",
"u. c #9895A6",
"i. c #A39DA9",
"p. c #A6A2A1",
"a. c #AAA5A3",
"s. c #ADA9A5",
"d. c #AEAAAA",
"f. c #A8A5A8",
"g. c #B4ADAA",
"h. c #B0A6A7",
"j. c #B6B2AD",
"k. c #AAA7B7",
"l. c #ACAAB4",
"z. c #A9A5B5",
"x. c #B2AEB6",
"c. c #B2ADBC",
"v. c #B6B2B2",
"b. c #BAB5B4",
"n. c #BDBAB6",
"m. c #BAB5BC",
"M. c #C7BA94",
"N. c #CDBD8A",
"B. c #C7BBA4",
"V. c #C0BBB7",
"C. c #C2BEBB",
"Z. c #C9BCBF",
"A. c #DEC08F",
"S. c #E4D29E",
"D. c #E9D28B",
"F. c #DBCCA6",
"G. c #D0C3A7",
"H. c #C5C1BD",
"J. c #C8C3BF",
"K. c #E0CEA7",
"L. c #E8D4A6",
"P. c #EBDEB8",
"I. c #ECE0B3",
"U. c #B6B3C3",
"Y. c #BCB7C6",
"T. c #C0BED1",
"R. c #C0BCC9",
"E. c #CAC5C4",
"W. c #CECBC6",
"Q. c #CDCACB",
"!. c #C7C2CA",
"~. c #D1CCCA",
"^. c #D8CFC5",
"/. c #D6D2CD",
"(. c #D9D3CF",
"). c #D9D1C2",
"_. c #CBC8D5",
"`. c #D3CED6",
"'. c #D6D1D2",
"]. c #DAD5D3",
"[. c #DDD9D5",
"{. c #DED8DD",
"}. c #E1DCD6",
"|. c #E2DDDA",
" X c #E9DCC2",
".X c #E6E2DD",
"XX c #E9E4DA",
"oX c #FCF0C4",
"OX c #D6D3E0",
"+X c #DAD4E3",
"@X c #DFDAE1",
"#X c #E1DEE2",
"$X c #E3DDEB",
"%X c #E6E3E6",
"&X c #EAE5E4",
"*X c #EDE9E5",
"=X c #E9E4EE",
"-X c #EEEAEA",
";X c #E5E0EE",
":X c #F3EDEC",
">X c #F1EBE6",
",X c #F4F2EF",
"<X c #EEEAF3",
"1X c #F2ECF4",
"2X c #F6F3F3",
"3X c #F9F6F3",
"4X c #FDFDFD",
"5X c #F9F5FA",
"6X c None",
/* pixels */
"6X6X6X6X6X6X6X6X6X6X6X6X6X6X6X6X6X6X6X6X6X6X6X6X6X6X6X6X6X6X6X6X6X6X6X6X6X6X6X6X6X6X6X6X6X6X6X6X6X6X6X6X6X6X6X6X6X6X6X6X6X6X6X6X",
"6X6X6X6X6X6X6X6X6X6X6X6X6X6X6X6X6X6X6X6X6X6X6X6X6X6X6X6X6X6X6X6X6X6X6X6X6X6X6X6X6X6X6X6X6X6X6X6X6X6X6X6X6X6X6X6X6X6X6X6X6X6X6X6X",
"6X6X6X6X6X6X6X6X6X6X6X6X6X6X6X6X6X6X6X6X6X6X6X6X6X6X6X6X6X6X6X6X6X6X6X6X6X6X6X6X6X6X6X6X6X6X6X6X6X6X6X6X6X6X6X6X6X6X6X6X6X6X6X6X",
"6X6X6X6X6X6X6X6X6X6X6X6X6X6X6X6X6X6X6X6X6X6X6X6X6X6X6X6X6X6X6X6X6X6X6X6X6X6X6X6X6X6X6X6X6X6X6X6X6X6X6X6X6X6X6X6X6X6X6X6X6X6X6X6X",
"6X6X6X6X6X6X6X6X6X6X6X6X6X6X6X6X6X6X6X6X6X6X6X6X6X6X6X6X6X6X6X6X6X6X6X6X6X6X6X6X6X6X6X6X6X6X6X6X6X6X6X6X6X6X6X6X6X6X6X6X6X6X6X6X",
"6X6X6X6X6X6X6X6X6X6X6X6X6X6X6X6X6X6X6X6X6X6X6X6X6X6X6X6X6X6X6X6X6X6X6X6X6X6X6X6X6X6X6X6X6X6X6X6X6X6X6X6X6X6X6X6X6X6X6X6X6X6X6X6X",
"6X6X6X6X6X6X6X6X6X6X6X6X6X6X6X6X6X6X6X6X6X6X6X6X6X6X6X6X6X6X6X6X6X6X6X6X6X6X6X6X6X6X6X6X6X6X6X6X6X6X6X6X6X6X6X6X6X6X6X6X6X6X6X6X",
"6X6X6X6X6X6X6X6X6X6X6X6X6X6X6X6X6X6X6X6X6X6X6X6X6X6X6X6X6X6X6X6X6X6X6X6X6X6X6X6X6X6X6X6X6X6X6X6X6X6X6X6X6X6X6X6X6X6X6X6X6X6X6X6X",
"6X6X6X6X6X6X6X6X6X6X6X6X6X6X6X6X6X6X6X6X6X6X6X6X6X6X6X6X6X6X6X6X6X6X6X6X6X6X6X6X6X6X6X6X6X6X6X6X6X6X6X6X6X6X6X6X6X6X6X6X6X6X6X6X",
"6X6X6X6X6X6X6X6X6X6X6X6X6X6X6X6X6X6X6X6X6X6X6X6X6X6X6X6X6X6X6X6X6X6X6X6X6X6X6X6X6X6X6X6X6X6X6X6X6X6X6X6X6X6X6X6X6X6X6X6X6X6X6X6X",
"6X6X6X6X6X6X6X6X6X6X6X6X6X6X6X6X6X6X6X6X6X6X6X6X6X6X6X6X6X6X6X6X6X6X6X6X6X6X6X6X6X6X6X6X6X6X6X6X6X6X6X6X6X6X6X6X6X6X6X6X6X6X6X6X",
"6X6X6X6X6X6X6X6X6X6X6X6X6X6X6X6X6X6X6X6X6X6X6X6X6X6X6X6X6X6X6X6X6X6X6X6X6X6X6X6X6X6X6X6X6X6X6X6X6X6X6X6X6X6X6X6X6X6X6X6X6X6X6X6X",
"6X6X6X6X6X6X6X6X6X6X6X6X6X6X6X6X6X6X6X6X6X6X6X6X6X6X6X6X6X6X6X6X6X6X6X6X6X6X6X6X6X6X6X6X6X6X6X6X6X6X6X6X6X6X6X6X6X6X6X6X6X6X6X6X",
"6X6X6X6X6X6X6X6X6X6X6X6X6X6X6X6X6X6X6X6X6X6X6X6X6X6X6X6X6X6X6X6X6X6X6X6X6X6X6X6X6X6X6X6X6X6X6X6X6X6X6X6X6X6X6X6X6X6X6X6X6X6X6X6X",
"6X6X6X6X6X6X6X6X6X6X6X6X6X6X6X6X6X6X6X6X6X6X6X6X6X6X6X6X6X6X6X6X6X6X6X6X6X6X6X6X6X6X6X6X6X6X6X6X6X6X6X6X6X6X6X6X6X6X6X6X6X6X6X6X",
"6X6X6X6X6X6X6X6X6X6X6X6X6X6X6X6X6X6X6X6X6X6X6X6X6X6X6X6X6X6X6X6X6X6X6X6X6X6X6X6X6X6X6X6X6X6X6X6X6X6X6X6X6X6X6X6X6X6X6X6X6X6X6X6X",
"6X6X6X6X6X6X6X6X6X6X6X6X6X6X6X6X6X6X6X6X6X6X6X6X6X6X6X6X6X6X6X6X6X6X6X6X6X6X6X6X6X6X6X6X6X6X6X6X6X6X6X6X6X6X6X6X6X6X6X6X6X6X6X6X",
"6X6X6X6X6X6X6X6X6X6X6X6X6X6X6X6X6X6X6X6X6X6X6X6X6X6X6X6X6X6X6X6X6X6X6X6X6X6X6X6X6X6X6X6X6X6X6X6X6X6X6X6X6X6X6X6X6X6X6X6X6X6X6X6X",
"6X6X6X6X6X6X6X6X6X6X6X6X6Xo.6X6X6X6X6X6X6X6X6X6X6X6X6X6X6X6X6X6X6X6X6X6X6X6X6X6X6X6X6X6X6X6X6X6X6X6X6X6X6X6X6X6X6X6X6X6X6X6X6X6X",
"6X6X6X6X6X6X6X6X6X6X6X6X6X6XoX6X6X6X6X6X6X6X6X6X6X6X6X6X6X6X6X6X6X6X6X6X6X6X6X6X6X6X6X6X6X6X6X6X6X6X6X6X6X6X6X6X6X6X6X6X6X6X6X6X",
"6X6X6X6X6X6X6X6X6X6X6X6X6X6Xo.6X6X6X6X6X6X6X6X6X6X6X6X6X6X6X6X6X6X6X6X6X6X6X6X6X6X6X6X6X6X6X6X6X6X6X6X6X6X6X6X6X6X6X6X6X6X6X6X6X",
"6X6X6X6X6X6X6X6X6X6X6X6X6X6X! L.6X6X6X6X6X6X6X6X6X6X6X6X6X6X6X6X6X6X6X6X6X6X6X6X6X6X6X6X6X6X6X6X6X6X6X6X6X6X6X6X6X6X6X6X6X6X6X6X",
"6X6X6X6X6X6X6X6X6X6X6X6X6X6X6XD.6X6X6X6X6X6X6X6X6X6X6X6X6X6X6X6X6X6X6X6X6X6X6X6X6X6X6X6X6X6X6X6X6X6X6X6X6X6X6X6X6X6X6X6X6X6X6X6X",
"6X6X6X6X6X6X6X6X6X6X6X6X6X6X6X .L 6X6X6X6X6X6X6X6X6X6X6X6X6X6X6X6X6X6X6X6X6X6X6X6X6X6X6X6X6X6X6X6X6X6X6X6X6X6X6X6X6X6X6X6X6X6X6X",
"6X6X6X6X6X6X6X6X6X6X6X6X6X6X6X6X..N.6X6X6X6X6X6X6X6X6X6X6X6X6X6X6X6X6X6X6X6X6X6X6X6X6X6X6X6X6X6X6X6X6X6X6X6X6X6X6X6X6X6X6X6X6X6X",
"6X6X6X6X6X6X6X6X6X6X6X6X6X6X6X6X~ Q 6X6X6X6X6X6X6X6X6X6X6X6X6X6X6X6X6X6X6X6X6X6X6X6X6X6X6X6X6X6X6X6X6X6X6X6X6X6X6X6X6X6X6X6X6X6X",
"6X6X6X6X6X6X6X6X6X6X6X6X6X6X6X6X6XO. X6X6X7 [ 6X6X6X6X6X6X6X6X6X6X6X6X6X6X6X6X6X6X6X6X6X6X6X6X6X6X6X6X6X6X6X6X6X6X6X6X6X6X6X6X6X",
"6X6X6X6X6X6X6X6X6X6X6X6X6X6X6X6X6XX.U N.` I [ ` 2 6X6X6X6X6X6X6X6X6X6X6X6X6X6X6X6X6X6X6X6X6X6X6X6X6X6X6X6X6X6X6X6X6X6X6X6X6X6X6X",
"6X6X6X6X6X6X6X6X6X6X6X6X6X6X6X6X1 _ B.M.9.M.:.6.^ & j 6X6X6X6X6X6X6X6X6X6X6X6X6X6X6X6X6X6X6X6X6X6X6X6X6X6X6X6X6X6X6X6X6X6X6X6X6X",
"6X6X6X6X6X6X6X6X6X6X6X6X6X6X6X6XE r.8.^ 9.g.h.) [ ] 2 , 6X6X6X6X6X6X6X6X6X6X6X6X6X6X6X6X6X6X6X6X6X6X6X6X6X6X6X6X6X6X6X6X6X6X6X6X",
"6X6X6X6X6X6X6X6X6X6X6X6X6X6X6X6X8.y m i.7.Z.g.8.^ ' ) 2 6X6X6X6X6X6X6X6X6X6X6X6X6X6X6X6X6X6X6X6X6X6X6X6X6X6X6X6X6X6X6X6X6X6X6X6X",
"6X6X6X6X6X6X6X6X6X6X6X6X6X6X6X6Xz V g.E.j.b.:.` { M.x d 4 6X6X6X6X6X6X6X6X6X6X6X6X6X6X6X6X6X6X6X6X6X6X6X6X6X6X6X6X6X6X6X6X6X6X6X",
"6X6X6X6X6X6X6X6X6X6X6X6X6X6X6X6X6Xm._.*.w.g.v.%.F.^ { 0.z X 6X6X6X6X6X6X6X6X6X6X6X6X6X6X6X6X6X6X6X6X6X6X6X6X6X6X6X6X6X6X6X6X6X6X",
"6X6X6X6X6X6X6X6X6X6X6X6X6X6X6XC E.3X%X3.n.5.V.b.;.6.K.9.h 5 O 6X6X6X6X6X6X6X6X6X6X6X6X6X6X6X6X6X6X6X6X6X6X6X6X6X6X6X6X6X6X6X6X6X",
"6X6X6X6X6X6X6X6X6X6X6X6X6X6X,.].,X.X%X].s.=.W.~.<.t.q.9.` k 1 6X6X6X6X6X6X6X6X6X6X6X6X6X6X6X6X6X6X6X6X6X6X6X6X6X6X6X6X6X6X6X6X6X",
"6X6X6X6X6X6X6X6X6X6X6X6X6X6Xi.g.Z.v.3.&.&.C.,X}.2.%.M ] x % 3 % 6X6X6X6X6X6X6X6X6X6X6X6X6X6X6X6X6X6X6X6X6X6X6X6X6X6X6X6X6X6X6X6X",
"6X6X6X6X6X6X6X6X6X6X6X6X6X6X,.y.-.] t v `.4X4X.X2.=.{ A I 4 o 6X6X6X6X6X6X6X6X6X6X6X6X6X6X6X6X6X6X6X6X6X6X6X6X6X6X6X6X6X6X6X6X6X",
"6X6X6X6X6X6X6X6X6X6X6X6X6X6X6XZ ( { 2 >.=X4X4X.Xa.1.A 0.` y 8.I 6X6X6X6X6X6X6X6X6X6X6X6X6X6X6X6X6X6X6X6X6X6X6X6X6X6X6X6X6X6X6X6X",
"6X6X6X6X6X6X6X6X6X6X6X6X6X6X6X6Xy 2 6Xi.1X4X&X}.b.3.1._ { R T h 6X6X6X6X6X6Xn.1.%.$.6X6X6X6X6X6X6X6X6X6X6X6X6X6X6X6X6X6X6X6X6X6X",
"6X6X6X6X6X6X6X6X6X6X6X6X6X6X6X' t o 6Xc.1X4X*X&XE.n.g.H ) I @ ; > f B G J ( 1.*.<.H a 6X6X6X6X6X6X6X6X6X6X6X6X6X6X6X6X6X6X6X6X6X",
"6X6X6X6X6X6X6X6X6X6X6X6X6X6X6X6X6X6X6XU.1X5X-X%XW.[.E.;.<.;.$.( =.5.b.E.J.H.n.2.H J ;.3 6X6X6X6X6X6X6X6X6X6X6X6X6X6X6X6X6X6X6X6X",
"6X6X6X6X6X6X6X6X6X6X6X6X6X6X6X6X6X6X6XU.1X4X3X:X*X[.V.w.w.V.H.H.J.W.}.>X*X}.[.H.j.H G N 6X6X6X6X6X6X6X6X6X6X6X6X6X6X6X6X6X6X6X6X",
"6X6X6X6X6X6X6X6X6X6X6X6X6X6X6X6X6X6Xv c.;X<X4X4X3XW.d.v.H.].(.].(./.}.-X&X&X|.W.W.2.a M 6X6X6X6X6X6X6X6X6X6X6X6X6X6X6X6X6X6X6X6X",
"6X6X6X6X6X6X6X6X6X6X6X6X6X6X6X6X6X6X+.U.+X%X4X4X}./.H.s./.|.}.[.].[.]./.W.-X|.Q.[.a.M p = 6X6X6X6X6X6X6X6X6X6X6X6X6X6X6X6X6X6X6X",
"6X6X6X6X6X6X6X6X6X6X6X6X6X6X6X6X6X6X+.Y.+X5X4X5X.X:Xd.2..XXX-X.X(.(.W.E.C.2X*XW.].s.N r = 6X6X6X6X6X6X6X6X6X6X6X6X6X6X6X6X6X6X6X",
"6X6X6X6X6X6X6X6X6X6X6X6X6X6X6X6X6X6X+.U.OX5X4X2X3X.X$.w..X*X>X|.W.W.n.h.n.:X,XW.H.g.M > # 6X6X6X6X6X6X6X6X6X6X6X6X6X6X6X6X6X6X6X",
"6X6X6X6X6X6X6X6X6X6X6X6X6X6X6X6X6X6X+.u._.5X4XXX-Xj.C d.W.{.'./.n.b.w.2.E.{.-X'.j.a.p q # 6X6X6X6X6X6X6X6X6X6X6X6X6X6X6X6X6X6X6X",
"6X6X6X6X6X6X6X6X6X6X6X6X6X6X6X6X6X6Xb S z.+X%X*X{.w.M 3.~.'.n.n.w.w.( $.E.{.:X].s.*.w e # 6X6X6X6X6X6X6X6X6X6X6X6X6X6X6X6X6X6X6X",
"6X6X6X6X6X6X6X6X6X6X6X6X6X6X6X6X6X6X6XD S c.;X:XE.=.p <.!.m.b.f.<.W a J E.#X-XE.3.J q 0 $ 6X6X6X6X6X6X6X6X6X6X6X6X6X6X6X6X6X6X6X",
"6X6X6X6X6X6X6X6X6X6X6X6X6X6X6X6X6X6X6Xu.+.S +X'.g.f q +.y.3.1.#.M w = i k.@X{.H.3.M > e . 6X6X6X6X6X6X6X6X6X6X6X6X6X6X6X6X6X6X6X",
"6X6X6X6X6X6X6X6X6X6X6X6X6X6X6X6X6X6X6Xu.c.D Y.m.1.- * u b n a 0 #   * : n !.{.H.5.;.> e 6X6X6X6X6X6X6X6X6X6X6X6X6X6X6X6X6X6X6X6X",
"6X6X6X6X6X6X6X6X6X6X6X6X6X6X6X6X6X6X6X,.<Xx.y.m.p.# 6X6X6X+ . 6X6X6X6X0 0 v v.b.s.;.p s 5 6X6X6X6X6X6X6X6X6X6X6X6X6X6X6X6X6X6X6X",
"6X6X6X6X6X6X6X6X6X6X6X6X6X6X6X6X6X6X6Xu.5X/.z.'.a.q 6X6X6X6X6X6X6X6X6X6Xv D e D *.%.G N y 6X6X6X6X6X6X6X6X6X6X6X6X6X6X6X6X6X6X6X",
"6X6X6X6X6X6X6X6X6X6X6X6X6X6X6X6X6X6X6X>.%XJ.Y.1Xj.= 6X6X6X6X6X6X6X6X6X6X6Xz.>.# u &.w.2.H 6X6X6X6X6X6X6X6X6X6X6X6X6X6X6X6X6X6X6X",
"6X6X6X6X6X6X6X6X6X6X6X6X6X6X6X6X6X6X6Xy._.f.c.&Xp.: 6X6X6X6X6X6X6X6X6X6Xk.$Xv.- 6Xp v./.K 6X6X6X6X6X6X6X6X6X6X6X6X6X6X6X6X6X6X6X",
"6X6X6X6X6X6X6X6X6X6X6X6X6X6X6X6X6X6X6Xk.@X-.f.!.m @ 6X6X6X6X6X6X6X6X6X6X+X<Xy.# 6X3 R.Q.N 6X6X6X6X6X6X6X6X6X6X6X6X6X6X6X6X6X6X6X",
"6X6X6X6X6X6X6X6X6X6X6X6X6X6X6X6X6X6X6XY.-X4.v.C.9.k 6X6X6X6X6X6X6X6X6XU.4X].J 6X6Xk _.'.C X 6X6X6X6X6X6X6X6X6X6X6X6X6X6X6X6X6X6X",
"6X6X6X6X6X6X6X6X6X6X6X6X6X6X6X6X6X6X6X+X-Xq.b.V.M.[ _ 6X6X6X6X6X6X6X@.=X5Xn.' 6X6X( |.'.4.4 6X6X6X6X6X6X6X6X6X6X6X6X6X6X6X6X6X6X",
"6X6X6X6X6X6X6X6X6X6X6X6X6X6X6X6X6X6Xl.:XE.4.`.).P.K.R 6X6X6X6X6X6X6Xx.1X^.r.0.6X6X@.,XJ.8.d 6X6X6X6X6X6X6X6X6X6X6X6X6X6X6X6X6X6X",
"6X6X6X6X6X6X6X6X6X6X6X6X6X6X6X6X6X~ M.}.e.7.#XG.K.F.s 6X6X6X6X6X6XX.B.|.B.1 1 o 6Xi.1X5.{ g 6X6X6X6X6X6X6X6X6X6X6X6X6X6X6X6X6X6X",
"6X6X6X6X6X6X6X6X6X6X6X6X6X6X6X6X< X.oXN.I j.[.T ] R < 6X6X6X6X6X6 D.I.| / % 2 < 6XQ.b.0.8.x y 6X6X6X6X6X6X6X6X6X6X6X6X6X6X6X6X6X",
"6X6X6X6X6X6X6X6X6X6X6X6X6X6X6X6X6X/ } 7 Y 8.7.j @ - 6X6X6X6X6X6Xh | N.P 7 6X6X6X! { U 4.k t o 6X6X6X6X6X6X6X6X6X6X6X6X6X6X6X6X6X",
"6X6X6X6X6X6X6X6X6X6X6X6X6X6X6X6X6X6X6X6X} P.| 9 6X6X6X6X6X6X6X6X6X6X6X6X6X6X6X7 S.S.P j 6X^ 6X6X6X6X6X6X6X6X6X6X6X6X6X6X6X6X6X6X",
"6X6X6X6X6X6X6X6X6X6X6X6X6X6X6X6X6X6X6X6XY 7 6X6X6X6X6X6X6X6X6X6X6X6X6X6X6X6X6X6X6X6X6X6X6X6X6X6X6X6X6X6X6X6X6X6X6X6X6X6X6X6X6X6X"
};
