/* XPM */
static char *result[] = {
/* columns rows colors chars-per-pixel */
"64 64 212 2 ",
"   c #171615",
".  c #0E0E0D",
"X  c #362A1A",
"o  c #282627",
"O  c #352E25",
"+  c #35322A",
"@  c #252431",
"#  c #2B2A37",
"$  c #3C3C3B",
"%  c #383533",
"&  c #463116",
"*  c #443A26",
"=  c #533F27",
"-  c #4B412F",
";  c #48433A",
":  c #584B37",
">  c #5B533D",
",  c #5E482B",
"<  c #69583A",
"1  c #6E502C",
"2  c #7E633D",
"3  c #393847",
"4  c #464449",
"5  c #534B49",
"6  c #5D5442",
"7  c #4C4B56",
"8  c #484657",
"9  c #504F5A",
"0  c #545153",
"q  c #585754",
"w  c #59585A",
"e  c #655B49",
"r  c #635E5D",
"t  c #79684C",
"y  c #6D6352",
"u  c #69625C",
"i  c #746953",
"p  c #76695C",
"a  c #7E735B",
"s  c #5E5C6C",
"d  c #595764",
"f  c #6D6B6B",
"g  c #686666",
"h  c #716D68",
"j  c #73706E",
"k  c #7C7467",
"l  c #6D6B72",
"z  c #666474",
"x  c #767371",
"c  c #7C7B78",
"v  c #716E7F",
"b  c #865F2C",
"n  c #87622D",
"m  c #866437",
"M  c #946F36",
"N  c #AB7E3B",
"B  c #95774A",
"V  c #84775D",
"C  c #8A7556",
"Z  c #967D55",
"A  c #886E4A",
"S  c #8B7E64",
"D  c #867D69",
"F  c #817E7B",
"G  c #B6883D",
"H  c #C5913C",
"J  c #DFA738",
"K  c #E0B929",
"L  c #FFDD24",
"P  c #FCD62B",
"I  c #FEDD3D",
"U  c #F7CC3E",
"Y  c #9B845D",
"T  c #998354",
"R  c #AB8F57",
"E  c #9D8A66",
"W  c #9A8B6B",
"Q  c #968566",
"!  c #888179",
"~  c #9D8F73",
"^  c #9E9274",
"/  c #9E947F",
"(  c #A89667",
")  c #B59A68",
"_  c #A39374",
"`  c #A6997C",
"'  c #B2936D",
"]  c #B8A57C",
"[  c #ADA17F",
"{  c #C69042",
"}  c #D8AE56",
"|  c #C5AB77",
" . c #C3AB75",
".. c #F9D547",
"X. c #F7D55A",
"o. c #F6D767",
"O. c #EACB78",
"+. c #F7D97A",
"@. c #E4C561",
"#. c #7E7B83",
"$. c #7A7686",
"%. c #827D8C",
"&. c #858381",
"*. c #898684",
"=. c #8B878B",
"-. c #918D8B",
";. c #928D84",
":. c #94928D",
">. c #9C9387",
",. c #898697",
"<. c #918E98",
"1. c #9A9694",
"2. c #9C9A95",
"3. c #979594",
"4. c #A19D9A",
"5. c #A39F90",
"6. c #A89C88",
"7. c #BCAB8A",
"8. c #B9A784",
"9. c #A4A19D",
"0. c #B8B19A",
"q. c #ADA282",
"w. c #9592A2",
"e. c #9896A2",
"r. c #9E9BA3",
"t. c #9E9BAB",
"y. c #A19EAC",
"u. c #A6A3A2",
"i. c #ABA6A4",
"p. c #AEA9A6",
"a. c #AEABAA",
"s. c #A9A4AA",
"d. c #B2AEAA",
"f. c #B6A9A1",
"g. c #B6B2AE",
"h. c #BEB5A9",
"j. c #AAA5B4",
"k. c #A8A4B2",
"l. c #B3AEB4",
"z. c #B2AEBD",
"x. c #B5B1B3",
"c. c #BAB5B2",
"v. c #BEBAB6",
"b. c #BDBABA",
"n. c #B8B4BC",
"m. c #C2AA86",
"M. c #CDB984",
"N. c #C8BA98",
"B. c #C3B9AA",
"V. c #C2BDBA",
"C. c #D1BBA8",
"Z. c #DBC888",
"A. c #D7C597",
"S. c #F5D888",
"D. c #E3CD95",
"F. c #E3D29C",
"G. c #F3DD98",
"H. c #FBE087",
"J. c #DACBA9",
"K. c #C6C0BE",
"L. c #C8C4BF",
"P. c #E9D8B6",
"I. c #EDDAAE",
"U. c #F6E7AF",
"Y. c #BEBAC3",
"T. c #B8B5C3",
"R. c #C3BEC4",
"E. c #C3BECE",
"W. c #CAC4C4",
"Q. c #CECAC5",
"!. c #C6C3CC",
"~. c #CDCCCB",
"^. c #C6C3C8",
"/. c #D4CCC4",
"(. c #D3CDCB",
"). c #D5D1CC",
"_. c #D8D3CC",
"`. c #CDCAD5",
"'. c #C5C1D1",
"]. c #D2CDD3",
"[. c #D2CDDB",
"{. c #DAD5D3",
"}. c #DDD9D5",
"|. c #D7D2DB",
" X c #DBD7D9",
".X c #DDD9DA",
"XX c #D6D1D4",
"oX c #E1DCD6",
"OX c #E2DDD9",
"+X c #E4D7DA",
"@X c #E0D0CE",
"#X c #F6E7C7",
"$X c #E8E2DB",
"%X c #F4E8D4",
"&X c #F8EDCB",
"*X c #DEDAE2",
"=X c #E1DBE3",
"-X c #E9DFEA",
";X c #E6E2E3",
":X c #EAE4E3",
">X c #EDEAE6",
",X c #EEEAE9",
"<X c #E6E1EA",
"1X c #F3EDEC",
"2X c #FAF6EC",
"3X c #EFEBF2",
"4X c #F6F3F4",
"5X c #F8F6F9",
"6X c #FDFBFB",
"7X c #F9F5F4",
"8X c #F2EDF1",
"9X c None",
/* pixels */
"9X9X9X9X9X9X9X9X9X9X9X9X9X9X9X9X9X9X9X9X9X9X9X9X9X9X9X9X9X9X9X9X9X9X9X9X9X9X9X9X9X9X9X9X9X9X9X9X9X9X9X9X9X9X9X9X9X9X9X9X9X9X9X9X",
"9X9X9X9X9X9X9X9X9X9X9X9X9X9X9X9X9X9X9X9X9X9X9X9X9X9X9X9X9X9X9X9X9X9X9X9X9X9X9X9X9X9X9X9X9X9X9X9X9X9X9X9X9X9X9X9X9X9X9X9X9X9X9X9X",
"9X9X9X9X9X9X9X9X9X9X9X9X9X9X9X9X9X9X9X9X9X9X9X9X9X9X9X9X9X9X9X9X9X9X9X9X9X9X9X9X9X9X9X9X9X9X9X9X9X9X9X9X9X9X9X9X9X9X9X9X9X9X9X9X",
"9X9X9X9X9X9X9X9X9X9X9X9X9X9X9X9X9X9X9X9X9X9X9X9X9X9X9X9X9X9X9X9X9X9X9X9X9X9X9X9X9X9X9X9X9X9X9X9X9X9X9X9X9X9X9X9X9X9X9X9X9X9X9X9X",
"9X9X9X9X9X9X9X9X9X9X9X9X9X9X9X9X9X9X9X9X9X9X9X9X9X9X9X9X9X9X9X9X9X9X9X9X9X9X9X9X9X9X9X9X9X9X9X9X9X9X9X9X9X9X9X9X9X9X9X9X9X9X9X9X",
"9X9X9X9X9X9X9X9X9X9X9X9X9X9X9X9X9X9X9X9X9X9X9X9X9X9X9X9X9X9X9X9X9X9X9X9X9X9X9X9X9X9X9X9X9X9X9X9X9X9X9X9X9X9X9X9X9X9X9X9X9X9X9X9X",
"9X9X9X9X9X9X9X9X9X9X9X9X9X9X9X9X9X9X9X9X9X9X9X9X9X9X9X9X9X9X9X9X9X9X9X9X9X9X9X9X9X9X9X9X9X9X9X9X9X9X9X9X9X9X9X9X9X9X9X9X9X9X9X9X",
"9X9X9X9X9X9X9X9X9X9X9X9X9X9X9X9X9X9X9X9X9X9X9X9X9X9X9X9X9X9X9X9X9X9X9X9X9X9X9X9X9X9X9X9X9X9X9X9X9X9X9X9X9X9X9X9X9X9X9X9X9X9X9X9X",
"9X9X9X9X9X9X9X9X9X9X9X9X9X9X9X9X9X9X9X9X9X9X9X9X9X9X9X9X9X9X9X9X9X9X9X9X9X9X9X9X9X9X9X9X9X9X9X9X9X9X9X9X9X9X9X9X9X9X9X9X9X9X9X9X",
"9X9X9X9X9X9X9X9X9X9X9X9X9X9X9X9X9X9X9X9X9X9X9X9X9X9X9X9X9X9X9X9X9X9X9X9X9X9X9X9X9X9X9X9X9X9X9X9X9X9X9X9X9X9X9X9X9X9X9X9X9X9X9X9X",
"9X9X9X9X9X9X9X9X9X9X9X9X9X9X9X9X9X9X9X9X9X9X9X9X9X9X9X9X9X9X9X9X9X9X9X9X9X9X9X9X9X9XL 9X9X9X9X9X9X9X9X9X9X9X9X9X9X9X9X9X9X9X9X9X",
"9X9X9X9X9X9X9X9X9X9X9X9X9X9X9X9X9X9X9X9X9X9X9X9X9X9X9X9X9X9X9X9X9X9X9X9X9X9X9X9X9X9XI X.o.9X9X9X9X9X9X9X9X9X9X9X9X9X9X9X9X9X9X9X",
"9X9X9X9X9X9X9X9X9X9X9X9X9X9X9X9X9X9X9X9X9X9X9X9X9X9X9X9X9X9X9X9X9X9X9X9X9X9X9X9XI 9X&X#X9XL 9X9X9X9X9X9X9X9X9X9X9X9X9X9X9X9X9X9X",
"9X9X9X9X9X9X9X9X9X9X9X9X9X9X9X9X9X9X9X9X9X9X9X9X9X9X9X9X9X9X9X9X9X9X9X9X9X9X9X9X9X+.7X:XS.9X9X9X9X9X9X9X9X9X9X9X9X9X9X9X9X9X9X9X",
"9X9X9X9X9X9X9X9X9X9X9X9X9X9X9X9X9X9X9X9X9X9X9X9X9X9X9X9X9X9X9X9X9X9X9X9X9X9X9X..o.U.6X@X9X9X9X9X9X9X9X9X9X9X9X9X9X9X9X9X9X9X9X9X",
"9X9X9X9X9X9X9X9X9X9X9X9X9X9X9X9X9X9X9X9X9X9X9X9X9X9X9X9X9X9X9X9X9X9X9X9X9X9X9X9X+.2X+XU.X.I 9X9X9X9X9X9X9X9X9X9X9X9X9X9X9X9X9X9X",
"9X9X9X9X9X9X9X9X9X9X9X9X9X9X9X9X9X9X9X9X9X9X9X9X9X9X9X9X9X9X9X9X9X9X9X9X9X9XL ..S.#X%XS.9X9X9X9X9X9X9X9X9X9X9X9X9X9X9X9X9X9X9X9X",
"9X9X9X9X9X9X9X9X9X9X9X9X9X9X9X9X9X9X9X9X9X9X9X9X9X9X9X9X9X9X9X9X9X9X9X9X9X9X9X9X&X@X2XL 9X9X9X9X9X9X9X9X9X9X9X9X9X9X9X9X9X9X9X9X",
"9X9X9X9X9X9X9X9X9X9X9X9X9X9X9X9X9X9X9X9X9X9X9X9X9X9X9X9X9X9X9X9X9X9X9X9X9XP 9X+.%X%XO.9X9X9X9X9X9X9X9X9X9X9X9X9X9X9X9X9X9X9X9X9X",
"9X9X9X9X9X9X9X9X9X9X9X9X9X9X9X9X9X9X9X9X9X9X9X9X9X9X9X9X9X9X9X9X9X9X9X9X9X9X9X#X.X#X@.I 9X9X9X9X9X9X9X9X9X9X9X9X9X9X9X9X9X9X9X9X",
"9X9X9X9X9X9X9X9X9X9X9X9X9X9X9X9X9X9X9X9X9X9X9X9X9X9X9X9X9X9X9X9X9X9X9X9X9XK o.G.oXm.9X9X9X9X9X9X9X9X9X9X9X9X9X9X9X9X9X9X9X9X9X9X",
"9X9X9X9X9X9X9X9X9X9X9X9X9X9X9X9X9X9X9X9X9X9X9X9X9X9X9X9X9X9X9X9X9X9X9XJ } b ' C.J.Z ..9X9X9X9X9X9X9X9X9X9X9X9X9X9X9X9X9X9X9X9X9X",
"9X9X9X9X9X9X9X9X9X9X9X9X9X9X9X9X9X9X9X9X9X9X9X9X9X9X9X9X9X9X9X9X9X9XM { B Z.G.M.| T > 9X9X9X9X9X9X9X9X9X9X9X9X9X9X9X9X9X9X9X9X9X",
"9X9X9X9X9X9X9X9X9X9X9X9X9X9X9X9X9X9X9X9X9X9X9X9X9X9X9X9X9X9X9X9Xt O M { A C.M.Z.O.D.9X9X9X9X9X9X9X9X9X9X9X9X9X9X9X9X9X9X9X9X9X9X",
"9X9X9X9X9X9X9X9X9X9X9X9X9X9X9X9X9X9X9X9X9X9X9X9X9X9X9X9X9X9X9X9X= 1 n } ' J.B. .B ) _ 9X9X9X9X9X9X9X9X9X9X9X9X9X9X9X9X9X9X9X9X9X",
"9X9X9X9X9X9X9X9X9X9X9X9X9X9X9X9X9X9X9X9X9X9X9X9X9X9X9X9X9X9X9X1 n G M A.Y f.i.f.9.` 9X9X9X9X9X9X9X9X9X9X9X9X9X9X9X9X9X9X9X9X9X9X",
"9X9X9X9X9X9X9X9X9X9X9X9X9X9X9X9X9X9X9X9X9X9X9X9X9X9X9X9X9X9XX n 2 G ) E 5.i.d.=.R./.*.9X9X9X9X9X9X9X9X9X9X9X9X9X9X9X9X9X9X9X9X9X",
"9X9X9X9X9X9X9X9X9X9X9X9X9X9X9X9X9X9X9X9X9X9X9X9X9X9X9X9X9X9X1 T | _ ] >.p.4.c.F (.7X{.3.9X9X9X9X9X9X9X9X9X9X9X9X9X9X9X9X9X9X9X9X",
"9X9X9X9X9X9X9X9X9X9X9X9X9X9X9X9X9X9X9X9X9X9X9X9X9X9X9X9XO > 1 ) N.I.;.9.Q.4.4._.3X4XOX1Xn.9X9X9X9X9X9X9X9X9X9X9X9X9X9X9X9X9X9X9X",
"9X9X9X9X9X9X9X9X9X9X9X9X9X9X9X9X9X9X9X9X9X9X9X9X9X9X9X9Xe 6 A Y k / ;.K._.R.=.y.l.l.x.V.l.9X9X9X9X9X9X9X9X9X9X9X9X9X9X9X9X9X9X9X",
"9X9X9X9X9X9X9X9X9X9X9X9X9X9X9X9X9X9X9X9X9X9X9X9X9X9X9X9X+ & m C [ h :.(.,X7X+X,.4 k r -.T.9X9X9X9X9X9X9X9X9X9X9X9X9X9X9X9X9X9X9X",
"9X9X9X9X9X9X9X9X9X9X9X9X9X9X9X9X9X9X9X9X9X9X9X9X9X9X9X9XX , m a ^ ! :._.6X6X8Xy.9X_ Q 5 9X9X9X9X9X9X9X9X9X9X9X9X9X9X9X9X9X9X9X9X",
"9X9X9X9X9X9X9X9X9X9X9X9X9X9X9X9X9X9X9X9X9X9X9X9X9X9X9X9XA < W 7.D *.2.Q.1X6X5Xn.0 : u 0 9X9X9X9X9X9X9X9X9X9X9X9X9X9X9X9X9X9X9X9X",
"9X9X9X9X9X9X9X9X9X9X9X9X9X9X9X9X9X9X9X9X9X9X9X9X9X9X9X` : : / Q q -.9.).$X5X6XXX$.X 6 7.9X9X9X9X9X9X9X9X9X9X9X9X9X9X9X9X9X9X9X9X",
"9X9X9X9X9X9X9X9X9X9X9X9X9X9X9X9X9X9X9X9X9X9X9X9X9X9X9X9X< / [ ~ p 9.p.).,X>X6X<Xw.9X9X9X9X9X9X9X9X9X9X9X9X9X9X9X9X9X9X9X9X9X9X9X",
"9X9X9X9X9X9X9X9X9X9X9X9X9X9X9X9X9X9X9X9X9X9X9X9X9X9X9X9X> i Q W F d.V.L..X$X3X3Xn.l 9X9X9X9X9X9X9X9X9X9X9X9X9X9X9X9X9X9X9X9X9X9X",
"9X9X9X9X9X9X9X9X9X9X9X9X9X9X9X9X9X9X9X9X9X9X9X9X9X9X9X9Xa y i q ! i.K.oX:X:X;X].Y.t.$.9X9X9X9X9X9X9X9X9X9X9X9X9X9X9X9X9X9X9X9X9X",
"9X9X9X9X9X9X9X9X9X9X9X9X9X9X9X9X9X9X9X9X9X9X9X9X9X9X9X9X+ + g f *.2.v.}.$X2X2X;X^.j.w.9X9X9X9X9X9X9X9X9X9X9X9X9X9X9X9X9X9X9X9X9X",
"9X9X9X9X9X9X9X9X9X9X9X9X9X9X9X9X9X9X9X0 4 c p.9X$ 0 q q f *.5.2.:.u.L.OX.X6X6X7X|.z.w.v 9X9X9X9X9X9X9X9X9X9X9X9X9X9X9X9X9X9X9X9X",
"9X9X9X9X9X9X9X9X9X9X9X9X9X9X9X9X9X9X9Xj :.2.9.*.3.d.a.5.9.a.c.Q.9.! 4.}.6X6X6X6X-Xy.<.3.9X9X9X9X9X9X9X9X9X9X9X9X9X9X9X9X9X9X9X9X",
"9X9X9X9X9X9X9X9X9X9X9X9X9X9X9X9X9X9Xw *.q g 2.c.).{.v.g.g.V.Q.{.(.3.x p.$X6X,X8Xj.%.,.].V.4.-.9X9X9X9X9X9X9X9X9X9X9X9X9X9X9X9X9X",
"9X9X9X9X9X9X9X9X9X9X9X9X9X9X9X9X9X9Xa.s.r 3.W._.}.Q.K.V.b./..X$X$X~.3.c d.,X1X5X;X2.y.5X}.).:Xn.9X9X9X9X9X9X9X9X9X9X9X9X9X9X9X9X",
"9X9X9X9X9X9X9X9X9X9X9X9X9X9X9X9X9X:.R.s F c.W.>XQ.c.b.v.V._.}.,X}.|.a.z x g. X4X6X7X(.W.v.u.`.'.9X9X9X9X9X9X9X9X9X9X9X9X9X9X9X9X",
"9X9X9X9X9X9X9X9X9X9X9X9X9X9X9X9X9XW.w.+ :.W.K.6X{.c.g.d.c.W.).}.;X Xx.#.0 9 =.b.}.:X}.oX).-.n.T.9X9X9X9X9X9X9X9X9X9X9X9X9X9X9X9X",
"9X9X9X9X9X9X9X9X9X9X9X9X9X9X9X9Xc |.9X$ 1.c.W.6X_.v.2.1.d.i.W.W.XX|.T.#.9 3 3 0 0 f 2.d.{.!.`.w.9X9X9X9X9X9X9X9X9X9X9X9X9X9X9X9X",
"9X9X9X9X9X9X9X9X9X9X9X9X9X9X9X9X2.[.9Xo :.9.V.$X{./.-.&.1.u.a.b.Y.Y.j.$.8 3 9X9X9X9XV 7.b.'.!.9X9X9X9X9X9X9X9X9X9X9X9X9X9X9X9X9X",
"9X9X9X9X9X9X9X9X9X9X9X9X9X9X9X9Xl.=X9X  c 9.v.}. X Xl.j f #.=.<.e.,.$.9 9X9X9X9X9Xq.F.h.^.y.w.9X9X9X9X9X9X9X9X9X9X9X9X9X9X9X9X9X",
"9X9X9X9X9X9X9X9X9X9X9X9X9X9X9X9XE.'.9X  q 1.g._.<X*XR.l 4 9 s d d 8 3 9X9X9X9X9XA.J.J.J.].s 9X9X9X9X9X9X9X9X9X9X9X9X9X9X9X9X9X9X",
"9X9X9X9X9X9X9X9X9X9X9X9X9X9X9X4  X9X9X7 % &.p.W.4X=Xj.9 # @ @ @ 9X9X9X9X9X9X9X9X9X< _ 0.Y.9X9X9X9X9X9X9X9X9X9X9X9X9X9X9X9X9X9X9X",
"9X9X9X9X9X9X9X9X9X9X9X9X9X9X9Xf ;X9X9X9Xo u 2.V.<X|.$.3 3 9X9X9X9X9X9X9X9X9X9X9X9XZ 6.c.,.9X9X9X9X9X9X9X9X9X9X9X9X9X9X9X9X9X9X9X",
"9X9X9X9X9X9X9X9X9X9X9X9X9X9X9Xw $X9X9X9X9Xx :.V.=Xy.9 s 8 9X9X9X9X9X9X9X9X9X9X9X9XF.2X/.p 9X9X9X9X9X9X9X9X9X9X9X9X9X9X9X9X9X9X9X",
"9X9X9X9X9X9X9X9X9X9X9X9X9X9X9Xu K.9X9X9Xo j 2.s.e.z %.s 9X9X9X9X9X9X9X9X9X9X9X9X9X) F.Z 9X9X9X9X9X9X9X9X9X9X9X9X9X9X9X9X9X9X9X9X",
"9X9X9X9X9X9X9X9X9X9X9X9X9X9X9X; ^ 9X9X9X5 F -.=.d g.z.9X9X9X9X9X9X9X9X9X9X9X9X9X9X* t O 9X9X9X9X9X9X9X9X9X9X9X9X9X9X9X9X9X9X9X9X",
"9X9X9X9X9X9X9X9X9X9X9X9X9X9X9Xt _ 7.9Xg *.u.,.# -.=Xk.9X9X9X9X9X9X9X9X9X9X9X9X9X9X9X9X9X9X9X9X9X9X9X9X9X9X9X9X9X9X9X9X9X9X9X9X9X",
"9X9X9X9X9X9X9X9X9X9X9X9X9X9XV E C ' y f ~.^.z . x *X-Xz.9X9X9X9X9X9X9X9X9X9X9X9X9X9X9X9X9X9X9X9X9X9X9X9X9X9X9X9X9X9X9X9X9X9X9X9X",
"9X9X9X9X9X9X9X9X9X9X9X9X9X9X> Y ) 7.9Xw XX[.9X9X$ x.4X.X=.9X9X9X9X9X9X9X9X9X9X9X9X9X9X9X9X9X9X9X9X9X9X9X9X9X9X9X9X9X9X9X9X9X9X9X",
"9X9X9X9X9X9X9X9X9X9X9X9X9X9X5 Y ) 6.9Xq ~.*X9X9X9Xx {.6X~.9X9X9X9X9X9X9X9X9X9X9X9X9X9X9X9X9X9X9X9X9X9X9X9X9X9X9X9X9X9X9X9X9X9X9X",
"9X9X9X9X9X9X9X9X9X9X9X9X9X9X9XC Q V 9XD c.3Xt.9X9XD B.:X5Xk.9X9X9X9X9X9X9X9X9X9X9X9X9X9X9X9X9X9X9X9X9X9X9X9X9X9X9X9X9X9X9X9X9X9X",
"9X9X9X9X9X9X9X9X9X9X9X9X9X9X9X9Xi W - Q N.4XT.9X9X_ A.h.8X`.9X9X9X9X9X9X9X9X9X9X9X9X9X9X9X9X9X9X9X9X9X9X9X9X9X9X9X9X9X9X9X9X9X9X",
"9X9X9X9X9X9X9X9X9X9X9X9X9X9X9X9X9Xm.9XQ >.}.`.9X9X< 6 ~ /./.[ G 9X9X9X9X9X9X9X9X9X9X9X9X9X9X9X9X9X9X9X9X9X9X9X9X9X9X9X9X9X9X9X9X",
"9X9X9X9X9X9X9X9X9X9X9X9X9X9X9X9X9X9X9XQ [ >..X5.9X- ; p Y J.U.T 9X9X9X9X9X9X9X9X9X9X9X9X9X9X9X9X9X9X9X9X9X9X9X9X9X9X9X9X9X9X9X9X",
"9X9X9X9X9X9X9X9X9X9X9X9X9X9X9X9X9X9X* : _ C _ ) M 9X9X9X2 ] | T 9X9X9X9X9X9X9X9X9X9X9X9X9X9X9X9X9X9X9X9X9X9X9X9X9X9X9X9X9X9X9X9X",
"9X9X9X9X9X9X9X9X9X9X9X9X9X9X9X9X9X9X9X9X9X2 | P.R 9X9X9X9X9X9X9X9X9X9X9X9X9X9X9X9X9X9X9X9X9X9X9X9X9X9X9X9X9X9X9X9X9X9X9X9X9X9X9X",
"9X9X9X9X9X9X9X9X9X9X9X9X9X9X9X9X9X9X9X9X9X9X9X9X9X9X9X9X9X9X9X9X9X9X9X9X9X9X9X9X9X9X9X9X9X9X9X9X9X9X9X9X9X9X9X9X9X9X9X9X9X9X9X9X"
};
