/* XPM */
static char *result[] = {
/* columns rows colors chars-per-pixel */
"64 64 210 2 ",
"   c #191818",
".  c #231D18",
"X  c #2C170B",
"o  c #2E2719",
"O  c #30281C",
"+  c #2B292B",
"@  c #24232C",
"#  c #352E25",
"$  c #2F2E3A",
"%  c #3C3B3A",
"&  c #353334",
"*  c #39342A",
"=  c #42331F",
"-  c #4B3F2C",
";  c #4B4334",
":  c #47423A",
">  c #534B3A",
",  c #554A37",
"<  c #59503F",
"1  c #584327",
"2  c #685638",
"3  c #6D5337",
"4  c #343341",
"5  c #3C3B47",
"6  c #4A484A",
"7  c #49464A",
"8  c #544D41",
"9  c #5C5343",
"0  c #585249",
"q  c #434253",
"w  c #4C4A58",
"e  c #595556",
"r  c #655D4A",
"t  c #645A45",
"y  c #6A5F51",
"u  c #62615E",
"i  c #6C6556",
"p  c #756C54",
"a  c #786E58",
"s  c #787057",
"d  c #7D735D",
"f  c #70654D",
"g  c #5B5A62",
"h  c #575566",
"j  c #615B60",
"k  c #646363",
"l  c #6C6A6A",
"z  c #67656A",
"x  c #756E62",
"c  c #716D69",
"v  c #7A6E6B",
"b  c #79746B",
"n  c #6A6776",
"m  c #757372",
"M  c #7B7976",
"N  c #7E7C7B",
"B  c #797677",
"V  c #89775C",
"C  c #9B7F5A",
"Z  c #8B7E65",
"A  c #847966",
"S  c #827D7B",
"D  c #827C75",
"F  c #B7872F",
"G  c #E7C32A",
"H  c #9B804E",
"J  c #9F8B59",
"K  c #AB8857",
"L  c #AC925B",
"P  c #8A816A",
"I  c #8F8267",
"U  c #92866B",
"Y  c #95896D",
"T  c #968465",
"R  c #8A8171",
"E  c #84817C",
"W  c #9B8E73",
"Q  c #958B77",
"!  c #9D9277",
"~  c #9B917C",
"^  c #A4967A",
"/  c #A59A7A",
"(  c #AA9D7C",
")  c #AD9B70",
"_  c #B09D77",
"`  c #AEA07E",
"'  c #C39A55",
"]  c #DFAC46",
"[  c #D3B164",
"{  c #E4BC6C",
"}  c #EAC05F",
"|  c #FDDC5C",
" . c #ECC873",
".. c #777484",
"X. c #7C7984",
"o. c #7D7B8A",
"O. c #7F7C90",
"+. c #817E88",
"@. c #868482",
"#. c #898583",
"$. c #8E8A8A",
"%. c #888589",
"&. c #928E8D",
"*. c #968C84",
"=. c #95928E",
"-. c #9D9585",
";. c #8A8796",
":. c #908E98",
">. c #939297",
",. c #9A9994",
"<. c #96949E",
"1. c #9B969B",
"2. c #9C999A",
"3. c #999493",
"4. c #A49A84",
"5. c #A89D89",
"6. c #A29D9B",
"7. c #AFA386",
"8. c #B2A484",
"9. c #BAAB8B",
"0. c #B4A789",
"q. c #BEB28E",
"w. c #A5A19E",
"e. c #B7AA96",
"r. c #BCB29B",
"t. c #9693A2",
"y. c #9B98A3",
"u. c #A09FA2",
"i. c #A09CAD",
"p. c #A6A3A1",
"a. c #AAA5A3",
"s. c #AEAAA6",
"d. c #A5A3AB",
"f. c #ADAAAB",
"g. c #A9A5A9",
"h. c #B1ADAA",
"j. c #B9A9A9",
"k. c #B5B2AE",
"l. c #ABA9B3",
"z. c #B2ACB7",
"x. c #B6B3B4",
"c. c #BAB5B3",
"v. c #BDB9B5",
"b. c #BDB9B9",
"n. c #B8B3BC",
"m. c #C6B685",
"M. c #C3B493",
"N. c #CABA95",
"B. c #CEBF99",
"V. c #C2BDBA",
"C. c #C7B9B6",
"Z. c #C8BEAC",
"A. c #DAC689",
"S. c #D1C49E",
"D. c #E9D297",
"F. c #FFE89A",
"G. c #CFC5A1",
"H. c #DECFA7",
"J. c #D4C5A1",
"K. c #C4C1BB",
"L. c #CBC3B0",
"P. c #E5D6AC",
"I. c #E6DBBA",
"U. c #F2E6B8",
"Y. c #B5B1C1",
"T. c #BAB6C4",
"R. c #C1BDCA",
"E. c #C3BFC4",
"W. c #C6C3C5",
"Q. c #CAC5C2",
"!. c #CECAC5",
"~. c #C6C3CC",
"^. c #CBC6CB",
"/. c #D4CECC",
"(. c #D3CDC7",
"). c #D6D2CD",
"_. c #D9D3CF",
"`. c #CEC9D4",
"'. c #CBC6D4",
"]. c #D4CED6",
"[. c #D6D2D3",
"{. c #DBD6D2",
"}. c #D5D1DA",
"|. c #DAD4DC",
" X c #DEDADA",
".X c #DDD9D2",
"XX c #E1DBD6",
"oX c #E1DCDC",
"OX c #EBDCCF",
"+X c #E5E0DB",
"@X c #E8E4DF",
"#X c #F2E7CA",
"$X c #DDD9E4",
"%X c #E4DFE4",
"&X c #E1DCEB",
"*X c #E5E1E2",
"=X c #EAE6E4",
"-X c #EEE9E4",
";X c #E9E5EE",
":X c #E9E6EA",
">X c #F2EDEB",
",X c #F7F3EC",
"<X c #EDEBF2",
"1X c #F1EEF3",
"2X c #F5F3F3",
"3X c #F9F5F3",
"4X c #FBFAF7",
"5X c #F6F3F9",
"6X c #FDFCFD",
"7X c None",
/* pixels */
"7X7X7X7X7X7X7X7X7X7X7X7X7X7X7X7X7X7X7X7X7X7X7X7X7X7X7X7X7X7X7X7X7X7X7X7X7X7X7X7X7X7X7X7X7X7X7X7X7X7X7X7X7X7X7X7X7X7X7X7X7X7X7X7X",
"7X7X7X7X7X7X7X7X7X7X7X7X7X7X7X7X7X7X7X7X7X7X7X7X7X7X7X7X7X7X7X7X7X7X7X7X7X7X7X7X7X7X7X7X7X7X7X7X7X7X7X7X7X7X7X7X7X7X7X7X7X7X7X7X",
"7X7X7X7X7X7X7X7X7X7X7X7X7X7X7X7X7X7X7X7X7X7X7X7X7X7X7X7X7X7X7X7X7X7X7X7X7X7X7X7X7X7X7X7X7X7X7X7X7X7X7X7X7X7X7X7X7X7X7X7X7X7X7X7X",
"7X7X7X7X7X7X7X7X7X7X7X7X7X7X7X7X7X7X7X7X7X7X7X7X7X7X7X7X7X7X7X7X7X7X7X7X7X7X7X7X7X7X7X7X7X7X7X7X7X7X7X7X7X7X7X7X7X7X7X7X7X7X7X7X",
"7X7X7X7X7X7X7X7X7X7X7X7X7X7X7X7X7X7X7X7X7X7X7X7X7X7X7X7X7X7X7X7X7X7X7X7X7X7X7X7X7X7X7X7X7X7X7X7X7X7X7X7X7X7X7X7X7X7X7X7X7X7X7X7X",
"7X7X7X7X7X7X7X7X7X7X7X7X7X7X7X7X7X7X7X7X7X7X7X7X7X7X7X7X7X7X7X7X7X7X7X7X7X7X7X7X7X7X7X7X7X7X7X7X7X7X7X7X7X7X7X7X7X7X7X7X7X7X7X7X",
"7X7X7X7X7X7X7X7X7X7X7X7X7X7X7X7X7X7X7X7X7X7X7X7X7X7X7X7X7X7X7X7X7X7X7X7X7X7X7X7X7X7X7X7X7X7X7X7X7X7X7X7X7X7X7X7X7X7X7X7X7X7X7X7X",
"7X7X7X7X7X7X7X7X7X7X7X7X7X7X7X7X7X7X7X7X7X7X7X7X7X7X7X7X7X7X7X7X7X7X7X7X7X7X7X7X7X7X7X7X7X7X7X7X7X7X7X7X7X7X7X7X7X7X7X7X7X7X7X7X",
"7X7X7X7X7X7X7X7X7X7X7X7X7X7X7X7X7X7X7X7X7X7X7X7X7X7X7X7X7X7X7X7X7X7X7X7X7X7X7X7X7X7X7X7X7X7X7X7X7X7X7X7X7X7X7X7X7X7X7X7X7X7X7X7X",
"7X7X7X7X7X7X7X7X7X7X7X7X7X7X7X7X7X7X7X7X7X7X7X7X7X7X7X7X7X7X7X7X7X7X7X7X7X7X7X7X7X7X7X7X7X7X7X7X7X7X7X7X7X7X7X7X7X7X7X7X7X7X7X7X",
"7X7X7X7X7X7X7X7X7X7X7X7X7X7X7X7X7X7X7X7X7X7X7X7X7X7X7X7X7X7X7X7X7X7X7X7X7X7X7X7X7X7X7X7X7X7X7X7X7X7X7X7X7X7X7X7X7X7X7X7X7X7X7X7X",
"7X7X7X7X7X7X7X7X7X7X7X7X7X7X7X7X7X7X7X7X7X7X7X7X7X7X7X7X7X7X7X7X7X7X7X7X7X7X7X7X7X7X7X7X7X7X7X7X7X7X7X7X7X7X7X7X7X7X7X7X7X7X7X7X",
"7X7X7X7X7X7X7X7X7X7X7X7X7X7X7X7X7X7X7X7X7X7X7X7X7X7X7X7X7X7X7X7X7X7X7X7X7X7X7X7X7X7X7X7X7X7X7X7X7X7X7X7X7X7X7X7X7X7X7X7X7X7X7X7X",
"7X7X7X7X7X7X7X7X7X7X7X7X7X7X7X7X7X7X7X7X7X7X7X7X7X7X7X7X7X7X7X7X7X7X7X7X7X7X7X7X7X7X7X7X7X7X7X7X7X7X7X7X7X7X7X7X7X7X7X7X7X7X7X7X",
"7X7X7X7X7X7X7X7X7X7X7X7X7X7X7X7X7X7X7X7X7X7X7X7X7X7X7X7X7X7X7X7X7X7X7X7X7X7X7X7X7X7X7X7X7X7X7X7X7X7X7X7X7X7X7X7X7X7X7X7X7X7X7X7X",
"7X7X7X7X7X7X7X7X7X7X7X7X7X7X7X7X7X} 7X7X7X7X7X7X7X7X7X7X7X7X7X7X7X7X7X7X7X7X7X7X7X7X7X7X7X7X7X7X7X7X7X7X7X7X7X7X7X7X7X7X7X7X7X7X",
"7X7X7X7X7X7X7X7X7X7X7X7X7X7X7X7X7XD.#X7X7X7X7X7X7X7X7X7X7X7X7X7X7X7X7X7X7X7X7X7X7X7X7X7X7X7X7X7X7X7X7X7X7X7X7X7X7X7X7X7X7X7X7X7X",
"7X7X7X7X7X7X7X7X7X7X7X7X7X7X7X7X7X7X .| 7X7X7X7X7X7X7X7X7X7X7X7X7X7X7X7X7X7X7X7X7X7X7X7X7X7X7X7X7X7X7X7X7X7X7X7X7X7X7X7X7X7X7X7X",
"7X7X7X7X7X7X7X7X7X7X7X7X7X7X7X7X7X7X .OXF.7X7X7X7X7X7X7X7X7X7X7X7X7X7X7X7X7X7X7X7X7X7X7X7X7X7X7X7X7X7X7X7X7X7X7X7X7X7X7X7X7X7X7X",
"7X7X7X7X7X7X7X7X7X7X7X7X7X7X7X7X7X7X7X .7X7X7X7X7X7X7X7X7X7X7X7X7X7X7X7X7X7X7X7X7X7X7X7X7X7X7X7X7X7X7X7X7X7X7X7X7X7X7X7X7X7X7X7X",
"7X7X7X7X7X7X7X7X7X7X7X7X7X7X7X7X7X7X7X] G 7X7X7X7X7X7X7X7X7X7X7X7X7X7X7X7X7X7X7X7X7X7X7X7X7X7X7X7X7X7X7X7X7X7X7X7X7X7X7X7X7X7X7X",
"7X7X7X7X7X7X7X7X7X7X7X7X7X7X7X7X7X7X7XF [ 7X7X7X7X7X7X7X7X7X7X7X7X7X7X7X7X7X7X7X7X7X7X7X7X7X7X7X7X7X7X7X7X7X7X7X7X7X7X7X7X7X7X7X",
"7X7X7X7X7X7X7X7X7X7X7X7X7X7X7X7X7X7X7X7X{ -X7X7X7X7X7X7X7X7X7X7X7X7X7X7X7X7X7X7X7X7X7X7X7X7X7X7X7X7X7X7X7X7X7X7X7X7X7X7X7X7X7X7X",
"7X7X7X7X7X7X7X7X7X7X7X7X7X7X7X7X7X7X7X7X' D.7X7X* 7X7X7X7X7X7X7X7X7X7X7X7X7X7X7X7X7X7X7X7X7X7X7X7X7X7X7X7X7X7X7X7X7X7X7X7X7X7X7X",
"7X7X7X7X7X7X7X7X7X7X7X7X7X7X7X7X7X7X7X7XK L ( V p / Y 7X7X7X7X7X7X7X7X7X7X7X7X7X7X7X7X7X7X7X7X7X7X7X7X7X7X7X7X7X7X7X7X7X7X7X7X7X",
"7X7X7X7X7X7X7X7X7X7X7X7X7X7X7X7X7X7X7X> / _ 9.8.e.P ` 9 7X7X7X7X7X7X7X7X7X7X7X7X7X7X7X7X7X7X7X7X7X7X7X7X7X7X7X7X7X7X7X7X7X7X7X7X",
"7X7X7X7X7X7X7X7X7X7X7X7X7X7X7X7X7X7X7Xx S.N.Y 0.j.*./ A - s 7X7X7X7X7X7X7X7X7X7X7X7X7X7X7X7X7X7X7X7X7X7X7X7X7X7X7X7X7X7X7X7X7X7X",
"7X7X7X7X7X7X7X7X7X7X7X7X7X7X7X7X7X7X7XW e x E j.C.5.N.s p ; 7X7X7X7X7X7X7X7X7X7X7X7X7X7X7X7X7X7X7X7X7X7X7X7X7X7X7X7X7X7X7X7X7X7X",
"7X7X7X7X7X7X7X7X7X7X7X7X7X7X7X7X7X7X7Xu &.h.V.g.6.~ 0.U / s < 7X7X7X7X7X7X7X7X7X7X7X7X7X7X7X7X7X7X7X7X7X7X7X7X7X7X7X7X7X7X7X7X7X",
"7X7X7X7X7X7X7X7X7X7X7X7X7X7X7X7X7X7X7X1./.W.m k.u.*.^ N.Z p t 7X7X7X7X7X7X7X7X7X7X7X7X7X7X7X7X7X7X7X7X7X7X7X7X7X7X7X7X7X7X7X7X7X",
"7X7X7X7X7X7X7X7X7X7X7X7X7X7X7X7X7X7Xa.oX3X[.3.h.6.j.4.! 8.M.Z > 7X7X7X7X7X7X7X7X7X7X7X7X7X7X7X7X7X7X7X7X7X7X7X7X7X7X7X7X7X7X7X7X",
"7X7X7X7X7X7X7X7X7X7X7X7X7X7X7X7X7XV.>X X:X%XQ.3.u.(.6.-.P.M.P r ; 7X7X7X7X7X7X7X7X7X7X7X7X7X7X7X7X7X7X7X7X7X7X7X7X7X7X7X7X7X7X7X",
"7X7X7X7X7X7X7X7X7X7X7X7X7X7X7X7X7Xz.c.s.p.<.&.$.).{.h.*.P b Y r 9 * 7X7X7X7X7X7X7X7X7X7X7X7X7X7X7X7X7X7X7X7X7X7X7X7X7X7X7X7X7X7X",
"7X7X7X7X7X7X7X7X7X7X7X7X7X7X7X7X7Xl.v v a 7Xt.<X6X-Xc.$.x / P < # 7X7X7X7X7X7X7X7X7X7X7X7X7X7X7X7X7X7X7X7X7X7X7X7X7X7X7X7X7X7X7X",
"7X7X7X7X7X7X7X7X7X7X7X7X7X7X7X7X7X7Xl 0.y e R.6X6X,Xc.=.E s P < > o 7X7X7X7X7X7X7X7X7X7X7X7X7X7X7X7X7X7X7X7X7X7X7X7X7X7X7X7X7X7X",
"7X7X7X7X7X7X7X7X7X7X7X7X7X7X7X7X7X7Xx 0 O ;.$X6X2X@Xv.,.c 8.8.y a p 7X7X7X7X7X7X7X7X7X7X7X7X7X7X7X7X7X7X7X7X7X7X7X7X7X7X7X7X7X7X",
"7X7X7X7X7X7X7X7X7X7X7X7X7X7X7X7X7X7X! - 7Xy.;X6X-X-XK.p.N A Q 9 ` > 7X7X7X7X7X7X7X7X7X7X7X7X7X7X7X7X7X7X7X7X7X7X7X7X7X7X7X7X7X7X",
"7X7X7X7X7X7X7X7X7X7X7X7X7X7X7X7X7X7X7X7X7XY.<X6X=X-XK.c.s.b 8.> < ; 7X7X7X7X7X7X7X7X7X7X7X7X7X7X7X7X7X7X7X7X7X7X7X7X7X7X7X7X7X7X",
"7X7X7X7X7X7X7X7X7X7X7X7X7X7X7X7X7X7X7X7X..~.5X2X-X+X).(.c.E c i   # 7X7X7X7X7XK.s.c @.m 7X7X7X7X7X7X7X7X7X7X7X7X7X7X7X7X7X7X7X7X",
"7X7X7X7X7X7X7X7X7X7X7X7X7X7X7X7X7X7X7X7X;.`.%X1X,X,X-XK.h.=.#.=.N l l m N N N h.v.6.#.e 7X7X7X7X7X7X7X7X7X7X7X7X7X7X7X7X7X7X7X7X",
"7X7X7X7X7X7X7X7X7X7X7X7X7X7X7X7X7X7X7X..l.'.$X5X6X,XXXQ.h.p.s.v.k.k.s.v.(.(.c.s.@.u B v.M 7X7X7X7X7X7X7X7X7X7X7X7X7X7X7X7X7X7X7X",
"7X7X7X7X7X7X7X7X7X7X7X7X7X7X7X7X7X7X7XO.Y.}.5X6X6X+X=X(.w.,.).!.!.K.K.K.XX>X{._.c.=.e t.b.c 7X7X7X7X7X7X7X7X7X7X7X7X7X7X7X7X7X7X",
"7X7X7X7X7X7X7X7X7X7X7X7X7X7X7X7X7X7X7X..Y.}.4X6X6X6X>Xh.E v.@X.X_.).).!.)._.XX+X!.K.S 6 z.6.7X7X7X7X7X7X7X7X7X7X7X7X7X7X7X7X7X7X",
"7X7X7X7X7X7X7X7X7X7X7X7X7X7X7X7X7X7X7Xn i.}.5X2X2X3XV.N ,._.-X-XXX_.!.K.K.K.*X2XK.).,.% n W.e 7X7X7X7X7X7X7X7X7X7X7X7X7X7X7X7X7X",
"7X7X7X7X7X7X7X7X7X7X7X7X7X7X7X7X7X7X<.u...t.&X5X3X).3.N c./..X-X{.).K.v.c.V.oX6X!.Q.w.6 w W.#.7X7X7X7X7X7X7X7X7X7X7X7X7X7X7X7X7X",
"7X7X7X7X7X7X7X7X7X7X7X7X7X7X7X7X7X&.).:Xt.;.<X5X_.h.l >.n.`.oX(.!.k.k.6.,.V.oX3X!.s.w.7 7XT.g.7X7X7X7X7X7X7X7X7X7X7X7X7X7X7X7X7X",
"7X7X7X7X7X7X7X7X7X7X7X7X7X7X7X7X1.[.-X3Xb.n.5X.Xx.k h :.x.`.^.V.v.6.w.#.@.K.[.oXK.w.2.% 7X7XW.7X7X7X7X7X7X7X7X7X7X7X7X7X7X7X7X7X",
"7X7X7X7X7X7X7X7X7X7X7X7X7X7X7X+.|.2XV.f.B %X%XW.u $ q N i.z.l.f.1.&.m u $.^.}.oXK.w.N & 7X7X}.e 7X7X7X7X7X7X7X7X7X7X7X7X7X7X7X7X",
"7X7X7X7X7X7X7X7X7X7X7X7X7X7X7X:.Y.y.*.u W.4X/.k   7X7Xw n +.;.+.n g 6 5 ;.'.%X%Xk.,.z & 7X7X;XM 7X7X7X7X7X7X7X7X7X7X7X7X7X7X7X7X",
"7X7X7X7X7X7X7X7X7X7X7X7X7X7X7X7Xt.l.7.k.2X XS   7X7X7X7X7X$ 4 $ $ + @ 4 g Y.$X}.c.#.e + 7X7X$X6.7X7X7X7X7X7X7X7X7X7X7X7X7X7X7X7X",
"7X7X7X7X7X7X7X7X7X7X7X7X7X7X7X7X..Y.V.].[.6.: 7X7X7X7X7X7X7X7X7X7X7X7X5 5 j ~. Xk.=.m 5 7X7X{.j.7X7X7X7X7X7X7X7X7X7X7X7X7X7X7X7X",
"7X7X7X7X7X7X7X7X7X7X7X7X7X7X7X7X7X;.~.R.p.Q ^ Z 7X7X7X7X7X7X7X7X7X7X7X7Xq h n d.f.2.M & 7X7XJ.4.7X7X7X7X7X7X7X7X7X7X7X7X7X7X7X7X",
"7X7X7X7X7X7X7X7X7X7X7X7X7X7X7X7X7X7XX.:.c.L.J.M.- 7X7X7X7X7X7X7X7X7X7X7X7Xo.,.g X.&.@.u u 7X9.` f 7X7X7X7X7X7X7X7X7X7X7X7X7X7X7X",
"7X7X7X7X7X7X7X7X7X7X7X7X7X7X7X7X7X7X7Xj n.L.H.H.0.7X7X7X7X7X7X7X7X7X7X7X7X;.`.u.+ n p.2.S P U ( ( 7X7X7X7X7X7X7X7X7X7X7X7X7X7X7X",
"7X7X7X7X7X7X7X7X7X7X7X7X7X7X7X7X7X7X7X7X<.Z.9.W R 7X7X7X7X7X7X7X7X7X7X7X7X`.;Xy.  q ;.{.&.b U N.W 7.7X7X7X7X7X7X7X7X7X7X7X7X7X7X",
"7X7X7X7X7X7X7X7X7X7X7X7X7X7X7X7X7X7X7X7Xn l.A f 3 7X7X7X7X7X7X7X7X7X7X7XT.5X[.l 7X7Xl.*X#.4.I U U , 7X7X7X7X7X7X7X7X7X7X7X7X7X7X",
"7X7X7X7X7X7X7X7X7X7X7X7X7X7X7X7X7X7X7X7X7Xg.>XI.J 7X7X7X7X7X7X7X7X7X7Xt.1X>Xf.% 7X7XR.:XE 7 Q 9.P 7X7X7X7X7X7X7X7X7X7X7X7X7X7X7X",
"7X7X7X7X7X7X7X7X7X7X7X7X7X7X7X7X7X7X7X7X7XV P.I.2 7X7X7X7X7X7X7X7X7X7X}.6X).M.. 7X7X'.%X5.p ^ 7.i 7X7X7X7X7X7X7X7X7X7X7X7X7X7X7X",
"7X7X7X7X7X7X7X7X7X7X7X7X7X7X7X7X7X7X7X7X7XX V 2 7X7X7X7X7X7X7X7X7X7Xy.<XXXr.S.7X7X7X%X{.q.a 7XY ` 7X7X7X7X7X7X7X7X7X7X7X7X7X7X7X",
"7X7X7X7X7X7X7X7X7X7X7X7X7X7X7X7X7X7X7X7X7X7X3 = 7X7X7X7X7X7X7X7X7X' r..XZ.0 8 7X7Xy.<X6.~ a 7XW P.7X7X7X7X7X7X7X7X7X7X7X7X7X7X7X",
"7X7X7X7X7X7X7X7X7X7X7X7X7X7X7X7X7X7X7X7X7X7X7X7X7X7X7X7X7X7X7X7X1 A.U.m.C : > 7X7XV.Q.4.7.p 7X7X#X7X7X7X7X7X7X7X7X7X7X7X7X7X7X7X",
"7X7X7X7X7X7X7X7X7X7X7X7X7X7X7X7X7X7X7X7X7X7X7X7X7X7X7X7X7X7X7X7X7X) m.K 2 7X7X7XK _ T ^ i < O 7X7X7X7X7X7X7X7X7X7X7X7X7X7X7X7X7X",
"7X7X7X7X7X7X7X7X7X7X7X7X7X7X7X7X7X7X7X7X7X7X7X7X7X7X7X7X7X7X7X7X7X7X7X7X7X7X7X, A.P.H 2 7X7.7X7X7X7X7X7X7X7X7X7X7X7X7X7X7X7X7X7X",
"7X7X7X7X7X7X7X7X7X7X7X7X7X7X7X7X7X7X7X7X7X7X7X7X7X7X7X7X7X7X7X7X7X7X7X7X7X7X7X7X7X7X7X7X7X7X7X7X7X7X7X7X7X7X7X7X7X7X7X7X7X7X7X7X"
};
