/* XPM */
static char *result[] = {
/* columns rows colors chars-per-pixel */
"64 64 215 2 ",
"   c #1C1B1A",
".  c #342717",
"X  c #1E1E23",
"o  c #262526",
"O  c #342C26",
"+  c #393225",
"@  c #363537",
"#  c #2A2837",
"$  c #473A26",
"%  c #463E39",
"&  c #4B4433",
"*  c #524632",
"=  c #544B3B",
"-  c #544833",
";  c #625139",
":  c #715632",
">  c #3B3A49",
",  c #403D43",
"<  c #4B4947",
"1  c #474748",
"2  c #5C5546",
"3  c #4D4C5A",
"4  c #474654",
"5  c #585555",
"6  c #585757",
"7  c #514E52",
"8  c #645A46",
"9  c #645D5C",
"0  c #745F43",
"q  c #6B614C",
"w  c #77674A",
"e  c #69665C",
"r  c #786C56",
"t  c #7E7157",
"y  c #585665",
"u  c #615E6E",
"i  c #625F71",
"p  c #646362",
"a  c #6A6868",
"s  c #7B7467",
"d  c #646273",
"f  c #6D6C73",
"g  c #757273",
"h  c #7D7B7A",
"j  c #797673",
"k  c #716F77",
"l  c #91632B",
"z  c #946D3B",
"x  c #936A33",
"c  c #987648",
"v  c #86775B",
"b  c #917B55",
"n  c #876E49",
"m  c #A77F4C",
"M  c #887B65",
"N  c #837E79",
"B  c #B4863F",
"V  c #CDAB3F",
"C  c #F1B835",
"Z  c #F7C82D",
"A  c #FFDD23",
"S  c #FCD62A",
"D  c #FDDA3B",
"F  c #FDDB30",
"G  c #F3C13B",
"H  c #9A835B",
"J  c #A98543",
"K  c #BD995D",
"L  c #B09251",
"P  c #998765",
"I  c #86847E",
"U  c #998D71",
"Y  c #A4916A",
"T  c #AC996C",
"R  c #AA9566",
"E  c #B89B66",
"W  c #A59779",
"Q  c #B1946A",
"!  c #BAA369",
"~  c #B7A579",
"^  c #C6A355",
"/  c #F0BD48",
"(  c #C9AB67",
")  c #C5AE74",
"_  c #C8B37A",
"`  c #D7B977",
"'  c #D8B46C",
"]  c #E4BE60",
"[  c #F3CA57",
"{  c #F8D559",
"}  c #F5CF4E",
"|  c #DFC476",
" . c #F9DA69",
".. c #F6D978",
"X. c #EAC66E",
"o. c #FDE37A",
"O. c #7E7C8A",
"+. c #797684",
"@. c #716F81",
"#. c #817E84",
"$. c #807F91",
"%. c #868380",
"&. c #8A8686",
"*. c #8C8985",
"=. c #86848D",
"-. c #8C898B",
";. c #918E89",
":. c #93918E",
">. c #9E9589",
",. c #8B8896",
"<. c #979393",
"1. c #999594",
"2. c #9D9A96",
"3. c #97949C",
"4. c #928D91",
"5. c #A59A85",
"6. c #A39E9A",
"7. c #B4A488",
"8. c #A5A29E",
"9. c #ADA69A",
"0. c #BCAD98",
"q. c #BAB09F",
"w. c #9E9AAC",
"e. c #9995A4",
"r. c #A39FA8",
"t. c #A5A2A1",
"y. c #AAA5A3",
"u. c #ABA9A5",
"i. c #AEABAA",
"p. c #A7A3AD",
"a. c #B2AEAA",
"s. c #B1A8A7",
"d. c #B5B2AD",
"f. c #BAB5A9",
"g. c #ACA9B8",
"h. c #ABA8B3",
"j. c #B0ADB4",
"k. c #B9B6B4",
"l. c #BDBAB5",
"z. c #BAB5BB",
"x. c #BFBBBA",
"c. c #B6B2B4",
"v. c #C0AB8D",
"b. c #CCB889",
"n. c #C7B995",
"m. c #CCB48E",
"M. c #C3BCA8",
"N. c #C2BDBB",
"B. c #C2ACA2",
"V. c #D4C497",
"C. c #DDC78D",
"Z. c #E4CE8C",
"A. c #F6DB84",
"S. c #E7D291",
"D. c #F4DB93",
"F. c #F9E18C",
"G. c #F9E081",
"H. c #F8E399",
"J. c #C8C2BB",
"K. c #D1C7B8",
"L. c #E6D5A6",
"P. c #F5DDA3",
"I. c #EBD9B2",
"U. c #ECD6BD",
"Y. c #F7E4A5",
"T. c #F8E7B6",
"R. c #EFE0A7",
"E. c #B9B6C4",
"W. c #BDB9C4",
"Q. c #B5B3C2",
"!. c #C0BCC4",
"~. c #CAC6C4",
"^. c #CDC9C6",
"/. c #C7C4CC",
"(. c #CECBCC",
"). c #C7C5C8",
"_. c #D1CCCA",
"`. c #D5CCC5",
"'. c #D6D1C7",
"]. c #C7C3D1",
"[. c #CECAD4",
"{. c #C8C2D0",
"}. c #D4CED6",
"|. c #D6D3D1",
" X c #DAD4D2",
".X c #DDDAD6",
"XX c #DDDADB",
"oX c #D9D6DB",
"OX c #E5DAC7",
"+X c #E1DEDC",
"@X c #ECE2C9",
"#X c #F8E9C5",
"$X c #FCF3CA",
"%X c #E5E1DE",
"&X c #EBE1D2",
"*X c #F3E7D4",
"=X c #FCF4D9",
"-X c #DDD8E4",
";X c #E2DCE4",
":X c #E6E2E4",
">X c #EAE4E3",
",X c #EDE9EB",
"<X c #EBE8E6",
"1X c #F2EDEC",
"2X c #F5ECE5",
"3X c #FDFBEA",
"4X c #FAF4E8",
"5X c #EDE9F3",
"6X c #F2EEF3",
"7X c #F6F3F4",
"8X c #FAF6F5",
"9X c #FCF9F3",
"0X c #FAF6FA",
"qX c #FDFDFC",
"wX c None",
/* pixels */
"wXwXwXwXwXwXwXwXwXwXwXwXwXwXwXwXwXwXwXwXwXwXwXwXwXwXwXwXwXwXwXwXwXwXwXwXwXwXwXwXwXwXwXwXwXwXwXwXwXwXwXwXwXwXwXwXwXwXwXwXwXwXwXwX",
"wXwXwXwXwXwXwXwXwXwXwXwXwXwXwXwXwXwXwXwXwXwXA wXwXwXwXwXwXwXwXwXwXwXwXwXwXwXwXwXwXwXwXwXwXwXwXwXwXwXwXwXwXwXwXwXwXwXwXwXwXwXwXwX",
"wXwXwXwXwXwXwXwXwXwXwXwXwXwXwXwXwXwXwXwXwXwXwXwXwXwXwXwXwXwXwXwXwXwXwXwXwXwXwXwXwXwXwXwXwXwXwXwXwXwXwXwXwXwXwXwXwXwXwXwXwXwXwXwX",
"wXwXwXwXwXwXwXwXwXwXwXwXwXwXwXwXwXwXwXwXwXwXwXA wXwXwXwXwXwXwXwXwXwXwXwXwXwXwXwXwXwXwXwXwXwXwXwXwXwXwXwXwXwXwXwXwXwXwXwXwXwXwXwX",
"wXwXwXwXwXwXwXwXwXwXwXwXwXwXwXwXwXwXwXwXwXwXwXA wXwXA wXwXwXwXwXwXwXwXwXwXwXwXwXwXwXwXwXwXwXwXwXwXwXwXwXwXwXwXwXwXwXwXwXwXwXwXwX",
"wXwXwXwXwXwXwXwXwXwXwXwXwXwXwXwXwXwXwXwXwXwXwXwX} wXZ wXA wXwXwXwXwXwXwXwXwXwXwXwXwXwXwXwXwXwXwXwXwXwXwXwXwXwXwXwXwXwXwXwXwXwXwX",
"wXwXwXwXwXwXwXwXwXwXwXwXwXwXwXwXwXwXwXwXwXwXwXwXF.o.} wXwXwXwXwXwXwXwXwXwXwXwXwXwXwXwXwXwXwXwXwXwXwXwXwXwXwXwXwXwXwXwXwXwXwXwXwX",
"wXwXwXwXwXwXwXwXwXwXwXwXwXwXwXwXwXwXwXwXwXwXwX[ #X*XH.wXwX{ wXwXwXwXwXwXwXwXwXwXwXwXwXwXwXwXwXwXwXwXwXwXwXwXwXwXwXwXwXwXwXwXwXwX",
"wXwXwXwXwXwXwXwXwXwXwXwXwXwXwXwXwXwXwXwXwXwXA.Y.$X3X4X..F.wXwXwXA wXwXwXwXwXwXwXwXwXwXwXwXwXwXwXwXwXwXwXwXwXwXwXwXwXwXwXwXwXwXwX",
"wXwXwXwXwXwXwXwXwXwXwXwXwXwXwXwXwXwXwXZ wXwXwXY.4X1XqX$X . .{ F wXwXwXwXwXwXwXwXwXwXwXwXwXwXwXwXwXwXwXwXwXwXwXwXwXwXwXwXwXwXwXwX",
"wXwXwXwXwXwXwXwXwXwXwXwXwXwXwXwXwXwXwXwXD ..A.D.*XqXqX3XH.wXwXwXwXwXwXwXwXwXwXwXwXwXwXwXwXwXwXwXwXwXwXwXwXwXwXwXwXwXwXwXwXwXwXwX",
"wXwXwXwXwXwXwXwXwXwXwXwXwXwXwXwXwXwXwXwXwXwXwXA.#X7X8X3XF.F. .G wXwXwXA A wXwXwXwXwXwXwXwXwXwXwXwXwXwXwXwXwXwXwXwXwXwXwXwXwXwXwX",
"wXwXwXwXwXwXwXwXwXwXwXwXwXwXwXwXwXwXwXwX/  .F.F.#X8XqXqXT. .wXwXwXwXwXwXwXwXwXwXwXwXwXwXwXwXwXwXwXwXwXwXwXwXwXwXwXwXwXwXwXwXwXwX",
"wXwXwXwXwXwXwXwXwXwXwXwXwXwXwXwXwXwXS A Z wXwXo.T.9X1X9XH.o.o.D wXwXwXwXwXwXwXwXwXwXwXwXwXwXwXwXwXwXwXwXwXwXwXwXwXwXwXwXwXwXwXwX",
"wXwXwXwXwXwXwXwXwXwXwXwXwXwXwXwXwXwXwXwXA F A. .F.8XqXqXT.{ [ wXwXwXwXwXwXwXwXwXwXwXwXwXwXwXwXwXwXwXwXwXwXwXwXwXwXwXwXwXwXwXwXwX",
"wXwXwXwXwXwXwXwXwXwXwXwXwXwXwXwXwXwXwXwXwXC wXD Y.OX8XqX$Xo.} Z S A wXwXwXwXwXwXwXwXwXwXwXwXwXwXwXwXwXwXwXwXwXwXwXwXwXwXwXwXwXwX",
"wXwXwXwXwXwXwXwXwXwXwXwXwXwXwXwXwXwXwXwXwXwXwX..H.I.2X2XY.A.wXwXwXwXwXwXwXwXwXwXwXwXwXwXwXwXwXwXwXwXwXwXwXwXwXwXwXwXwXwXwXwXwXwX",
"wXwXwXwXwXwXwXwXwXwXwXwXwXwXwXwXwXwXwXA wXwXwXwXwX| 2XT...wXo.wXwXwXwXwXwXwXwXwXwXwXwXwXwXwXwXwXwXwXwXwXwXwXwXwXwXwXwXwXwXwXwXwX",
"wXwXwXwXwXwXwXwXwXwXwXwXwXwXwXwXwXwXwXwXwXwXwX} wXwXP.V.( n V A wXwXwXwXwXwXwXwXwXwXwXwXwXwXwXwXwXwXwXwXwXwXwXwXwXwXwXwXwXwXwXwX",
"wXwXwXwXwXwXwXwXwXwXwXwXwXwXwXwXwXwXwXwXwXwXS wX* B.' &XV.m.) L wXwXwXwXwXwXwXwXwXwXwXwXwXwXwXwXwXwXwXwXwXwXwXwXwXwXwXwXwXwXwXwX",
"wXwXwXwXwXwXwXwXwXwXwXwXwXwXwXwXwXwXwXwXwXwXwXwXT T.D.=Xb.` P.J z wXwXwXwXwXwXwXwXwXwXwXwXwXwXwXwXwXwXwXwXwXwXwXwXwXwXwXwXwXwXwX",
"wXwXwXwXwXwXwXwXwXwXwXwXwXwXwXwXwXwXwXwXwXwXwXwXm m U.4Xm.( R.Q l c 8 wXwXwXwXwXwXwXwXwXwXwXwXwXwXwXwXwXwXwXwXwXwXwXwXwXwXwXwXwX",
"wXwXwXwXwXwXwXwXwXwXwXwXwXwXwXwXwXwXwXwXwXwXwXwXK 5.P.$Xn.] Z.` m B ; wXwXwXwXwXwXwXwXwXwXwXwXwXwXwXwXwXwXwXwXwXwXwXwXwXwXwXwXwX",
"wXwXwXwXwXwXwXwXwXwXwXwXwXwXwXwXwXwXwXwXwXwX-.M.`.<.-.$XK.7.| ( X.K x v wXwXwXwXwXwXwXwXwXwXwXwXwXwXwXwXwXwXwXwXwXwXwXwXwXwXwXwX",
"wXwXwXwXwXwXwXwXwXwXwXwXwXwXwXwXwXwXwXwX5.K.1XqX0X).~.$XOXK.W ` K E ) w wXwXwXwXwXwXwXwXwXwXwXwXwXwXwXwXwXwXwXwXwXwXwXwXwXwXwXwX",
"wXwXwXwXwXwXwXwXwXwXwXwXwXwXwXwXwXwXwXwXM. X1X9X7X0X%X@XOX+Xd.b.^ A.b.P + wXwXwXwXwXwXwXwXwXwXwXwXwXwXwXwXwXwXwXwXwXwXwXwXwXwXwX",
"wXwXwXwXwXwXwXwXwXwXwXwXwXwXwXwXwXwXwXwXwXwXq.s.E.!._.OX*X;X+X6.V.S.Z.w ; + wXwXwXwXwXwXwXwXwXwXwXwXwXwXwXwXwXwXwXwXwXwXwXwXwXwX",
"wXwXwXwXwXwXwXwXwXwXwXwXwXwXwXwXwXwXwXwXwXwXW W , u z.+X;X,X+X6.0.! ! T q q wXwXwXwXwXwXwXwXwXwXwXwXwXwXwXwXwXwXwXwXwXwXwXwXwXwX",
"wXwXwXwXwXwXwXwXwXwXwXwXwXwXwXwXwXwXwXwXwX9 7.Y $ wXs.;X,X1X+X6.I Y E U + t q wXwXwXwXwXwXwXwXwXwXwXwXwXwXwXwXwXwXwXwXwXwXwXwXwX",
"wXwXwXwXwXwXwXwXwXwXwXwXwXwXwXwXwXwXwXwXwXV.r + wXwX!.5X1X1X_.6.;.Q H P $ & wXwXwXwXwXwXwXwXwXwXwXwXwXwXwXwXwXwXwXwXwXwXwXwXwXwX",
"wXwXwXwXwXwXwXwXwXwXwXwXwXwXwXwXwXwXwXwXwXwX* . wX$.oX0X6X>X`.6.I P ~ n ; ; wXwXwXwXwXwXwXwXwXwXwXwXwXwXwXwXwXwXwXwXwXwXwXwXwXwX",
"wXwXwXwXwXwXwXwXwXwXwXwXwXwXwXwXwXwXwXwXwXwXwXwXwXr.,X0X<X<X~.6.I r T T q r wXwXwXwXwXwXwXwXwXwXwXwXwXwXwXwXwXwXwXwXwXwXwXwXwXwX",
"wXwXwXwXwXwXwXwXwXwXwXwXwXwXwXwXwXwXwXwXwXwXwXwXk E.6X0X%X+Xl.9.%.M ~ ~ ; q P wXwXwXwXwXwXwXwXwXwXwXwXwXwXwXwXwXwXwXwXwXwXwXwXwX",
"wXwXwXwXwXwXwXwXwXwXwXwXwXwXwXwXwXwXwXwXwXwXwX3.t.W.^..X X.X~.l.1.e M W >.r wXwXwXwXwXwXwXwXwXwXwXwXwXwXwXwXwXwXwXwXwXwXwXwXwXwX",
"wXwXwXwXwXwXwXwXwXwXwXwXwXwXwXwXwXwXwXwXwXwX,.z.j.).>X2X2X%X Xy.<.6 v Y 8 O wXwXwXwXwXwXwXwXwXwXwXwXwXwXwXwXwXwXwXwXwXwXwXwXwXwX",
"wXwXwXwXwXwXwXwXwXwXwXwXwXwXwXwXwXt.d.a.h =.O.e.j.:X9XqX<X'._.6.&.p 5 & U wXwXwXwXwXwXwXwXwXwXwXwXwXwXwXwXwXwXwXwXwXwXwXwXwXwXwX",
"wXwXwXwXwXwXwXwXwXwXwXwXwXwXwXwXO.-X5X^.a.l.r.,.w.:XqX8X<X%XJ.6.;.I g < O wXwXwXwXwXwXwXwXwXwXwXwXwXwXwXwXwXwXwXwXwXwXwXwXwXwXwX",
"wXwXwXwXwXwXwXwXwXwXwXwXwXwXwXwXg.6X/.3.k.J.t.j.z./.<X7X9X X2.g :.k.8.*.p 1 wXwXwXwXwXwXwXwXwXwXwXwXwXwXwXwXwXwXwXwXwXwXwXwXwXwX",
"wXwXwXwXwXwXwXwXwXwXwXwXwXwXwXwXE.0X9.J.%X~.~.%X9XqX0X7X_.2.a 8.^.|.l.u.2.%.%.g 5 g 1.g wXwXwXwXwXwXwXwXwXwXwXwXwXwXwXwXwXwXwXwX",
"wXwXwXwXwXwXwXwXwXwXwXwXwXwXwXwX].0X7.N.l.8.8.).XX7X<X^.<.a a.%X%X.X|.N.i.8.u.J.y.I I h g a wXwXwXwXwXwXwXwXwXwXwXwXwXwXwXwXwXwX",
"wXwXwXwXwXwXwXwXwXwXwXwXwXwXwXwX].XXN s.N.m.M u ,.r.1.h 6 3.|.,X%X1X.X_.k.d.d._.'.l.*.e g 5 wXwXwXwXwXwXwXwXwXwXwXwXwXwXwXwXwXwX",
"wXwXwXwXwXwXwXwXwXwXwXwXwXwXwXwXw.:X&XB.`.L.S.P wX4 3 y -.z.XX6X4X%X.X^.x.d.k.l.|.|.d.j p 6.wXwXwXwXwXwXwXwXwXwXwXwXwXwXwXwXwXwX",
"wXwXwXwXwXwXwXwXwXwXwXwXwXwXwXwXwXJ.L.v.`._ K v wXwX> i e.W.-X:XoX.X_.N.J.a.i.J.1X%Xl.t.7 z.2.wXwXwXwXwXwXwXwXwXwXwXwXwXwXwXwXwX",
"wXwXwXwXwXwXwXwXwXwXwXwXwXwXwXwXwXw : p z.5.z l wXwXwX3 O.g.[.[.(.).l.N.a.8.a.^.7X+Xx.d.7 3.(.wXwXwXwXwXwXwXwXwXwXwXwXwXwXwXwXwX",
"wXwXwXwXwXwXwXwXwXwXwXwXwXwXwXwXwXwX: wXN.3XT.m wXwXwXwXy O.w.g.j.i.i.t.1.<.)..X9X.Xi.u.< y -XI wXwXwXwXwXwXwXwXwXwXwXwXwXwXwXwX",
"wXwXwXwXwXwXwXwXwXwXwXwXwXwXwXwXwXwXwXwXc Z.n.wXwXwXwXwXwX4 d +.=.=.=.N &.z.%X%X,X).8.2.@ wXoXu.wXwXwXwXwXwXwXwXwXwXwXwXwXwXwXwX",
"wXwXwXwXwXwXwXwXwXwXwXwXwXwXwXwXwXwXwXwX. n - wXwXwXwXwXwXwXwX> 4 y 3 3 4.XX,X,X%Xl.t.I   wX-Xx.wXwXwXwXwXwXwXwXwXwXwXwXwXwXwXwX",
"wXwXwXwXwXwXwXwXwXwXwXwXwXwXwXwXwXwXwXwXwXwXwXwXwXwXwXwXwXwXwXwXwX# # 1 +.-X0XqX.Xd.:.< X wXW.(.wXwXwXwXwXwXwXwXwXwXwXwXwXwXwXwX",
"wXwXwXwXwXwXwXwXwXwXwXwXwXwXwXwXwXwXwXwXwXwXwXwXwXwXwXwXwXwXwXwXwXwX, 3 f {.6X,X^.t.e o wXwXwX[.wXwXwXwXwXwXwXwXwXwXwXwXwXwXwXwX",
"wXwXwXwXwXwXwXwXwXwXwXwXwXwXwXwXwXwXwXwXwXwXwXwXwXwXwXwXwXwXwXwXwXwX3 d y e.6X:XN.h @ o wXwXwX|.wXwXwXwXwXwXwXwXwXwXwXwXwXwXwXwX",
"wXwXwXwXwXwXwXwXwXwXwXwXwXwXwXwXwXwXwXwXwXwXwXwXwXwXwXwXwXwXwXwXwXwXwXO.e.f W.[.u.;.@ wXwXwXwX^.wXwXwXwXwXwXwXwXwXwXwXwXwXwXwXwX",
"wXwXwXwXwXwXwXwXwXwXwXwXwXwXwXwXwXwXwXwXwXwXwXwXwXwXwXwXwXwXwXwXwXwXwX@.W.t.k p.u.*.1 wXwXwXwXl.wXwXwXwXwXwXwXwXwXwXwXwXwXwXwXwX",
"wXwXwXwXwXwXwXwXwXwXwXwXwXwXwXwXwXwXwXwXwXwXwXwXwXwXwXwXwXwXwXwXwXwXwXwXQ.oXI d 3.:.7 wXwXW M *.wXwXwXwXwXwXwXwXwXwXwXwXwXwXwXwX",
"wXwXwXwXwXwXwXwXwXwXwXwXwXwXwXwXwXwXwXwXwXwXwXwXwXwXwXwXwXwXwXwXwXwXwXwXQ.-X;.o ,.c.-.9 b 0.H t wXwXwXwXwXwXwXwXwXwXwXwXwXwXwXwX",
"wXwXwXwXwXwXwXwXwXwXwXwXwXwXwXwXwXwXwXwXwXwXwXwXwXwXwXwXwXwXwXwXwXwXwXg.,X[.p wXi W.k.r ! L Y ; wXwXwXwXwXwXwXwXwXwXwXwXwXwXwXwX",
"wXwXwXwXwXwXwXwXwXwXwXwXwXwXwXwXwXwXwXwXwXwXwXwXwXwXwXwXwXwXwXwXwXwX$.;X6Xt.@ wXwX].x.e T ~ b - wXwXwXwXwXwXwXwXwXwXwXwXwXwXwXwX",
"wXwXwXwXwXwXwXwXwXwXwXwXwXwXwXwXwXwXwXwXwXwXwXwXwXwXwXwXwXwXwXwXwXi [.qX|.g wXwXwX-X(.1 wXwXO wXwXwXwXwXwXwXwXwXwXwXwXwXwXwXwXwX",
"wXwXwXwXwXwXwXwXwXwXwXwXwXwXwXwXwXwXwXwXwXwXwXwXwXwXwXwXwXwXwXwXwXw.0X,Xf.M wXwXe.6Xd.r wXwXwXwXwXwXwXwXwXwXwXwXwXwXwXwXwXwXwXwX",
"wXwXwXwXwXwXwXwXwXwXwXwXwXwXwXwXwXwXwXwXwXwXwXwXwXwXwXwXwXwXwXwXwX[.1Xn.b.T wXwXE.0XM.P & wXwXwXwXwXwXwXwXwXwXwXwXwXwXwXwXwXwXwX",
"wXwXwXwXwXwXwXwXwXwXwXwXwXwXwXwXwXwXwXwXwXwXwXwXwXwXwXwXwXwXwXB ~ `.`.Y 2 = wXwX!.oXW Y wXwXwXwXwXwXwXwXwXwXwXwXwXwXwXwXwXwXwXwX",
"wXwXwXwXwXwXwXwXwXwXwXwXwXwXwXwXwXwXwXwXwXwXwXwXwXwXwXwXwXwXwXH Y.L.m t % * wX>.oX5.~ b wXwXwXwXwXwXwXwXwXwXwXwXwXwXwXwXwXwXwXwX",
"wXwXwXwXwXwXwXwXwXwXwXwXwXwXwXwXwXwXwXwXwXwXwXwXwXwXwXwXwXwXwXv _ ~ : wXwXwXl E R c Y * $ wXwXwXwXwXwXwXwXwXwXwXwXwXwXwXwXwXwXwX",
"wXwXwXwXwXwXwXwXwXwXwXwXwXwXwXwXwXwXwXwXwXwXwXwXwXwXwXwXwXwXwXwXwXwXwXwXwXwXR I.( l wXwXP wXwXwXwXwXwXwXwXwXwXwXwXwXwXwXwXwXwXwX",
"wXwXwXwXwXwXwXwXwXwXwXwXwXwXwXwXwXwXwXwXwXwXwXwXwXwXwXwXwXwXwXwXwXwXwXwXwXwXwXwXwXwXwXwXwXwXwXwXwXwXwXwXwXwXwXwXwXwXwXwXwXwXwXwX"
};
