/* XPM */
static char *result[] = {
/* columns rows colors chars-per-pixel */
"64 64 212 2 ",
"   c #171615",
".  c #0E0E0D",
"X  c #362A1A",
"o  c #282627",
"O  c #352E25",
"+  c #35322A",
"@  c #252431",
"#  c #2B2A37",
"$  c #3C3C3B",
"%  c #383533",
"&  c #463116",
"*  c #443A26",
"=  c #533F27",
"-  c #4B412F",
";  c #48433A",
":  c #584B37",
">  c #5B533D",
",  c #5E482B",
"<  c #69583A",
"1  c #6E502C",
"2  c #7E633D",
"3  c #393847",
"4  c #464449",
"5  c #534B49",
"6  c #5D5442",
"7  c #4C4B56",
"8  c #484657",
"9  c #504F5A",
"0  c #545153",
"q  c #585754",
"w  c #59585A",
"e  c #655B49",
"r  c #635E5D",
"t  c #79684C",
"y  c #6D6352",
"u  c #69625C",
"i  c #746953",
"p  c #76695C",
"a  c #7E735B",
"s  c #5E5C6C",
"d  c #595764",
"f  c #6D6B6B",
"g  c #686666",
"h  c #716D68",
"j  c #73706E",
"k  c #7C7467",
"l  c #6D6B72",
"z  c #666474",
"x  c #767371",
"c  c #7C7B78",
"v  c #716E7F",
"b  c #865F2C",
"n  c #87622D",
"m  c #866437",
"M  c #946F36",
"N  c #AB7E3B",
"B  c #95774A",
"V  c #84775D",
"C  c #8A7556",
"Z  c #967D55",
"A  c #886E4A",
"S  c #8B7E64",
"D  c #867D69",
"F  c #817E7B",
"G  c #B6883D",
"H  c #C5913C",
"J  c #DFA738",
"K  c #E0B929",
"L  c #FFDD24",
"P  c #FCD62B",
"I  c #FEDD3D",
"U  c #F7CC3E",
"Y  c #9B845D",
"T  c #998354",
"R  c #AB8F57",
"E  c #9D8A66",
"W  c #9A8B6B",
"Q  c #968566",
"!  c #888179",
"~  c #9D8F73",
"^  c #9E9274",
"/  c #9E947F",
"(  c #A89667",
")  c #B59A68",
"_  c #A39374",
"`  c #A6997C",
"'  c #B2936D",
"]  c #B8A57C",
"[  c #ADA17F",
"{  c #C69042",
"}  c #D8AE56",
"|  c #C5AB77",
" . c #C3AB75",
".. c #F9D547",
"X. c #F7D55A",
"o. c #F6D767",
"O. c #EACB78",
"+. c #F7D97A",
"@. c #E4C561",
"#. c #7E7B83",
"$. c #7A7686",
"%. c #827D8C",
"&. c #858381",
"*. c #898684",
"=. c #8B878B",
"-. c #918D8B",
";. c #928D84",
":. c #94928D",
">. c #9C9387",
",. c #898697",
"<. c #918E98",
"1. c #9A9694",
"2. c #9C9A95",
"3. c #979594",
"4. c #A19D9A",
"5. c #A39F90",
"6. c #A89C88",
"7. c #BCAB8A",
"8. c #B9A784",
"9. c #A4A19D",
"0. c #B8B19A",
"q. c #ADA282",
"w. c #9592A2",
"e. c #9896A2",
"r. c #9E9BA3",
"t. c #9E9BAB",
"y. c #A19EAC",
"u. c #A6A3A2",
"i. c #ABA6A4",
"p. c #AEA9A6",
"a. c #AEABAA",
"s. c #A9A4AA",
"d. c #B2AEAA",
"f. c #B6A9A1",
"g. c #B6B2AE",
"h. c #BEB5A9",
"j. c #AAA5B4",
"k. c #A8A4B2",
"l. c #B3AEB4",
"z. c #B2AEBD",
"x. c #B5B1B3",
"c. c #BAB5B2",
"v. c #BEBAB6",
"b. c #BDBABA",
"n. c #B8B4BC",
"m. c #C2AA86",
"M. c #CDB984",
"N. c #C8BA98",
"B. c #C3B9AA",
"V. c #C2BDBA",
"C. c #D1BBA8",
"Z. c #DBC888",
"A. c #D7C597",
"S. c #F5D888",
"D. c #E3CD95",
"F. c #E3D29C",
"G. c #F3DD98",
"H. c #FBE087",
"J. c #DACBA9",
"K. c #C6C0BE",
"L. c #C8C4BF",
"P. c #E9D8B6",
"I. c #EDDAAE",
"U. c #F6E7AF",
"Y. c #BEBAC3",
"T. c #B8B5C3",
"R. c #C3BEC4",
"E. c #C3BECE",
"W. c #CAC4C4",
"Q. c #CECAC5",
"!. c #C6C3CC",
"~. c #CDCCCB",
"^. c #C6C3C8",
"/. c #D4CCC4",
"(. c #D3CDCB",
"). c #D5D1CC",
"_. c #D8D3CC",
"`. c #CDCAD5",
"'. c #C5C1D1",
"]. c #D2CDD3",
"[. c #D2CDDB",
"{. c #DAD5D3",
"}. c #DDD9D5",
"|. c #D7D2DB",
" X c #DBD7D9",
".X c #DDD9DA",
"XX c #D6D1D4",
"oX c #E1DCD6",
"OX c #E2DDD9",
"+X c #E4D7DA",
"@X c #E0D0CE",
"#X c #F6E7C7",
"$X c #E8E2DB",
"%X c #F4E8D4",
"&X c #F8EDCB",
"*X c #DEDAE2",
"=X c #E1DBE3",
"-X c #E9DFEA",
";X c #E6E2E3",
":X c #EAE4E3",
">X c #EDEAE6",
",X c #EEEAE9",
"<X c #E6E1EA",
"1X c #F3EDEC",
"2X c #FAF6EC",
"3X c #EFEBF2",
"4X c #F6F3F4",
"5X c #F8F6F9",
"6X c #FDFBFB",
"7X c #F9F5F4",
"8X c #F2EDF1",
"9X c None",
/* pixels */
"9X9X9X9X9X9X9X9X9X9X9X9X9X9X9X9X9X9X9X9X9X9X9X9X9X9X9X9X9X9X9X9X9X9X9X9X9X9X9X9X9X9X9X9X9X9X9X9X9X9X9X9X9X9X9X9X9X9X9X9X9X9X9X9X",
"9X9X9X9X9X9X9X9X9X9X9X9X9X9X9X9X9X9X9X9X9X9X9X9X9X9X9X9X9X9X9X9X9X9X9X9X9X9X9X9X9X9X9X9X9X9X9X9X9X9X9X9X9X9X9X9X9X9X9X9X9X9X9X9X",
"9X9X9X9X9X9X9X9X9X9X9X9X9X9X9X9X9X9X9X9X9X9X9X9X9X9X9X9X9X9X9X9X9X9X9X9X9X9X9X9X9X9X9X9X9X9X9X9X9X9X9X9X9X9X9X9X9X9X9X9X9X9X9X9X",
"9X9X9X9X9X9X9X9X9X9X9X9X9X9X9X9X9X9X9X9X9X9X9X9X9X9X9X9X9X9X9X9X9X9X9X9X9X9X9X9X9X9X9X9X9X9X9X9X9X9X9X9X9X9X9X9X9X9X9X9X9X9X9X9X",
"9X9X9X9X9X9X9X9X9X9X9X9X9X9X9X9X9X9X9X9X9X9X9X9X9X9X9X9X9X9X9X9X9X9X9X9X9X9X9X9X9X9X9X9X9X9X9X9X9X9X9X9X9X9X9X9X9X9X9X9X9X9X9X9X",
"9X9X9X9X9X9X9X9X9X9X9X9X9X9X9X9X9X9X9X9X9X9X9X9X9X9X9X9X9X9X9X9X9X9X9X9X9X9X9X9X9X9X9X9X9X9X9X9X9X9X9X9X9X9X9X9X9X9X9X9X9X9X9X9X",
"9X9X9X9X9X9X9X9X9X9X9X9X9X9X9X9X9X9X9X9X9X9X9X9X9X9X9X9X9X9X9X9X9X9X9X9X9X9X9X9X9X9X9X9X9X9X9X9X9X9X9X9X9X9X9X9X9X9X9X9X9X9X9X9X",
"9X9X9X9X9X9X9X9X9X9X9X9X9X9X9X9X9X9X9X9X9X9X9X9X9X9X9X9X9X9X9X9X9X9X9X9X9X9X9X9X9X9X9X9X9X9X9X9X9X9X9X9X9X9X9X9X9X9X9X9X9X9X9X9X",
"9X9X9X9X9X9X9X9X9X9X9X9X9X9X9X9X9X9X9X9X9X9X9X9X9X9X9X9X9X9X9X9X9X9X9X9X9X9X9X9X9X9X9X9X9X9X9X9X9X9X9X9X9X9X9X9X9X9X9X9X9X9X9X9X",
"9X9X9X9X9X9X9X9X9X9X9X9X9X9X9X9X9X9X9X9X9X9X9X9X9X9X9X9X9X9X9X9X9X9X9X9X9X9X9X9X9X9X9X9X9X9X9X9X9X9X9X9X9X9X9X9X9X9X9X9X9X9X9X9X",
"9X9X9X9X9X9X9X9X9X9X9X9X9X9X9X9X9X9X9X9X9XL 9X9X9X9X9X9X9X9X9X9X9X9X9X9X9X9X9X9X9X9X9X9X9X9X9X9X9X9X9X9X9X9X9X9X9X9X9X9X9X9X9X9X",
"9X9X9X9X9X9X9X9X9X9X9X9X9X9X9X9X9X9X9Xo.o...9X9X9X9X9X9X9X9X9X9X9X9X9X9X9X9X9X9X9X9X9X9X9X9X9X9X9X9X9X9X9X9X9X9X9X9X9X9X9X9X9X9X",
"9X9X9X9X9X9X9X9X9X9X9X9X9X9X9X9X9X9XL 9X#X&X9XI 9X9X9X9X9X9X9X9X9X9X9X9X9X9X9X9X9X9X9X9X9X9X9X9X9X9X9X9X9X9X9X9X9X9X9X9X9X9X9X9X",
"9X9X9X9X9X9X9X9X9X9X9X9X9X9X9X9X9X9X9XS.:X7X+.9X9X9X9X9X9X9X9X9X9X9X9X9X9X9X9X9X9X9X9X9X9X9X9X9X9X9X9X9X9X9X9X9X9X9X9X9X9X9X9X9X",
"9X9X9X9X9X9X9X9X9X9X9X9X9X9X9X9X9X9X9X9XP.7XU.o...9X9X9X9X9X9X9X9X9X9X9X9X9X9X9X9X9X9X9X9X9X9X9X9X9X9X9X9X9X9X9X9X9X9X9X9X9X9X9X",
"9X9X9X9X9X9X9X9X9X9X9X9X9X9X9X9X9X9XI X.U.=X2X+.9X9X9X9X9X9X9X9X9X9X9X9X9X9X9X9X9X9X9X9X9X9X9X9X9X9X9X9X9X9X9X9X9X9X9X9X9X9X9X9X",
"9X9X9X9X9X9X9X9X9X9X9X9X9X9X9X9X9X9X9X9XS.%X#XS...L 9X9X9X9X9X9X9X9X9X9X9X9X9X9X9X9X9X9X9X9X9X9X9X9X9X9X9X9X9X9X9X9X9X9X9X9X9X9X",
"9X9X9X9X9X9X9X9X9X9X9X9X9X9X9X9X9X9X9X9XL 2X@X&X9X9X9X9X9X9X9X9X9X9X9X9X9X9X9X9X9X9X9X9X9X9X9X9X9X9X9X9X9X9X9X9X9X9X9X9X9X9X9X9X",
"9X9X9X9X9X9X9X9X9X9X9X9X9X9X9X9X9X9X9X9X9XO.%X%X+.9XP 9X9X9X9X9X9X9X9X9X9X9X9X9X9X9X9X9X9X9X9X9X9X9X9X9X9X9X9X9X9X9X9X9X9X9X9X9X",
"9X9X9X9X9X9X9X9X9X9X9X9X9X9X9X9X9X9X9X9XI @.#XOX&X9X9X9X9X9X9X9X9X9X9X9X9X9X9X9X9X9X9X9X9X9X9X9X9X9X9X9X9X9X9X9X9X9X9X9X9X9X9X9X",
"9X9X9X9X9X9X9X9X9X9X9X9X9X9X9X9X9X9X9X9X9X9Xm.+XG.o.K 9X9X9X9X9X9X9X9X9X9X9X9X9X9X9X9X9X9X9X9X9X9X9X9X9X9X9X9X9X9X9X9X9X9X9X9X9X",
"9X9X9X9X9X9X9X9X9X9X9X9X9X9X9X9X9X9X9X9X9XU Z J.L.) m } J 9X9X9X9X9X9X9X9X9X9X9X9X9X9X9X9X9X9X9X9X9X9X9X9X9X9X9X9X9X9X9X9X9X9X9X",
"9X9X9X9X9X9X9X9X9X9X9X9X9X9X9X9X9X9X9X9X9X< T | | H.Z.B H M 9X9X9X9X9X9X9X9X9X9X9X9X9X9X9X9X9X9X9X9X9X9X9X9X9X9X9X9X9X9X9X9X9X9X",
"9X9X9X9X9X9X9X9X9X9X9X9X9X9X9X9X9X9X9X9X9X9XD.Z.Z.M.C.A { M & e 9X9X9X9X9X9X9X9X9X9X9X9X9X9X9X9X9X9X9X9X9X9X9X9X9X9X9X9X9X9X9X9X",
"9X9X9X9X9X9X9X9X9X9X9X9X9X9X9X9X9X9X9X9X9X_ ) B  .f.J.' } b 1 = 9X9X9X9X9X9X9X9X9X9X9X9X9X9X9X9X9X9X9X9X9X9X9X9X9X9X9X9X9X9X9X9X",
"9X9X9X9X9X9X9X9X9X9X9X9X9X9X9X9X9X9X9X9X9X9X` 4.h.i.f.E D.M H b 1 9X9X9X9X9X9X9X9X9X9X9X9X9X9X9X9X9X9X9X9X9X9X9X9X9X9X9X9X9X9X9X",
"9X9X9X9X9X9X9X9X9X9X9X9X9X9X9X9X9X9X9X9X9X*./.W.*.d.i.5.E ) G 2 2 X 9X9X9X9X9X9X9X9X9X9X9X9X9X9X9X9X9X9X9X9X9X9X9X9X9X9X9X9X9X9X",
"9X9X9X9X9X9X9X9X9X9X9X9X9X9X9X9X9X9X9X9X1.{.7X`.! c.4.p.>.q.^  .T 1 9X9X9X9X9X9X9X9X9X9X9X9X9X9X9X9X9X9X9X9X9X9X9X9X9X9X9X9X9X9X",
"9X9X9X9X9X9X9X9X9X9X9X9X9X9X9X9X9X9X9Xn.>XOX4X1X(.u.4.W.9.;.P.N.) 1 6 O 9X9X9X9X9X9X9X9X9X9X9X9X9X9X9X9X9X9X9X9X9X9X9X9X9X9X9X9X",
"9X9X9X9X9X9X9X9X9X9X9X9X9X9X9X9X9X9X9Xl.V.c.l.j.r.-.K.XXK.;.` k Y A 6 e 9X9X9X9X9X9X9X9X9X9X9X9X9X9X9X9X9X9X9X9X9X9X9X9X9X9X9X9X",
"9X9X9X9X9X9X9X9X9X9X9X9X9X9X9X9X9X9X9XT.=.r D 4 ,. X4X,X).:.j ` C 2 & + 9X9X9X9X9X9X9X9X9X9X9X9X9X9X9X9X9X9X9X9X9X9X9X9X9X9X9X9X",
"9X9X9X9X9X9X9X9X9X9X9X9X9X9X9X9X9X9X9X9X5 Q _ 9Xy.4X6X6X).:.! ^ t m , & 9X9X9X9X9X9X9X9X9X9X9X9X9X9X9X9X9X9X9X9X9X9X9X9X9X9X9X9X",
"9X9X9X9X9X9X9X9X9X9X9X9X9X9X9X9X9X9X9X9X0 u : 0 T.7X6X1X(.2.! ! N.( < A 9X9X9X9X9X9X9X9X9X9X9X9X9X9X9X9X9X9X9X9X9X9X9X9X9X9X9X9X",
"9X9X9X9X9X9X9X9X9X9X9X9X9X9X9X9X9X9X9X9X7.6 X $.XX6X4X$X).9.:.6 Q ` : : ` 9X9X9X9X9X9X9X9X9X9X9X9X9X9X9X9X9X9X9X9X9X9X9X9X9X9X9X",
"9X9X9X9X9X9X9X9X9X9X9X9X9X9X9X9X9X9X9X9X9X9X9Xe.-X6X>X1X).p.9.h ~ q./ < 9X9X9X9X9X9X9X9X9X9X9X9X9X9X9X9X9X9X9X9X9X9X9X9X9X9X9X9X",
"9X9X9X9X9X9X9X9X9X9X9X9X9X9X9X9X9X9X9X9X9X9Xl n.3X3X$XoXK.V.g.F Q D i > 9X9X9X9X9X9X9X9X9X9X9X9X9X9X9X9X9X9X9X9X9X9X9X9X9X9X9X9X",
"9X9X9X9X9X9X9X9X9X9X9X9X9X9X9X9X9X9X9X9X9X$.t.Y.].;X$X:XoXK.9.! q i i a 9X9X9X9X9X9X9X9X9X9X9X9X9X9X9X9X9X9X9X9X9X9X9X9X9X9X9X9X",
"9X9X9X9X9X9X9X9X9X9X9X9X9X9X9X9X9X9X9X9X9Xw.j.^.;X4X4X$X{.V.2.*.f g + O 9X9X9X9X9X9X9X9X9X9X9X9X9X9X9X9X9X9X9X9X9X9X9X9X9X9X9X9X",
"9X9X9X9X9X9X9X9X9X9X9X9X9X9X9X9X9X9X9X9X$.<.l.XX7X6X6XoXOXL.u.3.2.2.*.f w 0 0 * 9Xp.c ; 0 9X9X9X9X9X9X9X9X9X9X9X9X9X9X9X9X9X9X9X",
"9X9X9X9X9X9X9X9X9X9X9X9X9X9X9X9X9X9X9X9X<.<.k.<X6X6X6X6X}.4.F 9.~.g.a.u.2.s.x.2.*.u.2.-.j 9X9X9X9X9X9X9X9X9X9X9X9X9X9X9X9X9X9X9X",
"9X9X9X9X9X9X9X9X9X9X9X9X9X9X9X9X9X-.4.V.).,.%.j.8X1X6X$Xi.x 3.).}.Q.v.c.g.v.}.).c.2.g q *.w 9X9X9X9X9X9X9X9X9X9X9X9X9X9X9X9X9X9X",
"9X9X9X9X9X9X9X9X9X9X9X9X9X9X9X9Xn.:X).}.4Xu.r.;X5X1X>Xp.c <.~.$XoXOX(.V.v.V.Q.}._.L.:.r s.a.9X9X9X9X9X9X9X9X9X9X9X9X9X9X9X9X9X9X",
"9X9X9X9X9X9X9X9X9X9X9X9X9X9X9X9X`.`.u.v.W.(.4X6X7X}.g.x l a.|.{.>X}._.v.v.v.v.Q.>XQ.c.! s R.:.9X9X9X9X9X9X9X9X9X9X9X9X9X9X9X9X9X",
"9X9X9X9X9X9X9X9X9X9X9X9X9X9X9X9XT.l.-.).oX.X:X.Xb.=.9 9 #.c. X;XoX(.W.v.g.g.c.{.5XK.W.:.+ w.W.9X9X9X9X9X9X9X9X9X9X9X9X9X9X9X9X9X",
"9X9X9X9X9X9X9X9X9X9X9X9X9X9X9X9Xw.[.!. Xd.1.f 0 0 3 3 7 #.Y.|.].Q.W.p.a.2.2.v._.6XQ.c.3.$ 9X[.%.9X9X9X9X9X9X9X9X9X9X9X9X9X9X9X9X",
"9X9X9X9X9X9X9X9X9X9X9X9X9X9X9X9X9XE.!.b.0.V 9X9X9X9X3 8 $.k.R.Y.b.a.u.3.! -.~.{.:Xv.9.:.o 9X[.1.9X9X9X9X9X9X9X9X9X9X9X9X9X9X9X9X",
"9X9X9X9X9X9X9X9X9X9X9X9X9X9X9X9X9X<.t.W.h.F.[ 9X9X9X9X9X9 $.<.e.<.=.#.f f z. X X}.v.9.c   9X=Xl.9X9X9X9X9X9X9X9X9X9X9X9X9X9X9X9X",
"9X9X9X9X9X9X9X9X9X9X9X9X9X9X9X9X9X9Xs `.J.F.J.A.9X9X9X9X9X3 8 d d d 9 4 l R.*X:X_.d.2.q   9X'.W.9X9X9X9X9X9X9X9X9X9X9X9X9X9X9X9X",
"9X9X9X9X9X9X9X9X9X9X9X9X9X9X9X9X9X9X9XY.0._ e 9X9X9X9X9X9X9X9X9X@ @ @ 3 9 j.=X4XW.p.! % 7 9X9X.X4 9X9X9X9X9X9X9X9X9X9X9X9X9X9X9X",
"9X9X9X9X9X9X9X9X9X9X9X9X9X9X9X9X9X9X9X,.x.6.T 9X9X9X9X9X9X9X9X9X9X9X9X3 3 $.|.<XV.2.r o 9X9X9X;Xf 9X9X9X9X9X9X9X9X9X9X9X9X9X9X9X",
"9X9X9X9X9X9X9X9X9X9X9X9X9X9X9X9X9X9X9Xp ).2XF.9X9X9X9X9X9X9X9X9X9X9X9X8 s 9 y.OXV.:.x 9X9X9X9X=Xw 9X9X9X9X9X9X9X9X9X9X9X9X9X9X9X",
"9X9X9X9X9X9X9X9X9X9X9X9X9X9X9X9X9X9X9X9XT D.( 9X9X9X9X9X9X9X9X9X9X9X9X9Xs %.z 2.k.2.j o 9X9X9XV.u 9X9X9X9X9X9X9X9X9X9X9X9X9X9X9X",
"9X9X9X9X9X9X9X9X9X9X9X9X9X9X9X9X9X9X9X9XX t - 9X9X9X9X9X9X9X9X9X9X9X9X9X9Xz.l.d %.:.F 5 9X9X9X^ ; 9X9X9X9X9X9X9X9X9X9X9X9X9X9X9X",
"9X9X9X9X9X9X9X9X9X9X9X9X9X9X9X9X9X9X9X9X9X9X9X9X9X9X9X9X9X9X9X9X9X9X9X9X9Xk.=X-.# =.s.*.g 9X8.` t 9X9X9X9X9X9X9X9X9X9X9X9X9X9X9X",
"9X9X9X9X9X9X9X9X9X9X9X9X9X9X9X9X9X9X9X9X9X9X9X9X9X9X9X9X9X9X9X9X9X9X9X9Xz.-X*Xx . z !.~.f y [ C E a 9X9X9X9X9X9X9X9X9X9X9X9X9X9X",
"9X9X9X9X9X9X9X9X9X9X9X9X9X9X9X9X9X9X9X9X9X9X9X9X9X9X9X9X9X9X9X9X9X9X9X=.*X4Xg.$ 9X9X[.].r 9X8.) E > 9X9X9X9X9X9X9X9X9X9X9X9X9X9X",
"9X9X9X9X9X9X9X9X9X9X9X9X9X9X9X9X9X9X9X9X9X9X9X9X9X9X9X9X9X9X9X9X9X9X9X!.6X{.c 9X9X9X*X~.w 9X` ) T 5 9X9X9X9X9X9X9X9X9X9X9X9X9X9X",
"9X9X9X9X9X9X9X9X9X9X9X9X9X9X9X9X9X9X9X9X9X9X9X9X9X9X9X9X9X9X9X9X9X9Xk.5X,XB.D 9X9Xt.3Xv.D 9Xa Q V 9X9X9X9X9X9X9X9X9X9X9X9X9X9X9X",
"9X9X9X9X9X9X9X9X9X9X9X9X9X9X9X9X9X9X9X9X9X9X9X9X9X9X9X9X9X9X9X9X9X9X`.1XB.N._ 9X9XT.4XN.W - W i 9X9X9X9X9X9X9X9X9X9X9X9X9X9X9X9X",
"9X9X9X9X9X9X9X9X9X9X9X9X9X9X9X9X9X9X9X9X9X9X9X9X9X9X9X9X9X9X9X9XG ] /./.W 6 < 9X9X`. X` W 9Xm.9X9X9X9X9X9X9X9X9X9X9X9X9X9X9X9X9X",
"9X9X9X9X9X9X9X9X9X9X9X9X9X9X9X9X9X9X9X9X9X9X9X9X9X9X9X9X9X9X9X9XT U.I.E a ; - 9X5..X>.[ Q 9X9X9X9X9X9X9X9X9X9X9X9X9X9X9X9X9X9X9X",
"9X9X9X9X9X9X9X9X9X9X9X9X9X9X9X9X9X9X9X9X9X9X9X9X9X9X9X9X9X9X9X9XC | ] < 9X9X9Xn ) _ C ~ : * 9X9X9X9X9X9X9X9X9X9X9X9X9X9X9X9X9X9X",
"9X9X9X9X9X9X9X9X9X9X9X9X9X9X9X9X9X9X9X9X9X9X9X9X9X9X9X9X9X9X9X9X9X9X9X9X9X9X9XR I.| t 9X9X9X9X9X9X9X9X9X9X9X9X9X9X9X9X9X9X9X9X9X",
"9X9X9X9X9X9X9X9X9X9X9X9X9X9X9X9X9X9X9X9X9X9X9X9X9X9X9X9X9X9X9X9X9X9X9X9X9X9X9X9X9X9X9X9X9X9X9X9X9X9X9X9X9X9X9X9X9X9X9X9X9X9X9X9X"
};
