/* XPM */
static char *result[] = {
/* columns rows colors chars-per-pixel */
"64 64 210 2 ",
"   c #1C160F",
".  c #272115",
"X  c #2A221A",
"o  c #2B2316",
"O  c #33281B",
"+  c #3A301E",
"@  c #1F1E23",
"#  c #2A292B",
"$  c #272527",
"%  c #37332F",
"&  c #2B2A38",
"*  c #333231",
"=  c #3D3A38",
"-  c #443D2D",
";  c #433D34",
":  c #5F4A2E",
">  c #4B4436",
",  c #554D3B",
"<  c #514736",
"1  c #59513F",
"2  c #77603C",
"3  c #343342",
"4  c #3B3A43",
"5  c #393746",
"6  c #444343",
"7  c #4C4946",
"8  c #564F41",
"9  c #5A4F40",
"0  c #5A534A",
"q  c #5A5347",
"w  c #484656",
"e  c #504F5E",
"r  c #565353",
"t  c #5A575A",
"y  c #615947",
"u  c #625F5A",
"i  c #676259",
"p  c #756C55",
"a  c #796C55",
"s  c #736955",
"d  c #7D735D",
"f  c #6C614B",
"g  c #615F71",
"h  c #6C6A66",
"j  c #686669",
"k  c #716E6C",
"l  c #7B7261",
"z  c #74716B",
"x  c #6B6875",
"c  c #716E7D",
"v  c #716F73",
"b  c #747374",
"n  c #797372",
"m  c #7D7975",
"M  c #72717D",
"N  c #7D7A7A",
"B  c #865F33",
"V  c #9E7635",
"C  c #856A45",
"Z  c #947D4F",
"A  c #82795F",
"S  c #877453",
"D  c #8A704A",
"F  c #857B64",
"G  c #897E6A",
"H  c #887C66",
"J  c #827C77",
"K  c #A18559",
"L  c #AE884D",
"P  c #8E846A",
"I  c #91856A",
"U  c #9B8768",
"Y  c #84817D",
"T  c #928972",
"R  c #9B8E73",
"E  c #968A76",
"W  c #9C9175",
"Q  c #9D9279",
"!  c #AC9C6E",
"~  c #A2967A",
"^  c #A79A7B",
"/  c #AA9C7E",
"(  c #A39474",
")  c #B09467",
"_  c #B2A27F",
"`  c #C7A15B",
"'  c #D7AA54",
"]  c #E2B759",
"[  c #C8B279",
"{  c #C8A873",
"}  c #EBC865",
"|  c #ECD17E",
" . c #706C80",
".. c #737081",
"X. c #787684",
"o. c #7E7C85",
"O. c #7E7C8C",
"+. c #807D83",
"@. c #827F91",
"#. c #868381",
"$. c #8A8582",
"%. c #8C8A85",
"&. c #8E8C89",
"*. c #85838C",
"=. c #918D8A",
"-. c #948882",
";. c #93918C",
":. c #9E9584",
">. c #898596",
",. c #918D99",
"<. c #949293",
"1. c #9A9593",
"2. c #96939D",
"3. c #9B9897",
"4. c #A79B81",
"5. c #A79C88",
"6. c #A39D9C",
"7. c #A59892",
"8. c #ADA286",
"9. c #B7A786",
"0. c #B4A98A",
"q. c #B9AD8C",
"w. c #BCB08C",
"e. c #A5A19C",
"r. c #BDAD98",
"t. c #BEB398",
"y. c #9996A6",
"u. c #9E9BA9",
"i. c #A39FAB",
"p. c #A49FA4",
"a. c #A5A2A3",
"s. c #AAA5A3",
"d. c #ADA9A5",
"f. c #AEACAB",
"g. c #AAA5A8",
"h. c #B1ACAC",
"j. c #B1ACA7",
"k. c #B6B2AE",
"l. c #BBB6AC",
"z. c #A6A4B3",
"x. c #ADA9B6",
"c. c #A9A5B5",
"v. c #B0ACB5",
"b. c #B4B2B3",
"n. c #BAB5B2",
"m. c #BCBAB5",
"M. c #B4B2BC",
"N. c #BCB8BC",
"B. c #B8B2BA",
"V. c #C2B28E",
"C. c #C9B881",
"Z. c #C2B491",
"A. c #C6B893",
"S. c #C5BAA9",
"D. c #C2BDBB",
"F. c #CCB4BB",
"G. c #CEC09C",
"H. c #DAC698",
"J. c #EECF92",
"K. c #D6C7A6",
"L. c #C5C2BD",
"P. c #C9C3BF",
"I. c #D6C9B9",
"U. c #E9DCB1",
"Y. c #E4D5AB",
"T. c #F3E3A0",
"R. c #B9B5C3",
"E. c #BCB8C8",
"W. c #C9BCC2",
"Q. c #C6C3C3",
"!. c #CAC5C3",
"~. c #CDC9C5",
"^. c #CAC4CA",
"/. c #CBC8CA",
"(. c #D2CECB",
"). c #D0CCC6",
"_. c #D6D2CD",
"`. c #D8D2CD",
"'. c #C7C5D1",
"]. c #CBC8D5",
"[. c #D1CDD3",
"{. c #DAD5D3",
"}. c #DEDAD6",
"|. c #DAD6D8",
" X c #DEDADA",
".X c #D6D1D6",
"XX c #E4DEDB",
"oX c #E1DAD6",
"OX c #E5E1DD",
"+X c #E8E2DF",
"@X c #F5F1DF",
"#X c #F1E5CE",
"$X c #DED9E1",
"%X c #DAD7E2",
"&X c #E3DEE4",
"*X c #E6E2E4",
"=X c #EAE5E4",
"-X c #EDE9E5",
";X c #EFEBEB",
":X c #E7E2EB",
">X c #F2EDEC",
",X c #F0E8E7",
"<X c #F2EEF3",
"1X c #F4F2F4",
"2X c #F8F5F7",
"3X c #FBF9F5",
"4X c #F6F2F9",
"5X c #FEFDFD",
"6X c #F9F3FC",
"7X c None",
/* pixels */
"7X7X7X7X7X7X7X7X7X7X7X7X7X7X7X7X7X7X7X7X7X7X7X7X7X7X7X7X7X7X7X7X7X7X7X7X7X7X7X7X7X7X7X7X7X7X7X7X7X7X7X7X7X7X7X7X7X7X7X7X7X7X7X7X",
"7X7X7X7X7X7X7X7X7X7X7X7X7X7X7X7X7X7X7X7X7X7X7X7X7X7X7X7X7X7X7X7X7X7X7X7X7X7X7X7X7X7X7X7X7X7X7X7X7X7X7X7X7X7X7X7X7X7X7X7X7X7X7X7X",
"7X7X7X7X7X7X7X7X7X7X7X7X7X7X7X7X7X7X7X7X7X7X7X7X7X7X7X7X7X7X7X7X7X7X7X7X7X7X7X7X7X7X7X7X7X7X7X7X7X7X7X7X7X7X7X7X7X7X7X7X7X7X7X7X",
"7X7X7X7X7X7X7X7X7X7X7X7X7X7X7X7X7X7X7X7X7X7X7X7X7X7X7X7X7X7X7X7X7X7X7X7X7X7X7X7X7X7X7X7X7X7X7X7X7X7X7X7X7X7X7X7X7X7X7X7X7X7X7X7X",
"7X7X7X7X7X7X7X7X7X7X7X7X7X7X7X7X7X7X7X7X7X7X7X7X7X7X7X7X7X7X7X7X7X7X7X7X7X7X7X7X7X7X7X7X7X7X7X7X7X7X7X7X7X7X7X7X7X7X7X7X7X7X7X7X",
"7X7X7X7X7X7X7X7X7X7X7X7X7X7X7X7X7X7X7X7X7X7X7X7X7X7X7X7X7X7X7X7X7X7X7X7X7X7X7X7X7X7X7X7X7X7X7X7X7X7X7X7X7X7X7X7X7X7X7X7X7X7X7X7X",
"7X7X7X7X7X7X7X7X7X7X7X7X7X7X7X7X7X7X7X7X7X7X7X7X7X7X7X7X7X7X7X7X7X7X7X7X7X7X7X7X7X7X7X7X7X7X7X7X7X7X7X7X7X7X7X7X7X7X7X7X7X7X7X7X",
"7X7X7X7X7X7X7X7X7X7X7X7X7X7X7X7X7X7X7X7X7X7X7X7X7X7X7X7X7X7X7X7X7X7X7X7X7X7X7X7X7X7X7X7X7X7X7X7X7X7X7X7X7X7X7X7X7X7X7X7X7X7X7X7X",
"7X7X7X7X7X7X7X7X7X7X7X7X7X7X7X7X7X7X7X7X7X7X7X7X7X7X7X7X7X7X7X7X7X7X7X7X7X7X7X7X7X7X7X7X7X7X7X7X7X7X7X7X7X7X7X7X7X7X7X7X7X7X7X7X",
"7X7X7X7X7X7X7X7X7X7X7X7X7X7X7X7X7X7X7X7X7X7X7X7X7X7X7X7X7X7X7X7X7X7X7X7X7X7X7X7X7X7X7X7X7X7X7X7X7X7X7X7X7X7X7X7X7X7X7X7X7X7X7X7X",
"7X7X7X7X7X7X7X7X7X7X7X7X7X7X7X7X7X7X7X7X7X7X7X7X7X7X7X7X7X7X7X7X7X7X7X7X7X7X7X7X7X7X7X7X7X7X7X7X7X7X7X7X7X7X7X7X7X7X7X7X7X7X7X7X",
"7X7X7X7X7X7X7X7X7X7X7X7X7X7X7X7X7X7X7X7X7X7X7X7X7X7X7X7X7X7X7X7X7X7X7X7X7X7X7X7X7X7X7X7X7X7X7X7X7X7X7X7X7X7X7X7X7X7X7X7X7X7X7X7X",
"7X7X7X7X7X7X7X7X7X7X7X7X7X7X7X7X7X7X7X7X7X7X7X7X7X7X7X7X7X7X7X7X7X7X7X7X7X7X7X7X7X7X7X7X7X7X7X7X7X7X7X7X7X7X7X7X7X7X7X7X7X7X7X7X",
"7X7X7X7X7X7X7X7X7X7X7X7X7X7X7X7X7X7X7X7X7X7X7X7X7X7X7X7X7X7X7X7X7X7X7X7X7X7X7X7X7X7X7X7X7X' 7X7X7X7X7X7X7X7X7X7X7X7X7X7X7X7X7X7X",
"7X7X7X7X7X7X7X7X7X7X7X7X7X7X7X7X7X7X7X7X7X7X7X7X7X7X7X7X7X7X7X7X7X7X7X7X7X7X7X7X7X7X7X7X@XT.7X7X7X7X7X7X7X7X7X7X7X7X7X7X7X7X7X7X",
"7X7X7X7X7X7X7X7X7X7X7X7X7X7X7X7X7X7X7X7X7X7X7X7X7X7X7X7X7X7X7X7X7X7X7X7X7X7X7X7X7X7X7X7X| 7X7X7X7X7X7X7X7X7X7X7X7X7X7X7X7X7X7X7X",
"7X7X7X7X7X7X7X7X7X7X7X7X7X7X7X7X7X7X7X7X7X7X7X7X7X7X7X7X7X7X7X7X7X7X7X7X7X7X7X7X7X7X7XI.J.7X7X7X7X7X7X7X7X7X7X7X7X7X7X7X7X7X7X7X",
"7X7X7X7X7X7X7X7X7X7X7X7X7X7X7X7X7X7X7X7X7X7X7X7X7X7X7X7X7X7X7X7X7X7X7X7X7X7X7X7X7X7X7XH.L 7X7X7X7X7X7X7X7X7X7X7X7X7X7X7X7X7X7X7X",
"7X7X7X7X7X7X7X7X7X7X7X7X7X7X7X7X7X7X7X7X7X7X7X7X7X7X7X7X7X7X7X7X7X7X7X7X7X7X7X7X7X7X| } 7X7X7X7X7X7X7X7X7X7X7X7X7X7X7X7X7X7X7X7X",
"7X7X7X7X7X7X7X7X7X7X7X7X7X7X7X7X7X7X7X7X7X7X7X7X7X7X7X7X7X7X7X7X7X7X7X7X7X7X7X7X7X7X} ] 7X7X7X7X7X7X7X7X7X7X7X7X7X7X7X7X7X7X7X7X",
"7X7X7X7X7X7X7X7X7X7X7X7X7X7X7X7X7X7X7X7X7X7X7X7X7X7X7X7X7X7X7X7X7X7X7X7X7X7X7X7X7X#X` ` 7X7X7X7X7X7X7X7X7X7X7X7X7X7X7X7X7X7X7X7X",
"7X7X7X7X7X7X7X7X7X7X7X7X7X7X7X7X7X7X7X7X7X7X7X7X7X7X7X7X7X7X7X7X7X7X7X7X7X7X7X7X7XK.{ 7X7X7X7X7X7X7X7X7X7X7X7X7X7X7X7X7X7X7X7X7X",
"7X7X7X7X7X7X7X7X7X7X7X7X7X7X7X7X7X7X7X7X7X7X7X7X7X7X7X7X7X7X7X7X7X7X7X7X7X_ a o E ` [ 7X7X7X7X7X7X7X7X7X7X7X7X7X7X7X7X7X7X7X7X7X",
"7X7X7X7X7X7X7X7X7X7X7X7X7X7X7X7X7X7X7X7X7X7X7X7X7X7X7X7X7X7X7X7X7X7X7X- A R H V.V.L K ; 7X7X7X7X7X7X7X7X7X7X7X7X7X7X7X7X7X7X7X7X",
"7X7X7X7X7X7X7X7X7X7X7X7X7X7X7X7X7X7X7X7X7X7X7X7X7X7X7X7X7X7X7X7X7X7X7X, q.5.r.q.R H.G.I 7X7X7X7X7X7X7X7X7X7X7X7X7X7X7X7X7X7X7X7X",
"7X7X7X7X7X7X7X7X7X7X7X7X7X7X7X7X7X7X7X7X7X7X7X7X7X7X7X7X7X7X7X7X7Xs y I 8.7.W.K.H H l T 7X7X7X7X7X7X7X7X7X7X7X7X7X7X7X7X7X7X7X7X",
"7X7X7X7X7X7X7X7X7X7X7X7X7X7X7X7X7X7X7X7X7X7X7X7X7X7X7X7X7X7X7X7X  < d F w.5.W.g.e.1.m 7 7X7X7X7X7X7X7X7X7X7X7X7X7X7X7X7X7X7X7X7X",
"7X7X7X7X7X7X7X7X7X7X7X7X7X7X7X7X7X7X7X7X7X7X7X7X7X7X7X7X7X7X7X7X- a 9.W P 4.=.F.e.m.N.*.7X7X7X7X7X7X7X7X7X7X7X7X7X7X7X7X7X7X7X7X",
"7X7X7X7X7X7X7X7X7X7X7X7X7X7X7X7X7X7X7X7X7X7X7X7X7X7X7X7X7X7X7X+ , a d w.Z.$.h.k.&.v &XXXd.i 7X7X7X7X7X7X7X7X7X7X7X7X7X7X7X7X7X7X",
"7X7X7X7X7X7X7X7X7X7X7X7X7X7X7X7X7X7X7X7X7X7X7X7X7X7X7X7X7X7X7X. F Z.Z.U :.h.n.6.!.:X3X>X;X!.7X7X7X7X7X7X7X7X7X7X7X7X7X7X7X7X7X7X",
"7X7X7X7X7X7X7X7X7X7X7X7X7X7X7X7X7X7X7X7X7X7X7X7X7X7X7X7X7X7X7X- q G.K.r.#.!.!.6.g.W.^.~.(.n.v.7X7X7X7X7X7X7X7X7X7X7X7X7X7X7X7X7X",
"7X7X7X7X7X7X7X7X7X7X7X7X7X7X7X7X7X7X7X7X7X7X7X7X7X7X7X7X7X7X> f 8.W T 5.=.(.XX(.h.N x Y -.p.2.7X7X7X7X7X7X7X7X7X7X7X7X7X7X7X7X7X",
"7X7X7X7X7X7X7X7X7X7X7X7X7X7X7X7X7X7X7X7X7X7X7X7X7X7X7X7X7Xo 8 X G W W z %.!.>X>X|.g.7XR 0.n 7X7X7X7X7X7X7X7X7X7X7X7X7X7X7X7X7X7X",
"7X7X7X7X7X7X7X7X7X7X7X7X7X7X7X7X7X7X7X7X7X7X7X7X7X7X7X7X7X7XX - a s F m &.m.>X3X1X^.x , l E 7X7X7X7X7X7X7X7X7X7X7X7X7X7X7X7X7X7X",
"7X7X7X7X7X7X7X7X7X7X7X7X7X7X7X7X7X7X7X7X7X7X7X7X7X7X7X7X7X7Xa a P t.P N 1.L.+X-X5X&X2.7X% H 7X7X7X7X7X7X7X7X7X7X7X7X7X7X7X7X7X7X",
"7X7X7X7X7X7X7X7X7X7X7X7X7X7X7X7X7X7X7X7X7X7X7X7X7X7X7X7X7XW A W l P E %.e.P.-X*X5X<Xx.7XO 7X7X7X7X7X7X7X7X7X7X7X7X7X7X7X7X7X7X7X",
"7X7X7X7X7X7X7X7X7X7X7X7X7X7X7X7X7X7X7X7X7X7X7X7X7X7X7X7X7X7Xy , ^ ~ m l.L.L.OX+X5X4XE. .7X7X7X7X7X7X7X7X7X7X7X7X7X7X7X7X7X7X7X7X",
"7X7X7X7X7X7X7X7X7X7X7X7X7X7X7X7X7X7X7X7X7X7X7X7X7X7X7X7X7X7X- $ s z $.n.).}.+X,X<X4X'. .7X7X7X7X7X7X7X7X7X7X7X7X7X7X7X7X7X7X7X7X",
"7X7X7X7X7X7X7X7X7X7X7X7X7X7X7X7X7X7X7X7Xh 7 z s.%.r t t r t r z &.$.;.e.m.-X3X3X<X&X].,.7X7X7X7X7X7X7X7X7X7X7X7X7X7X7X7X7X7X7X7X",
"7X7X7X7X7X7X7X7X7X7X7X7X7X7X7X7X7X7X7X7Xh 3.#.Y ;.e.n.m.d.e.e.j.l.f.e.e.L._.-X5X5X&X].c.c 7X7X7X7X7X7X7X7X7X7X7X7X7X7X7X7X7X7X7X",
"7X7X7X7X7X7X7X7X7X7X7X7X7X7X7X7X7X7X7X7X&.r n s.P.).+X}.L.m.L.L.Q._.e.3.~.+X}.5X5X4X].x.>.7X7X7X7X7X7X7X7X7X7X7X7X7X7X7X7X7X7X7X",
"7X7X7X7X7X7X7X7X7X7X7X7X7X7X7X7X7X7X7X%.<.h d.L.}.oXOX_.P.P.~.(._.OXQ.N g.=X>X1X5X6X].u.X.7X7X7X7X7X7X7X7X7X7X7X7X7X7X7X7X7X7X7X",
"7X7X7X7X7X7X7X7X7X7X7X7X7X7X7X7X7X7X7 a.t $.!.P.OXOXL.P.L.~.).{.+XXX}.a.N m.-XoX<X<XR.@.c 7X7X7X7X7X7X7X7X7X7X7X7X7X7X7X7X7X7X7X",
"7X7X7X7X7X7X7X7X7X7X7X7X7X7X7X7X7X7Xk ,.6 ;._.P.=X1Xm.n.m.P.P.`.+XOX{.N.M 1.{.;X<XR... .W.2.7X7X7X7X7X7X7X7X7X7X7X7X7X7X7X7X7X7X",
"7X7X7X7X7X7X7X7X7X7X7X7X7X7X7X7X7X7XN O.= &.~.N.>X2XL.e.s.n.b.~.~.XX|.N.c j k.{.4X*XM u.>XQ.7X7X7X7X7X7X7X7X7X7X7X7X7X7X7X7X7X7X",
"7X7X7X7X7X7X7X7X7X7X7X7X7X7X7X7X7X7X%.X.* #.m.l.XX;X(.6.=.e.d.h.Q.Q..XR.M 4 z E.|.1Xx./.5X;Xk.7X7X7X7X7X7X7X7X7X7X7X7X7X7X7X7X7X",
"7X7X7X7X7X7X7X7X7X7X7X7X7X7X7X7X7X7X&...$ h f.k.*X;X|.f.b n 3.6.b.b.B.i.x 3 $ u W.OX1Xf.~. X<Xu.7X7X7X7X7X7X7X7X7X7X7X7X7X7X7X7X",
"7X7X7X7X7X7X7X7X7X7X7X7X7X7X7X7X7X7X<.*.# 7 %.d.XX1X=X^.v 0 j b o.>.*.x w 3 7X7X6 n.*X=Xk.e.|.R.7X7X7X7X7X7X7X7X7X7X7X7X7X7X7X7X",
"7X7X7X7X7X7X7X7X7X7X7X7X7X7X7X7X7X7Xg.7X7X6 b 6.~.1X<XM.4 @ & 3 5 5 3 & 7X7X7X7X7Xr f.XX.Xm M.c.7X7X7X7X7X7X7X7X7X7X7X7X7X7X7X7X",
"7X7X7X7X7X7X7X7X7X7X7X7X7X7X7X7X7X7Xb.v.7X* i ;.~.:X:XO.$ & 3 7X7X7X7X7X7X7X7X7X7X7Xr <.$Xp..X,.7X7X7X7X7X7X7X7X7X7X7X7X7X7X7X7X",
"7X7X7X7X7X7X7X7X7X7X7X7X7X7X7X7X7X7X6.'.7X* J a.L.*Xz.e w 3 7X7X7X7X7X7X7X7X7X7X7X7X^ Z.[.D.%X>.7X7X7X7X7X7X7X7X7X7X7X7X7X7X7X7X",
"7X7X7X7X7X7X7X7X7X7X7X7X7X7X7X7X7X7X#.}.7X* N 6.f.y.j 2.j 7X7X7X7X7X7X7X7X7X7X7X7X( K.S.{.N.E.7X7X7X7X7X7X7X7X7X7X7X7X7X7X7X7X7X",
"7X7X7X7X7X7X7X7X7X7X7X7X7X7X7X7X7X7Xy Z.i r Y ;.X.t d.E.g 7X7X7X7X7X7X7X7X7X7X7XO / Y.K.*Xz...7X7X7X7X7X7X7X7X7X7X7X7X7X7X7X7X7X",
"7X7X7X7X7X7X7X7X7X7X7X7X7X7X7X7X7X7X1 W n ;.a.X.$ %.^.x.7X7X7X7X7X7X7X7X7X7X7X7XX 9.0.w.{.2.7X7X7X7X7X7X7X7X7X7X7X7X7X7X7X7X7X7X",
"7X7X7X7X7X7X7X7X7X7X7X7X7X7X7X7X7X7X1 s Y _.i.e 7XN /.$Xi.7X7X7X7X7X7X7X7X7X7X7X7X  O i oXg.7X7X7X7X7X7X7X7X7X7X7X7X7X7X7X7X7X7X",
"7X7X7X7X7X7X7X7X7X7X7X7X7X7X7X7X7X7XI q m XXM.7X7X= h.1X$X7X7X7X7X7X7X7X7X7X7X7X7X7XD U #XH.7X7X7X7X7X7X7X7X7X7X7X7X7X7X7X7X7X7X",
"7X7X7X7X7X7X7X7X7X7X7X7X7X7X7X7X7X7X4.9 k XX[.7X7X7XN {.2X^.7X7X7X7X7X7X7X7X7X7X7X7X: ! @X[ 7X7X7X7X7X7X7X7X7X7X7X7X7X7X7X7X7X7X",
"7X7X7X7X7X7X7X7X7X7X7X7X7X7X7X7X7X7X7Xq T P.:X7X7X7X~ l.>X2Xu.7X7X7X7X7X7X7X7X7X7X7X7X7XS D 7X7X7X7X7X7X7X7X7X7X7X7X7X7X7X7X7X7X",
"7X7X7X7X7X7X7X7X7X7X7X7X7X7X7X7X7X7X7X0 R I.1Xz.7X7X/ Z.S.4X/.7X7X7X7X7X7X7X7X7X7X7X7X7X7X7X7X7X7X7X7X7X7X7X7X7X7X7X7X7X7X7X7X7X",
"7X7X7X7X7X7X7X7X7X7X7X7X7X7X7X7X7X7X7X7XW 5.&XE.7X7X, 7 4.`.I._ V 7X7X7X7X7X7X7X7X7X7X7X7X7X7X7X7X7X7X7X7X7X7X7X7X7X7X7X7X7X7X7X",
"7X7X7X7X7X7X7X7X7X7X7X7X7X7X7X7X7X7X7X> W w.e.}.J 7X, ; A ) Y.T.C 7X7X7X7X7X7X7X7X7X7X7X7X7X7X7X7X7X7X7X7X7X7X7X7X7X7X7X7X7X7X7X",
"7X7X7X7X7X7X7X7X7X7X7X7X7X7X7X7X7X7X7X> y / S ( ) B 7X7X7X2 w.[ a 7X7X7X7X7X7X7X7X7X7X7X7X7X7X7X7X7X7X7X7X7X7X7X7X7X7X7X7X7X7X7X",
"7X7X7X7X7X7X7X7X7X7X7X7X7X7X7X7X7X7X7X~ 0.A.C [ U.Z 7X7X7X7X7X7X7X7X7X7X7X7X7X7X7X7X7X7X7X7X7X7X7X7X7X7X7X7X7X7X7X7X7X7X7X7X7X7X",
"7X7X7X7X7X7X7X7X7X7X7X7X7X7X7X7X7X7X7X7X7X7X7X7X7X7X7X7X7X7X7X7X7X7X7X7X7X7X7X7X7X7X7X7X7X7X7X7X7X7X7X7X7X7X7X7X7X7X7X7X7X7X7X7X"
};
