/* XPM */
static char *result[] = {
/* columns rows colors chars-per-pixel */
"64 64 220 2 ",
"   c #141313",
".  c #2E261A",
"X  c #342214",
"o  c #2C2B29",
"O  c #372F25",
"+  c #393837",
"@  c #3B342B",
"#  c #443A2A",
"$  c #413E3A",
"%  c #584529",
"&  c #4B4333",
"*  c #554A35",
"=  c #685837",
"-  c #735B3B",
";  c #78592F",
":  c #70633C",
">  c #393846",
",  c #2D2C40",
"<  c #4F4D4B",
"1  c #464549",
"2  c #524C46",
"3  c #5E5441",
"4  c #444353",
"5  c #4C4A59",
"6  c #5A5857",
"7  c #514D57",
"8  c #6D5B44",
"9  c #6B5E48",
"0  c #6E644B",
"q  c #756448",
"w  c #68645B",
"e  c #746B5A",
"r  c #7D7159",
"t  c #565563",
"y  c #615F6E",
"u  c #646263",
"i  c #6D6B6A",
"p  c #6A6765",
"a  c #726E6D",
"s  c #76726B",
"d  c #636171",
"f  c #6C6A7A",
"g  c #716E7A",
"h  c #767372",
"j  c #7B7977",
"k  c #7C797B",
"l  c #777377",
"z  c #98692C",
"x  c #936B3F",
"c  c #A47634",
"v  c #866942",
"b  c #8E784E",
"n  c #947C43",
"m  c #897859",
"M  c #A37C49",
"N  c #857B64",
"B  c #867C69",
"V  c #897B6D",
"C  c #C79C36",
"Z  c #D5B632",
"A  c #F9CC2B",
"S  c #FFDC24",
"D  c #FCD527",
"F  c #F7C933",
"G  c #FBD533",
"H  c #9A825A",
"J  c #9E864F",
"K  c #A68A5A",
"L  c #B29057",
"P  c #8F856D",
"I  c #98886A",
"U  c #85817E",
"Y  c #988E76",
"T  c #9D9070",
"R  c #A89A79",
"E  c #AD9569",
"W  c #BAA579",
"Q  c #BCA36F",
"!  c #C09549",
"~  c #D2A44A",
"^  c #E4B756",
"/  c #D6AD63",
"(  c #C4AD77",
")  c #CBB57E",
"_  c #D7BA77",
"`  c #DBBA69",
"'  c #FAD749",
"]  c #FADB5C",
"[  c #F7D355",
"{  c #EEC64E",
"}  c #F2CC62",
"|  c #FADD6B",
" . c #F7D465",
".. c #E8C87B",
"X. c #F5D573",
"o. c #F6DA7C",
"O. c #F8DB78",
"+. c #E2C86F",
"@. c #F9E07F",
"#. c #797682",
"$. c #797687",
"%. c #807E8E",
"&. c #858383",
"*. c #898685",
"=. c #8A8789",
"-. c #918D8C",
";. c #968C82",
":. c #93918D",
">. c #9C9486",
",. c #888594",
"<. c #999592",
"1. c #9B9995",
"2. c #989699",
"3. c #908D9F",
"4. c #A29E9B",
"5. c #A99C96",
"6. c #B7A884",
"7. c #A6A29F",
"8. c #B5A799",
"9. c #BEB190",
"0. c #9996A5",
"q. c #9C99A3",
"w. c #9A97A6",
"e. c #A29DA6",
"r. c #AAA4A3",
"t. c #ACAAA5",
"y. c #A5A2AB",
"u. c #ADAAAA",
"i. c #A9A5A6",
"p. c #B2AEAC",
"a. c #B5B2AE",
"s. c #B7B2A5",
"d. c #ABA8B5",
"f. c #B3AEB5",
"g. c #B2AEBD",
"h. c #B5B2B2",
"j. c #B9B4B4",
"k. c #BDBAB5",
"l. c #B5B2BE",
"z. c #BEBBB9",
"x. c #B8B4B9",
"c. c #C4B389",
"v. c #C5B795",
"b. c #CEB188",
"n. c #C1B9A7",
"m. c #C1BDBB",
"M. c #C3BBB7",
"N. c #D2C59C",
"B. c #D8C59A",
"V. c #DEC683",
"C. c #F4D685",
"Z. c #F5DB83",
"A. c #F3DC8D",
"S. c #EAD798",
"D. c #F3D792",
"F. c #E7CF8D",
"G. c #FAE389",
"H. c #F9E596",
"J. c #CDC2AA",
"K. c #DED2AE",
"L. c #C6C3BF",
"P. c #CAC5B8",
"I. c #D5CCB7",
"U. c #DFC7A3",
"Y. c #E7D8AB",
"T. c #F1D9A6",
"R. c #EADEB4",
"E. c #F9E8A2",
"W. c #F8E6A8",
"Q. c #FCEEB0",
"!. c #F8E9B9",
"~. c #FDF1B8",
"^. c #BBB8C5",
"/. c #C2BDC5",
"(. c #C7C2C2",
"). c #CAC5C4",
"_. c #CDC9C5",
"`. c #CFCBCB",
"'. c #C8C5CC",
"]. c #D4CECC",
"[. c #D2CCC7",
"{. c #D6D2CE",
"}. c #D8D1C8",
"|. c #CBC6D4",
" X c #D2CDD7",
".X c #D5D2D3",
"XX c #DAD5D4",
"oX c #DDD9D5",
"OX c #D9D5DE",
"+X c #DEDAD8",
"@X c #D6D2DA",
"#X c #E1DCDC",
"$X c #E4DBD3",
"%X c #FAEDCA",
"&X c #F5E7CF",
"*X c #FCF1C3",
"=X c #FCF3CA",
"-X c #E6E1DF",
";X c #EAE5DD",
":X c #F9F3DB",
">X c #FBF2D5",
",X c #DAD6E1",
"<X c #E3DCE5",
"1X c #E6E2E3",
"2X c #EAE4E3",
"3X c #EDE9E6",
"4X c #EAE6E9",
"5X c #ECE9EB",
"6X c #E5E2EB",
"7X c #F2EDEC",
"8X c #FEFAEA",
"9X c #F8F4EA",
"0X c #EEE9F2",
"qX c #F5EFF3",
"wX c #F6F2F3",
"eX c #F9F4F3",
"rX c #FEFBF6",
"tX c #FDFCFC",
"yX c #F8F4FA",
"uX c None",
/* pixels */
"uXuXuXuXuXuXuXuXuXuXuXuXuXuXuXuXuXuXuXuXuXuXuXuXuXuXuXuXuXuXuXuXuXuXuXuXuXuXuXuXuXuXuXuXuXuXuXuXuXuXuXuXuXuXuXuXuXuXuXuXuXuXuXuX",
"uXuXuXuXuXuXuXuXuXuXuXuXuXuXuXuXuXuXuXuXuXuXuXuXuXuXuXuXuXS uXuXuXuXuXuXuXuXuXuXuXuXuXuXuXuXuXuXuXuXuXuXuXuXuXuXuXuXuXuXuXuXuXuX",
"uXuXuXuXuXuXuXuXuXuXuXuXuXuXuXuXuXuXuXuXuXuXuXuXuXuXuXuXuXS uXuXuXuXuXuXuXuXuXuXuXuXuXuXuXuXuXuXuXuXuXuXuXuXuXuXuXuXuXuXuXuXuXuX",
"uXuXuXuXuXuXuXuXuXuXuXuXuXuXuXuXuXuXuXuXuXuXuXuXuXuXS uXuXG uXuXuXuXuXuXuXuXuXuXuXuXuXuXuXuXuXuXuXuXuXuXuXuXuXuXuXuXuXuXuXuXuXuX",
"uXuXuXuXuXuXuXuXuXuXuXuXuXuXuXuXuXuXuXuXuXuXuXuXuXuXG uXuX] uXuXA uXuXuXuXuXuXuXuXuXuXuXuXuXuXuXuXuXuXuXuXuXuXuXuXuXuXuXuXuXuXuX",
"uXuXuXuXuXuXuXuXuXuXuXuXuXuXuXuXuXuXuXuXuXuXuXuXuXD uX} ] O.[ uXG uXuXuXuXuXuXuXuXuXuXuXuXuXuXuXuXuXuXuXuXuXuXuXuXuXuXuXuXuXuXuX",
"uXuXuXuXuXuXuXuXuXuXuXuXuXuXuXuXuXuXuXuXuXuXuXuXF uXuXo.=XW.uXA.uXuXA uXuXuXuXuXuXuXuXuXuXuXuXuXuXuXuXuXuXuXuXuXuXuXuXuXuXuXuXuX",
"uXuXuXuXuXuXuXuXuXuXuXuXuXuXuXuXuXuXuXuXuXuXuXuXG X.uXE.8X~.H.H. .| uXuXuXuXuXuXuXuXuXuXuXuXuXuXuXuXuXuXuXuXuXuXuXuXuXuXuXuXuXuX",
"uXuXuXuXuXuXuXuXuXuXuXuXuXuXuXuXuXuXuXuXuXuXuXuXuXuXH.!.rX*X8XO.O.uXuXuXuXuXuXuXuXuXuXuXuXuXuXuXuXuXuXuXuXuXuXuXuXuXuXuXuXuXuXuX",
"uXuXuXuXuXuXuXuXuXuXuXuXuXuXuXuXuXuXuXuXuXuXS D  .o.C.%XrX=X8X*XO.X. .S S uXuXuXuXuXuXuXuXuXuXuXuXuXuXuXuXuXuXuXuXuXuXuXuXuXuXuX",
"uXuXuXuXuXuXuXuXuXuXuXuXuXuXuXuXuXuXuXuXuXuXuXuXuXuXZ.=XrX*XrX*XG.uXuXuXuXuXuXuXuXuXuXuXuXuXuXuXuXuXuXuXuXuXuXuXuXuXuXuXuXuXuXuX",
"uXuXuXuXuXuXuXuXuXuXuXuXuXuXuXuXuXuXuXuXuXuXuXuX] H.o.>XrX*XtX~.H.o.' uXuXuXuXuXuXuXuXuXuXuXuXuXuXuXuXuXuXuXuXuXuXuXuXuXuXuXuXuX",
"uXuXuXuXuXuXuXuXuXuXuXuXuXuXuXuXuXuXuXuXS S D uXS uX@.*X8XQ.rXQ.@.uXuXuXuXD S S uXuXuXuXuXuXuXuXuXuXuXuXuXuXuXuXuXuXuXuXuXuXuXuX",
"uXuXuXuXuXuXuXuXuXuXuXuXuXuXuXuXuXuXuXuXuXuXuXS uXuX| W.rXQ.tXQ.| G.uXS uXuXuXuXuXuXuXuXuXuXuXuXuXuXuXuXuXuXuXuXuXuXuXuXuXuXuXuX",
"uXuXuXuXuXuXuXuXuXuXuXuXuXuXuXuXuXuXuXuXuXuXuXuXF X.| %X8XQ.rX*X| } ' uXuXuXuXuXuXuXuXuXuXuXuXuXuXuXuXuXuXuXuXuXuXuXuXuXuXuXuXuX",
"uXuXuXuXuXuXuXuXuXuXuXuXuXuXuXuXuXuXuXuXuXuXuXD uX] | W.%XE.>XH.O.' uXD uXuXuXuXuXuXuXuXuXuXuXuXuXuXuXuXuXuXuXuXuXuXuXuXuXuXuXuX",
"uXuXuXuXuXuXuXuXuXuXuXuXuXuXuXuXuXuXuXuXuXuXS A uXuX} A.Y.E.D.O.[ uXuXD S uXuXuXuXuXuXuXuXuXuXuXuXuXuXuXuXuXuXuXuXuXuXuXuXuXuXuX",
"uXuXuXuXuXuXuXuXuXuXuXuXuXuXuXuXuXuXuXuXuXuXuXuXuXuXZ.uXT.D.+.uXo.uXuXuXuXuXuXuXuXuXuXuXuXuXuXuXuXuXuXuXuXuXuXuXuXuXuXuXuXuXuXuX",
"uXuXuXuXuXuXuXuXuXuXuXuXuXuXuXuXuXuXuXuXuXuXuXuXuX' n 8./ %XW n.6.Z uXuXuXuXuXuXuXuXuXuXuXuXuXuXuXuXuXuXuXuXuXuXuXuXuXuXuXuXuXuX",
"uXuXuXuXuXuXuXuXuXuXuXuXuXuXuXuXuXuXuXuXuXuXuXuXuXZ N U.b.:X..T.J.n uXuXuXuXuXuXuXuXuXuXuXuXuXuXuXuXuXuXuXuXuXuXuXuXuXuXuXuXuXuX",
"uXuXuXuXuXuXuXuXuXuXuXuXuXuXuXuXuXuXuXuXuXuXuXuXuXuXM K 5.&XF C.K.H Q - uXuXuXuXuXuXuXuXuXuXuXuXuXuXuXuXuXuXuXuXuXuXuXuXuXuXuXuX",
"uXuXuXuXuXuXuXuXuXuXuXuXuXuXuXuXuXuXuXuXuXuXuXuXuXs ( r./.!._ F.D.! / b uXuXuXuXuXuXuXuXuXuXuXuXuXuXuXuXuXuXuXuXuXuXuXuXuXuXuXuX",
"uXuXuXuXuXuXuXuXuXuXuXuXuXuXuXuXuXuXuXuXuXuXV [.;X;X>.*.<X:XP.F._ o.O.{ 0 uXuXuXuXuXuXuXuXuXuXuXuXuXuXuXuXuXuXuXuXuXuXuXuXuXuXuX",
"uXuXuXuXuXuXuXuXuXuXuXuXuXuXuXuXuXuXuXuXuX0.'.tXtXtX5X3X7X9X3XJ._ A.C ^ b 3 uXuXuXuXuXuXuXuXuXuXuXuXuXuXuXuXuXuXuXuXuXuXuXuXuXuX",
"uXuXuXuXuXuXuXuXuXuXuXuXuXuXuXuXuXuXuXuXuXuXu.f.oX5XyX7X<X8XrXXXP.F...D.Y.q uXuXuXuXuXuXuXuXuXuXuXuXuXuXuXuXuXuXuXuXuXuXuXuXuXuX",
"uXuXuXuXuXuXuXuXuXuXuXuXuXuXuXuXuXuXuXuXuXuXuXj.I.q./.#XXXeXrXwXz.9.E.H.~ q . uXuXuXuXuXuXuXuXuXuXuXuXuXuXuXuXuXuXuXuXuXuXuXuXuX",
"uXuXuXuXuXuXuXuXuXuXuXuXuXuXuXuXuXuXuXuXuXuX=.K.c.uXuXw.4XqXwXwXL.s.S.C.` q # uXuXuXuXuXuXuXuXuXuXuXuXuXuXuXuXuXuXuXuXuXuXuXuXuX",
"uXuXuXuXuXuXuXuXuXuXuXuXuXuXuXuXuXuXuXuXuXuXc.R 0 uXuXy.<X7XqX5Xm.7.R ) V.q m uXuXuXuXuXuXuXuXuXuXuXuXuXuXuXuXuXuXuXuXuXuXuXuXuX",
"uXuXuXuXuXuXuXuXuXuXuXuXuXuXuXuXuXuXuXuXuXuXT * X uXuXf.4X9XwX#Xh.1.P c.) - r N uXuXuXuXuXuXuXuXuXuXuXuXuXuXuXuXuXuXuXuXuXuXuXuX",
"uXuXuXuXuXuXuXuXuXuXuXuXuXuXuXuXuXuXuXuXuXuXuX# uXuX,.|.wXwX3XoXt.<.T T Q ; * B uXuXuXuXuXuXuXuXuXuXuXuXuXuXuXuXuXuXuXuXuXuXuXuX",
"uXuXuXuXuXuXuXuXuXuXuXuXuXuXuXuXuXuXuXuXuXuXuXuXuXuXw.6XtX3X7X{.r.&.Y N.Q 0 O uXuXuXuXuXuXuXuXuXuXuXuXuXuXuXuXuXuXuXuXuXuXuXuXuX",
"uXuXuXuXuXuXuXuXuXuXuXuXuXuXuXuXuXuXuXuXuXuXuXuXuXu ^.qXtX2X2X).7.j e R 6.0 m uXuXuXuXuXuXuXuXuXuXuXuXuXuXuXuXuXuXuXuXuXuXuXuXuX",
"uXuXuXuXuXuXuXuXuXuXuXuXuXuXuXuXuXuXuXa uXuXuXuX%.2.x.).oX+X+X_.k.<.w P 9.3 = uXuXuXuXuXuXuXuXuXuXuXuXuXuXuXuXuXuXuXuXuXuXuXuXuX",
"uXuXuXuXuXuXuXuXuXuXuXuXuXuXuXuXuXuXi._.M.U uXd y.y.).1X2X2X;X{.t.<.6 N P r 8 uXuXuXuXuXuXuXuXuXuXuXuXuXuXuXuXuXuXuXuXuXuXuXuXuX",
"uXuXuXuXuXuXuXuXuXuXuXuXuXuXuXuXuXi.4XtX.Xt.:.h 0.f.1XeXtX2X{._.1.U 6 0 r P & uXuXuXuXuXuXuXuXuXuXuXuXuXuXuXuXuXuXuXuXuXuXuXuXuX",
"uXuXuXuXuXuXuXuXuXuXuXuXuXuXuXuXy.#XwXa.q.L.k.7.d.^.'.rXwX;X+XL.7.-.s 6 O B uXuXuXuXuXuXuXuXuXuXuXuXuXuXuXuXuXuXuXuXuXuXuXuXuXuX",
"uXuXuXuXuXuXuXuXuXuXuXuXuXuXuXuX'.eXn.c.e.2X`.).XX#X).3X7X7X{.4.-.2.r.:.6 o uXuXuXuXuXuXuXuXuXuXuXuXuXuXuXuXuXuXuXuXuXuXuXuXuXuX",
"uXuXuXuXuXuXuXuXuXuXuXuXuXuXuXuX6X_.R Y y.(.s./.#X7XtXeX4X`.7.&.u._.}.t.1.a 7 uXuXuXuXuXuXuXuXuXuXuXuXuXuXuXuXuXuXuXuXuXuXuXuXuX",
"uXuXuXuXuXuXuXuXuXuXuXuXuXuXuXuX5X-XK - e._.v.:.y.`.1X#X(.:.*./.+X-XoX_.h.1.*.:.a < uXV uXuXuXuXuXuXuXuXuXuXuXuXuXuXuXuXuXuXuXuX",
"uXuXuXuXuXuXuXuXuXuXuXuXuXuXuXuXT.T.c uXg.$XB.S.;.%.y.q.a u i.XX-X1X2X.X).a.7.k.).2.k &.p + uXuXuXuXuXuXuXuXuXuXuXuXuXuXuXuXuXuX",
"uXuXuXuXuXuXuXuXuXuXuXuXuXuXuXuXW b % uXe.{.W I 8 uX5 4 6 2.^.4X7XwX-X+X).z.a.z.oXL.t.p i k w uXuXuXuXuXuXuXuXuXuXuXuXuXuXuXuXuX",
"uXuXuXuXuXuXuXuXuXuXuXuXuXuXuXuX- uXuXuX$.^.n.L z uXuX4 f l.,X0X3XoX+X{.(.z.k.M._.#X).:.< h < uXuXuXuXuXuXuXuXuXuXuXuXuXuXuXuXuX",
"uXuXuXuXuXuXuXuXuXuXuXuXuXuXuXuXuXuXuXuXuXk.8XT.z uXuX5 $.^.|.,X@X.X_.z.z.a.a.z.XXwX).a.a 2.4.uXuXuXuXuXuXuXuXuXuXuXuXuXuXuXuXuX",
"uXuXuXuXuXuXuXuXuXuXuXuXuXuXuXuXuXuXuXuXuXx F.( uXuXuXuXt $.y.^.^.z.x.k.r.4.r.).2X7XM.L.h g .XuXuXuXuXuXuXuXuXuXuXuXuXuXuXuXuXuX",
"uXuXuXuXuXuXuXuXuXuXuXuXuXuXuXuXuXuXuXuXuXX q % uXuXuXuXuX5 #.,.q.q.0.-.*.=.z.oX7X-Xh.k.p 7 1X=.uXuXuXuXuXuXuXuXuXuXuXuXuXuXuXuX",
"uXuXuXuXuXuXuXuXuXuXuXuXuXuXuXuXuXuXuXuXuXuXuXuXuXuXuXuXuXuXuX5 d #.k g k (.1X-X7X{.t.t.< > 6Xm.uXuXuXuXuXuXuXuXuXuXuXuXuXuXuXuX",
"uXuXuXuXuXuXuXuXuXuXuXuXuXuXuXuXuXuXuXuXuXuXuXuXuXuXuXuXuXuXuXuX, > > > d ,XyXyX7XL.t.-.o uX@X.XuXuXuXuXuXuXuXuXuXuXuXuXuXuXuXuX",
"uXuXuXuXuXuXuXuXuXuXuXuXuXuXuXuXuXuXuXuXuXuXuXuXuXuXuXuXuXuXuXuXuXuX> 5 y ,XtXtX+Xj.<.6   uX|.@XuXuXuXuXuXuXuXuXuXuXuXuXuXuXuXuX",
"uXuXuXuXuXuXuXuXuXuXuXuXuXuXuXuXuXuXuXuXuXuXuXuXuXuXuXuXuXuXuXuXuXuX4 t d |.tX5X_.7.i o uXuXuX.XuXuXuXuXuXuXuXuXuXuXuXuXuXuXuXuX",
"uXuXuXuXuXuXuXuXuXuXuXuXuXuXuXuXuXuXuXuXuXuXuXuXuXuXuXuXuXuXuXuXuXuX5 g $.e.yX1Xa.j 1 o uXuXuX`.uXuXuXuXuXuXuXuXuXuXuXuXuXuXuXuX",
"uXuXuXuXuXuXuXuXuXuXuXuXuXuXuXuXuXuXuXuXuXuXuXuXuXuXuXuXuXuXuXuXuXuXuX,.f.k /.`.p.:.+ uXuXuXuX/.uXuXuXuXuXuXuXuXuXuXuXuXuXuXuXuX",
"uXuXuXuXuXuXuXuXuXuXuXuXuXuXuXuXuXuXuXuXuXuXuXuXuXuXuXuXuXuXuXuXuXuXuX,.,Xi.#.x.a.*.2 . H uXh.1.uXuXuXuXuXuXuXuXuXuXuXuXuXuXuXuX",
"uXuXuXuXuXuXuXuXuXuXuXuXuXuXuXuXuXuXuXuXuXuXuXuXuXuXuXuXuXuXuXuXuXuXuXuX<X Xh %.i.-.w c.L R s w uXuXuXuXuXuXuXuXuXuXuXuXuXuXuXuX",
"uXuXuXuXuXuXuXuXuXuXuXuXuXuXuXuXuXuXuXuXuXuXuXuXuXuXuXuXuXuXuXuXuXuXuX,.,XOXi 4 d.h.s ( m 6.q e uXuXuXuXuXuXuXuXuXuXuXuXuXuXuXuX",
"uXuXuXuXuXuXuXuXuXuXuXuXuXuXuXuXuXuXuXuXuXuXuXuXuXuXuXuXuXuXuXuXuXuXuX^.5Xj.+ uX3.'.1.e b.H # uXuXuXuXuXuXuXuXuXuXuXuXuXuXuXuXuX",
"uXuXuXuXuXuXuXuXuXuXuXuXuXuXuXuXuXuXuXuXuXuXuXuXuXuXuXuXuXuXuXuXuXuX0.0X<X=.uXuX%. Xt.$ 8 * . uXuXuXuXuXuXuXuXuXuXuXuXuXuXuXuXuX",
"uXuXuXuXuXuXuXuXuXuXuXuXuXuXuXuXuXuXuXuXuXuXuXuXuXuXuXuXuXuXuXuXuXg @XeX).6 uXuXuX0Xp.< uXuXuXuXuXuXuXuXuXuXuXuXuXuXuXuXuXuXuXuX",
"uXuXuXuXuXuXuXuXuXuXuXuXuXuXuXuXuXuXuXuXuXuXuXuXuXuXuXuXuXuXuXuXuXd.tX3Xs.N uXuXy.yX8.m uXuXuXuXuXuXuXuXuXuXuXuXuXuXuXuXuXuXuXuX",
"uXuXuXuXuXuXuXuXuXuXuXuXuXuXuXuXuXuXuXuXuXuXuXuXuXuXuXuXuXuXuXuXuX@X7Xs.B.T uXuX^.wXN.H # uXuXuXuXuXuXuXuXuXuXuXuXuXuXuXuXuXuXuX",
"uXuXuXuXuXuXuXuXuXuXuXuXuXuXuXuXuXuXuXuXuXuXuXuXuXuXuXuXuXuXuXC b.}.[.R & # uXuX'.XX>.I uXuXuXuXuXuXuXuXuXuXuXuXuXuXuXuXuXuXuXuX",
"uXuXuXuXuXuXuXuXuXuXuXuXuXuXuXuXuXuXuXuXuXuXuXuXuXuXuXuXuXuXuXJ W.Y.K m @ * uX;.-X5.c.T & uXuXuXuXuXuXuXuXuXuXuXuXuXuXuXuXuXuXuX",
"uXuXuXuXuXuXuXuXuXuXuXuXuXuXuXuXuXuXuXuXuXuXuXuXuXuXuXuXuXuXuXH ) ( ; uXuXuXx W R m R 3 # uXuXuXuXuXuXuXuXuXuXuXuXuXuXuXuXuXuXuX",
"uXuXuXuXuXuXuXuXuXuXuXuXuXuXuXuXuXuXuXuXuXuXuXuXuXuXuXuXuXuXuXuXuXuXuXuXuXuXK R.( v uXuX6.uXuXuXuXuXuXuXuXuXuXuXuXuXuXuXuXuXuXuX",
"uXuXuXuXuXuXuXuXuXuXuXuXuXuXuXuXuXuXuXuXuXuXuXuXuXuXuXuXuXuXuXuXuXuXuXuXuXuXuXuXuXuXuXuXuXuXuXuXuXuXuXuXuXuXuXuXuXuXuXuXuXuXuXuX"
};
