/* XPM */
static char *result[] = {
/* columns rows colors chars-per-pixel */
"64 64 215 2 ",
"   c #1C1B1A",
".  c #342717",
"X  c #1E1E23",
"o  c #262526",
"O  c #342C26",
"+  c #393225",
"@  c #363537",
"#  c #2A2837",
"$  c #473A26",
"%  c #463E39",
"&  c #4B4433",
"*  c #524632",
"=  c #544B3B",
"-  c #544833",
";  c #625139",
":  c #715632",
">  c #3B3A49",
",  c #403D43",
"<  c #4B4947",
"1  c #474748",
"2  c #5C5546",
"3  c #4D4C5A",
"4  c #474654",
"5  c #585555",
"6  c #585757",
"7  c #514E52",
"8  c #645A46",
"9  c #645D5C",
"0  c #745F43",
"q  c #6B614C",
"w  c #77674A",
"e  c #69665C",
"r  c #786C56",
"t  c #7E7157",
"y  c #585665",
"u  c #615E6E",
"i  c #625F71",
"p  c #646362",
"a  c #6A6868",
"s  c #7B7467",
"d  c #646273",
"f  c #6D6C73",
"g  c #757273",
"h  c #7D7B7A",
"j  c #797673",
"k  c #716F77",
"l  c #91632B",
"z  c #946D3B",
"x  c #936A33",
"c  c #987648",
"v  c #86775B",
"b  c #917B55",
"n  c #876E49",
"m  c #A77F4C",
"M  c #887B65",
"N  c #837E79",
"B  c #B4863F",
"V  c #CDAB3F",
"C  c #F1B835",
"Z  c #F7C82D",
"A  c #FFDD23",
"S  c #FCD62A",
"D  c #FDDA3B",
"F  c #FDDB30",
"G  c #F3C13B",
"H  c #9A835B",
"J  c #A98543",
"K  c #BD995D",
"L  c #B09251",
"P  c #998765",
"I  c #86847E",
"U  c #998D71",
"Y  c #A4916A",
"T  c #AC996C",
"R  c #AA9566",
"E  c #B89B66",
"W  c #A59779",
"Q  c #B1946A",
"!  c #BAA369",
"~  c #B7A579",
"^  c #C6A355",
"/  c #F0BD48",
"(  c #C9AB67",
")  c #C5AE74",
"_  c #C8B37A",
"`  c #D7B977",
"'  c #D8B46C",
"]  c #E4BE60",
"[  c #F3CA57",
"{  c #F8D559",
"}  c #F5CF4E",
"|  c #DFC476",
" . c #F9DA69",
".. c #F6D978",
"X. c #EAC66E",
"o. c #FDE37A",
"O. c #7E7C8A",
"+. c #797684",
"@. c #716F81",
"#. c #817E84",
"$. c #807F91",
"%. c #868380",
"&. c #8A8686",
"*. c #8C8985",
"=. c #86848D",
"-. c #8C898B",
";. c #918E89",
":. c #93918E",
">. c #9E9589",
",. c #8B8896",
"<. c #979393",
"1. c #999594",
"2. c #9D9A96",
"3. c #97949C",
"4. c #928D91",
"5. c #A59A85",
"6. c #A39E9A",
"7. c #B4A488",
"8. c #A5A29E",
"9. c #ADA69A",
"0. c #BCAD98",
"q. c #BAB09F",
"w. c #9E9AAC",
"e. c #9995A4",
"r. c #A39FA8",
"t. c #A5A2A1",
"y. c #AAA5A3",
"u. c #ABA9A5",
"i. c #AEABAA",
"p. c #A7A3AD",
"a. c #B2AEAA",
"s. c #B1A8A7",
"d. c #B5B2AD",
"f. c #BAB5A9",
"g. c #ACA9B8",
"h. c #ABA8B3",
"j. c #B0ADB4",
"k. c #B9B6B4",
"l. c #BDBAB5",
"z. c #BAB5BB",
"x. c #BFBBBA",
"c. c #B6B2B4",
"v. c #C0AB8D",
"b. c #CCB889",
"n. c #C7B995",
"m. c #CCB48E",
"M. c #C3BCA8",
"N. c #C2BDBB",
"B. c #C2ACA2",
"V. c #D4C497",
"C. c #DDC78D",
"Z. c #E4CE8C",
"A. c #F6DB84",
"S. c #E7D291",
"D. c #F4DB93",
"F. c #F9E18C",
"G. c #F9E081",
"H. c #F8E399",
"J. c #C8C2BB",
"K. c #D1C7B8",
"L. c #E6D5A6",
"P. c #F5DDA3",
"I. c #EBD9B2",
"U. c #ECD6BD",
"Y. c #F7E4A5",
"T. c #F8E7B6",
"R. c #EFE0A7",
"E. c #B9B6C4",
"W. c #BDB9C4",
"Q. c #B5B3C2",
"!. c #C0BCC4",
"~. c #CAC6C4",
"^. c #CDC9C6",
"/. c #C7C4CC",
"(. c #CECBCC",
"). c #C7C5C8",
"_. c #D1CCCA",
"`. c #D5CCC5",
"'. c #D6D1C7",
"]. c #C7C3D1",
"[. c #CECAD4",
"{. c #C8C2D0",
"}. c #D4CED6",
"|. c #D6D3D1",
" X c #DAD4D2",
".X c #DDDAD6",
"XX c #DDDADB",
"oX c #D9D6DB",
"OX c #E5DAC7",
"+X c #E1DEDC",
"@X c #ECE2C9",
"#X c #F8E9C5",
"$X c #FCF3CA",
"%X c #E5E1DE",
"&X c #EBE1D2",
"*X c #F3E7D4",
"=X c #FCF4D9",
"-X c #DDD8E4",
";X c #E2DCE4",
":X c #E6E2E4",
">X c #EAE4E3",
",X c #EDE9EB",
"<X c #EBE8E6",
"1X c #F2EDEC",
"2X c #F5ECE5",
"3X c #FDFBEA",
"4X c #FAF4E8",
"5X c #EDE9F3",
"6X c #F2EEF3",
"7X c #F6F3F4",
"8X c #FAF6F5",
"9X c #FCF9F3",
"0X c #FAF6FA",
"qX c #FDFDFC",
"wX c None",
/* pixels */
"wXwXwXwXwXwXwXwXwXwXwXwXwXwXwXwXwXwXwXwXwXwXwXwXwXwXwXwXwXwXwXwXwXwXwXwXwXwXwXwXwXwXwXwXwXwXwXwXwXwXwXwXwXwXwXwXwXwXwXwXwXwXwXwX",
"wXwXwXwXwXwXwXwXwXwXwXwXwXwXwXwXwXwXwXwXwXwXwXwXwXwXwXwXwXwXwXwXwXwXwXwXwXwXwXwXwXA wXwXwXwXwXwXwXwXwXwXwXwXwXwXwXwXwXwXwXwXwXwX",
"wXwXwXwXwXwXwXwXwXwXwXwXwXwXwXwXwXwXwXwXwXwXwXwXwXwXwXwXwXwXwXwXwXwXwXwXwXwXwXwXwXwXwXwXwXwXwXwXwXwXwXwXwXwXwXwXwXwXwXwXwXwXwXwX",
"wXwXwXwXwXwXwXwXwXwXwXwXwXwXwXwXwXwXwXwXwXwXwXwXwXwXwXwXwXwXwXwXwXwXwXwXwXwXwXwXA wXwXwXwXwXwXwXwXwXwXwXwXwXwXwXwXwXwXwXwXwXwXwX",
"wXwXwXwXwXwXwXwXwXwXwXwXwXwXwXwXwXwXwXwXwXwXwXwXwXwXwXwXwXwXwXwXwXwXwXwXwXS wXwXA wXwXwXwXwXwXwXwXwXwXwXwXwXwXwXwXwXwXwXwXwXwXwX",
"wXwXwXwXwXwXwXwXwXwXwXwXwXwXwXwXwXwXwXwXwXwXwXwXwXwXwXwXwXwXwXwXwXwXwXA wXZ wX} wXwXwXwXwXwXwXwXwXwXwXwXwXwXwXwXwXwXwXwXwXwXwXwX",
"wXwXwXwXwXwXwXwXwXwXwXwXwXwXwXwXwXwXwXwXwXwXwXwXwXwXwXwXwXwXwXwXwXwXwXwXwX} o.F.wXwXwXwXwXwXwXwXwXwXwXwXwXwXwXwXwXwXwXwXwXwXwXwX",
"wXwXwXwXwXwXwXwXwXwXwXwXwXwXwXwXwXwXwXwXwXwXwXwXwXwXwXwXwXwXwXwXwXwX{ wXwXH.*X$X[ wXwXwXwXwXwXwXwXwXwXwXwXwXwXwXwXwXwXwXwXwXwXwX",
"wXwXwXwXwXwXwXwXwXwXwXwXwXwXwXwXwXwXwXwXwXwXwXwXwXwXwXwXwXwXwXA wXwXwXF...3X3X$XH.A.wXwXwXwXwXwXwXwXwXwXwXwXwXwXwXwXwXwXwXwXwXwX",
"wXwXwXwXwXwXwXwXwXwXwXwXwXwXwXwXwXwXwXwXwXwXwXwXwXwXwXwXwXwXwXwXF {  . .$XqX1X4XY.wXwXwXZ wXwXwXwXwXwXwXwXwXwXwXwXwXwXwXwXwXwXwX",
"wXwXwXwXwXwXwXwXwXwXwXwXwXwXwXwXwXwXwXwXwXwXwXwXwXwXwXwXwXwXwXwXwXwXwXH.3XqXqX*XD.A...D wXwXwXwXwXwXwXwXwXwXwXwXwXwXwXwXwXwXwXwX",
"wXwXwXwXwXwXwXwXwXwXwXwXwXwXwXwXwXwXwXwXwXwXwXwXwXwXwXA A wXwXwXG  .F.A.3X0X7X#XA.wXwXwXwXwXwXwXwXwXwXwXwXwXwXwXwXwXwXwXwXwXwXwX",
"wXwXwXwXwXwXwXwXwXwXwXwXwXwXwXwXwXwXwXwXwXwXwXwXwXwXwXwXwXwXwXwXwXwX{ T.qXqX9X#XD.F. ./ wXwXwXwXwXwXwXwXwXwXwXwXwXwXwXwXwXwXwXwX",
"wXwXwXwXwXwXwXwXwXwXwXwXwXwXwXwXwXwXwXwXwXwXwXwXwXwXwXwXwXwXwXwXD o.o.Y.3X7X9XT.G.wXwXS A S wXwXwXwXwXwXwXwXwXwXwXwXwXwXwXwXwXwX",
"wXwXwXwXwXwXwXwXwXwXwXwXwXwXwXwXwXwXwXwXwXwXwXwXwXwXwXwXwXwXwXwXwX[ { T.qXqX8XF. .G.F A wXwXwXwXwXwXwXwXwXwXwXwXwXwXwXwXwXwXwXwX",
"wXwXwXwXwXwXwXwXwXwXwXwXwXwXwXwXwXwXwXwXwXwXwXwXwXwXwXwXwXwXA S Z } o.$XqX0XOXY.D wXC wXwXwXwXwXwXwXwXwXwXwXwXwXwXwXwXwXwXwXwXwX",
"wXwXwXwXwXwXwXwXwXwXwXwXwXwXwXwXwXwXwXwXwXwXwXwXwXwXwXwXwXwXwXwXwXwXA.H.4X2XI.H...wXwXwXwXwXwXwXwXwXwXwXwXwXwXwXwXwXwXwXwXwXwXwX",
"wXwXwXwXwXwXwXwXwXwXwXwXwXwXwXwXwXwXwXwXwXwXwXwXwXwXwXwXwXwXwXwXwX..wX..T.2X| wXwXwXwXwXA wXwXwXwXwXwXwXwXwXwXwXwXwXwXwXwXwXwXwX",
"wXwXwXwXwXwXwXwXwXwXwXwXwXwXwXwXwXwXwXwXwXwXwXwXwXwXwXwXwXwXwXwXA V n ( n.P.wXwX} wXwXwXwXwXwXwXwXwXwXwXwXwXwXwXwXwXwXwXwXwXwXwX",
"wXwXwXwXwXwXwXwXwXwXwXwXwXwXwXwXwXwXwXwXwXwXwXwXwXwXwXwXwXwXwXwX^ ) m.C.*X' f.* wXS wXwXwXwXwXwXwXwXwXwXwXwXwXwXwXwXwXwXwXwXwXwX",
"wXwXwXwXwXwXwXwXwXwXwXwXwXwXwXwXwXwXwXwXwXwXwXwXwXwXwXwXwXwXwXz B R.` _ =XY.T.T wXwXwXwXwXwXwXwXwXwXwXwXwXwXwXwXwXwXwXwXwXwXwXwX",
"wXwXwXwXwXwXwXwXwXwXwXwXwXwXwXwXwXwXwXwXwXwXwXwXwXwXwXwXwX2 c l Y R.( m.3XK.B c wXwXwXwXwXwXwXwXwXwXwXwXwXwXwXwXwXwXwXwXwXwXwXwX",
"wXwXwXwXwXwXwXwXwXwXwXwXwXwXwXwXwXwXwXwXwXwXwXwXwXwXwXwXwX; B J ` Z.X.v.$XP.5.K wXwXwXwXwXwXwXwXwXwXwXwXwXwXwXwXwXwXwXwXwXwXwXwX",
"wXwXwXwXwXwXwXwXwXwXwXwXwXwXwXwXwXwXwXwXwXwXwXwXwXwXwXwXn z K X.( | 7.K.$X;.<.K.J.&.wXwXwXwXwXwXwXwXwXwXwXwXwXwXwXwXwXwXwXwXwXwX",
"wXwXwXwXwXwXwXwXwXwXwXwXwXwXwXwXwXwXwXwXwXwXwXwXwXwXwXwXw ) ! ^ ` W J.OX$XJ.).0XqX1XK.5.wXwXwXwXwXwXwXwXwXwXwXwXwXwXwXwXwXwXwXwX",
"wXwXwXwXwXwXwXwXwXwXwXwXwXwXwXwXwXwXwXwXwXwXwXwXwXwXwX. P b.D.^ b.d.+XOX@X>X0X7X8X4X XM.wXwXwXwXwXwXwXwXwXwXwXwXwXwXwXwXwXwXwXwX",
"wXwXwXwXwXwXwXwXwXwXwXwXwXwXwXwXwXwXwXwXwXwXwXwXwXwX+ ; 0 Z.D.V.8. X;X&XOX_./.E.a.q.wXwXwXwXwXwXwXwXwXwXwXwXwXwXwXwXwXwXwXwXwXwX",
"wXwXwXwXwXwXwXwXwXwXwXwXwXwXwXwXwXwXwXwXwXwXwXwXwXwXq q T ! ! 0.9.:X1X>X;Xz.u , 5.W wXwXwXwXwXwXwXwXwXwXwXwXwXwXwXwXwXwXwXwXwXwX",
"wXwXwXwXwXwXwXwXwXwXwXwXwXwXwXwXwXwXwXwXwXwXwXwXwXq t + Y T R I 6.+X6X2X;Xi.wX$ Y 7.9 wXwXwXwXwXwXwXwXwXwXwXwXwXwXwXwXwXwXwXwXwX",
"wXwXwXwXwXwXwXwXwXwXwXwXwXwXwXwXwXwXwXwXwXwXwXwXwXwX& $ P H R -.6. X1X1X,XE.wXwX. r V.wXwXwXwXwXwXwXwXwXwXwXwXwXwXwXwXwXwXwXwXwX",
"wXwXwXwXwXwXwXwXwXwXwXwXwXwXwXwXwXwXwXwXwXwXwXwXwXwX8 ; n Q P &.1.~.>X6X0X}.=.wX. * wXwXwXwXwXwXwXwXwXwXwXwXwXwXwXwXwXwXwXwXwXwX",
"wXwXwXwXwXwXwXwXwXwXwXwXwXwXwXwXwXwXwXwXwXwXwXwXwXwXr q T T r %.6.`.<X<X0X,Xr.wXwXwXwXwXwXwXwXwXwXwXwXwXwXwXwXwXwXwXwXwXwXwXwXwX",
"wXwXwXwXwXwXwXwXwXwXwXwXwXwXwXwXwXwXwXwXwXwXwXwXwXP q ; ~ T s *.y.l.+X:X0X6XE.g wXwXwXwXwXwXwXwXwXwXwXwXwXwXwXwXwXwXwXwXwXwXwXwX",
"wXwXwXwXwXwXwXwXwXwXwXwXwXwXwXwXwXwXwXwXwXwXwXwXwXwXr >.W P e 2.N.J.OX X.X_.z.r.3.wXwXwXwXwXwXwXwXwXwXwXwXwXwXwXwXwXwXwXwXwXwXwX",
"wXwXwXwXwXwXwXwXwXwXwXwXwXwXwXwXwXwXwXwXwXwXwXwXwXwXO 2 U v 9 1.y. X>X<X1X>X).j.E.,.wXwXwXwXwXwXwXwXwXwXwXwXwXwXwXwXwXwXwXwXwXwX",
"wXwXwXwXwXwXwXwXwXwXwXwXwXwXwXwXwXwXwXwXwXwXwXwXwXwXwXU & 5 p *.6._.`.<XqX8X:Xj.e.#.#.h a.d.t.wXwXwXwXwXwXwXwXwXwXwXwXwXwXwXwXwX",
"wXwXwXwXwXwXwXwXwXwXwXwXwXwXwXwXwXwXwXwXwXwXwXwXwXwXwXO < j I ;.8.J.%X<X8XqX:Xw.,.r.N.a._.5X-X$.wXwXwXwXwXwXwXwXwXwXwXwXwXwXwXwX",
"wXwXwXwXwXwXwXwXwXwXwXwXwXwXwXwXwXwXwXwXwXwXwXwXwXwX1 p &.t.d.:.g 2. X8X7X<X/.x.j.y.N.k.1.{.5Xg.wXwXwXwXwXwXwXwXwXwXwXwXwXwXwXwX",
"wXwXwXwXwXwXwXwXwXwXwXwXwXwXwXwXwXwXwXwXg 1.g 5 g I I 1.u.k.|.`.8.a 2.`.7X8XqXqX%X`.^.;XN.9.0XW.wXwXwXwXwXwXwXwXwXwXwXwXwXwXwXwX",
"wXwXwXwXwXwXwXwXwXwXwXwXwXwXwXwXwXwXa a h I %.u.J.u.8.i.J.|..X:X%Xa.a 1.^.:X7XXXN.r.6.N.N.7.0X[.wXwXwXwXwXwXwXwXwXwXwXwXwXwXwXwX",
"wXwXwXwXwXwXwXwXwXwXwXwXwXwXwXwXwXwX5 g e *.k.'.'.d.d.k._..X1X+X<X_.<.6 h 3.p.,.p M n.N.s.N +X!.wXwXwXwXwXwXwXwXwXwXwXwXwXwXwXwX",
"wXwXwXwXwXwXwXwXwXwXwXwXwXwXwXwXwXwX8.p g d.|. Xl.d.d.N.^..X+X7X1X+Xx.=.y 3 4 wXP S.L.'.B.OX;Xr.wXwXwXwXwXwXwXwXwXwXwXwXwXwXwXwX",
"wXwXwXwXwXwXwXwXwXwXwXwXwXwXwXwXwX2.z.7 u.l.%X1Xl.d.d.N.x.(..XXX:X-XW.e.i > wXwXb Q ) `.v.L.J.wXwXwXwXwXwXwXwXwXwXwXwXwXwXwXwXwX",
"wXwXwXwXwXwXwXwXwXwXwXwXwXwXwXwXwX|.3.7 d.l.XX7X^.d.t.i.J.k.)._.[.[.g.$.3 wXwXwXl z 5.c.p : w wXwXwXwXwXwXwXwXwXwXwXwXwXwXwXwXwX",
"wXwXwXwXwXwXwXwXwXwXwXwXwXwXwXwXI ;Xy 1 u.d..X9X+X~.<.1.t.i.p.h.g.w.O.y wXwXwXwXJ T.3XN.wX: wXwXwXwXwXwXwXwXwXwXwXwXwXwXwXwXwXwX",
"wXwXwXwXwXwXwXwXwXwXwXwXwXwXwXwXu.XXwX@ 2.8.~.,X+X+Xk.&.#.=.-.O.+.i 4 wXwXwXwXwXwXn.S.c wXwXwXwXwXwXwXwXwXwXwXwXwXwXwXwXwXwXwXwX",
"wXwXwXwXwXwXwXwXwXwXwXwXwXwXwXwXx.-XwX  h y.l.>X,X,X-X4.7 3 y 4 > wXwXwXwXwXwXwXwX* n . wXwXwXwXwXwXwXwXwXwXwXwXwXwXwXwXwXwXwXwX",
"wXwXwXwXwXwXwXwXwXwXwXwXwXwXwXwX).E.wXX < :.d. XqX7X-X+.1 @ # wXwXwXwXwXwXwXwXwXwXwXwXwXwXwXwXwXwXwXwXwXwXwXwXwXwXwXwXwXwXwXwXwX",
"wXwXwXwXwXwXwXwXwXwXwXwXwXwXwXwX[.wXwXwXo a y.^.,X6X{.a 3 4 wXwXwXwXwXwXwXwXwXwXwXwXwXwXwXwXwXwXwXwXwXwXwXwXwXwXwXwXwXwXwXwXwXwX",
"wXwXwXwXwXwXwXwXwXwXwXwXwXwXwXwX|.wXwXwXo @ h l.;X6Xe.u d 3 wXwXwXwXwXwXwXwXwXwXwXwXwXwXwXwXwXwXwXwXwXwXwXwXwXwXwXwXwXwXwXwXwXwX",
"wXwXwXwXwXwXwXwXwXwXwXwXwXwXwXwX^.wXwXwXwX@ ;.i.(.E.f e.O.wXwXwXwXwXwXwXwXwXwXwXwXwXwXwXwXwXwXwXwXwXwXwXwXwXwXwXwXwXwXwXwXwXwXwX",
"wXwXwXwXwXwXwXwXwXwXwXwXwXwXwXwXk.wXwXwXwX1 *.u.p.k y.E.@.wXwXwXwXwXwXwXwXwXwXwXwXwXwXwXwXwXwXwXwXwXwXwXwXwXwXwXwXwXwXwXwXwXwXwX",
"wXwXwXwXwXwXwXwXwXwXwXwXwXwXwXwXI P W wXwX7 :.3.d #.oXg.wXwXwXwXwXwXwXwXwXwXwXwXwXwXwXwXwXwXwXwXwXwXwXwXwXwXwXwXwXwXwXwXwXwXwXwX",
"wXwXwXwXwXwXwXwXwXwXwXwXwXwXwXwXt H 0.b 6 ;.c.,.o :.-XQ.wXwXwXwXwXwXwXwXwXwXwXwXwXwXwXwXwXwXwXwXwXwXwXwXwXwXwXwXwXwXwXwXwXwXwXwX",
"wXwXwXwXwXwXwXwXwXwXwXwXwXwXwXwX; R R ! r z.W.u wXp }.5Xh.wXwXwXwXwXwXwXwXwXwXwXwXwXwXwXwXwXwXwXwXwXwXwXwXwXwXwXwXwXwXwXwXwXwXwX",
"wXwXwXwXwXwXwXwXwXwXwXwXwXwXwXwX- b ! W e N.].wXwX@ y.1X;X$.wXwXwXwXwXwXwXwXwXwXwXwXwXwXwXwXwXwXwXwXwXwXwXwXwXwXwXwXwXwXwXwXwXwX",
"wXwXwXwXwXwXwXwXwXwXwXwXwXwXwXwXwXO wXwX1 (.-XwXwXwXs |.qX[.d wXwXwXwXwXwXwXwXwXwXwXwXwXwXwXwXwXwXwXwXwXwXwXwXwXwXwXwXwXwXwXwXwX",
"wXwXwXwXwXwXwXwXwXwXwXwXwXwXwXwXwXwXwXwXr d.5Xe.wXwXs l.<X0Xe.wXwXwXwXwXwXwXwXwXwXwXwXwXwXwXwXwXwXwXwXwXwXwXwXwXwXwXwXwXwXwXwXwX",
"wXwXwXwXwXwXwXwXwXwXwXwXwXwXwXwXwXwXwX& P n.7XE.wXwXT b.n.7X[.wXwXwXwXwXwXwXwXwXwXwXwXwXwXwXwXwXwXwXwXwXwXwXwXwXwXwXwXwXwXwXwXwX",
"wXwXwXwXwXwXwXwXwXwXwXwXwXwXwXwXwXwXwXwXP 5.oX].wXwX= = Y '.^.~ J wXwXwXwXwXwXwXwXwXwXwXwXwXwXwXwXwXwXwXwXwXwXwXwXwXwXwXwXwXwXwX",
"wXwXwXwXwXwXwXwXwXwXwXwXwXwXwXwXwXwXwXwXb ~ 5.+X>.wX- % n m L.Y.H wXwXwXwXwXwXwXwXwXwXwXwXwXwXwXwXwXwXwXwXwXwXwXwXwXwXwXwXwXwXwX",
"wXwXwXwXwXwXwXwXwXwXwXwXwXwXwXwXwXwXwX$ = Y z R K l wXwXwX: ~ b.b wXwXwXwXwXwXwXwXwXwXwXwXwXwXwXwXwXwXwXwXwXwXwXwXwXwXwXwXwXwXwX",
"wXwXwXwXwXwXwXwXwXwXwXwXwXwXwXwXwXwXwXP wXwXl ( I.R wXwXwXwXwXwXwXwXwXwXwXwXwXwXwXwXwXwXwXwXwXwXwXwXwXwXwXwXwXwXwXwXwXwXwXwXwXwX",
"wXwXwXwXwXwXwXwXwXwXwXwXwXwXwXwXwXwXwXwXwXwXwXwXwXwXwXwXwXwXwXwXwXwXwXwXwXwXwXwXwXwXwXwXwXwXwXwXwXwXwXwXwXwXwXwXwXwXwXwXwXwXwXwX"
};
