/* XPM */
static char *result[] = {
/* columns rows colors chars-per-pixel */
"64 64 210 2 ",
"   c #191818",
".  c #231D18",
"X  c #2C170B",
"o  c #2E2719",
"O  c #30281C",
"+  c #2B292B",
"@  c #24232C",
"#  c #352E25",
"$  c #2F2E3A",
"%  c #3C3B3A",
"&  c #353334",
"*  c #39342A",
"=  c #42331F",
"-  c #4B3F2C",
";  c #4B4334",
":  c #47423A",
">  c #534B3A",
",  c #554A37",
"<  c #59503F",
"1  c #584327",
"2  c #685638",
"3  c #6D5337",
"4  c #343341",
"5  c #3C3B47",
"6  c #4A484A",
"7  c #49464A",
"8  c #544D41",
"9  c #5C5343",
"0  c #585249",
"q  c #434253",
"w  c #4C4A58",
"e  c #595556",
"r  c #655D4A",
"t  c #645A45",
"y  c #6A5F51",
"u  c #62615E",
"i  c #6C6556",
"p  c #756C54",
"a  c #786E58",
"s  c #787057",
"d  c #7D735D",
"f  c #70654D",
"g  c #5B5A62",
"h  c #575566",
"j  c #615B60",
"k  c #646363",
"l  c #6C6A6A",
"z  c #67656A",
"x  c #756E62",
"c  c #716D69",
"v  c #7A6E6B",
"b  c #79746B",
"n  c #6A6776",
"m  c #757372",
"M  c #7B7976",
"N  c #7E7C7B",
"B  c #797677",
"V  c #89775C",
"C  c #9B7F5A",
"Z  c #8B7E65",
"A  c #847966",
"S  c #827D7B",
"D  c #827C75",
"F  c #B7872F",
"G  c #E7C32A",
"H  c #9B804E",
"J  c #9F8B59",
"K  c #AB8857",
"L  c #AC925B",
"P  c #8A816A",
"I  c #8F8267",
"U  c #92866B",
"Y  c #95896D",
"T  c #968465",
"R  c #8A8171",
"E  c #84817C",
"W  c #9B8E73",
"Q  c #958B77",
"!  c #9D9277",
"~  c #9B917C",
"^  c #A4967A",
"/  c #A59A7A",
"(  c #AA9D7C",
")  c #AD9B70",
"_  c #B09D77",
"`  c #AEA07E",
"'  c #C39A55",
"]  c #DFAC46",
"[  c #D3B164",
"{  c #E4BC6C",
"}  c #EAC05F",
"|  c #FDDC5C",
" . c #ECC873",
".. c #777484",
"X. c #7C7984",
"o. c #7D7B8A",
"O. c #7F7C90",
"+. c #817E88",
"@. c #868482",
"#. c #898583",
"$. c #8E8A8A",
"%. c #888589",
"&. c #928E8D",
"*. c #968C84",
"=. c #95928E",
"-. c #9D9585",
";. c #8A8796",
":. c #908E98",
">. c #939297",
",. c #9A9994",
"<. c #96949E",
"1. c #9B969B",
"2. c #9C999A",
"3. c #999493",
"4. c #A49A84",
"5. c #A89D89",
"6. c #A29D9B",
"7. c #AFA386",
"8. c #B2A484",
"9. c #BAAB8B",
"0. c #B4A789",
"q. c #BEB28E",
"w. c #A5A19E",
"e. c #B7AA96",
"r. c #BCB29B",
"t. c #9693A2",
"y. c #9B98A3",
"u. c #A09FA2",
"i. c #A09CAD",
"p. c #A6A3A1",
"a. c #AAA5A3",
"s. c #AEAAA6",
"d. c #A5A3AB",
"f. c #ADAAAB",
"g. c #A9A5A9",
"h. c #B1ADAA",
"j. c #B9A9A9",
"k. c #B5B2AE",
"l. c #ABA9B3",
"z. c #B2ACB7",
"x. c #B6B3B4",
"c. c #BAB5B3",
"v. c #BDB9B5",
"b. c #BDB9B9",
"n. c #B8B3BC",
"m. c #C6B685",
"M. c #C3B493",
"N. c #CABA95",
"B. c #CEBF99",
"V. c #C2BDBA",
"C. c #C7B9B6",
"Z. c #C8BEAC",
"A. c #DAC689",
"S. c #D1C49E",
"D. c #E9D297",
"F. c #FFE89A",
"G. c #CFC5A1",
"H. c #DECFA7",
"J. c #D4C5A1",
"K. c #C4C1BB",
"L. c #CBC3B0",
"P. c #E5D6AC",
"I. c #E6DBBA",
"U. c #F2E6B8",
"Y. c #B5B1C1",
"T. c #BAB6C4",
"R. c #C1BDCA",
"E. c #C3BFC4",
"W. c #C6C3C5",
"Q. c #CAC5C2",
"!. c #CECAC5",
"~. c #C6C3CC",
"^. c #CBC6CB",
"/. c #D4CECC",
"(. c #D3CDC7",
"). c #D6D2CD",
"_. c #D9D3CF",
"`. c #CEC9D4",
"'. c #CBC6D4",
"]. c #D4CED6",
"[. c #D6D2D3",
"{. c #DBD6D2",
"}. c #D5D1DA",
"|. c #DAD4DC",
" X c #DEDADA",
".X c #DDD9D2",
"XX c #E1DBD6",
"oX c #E1DCDC",
"OX c #EBDCCF",
"+X c #E5E0DB",
"@X c #E8E4DF",
"#X c #F2E7CA",
"$X c #DDD9E4",
"%X c #E4DFE4",
"&X c #E1DCEB",
"*X c #E5E1E2",
"=X c #EAE6E4",
"-X c #EEE9E4",
";X c #E9E5EE",
":X c #E9E6EA",
">X c #F2EDEB",
",X c #F7F3EC",
"<X c #EDEBF2",
"1X c #F1EEF3",
"2X c #F5F3F3",
"3X c #F9F5F3",
"4X c #FBFAF7",
"5X c #F6F3F9",
"6X c #FDFCFD",
"7X c None",
/* pixels */
"7X7X7X7X7X7X7X7X7X7X7X7X7X7X7X7X7X7X7X7X7X7X7X7X7X7X7X7X7X7X7X7X7X7X7X7X7X7X7X7X7X7X7X7X7X7X7X7X7X7X7X7X7X7X7X7X7X7X7X7X7X7X7X7X",
"7X7X7X7X7X7X7X7X7X7X7X7X7X7X7X7X7X7X7X7X7X7X7X7X7X7X7X7X7X7X7X7X7X7X7X7X7X7X7X7X7X7X7X7X7X7X7X7X7X7X7X7X7X7X7X7X7X7X7X7X7X7X7X7X",
"7X7X7X7X7X7X7X7X7X7X7X7X7X7X7X7X7X7X7X7X7X7X7X7X7X7X7X7X7X7X7X7X7X7X7X7X7X7X7X7X7X7X7X7X7X7X7X7X7X7X7X7X7X7X7X7X7X7X7X7X7X7X7X7X",
"7X7X7X7X7X7X7X7X7X7X7X7X7X7X7X7X7X7X7X7X7X7X7X7X7X7X7X7X7X7X7X7X7X7X7X7X7X7X7X7X7X7X7X7X7X7X7X7X7X7X7X7X7X7X7X7X7X7X7X7X7X7X7X7X",
"7X7X7X7X7X7X7X7X7X7X7X7X7X7X7X7X7X7X7X7X7X7X7X7X7X7X7X7X7X7X7X7X7X7X7X7X7X7X7X7X7X7X7X7X7X7X7X7X7X7X7X7X7X7X7X7X7X7X7X7X7X7X7X7X",
"7X7X7X7X7X7X7X7X7X7X7X7X7X7X7X7X7X7X7X7X7X7X7X7X7X7X7X7X7X7X7X7X7X7X7X7X7X7X7X7X7X7X7X7X7X7X7X7X7X7X7X7X7X7X7X7X7X7X7X7X7X7X7X7X",
"7X7X7X7X7X7X7X7X7X7X7X7X7X7X7X7X7X7X7X7X7X7X7X7X7X7X7X7X7X7X7X7X7X7X7X7X7X7X7X7X7X7X7X7X7X7X7X7X7X7X7X7X7X7X7X7X7X7X7X7X7X7X7X7X",
"7X7X7X7X7X7X7X7X7X7X7X7X7X7X7X7X7X7X7X7X7X7X7X7X7X7X7X7X7X7X7X7X7X7X7X7X7X7X7X7X7X7X7X7X7X7X7X7X7X7X7X7X7X7X7X7X7X7X7X7X7X7X7X7X",
"7X7X7X7X7X7X7X7X7X7X7X7X7X7X7X7X7X7X7X7X7X7X7X7X7X7X7X7X7X7X7X7X7X7X7X7X7X7X7X7X7X7X7X7X7X7X7X7X7X7X7X7X7X7X7X7X7X7X7X7X7X7X7X7X",
"7X7X7X7X7X7X7X7X7X7X7X7X7X7X7X7X7X7X7X7X7X7X7X7X7X7X7X7X7X7X7X7X7X7X7X7X7X7X7X7X7X7X7X7X7X7X7X7X7X7X7X7X7X7X7X7X7X7X7X7X7X7X7X7X",
"7X7X7X7X7X7X7X7X7X7X7X7X7X7X7X7X7X7X7X7X7X7X7X7X7X7X7X7X7X7X7X7X7X7X7X7X7X7X7X7X7X7X7X7X7X7X7X7X7X7X7X7X7X7X7X7X7X7X7X7X7X7X7X7X",
"7X7X7X7X7X7X7X7X7X7X7X7X7X7X7X7X7X7X7X7X7X7X7X7X7X7X7X7X7X7X7X7X7X7X7X7X7X7X7X7X7X7X7X7X7X7X7X7X7X7X7X7X7X7X7X7X7X7X7X7X7X7X7X7X",
"7X7X7X7X7X7X7X7X7X7X7X7X7X7X7X7X7X7X7X7X7X7X7X7X7X7X7X7X7X7X7X7X7X7X7X7X7X7X7X7X7X7X7X7X7X7X7X7X7X7X7X7X7X7X7X7X7X7X7X7X7X7X7X7X",
"7X7X7X7X7X7X7X7X7X7X7X7X7X7X7X7X7X7X7X7X7X7X7X7X7X7X7X7X7X7X7X7X7X7X7X7X7X7X7X7X7X7X7X7X7X7X7X7X7X7X7X7X7X7X7X7X7X7X7X7X7X7X7X7X",
"7X7X7X7X7X7X7X7X7X7X7X7X7X7X7X7X7X7X7X7X7X7X7X7X7X7X7X7X7X7X7X7X7X7X7X7X7X7X7X7X7X7X7X7X7X7X7X7X7X7X7X7X7X7X7X7X7X7X7X7X7X7X7X7X",
"7X7X7X7X7X7X7X7X7X7X7X7X7X7X7X7X7X7X7X7X7X7X7X7X7X7X7X7X7X7X7X7X7X7X7X7X7X7X7X7X7X7X7X7X7X7X} 7X7X7X7X7X7X7X7X7X7X7X7X7X7X7X7X7X",
"7X7X7X7X7X7X7X7X7X7X7X7X7X7X7X7X7X7X7X7X7X7X7X7X7X7X7X7X7X7X7X7X7X7X7X7X7X7X7X7X7X7X7X7X7X#XD.7X7X7X7X7X7X7X7X7X7X7X7X7X7X7X7X7X",
"7X7X7X7X7X7X7X7X7X7X7X7X7X7X7X7X7X7X7X7X7X7X7X7X7X7X7X7X7X7X7X7X7X7X7X7X7X7X7X7X7X7X7X7X|  .7X7X7X7X7X7X7X7X7X7X7X7X7X7X7X7X7X7X",
"7X7X7X7X7X7X7X7X7X7X7X7X7X7X7X7X7X7X7X7X7X7X7X7X7X7X7X7X7X7X7X7X7X7X7X7X7X7X7X7X7X7X7XF.OX .7X7X7X7X7X7X7X7X7X7X7X7X7X7X7X7X7X7X",
"7X7X7X7X7X7X7X7X7X7X7X7X7X7X7X7X7X7X7X7X7X7X7X7X7X7X7X7X7X7X7X7X7X7X7X7X7X7X7X7X7X7X7X7X .7X7X7X7X7X7X7X7X7X7X7X7X7X7X7X7X7X7X7X",
"7X7X7X7X7X7X7X7X7X7X7X7X7X7X7X7X7X7X7X7X7X7X7X7X7X7X7X7X7X7X7X7X7X7X7X7X7X7X7X7X7X7X7XG ] 7X7X7X7X7X7X7X7X7X7X7X7X7X7X7X7X7X7X7X",
"7X7X7X7X7X7X7X7X7X7X7X7X7X7X7X7X7X7X7X7X7X7X7X7X7X7X7X7X7X7X7X7X7X7X7X7X7X7X7X7X7X7X7X[ F 7X7X7X7X7X7X7X7X7X7X7X7X7X7X7X7X7X7X7X",
"7X7X7X7X7X7X7X7X7X7X7X7X7X7X7X7X7X7X7X7X7X7X7X7X7X7X7X7X7X7X7X7X7X7X7X7X7X7X7X7X7X7X-X{ 7X7X7X7X7X7X7X7X7X7X7X7X7X7X7X7X7X7X7X7X",
"7X7X7X7X7X7X7X7X7X7X7X7X7X7X7X7X7X7X7X7X7X7X7X7X7X7X7X7X7X7X7X7X7X7X7X7X7X7X7X* 7X7XD.' 7X7X7X7X7X7X7X7X7X7X7X7X7X7X7X7X7X7X7X7X",
"7X7X7X7X7X7X7X7X7X7X7X7X7X7X7X7X7X7X7X7X7X7X7X7X7X7X7X7X7X7X7X7X7X7X7X7X7XY ( p V ` L K 7X7X7X7X7X7X7X7X7X7X7X7X7X7X7X7X7X7X7X7X",
"7X7X7X7X7X7X7X7X7X7X7X7X7X7X7X7X7X7X7X7X7X7X7X7X7X7X7X7X7X7X7X7X7X7X7X7X9 ` Z e.0.0.( / > 7X7X7X7X7X7X7X7X7X7X7X7X7X7X7X7X7X7X7X",
"7X7X7X7X7X7X7X7X7X7X7X7X7X7X7X7X7X7X7X7X7X7X7X7X7X7X7X7X7X7X7X7X7X7Xs - V 4.*.j.e.Y N.S.x 7X7X7X7X7X7X7X7X7X7X7X7X7X7X7X7X7X7X7X",
"7X7X7X7X7X7X7X7X7X7X7X7X7X7X7X7X7X7X7X7X7X7X7X7X7X7X7X7X7X7X7X7X7X7X; p d N.5.C.j.R a e W 7X7X7X7X7X7X7X7X7X7X7X7X7X7X7X7X7X7X7X",
"7X7X7X7X7X7X7X7X7X7X7X7X7X7X7X7X7X7X7X7X7X7X7X7X7X7X7X7X7X7X7X7X7X8 a ^ Z 0.~ 6.a.K.k.$.u 7X7X7X7X7X7X7X7X7X7X7X7X7X7X7X7X7X7X7X",
"7X7X7X7X7X7X7X7X7X7X7X7X7X7X7X7X7X7X7X7X7X7X7X7X7X7X7X7X7X7X7X7X7Xt a Z B.^ *.u.k.m W.`.1.7X7X7X7X7X7X7X7X7X7X7X7X7X7X7X7X7X7X7X",
"7X7X7X7X7X7X7X7X7X7X7X7X7X7X7X7X7X7X7X7X7X7X7X7X7X7X7X7X7X7X7X7X, Z M.0.! 4.h.6.h.3.}.2XoXa.7X7X7X7X7X7X7X7X7X7X7X7X7X7X7X7X7X7X",
"7X7X7X7X7X7X7X7X7X7X7X7X7X7X7X7X7X7X7X7X7X7X7X7X7X7X7X7X7X7X7X; r P M.P.-.6.Q.a.=.Q.%X>X{.>XV.7X7X7X7X7X7X7X7X7X7X7X7X7X7X7X7X7X",
"7X7X7X7X7X7X7X7X7X7X7X7X7X7X7X7X7X7X7X7X7X7X7X7X7X7X7X7X7X7X# 9 r Y A R *.h.{./.$.:.1.y.s.c.z.7X7X7X7X7X7X7X7X7X7X7X7X7X7X7X7X7X",
"7X7X7X7X7X7X7X7X7X7X7X7X7X7X7X7X7X7X7X7X7X7X7X7X7X7X7X7X7X7X7X# 9 Z / x $.v.-X6X<Xt.7Xa A v l.7X7X7X7X7X7X7X7X7X7X7X7X7X7X7X7X7X",
"7X7X7X7X7X7X7X7X7X7X7X7X7X7X7X7X7X7X7X7X7X7X7X7X7X7X7X7X7X7Xo > 8 Z s S =.c.,X6X6XR.e y 7.l 7X7X7X7X7X7X7X7X7X7X7X7X7X7X7X7X7X7X",
"7X7X7X7X7X7X7X7X7X7X7X7X7X7X7X7X7X7X7X7X7X7X7X7X7X7X7X7X7X7Xp p r 8.8.c =.v.*X3X6X$X;.O 0 d 7X7X7X7X7X7X7X7X7X7X7X7X7X7X7X7X7X7X",
"7X7X7X7X7X7X7X7X7X7X7X7X7X7X7X7X7X7X7X7X7X7X7X7X7X7X7X7X7X7X< ` r Y A N w.Q.-X-X6X;Xy.7X& ~ 7X7X7X7X7X7X7X7X7X7X7X7X7X7X7X7X7X7X",
"7X7X7X7X7X7X7X7X7X7X7X7X7X7X7X7X7X7X7X7X7X7X7X7X7X7X7X7X7X7X; < > 7.M s.c.K.-X=X6X1XY.7X7X7X7X7X7X7X7X7X7X7X7X7X7X7X7X7X7X7X7X7X",
"7X7X7X7X7X7X7X7X7X7X7X7X7X7X7X7X7X7X7X7Xc #.l s.K.7X7X7X7X7X+ . i c N c.!.).+X-X2X5X~...7X7X7X7X7X7X7X7X7X7X7X7X7X7X7X7X7X7X7X7X",
"7X7X7X7X7X7X7X7X7X7X7X7X7X7X7X7X7X7X7X7Xe #.6.v.k.N M M b l l M =.#.=.h.K.-X3X,X1X%X`.;.7X7X7X7X7X7X7X7X7X7X7X7X7X7X7X7X7X7X7X7X",
"7X7X7X7X7X7X7X7X7X7X7X7X7X7X7X7X7X7X7XM v.B u @.s.c.)./.c.h.k.k.v.s.w.h.K.+X2X4X3X$X`.l...7X7X7X7X7X7X7X7X7X7X7X7X7X7X7X7X7X7X7X",
"7X7X7X7X7X7X7X7X7X7X7X7X7X7X7X7X7X7Xc b.t.e =.c._.{.-XXXK.K.!.K.!.).,.w.(.-X@X6X6X2X}.n.O.7X7X7X7X7X7X7X7X7X7X7X7X7X7X7X7X7X7X7X",
"7X7X7X7X7X7X7X7X7X7X7X7X7X7X7X7X7X7Xw.z.6 E b.!.+XXX_./.!.(.)._..X@Xv.E f.>X6X6X6X5X}.Y...7X7X7X7X7X7X7X7X7X7X7X7X7X7X7X7X7X7X7X",
"7X7X7X7X7X7X7X7X7X7X7X7X7X7X7X7X7Xe W.n % ,.).K.3X*XV.Q.K.!._.+X>X@X_.,.N K.2X,X5X5X}.y.n 7X7X7X7X7X7X7X7X7X7X7X7X7X7X7X7X7X7X7X",
"7X7X7X7X7X7X7X7X7X7X7X7X7X7X7X7X7X%.W.w 6 w.Q.(.4XoXV.k.v.K./.{.-X.X).c.+.3.[.3X2X$Xy...y.y.7X7X7X7X7X7X7X7X7X7X7X7X7X7X7X7X7X7X",
"7X7X7X7X7X7X7X7X7X7X7X7X7X7X7X7X7Xg.T.7X6 w.s.!.2XXXV.2.w.k.k.!.(.oX^.n.>.l h._.5X<X;.<.=X).&.7X7X7X7X7X7X7X7X7X7X7X7X7X7X7X7X7X",
"7X7X7X7X7X7X7X7X7X7X7X7X7X7X7X7X7XW.7X7X% 2.w.K.oX_.E.@.E w.6.v.b.!.`.x.:.h k x. X5Xn.b.5X-X).2.7X7X7X7X7X7X7X7X7X7X7X7X7X7X7X7X",
"7X7X7X7X7X7X7X7X7X7X7X7X7X7X7X7Xe }.7X7X& N w.K.oX|.^.&.u B :.2.f.l.z.d.B q $ u W.%X*XB s.K.2X|.+.7X7X7X7X7X7X7X7X7X7X7X7X7X7X7X",
"7X7X7X7X7X7X7X7X7X7X7X7X7X7X7X7XB ;X7X7X% k ,.k.*X*X'.:.5 6 g l X.+.+.n w 7X7X  k ).2X^.i #.i.T.:.7X7X7X7X7X7X7X7X7X7X7X7X7X7X7X",
"7X7X7X7X7X7X7X7X7X7X7X7X7X7X7X7X6.%X7X7X+ e #.c.}.|.Y.g 4 @ + $ 4 4 4 7X7X7X7X7X  S oX2Xc.7.l.t.7X7X7X7X7X7X7X7X7X7X7X7X7X7X7X7X",
"7X7X7X7X7X7X7X7X7X7X7X7X7X7X7X7Xk._.7X7X5 m &.k.$X'.z 5 5 7X7X7X7X7X7X7X7X7X7X7X7X: 6.[.].b.T.n 7X7X7X7X7X7X7X7X7X7X7X7X7X7X7X7X",
"7X7X7X7X7X7X7X7X7X7X7X7X7X7X7X7X4.J.7X7X& m 6.g.d.n h 5 7X7X7X7X7X7X7X7X7X7X7X7XZ W Q p.W.~.;.7X7X7X7X7X7X7X7X7X7X7X7X7X7X7X7X7X",
"7X7X7X7X7X7X7X7X7X7X7X7X7X7X7Xf ` 9.7Xu u @.&.X.g >.o.7X7X7X7X7X7X7X7X7X7X7X7X- M.J.L.c.<...7X7X7X7X7X7X7X7X7X7X7X7X7X7X7X7X7X7X",
"7X7X7X7X7X7X7X7X7X7X7X7X7X7X7X( / U R E 6.g.n + u.`.;.7X7X7X7X7X7X7X7X7X7X7X7X0.H.H.L.b.j 7X7X7X7X7X7X7X7X7X7X7X7X7X7X7X7X7X7X7X",
"7X7X7X7X7X7X7X7X7X7X7X7X7X7X8.Y N.U b :.[.;.q   2.:X'.7X7X7X7X7X7X7X7X7X7X7X7XP W 9.C.>.7X7X7X7X7X7X7X7X7X7X7X7X7X7X7X7X7X7X7X7X",
"7X7X7X7X7X7X7X7X7X7X7X7X7X7X, Y U I / %.*Xz.7X7Xl [.5XT.7X7X7X7X7X7X7X7X7X7X7X3 f M f.n 7X7X7X7X7X7X7X7X7X7X7X7X7X7X7X7X7X7X7X7X",
"7X7X7X7X7X7X7X7X7X7X7X7X7X7X7XP 9.Q 7 +.-XR.7X7X% h.>X1Xt.7X7X7X7X7X7X7X7X7X7XC OX>Xa.7X7X7X7X7X7X7X7X7X7X7X7X7X7X7X7X7X7X7X7X7X",
"7X7X7X7X7X7X7X7X7X7X7X7X7X7X7Xi 7./ p 5.%X'.7X7X. r./.4X}.7X7X7X7X7X7X7X7X7X7X2 I.D.V 7X7X7X7X7X7X7X7X7X7X7X7X7X7X7X7X7X7X7X7X7X",
"7X7X7X7X7X7X7X7X7X7X7X7X7X7X7X8.Y 7Xp q._.%X7X7X7XB.r.XX<X<.7X7X7X7X7X7X7X7X7X7Xt V X 7X7X7X7X7X7X7X7X7X7X7X7X7X7X7X7X7X7X7X7X7X",
"7X7X7X7X7X7X7X7X7X7X7X7X7X7X7XP.Y 7Xa ! w.<Xt.7X7X0 9 Z.{.r.' 7X7X7X7X7X7X7X7X7X= 2 7X7X7X7X7X7X7X7X7X7X7X7X7X7X7X7X7X7X7X7X7X7X",
"7X7X7X7X7X7X7X7X7X7X7X7X7X7X7X#X7X7Xp 7.4.!.V.7X7X8 ; Z m.U.A.1 7X7X7X7X7X7X7X7X7X7X7X7X7X7X7X7X7X7X7X7X7X7X7X7X7X7X7X7X7X7X7X7X",
"7X7X7X7X7X7X7X7X7X7X7X7X7X7X7X7X7XO 8 i ^ T _ K 7X7X7X3 L m.) 7X7X7X7X7X7X7X7X7X7X7X7X7X7X7X7X7X7X7X7X7X7X7X7X7X7X7X7X7X7X7X7X7X",
"7X7X7X7X7X7X7X7X7X7X7X7X7X7X7X7X7X7X8.7X3 C P.A., 7X7X7X7X7X7X7X7X7X7X7X7X7X7X7X7X7X7X7X7X7X7X7X7X7X7X7X7X7X7X7X7X7X7X7X7X7X7X7X",
"7X7X7X7X7X7X7X7X7X7X7X7X7X7X7X7X7X7X7X7X7X7X7X7X7X7X7X7X7X7X7X7X7X7X7X7X7X7X7X7X7X7X7X7X7X7X7X7X7X7X7X7X7X7X7X7X7X7X7X7X7X7X7X7X"
};
