/* XPM */
static char *result[] = {
/* columns rows colors chars-per-pixel */
"64 64 206 2 ",
"   c #110F10",
".  c #271F1A",
"X  c #2A2318",
"o  c #332516",
"O  c #252422",
"+  c #2C2929",
"@  c #3B3329",
"#  c #3B3836",
"$  c #433C2F",
"%  c #433C37",
"&  c #5B462D",
"*  c #4D4438",
"=  c #554D3C",
"-  c #554B3C",
";  c #59513E",
":  c #675539",
">  c #7A5D35",
",  c #7B623D",
"<  c #3C3B4B",
"1  c #393843",
"2  c #3F3E50",
"3  c #403F4E",
"4  c #464445",
"5  c #4B4A49",
"6  c #534F4F",
"7  c #5C5343",
"8  c #595348",
"9  c #4B4956",
"0  c #514F50",
"q  c #54535C",
"w  c #5D5B5C",
"e  c #595755",
"r  c #655D4B",
"t  c #635845",
"y  c #605E5D",
"u  c #715D45",
"i  c #6A614D",
"p  c #796F4F",
"a  c #6D6654",
"s  c #68635D",
"d  c #756C5A",
"f  c #7E735C",
"g  c #5E5B69",
"h  c #615F72",
"j  c #6C6965",
"k  c #6D6B6A",
"l  c #666466",
"z  c #777168",
"x  c #646373",
"c  c #6B6878",
"v  c #716F74",
"b  c #787673",
"n  c #7B7876",
"m  c #7D7B79",
"M  c #777676",
"N  c #936D3A",
"B  c #877559",
"V  c #99734B",
"C  c #A47E49",
"Z  c #837A64",
"A  c #857B6C",
"S  c #867C65",
"D  c #827E7D",
"F  c #AF853C",
"G  c #E2B93C",
"H  c #9C8551",
"J  c #BC924A",
"K  c #A88A5C",
"L  c #8D8167",
"P  c #91856C",
"I  c #998868",
"U  c #87837B",
"Y  c #958B73",
"T  c #9A8D74",
"R  c #918673",
"E  c #9D917B",
"W  c #9E9072",
"Q  c #B59B6A",
"!  c #A19273",
"~  c #A2957A",
"^  c #A7936F",
"/  c #B8A779",
"(  c #D1A751",
")  c #D8B76D",
"_  c #DEBF7D",
"`  c #C5B17A",
"'  c #F6CF5C",
"]  c #EDCD73",
"[  c #7E7C8C",
"{  c #7A7884",
"}  c #817F89",
"|  c #817F90",
" . c #868382",
".. c #898583",
"X. c #8E8A8A",
"o. c #8A8688",
"O. c #918D8C",
"+. c #918A85",
"@. c #9D9383",
"#. c #95928E",
"$. c #9A968F",
"%. c #8C8A9A",
"&. c #8A8793",
"*. c #918D94",
"=. c #918E99",
"-. c #9B9694",
";. c #9D9995",
":. c #96929D",
">. c #9E9B99",
",. c #969293",
"<. c #A39A8B",
"1. c #A99D81",
"2. c #A39D9C",
"3. c #A49B99",
"4. c #ADA185",
"5. c #AAA289",
"6. c #B2A489",
"7. c #B8A889",
"8. c #BCB38E",
"9. c #A5A29D",
"0. c #ABA79C",
"q. c #B5AA96",
"w. c #BDB398",
"e. c #948FA2",
"r. c #9996A3",
"t. c #9E9BAA",
"y. c #9995A3",
"u. c #A39DA8",
"i. c #A7A3A3",
"p. c #AAA5A2",
"a. c #ADAAA6",
"s. c #ADABAB",
"d. c #A9A4AB",
"f. c #B1ADAB",
"g. c #B6A9A6",
"h. c #B5B2AD",
"j. c #BBB4A6",
"k. c #ADAAB4",
"l. c #ACA9B7",
"z. c #B3ABB3",
"x. c #B5B1B3",
"c. c #BBB5B3",
"v. c #BEBAB5",
"b. c #B7B4BD",
"n. c #BAB6BA",
"m. c #BEBBBC",
"M. c #C1AE83",
"N. c #C4B694",
"B. c #CCBE9C",
"V. c #DABF9D",
"C. c #C7BCA5",
"Z. c #C3BEBB",
"A. c #CEC09F",
"S. c #ECD497",
"D. c #FBE499",
"F. c #D4C5A3",
"G. c #DACAA4",
"H. c #C4C1BC",
"J. c #C8C3BF",
"K. c #D5CAAF",
"L. c #E7D9B5",
"P. c #E2D5AB",
"I. c #EDE3BF",
"U. c #F9E8BD",
"Y. c #F3E5A6",
"T. c #B9B5C2",
"R. c #BBB7C3",
"E. c #C3BDC3",
"W. c #C7C4C1",
"Q. c #CAC5C2",
"!. c #CDCAC4",
"~. c #CAC6CA",
"^. c #D2CDCB",
"/. c #D6CDC5",
"(. c #D5D2CD",
"). c #D9D4CE",
"_. c #CAC6D3",
"`. c #D3CED2",
"'. c #D5D2D5",
"]. c #DAD6D1",
"[. c #DDDAD5",
"{. c #D5D2DC",
"}. c #DAD5DB",
"|. c #DED9D9",
" X c #E3DDDC",
".X c #E1DBD6",
"XX c #E8DDC6",
"oX c #E5E1DD",
"OX c #E8E0DA",
"+X c #F4EACC",
"@X c #DEDBE2",
"#X c #E3DDE2",
"$X c #E5E2E4",
"%X c #EBE5E3",
"&X c #EDE9E5",
"*X c #EAE5EA",
"=X c #E9E6ED",
"-X c #F2ECEB",
";X c #F4F0ED",
":X c #F0EBF2",
">X c #F6F4F4",
",X c #F9F6F5",
"<X c #FCFAFC",
"1X c #FBF7FC",
"2X c #EDEAF1",
"3X c None",
/* pixels */
"3X3X3X3X3X3X3X3X3X3X3X3X3X3X3X3X3X3X3X3X3X3X3X3X3X3X3X3X3X3X3X3X3X3X3X3X3X3X3X3X3X3X3X3X3X3X3X3X3X3X3X3X3X3X3X3X3X3X3X3X3X3X3X3X",
"3X3X3X3X3X3X3X3X3X3X3X3X3X3X3X3X3X3X3X3X3X3X3X3X3X3X3X3X3X3X3X3X3X3X3X3X3X3X3X3X3X3X3X3X3X3X3X3X3X3X3X3X3X3X3X3X3X3X3X3X3X3X3X3X",
"3X3X3X3X3X3X3X3X3X3X3X3X3X3X3X3X3X3X3X3X3X3X3X3X3X3X3X3X3X3X3X3X3X3X3X3X3X3X3X3X3X3X3X3X3X3X3X3X3X3X3X3X3X3X3X3X3X3X3X3X3X3X3X3X",
"3X3X3X3X3X3X3X3X3X3X3X3X3X3X3X3X3X3X3X3X3X3X3X3X3X3X3X3X3X3X3X3X3X3X3X3X3X3X3X3X3X3X3X3X3X3X3X3X3X3X3X3X3X3X3X3X3X3X3X3X3X3X3X3X",
"3X3X3X3X3X3X3X3X3X3X3X3X3X3X3X3X3X3X3X3X3X3X3X3X3X3X3X3X3X3X3X3X3X3X3X3X3X3X3X3X3X3X3X3X3X3X3X3X3X3X3X3X3X3X3X3X3X3X3X3X3X3X3X3X",
"3X3X3X3X3X3X3X3X3X3X3X3X3X3X3X3X3X3X3X3X3X3X3X3X3X3X3X3X3X3X3X3X3X3X3X3X3X3X3X3X3X3X3X3X3X3X3X3X3X3X3X3X3X3X3X3X3X3X3X3X3X3X3X3X",
"3X3X3X3X3X3X3X3X3X3X3X3X3X3X3X3X3X3X3X3X3X3X3X3X3X3X3X3X3X3X3X3X3X3X3X3X3X3X3X3X3X3X3X3X3X3X3X3X3X3X3X3X3X3X3X3X3X3X3X3X3X3X3X3X",
"3X3X3X3X3X3X3X3X3X3X3X3X3X3X3X3X3X3X3X3X3X3X3X3X3X3X3X3X3X3X3X3X3X3X3X3X3X3X3X3X3X3X3X3X3X3X3X3X3X3X3X3X3X3X3X3X3X3X3X3X3X3X3X3X",
"3X3X3X3X3X3X3X3X3X3X3X3X3X3X3X3X3X3X3X3X3X3X3X3X3X3X3X3X3X3X3X3X3X3X3X3X3X3X) 3X3X3X3X3X3X3X3X3X3X3X3X3X3X3X3X3X3X3X3X3X3X3X3X3X",
"3X3X3X3X3X3X3X3X3X3X3X3X3X3X3X3X3X3X3X3X3X3X3X3X3X3X3X3X3X3X3X3X3X3X3X3X3XD.D.3X3X3X3X3X3X3X3X3X3X3X3X3X3X3X3X3X3X3X3X3X3X3X3X3X",
"3X3X3X3X3X3X3X3X3X3X3X3X3X3X3X3X3X3X3X3X3X3X3X3X3X3X3X3X3X3X3X3X3X3X3X3X3X] ] 3X3X3X3X3X3X3X3X3X3X3X3X3X3X3X3X3X3X3X3X3X3X3X3X3X",
"3X3X3X3X3X3X3X3X3X3X3X3X3X3X3X3X3X3X3X3X3X3X3X3X3X3X3X3X3X3X3X3X3X3X3X3X3XI.] 3X3X3X3X3X3X3X3X3X3X3X3X3X3X3X3X3X3X3X3X3X3X3X3X3X",
"3X3X3X3X3X3X3X3X3X3X3X3X3X3X3X3X3X3X3X3X3X3X3X3X3X3X3X3X3X3X3X3X3X3X3X3X3XS.) 3X3X3X3X3X3X3X3X3X3X3X3X3X3X3X3X3X3X3X3X3X3X3X3X3X",
"3X3X3X3X3X3X3X3X3X3X3X3X3X3X3X3X3X3X3X3X3X3X3X3X3X3X3X3X3X3X3X3X3X3X3X3X3X' ( 3X3X3X3X3X3X3X3X3X3X3X3X3X3X3X3X3X3X3X3X3X3X3X3X3X",
"3X3X3X3X3X3X3X3X3X3X3X3X3X3X3X3X3X3X3X3X3X3X3X3X3X3X3X3X3X3X3X3X3X3X3X3X3X( J 3X3X3X3X3X3X3X3X3X3X3X3X3X3X3X3X3X3X3X3X3X3X3X3X3X",
"3X3X3X3X3X3X3X3X3X3X3X3X3X3X3X3X3X3X3X3X3X3X3X3X3X3X3X3X3X3X3X3X3X3X3X3XD._ 3X3X3X3X3X3X3X3X3X3X3X3X3X3X3X3X3X3X3X3X3X3X3X3X3X3X",
"3X3X3X3X3X3X3X3X3X3X3X3X3X3X3X3X3X3X3X3X3X3X3X3X3X3X3X3X3X3X3X3X3X3X3X3XK.V.3X3X3X3X3X3X3X3X3X3X3X3X3X3X3X3X3X3X3X3X3X3X3X3X3X3X",
"3X3X3X3X3X3X3X3X3X3X3X3X3X3X3X3X3X3X3X3X3X3X3X3X3X3X3X3X3X3X3X3X3X3X3X3XG J 3X3X3X3X3X3X3X3X3X3X3X3X3X3X3X3X3X3X3X3X3X3X3X3X3X3X",
"3X3X3X3X3X3X3X3X3X3X3X3X3X3X3X3X3X3X3X3X3X3X3X3X3X3X3X3X3X3X3X3X3X3X3X3XV ) 3X3X3X3X3X3X3X3X3X3X3X3X3X3X3X3X3X3X3X3X3X3X3X3X3X3X",
"3X3X3X3X3X3X3X3X3X3X3X3X3X3X3X3X3X3X3X3X3X3X3X3X3X3X3X3X3X3X3X3X3XP f W ^ V # 3X3X3X3X3X3X3X3X3X3X3X3X3X3X3X3X3X3X3X3X3X3X3X3X3X",
"3X3X3X3X3X3X3X3X3X3X3X3X3X3X3X3X3X3X3X3X3X3X3X3X3X3X3X3X3X3X3X3Xa A.~ L.N.B.F.T 3X3X3X3X3X3X3X3X3X3X3X3X3X3X3X3X3X3X3X3X3X3X3X3X",
"3X3X3X3X3X3X3X3X3X3X3X3X3X3X3X3X3X3X3X3X3X3X3X3X3X3X3X3X3X3X3Xi 4.F.<.z.q.W R f 3X3X3X3X3X3X3X3X3X3X3X3X3X3X3X3X3X3X3X3X3X3X3X3X",
"3X3X3X3X3X3X3X3X3X3X3X3X3X3X3X3X3X3X3X3X3X3X3X3X3X3X3X3X3X; i f E C.6.z.3.A k 8 3X3X3X3X3X3X3X3X3X3X3X3X3X3X3X3X3X3X3X3X3X3X3X3X",
"3X3X3X3X3X3X3X3X3X3X3X3X3X3X3X3X3X3X3X3X3X3X3X3X3X3X3X3X3X; ~ 5.4.G.~ 3.x.f.i.>...l 3X3X3X3X3X3X3X3X3X3X3X3X3X3X3X3X3X3X3X3X3X3X",
"3X3X3X3X3X3X3X3X3X3X3X3X3X3X3X3X3X3X3X3X3X3X3X3X3X3X3X3Xt i 6.8.4.7.C.Q.^.f. .#X;X[.a.o.3X3X3X3X3X3X3X3X3X3X3X3X3X3X3X3X3X3X3X3X",
"3X3X3X3X3X3X3X3X3X3X3X3X3X3X3X3X3X3X3X3X3X3X3X3X3X3X3X3Xt E ~ Y G.<.Q.).Q..X,X1X<X>X|.i.3X3X3X3X3X3X3X3X3X3X3X3X3X3X3X3X3X3X3X3X",
"3X3X3X3X3X3X3X3X3X3X3X3X3X3X3X3X3X3X3X3X3X3X3X3X3X3X3X3XZ B.G.4.q.g.#X XR.W.@X{._.p.z.e.3X3X3X3X3X3X3X3X3X3X3X3X3X3X3X3X3X3X3X3X",
"3X3X3X3X3X3X3X3X3X3X3X3X3X3X3X3X3X3X3X3X3X3X3X3X3X3X3X+ - N.F.L.3.Z.&X%XQ.d.e.{ +.g.X.3X3X3X3X3X3X3X3X3X3X3X3X3X3X3X3X3X3X3X3X3X",
"3X3X3X3X3X3X3X3X3X3X3X3X3X3X3X3X3X3X3X3X3X3X3X3X3X3X3Xr d F.q.w.;.c.oXoX].s.x 3X7 F.@.3X3X3X3X3X3X3X3X3X3X3X3X3X3X3X3X3X3X3X3X3X",
"3X3X3X3X3X3X3X3X3X3X3X3X3X3X3X3X3X3X3X3X3X3X3X3X3X3X: P Z @.E A #.9.OX-X&X[.:.3XX * Z XX3X3X3X3X3X3X3X3X3X3X3X3X3X3X3X3X3X3X3X3X",
"3X3X3X3X3X3X3X3X3X3X3X3X3X3X3X3X3X3X3X3X3X3X3X3X3X3X8 @ r T E Z #.9.(.oX>X-Xn.3X3X$ # 3X3X3X3X3X3X3X3X3X3X3X3X3X3X3X3X3X3X3X3X3X",
"3X3X3X3X3X3X3X3X3X3X3X3X3X3X3X3X3X3X3X3X3X3X3X3X3X3X3X* 7 S w.z +.9.^.%X;X>X{.&.3X3X3X3X3X3X3X3X3X3X3X3X3X3X3X3X3X3X3X3X3X3X3X3X",
"3X3X3X3X3X3X3X3X3X3X3X3X3X3X3X3X3X3X3X3X3X3X3X3X3X3X3XL i Y Y d o.9.!.;X&X<X=Xt.3X3X3X3X3X3X3X3X3X3X3X3X3X3X3X3X3X3X3X3X3X3X3X3X",
"3X3X3X3X3X3X3X3X3X3X3X3X3X3X3X3X3X3X3X3X3X3X3X3X3X3XB ; 8 R Z z 9.c.H.[.oX;X:Xb.l 3X3X3X3X3X3X3X3X3X3X3X3X3X3X3X3X3X3X3X3X3X3X3X",
"3X3X3X3X3X3X3X3X3X3X3X3X3X3X3X3X3X3X3X3X3X3X3X3X3X3X3Xa a t f b 9.H.).OX XoX^.m.:.} 3X3X3X3X3X3X3X3X3X3X3X3X3X3X3X3X3X3X3X3X3X3X",
"3X3X3X3X3X3X3X3X3X3X3X3X3X3X3X3X3X3X3X3X3X3X3X3X3X3X3X3X= r e M #.a.].OX-X-X$X~.l.r.{ 3X3X3X3X3X3X3X3X3X3X3X3X3X3X3X3X3X3X3X3X3X",
"3X3X3X3X3X3X3X3X3X3X3X3X3X3X3X3X3X3X3X3X3X3X3X3X3X3X3Xo . e v  .#.h.^.!.-X<X<X|.l.%.c 3X3X3X3X3X3X3X3X3X3X3X3X3X3X3X3X3X3X3X3X3X",
"3X3X3X3X3X3X3X3X3X3X3X3X3X3X3X3X3X3X3X3X3X3X3X3X3X3X3X4 k O.0.;.#.9.(.&X&X>X1X}.t.&.=.O.n -.O.3X3X3X3X3X3X3X3X3X3X3X3X3X3X3X3X3X",
"3X3X3X3X3X3X3X3X3X3X3X3X3X3X3X3X3X3X3X3X0 #.3X6 j m  .+.2.p.Z.!.p...a..X-XoX#XT.r.[ v.!.v.oX#XT.3X3X3X3X3X3X3X3X3X3X3X3X3X3X3X3X",
"3X3X3X3X3X3X3X3X3X3X3X3X3X3X3X3X3X3Xe y M  .U ;.J.H.9.p.f.Z.!.[.'.a.+.f. X-X<X>X$XZ.H.Q.p.d.#X{.3X3X3X3X3X3X3X3X3X3X3X3X3X3X3X3X",
"3X3X3X3X3X3X3X3X3X3X3X3X3X3X3X3X3X3X4 M s m h.J.OXH.h.h.v.!. X.X].'.*...c.].,X,X-X(.H.^.'.U ~.:Xt.3X3X3X3X3X3X3X3X3X3X3X3X3X3X3X",
"3X3X3X3X3X3X3X3X3X3X3X3X3X3X3X3X3X3Xn j k 9.!.[.J.c.c.c.c.(.].-XoX|.n.v y &.i.u.&. .D p.`.N.C.1XT.3X3X3X3X3X3X3X3X3X3X3X3X3X3X3X",
"3X3X3X3X3X3X3X3X3X3X3X3X3X3X3X3X3Xy s.q #.c.!.;XJ.f.h.h.c.Q.(.).*X$X_.{ < 3 9 < 3X~ N.q.~.R <.2X~.3X3X3X3X3X3X3X3X3X3X3X3X3X3X3X",
"3X3X3X3X3X3X3X3X3X3X3X3X3X3X3X3X3X;.z.4 ;.!.Z.>X(.h.9.>.h.s.H._.`.{.~.[ 9 < 3X3Xo N.L.K.'.B a.{.l.3X3X3X3X3X3X3X3X3X3X3X3X3X3X3X",
"3X3X3X3X3X3X3X3X3X3X3X3X3X3X3X3X3Xz.=.# #.v.v.>X&X^.;.X.;.s.s.b.T.T.t.c 2 3X3X3X8.8.8.B.}.K +X=X%.3X3X3X3X3X3X3X3X3X3X3X3X3X3X3X",
"3X3X3X3X3X3X3X3X3X3X3X3X3X3X3X3X4 ~.[ O m s.f.oX%X Xn. .m  .&.%.%.| g 2 3X3X3X3X3X& : 3.b.u Q / 3X3X3X3X3X3X3X3X3X3X3X3X3X3X3X3X",
"3X3X3X3X3X3X3X3X3X3X3X3X3X3X3X3Xs }.3X  e 9.0.[.,X=X$Xs.w g h g 9 < 3X3X3X3X3X3X3XV M.;Xb.3X: : 3X3X3X3X3X3X3X3X3X3X3X3X3X3X3X3X",
"3X3X3X3X3X3X3X3X3X3X3X3X3X3X3X3Xs $X3X  + n ;.J.>X<X>X:.0 1 1 + 3X3X3X3X3X3X3X3X3X> I.U.Q 3X3X3X3X3X3X3X3X3X3X3X3X3X3X3X3X3X3X3X",
"3X3X3X3X3X3X3X3X3X3X3X3X3X3X3X3Xe $X3X3X+ 0 U h. X>X*XM 9 q < 3X3X3X3X3X3X3X3X3X3X3Xp / & 3X3X3X3X3X3X3X3X3X3X3X3X3X3X3X3X3X3X3X",
"3X3X3X3X3X3X3X3X3X3X3X3X3X3X3X3Xs *X3X3X3X# y >.'.<XE.g x h 3X3X3X3X3X3X3X3X3X3X3X3X3X: 3X3X3X3X3X3X3X3X3X3X3X3X3X3X3X3X3X3X3X3X",
"3X3X3X3X3X3X3X3X3X3X3X3X3X3X3X3X0 oX3X3X3XO m >.E.{.[ [ %.h 3X3X3X3X3X3X3X3X3X3X3X3X3X3X3X3X3X3X3X3X3X3X3X3X3X3X3X3X3X3X3X3X3X3X",
"3X3X3X3X3X3X3X3X3X3X3X3X3X3X3X3X3X'.3X3X3X3Xk >.z.%. .E.e.3X3X3X3X3X3X3X3X3X3X3X3X3X3X3X3X3X3X3X3X3X3X3X3X3X3X3X3X3X3X3X3X3X3X3X",
"3X3X3X3X3X3X3X3X3X3X3X3X3X3X3X3X3X$.g.3X3X# M ,.&.w m.{.e.3X3X3X3X3X3X3X3X3X3X3X3X3X3X3X3X3X3X3X3X3X3X3X3X3X3X3X3X3X3X3X3X3X3X3X",
"3X3X3X3X3X3X3X3X3X3X3X3X3X3X3X3X3X* a B Z j 9.r.9 j '._.%.3X3X3X3X3X3X3X3X3X3X3X3X3X3X3X3X3X3X3X3X3X3X3X3X3X3X3X3X3X3X3X3X3X3X3X",
"3X3X3X3X3X3X3X3X3X3X3X3X3X3X3X3X3X@ W f 7.0.Q.&.3X4 m.=XR.3X3X3X3X3X3X3X3X3X3X3X3X3X3X3X3X3X3X3X3X3X3X3X3X3X3X3X3X3X3X3X3X3X3X3X",
"3X3X3X3X3X3X3X3X3X3X3X3X3X3X3X3X3X3X* R ! T n.x 3X3X..#X2Xr.3X3X3X3X3X3X3X3X3X3X3X3X3X3X3X3X3X3X3X3X3X3X3X3X3X3X3X3X3X3X3X3X3X3X",
"3X3X3X3X3X3X3X3X3X3X3X3X3X3X3X3X3X3X$ i L T @.a 3X3Xw W.,X{.c 3X3X3X3X3X3X3X3X3X3X3X3X3X3X3X3X3X3X3X3X3X3X3X3X3X3X3X3X3X3X3X3X3X",
"3X3X3X3X3X3X3X3X3X3X3X3X3X3X3X3X3X3X3XO ; s k.:.3X3XZ j.%X1Xd.3X3X3X3X3X3X3X3X3X3X3X3X3X3X3X3X3X3X3X3X3X3X3X3X3X3X3X3X3X3X3X3X3X",
"3X3X3X3X3X3X3X3X3X3X3X3X3X3X3X3X3X3X3X@ L q.'.k.3X3X! B.j.-X'.3X3X3X3X3X3X3X3X3X3X3X3X3X3X3X3X3X3X3X3X3X3X3X3X3X3X3X3X3X3X3X3X3X",
"3X3X3X3X3X3X3X3X3X3X3X3X3X3X3X3X3X3X3X3XR @.'._.3X3X$ * T ^./.M.F 3X3X3X3X3X3X3X3X3X3X3X3X3X3X3X3X3X3X3X3X3X3X3X3X3X3X3X3X3X3X3X",
"3X3X3X3X3X3X3X3X3X3X3X3X3X3X3X3X3X3X3X* Y 8.<.[.+.3X; % B I P.Y.H 3X3X3X3X3X3X3X3X3X3X3X3X3X3X3X3X3X3X3X3X3X3X3X3X3X3X3X3X3X3X3X",
"3X3X3X3X3X3X3X3X3X3X3X3X3X3X3X3X3X3X3X$ 7 ! B ^ Q N 3X3X3X: ` M.B 3X3X3X3X3X3X3X3X3X3X3X3X3X3X3X3X3X3X3X3X3X3X3X3X3X3X3X3X3X3X3X",
"3X3X3X3X3X3X3X3X3X3X3X3X3X3X3X3X3X3X3X6.3X3X, ` I.K 3X3X3X3X3X3X3X3X3X3X3X3X3X3X3X3X3X3X3X3X3X3X3X3X3X3X3X3X3X3X3X3X3X3X3X3X3X3X",
"3X3X3X3X3X3X3X3X3X3X3X3X3X3X3X3X3X3X3X3X3X3X3X3X3X3X3X3X3X3X3X3X3X3X3X3X3X3X3X3X3X3X3X3X3X3X3X3X3X3X3X3X3X3X3X3X3X3X3X3X3X3X3X3X"
};
