/* XPM */
static char *result[] = {
/* columns rows colors chars-per-pixel */
"64 64 210 2 ",
"   c #1C160F",
".  c #272115",
"X  c #2A221A",
"o  c #2B2316",
"O  c #33281B",
"+  c #3A301E",
"@  c #1F1E23",
"#  c #2A292B",
"$  c #272527",
"%  c #37332F",
"&  c #2B2A38",
"*  c #333231",
"=  c #3D3A38",
"-  c #443D2D",
";  c #433D34",
":  c #5F4A2E",
">  c #4B4436",
",  c #554D3B",
"<  c #514736",
"1  c #59513F",
"2  c #77603C",
"3  c #343342",
"4  c #3B3A43",
"5  c #393746",
"6  c #444343",
"7  c #4C4946",
"8  c #564F41",
"9  c #5A4F40",
"0  c #5A534A",
"q  c #5A5347",
"w  c #484656",
"e  c #504F5E",
"r  c #565353",
"t  c #5A575A",
"y  c #615947",
"u  c #625F5A",
"i  c #676259",
"p  c #756C55",
"a  c #796C55",
"s  c #736955",
"d  c #7D735D",
"f  c #6C614B",
"g  c #615F71",
"h  c #6C6A66",
"j  c #686669",
"k  c #716E6C",
"l  c #7B7261",
"z  c #74716B",
"x  c #6B6875",
"c  c #716E7D",
"v  c #716F73",
"b  c #747374",
"n  c #797372",
"m  c #7D7975",
"M  c #72717D",
"N  c #7D7A7A",
"B  c #865F33",
"V  c #9E7635",
"C  c #856A45",
"Z  c #947D4F",
"A  c #82795F",
"S  c #877453",
"D  c #8A704A",
"F  c #857B64",
"G  c #897E6A",
"H  c #887C66",
"J  c #827C77",
"K  c #A18559",
"L  c #AE884D",
"P  c #8E846A",
"I  c #91856A",
"U  c #9B8768",
"Y  c #84817D",
"T  c #928972",
"R  c #9B8E73",
"E  c #968A76",
"W  c #9C9175",
"Q  c #9D9279",
"!  c #AC9C6E",
"~  c #A2967A",
"^  c #A79A7B",
"/  c #AA9C7E",
"(  c #A39474",
")  c #B09467",
"_  c #B2A27F",
"`  c #C7A15B",
"'  c #D7AA54",
"]  c #E2B759",
"[  c #C8B279",
"{  c #C8A873",
"}  c #EBC865",
"|  c #ECD17E",
" . c #706C80",
".. c #737081",
"X. c #787684",
"o. c #7E7C85",
"O. c #7E7C8C",
"+. c #807D83",
"@. c #827F91",
"#. c #868381",
"$. c #8A8582",
"%. c #8C8A85",
"&. c #8E8C89",
"*. c #85838C",
"=. c #918D8A",
"-. c #948882",
";. c #93918C",
":. c #9E9584",
">. c #898596",
",. c #918D99",
"<. c #949293",
"1. c #9A9593",
"2. c #96939D",
"3. c #9B9897",
"4. c #A79B81",
"5. c #A79C88",
"6. c #A39D9C",
"7. c #A59892",
"8. c #ADA286",
"9. c #B7A786",
"0. c #B4A98A",
"q. c #B9AD8C",
"w. c #BCB08C",
"e. c #A5A19C",
"r. c #BDAD98",
"t. c #BEB398",
"y. c #9996A6",
"u. c #9E9BA9",
"i. c #A39FAB",
"p. c #A49FA4",
"a. c #A5A2A3",
"s. c #AAA5A3",
"d. c #ADA9A5",
"f. c #AEACAB",
"g. c #AAA5A8",
"h. c #B1ACAC",
"j. c #B1ACA7",
"k. c #B6B2AE",
"l. c #BBB6AC",
"z. c #A6A4B3",
"x. c #ADA9B6",
"c. c #A9A5B5",
"v. c #B0ACB5",
"b. c #B4B2B3",
"n. c #BAB5B2",
"m. c #BCBAB5",
"M. c #B4B2BC",
"N. c #BCB8BC",
"B. c #B8B2BA",
"V. c #C2B28E",
"C. c #C9B881",
"Z. c #C2B491",
"A. c #C6B893",
"S. c #C5BAA9",
"D. c #C2BDBB",
"F. c #CCB4BB",
"G. c #CEC09C",
"H. c #DAC698",
"J. c #EECF92",
"K. c #D6C7A6",
"L. c #C5C2BD",
"P. c #C9C3BF",
"I. c #D6C9B9",
"U. c #E9DCB1",
"Y. c #E4D5AB",
"T. c #F3E3A0",
"R. c #B9B5C3",
"E. c #BCB8C8",
"W. c #C9BCC2",
"Q. c #C6C3C3",
"!. c #CAC5C3",
"~. c #CDC9C5",
"^. c #CAC4CA",
"/. c #CBC8CA",
"(. c #D2CECB",
"). c #D0CCC6",
"_. c #D6D2CD",
"`. c #D8D2CD",
"'. c #C7C5D1",
"]. c #CBC8D5",
"[. c #D1CDD3",
"{. c #DAD5D3",
"}. c #DEDAD6",
"|. c #DAD6D8",
" X c #DEDADA",
".X c #D6D1D6",
"XX c #E4DEDB",
"oX c #E1DAD6",
"OX c #E5E1DD",
"+X c #E8E2DF",
"@X c #F5F1DF",
"#X c #F1E5CE",
"$X c #DED9E1",
"%X c #DAD7E2",
"&X c #E3DEE4",
"*X c #E6E2E4",
"=X c #EAE5E4",
"-X c #EDE9E5",
";X c #EFEBEB",
":X c #E7E2EB",
">X c #F2EDEC",
",X c #F0E8E7",
"<X c #F2EEF3",
"1X c #F4F2F4",
"2X c #F8F5F7",
"3X c #FBF9F5",
"4X c #F6F2F9",
"5X c #FEFDFD",
"6X c #F9F3FC",
"7X c None",
/* pixels */
"7X7X7X7X7X7X7X7X7X7X7X7X7X7X7X7X7X7X7X7X7X7X7X7X7X7X7X7X7X7X7X7X7X7X7X7X7X7X7X7X7X7X7X7X7X7X7X7X7X7X7X7X7X7X7X7X7X7X7X7X7X7X7X7X",
"7X7X7X7X7X7X7X7X7X7X7X7X7X7X7X7X7X7X7X7X7X7X7X7X7X7X7X7X7X7X7X7X7X7X7X7X7X7X7X7X7X7X7X7X7X7X7X7X7X7X7X7X7X7X7X7X7X7X7X7X7X7X7X7X",
"7X7X7X7X7X7X7X7X7X7X7X7X7X7X7X7X7X7X7X7X7X7X7X7X7X7X7X7X7X7X7X7X7X7X7X7X7X7X7X7X7X7X7X7X7X7X7X7X7X7X7X7X7X7X7X7X7X7X7X7X7X7X7X7X",
"7X7X7X7X7X7X7X7X7X7X7X7X7X7X7X7X7X7X7X7X7X7X7X7X7X7X7X7X7X7X7X7X7X7X7X7X7X7X7X7X7X7X7X7X7X7X7X7X7X7X7X7X7X7X7X7X7X7X7X7X7X7X7X7X",
"7X7X7X7X7X7X7X7X7X7X7X7X7X7X7X7X7X7X7X7X7X7X7X7X7X7X7X7X7X7X7X7X7X7X7X7X7X7X7X7X7X7X7X7X7X7X7X7X7X7X7X7X7X7X7X7X7X7X7X7X7X7X7X7X",
"7X7X7X7X7X7X7X7X7X7X7X7X7X7X7X7X7X7X7X7X7X7X7X7X7X7X7X7X7X7X7X7X7X7X7X7X7X7X7X7X7X7X7X7X7X7X7X7X7X7X7X7X7X7X7X7X7X7X7X7X7X7X7X7X",
"7X7X7X7X7X7X7X7X7X7X7X7X7X7X7X7X7X7X7X7X7X7X7X7X7X7X7X7X7X7X7X7X7X7X7X7X7X7X7X7X7X7X7X7X7X7X7X7X7X7X7X7X7X7X7X7X7X7X7X7X7X7X7X7X",
"7X7X7X7X7X7X7X7X7X7X7X7X7X7X7X7X7X7X7X7X7X7X7X7X7X7X7X7X7X7X7X7X7X7X7X7X7X7X7X7X7X7X7X7X7X7X7X7X7X7X7X7X7X7X7X7X7X7X7X7X7X7X7X7X",
"7X7X7X7X7X7X7X7X7X7X7X7X7X7X7X7X7X7X7X7X7X7X7X7X7X7X7X7X7X7X7X7X7X7X7X7X7X7X7X7X7X7X7X7X7X7X7X7X7X7X7X7X7X7X7X7X7X7X7X7X7X7X7X7X",
"7X7X7X7X7X7X7X7X7X7X7X7X7X7X7X7X7X7X7X7X7X7X7X7X7X7X7X7X7X7X7X7X7X7X7X7X7X7X7X7X7X7X7X7X7X7X7X7X7X7X7X7X7X7X7X7X7X7X7X7X7X7X7X7X",
"7X7X7X7X7X7X7X7X7X7X7X7X7X7X7X7X7X7X7X7X7X7X7X7X7X7X7X7X7X7X7X7X7X7X7X7X7X7X7X7X7X7X7X7X7X7X7X7X7X7X7X7X7X7X7X7X7X7X7X7X7X7X7X7X",
"7X7X7X7X7X7X7X7X7X7X7X7X7X7X7X7X7X7X7X7X7X7X7X7X7X7X7X7X7X7X7X7X7X7X7X7X7X7X7X7X7X7X7X7X7X7X7X7X7X7X7X7X7X7X7X7X7X7X7X7X7X7X7X7X",
"7X7X7X7X7X7X7X7X7X7X7X7X7X7X7X7X7X7X7X7X7X7X7X7X7X7X7X7X7X7X7X7X7X7X7X7X7X7X7X7X7X7X7X7X7X7X7X7X7X7X7X7X7X7X7X7X7X7X7X7X7X7X7X7X",
"7X7X7X7X7X7X7X7X7X7X7X7X7X7X7X7X7X7X' 7X7X7X7X7X7X7X7X7X7X7X7X7X7X7X7X7X7X7X7X7X7X7X7X7X7X7X7X7X7X7X7X7X7X7X7X7X7X7X7X7X7X7X7X7X",
"7X7X7X7X7X7X7X7X7X7X7X7X7X7X7X7X7X7XT.@X7X7X7X7X7X7X7X7X7X7X7X7X7X7X7X7X7X7X7X7X7X7X7X7X7X7X7X7X7X7X7X7X7X7X7X7X7X7X7X7X7X7X7X7X",
"7X7X7X7X7X7X7X7X7X7X7X7X7X7X7X7X7X7X7X| 7X7X7X7X7X7X7X7X7X7X7X7X7X7X7X7X7X7X7X7X7X7X7X7X7X7X7X7X7X7X7X7X7X7X7X7X7X7X7X7X7X7X7X7X",
"7X7X7X7X7X7X7X7X7X7X7X7X7X7X7X7X7X7X7XJ.I.7X7X7X7X7X7X7X7X7X7X7X7X7X7X7X7X7X7X7X7X7X7X7X7X7X7X7X7X7X7X7X7X7X7X7X7X7X7X7X7X7X7X7X",
"7X7X7X7X7X7X7X7X7X7X7X7X7X7X7X7X7X7X7XL J.7X7X7X7X7X7X7X7X7X7X7X7X7X7X7X7X7X7X7X7X7X7X7X7X7X7X7X7X7X7X7X7X7X7X7X7X7X7X7X7X7X7X7X",
"7X7X7X7X7X7X7X7X7X7X7X7X7X7X7X7X7X7X7X7X} | 7X7X7X7X7X7X7X7X7X7X7X7X7X7X7X7X7X7X7X7X7X7X7X7X7X7X7X7X7X7X7X7X7X7X7X7X7X7X7X7X7X7X",
"7X7X7X7X7X7X7X7X7X7X7X7X7X7X7X7X7X7X7X7X] } 7X7X7X7X7X7X7X7X7X7X7X7X7X7X7X7X7X7X7X7X7X7X7X7X7X7X7X7X7X7X7X7X7X7X7X7X7X7X7X7X7X7X",
"7X7X7X7X7X7X7X7X7X7X7X7X7X7X7X7X7X7X7X7X) ' #X7X7X7X7X7X7X7X7X7X7X7X7X7X7X7X7X7X7X7X7X7X7X7X7X7X7X7X7X7X7X7X7X7X7X7X7X7X7X7X7X7X",
"7X7X7X7X7X7X7X7X7X7X7X7X7X7X7X7X7X7X7X7X7X{ S.7X7X7X7X7X7X7X7X7X7X7X7X7X7X7X7X7X7X7X7X7X7X7X7X7X7X7X7X7X7X7X7X7X7X7X7X7X7X7X7X7X",
"7X7X7X7X7X7X7X7X7X7X7X7X7X7X7X7X7X7X7X7X7X[ ' E o a _ 7X7X7X7X7X7X7X7X7X7X7X7X7X7X7X7X7X7X7X7X7X7X7X7X7X7X7X7X7X7X7X7X7X7X7X7X7X",
"7X7X7X7X7X7X7X7X7X7X7X7X7X7X7X7X7X7X7X7X; K K V.V.F R A - 7X7X7X7X7X7X7X7X7X7X7X7X7X7X7X7X7X7X7X7X7X7X7X7X7X7X7X7X7X7X7X7X7X7X7X",
"7X7X7X7X7X7X7X7X7X7X7X7X7X7X7X7X7X7X7X7XP K.G.R q.r.5.q., 7X7X7X7X7X7X7X7X7X7X7X7X7X7X7X7X7X7X7X7X7X7X7X7X7X7X7X7X7X7X7X7X7X7X7X",
"7X7X7X7X7X7X7X7X7X7X7X7X7X7X7X7X7X7X7X7XT l H H K.F.7.4.I q s 7X7X7X7X7X7X7X7X7X7X7X7X7X7X7X7X7X7X7X7X7X7X7X7X7X7X7X7X7X7X7X7X7X",
"7X7X7X7X7X7X7X7X7X7X7X7X7X7X7X7X7X7X7X7X7 m 1.e.j.W.5.Z.H d <   7X7X7X7X7X7X7X7X7X7X7X7X7X7X7X7X7X7X7X7X7X7X7X7X7X7X7X7X7X7X7X7X",
"7X7X7X7X7X7X7X7X7X7X7X7X7X7X7X7X7X7X7X7X$.N.N.6.n.1.4.P ( 9.a - 7X7X7X7X7X7X7X7X7X7X7X7X7X7X7X7X7X7X7X7X7X7X7X7X7X7X7X7X7X7X7X7X",
"7X7X7X7X7X7X7X7X7X7X7X7X7X7X7X7X7X7Xu g.OX&Xb &.k.h.$.Z.w.A a , + 7X7X7X7X7X7X7X7X7X7X7X7X7X7X7X7X7X7X7X7X7X7X7X7X7X7X7X7X7X7X7X",
"7X7X7X7X7X7X7X7X7X7X7X7X7X7X7X7X7X7X!.,X;X5X*X!.6.n.h.4.T V.Z.A o 7X7X7X7X7X7X7X7X7X7X7X7X7X7X7X7X7X7X7X7X7X7X7X7X7X7X7X7X7X7X7X",
"7X7X7X7X7X7X7X7X7X7X7X7X7X7X7X7X7Xx.S.).^.^.W.g.6.!.!.+.Z.K.S.y - 7X7X7X7X7X7X7X7X7X7X7X7X7X7X7X7X7X7X7X7X7X7X7X7X7X7X7X7X7X7X7X",
"7X7X7X7X7X7X7X7X7X7X7X7X7X7X7X7X7X2.i.-.Y k X.f.(.XX(.=.4.T R 4.y < 7X7X7X7X7X7X7X7X7X7X7X7X7X7X7X7X7X7X7X7X7X7X7X7X7X7X7X7X7X7X",
"7X7X7X7X7X7X7X7X7X7X7X7X7X7X7X7X7X7Xn 0.R 7Xp. X>X>XP.%.z W Q P o 9 o 7X7X7X7X7X7X7X7X7X7X7X7X7X7X7X7X7X7X7X7X7X7X7X7X7X7X7X7X7X",
"7X7X7X7X7X7X7X7X7X7X7X7X7X7X7X7X7X7XE l , x ^.2X3X>Xm.&.Y l s p ; X 7X7X7X7X7X7X7X7X7X7X7X7X7X7X7X7X7X7X7X7X7X7X7X7X7X7X7X7X7X7X",
"7X7X7X7X7X7X7X7X7X7X7X7X7X7X7X7X7X7XH % 7X2.&X5X-X+XL.1.m P Z.P a a 7X7X7X7X7X7X7X7X7X7X7X7X7X7X7X7X7X7X7X7X7X7X7X7X7X7X7X7X7X7X",
"7X7X7X7X7X7X7X7X7X7X7X7X7X7X7X7X7X7X7XO 7Xx.<X5X+X-X!.e.%.$.P d W F W 7X7X7X7X7X7X7X7X7X7X7X7X7X7X7X7X7X7X7X7X7X7X7X7X7X7X7X7X7X",
"7X7X7X7X7X7X7X7X7X7X7X7X7X7X7X7X7X7X7X7X .E.4X5X-X+XL.L.k.m ~ ^ , y 7X7X7X7X7X7X7X7X7X7X7X7X7X7X7X7X7X7X7X7X7X7X7X7X7X7X7X7X7X7X",
"7X7X7X7X7X7X7X7X7X7X7X7X7X7X7X7X7X7X7X7X .'.4X,X-X+XoX).n.$.z s $ - 7X7X7X7X7X7X7X7X7X7X7X7X7X7X7X7X7X7X7X7X7X7X7X7X7X7X7X7X7X7X",
"7X7X7X7X7X7X7X7X7X7X7X7X7X7X7X7X7X7X7X7X,.].&X1X3X3X-Xl.e.;.$.&.z r t r t r r &.s.b 7 h 7X7X7X7X7X7X7X7X7X7X7X7X7X7X7X7X7X7X7X7X",
"7X7X7X7X7X7X7X7X7X7X7X7X7X7X7X7X7X7X7X .c.].*X5X5X-X(.L.s.e.f.l.j.s.6.j.m.b.e.;.Y $.1.k 7X7X7X7X7X7X7X7X7X7X7X7X7X7X7X7X7X7X7X7X",
"7X7X7X7X7X7X7X7X7X7X7X7X7X7X7X7X7X7X7X>.z.].4X5X5XoXOX!.3.e.`.P.L.D.D.D.{.OX).P.e.m r =.7X7X7X7X7X7X7X7X7X7X7X7X7X7X7X7X7X7X7X7X",
"7X7X7X7X7X7X7X7X7X7X7X7X7X7X7X7X7X7X7XX.u.].6X5X1X1X-Xs.o.P.OX`.).~.!.P._.OXoX}.P.j.h <.%.7X7X7X7X7X7X7X7X7X7X7X7X7X7X7X7X7X7X7X",
"7X7X7X7X7X7X7X7X7X7X7X7X7X7X7X7X7X7X7Xc O.R.<X<X}.-Xm.N a.{.OX+X{.).!.L.!.L.OXOXQ.!.$.t a.7 7X7X7X7X7X7X7X7X7X7X7X7X7X7X7X7X7X7X",
"7X7X7X7X7X7X7X7X7X7X7X7X7X7X7X7X7X7Xy.W. ...M.1X;X{.<.M N.{.OXOX{.P.P.m.l.m.1X=XL._.=.6 ,.j 7X7X7X7X7X7X7X7X7X7X7X7X7X7X7X7X7X7X",
"7X7X7X7X7X7X7X7X7X7X7X7X7X7X7X7X7X7XQ.>Xi.M &X2X}.h.j M N. X*X~.~.k.n.s.e.L.2X>XN.!.&.= o.J 7X7X7X7X7X7X7X7X7X7X7X7X7X7X7X7X7X7X",
"7X7X7X7X7X7X7X7X7X7X7X7X7X7X7X7X7Xh.;X5X^.x.2X|.D.k = ..R..XQ.Q.k.d.6.;.3._.>XXXl.L.Y * X.&.7X7X7X7X7X7X7X7X7X7X7X7X7X7X7X7X7X7X",
"7X7X7X7X7X7X7X7X7X7X7X7X7X7X7X7Xu.>X}.(.f.1X*XD.t & 3 x z.B.M.f.6.1.n b f. X;X+Xk.j.h $ ..&.7X7X7X7X7X7X7X7X7X7X7X7X7X7X7X7X7X7X",
"7X7X7X7X7X7X7X7X7X7X7X7X7X7X7X7XR.|.s.f.=X+Xn.6 7X7X3 w g *.>.#.b j r k /.:X<XXXe.&.7 # >.<.7X7X7X7X7X7X7X7X7X7X7X7X7X7X7X7X7X7X",
"7X7X7X7X7X7X7X7X7X7X7X7X7X7X7X7Xc.R.n .X Xh.r 7X7X7X7X7X& 3 5 5 = & @ 4 M.<X4X!.6.b 6 7X7Xg.7X7X7X7X7X7X7X7X7X7X7X7X7X7X7X7X7X7X",
"7X7X7X7X7X7X7X7X7X7X7X7X7X7X7X7X,..X6.$X;.r 7X7X7X7X7X7X7X7X7X7X7X3 & # O.:X*X!.;.i * 7Xv.b.7X7X7X7X7X7X7X7X7X7X7X7X7X7X7X7X7X7X",
"7X7X7X7X7X7X7X7X7X7X7X7X7X7X7X7X>.%XD.[.A./ 7X7X7X7X7X7X7X7X7X7X7X7X3 w e c.:XL.e.#.* 7X].6.7X7X7X7X7X7X7X7X7X7X7X7X7X7X7X7X7X7X",
"7X7X7X7X7X7X7X7X7X7X7X7X7X7X7X7X7XR.W..XS.K.~ 7X7X7X7X7X7X7X7X7X7X7X7Xj 2.j y.f.6.N * 7X|.#.7X7X7X7X7X7X7X7X7X7X7X7X7X7X7X7X7X7X",
"7X7X7X7X7X7X7X7X7X7X7X7X7X7X7X7X7X..z.=XK.Y./ O 7X7X7X7X7X7X7X7X7X7X7Xg R.f.r X.&.Y t u V.y 7X7X7X7X7X7X7X7X7X7X7X7X7X7X7X7X7X7X",
"7X7X7X7X7X7X7X7X7X7X7X7X7X7X7X7X7X7X2.{.t.9.9.X 7X7X7X7X7X7X7X7X7X7X7X7Xv.^.&.$ X.a.=.m ( , 7X7X7X7X7X7X7X7X7X7X7X7X7X7X7X7X7X7X",
"7X7X7X7X7X7X7X7X7X7X7X7X7X7X7X7X7X7Xg.{.i O   7X7X7X7X7X7X7X7X7X7X7X7Xi.$X/.N 7Xe u.`.Y s 1 7X7X7X7X7X7X7X7X7X7X7X7X7X7X7X7X7X7X",
"7X7X7X7X7X7X7X7X7X7X7X7X7X7X7X7X7X7XH.#XU D 7X7X7X7X7X7X7X7X7X7X7X7X7X$X1Xh.= 7X7XM.XXm q I 7X7X7X7X7X7X7X7X7X7X7X7X7X7X7X7X7X7X",
"7X7X7X7X7X7X7X7X7X7X7X7X7X7X7X7X7X7X[ @X! : 7X7X7X7X7X7X7X7X7X7X7X7X'.5X{.N 7X7X7X[. Xk 1 / 7X7X7X7X7X7X7X7X7X7X7X7X7X7X7X7X7X7X",
"7X7X7X7X7X7X7X7X7X7X7X7X7X7X7X7X7X7XS S 7X7X7X7X7X7X7X7X7X7X7X7X7Xu.6X,Xl.~ 7X7X7X:X!.T q 7X7X7X7X7X7X7X7X7X7X7X7X7X7X7X7X7X7X7X",
"7X7X7X7X7X7X7X7X7X7X7X7X7X7X7X7X7X7X7X7X7X7X7X7X7X7X7X7X7X7X7X7X7X].1XS.t./ 7X7Xz.1XI.R 0 7X7X7X7X7X7X7X7X7X7X7X7X7X7X7X7X7X7X7X",
"7X7X7X7X7X7X7X7X7X7X7X7X7X7X7X7X7X7X7X7X7X7X7X7X7X7X7X7X7X7X7XV { !.`.^ > 1 7X7XE.*X5.W 7X7X7X7X7X7X7X7X7X7X7X7X7X7X7X7X7X7X7X7X",
"7X7X7X7X7X7X7X7X7X7X7X7X7X7X7X7X7X7X7X7X7X7X7X7X7X7X7X7X7X7X7XB T.Y.) A = < 7XJ }.e.w.W < 7X7X7X7X7X7X7X7X7X7X7X7X7X7X7X7X7X7X7X",
"7X7X7X7X7X7X7X7X7X7X7X7X7X7X7X7X7X7X7X7X7X7X7X7X7X7X7X7X7X7X7Xa C.C.2 7X7X7XB ) ( S ^ y > 7X7X7X7X7X7X7X7X7X7X7X7X7X7X7X7X7X7X7X",
"7X7X7X7X7X7X7X7X7X7X7X7X7X7X7X7X7X7X7X7X7X7X7X7X7X7X7X7X7X7X7X7X7X7X7X7X7X7XZ U.C.C A.0.Q 7X7X7X7X7X7X7X7X7X7X7X7X7X7X7X7X7X7X7X",
"7X7X7X7X7X7X7X7X7X7X7X7X7X7X7X7X7X7X7X7X7X7X7X7X7X7X7X7X7X7X7X7X7X7X7X7X7X7X7X7X7X7X7X7X7X7X7X7X7X7X7X7X7X7X7X7X7X7X7X7X7X7X7X7X"
};
