/* XPM */
static char *result[] = {
/* columns rows colors chars-per-pixel */
"64 64 205 2 ",
"   c #171717",
".  c #27231E",
"X  c #242326",
"o  c #332A20",
"O  c #393224",
"+  c #2C2B38",
"@  c #312F3E",
"#  c #353331",
"$  c #383739",
"%  c #4D4534",
"&  c #47433D",
"*  c #594D36",
"=  c #5C523C",
"-  c #6A5539",
";  c #735A36",
":  c #7A623C",
">  c #3B3A49",
",  c #403E4E",
"<  c #413F51",
"1  c #43414C",
"2  c #484647",
"3  c #554E42",
"4  c #5F594A",
"5  c #595349",
"6  c #555452",
"7  c #5C5B58",
"8  c #484659",
"9  c #655C4C",
"0  c #685D48",
"q  c #645E58",
"w  c #6D614D",
"e  c #786244",
"r  c #6B6356",
"t  c #64615B",
"y  c #716650",
"u  c #766C54",
"i  c #796B58",
"p  c #7C7157",
"a  c #7B715E",
"s  c #524F63",
"d  c #565565",
"f  c #5B5A6C",
"g  c #615F6C",
"h  c #696666",
"j  c #6C6A67",
"k  c #716E6D",
"l  c #726B60",
"z  c #7B756C",
"x  c #74706F",
"c  c #696776",
"v  c #767170",
"b  c #7E7B7B",
"n  c #7B7875",
"m  c #746F75",
"M  c #835E2F",
"N  c #92774A",
"B  c #84795E",
"V  c #877559",
"C  c #907C5D",
"Z  c #887046",
"A  c #A17D4A",
"S  c #847A63",
"D  c #897F68",
"F  c #807661",
"G  c #927F65",
"H  c #817E79",
"J  c #998554",
"K  c #A98548",
"L  c #A98A5A",
"P  c #BF974D",
"I  c #8E8165",
"U  c #8B816C",
"Y  c #87806D",
"T  c #95886D",
"R  c #85827F",
"E  c #8C8477",
"W  c #948A73",
"Q  c #9A8E74",
"!  c #948A77",
"~  c #9B9177",
"^  c #AA906F",
"/  c #A2967A",
"(  c #A6997D",
")  c #A69979",
"_  c #A48E6B",
"`  c #BBA774",
"'  c #C49947",
"]  c #D0AB5B",
"[  c #C39B72",
"{  c #D0AF6A",
"}  c #CEB371",
"|  c #747281",
" . c #7E7C8B",
".. c #817C8B",
"X. c #817F91",
"o. c #898684",
"O. c #8E8C89",
"+. c #868389",
"@. c #938F8E",
"#. c #95928E",
"$. c #9C9281",
"%. c #878593",
"&. c #918F9D",
"*. c #928D96",
"=. c #969294",
"-. c #9B9693",
";. c #9C9996",
":. c #9A979A",
">. c #A59988",
",. c #A39F9C",
"<. c #A89F97",
"1. c #ACA289",
"2. c #B3A584",
"3. c #B2A68B",
"4. c #B5A98B",
"5. c #BBB08F",
"6. c #A6A29F",
"7. c #B4AB98",
"8. c #BFB393",
"9. c #938EA0",
"0. c #9995A5",
"q. c #9B98AA",
"w. c #A29EA9",
"e. c #A19EA2",
"r. c #AAA4A2",
"t. c #AEABA6",
"y. c #A5A3AB",
"u. c #AEAAAA",
"i. c #AAA5A4",
"p. c #B3AEAB",
"a. c #B3A6A9",
"s. c #B4B2AD",
"d. c #A8A4B2",
"f. c #BAB5B2",
"g. c #BDBAB5",
"h. c #B6B2BB",
"j. c #BAB6BF",
"k. c #BAB7B7",
"l. c #B0ABB8",
"z. c #C8B58D",
"x. c #C3B592",
"c. c #C6B896",
"v. c #C2B69A",
"b. c #CCBD9C",
"n. c #C7BA9A",
"m. c #D3BD95",
"M. c #C8BBA3",
"N. c #C2BDBA",
"B. c #C1B9B6",
"V. c #D4C39B",
"C. c #E0D195",
"Z. c #CCC3A6",
"A. c #D4C5A6",
"S. c #DACCA9",
"D. c #D7C8A8",
"F. c #C5C2BD",
"G. c #C8C3BF",
"H. c #D9CFB6",
"J. c #E0D1AC",
"K. c #ECDBB6",
"L. c #EEE2B9",
"P. c #F4E7A9",
"I. c #B9B5C3",
"U. c #BDBACA",
"Y. c #B6B4C4",
"T. c #C2BDC7",
"R. c #C0BED0",
"E. c #CBC6C3",
"W. c #CDC9C5",
"Q. c #CDCAC9",
"!. c #CBC7CC",
"~. c #D1CCC5",
"^. c #D3CDCB",
"/. c #D8C7CA",
"(. c #D5D2CD",
"). c #D9D4CE",
"_. c #DBD5C6",
"`. c #CBC7D6",
"'. c #D1CCD8",
"]. c #DBD6D3",
"[. c #DED9D5",
"{. c #DBD6DC",
"}. c #DEDBDD",
"|. c #E2DBD6",
" X c #E3DEDC",
".X c #E9E3DA",
"XX c #DEDAE9",
"oX c #D8D4E0",
"OX c #E3DDE9",
"+X c #E4E2E3",
"@X c #EBE6E4",
"#X c #EAE5ED",
"$X c #EDE9EC",
"%X c #EBE6E6",
"&X c #F2EDEC",
"*X c #F6F1EF",
"=X c #EEEAF2",
"-X c #EBE4F4",
";X c #F4EFF6",
":X c #F5F2F4",
">X c #F6F5FB",
",X c #FBF7FA",
"<X c #FEFDFE",
"1X c #FBF7F6",
"2X c None",
/* pixels */
"2X2X2X2X2X2X2X2X2X2X2X2X2X2X2X2X2X2X2X2X2X2X2X2X2X2X2X2X2X2X2X2X2X2X2X2X2X2X2X2X2X2X2X2X2X2X2X2X2X2X2X2X2X2X2X2X2X2X2X2X2X2X2X2X",
"2X2X2X2X2X2X2X2X2X2X2X2X2X2X2X2X2X2X2X2X2X2X2X2X2X2X2X2X2X2X2X2X2X2X2X2X2X2X2X2X2X2X2X2X2X2X2X2X2X2X2X2X2X2X2X2X2X2X2X2X2X2X2X2X",
"2X2X2X2X2X2X2X2X2X2X2X2X2X2X2X2X2X2X2X2X2X2X2X2X2X2X2X2X2X2X2X2X2XD.2X2X2X2X2X2X2X2X2X2X2X2X2X2X2X2X2X2X2X2X2X2X2X2X2X2X2X2X2X2X",
"2X2X2X2X2X2X2X2X2X2X2X2X2X2X2X2X2X2X2X2X2X2X2X2X2X2X2X2X2X2X2X2X2X' 2X2X2X2X2X2X2X2X2X2X2X2X2X2X2X2X2X2X2X2X2X2X2X2X2X2X2X2X2X2X",
"2X2X2X2X2X2X2X2X2X2X2X2X2X2X2X2X2X2X2X2X2X2X2X2X2X2X2X2X2X2X2X2X2XK.2X2X2X2X2X2X2X2X2X2X2X2X2X2X2X2X2X2X2X2X2X2X2X2X2X2X2X2X2X2X",
"2X2X2X2X2X2X2X2X2X2X2X2X2X2X2X2X2X2X2X2X2X2X2X2X2X2X2X2X2X2X2X2X2X' 2X2X2X2X2X2X2X2X2X2X2X2X2X2X2X2X2X2X2X2X2X2X2X2X2X2X2X2X2X2X",
"2X2X2X2X2X2X2X2X2X2X2X2X2X2X2X2X2X2X2X2X2X2X2X2X2X2X2X2X2X2X2X2X2XK.2X2X2X2X2X2X2X2X2X2X2X2X2X2X2X2X2X2X2X2X2X2X2X2X2X2X2X2X2X2X",
"2X2X2X2X2X2X2X2X2X2X2X2X2X2X2X2X2X2X2X2X2X2X2X2X2X2X2X2X2X2X2X2X2X] 2X2X2X2X2X2X2X2X2X2X2X2X2X2X2X2X2X2X2X2X2X2X2X2X2X2X2X2X2X2X",
"2X2X2X2X2X2X2X2X2X2X2X2X2X2X2X2X2X2X2X2X2X2X2X2X2X2X2X2X2X2X2X2X2Xm.2X2X2X2X2X2X2X2X2X2X2X2X2X2X2X2X2X2X2X2X2X2X2X2X2X2X2X2X2X2X",
"2X2X2X2X2X2X2X2X2X2X2X2X2X2X2X2X2X2X2X2X2X2X2X2X2X2X2X2X2X2X2X2X2X{ 2X2X2X2X2X2X2X2X2X2X2X2X2X2X2X2X2X2X2X2X2X2X2X2X2X2X2X2X2X2X",
"2X2X2X2X2X2X2X2X2X2X2X2X2X2X2X2X2X2X2X2X2X2X2X2X2X2X2X2X2X2X2X2X2Xm.] 2X2X2X2X2X2X2X2X2X2X2X2X2X2X2X2X2X2X2X2X2X2X2X2X2X2X2X2X2X",
"2X2X2X2X2X2X2X2X2X2X2X2X2X2X2X2X2X2X2X2X2X2X2X2X2X2X2X2X2X2X2X2X2X[ K 2X2X2X2X2X2X2X2X2X2X2X2X2X2X2X2X2X2X2X2X2X2X2X2X2X2X2X2X2X",
"2X2X2X2X2X2X2X2X2X2X2X2X2X2X2X2X2X2X2X2X2X2X2X2X2X2X2X2X2X2X2X2X2Xu L O 2X2X2X2X2X2X2X2X2X2X2X2X2X2X2X2X2X2X2X2X2X2X2X2X2X2X2X2X",
"2X2X2X2X2X2X2X2X2X2X2X2X2X2X2X2X2X2X2X2X2X2X2X2X2X2X2X2X2X2X2X( S A._ x.0 2X2X2X2X2X2X2X2X2X2X2X2X2X2X2X2X2X2X2X2X2X2X2X2X2X2X2X",
"2X2X2X2X2X2X2X2X2X2X2X2X2X2X2X2X2X2X2X2X2X2X2X2X2X2X2X2X2X2X9 S b.v.c.Q 9 2X2X2X2X2X2X2X2X2X2X2X2X2X2X2X2X2X2X2X2X2X2X2X2X2X2X2X",
"2X2X2X2X2X2X2X2X2X2X2X2X2X2X2X2X2X2X2X2X2X2X2X2X2X2X2X2X= w S 1.7.4.>.H j H x k 2X2X2X2X2X2X2X2X2X2X2X2X2X2X2X2X2X2X2X2X2X2X2X2X",
"2X2X2X2X2X2X2X2X2X2X2X2X2X2X2X2X2X2X2X2X2X2X2X2X2X2X2Xu V Q / c.D.H.f.^.N.Q.$X+Xu.2X2X2X2X2X2X2X2X2X2X2X2X2X2X2X2X2X2X2X2X2X2X2X",
"2X2X2X2X2X2X2X2X2X2X2X2X2X2X2X2X2X2X2X2X2X2X2X2X2X2X2XT Q 4.( >.a./.OX#Xw.'.>X-X`.c 2X2X2X2X2X2X2X2X2X2X2X2X2X2X2X2X2X2X2X2X2X2X",
"2X2X2X2X2X2X2X2X2X2X2X2X2X2X2X2X2X2X2X2X2X2X2X2X2X2Xy Q ~ a b.1.B.#X#X=X#XXXU.d.2X2X2X2X2X2X2X2X2X2X2X2X2X2X2X2X2X2X2X2X2X2X2X2X",
"2X2X2X2X2X2X2X2X2X2X2X2X2X2X2X2X2X2X2X2X2X2X2X2X2XO B U 8.c.D.W.&X<X-XoX`.0.<.i.h 2X2X2X2X2X2X2X2X2X2X2X2X2X2X2X2X2X2X2X2X2X2X2X",
"2X2X2X2X2X2X2X2X2X2X2X2X2X2X2X2X2X2X2X2X2X2X2X2Xp a w 8.M.M.~.[.<X,X=XT.0.2XS $.2X2X2X2X2X2X2X2X2X2X2X2X2X2X2X2X2X2X2X2X2X2X2X2X",
"2X2X2X2X2X2X2X2X2X2X2X2X2X2X2X2X2X2X2X2X2X2X2X2Xr p S W ! 7.^.].,X:X#Xw.2X2Xo r V.2X2X2X2X2X2X2X2X2X2X2X2X2X2X2X2X2X2X2X2X2X2X2X",
"2X2X2X2X2X2X2X2X2X2X2X2X2X2X2X2X2X2X2X2X2X2X2X2Xr % Q T 2.t.^.^.*X1X#X*.2X2X2X. 2X2X2X2X2X2X2X2X2X2X2X2X2X2X2X2X2X2X2X2X2X2X2X2X",
"2X2X2X2X2X2X2X2X2X2X2X2X2X2X2X2X2X2X2X2X2X2X2X2X2.a ~ 2.3.t.W.).*X,X$Xw.2X2X2X2X2X2X2X2X2X2X2X2X2X2X2X2X2X2X2X2X2X2X2X2X2X2X2X2X",
"2X2X2X2X2X2X2X2X2X2X2X2X2X2X2X2X2X2X2X2X2X2X2X& % I A.2.E 6.G.^..X&XOXh.2X2X2X2X2X2X2X2X2X2X2X2X2X2X2X2X2X2X2X2X2X2X2X2X2X2X2X2X",
"2X2X2X2X2X2X2X2X2X2X2X2X2X2X2X2X2X2X2X2X2X2X2X2XI S.S.>.z #.r.r.N.^.T.Y.2X2X2X2X2X2X2X2X2X2X2X2X2X2X2X2X2X2X2X2X2X2X2X2X2X2X2X2X",
"2X2X2X2X2X2X2X2X2X2X2X2X2X2X2X2X2X2X2X2X2X2X2X2X5.S.Z.I H i.s.^.|.].W.=.g 2X2X2X2X2X2X2X2X2X2X2X2X2X2X2X2X2X2X2X2X2X2X2X2X2X2X2X",
"2X2X2X2X2X2X2X2X2X2X2X2X2X2X2X2X2X2X2X2X2X2X2X/ v.v./ U o.p.g.).].|.}.^.+.2X2X2X2X2X2X2X2X2X2X2X2X2X2X2X2X2X2X2X2X2X2X2X2X2X2X2X",
"2X2X2X2X2X2X2X2X2X2X2X2X2X2X2X2X2X2X2X2X2X2X2XB ~ z W b 6.s.g.g.).@X&X XN.m 2X2X2X2X2X2X2X2X2X2X2X2X2X2X2X2X2X2X2X2X2X2X2X2X2X2X",
"2X2X2X2X2X2X2X2X2X2X2X2X2X2X2X2X2X2X2X2X2X2X2X4 Y = q #.g.E.E.i.~.&X&X&X+Xk.| v f.@X+X^.E.[.! N N 2X2X2X2X2X2X2X2X2X2X2X2X2X2X2X",
"2X2X2X3 $ 2X2X2X2X2X2X2X2X2X2X2X2X2X2X2X2X2X2X2Xu t O.u.W.|..X[.p.~.+X:X<X<X*X].).OXQ.M.H.7.L C.` C 2X2X2X2X2X2X2X2X2X2X2X2X2X2X",
"2X2X0 y Q 2X2X2X2X2X2X2X2X2X2X2X2X2X2X2X2X2X2Xt n ;.s.W.[.@X1X<XE.-.E.}.=X:X:X*X$X>XQ.3.Z.2.- - ; 2X2X2X2X2X2X2X2X2X2X2X2X2X2X2X",
"2X2.T Q 2.2X2X2X2X2X2X2X2X2X2X2X2X2X2X2X7 #.-.;.t.g.Q..X*X<X<X<X1X].0.0.d.y.w.*.-.|.+XW D 4 - Z 2X2X2X2X2X2X2X2X2X2X2X2X2X2X2X2X",
"2XB 2.A.3.2X2X2X2X2X2X2X2X2X2X2X2X2X2 n f.(.N.N.E.)..X1X<X<X<X<X<X#XU.| 8 , , S S..X$X2X9 2X2X2X2X2X2X2X2X2X2X2X2X2X2X2X2X2X2X2X",
"2X~ x.x.a 2X2X2X2X2X2X2X2X2X2X2X2X& o.f.^.).W.E.].[.1X<X<X<X<X<X<XXXq.c d s # 2.L.L.&X2X2X2X2X2X2X2X2X2X2X2X2X2X2X2X2X2X2X2X2X2X",
"2X8.a ( a 2X2X2X2X2X2X2X2X2X2X2 & h p.W.W.(.(.).]. X%X<X<X<X<X,X-XU.X.< X 2XG ) ( J.$X2X2X2X2X2X2X2X2X2X2X2X2X2X2X2X2X2X2X2X2X2X",
"2Xr r U 8.>.2X2X2X2X2X2X2X2X2Xk 2 b g.Q.^.|. X].^.{. X#X;X;X-XXXU.0.f 2X2X2Xa 0 % i #X2X2X2X2X2X2X2X2X2X2X2X2X2X2X2X2X2X2X2X2X2X",
"2X2X% 4 ! S.2X2X2X2X2X2X2X2Xv =.6 o.s.).E.|..X&X^.Q.^.}.OXoX`.Y.9.c 2X2X2X2X2X2Xe G m.z.2X2X2X2X2X2X2X2X2X2X2X2X2X2X2X2X2X2X2X2X",
"2X2X2X2XW H.^.2X2X2X2X2X2XO.E.%.6 R r.W.^.].&X&X Xj.I.j.Y.d.q. .f @ 2X2X2X2X2X2X2X` P.2X2X2X2X2X2X2X2X2X2X2X2X2X2X2X2X2X2X2X2X2X",
"2X2X2X2X2X4 6.f.f.p.;.e.f.!.y.2X2 R #.s.^._.@X<X#X*.&.*.X.| f > 2X2X2X2X2X2X2X2X2X2XA J 2X2X2X2X2X2X2X2X2X2X2X2X2X2X2X2X2X2X2X2X",
"2X2X2X2X2X2X2X2Xb 6.u.y.:.2X2X2X# b -.=.t.E.].:X=X| ..d < > 2X2X2X2X2X2X2X2X2X2X2X2X2X2X2X2X2X2X2X2X2X2X2X2X2X2X2X2X2X2X2X2X2X2X",
"2X2X2X2X2X2X2X2X2X2X2X2X2X2X2X2X2X# n v #.g. X<X`. .U.m 2X2X2X2X2X2X2X2X2X2X2X2X2X2X2X2X2X2X2X2X2X2X2X2X2X2X2X2X2X2X2X2X2X2X2X2X",
"2X2X2X2X2X2X2X2X2X2X2X2X2X2X2X2X2X2X  $ ;.W.+X'. .l.`.%.2X2X2X2X2X2X2X2X2X2X2X2X2X2X2X2X2X2X2X2X2X2X2X2X2X2X2X2X2X2X2X2X2X2X2X2X",
"2X2X2X2X2X2X2X2X2X2X2X2X2X2X2X2X2X2Xj =.W.W.y.c h.-XOX%.2X2X2X2X2X2X2X2X2X2X2X2X2X2X2X2X2X2X2X2X2X2X2X2X2X2X2X2X2X2X2X2X2X2X2X2X",
"2X2X2X2X2X2X2X2X2X2X2X2X2X2X2X2X2Xv t. X}.%.$ O.:X>XY.2X2X2X2X2X2X2X2X2X2X2X2X2X2X2X2X2X2X2X2X2X2X2X2X2X2X2X2X2X2X2X2X2X2X2X2X2X",
"2X2X2X2X2X2X2X2X2X2X2X2X2X2X2X2X6 ,.$X}.X.+ j }.>XU.d 2X2X2X2X2X2X2X2X2X2X2X2X2X2X2X2X2X2X2X2X2X2X2X2X2X2X2X2X2X2X2X2X2X2X2X2X2X",
"2X2X2X2X2X2X2X2X2X2X2X2X2X2X2X2Xz (.&X .@ 6 s.:X`.c 2X2X2X2X2X2X2X2X2X2X2X2X2X2X2X2X2X2X2X2X2X2X2X2X2X2X2X2X2X2X2X2X2X2X2X2X2X2X",
"2X2X2X2X2X2X2X2X2X2X2X2X2X2X2X/ Z.&XU.2X2XR +X'.+.6 2X2X2X2X2X2X2X2X2X2X2X2X2X2X2X2X2X2X2X2X2X2X2X2X2X2X2X2X2X2X2X2X2X2X2X2X2X2X",
"2X2X2X2X2X2X2X2X2X2X2X2X2X2XI b._.;X&.2X  h N.1X*XE.g.h.2X2X2X2X2X2X2X2X2X2X2X2X2X2X2X2X2X2X2X2X2X2X2X2X2X2X2X2X2X2X2X2X2X2X2X2X",
"2X2X2X2X2X2X2X2X2X2X2X2X2Xy c.8.[.oXc 2X2X. 7 u.W.E._.].o.2X2X2X2X2X2X2X2X2X2X2X2X2X2X2X2X2X2X2X2X2X2X2X2X2X2X2X2X2X2X2X2X2X2X2X",
"2X2X2X2X2X2X2X2X2X2X2X2X0 u V.D.F.!.2X2X2X2X2XX 3 n.4.v.L } ' 2X2X2X2X2X2X2X2X2X2X2X2X2X2X2X2X2X2X2X2X2X2X2X2X2X2X2X2X2X2X2X2X2X",
"2X2X2X2X2X2X2X2X2X2X2X2X2XU V ~ G ^ 2X2X2X2X2X2X2XE 9 e N Z 0 e 2X2X2X2X2X2X2X2X2X2X2X2X2X2X2X2X2X2X2X2X2X2X2X2X2X2X2X2X2X2X2X2X",
"2X2X2X2X2X2X2X2X2X2X2X2X2X2X2X- N V.{ 2X2X2X2X2X2Xq 3 * ; : 2X2X2X2X2X2X2X2X2X2X2X2X2X2X2X2X2X2X2X2X2X2X2X2X2X2X2X2X2X2X2X2X2X2X",
"2X2X2X2X2X2X2X2X2X2X2X2X2X2X2XM ; * : 2X2X2X2X2X2Xi 2X2X2X2X2X2X2X2X2X2X2X2X2X2X2X2X2X2X2X2X2X2X2X2X2X2X2X2X2X2X2X2X2X2X2X2X2X2X",
"2X2X2X2X2X2X2X2X2X2X2X2X2X2X2X2X2X2X2X2X2X2X2X2X2X2X2X2X2X2X2X2X2X2X2X2X2X2X2X2X2X2X2X2X2X2X2X2X2X2X2X2X2X2X2X2X2X2X2X2X2X2X2X2X",
"2X2X2X2X2X2X2X2X2X2X2X2X2X2X2X2X2X2X2X2X2X2X2X2X2X2X2X2X2X2X2X2X2X2X2X2X2X2X2X2X2X2X2X2X2X2X2X2X2X2X2X2X2X2X2X2X2X2X2X2X2X2X2X2X",
"2X2X2X2X2X2X2X2X2X2X2X2X2X2X2X2X2X2X2X2X2X2X2X2X2X2X2X2X2X2X2X2X2X2X2X2X2X2X2X2X2X2X2X2X2X2X2X2X2X2X2X2X2X2X2X2X2X2X2X2X2X2X2X2X",
"2X2X2X2X2X2X2X2X2X2X2X2X2X2X2X2X2X2X2X2X2X2X2X2X2X2X2X2X2X2X2X2X2X2X2X2X2X2X2X2X2X2X2X2X2X2X2X2X2X2X2X2X2X2X2X2X2X2X2X2X2X2X2X2X",
"2X2X2X2X2X2X2X2X2X2X2X2X2X2X2X2X2X2X2X2X2X2X2X2X2X2X2X2X2X2X2X2X2X2X2X2X2X2X2X2X2X2X2X2X2X2X2X2X2X2X2X2X2X2X2X2X2X2X2X2X2X2X2X2X",
"2X2X2X2X2X2X2X2X2X2X2X2X2X2X2X2X2X2X2X2X2X2X2X2X2X2X2X2X2X2X2X2X2X2X2X2X2X2X2X2X2X2X2X2X2X2X2X2X2X2X2X2X2X2X2X2X2X2X2X2X2X2X2X2X",
"2X2X2X2X2X2X2X2X2X2X2X2X2X2X2X2X2X2X2X2X2X2X2X2X2X2X2X2X2X2X2X2X2X2X2X2X2X2X2X2X2X2X2X2X2X2X2X2X2X2X2X2X2X2X2X2X2X2X2X2X2X2X2X2X",
"2X2X2X2X2X2X2X2X2X2X2X2X2X2X2X2X2X2X2X2X2X2X2X2X2X2X2X2X2X2X2X2X2X2X2X2X2X2X2X2X2X2X2X2X2X2X2X2X2X2X2X2X2X2X2X2X2X2X2X2X2X2X2X2X",
"2X2X2X2X2X2X2X2X2X2X2X2X2X2X2X2X2X2X2X2X2X2X2X2X2X2X2X2X2X2X2X2X2X2X2X2X2X2X2X2X2X2X2X2X2X2X2X2X2X2X2X2X2X2X2X2X2X2X2X2X2X2X2X2X",
"2X2X2X2X2X2X2X2X2X2X2X2X2X2X2X2X2X2X2X2X2X2X2X2X2X2X2X2X2X2X2X2X2X2X2X2X2X2X2X2X2X2X2X2X2X2X2X2X2X2X2X2X2X2X2X2X2X2X2X2X2X2X2X2X"
};
