/* XPM */
static char *result[] = {
/* columns rows colors chars-per-pixel */
"64 64 193 2 ",
"   c #19181B",
".  c #22211C",
"X  c #1B1925",
"o  c #201F2C",
"O  c #373431",
"+  c #302E31",
"@  c #453D35",
"#  c #564B39",
"$  c #5A503C",
"%  c #554126",
"&  c #7E5C2F",
"*  c #6B553A",
"=  c #685438",
"-  c #735A37",
";  c #3A3A44",
":  c #413F49",
">  c #484646",
",  c #5B5345",
"<  c #514E5C",
"1  c #585656",
"2  c #5D5A5B",
"3  c #585653",
"4  c #4D4A4E",
"5  c #645B4A",
"6  c #685E47",
"7  c #675F56",
"8  c #6E624A",
"9  c #696558",
"0  c #746954",
"q  c #756A58",
"w  c #7D725C",
"e  c #7B6C4E",
"r  c #545363",
"t  c #5F5F61",
"y  c #5D5B6C",
"u  c #615F70",
"i  c #6D6B6A",
"p  c #696561",
"a  c #716D6A",
"s  c #766D64",
"d  c #73716C",
"f  c #7C7264",
"g  c #636272",
"h  c #6C6877",
"j  c #726F7B",
"k  c #757270",
"l  c #797674",
"z  c #7A787C",
"x  c #916E27",
"c  c #8D6732",
"v  c #A57F3F",
"b  c #896E4A",
"n  c #83755B",
"m  c #887355",
"M  c #937854",
"N  c #96744A",
"B  c #857B63",
"V  c #897D65",
"C  c #897D6A",
"Z  c #827E7B",
"A  c #897C72",
"S  c #F0CB3F",
"D  c #8C816D",
"F  c #8D8265",
"G  c #92856B",
"H  c #988C6E",
"J  c #82817C",
"K  c #968974",
"L  c #9D9175",
"P  c #A68F65",
"I  c #A89266",
"U  c #A29475",
"Y  c #A5997C",
"T  c #A99A7A",
"R  c #B7A575",
"E  c #C19F52",
"W  c #D2AB57",
"Q  c #D9B76A",
"!  c #D7BD7F",
"~  c #C7AA61",
"^  c #DFC276",
"/  c #EAC87E",
"(  c #7A7787",
")  c #807E8F",
"_  c #858282",
"`  c #8B8886",
"'  c #8A898C",
"]  c #928D8C",
"[  c #928B80",
"{  c #93918D",
"}  c #999186",
"|  c #8D8996",
" . c #928E9B",
".. c #949191",
"X. c #999693",
"o. c #9D9996",
"O. c #94919E",
"+. c #AB9D82",
"@. c #A39886",
"#. c #A69F97",
"$. c #A29C9C",
"%. c #ADA283",
"&. c #AFA589",
"*. c #B3A585",
"=. c #BBAC8C",
"-. c #B3A78A",
";. c #BFB18D",
":. c #A6A39E",
">. c #ABA395",
",. c #B7AB92",
"<. c #BCB095",
"1. c #938FA1",
"2. c #9693A4",
"3. c #9995A5",
"4. c #9D9AAB",
"5. c #9D99A7",
"6. c #A09DAC",
"7. c #A29FB0",
"8. c #AAA6A3",
"9. c #ADABA6",
"0. c #A9A6A8",
"q. c #B3ADAB",
"w. c #B1AAA3",
"e. c #B5B1AD",
"r. c #BDB3A8",
"t. c #A5A2B3",
"y. c #ADA9BA",
"u. c #AAA7B6",
"i. c #B1AEBC",
"p. c #B5B3B1",
"a. c #BAB6B3",
"s. c #BDBAB5",
"d. c #BFBCB8",
"f. c #C7B88B",
"g. c #C3B595",
"h. c #C7B99B",
"j. c #C7BDA7",
"k. c #C2BEBA",
"l. c #C2BEB6",
"z. c #CFC09C",
"x. c #DCCB92",
"c. c #EDD28D",
"v. c #CDC1A2",
"b. c #D6C7A4",
"n. c #C4C1BC",
"m. c #CCC5BC",
"M. c #DACFB0",
"N. c #E2D8B4",
"B. c #F1E2B3",
"V. c #BAB6C6",
"C. c #BBB7C6",
"Z. c #C0BDCD",
"A. c #C2BFD1",
"S. c #CAC4C2",
"D. c #CDC9C3",
"F. c #C7C3CB",
"G. c #CFCACD",
"H. c #C6C4CA",
"J. c #D2CCCA",
"K. c #D5D1CD",
"L. c #D9D4CC",
"P. c #DED9C5",
"I. c #CAC5D2",
"U. c #CFCBD6",
"Y. c #D2CDD5",
"T. c #D1CCDB",
"R. c #DBD6D3",
"E. c #D6D2DA",
"W. c #DAD6D7",
"Q. c #E2DAD4",
"!. c #E2DDDB",
"~. c #E5E1DD",
"^. c #F0E6C8",
"/. c #DCD7E6",
"(. c #E4DFED",
"). c #E2DDE4",
"_. c #E5E1E2",
"`. c #EBE6E4",
"'. c #E6E2EE",
"]. c #EDEAEC",
"[. c #EBE7EA",
"{. c #F3EDEC",
"}. c #F3F0EF",
"|. c #EEEBF4",
" X c #E8E2F1",
".X c #F1EDF3",
"XX c #F5F2F4",
"oX c #F9F5F5",
"OX c #F6F2FB",
"+X c #F9F5FA",
"@X c #FEFDFE",
"#X c #F9F8F7",
"$X c None",
/* pixels */
"$X$X$X$X$X$X$X$X$X$X$X$X$X$X$X$X$X$X$X$X$X$X$X$X$X$X$X$X$X$X$X$X$X$X$X$X$X$X$X$X$X$X$X$X$X$X$X$X$X$X$X$X$X$X$X$X$X$X$X$X$X$X$X$X",
"$X$X$X$X$X$X$X$X$X$X$X$X$X$X$X$X$X$X$X$X$X$X$X$X$X$X$X$X$X$X$X$X$X$X$X$X$X$X$X$X$X$X$X$X$X$X$X$X$X$X$X$X$X$X$X$X$X$X$X$X$X$X$X$X",
"$X$X$X$X$X$X$X$X$X$X$X$X$X$X$X$X$X$X$X$X$X$X$X$X$X$X$X$X$X$X$X$X$X$X$X$X$X$X$X$X$X$X$X$X$X$X$X$X$X$X$X$X$X$X$X$X$X$X$X$X$X$X$X$X",
"$X$X$X$X$X$X$X$X$X$X$X$X$X$X$X$X$X$X$X$X$X$X$X$X$X$X$X$X$X$X$X$X$X$X$X$X$X$X$X$X$X$X$X$X$X$X$X$X$X$X$X$X$X$X$X$X$X$X$X$X$X$X$X$X",
"$X$X$X$X$X$X$X$X$X$X$X$X$X$X$X$X$X$X$X$X$X$X$X$X$X$X$X$X$X$X$X$X$X$X$X$X$X$X$X$X$X$X$X$X$X$X$X$X$X$X$X$X$X$X$X$X$X$X$X$X$X$X$X$X",
"$X$X$X$X$X$X$X$X$X$X$X$X$X$X$X$X$X$X$X$X$X$X$X$X$X$X$X$X$X$X$X$X$X$X$X$X$X$X$X$X$X$X$X$X$X$X$X$X$X$X$X$X$X$X$X$X$X$X$X$X$X$X$X$X",
"$X$X$X$X$X$X$X$X$X$X$X$X$X$X$X$X$X$X$X$X$X$X$X$X$X$X$X$X$X$X$X$X$X$X$X$X$X$X$X$X$X$X$X$X$X$X$X$X$X$X$X$X$X$X$X$X$X$X$X$X$X$X$X$X",
"$X$X$X$X$X$X$X$X$X$X$X$X$X$X$X$X$X$X$X$X$X$X$X$X$X$X$X$X$X$X$X$X$X$X$X$X$X$X$X$X$X$X$X$X$X$X$X$X$X$X$X$X$X$X$X$X$X$X$X$X$X$X$X$X",
"$X$X$X$X$X$X$X$X$X$X$X$X$X$X$X$X$X$X$X$X$X$X$X$X$X$X$X$X$X$X$X$X$X$X$X$X$X$X$X$X$X$X$X$X$X$X$X$X$X$X$X$X$X$X$X$X$X$X$X$X$X$X$X$X",
"$X$X$X$X$X$X$X$X$X$X$X$X$X$X$X$X$X$X$X$X$X$X$X$X$X$X$X$X$X$X$X$X$X$X$X$X$X$X$X$X$X$X$X$X$X$X$X$X$X$X$X$X$X$X$X$X$X$X$X$X$X$X$X$X",
"$X$X$X$X$X$X$X$X$X$X$X$X$X$X$X$X$X$X$X$X$X$X$X$X$X$X$X$X$X$X$X$X$X$X$X$X$X$X$XW $X$X$X$X$X$X$X$X$X$X$X$X$X$X$X$X$X$X$X$X$X$X$X$X",
"$X$X$X$X$X$X$X$X$X$X$X$X$X$X$X$X$X$X$X$X$X$X$X$X$X$X$X$X$X$X$X$X$X$X$X$X$X$XB.E $X$X$X$X$X$X$X$X$X$X$X$X$X$X$X$X$X$X$X$X$X$X$X$X",
"$X$X$X$X$X$X$X$X$X$X$X$X$X$X$X$X$X$X$X$X$X$X$X$X$X$X$X$X$X$X$X$X$X$X$X$X$X$Xc.$X$X$X$X$X$X$X$X$X$X$X$X$X$X$X$X$X$X$X$X$X$X$X$X$X",
"$X$X$X$X$X$X$X$X$X$X$X$X$X$X$X$X$X$X$X$X$X$X$X$X$X$X$X$X$X$X$X$X$X$X$X$X$Xc.$X$X$X$X$X$X$X$X$X$X$X$X$X$X$X$X$X$X$X$X$X$X$X$X$X$X",
"$X$X$X$X$X$X$X$X$X$X$X$X$X$X$X$X$X$X$X$X$X$X$X$X$X$X$X$X$X$X$X$X$X$X$Xx.^ ^.$X$X$X$X$X$X$X$X$X$X$X$X$X$X$X$X$X$X$X$X$X$X$X$X$X$X",
"$X$X$X$X$X$X$X$X$X$X$X$X$X$X$X$X$X$X$X$X$X$X$X$X$X$X$X$X$X$X$X$X$X$X$Xc.x $X$X$X$X$X$X$X$X$X$X$X$X$X$X$X$X$X$X$X$X$X$X$X$X$X$X$X",
"$X$X$X$X$X$X$X$X$X$X$X$X$X$X$X$X$X$X$X$X$X$X$X$X$X$X$X$X$X$X$X$X$X$XS W $X$X$X$X$X$X$X$X$X$X$X$X$X$X$X$X$X$X$X$X$X$X$X$X$X$X$X$X",
"$X$X$X$X$X$X$X$X$X$X$X$X$X$X$X$X$X$X$X$X$X$X$X$X$XA $X$X$X$XB n a c.~ $X$X$X$X$X$X$X$X$X$X$X$X$X$X$X$X$X$X$X$X$X$X$X$X$X$X$X$X$X",
"$X$X$X$X$X$X$X$X$X$X$X$X$X$X$X$X$X$X$X$X$X$X$X$XO..X`.0.$X$XC +.I v $X$X$X$X$X$X$X$X$X$X$X$X$X$X$X$X$X$X$X$X$X$X$X$X$X$X$X$X$X$X",
"$X$X$X$X$X$X$X$X$X$X$X$X$X$X$X$X$X$X$X$X$X$X$X$X$XF.#XR...p.] M.M.Y g.$X$X$X$X$X$X$X$X$X$X$X$X$X$X$X$X$X$X$X$X$X$X$X$X$X$X$X$X$X",
"$X$X$X$X$X$X$X$X$X$X$X$X$X$X$X$X$X$X$X$X$X$X$XC.|.|. X#X.X!.W.g.g.-.h.$X$X$X$X$X$X$X$X$X$X$X$X$X$X$X$X$X$X$X$X$X$X$X$X$X$X$X$X$X",
"$X$X$X$X$X$X$X$X$X$X$X$X$X$X$X$X$X$X$X$X$X$X$X,.N.[ I.@X@X+X!.#.g.Y L %.$X$X$X$X$X$X$X$X$X$X$X$X$X$X$X$X$X$X$X$X$X$X$X$X$X$X$X$X",
"$X$X$X$X$X$X$X$X$X$X$X$X$X$X$X$X$X$X$X$X$X$X, q w $X2.+X@X@X~.] #.>.%.H $ $X$X$X$X$X$X$X$X$X$X$X$X$X$X$X$X$X$X$X$X$X$X$X$X$X$X$X",
"$X$X$X$X$X$X$X$X$X$X$X$X$X$X$X$X$X$X$X$X$X$X. $X$X$X$XI.@X#X~.e.j.;.U G # 6 $X$X$X$X$X$X$X$X$X$X$X$X$X$X$X$X$X$X$X$X$X$X$X$X$X$X",
"$X$X$X$X$X$X$X$X$X$X$X$X$X$X$X$X$X$X$X$X$X$X$X$X$X$X$X0.{..X!.D.#.=.b.v.G L q $X$X$X$X$X$X$X$X$X$X$X$X$X$X$X$X$X$X$X$X$X$X$X$X$X",
"$X$X$X$X$X$X$X$X$X$X$X$X$X$X$X$X$X$X$X$X$X$X$X$X$X$X$X$X_.XX~.K.8.j.g.<.h.# e $X$X$X$X$X$X$X$X$X$X$X$X$X$X$X$X$X$X$X$X$X$X$X$X$X",
"$X$X$X$X$X$X$X$X$X$X$X$X$X$X$X$X$X$X$X$X$X$X$X$X$X$X$X$X/..X{.R.e.8.@.%.T F D L $X$X$X$X$X$X$X$X$X$X$X$X$X$X$X$X$X$X$X$X$X$X$X$X",
"$X$X$X$X$X$X$X$X$X$X$X$X$X$X$X$X$X$X$X$X$X$X$X$X$X$X$X$XC..X`.Q.n.w.} =.T g., 5 L $X$X$X$X$X$X$X$X$X$X$X$X$X$X$X$X$X$X$X$X$X$X$X",
"$X$X$X$X$X$X$X$X$X$X$X$X$X$X$X$X$X$X$X$X$X$X$X$X$X$X$X$Xt.Y.Z.m.e.#._ B Y ^.=.@ $X$X$X$X$X$X$X$X$X$X$X$X$X$X$X$X$X$X$X$X$X$X$X$X",
"$X$X$X$X$X$X$X$X$X$X$X$X$X$X$X$X$X$X$X$X$X$X$X$XG.S.] $X .0.8.e.8.{ z p H j.b.m $X$X$X$X$X$X$X$X$X$X$X$X$X$X$X$X$X$X$X$X$X$X$X$X",
"$X$X$X$X$X$X$X$X$X$X$X$X$X$X$X$X$X$X$X$X$X$X$X_.XX#XD.Z h { e.a.s.e.o.J q %.b.*.$X$X$X$X$X$X$X$X5 +.+.$X$X$X$X$X$X$X$X$X$X$X$X$X",
"$X$X$X$X$X$X$X$X$X$X$X$X$X$X$X$X$X$X$X$X$X$XS.Q.l.[.#XJ.q.a.R.L.s.:.8...p U f.z.B $X$X$X$X$X$X$X$XL B G Y 0 -.$X$X$X$X$X$X$X$X$X",
"$X$X$X$X$X$X$X$X$X$X$X$X$X$X$X$X$X$X$X$X$XY.j.*.-.5.OX+X!.~.R.R.s.a.l.:.l F w &.H $X$X$X$X$X$X$X$X$XH =.T T =.$X$X$X$X$X$X$X$X$X",
"$X$X$X$X$X$X$X$X$X$X$X$X$X$X$X$X$X$X$X$XH r.B V B : 7..X@X@XR.s.s.!.D.a.o.k , D Y $X$X$X$X$X$X$X$X$X$XD L Y , $X$X$X$X$X$X$X$X$X",
"$X$X$X$X$X$X$X$X$X$X$X$X$X$X$X$X$X$X$XQ f.I U G L > g y././.a.n._.}.~.L.n.9.' d 7 $X$X$X$X$X$X$X$X$X$Xs C w 8 $X$X$X$X$X$X$X$X$X",
"$X$X$X$X$X$X$X$X$X$X$X$X$X$X$X$X$X$Xb = = = $ V } #.2.2.t.F.).OX@XoX].~.~.R.d.8.{ l l l $X$X$X$X$X$X$X$Xf G 6 $X$X$X$X$X$X$X$X$X",
"$X$X$X$X$X$X$X$X$X$X$X$X$X$X$X$X$X$X$X$X8 6.>.h.} i.Z.t.2.V.(.+X@X@X@X#X{.~.~.D.n.q.e.e.` 2 $X$X$X$X$X$Xf +.F $X$X$X$X$X$X$X$X$X",
"$X$X$X$X$X$X$X$X$X$X$X$X$X$X$X$X$X$X$X$X$XJ.#.+.0 h C.C.y.t.T.OX@X@X@X@X@X}.~.Q.R.n.a.e.9.X.2 $X$X$X$X$X$XK P.$X$X$X$X$X$X$X$X$X",
"$X$X$X$X$X$X$X$X$X$X$X$X$X$X$X$X$X$X$X$X$Xx.R M H $Xg 3.4.4.V./.OX@X@X@X@X@X{.~.W.J.n.a.w.q.` : $X$X$X$X$X$XE.k $X$X$X$X$X$X$X$X",
"$X$X$X$X$X$X$X$X$X$X$X$X$X$X$X$X$X$X$X$X$Xc.f.c $X$X$X> r u 2.A./.|.OX@X@XXX_.F.R.L.K.n.s.a...p . $X$X$X$X$XE...$X$X$X$X$X$X$X$X",
"$X$X$X$X$X$X$X$X$X$X$X$X$X$X$X$X$X$X$X$X$Xb - $X$X$X$X$X  o u 4.C.T./. X(.E.E.d.!.R.L.D.S.e.X.k > t $X$X$X$XY._ $X$X$X$X$X$X$X$X",
"$X$X$X$X$X$X$X$X$X$X$X$X$X$X$X$X$X$X$X$X$X$X$X$X$X$X$X$X$X$X$Xg 2.y.V.C.F.U.I.t.].W.G.m.a.8.X._ 2 ] J $X$X{ a.$X$X$X$X$X$X$X$X$X",
"$X$X$X$X$X$X$X$X$X$X$X$X$X$X$X$X$X$X$X$X$X$X$X$X$X$X$X$X$X$X$X$X< ( 1.4.u.V.i.3.[.#X~.s.o.q.:.a ; | H.e.8.:.a $X$X$X$X$X$X$X$X$X",
"$X$X$X$X$X$X$X$X$X$X$X$X$X$X$X$X$X$X$X$X$X$X$X$X$X$X$X$X$X$X$X$X$X; < r y z ( ( t..X#XK.z j p O $X$X$X$X$X$X$X$X$X$X$X$X$X$X$X$X",
"$X$X$X$X$X$X$X$X$X$X$X$X$X$X$X$X$X$X$X$X$X$X$X$X$X$X$X$X$X$X$X$X$X$X$X$XX y O.1.( 4./.`.n.1   $X$X$X$X$X$X$X$X$X$X$X$X$X$X$X$X$X",
"$X$X$X$X$X$X$X$X$X$X$X$X$X$X$X$X$X$X$X$X$X$X$X$X$X$X$X$X$X$X$X$X$X$X$X$X$X2.'.|.I.' ( T.#Xq.1 $X$X$X$X$X$X$X$X$X$X$X$X$X$X$X$X$X",
"$X$X$X$X$X$X$X$X$X$X$X$X$X$X$X$X$X$X$X$X$X$X$X$X$X$X$X$X$X$X$X$X$X$X$X$X$X) '.@X#Xa.t g C.].o.3 $X$X$X$X$X$X$X$X$X$X$X$X$X$X$X$X",
"$X$X$X$X$X$X$X$X$X$X$X$X$X$X$X$X$X$X$X$X$X$X$X$X$X$X$X$X$X$X$X$X$X$X$X$X$X$Xy.OX@X~.i ; ( ~.8.4 $X$X$X$X$X$X$X$X$X$X$X$X$X$X$X$X",
"$X$X$X$X$X$X$X$X$X$X$X$X$X$X$X$X$X$X$X$X$X$X$X$X$X$X$X$X$X$X$X$X$X$X$X$X$X$X< y..X}.X.. ' S.>.9 $X$X$X$X$X$X$X$X$X$X$X$X$X$X$X$X",
"$X$X$X$X$X$X$X$X$X$X$X$X$X$X$X$X$X$X$X$X$X$X$X$X$X$X$X$X$X$X$X$X$X$X$X$X$X) k _ 7.Z.K.l Z.L.N.&.$X$X$X$X$X$X$X$X$X$X$X$X$X$X$X$X",
"$X$X$X$X$X$X$X$X$X$X$X$X$X$X$X$X$X$X$X$X$X$X$X$X$X$X$X$X$X$X$X$X$X$X$Xb A k.k.k.Q.}.K.X.E.L.M.n O $X$X$X$X$X$X$X$X$X$X$X$X$X$X$X",
"$X$X$X$X$X$X$X$X$X$X$X$X$X$X$X$X$X$X$X$X$X$X$X$X$X$X$X$X$X$X$X$X$X$XM R P -.<.<.w.l.` 3 5.m.T w @ + $X$X$X$X$X$X$X$X$X$X$X$X$X$X",
"$X$X$X$X$X$X$X$X$X$X$X$X$X$X$X$X$X$X$X$X$X$X$X$X$X$X$X$X$X$X$X$X$Xm * * * q K D O $X$X$XN ^ P - $X$X$X$X$X$X$X$X$X$X$X$X$X$X$X$X",
"$X$X$X$X$X$X$X$X$X$X$X$X$X$X$X$X$X$X$X$X$X$X$X$X$X$X$X$X$X$X$X$X$X$X- * * e w f $X$X$X$X& x.m $X$X$X$X$X$X$X$X$X$X$X$X$X$X$X$X$X",
"$X$X$X$X$X$X$X$X$X$X$X$X$X$X$X$X$X$X$X$X$X$X$X$X$X$X$X$X$X$X$X$X$X$X$X$X$X$X5 @.$X$X$X$X= % c $X$X$X$X$X$X$X$X$X$X$X$X$X$X$X$X$X",
"$X$X$X$X$X$X$X$X$X$X$X$X$X$X$X$X$X$X$X$X$X$X$X$X$X$X$X$X$X$X$X$X$X$X$X$X$X$X$X$X$X$X$X$X$X$X$X$X$X$X$X$X$X$X$X$X$X$X$X$X$X$X$X$X",
"$X$X$X$X$X$X$X$X$X$X$X$X$X$X$X$X$X$X$X$X$X$X$X$X$X$X$X$X$X$X$X$X$X$X$X$X$X$X$X$X$X$X$X$X$X$X$X$X$X$X$X$X$X$X$X$X$X$X$X$X$X$X$X$X",
"$X$X$X$X$X$X$X$X$X$X$X$X$X$X$X$X$X$X$X$X$X$X$X$X$X$X$X$X$X$X$X$X$X$X$X$X$X$X$X$X$X$X$X$X$X$X$X$X$X$X$X$X$X$X$X$X$X$X$X$X$X$X$X$X",
"$X$X$X$X$X$X$X$X$X$X$X$X$X$X$X$X$X$X$X$X$X$X$X$X$X$X$X$X$X$X$X$X$X$X$X$X$X$X$X$X$X$X$X$X$X$X$X$X$X$X$X$X$X$X$X$X$X$X$X$X$X$X$X$X",
"$X$X$X$X$X$X$X$X$X$X$X$X$X$X$X$X$X$X$X$X$X$X$X$X$X$X$X$X$X$X$X$X$X$X$X$X$X$X$X$X$X$X$X$X$X$X$X$X$X$X$X$X$X$X$X$X$X$X$X$X$X$X$X$X",
"$X$X$X$X$X$X$X$X$X$X$X$X$X$X$X$X$X$X$X$X$X$X$X$X$X$X$X$X$X$X$X$X$X$X$X$X$X$X$X$X$X$X$X$X$X$X$X$X$X$X$X$X$X$X$X$X$X$X$X$X$X$X$X$X",
"$X$X$X$X$X$X$X$X$X$X$X$X$X$X$X$X$X$X$X$X$X$X$X$X$X$X$X$X$X$X$X$X$X$X$X$X$X$X$X$X$X$X$X$X$X$X$X$X$X$X$X$X$X$X$X$X$X$X$X$X$X$X$X$X",
"$X$X$X$X$X$X$X$X$X$X$X$X$X$X$X$X$X$X$X$X$X$X$X$X$X$X$X$X$X$X$X$X$X$X$X$X$X$X$X$X$X$X$X$X$X$X$X$X$X$X$X$X$X$X$X$X$X$X$X$X$X$X$X$X",
"$X$X$X$X$X$X$X$X$X$X$X$X$X$X$X$X$X$X$X$X$X$X$X$X$X$X$X$X$X$X$X$X$X$X$X$X$X$X$X$X$X$X$X$X$X$X$X$X$X$X$X$X$X$X$X$X$X$X$X$X$X$X$X$X"
};
