/* XPM */
static char *result[] = {
/* columns rows colors chars-per-pixel */
"64 64 209 2 ",
"   c #18150E",
".  c #1A191B",
"X  c #241D12",
"o  c #332619",
"O  c #282114",
"+  c #1B1921",
"@  c #262422",
"#  c #2B2A2A",
"$  c #292723",
"%  c #3C342B",
"&  c #37312A",
"*  c #2B2A37",
"=  c #343332",
"-  c #3A3532",
";  c #3D3936",
":  c #333238",
">  c #3C3A3A",
",  c #372F24",
"<  c #483B29",
"1  c #433D37",
"2  c #4C4334",
"3  c #49433B",
"4  c #554C39",
"5  c #5A513D",
"6  c #5D4527",
"7  c #6A5739",
"8  c #725C3F",
"9  c #7B603F",
"0  c #3A3946",
"q  c #424145",
"w  c #4B4946",
"e  c #44434C",
"r  c #4A4845",
"t  c #514943",
"y  c #5B554A",
"u  c #474654",
"i  c #524F56",
"p  c #545352",
"a  c #5A5859",
"s  c #61594A",
"d  c #665B45",
"f  c #615D5D",
"g  c #665F50",
"h  c #6B614A",
"j  c #7A6447",
"k  c #6D6451",
"l  c #6A645D",
"z  c #786C54",
"x  c #7E725A",
"c  c #797057",
"v  c #5D5C6D",
"b  c #595864",
"n  c #625E6B",
"m  c #656362",
"M  c #686564",
"N  c #6C6967",
"B  c #6D6B6A",
"V  c #6A656D",
"C  c #706E69",
"Z  c #7A6F6C",
"A  c #7D7465",
"S  c #6D6B7C",
"D  c #6C6B74",
"F  c #706C7C",
"G  c #767372",
"H  c #7E7A77",
"J  c #7C7A78",
"K  c #787372",
"L  c #AC7D34",
"P  c #927A4D",
"I  c #83775F",
"U  c #967D59",
"Y  c #896940",
"T  c #827761",
"R  c #847962",
"E  c #897D69",
"W  c #867F76",
"Q  c #AF8237",
"!  c #BA9557",
"~  c #AB8851",
"^  c #92866B",
"/  c #988869",
"(  c #878279",
")  c #9B8E73",
"_  c #948871",
"`  c #9E9275",
"'  c #9E937A",
"]  c #8E8367",
"[  c #AD9E7E",
"{  c #A59778",
"}  c #A6906A",
"|  c #BCA677",
" . c #C8A45F",
".. c #D7B76A",
"X. c #C7AD73",
"o. c #DFBF73",
"O. c #C5A469",
"+. c #7A7888",
"@. c #807D88",
"#. c #858481",
"$. c #898583",
"%. c #8B8983",
"&. c #88868A",
"*. c #8E8C8B",
"=. c #918D8B",
"-. c #938983",
";. c #94918D",
":. c #9B958C",
">. c #8C8A97",
",. c #938E9A",
"<. c #969392",
"1. c #9A9694",
"2. c #9E9B95",
"3. c #9D9B99",
"4. c #A69B89",
"5. c #A09D9C",
"6. c #AFA283",
"7. c #A8A18B",
"8. c #B4A584",
"9. c #B2A68B",
"0. c #B9AB8B",
"q. c #B6A98B",
"w. c #A3A19D",
"e. c #ACA392",
"r. c #B8AD93",
"t. c #BCB296",
"y. c #9F9BA4",
"u. c #9895A6",
"i. c #A39DA9",
"p. c #A6A2A1",
"a. c #AAA5A3",
"s. c #ADA9A5",
"d. c #AEAAAA",
"f. c #A8A5A8",
"g. c #B4ADAA",
"h. c #B0A6A7",
"j. c #B6B2AD",
"k. c #AAA7B7",
"l. c #ACAAB4",
"z. c #A9A5B5",
"x. c #B2AEB6",
"c. c #B2ADBC",
"v. c #B6B2B2",
"b. c #BAB5B4",
"n. c #BDBAB6",
"m. c #BAB5BC",
"M. c #C7BA94",
"N. c #CDBD8A",
"B. c #C7BBA4",
"V. c #C0BBB7",
"C. c #C2BEBB",
"Z. c #C9BCBF",
"A. c #DEC08F",
"S. c #E4D29E",
"D. c #E9D28B",
"F. c #DBCCA6",
"G. c #D0C3A7",
"H. c #C5C1BD",
"J. c #C8C3BF",
"K. c #E0CEA7",
"L. c #E8D4A6",
"P. c #EBDEB8",
"I. c #ECE0B3",
"U. c #B6B3C3",
"Y. c #BCB7C6",
"T. c #C0BED1",
"R. c #C0BCC9",
"E. c #CAC5C4",
"W. c #CECBC6",
"Q. c #CDCACB",
"!. c #C7C2CA",
"~. c #D1CCCA",
"^. c #D8CFC5",
"/. c #D6D2CD",
"(. c #D9D3CF",
"). c #D9D1C2",
"_. c #CBC8D5",
"`. c #D3CED6",
"'. c #D6D1D2",
"]. c #DAD5D3",
"[. c #DDD9D5",
"{. c #DED8DD",
"}. c #E1DCD6",
"|. c #E2DDDA",
" X c #E9DCC2",
".X c #E6E2DD",
"XX c #E9E4DA",
"oX c #FCF0C4",
"OX c #D6D3E0",
"+X c #DAD4E3",
"@X c #DFDAE1",
"#X c #E1DEE2",
"$X c #E3DDEB",
"%X c #E6E3E6",
"&X c #EAE5E4",
"*X c #EDE9E5",
"=X c #E9E4EE",
"-X c #EEEAEA",
";X c #E5E0EE",
":X c #F3EDEC",
">X c #F1EBE6",
",X c #F4F2EF",
"<X c #EEEAF3",
"1X c #F2ECF4",
"2X c #F6F3F3",
"3X c #F9F6F3",
"4X c #FDFDFD",
"5X c #F9F5FA",
"6X c None",
/* pixels */
"6X6X6X6X6X6X6X6X6X6X6X6X6X6X6X6X6X6X6X6X6X6X6X6X6X6X6X6X6X6X6X6X6X6X6X6X6X6X6X6X6X6X6X6X6X6X6X6X6X6X6X6X6X6X6X6X6X6X6X6X6X6X6X6X",
"6X6X6X6X6X6X6X6X6X6X6X6X6X6X6X6X6X6X6X6X6X6X6X6X6X6X6X6X6X6X6X6X6X6X6X6X6X6X6X6X6X6X6X6X6X6X6X6X6X6X6X6X6X6X6X6X6X6X6X6X6X6X6X6X",
"6X6X6X6X6X6X6X6X6X6X6X6X6X6X6X6X6X6X6X6X6X6X6X6X6X6X6X6X6X6X6X6X6X6X6X6X6X6X6X6X6X6X6X6X6X6X6X6X6X6X6X6X6X6X6X6X6X6X6X6X6X6X6X6X",
"6X6X6X6X6X6X6X6X6X6X6X6X6X6X6X6X6X6X6X6X6X6X6X6X6X6X6X6X6X6X6X6X6X6X6X6X6X6X6X6X6X6X6X6X6X6X6X6X6X6X6X6X6X6X6X6X6X6X6X6X6X6X6X6X",
"6X6X6X6X6X6X6X6X6X6X6X6X6X6X6X6X6X6X6X6X6X6X6X6X6X6X6X6X6X6X6X6X6X6X6X6X6X6X6X6X6X6X6X6X6X6X6X6X6X6X6X6X6X6X6X6X6X6X6X6X6X6X6X6X",
"6X6X6X6X6X6X6X6X6X6X6X6X6X6X6X6X6X6X6X6X6X6X6X6X6X6X6X6X6X6X6X6X6X6X6X6X6X6X6X6X6X6X6X6X6X6X6X6X6X6X6X6X6X6X6X6X6X6X6X6X6X6X6X6X",
"6X6X6X6X6X6X6X6X6X6X6X6X6X6X6X6X6X6X6X6X6X6X6X6X6X6X6X6X6X6X6X6X6X6X6X6X6X6X6X6X6X6X6X6X6X6X6X6X6X6X6X6X6X6X6X6X6X6X6X6X6X6X6X6X",
"6X6X6X6X6X6X6X6X6X6X6X6X6X6X6X6X6X6X6X6X6X6X6X6X6X6X6X6X6X6X6X6X6X6X6X6X6X6X6X6X6X6X6X6X6X6X6X6X6X6X6X6X6X6X6X6X6X6X6X6X6X6X6X6X",
"6X6X6X6X6X6X6X6X6X6X6X6X6X6X6X6X6X6X6X6X6X6X6X6X6X6X6X6X6X6X6X6X6X6X6X6X6X6X6X6X6X6X6X6X6X6X6X6X6X6X6X6X6X6X6X6X6X6X6X6X6X6X6X6X",
"6X6X6X6X6X6X6X6X6X6X6X6X6X6X6X6X6X6X6X6X6X6X6X6X6X6X6X6X6X6X6X6X6X6X6X6X6X6X6X6X6X6X6X6X6X6Xo.6X6X6X6X6X6X6X6X6X6X6X6X6X6X6X6X6X",
"6X6X6X6X6X6X6X6X6X6X6X6X6X6X6X6X6X6X6X6X6X6X6X6X6X6X6X6X6X6X6X6X6X6X6X6X6X6X6X6X6X6X6X6X6XoX6X6X6X6X6X6X6X6X6X6X6X6X6X6X6X6X6X6X",
"6X6X6X6X6X6X6X6X6X6X6X6X6X6X6X6X6X6X6X6X6X6X6X6X6X6X6X6X6X6X6X6X6X6X6X6X6X6X6X6X6X6X6X6X6Xo.6X6X6X6X6X6X6X6X6X6X6X6X6X6X6X6X6X6X",
"6X6X6X6X6X6X6X6X6X6X6X6X6X6X6X6X6X6X6X6X6X6X6X6X6X6X6X6X6X6X6X6X6X6X6X6X6X6X6X6X6X6X6X6XL.! 6X6X6X6X6X6X6X6X6X6X6X6X6X6X6X6X6X6X",
"6X6X6X6X6X6X6X6X6X6X6X6X6X6X6X6X6X6X6X6X6X6X6X6X6X6X6X6X6X6X6X6X6X6X6X6X6X6X6X6X6X6X6X6XD.6X6X6X6X6X6X6X6X6X6X6X6X6X6X6X6X6X6X6X",
"6X6X6X6X6X6X6X6X6X6X6X6X6X6X6X6X6X6X6X6X6X6X6X6X6X6X6X6X6X6X6X6X6X6X6X6X6X6X6X6X6X6X6XL  .6X6X6X6X6X6X6X6X6X6X6X6X6X6X6X6X6X6X6X",
"6X6X6X6X6X6X6X6X6X6X6X6X6X6X6X6X6X6X6X6X6X6X6X6X6X6X6X6X6X6X6X6X6X6X6X6X6X6X6X6X6X6XA...6X6X6X6X6X6X6X6X6X6X6X6X6X6X6X6X6X6X6X6X",
"6X6X6X6X6X6X6X6X6X6X6X6X6X6X6X6X6X6X6X6X6X6X6X6X6X6X6X6X6X6X6X6X6X6X6X6X6X6X6X6X6X6XQ ~ 6X6X6X6X6X6X6X6X6X6X6X6X6X6X6X6X6X6X6X6X",
"6X6X6X6X6X6X6X6X6X6X6X6X6X6X6X6X6X6X6X6X6X6X6X6X6X6X6X6X6X6X6X6X6X6X6X6X6X[ y 6X6X XO.6X6X6X6X6X6X6X6X6X6X6X6X6X6X6X6X6X6X6X6X6X",
"6X6X6X6X6X6X6X6X6X6X6X6X6X6X6X6X6X6X6X6X6X6X6X6X6X6X6X6X6X6X6X6X6X6X6X2 { [ T ) M.U X.6X6X6X6X6X6X6X6X6X6X6X6X6X6X6X6X6X6X6X6X6X",
"6X6X6X6X6X6X6X6X6X6X6X6X6X6X6X6X6X6X6X6X6X6X6X6X6X6X6X6X6X6X6X6X6Xz , / 4.4.M.8.M.G./ 1 6X6X6X6X6X6X6X6X6X6X6X6X6X6X6X6X6X6X6X6X",
"6X6X6X6X6X6X6X6X6X6X6X6X6X6X6X6X6X6X6X6X6X6X6X6X6X6X6X6X6X6X6X6X, 2 ] [ ) i.g.8.^ 6.r.E 6X6X6X6X6X6X6X6X6X6X6X6X6X6X6X6X6X6X6X6X",
"6X6X6X6X6X6X6X6X6X6X6X6X6X6X6X6X6X6X6X6X6X6X6X6X6X6X6X6X6X6X6X6X2 / ' ^ | g.R.9.p.l y 6.6X6X6X6X6X6X6X6X6X6X6X6X6X6X6X6X6X6X6X6X",
"6X6X6X6X6X6X6X6X6X6X6X6X6X6X6X6X6X6X6X6X6X6X6X6X6X6X6X6X6X6X6X4 d x M.{ ` :.v.b.E.g.V c 6X6X6X6X6X6X6X6X6X6X6X6X6X6X6X6X6X6X6X6X",
"6X6X6X6X6X6X6X6X6X6X6X6X6X6X6X6X6X6X6X6X6X6X6X6X6X6X6X6X6X6X  z r.' ^ F.%.b.g.p.*._.m.6X6X6X6X6X6X6X6X6X6X6X6X6X6X6X6X6X6X6X6X6X",
"6X6X6X6X6X6X6X6X6X6X6X6X6X6X6X6X6X6X6X6X6X6X6X6X6X6X6X6X6XO 5 k 8.K.6.:.b.b.w.b.3.=X3XE.B 6X6X6X6X6X6X6X6X6X6X6X6X6X6X6X6X6X6X6X",
"6X6X6X6X6X6X6X6X6X6X6X6X6X6X6X6X6X6X6X6X6X6X6X6X6X6X6X6X6X< k ` 9.r.t.<.~.W.*.s.'.&X.X2X].,.6X6X6X6X6X6X6X6X6X6X6X6X6X6X6X6X6X6X",
"6X6X6X6X6X6X6X6X6X6X6X6X6X6X6X6X6X6X6X6X6X6X6X6X6X6X6X6X% r % I E l %.2.[.2XC.&.&.3.v.R.g.i.6X6X6X6X6X6X6X6X6X6X6X6X6X6X6X6X6X6X",
"6X6X6X6X6X6X6X6X6X6X6X6X6X6X6X6X6X6X6X6X6X6X6X6X6X6X6X6X6Xo 5 I A { ;.2..X4X4X'.n t W _ i.>.6X6X6X6X6X6X6X6X6X6X6X6X6X6X6X6X6X6X",
"6X6X6X6X6X6X6X6X6X6X6X6X6X6X6X6X6X6X6X6X6X6X6X6X6X6X6X6Xx 8.y ) q.A 2.w..X4X4X=X>.2 { ( Z 6X6X6X6X6X6X6X6X6X6X6X6X6X6X6X6X6X6X6X",
"6X6X6X6X6X6X6X6X6X6X6X6X6X6X6X6X6X6X#.%.1.n.6X6X6X6X6X6Xh R R { _ <.5.b.}.*X4X<Xi.6X3 s 6X6X6X6X6X6X6X6X6X6X6X6X6X6X6X6X6X6X6X6X",
"6X6X6X6X6X6X6X6X6X6X6X6X6X6X6X6X6Xa J <.*.1.( J G B f ; % @ T ` H g.n.Z.&X*X4X1Xl.6Xo t ) 6X6X6X6X6X6X6X6X6X6X6X6X6X6X6X6X6X6X6X",
"6X6X6X6X6X6X6X6X6X6X6X6X6X6X6X6X3 =.J J 2.n.H.E.E.v.w.=.#.$.=.<.;.E.[.W..X-X5X5XU.6X6X6X6X6X6X6X6X6X6X6X6X6X6X6X6X6X6X6X6X6X6X6X",
"6X6X6X6X6X6X6X6X6X6X6X6X6X6X6X6XN Z H v.H.[.[.*X:X}.W.J.H.H.H.p.w.C.[.*X:X3X4X1XU.6X6X6X6X6X6X6X6X6X6X6X6X6X6X6X6X6X6X6X6X6X6X6X",
"6X6X6X6X6X6X6X6X6X6X6X6X6X6X6X6XM a 5.~.W..X&X&X*X}./.(.]./.(.C.j.g.W.5X4X4X<X;XU.v 6X6X6X6X6X6X6X6X6X6X6X6X6X6X6X6X6X6X6X6X6X6X",
"6X6X6X6X6X6X6X6X6X6X6X6X6X6X6X= p M a.[.W.}.*XW./.].[.].[.}.|./.s.H./.[.4X4X$X+XY.+.6X6X6X6X6X6X6X6X6X6X6X6X6X6X6X6X6X6X6X6X6X6X",
"6X6X6X6X6X6X6X6X6X6X6X6X6X6X6X= r N s.(.W.*X2XC.J.W.(.(..X>XXX.X2.d.:X.X5X4X2X{.T.+.6X6X6X6X6X6X6X6X6X6X6X6X6X6X6X6X6X6X6X6X6X6X",
"6X6X6X6X6X6X6X6X6X6X6X6X6X6X6X# 1 m d.H.Q.:X,Xn.s.V.W.W..X-X&X|.w.#..X5X2X4X5X{.U.+.6X6X6X6X6X6X6X6X6X6X6X6X6X6X6X6X6X6X6X6X6X6X",
"6X6X6X6X6X6X6X6X6X6X6X6X6X6X6X# q p p.v.'.-X#XE.1.w.b.n.~.'.[./.d.B j.-X.X4X1X_.u.S 6X6X6X6X6X6X6X6X6X6X6X6X6X6X6X6X6X6X6X6X6X6X",
"6X6X6X6X6X6X6X6X6X6X6X6X6X6X6X# e w *.s.].-X{.E.#.$.w.w.n.H.].Q.3.l p.}.-X#X+Xk.+.b 6X6X6X6X6X6X6X6X6X6X6X6X6X6X6X6X6X6X6X6X6X6X",
"6X6X6X6X6X6X6X6X6X6X6X6X6X6X6X$ 0 q J 3.W.-X#XE.J a W 1.s.v.m.E.<.p *.E.:X;Xk.+.S 6X6X6X6X6X6X6X6X6X6X6X6X6X6X6X6X6X6X6X6X6X6X6X",
"6X6X6X6X6X6X6X6X6X6X6X6X6X6X6X. e > m 5.H.{.@Xl.i = r m +.<.i.y.+.q a j.'.+XF +.,.6X6X6X6X6X6X6X6X6X6X6X6X6X6X6X6X6X6X6X6X6X6X6X",
"6X6X6X6X6X6X6X6X6X6X6X6X6X6X6X6Xe > <.5.H.{.!.n : *   # q i n b u * > 1.m.Y.D U.,.6X6X6X6X6X6X6X6X6X6X6X6X6X6X6X6X6X6X6X6X6X6X6X",
"6X6X6X6X6X6X6X6X6X6X6X6X6X6X6X5 s p :.p.n.x.b 0 0 6X6X6X6X. + 6X6X6X# 3.v.y.x.1X,.6X6X6X6X6X6X6X6X6X6X6X6X6X6X6X6X6X6X6X6X6X6X6X",
"6X6X6X6X6X6X6X6X6X6X6X6X6X6X6Xy N G %.*.D e S v 6X6X6X6X6X6X6X6X6X6Xq s.'.z.'.5X,.6X6X6X6X6X6X6X6X6X6X6X6X6X6X6X6X6X6X6X6X6X6X6X",
"6X6X6X6X6X6X6X6X6X6X6X6X6X6X6XH 2.a.&.u # >.z.6X6X6X6X6X6X6X6X6X6X6X- j.1XY.E.$X>.6X6X6X6X6X6X6X6X6X6X6X6X6X6X6X6X6X6X6X6X6X6X6X",
"6X6X6X6X6X6X6X6X6X6X6X6X6X6X6XK ~.x.p 6X= x.@Xl.6X6X6X6X6X6X6X6X6X6X: 5.&Xx.f._.i.6X6X6X6X6X6X6X6X6X6X6X6X6X6X6X6X6X6X6X6X6X6X6X",
"6X6X6X6X6X6X6X6X6X6X6X6X6X6X6XB ~.R.3 6X# 3.<X@X6X6X6X6X6X6X6X6X6X6X@ m E.f.=.#Xk.6X6X6X6X6X6X6X6X6X6X6X6X6X6X6X6X6X6X6X6X6X6X6X",
"6X6X6X6X6X6X6X6X6X6X6X6X6X6XX C '._.k 6X6XJ {.5Xm.6X6X6X6X6X6X6X6X6Xk 9.C.v.4.<XY.6X6X6X6X6X6X6X6X6X6X6X6X6X6X6X6X6X6X6X6X6X6X6X",
"6X6X6X6X6X6X6X6X6X6X6X6X6X6X4 4.(.{.( 6X6X' V.2X=X@.6X6X6X6X6X6X6X_ [ B.V.b.9.-X{.6X6X6X6X6X6X6X6X6X6X6X6X6X6X6X6X6X6X6X6X6X6X6X",
"6X6X6X6X6X6X6X6X6X6X6X6X6X6Xd 8.^.<X+.6X6X0.r.^.2Xl.6X6X6X6X6X6X6XI K.I.).`.4.E.<Xl.6X6X6X6X6X6X6X6X6X6X6X6X6X6X6X6X6X6X6X6X6X6X",
"6X6X6X6X6X6X6X6X6X6X6X6X6X6Xh ' 1.:Xi.6Xo 1 1 B.#XB.X.6X6X6X6X6X6Xd F.K.G.#X4.9.}.M.~ 6X6X6X6X6X6X6X6X6X6X6X6X6X6X6X6X6X6X6X6X6X",
"6X6X6X6X6X6X6X6X6X6X6X6X6Xy c 9.r.m.Q.6X< 2 % / | I.D.6 6X6X6X6X6X< T E T [.j.I N.oXX.< 6X6X6X6X6X6X6X6X6X6X6X6X6X6X6X6X6X6X6X6X",
"6X6X6X6X6X6X6X6X6X6X6X6X6X, 3 k [ U { ! 6X6X6X7 P N.| k 6X6X6X6X6X6X- $ j 4.8.Y 7 } / 6X6X6X6X6X6X6X6X6X6X6X6X6X6X6X6X6X6X6X6X6X",
"6X6X6X6X6X6X6X6X6X6X6X6X6X6X^ 6X8 P S.S.7 6X6X6X6X6X6X6X6X6X6X6X6X6X6X6X8 X.P.} 6X6X6X6X6X6X6X6X6X6X6X6X6X6X6X6X6X6X6X6X6X6X6X6X",
"6X6X6X6X6X6X6X6X6X6X6X6X6X6X6X6X6X6X6X6X6X6X6X6X6X6X6X6X6X6X6X6X6X6X6X6X6X6X8 j 6X6X6X6X6X6X6X6X6X6X6X6X6X6X6X6X6X6X6X6X6X6X6X6X",
"6X6X6X6X6X6X6X6X6X6X6X6X6X6X6X6X6X6X6X6X6X6X6X6X6X6X6X6X6X6X6X6X6X6X6X6X6X6X6X6X6X6X6X6X6X6X6X6X6X6X6X6X6X6X6X6X6X6X6X6X6X6X6X6X",
"6X6X6X6X6X6X6X6X6X6X6X6X6X6X6X6X6X6X6X6X6X6X6X6X6X6X6X6X6X6X6X6X6X6X6X6X6X6X6X6X6X6X6X6X6X6X6X6X6X6X6X6X6X6X6X6X6X6X6X6X6X6X6X6X",
"6X6X6X6X6X6X6X6X6X6X6X6X6X6X6X6X6X6X6X6X6X6X6X6X6X6X6X6X6X6X6X6X6X6X6X6X6X6X6X6X6X6X6X6X6X6X6X6X6X6X6X6X6X6X6X6X6X6X6X6X6X6X6X6X",
"6X6X6X6X6X6X6X6X6X6X6X6X6X6X6X6X6X6X6X6X6X6X6X6X6X6X6X6X6X6X6X6X6X6X6X6X6X6X6X6X6X6X6X6X6X6X6X6X6X6X6X6X6X6X6X6X6X6X6X6X6X6X6X6X",
"6X6X6X6X6X6X6X6X6X6X6X6X6X6X6X6X6X6X6X6X6X6X6X6X6X6X6X6X6X6X6X6X6X6X6X6X6X6X6X6X6X6X6X6X6X6X6X6X6X6X6X6X6X6X6X6X6X6X6X6X6X6X6X6X",
"6X6X6X6X6X6X6X6X6X6X6X6X6X6X6X6X6X6X6X6X6X6X6X6X6X6X6X6X6X6X6X6X6X6X6X6X6X6X6X6X6X6X6X6X6X6X6X6X6X6X6X6X6X6X6X6X6X6X6X6X6X6X6X6X",
"6X6X6X6X6X6X6X6X6X6X6X6X6X6X6X6X6X6X6X6X6X6X6X6X6X6X6X6X6X6X6X6X6X6X6X6X6X6X6X6X6X6X6X6X6X6X6X6X6X6X6X6X6X6X6X6X6X6X6X6X6X6X6X6X",
"6X6X6X6X6X6X6X6X6X6X6X6X6X6X6X6X6X6X6X6X6X6X6X6X6X6X6X6X6X6X6X6X6X6X6X6X6X6X6X6X6X6X6X6X6X6X6X6X6X6X6X6X6X6X6X6X6X6X6X6X6X6X6X6X",
"6X6X6X6X6X6X6X6X6X6X6X6X6X6X6X6X6X6X6X6X6X6X6X6X6X6X6X6X6X6X6X6X6X6X6X6X6X6X6X6X6X6X6X6X6X6X6X6X6X6X6X6X6X6X6X6X6X6X6X6X6X6X6X6X"
};
