/* XPM */
static char *result[] = {
/* columns rows colors chars-per-pixel */
"64 64 206 2 ",
"   c #151312",
".  c #181820",
"X  c #23212E",
"o  c #282824",
"O  c #322B26",
"+  c #2A2931",
"@  c #353436",
"#  c #443C2D",
"$  c #5A472A",
"%  c #5D4524",
"&  c #4B4436",
"*  c #5B4C33",
"=  c #554834",
"-  c #634E32",
";  c #685437",
":  c #735A34",
">  c #705432",
",  c #664824",
"<  c #3C3B48",
"1  c #4A4848",
"2  c #524C42",
"3  c #56514C",
"4  c #585657",
"5  c #655B45",
"6  c #695D48",
"7  c #665E51",
"8  c #645B59",
"9  c #71644C",
"0  c #7C6A48",
"q  c #6C6559",
"w  c #67635B",
"e  c #746C5C",
"r  c #7A6E5A",
"t  c #786D55",
"y  c #5A5767",
"u  c #615E6E",
"i  c #6D6A6B",
"p  c #666468",
"a  c #726C67",
"s  c #6B6778",
"d  c #716F70",
"f  c #757375",
"g  c #7B7977",
"h  c #7E7B7C",
"j  c #797679",
"k  c #787165",
"l  c #815929",
"z  c #A0743A",
"x  c #B37F35",
"c  c #806F4F",
"v  c #917048",
"b  c #806E51",
"n  c #81745D",
"m  c #84795F",
"M  c #8B7555",
"N  c #967C56",
"B  c #867C66",
"V  c #827E7C",
"C  c #C59139",
"Z  c #9B8457",
"A  c #AE8C50",
"S  c #BE9E58",
"D  c #8F856A",
"F  c #8B8066",
"G  c #9D8565",
"H  c #94896C",
"J  c #94876F",
"K  c #85817F",
"L  c #8B8376",
"P  c #928671",
"I  c #948973",
"U  c #948B79",
"Y  c #988874",
"T  c #9C927A",
"R  c #9E9075",
"E  c #B19A6E",
"W  c #B39C62",
"Q  c #A2977A",
"!  c #A6987A",
"~  c #A39677",
"^  c #A38862",
"/  c #B8AA7B",
"(  c #CD9C4D",
")  c #D2B06B",
"_  c #726F81",
"`  c #747384",
"'  c #797684",
"]  c #7D7A84",
"[  c #7D7B8A",
"{  c #817E8F",
"}  c #868381",
"|  c #8A8683",
" . c #8C8A86",
".. c #8C8889",
"X. c #918E8D",
"o. c #978E81",
"O. c #9B948A",
"+. c #979289",
"@. c #828192",
"#. c #8C899B",
"$. c #898691",
"%. c #969391",
"&. c #9B9693",
"*. c #9F9C9D",
"=. c #9B9896",
"-. c #A99E8A",
";. c #A99F81",
":. c #A39E9A",
">. c #ACA181",
",. c #B3A584",
"<. c #B4A98A",
"1. c #BAAD8D",
"2. c #B4A587",
"3. c #A6A29F",
"4. c #ABA39D",
"5. c #B6A893",
"6. c #BDB192",
"7. c #BDB198",
"8. c #9593A5",
"9. c #9B98A4",
"0. c #9F9CAC",
"q. c #A19DAC",
"w. c #A19FB0",
"e. c #A5A2A2",
"r. c #A9A4A4",
"t. c #ACA9A5",
"y. c #A8A6AB",
"u. c #B1AEA6",
"i. c #B2ACAA",
"p. c #B6B1AF",
"a. c #BDB4A4",
"s. c #A7A5B6",
"d. c #ADAABA",
"f. c #ABA8B6",
"g. c #B1AEBF",
"h. c #B1AEB5",
"j. c #B9B6B2",
"k. c #BEBAB6",
"l. c #BAB6B9",
"z. c #C0AE8B",
"x. c #C2B18D",
"c. c #C6B896",
"v. c #C6BBA6",
"b. c #C2BEBA",
"n. c #CDC09B",
"m. c #D5C599",
"M. c #EAD58A",
"N. c #D1C3A3",
"B. c #D1C7A9",
"V. c #C4C2BC",
"C. c #CDC7BC",
"Z. c #DDD1B6",
"A. c #D5CEB6",
"S. c #E0D2AA",
"D. c #E5CEB3",
"F. c #E9DCB5",
"G. c #F0D7A3",
"H. c #B2AFC0",
"J. c #B5B2C2",
"K. c #B9B5C3",
"L. c #BCB9CA",
"P. c #B7B5C8",
"I. c #C1BEC6",
"U. c #C4BFC9",
"Y. c #C7C2C5",
"T. c #CAC5C3",
"R. c #CECBC9",
"E. c #C9C5CA",
"W. c #D2CDCA",
"Q. c #D1C8C7",
"!. c #D5D1CD",
"~. c #DAD4CF",
"^. c #C4C1D2",
"/. c #CDC9D2",
"(. c #CDC9D9",
"). c #CAC7DA",
"_. c #D4CED2",
"`. c #D2CEDB",
"'. c #DBD5D4",
"]. c #DBD6DF",
"[. c #DAD7DA",
"{. c #EEDEC0",
"}. c #E2DDDB",
"|. c #F3EFD0",
" X c #F1EAD3",
".X c #DAD5E5",
"XX c #DDD9E5",
"oX c #D7D5E0",
"OX c #E3DEE5",
"+X c #E2DEEA",
"@X c #E6E3E2",
"#X c #EBE6E4",
"$X c #E6E3EC",
"%X c #EBE6EA",
"&X c #EEEAEB",
"*X c #F4EEEE",
"=X c #ECE6F4",
"-X c #EBE7F1",
";X c #F1EFF4",
":X c #F3EFF8",
">X c #F5F3F3",
",X c #F5F1F9",
"<X c #F9F6FA",
"1X c #FEFCFE",
"2X c #F9F5F5",
"3X c None",
/* pixels */
"3X3X3X3X3X3X3X3X3X3X3X3X3X3X3X3X3X3X3X3X3X3X3X3X3X3X3X3X3X3X3X3X3X3X3X3X3X3X3X3X3X3X3X3X3X3X3X3X3X3X3X3X3X3X3X3X3X3X3X3X3X3X3X3X",
"3X3X3X3X3X3X3X3X3X3X3X3X3X3X3X3X3X3X3X3X3X3X3X3X3X3X3X3X3X3X3X3X3X3X3X3X3X3X3X3X3X3X3X3X3X3X3X3X3X3X3X3X3X3X3X3X3X3X3X3X3X3X3X3X",
"3X3X3X3X3X3X3X3X3X3X3X3X3X3X3X3X3X3X3X3X3X3X3X3X3X3X3X3X3X3X3X3X3X3X3X3X3X3X3X3X3X3X3X3X3X3X3X3X3X3X3X3X3X3X3X3X3X3X3X3X3X3X3X3X",
"3X3X3X3X3X3X3X3X3X3X3X3X3X3X3X3X3X3X3X3X3X3X3X3X3X3X3X3X3X3X3X3X3X3X3X3X3X3X3X3X3X3X3X3X3X3X3X3X3X3X3X3X3X3X3X3X3X3X3X3X3X3X3X3X",
"3X3X3X3X3X3X3X3X3X3X3X3X3X3X3X3X3X3X3X3X3X3X3X3X3X3X3X3X3X3X3X3X3X3X3X3X3X3X3X3X3X3X3X3X3X3X3X3X3X3X3X3X3X3X3X3X3X3X3X3X3X3X3X3X",
"3X3X3X3X3X3X3X3X3X3X3X3X3X3X3X3X3X3X3X3X3X3X3X3X3X3X3X3X3X3X3X3X3X3X3X3X3X3X3X3X3X3X3X3X3X3X3X3X3X3X3X3X3X3X3X3X3X3X3X3X3X3X3X3X",
"3X3X3X3X3X3X3X3X3X3X3X3X3X3X3X3X3X3X3X3X3X3X3X3X3X3X3X3X3X3X3X3X3X3X3X3X3X3X3X3X3X3X3X3X3X3X3X3X3X3X3X3X3X3X3X3X3X3X3X3X3X3X3X3X",
"3X3X3X3X3X3X3X3X3X3X3X3X3X3X3X3X3X3X3X3X3X3X3X3X3X3X3X3X3X3X3X3X3X3X3X3X3X3X3X3X3X3X3X3X3X3X3X3X3X3X3X3X3X3X3X3X3X3X3X3X3X3X3X3X",
"3X3X3X3X3X3X3X3X3X3X3X3X3X3X3X3X3X3X3X3X3X3X3X3X3X3X3X3X3X3X3X3X3X3X3X3X3X3X3X3X3X3X3X3X3X3X3X3X3X3X3X3X3X3X3X3X3X3X3X3X3X3X3X3X",
"3X3X3X3X3X3X3X3X3X3X3X3X3X3X3X3X3X3X3X3X3X3X3X3X3X3X3X3X3X3X3X3X3X3X3X3X3X3X3X3X3X3X3X3X3X3X3X3X3X3X3X3X3X3X3X3X3X3X3X3X3X3X3X3X",
"3X3X3X3X3X3X3X3X3X3X3X3X3X3X3X3X3X3X3X3X3X3X3X3X3X3X3X3X3X3X3X3X3X3X3X3X3X3X3X3X3X3X3X3X3X3X3X3X3X3X3X3X3X3X3X3X3X3X3X3X3X3X3X3X",
"3X3X3X3X3X3X3X3X3X3X3X3X3X3X3X3X3X3X3X3X3X3X3X3X3X3X3X3X3X3X3X3X3X3X3X3X3X3X3X3X3X3X3X3X3X3X3X3X3X3X3X3X3X3X3X3X3X3X3X3X3X3X3X3X",
"3X3X3X3X3X3X3X3X3X3X3X3X3X3X3X3X3X3X3X3X3X3X3X3X3X3X3X3X3X3X3X3X3X3X3X3X3X3X3X3X3X3X3X3X3X3X3X3X3X3X3X3X3X3X3X3X3X3X3X3X3X3X3X3X",
"3X3X3X3X3X3X3X3X3X3X3X3X3X3X3X3X3X3X3X3X3X3X3X3X3X3X3X3X3X3X3X3X3X3X3X3X3X3X3X3X3X3X3X3X3X3X3X3X3X3X3X3X3X3X3X3X3X3X3X3X3X3X3X3X",
"3X3X3X3X3X3X3X3X3X3X3X3X3X3X3X3X3X3X3X3X3X3X3X3X3X3X3X3X3X3X3X3X3X3X3X3X3X3X3X3X3X3X3X3X3X3X3X3X3X3X3X3X3X3X3X3X3X3X3X3X3X3X3X3X",
"3X3X3X3X3X3X3X3X3X3X3X3X3X3X3X3X3X3X3X3X3X3X3X3X3X3X3X3X3X3X3X3X3X3X3X3X3X3X3X3X3X3X3X3X3X3X3X3X3X3X3X3X3X3X3X3X3X3X3X3X3X3X3X3X",
"3X3X3X3X3X3X3X3X3X3X3X3X3X3X3X3X3X3X3X3X3X3X3X3X3X3X3X3X3X3X3X3X3X3X3X3X3X3X3X3X3X3X3X3X3X3X3X3X3X3X3X3X3X3X3X3X3X3X3X3X3X3X3X3X",
"3X3X3X3X3X3X3X3X3X3X3X3X3X3X3X3X3X3X3X3X3X3X3X3X3X3X3X3X3X3XC 3X3X3X3X3X3X3X3X3X3X3X3X3X3X3X3X3X3X3X3X3X3X3X3X3X3X3X3X3X3X3X3X3X",
"3X3X3X3X3X3X3X3X3X3X3X3X3X3X3X3X3X3X3X3X3X3X3X3X3X3X3X3X3X3XG.3X3X3X3X3X3X3X3X3X3X3X3X3X3X3X3X3X3X3X3X3X3X3X3X3X3X3X3X3X3X3X3X3X",
"3X3X3X3X3X3X3X3X3X3X3X3X3X3X3X3X3X3X3X3X3X3X3X3X3X3X3X3X3X3X3X( 3X3X3X3X3X3X3X3X3X3X3X3X3X3X3X3X3X3X3X3X3X3X3X3X3X3X3X3X3X3X3X3X",
"3X3X3X3X3X3X3X3X3X3X3X3X3X3X3X3X3X3X3X3X3X3X3X3X3X3X3X3X3X3X3X) D.3X3X3X3X3X3X3X3X3X3X3X3X3X3X3X3X3X3X3X3X3X3X3X3X3X3X3X3X3X3X3X",
"3X3X3X3X3X3X3X3X3X3X3X3X3X3X3X3X3X3X3X3X3X3X3X3X3X3X3X3X3X3X3X3X( 3X3X3X3X3X3X3X3X3X3X3X3X3X3X3X3X3X3X3X3X3X3X3X3X3X3X3X3X3X3X3X",
"3X3X3X3X3X3X3X3X3X3X3X3X3X3X3X3X3X3X3X3X3X3X3X3X3X3X3X3X3X3X3X3Xm.x 3X3X3X3X3X3X3X3X3X3X3X3X3X3X3X3X3X3X3X3X3X3X3X3X3X3X3X3X3X3X",
"3X3X3X3X3X3X3X3X3X3X3X3X3X3X3X3X3X3X3X3X3X3X3X3X3X3X3X3X3X3X3X3X3XC z k 3X3X3X3X3X3X3X3X3X3X3X3X3X3X3X3X3X3X3X3X3X3X3X3X3X3X3X3X",
"3X3X3X3X3X3X3X3X3X3X3X3X3X3X3X3X3X3X3X3X3X3X3X3X3X3X3X3X3X3X3X3X1.G <.! 6.U 3X3X3X3X3X3X3X3X3X3X3X3X3X3X3X3X3X3X3X3X3X3X3X3X3X3X",
"3X3X3X3X3X3X3X3X3X3X3X3X3X3X3X3X3X3X3X3X3X3X3X3X3X3X3X3X3X3X3X1.N.7.Z.C.p.i  .i.'.Q.3X3X3X3X3X3X3X3X3X3X3X3X3X3X3X3X3X3X3X3X3X3X",
"3X3X3X3X3X3X3X3X3X3X3X3X3X3X3X3X3X3X3X3X3X3X3X3X3X3X3X3X3X3Xr ! I -.O.Y.~.[.].].;Xg.u 3X3X3X3X3X3X3X3X3X3X3X3X3X3X3X3X3X3X3X3X3X",
"3X3X3X3X3X3X3X3X3X3X3X3X3X3X3X3X3X3X3X3X3X3X3X3X3X3X3X3X3X5 m R c.5.9.W.#X1X1X$X>X%XOX3X3X3X3X3X3X3X3X3X3X3X3X3X3X3X3X3X3X3X3X3X",
"3X3X3X3X3X3X3X3X3X3X3X3X3X3X3X3X3X3X3X3X3X3X3X3X3X3X3Xv.D A.|.<.<.o.t.T.#X1X>Xf.O.F.j.3X3X3X3X3X3X3X3X3X3X3X3X3X3X3X3X3X3X3X3X3X",
"3X3X3X3X3X3X3X3X3X3X3X3X3X3X3X3X3X3X3X3X3X3X3X3X3X3X5 = 6.S.F.v.g r.k._.!./.d.` 3Xe U r 3X3X3X3X3X3X3X3X3X3X3X3X3X3X3X3X3X3X3X3X",
"3X3X3X3X3X3X3X3X3X3X3X3X3X3X3X3X3X3X3X3X3X3X3X3X3Xm t H H ,.T V O.V.!.[.`.y.s 3X3X3XO 3X3X3X3X3X3X3X3X3X3X3X3X3X3X3X3X3X3X3X3X3X",
"3X3X3X3X3X3X3X3X3X3X3X3X3X3X3X3X3X3X3X3X3X3X3X3XB 6 n z.! Q g  .3.k.l.`.0.3X3X3X3X3X3X3X3X3X3X3X3X3X3X3X3X3X3X3X3X3X3X3X3X3X3X3X",
"3X3X3X3X3X3X3X3X3X3X3X3X3X3X3X3X3X3X3X3X3X3X3X3X3X& c.F.R & p V | } ] e.s 3X3X3X3X3X3X3X3X3X3X3X3X3X3X3X3X3X3X3X3X3X3X3X3X3X3X3X",
"3X3X3X3X3X3X3X3X3X3X3X3X3X3X3X3X3X3X3X3X3X3X3X3X3X~ c.x.q a K X.e.r.=.f 3X3X3X .r.3X3X3X3X3X3X3X3X3X3X3X3X3X3X3X3X3X3X3X3X3X3X3X",
"3X3X3X3X3X3X3X3X3X3X3X3X3X3X3X3X3X3X3X3X3X3X3X3X5 x.,.F w  .3.i.T.R.T.j.t.i.T.%X<XI.3X3X3X3X3X3X3X3X3X3X3X3X3X3X3X3X3X3X3X3X3X3X",
"3X3X3X3X3X3X3X3X3X3X3X3XO H 3X3X3X3X3X3X3X3X3X3XF 1.q p } e.b.j.p.!.*X1X1X1X1X@Xv.}.3X3X3X3X3X3X3X3X3X3X3X3X3X3X3X3X3X3X3X3X3X3X",
"3X3X3X3X3X3X3X3X3X3X3X& r 3X3X3X3X3X3X3X3X3X3X3Xk K :.p.k.V.'.~.W._.$X<X:X+XK.a.5.v.:.3X3X3X3X3X3X3X3X3X3X3X3X3X3X3X3X3X3X3X3X3X",
"3X3X3X3X3X3X3X3X3X;.B c.B.2 3X3X3X3X3X4 d g g X.r.b.W.!.}.}.OX>X1X+X(.L.g.' @ r R 2.}.f.3X3X3X3X3X3X3X3X3X3X3X3X3X3X3X3X3X3X3X3X",
"3X3X3X3X3X3X3X3X& t ! x.c.3X3X3X3X1 a K X.+.+.V.Q.~.}.&X2X1X1X1X1X=X(.L.P.s.4 I P 9 5.U 3X3X3X3X3X3X3X3X3X3X3X3X3X3X3X3X3X3X3X3X",
"3X3X3X3X3X3X3X3XT B I 7.L 3X3X3X1 g %.%.:.t.t.T.#X#X1X1X1X1X1X1X1X+X^.).`.Y.O.Y B B N ) S 3X3X3X3X3X3X3X3X3X3X3X3X3X3X3X3X3X3X3X",
"3X3X3X3X3X3X3X3Xc.w 3 7 3X3X3Xo a X.t.p.p.k.k.Y.@X*X1X1X1X1X1X<X=X.X)..X(.U.-.x.q.8 ; : : 3X3X3X3X3X3X3X3X3X3X3X3X3X3X3X3X3X3X3X",
"3X3X3X3X3X3X3X3X3X3 4 3X3X3X3X1 } =.r.j.V.R.@X^.OX&X<X1X1X1X:X=X.XL.U.U.J.$.r ;.@X9.% , v 3X3X3X3X3X3X3X3X3X3X3X3X3X3X3X3X3X3X3X",
"3X3X3X3X3X3X3X3X3Xy #.3X3X3X4 4  .e.=.j.@X>X,XJ.oX+X%X=X=X-X+X`.P.8.#.[ f 8 N m.}.w.3X3X3X3X3X3X3X3X3X3X3X3X3X3X3X3X3X3X3X3X3X3X",
"3X3X3X3X3X3X3X3X3Xp #.] X.b.h.1 8 ..h '.1X,Xg.d._.oX`.`.`.(.U.H.[ < + . 3X3XE |.E 3X3X3X3X3X3X3X3X3X3X3X3X3X3X3X3X3X3X3X3X3X3X3X",
"3X3X3X3X3X3X3X3X3X< #.oX;X$Xf.3X  3 V.<X$X0.[ K.l.L.L.d.H.d.8.s 3X3X3X3X3X3X; ,.> 3X3X3X3X3X3X3X3X3X3X3X3X3X3X3X3X3X3X3X3X3X3X3X",
"3X3X3X3X3X3X3X3X3X3X3Xp 3X3X3X3X@ 3.&XXX] h y.Y.I.{ ` ` _ y < 3X3X3X3X3X3X3X3X2 3X3X3X3X3X3X3X3X3X3X3X3X3X3X3X3X3X3X3X3X3X3X3X3X",
"3X3X3X3X3X3X3X3X3X3X3X3X3X3X3X3Xi T.^.] 4 r./.XX+X' + X X 3X3X3X3X3X3X3X3X3X3X3X3X3X3X3X3X3X3X3X3X3X3X3X3X3X3X3X3X3X3X3X3X3X3X3X",
"3X3X3X3X3X3X3X3X3X3X3X3X3X3X3X3XL 3.y.4  .}.,X1XXX[ 3X3X3X3X3X3X3X3X3X3X3X3X3X3X3X3X3X3X3X3X3X3X3X3X3X3X3X3X3X3X3X3X3X3X3X3X3X3X",
"3X3X3X3X3X3X3X3X3X3X3X3X3X3X3X3Xc.B.R.=._.1X1X$X0.3X3X3X3X3X3X3X3X3X3X3X3X3X3X3X3X3X3X3X3X3X3X3X3X3X3X3X3X3X3X3X3X3X3X3X3X3X3X3X",
"3X3X3X3X3X3X3X3X3X3X3X3X3X3X2 q ! N.R.E./.XXK.' 3X3X3X3X3X3X3X3X3X3X3X3X3X3X3X3X3X3X3X3X3X3X3X3X3X3X3X3X3X3X3X3X3X3X3X3X3X3X3X3X",
"3X3X3X3X3X3X3X3X3X3X3X3X3X3X3 e r ^ x.i.'.j.&.u.:.A ) 3X3X3X3X3X3X3X3X3X3X3X3X3X3X3X3X3X3X3X3X3X3X3X3X3X3X3X3X3X3X3X3X3X3X3X3X3X",
"3X3X3X3X3X3X3X3X3X3X3X3X3X3X3X3X% 0 M.I 3.L N.2.G W Z Z 3X3X3X3X3X3X3X3X3X3X3X3X3X3X3X3X3X3X3X3X3X3X3X3X3X3X3X3X3X3X3X3X3X3X3X3X",
"3X3X3X3X3X3X3X3X3X3X3X3X3X3X3X3Xl $ - $ @ q c.e 6 ; $ - 3X3X3X3X3X3X3X3X3X3X3X3X3X3X3X3X3X3X3X3X3X3X3X3X3X3X3X3X3X3X3X3X3X3X3X3X",
"3X3X3X3X3X3X3X3X3X3X3X3X3X3X3X3X3X: % c 3X3XP ~ c M 9 c 3X3X3X3X3X3X3X3X3X3X3X3X3X3X3X3X3X3X3X3X3X3X3X3X3X3X3X3X3X3X3X3X3X3X3X3X",
"3X3X3X3X3X3X3X3X3X3X3X3X3X3X3X3X3X3X3X3X3X3XT 3X3X= 3X3X3X3X3X3X3X3X3X3X3X3X3X3X3X3X3X3X3X3X3X3X3X3X3X3X3X3X3X3X3X3X3X3X3X3X3X3X",
"3X3X3X3X3X3X3X3X3X3X3X3X3X3X3X3X3X3X3X3X3X3X3X3X3X3X3X3X3X3X3X3X3X3X3X3X3X3X3X3X3X3X3X3X3X3X3X3X3X3X3X3X3X3X3X3X3X3X3X3X3X3X3X3X",
"3X3X3X3X3X3X3X3X3X3X3X3X3X3X3X3X3X3X3X3X3X3X3X3X3X3X3X3X3X3X3X3X3X3X3X3X3X3X3X3X3X3X3X3X3X3X3X3X3X3X3X3X3X3X3X3X3X3X3X3X3X3X3X3X",
"3X3X3X3X3X3X3X3X3X3X3X3X3X3X3X3X3X3X3X3X3X3X3X3X3X3X3X3X3X3X3X3X3X3X3X3X3X3X3X3X3X3X3X3X3X3X3X3X3X3X3X3X3X3X3X3X3X3X3X3X3X3X3X3X",
"3X3X3X3X3X3X3X3X3X3X3X3X3X3X3X3X3X3X3X3X3X3X3X3X3X3X3X3X3X3X3X3X3X3X3X3X3X3X3X3X3X3X3X3X3X3X3X3X3X3X3X3X3X3X3X3X3X3X3X3X3X3X3X3X",
"3X3X3X3X3X3X3X3X3X3X3X3X3X3X3X3X3X3X3X3X3X3X3X3X3X3X3X3X3X3X3X3X3X3X3X3X3X3X3X3X3X3X3X3X3X3X3X3X3X3X3X3X3X3X3X3X3X3X3X3X3X3X3X3X",
"3X3X3X3X3X3X3X3X3X3X3X3X3X3X3X3X3X3X3X3X3X3X3X3X3X3X3X3X3X3X3X3X3X3X3X3X3X3X3X3X3X3X3X3X3X3X3X3X3X3X3X3X3X3X3X3X3X3X3X3X3X3X3X3X",
"3X3X3X3X3X3X3X3X3X3X3X3X3X3X3X3X3X3X3X3X3X3X3X3X3X3X3X3X3X3X3X3X3X3X3X3X3X3X3X3X3X3X3X3X3X3X3X3X3X3X3X3X3X3X3X3X3X3X3X3X3X3X3X3X",
"3X3X3X3X3X3X3X3X3X3X3X3X3X3X3X3X3X3X3X3X3X3X3X3X3X3X3X3X3X3X3X3X3X3X3X3X3X3X3X3X3X3X3X3X3X3X3X3X3X3X3X3X3X3X3X3X3X3X3X3X3X3X3X3X",
"3X3X3X3X3X3X3X3X3X3X3X3X3X3X3X3X3X3X3X3X3X3X3X3X3X3X3X3X3X3X3X3X3X3X3X3X3X3X3X3X3X3X3X3X3X3X3X3X3X3X3X3X3X3X3X3X3X3X3X3X3X3X3X3X"
};
