/* XPM */
static char *result[] = {
/* columns rows colors chars-per-pixel */
"64 64 193 2 ",
"   c #19181B",
".  c #22211C",
"X  c #1B1925",
"o  c #201F2C",
"O  c #373431",
"+  c #302E31",
"@  c #453D35",
"#  c #564B39",
"$  c #5A503C",
"%  c #554126",
"&  c #7E5C2F",
"*  c #6B553A",
"=  c #685438",
"-  c #735A37",
";  c #3A3A44",
":  c #413F49",
">  c #484646",
",  c #5B5345",
"<  c #514E5C",
"1  c #585656",
"2  c #5D5A5B",
"3  c #585653",
"4  c #4D4A4E",
"5  c #645B4A",
"6  c #685E47",
"7  c #675F56",
"8  c #6E624A",
"9  c #696558",
"0  c #746954",
"q  c #756A58",
"w  c #7D725C",
"e  c #7B6C4E",
"r  c #545363",
"t  c #5F5F61",
"y  c #5D5B6C",
"u  c #615F70",
"i  c #6D6B6A",
"p  c #696561",
"a  c #716D6A",
"s  c #766D64",
"d  c #73716C",
"f  c #7C7264",
"g  c #636272",
"h  c #6C6877",
"j  c #726F7B",
"k  c #757270",
"l  c #797674",
"z  c #7A787C",
"x  c #916E27",
"c  c #8D6732",
"v  c #A57F3F",
"b  c #896E4A",
"n  c #83755B",
"m  c #887355",
"M  c #937854",
"N  c #96744A",
"B  c #857B63",
"V  c #897D65",
"C  c #897D6A",
"Z  c #827E7B",
"A  c #897C72",
"S  c #F0CB3F",
"D  c #8C816D",
"F  c #8D8265",
"G  c #92856B",
"H  c #988C6E",
"J  c #82817C",
"K  c #968974",
"L  c #9D9175",
"P  c #A68F65",
"I  c #A89266",
"U  c #A29475",
"Y  c #A5997C",
"T  c #A99A7A",
"R  c #B7A575",
"E  c #C19F52",
"W  c #D2AB57",
"Q  c #D9B76A",
"!  c #D7BD7F",
"~  c #C7AA61",
"^  c #DFC276",
"/  c #EAC87E",
"(  c #7A7787",
")  c #807E8F",
"_  c #858282",
"`  c #8B8886",
"'  c #8A898C",
"]  c #928D8C",
"[  c #928B80",
"{  c #93918D",
"}  c #999186",
"|  c #8D8996",
" . c #928E9B",
".. c #949191",
"X. c #999693",
"o. c #9D9996",
"O. c #94919E",
"+. c #AB9D82",
"@. c #A39886",
"#. c #A69F97",
"$. c #A29C9C",
"%. c #ADA283",
"&. c #AFA589",
"*. c #B3A585",
"=. c #BBAC8C",
"-. c #B3A78A",
";. c #BFB18D",
":. c #A6A39E",
">. c #ABA395",
",. c #B7AB92",
"<. c #BCB095",
"1. c #938FA1",
"2. c #9693A4",
"3. c #9995A5",
"4. c #9D9AAB",
"5. c #9D99A7",
"6. c #A09DAC",
"7. c #A29FB0",
"8. c #AAA6A3",
"9. c #ADABA6",
"0. c #A9A6A8",
"q. c #B3ADAB",
"w. c #B1AAA3",
"e. c #B5B1AD",
"r. c #BDB3A8",
"t. c #A5A2B3",
"y. c #ADA9BA",
"u. c #AAA7B6",
"i. c #B1AEBC",
"p. c #B5B3B1",
"a. c #BAB6B3",
"s. c #BDBAB5",
"d. c #BFBCB8",
"f. c #C7B88B",
"g. c #C3B595",
"h. c #C7B99B",
"j. c #C7BDA7",
"k. c #C2BEBA",
"l. c #C2BEB6",
"z. c #CFC09C",
"x. c #DCCB92",
"c. c #EDD28D",
"v. c #CDC1A2",
"b. c #D6C7A4",
"n. c #C4C1BC",
"m. c #CCC5BC",
"M. c #DACFB0",
"N. c #E2D8B4",
"B. c #F1E2B3",
"V. c #BAB6C6",
"C. c #BBB7C6",
"Z. c #C0BDCD",
"A. c #C2BFD1",
"S. c #CAC4C2",
"D. c #CDC9C3",
"F. c #C7C3CB",
"G. c #CFCACD",
"H. c #C6C4CA",
"J. c #D2CCCA",
"K. c #D5D1CD",
"L. c #D9D4CC",
"P. c #DED9C5",
"I. c #CAC5D2",
"U. c #CFCBD6",
"Y. c #D2CDD5",
"T. c #D1CCDB",
"R. c #DBD6D3",
"E. c #D6D2DA",
"W. c #DAD6D7",
"Q. c #E2DAD4",
"!. c #E2DDDB",
"~. c #E5E1DD",
"^. c #F0E6C8",
"/. c #DCD7E6",
"(. c #E4DFED",
"). c #E2DDE4",
"_. c #E5E1E2",
"`. c #EBE6E4",
"'. c #E6E2EE",
"]. c #EDEAEC",
"[. c #EBE7EA",
"{. c #F3EDEC",
"}. c #F3F0EF",
"|. c #EEEBF4",
" X c #E8E2F1",
".X c #F1EDF3",
"XX c #F5F2F4",
"oX c #F9F5F5",
"OX c #F6F2FB",
"+X c #F9F5FA",
"@X c #FEFDFE",
"#X c #F9F8F7",
"$X c None",
/* pixels */
"$X$X$X$X$X$X$X$X$X$X$X$X$X$X$X$X$X$X$X$X$X$X$X$X$X$X$X$X$X$X$X$X$X$X$X$X$X$X$X$X$X$X$X$X$X$X$X$X$X$X$X$X$X$X$X$X$X$X$X$X$X$X$X$X",
"$X$X$X$X$X$X$X$X$X$X$X$X$X$X$X$X$X$X$X$X$X$X$X$X$X$X$X$X$X$X$X$X$X$X$X$X$X$X$X$X$X$X$X$X$X$X$X$X$X$X$X$X$X$X$X$X$X$X$X$X$X$X$X$X",
"$X$X$X$X$X$X$X$X$X$X$X$X$X$X$X$X$X$X$X$X$X$X$X$X$X$X$X$X$X$X$X$X$X$X$X$X$X$X$X$X$X$X$X$X$X$X$X$X$X$X$X$X$X$X$X$X$X$X$X$X$X$X$X$X",
"$X$X$X$X$X$X$X$X$X$X$X$X$X$X$X$X$X$X$X$X$X$X$X$X$X$X$X$X$X$X$X$X$X$X$X$X$X$X$X$X$X$X$X$X$X$X$X$X$X$X$X$X$X$X$X$X$X$X$X$X$X$X$X$X",
"$X$X$X$X$X$X$X$X$X$X$X$X$X$X$X$X$X$X$X$X$X$X$X$X$X$X$X$X$X$X$X$X$X$X$X$X$X$X$X$X$X$X$X$X$X$X$X$X$X$X$X$X$X$X$X$X$X$X$X$X$X$X$X$X",
"$X$X$X$X$X$X$X$X$X$X$X$X$X$X$X$X$X$X$X$X$X$X$X$X$X$X$X$X$X$X$X$X$X$X$X$X$X$X$X$X$X$X$X$X$X$X$X$X$X$X$X$X$X$X$X$X$X$X$X$X$X$X$X$X",
"$X$X$X$X$X$X$X$X$X$X$X$X$X$X$X$X$X$X$X$X$X$X$X$X$X$X$X$X$X$X$X$X$X$X$X$X$X$X$X$X$X$X$X$X$X$X$X$X$X$X$X$X$X$X$X$X$X$X$X$X$X$X$X$X",
"$X$X$X$X$X$X$X$X$X$X$X$X$X$X$X$X$X$X$X$X$X$X$X$X$X$X$X$X$X$X$X$X$X$X$X$X$X$X$X$X$X$X$X$X$X$X$X$X$X$X$X$X$X$X$X$X$X$X$X$X$X$X$X$X",
"$X$X$X$X$X$X$X$X$X$X$X$X$X$X$X$X$X$X$X$X$X$X$X$X$X$X$X$X$X$X$X$X$X$X$X$X$X$X$X$X$X$X$X$X$X$X$X$X$X$X$X$X$X$X$X$X$X$X$X$X$X$X$X$X",
"$X$X$X$X$X$X$X$X$X$X$X$X$X$X$X$X$X$X$X$X$X$X$X$X$X$X$X$X$X$X$X$X$X$X$X$X$X$X$X$X$X$X$X$X$X$X$X$X$X$X$X$X$X$X$X$X$X$X$X$X$X$X$X$X",
"$X$X$X$X$X$X$X$X$X$X$X$X$X$X$X$X$X$X$X$X$X$X$X$XW $X$X$X$X$X$X$X$X$X$X$X$X$X$X$X$X$X$X$X$X$X$X$X$X$X$X$X$X$X$X$X$X$X$X$X$X$X$X$X",
"$X$X$X$X$X$X$X$X$X$X$X$X$X$X$X$X$X$X$X$X$X$X$X$XE B.$X$X$X$X$X$X$X$X$X$X$X$X$X$X$X$X$X$X$X$X$X$X$X$X$X$X$X$X$X$X$X$X$X$X$X$X$X$X",
"$X$X$X$X$X$X$X$X$X$X$X$X$X$X$X$X$X$X$X$X$X$X$X$X$Xx.$X$X$X$X$X$X$X$X$X$X$X$X$X$X$X$X$X$X$X$X$X$X$X$X$X$X$X$X$X$X$X$X$X$X$X$X$X$X",
"$X$X$X$X$X$X$X$X$X$X$X$X$X$X$X$X$X$X$X$X$X$X$X$X$X$Xc.$X$X$X$X$X$X$X$X$X$X$X$X$X$X$X$X$X$X$X$X$X$X$X$X$X$X$X$X$X$X$X$X$X$X$X$X$X",
"$X$X$X$X$X$X$X$X$X$X$X$X$X$X$X$X$X$X$X$X$X$X$X$X$X$X^.^ c.$X$X$X$X$X$X$X$X$X$X$X$X$X$X$X$X$X$X$X$X$X$X$X$X$X$X$X$X$X$X$X$X$X$X$X",
"$X$X$X$X$X$X$X$X$X$X$X$X$X$X$X$X$X$X$X$X$X$X$X$X$X$X$Xx / $X$X$X$X$X$X$X$X$X$X$X$X$X$X$X$X$X$X$X$X$X$X$X$X$X$X$X$X$X$X$X$X$X$X$X",
"$X$X$X$X$X$X$X$X$X$X$X$X$X$X$X$X$X$X$X$X$X$X$X$X$X$X$X$XW S $X$X$X$X$X$X$X$X$X$X$X$X$X$X$X$X$X$X$X$X$X$X$X$X$X$X$X$X$X$X$X$X$X$X",
"$X$X$X$X$X$X$X$X$X$X$X$X$X$X$X$X$X$X$X$X$X$X$X$X$X$X$X$X$X~ / s n B $X$X$X$XZ $X$X$X$X$X$X$X$X$X$X$X$X$X$X$X$X$X$X$X$X$X$X$X$X$X",
"$X$X$X$X$X$X$X$X$X$X$X$X$X$X$X$X$X$X$X$X$X$X$X$X$X$X$X$X$X$XP I %.C $X$X9.`.XXO.$X$X$X$X$X$X$X$X$X$X$X$X$X$X$X$X$X$X$X$X$X$X$X$X",
"$X$X$X$X$X$X$X$X$X$X$X$X$X$X$X$X$X$X$X$X$X$X$X$X$X$X$X$X$Xg.I b.M.] p...W.XXF.$X$X$X$X$X$X$X$X$X$X$X$X$X$X$X$X$X$X$X$X$X$X$X$X$X",
"$X$X$X$X$X$X$X$X$X$X$X$X$X$X$X$X$X$X$X$X$X$X$X$X$X$X$X$X$Xh.&.g.<.W.W..XXX X|.{.C.$X$X$X$X$X$X$X$X$X$X$X$X$X$X$X$X$X$X$X$X$X$X$X",
"$X$X$X$X$X$X$X$X$X$X$X$X$X$X$X$X$X$X$X$X$X$X$X$X$X$X$X$X&.L Y h.#.!.@X@X@XI.[ N.;.$X$X$X$X$X$X$X$X$X$X$X$X$X$X$X$X$X$X$X$X$X$X$X",
"$X$X$X$X$X$X$X$X$X$X$X$X$X$X$X$X$X$X$X$X$X$X$X$X$X$X$X, H %.>.@.] _.@X@X@X2.$Xs q , $X$X$X$X$X$X$X$X$X$X$X$X$X$X$X$X$X$X$X$X$X$X",
"$X$X$X$X$X$X$X$X$X$X$X$X$X$X$X$X$X$X$X$X$X$X$X$X$X$X6 # G U ;.v.q.~.oX@XI.$X$X$X$X. $X$X$X$X$X$X$X$X$X$X$X$X$X$X$X$X$X$X$X$X$X$X",
"$X$X$X$X$X$X$X$X$X$X$X$X$X$X$X$X$X$X$X$X$X$X$X$X$Xq U H v.b.=.:.D.!..X{.0.$X$X$X$X$X$X$X$X$X$X$X$X$X$X$X$X$X$X$X$X$X$X$X$X$X$X$X",
"$X$X$X$X$X$X$X$X$X$X$X$X$X$X$X$X$X$X$X$X$X$X$X$X$Xq # h.;.g.r.9.L.~.XX).$X$X$X$X$X$X$X$X$X$X$X$X$X$X$X$X$X$X$X$X$X$X$X$X$X$X$X$X",
"$X$X$X$X$X$X$X$X$X$X$X$X$X$X$X$X$X$X$X$X$X$X$X$XU F n T %.@.:.e.R.{.oX/.$X$X$X$X$X$X$X$X$X$X$X$X$X$X$X$X$X$X$X$X$X$X$X$X$X$X$X$X",
"$X$X$X$X$X$X$X$X$X$X$X$X$X$X$X$X$X$X$X$X$X$X$XL 5 , h.T ,.} e.n.!.`.{.C.$X$X$X$X$X$X$X$X$X$X$X$X$X$X$X$X$X$X$X$X$X$X$X$X$X$X$X$X",
"$X$X$X$X$X$X$X$X$X$X$X$X$X$X$X$X$X$X$X$X$X$X$X$X% ,.^.Y f J o.e.S.S.Y.t.$X$X$X$X$X$X$X$X$X$X$X$X$X$X$X$X$X$X$X$X$X$X$X$X$X$X$X$X",
"$X$X$X$X$X$X$X$X$X$X$X$X$X$X$X$X$X$X$X$X$X$X$X$Xn b.j.K p J { 9.q.8.0. .$X] n.G.$X$X$X$X$X$X$X$X$X$X$X$X$X$X$X$X$X$X$X$X$X$X$X$X",
"$X$X$X$X$X$X$X$X$X$X$X$X$X+.T 5 $X$X$X$X$X$X$X$X*.z.*.q J o.e.s.a.q.{ h J D.+XXX_.$X$X$X$X$X$X$X$X$X$X$X$X$X$X$X$X$X$X$X$X$X$X$X",
"$X$X$X$X$X$X$X$X$X-.0 Y G B L $X$X$X$X$X$X$X$XV z.g.L s { 8.:.s.L.R.a.q.J.XX[.l.Q.m.$X$X$X$X$X$X$X$X$X$X$X$X$X$X$X$X$X$X$X$X$X$X",
"$X$X$X$X$X$X$X$X$X=.T +.=.H $X$X$X$X$X$X$X$X$XH -.e F l :.s.a.s.R.R.!.).+XXX5.-.%.j.K.$X$X$X$X$X$X$X$X$X$X$X$X$X$X$X$X$X$X$X$X$X",
"$X$X$X$X$X$X$X$X$X, Y L C $X$X$X$X$X$X$X$X$X$XY D 4 k o.a.D.!.s.s.R.@X@X|.7.; B B B r.K $X$X$X$X$X$X$X$X$X$X$X$X$X$X$X$X$X$X$X$X",
"$X$X$X$X$X$X$X$X$X8 n C s $X$X$X$X$X$X$X$X$X$X9 d { 9.m.K.~.{.`.n.a.)./.y.g 4 L G U I f.Q $X$X$X$X$X$X$X$X$X$X$X$X$X$X$X$X$X$X$X",
"$X$X$X$X$X$X$X$X$X6 F f $X$X$X$X$X$X$X$Xk l k ] 8.k.R.~.`.].oX@XXX).F.t.2.3.#.} n # = = = m $X$X$X$X$X$X$X$X$X$X$X$X$X$X$X$X$X$X",
"$X$X$X$X$X$X$X$X$XF +.s $X$X$X$X$X$X2 [ q.e.q.n.D.~.~.{.@X@X@X@X+X(.V.1.t.C.i.} j.>.6.0 $X$X$X$X$X$X$X$X$X$X$X$X$X$X$X$X$X$X$X$X",
"$X$X$X$X$X$X$X$X$XP.K $X$X$X$X$X$Xt X.9.p.a.n.W.R.~.oX@X@X@X@X@XOXT.4.V.V.V.j 0 +.8.Y.$X$X$X$X$X$X$X$X$X$X$X$X$X$X$X$X$X$X$X$X$X",
"$X$X$X$X$X$X$X$Xk E.$X$X$X$X$X$X: ` 9.q.s.m.J.W.~.{.@X@X@X@X@X|./.V.4.4.2.h $XH M ~ f.$X$X$X$X$X$X$X$X$X$X$X$X$X$X$X$X$X$X$X$X$X",
"$X$X$X$X$X$X$X$X] E.$X$X$X$X$X. 9 X.p.l.l.J.R.W.F.~.}.@X+XOX|./.C.2.y r > $X$X$Xx f.c.$X$X$X$X$X$X$X$X$X$X$X$X$X$X$X$X$X$X$X$X$X",
"$X$X$X$X$X$X$X$X_ Y.$X$X$X$Xt > d X.e.S.S.L.R.~.d.E.E.(.(./.I.V.7.g o X $X$X$X$X$X- b $X$X$X$X$X$X$X$X$X$X$X$X$X$X$X$X$X$X$X$X$X",
"$X$X$X$X$X$X$X$X$Xs.{ $X$XJ ] 2 Z o.8.a.S.G.R.[.t.G.T.I.Z.V.V.1.g $X$X$X$X$X$X$X$X$X$X$X$X$X$X$X$X$X$X$X$X$X$X$X$X$X$X$X$X$X$X$X",
"$X$X$X$X$X$X$X$X$Xi :.9.e.H.| : a $.q.o.a.~.#X].5.i.i.t.3.| ( r $X$X$X$X$X$X$X$X$X$X$X$X$X$X$X$X$X$X$X$X$X$X$X$X$X$X$X$X$X$X$X$X",
"$X$X$X$X$X$X$X$X$X$X$X$X$X$X$X$X+ i j z K.#XXXt.( ( ( y r < + $X$X$X$X$X$X$X$X$X$X$X$X$X$X$X$X$X$X$X$X$X$X$X$X$X$X$X$X$X$X$X$X$X",
"$X$X$X$X$X$X$X$X$X$X$X$X$X$X$X$X$X  1 n.[./.4.( 1.O.y X $X$X$X$X$X$X$X$X$X$X$X$X$X$X$X$X$X$X$X$X$X$X$X$X$X$X$X$X$X$X$X$X$X$X$X$X",
"$X$X$X$X$X$X$X$X$X$X$X$X$X$X$X$X$X1 q.#XU.( ' G.|.'.2.$X$X$X$X$X$X$X$X$X$X$X$X$X$X$X$X$X$X$X$X$X$X$X$X$X$X$X$X$X$X$X$X$X$X$X$X$X",
"$X$X$X$X$X$X$X$X$X$X$X$X$X$X$X$X1 o.].C.g t a.#X@X X) $X$X$X$X$X$X$X$X$X$X$X$X$X$X$X$X$X$X$X$X$X$X$X$X$X$X$X$X$X$X$X$X$X$X$X$X$X",
"$X$X$X$X$X$X$X$X$X$X$X$X$X$X$X$X4 8.!.( ; i ~.@X.Xi.$X$X$X$X$X$X$X$X$X$X$X$X$X$X$X$X$X$X$X$X$X$X$X$X$X$X$X$X$X$X$X$X$X$X$X$X$X$X",
"$X$X$X$X$X$X$X$X$X$X$X$X$X$X$X$X9 >.m.' . o.{..Xi.< $X$X$X$X$X$X$X$X$X$X$X$X$X$X$X$X$X$X$X$X$X$X$X$X$X$X$X$X$X$X$X$X$X$X$X$X$X$X",
"$X$X$X$X$X$X$X$X$X$X$X$X$X$X$X$X-.N.L.Z.l Y.F.7.) s _ $X$X$X$X$X$X$X$X$X$X$X$X$X$X$X$X$X$X$X$X$X$X$X$X$X$X$X$X$X$X$X$X$X$X$X$X$X",
"$X$X$X$X$X$X$X$X$X$X$X$X$X$X$XO n M.K.T.X.K.{.Q.k.l.l.A b $X$X$X$X$X$X$X$X$X$X$X$X$X$X$X$X$X$X$X$X$X$X$X$X$X$X$X$X$X$X$X$X$X$X$X",
"$X$X$X$X$X$X$X$X$X$X$X$X$X$X+ @ n U m.3.3 ` a.w.<.=.=.P R M $X$X$X$X$X$X$X$X$X$X$X$X$X$X$X$X$X$X$X$X$X$X$X$X$X$X$X$X$X$X$X$X$X$X",
"$X$X$X$X$X$X$X$X$X$X$X$X$X$X$X$X- I / N $X$X$XO D K e = * * m $X$X$X$X$X$X$X$X$X$X$X$X$X$X$X$X$X$X$X$X$X$X$X$X$X$X$X$X$X$X$X$X$X",
"$X$X$X$X$X$X$X$X$X$X$X$X$X$X$X$X$XM x.& $X$X$X$Xf f e 6 * - $X$X$X$X$X$X$X$X$X$X$X$X$X$X$X$X$X$X$X$X$X$X$X$X$X$X$X$X$X$X$X$X$X$X",
"$X$X$X$X$X$X$X$X$X$X$X$X$X$X$X$X$Xc @ = $X$X$X$X@.5 $X$X$X$X$X$X$X$X$X$X$X$X$X$X$X$X$X$X$X$X$X$X$X$X$X$X$X$X$X$X$X$X$X$X$X$X$X$X",
"$X$X$X$X$X$X$X$X$X$X$X$X$X$X$X$X$X$X$X$X$X$X$X$X$X$X$X$X$X$X$X$X$X$X$X$X$X$X$X$X$X$X$X$X$X$X$X$X$X$X$X$X$X$X$X$X$X$X$X$X$X$X$X$X",
"$X$X$X$X$X$X$X$X$X$X$X$X$X$X$X$X$X$X$X$X$X$X$X$X$X$X$X$X$X$X$X$X$X$X$X$X$X$X$X$X$X$X$X$X$X$X$X$X$X$X$X$X$X$X$X$X$X$X$X$X$X$X$X$X",
"$X$X$X$X$X$X$X$X$X$X$X$X$X$X$X$X$X$X$X$X$X$X$X$X$X$X$X$X$X$X$X$X$X$X$X$X$X$X$X$X$X$X$X$X$X$X$X$X$X$X$X$X$X$X$X$X$X$X$X$X$X$X$X$X",
"$X$X$X$X$X$X$X$X$X$X$X$X$X$X$X$X$X$X$X$X$X$X$X$X$X$X$X$X$X$X$X$X$X$X$X$X$X$X$X$X$X$X$X$X$X$X$X$X$X$X$X$X$X$X$X$X$X$X$X$X$X$X$X$X",
"$X$X$X$X$X$X$X$X$X$X$X$X$X$X$X$X$X$X$X$X$X$X$X$X$X$X$X$X$X$X$X$X$X$X$X$X$X$X$X$X$X$X$X$X$X$X$X$X$X$X$X$X$X$X$X$X$X$X$X$X$X$X$X$X",
"$X$X$X$X$X$X$X$X$X$X$X$X$X$X$X$X$X$X$X$X$X$X$X$X$X$X$X$X$X$X$X$X$X$X$X$X$X$X$X$X$X$X$X$X$X$X$X$X$X$X$X$X$X$X$X$X$X$X$X$X$X$X$X$X",
"$X$X$X$X$X$X$X$X$X$X$X$X$X$X$X$X$X$X$X$X$X$X$X$X$X$X$X$X$X$X$X$X$X$X$X$X$X$X$X$X$X$X$X$X$X$X$X$X$X$X$X$X$X$X$X$X$X$X$X$X$X$X$X$X",
"$X$X$X$X$X$X$X$X$X$X$X$X$X$X$X$X$X$X$X$X$X$X$X$X$X$X$X$X$X$X$X$X$X$X$X$X$X$X$X$X$X$X$X$X$X$X$X$X$X$X$X$X$X$X$X$X$X$X$X$X$X$X$X$X",
"$X$X$X$X$X$X$X$X$X$X$X$X$X$X$X$X$X$X$X$X$X$X$X$X$X$X$X$X$X$X$X$X$X$X$X$X$X$X$X$X$X$X$X$X$X$X$X$X$X$X$X$X$X$X$X$X$X$X$X$X$X$X$X$X"
};
