/* XPM */
static char *result[] = {
/* columns rows colors chars-per-pixel */
"64 64 211 2 ",
"   c #0F0F11",
".  c #191818",
"X  c #1D140A",
"o  c #332A1C",
"O  c #3C301F",
"+  c #2D291E",
"@  c #3B352A",
"#  c #373332",
"$  c #302C2F",
"%  c #433C35",
"&  c #443B38",
"*  c #48433A",
"=  c #574D3B",
"-  c #59523E",
";  c #665239",
":  c #6D502E",
">  c #3C3C4A",
",  c #323142",
"<  c #413F4A",
"1  c #4C4848",
"2  c #524D40",
"3  c #5B5343",
"4  c #57534B",
"5  c #484757",
"6  c #545151",
"7  c #5B5557",
"8  c #5B5A5D",
"9  c #655D4B",
"0  c #625C55",
"q  c #76664B",
"w  c #676159",
"e  c #746A53",
"r  c #776E5A",
"t  c #786F5C",
"y  c #7C715B",
"u  c #7B715A",
"i  c #5D5B68",
"p  c #5F5D70",
"a  c #666362",
"s  c #696865",
"d  c #6D6B68",
"f  c #63626F",
"g  c #726E6C",
"h  c #73726F",
"j  c #6C6A7B",
"k  c #666472",
"l  c #757272",
"z  c #7F7D79",
"x  c #7B7875",
"c  c #815F36",
"v  c #866C49",
"b  c #8C7749",
"n  c #85744C",
"m  c #95764D",
"M  c #81765D",
"N  c #897758",
"B  c #917953",
"V  c #807762",
"C  c #857B63",
"Z  c #857C6A",
"A  c #897E66",
"S  c #817C7A",
"D  c #907B66",
"F  c #BD8830",
"G  c #94805D",
"H  c #B18F53",
"J  c #8D836D",
"K  c #8D8266",
"L  c #95896E",
"P  c #95866A",
"I  c #89847C",
"U  c #908774",
"Y  c #978B72",
"T  c #9A8D70",
"R  c #998F79",
"E  c #9B9076",
"W  c #9B917E",
"Q  c #A89166",
"!  c #A2957A",
"~  c #A5997C",
"^  c #A8997B",
"/  c #B29E7B",
"(  c #AEA17E",
")  c #CDAC5F",
"_  c #D1AC5F",
"`  c #D8B054",
"'  c #D1AF7C",
"]  c #C5A566",
"[  c #E2C474",
"{  c #716E80",
"}  c #7A7887",
"|  c #7C7B8B",
" . c #757383",
".. c #827E8C",
"X. c #868282",
"o. c #8A8684",
"O. c #8C8984",
"+. c #8D8A8A",
"@. c #86838E",
"#. c #918D8B",
"$. c #928B82",
"%. c #99958D",
"&. c #848291",
"*. c #8D8999",
"=. c #898695",
"-. c #928E9B",
";. c #999693",
":. c #9D9A95",
">. c #9B959B",
",. c #9E9A9B",
"<. c #969295",
"1. c #A08F8C",
"2. c #A79B81",
"3. c #A39987",
"4. c #A09B9E",
"5. c #ADA388",
"6. c #B1A484",
"7. c #B9AB87",
"8. c #B5A88A",
"9. c #BAAC8C",
"0. c #B2A78A",
"q. c #BFB18E",
"w. c #A8A49F",
"e. c #A6A29C",
"r. c #B4A994",
"t. c #BEB194",
"y. c #BDB29C",
"u. c #938FA1",
"i. c #9A96A5",
"p. c #A19DA8",
"a. c #A5A1AD",
"s. c #AFAAAA",
"d. c #A8A5A4",
"f. c #B1ADAC",
"g. c #B8A9AD",
"h. c #B6B2AE",
"j. c #BCB5A6",
"k. c #AAA6B4",
"l. c #B1AEBC",
"z. c #B1ABB4",
"x. c #BBB6B2",
"c. c #BDBAB5",
"v. c #B6B3BA",
"b. c #BAB5B6",
"n. c #C1B69A",
"m. c #CBBD9A",
"M. c #C5B998",
"N. c #CAB48E",
"B. c #C6BBA4",
"V. c #C3BDBB",
"C. c #C1BDB5",
"Z. c #C2ADB5",
"A. c #D8C799",
"S. c #E1CF97",
"D. c #D5C9A5",
"F. c #DACBA6",
"G. c #C5C1BC",
"H. c #CAC4BD",
"J. c #D7CDB6",
"K. c #DBD1B4",
"L. c #E1D3A9",
"P. c #EBD9B1",
"I. c #EEE2B8",
"U. c #F4E6B0",
"Y. c #BBB6C1",
"T. c #BEBAC4",
"R. c #C2BDC3",
"E. c #C2BDCC",
"W. c #C9C4C2",
"Q. c #CDCAC5",
"!. c #C5C2CC",
"~. c #CAC5C8",
"^. c #D2CDCA",
"/. c #D0CBC1",
"(. c #D5D1CC",
"). c #D9D2C9",
"_. c #CEC9D3",
"`. c #C8C6D0",
"'. c #D4CED8",
"]. c #DAD4D3",
"[. c #DEDAD5",
"{. c #DBD6DB",
"}. c #DEDBDB",
"|. c #D6D3D7",
" X c #E3DEDB",
".X c #E0D9D7",
"XX c #E0D6C6",
"oX c #E6E1DE",
"OX c #E8E1DD",
"+X c #F2EDDD",
"@X c #E9E5CA",
"#X c #DCD9E4",
"$X c #E2DDE4",
"%X c #E1DDE9",
"&X c #EAE6E4",
"*X c #EEE9E6",
"=X c #EDE9EA",
"-X c #E6E2E9",
";X c #F1EDE7",
":X c #F1EDEC",
">X c #F5F1EF",
",X c #FBF5E7",
"<X c #EDEAF2",
"1X c #F2EEF4",
"2X c #F5F2F4",
"3X c #F9F5F4",
"4X c #FAF9F7",
"5X c #F9F5FA",
"6X c #FEFDFD",
"7X c #F6F1F8",
"8X c None",
/* pixels */
"8X8X8X8X8X8X8X8X8X8X8X8X8X8X8X8X8X8X8X8X8X8X8X8X8X8X8X8X8X8X8X8X8X8X8X8X8X8X8X8X8X8X8X8X8X8X8X8X8X8X8X8X8X8X8X8X8X8X8X8X8X8X8X8X",
"8X8X8X8X8X8X8X8X8X8X8X8X8X8X8X8X8X8X8X8X8X8X8X8X8X8X8X8X8X8X8X8X8X8X8X8X8X8X8X8X8X8X8X8X8X8X8X8X8X8X8X8X8X8X8X8X8X8X8X8X8X8X8X8X",
"8X8X8X8X8X8X8X8X8X8X8X8X8X8X8X8X8X8X8X8X8X8X8X8X8X8X8X8X8X8X8X8X8X8X8X8X8X8X8X8X8X8X8X8X8X8X8X8X8X8X8X8X8X8X8X8X8X8X8X8X8X8X8X8X",
"8X8X8X8X8X8X8X8X8X8X8X8X8X8X8X8X8X8X8X8X8X8X8X8X8X8X8X8X8X8X8X8X8X8X8X8X8X8X8X8X8X8X8X8X8X8X8X8X8X8X8X8X8X8X8X8X8X8X8X8X8X8X8X8X",
"8X8X8X8X8X8X8X8X8X8X8X8X8X8X8X8X8X8X8X8X8X8X8X8X8X8X8X8X8X8X8X8X8X8X8X8X8X8X8X8X8XN.8X8X8X8X8X8X8X8X8X8X8X8X8X8X8X8X8X8X8X8X8X8X",
"8X8X8X8X8X8X8X8X8X8X8X8X8X8X8X8X8X8X8X8X8X8X8X8X8X8X8X8X8X8X8X8X8X8X8X8X8X8X8X8X8X` 8X8X8X8X8X8X8X8X8X8X8X8X8X8X8X8X8X8X8X8X8X8X",
"8X8X8X8X8X8X8X8X8X8X8X8X8X8X8X8X8X8X8X8X8X8X8X8X8X8X8X8X8X8X8X8X8X8X8X8X8X8X8X8X,XN.8X8X8X8X8X8X8X8X8X8X8X8X8X8X8X8X8X8X8X8X8X8X",
"8X8X8X8X8X8X8X8X8X8X8X8X8X8X8X8X8X8X8X8X8X8X8X8X8X8X8X8X8X8X8X8X8X8X8X8X8X8X8X8X[ ] 8X8X8X8X8X8X8X8X8X8X8X8X8X8X8X8X8X8X8X8X8X8X",
"8X8X8X8X8X8X8X8X8X8X8X8X8X8X8X8X8X8X8X8X8X8X8X8X8X8X8X8X8X8X8X8X8X8X8X8X8X8X8X8Xm.8X8X8X8X8X8X8X8X8X8X8X8X8X8X8X8X8X8X8X8X8X8X8X",
"8X8X8X8X8X8X8X8X8X8X8X8X8X8X8X8X8X8X8X8X8X8X8X8X8X8X8X8X8X8X8X8X8X8X8X8X8X8X8X8X[ 8X8X8X8X8X8X8X8X8X8X8X8X8X8X8X8X8X8X8X8X8X8X8X",
"8X8X8X8X8X8X8X8X8X8X8X8X8X8X8X8X8X8X8X8X8X8X8X8X8X8X8X8X8X8X8X8X8X8X8X8X8X8X8X@XF 8X8X8X8X8X8X8X8X8X8X8X8X8X8X8X8X8X8X8X8X8X8X8X",
"8X8X8X8X8X8X8X8X8X8X8X8X8X8X8X8X8X8X8X8X8X8X8X8X8X8X8X8X8X8X8X8X8X8X8X8X8X8X8X` H 8X8X8X8X8X8X8X8X8X8X8X8X8X8X8X8X8X8X8X8X8X8X8X",
"8X8X8X8X8X8X8X8X8X8X8X8X8X8X8X8X8X8X8X8X8X8X8X8X8X8X8X8X8X8X8X8X8X8X8X8X8X8X6XH 8X8X8X8X8X8X8X8X8X8X8X8X8X8X8X8X8X8X8X8X8X8X8X8X",
"8X8X8X8X8X8X8X8X8X8X8X8X8X8X8X8X8X8X8X8X8X8X8X8X8X8X8X8X8X8X8X8X8X8X8X8X8X8XH ) 8X8X8X8X8X8X8X8X8X8X8X8X8X8X8X8X8X8X8X8X8X8X8X8X",
"8X8X8X8X8X8X8X8X8X8X8X8X8X8X8X8X8X8X8X8X8X8X8X8X8X8X8X8X8X8X8X8X8X8X8X! K T M.m & 8X8X8X8X8X8X8X8X8X8X8X8X8X8X8X8X8X8X8X8X8X8X8X",
"8X8X8X8X8X8X8X8X8X8X8X8X8X8X8X8X8X8X8X8X8X8X8X8X8X8X8X8X8X8X8X8Xo % e t.T m.D.A.L.8X8X8X8X8X8X8X8X8X8X8X8X8X8X8X8X8X8X8X8X8X8X8X",
"8X8X8X8X8X8X8X8X8X8X8X8X8X8X8X8X8X8X8X8X8X8X8X8X8X8X8X8X8X8X8XM e 3 ! 0.J 5.U Y Z 4 8X8X8X8X8X8X8X8X8X8X8X8X8X8X8X8X8X8X8X8X8X8X",
"8X8X8X8X8X8X8X8X8X8X8X8X8X8X8X8X8X8X8X8X8X8X8X8X8X8X8X8X8X8X* e ! Z 2.1.g.J.%.,.S 8X8X8X8X8X8X8X8X8X8X8X8X8X8X8X8X8X8X8X8X8X8X8X",
"8X8X8X8X8X8X8X8X8X8X8X8X8X8X8X8X8X8X8X8X8X8X8X8X8X8X8X8X8X3 K u 6.6.A y.Z.R.(..XC.f.o.8X8X8X8X8X8X8X8X8X8X8X8X8X8X8X8X8X8X8X8X8X",
"8X8X8X8X8X8X8X8X8X8X8X8X8X8X8X8X8X8X8X8X8X8X8X8X8X8X8X8X8X- ^ E C 9.n.:.~.^.].i.p.1X=X~.+.8X8X8X8X8X8X8X8X8X8X8X8X8X8X8X8X8X8X8X",
"8X8X8X8X8X8X8X8X8X8X8X8X8X8X8X8X8X8X8X8X8X8X8X8X8X8X8X8X@ y y 9.F.n.C.^.&X~.~.#X%X1X-X%Xi.8X8X8X8X8X8X8X8X8X8X8X8X8X8X8X8X8X8X8X",
"8X8X8X8X8X8X8X8X8X8X8X8X8X8X8X8X8X8X8X8X8X8X8X8X8X8X8X9 t M 6.y.n.B.V.5X6X#Xs.Y.l.k.s.E.a.8X8X8X8X8X8X8X8X8X8X8X8X8X8X8X8X8X8X8X",
"8X8X8X8X8X8X8X8X8X8X8X8X8X8X8X8X8X8X8X8X8X8X8X8X8X8X8X4 u V R J U c.G.4X6X5XE.&.< D 3.0 8X8X8X8X8X8X8X8X8X8X8X8X8X8X8X8X8X8X8X8X",
"8X8X8X8X8X8X8X8X8X8X8X8X8X8X8X8X8X8X8X8X8X8X8X8X8X8X8X2 3 V C 0.;.V.G.3X6X1XR.8X8X9 $.0 8X8X8X8X8X8X8X8X8X8X8X8X8X8X8X8X8X8X8X8X",
"8X8X8X8X8X8X8X8X8X8X8X8X8X8X8X8X8X8X8X8X8X8X8X8X8X8X8XT y L 7.Z e.G.W.>X6X6X'.8X8XX * r.8X8X8X8X8X8X8X8X8X8X8X8X8X8X8X8X8X8X8X8X",
"8X8X8X8X8X8X8X8X8X8X8X8X8X8X8X8X8X8X8X8X8X8X8X8X8X8Xy 3 9 9.2.Z ;.G.].>X6X6X#X} 8X8X8X8X8X8X8X8X8X8X8X8X8X8X8X8X8X8X8X8X8X8X8X8X",
"8X8X8X8X8X8X8X8X8X8X8X8X8X8X8X8X8X8X8X8X8X8X8X8X8X8X8XK 0.t.^ I w.W.(.>X4X6X%X&.8X8X8X8X8X8X8X8X8X8X8X8X8X8X8X8X8X8X8X8X8X8X8X8X",
"8X8X8X8X8X8X8X8X8X8X8X8X8X8X8X8X8X8X8X8X8X8X8X8X8X8X@ A 9.( Y #.C.W.G.].oX5X-X*.8X8X8X8X8X8X8X8X8X8X8X8X8X8X8X8X8X8X8X8X8X8X8X8X",
"8X8X8X8X8X8X8X8X8X8X8X8X8X8X8X8X8X8X8X8X8X8X8X8X8X8X4 E L ~ x ;.x.H. X*XoX{._.*.8X8X8X8X8X8X8X8X8X8X8X8X8X8X8X8X8X8X8X8X8X8X8X8X",
"8X8X8X8X8X8X8X8X8X8X8X8X8X8X8X8X8X8X8X8X8X8X8X8X8X8XV y % S ;.f.h.W.OX;X4X3X#X>.k 8X8X8X8X8X8X8X8X8X8X8X8X8X8X8X8X8X8X8X8X8X8X8X",
"8X8X8X8X8X8X8X8X8X8X8X8X8X8X8X8X8X8X8X8X8X8X8X8X8X8Xw w #.s.G.c.c.G.OX;X5X6X2Xv.} 8X8X8X8X8X8X8X8X8X8X8X8X8X8X8X8X8X8X8X8X8X8X8X",
"8X8X8X8X8X8X8X8X8X8X8X8X8X8X8X8X8X8X8X8X8X8Xg #.#.#.;.d.x.H.[.[.x.,.].4X6X6X5X{.-.j 8X8X8X8X8X8X8X8X8X8X8X8X8X8X8X8X8X8X8X8X8X8X",
"8X8X8X8X8X8X8X8X8X8X8X8X8X8X8X8X8X8 l d h e.c.(.H.x.c.G.^.[.OX3X*X;.s.oX6X*X}.'.-.| 8X8X8X8X8X8X8X8X8X8X8X8X8X8X8X8X8X8X8X8X8X8X",
"8X8X8X8X8X8X8X8X8X8X8X8X8X8X8X8Xv.s x z h.(.OX XQ.^.^.(.oX*X6X6X6X].o.G.oX6X7X!.&.@.8X8X8X8X8X8X8X8X8X8X8X8X8X8X8X8X8X8X8X8X8X8X",
"8X8X8X8X8X8X8X8X8X8X8X8X8X8X8X8XX.I w x.^. X3X[.Q.(.).[.&X4X6X6X6X-X;.X.G.2X6X#X@.(.h.d.#.8X8X8X8X8X8X8X8X8X8X8X8X8X8X8X8X8X8X8X",
"8X8X8X8X8X8X8X8X8X8X8X8X8X8X8X6 ,.a o.H. X].3X*XQ.Q.Q.oX.X4X4X6X6X2X~.h z _.2X1X{.>X^.}.=Xz.8X8X8X8X8X8X8X8X8X8X8X8X8X8X8X8X8X8X",
"8X8X8X8X8X8X8X8X8X8X8X8X8X8X8X,.-.6 +.~.[.(.:X3X&XG.G.[..X&X2X2X5X<XE...> l oX6X|.:.s.s.=X4XV.g 8X8X8X8X8X8X8X8X8X8X8X8X8X8X8X8X",
"8X8X8X8X8X8X8X8X8X8X8X8X8X8XX.T.k 6 X.G.[.(.6X6X6X].h.x.^.].#X-X%X_.a.p 8X# x =X3Xv.8X1 $.H.].^.:.8X8X8X8X8X8X8X8X8X8X8X8X8X8X8X",
"8X8X8X8X8X8X8X8X8X8X8X8X8Xw R.p.8X4 l d.].Q.4X6X6X5Xv.w.z.v.Y.Y.l.u.j < 8X8X# :. X1X8X8XJ L.K.(.(.Y B 8X8X8X8X8X8X8X8X8X8X8X8X8X",
"8X8X8X8X8X8X8X8X8X8X8X8X8Xf.l.8X8X6 g +.C.Q.=X6X6X5Xk.l ..=.=.| { 5 , 8X8X8X8X* #.-X8X8Xy J D.n.D A.A.Q 8X8X8X8X8X8X8X8X8X8X8X8X",
"8X8X8X8X8X8X8X8X8X8X8Xd d.p.8X8X8X8Xd h w.G.OX6X6X<X} i > > > , $ 8X8X8X8X8X8XY B.[.l.8X8Xy Y N.= b n 8X8X8X8X8X8X8X8X8X8X8X8X8X",
"8X8X8X8X8X8X8X8X8X8Xx ,.-.8X8X8X8X8X8X6 d d.].6X6XT.f j > 8X8X8X8X8X8X8X8X8XC A.K.oX!.8X8X= 0 8X8X8X8X8X8X8X8X8X8X8X8X8X8X8X8X8X",
"8X8X8X8X8X~ 7.V ~ j.4. .8X8X8X8X8X8X8X1 o.c.(.>X#X .{  .8X8X8X8X8X8X8X8X8Xo A @XI.+X!.8X8X8X8X8X8X8X8X8X8X8X8X8X8X8X8X8X8X8X8X8X",
"8Xe m.E = 2.D.P.I.r.8X8X8X8X8X8X8XO.:.o.d.x.G.v...} *.j 8X8X8X8X8X8X8X8X8Xe P m.m.).l.8X8X8X8X8X8X8X8X8X8X8X8X8X8X8X8X8X8X8X8X8X",
"# 4 r 9.m.m.F.y.7.8X8X8X8X8X8X8Xs d.c.c.e.@.g i &.*.i 8X8X8X8X8X8X8X8X8X8X8X& + % G.R.8X8X8X8X8X8X8X8X8X8X8X8X8X8X8X8X8X8X8X8X8X",
"8X8Xy R n.y.! ~ 0 8X8X8X8X8X8X8Xg x.=Xz.i . 7 >...5 8X8X8X8X8X8X8X8X8X8X8X8X8X@ v m.L.8X8X8X8X8X8X8X8X8X8X8X8X8X8X8X8X8X8X8X8X8X",
"8X8XN.C T Y D.W 8X8X8X8X8X8X8X8XO.].`.5   7 z.i.5 8X8X8X8X8X8X8X8X8X8X8X8X8X8X8Xb I.U.: 8X8X8X8X8X8X8X8X8X8X8X8X8X8X8X8X8X8X8X8X",
"8X8X8X8X8X8X8X8X8X8X8X8X8X8X8XT j.=Xa.8X  l &X-X4.8X8X8X8X8X8X8X8X8X8X8X8X8X8X8X8X8XB - 8X8X8X8X8X8X8X8X8X8X8X8X8X8X8X8X8X8X8X8X",
"8X8X8X8X8X8X8X8X8X8X8X8X8X8Xu 6.J.1Xi.8X8X1 V.4X X,.8X8X8X8X8X8X8X8X8X8X8X8X8X8X8X8X8X8X8X8X8X8X8X8X8X8X8X8X8X8X8X8X8X8X8X8X8X8X",
"8X8X8X8X8X8X8X8X8X8X8X8X8X8XM 8.).%X8X8X8X8Xg ^.;X:Xa.8X8X8X8X8X8X8X8X8X8X8X8X8X8X8X8X8X8X8X8X8X8X8X8X8X8X8X8X8X8X8X8X8X8X8X8X8X",
"8X8X8X8X8X8X8X8X8X8X8X8X8Xu ( n.x.-Xf 8X8X8X* J./.>X`.8X8X8X8X8X8X8X8X8X8X8X8X8X8X8X8X8X8X8X8X8X8X8X8X8X8X8X8X8X8X8X8X8X8X8X8X8X",
"8X8X8X8X8X8X8X8X8X8X8X8X8Xu 6.D.B.x.E 8X8X8X8Xq.E XXH./ 8X8X8X8X8X8X8X8X8X8X8X8X8X8X8X8X8X8X8X8X8X8X8X8X8X8X8X8X8X8X8X8X8X8X8X8X",
"8X8X8X8X8X8X8X8X8X8X8X8X+ @ J r N G N.N.: 8X8X2 3 P Q S._ 8X8X8X8X8X8X8X8X8X8X8X8X8X8X8X8X8X8X8X8X8X8X8X8X8X8X8X8X8X8X8X8X8X8X8X",
"8X8X8X8X8X8X8X8X8X8X8X8X8X8XL 8X; : B b q 8X1 & 8Xc v G B 8X8X8X8X8X8X8X8X8X8X8X8X8X8X8X8X8X8X8X8X8X8X8X8X8X8X8X8X8X8X8X8X8X8X8X",
"8X8X8X8X8X8X8X8X8X8X8X8X8X8X8X8X8X8X8X8X8X8X8X8X8X8X8X8X8X8X8X8X8X8X8X8X8X8X8X8X8X8X8X8X8X8X8X8X8X8X8X8X8X8X8X8X8X8X8X8X8X8X8X8X",
"8X8X8X8X8X8X8X8X8X8X8X8X8X8X8X8X8X8X8X8X8X8X8X8X8X8X8X8X8X8X8X8X8X8X8X8X8X8X8X8X8X8X8X8X8X8X8X8X8X8X8X8X8X8X8X8X8X8X8X8X8X8X8X8X",
"8X8X8X8X8X8X8X8X8X8X8X8X8X8X8X8X8X8X8X8X8X8X8X8X8X8X8X8X8X8X8X8X8X8X8X8X8X8X8X8X8X8X8X8X8X8X8X8X8X8X8X8X8X8X8X8X8X8X8X8X8X8X8X8X",
"8X8X8X8X8X8X8X8X8X8X8X8X8X8X8X8X8X8X8X8X8X8X8X8X8X8X8X8X8X8X8X8X8X8X8X8X8X8X8X8X8X8X8X8X8X8X8X8X8X8X8X8X8X8X8X8X8X8X8X8X8X8X8X8X",
"8X8X8X8X8X8X8X8X8X8X8X8X8X8X8X8X8X8X8X8X8X8X8X8X8X8X8X8X8X8X8X8X8X8X8X8X8X8X8X8X8X8X8X8X8X8X8X8X8X8X8X8X8X8X8X8X8X8X8X8X8X8X8X8X",
"8X8X8X8X8X8X8X8X8X8X8X8X8X8X8X8X8X8X8X8X8X8X8X8X8X8X8X8X8X8X8X8X8X8X8X8X8X8X8X8X8X8X8X8X8X8X8X8X8X8X8X8X8X8X8X8X8X8X8X8X8X8X8X8X",
"8X8X8X8X8X8X8X8X8X8X8X8X8X8X8X8X8X8X8X8X8X8X8X8X8X8X8X8X8X8X8X8X8X8X8X8X8X8X8X8X8X8X8X8X8X8X8X8X8X8X8X8X8X8X8X8X8X8X8X8X8X8X8X8X",
"8X8X8X8X8X8X8X8X8X8X8X8X8X8X8X8X8X8X8X8X8X8X8X8X8X8X8X8X8X8X8X8X8X8X8X8X8X8X8X8X8X8X8X8X8X8X8X8X8X8X8X8X8X8X8X8X8X8X8X8X8X8X8X8X",
"8X8X8X8X8X8X8X8X8X8X8X8X8X8X8X8X8X8X8X8X8X8X8X8X8X8X8X8X8X8X8X8X8X8X8X8X8X8X8X8X8X8X8X8X8X8X8X8X8X8X8X8X8X8X8X8X8X8X8X8X8X8X8X8X",
"8X8X8X8X8X8X8X8X8X8X8X8X8X8X8X8X8X8X8X8X8X8X8X8X8X8X8X8X8X8X8X8X8X8X8X8X8X8X8X8X8X8X8X8X8X8X8X8X8X8X8X8X8X8X8X8X8X8X8X8X8X8X8X8X"
};
