/* XPM */
static char *unicorn_right_5[] = {
/* columns rows colors chars-per-pixel */
"64 64 221 2 ",
"   c None",
".  c #010101",
"X  c #110C09",
"o  c #13120B",
"O  c #121219",
"+  c #1C1B1B",
"@  c #191817",
"#  c #231C15",
"$  c #2A2318",
"%  c #332D1E",
"&  c #1B1A21",
"*  c #232122",
"=  c #2C2C2B",
"-  c #322B22",
";  c #31292C",
":  c #38332B",
">  c #282736",
",  c #353433",
"<  c #3E3C3D",
"1  c #393637",
"2  c #40311F",
"3  c #42392C",
"4  c #433E37",
"5  c #5B4425",
"6  c #4C4335",
"7  c #45423D",
"8  c #4D463C",
"9  c #564B39",
"0  c #59513E",
"q  c #635137",
"w  c #755C39",
"e  c #6E502C",
"r  c #343342",
"t  c #444443",
"y  c #4D4C4B",
"u  c #4A4643",
"i  c #514D4C",
"p  c #574E41",
"a  c #5A5244",
"s  c #53524D",
"d  c #565042",
"f  c #4B4B5C",
"g  c #484756",
"h  c #555454",
"j  c #5B5858",
"k  c #635B44",
"l  c #645B47",
"z  c #645F5C",
"x  c #6D644E",
"c  c #75684C",
"v  c #6B6352",
"b  c #64615E",
"n  c #6D6657",
"m  c #736B5A",
"M  c #756B54",
"N  c #7C7155",
"B  c #7C735A",
"V  c #5B5A6B",
"C  c #585767",
"Z  c #504D61",
"A  c #605D70",
"S  c #666564",
"D  c #6D6B6A",
"F  c #696668",
"G  c #746E68",
"H  c #7D7563",
"J  c #77706D",
"K  c #6A677A",
"L  c #777472",
"P  c #7E7C7A",
"I  c #7A7777",
"U  c #716F71",
"Y  c #855E30",
"T  c #84653B",
"R  c #9F7D37",
"E  c #A87736",
"W  c #886A43",
"Q  c #8A7347",
"!  c #85765A",
"~  c #887C67",
"^  c #807A7F",
"/  c #C08C3E",
"(  c #98825E",
")  c #AC8448",
"_  c #B18B55",
"`  c #8D816A",
"'  c #888063",
"]  c #93856B",
"[  c #988869",
"{  c #84837C",
"}  c #958C73",
"|  c #998C75",
" . c #9E9174",
".. c #9F957E",
"X. c #A78D73",
"o. c #A5997B",
"O. c #AA9C7C",
"+. c #A69777",
"@. c #B39E78",
"#. c #AF916B",
"$. c #B8A37C",
"%. c #BEA268",
"&. c #CA9644",
"*. c #C1A15B",
"=. c #D8BA66",
"-. c #E6C05D",
";. c #E9C667",
":. c #F4D779",
">. c #787686",
",. c #736F84",
"<. c #847E8D",
"1. c #817E91",
"2. c #848082",
"3. c #8A8583",
"4. c #8C8B85",
"5. c #8C8B89",
"6. c #918D8C",
"7. c #988E89",
"8. c #96948C",
"9. c #888697",
"0. c #918C9D",
"q. c #908C94",
"w. c #939392",
"e. c #9A9592",
"r. c #9D9996",
"t. c #9D9B9A",
"y. c #9B9799",
"u. c #AC9E83",
"i. c #A69C88",
"p. c #A19C9A",
"a. c #ADA58A",
"s. c #B2A583",
"d. c #BBAD8B",
"f. c #B5A88A",
"g. c #BDB08C",
"h. c #A5A29D",
"j. c #A6A098",
"k. c #B5AB96",
"l. c #BEB293",
"z. c #9896A5",
"x. c #958EA1",
"c. c #A39EAB",
"v. c #A39FB1",
"b. c #A5A3A2",
"n. c #ABA3A3",
"m. c #ADA9A5",
"M. c #ADAAAC",
"N. c #A8A4AA",
"B. c #B2ADAB",
"V. c #B5ABA7",
"C. c #B5B3AD",
"Z. c #BBB4A4",
"A. c #ACA8B7",
"S. c #B5ADB9",
"D. c #B5B2B2",
"F. c #BAB5B4",
"G. c #BDBBB6",
"H. c #BCB7BA",
"J. c #C3B38D",
"K. c #C4B493",
"L. c #C5BA94",
"P. c #CCBB95",
"I. c #CCBD9C",
"U. c #C3B69C",
"Y. c #D1BE96",
"T. c #C2BDBB",
"R. c #C5B9BA",
"E. c #C8BEA3",
"W. c #D4C39D",
"Q. c #DDC995",
"!. c #CEC099",
"~. c #EBD08E",
"^. c #D6C8A2",
"/. c #C5C3BD",
"(. c #C8C4BA",
"). c #D2C8AF",
"_. c #E5D4A9",
"`. c #EBDBB5",
"'. c #F9ECB7",
"]. c #F5EAAB",
"[. c #BAB6C5",
"{. c #BCB9CA",
"}. c #C4BEC7",
"|. c #CBC5C4",
" X c #CECBC5",
".X c #C8C4CA",
"XX c #D1CBC5",
"oX c #D2CDCA",
"OX c #DDCFC1",
"+X c #D5D3CD",
"@X c #DBD5CE",
"#X c #CAC7D4",
"$X c #DBD6D3",
"%X c #DCDAD4",
"&X c #D8D5D7",
"*X c #D2CDDF",
"=X c #E4DCD5",
"-X c #E3DDDB",
";X c #E8DFDB",
":X c #F5E9C3",
">X c #E4E1DC",
",X c #EBE4DE",
"<X c #FFFAD6",
"1X c #DBD5E4",
"2X c #DBD8E4",
"3X c #E3DBE6",
"4X c #E6E3E3",
"5X c #EBE4E3",
"6X c #E5E2EC",
"7X c #EDEAEC",
"8X c #EBE7EA",
"9X c #F2EDEB",
"0X c #F5F3ED",
"qX c #FDF8E5",
"wX c #ECE5F2",
"eX c #F3EEF3",
"rX c #F5F3F4",
"tX c #F9F5F4",
"yX c #FBF9F6",
"uX c #FEFDFD",
"iX c #F9F4FC",
/* pixels */
"                                                                                                                                ",
"                                                                                                                                ",
"                                                                                                                                ",
"                                                                                                                                ",
"                                                                                                                                ",
"                                                                                                                                ",
"                                                                                                                                ",
"                                                                                                                                ",
"                                                                                                                                ",
"                                                                                                                        -._     ",
"                                                                                                                    tX;.        ",
"                                                                                                                  / *.          ",
"                                                                                  M :                         uX:.&.            ",
"                                                                              $ k ~ x m o.@.g.+.0         #.;.) w               ",
"                                                                        % M [ N } } f.K.W.g.d.s.v q     ~.;.R                   ",
"                                                                    2 + B +.x ! K.u.B _.` ` n ~ W.K.qX:.T Y                     ",
"                                                                $ 0 3 p ! ` f.6 ^.P.! L.P.4.F } s.'.e %.Y                       ",
"                                                                k a v k [ a.^.^.] _.+.d.U.<.7.f.O.W.~ 8                         ",
"                                                                . o 3 a. .i.l.^.s.U.m.C.B.R.C.Z.d :X!.~ 7                       ",
"                                                              $ d.v N a H d H Z.D.G. XoX X|.XX.XN.7  .7                         ",
"                                                            l l N $ ] ] ~ } 3.F.B.+X%XT.G.oXG.eX}.F 3 u                         ",
"                                                            a d 6 } $.}  .8.B.C.|.5X>XB.B.XXt F.[.9.                            ",
"                                                            v L.` u.H P.~ r./.m.-XyX7X4.p. Xw.q.1X.X                            ",
"                                                          ! m 9 +.~ +.G 3.(.B.R.8XuXuXH.{ n..X3XuX8XI                           ",
"                                h i = 3.6.                M  .J.] L.i.e.h.T.G.oXrXuXuXrXK y 2.oX>XuXA.                          ",
"                                j 6.h.F.C.p.y j z i       M % M +.~ e.C.G.oX X-XtXrXiXwX0.  i 6.C.rX2X                          ",
"                              . j D G D 3.p.h.p.8.3.I S y u i b P P n.oX%X$X&X9X9XrXeX1X9.l s.I V.n.S.C                         ",
"                              i 5.j 3.b./.oXXX%X$X XG.B.b.b.m.m.p.3.C.oX,X9X5XrX4XrXwX#X,.$ +.G 3 5.K                           ",
"                              h s { C.T.@X;X=X0X9X=X X X|. X|./.m.b.B.G.>X9XyXyX9XeX6X[.K X , 4 L                               ",
"                              t b p.+X/.%X5X-X0X5X%X+X@X$X$X+X$X|.T.n.N.%XuXuXuXrX8X2XA.f - 8 o.                                ",
"                            . < G B.-XXX+XtX+X X$X%X$X@X%X$X$X=X$Xt.G.G./.0XuXuXrX3X*Xz.Z                                       ",
"                            o < P B.$X X$XrX&XD.|.oX+X+X;X-X5X,X,Xm.n.$X>XT.yXuXyX3X#Xv.K                                       ",
"                            @ < D n./.B.$XtX4XD.F./.oX X;X-XuX>X5XT.4.oXyX;XrXuXuXwX{.c.K                                       ",
"                            * 1 j 6.T.m.+X9X7X|.h.C.|./.$X$X9X-X%XH.S F.0X9X9XuXuXwX{.0.,.                                      ",
"                            * , t L B.m.|.rXrX&Xp.r.D.B./. X&X%X Xn.D 6.XX>X$XuXiX6XS.>.f                                       ",
"                            , 1 4 s 5.t.C.%XuX8XD.2.t.h.m.|.T.$X Xy.S 4. X>X-X3X3X#X9.V                                         ",
"                          + h g = < F w.n.|.8XrXoXb L p.r.F.D..XT.w.h I F.,XuX2X[.x.V N.z.                                      ",
"                          s A     $ * b e./.-XrXwXi h S 2.w.b.N.b.2.t y b.oX6X3X9.C M.8XM.                                      ",
"~ 1   K.: f.} [ ^.N X 6 h >.      < z P r.F.7XiX.X+ + < s S I 1.I V 1 & 5.B.&X#XO D 4XuX5X5.                                    ",
"  9 # +.K.q x | J.Y.J.d.{     S y.3.3.h.m.C.oX}.V r > > O * > 1 > >   O P e..Xv.  < /.5XtX&Xg                                   ",
"  7 v m j I.O.W.^.I.`.I.n   h e.h.r.{ L 3.2.>.f r r                     D m.T.0.k 4 L F.4XwX9.                                  ",
"      3 v O.(.a.| n ..l     t G |.G.^ y = & * F V                       j /.&XB.O.! u.J M.A.1.                                  ",
"          N ` ] O.o.:         4 4.$X8Xy.. + F 0.g                       D  XtXS.L.+...e.c.9.C                                   ",
"            k ' i.              i w. X=XU y z.[.K                       S (.uX{.[ m V.|.0.g                                     ",
"                                @ ` E.XXrXy.H.2X9.                      1 r.4XD.).m.oXA.f                                       ",
"                                  u. .Z.4X1X}.iXA.                      9 D oXOXyXG.z.C                                         ",
"                                  N f.i.M..X XuX6X1.                    o.K.T.S.y.K >                                           ",
"                              $ : ; ! c +X}.T.tXuXx.                  c L.a.D.H.T                                               ",
"                                  q W L.<XQ.j.oXiX#X                3.d.`.'.(.6X>.                                              ",
"                                    q :X<X=.B `.yX-Xk.              1 H _.I.W.rX9.                                              ",
"                                      6 @.( 3 d.Z.u.@._               _.P.`.d.+XH.                                              ",
"                                        9 e 8 } ) '.'.=.5             - u.p 4 k.>XP                                             ",
"                                                W ~.].$.                X - x X.k.[ E                                           ",
"                                                                          : w ( Q._.Q 5                                         ",
"                                                                            w 9 Q X.! !                                         ",
"                                                                                                                                ",
"                                                                                                                                ",
"                                                                                                                                ",
"                                                                                                                                ",
"                                                                                                                                ",
"                                                                                                                                ",
"                                                                                                                                ",
"                                                                                                                                ",
"                                                                                                                                "
};
