/* XPM */
static char *unicorn_right_1[] = {
/* columns rows colors chars-per-pixel */
"64 64 221 2 ",
"   c None",
".  c #040402",
"X  c #0D0C0A",
"o  c #120C09",
"O  c #1C160D",
"+  c #1A1919",
"@  c #211D18",
"#  c #2B2419",
"$  c #362D1E",
"%  c #3B311D",
"&  c #1E1C23",
"*  c #272628",
"=  c #342E25",
"-  c #3A3325",
";  c #3A322B",
":  c #2A2936",
">  c #3C3B3B",
",  c #373433",
"<  c #40311F",
"1  c #473929",
"2  c #453D37",
"3  c #4B402D",
"4  c #5A4628",
"5  c #4B4332",
"6  c #46433C",
"7  c #4D463A",
"8  c #544C3A",
"9  c #534834",
"0  c #5B513A",
"q  c #614E34",
"w  c #685738",
"e  c #6C502D",
"r  c #78603D",
"t  c #3A3947",
"y  c #403E51",
"u  c #403E4C",
"i  c #444343",
"p  c #4C4A43",
"a  c #4D4645",
"s  c #5D5442",
"d  c #5B574C",
"f  c #4C4B5A",
"g  c #555453",
"h  c #5D5C5B",
"j  c #595656",
"k  c #554E48",
"l  c #665E4C",
"z  c #625C59",
"x  c #746548",
"c  c #6B6353",
"v  c #64625E",
"b  c #6A6453",
"n  c #746B55",
"m  c #776E59",
"M  c #7B725A",
"N  c #7E7256",
"B  c #6F644F",
"V  c #595769",
"C  c #514F61",
"Z  c #656363",
"A  c #6A6964",
"S  c #6D6C6B",
"D  c #666366",
"F  c #726E6D",
"G  c #756C65",
"H  c #72706C",
"J  c #7C7465",
"K  c #646374",
"L  c #6D6B7C",
"P  c #7C7A7C",
"I  c #787477",
"U  c #855D2C",
"Y  c #986A30",
"T  c #A77737",
"R  c #9B7A4B",
"E  c #887B5B",
"W  c #896C4C",
"Q  c #AB7D4B",
"!  c #877A68",
"~  c #847E7C",
"^  c #897A76",
"/  c #D8A23E",
"(  c #9D8452",
")  c #A98958",
"_  c #8D836C",
"`  c #8C8164",
"'  c #95896D",
"]  c #898476",
"[  c #948974",
"{  c #9A8E73",
"}  c #93887A",
"|  c #9F957D",
" . c #A59474",
".. c #A8997C",
"X. c #AD9368",
"o. c #B5A47F",
"O. c #AAA17E",
"+. c #CB9746",
"@. c #DBB558",
"#. c #CCA552",
"$. c #EEB746",
"%. c #DAB966",
"&. c #CBB16C",
"*. c #E5BE6E",
"=. c #D6C17C",
"-. c #EED073",
";. c #787787",
":. c #858483",
">. c #8B8685",
",. c #8C8985",
"<. c #8E8B89",
"1. c #87848B",
"2. c #938F89",
"3. c #93918D",
"4. c #9B9488",
"5. c #8E8C9D",
"6. c #848193",
"7. c #928E9B",
"8. c #959392",
"9. c #999592",
"0. c #9D9B94",
"q. c #9D9B9A",
"w. c #99959E",
"e. c #A89C89",
"r. c #A39D9B",
"t. c #A29A95",
"y. c #ADA182",
"u. c #AEA588",
"i. c #B2A383",
"p. c #BBAA88",
"a. c #A4A19C",
"s. c #B5AB98",
"d. c #9A95A4",
"f. c #9E9BAB",
"g. c #9895A6",
"h. c #A69FA7",
"j. c #A39FB2",
"k. c #AAA6A2",
"l. c #ACAAA5",
"z. c #A7A4A8",
"x. c #B2ACA7",
"c. c #B2ADAA",
"v. c #B4B2AD",
"b. c #B6B3AA",
"n. c #AAA6B7",
"m. c #B2ADB7",
"M. c #BAB4B3",
"N. c #BDBBB5",
"B. c #BBB7BC",
"V. c #B9B5B8",
"C. c #C1B28D",
"Z. c #C4B593",
"A. c #CBBB96",
"S. c #C9BB99",
"D. c #C2B8A9",
"F. c #C3BDBB",
"G. c #C2BCB2",
"H. c #D5C49D",
"J. c #D6C597",
"K. c #E9D99B",
"L. c #E7D08D",
"P. c #DBCBA3",
"I. c #D7C6A2",
"U. c #C5C2BD",
"Y. c #C9C2B6",
"T. c #D1C7B2",
"R. c #E2D5AB",
"E. c #EBDDA0",
"W. c #EBDBB3",
"Q. c #F2E7B4",
"!. c #BDBBCB",
"~. c #B9B6C1",
"^. c #C5BEC5",
"/. c #D2BCC1",
"(. c #C6C2C3",
"). c #CBC5C4",
"_. c #CDCAC5",
"`. c #CAC6CC",
"'. c #D3CDCB",
"]. c #D3CFC7",
"[. c #D5D2CD",
"{. c #D9D4CD",
"}. c #CAC5D4",
"|. c #C7C5D2",
" X c #D2CCD8",
".X c #DBD5D4",
"XX c #DDDAD4",
"oX c #DFDCDB",
"OX c #D6D3D7",
"+X c #E5DDD6",
"@X c #E3DDDB",
"#X c #E8DFDF",
"$X c #F8EDCC",
"%X c #FCF6C6",
"&X c #E4E2DC",
"*X c #EBE4DD",
"=X c #E8E8DF",
"-X c #FDF7DA",
";X c #F7E9DA",
":X c #DAD7E4",
">X c #E5DEE6",
",X c #E4E2E2",
"<X c #EBE4E3",
"1X c #E6E4EC",
"2X c #EAE4EC",
"3X c #EEEBEC",
"4X c #EDEAE5",
"5X c #F0EAE6",
"6X c #F2EBEC",
"7X c #F8EFEF",
"8X c #F4F1ED",
"9X c #FCF9E5",
"0X c #ECE5F2",
"qX c #EDECF4",
"wX c #F1ECF6",
"eX c #F4F2F3",
"rX c #FAF5F4",
"tX c #FCFAF4",
"yX c #FAF6FA",
"uX c #FEFDFD",
"iX c #F5F4FA",
/* pixels */
"                                                                                                                                ",
"                                                                                                                                ",
"                                                                                                                                ",
"                                                                                                            %.                  ",
"                                                                                                          #.                    ",
"                                                                                                        -X+.                    ",
"                                                                                                      @.@.                      ",
"                                                                                                    tXT U                       ",
"                                                                                                    *.$.                        ",
"                                                                                                  T Y                           ",
"                                                                                                ;XE.4                           ",
"                                                                                      s [     / Y )                             ",
"                                                                          1   7 m { ..{ 9 r 9X*.U                               ",
"                                                                        = m - M H.O.b P.S.K.L.-.W                               ",
"                                                                      O # 9 ' Z.[ ] t.[ G p.A.o.s ,                             ",
"                                                                    M 0  .e. .y.i.s.h.D.p.M Q.i.i.                              ",
"                                                                    5 9 c o...n i.e./.x.[ 0.6 d e.                              ",
"                                                                o %  .u._ n R.C.J t.h.v.'.M.z., l                               ",
"                                                              1 3 s n | R. .Z.s.9.N.c._.9.#XB.7.                                ",
"                                                            ; 2 n 8 _ S.P.I.2.r._.M.l.).> P ^.'.I                               ",
"                                                              2 @ ' ! b m Z.9.M.[.^.9.M.U.[.yXuX(.j                             ",
"                                                            . O 5 ` { { b 3.0._.XX'.:.0.(..X6X8XrX(.                            ",
"                                                             .n 5 [ ! ..] a.0..XrXuXB.P ;.w.B.F.3X<Xz.                          ",
"                                                            N B 8 ` P.n ~ l.a.{.uXuXuXOXV : F a.F.4.n.                          ",
"                                                          [ i.y.l M c z :.k.M.{.uXuXuX1X6.  ' [ ! q.L                           ",
"                                  <.H D c.M.                n % 8 Z.J k.a.k.)..X4XrXuX0X6.l d y.Z L                             ",
"                                * j l.0.k.q.D Z A D g     # o ; A...I v.Y.F.].=X8X8XuX2Xf.  # > J                               ",
"                                :.,.a F <.a.c.c.k.q.<.P S g h H :.3.>.).XX[._.<X3X3XyX1Xf.    , !                               ",
"                              Z 8.h ,.a.F.[.{..X#X+X'.N.c.x.v.M.k.9.r.U.'.<X=X5X8XuXiX>Xf.t   <                                 ",
"                              ~ h I v.F.'.&X&XeXtX*X{._._._._._.U.l.k.M.M.#XtXeXuXrXqX:Xd.y                                     ",
"                            * D j 9.U.'.[.*X&X+X5X@XXX{.[..X{.[.+Xc.G.M.M.@XuXuXuXwX:X X5.V                                     ",
"                            i a v r.'.XXU.5X<X_.'.XX{.XX.XXXXX.X4XU.q.M.@X.XXXuXuXyX:X}.j.K                                     ",
"                            2 i S a.[.[._.6X8XU.F.'.).XX.X&X=X@X6X{.3.9.@XtX&XrXuXuX0X|.j.;.                                    ",
"                            > 6 v r.'.M.oXiXeXM.c.U.F.[.'.<X4X6X5XXX0.S U.tXuXrXuXuX0X!.f.;.                                    ",
"                            > > h t._.M.&XeX5X).0.l.v.).).XX.X3X{.{.l.z 9..XuX*XuXuX0Xn.6.;.                                    ",
"                            > 6 p 3.N.M.,X3XoX'.8.9.q.M.c._.U.@X{._.k.A ] M.<X.X@X0X:Xf.L K                                     ",
"                            i t 6 I a.v.,X7XoX.X<.I >.l.0.M.(.)..X^.q.A A M..XuXyX Xm.K V                                       ",
"                            f t p Z 2.x..X6X,XOXd.z v :.0.a.V.m.`.B.3.A > 3.F.,XiX}.C V ;.                                      ",
"                          . D   , i I v.'.,X2X X1., i j G :.8.h.h.z.P g , j c.).1X}.V d.L                                       ",
"                          + 1.  X Z ] q.).OX1Xn.t : X * 2 g D I ;.K f : : + <.v.OX}.f.m.                                        ",
"                          p q.  , F r.c._.1X^.: * t     X + + * : :         p ^.).}. Xn.                                        ",
"                          ] s.  ; H 0.a.c.d.f y t                           @ c.XX1X1X7.                                        ",
"                        ` Z.R.S v ~ >.8.K t K f                             . <.@XuX}.f.                                        ",
"                       ...P.} ,.8.q.1.u & L f.5.                              F '.uX}.;.                                        ",
"                    s H.o.p.~ k.).m.V . > z.wX}.                              8 k.&X|.n.                                        ",
"                    - $X' _ j v.2X;.    * q.2XuXB.                          8 M A B.!.g.                                        ",
"                    p , M j j c.qX5.    . Z U.<XuX(.                      C.{ $XD.(.~.g.                                        ",
"                  $ 3 ' N 6 d l.yXg.      n 0._.uXiX5.                  # y.W.Z.x.`.~.!.                                        ",
"                = y.! H.l 5  .x.yXm.      - A.t.+XyX!.                2 # A.R.W.G.|.'.|.K                                       ",
"                  J _ { 2 c M T.eX!.      - J ` T.uX>X}                 s y.R.S.Y.B.'.0Xd.                                      ",
"                ; 7 S.p p d [ s.3X:X      ; = m { A.J.%.4                 # 2 d v.h.N.*Xs.@.                                    ",
"            6 >   4.      B p.[ ,.wX          q ) %X%X-.1                 9 x 2.,XI Q -XQ.#.4                                   ",
"                        9 E l W.! G...&.        1 w E E                   W L.-X5X^ w &.K.%.1                                   ",
"                        1 s # m R X.H.) 4                                 4 =.9X-.    9 4 8                                     ",
"                        W.    R w X.%XL.1                                   3 ( )                                               ",
"                                                                              3 q                                               ",
"                                                                                                                                ",
"                                                                                                                                ",
"                                                                                                                                ",
"                                                                                                                                ",
"                                                                                                                                ",
"                                                                                                                                ",
"                                                                                                                                ",
"                                                                                                                                "
};
