/* XPM */
static char *unicorn_left_4[] = {
/* columns rows colors chars-per-pixel */
"64 64 224 2 ",
"   c None",
".  c #080806",
"X  c #130B05",
"o  c #1C1507",
"O  c #131312",
"+  c #1B1916",
"@  c #0E0B14",
"#  c #231D13",
"$  c #28231A",
"%  c #362918",
"&  c #3F321F",
"*  c #181822",
"=  c #211F25",
"-  c #2A2827",
";  c #332C26",
":  c #3B352A",
">  c #282739",
",  c #353534",
"<  c #3D3C3D",
"1  c #3B3834",
"2  c #473A27",
"3  c #423D37",
"4  c #4D412C",
"5  c #5A4324",
"6  c #4D4333",
"7  c #45423D",
"8  c #4F4936",
"9  c #534C3B",
"0  c #534838",
"q  c #5C523B",
"w  c #57503B",
"e  c #695437",
"r  c #6D5736",
"t  c #7E623D",
"y  c #363645",
"u  c #3D3C4B",
"i  c #3C3A50",
"p  c #403F45",
"a  c #444243",
"s  c #4E4C4C",
"d  c #474448",
"f  c #554E47",
"g  c #59534A",
"h  c #484757",
"j  c #5D5B5B",
"k  c #585753",
"l  c #505056",
"z  c #625543",
"x  c #645B46",
"c  c #665C4A",
"v  c #605D5E",
"b  c #6B614C",
"n  c #6C6353",
"m  c #68645D",
"M  c #736A55",
"N  c #776D58",
"B  c #7D735B",
"V  c #7C7258",
"C  c #535263",
"Z  c #5C5B6B",
"A  c #5C5B66",
"S  c #635F68",
"D  c #6C6969",
"F  c #666566",
"G  c #706F6A",
"H  c #746C63",
"J  c #7D7562",
"K  c #74726D",
"L  c #7A7468",
"P  c #676675",
"I  c #747371",
"U  c #7D7979",
"Y  c #797677",
"T  c #726F7F",
"R  c #886338",
"E  c #956930",
"W  c #AB7833",
"Q  c #99774B",
"!  c #837A5F",
"~  c #847457",
"^  c #90744F",
"/  c #A17C44",
"(  c #847B63",
")  c #847C6A",
"_  c #897D65",
"`  c #807C77",
"'  c #967C6E",
"]  c #CA933A",
"[  c #B28748",
"{  c #A98B5B",
"}  c #8B836C",
"|  c #93896E",
" . c #96876B",
".. c #84837F",
"X. c #9A8E78",
"o. c #9C9275",
"O. c #A5977A",
"+. c #B29F7C",
"@. c #AE9065",
"#. c #AFA27F",
"$. c #B7A27C",
"%. c #C5974D",
"&. c #D4A84C",
"*. c #EBBB51",
"=. c #C1AA72",
"-. c #DCC47E",
";. c #F3CF6C",
":. c #747383",
">. c #7A7789",
",. c #7F7E91",
"<. c #897F86",
"1. c #868382",
"2. c #8A8584",
"3. c #8C8A84",
"4. c #8A878C",
"5. c #938D8C",
"6. c #95918D",
"7. c #9C9887",
"8. c #848392",
"9. c #8D8994",
"0. c #908D9D",
"q. c #959494",
"w. c #9D9A95",
"e. c #9B9698",
"r. c #8F908C",
"t. c #A59B84",
"y. c #A29D9B",
"u. c #A6989A",
"i. c #B29F80",
"p. c #ADA284",
"a. c #AFA589",
"s. c #B3A383",
"d. c #BDAC8A",
"f. c #B7A887",
"g. c #BDB28E",
"h. c #A4A29D",
"j. c #ABA79E",
"k. c #B3AC98",
"l. c #BDB295",
"z. c #9A99A6",
"x. c #A69EAC",
"c. c #A6A5A4",
"v. c #ABA5A4",
"b. c #ACABA4",
"n. c #ADAAAB",
"m. c #A6A3A8",
"M. c #B2ADAB",
"N. c #B2A9A5",
"B. c #B5B2AD",
"V. c #B8B2AA",
"C. c #ABA9BA",
"Z. c #B2AEB5",
"A. c #B5B2B4",
"S. c #BAB3B3",
"D. c #BCB9B3",
"F. c #BBB7BA",
"G. c #C3B28D",
"H. c #CDBC8E",
"J. c #C9BB9A",
"K. c #C9BA95",
"L. c #C0AE8A",
"P. c #C2BCBB",
"I. c #C4B8B9",
"U. c #CCBDA3",
"Y. c #D3C39B",
"T. c #D9C89C",
"R. c #CAC29B",
"E. c #E9D08D",
"W. c #D6C8A3",
"Q. c #C4C2BD",
"!. c #C8C4B8",
"~. c #CDC0A3",
"^. c #E6D4AB",
"/. c #ECDFAB",
"(. c #E5D8B2",
"). c #E1CFA6",
"_. c #F5EAB7",
"`. c #B8B5C5",
"'. c #C2BEC8",
"]. c #C6BFD0",
"[. c #CAC5C3",
"{. c #CDCBC5",
"}. c #CBC4CC",
"|. c #CFCBCB",
" X c #D4CECB",
".X c #D3CDC7",
"XX c #D6D2CD",
"oX c #DAD3CE",
"OX c #C5C2D2",
"+X c #CBC7D5",
"@X c #D3CDD6",
"#X c #DAD4D2",
"$X c #DCDAD3",
"%X c #DCD5DB",
"&X c #DDDCDC",
"*X c #D7D0D6",
"=X c #E2DAD6",
"-X c #E3DDDA",
";X c #E4DBD7",
":X c #F7EBC1",
">X c #E3E1DA",
",X c #E9E4D8",
"<X c #FDFAD8",
"1X c #DDDAE3",
"2X c #D8D4E2",
"3X c #E3DCE6",
"4X c #ECE4E3",
"5X c #ECE9E3",
"6X c #E5E2EE",
"7X c #ECEAEA",
"8X c #E9E4E9",
"9X c #F3ECEB",
"0X c #F0EBE7",
"qX c #F7F4EC",
"wX c #ECE9F2",
"eX c #F2EDF3",
"rX c #F0E7F3",
"tX c #E7FCF8",
"yX c #F5F4F5",
"uX c #F9F5F3",
"iX c #FCFBF5",
"pX c #FBF5FC",
"aX c #FEFDFD",
"sX c #F3F0FB",
/* pixels */
"                                                                                                                                ",
"                                                                                                                                ",
"                                                                                                                                ",
"                                                                                                                                ",
"                                                                                                                                ",
"                                                                                                                                ",
"                                                                                                                                ",
"  4X                                                                                                                            ",
"  [ W                                                                                                                           ",
"    [ E.tX                                                                                                                      ",
"      W ;.                                                                                                                      ",
"        E &.iX                                                                                                                  ",
"          Q &.%.                      ;                                                                                         ",
"            R *.@.tX      B K.+.3 g 2 o.~ 8 X                                                                                   ",
"              e E ]   ( $.M O.d.^.Y.m s.6 c B #.#                                                                               ",
"                  / [ qX~.K._ } ( K.+.o.a.O.! b w .                                                                             ",
"                  ~ R @.T.N L U t.a. .O./.z N G.s.( 6 N                                                                         ",
"                  7 U.K.p.J l.u.e.d.B ).(.( p.3 V z n n                                                                         ",
"                  0 W.t.V XXt.I.m.k.7.~.d.Y.^.W.#.G.6 ; :                                                                       ",
"                  : M c z.F.#X[.D. XQ.S.b.l.p.m s f b c n o                                                                     ",
"                    ; 3.'.7XB. XP.P.$XXXM.V.` n X.V ! 9 O.B q                                                                   ",
"                      z.].F.a [.M.M.&X>XD.B.j.7.| c f.c b 9 6                                                                   ",
"                      %X1Xe.q.[.w.5.eXyX;Xb.P.w.( G.s.p.f 0                                                                     ",
"                    m.aXyX1X|.v.3.S.aXaX9XP.S.B.Y o.| f.G.R.g z                                                                 ",
"                  T 3XaX=XP.8.j F eXaXaXuX{.B.Q.q.L d.B _ o.}                       .                                           ",
"                  Z.8X XS.K -   9.wXaXiXuX$X[.[.D.h.2.g.d.N d. .              M.w.y.I 2.D                                       ",
"                  0.' D.1. .    8.6XaX9XyX4X#XXXXX[.h.G ) l.+ # 2 a v D I I K ` 5.q.w.1.; }.                                    ",
"                  C T q.a.V ~   :.2XsXqX7X9X-X=X=XXXb...e.3.` K I 1.6.c.B.D.D.B.h.3.m s w.<                                     ",
"                      N g ;     S OX6XeX5XuX9X0X4X[.B.q.y.D.D.D.D.P.{.$X5X4XXX=X{.M.w.F U U                                     ",
"                      d.1 #     Z C.3XeXyXaXuXuX$Xb.v.B.D. X{. X X X.X$X5XaX4X4X$XQ.Q.6.k Y -                                   ",
"                      p.        C z.1X6XyXaXaXyX Xb.B.b.XX;XoXoX#XoX#X$X$X>XoX9X#X[.#Xv.D s s                                   ",
"                                h z.+X1XpXaXiX{. X Xb.c.-X;X-X$X-XXXXX#XXXQ. XiXXX{.$XM.U 7 s                                   ",
"                                h x.OXrXaXaXyX#X9XXX3.D.5X,XqX>X-X.X X{.[.M.4XaX-X[.XXB.U 7 a .                                 ",
"                                y 0.OXpXaXaXyX0X0XD.G [.4X>XiX=X=X[.{.P.B.S.7XaX-XQ.[.B.G 7 p O                                 ",
"                                  ,.`.sXaXaX$X0X X2.F {. X-X-XXX XP.D.v.w.}.yXiX$XS.P.y.j , d +                                 ",
"                                  P C.3XeX&X$X>XM.I K F.{.-X[.[.A.c.b.6.5.3XyXiX#XB.D.2.7 < C ,                                 ",
"                                  h :.'.*XiXuXXXM.k U S. X XF.Q.h.v.r.Y e.7XyXiX[.v.e.F 7 1 Z k                                 ",
"                                    u :.2XyX;XD.3.< Y v.'.A.B.b.6.3.j k c.eXaX-XD.w.3.p 7     U +                               ",
"                                      y OX3X[.b.s - A 8.z.z.q.1.D g 7 - `.eX7X#XP.5.s -       >.v                               ",
"                                      T ].*Xv.2.O > u l A P j d , $ * > C 2XyX=XS.w.r.g       >.e.J % o                         ",
"                                    8.|.OXP.A.s           = *       u u > :.@X@XS.M.y.I U I ,   H J.J.G.g._ # 0                 ",
"                                    0.8X1X|.n.O                       h P l Z 9.q.5...3.5.v.y.j g J._.W.K.t.! 0 4 #.            ",
"                                    8.OXpX#X5.o . ( -                 Z C.c.d @ y l F 4.n.Q.w.s   f l.o.d.Y.~ o.O.| X 8 (       ",
"                                    i ].aX{.Y $ z !                     Z.&Xr.,     > h A.&X3.3   $ ) } | N B J k ) c k         ",
"                                    h OX4XN.a $ c e                     @X2Xn.<         +X%X5.h     H J.~ M M c 1 7             ",
"                                    P %XS.j @ - ~ @.                  }.pX%X5.O         @X=X5.-         X 0   : &               ",
"                                    P 8Xj.H + a !._.Q               n.pXrXS.1           @X4XJ.O.                                ",
"                                    z.%Xy.Y.0 A N.@.e             M.yXiX|.I           8.wX=XK.) J J %                           ",
"                                    3X XW.K.! y z 4 2           8.eXaX#Xh.f           :.6X[.X.B q                               ",
"                                  8.yXW.(.(.s.o               ) @XaX.XN.J.3             z.F.) ^ ^                               ",
"                                <.%X*XY.^.W.t.o             ^ L.$X9X^.( O.V               9.,X<XH.                              ",
"                              t +.=Xk.6 M | z             5 %.G.$.t.a.3 1                 :.:XiXE.                              ",
"                            5 Q +. .Q 9 + + %             0 E.:X_./ i.a   2                 _ { r                               ",
"                            z -._.=.t % 1                 q e c q 2                         # q &                               ",
"                                                                                                                                ",
"                                                                                                                                ",
"                                                                                                                                ",
"                                                                                                                                ",
"                                                                                                                                ",
"                                                                                                                                ",
"                                                                                                                                ",
"                                                                                                                                ",
"                                                                                                                                ",
"                                                                                                                                "
};
