/* XPM */
static char *unicorn_left_6[] = {
/* columns rows colors chars-per-pixel */
"64 64 228 2 ",
"   c None",
".  c #020201",
"X  c #0C0C07",
"o  c #150D07",
"O  c #17120C",
"+  c #181615",
"@  c #211E15",
"#  c #211E1C",
"$  c #301C0F",
"%  c #2B261B",
"&  c #282219",
"*  c #372E1D",
"=  c #232329",
"-  c #2C2B2A",
";  c #282524",
":  c #332E27",
">  c #3A3325",
",  c #38342C",
"<  c #282734",
"1  c #3C3A35",
"2  c #3D3C3B",
"3  c #333234",
"4  c #48301C",
"5  c #433B2E",
"6  c #473C27",
"7  c #453D34",
"8  c #5A4526",
"9  c #4A433A",
"0  c #5C4D33",
"q  c #554B3B",
"w  c #594C3C",
"e  c #675437",
"r  c #6F5430",
"t  c #353344",
"y  c #3B3A4B",
"u  c #413F50",
"i  c #444343",
"p  c #4B4A49",
"a  c #4A4745",
"s  c #534C41",
"d  c #524C4A",
"f  c #5B5244",
"g  c #54524C",
"h  c #5C554A",
"j  c #484755",
"k  c #565555",
"l  c #5B5958",
"z  c #514F50",
"x  c #645B45",
"c  c #635D4C",
"v  c #665844",
"b  c #625E59",
"n  c #6C634C",
"m  c #6A6458",
"M  c #766C57",
"N  c #7C7258",
"B  c #706649",
"V  c #565467",
"C  c #4F4D62",
"Z  c #6B6564",
"A  c #64646B",
"S  c #6D6B6C",
"D  c #676663",
"F  c #7E7662",
"G  c #78746D",
"H  c #696776",
"J  c #757372",
"K  c #7A7877",
"L  c #716D6C",
"P  c #AA751E",
"I  c #8A6736",
"U  c #976E39",
"Y  c #A5712B",
"T  c #897249",
"R  c #9A7847",
"E  c #83755B",
"W  c #86785B",
"Q  c #936F49",
"!  c #A17C4D",
"~  c #867B64",
"^  c #857D7A",
"/  c #907C61",
"(  c #B0833A",
")  c #E7AF39",
"_  c #9E815D",
"`  c #A68349",
"'  c #A78757",
"]  c #BF8A41",
"[  c #8D8169",
"{  c #93856B",
"}  c #978769",
"|  c #85827D",
" . c #898577",
".. c #948A72",
"X. c #9B8E73",
"o. c #948976",
"O. c #9A9176",
"+. c #AD9A77",
"@. c #A2957A",
"#. c #A49A7C",
"$. c #AC9C7C",
"%. c #A29475",
"&. c #AF9266",
"*. c #BBA16E",
"=. c #CA9547",
"-. c #D5A54C",
";. c #C2AA7C",
":. c #CEB164",
">. c #E7C35F",
",. c #E3C579",
"<. c #EED076",
"1. c #7D7B8D",
"2. c #787686",
"3. c #807C85",
"4. c #858482",
"5. c #8A8583",
"6. c #8B8A83",
"7. c #8C898C",
"8. c #928B8B",
"9. c #908E87",
"0. c #94938C",
"q. c #9F9284",
"w. c #8A8894",
"e. c #948D95",
"r. c #9B9594",
"t. c #9C9B9A",
"y. c #999993",
"u. c #AB9D84",
"i. c #A69B87",
"p. c #A29D9C",
"a. c #A39B96",
"s. c #B39D90",
"d. c #ADA486",
"f. c #B2A584",
"g. c #B5A986",
"h. c #B8AA8B",
"j. c #A4A29D",
"k. c #B8AD95",
"l. c #BEB290",
"z. c #9D9BAC",
"x. c #9995A4",
"c. c #968FA1",
"v. c #A29EA5",
"b. c #A5A4A3",
"n. c #AAA4A3",
"m. c #ABAAA4",
"M. c #AEABA8",
"N. c #A7A3AB",
"B. c #B2ADAA",
"V. c #B3B2AD",
"C. c #BBB8AB",
"Z. c #ACA9B4",
"A. c #AAA8B7",
"S. c #BBB5B3",
"D. c #BCBAB4",
"F. c #BDB9B8",
"G. c #B8B5B8",
"H. c #B4ADB9",
"J. c #C2B38E",
"K. c #C8B080",
"L. c #C4B593",
"P. c #CCBC9A",
"I. c #C7B996",
"U. c #CDB58F",
"Y. c #C9BEA2",
"T. c #C4BEBC",
"R. c #C0B9B7",
"E. c #D4C49E",
"W. c #D9C791",
"Q. c #CEC19C",
"!. c #E4D394",
"~. c #E3CF85",
"^. c #FAE89E",
"/. c #D8CAA3",
"(. c #DFD1AB",
"). c #C5C2BC",
"_. c #D5CEBB",
"`. c #E1D3AB",
"'. c #EBD7AD",
"]. c #E9DBB1",
"[. c #ECE2B5",
"{. c #F4E8B6",
"}. c #F8EBB2",
"|. c #BAB5C2",
" X c #BAB7CA",
".X c #B1AFC2",
"XX c #C4BEC2",
"oX c #C2BECB",
"OX c #C8BFC0",
"+X c #CBC5C2",
"@X c #CDCAC5",
"#X c #CAC6C8",
"$X c #D3CDCB",
"%X c #D7CFC6",
"&X c #D5D2CC",
"*X c #DBD4CD",
"=X c #CCC9D6",
"-X c #D4CED4",
";X c #DAD4D2",
":X c #DDDCD5",
">X c #D5D1DD",
",X c #DBD7D9",
"<X c #E3DDD6",
"1X c #E2DCDB",
"2X c #E0D7DC",
"3X c #E3DACC",
"4X c #FEF7C6",
"5X c #E6E2DC",
"6X c #E8E4DC",
"7X c #EFE5D5",
"8X c #F8EBC1",
"9X c #DAD7E4",
"0X c #E3DDE8",
"qX c #E7E3E5",
"wX c #EBE4E4",
"eX c #EBE6E9",
"rX c #F1ECEA",
"tX c #F1EAE7",
"yX c #F6F2EE",
"uX c #EFEAF1",
"iX c #ECE6F2",
"pX c #F2EDF3",
"aX c #F2EBFB",
"sX c #F6F3F4",
"dX c #FAF4F5",
"fX c #FEFDFD",
"gX c #F8F5FA",
"hX c #EFF0F0",
/* pixels */
"                                                                                                                                ",
"                                                                                                                                ",
"                                                                                                                                ",
"                                                                                                                                ",
"                                                                                                                                ",
"                                                                                                                                ",
"                                                                                                                                ",
"                                                                                                                                ",
"                                                                                                                                ",
"    yX                                                                                                                          ",
"      ] P fX                                                                                                                    ",
"        -.,.=.                                                                                                                  ",
"          I ( 4XfX                    f , x / > O                                                                               ",
"              ' Y )           7 I.$./.`.{ N E 9 @ +                                                                             ",
"                8 *.=.K.  ;...M / W @.X.Q.F { $.} E n &                                                                         ",
"                    r ( R 7X(.L.[.h N Y./...#.g.n x f.N @ 4                                                                     ",
"                      r <.i.}.} ~ l q.L.d.[ /._.x u.m M w 1 q %                                                                 ",
"                      9 f +.I./ P.8.e.C.g.@./.} ].`.g.@.x M h f                                                                 ",
"                        k.f.#.f G.D.v.+XOXS.C.k.E.u.X...{ > # O                                                                 ",
"                        a N z XXqX@X&XT.+X;XS.B.k.c s m m x N f o                                                               ",
"                        2 7 e.|.qXr.$XF.T.,X$Xn.C.5.g.c @.[ > E v e                                                             ",
"                            x.|.7.+ $Xn.G.1XtXR.B.b.q.@.J.h.g s 1 :                                                             ",
"                            >XuXF.XXF.0.M.dXfX$Xm.).5.~ g.~ L.f.c q                                                             ",
"                          H uXsX2XZ.4.Z hXfXfX*XS.D.n.J ..X.$.h.{ f e                                                           ",
"                          A.fX&XR.Z t oXfXfXfX5X@XS.@X0.0.J.L.{ X.@.                n.m.| J z                                   ",
"                          =XwXV.r.~ j .XgXfXwXsX:X@X&XR.F.G X.W % > 6     k m D b l n.V.r.y.K i                                 ",
"                          N.^ p.G J.h A.uXfX5XfX6X&X;X$X).4.4.S D k g D K 6.r.j.M.M.p.5.Z b m .                                 ",
"                          j A s m ~ - z.0XgX1XfXrX:X5X*X).t.y.n.m.V.B.B.S.@X:X5X;X$X$XD.r.K S Z                                 ",
"                                c : @ w.>XiXfXfXfXrXrX@XD.t.M.D.+X@X@X@X@X&X6XdXyX1X<X@XS.b.l a                                 ",
"                                u.~ - 2.=XiXfXfXfXfXdXT.n.B.S.*X&X;X:X&X&X:X<XtX5X5X:X$X$XD.6.i #                               ",
"                                    V 1. X0XpXfXfXfX:X).D.m.D.wX;X<X:X;X:X&X;X&X+XtXwX+X1X@X0.g +                               ",
"                                    2.z.oX9XiXfXfX6X+XtXS.r.$XrX1XtX5X;X:X+X$XS.).rXtX@X<X@X0.k -                               ",
"                                    z.z. X9XgXfXfX5XrX5Xm.0.,XrXwXyX5X*X&X).).m.&XsXrX).S.+X5.z -                               ",
"                                    c.x..X=XgXfXfX5XfX;X8.4.$X;XwX1X:X@X+XS.M.V.1XfX5XT.B.T.J 9 +                               ",
"                                    H w.x. XaXfXsX;X5XV.J 4.T.+XqX+X#XB.S.j.0.+XpXfX1XS.M.j.l 1 .                               ",
"                                    c.A 1.A.9XeX;X1X1XM.Z K B.#X&XS.F.t.m.6.| ,XsXsX+Xm.t.J 2 1 .                               ",
"                                  H >Xz.C 1.H.oXpXdX&Xm.a J n.#XG.G.n.r.5.m t.pXdX;XT.p.9.p p = O                               ",
"                                  z.sXrXN.p 1. XqX,XT.6.3 H e.b.z.t.4.L k a Z.sXpX;XM.| k i ; t 3 O           n X.5 X.h.. &     ",
"                                  |.fXfXS.1 3 1.>X#Xb.| = j A J 2.A z 2 % O t >XfX&Xn.0.K -   j l g ; @ % '.g.@.W B [.v M 9     ",
"                                v.rXsX1X8..   y A.G.9.| =   < < < = +       u 1.=XT.B.j.J 1     C S 6.E.[.J./.F %._.9 s :       ",
"                              D =XfX$XC.:       H Z.0.0.3                     t H e.t.0.5.D Z     f.F Y.(.P.h.I.$.%.n X         ",
"                              oX9XqXj.k         t z.V.M.s                         y H K 4.4.| S     @.~ o.m F m #.L.            ",
"                            p 9X9XG.d             z.1X+XJ                           t y 7.B.a.G       - , F d.P.+.              ",
"                            Z.gX0X .:             A.pX&X0.                          4.B.1X&X8.p                                 ",
"                          2.,XfXp.l.[             V >XM.Z X.                    J S.&XT.b.4.1 X                                 ",
"                          H.pXyXI.I.5               |.p.G ..f.                7.qXrXD.u.[ - .                                   ",
"                        3.1XdXa.....X               v.S.P.8X} %.            ^ ,X,Xe.Y.E.X.O @ +                                 ",
"                      U s.3Xb.J.E.N x               2.+Xa.L.E.{           Q &.u.{ `.P.f.- . > 5                                 ",
"                    4 <.4X}.E L.n 1 0               w.1XL.`.h.9         8 ` ^.!.` +.X.2 + X - > @                               ",
"                    q ,.!.` 0 W 9 g.                x.eXJ.l.`.[.        w +.~._ 0 0 3 a + @ # > *                               ",
"                        r 6                       K ,X+XL.P.O.X.                  Q 0 O X @ : 7                                 ",
"                                                  k.%Xo.5 i.M *                 $ ;.&.I r ;                                     ",
"                                                U / { R h q                   s > ;.>.:.e R                                     ",
"                                              4 W.}.*.R 5 9                                                                     ",
"                                                ! T e 8 Q                                                                       ",
"                                                                                                                                ",
"                                                                                                                                ",
"                                                                                                                                ",
"                                                                                                                                ",
"                                                                                                                                ",
"                                                                                                                                ",
"                                                                                                                                ",
"                                                                                                                                ",
"                                                                                                                                "
};
