/* XPM */
static char *unicorn_left[] = {
/* columns rows colors chars-per-pixel */
"64 64 219 2 ",
"   c None",
".  c #0C0C0A",
"X  c #040305",
"o  c #18130C",
"O  c #191718",
"+  c #261C0C",
"@  c #221D15",
"#  c #321F10",
"$  c #29241A",
"%  c #342618",
"&  c #3E301D",
"*  c #1D1B27",
"=  c #262524",
"-  c #28272D",
";  c #2E2B29",
":  c #332D2B",
">  c #342E24",
",  c #3A342A",
"<  c #2A2937",
"1  c #373739",
"2  c #312F3C",
"3  c #443B2B",
"4  c #43362A",
"5  c #443E3A",
"6  c #443B34",
"7  c #563E21",
"8  c #664417",
"9  c #4D432F",
"0  c #5B472A",
"q  c #4C4333",
"w  c #4A433C",
"e  c #424039",
"r  c #52493A",
"t  c #5C533C",
"y  c #674E2C",
"u  c #775D3A",
"i  c #70532E",
"p  c #7C683E",
"a  c #3C3B43",
"s  c #3C3B49",
"d  c #444443",
"f  c #47464D",
"g  c #534E4C",
"h  c #554D43",
"j  c #5E5543",
"k  c #5F584E",
"l  c #454354",
"z  c #4D4B57",
"x  c #545252",
"c  c #5A5756",
"v  c #665C48",
"b  c #645C57",
"n  c #6C634B",
"m  c #74654D",
"M  c #6B6354",
"N  c #6B645E",
"B  c #766C58",
"V  c #7E745C",
"C  c #545264",
"Z  c #5D5B69",
"A  c #504E60",
"S  c #615F65",
"D  c #656363",
"F  c #6D6B6B",
"G  c #696666",
"H  c #736A69",
"J  c #75736D",
"K  c #7C7466",
"L  c #696777",
"P  c #716C78",
"I  c #757373",
"U  c #7C7A74",
"Y  c #7A7777",
"T  c #96662D",
"R  c #AB7D3A",
"E  c #947744",
"W  c #86775A",
"Q  c #8A7152",
"!  c #AB7F48",
"~  c #857B62",
"^  c #8A7D63",
"/  c #807660",
"(  c #817D7D",
")  c #837C73",
"_  c #907F63",
"`  c #B8843C",
"'  c #CC992D",
"]  c #9E844F",
"[  c #A68755",
"{  c #B68C4A",
"}  c #8E846D",
"|  c #92876C",
" . c #958A6E",
".. c #9A8A6B",
"X. c #83817E",
"o. c #8D8578",
"O. c #988C75",
"+. c #9D9275",
"@. c #9D927A",
"#. c #A6997B",
"$. c #B29D7A",
"%. c #AB936C",
"&. c #C18D45",
"*. c #C79B5D",
"=. c #D1A95E",
"-. c #CEB374",
";. c #F0D052",
":. c #ECCA6F",
">. c #726E81",
",. c #7E7C8D",
"<. c #777584",
"1. c #817C86",
"2. c #858484",
"3. c #8A8582",
"4. c #8E8B89",
"5. c #8B8986",
"6. c #938B88",
"7. c #95928E",
"8. c #9B9387",
"9. c #8A8899",
"0. c #928B99",
"q. c #949293",
"w. c #9A9493",
"e. c #9C9B95",
"r. c #9D9C9A",
"t. c #98939B",
"y. c #A59B84",
"u. c #A19C9C",
"i. c #AC9F9A",
"p. c #B09F80",
"a. c #ACA183",
"s. c #B3A383",
"d. c #B8AA8B",
"f. c #A4A29C",
"g. c #ACA397",
"h. c #B6A899",
"j. c #BDB095",
"k. c #9D9AA9",
"l. c #A29BA4",
"z. c #AA9FAF",
"x. c #A4A3A4",
"c. c #ABA5A4",
"v. c #ACAAA5",
"b. c #ADAAAC",
"n. c #A4A1AD",
"m. c #B2ACAA",
"M. c #B0ABA6",
"N. c #B5B2AD",
"B. c #BBB3AE",
"V. c #ADA9B7",
"C. c #B5B2B2",
"Z. c #BBB5B3",
"A. c #BDBAB5",
"S. c #BEB9BB",
"D. c #B5B1BD",
"F. c #C9B688",
"G. c #C4B492",
"H. c #CABB98",
"J. c #C9B589",
"K. c #C6BCA7",
"L. c #C2BDBA",
"P. c #C5B8B6",
"I. c #DCC186",
"U. c #ECDB99",
"Y. c #F2DC92",
"T. c #F3E096",
"R. c #D5C8A4",
"E. c #C5C4BE",
"W. c #C7C2B0",
"Q. c #DDD4B5",
"!. c #D9CFAD",
"~. c #E5D5AC",
"^. c #EBD9AE",
"/. c #E8DEB6",
"(. c #F6EBB4",
"). c #B6B3C2",
"_. c #BCB9C8",
"`. c #C0BCCD",
"'. c #CAC5C3",
"]. c #CCCBC4",
"[. c #C8C5C9",
"{. c #D2CCCA",
"}. c #D5D2CB",
"|. c #DBD5CF",
" X c #C3C1D1",
".X c #CDC9D9",
"XX c #CDC9D6",
"oX c #D2CDD3",
"OX c #D1CCDC",
"+X c #D6D2D2",
"@X c #DBD4D4",
"#X c #DDDAD5",
"$X c #D5D2DD",
"%X c #DAD6DA",
"&X c #E3DBD5",
"*X c #E3DDDB",
"=X c #E9E3DC",
"-X c #E5E3DC",
";X c #FEF7D0",
":X c #DAD6E4",
">X c #E2DBE3",
",X c #E3DDEA",
"<X c #E5DEF0",
"1X c #E4E1E2",
"2X c #EBE4E3",
"3X c #EDEBEA",
"4X c #E7E3EB",
"5X c #F4EDEB",
"6X c #F7F3EE",
"7X c #ECE4F2",
"8X c #EDE9F6",
"9X c #F3ECF6",
"0X c #F5F3F3",
"qX c #FAF4F4",
"wX c #FDF9F5",
"eX c #F5F2FA",
"rX c #F9F3FC",
"tX c #FEFDFD",
"yX c #F7F8F8",
/* pixels */
"                                                                                                                                ",
"                        *.                                                                                                      ",
"                        [ ;X                                                                                                    ",
"                          :.                                                                                                    ",
"                          ] ;.                                                                                                  ",
"                            :.wX                                                                                                ",
"                            R {                                                                                                 ",
"                              ! ;.                                                                                              ",
"                              T Y.                                                                                              ",
"                              0 =.'                                                                                             ",
"                                T -.tX                                                                                          ",
"                                ` (.] F.+ q G.s.  q                                                                             ",
"                                M %.8 R.H.a.j $.d.$ 1                                                                           ",
"                              : k R.!.d.^ G.g.y.#.$.: t #.                                                                      ",
"                                d.+.G.~ a.K.z.i.#.d...3 q o                                                                     ",
"                                | k w f.@.Z.P.f.G.| O. .B o                                                                     ",
"                              s., c m.Z.'.C.c.s. .~ a.+.n m 9                                                                   ",
"                                Z S.[.'.f.L.v.r./ ^.G.v ^ B %                                                                   ",
"                                Z.1XD.f 7.Z.v.A.7.H.^ d.j.@.B o                                                                 ",
"                            D S.5XtXyXN.'.f.r.{.A.2.#././.| 9 n $                                                               ",
"                          1.+XwX*X5X>X+XN.4.m.].{.4.g.G.@.d.+.n w                                                               ",
"                          k.g.'.A.L.x.t.2.3.1X*X#X7.q.b k B | % e 4                                                             ",
"                          0.D.S.3.H d l n.tXtXyX&X7.w.N s.W K q +                                                               ",
"                            b H o.|   Z :XtXtXtX|.e.r.U #.V ~ 5 n 3                                                             ",
"                              K a.v   0.4XtXtX0X{.v.r.F @.R.#.n s._                   c P g                                     ",
"                              V , +   l.7XtX0X2X|.A.r.w.u...+.n b v >             E.L.f.f.r.D                                   ",
"                            3 k 4   L V.8XtX3XqX&XL.Z.v.e.I +.p.O g @ 1 c J Y Y Y U Y ( u.3.F                                   ",
"                                :   L ).8XtX*XtX*XE.}.}.v.3.w.2.Y J U 2.q.c.A.E.L.A.m.w.U D r.J                                 ",
"                                    L _.8XtXwX6X2X=X1X].N.e.r.A.Z.Z.A.L.'.&X2X2X|.#X}.P.m.( b q.:                               ",
"                                    Z ).7XeXqXtX6XqX|.N.c.Z.N.{.{.{.{.}.{.#X5XtX1X2X&X'.{.f.F D G                               ",
"                                    L D.:X,XrXtXtXyX{.m.A.N.{.&X|.@X|.@X@X#X*X*X|.5X|.{.#XZ.X.x G X                             ",
"                                    >. X$X:XtXtXtX{.#X}.Z.r.-X*X*X#X*X|.#X@X}.E.|.wX@X].2XA.4.x g o                             ",
"                                    ,. X$X8XtXtX0X*XwX].3.Z.1X=X6X-X*X}.}.].].A.&XyX2X'.|.L.5.c d O                             ",
"                                  C ,._.OXeXtXtX6XtX0Xv.F A.2X=XtX*X*X'.{.L.N.m.@XyX5X].A.'.X.g 1 O                             ",
"                                  2 >.V. X8XtXtX=XtX].( K ].}.#X-X|.}.S.L.v.u.m.@X3X3X+Xm.E.( d a o                             ",
"                                    L 9.V.,XeX-X+X1Xv.I Y Z.{.*X].].N.c.v.7.5.m.+X4X3X@Xm.Z.F d a O                             ",
"                                    Z C 9.`.XX0XqX@XN.x Y b.oXoXZ.L.f.f.q.U I C.%X4X5X+Xx.w.c f l O                             ",
"                                    z <.A 0..X9X1XL.7.1 I x.'.C.C.b.w.7.N c D b.%X2X2X'.r.4.d a l o                             ",
"                                      k.,.z V.,X{.m.F - S 0.k.u.t.2.I c d ; a 9.oX>X%XE.c.F c - s .                             ",
"                                      0.).,.,.oXZ.r.5 < s C D P S f 1 = . - 2 s V.:X@XE.r.e.J - l                               ",
"                                      <.7X_.L [.v.x.;     * * * O O . X     < < < n.%XE.N.f.J 5 h t                             ",
"                                      0.rX3X4._.S.c.:                         l C 2 >.w.e.w.X.k j h                             ",
"                                      1.rX3Xf.OX#XN.z                           ,.2.1 s Y Y 2.Y 2.M                             ",
"                                      9.:X@Xt.7X0XA.O                           9._.q.$ 2 L c.N.e.2.                            ",
"                                      k..X_.S :X*Xc.2                         9..X,Xl.=   > <.oX'.F $                           ",
"                                      n.4Xm.v $XC.c =                         ).rX>Xq.X   , Z 7XA.D o                           ",
"                                      V.eXu.y.OXv.) q                       P 4XtX'.G X   6 ) rXA.D @                           ",
"                                      OXtXj.y.XXM.~.H.o                     .XtX2XN.M     o.8.tXm.@.%                           ",
"                                    9.>XwXo.} 1Xm.!.J.@.                  ,.<XtX].g.O.    K 0.tX!.} n                           ",
"                                    b.tX'.B Q.eXR.~.^.W &                 V.yX=Xd.d.#.       X0XK.$.M                           ",
"                                  &.K.=X7. .E.5XH.^.~.|               &.-.K.*XP.^ 1 : #   P .X1X) O.v                           ",
"                                7 U.;XI.v o.4XB.V  . .j o             y T.U.%._ M w r &   l.0XX.o.H.~ h                         ",
"                              v v F.J.p i $.W.g.r . w               ^ u T.(.-.u         { ..y.W ~.j r 3                         ",
"                                        i I.~.[ Q = 5                                 y =.U.$.E n > B                           ",
"                                      m Q G.$.u 0                                     0 J.G.E 0                                 ",
"                                                                                                                                ",
"                                                                                                                                ",
"                                                                                                                                ",
"                                                                                                                                ",
"                                                                                                                                ",
"                                                                                                                                ",
"                                                                                                                                ",
"                                                                                                                                ",
"                                                                                                                                "
};
