/* XPM */
static char *unicorn_left_2[] = {
/* columns rows colors chars-per-pixel */
"64 64 211 2 ",
"   c None",
".  c black",
"X  c #0C0B05",
"o  c #0C0B0A",
"O  c #080708",
"+  c #18130A",
"@  c #151315",
"#  c #120905",
"$  c #211D15",
"%  c #29231B",
"&  c #322A1D",
"*  c #1B1B26",
"=  c #2D2D2B",
"-  c #282624",
";  c #3A352B",
":  c #262534",
">  c #353534",
",  c #3B3B3A",
"<  c #3A3738",
"1  c #42361F",
"2  c #443728",
"3  c #453D33",
"4  c #5B411F",
"5  c #494439",
"6  c #534B3D",
"7  c #554935",
"8  c #554A31",
"9  c #664B29",
"0  c #6E5738",
"q  c #755C3B",
"w  c #6A4F31",
"e  c #2F2D42",
"r  c #363543",
"t  c #413F40",
"y  c #434343",
"u  c #4A4944",
"i  c #4D4C4C",
"p  c #45444B",
"a  c #534B41",
"s  c #564E47",
"d  c #5C5647",
"f  c #4A495A",
"g  c #545352",
"h  c #5D5756",
"j  c #5D5A55",
"k  c #5D5B5C",
"l  c #53505A",
"z  c #645C4A",
"x  c #675A42",
"c  c #625C5B",
"v  c #645E53",
"b  c #6D644C",
"n  c #78664A",
"m  c #6A6252",
"M  c #68635D",
"N  c #746B54",
"B  c #746B57",
"V  c #7C735D",
"C  c #535264",
"Z  c #5C5A6C",
"A  c #5C5B65",
"S  c #615E68",
"D  c #615E72",
"F  c #696764",
"G  c #696765",
"H  c #736C69",
"J  c #7C7464",
"K  c #78746A",
"L  c #6A6876",
"P  c #757474",
"I  c #7B7974",
"U  c #7C7B7C",
"Y  c #76727C",
"T  c #956E33",
"R  c #AC7C39",
"E  c #82755B",
"W  c #916E48",
"Q  c #A07B48",
"!  c #847A62",
"~  c #897D64",
"^  c #877E6C",
"/  c #827D7B",
"(  c #807A77",
")  c #BD873D",
"_  c #C58E3E",
"`  c #E4AC37",
"'  c #96815A",
"]  c #A68344",
"[  c #A38456",
"{  c #B99455",
"}  c #B38942",
"|  c #8E836C",
" . c #8D8465",
".. c #968A6C",
"X. c #8D8472",
"o. c #83837D",
"O. c #868177",
"+. c #988C75",
"@. c #9C967B",
"#. c #A39374",
"$. c #A59B7C",
"%. c #A99979",
"&. c #B09F7F",
"*. c #B8A67F",
"=. c #AFA27F",
"-. c #C89444",
";. c #E1BD5A",
":. c #D2AC69",
">. c #E9CA71",
",. c #787586",
"<. c #7F7D90",
"1. c #817F90",
"2. c #837F80",
"3. c #858484",
"4. c #8A8683",
"5. c #8E8C8B",
"6. c #8B8988",
"7. c #928C89",
"8. c #9B9189",
"9. c #898695",
"0. c #949391",
"q. c #9A9492",
"w. c #9D9B95",
"e. c #9A989B",
"r. c #AA9E83",
"t. c #A19C9A",
"y. c #ACA286",
"u. c #B3A584",
"i. c #BBAD8B",
"p. c #B5A989",
"a. c #BDB08C",
"s. c #A6A29D",
"d. c #BEB193",
"f. c #9593A4",
"g. c #9D97A3",
"h. c #8F8BA0",
"j. c #A49EA9",
"k. c #A09EB2",
"l. c #AAA5A3",
"z. c #ACAAA5",
"x. c #ADA9A9",
"c. c #A7A4A9",
"v. c #B2ACAA",
"b. c #B4B1AC",
"n. c #BAB4A8",
"m. c #A7A6B6",
"M. c #BAB5B3",
"N. c #BDBBB6",
"B. c #BDBBBC",
"V. c #B6B2B9",
"C. c #B1ABB2",
"Z. c #C2B18C",
"A. c #CCB984",
"S. c #CBBB96",
"D. c #C7B997",
"F. c #C3BDBB",
"G. c #C2BEB6",
"H. c #C1B5AC",
"J. c #CCC09A",
"K. c #D3C39D",
"L. c #E7D393",
"P. c #F3D58B",
"I. c #F5E298",
"U. c #DACAA6",
"Y. c #DFD2A6",
"T. c #C5C3BD",
"R. c #C8C3BE",
"E. c #C9C2B0",
"W. c #D1CDB4",
"Q. c #EADDB4",
"!. c #E6DCB5",
"~. c #E5D7AA",
"^. c #FDF4BE",
"/. c #F0E3AF",
"(. c #BBB7C6",
"). c #C2BCC3",
"_. c #C2BDCD",
"`. c #CCC4C4",
"'. c #CECAC6",
"]. c #CCC9C9",
"[. c #D3CCCB",
"{. c #D2CDC7",
"}. c #D5D3CD",
"|. c #DAD5CD",
" X c #CCC7D8",
".X c #D6CFD7",
"XX c #DBD5D3",
"oX c #DEDDD6",
"OX c #DEDBDB",
"+X c #D9D5DB",
"@X c #E3DED6",
"#X c #E3DDDA",
"$X c #E8DFDF",
"%X c #F8EDC3",
"&X c #E7E3DC",
"*X c #FCF9CF",
"=X c #DBD9E5",
"-X c #E3DDE5",
";X c #ECE5E4",
":X c #EDE9E5",
">X c #EBE5EB",
",X c #EEEBEA",
"<X c #E6E1E4",
"1X c #F2ECEB",
"2X c #F9F6E9",
"3X c #EDEBF3",
"4X c #F2EDF3",
"5X c #F5F2F2",
"6X c #FAF5F3",
"7X c #FDFCFC",
"8X c #FAF6F9",
/* pixels */
"                                                                                                                                ",
"                                                                                                                                ",
"                                                                                                                                ",
"                                                                                                                                ",
"                                                                                                                                ",
"                                                                                                                                ",
"                                                                                                                                ",
"        :X                                                                                                                      ",
"        [ )                                                                                                                     ",
"          W P.6X                                                                                                                ",
"            T _ -.                                                                                                              ",
"                } :.8X                                                                                                          ",
"                  { `           Z.    N -   5 %.                                                                                ",
"                    ] R 5X      a K.%.%.y.b ~ 6 z +                                                                             ",
"                      w ;.] ..#.#.N ~ y.u.p.=.E  .b E %                                                                         ",
"                        Q :.^.~.#.D./ +.D.S.V S.$.V 6 N o                                                                       ",
"                        6 :.U.H.~ i.3.s.i.+...Q.E V $.#. .3 b                                                                   ",
"                        6 Q.K.D.+.u.H.j.J.V U.K.N U.J x x V $.$ +                                                               ",
"                        % y.B c ].R.M.j.N.l.n.D.Z.!.D.p.a.7 = d                                                                 ",
"                          a X.(.[.}.}.G.T.[.B.x.n.p.F s 5 N ; X X                                                               ",
"                          - L ).>XP T.N.N.|.{.x.b.O.m $.N ! d ! 7                                                               ",
"                            c. X9.* T.v.M.&X#XM.z.l.8...b $.2 | d d                                                             ",
"                          l OX7X<X.XF.q.v.,X6XXXl.N.8.| D.#.+.& 5 m                                                             ",
"                          l.8X1X#XC.5.H OX8X7X:XN.v.v.K ! V u.| J.5                                                             ",
"                        Y =X8XN.x.c r m.7X7X7X5X'.b.F.4.^ u.J a.a m b                                                           ",
"                        <.).M.M.X.  : V.8X7X5X6X$XT.{.b.q.K K.=.%.#.@.              M.v.k H 7.                                  ",
"                        ,.Y v.4.Z.; f k.3X7X,X8X;X[.}.}.M.o.K @.v + -     j F F F F w.z.w.x.c .                                 ",
"                          e k v X.+   f.-X4X:X5X,X|.@XXXT.5.6.5.I F j G U 7.w.z.v.v.s.5.H u o.I                                 ",
"                              z &     9.=X3X4X1X1X1X;X`.T.t.q.l.M.M.v.b.N.{.@X$XXX}.}.F.s.4.k 0.g                               ",
"                            U.B 2     9..X3X,X5X8X8X&XM.v.l.l.T.'.'.'.`.'.|.&X6X6X#X@X[.G.b.K k U                               ",
"                                      1._.+X4X8X7X1X}.`.M.b.l.$X}.|.XX[.|.oX@X:X@X&XoX}.[.F.0.g F <                             ",
"                                    C f.(.-X8X7X8XXX1X@Xb.w.B.;XXXoXoX}.oX}.XX[.`.1X<X`.oX[.w.M p <                             ",
"                                    C f.(.3X7X7X5X6X8X{.5.w.XX1X@X;X&X}.XXF.[.G.R.5X5X'.|.|.e.F t >                             ",
"                                    Z 9.(.4X7X7X4X7X;Xb.P s.@X;X8X;X;X[.}.F.T.v.|.5X5X[.M.[.q.h , =                             ",
"                                    L ,.(.3X7X@X;X1XM.I I B.XX}.:XXXXXR.`.v.z.t.OX1X1X}.x.'.6.i > =                             ",
"                                      Z 9..X-X8X1XXXt.c / v.[.XXOXT.`.l.M.w.0.w.XX,X1X|.z.M./ 5 > >                             ",
"                                      > f k.3X5X&XT.3.g o.x.[.XXG.T.b.w.x.4.P q.OX1X,X[.l.w.h y p u                             ",
"                                        C ).8X-X`.q.i u U t.B.).C.V.t.q.I M c M.-X5X;XB.q.6., y D H                             ",
"                                        C 3X-X[.x.i - = A 3.g.j.t.0.U F g y - e.=X<XXXG.0.k y o   g.u                           ",
"                                        (.4XXXM.y O   * e f D L L k u < % @ = f _.4X#Xb.4.( =     c.5.                          ",
"                                      j.5X;X'.u O .         : : - * @     : < * Z  X}.M.l.2.=     h.).m .                       ",
"                                    9.-X8X|.I * o @ X                         : : L j.l.t./ <       X.d.#.E ~                   ",
"                                    9.5XXXz.r * - , O                           G A Z e.5.3.h S     z *X%XU.Z.u.B               ",
"                                    1.<Xs.M V s h P d                       3.T.,X].k r 5.w.0.o.H     B U.i.S.$.d 6             ",
"                                    Z ).l.U.Y.S.! M |                     `.5X;X[.x.i . D V.T.t.o.    5 r.y.&...& & b           ",
"                                      <.N.n.K.Q.d.O.i.~                 f.4X,XT.0.J       ,.>Xb.h     % u.V d.B ~ ~ N +         ",
"                                        (.R.Q.Q.p.J r.d N               (.8X@Xy.S.a.      9.>Xv.j         ! 5 d 2 a +.x         ",
"                                        f.`.$.m ' [ | 6 5               XX8XXX! B ;       f.8Xx.^           3 J 3 @ m X.        ",
"                                          g.0.S.2X!.m %.b             W >.^.~.[ 9 j       m.7XE.+.b               <             ",
"                                          * P +X/.Y.E z u.            1 >./.Q.w           (.5XW.+.s                             ",
"                                          { x b n 0 a < z             < n n 7           D  X>X4.! N                             ",
"                                        4 L.I.R 8 9 , ;                                 9.=Xv.K i.V &                           ",
"                                      3 T I.I.q 8   3                                   +.|.( %Xa 6 & #                         ",
"                                        x n q 2 1                                     R *.#.W V | ; u.                          ",
"                                                                                    2 A.2XL.W 0                                 ",
"                                                                                                                                ",
"                                                                                                                                ",
"                                                                                                                                ",
"                                                                                                                                ",
"                                                                                                                                ",
"                                                                                                                                ",
"                                                                                                                                ",
"                                                                                                                                ",
"                                                                                                                                "
};
