/* XPM */
static char *unicorn_right_7[] = {
/* columns rows colors chars-per-pixel */
"64 64 225 2 ",
"   c None",
".  c #010101",
"X  c #0C0C06",
"o  c #120F08",
"O  c #1A160C",
"+  c #1D1D1D",
"@  c #181616",
"#  c #211E17",
"$  c #2A231B",
"%  c #372B1A",
"&  c #1D1C29",
"*  c #2C2726",
"=  c #2C2B2A",
"-  c #262527",
";  c #342E26",
":  c #3B332B",
">  c #36322B",
",  c #2A2A35",
"<  c #3B3837",
"1  c #47351C",
"2  c #463925",
"3  c #423C36",
"4  c #5E4726",
"5  c #494136",
"6  c #524634",
"7  c #5A4C35",
"8  c #534B3C",
"9  c #5B4E3B",
"0  c #5B503B",
"q  c #745529",
"w  c #6B5637",
"e  c #6B5232",
"r  c #79613E",
"t  c #393743",
"y  c #454443",
"u  c #4B4A45",
"i  c #4E4D4C",
"p  c #4C4749",
"a  c #514F4D",
"s  c #534B41",
"d  c #5D5444",
"f  c #565146",
"g  c #4D4C5C",
"h  c #464452",
"j  c #5A5756",
"k  c #514D59",
"l  c #645C46",
"z  c #635B4B",
"x  c #695C42",
"c  c #685F52",
"v  c #6C624C",
"b  c #72644D",
"n  c #6D6654",
"m  c #62615D",
"M  c #676151",
"N  c #756B54",
"B  c #776C58",
"V  c #7B725B",
"C  c #7C7257",
"Z  c #585867",
"A  c #504E61",
"S  c #645F66",
"D  c #625F73",
"F  c #6C6C6B",
"G  c #6A6765",
"H  c #726E6A",
"J  c #746E64",
"K  c #74726E",
"L  c #7B746C",
"P  c #7E7560",
"I  c #6D6C7A",
"U  c #666576",
"Y  c #757272",
"T  c #7C7A7A",
"R  c #7B7775",
"E  c #726F7F",
"W  c #9E7235",
"Q  c #A7732E",
"!  c #946E4B",
"~  c #987547",
"^  c #81745D",
"/  c #85795D",
"(  c #856A48",
")  c #A67F4A",
"_  c #837A63",
"`  c #857B67",
"'  c #847D79",
"]  c #B7823C",
"[  c #A7834A",
"{  c #BD985B",
"}  c #8E8166",
"|  c #8D836C",
" . c #92846B",
".. c #96886A",
"X. c #82827D",
"o. c #8C8175",
"O. c #958B73",
"+. c #9B8E73",
"@. c #948A78",
"#. c #9D9279",
"$. c #9B906D",
"%. c #B59B6D",
"&. c #A2967B",
"*. c #A79979",
"=. c #B49D78",
"-. c #A7926B",
";. c #B5A379",
":. c #AEA27F",
">. c #C5944B",
",. c #E5B45C",
"<. c #E7CA73",
"1. c #706E81",
"2. c #767383",
"3. c #7B7987",
"4. c #827E88",
"5. c #847F91",
"6. c #898483",
"7. c #8C8B85",
"8. c #8E8C8A",
"9. c #858384",
"0. c #938D8C",
"q. c #928880",
"w. c #94928E",
"e. c #999082",
"r. c #8D8B9B",
"t. c #878594",
"y. c #9A9593",
"u. c #9D9A96",
"i. c #9D9A9B",
"p. c #959396",
"a. c #AA9D82",
"s. c #A79E8D",
"d. c #A49D9C",
"f. c #A8929C",
"g. c #AEA485",
"h. c #B3A68C",
"j. c #BCAD8C",
"k. c #B2A485",
"l. c #A4A19C",
"z. c #BAAC92",
"x. c #BDB192",
"c. c #BDB18B",
"v. c #9694A4",
"b. c #9D9BAA",
"n. c #9C98A4",
"m. c #A39EAC",
"M. c #ABA5A4",
"N. c #ACABA4",
"B. c #ADABA9",
"V. c #A4A3A8",
"C. c #B4ADAC",
"Z. c #B7ACA4",
"A. c #B4B1AC",
"S. c #B9B2A6",
"D. c #AAA6B6",
"F. c #AAA7B7",
"G. c #B0AFB8",
"H. c #B4B2B2",
"J. c #BBB6B4",
"K. c #BDBBB5",
"L. c #B9B7BB",
"P. c #C7B38A",
"I. c #C3B492",
"U. c #CCBB96",
"Y. c #C8B995",
"T. c #D5BE86",
"R. c #C3BDBC",
"E. c #C2BEB6",
"W. c #C6BCA1",
"Q. c #D5C49B",
"!. c #EAD48A",
"~. c #EFDD97",
"^. c #F4E198",
"/. c #DBCBA2",
"(. c #D6C7A4",
"). c #C5C2BD",
"_. c #C8C1BF",
"`. c #D9D2A8",
"'. c #E4D5AA",
"]. c #E6DAB3",
"[. c #E1CDA5",
"{. c #F5E7A7",
"}. c #ECE1B5",
"|. c #FBF1B9",
" X c #BDBACB",
".X c #BAB6C2",
"XX c #C1BDC8",
"oX c #C6C3C2",
"OX c #CBC5C4",
"+X c #CDCAC5",
"@X c #CAC5CA",
"#X c #C7C5CD",
"$X c #D2CDCA",
"%X c #D2CDC5",
"&X c #D4D2CC",
"*X c #DBD5CD",
"=X c #C9C7D5",
"-X c #D1CDD6",
";X c #DAD5D2",
":X c #DDDBD5",
">X c #DCDADA",
",X c #D7D2D9",
"<X c #E3DCDA",
"1X c #E4DAD9",
"2X c #FCF5CB",
"3X c #E5E3DC",
"4X c #E9E1DD",
"5X c #F8F3D1",
"6X c #DCD7E4",
"7X c #E4DFED",
"8X c #E2DEE4",
"9X c #EBE5E5",
"0X c #E9E6E8",
"qX c #F3EDEC",
"wX c #F0ECE7",
"eX c #F3F1EE",
"rX c #FEFAE3",
"tX c #EEEBF2",
"yX c #ECE4F5",
"uX c #F1ECF4",
"iX c #F6F3F3",
"pX c #FBFAF6",
"aX c #FEFCFD",
"sX c #F9F3F7",
"dX c #EFF0F0",
/* pixels */
"                                                                                                                                ",
"                                                                                                                                ",
"                                                                                                                                ",
"                                                                                                                                ",
"                                                                                                                                ",
"                                                                                                                                ",
"                                                                                                                                ",
"                                                                                                                                ",
"                                                                                                                        qX      ",
"                                                                                                                  aX  ]         ",
"                                                                                                                  ,.{           ",
"                                                                                                              pXQ W             ",
"                                                                                N ; = < O./.  I.            Q ~.q               ",
"                                                                            # 0 6 N P j.Q.$.Y.C ;       >.!.q                   ",
"                                                                        C C b +.} +.Y.&.a.} b $.!.2X{.>.q ~                     ",
"                                                                      O V 8 n *.c.C U.Y.+.c z.*./.2X[ ;.>X                      ",
"                                                                  l < } *.*.M ..}.O.` Y.x.S o._ g.-.~ ^                         ",
"                                                              > $ u _ C 8 @./.^ Y.U._ ].t.f.h.*.g.[.'.5                         ",
"                                                                d 3 8 a.x.I.].:.h.Z.C.+XM.J.oX@XJ | (.>                         ",
"                                                              . X ; N z u J j.S.M.).%X).).&X:X@Xb. .z                           ",
"                                                              0 ^ l _ V *.n 6.A.N.;X:XH.).E.u.0X XH j.                          ",
"                                                            5 d _ : *.l  .e.M.M.+X9X9Xd.K.J., m.=XI                             ",
"                                                            s : $  .*.I. .w.J.N.4XaXdX7.l.+X@X8XaX.X                            ",
"                                                            ^ P +.h.B / K N.N.).9XaXaXL.G p.L.9XaX8XI                           ",
"                                    + F                     u 3 k._ *.o.X.E.C.$XeXpXaXaXb.t T ).:XsXn.                          ",
"                                t Y K 8.K.A.              5 `. .} U.L C.N.+XK.;XiXiXaXsXF.g n y.C.1X#X                          ",
"                                  j w.X.T K X.6.' T H j i ; $ 5  .L 7.).$X&X+X3XiXqXaXtXV.h k.' M.' r.                          ",
"                                i H a 6.V.J.).oX+XK.N.u.8.8.0.w.y.0.w.oX1X4X*XeXiX9XpX7Xn.t V n G F                             ",
"                                Y j w.B.).:X;X4XwX4X$XoXE.).).R.A.u.d.).$XqXqXuXaXaXuX6Xr.  $ f                                 ",
"                              y a R H.OX$X<X3XiXpX3X*X$X$X*X&X$X+XC.M.A.K.qXaXpXaXiXtX-X5.< > &.                                ",
"                              > i w.).;X$X3X3X&X;X:X;X:X;X:X:X;X3XE.J.J.E.;XaXaXaXsX7X Xr.Z                                     ",
"                              < j w.oX;XOXeX9XR.oX;X$X<X;X<X9X:X9X+Xl.E.4X3X<XaXaXaX0X XF.3.                                    ",
"                              = j w.oX+X$XeXpXR.J.+X).;X*X3XaX3XwX$Xi.S.3XaX9XaXaXaX7XXXD.v.g                                   ",
"                              = a 6.+XC.+XwXaX;XM.J.E.$X&X3XwX9X3X+X6.y.+XpXqXsXaXaX6X Xb.v.g                                   ",
"                              - y Y ).M.+XqXpX9XB.w.M.E.L.&X;X0X+XR.9.R N.<X3XqXaXuX#XF.r.t.                                    ",
"                              o < j M.B._.qXaX9XJ.T w.C.l.oXoX>X+XJ.Y K A.1X>X&XtX6XF.v.2.U                                     ",
"                              @ y < X.y.C.:XiXiX@Xm R d.d.H.J.@X+XH.Y a A.;XaXtX.XF.t.U D F.                                    ",
"                              - , u j 8.B._.0XuX-Xa j Y w.u.B.B.L.n.Y < 0.K.;X6Xt.A A 3.@X.X                                    ",
"                            . g h = u m d.+X0XsXG.- = u j F 9.v.r.3.Z - m B.@X6X3.t S  XyXv.                                    ",
"                            j I     < 7.d.K.0X6Xg t , & + = t g g h , - - B.H.6X  + X.6XaXF.                                    ",
"        ].2 0 *.: a.Y.V v L p.I     + 6.d.H. Xt.& ,                     @ 8.oX6X3.. 7.3XaX-X                                    ",
"      O 7 ].l % | +.;.}./.h.S     . + K l.L.b.g                           m &XuXF.  R OXtX,X2.                                  ",
"      s ` &.&.:._ O.} Q.Q.&.      . + Y i.m.1.                            j +XaX-XI * d.,X,XF.                                  ",
"        , : v ^ B O.@.O.V *       . y 0.L.t.                            . f R.qX-X2.o H XX7X,X                                  ",
"          o * 6 b / I.V %       : u F A.XXZ                       6 8  ..._ G ;X.X    @ 6.0XtX5.                                ",
"                5 n @.        l : u T eXtX3.                      l / ]./.W.u.L.2.    N #.@XaX#X                                ",
"                                6 3 i A.aX@XT                     h.(./.z.J.H.3.      n j.s.aXtX4.                              ",
"                              ! 1 O - K J.qXoX1.                  ( n I.].%Xn.        o &.&.&XaX>X                              ",
"                              ) T.1 & > q.K.wX@XE               [ 2X;.B s.F.          $ ` #.O.;X3XZ.                            ",
"                              ( <.B t z +.z.R.pXXX4.            >.rX|.&X8.A           d f | #.` Q.{.<.4                         ",
"                              2 7 7 2 o h.I.s.i.qXV.k           r } a.3.              % P _ C w %.5X~.7 ^                       ",
"                              1 4 O     d &.].Y.+.=.%.          2 7 %                     [.  2 2 r x 9                         ",
"                                        M ` g.~ %.|.^.4                                                                         ",
"                                        * <   e w %.P.w !                                                                       ",
"                                        O                                                                                       ",
"                                                                                                                                ",
"                                                                                                                                ",
"                                                                                                                                ",
"                                                                                                                                ",
"                                                                                                                                ",
"                                                                                                                                ",
"                                                                                                                                ",
"                                                                                                                                ",
"                                                                                                                                "
};
