/* XPM */
static char *unicorn_left_3[] = {
/* columns rows colors chars-per-pixel */
"64 64 223 2 ",
"   c None",
".  c #000000",
"X  c #0C0C06",
"o  c #0F0F0D",
"O  c #15120B",
"+  c #171617",
"@  c #231D0D",
"#  c #221C14",
"$  c #2C261B",
"%  c #30281F",
"&  c #1B1A24",
"*  c #221F27",
"=  c #2C2B2A",
"-  c #282627",
";  c #332D25",
":  c #3B332A",
">  c #282736",
",  c #3D3935",
"<  c #383739",
"1  c #43381F",
"2  c #443927",
"3  c #433E38",
"4  c #583F21",
"5  c #4C412E",
"6  c #574529",
"7  c #4C4233",
"8  c #46433C",
"9  c #534C3A",
"0  c #5A4B32",
"q  c #5A523E",
"w  c #695437",
"e  c #755B3A",
"r  c #7C6334",
"t  c #393846",
"y  c #2E2D41",
"u  c #434343",
"i  c #494848",
"p  c #514E4B",
"a  c #5C5444",
"s  c #5D564D",
"d  c #56524B",
"f  c #4B4A5B",
"g  c #4B4957",
"h  c #555253",
"j  c #5D5D5D",
"k  c #5B5954",
"l  c #665D4A",
"z  c #635947",
"x  c #625D5C",
"c  c #635E53",
"v  c #6C644D",
"b  c #796444",
"n  c #6C6353",
"m  c #69645A",
"M  c #736A52",
"N  c #756C59",
"B  c #7B735B",
"V  c #7D7151",
"C  c #5B5B63",
"Z  c #5D5B6D",
"A  c #565466",
"S  c #514F63",
"D  c #615E71",
"F  c #676566",
"G  c #726D68",
"H  c #73726B",
"J  c #7B7265",
"K  c #646471",
"L  c #6C6B7C",
"P  c #6A6878",
"I  c #747271",
"U  c #797975",
"Y  c #7E7B7C",
"T  c #797677",
"R  c #825E2F",
"E  c #946F3B",
"W  c #A67C37",
"Q  c #AA752E",
"!  c #947344",
"~  c #84795F",
"^  c #81765A",
"/  c #8B6A4B",
"(  c #A27F4E",
")  c #857A67",
"_  c #827D7C",
"`  c #837F75",
"'  c #967E60",
"]  c #C18A3E",
"[  c #E6B038",
"{  c #AC8447",
"}  c #AF8C56",
"|  c #8D8166",
" . c #8D846B",
".. c #928569",
"X. c #998B6D",
"o. c #88837B",
"O. c #958A70",
"+. c #988C74",
"@. c #9D9374",
"#. c #9C9279",
"$. c #A58A65",
"%. c #AB9269",
"&. c #AD9C7C",
"*. c #A49879",
"=. c #B19F7F",
"-. c #B19A6D",
";. c #DAB151",
":. c #DEB75E",
">. c #EEC75F",
",. c #DAC17D",
"<. c #E7C564",
"1. c #787686",
"2. c #817E8B",
"3. c #848382",
"4. c #8B8584",
"5. c #8D8C8C",
"6. c #8C8988",
"7. c #938E8C",
"8. c #95918C",
"9. c #999489",
"0. c #868494",
"q. c #8B899A",
"w. c #958D99",
"e. c #969492",
"r. c #9B9594",
"t. c #9C9A95",
"y. c #9B9799",
"u. c #AB9D81",
"i. c #A49682",
"p. c #A29E9B",
"a. c #ADA287",
"s. c #B3A583",
"d. c #BBAD8B",
"f. c #B5A78A",
"g. c #A5A39C",
"h. c #A8A69F",
"j. c #AAA396",
"k. c #BCB090",
"l. c #9C9AA6",
"z. c #948FA1",
"x. c #A49EAA",
"c. c #A6A4A3",
"v. c #AAA5A2",
"b. c #ACAAA4",
"n. c #ADABA8",
"m. c #A8A3AB",
"M. c #B2ADAB",
"N. c #B5B3AD",
"B. c #BBB4A8",
"V. c #A5A2B3",
"C. c #ACAABD",
"Z. c #B3ACB6",
"A. c #BAB5B3",
"S. c #BDBBB5",
"D. c #BAB5BB",
"F. c #BDBCB9",
"G. c #B3B2B1",
"H. c #C3AD8A",
"J. c #C4B289",
"K. c #CCBC96",
"L. c #C6B897",
"P. c #D4BF88",
"I. c #CBBDA9",
"U. c #C1BCB7",
"Y. c #C3BEBC",
"T. c #C5B4BD",
"R. c #D4C39E",
"E. c #EAD292",
"W. c #D8C9A3",
"Q. c #C4C2BC",
"!. c #C9C2B7",
"~. c #CDC8A8",
"^. c #E4D4AC",
"/. c #EADAAC",
"(. c #EEDFB7",
"). c #EDE3B3",
"_. c #FBF2B5",
"`. c #F0E7AD",
"'. c #B5B3C4",
"]. c #BEB9C5",
"[. c #B1AFC2",
"{. c #C4BEC8",
"}. c #C6C3C3",
"|. c #CBC6C2",
" X c #CECBC5",
".X c #CCC8CA",
"XX c #D3CDCB",
"oX c #D0CCC6",
"OX c #D5D2CD",
"+X c #DAD4CD",
"@X c #DBD8C8",
"#X c #CAC6D2",
"$X c #D2CCD5",
"%X c #DBD5D3",
"&X c #DEDBD5",
"*X c #DDD9DB",
"=X c #DCD7DB",
"-X c #E4DDDB",
";X c #E1DAD5",
":X c #E0D5C6",
">X c #EAE3DB",
",X c #E9E5DD",
"<X c #EBE5C1",
"1X c #DBD5E2",
"2X c #DBD8E4",
"3X c #E1DAE3",
"4X c #E5E3E4",
"5X c #EBE5E4",
"6X c #EBE5EA",
"7X c #EDECEB",
"8X c #E7E4E8",
"9X c #F3EDED",
"0X c #F2ECE3",
"qX c #F4F0ED",
"wX c #FEFAEF",
"eX c #EBE5F1",
"rX c #F2ECF4",
"tX c #F6EFFA",
"yX c #F4F2F3",
"uX c #F9F4F3",
"iX c #F9F5FB",
"pX c #FEFDFE",
"aX c #FBFAF4",
/* pixels */
"                                                                                                                                ",
"                                                                                                                                ",
"                                                                                                                                ",
"                                                                                                                                ",
"                                                                                                                                ",
"                                                                                                                                ",
"W ]                                                                                                                             ",
"  { ;.                                                                                                                          ",
"    { wX                                                                                                                        ",
"      <.[                                                                                                                       ",
"        R E.aX                                                                                                                  ",
"          ,.[                                                                                                                   ",
"            { :.yX      2 d.  B ~ X 2 *.                                                                                        ",
"              { W Q   4.v =.s.d.O.a X.z q o                                                                                     ",
"                r >.,X`.K.^ ) u.d...&.M | v *.@                                                                                 ",
"                  ( E.R.#.*.4.j.R.d.) K. .B | l X                                                                               ",
"                , &.E.k.B K.r.x.H.^ *.(.9 @.u.*.' 7 v                                                                           ",
"                3 ^.u.X.OX#.T.Z.K.^ ^.d.@.R.s V q n  .                                                                          ",
"                , J c 6.b.OX{.b.A.g.B.d.^.W.L.s.s.7 : 9                                                                         ",
"                2 : K {.5XQ.oXF.|. XA.n.I.#.d m s q 5 : O                                                                       ",
"                    x.{.}.x  XN.Y.%X Xb.M._ B +.~ B a +.0                                                                       ",
"                  6.*X#XZ I |.p.A.5X-XA.N.p.9.@.| *.2 ~ l a                                                                     ",
"                  D.pXtX6X%Xb.7.D.yXpX%Xh.U.7...^.O.O.2 9                                                                       ",
"                0.9XuX5XD.l.I _ 4XpXpX-XA.N.b.H n O.~. .L.3                                                                     ",
"                $XuXF.A.I < f [.pXpXpXqX XN.Y.6. .J.@.K.M a M                                                                   ",
"                Z.r.Y.` 9   D '.iXpXuXqX&XQ.XXN.t.) K.&.X.@.N               F.M.F U 4.                                          ",
"                P w.3.W.9   K C.rXpX9XuX,XOX+XOXU.3.G #.d O %   k j F H G H 6.g.r.h.k 3.                                        ",
"                    s ) $   Z l.eXiX9XyX9X%X%X;X|.7.7.e._ H F I 3.e.h.N.A.G.b.e.H 8 5.U                                         ",
"                    s ;       w.1XyX9X9X9X0X5X&XY.g.t.M.A.A.A.A.Y.XX-X5X%X+XOXU.g.4.j e.p                                       ",
"                    z :       2.$XrX9XuXpXyX9XQ.b.g.U.oX X XXX X X+X,XpXyX-X>X XY.M.G m U                                       ",
"                              L #X8XrXpXpXpXqXQ.c.N.Y.-XOX%X%XXXOX&X&X>X;X5X7XXXOXF.7.h F O                                     ",
"                              P {.1XeXpXpX9XY.Y.Q.b. X5X%X-X;X+X&XXX%X X|.9X5XQ.-X Xr.x p =                                     ",
"                              0.].3XpXpXpX&X X5XN.g.-X9X>X5X,XOX%XQ.XXA.|.yX7X XOXoXr.F i u                                     ",
"                              1.'.2XpXpXpX&X9X&Xr.r.;X,XaX>X5XoXOXY.Y.h.OXuXyX*XY.OXy.x 8 u                                     ",
"                              L V.8XpXpX5X-X9XF.F 5.XXoX5XOX%XY.}.n.b.g.&X9XyX-XN. Xr.k 8 u                                     ",
"                              S q.1XrX7XoX;X X6.j e.#X%X%XQ.Y.v.N.r.7.N.*X-X7X4XA.S.8.i u p                                     ",
"                                f V.1XiXuXOXS.U j y..X%XF.Y.M.t.h._ I c.*X;X9X8XA.v.Y 8 t h K                                   ",
"                                t g #XiX8XU.r.3 F w.Y.D.M.G.r.8.I j x Z.3X=XqX4XN.8.H i > K =                                   ",
"                                  Z 2X6X|.v.k = C 1.l.x.y.6.Y x p < > 0.1X4X6X%XM.3.h <   P G                                   ",
"                                  1.8XXXn.Y o > y g C K K h t = + & > t '.*X$X.XM.e.3.-   L y.i                                 ",
"                                  Z.8XA.v.+ .         - & +     t > > * < ].4X%XN.b.4.<     2.9.&.) B &.l                       ",
"                                T 3X5X}.p X .                     g A g = u l.Z.c.g.8.h i     L./.).H. .n ^ :                   ",
"                              K {.pX-Xt.. O X                     h x.A._ -   A 1.6.o.U Y _   n d.W. .X.B # 2 f.                ",
"                              L 2XaXS.C O * 7                   F }.iX}._ +     y C 5.c.g.e.I - N +.a.B M ..O.M X $ @           ",
"                              z.yXF.o.> - - ~ | v B       F T A.7XpX*Xr.+           D m.&Xp.x   3 f.M a.a z 7 J B l             ",
"                              {.-XY = t t s d.s.B *.@X  L m.5X9X&X Xr.-               0.3Xg.h     *.u.7 v l # +                 ",
"                            1.6Xp.i.2   S 5.o.s.(.R.8Xi c.5XuX%XN.o.=                 q.rXn.j         - O   :                   ",
"                            #X%X9.s.l   A D.8.) =.w W H.oX5X:Xj.f.f.                  q.tXb.O.9                                 ",
"                          6.iXI.<XK.B   t V.M.d.' ! E P.J.$.H.m f.M                   V.pX!.+.~                                 ",
"                        h 7X Xk.K.W.d.#   Z #XpX_./ } `.0X} e 3 ,                     V.iX!.J.m                                 ",
"                    4 / &.oXf.n ).u.v       V.I.-.w   M w 5 2   :                     '.9X8.@. .                                ",
"                    w a.*.( / % - ; ;         5 6 2                                 7.3X}.H J.O.a                               ",
"                    b $.%.b 6 , 2               2 1                               R $.B.o.^.)  .z #                             ",
"                          w 0                                                   6 $.J.$.! L.9 z 9                               ",
"                                                                                a ,._.%.e       v                               ",
"                                                                                                                                ",
"                                                                                                                                ",
"                                                                                                                                ",
"                                                                                                                                ",
"                                                                                                                                ",
"                                                                                                                                ",
"                                                                                                                                ",
"                                                                                                                                ",
"                                                                                                                                "
};
