/* XPM */
static char *unicorn_right_6[] = {
/* columns rows colors chars-per-pixel */
"64 64 228 2 ",
"   c None",
".  c #020201",
"X  c #0C0C07",
"o  c #150D07",
"O  c #17120C",
"+  c #181615",
"@  c #211E15",
"#  c #211E1C",
"$  c #301C0F",
"%  c #2B261B",
"&  c #282219",
"*  c #372E1D",
"=  c #232329",
"-  c #2C2B2A",
";  c #282524",
":  c #332E27",
">  c #3A3325",
",  c #38342C",
"<  c #282734",
"1  c #3C3A35",
"2  c #3D3C3B",
"3  c #333234",
"4  c #48301C",
"5  c #433B2E",
"6  c #473C27",
"7  c #453D34",
"8  c #5A4526",
"9  c #4A433A",
"0  c #5C4D33",
"q  c #554B3B",
"w  c #594C3C",
"e  c #675437",
"r  c #6F5430",
"t  c #353344",
"y  c #3B3A4B",
"u  c #413F50",
"i  c #444343",
"p  c #4B4A49",
"a  c #4A4745",
"s  c #534C41",
"d  c #524C4A",
"f  c #5B5244",
"g  c #54524C",
"h  c #5C554A",
"j  c #484755",
"k  c #565555",
"l  c #5B5958",
"z  c #514F50",
"x  c #645B45",
"c  c #635D4C",
"v  c #665844",
"b  c #625E59",
"n  c #6C634C",
"m  c #6A6458",
"M  c #766C57",
"N  c #7C7258",
"B  c #706649",
"V  c #565467",
"C  c #4F4D62",
"Z  c #6B6564",
"A  c #64646B",
"S  c #6D6B6C",
"D  c #676663",
"F  c #7E7662",
"G  c #78746D",
"H  c #696776",
"J  c #757372",
"K  c #7A7877",
"L  c #716D6C",
"P  c #AA751E",
"I  c #8A6736",
"U  c #976E39",
"Y  c #A5712B",
"T  c #897249",
"R  c #9A7847",
"E  c #83755B",
"W  c #86785B",
"Q  c #936F49",
"!  c #A17C4D",
"~  c #867B64",
"^  c #857D7A",
"/  c #907C61",
"(  c #B0833A",
")  c #E7AF39",
"_  c #9E815D",
"`  c #A68349",
"'  c #A78757",
"]  c #BF8A41",
"[  c #8D8169",
"{  c #93856B",
"}  c #978769",
"|  c #85827D",
" . c #898577",
".. c #948A72",
"X. c #9B8E73",
"o. c #948976",
"O. c #9A9176",
"+. c #AD9A77",
"@. c #A2957A",
"#. c #A49A7C",
"$. c #AC9C7C",
"%. c #A29475",
"&. c #AF9266",
"*. c #BBA16E",
"=. c #CA9547",
"-. c #D5A54C",
";. c #C2AA7C",
":. c #CEB164",
">. c #E7C35F",
",. c #E3C579",
"<. c #EED076",
"1. c #7D7B8D",
"2. c #787686",
"3. c #807C85",
"4. c #858482",
"5. c #8A8583",
"6. c #8B8A83",
"7. c #8C898C",
"8. c #928B8B",
"9. c #908E87",
"0. c #94938C",
"q. c #9F9284",
"w. c #8A8894",
"e. c #948D95",
"r. c #9B9594",
"t. c #9C9B9A",
"y. c #999993",
"u. c #AB9D84",
"i. c #A69B87",
"p. c #A29D9C",
"a. c #A39B96",
"s. c #B39D90",
"d. c #ADA486",
"f. c #B2A584",
"g. c #B5A986",
"h. c #B8AA8B",
"j. c #A4A29D",
"k. c #B8AD95",
"l. c #BEB290",
"z. c #9D9BAC",
"x. c #9995A4",
"c. c #968FA1",
"v. c #A29EA5",
"b. c #A5A4A3",
"n. c #AAA4A3",
"m. c #ABAAA4",
"M. c #AEABA8",
"N. c #A7A3AB",
"B. c #B2ADAA",
"V. c #B3B2AD",
"C. c #BBB8AB",
"Z. c #ACA9B4",
"A. c #AAA8B7",
"S. c #BBB5B3",
"D. c #BCBAB4",
"F. c #BDB9B8",
"G. c #B8B5B8",
"H. c #B4ADB9",
"J. c #C2B38E",
"K. c #C8B080",
"L. c #C4B593",
"P. c #CCBC9A",
"I. c #C7B996",
"U. c #CDB58F",
"Y. c #C9BEA2",
"T. c #C4BEBC",
"R. c #C0B9B7",
"E. c #D4C49E",
"W. c #D9C791",
"Q. c #CEC19C",
"!. c #E4D394",
"~. c #E3CF85",
"^. c #FAE89E",
"/. c #D8CAA3",
"(. c #DFD1AB",
"). c #C5C2BC",
"_. c #D5CEBB",
"`. c #E1D3AB",
"'. c #EBD7AD",
"]. c #E9DBB1",
"[. c #ECE2B5",
"{. c #F4E8B6",
"}. c #F8EBB2",
"|. c #BAB5C2",
" X c #BAB7CA",
".X c #B1AFC2",
"XX c #C4BEC2",
"oX c #C2BECB",
"OX c #C8BFC0",
"+X c #CBC5C2",
"@X c #CDCAC5",
"#X c #CAC6C8",
"$X c #D3CDCB",
"%X c #D7CFC6",
"&X c #D5D2CC",
"*X c #DBD4CD",
"=X c #CCC9D6",
"-X c #D4CED4",
";X c #DAD4D2",
":X c #DDDCD5",
">X c #D5D1DD",
",X c #DBD7D9",
"<X c #E3DDD6",
"1X c #E2DCDB",
"2X c #E0D7DC",
"3X c #E3DACC",
"4X c #FEF7C6",
"5X c #E6E2DC",
"6X c #E8E4DC",
"7X c #EFE5D5",
"8X c #F8EBC1",
"9X c #DAD7E4",
"0X c #E3DDE8",
"qX c #E7E3E5",
"wX c #EBE4E4",
"eX c #EBE6E9",
"rX c #F1ECEA",
"tX c #F1EAE7",
"yX c #F6F2EE",
"uX c #EFEAF1",
"iX c #ECE6F2",
"pX c #F2EDF3",
"aX c #F2EBFB",
"sX c #F6F3F4",
"dX c #FAF4F5",
"fX c #FEFDFD",
"gX c #F8F5FA",
"hX c #EFF0F0",
/* pixels */
"                                                                                                                                ",
"                                                                                                                                ",
"                                                                                                                                ",
"                                                                                                                                ",
"                                                                                                                                ",
"                                                                                                                                ",
"                                                                                                                                ",
"                                                                                                                                ",
"                                                                                                                                ",
"                                                                                                                          yX    ",
"                                                                                                                    fXP ]       ",
"                                                                                                                  =.,.-.        ",
"                                                                              O > / x , f                     fX4X( I           ",
"                                                                            + @ 9 E N { `./.$.I.7           ) Y '               ",
"                                                                        & n E } f.{ F Q.X.#.W ~ M ..K.  K.=.*.8                 ",
"                                                                    4 @ N f.x n g.#.../.Y.N h [.L.(.7XR ( r                     ",
"                                                                % q 1 w M n u.x _./.[ d.L.q.l ~ } {.i.<.r                       ",
"                                                                f h M x @.g.`.].} /.#.g.C.e.8.P.~ I.+.f 9                       ",
"                                                                O # > { ..X.u.E.k.C.S.OX+Xv.D.G.f #.f.l.                        ",
"                                                              o f N x m m s c k.B.S.;X+XT.&X+XqXXXz M a                         ",
"                                                            e v E > [ #.c g.5.C.n.$X;XT.D.$Xr.qX|.e.7 2                         ",
"                                                            : 1 s g h.J.@.i.m.B.R.tX<XS.n.$X+ 7.|.c.                            ",
"                                                            q c d.l.~ g.~ 5.).m.$XfXdXM.0.F.OXF.uX>X                            ",
"                                                          e f { h.$.X...J n.D.S.*XfXfXhXZ 4.Z.2XgXuXH                           ",
"                                  z J | m.n.                @.X.{ L.J.0.0.+XS.@X5XfXfXfXoXt Z R.&XfXA.                          ",
"                                i K y.r.V.n.l b D m k     6 > % W X.G D.R.&X@X:XsXwXfXgX.Xj ~ r.V.wX=X                          ",
"                                . m b Z 5.p.m.m.j.r.6.K D g k D S 4.4.).$X;X&X6XfX5XfXuXA.h J.G p.^ N.                          ",
"                                Z S K r.D.$X$X;X5X:X@XS.B.B.V.m.n.r.t.).*X6X:XrXgX2XgX0Xz.- ~ m s A j                           ",
"                                a l b.S.@X<X1XyXdX6X&X@X@X@X@X+XD.m.t.D.@XrXrXfXgXgXiX>Xw.@ ; c                                 ",
"                              # i 6.D.$X$X:X6X5XtX<X:X&X&X:X;X&X*XS.B.n.T.dXfXfXfXgXiX=X2.- ~ u.                                ",
"                              + g 0.+X2X+XwXtX+X&X;X&X:X;X:X<X;XwXD.m.D.).:XfXfXfXpX0X X1.V                                     ",
"                              - l 0.@X<X+XtXrX).S.$X+X:X;X6XtX2XrX&Xr.S.tX+X6XfXfXiX9XoXz.2.                                    ",
"                              - z 5.+XS.).tXgX-Xm.).).&X*X6XyXwXrX;X0.m.5XrX5XfXfXgX9X Xz.z.                                    ",
"                              + 9 J T.B.T.5XgX<XV.M.V.+X@X:X<XwX;X$X4.8.;XfX5XfXfXgX=X.Xx.c.                                    ",
"                              . 1 l j.M.S.<XfXpX+X0.j.S.B.$X+XqX+XT.4.J V.5X;XsXfXaX Xx.w.H                                     ",
"                              . 1 2 J t.M.+XsXgX,X| 6.M.t.F.S.-X$XB.K Z M.2X<X;XeX9XA.1.A c.                                    ",
"                              O = p p 9.p.R.;XdXuXt.m 5.r.n.G.G.#Xn.J i m.&XdXpXoXH.1.C x.>XH                                   ",
"    & . h.X.5 X.n           O 3 t ; i k | m.;XpXgXZ.i k S 4.t.z.b.e.H 3 6.R.;XqX X1.p N.rXsXx.                                  ",
"    9 M v [.B E @.g.'.% @ ; g k j   - K 0.n.&XfX>Xt O % 2 z A 2.J A j = | b.$X>X1.3 1 S.fXfX|.                                  ",
"      ; s 9 _.%.F /.J.[.E.6.S C     1 J j.B.OX=X1.u       + = < < <   = | 9.G.A.y   . 8.1XsXrXv.                                ",
"        o n %.$.I.h.P.(.Y.F f.    Z D 5.y.t.e.H t                     3 0.0.Z.H       : C.$XfX=XA                               ",
"            L.#.m F m O.~ @.    S | 4.4.K H y                         s M.V.z.t         l j.qX9XoX                              ",
"              +.P.d.F , -       G a.B.7.y t                           J +X1Xz.            d G.9X9Xp                             ",
"                                p 8.&X1XB.4.                          0.&XpXA.            :  .0XgXZ.                            ",
"                                X 2 4.b.T.&XS.J                     X.Z M.>XV             [ l.p.fX,X2.                          ",
"                                  . - [ u.D.rXqX7.                f...G p.|.              5 I.I.yXpXH.                          ",
"                                + @ O X.E.Y.e.,X,X^             %.} 8XP.S.v.              X ....a.dX1X3.                        ",
"                                5 > . - f.P.`.{ u.&.Q           { E.L.a.+X2.              x M E.J.b.3Xs.U                       ",
"                              @ > - X + 2 X.+.` !.^.` 8         9 h.`.L.1Xw.              0 1 n L.E }.4X<.4                     ",
"                              * > # @ + a 3 0 0 _ ~.+.w         [.`.l.J.eXx.                g.9 E 0 ` !.,.q                     ",
"                                7 : @ X O 0 Q                   X.O.P.L.+X,XK                       6 r                         ",
"                                    ; r I &.;.4                 * M i.5 o.%Xk.                                                  ",
"                                    R e :.>.;.> s                   q h R { / U                                                 ",
"                                                                    9 5 R *.}.W.4                                               ",
"                                                                      Q 8 e T !                                                 ",
"                                                                                                                                ",
"                                                                                                                                ",
"                                                                                                                                ",
"                                                                                                                                ",
"                                                                                                                                ",
"                                                                                                                                ",
"                                                                                                                                ",
"                                                                                                                                ",
"                                                                                                                                "
};
