/* XPM */
static char *unicorn_right_4[] = {
/* columns rows colors chars-per-pixel */
"64 64 224 2 ",
"   c None",
".  c #080806",
"X  c #130B05",
"o  c #1C1507",
"O  c #131312",
"+  c #1B1916",
"@  c #0E0B14",
"#  c #231D13",
"$  c #28231A",
"%  c #362918",
"&  c #3F321F",
"*  c #181822",
"=  c #211F25",
"-  c #2A2827",
";  c #332C26",
":  c #3B352A",
">  c #282739",
",  c #353534",
"<  c #3D3C3D",
"1  c #3B3834",
"2  c #473A27",
"3  c #423D37",
"4  c #4D412C",
"5  c #5A4324",
"6  c #4D4333",
"7  c #45423D",
"8  c #4F4936",
"9  c #534C3B",
"0  c #534838",
"q  c #5C523B",
"w  c #57503B",
"e  c #695437",
"r  c #6D5736",
"t  c #7E623D",
"y  c #363645",
"u  c #3D3C4B",
"i  c #3C3A50",
"p  c #403F45",
"a  c #444243",
"s  c #4E4C4C",
"d  c #474448",
"f  c #554E47",
"g  c #59534A",
"h  c #484757",
"j  c #5D5B5B",
"k  c #585753",
"l  c #505056",
"z  c #625543",
"x  c #645B46",
"c  c #665C4A",
"v  c #605D5E",
"b  c #6B614C",
"n  c #6C6353",
"m  c #68645D",
"M  c #736A55",
"N  c #776D58",
"B  c #7D735B",
"V  c #7C7258",
"C  c #535263",
"Z  c #5C5B6B",
"A  c #5C5B66",
"S  c #635F68",
"D  c #6C6969",
"F  c #666566",
"G  c #706F6A",
"H  c #746C63",
"J  c #7D7562",
"K  c #74726D",
"L  c #7A7468",
"P  c #676675",
"I  c #747371",
"U  c #7D7979",
"Y  c #797677",
"T  c #726F7F",
"R  c #886338",
"E  c #956930",
"W  c #AB7833",
"Q  c #99774B",
"!  c #837A5F",
"~  c #847457",
"^  c #90744F",
"/  c #A17C44",
"(  c #847B63",
")  c #847C6A",
"_  c #897D65",
"`  c #807C77",
"'  c #967C6E",
"]  c #CA933A",
"[  c #B28748",
"{  c #A98B5B",
"}  c #8B836C",
"|  c #93896E",
" . c #96876B",
".. c #84837F",
"X. c #9A8E78",
"o. c #9C9275",
"O. c #A5977A",
"+. c #B29F7C",
"@. c #AE9065",
"#. c #AFA27F",
"$. c #B7A27C",
"%. c #C5974D",
"&. c #D4A84C",
"*. c #EBBB51",
"=. c #C1AA72",
"-. c #DCC47E",
";. c #F3CF6C",
":. c #747383",
">. c #7A7789",
",. c #7F7E91",
"<. c #897F86",
"1. c #868382",
"2. c #8A8584",
"3. c #8C8A84",
"4. c #8A878C",
"5. c #938D8C",
"6. c #95918D",
"7. c #9C9887",
"8. c #848392",
"9. c #8D8994",
"0. c #908D9D",
"q. c #959494",
"w. c #9D9A95",
"e. c #9B9698",
"r. c #8F908C",
"t. c #A59B84",
"y. c #A29D9B",
"u. c #A6989A",
"i. c #B29F80",
"p. c #ADA284",
"a. c #AFA589",
"s. c #B3A383",
"d. c #BDAC8A",
"f. c #B7A887",
"g. c #BDB28E",
"h. c #A4A29D",
"j. c #ABA79E",
"k. c #B3AC98",
"l. c #BDB295",
"z. c #9A99A6",
"x. c #A69EAC",
"c. c #A6A5A4",
"v. c #ABA5A4",
"b. c #ACABA4",
"n. c #ADAAAB",
"m. c #A6A3A8",
"M. c #B2ADAB",
"N. c #B2A9A5",
"B. c #B5B2AD",
"V. c #B8B2AA",
"C. c #ABA9BA",
"Z. c #B2AEB5",
"A. c #B5B2B4",
"S. c #BAB3B3",
"D. c #BCB9B3",
"F. c #BBB7BA",
"G. c #C3B28D",
"H. c #CDBC8E",
"J. c #C9BB9A",
"K. c #C9BA95",
"L. c #C0AE8A",
"P. c #C2BCBB",
"I. c #C4B8B9",
"U. c #CCBDA3",
"Y. c #D3C39B",
"T. c #D9C89C",
"R. c #CAC29B",
"E. c #E9D08D",
"W. c #D6C8A3",
"Q. c #C4C2BD",
"!. c #C8C4B8",
"~. c #CDC0A3",
"^. c #E6D4AB",
"/. c #ECDFAB",
"(. c #E5D8B2",
"). c #E1CFA6",
"_. c #F5EAB7",
"`. c #B8B5C5",
"'. c #C2BEC8",
"]. c #C6BFD0",
"[. c #CAC5C3",
"{. c #CDCBC5",
"}. c #CBC4CC",
"|. c #CFCBCB",
" X c #D4CECB",
".X c #D3CDC7",
"XX c #D6D2CD",
"oX c #DAD3CE",
"OX c #C5C2D2",
"+X c #CBC7D5",
"@X c #D3CDD6",
"#X c #DAD4D2",
"$X c #DCDAD3",
"%X c #DCD5DB",
"&X c #DDDCDC",
"*X c #D7D0D6",
"=X c #E2DAD6",
"-X c #E3DDDA",
";X c #E4DBD7",
":X c #F7EBC1",
">X c #E3E1DA",
",X c #E9E4D8",
"<X c #FDFAD8",
"1X c #DDDAE3",
"2X c #D8D4E2",
"3X c #E3DCE6",
"4X c #ECE4E3",
"5X c #ECE9E3",
"6X c #E5E2EE",
"7X c #ECEAEA",
"8X c #E9E4E9",
"9X c #F3ECEB",
"0X c #F0EBE7",
"qX c #F7F4EC",
"wX c #ECE9F2",
"eX c #F2EDF3",
"rX c #F0E7F3",
"tX c #E7FCF8",
"yX c #F5F4F5",
"uX c #F9F5F3",
"iX c #FCFBF5",
"pX c #FBF5FC",
"aX c #FEFDFD",
"sX c #F3F0FB",
/* pixels */
"                                                                                                                                ",
"                                                                                                                                ",
"                                                                                                                                ",
"                                                                                                                                ",
"                                                                                                                                ",
"                                                                                                                                ",
"                                                                                                                                ",
"                                                                                                                        4X      ",
"                                                                                                                      W [       ",
"                                                                                                                  tXE.[         ",
"                                                                                                                  ;.W           ",
"                                                                                                              iX&.E             ",
"                                                                                    ;                       %.&.Q               ",
"                                                                              X 8 ~ o.2 g 3 +.G.V       tX@.*.R                 ",
"                                                                          # #.V c 6 s.m Y.^.d.O.M $.(   ] E e                   ",
"                                                                        . w b ! O.a.o.+.K.( } _ J.~.qX[ /                       ",
"                                                                    N 6 ( s.G.N x /.O. .a.t.U L N T.@.R ~                       ",
"                                                                    n n x V 3 p.( (.).V d.e.u.l.J p.J.U.7                       ",
"                                                                  : ; 6 G.#.W.^.Y.d.~.7.k.m.I.y.oXV t.W.0                       ",
"                                                                o n x b f s m p.l.b.S.Q. XD.[.#XF.z.c M :                       ",
"                                                              q V O.9 ! V X.n ` V.M.XX$XP.I..XB.7X'.3.;                         ",
"                                                              6 9 b c f.x | 7.j.B.D.>X&XM.M.[.a F.].z.                          ",
"                                                                0 f p.s.G.( w.P.b.-XyXeX5.w.[.q.w.1X%X                          ",
"                                                            z g R.G.f.| o.Y B.S.P.9XaXaXS.3.v.|.1XuXaXm.                        ",
"                                      .                       } o._ B d.L q.Q.B.{.uXaXaXeXF j 8.P.=XaX3XT                       ",
"                                  D 2.I y.w.M.               .d.N d.g.2.h.D.[.[.$XuXiXaXwX9.  - K S. X8XZ.                      ",
"                                }.; 1.w.q.5.` K I I D v a 2 # + l.) G h.[.XXXX#X4XyXeXaX6X8.     .1.D.' 0.                      ",
"                                < w.s m 3.h.B.D.D.B.c.6.1.I K ` 3.e...b.XX=X=X-X9X7XqXsX2X:.  ~ V a.q.T C                       ",
"                                U U F w.M.{.=XoX4X5X$X{.D.D.D.D.D.y.q.B.{.4X0X9XuX5XeX6XOXS     ; g N                           ",
"                              - Y k 6.Q.Q.$X4X4XaX5X$X.X X X X{. XD.B.v.n.$XuXuXaXyXeX3XC.Z     # : d.                          ",
"                              s s F v.#X{.#X9XoX>X$X$X#XoX#XoXoX;XoXb.B.b. XuXaXaXyX6X1Xz.C         p.                          ",
"                              s 7 Y M.$X{.oXaX XQ.XX#XoXoX-X$X-X;X-Xc.b. X X{.aXaXpX1X+Xz.h                                     ",
"                            . a 7 U B.oX[.-XaX4XM.[.{..X.X-X>XqX,X5XD.3.XX9X#XyXaXaXrXOXx.h                                     ",
"                            O p 7 G B.{.Q.-XaX7XS.B.P.{.[.$X-XiX>X4X[.G D.0X0XyXaXaXpXOX0.y                                     ",
"                            + d , j y.P.S.$XiXyX}.w.v.D.I..XoX-X-X X{.F 2..X0X$XaXaXsX`.,.                                      ",
"                            , C < 7 2.D.B.#XaXyX3X5.6.b.c.A.[.}.-X{.F.K I n.>X$X&XeX3XC.P                                       ",
"                            k Z 1 7 m e.v.[.aXyX7Xe.Y r.v.h.Q.F. X XS.Y k M.XXuXpX*X'.:.h                                       ",
"                          + U     7 p 3.w.D.-XaXeXc.k j 2.6.b.B.A.'.v.Y < 2.D.-XyX2X:.u                                         ",
"                          v >.      - s 5.P.#X8XeX`.- 7 g D 1.q.z.z.8.Z ; s b.[.3XOXy                                           ",
"                    o % J e.>.      g r.w.S.-XyX2XC > * $ , d j P A l u > O 2.v.*X].T                                           ",
"            0 # _ g.G.J.J.H   , I U I y.M.S.@X+X:.> u u       * =           s A.P.OX|.8.                                        ",
"        #.4 0 ! t.J.W._.J.g j y.v.5.3...5.q.9.Z l P h                       O n.|.1X8X0.                                        ",
"  ( 8 X | O.o.~ Y.d.o.l.f   s w.Q.n.4.F l y @ d c.C.Z                 - ( . o 5.#XpXOX8.                                        ",
"    g c ) k J B N | } ) $   3 3.&XA.h >     , r.&XZ.                    ! z $ Y {.aX].i                                         ",
"        7 1 c M M ~ J.H     h 5.%X+X        < n.2X@X                    e x $ a N.4XOXh                                         ",
"          & :   0 X         ; 5.=X@X        O 5.%XpX}.                  @.~ - @ j S.%XP                                         ",
"                            O.J.4X@X          1 S.rXpXn.              Q _.!.a + H j.8XP                                         ",
"                      % J J ) K.=XwX8.          I |.pXuXM.            e @.N.Z 0 Y.y.%Xz.                                        ",
"                          q B X.[.6X:.          f h.#XaXeX8.          2 4 z y ! G.W..X3X                                        ",
"                          ^ ^ ) F.z.            3 J.N..XaX@X(               o s.(.(.W.yX8.                                      ",
"                          H.<X,X9.              V O.( ^.9X$XL.^             o t.W.^.Y.*X%X<.                                    ",
"                          E.iX:X:.                1 3 a.t.$.G.%.5             x | M 6 k.=X+.t                                   ",
"                          r { _                 2   a i./ _.:XE.0             % + + 9 Q  .+.Q 5                                 ",
"                          & q #                         2 q c e q                 1 % t =._.-.x                                 ",
"                                                                                                                                ",
"                                                                                                                                ",
"                                                                                                                                ",
"                                                                                                                                ",
"                                                                                                                                ",
"                                                                                                                                ",
"                                                                                                                                ",
"                                                                                                                                ",
"                                                                                                                                ",
"                                                                                                                                "
};
