/* XPM */
static char *unicorn_right[] = {
/* columns rows colors chars-per-pixel */
"64 64 219 2 ",
"   c None",
".  c #0C0C0A",
"X  c #040305",
"o  c #18130C",
"O  c #191718",
"+  c #261C0C",
"@  c #221D15",
"#  c #321F10",
"$  c #29241A",
"%  c #342618",
"&  c #3E301D",
"*  c #1D1B27",
"=  c #262524",
"-  c #28272D",
";  c #2E2B29",
":  c #332D2B",
">  c #342E24",
",  c #3A342A",
"<  c #2A2937",
"1  c #373739",
"2  c #312F3C",
"3  c #443B2B",
"4  c #43362A",
"5  c #443E3A",
"6  c #443B34",
"7  c #563E21",
"8  c #664417",
"9  c #4D432F",
"0  c #5B472A",
"q  c #4C4333",
"w  c #4A433C",
"e  c #424039",
"r  c #52493A",
"t  c #5C533C",
"y  c #674E2C",
"u  c #775D3A",
"i  c #70532E",
"p  c #7C683E",
"a  c #3C3B43",
"s  c #3C3B49",
"d  c #444443",
"f  c #47464D",
"g  c #534E4C",
"h  c #554D43",
"j  c #5E5543",
"k  c #5F584E",
"l  c #454354",
"z  c #4D4B57",
"x  c #545252",
"c  c #5A5756",
"v  c #665C48",
"b  c #645C57",
"n  c #6C634B",
"m  c #74654D",
"M  c #6B6354",
"N  c #6B645E",
"B  c #766C58",
"V  c #7E745C",
"C  c #545264",
"Z  c #5D5B69",
"A  c #504E60",
"S  c #615F65",
"D  c #656363",
"F  c #6D6B6B",
"G  c #696666",
"H  c #736A69",
"J  c #75736D",
"K  c #7C7466",
"L  c #696777",
"P  c #716C78",
"I  c #757373",
"U  c #7C7A74",
"Y  c #7A7777",
"T  c #96662D",
"R  c #AB7D3A",
"E  c #947744",
"W  c #86775A",
"Q  c #8A7152",
"!  c #AB7F48",
"~  c #857B62",
"^  c #8A7D63",
"/  c #807660",
"(  c #817D7D",
")  c #837C73",
"_  c #907F63",
"`  c #B8843C",
"'  c #CC992D",
"]  c #9E844F",
"[  c #A68755",
"{  c #B68C4A",
"}  c #8E846D",
"|  c #92876C",
" . c #958A6E",
".. c #9A8A6B",
"X. c #83817E",
"o. c #8D8578",
"O. c #988C75",
"+. c #9D9275",
"@. c #9D927A",
"#. c #A6997B",
"$. c #B29D7A",
"%. c #AB936C",
"&. c #C18D45",
"*. c #C79B5D",
"=. c #D1A95E",
"-. c #CEB374",
";. c #F0D052",
":. c #ECCA6F",
">. c #726E81",
",. c #7E7C8D",
"<. c #777584",
"1. c #817C86",
"2. c #858484",
"3. c #8A8582",
"4. c #8E8B89",
"5. c #8B8986",
"6. c #938B88",
"7. c #95928E",
"8. c #9B9387",
"9. c #8A8899",
"0. c #928B99",
"q. c #949293",
"w. c #9A9493",
"e. c #9C9B95",
"r. c #9D9C9A",
"t. c #98939B",
"y. c #A59B84",
"u. c #A19C9C",
"i. c #AC9F9A",
"p. c #B09F80",
"a. c #ACA183",
"s. c #B3A383",
"d. c #B8AA8B",
"f. c #A4A29C",
"g. c #ACA397",
"h. c #B6A899",
"j. c #BDB095",
"k. c #9D9AA9",
"l. c #A29BA4",
"z. c #AA9FAF",
"x. c #A4A3A4",
"c. c #ABA5A4",
"v. c #ACAAA5",
"b. c #ADAAAC",
"n. c #A4A1AD",
"m. c #B2ACAA",
"M. c #B0ABA6",
"N. c #B5B2AD",
"B. c #BBB3AE",
"V. c #ADA9B7",
"C. c #B5B2B2",
"Z. c #BBB5B3",
"A. c #BDBAB5",
"S. c #BEB9BB",
"D. c #B5B1BD",
"F. c #C9B688",
"G. c #C4B492",
"H. c #CABB98",
"J. c #C9B589",
"K. c #C6BCA7",
"L. c #C2BDBA",
"P. c #C5B8B6",
"I. c #DCC186",
"U. c #ECDB99",
"Y. c #F2DC92",
"T. c #F3E096",
"R. c #D5C8A4",
"E. c #C5C4BE",
"W. c #C7C2B0",
"Q. c #DDD4B5",
"!. c #D9CFAD",
"~. c #E5D5AC",
"^. c #EBD9AE",
"/. c #E8DEB6",
"(. c #F6EBB4",
"). c #B6B3C2",
"_. c #BCB9C8",
"`. c #C0BCCD",
"'. c #CAC5C3",
"]. c #CCCBC4",
"[. c #C8C5C9",
"{. c #D2CCCA",
"}. c #D5D2CB",
"|. c #DBD5CF",
" X c #C3C1D1",
".X c #CDC9D9",
"XX c #CDC9D6",
"oX c #D2CDD3",
"OX c #D1CCDC",
"+X c #D6D2D2",
"@X c #DBD4D4",
"#X c #DDDAD5",
"$X c #D5D2DD",
"%X c #DAD6DA",
"&X c #E3DBD5",
"*X c #E3DDDB",
"=X c #E9E3DC",
"-X c #E5E3DC",
";X c #FEF7D0",
":X c #DAD6E4",
">X c #E2DBE3",
",X c #E3DDEA",
"<X c #E5DEF0",
"1X c #E4E1E2",
"2X c #EBE4E3",
"3X c #EDEBEA",
"4X c #E7E3EB",
"5X c #F4EDEB",
"6X c #F7F3EE",
"7X c #ECE4F2",
"8X c #EDE9F6",
"9X c #F3ECF6",
"0X c #F5F3F3",
"qX c #FAF4F4",
"wX c #FDF9F5",
"eX c #F5F2FA",
"rX c #F9F3FC",
"tX c #FEFDFD",
"yX c #F7F8F8",
/* pixels */
"                                                                                                                                ",
"                                                                                                      *.                        ",
"                                                                                                    ;X[                         ",
"                                                                                                    :.                          ",
"                                                                                                  ;.]                           ",
"                                                                                                wX:.                            ",
"                                                                                                { R                             ",
"                                                                                              ;.!                               ",
"                                                                                              Y.T                               ",
"                                                                                            ' =.0                               ",
"                                                                                          tX-.T                                 ",
"                                                                            q   s.G.q + F.] (.`                                 ",
"                                                                          1 $ d.#.j a.H.R.8 %.b                                 ",
"                                                                      #.t : $.#.y.g.G.^ d.!.R.k :                               ",
"                                                                    o q 3  .d.#.i.z.K.a.~ G.+.d.                                ",
"                                                                    o B  .O.| G.f.P.Z.@.f.w k |                                 ",
"                                                                  q m n +.a.~  .s.c.C.'.Z.M.c , s.                              ",
"                                                                  % B ^ v G.^./ r.v.L.f.'.[.S.Z                                 ",
"                                                                o B @.j.d.^ H.7.Z.v.Z.7.f D.2XZ.                                ",
"                                                              $ n 9 | /.^.#.2.A.{.r.f.'.N.yXtX5XS.D                             ",
"                                                              w n +.d.@.G.g.4.{.].m.4.N.+X>X5X*XwX+X1.                          ",
"                                                            4 e % | B k b q.7.#X&X1X3.2.t.x.L.A.'.g.k.                          ",
"                                                              + q K W s.N w.7.&XyXtXtXn.l d H 3.A.D.0.                          ",
"                                                            3 n 5 ~ V #.U r.e.|.tXtXtX:XZ   | o.H b                             ",
"                                    g P c                   _ s.n #.R.@.F r.v.{.0XtXtX4X0.  v a.K                               ",
"                                  D r.f.f.L.E.            > v b n +. .u.w.r.Z.|.2X0XtX7Xl.  + , V                               ",
"                                  F 3.u.( Y U Y Y Y J c 1 @ g O p.#.I e.v.Z.L.&XqX3XtX8XV.L   4 k 3                             ",
"                                J u.D U w.m.A.A.E.Z.c.q.2.U J Y 2.w.3.v.}.}.E.*XtX&XtX8X).L   :                                 ",
"                              : q.b ( m.P.}.#X|.2X2X&X].L.Z.Z.Z.Z.r.e.N.].2X=X2X6XwXtX8X_.L                                     ",
"                              G D F f.{.'.&X2X2XtX5X#X{.}.{.{.{.{.N.C.c.N.|.qX6XtXqXeX7X).Z                                     ",
"                            X G x X.Z.@X{.|.6X|.&X*X#X@X@X#X@X|.&X{.N.Z.m.{.yXtXtXrX,X:XD.L                                     ",
"                            o g x 4.Z.2X].@XwX|.E.}.@X@X|.*X@X*X*X-Xr.C.}.#X{.tXtXtX:X$X X>.                                    ",
"                            O d c 5.L.|.'.2XyX&XZ.].].}.}.*X-X5X=X2XC.3.].wX*X0XtXtX8X$X X,.                                    ",
"                            O 1 g X.'.A.].5XyX@Xm.N.L.{.].#X&XwX=X2XA.F v.0XtX6XtXtXeXOX_.,.C                                   ",
"                            o a d ( E.m.+X3X3X+Xm.u.v.L.S.}.|.1X#X}.].K ( ].yX=XtXtX8X XV.>.2                                   ",
"                            O a d F C.M.@X3X4X+Xm.5.7.v.c.N.].].*X{.Z.U I v.1X+X-XeX,XV.9.L                                     ",
"                            O l f c w.x.+X5X4X%XC.I U q.f.f.'.Z.oXoXb.Y x N.@XwX0XXX`.9.C Z                                     ",
"                            o l a d 4.r.'.2X2X%Xb.D c N 6.w.b.C.C.[.x.I 1 6.L.2X9X.X0.A <.z                                     ",
"                            . s - c F c.E.%X>XoX9.a ; d c I 2.t.u.k.0.S - F m.{.,XV.z ,.k.                                      ",
"                              l - J e.r.E.@X:XV.s 2 - . = 1 z D P G C s < 5 r.Z.oX,.,.).t.                                      ",
"                            t h 5 J f.N.E.%Xn.< < <     X . O O * * *     ; x.v.[.P _.7X>.                                      ",
"                            h j k X.w.e.w.>.2 C l                         : c.S._.4.3XrX0.                                      ",
"                            M 2.U 2.Y Y s 1 2.,.                          z N.&XOXf.3XrX1.                                      ",
"                            2.e.N.c.P 2 $ q._.9.                          O Z.0X7Xt.+X$X9.                                      ",
"                          $ F ].oX<.>   = l.,X.X9.                        2 c.*X:XS _..Xk.                                      ",
"                          o D A.7XZ ,   X q.>XrX).                        = c C.$Xv M.4Xn.                                      ",
"                          @ D A.rX) 6   X G '.tX4XP                       q ) v.OXy.u.eXV.                                      ",
"                          % @.m.tX8.o.    M N.2XtX.X                    o H.~.M.XXy.j.tXOX                                      ",
"                          n } !.tX0.K     O.g.].tX<X1.                  @.J.!.m.1X} o.wX>X9.                                    ",
"                          M $.K.0X X      #.d.d.=XyXV.                & W ^.~.R.eXQ.B E.tXb.                                    ",
"                          v O.) 2X.XP   # : 1 ^ P.*XK.-.&.              | ~.^.H.5XE. .7.=XK.&.                                  ",
"                        h ~ H.o.X.0Xl.  & r w M _ %.U.T.y             o j  . .V B.4Xo.v I.;XU.7                                 ",
"                        3 r j ~.W y...{         u -.(.T.u ^               w . r g.W.$.i p J.F.v v                               ",
"                          B > n E $.U.=.y                                 5 = Q [ ~.I.i                                         ",
"                                0 E G.J.0                                     0 u $.G.Q m                                       ",
"                                                                                                                                ",
"                                                                                                                                ",
"                                                                                                                                ",
"                                                                                                                                ",
"                                                                                                                                ",
"                                                                                                                                ",
"                                                                                                                                ",
"                                                                                                                                ",
"                                                                                                                                "
};
