/* XPM */
static char *unicorn_right_2[] = {
/* columns rows colors chars-per-pixel */
"64 64 211 2 ",
"   c None",
".  c black",
"X  c #0C0B05",
"o  c #0C0B0A",
"O  c #080708",
"+  c #18130A",
"@  c #151315",
"#  c #120905",
"$  c #211D15",
"%  c #29231B",
"&  c #322A1D",
"*  c #1B1B26",
"=  c #2D2D2B",
"-  c #282624",
";  c #3A352B",
":  c #262534",
">  c #353534",
",  c #3B3B3A",
"<  c #3A3738",
"1  c #42361F",
"2  c #443728",
"3  c #453D33",
"4  c #5B411F",
"5  c #494439",
"6  c #534B3D",
"7  c #554935",
"8  c #554A31",
"9  c #664B29",
"0  c #6E5738",
"q  c #755C3B",
"w  c #6A4F31",
"e  c #2F2D42",
"r  c #363543",
"t  c #413F40",
"y  c #434343",
"u  c #4A4944",
"i  c #4D4C4C",
"p  c #45444B",
"a  c #534B41",
"s  c #564E47",
"d  c #5C5647",
"f  c #4A495A",
"g  c #545352",
"h  c #5D5756",
"j  c #5D5A55",
"k  c #5D5B5C",
"l  c #53505A",
"z  c #645C4A",
"x  c #675A42",
"c  c #625C5B",
"v  c #645E53",
"b  c #6D644C",
"n  c #78664A",
"m  c #6A6252",
"M  c #68635D",
"N  c #746B54",
"B  c #746B57",
"V  c #7C735D",
"C  c #535264",
"Z  c #5C5A6C",
"A  c #5C5B65",
"S  c #615E68",
"D  c #615E72",
"F  c #696764",
"G  c #696765",
"H  c #736C69",
"J  c #7C7464",
"K  c #78746A",
"L  c #6A6876",
"P  c #757474",
"I  c #7B7974",
"U  c #7C7B7C",
"Y  c #76727C",
"T  c #956E33",
"R  c #AC7C39",
"E  c #82755B",
"W  c #916E48",
"Q  c #A07B48",
"!  c #847A62",
"~  c #897D64",
"^  c #877E6C",
"/  c #827D7B",
"(  c #807A77",
")  c #BD873D",
"_  c #C58E3E",
"`  c #E4AC37",
"'  c #96815A",
"]  c #A68344",
"[  c #A38456",
"{  c #B99455",
"}  c #B38942",
"|  c #8E836C",
" . c #8D8465",
".. c #968A6C",
"X. c #8D8472",
"o. c #83837D",
"O. c #868177",
"+. c #988C75",
"@. c #9C967B",
"#. c #A39374",
"$. c #A59B7C",
"%. c #A99979",
"&. c #B09F7F",
"*. c #B8A67F",
"=. c #AFA27F",
"-. c #C89444",
";. c #E1BD5A",
":. c #D2AC69",
">. c #E9CA71",
",. c #787586",
"<. c #7F7D90",
"1. c #817F90",
"2. c #837F80",
"3. c #858484",
"4. c #8A8683",
"5. c #8E8C8B",
"6. c #8B8988",
"7. c #928C89",
"8. c #9B9189",
"9. c #898695",
"0. c #949391",
"q. c #9A9492",
"w. c #9D9B95",
"e. c #9A989B",
"r. c #AA9E83",
"t. c #A19C9A",
"y. c #ACA286",
"u. c #B3A584",
"i. c #BBAD8B",
"p. c #B5A989",
"a. c #BDB08C",
"s. c #A6A29D",
"d. c #BEB193",
"f. c #9593A4",
"g. c #9D97A3",
"h. c #8F8BA0",
"j. c #A49EA9",
"k. c #A09EB2",
"l. c #AAA5A3",
"z. c #ACAAA5",
"x. c #ADA9A9",
"c. c #A7A4A9",
"v. c #B2ACAA",
"b. c #B4B1AC",
"n. c #BAB4A8",
"m. c #A7A6B6",
"M. c #BAB5B3",
"N. c #BDBBB6",
"B. c #BDBBBC",
"V. c #B6B2B9",
"C. c #B1ABB2",
"Z. c #C2B18C",
"A. c #CCB984",
"S. c #CBBB96",
"D. c #C7B997",
"F. c #C3BDBB",
"G. c #C2BEB6",
"H. c #C1B5AC",
"J. c #CCC09A",
"K. c #D3C39D",
"L. c #E7D393",
"P. c #F3D58B",
"I. c #F5E298",
"U. c #DACAA6",
"Y. c #DFD2A6",
"T. c #C5C3BD",
"R. c #C8C3BE",
"E. c #C9C2B0",
"W. c #D1CDB4",
"Q. c #EADDB4",
"!. c #E6DCB5",
"~. c #E5D7AA",
"^. c #FDF4BE",
"/. c #F0E3AF",
"(. c #BBB7C6",
"). c #C2BCC3",
"_. c #C2BDCD",
"`. c #CCC4C4",
"'. c #CECAC6",
"]. c #CCC9C9",
"[. c #D3CCCB",
"{. c #D2CDC7",
"}. c #D5D3CD",
"|. c #DAD5CD",
" X c #CCC7D8",
".X c #D6CFD7",
"XX c #DBD5D3",
"oX c #DEDDD6",
"OX c #DEDBDB",
"+X c #D9D5DB",
"@X c #E3DED6",
"#X c #E3DDDA",
"$X c #E8DFDF",
"%X c #F8EDC3",
"&X c #E7E3DC",
"*X c #FCF9CF",
"=X c #DBD9E5",
"-X c #E3DDE5",
";X c #ECE5E4",
":X c #EDE9E5",
">X c #EBE5EB",
",X c #EEEBEA",
"<X c #E6E1E4",
"1X c #F2ECEB",
"2X c #F9F6E9",
"3X c #EDEBF3",
"4X c #F2EDF3",
"5X c #F5F2F2",
"6X c #FAF5F3",
"7X c #FDFCFC",
"8X c #FAF6F9",
/* pixels */
"                                                                                                                                ",
"                                                                                                                                ",
"                                                                                                                                ",
"                                                                                                                                ",
"                                                                                                                                ",
"                                                                                                                                ",
"                                                                                                                                ",
"                                                                                                                      :X        ",
"                                                                                                                    ) [         ",
"                                                                                                                6XP.W           ",
"                                                                                                              -._ T             ",
"                                                                                                          8X:.}                 ",
"                                                                                %.5   - N     Z.          ` {                   ",
"                                                                            + z 6 ~ b u.%.%.K.a       5XR ]                     ",
"                                                                        % E b  .E =.p.u.y.~ N #.#...] ;.w                       ",
"                                                                      o B 6 V $.S.V D.D.+./ Z.#.~.^.:.Q                         ",
"                                                                  b 3  .#.$.V E Q...+.i.s.3.i.~ H.U.:.6                         ",
"                                                              + $ $.V x x J U.B K.U.V J.j.H.u.+.Z.K.Q.6                         ",
"                                                                d = 7 a.i.D.!.Z.D.n.l.N.j.M.R.].c B y.%                         ",
"                                                              o X ; N 5 s F p.n.z.N.[.R.F.}.}.[.V.X.a                           ",
"                                                              7 ! d ! N $.m O.b.x.{.XXN.N.R.P >X).L -                           ",
"                                                            d d | 2 $.b ..8.l.z.M.#X&XM.v.T.* 9. Xc.                            ",
"                                                            m 5 & +.#.D.| 8.N.l.XX5X,Xv.q.F.}.<X7XOXl                           ",
"                                                            5 J.| u.V ! K v.v.N.:X7X8XOXH 5.C.OX1X8Xl.                          ",
"                                                          b m a a.J u.^ 4.F.b.'.5X7X7X7Xc.r c x.N.8X=XY                         ",
"                                  7.H k v.M.              +.#.%.=.K.J q.b.{.R.#X5X5X7X8XV.:   X.M.M.).<.                        ",
"                                . c x.w.z.w.F F G G j     - + v @.K o.M.}.}.[.:X6X,X7X3Xk.f ; Z.4.v.Y ,.                        ",
"                                I o.u H 5.s.v.v.z.w.7.U G j F I 5.6.5.T.XX#X|.,X5X,X4X-Xf.  + X.v k e                           ",
"                              g 0.k 4.s.G.}.}.XX$X@X{.N.b.v.M.M.l.q.t.T.`.:X1X1X1X4X3X=X9.    & z                               ",
"                              U k K b.G.[.#X#X5X6X&X|.'.'.'.'.'.F.l.z.v.M.&X8X8X5X,X3X.X9.    2 B U.                            ",
"                            , F g 0.F.[.}.oX&X@X:X@XoX|.[.XX|.}.#Xl.b.M.'.}.1X7X8X4X+X_.1.                                      ",
"                            , p M w.[.oX`.<X1X'.[.XX}.oX}.oXoXXX:XB.w.b.@X1XXX6X7X8X-X(.f.C                                     ",
"                            > t F e.|.|.'.5X5XT.F.[.T.XX}.&X<X#X1XXXw.6.{.8X5X5X7X7X4X(.f.C                                     ",
"                            = , h q.[.M.[.5X6X|.z.R.G.}.[.<X<X8X:X@Xs.I b.;X7X1X7X7X4X(.9.D                                     ",
"                            = < i 6.'.x.}.1X1XoXt.z.v.`.R.XXXX:X}.XXB.I I M.1X:X#X7X3X(.,.L                                     ",
"                            < < 5 / M.z.|.1X,XXXw.q.w.M.z.`.T.OXXX[.v./ c t.XX1X8X-X.X9.Z                                       ",
"                            u p y h w.l.[.,X1XOXq.P 4.x.w.b.T.F.XX[.x.o.g 3.R.&X5X3Xk.f >                                       ",
"                            H D y , 6.w.B.<X6X-XM.c M I q.t.V.C.).B.t.U u i w.'.-X8X).C                                         ",
"                          u g.  o y k q.F.XX<X=Xe.- y g G U 0.t.j.g.3.A = - i z.[.-X3XC                                         ",
"                          5.c.    = ( 4.b.#X4X(.f = @ % < p k L L D f e *   O y M.XX4X(.                                        ",
"                      . m ).h.    = 2.l.M.}. XA * < :     @ * - : :         . O u '.:X5Xj.                                      ",
"                  ~ E #.d.X.      , / t.l.j.L : :                         o @ o * I |.8X-X9.                                    ",
"              B u.Z.U.%X*Xz     S h 4.5.e.A A G                           O , - * r z.XX5X9.                                    ",
"            6 d $.S.i.U.B     H o.q.t.5.r k ].,XT.3.                      d I h s V M s.<X1.                                    ",
"          b & & ..&.y.r.5     o.t.R.V.D . i x.[.;X5X`.                    | M ! S.Y.U.s.).Z                                     ",
"        + N ~ ~ B d.V u.%     h b.>X,.      J q.T.,X4Xf.                 .i.O.d.Q.K.n.N.<.                                      ",
"        x +.a 2 d 5 !         j v.>X9.      a.D.y.@X8X(.              B d r.J p.Q.Q.R.(.                                        ",
"        X.m @ 3 J 3           ^ z.8Xf.      ; B ! XX8XXX              5 6 X.[ ' m $.).f.                                        ",
"            ,               b +.E.7XV.      j 9 [ ~.^.>.W             b %.m !.2XS.q.g.                                          ",
"                            s +.W.5X(.          w !./.>.1             u.z E Y./.+XP *                                           ",
"                            N ! 4.>X XD           7 n n ;             z ; a 0 n b 0 {                                           ",
"                          & V i.K v.=X9.                                ; , 9 8 R I.L.4                                         ",
"                        # & 6 a %X( |.+.                                  3   8 q I.I.T 3                                       ",
"                          u.; | V Q #.*.R                                     1 2 q n x                                         ",
"                                0 W L.2XA.2                                                                                     ",
"                                                                                                                                ",
"                                                                                                                                ",
"                                                                                                                                ",
"                                                                                                                                ",
"                                                                                                                                ",
"                                                                                                                                ",
"                                                                                                                                ",
"                                                                                                                                ",
"                                                                                                                                "
};
