/* XPM */
static char *unicorn_right_8[] = {
/* columns rows colors chars-per-pixel */
"64 64 221 2 ",
"   c None",
".  c #080904",
"X  c #170E07",
"o  c #1B150B",
"O  c #1A1717",
"+  c #221E1A",
"@  c #231B0C",
"#  c #2A261E",
"$  c #32291C",
"%  c #1A1924",
"&  c #211F2C",
"*  c #252423",
"=  c #2B2B2C",
"-  c #22212B",
";  c #342E27",
":  c #3A342A",
">  c #282637",
",  c #312F32",
"<  c #353333",
"1  c #3A3A3B",
"2  c #393637",
"3  c #503A1D",
"4  c #433A2A",
"5  c #453725",
"6  c #433A32",
"7  c #443E3C",
"8  c #4D422D",
"9  c #494438",
"0  c #554D3C",
"q  c #554A37",
"w  c #5B513C",
"e  c #5B4323",
"r  c #7B5E3A",
"t  c #6E5434",
"y  c #7C603D",
"u  c #3A3B47",
"i  c #444343",
"p  c #4C4643",
"a  c #47464B",
"s  c #514C4C",
"d  c #585349",
"f  c #474556",
"g  c #5B5959",
"h  c #585754",
"j  c #645C4C",
"k  c #695B46",
"l  c #625C55",
"z  c #6A624B",
"x  c #6A6046",
"c  c #776649",
"v  c #6B6253",
"b  c #63615D",
"n  c #676155",
"m  c #756B53",
"M  c #776C58",
"N  c #7B725C",
"B  c #545364",
"V  c #5C5C6B",
"C  c #4F4D60",
"Z  c #626264",
"A  c #6B6663",
"S  c #6A696B",
"D  c #6B6965",
"F  c #766E68",
"G  c #7D7565",
"H  c #6D6A7B",
"J  c #666473",
"K  c #7B7976",
"L  c #7D7A79",
"P  c #777576",
"I  c #706E7E",
"U  c #845E32",
"Y  c #855C2A",
"T  c #876A3F",
"R  c #87795A",
"E  c #93734E",
"W  c #A67D4C",
"Q  c #847A63",
"!  c #877B66",
"~  c #817D7D",
"^  c #C08A3F",
"/  c #B38B4F",
"(  c #8D846C",
")  c #8B846C",
"_  c #94896C",
"`  c #96876B",
"'  c #84837C",
"]  c #8B8378",
"[  c #948B72",
"{  c #988D71",
"}  c #9D9275",
"|  c #9E927B",
" . c #A68F6C",
".. c #B3986C",
"X. c #A39573",
"o. c #A99A79",
"O. c #B29F73",
"+. c #B6A47D",
"@. c #CA984A",
"#. c #D5B058",
"$. c #D7B36A",
"%. c #EAB74D",
"&. c #F1D373",
"*. c #757484",
"=. c #7D7C8D",
"-. c #7B7584",
";. c #837F91",
":. c #8B8684",
">. c #8C8A85",
",. c #888588",
"<. c #938D8D",
"1. c #988E83",
"2. c #93918D",
"3. c #989288",
"4. c #898899",
"5. c #938E98",
"6. c #959491",
"7. c #999493",
"8. c #9C9B94",
"9. c #93929D",
"0. c #9E9C99",
"q. c #A99D84",
"w. c #A39D9C",
"e. c #B19D80",
"r. c #AEA285",
"t. c #B3A384",
"y. c #BAA986",
"u. c #BCAE8B",
"i. c #B7A888",
"p. c #A3A29C",
"a. c #AAA59C",
"s. c #BCAC91",
"d. c #BCB397",
"f. c #918FA1",
"g. c #9A96A5",
"h. c #A39BA8",
"j. c #A19EB1",
"k. c #A7A5A2",
"l. c #ABA5A4",
"z. c #ABAAA4",
"x. c #ADABAA",
"c. c #A7A2AB",
"v. c #B3ADAB",
"b. c #B5B2AD",
"n. c #B9B4AA",
"m. c #A6A3B6",
"M. c #ABA8B6",
"N. c #BAB4B2",
"B. c #BCBAB4",
"V. c #BAB7B9",
"C. c #B2ACB5",
"Z. c #C1AE87",
"A. c #C7B48C",
"S. c #CBBC96",
"D. c #C7B897",
"F. c #D1BF9C",
"G. c #D6B38C",
"H. c #C3BDBB",
"J. c #C4BBB6",
"K. c #C9BEA2",
"L. c #D2C299",
"P. c #CAC196",
"I. c #E8C989",
"U. c #EBD896",
"Y. c #F0E09E",
"T. c #DBCCA4",
"R. c #D5C7A6",
"E. c #DFD6A8",
"W. c #C5C3BC",
"Q. c #C8C1BF",
"!. c #D2CCB3",
"~. c #E5D5AA",
"^. c #EBDDB3",
"/. c #F0D7AD",
"(. c #F6ECAD",
"). c #F2E3B9",
"_. c #FAF0BA",
"`. c #BBB7C7",
"'. c #B1AEC1",
"]. c #C2BEC3",
"[. c #C2BECA",
"{. c #CBC5C3",
"}. c #CDCAC4",
"|. c #CCC6CB",
" X c #CEC9CB",
".X c #C7C2C6",
"XX c #D2CDCB",
"oX c #D3CBC5",
"OX c #D5D2CC",
"+X c #DAD2CF",
"@X c #CBC6D6",
"#X c #D3CED1",
"$X c #DBD5D3",
"%X c #DEDAD5",
"&X c #DBD5D9",
"*X c #E3DCDB",
"=X c #E2D9D2",
"-X c #E7E3DD",
";X c #EAE3DE",
":X c #FDF7D6",
">X c #FCF2C7",
",X c #DAD6E2",
"<X c #E4DCE3",
"1X c #E4DDEA",
"2X c #E5E2E1",
"3X c #EBE4E3",
"4X c #EDE9E5",
"5X c #EDEBEC",
"6X c #E9E5EB",
"7X c #F3EDEC",
"8X c #F4ECE6",
"9X c #F3F1ED",
"0X c #FEFAEA",
"qX c #ECEBF5",
"wX c #EBE7F0",
"eX c #F2EEF6",
"rX c #F6F3F3",
"tX c #FAF5F4",
"yX c #FAF5FB",
"uX c #FEFDFD",
"iX c #FAF8F8",
/* pixels */
"                                                                                                                                ",
"                                                                                                                                ",
"                                                                                                                                ",
"                                                                                                                                ",
"                                                                                                                                ",
"                                                                                                                                ",
"                                                                                                                                ",
"                                                                                                                      /         ",
"                                                                                                                uXG.@.          ",
"                                                                                                                &.$.            ",
"                                                                                                          uX  #.@.              ",
"                                                                                 .                        Y.&.%.                ",
"                                                                            X 4 m 0 0 d R D.+.:       rXW &.U                   ",
"                                                                          . o 4 w Q } ~.A.y.i.k v Q   I.@.r                     ",
"                                                                        8 R c u.{ ` S.) ( Q u.L.E.L.@./ Y                       ",
"                                                                    : 8  .( j _ F.M s.t.r.L N N T.uXI./                         ",
"                                                                ; w 4 ! M ( } k >XD.M A.g.h.S.Q d.(.Z.N                         ",
"                                                                6 ( z m } S.).X.i.L.] d.c.J.q.W._ P.T.:                         ",
"                                                                0 o w } ] ) R.D.n.n.B.XXb.].%XH.,.j G +                         ",
"                                                              o $ k R 0 G d [ n.l.}.OXB.B.OXb.2X[.[ ;                           ",
"                                                              k { $ _ ! r.) 6.b.v.$XXXx.N.J.a  X[.-.                            ",
"                                                            0 w v N o.Q z 3.b.l.OX4XXX7.p.{.:.c.6X|.                            ",
"                                                              m v } ! S.G 8.B.x.*XiX*X2.>.v.XX2XuX5X-.                          ",
"                                                          q z R.X.t.) ! L B.x.H.9XuXuX5XS Z ,.XX*XuX.X                          ",
"                                  b   < >.                  d } ( q.s.3.8.H.N.XXrXuXuXyXm.u 2 :.N.2X6Xh.                        ",
"                                D L 8.<.B.8.2.i i s       v +.q y.t.K N.H.XX{.*XtX9XuXeXm.B   y.v.a.1.Z                         ",
"                                = L 0.:.P K :.:.' L F g i O * n A L ' {.$X+XOX3XrX4XuXwXg.> x r.) <.J                           ",
"                                <.:.b >.k.B.Q.{.}.H.v.8.<.>.<.8.w.>.0.{.OX3X;X3XrX4XyX,Xf.  X p p 2                             ",
"                              l K g 8.b.{.%X=X*X8X3XoXW.H.J.H.H.b.l.a.B.H.3XrXrXrXiXeX@X;.    ; v F.                            ",
"                              S d ' B.{.XX*X;X9XiX-X$XXXXXOXXXXX$Xv.n.v.N.*XuXuX7XrXwX@X=.B   4 M                               ",
"                            * p g 7.}.$X}.-X4XOX$X%X%X$XOX%X%XOX3XB.0.B.=X-X$XuXuXeX<X`.4.=.                                    ",
"                            = i Z 8.XX*X}.9X9X{.{.$X}.=X$X*X-X=X7XXX7.w.OXuX7XiXuXyX<X'.g.9.f                                   ",
"                            * 7 b w.OX}.#XiXtX{.B.XXQ.$XOX;X4X4X7X%X6.' W.iXuXiXuXuX1XM.g.m.4.                                  ",
"                            O 2 h k.OXN.%XrXiXOXk.B.B.XX X*X*XtX=X%Xx.S 0.%XrX*XuXyX,Xm.f.g.J                                   ",
"                            O 2 a 8.{.v.%X7X3X*Xp.w.k.H.B.XX}.3XOXOXB.g w.}.3X*XiXwX@X5.4.=.                                    ",
"                            < , 2 P b.x.$XrX2X&Xz.>.2.v.p.J.H. X%XXXv.h 6.XX5X5X&X`.=.*.H *.                                    ",
"                            , 1 i g 2.a. XrX5X&XN.D P 8.w.l.B.V.#X Xx.g A B.OX<X6Xf.J C ;.j.                                    ",
"                            i B 2 1 :.w.B.2XyX<X`.h h b :.6.k.x.C.C.4.g , K H.#XqX|.B 9.@Xf.                                    ",
"                            ~ B   9 b 7.H.#X1X,X=.= * 9 h S ~ <.9.4.J a - * ~ &X&XyX9.[.@XH                                     ",
"                          A C.    i 6.0.B.2XwXf.2 = - % % = 1 a f a , >     # >.3XyX,X&X`.                                      ",
"                          p.9.    s 6.z.N. Xm.- O % -     O O % &           . = z.;XuX X'.                                      ",
"                    R [ Z.d.    g S <.7.9.*.f i                                 h H.2X5Xj.                                      ",
"                j { o.).^.D.i ' L >.~ P f < 7.].,.                        o 0 z N D 2.eX4.J                                     ",
"              w ) t.q.y.S.< A >.v.b.,.f 6 s b.uX,XI                       8 ` S.).K.l.V.j.V                                     ",
"          j k @ : X.T.| v $ d <.7Xm.f . j N n.&X`.H                       o.~.R.D.N.V.4.`.*.                                    ",
"          o.{ ! m [ M r.A   : L *X,XH   r G 5XqXM.                        u.S.E.R.}.5.9.@X4.                                    ",
"      + . q N 6 2 d G D.    * P  XqX=.  T ^.0X8Xc.                        X.M _ s.`.p V.qXh.                                    ",
"        j { F + v : s       + ` v.uX,.  8 L.~.A.3                       E 0X_.a.g.S l  XyX`.                                    ",
"              2             z Q !.rX].    5 c R X                       E Y.^.|.a 4 M 8.iX@X                                    ",
"                            6 | !.3XwX=.    8 E                         8 w c 6 ; * r.T.8X,XH                                   ",
"                            5 [ a.w.yXg.                                q U       ( N q.}.*X..^                                 ",
"                            w N L.| H.<X<.                                        q.j k W :X(...e                               ",
"                          o : v R.e.R Z.$.U                                             t +.U.Z.6                               ",
"                            Q w   y #.:X:Xt                                                                                     ",
"                                  5 5 R O.r                                                                                     ",
"                                                                                                                                ",
"                                                                                                                                ",
"                                                                                                                                ",
"                                                                                                                                ",
"                                                                                                                                ",
"                                                                                                                                ",
"                                                                                                                                ",
"                                                                                                                                ",
"                                                                                                                                "
};
