/* XPM */
static char *unicorn_left_1[] = {
/* columns rows colors chars-per-pixel */
"64 64 221 2 ",
"   c None",
".  c #040402",
"X  c #0D0C0A",
"o  c #120C09",
"O  c #1C160D",
"+  c #1A1919",
"@  c #211D18",
"#  c #2B2419",
"$  c #362D1E",
"%  c #3B311D",
"&  c #1E1C23",
"*  c #272628",
"=  c #342E25",
"-  c #3A3325",
";  c #3A322B",
":  c #2A2936",
">  c #3C3B3B",
",  c #373433",
"<  c #40311F",
"1  c #473929",
"2  c #453D37",
"3  c #4B402D",
"4  c #5A4628",
"5  c #4B4332",
"6  c #46433C",
"7  c #4D463A",
"8  c #544C3A",
"9  c #534834",
"0  c #5B513A",
"q  c #614E34",
"w  c #685738",
"e  c #6C502D",
"r  c #78603D",
"t  c #3A3947",
"y  c #403E51",
"u  c #403E4C",
"i  c #444343",
"p  c #4C4A43",
"a  c #4D4645",
"s  c #5D5442",
"d  c #5B574C",
"f  c #4C4B5A",
"g  c #555453",
"h  c #5D5C5B",
"j  c #595656",
"k  c #554E48",
"l  c #665E4C",
"z  c #625C59",
"x  c #746548",
"c  c #6B6353",
"v  c #64625E",
"b  c #6A6453",
"n  c #746B55",
"m  c #776E59",
"M  c #7B725A",
"N  c #7E7256",
"B  c #6F644F",
"V  c #595769",
"C  c #514F61",
"Z  c #656363",
"A  c #6A6964",
"S  c #6D6C6B",
"D  c #666366",
"F  c #726E6D",
"G  c #756C65",
"H  c #72706C",
"J  c #7C7465",
"K  c #646374",
"L  c #6D6B7C",
"P  c #7C7A7C",
"I  c #787477",
"U  c #855D2C",
"Y  c #986A30",
"T  c #A77737",
"R  c #9B7A4B",
"E  c #887B5B",
"W  c #896C4C",
"Q  c #AB7D4B",
"!  c #877A68",
"~  c #847E7C",
"^  c #897A76",
"/  c #D8A23E",
"(  c #9D8452",
")  c #A98958",
"_  c #8D836C",
"`  c #8C8164",
"'  c #95896D",
"]  c #898476",
"[  c #948974",
"{  c #9A8E73",
"}  c #93887A",
"|  c #9F957D",
" . c #A59474",
".. c #A8997C",
"X. c #AD9368",
"o. c #B5A47F",
"O. c #AAA17E",
"+. c #CB9746",
"@. c #DBB558",
"#. c #CCA552",
"$. c #EEB746",
"%. c #DAB966",
"&. c #CBB16C",
"*. c #E5BE6E",
"=. c #D6C17C",
"-. c #EED073",
";. c #787787",
":. c #858483",
">. c #8B8685",
",. c #8C8985",
"<. c #8E8B89",
"1. c #87848B",
"2. c #938F89",
"3. c #93918D",
"4. c #9B9488",
"5. c #8E8C9D",
"6. c #848193",
"7. c #928E9B",
"8. c #959392",
"9. c #999592",
"0. c #9D9B94",
"q. c #9D9B9A",
"w. c #99959E",
"e. c #A89C89",
"r. c #A39D9B",
"t. c #A29A95",
"y. c #ADA182",
"u. c #AEA588",
"i. c #B2A383",
"p. c #BBAA88",
"a. c #A4A19C",
"s. c #B5AB98",
"d. c #9A95A4",
"f. c #9E9BAB",
"g. c #9895A6",
"h. c #A69FA7",
"j. c #A39FB2",
"k. c #AAA6A2",
"l. c #ACAAA5",
"z. c #A7A4A8",
"x. c #B2ACA7",
"c. c #B2ADAA",
"v. c #B4B2AD",
"b. c #B6B3AA",
"n. c #AAA6B7",
"m. c #B2ADB7",
"M. c #BAB4B3",
"N. c #BDBBB5",
"B. c #BBB7BC",
"V. c #B9B5B8",
"C. c #C1B28D",
"Z. c #C4B593",
"A. c #CBBB96",
"S. c #C9BB99",
"D. c #C2B8A9",
"F. c #C3BDBB",
"G. c #C2BCB2",
"H. c #D5C49D",
"J. c #D6C597",
"K. c #E9D99B",
"L. c #E7D08D",
"P. c #DBCBA3",
"I. c #D7C6A2",
"U. c #C5C2BD",
"Y. c #C9C2B6",
"T. c #D1C7B2",
"R. c #E2D5AB",
"E. c #EBDDA0",
"W. c #EBDBB3",
"Q. c #F2E7B4",
"!. c #BDBBCB",
"~. c #B9B6C1",
"^. c #C5BEC5",
"/. c #D2BCC1",
"(. c #C6C2C3",
"). c #CBC5C4",
"_. c #CDCAC5",
"`. c #CAC6CC",
"'. c #D3CDCB",
"]. c #D3CFC7",
"[. c #D5D2CD",
"{. c #D9D4CD",
"}. c #CAC5D4",
"|. c #C7C5D2",
" X c #D2CCD8",
".X c #DBD5D4",
"XX c #DDDAD4",
"oX c #DFDCDB",
"OX c #D6D3D7",
"+X c #E5DDD6",
"@X c #E3DDDB",
"#X c #E8DFDF",
"$X c #F8EDCC",
"%X c #FCF6C6",
"&X c #E4E2DC",
"*X c #EBE4DD",
"=X c #E8E8DF",
"-X c #FDF7DA",
";X c #F7E9DA",
":X c #DAD7E4",
">X c #E5DEE6",
",X c #E4E2E2",
"<X c #EBE4E3",
"1X c #E6E4EC",
"2X c #EAE4EC",
"3X c #EEEBEC",
"4X c #EDEAE5",
"5X c #F0EAE6",
"6X c #F2EBEC",
"7X c #F8EFEF",
"8X c #F4F1ED",
"9X c #FCF9E5",
"0X c #ECE5F2",
"qX c #EDECF4",
"wX c #F1ECF6",
"eX c #F4F2F3",
"rX c #FAF5F4",
"tX c #FCFAF4",
"yX c #FAF6FA",
"uX c #FEFDFD",
"iX c #F5F4FA",
/* pixels */
"                                                                                                                                ",
"                                                                                                                                ",
"                                                                                                                                ",
"                  %.                                                                                                            ",
"                    #.                                                                                                          ",
"                    +.-X                                                                                                        ",
"                      @.@.                                                                                                      ",
"                      U T tX                                                                                                    ",
"                        $.*.                                                                                                    ",
"                          Y T                                                                                                   ",
"                          e E.;X                                                                                                ",
"                            ) Y /     [ s                                                                                       ",
"                              U *.9Xr 9 { ..{ M 7   1                                                                           ",
"                              W -.L.K.S.P.c O.H.N - M =                                                                         ",
"                            , s o.A.p.G [ t.] [ Z.' 9 # O                                                                       ",
"                              u.i.Q.M p.D.h.s.i.y...e. .0 M                                                                     ",
"                              e.d 6 0.} x./.e.i.n ..o.c 9 5                                                                     ",
"                              l , z.M.'.v.h.t.J C.R.n _ u. .% o                                                                 ",
"                                7.~.#X9.).c.N.9.s.Z. .R.| n s 3 1                                                               ",
"                              I '.^.;.> ).l.M._.r.2.I.P.S._ 8 n 2 ;                                                             ",
"                            j (.uXyX[.U.M.9.^.[.M.9.Z.m b ! ' @ 2                                                               ",
"                            ^.rX8X6X.X(.0.:.'.XX_.9.3.c { { ` 5 O .                                                             ",
"                          z.<X3XF.B.w.;.P N.uXrX.X9.a.] ..! [ 5 n  .                                                            ",
"                          n.4.F.a.F : V OXuXuXuX[.a.l.~ n P.` 8 B N                                                             ",
"                          L q.! } '   6.1XuXuXuX[.M.k.:.z c M l u.i.[                                                           ",
"                            L Z y.d l 6.0XuXrX<X.X_.k.a.k.J Z.8 % n                 M.c.Z H <.                                  ",
"                              J > #   g.2XuX8X8X*X].F.Y.v.I ..A.; o #     g Z A Z D q.k.0.l.j *                                 ",
"                              ! ,     f.1XyX3X3X<X).[.XX(.>.3.:.H h g A P <.q.k.c.c.a.<.F a <.:.                                ",
"                                <   t f.>XiXuX8X5X*X<X'.U.r.9.k.b.v.x.c.N.].+X#X.X{.[.F.a.,.h 8.Z                               ",
"                                    y d.:XwXrXuXeXrX#XM.M.k.l.U.).)._.)._.{.*XtXeX&X&X'.F.v.I h ~                               ",
"                                    V 5. X:XwXuXuXuX@XM.M.G.c.+X[.[..X[.{.XX@X5X+X*X*X[.'.U.9.j Z *                             ",
"                                    K j.}.:XyXuXuXXX.X@XM.q.U.<X.XoXoX.XoX[.XX]._.<X5XU.XX'.r.v a i                             ",
"                                    ;.j.|.2XuXuXrX&XtX@X9.3.{.6X@X=X&X.XXX(.'.F.U.8X8X_.[.[.a.S i 2                             ",
"                                    ;.f.!.0XuXuXrXuXtXU.S 9.oX5X6X4X<X].[.U.U.c.M.eXrXoXM.'.r.v 6 >                             ",
"                                    ;.6.n.0XuXuX*XuX.X9.z l.{.[.3X.XXX_.).v.l.0.).5XeX&XM.).t.h > >                             ",
"                                    K L f.:X0X@X.X<XM.] A k._.[.@XU._.c.M.q.9.9.'.oX3X,XM.N.3.p 6 >                             ",
"                                      V K n. XyXuX.XM.A A q.^..X(.(.M.0.l.:.I <..XoX7X,Xv.a.I 6 t i                             ",
"                                      ;.V C }.eX,XF.3.> A 3.B.`.m.V.a.9.:.v z d.OX,X6X.Xc.2.Z p t f                             ",
"                                      ;.d.V }.1X).c.g , g P z.h.h.8.:.G g i , 1. X2X,X'.v.I i ,   Z .                           ",
"                                        n.g.}.OXv.<.+ : : f K ;.I Z g 2 * X : t n.1XOX(.q.] Z X   1.+                           ",
"                                        n. X}.).^.p         : : * + O X     t * : ^.1X_.c.r.F ,   q.p                           ",
"                                        7.1X1XXXc.@                           t y f d.c.a.0.H ;   s.]                           ",
"                                        f.}.uX@X<..                             f K t K 8.>.~ v S R.Z.`                         ",
"                                        ;.}.uX].F                               5.f.L & y 1.q.9.<.} P... .                      ",
"                                        n.|.&Xk.8                               }.wXz.> . V m.).k.~ p.o.H.s                     ",
"                                        g.!.B.A N 8                           B.uX2Xq.*     ;.2Xv.j _ ' $X-                     ",
"                                        g.~.(.D.$X{ C.                      (.uX<XU.Z .     5.qXc.j j M , p                     ",
"                                        !.~.`.c.S.W.i.#                   5.iXuX_.0.n       g.yXl.d 6 N ' 3 $                   ",
"                                      K |.'.|.G.W.R.A.# 2                 !.yX+Xt.A.-       m.yXx. .5 l H.! y.=                 ",
"                                      d.0X'.B.Y.A.R.y.s                 } >XuXT.` J -       !.eXT.M c 2 { _ J                   ",
"                                    @.s.*XN.z.v.d 2 #                 4 %.J.A.{ m = ;       :X3Xs.[ d p p S.9 ;                 ",
"                                  4 #.Q.-XQ I ,X2.x 9                 1 -.%X%X) q           wX<.[ p.B       4.  > 6             ",
"                                  1 %.K.&.w ^ 5X-XL.W                   E E w 1         &...G.! W.l E 9                         ",
"                                    8 4 9     -.9X=.9                                 4 ) H.X.R m # s 1                         ",
"                                              ) ( 3                                   1 L.%XX.w R     W.                        ",
"                                              q 5                                                                               ",
"                                                                                                                                ",
"                                                                                                                                ",
"                                                                                                                                ",
"                                                                                                                                ",
"                                                                                                                                ",
"                                                                                                                                ",
"                                                                                                                                ",
"                                                                                                                                "
};
